<svg width="40" height="40" viewBox="0 0 40 40" fill="none" xmlns="http://www.w3.org/2000/svg">
<path d="M34 18C34.552 18 35 17.552 35 17V15C35 14.642 34.808 14.31 34.496 14.132L20.496 6.132C20.188 5.956 19.812 5.956 19.504 6.132L5.504 14.132C5.192 14.31 5 14.642 5 15V17C5 17.552 5.448 18 6 18H7V28C5.896 28 5 28.898 5 30V33C5 33.552 5.448 34 6 34H34C34.552 34 35 33.552 35 33V30C35 28.898 34.104 28 33 28V18H34ZM33 32H7V30H33V32ZM9 28V18H11V28H9ZM13 28V18H17V28H13ZM19 28V18H21V28H19ZM23 28V18H27V28H23ZM29 28V18H31V28H29ZM7 16V15.58L20 8.152L33 15.58V16H7Z" fill="#DD2A1B"/>
</svg>
