<svg width="40" height="40" viewBox="0 0 40 40" fill="none" xmlns="http://www.w3.org/2000/svg">
<path fill-rule="evenodd" clip-rule="evenodd" d="M7 7V33H33V7H7ZM31.4766 19.2383H20.7617V8.52344H31.4766V19.2383ZM19.2383 8.52344V19.2383H8.52344V8.52344H19.2383ZM8.52344 20.7617H19.2383V31.4766H8.52344V20.7617ZM20.7617 31.4766V20.7617H31.4766V31.4766H20.7617ZM22.2852 25.3574H29.9531V26.8809H22.2852V25.3574ZM29.9531 13.1192H22.2852V14.6427H29.9531V13.1192ZM25.3574 22.3105H26.8809V23.834H25.3574V22.3105ZM26.8809 28.4043H25.3574V29.9277H26.8809V28.4043ZM13.1191 17.7149H14.6425V14.6427H17.7148V13.1192H14.6425V10.047H13.1191V13.1192H10.0469V14.6427H13.1191V17.7149ZM16.0533 22.8695L17.1305 23.9468L14.9581 26.1191L17.1305 28.2916L16.0533 29.3688L13.8808 27.1964L11.7085 29.3688L10.6313 28.2916L12.8037 26.1191L10.6313 23.9468L11.7085 22.8695L13.8808 25.042L16.0533 22.8695Z" fill="#DD2A1B"/>
</svg>
