<svg width="40" height="40" viewBox="0 0 40 40" fill="none" xmlns="http://www.w3.org/2000/svg">
<path d="M32.1949 19.3639C31.9759 19.3571 31.6873 19.3803 31.3635 19.4526V16.5911C31.3635 10.2736 26.1951 5.00211 19.8775 5C13.5403 4.99795 8.3839 10.1531 8.3839 16.4898V19.3839C8.26282 19.3707 8.04578 19.3422 7.80516 19.3483C6.2559 19.3483 5 20.6042 5 22.1534V24.5707C5 26.1199 6.2559 27.3758 7.8051 27.3758C7.9487 27.3794 8.13184 27.3713 8.38384 27.3402V30.2184C8.38384 31.4395 9.37366 32.4293 10.5947 32.4293H15.0496C14.994 33.3037 15.7196 34.1304 16.6373 34.1246H21.4495C22.3253 34.1246 23.0353 33.4146 23.0353 32.5388V30.56C23.0353 29.6842 22.3253 28.9742 21.4495 28.9742H16.6373C15.7447 28.9686 15.0022 29.7553 15.0496 30.6695H10.5948C10.3457 30.6695 10.1437 30.4675 10.1437 30.2184V28.2088C10.1437 28.2072 10.1454 28.2063 10.1467 28.2073C10.5464 28.4932 11.0236 28.6774 11.5405 28.7203C13.2084 28.8587 14.5769 27.5488 14.5769 25.8753V20.5127C14.5769 18.8392 13.2084 17.5293 11.5405 17.6677C11.0236 17.7106 10.5464 17.8947 10.1467 18.1807C10.1454 18.1816 10.1437 18.1807 10.1437 18.1792V16.5839C10.1437 11.2813 14.3491 6.88174 19.6504 6.76231C25.1172 6.63913 29.6037 11.0504 29.6037 16.4898V18.3696C29.6037 18.3711 29.6022 18.3719 29.6009 18.3712C29.1465 18.1144 28.6143 17.9799 28.0487 18.0152C26.5636 18.1077 25.4231 19.3737 25.4231 20.8617V26.228C25.4231 27.7801 26.6929 29.0916 28.2449 29.0815C29.4843 29.0734 30.535 28.2566 30.8956 27.1336C31.2214 27.2821 31.7355 27.4101 32.1948 27.3914C33.7441 27.3914 35 26.1355 35 24.5862V22.169C35 20.6198 33.7441 19.3639 32.1949 19.3639ZM16.8133 30.7341H21.2736C21.2746 30.7341 21.2755 30.735 21.2755 30.736V32.3629C21.2755 32.364 21.2746 32.3648 21.2736 32.3648H16.8133C16.8123 32.3648 16.8114 32.364 16.8114 32.3629V30.736C16.8114 30.735 16.8123 30.7341 16.8133 30.7341ZM7.86511 25.616C7.25464 25.616 6.75979 25.1211 6.75979 24.5107V22.2134C6.75979 21.603 7.2547 21.108 7.86511 21.108C8.47558 21.108 8.97044 21.603 8.97044 22.2134V24.5107C8.97049 25.1211 8.47558 25.616 7.86511 25.616ZM10.7303 20.4613C10.7303 19.9139 11.1541 19.4635 11.6908 19.4211C12.3091 19.3723 12.8171 19.8726 12.8171 20.4928V25.8953C12.8171 26.5155 12.3091 27.0157 11.6908 26.967C11.1541 26.9246 10.7303 26.4743 10.7303 25.9268V20.4613ZM29.2697 26.2784C29.2697 26.8258 28.8459 27.2762 28.3092 27.3186C27.6909 27.3674 27.1829 26.8671 27.1829 26.2469V20.8444C27.1829 20.2242 27.6909 19.7239 28.3092 19.7727C28.8459 19.8151 29.2697 20.2654 29.2697 20.8129V26.2784ZM33.2402 24.5263C33.2402 25.1367 32.7454 25.6316 32.1349 25.6316H32.1348C31.5244 25.6316 31.0295 25.1367 31.0295 24.5263V22.229C31.0295 21.6185 31.5244 21.1237 32.1348 21.1237C32.7453 21.1237 33.2402 21.6186 33.2402 22.229V24.5263H33.2402Z" fill="#DD2A1B"/>
</svg>
