<svg width="40" height="40" viewBox="0 0 40 40" fill="none" xmlns="http://www.w3.org/2000/svg">
<path fill-rule="evenodd" clip-rule="evenodd" d="M33.4996 5.25739C33.8429 4.9142 34.3994 4.9142 34.7426 5.25739C35.0858 5.60063 35.0858 6.15715 34.7426 6.50034L31.6455 9.59748L32.4431 19.9668C32.4628 20.2226 32.3698 20.4742 32.1883 20.6556L18.1013 34.7425C17.9365 34.9074 17.7129 35 17.4799 35C17.2468 35 17.0232 34.9073 16.8584 34.7425L5.25743 23.1415C4.91419 22.7983 4.91419 22.2418 5.25743 21.8986L19.3444 7.81172C19.5258 7.63026 19.7774 7.53715 20.0333 7.55684L30.4025 8.35454L33.4996 5.25739ZM7.12188 22.52L17.4799 32.8781L30.6595 19.6985L30.0084 11.2345L28.2522 12.9907L28.6665 13.405C29.0097 13.7483 29.0097 14.3047 28.6665 14.648C28.4949 14.8196 28.2699 14.9054 28.045 14.9054C27.8201 14.9054 27.5952 14.8196 27.4236 14.648L25.352 12.5764C25.0088 12.2332 25.0088 11.6767 25.352 11.3335C25.6952 10.9903 26.2517 10.9903 26.5949 11.3335L27.0092 11.7478L28.7654 9.99165L20.3014 9.34055L7.12188 22.52ZM21.2188 16.7324C21.2188 18.1863 20.0359 19.3691 18.582 19.3691C17.1281 19.3691 15.9453 18.1863 15.9453 16.7324C15.9453 15.2785 17.1281 14.0957 18.582 14.0957C20.0359 14.0957 21.2188 15.2785 21.2188 16.7324ZM19.4609 16.7324C19.4609 16.2478 19.0667 15.8535 18.582 15.8535C18.0974 15.8535 17.7031 16.2478 17.7031 16.7324C17.7031 17.2171 18.0974 17.6113 18.582 17.6113C19.0667 17.6113 19.4609 17.2171 19.4609 16.7324ZM12.7227 20.541H24.4414C24.9268 20.541 25.3203 20.9345 25.3203 21.4199C25.3203 21.9053 24.9268 22.2988 24.4414 22.2988H12.7227C12.2373 22.2988 11.8438 21.9053 11.8438 21.4199C11.8438 20.9345 12.2373 20.541 12.7227 20.541ZM18.582 23.4707C17.1281 23.4707 15.9453 24.6535 15.9453 26.1074C15.9453 27.5613 17.1281 28.7441 18.582 28.7441C20.0359 28.7441 21.2188 27.5613 21.2188 26.1074C21.2188 24.6535 20.0359 23.4707 18.582 23.4707ZM18.582 26.9863C18.0974 26.9863 17.7031 26.5921 17.7031 26.1074C17.7031 25.6228 18.0974 25.2285 18.582 25.2285C19.0667 25.2285 19.4609 25.6228 19.4609 26.1074C19.4609 26.5921 19.0667 26.9863 18.582 26.9863Z" fill="#DD2A1B"/>
</svg>
