<svg width="40" height="40" viewBox="0 0 40 40" fill="none" xmlns="http://www.w3.org/2000/svg">
<path fill-rule="evenodd" clip-rule="evenodd" d="M29.3115 13.3765C28.8552 10.2 26.1162 7.75049 22.8154 7.75049H20.0024V4H5V19.0024H6.87524V31.6243L11.5635 36L16.6633 31.2402L14.7649 29.3416L16.6401 27.4663L14.7649 25.5911L16.6401 23.7156L14.3765 21.4519V19.0024H15.3142C17.8992 19.0024 20.0024 16.8992 20.0024 14.3142V9.62598H22.8154C25.0793 9.62598 26.9736 11.2393 27.4092 13.3765H21.8777V32.1294H35.0049V13.3765H29.3115ZM13.988 23.7156L12.1128 25.5911L13.988 27.4663L12.1128 29.3416L13.9648 31.1936L11.5635 33.4348L8.75049 30.8093V19.0024H12.5012V22.2288L13.988 23.7156ZM18.1272 14.3142C18.1272 15.8652 16.8652 17.1272 15.3142 17.1272H6.87524V5.87524H18.1272V14.3142ZM27.5037 22.7529H29.3789V24.6284H27.5037V22.7529ZM29.3789 20.8777H27.5037V19.0024H29.3789V20.8777ZM29.3789 17.1272H27.5037V15.2517H29.3789V17.1272ZM33.1294 30.2542H23.7529V15.2517H25.6284V26.5037H31.2542V15.2517H33.1294V30.2542ZM8.75109 7.75H16.2523V9.62549H8.75109V7.75ZM10.6266 13.3772H8.75109V15.2524H10.6266V13.3772Z" fill="#DD2A1B"/>
</svg>
