<svg width="40" height="40" viewBox="0 0 40 40" fill="none" xmlns="http://www.w3.org/2000/svg">
<path fill-rule="evenodd" clip-rule="evenodd" d="M31.1072 24.4963C30.6334 25.7215 30.0544 27.2194 29.9531 30.0562H35.4V35.4H5V5H22.2908L28.1562 10.8655V17.6749C29.8929 18.0193 31.1997 19.3765 31.5828 20.9339C31.9336 22.3598 31.5507 23.3499 31.1072 24.4963ZM29.446 23.8538C29.8483 22.8136 30.0698 22.2406 29.8531 21.3595C29.6098 20.3702 28.6428 19.3687 27.2656 19.3687C25.8884 19.3687 24.9215 20.3702 24.6781 21.3595C24.4635 22.2319 24.6849 22.8073 25.087 23.8519C25.5857 25.1477 26.253 26.8841 26.3599 30.0563H28.1713C28.2781 26.8757 28.9465 25.1452 29.446 23.8538ZM25.1155 10.3438L22.8125 8.04077V10.3438H25.1155ZM6.78125 6.78125V33.6187H19.25V30.0562H24.5781C24.4767 27.2261 23.8981 25.7219 23.4246 24.4916C22.9822 23.3422 22.6002 22.3495 22.9485 20.9339C23.3364 19.3569 24.6582 18.0151 26.375 17.6749V12.125H21.0312V6.78125H6.78125ZM21.0312 33.6187H33.6187V31.8375H21.0312V33.6187ZM15.6875 15.8066H8.5625V17.5879H15.6875V15.8066ZM8.5625 19.3691H19.25V21.1504H8.5625V19.3691ZM8.5625 29.166C8.5625 27.6927 9.7611 26.4941 11.2344 26.4941C12.7076 26.4941 13.9062 27.6927 13.9062 29.166C13.9062 30.6393 12.7076 31.8379 11.2344 31.8379C9.7611 31.8379 8.5625 30.6393 8.5625 29.166ZM10.3438 29.166C10.3438 29.6571 10.7433 30.0566 11.2344 30.0566C11.7255 30.0566 12.125 29.6571 12.125 29.166C12.125 28.6749 11.7255 28.2754 11.2344 28.2754C10.7433 28.2754 10.3438 28.6749 10.3438 29.166Z" fill="#DD2A1B"/>
</svg>
