<svg width="40" height="40" viewBox="0 0 40 40" fill="none" xmlns="http://www.w3.org/2000/svg">
<path fill-rule="evenodd" clip-rule="evenodd" d="M17.75 4.03125C17.75 4.04862 17.6667 4.0625 17.5625 4.0625C17.4583 4.0625 17.375 4.07638 17.375 4.09375C17.375 4.11094 17.3188 4.125 17.25 4.125C17.1812 4.125 17.125 4.13906 17.125 4.15625C17.125 4.17344 17.0688 4.1875 17 4.1875C16.9312 4.1875 16.875 4.20156 16.875 4.21875C16.875 4.23594 16.8328 4.25 16.7812 4.25C16.7297 4.25 16.6875 4.26406 16.6875 4.28125C16.6875 4.29844 16.6594 4.3125 16.625 4.3125C16.5906 4.3125 16.5625 4.32656 16.5625 4.34375C16.5625 4.36094 16.5203 4.375 16.4688 4.375C16.4172 4.375 16.375 4.38906 16.375 4.40625C16.375 4.42344 16.3469 4.4375 16.3125 4.4375C16.2781 4.4375 16.25 4.45156 16.25 4.46875C16.25 4.48594 16.2219 4.5 16.1875 4.5C16.1531 4.5 16.125 4.51406 16.125 4.53125C16.125 4.54844 16.1 4.5625 16.0694 4.5625C16.0388 4.5625 15.9935 4.59062 15.9688 4.625C15.944 4.65938 15.9018 4.6875 15.875 4.6875C15.8482 4.6875 15.806 4.71562 15.7812 4.75C15.7565 4.78438 15.7143 4.8125 15.6875 4.8125C15.6607 4.8125 15.6185 4.84062 15.5938 4.875C15.569 4.90938 15.53 4.9375 15.5072 4.9375C15.4844 4.9375 15.3687 5.03594 15.25 5.15625C15.1313 5.27656 15.0125 5.375 14.9859 5.375C14.9593 5.375 14.9375 5.39688 14.9375 5.42359C14.9375 5.45034 14.8531 5.55503 14.75 5.65625C14.6469 5.75747 14.5625 5.85906 14.5625 5.882C14.5625 5.90494 14.5344 5.94397 14.5 5.96875C14.4656 5.99353 14.4375 6.03572 14.4375 6.0625C14.4375 6.08928 14.4094 6.13147 14.375 6.15625C14.3406 6.18103 14.3125 6.22322 14.3125 6.25C14.3125 6.27678 14.2844 6.31897 14.25 6.34375C14.2156 6.36853 14.1875 6.41381 14.1875 6.44441C14.1875 6.47497 14.1734 6.5 14.1562 6.5C14.1391 6.5 14.125 6.52813 14.125 6.5625C14.125 6.59687 14.1109 6.625 14.0938 6.625C14.0766 6.625 14.0625 6.65313 14.0625 6.6875C14.0625 6.72187 14.0484 6.75 14.0312 6.75C14.0141 6.75 14 6.79219 14 6.84375C14 6.89531 13.9859 6.9375 13.9688 6.9375C13.9516 6.9375 13.9375 6.96563 13.9375 7C13.9375 7.03437 13.9234 7.0625 13.9062 7.0625C13.8891 7.0625 13.875 7.10469 13.875 7.15625C13.875 7.20781 13.8609 7.25 13.8438 7.25C13.8266 7.25 13.8125 7.30625 13.8125 7.375C13.8125 7.44375 13.7984 7.5 13.7812 7.5C13.7641 7.5 13.75 7.55625 13.75 7.625C13.75 7.69375 13.7359 7.75 13.7188 7.75C13.7014 7.75 13.6875 7.83334 13.6875 7.9375C13.6875 8.04166 13.6736 8.125 13.6562 8.125C13.6363 8.125 13.625 8.39584 13.625 8.875V9.625H12.9688C12.5521 9.625 12.3125 9.63641 12.3125 9.65625C12.3125 9.67344 12.2422 9.6875 12.1562 9.6875C12.0703 9.6875 12 9.70156 12 9.71875C12 9.73594 11.9437 9.75 11.875 9.75C11.8063 9.75 11.75 9.76406 11.75 9.78125C11.75 9.79844 11.7219 9.8125 11.6875 9.8125C11.6531 9.8125 11.625 9.82656 11.625 9.84375C11.625 9.86094 11.5969 9.875 11.5625 9.875C11.5281 9.875 11.5 9.88906 11.5 9.90625C11.5 9.92344 11.4609 9.9375 11.4132 9.9375C11.3622 9.9375 11.3077 9.96331 11.2812 10C11.2565 10.0344 11.2143 10.0625 11.1875 10.0625C11.1607 10.0625 11.1185 10.0906 11.0938 10.125C11.069 10.1594 11.0305 10.1875 11.0083 10.1875C10.9556 10.1875 10.4375 10.7056 10.4375 10.7583C10.4375 10.7805 10.4094 10.819 10.375 10.8438C10.3406 10.8685 10.3125 10.9107 10.3125 10.9375C10.3125 10.9643 10.2844 11.0065 10.25 11.0312C10.2133 11.0577 10.1875 11.1122 10.1875 11.1632C10.1875 11.2109 10.1734 11.25 10.1562 11.25C10.1391 11.25 10.125 11.2781 10.125 11.3125C10.125 11.3469 10.1109 11.375 10.0938 11.375C10.0766 11.375 10.0625 11.4031 10.0625 11.4375C10.0625 11.4719 10.0484 11.5 10.0312 11.5C10.0141 11.5 10 11.5563 10 11.625C10 11.6937 9.98594 11.75 9.96875 11.75C9.95156 11.75 9.9375 11.8203 9.9375 11.9062C9.9375 11.9922 9.92344 12.0625 9.90625 12.0625C9.88591 12.0625 9.875 12.5208 9.875 13.375C9.875 14.2292 9.88591 14.6875 9.90625 14.6875C9.92344 14.6875 9.9375 14.7578 9.9375 14.8438C9.9375 14.9297 9.95156 15 9.96875 15C9.98594 15 10 15.0562 10 15.125C10 15.1938 10.0141 15.25 10.0312 15.25C10.0484 15.25 10.0625 15.2922 10.0625 15.3438C10.0625 15.3953 10.0766 15.4375 10.0938 15.4375C10.1109 15.4375 10.125 15.4656 10.125 15.5C10.125 15.5344 10.1391 15.5625 10.1562 15.5625C10.1734 15.5625 10.1875 15.5906 10.1875 15.625C10.1875 15.6594 10.2016 15.6875 10.2188 15.6875C10.2359 15.6875 10.25 15.7125 10.25 15.7431C10.25 15.7737 10.2781 15.819 10.3125 15.8438C10.3469 15.8685 10.375 15.9079 10.375 15.9312C10.375 15.9546 10.4313 16.0277 10.5 16.0938C10.5687 16.1598 10.625 16.2295 10.625 16.2486C10.625 16.2941 10.8314 16.5 10.877 16.5C10.8965 16.5 10.9518 16.5422 11 16.5938C11.0482 16.6453 11.107 16.6875 11.1306 16.6875C11.1543 16.6875 11.194 16.7156 11.2188 16.75C11.2435 16.7844 11.2888 16.8125 11.3194 16.8125C11.35 16.8125 11.375 16.8266 11.375 16.8438C11.375 16.8609 11.4031 16.875 11.4375 16.875C11.4719 16.875 11.5 16.8891 11.5 16.9062C11.5 16.9234 11.5281 16.9375 11.5625 16.9375C11.5969 16.9375 11.625 16.9516 11.625 16.9688C11.625 16.9859 11.6672 17 11.7188 17C11.7703 17 11.8125 17.0141 11.8125 17.0312C11.8125 17.0484 11.8547 17.0625 11.9062 17.0625C11.9578 17.0625 12 17.0766 12 17.0938C12 17.1109 12.0703 17.125 12.1562 17.125C12.2422 17.125 12.3125 17.1391 12.3125 17.1562C12.3125 17.1761 12.5625 17.1875 13 17.1875H13.6875V17.2812C13.6875 17.3328 13.7016 17.375 13.7188 17.375C13.7359 17.375 13.75 17.4453 13.75 17.5312C13.75 17.6172 13.7641 17.6875 13.7812 17.6875C13.7984 17.6875 13.8125 17.7437 13.8125 17.8125C13.8125 17.8813 13.8266 17.9375 13.8438 17.9375C13.8609 17.9375 13.875 17.9797 13.875 18.0312C13.875 18.0828 13.8891 18.125 13.9062 18.125C13.9234 18.125 13.9375 18.1812 13.9375 18.25C13.9375 18.3188 13.9516 18.375 13.9688 18.375C13.9859 18.375 14 18.4031 14 18.4375C14 18.4719 14.0141 18.5 14.0312 18.5C14.0484 18.5 14.0625 18.5422 14.0625 18.5938C14.0625 18.6453 14.0766 18.6875 14.0938 18.6875C14.1109 18.6875 14.125 18.7156 14.125 18.75C14.125 18.7844 14.1391 18.8125 14.1562 18.8125C14.1734 18.8125 14.1875 18.8547 14.1875 18.9062C14.1875 18.9578 14.2016 19 14.2188 19C14.2359 19 14.25 19.0281 14.25 19.0625C14.25 19.0969 14.2641 19.125 14.2812 19.125C14.2984 19.125 14.3125 19.1531 14.3125 19.1875C14.3125 19.2219 14.3266 19.25 14.3438 19.25C14.3609 19.25 14.375 19.275 14.375 19.3056C14.375 19.3362 14.4031 19.3815 14.4375 19.4062C14.4719 19.431 14.5 19.4763 14.5 19.5069C14.5 19.5375 14.5141 19.5625 14.5312 19.5625C14.5484 19.5625 14.5625 19.5875 14.5625 19.6181C14.5625 19.6487 14.5906 19.694 14.625 19.7188C14.6594 19.7435 14.6875 19.7857 14.6875 19.8125C14.6875 19.8393 14.7156 19.8815 14.75 19.9062C14.7844 19.931 14.8125 19.9732 14.8125 20C14.8125 20.0268 14.8406 20.069 14.875 20.0938C14.9094 20.1185 14.9375 20.1577 14.9375 20.1808C14.9375 20.2039 15.0078 20.2913 15.0938 20.375C15.1797 20.4587 15.25 20.5423 15.25 20.5608C15.25 20.605 15.8954 21.25 15.9396 21.25C15.9583 21.25 16.0277 21.3062 16.0938 21.375C16.1598 21.4438 16.2329 21.5 16.2563 21.5C16.2796 21.5 16.319 21.5281 16.3438 21.5625C16.3685 21.5969 16.4107 21.625 16.4375 21.625C16.4643 21.625 16.5065 21.6531 16.5312 21.6875C16.556 21.7219 16.5982 21.75 16.625 21.75C16.6518 21.75 16.694 21.7781 16.7188 21.8125C16.7435 21.8469 16.7888 21.875 16.8194 21.875C16.85 21.875 16.875 21.8891 16.875 21.9062C16.875 21.9234 16.9 21.9375 16.9306 21.9375C16.9612 21.9375 17.0065 21.9656 17.0312 22C17.056 22.0344 17.1013 22.0625 17.1319 22.0625C17.1625 22.0625 17.1875 22.0766 17.1875 22.0938C17.1875 22.1109 17.2156 22.125 17.25 22.125C17.2844 22.125 17.3125 22.1391 17.3125 22.1562C17.3125 22.1734 17.3406 22.1875 17.375 22.1875C17.4094 22.1875 17.4375 22.2016 17.4375 22.2188C17.4375 22.2359 17.4797 22.25 17.5312 22.25C17.5828 22.25 17.625 22.2641 17.625 22.2812C17.625 22.2984 17.6531 22.3125 17.6875 22.3125C17.7219 22.3125 17.75 22.3266 17.75 22.3438C17.75 22.3609 17.7922 22.375 17.8438 22.375C17.8953 22.375 17.9375 22.3891 17.9375 22.4062C17.9375 22.4234 17.9656 22.4375 18 22.4375C18.0344 22.4375 18.0625 22.4516 18.0625 22.4688C18.0625 22.4859 18.1187 22.5 18.1875 22.5C18.2563 22.5 18.3125 22.5141 18.3125 22.5312C18.3125 22.5484 18.3547 22.5625 18.4062 22.5625C18.4578 22.5625 18.5 22.5766 18.5 22.5938C18.5 22.6109 18.5562 22.625 18.625 22.625C18.6938 22.625 18.75 22.6391 18.75 22.6562C18.75 22.6734 18.8203 22.6875 18.9062 22.6875C18.9922 22.6875 19.0625 22.7016 19.0625 22.7188C19.0625 22.737 19.1667 22.75 19.3125 22.75C19.4583 22.75 19.5625 22.763 19.5625 22.7812C19.5625 22.8019 18.3021 22.8125 15.8438 22.8125C13.3854 22.8125 12.125 22.8231 12.125 22.8438C12.125 22.8611 12.0417 22.875 11.9375 22.875C11.8333 22.875 11.75 22.8889 11.75 22.9062C11.75 22.9234 11.6937 22.9375 11.625 22.9375C11.5563 22.9375 11.5 22.9516 11.5 22.9688C11.5 22.9859 11.4437 23 11.375 23C11.3063 23 11.25 23.0141 11.25 23.0312C11.25 23.0484 11.2219 23.0625 11.1875 23.0625C11.1531 23.0625 11.125 23.0766 11.125 23.0938C11.125 23.1109 11.0828 23.125 11.0312 23.125C10.9797 23.125 10.9375 23.1391 10.9375 23.1562C10.9375 23.1734 10.9094 23.1875 10.875 23.1875C10.8406 23.1875 10.8125 23.2016 10.8125 23.2188C10.8125 23.2359 10.7844 23.25 10.75 23.25C10.7156 23.25 10.6875 23.2641 10.6875 23.2812C10.6875 23.2984 10.6594 23.3125 10.625 23.3125C10.5906 23.3125 10.5625 23.3266 10.5625 23.3438C10.5625 23.3609 10.5344 23.375 10.5 23.375C10.4656 23.375 10.4375 23.3891 10.4375 23.4062C10.4375 23.4234 10.4094 23.4375 10.375 23.4375C10.3406 23.4375 10.3125 23.4516 10.3125 23.4688C10.3125 23.4859 10.2875 23.5 10.2569 23.5C10.2263 23.5 10.181 23.5281 10.1562 23.5625C10.1315 23.5969 10.0921 23.625 10.0688 23.625C10.0454 23.625 9.97231 23.6812 9.90625 23.75C9.84019 23.8188 9.77081 23.875 9.75209 23.875C9.70722 23.875 9.0625 24.5203 9.0625 24.5652C9.0625 24.5843 9.02031 24.6393 8.96875 24.6875C8.91719 24.7357 8.875 24.7945 8.875 24.8181C8.875 24.8418 8.84688 24.8815 8.8125 24.9062C8.77812 24.931 8.75 24.9732 8.75 25C8.75 25.0268 8.72188 25.069 8.6875 25.0938C8.65312 25.1185 8.625 25.1638 8.625 25.1944C8.625 25.225 8.61094 25.25 8.59375 25.25C8.57656 25.25 8.5625 25.2781 8.5625 25.3125C8.5625 25.3469 8.54844 25.375 8.53125 25.375C8.51406 25.375 8.5 25.4031 8.5 25.4375C8.5 25.4719 8.48594 25.5 8.46875 25.5C8.45156 25.5 8.4375 25.5281 8.4375 25.5625C8.4375 25.5969 8.42344 25.625 8.40625 25.625C8.38906 25.625 8.375 25.6672 8.375 25.7188C8.375 25.7703 8.36094 25.8125 8.34375 25.8125C8.32656 25.8125 8.3125 25.8406 8.3125 25.875C8.3125 25.9094 8.29844 25.9375 8.28125 25.9375C8.26406 25.9375 8.25 25.9797 8.25 26.0312C8.25 26.0828 8.23594 26.125 8.21875 26.125C8.20156 26.125 8.1875 26.1812 8.1875 26.25C8.1875 26.3188 8.17344 26.375 8.15625 26.375C8.13906 26.375 8.125 26.4312 8.125 26.5C8.125 26.5688 8.11094 26.625 8.09375 26.625C8.07638 26.625 8.0625 26.7083 8.0625 26.8125C8.0625 26.9167 8.04862 27 8.03125 27C8.01056 27 8 28.4062 8 31.1562C8 33.9062 8.01056 35.3125 8.03125 35.3125C8.04844 35.3125 8.0625 35.3406 8.0625 35.375C8.0625 35.4094 8.07656 35.4375 8.09375 35.4375C8.11094 35.4375 8.125 35.4656 8.125 35.5C8.125 35.5344 8.13906 35.5625 8.15625 35.5625C8.17344 35.5625 8.1875 35.5842 8.1875 35.6108C8.1875 35.6733 8.32669 35.8125 8.38922 35.8125C8.41578 35.8125 8.4375 35.8266 8.4375 35.8438C8.4375 35.8609 8.46562 35.875 8.5 35.875C8.53438 35.875 8.5625 35.8891 8.5625 35.9062C8.5625 35.9234 8.59062 35.9375 8.625 35.9375C8.65938 35.9375 8.6875 35.9516 8.6875 35.9688C8.6875 35.9895 12.5417 36 20.1875 36C27.8333 36 31.6875 35.9895 31.6875 35.9688C31.6875 35.9516 31.7156 35.9375 31.75 35.9375C31.7844 35.9375 31.8125 35.9234 31.8125 35.9062C31.8125 35.8891 31.8406 35.875 31.875 35.875C31.9094 35.875 31.9375 35.8609 31.9375 35.8438C31.9375 35.8266 31.9592 35.8125 31.9858 35.8125C32.0483 35.8125 32.1875 35.6733 32.1875 35.6108C32.1875 35.5842 32.2016 35.5625 32.2188 35.5625C32.2359 35.5625 32.25 35.5344 32.25 35.5C32.25 35.4656 32.2641 35.4375 32.2812 35.4375C32.2984 35.4375 32.3125 35.4094 32.3125 35.375C32.3125 35.3406 32.3266 35.3125 32.3438 35.3125C32.3644 35.3125 32.375 33.9062 32.375 31.1562C32.375 28.4062 32.3644 27 32.3438 27C32.3264 27 32.3125 26.9167 32.3125 26.8125C32.3125 26.7083 32.2986 26.625 32.2812 26.625C32.2641 26.625 32.25 26.5688 32.25 26.5C32.25 26.4312 32.2359 26.375 32.2188 26.375C32.2016 26.375 32.1875 26.3188 32.1875 26.25C32.1875 26.1812 32.1734 26.125 32.1562 26.125C32.1391 26.125 32.125 26.0828 32.125 26.0312C32.125 25.9797 32.1109 25.9375 32.0938 25.9375C32.0766 25.9375 32.0625 25.9094 32.0625 25.875C32.0625 25.8406 32.0484 25.8125 32.0312 25.8125C32.0141 25.8125 32 25.7703 32 25.7188C32 25.6672 31.9859 25.625 31.9688 25.625C31.9516 25.625 31.9375 25.5969 31.9375 25.5625C31.9375 25.5281 31.9234 25.5 31.9062 25.5C31.8891 25.5 31.875 25.4719 31.875 25.4375C31.875 25.4031 31.8609 25.375 31.8438 25.375C31.8266 25.375 31.8125 25.3469 31.8125 25.3125C31.8125 25.2781 31.7984 25.25 31.7812 25.25C31.7641 25.25 31.75 25.225 31.75 25.1944C31.75 25.1638 31.7219 25.1185 31.6875 25.0938C31.6531 25.069 31.625 25.0268 31.625 25C31.625 24.9732 31.5969 24.931 31.5625 24.9062C31.5281 24.8815 31.5 24.8418 31.5 24.8181C31.5 24.7945 31.4578 24.7357 31.4062 24.6875C31.3547 24.6393 31.3125 24.5843 31.3125 24.5653C31.3125 24.5165 30.6032 23.8125 30.5541 23.8125C30.5319 23.8125 30.4935 23.7844 30.4688 23.75C30.444 23.7156 30.4018 23.6875 30.375 23.6875C30.3482 23.6875 30.306 23.6594 30.2812 23.625C30.2565 23.5906 30.2143 23.5625 30.1875 23.5625C30.1607 23.5625 30.1185 23.5344 30.0938 23.5C30.069 23.4656 30.0237 23.4375 29.9931 23.4375C29.9625 23.4375 29.9375 23.4234 29.9375 23.4062C29.9375 23.3891 29.9094 23.375 29.875 23.375C29.8406 23.375 29.8125 23.3609 29.8125 23.3438C29.8125 23.3266 29.7844 23.3125 29.75 23.3125C29.7156 23.3125 29.6875 23.2984 29.6875 23.2812C29.6875 23.2641 29.6594 23.25 29.625 23.25C29.5906 23.25 29.5625 23.2359 29.5625 23.2188C29.5625 23.2016 29.5344 23.1875 29.5 23.1875C29.4656 23.1875 29.4375 23.1734 29.4375 23.1562C29.4375 23.1391 29.3953 23.125 29.3438 23.125C29.2922 23.125 29.25 23.1109 29.25 23.0938C29.25 23.0766 29.2078 23.0625 29.1562 23.0625C29.1047 23.0625 29.0625 23.0484 29.0625 23.0312C29.0625 23.0141 29.0203 23 28.9688 23C28.9172 23 28.875 22.9859 28.875 22.9688C28.875 22.9516 28.8188 22.9375 28.75 22.9375C28.6812 22.9375 28.625 22.9234 28.625 22.9062C28.625 22.8889 28.5417 22.875 28.4375 22.875C28.3333 22.875 28.25 22.8611 28.25 22.8438C28.25 22.8231 26.9896 22.8125 24.5312 22.8125C22.0729 22.8125 20.8125 22.8019 20.8125 22.7812C20.8125 22.763 20.9167 22.75 21.0625 22.75C21.2083 22.75 21.3125 22.737 21.3125 22.7188C21.3125 22.7016 21.3828 22.6875 21.4688 22.6875C21.5547 22.6875 21.625 22.6734 21.625 22.6562C21.625 22.6391 21.6812 22.625 21.75 22.625C21.8188 22.625 21.875 22.6109 21.875 22.5938C21.875 22.5766 21.9172 22.5625 21.9688 22.5625C22.0203 22.5625 22.0625 22.5484 22.0625 22.5312C22.0625 22.5141 22.1047 22.5 22.1562 22.5C22.2078 22.5 22.25 22.4859 22.25 22.4688C22.25 22.4516 22.2922 22.4375 22.3438 22.4375C22.3953 22.4375 22.4375 22.4234 22.4375 22.4062C22.4375 22.3891 22.4797 22.375 22.5312 22.375C22.5828 22.375 22.625 22.3609 22.625 22.3438C22.625 22.3266 22.6531 22.3125 22.6875 22.3125C22.7219 22.3125 22.75 22.2984 22.75 22.2812C22.75 22.2641 22.7922 22.25 22.8438 22.25C22.8953 22.25 22.9375 22.2359 22.9375 22.2188C22.9375 22.2016 22.9656 22.1875 23 22.1875C23.0344 22.1875 23.0625 22.1734 23.0625 22.1562C23.0625 22.1391 23.0906 22.125 23.125 22.125C23.1594 22.125 23.1875 22.1109 23.1875 22.0938C23.1875 22.0766 23.2125 22.0625 23.2431 22.0625C23.2737 22.0625 23.319 22.0344 23.3438 22C23.3685 21.9656 23.4138 21.9375 23.4444 21.9375C23.475 21.9375 23.5 21.9234 23.5 21.9062C23.5 21.8891 23.525 21.875 23.5556 21.875C23.5862 21.875 23.6315 21.8469 23.6562 21.8125C23.681 21.7781 23.7232 21.75 23.75 21.75C23.7768 21.75 23.819 21.7219 23.8438 21.6875C23.8685 21.6531 23.9107 21.625 23.9375 21.625C23.9643 21.625 24.0065 21.5969 24.0312 21.5625C24.056 21.5281 24.0954 21.5 24.1187 21.5C24.1421 21.5 24.2152 21.4438 24.2812 21.375C24.3473 21.3062 24.4167 21.25 24.4354 21.25C24.4798 21.25 25.1875 20.5423 25.1875 20.4979C25.1875 20.4792 25.2437 20.4098 25.3125 20.3438C25.3813 20.2777 25.4375 20.2046 25.4375 20.1812C25.4375 20.1579 25.4656 20.1185 25.5 20.0938C25.5344 20.069 25.5625 20.0268 25.5625 20C25.5625 19.9732 25.5906 19.931 25.625 19.9062C25.6594 19.8815 25.6875 19.8393 25.6875 19.8125C25.6875 19.7857 25.7156 19.7435 25.75 19.7188C25.7844 19.694 25.8125 19.6487 25.8125 19.6181C25.8125 19.5875 25.8266 19.5625 25.8438 19.5625C25.8609 19.5625 25.875 19.5375 25.875 19.5069C25.875 19.4763 25.9031 19.431 25.9375 19.4062C25.9719 19.3815 26 19.3362 26 19.3056C26 19.275 26.0141 19.25 26.0312 19.25C26.0484 19.25 26.0625 19.2219 26.0625 19.1875C26.0625 19.1531 26.0766 19.125 26.0938 19.125C26.1109 19.125 26.125 19.0969 26.125 19.0625C26.125 19.0281 26.1391 19 26.1562 19C26.1734 19 26.1875 18.9578 26.1875 18.9062C26.1875 18.8547 26.2016 18.8125 26.2188 18.8125C26.2359 18.8125 26.25 18.7844 26.25 18.75C26.25 18.7156 26.2641 18.6875 26.2812 18.6875C26.2984 18.6875 26.3125 18.6453 26.3125 18.5938C26.3125 18.5422 26.3266 18.5 26.3438 18.5C26.3609 18.5 26.375 18.4719 26.375 18.4375C26.375 18.4031 26.3891 18.375 26.4062 18.375C26.4234 18.375 26.4375 18.3188 26.4375 18.25C26.4375 18.1812 26.4516 18.125 26.4688 18.125C26.4859 18.125 26.5 18.0828 26.5 18.0312C26.5 17.9797 26.5141 17.9375 26.5312 17.9375C26.5484 17.9375 26.5625 17.8813 26.5625 17.8125C26.5625 17.7437 26.5766 17.6875 26.5938 17.6875C26.6109 17.6875 26.625 17.6172 26.625 17.5312C26.625 17.4453 26.6391 17.375 26.6562 17.375C26.6734 17.375 26.6875 17.3328 26.6875 17.2812V17.1875H27.375C27.8125 17.1875 28.0625 17.1761 28.0625 17.1562C28.0625 17.1391 28.1328 17.125 28.2188 17.125C28.3047 17.125 28.375 17.1109 28.375 17.0938C28.375 17.0766 28.4172 17.0625 28.4688 17.0625C28.5203 17.0625 28.5625 17.0484 28.5625 17.0312C28.5625 17.0141 28.6047 17 28.6562 17C28.7078 17 28.75 16.9859 28.75 16.9688C28.75 16.9516 28.7781 16.9375 28.8125 16.9375C28.8469 16.9375 28.875 16.9234 28.875 16.9062C28.875 16.8891 28.9031 16.875 28.9375 16.875C28.9719 16.875 29 16.8609 29 16.8438C29 16.8266 29.025 16.8125 29.0556 16.8125C29.0862 16.8125 29.1315 16.7844 29.1562 16.75C29.181 16.7156 29.2207 16.6875 29.2444 16.6875C29.268 16.6875 29.3268 16.6453 29.375 16.5938C29.4232 16.5422 29.4785 16.5 29.498 16.5C29.5436 16.5 29.75 16.2941 29.75 16.2486C29.75 16.2295 29.8062 16.1598 29.875 16.0938C29.9438 16.0277 30 15.9546 30 15.9312C30 15.9079 30.0281 15.8685 30.0625 15.8438C30.0969 15.819 30.125 15.7737 30.125 15.7431C30.125 15.7125 30.1391 15.6875 30.1562 15.6875C30.1734 15.6875 30.1875 15.6594 30.1875 15.625C30.1875 15.5906 30.2016 15.5625 30.2188 15.5625C30.2359 15.5625 30.25 15.5344 30.25 15.5C30.25 15.4656 30.2641 15.4375 30.2812 15.4375C30.2984 15.4375 30.3125 15.3953 30.3125 15.3438C30.3125 15.2922 30.3266 15.25 30.3438 15.25C30.3609 15.25 30.375 15.1938 30.375 15.125C30.375 15.0562 30.3891 15 30.4062 15C30.4234 15 30.4375 14.9297 30.4375 14.8438C30.4375 14.7578 30.4516 14.6875 30.4688 14.6875C30.4891 14.6875 30.5 14.2292 30.5 13.375C30.5 12.5208 30.4891 12.0625 30.4688 12.0625C30.4516 12.0625 30.4375 11.9922 30.4375 11.9062C30.4375 11.8203 30.4234 11.75 30.4062 11.75C30.3891 11.75 30.375 11.6937 30.375 11.625C30.375 11.5563 30.3609 11.5 30.3438 11.5C30.3266 11.5 30.3125 11.4719 30.3125 11.4375C30.3125 11.4031 30.2984 11.375 30.2812 11.375C30.2641 11.375 30.25 11.3469 30.25 11.3125C30.25 11.2781 30.2359 11.25 30.2188 11.25C30.2016 11.25 30.1875 11.2109 30.1875 11.1632C30.1875 11.1122 30.1617 11.0577 30.125 11.0312C30.0906 11.0065 30.0625 10.9643 30.0625 10.9375C30.0625 10.9107 30.0344 10.8685 30 10.8438C29.9656 10.819 29.9375 10.7805 29.9375 10.7583C29.9375 10.7056 29.4194 10.1875 29.3667 10.1875C29.3445 10.1875 29.306 10.1594 29.2812 10.125C29.2565 10.0906 29.2143 10.0625 29.1875 10.0625C29.1607 10.0625 29.1185 10.0344 29.0938 10C29.0673 9.96331 29.0128 9.9375 28.9618 9.9375C28.9141 9.9375 28.875 9.92344 28.875 9.90625C28.875 9.88906 28.8469 9.875 28.8125 9.875C28.7781 9.875 28.75 9.86094 28.75 9.84375C28.75 9.82656 28.7219 9.8125 28.6875 9.8125C28.6531 9.8125 28.625 9.79844 28.625 9.78125C28.625 9.76406 28.5688 9.75 28.5 9.75C28.4312 9.75 28.375 9.73594 28.375 9.71875C28.375 9.70156 28.3047 9.6875 28.2188 9.6875C28.1328 9.6875 28.0625 9.67344 28.0625 9.65625C28.0625 9.63637 27.8125 9.625 27.375 9.625H26.6875V9.53125C26.6875 9.47969 26.6734 9.4375 26.6562 9.4375C26.6391 9.4375 26.625 9.36719 26.625 9.28125C26.625 9.19531 26.6109 9.125 26.5938 9.125C26.5766 9.125 26.5625 9.06875 26.5625 9C26.5625 8.93125 26.5484 8.875 26.5312 8.875C26.5141 8.875 26.5 8.83281 26.5 8.78125C26.5 8.72969 26.4859 8.6875 26.4688 8.6875C26.4516 8.6875 26.4375 8.63125 26.4375 8.5625C26.4375 8.49375 26.4234 8.4375 26.4062 8.4375C26.3891 8.4375 26.375 8.40938 26.375 8.375C26.375 8.34062 26.3609 8.3125 26.3438 8.3125C26.3266 8.3125 26.3125 8.27031 26.3125 8.21875C26.3125 8.16719 26.2984 8.125 26.2812 8.125C26.2641 8.125 26.25 8.09688 26.25 8.0625C26.25 8.02812 26.2359 8 26.2188 8C26.2016 8 26.1875 7.95781 26.1875 7.90625C26.1875 7.85469 26.1734 7.8125 26.1562 7.8125C26.1391 7.8125 26.125 7.78437 26.125 7.75C26.125 7.71563 26.1109 7.6875 26.0938 7.6875C26.0766 7.6875 26.0625 7.65937 26.0625 7.625C26.0625 7.59063 26.0484 7.5625 26.0312 7.5625C26.0141 7.5625 26 7.53437 26 7.5C26 7.46563 25.9859 7.4375 25.9688 7.4375C25.9516 7.4375 25.9375 7.41247 25.9375 7.38191C25.9375 7.35131 25.9094 7.30603 25.875 7.28125C25.8406 7.25647 25.8125 7.21428 25.8125 7.1875C25.8125 7.16072 25.7844 7.11853 25.75 7.09375C25.7156 7.06897 25.6875 7.02369 25.6875 6.99309C25.6875 6.96253 25.6734 6.9375 25.6562 6.9375C25.6391 6.9375 25.625 6.91503 25.625 6.88753C25.625 6.86006 25.5828 6.79816 25.5312 6.75C25.4797 6.70184 25.4375 6.64587 25.4375 6.62562C25.4375 6.60541 25.3813 6.53481 25.3125 6.46875C25.2437 6.40269 25.1875 6.33272 25.1875 6.31322C25.1875 6.29372 25.1031 6.19497 25 6.09375C24.8154 5.91256 24.8125 5.907 24.8125 5.73609C24.8125 5.64062 24.8266 5.5625 24.8438 5.5625C24.8631 5.5625 24.875 5.39584 24.875 5.125C24.875 4.85416 24.8631 4.6875 24.8438 4.6875C24.8266 4.6875 24.8125 4.65938 24.8125 4.625C24.8125 4.59062 24.7984 4.5625 24.7812 4.5625C24.7641 4.5625 24.75 4.53438 24.75 4.5C24.75 4.46562 24.7359 4.4375 24.7188 4.4375C24.7016 4.4375 24.6875 4.41578 24.6875 4.38922C24.6875 4.32669 24.5483 4.1875 24.4858 4.1875C24.4592 4.1875 24.4375 4.17344 24.4375 4.15625C24.4375 4.13906 24.4094 4.125 24.375 4.125C24.3406 4.125 24.3125 4.11094 24.3125 4.09375C24.3125 4.07656 24.2844 4.0625 24.25 4.0625C24.2156 4.0625 24.1875 4.04844 24.1875 4.03125C24.1875 4.01062 23.0938 4 20.9688 4C18.8438 4 17.75 4.01062 17.75 4.03125ZM22.875 6C22.875 6.06875 22.8609 6.125 22.8438 6.125C22.8266 6.125 22.8125 6.16719 22.8125 6.21875C22.8125 6.27031 22.7984 6.3125 22.7812 6.3125C22.7641 6.3125 22.75 6.35469 22.75 6.40625C22.75 6.45781 22.7359 6.5 22.7188 6.5C22.7016 6.5 22.6875 6.54219 22.6875 6.59375C22.6875 6.64531 22.6734 6.6875 22.6562 6.6875C22.6391 6.6875 22.625 6.71563 22.625 6.75C22.625 6.78437 22.6109 6.8125 22.5938 6.8125C22.5766 6.8125 22.5625 6.85469 22.5625 6.90625C22.5625 6.95781 22.5484 7 22.5312 7C22.5141 7 22.5 7.02503 22.5 7.05559C22.5 7.08619 22.4719 7.13147 22.4375 7.15625C22.4031 7.18103 22.375 7.22631 22.375 7.25691C22.375 7.28747 22.3609 7.3125 22.3438 7.3125C22.3266 7.3125 22.3125 7.33753 22.3125 7.36809C22.3125 7.39869 22.2844 7.44397 22.25 7.46875C22.2156 7.49353 22.1875 7.53319 22.1875 7.55687C22.1875 7.58053 22.1453 7.63934 22.0938 7.6875C22.0422 7.73566 22 7.79066 22 7.80969C22 7.85841 21.1656 8.6875 21.1166 8.6875C21.0944 8.6875 21.056 8.71562 21.0312 8.75C21.0065 8.78438 20.9643 8.8125 20.9375 8.8125C20.9107 8.8125 20.8685 8.84062 20.8438 8.875C20.819 8.90938 20.7737 8.9375 20.7431 8.9375C20.7125 8.9375 20.6875 8.95156 20.6875 8.96875C20.6875 8.98594 20.6594 9 20.625 9C20.5906 9 20.5625 9.01406 20.5625 9.03125C20.5625 9.04844 20.5375 9.0625 20.5069 9.0625C20.4763 9.0625 20.431 9.09062 20.4062 9.125C20.3798 9.16169 20.3253 9.1875 20.2743 9.1875C20.2266 9.1875 20.1875 9.20156 20.1875 9.21875C20.1875 9.23594 20.1594 9.25 20.125 9.25C20.0906 9.25 20.0625 9.26406 20.0625 9.28125C20.0625 9.29844 20.0203 9.3125 19.9688 9.3125C19.9172 9.3125 19.875 9.32656 19.875 9.34375C19.875 9.36094 19.8328 9.375 19.7812 9.375C19.7297 9.375 19.6875 9.38906 19.6875 9.40625C19.6875 9.42344 19.6453 9.4375 19.5938 9.4375C19.5422 9.4375 19.5 9.45156 19.5 9.46875C19.5 9.48594 19.4438 9.5 19.375 9.5C19.3062 9.5 19.25 9.51406 19.25 9.53125C19.25 9.54909 19.1562 9.5625 19.0312 9.5625C18.9062 9.5625 18.8125 9.57591 18.8125 9.59375C18.8125 9.61419 18.2396 9.625 17.1562 9.625H15.5V8.96875C15.5 8.55209 15.5114 8.3125 15.5312 8.3125C15.5484 8.3125 15.5625 8.24219 15.5625 8.15625C15.5625 8.07031 15.5766 8 15.5938 8C15.6109 8 15.625 7.94375 15.625 7.875C15.625 7.80625 15.6391 7.75 15.6562 7.75C15.6734 7.75 15.6875 7.72187 15.6875 7.6875C15.6875 7.65313 15.7016 7.625 15.7188 7.625C15.7359 7.625 15.75 7.59687 15.75 7.5625C15.75 7.52813 15.7641 7.5 15.7812 7.5C15.7984 7.5 15.8125 7.47187 15.8125 7.4375C15.8125 7.40313 15.8266 7.375 15.8438 7.375C15.8609 7.375 15.875 7.34687 15.875 7.3125C15.875 7.27813 15.8891 7.25 15.9062 7.25C15.9234 7.25 15.9375 7.22497 15.9375 7.19441C15.9375 7.16381 15.9656 7.11853 16 7.09375C16.0344 7.06897 16.0625 7.0305 16.0625 7.00828C16.0625 6.95556 16.5806 6.4375 16.6333 6.4375C16.6555 6.4375 16.694 6.40937 16.7188 6.375C16.7435 6.34063 16.7857 6.3125 16.8125 6.3125C16.8393 6.3125 16.8815 6.28437 16.9062 6.25C16.9327 6.21331 16.9872 6.1875 17.0382 6.1875C17.0859 6.1875 17.125 6.17344 17.125 6.15625C17.125 6.13906 17.1531 6.125 17.1875 6.125C17.2219 6.125 17.25 6.11094 17.25 6.09375C17.25 6.07656 17.2781 6.0625 17.3125 6.0625C17.3469 6.0625 17.375 6.04844 17.375 6.03125C17.375 6.01406 17.4312 6 17.5 6C17.5688 6 17.625 5.98594 17.625 5.96875C17.625 5.95156 17.6953 5.9375 17.7812 5.9375C17.8672 5.9375 17.9375 5.92344 17.9375 5.90625C17.9375 5.88569 18.7812 5.875 20.4062 5.875H22.875V6ZM24.1875 8.11809C24.1875 8.14869 24.2156 8.19397 24.25 8.21875C24.2844 8.24353 24.3125 8.28881 24.3125 8.31941C24.3125 8.34997 24.3266 8.375 24.3438 8.375C24.3609 8.375 24.375 8.40312 24.375 8.4375C24.375 8.47188 24.3891 8.5 24.4062 8.5C24.4234 8.5 24.4375 8.54219 24.4375 8.59375C24.4375 8.64531 24.4516 8.6875 24.4688 8.6875C24.4859 8.6875 24.5 8.71562 24.5 8.75C24.5 8.78438 24.5141 8.8125 24.5312 8.8125C24.5484 8.8125 24.5625 8.84062 24.5625 8.875C24.5625 8.90938 24.5766 8.9375 24.5938 8.9375C24.6109 8.9375 24.625 8.97969 24.625 9.03125C24.625 9.08281 24.6391 9.125 24.6562 9.125C24.6734 9.125 24.6875 9.18125 24.6875 9.25C24.6875 9.31875 24.7016 9.375 24.7188 9.375C24.7359 9.375 24.75 9.43125 24.75 9.5C24.75 9.56875 24.7641 9.625 24.7812 9.625C24.7991 9.625 24.8125 9.71875 24.8125 9.84375C24.8125 9.96875 24.8259 10.0625 24.8438 10.0625C24.8644 10.0625 24.875 11.1979 24.875 13.4062C24.875 15.6146 24.8644 16.75 24.8438 16.75C24.8259 16.75 24.8125 16.8438 24.8125 16.9688V17.1875H22.375C20.7708 17.1875 19.9375 17.1982 19.9375 17.2188C19.9375 17.2359 19.9094 17.25 19.875 17.25C19.8406 17.25 19.8125 17.2641 19.8125 17.2812C19.8125 17.2984 19.7844 17.3125 19.75 17.3125C19.7156 17.3125 19.6875 17.3266 19.6875 17.3438C19.6875 17.3609 19.6658 17.375 19.6392 17.375C19.5767 17.375 19.4375 17.5142 19.4375 17.5767C19.4375 17.6033 19.4234 17.625 19.4062 17.625C19.3891 17.625 19.375 17.6531 19.375 17.6875C19.375 17.7219 19.3609 17.75 19.3438 17.75C19.3266 17.75 19.3125 17.7781 19.3125 17.8125C19.3125 17.8469 19.2984 17.875 19.2812 17.875C19.263 17.875 19.25 17.9792 19.25 18.125C19.25 18.2708 19.263 18.375 19.2812 18.375C19.2984 18.375 19.3125 18.4031 19.3125 18.4375C19.3125 18.4719 19.3266 18.5 19.3438 18.5C19.3609 18.5 19.375 18.5281 19.375 18.5625C19.375 18.5969 19.3891 18.625 19.4062 18.625C19.4234 18.625 19.4375 18.6467 19.4375 18.6733C19.4375 18.7358 19.5767 18.875 19.6392 18.875C19.6658 18.875 19.6875 18.8891 19.6875 18.9062C19.6875 18.9234 19.7156 18.9375 19.75 18.9375C19.7844 18.9375 19.8125 18.9516 19.8125 18.9688C19.8125 18.9859 19.8406 19 19.875 19C19.9094 19 19.9375 19.0141 19.9375 19.0312C19.9375 19.0518 20.625 19.0625 21.9375 19.0625C23.0375 19.0625 23.9375 19.0697 23.9375 19.0784C23.9375 19.1144 23.0286 20 22.9915 20C22.9694 20 22.931 20.0281 22.9062 20.0625C22.8815 20.0969 22.8393 20.125 22.8125 20.125C22.7857 20.125 22.7435 20.1531 22.7188 20.1875C22.694 20.2219 22.6487 20.25 22.6181 20.25C22.5875 20.25 22.5625 20.2641 22.5625 20.2812C22.5625 20.2984 22.5375 20.3125 22.5069 20.3125C22.4763 20.3125 22.431 20.3406 22.4062 20.375C22.3815 20.4094 22.3362 20.4375 22.3056 20.4375C22.275 20.4375 22.25 20.4516 22.25 20.4688C22.25 20.4859 22.2078 20.5 22.1562 20.5C22.1047 20.5 22.0625 20.5141 22.0625 20.5312C22.0625 20.5484 22.0344 20.5625 22 20.5625C21.9656 20.5625 21.9375 20.5766 21.9375 20.5938C21.9375 20.6109 21.9094 20.625 21.875 20.625C21.8406 20.625 21.8125 20.6391 21.8125 20.6562C21.8125 20.6734 21.7703 20.6875 21.7188 20.6875C21.6672 20.6875 21.625 20.7016 21.625 20.7188C21.625 20.7359 21.5688 20.75 21.5 20.75C21.4312 20.75 21.375 20.7641 21.375 20.7812C21.375 20.7984 21.3188 20.8125 21.25 20.8125C21.1812 20.8125 21.125 20.8266 21.125 20.8438C21.125 20.8611 21.0417 20.875 20.9375 20.875C20.8333 20.875 20.75 20.8889 20.75 20.9062C20.75 20.9258 20.5521 20.9375 20.2188 20.9375C19.8854 20.9375 19.6875 20.9258 19.6875 20.9062C19.6875 20.8884 19.5938 20.875 19.4688 20.875C19.3438 20.875 19.25 20.8616 19.25 20.8438C19.25 20.8266 19.1938 20.8125 19.125 20.8125C19.0562 20.8125 19 20.7984 19 20.7812C19 20.7641 18.9438 20.75 18.875 20.75C18.8062 20.75 18.75 20.7359 18.75 20.7188C18.75 20.7016 18.7078 20.6875 18.6562 20.6875C18.6047 20.6875 18.5625 20.6734 18.5625 20.6562C18.5625 20.6391 18.5344 20.625 18.5 20.625C18.4656 20.625 18.4375 20.6109 18.4375 20.5938C18.4375 20.5766 18.4094 20.5625 18.375 20.5625C18.3406 20.5625 18.3125 20.5484 18.3125 20.5312C18.3125 20.5141 18.2703 20.5 18.2188 20.5C18.1672 20.5 18.125 20.4859 18.125 20.4688C18.125 20.4516 18.1 20.4375 18.0694 20.4375C18.0388 20.4375 17.9935 20.4094 17.9688 20.375C17.944 20.3406 17.8987 20.3125 17.8681 20.3125C17.8375 20.3125 17.8125 20.2984 17.8125 20.2812C17.8125 20.2641 17.7875 20.25 17.7569 20.25C17.7263 20.25 17.681 20.2219 17.6562 20.1875C17.6315 20.1531 17.5893 20.125 17.5625 20.125C17.5357 20.125 17.4935 20.0969 17.4688 20.0625C17.444 20.0281 17.4056 20 17.3835 20C17.3309 20 16.4375 19.1066 16.4375 19.054C16.4375 19.0319 16.4094 18.9935 16.375 18.9688C16.3406 18.944 16.3125 18.9018 16.3125 18.875C16.3125 18.8482 16.2844 18.806 16.25 18.7812C16.2156 18.7565 16.1875 18.7112 16.1875 18.6806C16.1875 18.65 16.1734 18.625 16.1562 18.625C16.1391 18.625 16.125 18.6 16.125 18.5694C16.125 18.5388 16.0969 18.4935 16.0625 18.4688C16.0281 18.444 16 18.3987 16 18.3681C16 18.3375 15.9859 18.3125 15.9688 18.3125C15.9516 18.3125 15.9375 18.2703 15.9375 18.2188C15.9375 18.1672 15.9234 18.125 15.9062 18.125C15.8891 18.125 15.875 18.0969 15.875 18.0625C15.875 18.0281 15.8609 18 15.8438 18C15.8266 18 15.8125 17.9719 15.8125 17.9375C15.8125 17.9031 15.7984 17.875 15.7812 17.875C15.7641 17.875 15.75 17.8328 15.75 17.7812C15.75 17.7297 15.7359 17.6875 15.7188 17.6875C15.7016 17.6875 15.6875 17.6313 15.6875 17.5625C15.6875 17.4937 15.6734 17.4375 15.6562 17.4375C15.6391 17.4375 15.625 17.3813 15.625 17.3125C15.625 17.2437 15.6109 17.1875 15.5938 17.1875C15.5764 17.1875 15.5625 17.1042 15.5625 17C15.5625 16.8958 15.5486 16.8125 15.5312 16.8125C15.5107 16.8125 15.5 15.9062 15.5 14.1562V11.5H17.2188C18.3438 11.5 18.9375 11.4892 18.9375 11.4688C18.9375 11.4509 19.0312 11.4375 19.1562 11.4375C19.2812 11.4375 19.375 11.4241 19.375 11.4062C19.375 11.3889 19.4583 11.375 19.5625 11.375C19.6667 11.375 19.75 11.3611 19.75 11.3438C19.75 11.3266 19.8062 11.3125 19.875 11.3125C19.9438 11.3125 20 11.2984 20 11.2812C20 11.2641 20.0422 11.25 20.0938 11.25C20.1453 11.25 20.1875 11.2359 20.1875 11.2188C20.1875 11.2016 20.2437 11.1875 20.3125 11.1875C20.3813 11.1875 20.4375 11.1734 20.4375 11.1562C20.4375 11.1391 20.4656 11.125 20.5 11.125C20.5344 11.125 20.5625 11.1109 20.5625 11.0938C20.5625 11.0766 20.6047 11.0625 20.6562 11.0625C20.7078 11.0625 20.75 11.0484 20.75 11.0312C20.75 11.0141 20.7781 11 20.8125 11C20.8469 11 20.875 10.9859 20.875 10.9688C20.875 10.9516 20.9172 10.9375 20.9688 10.9375C21.0203 10.9375 21.0625 10.9234 21.0625 10.9062C21.0625 10.8891 21.0906 10.875 21.125 10.875C21.1594 10.875 21.1875 10.8609 21.1875 10.8438C21.1875 10.8266 21.2156 10.8125 21.25 10.8125C21.2844 10.8125 21.3125 10.7984 21.3125 10.7812C21.3125 10.7641 21.3375 10.75 21.3681 10.75C21.3987 10.75 21.444 10.7219 21.4688 10.6875C21.4935 10.6531 21.5388 10.625 21.5694 10.625C21.6 10.625 21.625 10.6109 21.625 10.5938C21.625 10.5766 21.65 10.5625 21.6806 10.5625C21.7112 10.5625 21.7565 10.5344 21.7812 10.5C21.806 10.4656 21.8482 10.4375 21.875 10.4375C21.9018 10.4375 21.944 10.4094 21.9688 10.375C21.9935 10.3406 22.0357 10.3125 22.0625 10.3125C22.0893 10.3125 22.1315 10.2844 22.1562 10.25C22.181 10.2156 22.2202 10.1875 22.2433 10.1875C22.2664 10.1875 22.3538 10.1172 22.4375 10.0312C22.5212 9.94531 22.6048 9.875 22.6234 9.875C22.6676 9.875 23.25 9.29219 23.25 9.24794C23.25 9.22919 23.3062 9.15981 23.375 9.09375C23.4438 9.02769 23.5 8.95709 23.5 8.93687C23.5 8.91663 23.5422 8.86066 23.5938 8.8125C23.6453 8.76434 23.6875 8.70553 23.6875 8.68188C23.6875 8.65819 23.7156 8.61853 23.75 8.59375C23.7844 8.56897 23.8125 8.52678 23.8125 8.5C23.8125 8.47322 23.8406 8.43103 23.875 8.40625C23.9094 8.38147 23.9375 8.33619 23.9375 8.30559C23.9375 8.27503 23.9516 8.25 23.9688 8.25C23.9859 8.25 24 8.22831 24 8.20181C24 8.17531 24.0176 8.13366 24.0391 8.10925C24.0949 8.04581 24.1875 8.05134 24.1875 8.11809ZM13.625 13.4062V15.3125H13.0625C12.7083 15.3125 12.5 15.3009 12.5 15.2812C12.5 15.2641 12.4578 15.25 12.4062 15.25C12.3547 15.25 12.3125 15.2359 12.3125 15.2188C12.3125 15.2016 12.2911 15.1875 12.2649 15.1875C12.2031 15.1875 11.875 14.8594 11.875 14.7976C11.875 14.7714 11.8609 14.75 11.8438 14.75C11.8266 14.75 11.8125 14.7078 11.8125 14.6562C11.8125 14.6047 11.7984 14.5625 11.7812 14.5625C11.761 14.5625 11.75 14.1458 11.75 13.375C11.75 12.6042 11.761 12.1875 11.7812 12.1875C11.7984 12.1875 11.8125 12.1594 11.8125 12.125C11.8125 12.0906 11.8266 12.0625 11.8438 12.0625C11.8609 12.0625 11.875 12.0375 11.875 12.0069C11.875 11.9763 11.9031 11.931 11.9375 11.9062C11.9719 11.8815 12 11.8362 12 11.8056C12 11.7731 12.0231 11.75 12.0556 11.75C12.0862 11.75 12.1315 11.7219 12.1562 11.6875C12.181 11.6531 12.2263 11.625 12.2569 11.625C12.2875 11.625 12.3125 11.6109 12.3125 11.5938C12.3125 11.5766 12.3406 11.5625 12.375 11.5625C12.4094 11.5625 12.4375 11.5484 12.4375 11.5312C12.4375 11.5115 12.6562 11.5 13.0312 11.5H13.625V13.4062ZM27.9375 11.5312C27.9375 11.5484 27.9656 11.5625 28 11.5625C28.0344 11.5625 28.0625 11.5766 28.0625 11.5938C28.0625 11.6109 28.0906 11.625 28.125 11.625C28.1594 11.625 28.1875 11.6391 28.1875 11.6562C28.1875 11.6734 28.2096 11.6875 28.2366 11.6875C28.2968 11.6875 28.375 11.7618 28.375 11.819C28.375 11.8422 28.4031 11.8815 28.4375 11.9062C28.4719 11.931 28.5 11.9763 28.5 12.0069C28.5 12.0375 28.5141 12.0625 28.5312 12.0625C28.5484 12.0625 28.5625 12.0906 28.5625 12.125C28.5625 12.1594 28.5766 12.1875 28.5938 12.1875C28.614 12.1875 28.625 12.6042 28.625 13.375C28.625 14.1458 28.614 14.5625 28.5938 14.5625C28.5766 14.5625 28.5625 14.6047 28.5625 14.6562C28.5625 14.7078 28.5484 14.75 28.5312 14.75C28.5141 14.75 28.5 14.7714 28.5 14.7976C28.5 14.8594 28.1719 15.1875 28.1101 15.1875C28.0839 15.1875 28.0625 15.2016 28.0625 15.2188C28.0625 15.2359 28.0203 15.25 27.9688 15.25C27.9172 15.25 27.875 15.2641 27.875 15.2812C27.875 15.3009 27.6667 15.3125 27.3125 15.3125H26.75V13.4062V11.5H27.3438C27.7188 11.5 27.9375 11.5115 27.9375 11.5312ZM15.6428 24.7322C15.6709 24.7602 15.6875 24.8417 15.6875 24.9509C15.6875 25.0467 15.7016 25.125 15.7188 25.125C15.7361 25.125 15.75 25.2083 15.75 25.3125C15.75 25.4167 15.7639 25.5 15.7812 25.5C15.7986 25.5 15.8125 25.5833 15.8125 25.6875C15.8125 25.7917 15.8264 25.875 15.8438 25.875C15.8611 25.875 15.875 25.9583 15.875 26.0625C15.875 26.1667 15.8889 26.25 15.9062 26.25C15.9241 26.25 15.9375 26.3438 15.9375 26.4688C15.9375 26.5938 15.9509 26.6875 15.9688 26.6875C15.9861 26.6875 16 26.7708 16 26.875C16 26.9792 16.0139 27.0625 16.0312 27.0625C16.0486 27.0625 16.0625 27.1458 16.0625 27.25C16.0625 27.3542 16.0764 27.4375 16.0938 27.4375C16.1111 27.4375 16.125 27.5208 16.125 27.625C16.125 27.7292 16.1389 27.8125 16.1562 27.8125C16.1736 27.8125 16.1875 27.8958 16.1875 28C16.1875 28.1042 16.2014 28.1875 16.2188 28.1875C16.2361 28.1875 16.25 28.2708 16.25 28.375C16.25 28.4792 16.2639 28.5625 16.2812 28.5625C16.2986 28.5625 16.3125 28.6458 16.3125 28.75C16.3125 28.8542 16.3264 28.9375 16.3438 28.9375C16.3611 28.9375 16.375 29.0208 16.375 29.125C16.375 29.2292 16.3889 29.3125 16.4062 29.3125C16.4236 29.3125 16.4375 29.3958 16.4375 29.5C16.4375 29.6042 16.4514 29.6875 16.4688 29.6875C16.4861 29.6875 16.5 29.7708 16.5 29.875C16.5 29.9792 16.5139 30.0625 16.5312 30.0625C16.5486 30.0625 16.5625 30.1458 16.5625 30.25C16.5625 30.3542 16.5764 30.4375 16.5938 30.4375C16.6111 30.4375 16.625 30.5208 16.625 30.625C16.625 30.7292 16.6389 30.8125 16.6562 30.8125C16.6736 30.8125 16.6875 30.8958 16.6875 31C16.6875 31.1042 16.7014 31.1875 16.7188 31.1875C16.7361 31.1875 16.75 31.2708 16.75 31.375C16.75 31.4792 16.7639 31.5625 16.7812 31.5625C16.7986 31.5625 16.8125 31.6458 16.8125 31.75C16.8125 31.8542 16.8264 31.9375 16.8438 31.9375C16.8611 31.9375 16.875 32.0208 16.875 32.125C16.875 32.2292 16.8889 32.3125 16.9062 32.3125C16.9236 32.3125 16.9375 32.3958 16.9375 32.5C16.9375 32.6042 16.9514 32.6875 16.9688 32.6875C16.9861 32.6875 17 32.7708 17 32.875C17 32.9792 17.0139 33.0625 17.0312 33.0625C17.0486 33.0625 17.0625 33.1458 17.0625 33.25C17.0625 33.3542 17.0764 33.4375 17.0938 33.4375C17.1111 33.4375 17.125 33.5208 17.125 33.625C17.125 33.7292 17.1389 33.8125 17.1562 33.8125C17.1734 33.8125 17.1875 33.8828 17.1875 33.9688V34.125H15.875H14.5625V32.5938C14.5625 31.5938 14.5517 31.0625 14.5312 31.0625C14.5141 31.0625 14.5 31.0344 14.5 31C14.5 30.9656 14.4859 30.9375 14.4688 30.9375C14.4516 30.9375 14.4375 30.9094 14.4375 30.875C14.4375 30.8406 14.4234 30.8125 14.4062 30.8125C14.3891 30.8125 14.375 30.7908 14.375 30.7642C14.375 30.7017 14.2358 30.5625 14.1733 30.5625C14.1467 30.5625 14.125 30.5484 14.125 30.5312C14.125 30.5141 14.0969 30.5 14.0625 30.5C14.0281 30.5 14 30.4859 14 30.4688C14 30.4516 13.9719 30.4375 13.9375 30.4375C13.9031 30.4375 13.875 30.4234 13.875 30.4062C13.875 30.388 13.7708 30.375 13.625 30.375C13.4792 30.375 13.375 30.388 13.375 30.4062C13.375 30.4234 13.3469 30.4375 13.3125 30.4375C13.2781 30.4375 13.25 30.4516 13.25 30.4688C13.25 30.4859 13.2219 30.5 13.1875 30.5C13.1531 30.5 13.125 30.5141 13.125 30.5312C13.125 30.5484 13.1033 30.5625 13.0767 30.5625C13.0142 30.5625 12.875 30.7017 12.875 30.7642C12.875 30.7908 12.8609 30.8125 12.8438 30.8125C12.8266 30.8125 12.8125 30.8406 12.8125 30.875C12.8125 30.9094 12.7984 30.9375 12.7812 30.9375C12.7641 30.9375 12.75 30.9656 12.75 31C12.75 31.0344 12.7359 31.0625 12.7188 31.0625C12.6983 31.0625 12.6875 31.5938 12.6875 32.5938V34.125H11.2812H9.875V30.6562C9.875 28.3646 9.88559 27.1875 9.90625 27.1875C9.92344 27.1875 9.9375 27.1172 9.9375 27.0312C9.9375 26.9453 9.95156 26.875 9.96875 26.875C9.98594 26.875 10 26.8188 10 26.75C10 26.6812 10.0141 26.625 10.0312 26.625C10.0484 26.625 10.0625 26.5969 10.0625 26.5625C10.0625 26.5281 10.0766 26.5 10.0938 26.5C10.1109 26.5 10.125 26.4578 10.125 26.4062C10.125 26.3547 10.1391 26.3125 10.1562 26.3125C10.1734 26.3125 10.1875 26.2875 10.1875 26.2569C10.1875 26.2263 10.2156 26.181 10.25 26.1562C10.2844 26.1315 10.3125 26.0893 10.3125 26.0625C10.3125 26.0357 10.3406 25.9935 10.375 25.9688C10.4094 25.944 10.4375 25.9056 10.4375 25.8834C10.4375 25.8307 11.0807 25.1875 11.1334 25.1875C11.1556 25.1875 11.194 25.1594 11.2188 25.125C11.2435 25.0906 11.2888 25.0625 11.3194 25.0625C11.35 25.0625 11.375 25.0484 11.375 25.0312C11.375 25.0141 11.4031 25 11.4375 25C11.4719 25 11.5 24.9859 11.5 24.9688C11.5 24.9516 11.5281 24.9375 11.5625 24.9375C11.5969 24.9375 11.625 24.9234 11.625 24.9062C11.625 24.8891 11.6672 24.875 11.7188 24.875C11.7703 24.875 11.8125 24.8609 11.8125 24.8438C11.8125 24.8266 11.8547 24.8125 11.9062 24.8125C11.9578 24.8125 12 24.7984 12 24.7812C12 24.7641 12.0703 24.75 12.1562 24.75C12.2422 24.75 12.3125 24.7359 12.3125 24.7188C12.3125 24.6983 12.8809 24.6875 13.9553 24.6875C15.3375 24.6875 15.6053 24.6946 15.6428 24.7322ZM22.8125 24.8438C22.8125 24.9297 22.7984 25 22.7812 25C22.7639 25 22.75 25.0833 22.75 25.1875C22.75 25.2917 22.7361 25.375 22.7188 25.375C22.7014 25.375 22.6875 25.4583 22.6875 25.5625C22.6875 25.6667 22.6736 25.75 22.6562 25.75C22.6389 25.75 22.625 25.8333 22.625 25.9375C22.625 26.0417 22.6111 26.125 22.5938 26.125C22.5764 26.125 22.5625 26.2083 22.5625 26.3125C22.5625 26.4167 22.5486 26.5 22.5312 26.5C22.5139 26.5 22.5 26.5833 22.5 26.6875C22.5 26.7917 22.4861 26.875 22.4688 26.875C22.4514 26.875 22.4375 26.9583 22.4375 27.0625C22.4375 27.1667 22.4236 27.25 22.4062 27.25C22.3889 27.25 22.375 27.3333 22.375 27.4375C22.375 27.5417 22.3611 27.625 22.3438 27.625C22.3264 27.625 22.3125 27.7083 22.3125 27.8125C22.3125 27.9167 22.2986 28 22.2812 28C22.2639 28 22.25 28.0833 22.25 28.1875C22.25 28.2917 22.2361 28.375 22.2188 28.375C22.2014 28.375 22.1875 28.4583 22.1875 28.5625C22.1875 28.6667 22.1736 28.75 22.1562 28.75C22.1389 28.75 22.125 28.8333 22.125 28.9375C22.125 29.0417 22.1111 29.125 22.0938 29.125C22.0764 29.125 22.0625 29.2083 22.0625 29.3125C22.0625 29.4167 22.0486 29.5 22.0312 29.5C22.0139 29.5 22 29.5833 22 29.6875C22 29.7917 21.9861 29.875 21.9688 29.875C21.9514 29.875 21.9375 29.9583 21.9375 30.0625C21.9375 30.1667 21.9236 30.25 21.9062 30.25C21.8889 30.25 21.875 30.3333 21.875 30.4375C21.875 30.5417 21.8611 30.625 21.8438 30.625C21.8264 30.625 21.8125 30.7083 21.8125 30.8125C21.8125 30.9167 21.7986 31 21.7812 31C21.7639 31 21.75 31.0833 21.75 31.1875C21.75 31.2917 21.7361 31.375 21.7188 31.375C21.7014 31.375 21.6875 31.4583 21.6875 31.5625C21.6875 31.6667 21.6736 31.75 21.6562 31.75C21.6389 31.75 21.625 31.8333 21.625 31.9375C21.625 32.0417 21.6111 32.125 21.5938 32.125C21.5759 32.125 21.5625 32.2188 21.5625 32.3438C21.5625 32.4688 21.5491 32.5625 21.5312 32.5625C21.5139 32.5625 21.5 32.6458 21.5 32.75C21.5 32.8542 21.4861 32.9375 21.4688 32.9375C21.4514 32.9375 21.4375 33.0208 21.4375 33.125C21.4375 33.2292 21.4236 33.3125 21.4062 33.3125C21.3889 33.3125 21.375 33.3958 21.375 33.5C21.375 33.6042 21.3611 33.6875 21.3438 33.6875C21.3266 33.6875 21.3125 33.7658 21.3125 33.8616C21.3125 33.9708 21.2959 34.0523 21.2678 34.0803C21.2016 34.1466 19.1734 34.1466 19.1072 34.0803C19.0791 34.0523 19.0625 33.9708 19.0625 33.8616C19.0625 33.7658 19.0484 33.6875 19.0312 33.6875C19.0139 33.6875 19 33.6042 19 33.5C19 33.3958 18.9861 33.3125 18.9688 33.3125C18.9509 33.3125 18.9375 33.2188 18.9375 33.0938C18.9375 32.9688 18.9241 32.875 18.9062 32.875C18.8889 32.875 18.875 32.7917 18.875 32.6875C18.875 32.5833 18.8611 32.5 18.8438 32.5C18.8264 32.5 18.8125 32.4167 18.8125 32.3125C18.8125 32.2083 18.7986 32.125 18.7812 32.125C18.7639 32.125 18.75 32.0417 18.75 31.9375C18.75 31.8333 18.7361 31.75 18.7188 31.75C18.7014 31.75 18.6875 31.6667 18.6875 31.5625C18.6875 31.4583 18.6736 31.375 18.6562 31.375C18.6389 31.375 18.625 31.2917 18.625 31.1875C18.625 31.0833 18.6111 31 18.5938 31C18.5764 31 18.5625 30.9167 18.5625 30.8125C18.5625 30.7083 18.5486 30.625 18.5312 30.625C18.5139 30.625 18.5 30.5417 18.5 30.4375C18.5 30.3333 18.4861 30.25 18.4688 30.25C18.4514 30.25 18.4375 30.1667 18.4375 30.0625C18.4375 29.9583 18.4236 29.875 18.4062 29.875C18.3889 29.875 18.375 29.7917 18.375 29.6875C18.375 29.5833 18.3611 29.5 18.3438 29.5C18.3264 29.5 18.3125 29.4167 18.3125 29.3125C18.3125 29.2083 18.2986 29.125 18.2812 29.125C18.2639 29.125 18.25 29.0417 18.25 28.9375C18.25 28.8333 18.2361 28.75 18.2188 28.75C18.2014 28.75 18.1875 28.6667 18.1875 28.5625C18.1875 28.4583 18.1736 28.375 18.1562 28.375C18.1389 28.375 18.125 28.2917 18.125 28.1875C18.125 28.0833 18.1111 28 18.0938 28C18.0764 28 18.0625 27.9167 18.0625 27.8125C18.0625 27.7083 18.0486 27.625 18.0312 27.625C18.0139 27.625 18 27.5417 18 27.4375C18 27.3333 17.9861 27.25 17.9688 27.25C17.9514 27.25 17.9375 27.1667 17.9375 27.0625C17.9375 26.9583 17.9236 26.875 17.9062 26.875C17.8889 26.875 17.875 26.7917 17.875 26.6875C17.875 26.5833 17.8611 26.5 17.8438 26.5C17.8264 26.5 17.8125 26.4167 17.8125 26.3125C17.8125 26.2083 17.7986 26.125 17.7812 26.125C17.7639 26.125 17.75 26.0417 17.75 25.9375C17.75 25.8333 17.7361 25.75 17.7188 25.75C17.7014 25.75 17.6875 25.6667 17.6875 25.5625C17.6875 25.4583 17.6736 25.375 17.6562 25.375C17.6389 25.375 17.625 25.2917 17.625 25.1875C17.625 25.0833 17.6111 25 17.5938 25C17.5766 25 17.5625 24.9297 17.5625 24.8438V24.6875H20.1875H22.8125V24.8438ZM28.0625 24.7188C28.0625 24.7359 28.1328 24.75 28.2188 24.75C28.3047 24.75 28.375 24.7641 28.375 24.7812C28.375 24.7984 28.4172 24.8125 28.4688 24.8125C28.5203 24.8125 28.5625 24.8266 28.5625 24.8438C28.5625 24.8609 28.6047 24.875 28.6562 24.875C28.7078 24.875 28.75 24.8891 28.75 24.9062C28.75 24.9234 28.7781 24.9375 28.8125 24.9375C28.8469 24.9375 28.875 24.9516 28.875 24.9688C28.875 24.9859 28.9031 25 28.9375 25C28.9719 25 29 25.0141 29 25.0312C29 25.0484 29.025 25.0625 29.0556 25.0625C29.0862 25.0625 29.1315 25.0906 29.1562 25.125C29.181 25.1594 29.2194 25.1875 29.2416 25.1875C29.2943 25.1875 29.9375 25.8307 29.9375 25.8834C29.9375 25.9056 29.9656 25.944 30 25.9688C30.0344 25.9935 30.0625 26.0357 30.0625 26.0625C30.0625 26.0893 30.0906 26.1315 30.125 26.1562C30.1594 26.181 30.1875 26.2263 30.1875 26.2569C30.1875 26.2875 30.2016 26.3125 30.2188 26.3125C30.2359 26.3125 30.25 26.3547 30.25 26.4062C30.25 26.4578 30.2641 26.5 30.2812 26.5C30.2984 26.5 30.3125 26.5281 30.3125 26.5625C30.3125 26.5969 30.3266 26.625 30.3438 26.625C30.3609 26.625 30.375 26.6812 30.375 26.75C30.375 26.8188 30.3891 26.875 30.4062 26.875C30.4234 26.875 30.4375 26.9453 30.4375 27.0312C30.4375 27.1172 30.4516 27.1875 30.4688 27.1875C30.4894 27.1875 30.5 28.3646 30.5 30.6562V34.125H29.0938H27.6875V32.5938C27.6875 31.5938 27.6767 31.0625 27.6562 31.0625C27.6391 31.0625 27.625 31.0344 27.625 31C27.625 30.9656 27.6109 30.9375 27.5938 30.9375C27.5766 30.9375 27.5625 30.9094 27.5625 30.875C27.5625 30.8406 27.5484 30.8125 27.5312 30.8125C27.5141 30.8125 27.5 30.7908 27.5 30.7642C27.5 30.7017 27.3608 30.5625 27.2983 30.5625C27.2717 30.5625 27.25 30.5484 27.25 30.5312C27.25 30.5141 27.2219 30.5 27.1875 30.5C27.1531 30.5 27.125 30.4859 27.125 30.4688C27.125 30.4516 27.0969 30.4375 27.0625 30.4375C27.0281 30.4375 27 30.4234 27 30.4062C27 30.388 26.8958 30.375 26.75 30.375C26.6042 30.375 26.5 30.388 26.5 30.4062C26.5 30.4234 26.4719 30.4375 26.4375 30.4375C26.4031 30.4375 26.375 30.4516 26.375 30.4688C26.375 30.4859 26.3469 30.5 26.3125 30.5C26.2781 30.5 26.25 30.5141 26.25 30.5312C26.25 30.5484 26.2283 30.5625 26.2017 30.5625C26.1392 30.5625 26 30.7017 26 30.7642C26 30.7908 25.9859 30.8125 25.9688 30.8125C25.9516 30.8125 25.9375 30.8406 25.9375 30.875C25.9375 30.9094 25.9234 30.9375 25.9062 30.9375C25.8891 30.9375 25.875 30.9656 25.875 31C25.875 31.0344 25.8609 31.0625 25.8438 31.0625C25.8233 31.0625 25.8125 31.5938 25.8125 32.5938V34.125H24.5H23.1875V33.9688C23.1875 33.8828 23.2016 33.8125 23.2188 33.8125C23.2361 33.8125 23.25 33.7292 23.25 33.625C23.25 33.5208 23.2639 33.4375 23.2812 33.4375C23.2986 33.4375 23.3125 33.3542 23.3125 33.25C23.3125 33.1458 23.3264 33.0625 23.3438 33.0625C23.3611 33.0625 23.375 32.9792 23.375 32.875C23.375 32.7708 23.3889 32.6875 23.4062 32.6875C23.4236 32.6875 23.4375 32.6042 23.4375 32.5C23.4375 32.3958 23.4514 32.3125 23.4688 32.3125C23.4861 32.3125 23.5 32.2292 23.5 32.125C23.5 32.0208 23.5139 31.9375 23.5312 31.9375C23.5486 31.9375 23.5625 31.8542 23.5625 31.75C23.5625 31.6458 23.5764 31.5625 23.5938 31.5625C23.6111 31.5625 23.625 31.4792 23.625 31.375C23.625 31.2708 23.6389 31.1875 23.6562 31.1875C23.6736 31.1875 23.6875 31.1042 23.6875 31C23.6875 30.8958 23.7014 30.8125 23.7188 30.8125C23.7361 30.8125 23.75 30.7292 23.75 30.625C23.75 30.5208 23.7639 30.4375 23.7812 30.4375C23.7986 30.4375 23.8125 30.3542 23.8125 30.25C23.8125 30.1458 23.8264 30.0625 23.8438 30.0625C23.8611 30.0625 23.875 29.9792 23.875 29.875C23.875 29.7708 23.8889 29.6875 23.9062 29.6875C23.9236 29.6875 23.9375 29.6042 23.9375 29.5C23.9375 29.3958 23.9514 29.3125 23.9688 29.3125C23.9861 29.3125 24 29.2292 24 29.125C24 29.0208 24.0139 28.9375 24.0312 28.9375C24.0486 28.9375 24.0625 28.8542 24.0625 28.75C24.0625 28.6458 24.0764 28.5625 24.0938 28.5625C24.1111 28.5625 24.125 28.4792 24.125 28.375C24.125 28.2708 24.1389 28.1875 24.1562 28.1875C24.1736 28.1875 24.1875 28.1042 24.1875 28C24.1875 27.8958 24.2014 27.8125 24.2188 27.8125C24.2361 27.8125 24.25 27.7292 24.25 27.625C24.25 27.5208 24.2639 27.4375 24.2812 27.4375C24.2986 27.4375 24.3125 27.3542 24.3125 27.25C24.3125 27.1458 24.3264 27.0625 24.3438 27.0625C24.3611 27.0625 24.375 26.9792 24.375 26.875C24.375 26.7708 24.3889 26.6875 24.4062 26.6875C24.4241 26.6875 24.4375 26.5938 24.4375 26.4688C24.4375 26.3438 24.4509 26.25 24.4688 26.25C24.4861 26.25 24.5 26.1667 24.5 26.0625C24.5 25.9583 24.5139 25.875 24.5312 25.875C24.5486 25.875 24.5625 25.7917 24.5625 25.6875C24.5625 25.5833 24.5764 25.5 24.5938 25.5C24.6111 25.5 24.625 25.4167 24.625 25.3125C24.625 25.2083 24.6389 25.125 24.6562 25.125C24.6734 25.125 24.6875 25.0471 24.6875 24.9518C24.6875 24.8566 24.7051 24.7587 24.7266 24.7342C24.7593 24.697 25.0304 24.6897 26.4141 24.6887C27.493 24.6879 28.0625 24.6983 28.0625 24.7188Z" fill="#DD2A1B"/>
</svg>
