<svg width="40" height="40" viewBox="0 0 40 40" fill="none" xmlns="http://www.w3.org/2000/svg">
<path fill-rule="evenodd" clip-rule="evenodd" d="M6.68444 5.03125C6.68444 5.04844 6.65644 5.0625 6.62222 5.0625C6.588 5.0625 6.56 5.07656 6.56 5.09375C6.56 5.11094 6.532 5.125 6.49778 5.125C6.46356 5.125 6.43556 5.13906 6.43556 5.15625C6.43556 5.17344 6.41393 5.1875 6.38749 5.1875C6.32524 5.1875 6.18667 5.32669 6.18667 5.38922C6.18667 5.41578 6.17267 5.4375 6.15556 5.4375C6.13844 5.4375 6.12444 5.46562 6.12444 5.5C6.12444 5.53438 6.11044 5.5625 6.09333 5.5625C6.07622 5.5625 6.06222 5.59062 6.06222 5.625C6.06222 5.65938 6.04822 5.6875 6.03111 5.6875C6.01045 5.6875 6 7.97916 6 12.5C6 17.0208 6.01045 19.3125 6.03111 19.3125C6.04822 19.3125 6.06222 19.3406 6.06222 19.375C6.06222 19.4094 6.07622 19.4375 6.09333 19.4375C6.11044 19.4375 6.12444 19.4656 6.12444 19.5C6.12444 19.5344 6.13844 19.5625 6.15556 19.5625C6.17267 19.5625 6.18667 19.5846 6.18667 19.6116C6.18667 19.6718 6.26062 19.75 6.31758 19.75C6.3407 19.75 6.37977 19.7781 6.40444 19.8125C6.42912 19.8469 6.4742 19.875 6.50465 19.875C6.53508 19.875 6.56 19.8891 6.56 19.9062C6.56 19.9234 6.588 19.9375 6.62222 19.9375C6.65644 19.9375 6.68444 19.9516 6.68444 19.9688C6.68444 19.987 6.78814 20 6.93333 20C7.07853 20 7.18222 19.987 7.18222 19.9688C7.18222 19.9516 7.21022 19.9375 7.24444 19.9375C7.27867 19.9375 7.30667 19.9234 7.30667 19.9062C7.30667 19.8891 7.33467 19.875 7.36889 19.875C7.40311 19.875 7.43111 19.8609 7.43111 19.8438C7.43111 19.8266 7.45273 19.8125 7.47918 19.8125C7.54143 19.8125 7.68 19.6733 7.68 19.6108C7.68 19.5842 7.694 19.5625 7.71111 19.5625C7.72822 19.5625 7.74222 19.5344 7.74222 19.5C7.74222 19.4656 7.75622 19.4375 7.77333 19.4375C7.79044 19.4375 7.80444 19.4094 7.80444 19.375C7.80444 19.3406 7.81844 19.3125 7.83556 19.3125C7.85369 19.3125 7.86667 19.2083 7.86667 19.0625C7.86667 18.9167 7.87964 18.8125 7.89778 18.8125C7.91489 18.8125 7.92889 18.7844 7.92889 18.75C7.92889 18.7156 7.94289 18.6875 7.96 18.6875C7.97711 18.6875 7.99111 18.6594 7.99111 18.625C7.99111 18.5906 8.00511 18.5625 8.02222 18.5625C8.03933 18.5625 8.05333 18.5404 8.05333 18.5134C8.05333 18.4532 8.12728 18.375 8.18425 18.375C8.20736 18.375 8.24644 18.3469 8.27111 18.3125C8.29578 18.2781 8.34086 18.25 8.37132 18.25C8.40175 18.25 8.42667 18.2359 8.42667 18.2188C8.42667 18.2016 8.45467 18.1875 8.48889 18.1875C8.52311 18.1875 8.55111 18.1734 8.55111 18.1562C8.55111 18.1365 8.76889 18.125 9.14222 18.125H9.73333V20.75C9.73333 22.4792 9.72272 23.375 9.70222 23.375C9.68511 23.375 9.67111 23.4453 9.67111 23.5312C9.67111 23.6172 9.65711 23.6875 9.64 23.6875C9.62289 23.6875 9.60889 23.7437 9.60889 23.8125C9.60889 23.8813 9.59489 23.9375 9.57778 23.9375C9.56067 23.9375 9.54667 23.9656 9.54667 24C9.54667 24.0344 9.53267 24.0625 9.51556 24.0625C9.49844 24.0625 9.48444 24.1047 9.48444 24.1562C9.48444 24.2078 9.47044 24.25 9.45333 24.25C9.43622 24.25 9.42222 24.275 9.42222 24.3056C9.42222 24.3362 9.39422 24.3815 9.36 24.4062C9.32578 24.431 9.29778 24.4732 9.29778 24.5C9.29778 24.5268 9.26978 24.569 9.23556 24.5938C9.20133 24.6185 9.17333 24.6571 9.17333 24.6793C9.17333 24.7288 8.78392 25.125 8.73529 25.125C8.71616 25.125 8.66128 25.1672 8.61333 25.2188C8.56539 25.2703 8.51008 25.3125 8.49048 25.3125C8.47084 25.3125 8.35813 25.4109 8.24 25.5312C8.12187 25.6516 8.0099 25.75 7.9912 25.75C7.94703 25.75 7.80444 25.8932 7.80444 25.9376C7.80444 25.9564 7.70644 26.0688 7.58667 26.1875C7.46689 26.3062 7.36889 26.4219 7.36889 26.4447C7.36889 26.4675 7.34089 26.5065 7.30667 26.5312C7.27244 26.556 7.24444 26.5957 7.24444 26.6194C7.24444 26.643 7.20244 26.7018 7.15111 26.75C7.09978 26.7982 7.05778 26.8601 7.05778 26.8875C7.05778 26.915 7.04378 26.9375 7.02667 26.9375C7.00956 26.9375 6.99556 26.9625 6.99556 26.9931C6.99556 27.0237 6.96756 27.069 6.93333 27.0938C6.89911 27.1185 6.87111 27.1638 6.87111 27.1944C6.87111 27.225 6.85711 27.25 6.84 27.25C6.82289 27.25 6.80889 27.2781 6.80889 27.3125C6.80889 27.3469 6.79489 27.375 6.77778 27.375C6.76067 27.375 6.74667 27.4031 6.74667 27.4375C6.74667 27.4719 6.73267 27.5 6.71556 27.5C6.69844 27.5 6.68444 27.5281 6.68444 27.5625C6.68444 27.5969 6.67044 27.625 6.65333 27.625C6.63622 27.625 6.62222 27.6531 6.62222 27.6875C6.62222 27.7219 6.60822 27.75 6.59111 27.75C6.574 27.75 6.56 27.7781 6.56 27.8125C6.56 27.8469 6.546 27.875 6.52889 27.875C6.51178 27.875 6.49778 27.9031 6.49778 27.9375C6.49778 27.9719 6.48378 28 6.46667 28C6.44956 28 6.43556 28.0422 6.43556 28.0938C6.43556 28.1453 6.42156 28.1875 6.40444 28.1875C6.38733 28.1875 6.37333 28.2297 6.37333 28.2812C6.37333 28.3328 6.35933 28.375 6.34222 28.375C6.32511 28.375 6.31111 28.4172 6.31111 28.4688C6.31111 28.5203 6.29711 28.5625 6.28 28.5625C6.26289 28.5625 6.24889 28.6047 6.24889 28.6562C6.24889 28.7078 6.23489 28.75 6.21778 28.75C6.20067 28.75 6.18667 28.8203 6.18667 28.9062C6.18667 28.9922 6.17267 29.0625 6.15556 29.0625C6.13844 29.0625 6.12444 29.1187 6.12444 29.1875C6.12444 29.2563 6.11044 29.3125 6.09333 29.3125C6.0752 29.3125 6.06222 29.4167 6.06222 29.5625C6.06222 29.7083 6.04925 29.8125 6.03111 29.8125C6.01142 29.8125 6 30.0417 6 30.4375C6 30.8333 6.01142 31.0625 6.03111 31.0625C6.04925 31.0625 6.06222 31.1667 6.06222 31.3125C6.06222 31.4583 6.0752 31.5625 6.09333 31.5625C6.11044 31.5625 6.12444 31.6328 6.12444 31.7188C6.12444 31.8047 6.13844 31.875 6.15556 31.875C6.17267 31.875 6.18667 31.9312 6.18667 32C6.18667 32.0688 6.20067 32.125 6.21778 32.125C6.23489 32.125 6.24889 32.1672 6.24889 32.2188C6.24889 32.2703 6.26289 32.3125 6.28 32.3125C6.29711 32.3125 6.31111 32.3547 6.31111 32.4062C6.31111 32.4578 6.32511 32.5 6.34222 32.5C6.35933 32.5 6.37333 32.5422 6.37333 32.5938C6.37333 32.6453 6.38733 32.6875 6.40444 32.6875C6.42156 32.6875 6.43556 32.7297 6.43556 32.7812C6.43556 32.8328 6.44956 32.875 6.46667 32.875C6.48378 32.875 6.49778 32.9031 6.49778 32.9375C6.49778 32.9719 6.51178 33 6.52889 33C6.546 33 6.56 33.0422 6.56 33.0938C6.56 33.1453 6.574 33.1875 6.59111 33.1875C6.60822 33.1875 6.62222 33.2156 6.62222 33.25C6.62222 33.2844 6.63622 33.3125 6.65333 33.3125C6.67044 33.3125 6.68444 33.3406 6.68444 33.375C6.68444 33.4094 6.69844 33.4375 6.71556 33.4375C6.73267 33.4375 6.74667 33.4625 6.74667 33.4931C6.74667 33.5237 6.77467 33.569 6.80889 33.5938C6.84311 33.6185 6.87111 33.6638 6.87111 33.6944C6.87111 33.725 6.88511 33.75 6.90222 33.75C6.91933 33.75 6.93333 33.775 6.93333 33.8056C6.93333 33.8362 6.96133 33.8815 6.99556 33.9062C7.02978 33.931 7.05778 33.9732 7.05778 34C7.05778 34.0268 7.08578 34.069 7.12 34.0938C7.15422 34.1185 7.18222 34.1607 7.18222 34.1875C7.18222 34.2143 7.21022 34.2565 7.24444 34.2812C7.27867 34.306 7.30667 34.3452 7.30667 34.3683C7.30667 34.3914 7.37667 34.4788 7.46222 34.5625C7.54778 34.6462 7.61778 34.7298 7.61778 34.7484C7.61778 34.7923 8.19788 35.375 8.24162 35.375C8.26007 35.375 8.34332 35.4453 8.42667 35.5312C8.51001 35.6172 8.597 35.6875 8.61999 35.6875C8.64301 35.6875 8.682 35.7156 8.70667 35.75C8.73134 35.7844 8.77334 35.8125 8.8 35.8125C8.82666 35.8125 8.86866 35.8406 8.89333 35.875C8.918 35.9094 8.96 35.9375 8.98667 35.9375C9.01333 35.9375 9.05533 35.9656 9.08 36C9.10467 36.0344 9.14975 36.0625 9.18021 36.0625C9.21064 36.0625 9.23556 36.0766 9.23556 36.0938C9.23556 36.1109 9.26048 36.125 9.2909 36.125C9.32136 36.125 9.36644 36.1531 9.39111 36.1875C9.41578 36.2219 9.46086 36.25 9.49132 36.25C9.52175 36.25 9.54667 36.2641 9.54667 36.2812C9.54667 36.2984 9.57467 36.3125 9.60889 36.3125C9.64311 36.3125 9.67111 36.3266 9.67111 36.3438C9.67111 36.3609 9.69911 36.375 9.73333 36.375C9.76756 36.375 9.79556 36.3891 9.79556 36.4062C9.79556 36.4234 9.83756 36.4375 9.88889 36.4375C9.94022 36.4375 9.98222 36.4516 9.98222 36.4688C9.98222 36.4859 10.0102 36.5 10.0444 36.5C10.0787 36.5 10.1067 36.5141 10.1067 36.5312C10.1067 36.5484 10.1487 36.5625 10.2 36.5625C10.2513 36.5625 10.2933 36.5766 10.2933 36.5938C10.2933 36.6109 10.3353 36.625 10.3867 36.625C10.438 36.625 10.48 36.6391 10.48 36.6562C10.48 36.6734 10.522 36.6875 10.5733 36.6875C10.6247 36.6875 10.6667 36.7016 10.6667 36.7188C10.6667 36.7359 10.7087 36.75 10.76 36.75C10.8113 36.75 10.8533 36.7641 10.8533 36.7812C10.8533 36.7984 10.9093 36.8125 10.9778 36.8125C11.0462 36.8125 11.1022 36.8266 11.1022 36.8438C11.1022 36.8609 11.1722 36.875 11.2578 36.875C11.3433 36.875 11.4133 36.8891 11.4133 36.9062C11.4133 36.9245 11.517 36.9375 11.6622 36.9375C11.8074 36.9375 11.9111 36.9505 11.9111 36.9688C11.9111 36.9885 12.1392 37 12.5333 37C12.9274 37 13.1556 36.9885 13.1556 36.9688C13.1556 36.9505 13.2592 36.9375 13.4044 36.9375C13.5496 36.9375 13.6533 36.9245 13.6533 36.9062C13.6533 36.8891 13.7233 36.875 13.8089 36.875C13.8944 36.875 13.9644 36.8609 13.9644 36.8438C13.9644 36.8266 14.0204 36.8125 14.0889 36.8125C14.1573 36.8125 14.2133 36.7984 14.2133 36.7812C14.2133 36.7641 14.2553 36.75 14.3067 36.75C14.358 36.75 14.4 36.7359 14.4 36.7188C14.4 36.7016 14.456 36.6875 14.5244 36.6875C14.5929 36.6875 14.6489 36.6734 14.6489 36.6562C14.6489 36.6391 14.6769 36.625 14.7111 36.625C14.7453 36.625 14.7733 36.6109 14.7733 36.5938C14.7733 36.5766 14.8153 36.5625 14.8667 36.5625C14.918 36.5625 14.96 36.5484 14.96 36.5312C14.96 36.5141 14.988 36.5 15.0222 36.5C15.0564 36.5 15.0844 36.4859 15.0844 36.4688C15.0844 36.4516 15.1264 36.4375 15.1778 36.4375C15.2291 36.4375 15.2711 36.4234 15.2711 36.4062C15.2711 36.3891 15.2991 36.375 15.3333 36.375C15.3676 36.375 15.3956 36.3609 15.3956 36.3438C15.3956 36.3266 15.4236 36.3125 15.4578 36.3125C15.492 36.3125 15.52 36.2984 15.52 36.2812C15.52 36.2641 15.548 36.25 15.5822 36.25C15.6164 36.25 15.6444 36.2359 15.6444 36.2188C15.6444 36.2016 15.6694 36.1875 15.6998 36.1875C15.7302 36.1875 15.7753 36.1594 15.8 36.125C15.8247 36.0906 15.8667 36.0625 15.8933 36.0625C15.92 36.0625 15.962 36.0344 15.9867 36C16.0113 35.9656 16.0564 35.9375 16.0869 35.9375C16.1173 35.9375 16.1422 35.9234 16.1422 35.9062C16.1422 35.8891 16.1646 35.875 16.192 35.875C16.2193 35.875 16.2809 35.8328 16.3289 35.7812C16.3768 35.7297 16.4326 35.6875 16.4527 35.6875C16.4728 35.6875 16.5431 35.6313 16.6089 35.5625C16.6747 35.4937 16.7437 35.4375 16.7623 35.4375C16.8066 35.4375 17.5111 34.7298 17.5111 34.6854C17.5111 34.6667 17.5671 34.5973 17.6356 34.5312C17.704 34.4652 17.76 34.3921 17.76 34.3687C17.76 34.3454 17.788 34.306 17.8222 34.2812C17.8564 34.2565 17.8844 34.2143 17.8844 34.1875C17.8844 34.1607 17.9124 34.1185 17.9467 34.0938C17.9809 34.069 18.0089 34.0268 18.0089 34C18.0089 33.9732 18.0369 33.931 18.0711 33.9062C18.1053 33.8815 18.1333 33.8362 18.1333 33.8056C18.1333 33.775 18.1473 33.75 18.1644 33.75C18.1816 33.75 18.1956 33.725 18.1956 33.6944C18.1956 33.6638 18.2236 33.6185 18.2578 33.5938C18.292 33.569 18.32 33.5237 18.32 33.4931C18.32 33.4625 18.334 33.4375 18.3511 33.4375C18.3682 33.4375 18.3822 33.4094 18.3822 33.375C18.3822 33.3406 18.3962 33.3125 18.4133 33.3125C18.4304 33.3125 18.4444 33.2844 18.4444 33.25C18.4444 33.2156 18.4584 33.1875 18.4756 33.1875C18.4927 33.1875 18.5067 33.1453 18.5067 33.0938C18.5067 33.0422 18.5207 33 18.5378 33C18.5549 33 18.5689 32.9719 18.5689 32.9375C18.5689 32.9031 18.5829 32.875 18.6 32.875C18.6171 32.875 18.6311 32.8328 18.6311 32.7812C18.6311 32.7297 18.6451 32.6875 18.6622 32.6875C18.6793 32.6875 18.6933 32.6453 18.6933 32.5938C18.6933 32.5422 18.7073 32.5 18.7244 32.5C18.7416 32.5 18.7556 32.4578 18.7556 32.4062C18.7556 32.3547 18.7696 32.3125 18.7867 32.3125C18.8038 32.3125 18.8178 32.2703 18.8178 32.2188C18.8178 32.1672 18.8318 32.125 18.8489 32.125C18.866 32.125 18.88 32.0688 18.88 32C18.88 31.9312 18.894 31.875 18.9111 31.875C18.9282 31.875 18.9422 31.8047 18.9422 31.7188C18.9422 31.6328 18.9562 31.5625 18.9733 31.5625C18.9915 31.5625 19.0044 31.4583 19.0044 31.3125C19.0044 31.1667 19.0174 31.0625 19.0356 31.0625C19.0552 31.0625 19.0667 30.8333 19.0667 30.4375C19.0667 30.0417 19.0552 29.8125 19.0356 29.8125C19.0174 29.8125 19.0044 29.7083 19.0044 29.5625C19.0044 29.4167 18.9915 29.3125 18.9733 29.3125C18.9562 29.3125 18.9422 29.2422 18.9422 29.1562C18.9422 29.0703 18.9282 29 18.9111 29C18.894 29 18.88 28.9438 18.88 28.875C18.88 28.8062 18.866 28.75 18.8489 28.75C18.8318 28.75 18.8178 28.7078 18.8178 28.6562C18.8178 28.6047 18.8038 28.5625 18.7867 28.5625C18.7696 28.5625 18.7556 28.5063 18.7556 28.4375C18.7556 28.3687 18.7416 28.3125 18.7244 28.3125C18.7073 28.3125 18.6933 28.2844 18.6933 28.25C18.6933 28.2156 18.6793 28.1875 18.6622 28.1875C18.6451 28.1875 18.6311 28.1453 18.6311 28.0938C18.6311 28.0422 18.6171 28 18.6 28C18.5829 28 18.5689 27.9719 18.5689 27.9375C18.5689 27.9031 18.5549 27.875 18.5378 27.875C18.5207 27.875 18.5067 27.8328 18.5067 27.7812C18.5067 27.7297 18.4927 27.6875 18.4756 27.6875C18.4584 27.6875 18.4444 27.6594 18.4444 27.625C18.4444 27.5906 18.4304 27.5625 18.4133 27.5625C18.3962 27.5625 18.3822 27.5344 18.3822 27.5C18.3822 27.4656 18.3682 27.4375 18.3511 27.4375C18.334 27.4375 18.32 27.4125 18.32 27.3819C18.32 27.3513 18.292 27.306 18.2578 27.2812C18.2236 27.2565 18.1956 27.2112 18.1956 27.1806C18.1956 27.15 18.1816 27.125 18.1644 27.125C18.1473 27.125 18.1333 27.1 18.1333 27.0694C18.1333 27.0388 18.1053 26.9935 18.0711 26.9688C18.0369 26.944 18.0089 26.9018 18.0089 26.875C18.0089 26.8482 17.9809 26.806 17.9467 26.7812C17.9124 26.7565 17.8844 26.7168 17.8844 26.6931C17.8844 26.6695 17.8424 26.6107 17.7911 26.5625C17.7398 26.5143 17.6978 26.4587 17.6978 26.4388C17.6978 26.419 17.6138 26.32 17.5111 26.2188C17.4084 26.1175 17.3244 26.0195 17.3244 26.0009C17.3244 25.9569 17.0563 25.6875 17.0124 25.6875C16.9939 25.6875 16.8963 25.6031 16.7956 25.5C16.6948 25.3969 16.5974 25.3125 16.5792 25.3125C16.5316 25.3125 15.8311 24.6024 15.8311 24.5541C15.8311 24.5319 15.8031 24.4935 15.7689 24.4688C15.7347 24.444 15.7067 24.3987 15.7067 24.3681C15.7067 24.3375 15.6927 24.3125 15.6756 24.3125C15.6584 24.3125 15.6444 24.2844 15.6444 24.25C15.6444 24.2156 15.6304 24.1875 15.6133 24.1875C15.5962 24.1875 15.5822 24.1594 15.5822 24.125C15.5822 24.0906 15.5682 24.0625 15.5511 24.0625C15.534 24.0625 15.52 24.0203 15.52 23.9688C15.52 23.9172 15.506 23.875 15.4889 23.875C15.4718 23.875 15.4578 23.8328 15.4578 23.7812C15.4578 23.7297 15.4438 23.6875 15.4267 23.6875C15.4096 23.6875 15.3956 23.6172 15.3956 23.5312C15.3956 23.4453 15.3816 23.375 15.3644 23.375C15.3439 23.375 15.3333 22.4792 15.3333 20.75V18.125H15.9244C16.2978 18.125 16.5156 18.1365 16.5156 18.1562C16.5156 18.1734 16.5436 18.1875 16.5778 18.1875C16.612 18.1875 16.64 18.2016 16.64 18.2188C16.64 18.2359 16.668 18.25 16.7022 18.25C16.7364 18.25 16.7644 18.2641 16.7644 18.2812C16.7644 18.2984 16.7864 18.3125 16.8133 18.3125C16.8733 18.3125 16.9511 18.3868 16.9511 18.444C16.9511 18.4672 16.9791 18.5065 17.0133 18.5312C17.0476 18.556 17.0756 18.6013 17.0756 18.6319C17.0756 18.6625 17.0896 18.6875 17.1067 18.6875C17.1238 18.6875 17.1378 18.7156 17.1378 18.75C17.1378 18.7844 17.1518 18.8125 17.1689 18.8125C17.187 18.8125 17.2 18.9167 17.2 19.0625C17.2 19.2083 17.213 19.3125 17.2311 19.3125C17.2482 19.3125 17.2622 19.3406 17.2622 19.375C17.2622 19.4094 17.2762 19.4375 17.2933 19.4375C17.3104 19.4375 17.3244 19.4656 17.3244 19.5C17.3244 19.5344 17.3384 19.5625 17.3556 19.5625C17.3727 19.5625 17.3867 19.5842 17.3867 19.6108C17.3867 19.6733 17.5252 19.8125 17.5875 19.8125C17.6139 19.8125 17.6356 19.8266 17.6356 19.8438C17.6356 19.8609 17.6636 19.875 17.6978 19.875C17.732 19.875 17.76 19.8891 17.76 19.9062C17.76 19.9234 17.788 19.9375 17.8222 19.9375C17.8564 19.9375 17.8844 19.9516 17.8844 19.9688C17.8844 19.987 17.9881 20 18.1333 20C18.2785 20 18.3822 19.987 18.3822 19.9688C18.3822 19.9516 18.4102 19.9375 18.4444 19.9375C18.4787 19.9375 18.5067 19.9234 18.5067 19.9062C18.5067 19.8891 18.5347 19.875 18.5689 19.875C18.6031 19.875 18.6311 19.8609 18.6311 19.8438C18.6311 19.8266 18.6527 19.8125 18.6792 19.8125C18.7414 19.8125 18.88 19.6733 18.88 19.6108C18.88 19.5842 18.894 19.5625 18.9111 19.5625C18.9282 19.5625 18.9422 19.5344 18.9422 19.5C18.9422 19.4656 18.9562 19.4375 18.9733 19.4375C18.9904 19.4375 19.0044 19.4094 19.0044 19.375C19.0044 19.3406 19.0184 19.3125 19.0356 19.3125C19.0562 19.3125 19.0667 17.0208 19.0667 12.5C19.0667 7.97916 19.0562 5.6875 19.0356 5.6875C19.0184 5.6875 19.0044 5.65938 19.0044 5.625C19.0044 5.59062 18.9904 5.5625 18.9733 5.5625C18.9562 5.5625 18.9422 5.53438 18.9422 5.5C18.9422 5.46562 18.9282 5.4375 18.9111 5.4375C18.894 5.4375 18.88 5.41578 18.88 5.38922C18.88 5.32669 18.7414 5.1875 18.6792 5.1875C18.6527 5.1875 18.6311 5.17344 18.6311 5.15625C18.6311 5.13906 18.6031 5.125 18.5689 5.125C18.5347 5.125 18.5067 5.11094 18.5067 5.09375C18.5067 5.07656 18.4787 5.0625 18.4444 5.0625C18.4102 5.0625 18.3822 5.04844 18.3822 5.03125C18.3822 5.01053 16.4119 5 12.5333 5C8.6548 5 6.68444 5.01053 6.68444 5.03125ZM27.2178 5.03125C27.2178 5.04844 27.1898 5.0625 27.1556 5.0625C27.1213 5.0625 27.0933 5.07656 27.0933 5.09375C27.0933 5.11094 27.0653 5.125 27.0311 5.125C26.9969 5.125 26.9689 5.13906 26.9689 5.15625C26.9689 5.17344 26.9473 5.1875 26.9208 5.1875C26.8586 5.1875 26.72 5.32669 26.72 5.38922C26.72 5.41578 26.706 5.4375 26.6889 5.4375C26.6718 5.4375 26.6578 5.46562 26.6578 5.5C26.6578 5.53438 26.6438 5.5625 26.6267 5.5625C26.6096 5.5625 26.5956 5.59062 26.5956 5.625C26.5956 5.65938 26.5816 5.6875 26.5644 5.6875C26.5447 5.6875 26.5333 5.9375 26.5333 6.375C26.5333 7.04166 26.5314 7.0625 26.4711 7.0625C26.4369 7.0625 26.4089 7.07656 26.4089 7.09375C26.4089 7.11094 26.3669 7.125 26.3156 7.125C26.2642 7.125 26.2222 7.13906 26.2222 7.15625C26.2222 7.17344 26.1973 7.1875 26.1669 7.1875C26.1364 7.1875 26.0913 7.21563 26.0667 7.25C26.042 7.28437 26 7.3125 25.9733 7.3125C25.9467 7.3125 25.9047 7.34063 25.88 7.375C25.8553 7.40937 25.817 7.4375 25.7949 7.4375C25.7424 7.4375 25.2267 7.95556 25.2267 8.00828C25.2267 8.0305 25.1987 8.06897 25.1644 8.09375C25.1302 8.11853 25.1022 8.16072 25.1022 8.1875C25.1022 8.21428 25.0742 8.25647 25.04 8.28125C25.0058 8.30603 24.9778 8.35131 24.9778 8.38191C24.9778 8.41247 24.9638 8.4375 24.9467 8.4375C24.9296 8.4375 24.9156 8.47969 24.9156 8.53125C24.9156 8.58281 24.9016 8.625 24.8844 8.625C24.8673 8.625 24.8533 8.65313 24.8533 8.6875C24.8533 8.72187 24.8393 8.75 24.8222 8.75C24.8051 8.75 24.7911 8.80625 24.7911 8.875C24.7911 8.94375 24.7771 9 24.76 9C24.7429 9 24.7289 9.05625 24.7289 9.125C24.7289 9.19375 24.7149 9.25 24.6978 9.25C24.6772 9.25 24.6667 10.4583 24.6667 12.8125V16.375H23.1422C22.1467 16.375 21.6178 16.3858 21.6178 16.4062C21.6178 16.4234 21.5898 16.4375 21.5556 16.4375C21.5213 16.4375 21.4933 16.4516 21.4933 16.4688C21.4933 16.4859 21.4653 16.5 21.4311 16.5C21.3969 16.5 21.3689 16.5141 21.3689 16.5312C21.3689 16.5484 21.3473 16.5625 21.3208 16.5625C21.2586 16.5625 21.12 16.7017 21.12 16.7642C21.12 16.7908 21.106 16.8125 21.0889 16.8125C21.0718 16.8125 21.0578 16.8406 21.0578 16.875C21.0578 16.9094 21.0438 16.9375 21.0267 16.9375C21.0096 16.9375 20.9956 16.9656 20.9956 17C20.9956 17.0344 20.9816 17.0625 20.9644 17.0625C20.944 17.0625 20.9333 17.7917 20.9333 19.1875C20.9333 20.5833 20.944 21.3125 20.9644 21.3125C20.9816 21.3125 20.9956 21.3406 20.9956 21.375C20.9956 21.4094 21.0096 21.4375 21.0267 21.4375C21.0438 21.4375 21.0578 21.4656 21.0578 21.5C21.0578 21.5344 21.0718 21.5625 21.0889 21.5625C21.106 21.5625 21.12 21.5842 21.12 21.6108C21.12 21.6733 21.2586 21.8125 21.3208 21.8125C21.3473 21.8125 21.3689 21.8266 21.3689 21.8438C21.3689 21.8609 21.3969 21.875 21.4311 21.875C21.4653 21.875 21.4933 21.8891 21.4933 21.9062C21.4933 21.9234 21.5213 21.9375 21.5556 21.9375C21.5898 21.9375 21.6178 21.9516 21.6178 21.9688C21.6178 21.9885 21.8356 22 22.2089 22H22.8V23.5312C22.8 24.5312 22.8108 25.0625 22.8311 25.0625C22.8482 25.0625 22.8622 25.0906 22.8622 25.125C22.8622 25.1594 22.8762 25.1875 22.8933 25.1875C22.9104 25.1875 22.9244 25.2156 22.9244 25.25C22.9244 25.2844 22.9384 25.3125 22.9556 25.3125C22.9727 25.3125 22.9867 25.3342 22.9867 25.3608C22.9867 25.4233 23.1252 25.5625 23.1875 25.5625C23.2139 25.5625 23.2356 25.5766 23.2356 25.5938C23.2356 25.6109 23.2636 25.625 23.2978 25.625C23.332 25.625 23.36 25.6391 23.36 25.6562C23.36 25.6734 23.388 25.6875 23.4222 25.6875C23.4564 25.6875 23.4844 25.7016 23.4844 25.7188C23.4844 25.7385 23.7022 25.75 24.0756 25.75H24.6667V29.1562C24.6667 31.4062 24.6772 32.5625 24.6978 32.5625C24.7149 32.5625 24.7289 32.5906 24.7289 32.625C24.7289 32.6594 24.7429 32.6875 24.76 32.6875C24.7771 32.6875 24.7911 32.7156 24.7911 32.75C24.7911 32.7844 24.8051 32.8125 24.8222 32.8125C24.8393 32.8125 24.8533 32.8342 24.8533 32.8608C24.8533 32.9233 24.9919 33.0625 25.0542 33.0625C25.0806 33.0625 25.1022 33.0766 25.1022 33.0938C25.1022 33.1109 25.1302 33.125 25.1644 33.125C25.1987 33.125 25.2267 33.1391 25.2267 33.1562C25.2267 33.1734 25.2547 33.1875 25.2889 33.1875C25.3231 33.1875 25.3511 33.2016 25.3511 33.2188C25.3511 33.2392 25.88 33.25 26.8756 33.25H28.4V33.8438C28.4 34.2188 28.3886 34.4375 28.3689 34.4375C28.3518 34.4375 28.3378 34.4656 28.3378 34.5C28.3378 34.5344 28.3238 34.5625 28.3067 34.5625C28.2896 34.5625 28.2756 34.5875 28.2756 34.6181C28.2756 34.6487 28.2476 34.694 28.2133 34.7188C28.1791 34.7435 28.1511 34.7828 28.1511 34.806C28.1511 34.8632 28.0733 34.9375 28.0133 34.9375C27.9864 34.9375 27.9644 34.9516 27.9644 34.9688C27.9644 34.9859 27.9364 35 27.9022 35C27.868 35 27.84 35.0141 27.84 35.0312C27.84 35.0484 27.812 35.0625 27.7778 35.0625C27.7436 35.0625 27.7156 35.0766 27.7156 35.0938C27.7156 35.114 27.3008 35.125 26.5333 35.125C25.7659 35.125 25.3511 35.136 25.3511 35.1562C25.3511 35.1734 25.3231 35.1875 25.2889 35.1875C25.2547 35.1875 25.2267 35.2016 25.2267 35.2188C25.2267 35.2359 25.1987 35.25 25.1644 35.25C25.1302 35.25 25.1022 35.2641 25.1022 35.2812C25.1022 35.2984 25.0806 35.3125 25.0542 35.3125C24.9919 35.3125 24.8533 35.4517 24.8533 35.5142C24.8533 35.5408 24.8393 35.5625 24.8222 35.5625C24.8051 35.5625 24.7911 35.5906 24.7911 35.625C24.7911 35.6594 24.7771 35.6875 24.76 35.6875C24.7429 35.6875 24.7289 35.7156 24.7289 35.75C24.7289 35.7844 24.7149 35.8125 24.6978 35.8125C24.6796 35.8125 24.6667 35.9167 24.6667 36.0625C24.6667 36.2083 24.6796 36.3125 24.6978 36.3125C24.7149 36.3125 24.7289 36.3406 24.7289 36.375C24.7289 36.4094 24.7429 36.4375 24.76 36.4375C24.7771 36.4375 24.7911 36.4656 24.7911 36.5C24.7911 36.5344 24.8051 36.5625 24.8222 36.5625C24.8393 36.5625 24.8533 36.5842 24.8533 36.6108C24.8533 36.6733 24.9919 36.8125 25.0542 36.8125C25.0806 36.8125 25.1022 36.8266 25.1022 36.8438C25.1022 36.8609 25.1302 36.875 25.1644 36.875C25.1987 36.875 25.2267 36.8891 25.2267 36.9062C25.2267 36.9234 25.2547 36.9375 25.2889 36.9375C25.3231 36.9375 25.3511 36.9516 25.3511 36.9688C25.3511 36.9891 25.7867 37 26.5956 37C27.4044 37 27.84 36.9891 27.84 36.9688C27.84 36.9516 27.91 36.9375 27.9956 36.9375C28.0811 36.9375 28.1511 36.9234 28.1511 36.9062C28.1511 36.8891 28.2071 36.875 28.2756 36.875C28.344 36.875 28.4 36.8609 28.4 36.8438C28.4 36.8266 28.428 36.8125 28.4622 36.8125C28.4964 36.8125 28.5244 36.7984 28.5244 36.7812C28.5244 36.7641 28.5524 36.75 28.5867 36.75C28.6209 36.75 28.6489 36.7359 28.6489 36.7188C28.6489 36.7016 28.6769 36.6875 28.7111 36.6875C28.7453 36.6875 28.7733 36.6734 28.7733 36.6562C28.7733 36.6391 28.8013 36.625 28.8356 36.625C28.8698 36.625 28.8978 36.6109 28.8978 36.5938C28.8978 36.5766 28.9227 36.5625 28.9531 36.5625C28.9836 36.5625 29.0287 36.5344 29.0533 36.5C29.078 36.4656 29.1163 36.4375 29.1384 36.4375C29.1909 36.4375 29.7067 35.9194 29.7067 35.8667C29.7067 35.8445 29.7347 35.806 29.7689 35.7812C29.8031 35.7565 29.8311 35.7112 29.8311 35.6806C29.8311 35.65 29.8451 35.625 29.8622 35.625C29.8793 35.625 29.8933 35.5969 29.8933 35.5625C29.8933 35.5281 29.9073 35.5 29.9244 35.5C29.9416 35.5 29.9556 35.4719 29.9556 35.4375C29.9556 35.4031 29.9696 35.375 29.9867 35.375C30.0038 35.375 30.0178 35.3469 30.0178 35.3125C30.0178 35.2781 30.0318 35.25 30.0489 35.25C30.066 35.25 30.08 35.2219 30.08 35.1875C30.08 35.1531 30.094 35.125 30.1111 35.125C30.1282 35.125 30.1422 35.0688 30.1422 35C30.1422 34.9312 30.1562 34.875 30.1733 34.875C30.1904 34.875 30.2044 34.8047 30.2044 34.7188C30.2044 34.6328 30.2184 34.5625 30.2356 34.5625C30.2562 34.5625 30.2667 33.0729 30.2667 30.1562V25.75H30.8578C31.2311 25.75 31.4489 25.7385 31.4489 25.7188C31.4489 25.7016 31.4769 25.6875 31.5111 25.6875C31.5453 25.6875 31.5733 25.6734 31.5733 25.6562C31.5733 25.6391 31.6013 25.625 31.6356 25.625C31.6698 25.625 31.6978 25.6109 31.6978 25.5938C31.6978 25.5766 31.7194 25.5625 31.7458 25.5625C31.8081 25.5625 31.9467 25.4233 31.9467 25.3608C31.9467 25.3342 31.9607 25.3125 31.9778 25.3125C31.9949 25.3125 32.0089 25.2844 32.0089 25.25C32.0089 25.2156 32.0229 25.1875 32.04 25.1875C32.0571 25.1875 32.0711 25.1594 32.0711 25.125C32.0711 25.0906 32.0851 25.0625 32.1022 25.0625C32.1225 25.0625 32.1333 24.5312 32.1333 23.5312V22H32.7244C33.0978 22 33.3156 21.9885 33.3156 21.9688C33.3156 21.9516 33.3436 21.9375 33.3778 21.9375C33.412 21.9375 33.44 21.9234 33.44 21.9062C33.44 21.8891 33.468 21.875 33.5022 21.875C33.5364 21.875 33.5644 21.8609 33.5644 21.8438C33.5644 21.8266 33.5861 21.8125 33.6125 21.8125C33.6748 21.8125 33.8133 21.6733 33.8133 21.6108C33.8133 21.5842 33.8273 21.5625 33.8444 21.5625C33.8616 21.5625 33.8756 21.5344 33.8756 21.5C33.8756 21.4656 33.8896 21.4375 33.9067 21.4375C33.9238 21.4375 33.9378 21.4094 33.9378 21.375C33.9378 21.3406 33.9518 21.3125 33.9689 21.3125C33.9893 21.3125 34 20.5833 34 19.1875C34 17.7917 33.9893 17.0625 33.9689 17.0625C33.9518 17.0625 33.9378 17.0344 33.9378 17C33.9378 16.9656 33.9238 16.9375 33.9067 16.9375C33.8896 16.9375 33.8756 16.9094 33.8756 16.875C33.8756 16.8406 33.8616 16.8125 33.8444 16.8125C33.8273 16.8125 33.8133 16.7908 33.8133 16.7642C33.8133 16.7017 33.6748 16.5625 33.6125 16.5625C33.5861 16.5625 33.5644 16.5484 33.5644 16.5312C33.5644 16.5141 33.5364 16.5 33.5022 16.5C33.468 16.5 33.44 16.4859 33.44 16.4688C33.44 16.4516 33.412 16.4375 33.3778 16.4375C33.3436 16.4375 33.3156 16.4234 33.3156 16.4062C33.3156 16.3858 32.7867 16.375 31.7911 16.375H30.2667V12.8125C30.2667 10.4583 30.2561 9.25 30.2356 9.25C30.2184 9.25 30.2044 9.19375 30.2044 9.125C30.2044 9.05625 30.1904 9 30.1733 9C30.1562 9 30.1422 8.94375 30.1422 8.875C30.1422 8.80625 30.1282 8.75 30.1111 8.75C30.094 8.75 30.08 8.72187 30.08 8.6875C30.08 8.65313 30.066 8.625 30.0489 8.625C30.0318 8.625 30.0178 8.58591 30.0178 8.53816C30.0178 8.48716 29.9921 8.43272 29.9556 8.40625C29.9213 8.38147 29.8933 8.33619 29.8933 8.30559C29.8933 8.27503 29.8793 8.25 29.8622 8.25C29.8451 8.25 29.8311 8.22497 29.8311 8.19441C29.8311 8.16381 29.8031 8.11853 29.7689 8.09375C29.7347 8.06897 29.7067 8.0305 29.7067 8.00828C29.7067 7.95556 29.1909 7.4375 29.1384 7.4375C29.1163 7.4375 29.078 7.40937 29.0533 7.375C29.0287 7.34063 28.9867 7.3125 28.96 7.3125C28.9333 7.3125 28.8913 7.28437 28.8667 7.25C28.842 7.21563 28.7969 7.1875 28.7665 7.1875C28.736 7.1875 28.7111 7.17344 28.7111 7.15625C28.7111 7.13906 28.6691 7.125 28.6178 7.125C28.5664 7.125 28.5244 7.11094 28.5244 7.09375C28.5244 7.07656 28.4964 7.0625 28.4622 7.0625C28.4019 7.0625 28.4 7.04166 28.4 6.375C28.4 5.9375 28.3887 5.6875 28.3689 5.6875C28.3518 5.6875 28.3378 5.65938 28.3378 5.625C28.3378 5.59062 28.3238 5.5625 28.3067 5.5625C28.2896 5.5625 28.2756 5.53438 28.2756 5.5C28.2756 5.46562 28.2616 5.4375 28.2444 5.4375C28.2273 5.4375 28.2133 5.41578 28.2133 5.38922C28.2133 5.32669 28.0748 5.1875 28.0125 5.1875C27.9861 5.1875 27.9644 5.17344 27.9644 5.15625C27.9644 5.13906 27.9364 5.125 27.9022 5.125C27.868 5.125 27.84 5.11094 27.84 5.09375C27.84 5.07656 27.812 5.0625 27.7778 5.0625C27.7436 5.0625 27.7156 5.04844 27.7156 5.03125C27.7156 5.01303 27.6119 5 27.4667 5C27.3215 5 27.2178 5.01303 27.2178 5.03125ZM17.2 7.8125V8.75H12.5333H7.86667V7.8125V6.875H12.5333H17.2V7.8125ZM27.7156 8.78125C27.7156 8.79844 27.7436 8.8125 27.7778 8.8125C27.812 8.8125 27.84 8.82656 27.84 8.84375C27.84 8.86094 27.868 8.875 27.9022 8.875C27.9364 8.875 27.9644 8.88906 27.9644 8.90625C27.9644 8.92344 27.9861 8.9375 28.0125 8.9375C28.0748 8.9375 28.2133 9.07669 28.2133 9.13922C28.2133 9.16578 28.2273 9.1875 28.2444 9.1875C28.2616 9.1875 28.2756 9.21562 28.2756 9.25C28.2756 9.28438 28.2896 9.3125 28.3067 9.3125C28.3238 9.3125 28.3378 9.34062 28.3378 9.375C28.3378 9.40938 28.3518 9.4375 28.3689 9.4375C28.3895 9.4375 28.4 10.6146 28.4 12.9062V16.375H27.4667H26.5333V12.9062C26.5333 10.6146 26.5439 9.4375 26.5644 9.4375C26.5816 9.4375 26.5956 9.40938 26.5956 9.375C26.5956 9.34062 26.6096 9.3125 26.6267 9.3125C26.6438 9.3125 26.6578 9.28747 26.6578 9.25691C26.6578 9.22631 26.6858 9.18103 26.72 9.15625C26.7542 9.13147 26.7822 9.08619 26.7822 9.05559C26.7822 9.02313 26.8052 9 26.8376 9C26.868 9 26.9131 8.97187 26.9378 8.9375C26.9625 8.90313 27.0075 8.875 27.038 8.875C27.0684 8.875 27.0933 8.86094 27.0933 8.84375C27.0933 8.82656 27.1213 8.8125 27.1556 8.8125C27.1898 8.8125 27.2178 8.79844 27.2178 8.78125C27.2178 8.76303 27.3215 8.75 27.4667 8.75C27.6119 8.75 27.7156 8.76303 27.7156 8.78125ZM17.2 13.5V16.375H17.1067C17.0553 16.375 17.0133 16.3609 17.0133 16.3438C17.0133 16.3264 16.9304 16.3125 16.8267 16.3125C16.723 16.3125 16.64 16.2986 16.64 16.2812C16.64 16.2606 15.24 16.25 12.5022 16.25C9.76444 16.25 8.36444 16.2606 8.36444 16.2812C8.36444 16.2984 8.29444 16.3125 8.20889 16.3125C8.12333 16.3125 8.05333 16.3266 8.05333 16.3438C8.05333 16.3609 8.01133 16.375 7.96 16.375H7.86667V13.5V10.625H12.5333H17.2V13.5ZM12.2844 12.5312C12.2844 12.5484 12.2564 12.5625 12.2222 12.5625C12.188 12.5625 12.16 12.5766 12.16 12.5938C12.16 12.6109 12.132 12.625 12.0978 12.625C12.0636 12.625 12.0356 12.6391 12.0356 12.6562C12.0356 12.6734 12.0139 12.6875 11.9875 12.6875C11.961 12.6875 11.905 12.722 11.863 12.7642C11.821 12.8064 11.7867 12.8627 11.7867 12.8892C11.7867 12.9158 11.7727 12.9375 11.7556 12.9375C11.7384 12.9375 11.7244 12.9656 11.7244 13C11.7244 13.0344 11.7104 13.0625 11.6933 13.0625C11.6762 13.0625 11.6622 13.0906 11.6622 13.125C11.6622 13.1594 11.6482 13.1875 11.6311 13.1875C11.613 13.1875 11.6 13.2917 11.6 13.4375C11.6 13.5833 11.613 13.6875 11.6311 13.6875C11.6482 13.6875 11.6622 13.7156 11.6622 13.75C11.6622 13.7844 11.6762 13.8125 11.6933 13.8125C11.7104 13.8125 11.7244 13.8406 11.7244 13.875C11.7244 13.9094 11.7384 13.9375 11.7556 13.9375C11.7727 13.9375 11.7867 13.9592 11.7867 13.9858C11.7867 14.0483 11.9252 14.1875 11.9875 14.1875C12.0139 14.1875 12.0356 14.2016 12.0356 14.2188C12.0356 14.2359 12.0636 14.25 12.0978 14.25C12.132 14.25 12.16 14.2641 12.16 14.2812C12.16 14.2984 12.188 14.3125 12.2222 14.3125C12.2564 14.3125 12.2844 14.3266 12.2844 14.3438C12.2844 14.362 12.3881 14.375 12.5333 14.375C12.6785 14.375 12.7822 14.362 12.7822 14.3438C12.7822 14.3266 12.8102 14.3125 12.8444 14.3125C12.8787 14.3125 12.9067 14.2984 12.9067 14.2812C12.9067 14.2641 12.9347 14.25 12.9689 14.25C13.0031 14.25 13.0311 14.2359 13.0311 14.2188C13.0311 14.2016 13.0527 14.1875 13.0792 14.1875C13.1056 14.1875 13.1616 14.153 13.2036 14.1108C13.2456 14.0686 13.28 14.0123 13.28 13.9858C13.28 13.9592 13.294 13.9375 13.3111 13.9375C13.3282 13.9375 13.3422 13.9094 13.3422 13.875C13.3422 13.8406 13.3562 13.8125 13.3733 13.8125C13.3904 13.8125 13.4044 13.7844 13.4044 13.75C13.4044 13.7156 13.4184 13.6875 13.4356 13.6875C13.4537 13.6875 13.4667 13.5833 13.4667 13.4375C13.4667 13.2917 13.4537 13.1875 13.4356 13.1875C13.4184 13.1875 13.4044 13.1594 13.4044 13.125C13.4044 13.0906 13.3904 13.0625 13.3733 13.0625C13.3562 13.0625 13.3422 13.0344 13.3422 13C13.3422 12.9656 13.3282 12.9375 13.3111 12.9375C13.294 12.9375 13.28 12.9158 13.28 12.8892C13.28 12.8267 13.1414 12.6875 13.0792 12.6875C13.0527 12.6875 13.0311 12.6734 13.0311 12.6562C13.0311 12.6391 13.0031 12.625 12.9689 12.625C12.9347 12.625 12.9067 12.6109 12.9067 12.5938C12.9067 12.5766 12.8787 12.5625 12.8444 12.5625C12.8102 12.5625 12.7822 12.5484 12.7822 12.5312C12.7822 12.513 12.6785 12.5 12.5333 12.5C12.3881 12.5 12.2844 12.513 12.2844 12.5312ZM13.4667 20.8125C13.4667 22.5833 13.4773 23.5 13.4978 23.5C13.5151 23.5 13.5289 23.5833 13.5289 23.6875C13.5289 23.7917 13.5427 23.875 13.56 23.875C13.5771 23.875 13.5911 23.9453 13.5911 24.0312C13.5911 24.1172 13.6051 24.1875 13.6222 24.1875C13.6393 24.1875 13.6533 24.2297 13.6533 24.2812C13.6533 24.3328 13.6673 24.375 13.6844 24.375C13.7016 24.375 13.7156 24.4172 13.7156 24.4688C13.7156 24.5203 13.7296 24.5625 13.7467 24.5625C13.7638 24.5625 13.7778 24.5906 13.7778 24.625C13.7778 24.6594 13.7918 24.6875 13.8089 24.6875C13.826 24.6875 13.84 24.7297 13.84 24.7812C13.84 24.8328 13.854 24.875 13.8711 24.875C13.8882 24.875 13.9022 24.9031 13.9022 24.9375C13.9022 24.9719 13.9162 25 13.9333 25C13.9504 25 13.9644 25.0281 13.9644 25.0625C13.9644 25.0969 13.9784 25.125 13.9956 25.125C14.0127 25.125 14.0267 25.1531 14.0267 25.1875C14.0267 25.2219 14.0407 25.25 14.0578 25.25C14.0749 25.25 14.0889 25.275 14.0889 25.3056C14.0889 25.3362 14.1169 25.3815 14.1511 25.4062C14.1853 25.431 14.2133 25.4732 14.2133 25.5C14.2133 25.5268 14.2413 25.569 14.2756 25.5938C14.3098 25.6185 14.3378 25.6582 14.3378 25.6819C14.3378 25.7055 14.3798 25.7643 14.4311 25.8125C14.4824 25.8607 14.5244 25.9157 14.5244 25.9348C14.5244 25.9797 15.104 26.5625 15.1487 26.5625C15.1674 26.5625 15.2365 26.6187 15.3022 26.6875C15.368 26.7563 15.437 26.8125 15.4557 26.8125C15.5003 26.8125 16.2044 27.5204 16.2044 27.5653C16.2044 27.5843 16.2464 27.6393 16.2978 27.6875C16.3491 27.7357 16.3911 27.7945 16.3911 27.8181C16.3911 27.8418 16.4191 27.8815 16.4533 27.9062C16.4876 27.931 16.5156 27.9763 16.5156 28.0069C16.5156 28.0375 16.5296 28.0625 16.5467 28.0625C16.5638 28.0625 16.5778 28.0906 16.5778 28.125C16.5778 28.1594 16.5918 28.1875 16.6089 28.1875C16.626 28.1875 16.64 28.2125 16.64 28.2431C16.64 28.2737 16.668 28.319 16.7022 28.3438C16.7387 28.3702 16.7644 28.4247 16.7644 28.4757C16.7644 28.5234 16.7784 28.5625 16.7956 28.5625C16.8127 28.5625 16.8267 28.5906 16.8267 28.625C16.8267 28.6594 16.8407 28.6875 16.8578 28.6875C16.8749 28.6875 16.8889 28.7297 16.8889 28.7812C16.8889 28.8328 16.9029 28.875 16.92 28.875C16.9371 28.875 16.9511 28.9031 16.9511 28.9375C16.9511 28.9719 16.9651 29 16.9822 29C16.9993 29 17.0133 29.0562 17.0133 29.125C17.0133 29.1938 17.0273 29.25 17.0444 29.25C17.0616 29.25 17.0756 29.3062 17.0756 29.375C17.0756 29.4438 17.0896 29.5 17.1067 29.5C17.1244 29.5 17.1378 29.5938 17.1378 29.7188C17.1378 29.8438 17.1511 29.9375 17.1689 29.9375C17.1883 29.9375 17.2 30.125 17.2 30.4375C17.2 30.75 17.1883 30.9375 17.1689 30.9375C17.1511 30.9375 17.1378 31.0312 17.1378 31.1562C17.1378 31.2812 17.1244 31.375 17.1067 31.375C17.0896 31.375 17.0756 31.4312 17.0756 31.5C17.0756 31.5688 17.0616 31.625 17.0444 31.625C17.0273 31.625 17.0133 31.6812 17.0133 31.75C17.0133 31.8188 16.9993 31.875 16.9822 31.875C16.9651 31.875 16.9511 31.9172 16.9511 31.9688C16.9511 32.0203 16.9371 32.0625 16.92 32.0625C16.9029 32.0625 16.8889 32.0906 16.8889 32.125C16.8889 32.1594 16.8749 32.1875 16.8578 32.1875C16.8407 32.1875 16.8267 32.2156 16.8267 32.25C16.8267 32.2844 16.8127 32.3125 16.7956 32.3125C16.7784 32.3125 16.7644 32.3547 16.7644 32.4062C16.7644 32.4578 16.7504 32.5 16.7333 32.5C16.7162 32.5 16.7022 32.525 16.7022 32.5556C16.7022 32.5862 16.6742 32.6315 16.64 32.6562C16.6058 32.681 16.5778 32.7263 16.5778 32.7569C16.5778 32.7875 16.5638 32.8125 16.5467 32.8125C16.5296 32.8125 16.5156 32.8375 16.5156 32.8681C16.5156 32.8987 16.4876 32.944 16.4533 32.9688C16.4191 32.9935 16.3911 33.0357 16.3911 33.0625C16.3911 33.0893 16.3631 33.1315 16.3289 33.1562C16.2947 33.181 16.2667 33.2201 16.2667 33.243C16.2667 33.2659 16.1827 33.3675 16.08 33.4688C15.9773 33.57 15.8933 33.6686 15.8933 33.688C15.8933 33.7335 15.8147 33.8125 15.7694 33.8125C15.7501 33.8125 15.6519 33.8969 15.5511 34C15.4503 34.1031 15.3492 34.1875 15.3264 34.1875C15.3035 34.1875 15.2647 34.2156 15.24 34.25C15.2153 34.2844 15.1733 34.3125 15.1467 34.3125C15.12 34.3125 15.078 34.3406 15.0533 34.375C15.0287 34.4094 14.9836 34.4375 14.9531 34.4375C14.9227 34.4375 14.8978 34.4516 14.8978 34.4688C14.8978 34.4859 14.8729 34.5 14.8424 34.5C14.812 34.5 14.7669 34.5281 14.7422 34.5625C14.7176 34.5969 14.6725 34.625 14.642 34.625C14.6116 34.625 14.5867 34.6391 14.5867 34.6562C14.5867 34.6734 14.5447 34.6875 14.4933 34.6875C14.442 34.6875 14.4 34.7016 14.4 34.7188C14.4 34.7359 14.372 34.75 14.3378 34.75C14.3036 34.75 14.2756 34.7641 14.2756 34.7812C14.2756 34.7984 14.2476 34.8125 14.2133 34.8125C14.1791 34.8125 14.1511 34.8266 14.1511 34.8438C14.1511 34.8609 14.1091 34.875 14.0578 34.875C14.0064 34.875 13.9644 34.8891 13.9644 34.9062C13.9644 34.9234 13.9084 34.9375 13.84 34.9375C13.7716 34.9375 13.7156 34.9516 13.7156 34.9688C13.7156 34.9859 13.6596 35 13.5911 35C13.5227 35 13.4667 35.0141 13.4667 35.0312C13.4667 35.0486 13.3837 35.0625 13.28 35.0625C13.1763 35.0625 13.0933 35.0764 13.0933 35.0938C13.0933 35.1133 12.8963 35.125 12.5644 35.125C12.2326 35.125 12.0356 35.1133 12.0356 35.0938C12.0356 35.0759 11.9422 35.0625 11.8178 35.0625C11.6933 35.0625 11.6 35.0491 11.6 35.0312C11.6 35.0141 11.544 35 11.4756 35C11.4071 35 11.3511 34.9859 11.3511 34.9688C11.3511 34.9516 11.2951 34.9375 11.2267 34.9375C11.1582 34.9375 11.1022 34.9234 11.1022 34.9062C11.1022 34.8891 11.0602 34.875 11.0089 34.875C10.9576 34.875 10.9156 34.8609 10.9156 34.8438C10.9156 34.8266 10.8876 34.8125 10.8533 34.8125C10.8191 34.8125 10.7911 34.7984 10.7911 34.7812C10.7911 34.7641 10.7631 34.75 10.7289 34.75C10.6947 34.75 10.6667 34.7359 10.6667 34.7188C10.6667 34.7016 10.6247 34.6875 10.5733 34.6875C10.522 34.6875 10.48 34.6734 10.48 34.6562C10.48 34.6391 10.4551 34.625 10.4247 34.625C10.3942 34.625 10.3491 34.5969 10.3244 34.5625C10.2998 34.5281 10.2547 34.5 10.2242 34.5C10.1938 34.5 10.1689 34.4859 10.1689 34.4688C10.1689 34.4516 10.144 34.4375 10.1135 34.4375C10.0831 34.4375 10.038 34.4094 10.0133 34.375C9.98866 34.3406 9.94666 34.3125 9.92 34.3125C9.89334 34.3125 9.85134 34.2844 9.82667 34.25C9.802 34.2156 9.76379 34.1875 9.74176 34.1875C9.68944 34.1875 8.8 33.2941 8.8 33.2415C8.8 33.2194 8.772 33.181 8.73778 33.1562C8.70356 33.1315 8.67556 33.0893 8.67556 33.0625C8.67556 33.0357 8.64756 32.9935 8.61333 32.9688C8.57911 32.944 8.55111 32.8987 8.55111 32.8681C8.55111 32.8375 8.53711 32.8125 8.52 32.8125C8.50289 32.8125 8.48889 32.7875 8.48889 32.7569C8.48889 32.7263 8.46089 32.681 8.42667 32.6562C8.39244 32.6315 8.36444 32.5862 8.36444 32.5556C8.36444 32.525 8.35044 32.5 8.33333 32.5C8.31622 32.5 8.30222 32.4578 8.30222 32.4062C8.30222 32.3547 8.28822 32.3125 8.27111 32.3125C8.254 32.3125 8.24 32.2844 8.24 32.25C8.24 32.2156 8.226 32.1875 8.20889 32.1875C8.19178 32.1875 8.17778 32.1594 8.17778 32.125C8.17778 32.0906 8.16378 32.0625 8.14667 32.0625C8.12956 32.0625 8.11556 32.0203 8.11556 31.9688C8.11556 31.9172 8.10156 31.875 8.08444 31.875C8.06733 31.875 8.05333 31.8188 8.05333 31.75C8.05333 31.6812 8.03933 31.625 8.02222 31.625C8.00511 31.625 7.99111 31.5688 7.99111 31.5C7.99111 31.4312 7.97711 31.375 7.96 31.375C7.9427 31.375 7.92889 31.2917 7.92889 31.1875C7.92889 31.0833 7.91508 31 7.89778 31C7.87818 31 7.86667 30.7917 7.86667 30.4375C7.86667 30.0833 7.87818 29.875 7.89778 29.875C7.91508 29.875 7.92889 29.7917 7.92889 29.6875C7.92889 29.5833 7.9427 29.5 7.96 29.5C7.97711 29.5 7.99111 29.4438 7.99111 29.375C7.99111 29.3062 8.00511 29.25 8.02222 29.25C8.03933 29.25 8.05333 29.1938 8.05333 29.125C8.05333 29.0562 8.06733 29 8.08444 29C8.10156 29 8.11556 28.9578 8.11556 28.9062C8.11556 28.8547 8.12956 28.8125 8.14667 28.8125C8.16378 28.8125 8.17778 28.7844 8.17778 28.75C8.17778 28.7156 8.19178 28.6875 8.20889 28.6875C8.226 28.6875 8.24 28.6594 8.24 28.625C8.24 28.5906 8.254 28.5625 8.27111 28.5625C8.28822 28.5625 8.30222 28.5203 8.30222 28.4688C8.30222 28.4172 8.31622 28.375 8.33333 28.375C8.35044 28.375 8.36444 28.35 8.36444 28.3194C8.36444 28.2888 8.39244 28.2435 8.42667 28.2188C8.46089 28.194 8.48889 28.1487 8.48889 28.1181C8.48889 28.0875 8.50289 28.0625 8.52 28.0625C8.53711 28.0625 8.55111 28.0375 8.55111 28.0069C8.55111 27.9763 8.57911 27.931 8.61333 27.9062C8.64756 27.8815 8.67556 27.8418 8.67556 27.8181C8.67556 27.7945 8.71756 27.7357 8.76889 27.6875C8.82022 27.6393 8.86222 27.5843 8.86222 27.5653C8.86222 27.52 9.56658 26.8125 9.61163 26.8125C9.6306 26.8125 9.68539 26.7703 9.73333 26.7188C9.78128 26.6672 9.83603 26.625 9.85501 26.625C9.90351 26.625 10.6667 25.8532 10.6667 25.8041C10.6667 25.7819 10.6947 25.7435 10.7289 25.7188C10.7631 25.694 10.7911 25.6518 10.7911 25.625C10.7911 25.5982 10.8191 25.556 10.8533 25.5312C10.8876 25.5065 10.9156 25.4643 10.9156 25.4375C10.9156 25.4107 10.9436 25.3685 10.9778 25.3438C11.012 25.319 11.04 25.2737 11.04 25.2431C11.04 25.2125 11.054 25.1875 11.0711 25.1875C11.0882 25.1875 11.1022 25.1594 11.1022 25.125C11.1022 25.0906 11.1162 25.0625 11.1333 25.0625C11.1504 25.0625 11.1644 25.0344 11.1644 25C11.1644 24.9656 11.1784 24.9375 11.1956 24.9375C11.2127 24.9375 11.2267 24.8953 11.2267 24.8438C11.2267 24.7922 11.2407 24.75 11.2578 24.75C11.2749 24.75 11.2889 24.7219 11.2889 24.6875C11.2889 24.6531 11.3029 24.625 11.32 24.625C11.3371 24.625 11.3511 24.5828 11.3511 24.5312C11.3511 24.4797 11.3651 24.4375 11.3822 24.4375C11.3993 24.4375 11.4133 24.3813 11.4133 24.3125C11.4133 24.2437 11.4273 24.1875 11.4444 24.1875C11.4616 24.1875 11.4756 24.1313 11.4756 24.0625C11.4756 23.9937 11.4896 23.9375 11.5067 23.9375C11.524 23.9375 11.5378 23.8542 11.5378 23.75C11.5378 23.6458 11.5516 23.5625 11.5689 23.5625C11.5894 23.5625 11.6 22.6354 11.6 20.8438V18.125H12.5333H13.4667V20.8125ZM26.5333 19.1875V20.125H24.6667H22.8V19.1875V18.25H24.6667H26.5333V19.1875ZM32.1333 19.1875V20.125H30.2667H28.4V19.1875V18.25H30.2667H32.1333V19.1875ZM30.2667 22.9375V23.875H27.4667H24.6667V22.9375V22H27.4667H30.2667V22.9375ZM28.4 26.6875V27.625H27.4667H26.5333V26.6875V25.75H27.4667H28.4V26.6875ZM12.16 27.6562C12.16 27.6734 12.09 27.6875 12.0044 27.6875C11.9189 27.6875 11.8489 27.7016 11.8489 27.7188C11.8489 27.7359 11.7929 27.75 11.7244 27.75C11.656 27.75 11.6 27.7641 11.6 27.7812C11.6 27.7984 11.572 27.8125 11.5378 27.8125C11.5036 27.8125 11.4756 27.8266 11.4756 27.8438C11.4756 27.8609 11.4476 27.875 11.4133 27.875C11.3791 27.875 11.3511 27.8891 11.3511 27.9062C11.3511 27.9234 11.3122 27.9375 11.2647 27.9375C11.2139 27.9375 11.1597 27.9633 11.1333 28C11.1087 28.0344 11.0667 28.0625 11.04 28.0625C11.0133 28.0625 10.9713 28.0906 10.9467 28.125C10.922 28.1594 10.8837 28.1875 10.8616 28.1875C10.8091 28.1875 10.2933 28.7056 10.2933 28.7583C10.2933 28.7805 10.2653 28.819 10.2311 28.8438C10.1969 28.8685 10.1689 28.9107 10.1689 28.9375C10.1689 28.9643 10.1409 29.0065 10.1067 29.0312C10.0724 29.056 10.0444 29.1013 10.0444 29.1319C10.0444 29.1625 10.0304 29.1875 10.0133 29.1875C9.99622 29.1875 9.98222 29.2297 9.98222 29.2812C9.98222 29.3328 9.96822 29.375 9.95111 29.375C9.934 29.375 9.92 29.4031 9.92 29.4375C9.92 29.4719 9.906 29.5 9.88889 29.5C9.87178 29.5 9.85778 29.5562 9.85778 29.625C9.85778 29.6938 9.84378 29.75 9.82667 29.75C9.80956 29.75 9.79556 29.8203 9.79556 29.9062C9.79556 29.9922 9.78156 30.0625 9.76444 30.0625C9.74531 30.0625 9.73333 30.2188 9.73333 30.4688C9.73333 30.7188 9.74531 30.875 9.76444 30.875C9.78156 30.875 9.79556 30.9312 9.79556 31C9.79556 31.0688 9.80956 31.125 9.82667 31.125C9.84378 31.125 9.85778 31.1812 9.85778 31.25C9.85778 31.3188 9.87178 31.375 9.88889 31.375C9.906 31.375 9.92 31.4031 9.92 31.4375C9.92 31.4719 9.934 31.5 9.95111 31.5C9.96822 31.5 9.98222 31.5422 9.98222 31.5938C9.98222 31.6453 9.99622 31.6875 10.0133 31.6875C10.0304 31.6875 10.0444 31.7125 10.0444 31.7431C10.0444 31.7737 10.0724 31.819 10.1067 31.8438C10.1409 31.8685 10.1689 31.9107 10.1689 31.9375C10.1689 31.9643 10.1969 32.0065 10.2311 32.0312C10.2653 32.056 10.2933 32.0945 10.2933 32.1167C10.2933 32.1694 10.8091 32.6875 10.8616 32.6875C10.8837 32.6875 10.922 32.7156 10.9467 32.75C10.9713 32.7844 11.0133 32.8125 11.04 32.8125C11.0667 32.8125 11.1087 32.8406 11.1333 32.875C11.1597 32.9117 11.2139 32.9375 11.2647 32.9375C11.3122 32.9375 11.3511 32.9516 11.3511 32.9688C11.3511 32.9859 11.3791 33 11.4133 33C11.4476 33 11.4756 33.0141 11.4756 33.0312C11.4756 33.0484 11.5036 33.0625 11.5378 33.0625C11.572 33.0625 11.6 33.0766 11.6 33.0938C11.6 33.1109 11.656 33.125 11.7244 33.125C11.7929 33.125 11.8489 33.1391 11.8489 33.1562C11.8489 33.1734 11.9189 33.1875 12.0044 33.1875C12.09 33.1875 12.16 33.2016 12.16 33.2188C12.16 33.2378 12.3052 33.25 12.5333 33.25C12.7615 33.25 12.9067 33.2378 12.9067 33.2188C12.9067 33.2016 12.9767 33.1875 13.0622 33.1875C13.1478 33.1875 13.2178 33.1734 13.2178 33.1562C13.2178 33.1391 13.2738 33.125 13.3422 33.125C13.4107 33.125 13.4667 33.1109 13.4667 33.0938C13.4667 33.0766 13.4947 33.0625 13.5289 33.0625C13.5631 33.0625 13.5911 33.0484 13.5911 33.0312C13.5911 33.0141 13.6331 33 13.6844 33C13.7358 33 13.7778 32.9859 13.7778 32.9688C13.7778 32.9516 13.8027 32.9375 13.8331 32.9375C13.8636 32.9375 13.9087 32.9094 13.9333 32.875C13.958 32.8406 14 32.8125 14.0267 32.8125C14.0533 32.8125 14.0953 32.7844 14.12 32.75C14.1447 32.7156 14.183 32.6875 14.2051 32.6875C14.2576 32.6875 14.7733 32.1694 14.7733 32.1167C14.7733 32.0945 14.8013 32.056 14.8356 32.0312C14.8698 32.0065 14.8978 31.9643 14.8978 31.9375C14.8978 31.9107 14.9258 31.8685 14.96 31.8438C14.9942 31.819 15.0222 31.7737 15.0222 31.7431C15.0222 31.7125 15.0362 31.6875 15.0533 31.6875C15.0704 31.6875 15.0844 31.6453 15.0844 31.5938C15.0844 31.5422 15.0984 31.5 15.1156 31.5C15.1327 31.5 15.1467 31.4719 15.1467 31.4375C15.1467 31.4031 15.1607 31.375 15.1778 31.375C15.1949 31.375 15.2089 31.3188 15.2089 31.25C15.2089 31.1812 15.2229 31.125 15.24 31.125C15.2571 31.125 15.2711 31.0547 15.2711 30.9688C15.2711 30.8828 15.2851 30.8125 15.3022 30.8125C15.3212 30.8125 15.3333 30.6667 15.3333 30.4375C15.3333 30.2083 15.3212 30.0625 15.3022 30.0625C15.2851 30.0625 15.2711 29.9922 15.2711 29.9062C15.2711 29.8203 15.2571 29.75 15.24 29.75C15.2229 29.75 15.2089 29.6938 15.2089 29.625C15.2089 29.5562 15.1949 29.5 15.1778 29.5C15.1607 29.5 15.1467 29.4719 15.1467 29.4375C15.1467 29.4031 15.1327 29.375 15.1156 29.375C15.0984 29.375 15.0844 29.3469 15.0844 29.3125C15.0844 29.2781 15.0704 29.25 15.0533 29.25C15.0362 29.25 15.0222 29.2109 15.0222 29.1632C15.0222 29.1122 14.9965 29.0577 14.96 29.0312C14.9258 29.0065 14.8978 28.9643 14.8978 28.9375C14.8978 28.9107 14.8698 28.8685 14.8356 28.8438C14.8013 28.819 14.7733 28.7805 14.7733 28.7583C14.7733 28.7056 14.2576 28.1875 14.2051 28.1875C14.183 28.1875 14.1447 28.1594 14.12 28.125C14.0953 28.0906 14.0533 28.0625 14.0267 28.0625C14 28.0625 13.958 28.0344 13.9333 28C13.9087 27.9656 13.8636 27.9375 13.8331 27.9375C13.8027 27.9375 13.7778 27.9234 13.7778 27.9062C13.7778 27.8891 13.7358 27.875 13.6844 27.875C13.6331 27.875 13.5911 27.8609 13.5911 27.8438C13.5911 27.8266 13.5631 27.8125 13.5289 27.8125C13.4947 27.8125 13.4667 27.7984 13.4667 27.7812C13.4667 27.7641 13.4107 27.75 13.3422 27.75C13.2738 27.75 13.2178 27.7359 13.2178 27.7188C13.2178 27.7016 13.1618 27.6875 13.0933 27.6875C13.0249 27.6875 12.9689 27.6734 12.9689 27.6562C12.9689 27.637 12.8133 27.625 12.5644 27.625C12.3156 27.625 12.16 27.637 12.16 27.6562ZM12.7822 29.5312C12.7822 29.5484 12.8102 29.5625 12.8444 29.5625C12.8787 29.5625 12.9067 29.5766 12.9067 29.5938C12.9067 29.6109 12.9347 29.625 12.9689 29.625C13.0031 29.625 13.0311 29.6391 13.0311 29.6562C13.0311 29.6734 13.0527 29.6875 13.0792 29.6875C13.1414 29.6875 13.28 29.8267 13.28 29.8892C13.28 29.9158 13.294 29.9375 13.3111 29.9375C13.3282 29.9375 13.3422 29.9656 13.3422 30C13.3422 30.0344 13.3562 30.0625 13.3733 30.0625C13.3904 30.0625 13.4044 30.0906 13.4044 30.125C13.4044 30.1594 13.4184 30.1875 13.4356 30.1875C13.4537 30.1875 13.4667 30.2917 13.4667 30.4375C13.4667 30.5833 13.4537 30.6875 13.4356 30.6875C13.4184 30.6875 13.4044 30.7156 13.4044 30.75C13.4044 30.7844 13.3904 30.8125 13.3733 30.8125C13.3562 30.8125 13.3422 30.8406 13.3422 30.875C13.3422 30.9094 13.3282 30.9375 13.3111 30.9375C13.294 30.9375 13.28 30.9592 13.28 30.9858C13.28 31.0483 13.1414 31.1875 13.0792 31.1875C13.0527 31.1875 13.0311 31.2016 13.0311 31.2188C13.0311 31.2359 13.0031 31.25 12.9689 31.25C12.9347 31.25 12.9067 31.2641 12.9067 31.2812C12.9067 31.2984 12.8787 31.3125 12.8444 31.3125C12.8102 31.3125 12.7822 31.3266 12.7822 31.3438C12.7822 31.362 12.6785 31.375 12.5333 31.375C12.3881 31.375 12.2844 31.362 12.2844 31.3438C12.2844 31.3266 12.2564 31.3125 12.2222 31.3125C12.188 31.3125 12.16 31.2984 12.16 31.2812C12.16 31.2641 12.1351 31.25 12.1047 31.25C12.0742 31.25 12.0291 31.2219 12.0044 31.1875C11.9798 31.1531 11.9407 31.125 11.9176 31.125C11.8606 31.125 11.7867 31.0468 11.7867 30.9866C11.7867 30.9596 11.7727 30.9375 11.7556 30.9375C11.7384 30.9375 11.7244 30.9094 11.7244 30.875C11.7244 30.8406 11.7104 30.8125 11.6933 30.8125C11.6762 30.8125 11.6622 30.7844 11.6622 30.75C11.6622 30.7156 11.6482 30.6875 11.6311 30.6875C11.613 30.6875 11.6 30.5833 11.6 30.4375C11.6 30.2917 11.613 30.1875 11.6311 30.1875C11.6482 30.1875 11.6622 30.1594 11.6622 30.125C11.6622 30.0906 11.6762 30.0625 11.6933 30.0625C11.7104 30.0625 11.7244 30.0344 11.7244 30C11.7244 29.9656 11.7384 29.9375 11.7556 29.9375C11.7727 29.9375 11.7867 29.9154 11.7867 29.8884C11.7867 29.8282 11.8606 29.75 11.9176 29.75C11.9407 29.75 11.9798 29.7219 12.0044 29.6875C12.0291 29.6531 12.0742 29.625 12.1047 29.625C12.1351 29.625 12.16 29.6109 12.16 29.5938C12.16 29.5766 12.188 29.5625 12.2222 29.5625C12.2564 29.5625 12.2844 29.5484 12.2844 29.5312C12.2844 29.513 12.3881 29.5 12.5333 29.5C12.6785 29.5 12.7822 29.513 12.7822 29.5312ZM28.4 30.4375V31.375H27.4667H26.5333V30.4375V29.5H27.4667H28.4V30.4375Z" fill="#DD2A1B"/>
</svg>
