<svg width="40" height="40" viewBox="0 0 40 40" fill="none" xmlns="http://www.w3.org/2000/svg">
<path fill-rule="evenodd" clip-rule="evenodd" d="M6.60156 6.02734C6.60156 6.04238 6.57695 6.05469 6.54688 6.05469C6.5168 6.05469 6.49219 6.06699 6.49219 6.08203C6.49219 6.09707 6.46758 6.10938 6.4375 6.10938C6.40742 6.10938 6.38281 6.12168 6.38281 6.13672C6.38281 6.15176 6.36381 6.16406 6.34057 6.16406C6.28585 6.16406 6.16406 6.28585 6.16406 6.34057C6.16406 6.36381 6.15176 6.38281 6.13672 6.38281C6.12168 6.38281 6.10938 6.40742 6.10938 6.4375C6.10938 6.46758 6.09707 6.49219 6.08203 6.49219C6.06699 6.49219 6.05469 6.5168 6.05469 6.54688C6.05469 6.57695 6.04238 6.60156 6.02734 6.60156C6.00916 6.60156 6 10.5391 6 18.3594C6 26.1797 6.00916 30.1172 6.02734 30.1172C6.04238 30.1172 6.05469 30.1418 6.05469 30.1719C6.05469 30.202 6.06699 30.2266 6.08203 30.2266C6.09707 30.2266 6.10938 30.2512 6.10938 30.2812C6.10938 30.3113 6.12168 30.3359 6.13672 30.3359C6.15176 30.3359 6.16406 30.3549 6.16406 30.3782C6.16406 30.4329 6.28585 30.5547 6.34057 30.5547C6.36381 30.5547 6.38281 30.567 6.38281 30.582C6.38281 30.5971 6.40742 30.6094 6.4375 30.6094C6.46758 30.6094 6.49219 30.6217 6.49219 30.6367C6.49219 30.6518 6.5168 30.6641 6.54688 30.6641C6.57695 30.6641 6.60156 30.6764 6.60156 30.6914C6.60156 30.7095 7.89582 30.7188 10.4297 30.7188H14.2578V32.0586C14.2578 32.9336 14.2673 33.3984 14.2852 33.3984C14.3002 33.3984 14.3125 33.423 14.3125 33.4531C14.3125 33.4832 14.3248 33.5078 14.3398 33.5078C14.3549 33.5078 14.3672 33.5324 14.3672 33.5625C14.3672 33.5926 14.3795 33.6172 14.3945 33.6172C14.4096 33.6172 14.4219 33.6362 14.4219 33.6594C14.4219 33.7141 14.5437 33.8359 14.5984 33.8359C14.6216 33.8359 14.6406 33.8482 14.6406 33.8633C14.6406 33.8783 14.6652 33.8906 14.6953 33.8906C14.7254 33.8906 14.75 33.9029 14.75 33.918C14.75 33.933 14.7746 33.9453 14.8047 33.9453C14.8348 33.9453 14.8594 33.9576 14.8594 33.9727C14.8594 33.9906 15.4974 34 16.7188 34C17.9401 34 18.5781 33.9906 18.5781 33.9727C18.5781 33.9576 18.6027 33.9453 18.6328 33.9453C18.6629 33.9453 18.6875 33.933 18.6875 33.918C18.6875 33.9029 18.7121 33.8906 18.7422 33.8906C18.7723 33.8906 18.7969 33.8783 18.7969 33.8633C18.7969 33.8482 18.8159 33.8359 18.8391 33.8359C18.8938 33.8359 19.0156 33.7141 19.0156 33.6594C19.0156 33.6362 19.0279 33.6172 19.043 33.6172C19.058 33.6172 19.0703 33.5926 19.0703 33.5625C19.0703 33.5324 19.0826 33.5078 19.0977 33.5078C19.1127 33.5078 19.125 33.4832 19.125 33.4531C19.125 33.423 19.1373 33.3984 19.1523 33.3984C19.1702 33.3984 19.1797 32.9336 19.1797 32.0586V30.7188H23.3086H27.4375V32.0586C27.4375 32.9336 27.447 33.3984 27.4648 33.3984C27.4799 33.3984 27.4922 33.423 27.4922 33.4531C27.4922 33.4832 27.5045 33.5078 27.5195 33.5078C27.5346 33.5078 27.5469 33.5324 27.5469 33.5625C27.5469 33.5926 27.5592 33.6172 27.5742 33.6172C27.5893 33.6172 27.6016 33.6362 27.6016 33.6594C27.6016 33.7141 27.7234 33.8359 27.7781 33.8359C27.8013 33.8359 27.8203 33.8482 27.8203 33.8633C27.8203 33.8783 27.8449 33.8906 27.875 33.8906C27.9051 33.8906 27.9297 33.9029 27.9297 33.918C27.9297 33.933 27.9543 33.9453 27.9844 33.9453C28.0145 33.9453 28.0391 33.9576 28.0391 33.9727C28.0391 33.9906 28.6771 34 29.8984 34C31.1198 34 31.7578 33.9906 31.7578 33.9727C31.7578 33.9576 31.7824 33.9453 31.8125 33.9453C31.8426 33.9453 31.8672 33.933 31.8672 33.918C31.8672 33.9029 31.8918 33.8906 31.9219 33.8906C31.952 33.8906 31.9766 33.8783 31.9766 33.8633C31.9766 33.8482 31.9956 33.8359 32.0188 33.8359C32.042 33.8359 32.0913 33.8057 32.1282 33.7688C32.1651 33.7319 32.1953 33.6827 32.1953 33.6594C32.1953 33.6362 32.2076 33.6172 32.2227 33.6172C32.2377 33.6172 32.25 33.5926 32.25 33.5625C32.25 33.5324 32.2623 33.5078 32.2773 33.5078C32.2924 33.5078 32.3047 33.4832 32.3047 33.4531C32.3047 33.423 32.317 33.3984 32.332 33.3984C32.3499 33.3984 32.3594 32.9062 32.3594 31.9766C32.3594 30.5729 32.3601 30.5547 32.4141 30.5547C32.4441 30.5547 32.4688 30.5424 32.4688 30.5273C32.4688 30.5123 32.4934 30.5 32.5234 30.5C32.5535 30.5 32.5781 30.4877 32.5781 30.4727C32.5781 30.4576 32.6027 30.4453 32.6328 30.4453C32.6629 30.4453 32.6875 30.433 32.6875 30.418C32.6875 30.4029 32.7121 30.3906 32.7422 30.3906C32.7723 30.3906 32.7969 30.3783 32.7969 30.3633C32.7969 30.3482 32.8188 30.3359 32.8455 30.3359C32.8723 30.3359 32.9119 30.3113 32.9336 30.2812C32.9553 30.2512 32.9889 30.2266 33.0084 30.2266C33.0545 30.2266 33.5078 29.7733 33.5078 29.7271C33.5078 29.7077 33.5324 29.674 33.5625 29.6523C33.5926 29.6307 33.6172 29.591 33.6172 29.5643C33.6172 29.5375 33.6295 29.5156 33.6445 29.5156C33.6596 29.5156 33.6719 29.4937 33.6719 29.467C33.6719 29.4402 33.6965 29.4006 33.7266 29.3789C33.7587 29.3557 33.7812 29.3081 33.7812 29.2635C33.7812 29.2217 33.7936 29.1875 33.8086 29.1875C33.8236 29.1875 33.8359 29.1629 33.8359 29.1328C33.8359 29.1027 33.8482 29.0781 33.8633 29.0781C33.8783 29.0781 33.8906 29.0289 33.8906 28.9688C33.8906 28.9086 33.9029 28.8594 33.918 28.8594C33.933 28.8594 33.9453 28.8102 33.9453 28.75C33.9453 28.6898 33.9576 28.6406 33.9727 28.6406C33.9906 28.6406 34 27.9753 34 26.6992C34 25.4232 33.9906 24.7578 33.9727 24.7578C33.9576 24.7578 33.9453 24.7332 33.9453 24.7031C33.9453 24.673 33.933 24.6484 33.918 24.6484C33.9029 24.6484 33.8906 24.6238 33.8906 24.5938C33.8906 24.5637 33.8783 24.5391 33.8633 24.5391C33.8482 24.5391 33.8359 24.5204 33.8359 24.4977C33.8359 24.4749 33.4791 24.0998 33.043 23.6641C32.6068 23.2283 32.25 22.8532 32.25 22.8304C32.25 22.8077 32.2377 22.7891 32.2227 22.7891C32.2076 22.7891 32.1953 22.7521 32.1953 22.707C32.1953 22.6619 32.183 22.625 32.168 22.625C32.1529 22.625 32.1406 22.5881 32.1406 22.543C32.1406 22.4979 32.1283 22.4609 32.1133 22.4609C32.0982 22.4609 32.0859 22.424 32.0859 22.3789C32.0859 22.3338 32.0736 22.2969 32.0586 22.2969C32.0436 22.2969 32.0312 22.26 32.0312 22.2148C32.0312 22.1697 32.0189 22.1328 32.0039 22.1328C31.9889 22.1328 31.9766 22.0959 31.9766 22.0508C31.9766 22.0057 31.9643 21.9688 31.9492 21.9688C31.9342 21.9688 31.9219 21.9318 31.9219 21.8867C31.9219 21.8416 31.9096 21.8047 31.8945 21.8047C31.8795 21.8047 31.8672 21.7678 31.8672 21.7227C31.8672 21.6775 31.8549 21.6406 31.8398 21.6406C31.8248 21.6406 31.8125 21.6037 31.8125 21.5586C31.8125 21.5135 31.8002 21.4766 31.7852 21.4766C31.7701 21.4766 31.7578 21.4396 31.7578 21.3945C31.7578 21.3494 31.7455 21.3125 31.7305 21.3125C31.7154 21.3125 31.7031 21.2756 31.7031 21.2305C31.7031 21.1854 31.6908 21.1484 31.6758 21.1484C31.6607 21.1484 31.6484 21.1115 31.6484 21.0664C31.6484 21.0213 31.6361 20.9844 31.6211 20.9844C31.6061 20.9844 31.5938 20.9475 31.5938 20.9023C31.5938 20.8572 31.5814 20.8203 31.5664 20.8203C31.5514 20.8203 31.5391 20.7834 31.5391 20.7383C31.5391 20.6932 31.5268 20.6562 31.5117 20.6562C31.4967 20.6562 31.4844 20.6193 31.4844 20.5742C31.4844 20.5291 31.4721 20.4922 31.457 20.4922C31.442 20.4922 31.4297 20.4553 31.4297 20.4102C31.4297 20.365 31.4174 20.3281 31.4023 20.3281C31.3873 20.3281 31.375 20.2912 31.375 20.2461C31.375 20.201 31.3627 20.1641 31.3477 20.1641C31.3326 20.1641 31.3203 20.1271 31.3203 20.082C31.3203 20.0369 31.308 20 31.293 20C31.2779 20 31.2656 19.9631 31.2656 19.918C31.2656 19.8729 31.2533 19.8359 31.2383 19.8359C31.2232 19.8359 31.2109 19.799 31.2109 19.7539C31.2109 19.7088 31.1986 19.6719 31.1836 19.6719C31.1686 19.6719 31.1562 19.635 31.1562 19.5898C31.1562 19.5447 31.1439 19.5078 31.1289 19.5078C31.1139 19.5078 31.1016 19.4709 31.1016 19.4258C31.1016 19.3807 31.0893 19.3438 31.0742 19.3438C31.0592 19.3438 31.0469 19.3068 31.0469 19.2617C31.0469 19.2166 31.0346 19.1797 31.0195 19.1797C31.0045 19.1797 30.9922 19.1551 30.9922 19.125C30.9922 19.0949 30.9799 19.0703 30.9648 19.0703C30.9498 19.0703 30.9375 19.0457 30.9375 19.0156C30.9375 18.9855 30.9252 18.9609 30.9102 18.9609C30.8951 18.9609 30.8828 18.9363 30.8828 18.9062C30.8828 18.8762 30.8705 18.8516 30.8555 18.8516C30.8404 18.8516 30.8281 18.8297 30.8281 18.8029C30.8281 18.7761 30.8035 18.7365 30.7734 18.7148C30.7434 18.6932 30.7188 18.6587 30.7188 18.6383C30.7188 18.6179 30.6695 18.5539 30.6094 18.4961C30.5492 18.4383 30.5 18.3716 30.5 18.3478C30.5 18.3241 30.4807 18.3047 30.4572 18.3047C30.4337 18.3047 30.3545 18.2432 30.2812 18.168C30.208 18.0928 30.1315 18.0312 30.1113 18.0312C30.0911 18.0312 30.0568 18.0066 30.0352 17.9766C30.0135 17.9465 29.9739 17.9219 29.9471 17.9219C29.9203 17.9219 29.8984 17.9096 29.8984 17.8945C29.8984 17.8795 29.8738 17.8672 29.8438 17.8672C29.8137 17.8672 29.7891 17.8549 29.7891 17.8398C29.7891 17.8248 29.7645 17.8125 29.7344 17.8125C29.7043 17.8125 29.6797 17.8002 29.6797 17.7852C29.6797 17.7701 29.6428 17.7578 29.5977 17.7578C29.5525 17.7578 29.5156 17.7455 29.5156 17.7305C29.5156 17.7154 29.4787 17.7031 29.4336 17.7031C29.3885 17.7031 29.3516 17.6908 29.3516 17.6758C29.3516 17.6607 29.29 17.6484 29.2148 17.6484C29.1396 17.6484 29.0781 17.6361 29.0781 17.6211C29.0781 17.603 27.957 17.5938 25.7695 17.5938H22.4609V15.3789C22.4609 13.9206 22.4516 13.1641 22.4336 13.1641C22.4186 13.1641 22.4062 13.1395 22.4062 13.1094C22.4062 13.0793 22.3939 13.0547 22.3789 13.0547C22.3639 13.0547 22.3516 13.0301 22.3516 13C22.3516 12.9699 22.3393 12.9453 22.3242 12.9453C22.3092 12.9453 22.2969 12.9263 22.2969 12.9031C22.2969 12.8514 22.1763 12.7266 22.1264 12.7266C22.1065 12.7266 22.0725 12.702 22.0508 12.6719C22.0276 12.6398 21.98 12.6172 21.9354 12.6172C21.8936 12.6172 21.8594 12.6049 21.8594 12.5898C21.8594 12.5746 21.7864 12.5625 21.6953 12.5625C21.6042 12.5625 21.5312 12.5504 21.5312 12.5352C21.5312 12.52 21.4583 12.5078 21.3672 12.5078C21.2761 12.5078 21.2031 12.4957 21.2031 12.4805C21.2031 12.4653 21.1302 12.4531 21.0391 12.4531C20.9479 12.4531 20.875 12.441 20.875 12.4258C20.875 12.4106 20.8021 12.3984 20.7109 12.3984C20.6198 12.3984 20.5469 12.3863 20.5469 12.3711C20.5469 12.3559 20.4739 12.3438 20.3828 12.3438C20.2917 12.3438 20.2188 12.3316 20.2188 12.3164C20.2188 12.3012 20.1458 12.2891 20.0547 12.2891C19.9636 12.2891 19.8906 12.2769 19.8906 12.2617C19.8906 12.2465 19.8177 12.2344 19.7266 12.2344C19.6354 12.2344 19.5625 12.2222 19.5625 12.207C19.5625 12.1918 19.4896 12.1797 19.3984 12.1797C19.3073 12.1797 19.2344 12.1675 19.2344 12.1523C19.2344 12.1371 19.1614 12.125 19.0703 12.125C18.9792 12.125 18.9062 12.1129 18.9062 12.0977C18.9062 12.0825 18.8333 12.0703 18.7422 12.0703C18.6511 12.0703 18.5781 12.0582 18.5781 12.043C18.5781 12.0278 18.5052 12.0156 18.4141 12.0156C18.3229 12.0156 18.25 12.0035 18.25 11.9883C18.25 11.9731 18.1771 11.9609 18.0859 11.9609C17.9948 11.9609 17.9219 11.9488 17.9219 11.9336C17.9219 11.9184 17.8489 11.9062 17.7578 11.9062C17.6667 11.9062 17.5938 11.8941 17.5938 11.8789C17.5938 11.8637 17.5208 11.8516 17.4297 11.8516C17.3386 11.8516 17.2656 11.8394 17.2656 11.8242C17.2656 11.809 17.1927 11.7969 17.1016 11.7969C17.0104 11.7969 16.9375 11.7847 16.9375 11.7695C16.9375 11.7543 16.8646 11.7422 16.7734 11.7422C16.6823 11.7422 16.6094 11.73 16.6094 11.7148C16.6094 11.6996 16.5364 11.6875 16.4453 11.6875C16.3542 11.6875 16.2812 11.6754 16.2812 11.6602C16.2812 11.645 16.2083 11.6328 16.1172 11.6328C16.0261 11.6328 15.9531 11.6207 15.9531 11.6055C15.9531 11.5903 15.8802 11.5781 15.7891 11.5781C15.6979 11.5781 15.625 11.566 15.625 11.5508C15.625 11.5356 15.5521 11.5234 15.4609 11.5234C15.3698 11.5234 15.2969 11.5113 15.2969 11.4961C15.2969 11.4809 15.2239 11.4688 15.1328 11.4688C15.0417 11.4688 14.9688 11.4566 14.9688 11.4414C14.9688 11.4262 14.8958 11.4141 14.8047 11.4141C14.7136 11.4141 14.6406 11.4019 14.6406 11.3867C14.6406 11.3715 14.5677 11.3594 14.4766 11.3594C14.3854 11.3594 14.3125 11.3472 14.3125 11.332C14.3125 11.3168 14.2396 11.3047 14.1484 11.3047C14.0573 11.3047 13.9844 11.2925 13.9844 11.2773C13.9844 11.2621 13.9114 11.25 13.8203 11.25C13.7292 11.25 13.6562 11.2379 13.6562 11.2227C13.6562 11.2075 13.5833 11.1953 13.4922 11.1953C13.4011 11.1953 13.3281 11.1832 13.3281 11.168C13.3281 11.1528 13.2552 11.1406 13.1641 11.1406C13.0729 11.1406 13 11.1285 13 11.1133C13 11.0978 12.9219 11.0859 12.8203 11.0859C12.7011 11.0859 12.6275 11.0728 12.6016 11.0469C12.5684 11.0137 12.5625 10.6776 12.5625 8.80468C12.5625 7.35417 12.5531 6.60156 12.5352 6.60156C12.5201 6.60156 12.5078 6.57695 12.5078 6.54688C12.5078 6.5168 12.4955 6.49219 12.4805 6.49219C12.4654 6.49219 12.4531 6.46758 12.4531 6.4375C12.4531 6.40742 12.4408 6.38281 12.4258 6.38281C12.4107 6.38281 12.3984 6.36381 12.3984 6.34057C12.3984 6.28585 12.2766 6.16406 12.2219 6.16406C12.1987 6.16406 12.1797 6.15176 12.1797 6.13672C12.1797 6.12168 12.1551 6.10938 12.125 6.10938C12.0949 6.10938 12.0703 6.09707 12.0703 6.08203C12.0703 6.06699 12.0457 6.05469 12.0156 6.05469C11.9855 6.05469 11.9609 6.04238 11.9609 6.02734C11.9609 6.0093 11.0495 6 9.28125 6C7.51301 6 6.60156 6.0093 6.60156 6.02734ZM10.9219 8.46094V9.28125H9.28125H7.64062V8.46094V7.64062H9.28125H10.9219V8.46094ZM10.9219 11.4414C10.9219 11.7695 10.9319 11.9609 10.9492 11.9609C10.9643 11.9609 10.9766 11.9855 10.9766 12.0156C10.9766 12.0457 10.9889 12.0703 11.0039 12.0703C11.0189 12.0703 11.0312 12.0949 11.0312 12.125C11.0312 12.1551 11.0436 12.1797 11.0586 12.1797C11.0736 12.1797 11.0859 12.1987 11.0859 12.2219C11.0859 12.2766 11.2077 12.3984 11.2624 12.3984C11.2857 12.3984 11.3047 12.4107 11.3047 12.4258C11.3047 12.4408 11.3293 12.4531 11.3594 12.4531C11.3895 12.4531 11.4141 12.4654 11.4141 12.4805C11.4141 12.4955 11.4387 12.5078 11.4688 12.5078C11.4988 12.5078 11.5234 12.5201 11.5234 12.5352C11.5234 12.5504 11.5964 12.5625 11.6875 12.5625C11.7786 12.5625 11.8516 12.5746 11.8516 12.5898C11.8516 12.605 11.9245 12.6172 12.0156 12.6172C12.1068 12.6172 12.1797 12.6293 12.1797 12.6445C12.1797 12.6597 12.2526 12.6719 12.3438 12.6719C12.4349 12.6719 12.5078 12.684 12.5078 12.6992C12.5078 12.7144 12.5807 12.7266 12.6719 12.7266C12.763 12.7266 12.8359 12.7387 12.8359 12.7539C12.8359 12.7691 12.9089 12.7812 13 12.7812C13.0911 12.7812 13.1641 12.7934 13.1641 12.8086C13.1641 12.8238 13.237 12.8359 13.3281 12.8359C13.4193 12.8359 13.4922 12.8481 13.4922 12.8633C13.4922 12.8785 13.5651 12.8906 13.6562 12.8906C13.7474 12.8906 13.8203 12.9028 13.8203 12.918C13.8203 12.9332 13.8932 12.9453 13.9844 12.9453C14.0755 12.9453 14.1484 12.9575 14.1484 12.9727C14.1484 12.9879 14.2214 13 14.3125 13C14.4036 13 14.4766 13.0121 14.4766 13.0273C14.4766 13.0425 14.5495 13.0547 14.6406 13.0547C14.7318 13.0547 14.8047 13.0668 14.8047 13.082C14.8047 13.0972 14.8776 13.1094 14.9688 13.1094C15.0599 13.1094 15.1328 13.1215 15.1328 13.1367C15.1328 13.1519 15.2057 13.1641 15.2969 13.1641C15.388 13.1641 15.4609 13.1762 15.4609 13.1914C15.4609 13.2066 15.5339 13.2188 15.625 13.2188C15.7161 13.2188 15.7891 13.2309 15.7891 13.2461C15.7891 13.2613 15.862 13.2734 15.9531 13.2734C16.0443 13.2734 16.1172 13.2856 16.1172 13.3008C16.1172 13.316 16.1901 13.3281 16.2812 13.3281C16.3724 13.3281 16.4453 13.3403 16.4453 13.3555C16.4453 13.3707 16.5182 13.3828 16.6094 13.3828C16.7005 13.3828 16.7734 13.395 16.7734 13.4102C16.7734 13.4254 16.8464 13.4375 16.9375 13.4375C17.0286 13.4375 17.1016 13.4496 17.1016 13.4648C17.1016 13.48 17.1745 13.4922 17.2656 13.4922C17.3568 13.4922 17.4297 13.5043 17.4297 13.5195C17.4297 13.5347 17.5026 13.5469 17.5938 13.5469C17.6849 13.5469 17.7578 13.559 17.7578 13.5742C17.7578 13.5898 17.8398 13.6016 17.9492 13.6016C18.0586 13.6016 18.1406 13.6133 18.1406 13.6289C18.1406 13.6441 18.2136 13.6562 18.3047 13.6562C18.3958 13.6562 18.4688 13.6684 18.4688 13.6836C18.4688 13.6988 18.5417 13.7109 18.6328 13.7109C18.7239 13.7109 18.7969 13.7231 18.7969 13.7383C18.7969 13.7535 18.8698 13.7656 18.9609 13.7656C19.0521 13.7656 19.125 13.7778 19.125 13.793C19.125 13.8082 19.1979 13.8203 19.2891 13.8203C19.3802 13.8203 19.4531 13.8325 19.4531 13.8477C19.4531 13.8629 19.5261 13.875 19.6172 13.875C19.7083 13.875 19.7812 13.8871 19.7812 13.9023C19.7812 13.9175 19.8542 13.9297 19.9453 13.9297C20.0364 13.9297 20.1094 13.9418 20.1094 13.957C20.1094 13.9722 20.1823 13.9844 20.2734 13.9844C20.3646 13.9844 20.4375 13.9965 20.4375 14.0117C20.4375 14.0268 20.5061 14.0391 20.5898 14.0391C20.6854 14.0391 20.7567 14.0536 20.7812 14.0781C20.8143 14.1112 20.8203 14.3854 20.8203 15.8555V17.5938H20H19.1797V16.7188C19.1797 16.1536 19.17 15.8438 19.1523 15.8438C19.1373 15.8438 19.125 15.8191 19.125 15.7891C19.125 15.759 19.1127 15.7344 19.0977 15.7344C19.0826 15.7344 19.0703 15.7156 19.0703 15.6928C19.0703 15.6386 18.7833 15.3516 18.7291 15.3516C18.7062 15.3516 18.6875 15.3393 18.6875 15.3242C18.6875 15.3092 18.6506 15.2969 18.6055 15.2969C18.5604 15.2969 18.5234 15.2846 18.5234 15.2695C18.5234 15.2543 18.4505 15.2422 18.3594 15.2422C18.2682 15.2422 18.1953 15.23 18.1953 15.2148C18.1953 15.1996 18.1224 15.1875 18.0312 15.1875C17.9401 15.1875 17.8672 15.1754 17.8672 15.1602C17.8672 15.145 17.7943 15.1328 17.7031 15.1328C17.612 15.1328 17.5391 15.1207 17.5391 15.1055C17.5391 15.0899 17.457 15.0781 17.3477 15.0781C17.2383 15.0781 17.1562 15.0664 17.1562 15.0508C17.1562 15.0356 17.0833 15.0234 16.9922 15.0234C16.9011 15.0234 16.8281 15.0113 16.8281 14.9961C16.8281 14.9809 16.7552 14.9688 16.6641 14.9688C16.5729 14.9688 16.5 14.9566 16.5 14.9414C16.5 14.9258 16.418 14.9141 16.3086 14.9141C16.1992 14.9141 16.1172 14.9023 16.1172 14.8867C16.1172 14.8715 16.0443 14.8594 15.9531 14.8594C15.862 14.8594 15.7891 14.8472 15.7891 14.832C15.7891 14.8168 15.7161 14.8047 15.625 14.8047C15.5339 14.8047 15.4609 14.7925 15.4609 14.7773C15.4609 14.7617 15.3789 14.75 15.2695 14.75C15.1602 14.75 15.0781 14.7383 15.0781 14.7227C15.0781 14.7075 15.0052 14.6953 14.9141 14.6953C14.8229 14.6953 14.75 14.6832 14.75 14.668C14.75 14.6528 14.6771 14.6406 14.5859 14.6406C14.4948 14.6406 14.4219 14.6285 14.4219 14.6133C14.4219 14.5977 14.3398 14.5859 14.2305 14.5859C14.1211 14.5859 14.0391 14.5742 14.0391 14.5586C14.0391 14.5434 13.9661 14.5312 13.875 14.5312C13.7839 14.5312 13.7109 14.5191 13.7109 14.5039C13.7109 14.4887 13.638 14.4766 13.5469 14.4766C13.4557 14.4766 13.3828 14.4644 13.3828 14.4492C13.3828 14.4336 13.3008 14.4219 13.1914 14.4219C13.082 14.4219 13 14.4101 13 14.3945C13 14.3793 12.9271 14.3672 12.8359 14.3672C12.7448 14.3672 12.6719 14.355 12.6719 14.3398C12.6719 14.3246 12.5989 14.3125 12.5078 14.3125C12.4167 14.3125 12.3438 14.3004 12.3438 14.2852C12.3438 14.27 12.2708 14.2578 12.1797 14.2578C12.0886 14.2578 12.0156 14.2457 12.0156 14.2305C12.0156 14.2149 11.9336 14.2031 11.8242 14.2031C11.7148 14.2031 11.6328 14.1914 11.6328 14.1758C11.6328 14.1606 11.5599 14.1484 11.4688 14.1484C11.3776 14.1484 11.3047 14.1363 11.3047 14.1211C11.3047 14.1059 11.2318 14.0938 11.1406 14.0938C11.0495 14.0938 10.9766 14.0816 10.9766 14.0664C10.9766 14.0508 10.8945 14.0391 10.7852 14.0391C10.6758 14.0391 10.5938 14.0273 10.5938 14.0117C10.5938 13.9965 10.5208 13.9844 10.4297 13.9844C10.3386 13.9844 10.2656 13.9722 10.2656 13.957C10.2656 13.9418 10.1927 13.9297 10.1016 13.9297C10.0104 13.9297 9.9375 13.9418 9.9375 13.957C9.9375 13.9721 9.90059 13.9844 9.85547 13.9844C9.81035 13.9844 9.77344 13.9967 9.77344 14.0117C9.77344 14.0268 9.75471 14.0391 9.73182 14.0391C9.67768 14.0391 9.39062 14.3261 9.39062 14.3803C9.39062 14.4031 9.37832 14.4219 9.36328 14.4219C9.34824 14.4219 9.33594 14.4465 9.33594 14.4766C9.33594 14.5066 9.32363 14.5312 9.30859 14.5312C9.29044 14.5312 9.28125 16.6003 9.28125 20.6836C9.28125 24.7669 9.29044 26.8359 9.30859 26.8359C9.32363 26.8359 9.33594 26.8605 9.33594 26.8906C9.33594 26.9207 9.34824 26.9453 9.36328 26.9453C9.37832 26.9453 9.39062 26.9699 9.39062 27C9.39062 27.0301 9.40293 27.0547 9.41797 27.0547C9.43301 27.0547 9.44531 27.0737 9.44531 27.0969C9.44531 27.1516 9.5671 27.2734 9.62182 27.2734C9.64506 27.2734 9.66406 27.2857 9.66406 27.3008C9.66406 27.3158 9.68867 27.3281 9.71875 27.3281C9.74883 27.3281 9.77344 27.3404 9.77344 27.3555C9.77344 27.3705 9.79805 27.3828 9.82812 27.3828C9.8582 27.3828 9.88281 27.3951 9.88281 27.4102C9.88281 27.428 10.3568 27.4375 11.25 27.4375H12.6172V28.0117C12.6172 28.3763 12.6272 28.5859 12.6445 28.5859C12.6596 28.5859 12.6719 28.6475 12.6719 28.7227C12.6719 28.7979 12.6842 28.8594 12.6992 28.8594C12.7143 28.8594 12.7266 28.9086 12.7266 28.9688V29.0781H10.1836H7.64062V20V10.9219H9.28125H10.9219V11.4414ZM11.1953 15.7617C11.1953 15.7769 11.2682 15.7891 11.3594 15.7891C11.4505 15.7891 11.5234 15.8012 11.5234 15.8164C11.5234 15.8316 11.5964 15.8438 11.6875 15.8438C11.7786 15.8438 11.8516 15.8559 11.8516 15.8711C11.8516 15.8867 11.9336 15.8984 12.043 15.8984C12.1523 15.8984 12.2344 15.9102 12.2344 15.9258C12.2344 15.941 12.3073 15.9531 12.3984 15.9531C12.4896 15.9531 12.5625 15.9653 12.5625 15.9805C12.5625 15.9957 12.6354 16.0078 12.7266 16.0078C12.8177 16.0078 12.8906 16.02 12.8906 16.0352C12.8906 16.0504 12.9636 16.0625 13.0547 16.0625C13.1458 16.0625 13.2188 16.0746 13.2188 16.0898C13.2188 16.1055 13.3008 16.1172 13.4102 16.1172C13.5195 16.1172 13.6016 16.1289 13.6016 16.1445C13.6016 16.1597 13.6745 16.1719 13.7656 16.1719C13.8568 16.1719 13.9297 16.184 13.9297 16.1992C13.9297 16.2144 14.0026 16.2266 14.0938 16.2266C14.1849 16.2266 14.2578 16.2387 14.2578 16.2539C14.2578 16.2695 14.3398 16.2812 14.4492 16.2812C14.5586 16.2812 14.6406 16.293 14.6406 16.3086C14.6406 16.3238 14.7136 16.3359 14.8047 16.3359C14.8958 16.3359 14.9688 16.3481 14.9688 16.3633C14.9688 16.3785 15.0417 16.3906 15.1328 16.3906C15.2239 16.3906 15.2969 16.4028 15.2969 16.418C15.2969 16.4336 15.3789 16.4453 15.4883 16.4453C15.5977 16.4453 15.6797 16.457 15.6797 16.4727C15.6797 16.4879 15.7526 16.5 15.8438 16.5C15.9349 16.5 16.0078 16.5121 16.0078 16.5273C16.0078 16.5425 16.0807 16.5547 16.1719 16.5547C16.263 16.5547 16.3359 16.5668 16.3359 16.582C16.3359 16.5972 16.4089 16.6094 16.5 16.6094C16.5911 16.6094 16.6641 16.6215 16.6641 16.6367C16.6641 16.6523 16.7461 16.6641 16.8555 16.6641C16.9648 16.6641 17.0469 16.6758 17.0469 16.6914C17.0469 16.7066 17.1198 16.7188 17.2109 16.7188C17.3021 16.7188 17.375 16.7309 17.375 16.7461C17.375 16.7611 17.4119 16.7734 17.457 16.7734H17.5391V17.2109V17.6484H17.4023C17.3271 17.6484 17.2656 17.6607 17.2656 17.6758C17.2656 17.6908 17.2287 17.7031 17.1836 17.7031C17.1385 17.7031 17.1016 17.7154 17.1016 17.7305C17.1016 17.7455 17.0646 17.7578 17.0195 17.7578C16.9744 17.7578 16.9375 17.7701 16.9375 17.7852C16.9375 17.8002 16.9129 17.8125 16.8828 17.8125C16.8527 17.8125 16.8281 17.8248 16.8281 17.8398C16.8281 17.8549 16.8035 17.8672 16.7734 17.8672C16.7434 17.8672 16.7188 17.8795 16.7188 17.8945C16.7188 17.9096 16.6968 17.9219 16.6701 17.9219C16.6433 17.9219 16.6037 17.9465 16.582 17.9766C16.5603 18.0066 16.5259 18.0312 16.5055 18.0312C16.4851 18.0312 16.4211 18.0805 16.3633 18.1406C16.3055 18.2008 16.244 18.25 16.2268 18.25C16.1861 18.25 16.1172 18.319 16.1172 18.3596C16.1172 18.3768 16.068 18.4383 16.0078 18.4961C15.9477 18.5539 15.8984 18.6179 15.8984 18.6383C15.8984 18.6587 15.8738 18.6932 15.8438 18.7148C15.8137 18.7365 15.7891 18.7761 15.7891 18.8029C15.7891 18.8297 15.7768 18.8516 15.7617 18.8516C15.7467 18.8516 15.7344 18.8762 15.7344 18.9062C15.7344 18.9363 15.7221 18.9609 15.707 18.9609C15.692 18.9609 15.6797 18.9855 15.6797 19.0156C15.6797 19.0457 15.6674 19.0703 15.6523 19.0703C15.6373 19.0703 15.625 19.0949 15.625 19.125C15.625 19.1551 15.6127 19.1797 15.5977 19.1797C15.5826 19.1797 15.5703 19.2166 15.5703 19.2617C15.5703 19.3068 15.558 19.3438 15.543 19.3438C15.5279 19.3438 15.5156 19.3807 15.5156 19.4258C15.5156 19.4709 15.5033 19.5078 15.4883 19.5078C15.4732 19.5078 15.4609 19.5447 15.4609 19.5898C15.4609 19.635 15.4486 19.6719 15.4336 19.6719C15.4186 19.6719 15.4062 19.7088 15.4062 19.7539C15.4062 19.799 15.3939 19.8359 15.3789 19.8359C15.3639 19.8359 15.3516 19.8729 15.3516 19.918C15.3516 19.9631 15.3393 20 15.3242 20C15.3092 20 15.2969 20.0369 15.2969 20.082C15.2969 20.1271 15.2846 20.1641 15.2695 20.1641C15.2545 20.1641 15.2422 20.201 15.2422 20.2461C15.2422 20.2912 15.2299 20.3281 15.2148 20.3281C15.1998 20.3281 15.1875 20.365 15.1875 20.4102C15.1875 20.4553 15.1752 20.4922 15.1602 20.4922C15.1451 20.4922 15.1328 20.5291 15.1328 20.5742C15.1328 20.6193 15.1205 20.6562 15.1055 20.6562C15.0904 20.6562 15.0781 20.6932 15.0781 20.7383C15.0781 20.7834 15.0658 20.8203 15.0508 20.8203C15.0357 20.8203 15.0234 20.8572 15.0234 20.9023C15.0234 20.9475 15.0111 20.9844 14.9961 20.9844C14.9811 20.9844 14.9688 21.0213 14.9688 21.0664C14.9688 21.1115 14.9564 21.1484 14.9414 21.1484C14.9264 21.1484 14.9141 21.1854 14.9141 21.2305C14.9141 21.2756 14.9018 21.3125 14.8867 21.3125C14.8717 21.3125 14.8594 21.3494 14.8594 21.3945C14.8594 21.4396 14.8471 21.4766 14.832 21.4766C14.817 21.4766 14.8047 21.5135 14.8047 21.5586C14.8047 21.6037 14.7924 21.6406 14.7773 21.6406C14.7623 21.6406 14.75 21.6775 14.75 21.7227C14.75 21.7678 14.7377 21.8047 14.7227 21.8047C14.7076 21.8047 14.6953 21.8416 14.6953 21.8867C14.6953 21.9318 14.683 21.9688 14.668 21.9688C14.6529 21.9688 14.6406 22.0057 14.6406 22.0508C14.6406 22.0959 14.6283 22.1328 14.6133 22.1328C14.5982 22.1328 14.5859 22.1697 14.5859 22.2148C14.5859 22.26 14.5736 22.2969 14.5586 22.2969C14.5436 22.2969 14.5312 22.3338 14.5312 22.3789C14.5312 22.424 14.5189 22.4609 14.5039 22.4609C14.4889 22.4609 14.4766 22.4979 14.4766 22.543C14.4766 22.5881 14.4643 22.625 14.4492 22.625C14.4342 22.625 14.4219 22.6619 14.4219 22.707C14.4219 22.7521 14.4096 22.7891 14.3945 22.7891C14.3795 22.7891 14.3672 22.8077 14.3672 22.8304C14.3672 22.8532 14.0104 23.2283 13.5742 23.6641C13.1381 24.0998 12.7812 24.4749 12.7812 24.4977C12.7812 24.5204 12.7689 24.5391 12.7539 24.5391C12.7389 24.5391 12.7266 24.5637 12.7266 24.5938C12.7266 24.6238 12.7143 24.6484 12.6992 24.6484C12.6842 24.6484 12.6719 24.673 12.6719 24.7031C12.6719 24.7332 12.6596 24.7578 12.6445 24.7578C12.6273 24.7578 12.6172 24.9492 12.6172 25.2773V25.7969H11.7695H10.9219V20.7656V15.7344H11.0586C11.1338 15.7344 11.1953 15.7467 11.1953 15.7617ZM28.9141 19.2617C28.9141 19.2768 28.951 19.2891 28.9961 19.2891C29.0412 19.2891 29.0781 19.3014 29.0781 19.3164C29.0781 19.3314 29.0969 19.3438 29.1199 19.3438C29.1741 19.3438 29.4062 19.5759 29.4062 19.6301C29.4062 19.6531 29.4186 19.6719 29.4336 19.6719C29.4486 19.6719 29.4609 19.6965 29.4609 19.7266C29.4609 19.7566 29.4732 19.7812 29.4883 19.7812C29.5033 19.7812 29.5156 19.8182 29.5156 19.8633C29.5156 19.9084 29.5279 19.9453 29.543 19.9453C29.558 19.9453 29.5703 19.9822 29.5703 20.0273C29.5703 20.0725 29.5826 20.1094 29.5977 20.1094C29.6127 20.1094 29.625 20.1463 29.625 20.1914C29.625 20.2365 29.6373 20.2734 29.6523 20.2734C29.6674 20.2734 29.6797 20.3104 29.6797 20.3555C29.6797 20.4006 29.692 20.4375 29.707 20.4375C29.7221 20.4375 29.7344 20.4744 29.7344 20.5195C29.7344 20.5646 29.7467 20.6016 29.7617 20.6016C29.7768 20.6016 29.7891 20.6385 29.7891 20.6836C29.7891 20.7287 29.8014 20.7656 29.8164 20.7656C29.8314 20.7656 29.8438 20.8025 29.8438 20.8477C29.8438 20.8928 29.8561 20.9297 29.8711 20.9297C29.8861 20.9297 29.8984 20.9666 29.8984 21.0117C29.8984 21.0568 29.9107 21.0938 29.9258 21.0938C29.9408 21.0938 29.9531 21.1307 29.9531 21.1758C29.9531 21.2209 29.9654 21.2578 29.9805 21.2578C29.9955 21.2578 30.0078 21.2947 30.0078 21.3398C30.0078 21.385 30.0201 21.4219 30.0352 21.4219C30.0502 21.4219 30.0625 21.4588 30.0625 21.5039C30.0625 21.549 30.0748 21.5859 30.0898 21.5859C30.1049 21.5859 30.1172 21.6229 30.1172 21.668C30.1172 21.7131 30.1295 21.75 30.1445 21.75C30.1596 21.75 30.1719 21.7869 30.1719 21.832C30.1719 21.8771 30.1842 21.9141 30.1992 21.9141C30.2143 21.9141 30.2266 21.951 30.2266 21.9961C30.2266 22.0412 30.2389 22.0781 30.2539 22.0781C30.2689 22.0781 30.2812 22.115 30.2812 22.1602C30.2812 22.2053 30.2936 22.2422 30.3086 22.2422C30.3236 22.2422 30.3359 22.2791 30.3359 22.3242C30.3359 22.3693 30.3482 22.4062 30.3633 22.4062C30.3783 22.4062 30.3906 22.4309 30.3906 22.4609C30.3906 22.5128 30.3724 22.5156 30.0352 22.5156C29.8164 22.5156 29.6797 22.5262 29.6797 22.543C29.6797 22.558 29.6428 22.5703 29.5977 22.5703C29.5525 22.5703 29.5156 22.5826 29.5156 22.5977C29.5156 22.6127 29.491 22.625 29.4609 22.625C29.4309 22.625 29.4062 22.6373 29.4062 22.6523C29.4062 22.6674 29.3816 22.6797 29.3516 22.6797C29.3215 22.6797 29.2969 22.692 29.2969 22.707C29.2969 22.7221 29.2723 22.7344 29.2422 22.7344C29.2121 22.7344 29.1875 22.7467 29.1875 22.7617C29.1875 22.7768 29.1629 22.7891 29.1328 22.7891C29.1027 22.7891 29.0781 22.8014 29.0781 22.8164C29.0781 22.8314 29.0535 22.8438 29.0234 22.8438C28.9934 22.8438 28.9688 22.8561 28.9688 22.8711C28.9688 22.8861 28.9441 22.8984 28.9141 22.8984C28.884 22.8984 28.8594 22.9107 28.8594 22.9258C28.8594 22.9408 28.8348 22.9531 28.8047 22.9531C28.7746 22.9531 28.75 22.9654 28.75 22.9805C28.75 22.9955 28.7254 23.0078 28.6953 23.0078C28.6652 23.0078 28.6406 23.0201 28.6406 23.0352C28.6406 23.0502 28.616 23.0625 28.5859 23.0625C28.5559 23.0625 28.5312 23.0748 28.5312 23.0898C28.5312 23.1049 28.5066 23.1172 28.4766 23.1172C28.4465 23.1172 28.4219 23.1295 28.4219 23.1445C28.4219 23.1596 28.3973 23.1719 28.3672 23.1719C28.3371 23.1719 28.3125 23.1842 28.3125 23.1992C28.3125 23.2143 28.2879 23.2266 28.2578 23.2266C28.2277 23.2266 28.2031 23.2389 28.2031 23.2539C28.2031 23.2689 28.1785 23.2812 28.1484 23.2812C28.1184 23.2812 28.0938 23.2936 28.0938 23.3086C28.0938 23.3236 28.0691 23.3359 28.0391 23.3359C28.009 23.3359 27.9844 23.3482 27.9844 23.3633C27.9844 23.3783 27.9598 23.3906 27.9297 23.3906C27.8996 23.3906 27.875 23.4029 27.875 23.418C27.875 23.433 27.8504 23.4453 27.8203 23.4453C27.7902 23.4453 27.7656 23.4576 27.7656 23.4727C27.7656 23.4877 27.741 23.5 27.7109 23.5C27.6809 23.5 27.6562 23.5123 27.6562 23.5273C27.6562 23.5424 27.6316 23.5547 27.6016 23.5547C27.5715 23.5547 27.5469 23.567 27.5469 23.582C27.5469 23.5971 27.5223 23.6094 27.4922 23.6094C27.4621 23.6094 27.4375 23.6217 27.4375 23.6367C27.4375 23.6518 27.4129 23.6641 27.3828 23.6641C27.3527 23.6641 27.3281 23.6764 27.3281 23.6914C27.3281 23.7064 27.3035 23.7188 27.2734 23.7188C27.2434 23.7188 27.2188 23.7311 27.2188 23.7461C27.2188 23.7611 27.1941 23.7734 27.1641 23.7734C27.134 23.7734 27.1094 23.7857 27.1094 23.8008C27.1094 23.8158 27.0848 23.8281 27.0547 23.8281C27.0246 23.8281 27 23.8404 27 23.8555C27 23.8705 26.9754 23.8828 26.9453 23.8828C26.9152 23.8828 26.8906 23.8951 26.8906 23.9102C26.8906 23.9252 26.866 23.9375 26.8359 23.9375C26.8059 23.9375 26.7812 23.9498 26.7812 23.9648C26.7812 23.9799 26.7566 23.9922 26.7266 23.9922C26.6965 23.9922 26.6719 24.0045 26.6719 24.0195C26.6719 24.0346 26.6473 24.0469 26.6172 24.0469C26.5871 24.0469 26.5625 24.0592 26.5625 24.0742C26.5625 24.0893 26.5379 24.1016 26.5078 24.1016C26.4777 24.1016 26.4531 24.1139 26.4531 24.1289C26.4531 24.147 25.3867 24.1562 23.3086 24.1562C21.2305 24.1562 20.1641 24.147 20.1641 24.1289C20.1641 24.1139 20.1395 24.1016 20.1094 24.1016C20.0793 24.1016 20.0547 24.0893 20.0547 24.0742C20.0547 24.0592 20.0301 24.0469 20 24.0469C19.9699 24.0469 19.9453 24.0346 19.9453 24.0195C19.9453 24.0045 19.9207 23.9922 19.8906 23.9922C19.8605 23.9922 19.8359 23.9799 19.8359 23.9648C19.8359 23.9498 19.8113 23.9375 19.7812 23.9375C19.7512 23.9375 19.7266 23.9252 19.7266 23.9102C19.7266 23.8951 19.702 23.8828 19.6719 23.8828C19.6418 23.8828 19.6172 23.8705 19.6172 23.8555C19.6172 23.8404 19.5926 23.8281 19.5625 23.8281C19.5324 23.8281 19.5078 23.8158 19.5078 23.8008C19.5078 23.7857 19.4832 23.7734 19.4531 23.7734C19.423 23.7734 19.3984 23.7611 19.3984 23.7461C19.3984 23.7311 19.3738 23.7188 19.3438 23.7188C19.3137 23.7188 19.2891 23.7064 19.2891 23.6914C19.2891 23.6764 19.2645 23.6641 19.2344 23.6641C19.2043 23.6641 19.1797 23.6518 19.1797 23.6367C19.1797 23.6217 19.1551 23.6094 19.125 23.6094C19.0949 23.6094 19.0703 23.5971 19.0703 23.582C19.0703 23.567 19.0457 23.5547 19.0156 23.5547C18.9855 23.5547 18.9609 23.5424 18.9609 23.5273C18.9609 23.5123 18.9363 23.5 18.9062 23.5C18.8762 23.5 18.8516 23.4877 18.8516 23.4727C18.8516 23.4576 18.827 23.4453 18.7969 23.4453C18.7668 23.4453 18.7422 23.433 18.7422 23.418C18.7422 23.4029 18.7176 23.3906 18.6875 23.3906C18.6574 23.3906 18.6328 23.3783 18.6328 23.3633C18.6328 23.3482 18.6082 23.3359 18.5781 23.3359C18.548 23.3359 18.5234 23.3236 18.5234 23.3086C18.5234 23.2936 18.4988 23.2812 18.4688 23.2812C18.4387 23.2812 18.4141 23.2689 18.4141 23.2539C18.4141 23.2389 18.3895 23.2266 18.3594 23.2266C18.3293 23.2266 18.3047 23.2143 18.3047 23.1992C18.3047 23.1842 18.2801 23.1719 18.25 23.1719C18.2199 23.1719 18.1953 23.1596 18.1953 23.1445C18.1953 23.1295 18.1707 23.1172 18.1406 23.1172C18.1105 23.1172 18.0859 23.1049 18.0859 23.0898C18.0859 23.0748 18.0613 23.0625 18.0312 23.0625C18.0012 23.0625 17.9766 23.0502 17.9766 23.0352C17.9766 23.0201 17.952 23.0078 17.9219 23.0078C17.8918 23.0078 17.8672 22.9955 17.8672 22.9805C17.8672 22.9654 17.8426 22.9531 17.8125 22.9531C17.7824 22.9531 17.7578 22.9408 17.7578 22.9258C17.7578 22.9107 17.7332 22.8984 17.7031 22.8984C17.673 22.8984 17.6484 22.8861 17.6484 22.8711C17.6484 22.8561 17.6238 22.8438 17.5938 22.8438C17.5637 22.8438 17.5391 22.8314 17.5391 22.8164C17.5391 22.8014 17.5145 22.7891 17.4844 22.7891C17.4543 22.7891 17.4297 22.7768 17.4297 22.7617C17.4297 22.7467 17.4051 22.7344 17.375 22.7344C17.3449 22.7344 17.3203 22.7221 17.3203 22.707C17.3203 22.692 17.2957 22.6797 17.2656 22.6797C17.2355 22.6797 17.2109 22.6674 17.2109 22.6523C17.2109 22.6373 17.1863 22.625 17.1562 22.625C17.1262 22.625 17.1016 22.6127 17.1016 22.5977C17.1016 22.5826 17.0646 22.5703 17.0195 22.5703C16.9744 22.5703 16.9375 22.558 16.9375 22.543C16.9375 22.5262 16.8008 22.5156 16.582 22.5156C16.2448 22.5156 16.2266 22.5128 16.2266 22.4609C16.2266 22.4309 16.2389 22.4062 16.2539 22.4062C16.2689 22.4062 16.2812 22.3693 16.2812 22.3242C16.2812 22.2791 16.2936 22.2422 16.3086 22.2422C16.3236 22.2422 16.3359 22.2053 16.3359 22.1602C16.3359 22.115 16.3482 22.0781 16.3633 22.0781C16.3783 22.0781 16.3906 22.0412 16.3906 21.9961C16.3906 21.951 16.4029 21.9141 16.418 21.9141C16.433 21.9141 16.4453 21.8771 16.4453 21.832C16.4453 21.7869 16.4576 21.75 16.4727 21.75C16.4877 21.75 16.5 21.7131 16.5 21.668C16.5 21.6229 16.5123 21.5859 16.5273 21.5859C16.5424 21.5859 16.5547 21.549 16.5547 21.5039C16.5547 21.4588 16.567 21.4219 16.582 21.4219C16.5971 21.4219 16.6094 21.385 16.6094 21.3398C16.6094 21.2947 16.6217 21.2578 16.6367 21.2578C16.6518 21.2578 16.6641 21.2209 16.6641 21.1758C16.6641 21.1307 16.6764 21.0938 16.6914 21.0938C16.7064 21.0938 16.7188 21.0568 16.7188 21.0117C16.7188 20.9666 16.7311 20.9297 16.7461 20.9297C16.7611 20.9297 16.7734 20.8928 16.7734 20.8477C16.7734 20.8025 16.7857 20.7656 16.8008 20.7656C16.8158 20.7656 16.8281 20.7287 16.8281 20.6836C16.8281 20.6385 16.8404 20.6016 16.8555 20.6016C16.8705 20.6016 16.8828 20.5646 16.8828 20.5195C16.8828 20.4744 16.8951 20.4375 16.9102 20.4375C16.9252 20.4375 16.9375 20.4006 16.9375 20.3555C16.9375 20.3104 16.9498 20.2734 16.9648 20.2734C16.9799 20.2734 16.9922 20.2365 16.9922 20.1914C16.9922 20.1463 17.0045 20.1094 17.0195 20.1094C17.0346 20.1094 17.0469 20.0725 17.0469 20.0273C17.0469 19.9822 17.0592 19.9453 17.0742 19.9453C17.0893 19.9453 17.1016 19.9084 17.1016 19.8633C17.1016 19.8182 17.1139 19.7812 17.1289 19.7812C17.1439 19.7812 17.1562 19.7566 17.1562 19.7266C17.1562 19.6965 17.1686 19.6719 17.1836 19.6719C17.1986 19.6719 17.2109 19.6531 17.2109 19.6301C17.2109 19.5759 17.4431 19.3438 17.4973 19.3438C17.5203 19.3438 17.5391 19.3314 17.5391 19.3164C17.5391 19.3014 17.576 19.2891 17.6211 19.2891C17.6662 19.2891 17.7031 19.2768 17.7031 19.2617C17.7031 19.2436 19.5898 19.2344 23.3086 19.2344C27.0273 19.2344 28.9141 19.2436 28.9141 19.2617ZM16.5547 24.1836C16.5547 24.1986 16.5793 24.2109 16.6094 24.2109C16.6395 24.2109 16.6641 24.2232 16.6641 24.2383C16.6641 24.2533 16.6887 24.2656 16.7188 24.2656C16.7488 24.2656 16.7734 24.2779 16.7734 24.293C16.7734 24.308 16.798 24.3203 16.8281 24.3203C16.8582 24.3203 16.8828 24.3326 16.8828 24.3477C16.8828 24.3627 16.9074 24.375 16.9375 24.375C16.9676 24.375 16.9922 24.3873 16.9922 24.4023C16.9922 24.4174 17.0168 24.4297 17.0469 24.4297C17.077 24.4297 17.1016 24.442 17.1016 24.457C17.1016 24.4721 17.1262 24.4844 17.1562 24.4844C17.1863 24.4844 17.2109 24.4967 17.2109 24.5117C17.2109 24.5268 17.2355 24.5391 17.2656 24.5391C17.2957 24.5391 17.3203 24.5514 17.3203 24.5664C17.3203 24.5814 17.3449 24.5938 17.375 24.5938C17.4051 24.5938 17.4297 24.6061 17.4297 24.6211C17.4297 24.6361 17.4543 24.6484 17.4844 24.6484C17.5145 24.6484 17.5391 24.6607 17.5391 24.6758C17.5391 24.6908 17.5637 24.7031 17.5938 24.7031C17.6238 24.7031 17.6484 24.7154 17.6484 24.7305C17.6484 24.7455 17.673 24.7578 17.7031 24.7578C17.7332 24.7578 17.7578 24.7701 17.7578 24.7852C17.7578 24.8002 17.7824 24.8125 17.8125 24.8125C17.8426 24.8125 17.8672 24.8248 17.8672 24.8398C17.8672 24.8549 17.8918 24.8672 17.9219 24.8672C17.952 24.8672 17.9766 24.8795 17.9766 24.8945C17.9766 24.9096 18.0012 24.9219 18.0312 24.9219C18.0613 24.9219 18.0859 24.9342 18.0859 24.9492C18.0859 24.9643 18.1105 24.9766 18.1406 24.9766C18.1707 24.9766 18.1953 24.9889 18.1953 25.0039C18.1953 25.0189 18.2199 25.0312 18.25 25.0312C18.2801 25.0312 18.3047 25.0436 18.3047 25.0586C18.3047 25.0736 18.3293 25.0859 18.3594 25.0859C18.3895 25.0859 18.4141 25.0982 18.4141 25.1133C18.4141 25.1283 18.4387 25.1406 18.4688 25.1406C18.4988 25.1406 18.5234 25.1529 18.5234 25.168C18.5234 25.183 18.548 25.1953 18.5781 25.1953C18.6082 25.1953 18.6328 25.2076 18.6328 25.2227C18.6328 25.2377 18.6574 25.25 18.6875 25.25C18.7176 25.25 18.7422 25.2623 18.7422 25.2773C18.7422 25.2924 18.7668 25.3047 18.7969 25.3047C18.827 25.3047 18.8516 25.317 18.8516 25.332C18.8516 25.3471 18.8762 25.3594 18.9062 25.3594C18.9363 25.3594 18.9609 25.3717 18.9609 25.3867C18.9609 25.4018 18.9855 25.4141 19.0156 25.4141C19.0457 25.4141 19.0703 25.4264 19.0703 25.4414C19.0703 25.4564 19.0949 25.4688 19.125 25.4688C19.1551 25.4688 19.1797 25.4811 19.1797 25.4961C19.1797 25.5111 19.2043 25.5234 19.2344 25.5234C19.2645 25.5234 19.2891 25.5357 19.2891 25.5508C19.2891 25.5658 19.3137 25.5781 19.3438 25.5781C19.3738 25.5781 19.3984 25.5904 19.3984 25.6055C19.3984 25.6205 19.423 25.6328 19.4531 25.6328C19.4832 25.6328 19.5078 25.6451 19.5078 25.6602C19.5078 25.6752 19.5324 25.6875 19.5625 25.6875C19.5926 25.6875 19.6172 25.6998 19.6172 25.7148C19.6172 25.7299 19.6541 25.7422 19.6992 25.7422C19.7443 25.7422 19.7812 25.7545 19.7812 25.7695C19.7812 25.7876 20.9753 25.7969 23.3086 25.7969C25.6419 25.7969 26.8359 25.7876 26.8359 25.7695C26.8359 25.7545 26.8729 25.7422 26.918 25.7422C26.9631 25.7422 27 25.7299 27 25.7148C27 25.6998 27.0246 25.6875 27.0547 25.6875C27.0848 25.6875 27.1094 25.6752 27.1094 25.6602C27.1094 25.6451 27.134 25.6328 27.1641 25.6328C27.1941 25.6328 27.2188 25.6205 27.2188 25.6055C27.2188 25.5904 27.2434 25.5781 27.2734 25.5781C27.3035 25.5781 27.3281 25.5658 27.3281 25.5508C27.3281 25.5357 27.3527 25.5234 27.3828 25.5234C27.4129 25.5234 27.4375 25.5111 27.4375 25.4961C27.4375 25.4811 27.4621 25.4688 27.4922 25.4688C27.5223 25.4688 27.5469 25.4564 27.5469 25.4414C27.5469 25.4264 27.5715 25.4141 27.6016 25.4141C27.6316 25.4141 27.6562 25.4018 27.6562 25.3867C27.6562 25.3717 27.6809 25.3594 27.7109 25.3594C27.741 25.3594 27.7656 25.3471 27.7656 25.332C27.7656 25.317 27.7902 25.3047 27.8203 25.3047C27.8504 25.3047 27.875 25.2924 27.875 25.2773C27.875 25.2623 27.8996 25.25 27.9297 25.25C27.9598 25.25 27.9844 25.2377 27.9844 25.2227C27.9844 25.2076 28.009 25.1953 28.0391 25.1953C28.0691 25.1953 28.0938 25.183 28.0938 25.168C28.0938 25.1529 28.1184 25.1406 28.1484 25.1406C28.1785 25.1406 28.2031 25.1283 28.2031 25.1133C28.2031 25.0982 28.2277 25.0859 28.2578 25.0859C28.2879 25.0859 28.3125 25.0736 28.3125 25.0586C28.3125 25.0436 28.3371 25.0312 28.3672 25.0312C28.3973 25.0312 28.4219 25.0189 28.4219 25.0039C28.4219 24.9889 28.4465 24.9766 28.4766 24.9766C28.5066 24.9766 28.5312 24.9643 28.5312 24.9492C28.5312 24.9342 28.5559 24.9219 28.5859 24.9219C28.616 24.9219 28.6406 24.9096 28.6406 24.8945C28.6406 24.8795 28.6652 24.8672 28.6953 24.8672C28.7254 24.8672 28.75 24.8549 28.75 24.8398C28.75 24.8248 28.7746 24.8125 28.8047 24.8125C28.8348 24.8125 28.8594 24.8002 28.8594 24.7852C28.8594 24.7701 28.884 24.7578 28.9141 24.7578C28.9441 24.7578 28.9688 24.7455 28.9688 24.7305C28.9688 24.7154 28.9934 24.7031 29.0234 24.7031C29.0535 24.7031 29.0781 24.6908 29.0781 24.6758C29.0781 24.6607 29.1027 24.6484 29.1328 24.6484C29.1629 24.6484 29.1875 24.6361 29.1875 24.6211C29.1875 24.6061 29.2121 24.5938 29.2422 24.5938C29.2723 24.5938 29.2969 24.5814 29.2969 24.5664C29.2969 24.5514 29.3215 24.5391 29.3516 24.5391C29.3816 24.5391 29.4062 24.5268 29.4062 24.5117C29.4062 24.4967 29.4309 24.4844 29.4609 24.4844C29.491 24.4844 29.5156 24.4721 29.5156 24.457C29.5156 24.442 29.5402 24.4297 29.5703 24.4297C29.6004 24.4297 29.625 24.4174 29.625 24.4023C29.625 24.3873 29.6496 24.375 29.6797 24.375C29.7098 24.375 29.7344 24.3627 29.7344 24.3477C29.7344 24.3326 29.759 24.3203 29.7891 24.3203C29.8191 24.3203 29.8438 24.308 29.8438 24.293C29.8438 24.2779 29.8684 24.2656 29.8984 24.2656C29.9285 24.2656 29.9531 24.2533 29.9531 24.2383C29.9531 24.2232 29.9777 24.2109 30.0078 24.2109C30.0379 24.2109 30.0625 24.1986 30.0625 24.1836C30.0625 24.1663 30.2676 24.1562 30.6232 24.1562H31.1839L31.7716 24.744L32.3594 25.3317V25.5643V25.7969H31.0195C30.1445 25.7969 29.6797 25.8064 29.6797 25.8242C29.6797 25.8393 29.6551 25.8516 29.625 25.8516C29.5949 25.8516 29.5703 25.8639 29.5703 25.8789C29.5703 25.8939 29.5457 25.9062 29.5156 25.9062C29.4855 25.9062 29.4609 25.9186 29.4609 25.9336C29.4609 25.9486 29.4419 25.9609 29.4187 25.9609C29.364 25.9609 29.2422 26.0827 29.2422 26.1374C29.2422 26.1607 29.2299 26.1797 29.2148 26.1797C29.1998 26.1797 29.1875 26.2043 29.1875 26.2344C29.1875 26.2645 29.1752 26.2891 29.1602 26.2891C29.1451 26.2891 29.1328 26.3137 29.1328 26.3438C29.1328 26.3738 29.1205 26.3984 29.1055 26.3984C29.0895 26.3984 29.0781 26.4896 29.0781 26.6172C29.0781 26.7448 29.0895 26.8359 29.1055 26.8359C29.1205 26.8359 29.1328 26.8605 29.1328 26.8906C29.1328 26.9207 29.1451 26.9453 29.1602 26.9453C29.1752 26.9453 29.1875 26.9699 29.1875 27C29.1875 27.0301 29.1998 27.0547 29.2148 27.0547C29.2299 27.0547 29.2422 27.0737 29.2422 27.0969C29.2422 27.1516 29.364 27.2734 29.4187 27.2734C29.4419 27.2734 29.4609 27.2857 29.4609 27.3008C29.4609 27.3158 29.4855 27.3281 29.5156 27.3281C29.5457 27.3281 29.5703 27.3404 29.5703 27.3555C29.5703 27.3705 29.5949 27.3828 29.625 27.3828C29.6551 27.3828 29.6797 27.3951 29.6797 27.4102C29.6797 27.428 30.1445 27.4375 31.0195 27.4375H32.3594V27.957C32.3594 28.2852 32.3493 28.4766 32.332 28.4766C32.317 28.4766 32.3047 28.5012 32.3047 28.5312C32.3047 28.5613 32.2924 28.5859 32.2773 28.5859C32.2623 28.5859 32.25 28.6078 32.25 28.6346C32.25 28.6614 32.2254 28.701 32.1953 28.7227C32.1652 28.7443 32.1406 28.7787 32.1406 28.799C32.1406 28.8491 32.0722 28.9141 32.0195 28.9141C31.9959 28.9141 31.9766 28.9264 31.9766 28.9414C31.9766 28.9564 31.952 28.9688 31.9219 28.9688C31.8918 28.9688 31.8672 28.9811 31.8672 28.9961C31.8672 29.0111 31.8426 29.0234 31.8125 29.0234C31.7824 29.0234 31.7578 29.0357 31.7578 29.0508C31.7578 29.0689 30.737 29.0781 28.75 29.0781H25.7422V28.5586C25.7422 28.2305 25.7321 28.0391 25.7148 28.0391C25.6998 28.0391 25.6875 28.0145 25.6875 27.9844C25.6875 27.9543 25.6752 27.9297 25.6602 27.9297C25.6451 27.9297 25.6328 27.9051 25.6328 27.875C25.6328 27.8449 25.6205 27.8203 25.6055 27.8203C25.5904 27.8203 25.5781 27.8013 25.5781 27.7781C25.5781 27.7234 25.4563 27.6016 25.4016 27.6016C25.3784 27.6016 25.3594 27.5893 25.3594 27.5742C25.3594 27.5592 25.3348 27.5469 25.3047 27.5469C25.2746 27.5469 25.25 27.5346 25.25 27.5195C25.25 27.5045 25.2254 27.4922 25.1953 27.4922C25.1652 27.4922 25.1406 27.4799 25.1406 27.4648C25.1406 27.4489 25.0495 27.4375 24.9219 27.4375C24.7943 27.4375 24.7031 27.4489 24.7031 27.4648C24.7031 27.4799 24.6785 27.4922 24.6484 27.4922C24.6184 27.4922 24.5938 27.5045 24.5938 27.5195C24.5938 27.5346 24.5691 27.5469 24.5391 27.5469C24.509 27.5469 24.4844 27.5592 24.4844 27.5742C24.4844 27.5893 24.4654 27.6016 24.4421 27.6016C24.3874 27.6016 24.2656 27.7234 24.2656 27.7781C24.2656 27.8013 24.2533 27.8203 24.2383 27.8203C24.2232 27.8203 24.2109 27.8449 24.2109 27.875C24.2109 27.9051 24.1986 27.9297 24.1836 27.9297C24.1686 27.9297 24.1562 27.9543 24.1562 27.9844C24.1562 28.0145 24.1439 28.0391 24.1289 28.0391C24.1116 28.0391 24.1016 28.2305 24.1016 28.5586V29.0781H23.2812H22.4609V28.5586C22.4609 28.2305 22.4509 28.0391 22.4336 28.0391C22.4186 28.0391 22.4062 28.0145 22.4062 27.9844C22.4062 27.9543 22.3939 27.9297 22.3789 27.9297C22.3639 27.9297 22.3516 27.9051 22.3516 27.875C22.3516 27.8449 22.3393 27.8203 22.3242 27.8203C22.3092 27.8203 22.2969 27.8013 22.2969 27.7781C22.2969 27.7234 22.1751 27.6016 22.1204 27.6016C22.0971 27.6016 22.0781 27.5893 22.0781 27.5742C22.0781 27.5592 22.0535 27.5469 22.0234 27.5469C21.9934 27.5469 21.9688 27.5346 21.9688 27.5195C21.9688 27.5045 21.9441 27.4922 21.9141 27.4922C21.884 27.4922 21.8594 27.4799 21.8594 27.4648C21.8594 27.4489 21.7682 27.4375 21.6406 27.4375C21.513 27.4375 21.4219 27.4489 21.4219 27.4648C21.4219 27.4799 21.3973 27.4922 21.3672 27.4922C21.3371 27.4922 21.3125 27.5045 21.3125 27.5195C21.3125 27.5346 21.2879 27.5469 21.2578 27.5469C21.2277 27.5469 21.2031 27.5592 21.2031 27.5742C21.2031 27.5893 21.1841 27.6016 21.1609 27.6016C21.1062 27.6016 20.9844 27.7234 20.9844 27.7781C20.9844 27.8013 20.9721 27.8203 20.957 27.8203C20.942 27.8203 20.9297 27.8449 20.9297 27.875C20.9297 27.9051 20.9174 27.9297 20.9023 27.9297C20.8873 27.9297 20.875 27.9543 20.875 27.9844C20.875 28.0145 20.8627 28.0391 20.8477 28.0391C20.8304 28.0391 20.8203 28.2305 20.8203 28.5586V29.0781H17.8398C15.8711 29.0781 14.8594 29.0689 14.8594 29.0508C14.8594 29.0357 14.8348 29.0234 14.8047 29.0234C14.7746 29.0234 14.75 29.0111 14.75 28.9961C14.75 28.9811 14.7254 28.9688 14.6953 28.9688C14.6652 28.9688 14.6406 28.9564 14.6406 28.9414C14.6406 28.9264 14.6216 28.9141 14.5984 28.9141C14.5437 28.9141 14.4219 28.7923 14.4219 28.7376C14.4219 28.7143 14.4096 28.6953 14.3945 28.6953C14.3795 28.6953 14.3672 28.6707 14.3672 28.6406C14.3672 28.6105 14.3549 28.5859 14.3398 28.5859C14.3248 28.5859 14.3125 28.5613 14.3125 28.5312C14.3125 28.5012 14.3002 28.4766 14.2852 28.4766C14.2679 28.4766 14.2578 28.2852 14.2578 27.957V27.4375H15.5977C16.4727 27.4375 16.9375 27.428 16.9375 27.4102C16.9375 27.3951 16.9621 27.3828 16.9922 27.3828C17.0223 27.3828 17.0469 27.3705 17.0469 27.3555C17.0469 27.3404 17.0715 27.3281 17.1016 27.3281C17.1316 27.3281 17.1562 27.3158 17.1562 27.3008C17.1562 27.2857 17.1753 27.2734 17.1985 27.2734C17.2532 27.2734 17.375 27.1516 17.375 27.0969C17.375 27.0737 17.3873 27.0547 17.4023 27.0547C17.4174 27.0547 17.4297 27.0301 17.4297 27C17.4297 26.9699 17.442 26.9453 17.457 26.9453C17.4721 26.9453 17.4844 26.9207 17.4844 26.8906C17.4844 26.8605 17.4967 26.8359 17.5117 26.8359C17.5277 26.8359 17.5391 26.7448 17.5391 26.6172C17.5391 26.4896 17.5277 26.3984 17.5117 26.3984C17.4967 26.3984 17.4844 26.3738 17.4844 26.3438C17.4844 26.3137 17.4721 26.2891 17.457 26.2891C17.442 26.2891 17.4297 26.2645 17.4297 26.2344C17.4297 26.2043 17.4174 26.1797 17.4023 26.1797C17.3873 26.1797 17.375 26.1607 17.375 26.1374C17.375 26.0827 17.2532 25.9609 17.1985 25.9609C17.1753 25.9609 17.1562 25.9486 17.1562 25.9336C17.1562 25.9186 17.1316 25.9062 17.1016 25.9062C17.0715 25.9062 17.0469 25.8939 17.0469 25.8789C17.0469 25.8639 17.0223 25.8516 16.9922 25.8516C16.9621 25.8516 16.9375 25.8393 16.9375 25.8242C16.9375 25.8064 16.4727 25.7969 15.5977 25.7969H14.2578V25.5643V25.3317L14.8389 24.7462L15.4199 24.1607L15.9873 24.1585C16.3488 24.1571 16.5547 24.1662 16.5547 24.1836ZM17.5391 31.5391V32.3594H16.7188H15.8984V31.5391V30.7188H16.7188H17.5391V31.5391ZM30.7188 31.5391V32.3594H29.8984H29.0781V31.5391V30.7188H29.8984H30.7188V31.5391Z" fill="#DD2A1B"/>
</svg>
