<svg width="40" height="40" viewBox="0 0 40 40" fill="none" xmlns="http://www.w3.org/2000/svg">
<path fill-rule="evenodd" clip-rule="evenodd" d="M11.5234 6.02734C11.5234 6.04238 11.4988 6.05469 11.4688 6.05469C11.4387 6.05469 11.4141 6.06699 11.4141 6.08203C11.4141 6.09707 11.3895 6.10938 11.3594 6.10938C11.3293 6.10938 11.3047 6.12168 11.3047 6.13672C11.3047 6.15176 11.2857 6.16406 11.2624 6.16406C11.2077 6.16406 11.0859 6.28585 11.0859 6.34057C11.0859 6.36381 11.0736 6.38281 11.0586 6.38281C11.0436 6.38281 11.0312 6.40742 11.0312 6.4375C11.0312 6.46758 11.0189 6.49219 11.0039 6.49219C10.9889 6.49219 10.9766 6.5168 10.9766 6.54688C10.9766 6.57695 10.9643 6.60156 10.9492 6.60156C10.9319 6.60156 10.9219 6.79297 10.9219 7.12109V7.64062H8.76172C7.33984 7.64062 6.60156 7.64998 6.60156 7.66797C6.60156 7.68301 6.57695 7.69531 6.54688 7.69531C6.5168 7.69531 6.49219 7.70762 6.49219 7.72266C6.49219 7.7377 6.46758 7.75 6.4375 7.75C6.40742 7.75 6.38281 7.7623 6.38281 7.77734C6.38281 7.79238 6.36381 7.80469 6.34057 7.80469C6.28585 7.80469 6.16406 7.92648 6.16406 7.98119C6.16406 8.00443 6.15176 8.02344 6.13672 8.02344C6.12168 8.02344 6.10938 8.04805 6.10938 8.07812C6.10938 8.1082 6.09707 8.13281 6.08203 8.13281C6.06699 8.13281 6.05469 8.15742 6.05469 8.1875C6.05469 8.21758 6.04238 8.24219 6.02734 8.24219C6.00916 8.24219 6 11.9062 6 19.1797C6 26.4531 6.00916 30.1172 6.02734 30.1172C6.04238 30.1172 6.05469 30.1418 6.05469 30.1719C6.05469 30.202 6.06699 30.2266 6.08203 30.2266C6.09707 30.2266 6.10938 30.2512 6.10938 30.2812C6.10938 30.3113 6.12168 30.3359 6.13672 30.3359C6.15176 30.3359 6.16406 30.3549 6.16406 30.3782C6.16406 30.4329 6.28585 30.5547 6.34057 30.5547C6.36381 30.5547 6.38281 30.567 6.38281 30.582C6.38281 30.5971 6.40742 30.6094 6.4375 30.6094C6.46758 30.6094 6.49219 30.6217 6.49219 30.6367C6.49219 30.6518 6.5168 30.6641 6.54688 30.6641C6.57695 30.6641 6.60156 30.6764 6.60156 30.6914C6.60156 30.7095 7.88672 30.7188 10.4023 30.7188H14.2031V32.0586C14.2031 32.9336 14.2126 33.3984 14.2305 33.3984C14.2455 33.3984 14.2578 33.423 14.2578 33.4531C14.2578 33.4832 14.2701 33.5078 14.2852 33.5078C14.3002 33.5078 14.3125 33.5324 14.3125 33.5625C14.3125 33.5926 14.3248 33.6172 14.3398 33.6172C14.3549 33.6172 14.3672 33.6362 14.3672 33.6594C14.3672 33.7141 14.489 33.8359 14.5437 33.8359C14.5669 33.8359 14.5859 33.8482 14.5859 33.8633C14.5859 33.8783 14.6105 33.8906 14.6406 33.8906C14.6707 33.8906 14.6953 33.9029 14.6953 33.918C14.6953 33.933 14.7199 33.9453 14.75 33.9453C14.7801 33.9453 14.8047 33.9576 14.8047 33.9727C14.8047 33.9906 15.4427 34 16.6641 34C17.8854 34 18.5234 33.9906 18.5234 33.9727C18.5234 33.9576 18.548 33.9453 18.5781 33.9453C18.6082 33.9453 18.6328 33.933 18.6328 33.918C18.6328 33.9029 18.6574 33.8906 18.6875 33.8906C18.7176 33.8906 18.7422 33.8783 18.7422 33.8633C18.7422 33.8482 18.7612 33.8359 18.7844 33.8359C18.8391 33.8359 18.9609 33.7141 18.9609 33.6594C18.9609 33.6362 18.9732 33.6172 18.9883 33.6172C19.0033 33.6172 19.0156 33.5926 19.0156 33.5625C19.0156 33.5324 19.0279 33.5078 19.043 33.5078C19.058 33.5078 19.0703 33.4832 19.0703 33.4531C19.0703 33.423 19.0826 33.3984 19.0977 33.3984C19.1155 33.3984 19.125 32.9336 19.125 32.0586V30.7188H23.2812H27.4375V32.0586C27.4375 32.9336 27.447 33.3984 27.4648 33.3984C27.4799 33.3984 27.4922 33.423 27.4922 33.4531C27.4922 33.4832 27.5045 33.5078 27.5195 33.5078C27.5346 33.5078 27.5469 33.5324 27.5469 33.5625C27.5469 33.5926 27.5592 33.6172 27.5742 33.6172C27.5893 33.6172 27.6016 33.6362 27.6016 33.6594C27.6016 33.7141 27.7234 33.8359 27.7781 33.8359C27.8013 33.8359 27.8203 33.8482 27.8203 33.8633C27.8203 33.8783 27.8449 33.8906 27.875 33.8906C27.9051 33.8906 27.9297 33.9029 27.9297 33.918C27.9297 33.933 27.9543 33.9453 27.9844 33.9453C28.0145 33.9453 28.0391 33.9576 28.0391 33.9727C28.0391 33.9906 28.6771 34 29.8984 34C31.1198 34 31.7578 33.9906 31.7578 33.9727C31.7578 33.9576 31.7824 33.9453 31.8125 33.9453C31.8426 33.9453 31.8672 33.933 31.8672 33.918C31.8672 33.9029 31.8918 33.8906 31.9219 33.8906C31.952 33.8906 31.9766 33.8783 31.9766 33.8633C31.9766 33.8482 31.9956 33.8359 32.0188 33.8359C32.0735 33.8359 32.1953 33.7141 32.1953 33.6594C32.1953 33.6362 32.2076 33.6172 32.2227 33.6172C32.2377 33.6172 32.25 33.5926 32.25 33.5625C32.25 33.5324 32.2623 33.5078 32.2773 33.5078C32.2924 33.5078 32.3047 33.4832 32.3047 33.4531C32.3047 33.423 32.317 33.3984 32.332 33.3984C32.3499 33.3984 32.3594 32.9062 32.3594 31.9766C32.3594 30.5729 32.3601 30.5547 32.4141 30.5547C32.4441 30.5547 32.4688 30.5424 32.4688 30.5273C32.4688 30.5123 32.4934 30.5 32.5234 30.5C32.5535 30.5 32.5781 30.4877 32.5781 30.4727C32.5781 30.4576 32.6027 30.4453 32.6328 30.4453C32.6629 30.4453 32.6875 30.433 32.6875 30.418C32.6875 30.4029 32.7121 30.3906 32.7422 30.3906C32.7723 30.3906 32.7969 30.3783 32.7969 30.3633C32.7969 30.3482 32.8188 30.3359 32.8455 30.3359C32.8723 30.3359 32.9119 30.3113 32.9336 30.2812C32.9553 30.2512 32.9889 30.2266 33.0084 30.2266C33.0545 30.2266 33.5078 29.7733 33.5078 29.7271C33.5078 29.7077 33.5324 29.674 33.5625 29.6523C33.5926 29.6307 33.6172 29.591 33.6172 29.5643C33.6172 29.5375 33.6295 29.5156 33.6445 29.5156C33.6596 29.5156 33.6719 29.4937 33.6719 29.467C33.6719 29.4402 33.6965 29.4006 33.7266 29.3789C33.7587 29.3557 33.7812 29.3081 33.7812 29.2635C33.7812 29.2217 33.7936 29.1875 33.8086 29.1875C33.8236 29.1875 33.8359 29.1629 33.8359 29.1328C33.8359 29.1027 33.8482 29.0781 33.8633 29.0781C33.8783 29.0781 33.8906 29.0289 33.8906 28.9688C33.8906 28.9086 33.9029 28.8594 33.918 28.8594C33.933 28.8594 33.9453 28.8102 33.9453 28.75C33.9453 28.6898 33.9576 28.6406 33.9727 28.6406C33.9906 28.6406 34 27.9753 34 26.6992C34 25.4232 33.9906 24.7578 33.9727 24.7578C33.9576 24.7578 33.9453 24.7332 33.9453 24.7031C33.9453 24.673 33.933 24.6484 33.918 24.6484C33.9029 24.6484 33.8906 24.6238 33.8906 24.5938C33.8906 24.5637 33.8783 24.5391 33.8633 24.5391C33.8482 24.5391 33.8359 24.5204 33.8359 24.4977C33.8359 24.4749 33.4791 24.0998 33.043 23.6641C32.6068 23.2283 32.25 22.8532 32.25 22.8304C32.25 22.8077 32.2377 22.7891 32.2227 22.7891C32.2076 22.7891 32.1953 22.7521 32.1953 22.707C32.1953 22.6619 32.183 22.625 32.168 22.625C32.1529 22.625 32.1406 22.5881 32.1406 22.543C32.1406 22.4979 32.1283 22.4609 32.1133 22.4609C32.0982 22.4609 32.0859 22.424 32.0859 22.3789C32.0859 22.3338 32.0736 22.2969 32.0586 22.2969C32.0436 22.2969 32.0312 22.26 32.0312 22.2148C32.0312 22.1697 32.0189 22.1328 32.0039 22.1328C31.9889 22.1328 31.9766 22.0836 31.9766 22.0234C31.9766 21.9633 31.9643 21.9141 31.9492 21.9141C31.9342 21.9141 31.9219 21.8771 31.9219 21.832C31.9219 21.7869 31.9096 21.75 31.8945 21.75C31.8795 21.75 31.8672 21.7131 31.8672 21.668C31.8672 21.6229 31.8549 21.5859 31.8398 21.5859C31.8248 21.5859 31.8125 21.549 31.8125 21.5039C31.8125 21.4588 31.8002 21.4219 31.7852 21.4219C31.7701 21.4219 31.7578 21.385 31.7578 21.3398C31.7578 21.2947 31.7455 21.2578 31.7305 21.2578C31.7154 21.2578 31.7031 21.2209 31.7031 21.1758C31.7031 21.1307 31.6908 21.0938 31.6758 21.0938C31.6607 21.0938 31.6484 21.0568 31.6484 21.0117C31.6484 20.9666 31.6361 20.9297 31.6211 20.9297C31.6061 20.9297 31.5938 20.8928 31.5938 20.8477C31.5938 20.8025 31.5814 20.7656 31.5664 20.7656C31.5514 20.7656 31.5391 20.7287 31.5391 20.6836C31.5391 20.6385 31.5268 20.6016 31.5117 20.6016C31.4967 20.6016 31.4844 20.5646 31.4844 20.5195C31.4844 20.4744 31.4721 20.4375 31.457 20.4375C31.442 20.4375 31.4297 20.4006 31.4297 20.3555C31.4297 20.3104 31.4174 20.2734 31.4023 20.2734C31.3873 20.2734 31.375 20.2365 31.375 20.1914C31.375 20.1463 31.3627 20.1094 31.3477 20.1094C31.3326 20.1094 31.3203 20.0602 31.3203 20C31.3203 19.9398 31.308 19.8906 31.293 19.8906C31.2779 19.8906 31.2656 19.8537 31.2656 19.8086C31.2656 19.7635 31.2533 19.7266 31.2383 19.7266C31.2232 19.7266 31.2109 19.6896 31.2109 19.6445C31.2109 19.5994 31.1986 19.5625 31.1836 19.5625C31.1686 19.5625 31.1562 19.5256 31.1562 19.4805C31.1562 19.4354 31.1439 19.3984 31.1289 19.3984C31.1139 19.3984 31.1016 19.3615 31.1016 19.3164C31.1016 19.2713 31.0893 19.2344 31.0742 19.2344C31.0592 19.2344 31.0469 19.1975 31.0469 19.1523C31.0469 19.1072 31.0346 19.0703 31.0195 19.0703C31.0045 19.0703 30.9922 19.0457 30.9922 19.0156C30.9922 18.9855 30.9799 18.9609 30.9648 18.9609C30.9498 18.9609 30.9375 18.9363 30.9375 18.9062C30.9375 18.8762 30.9252 18.8516 30.9102 18.8516C30.8951 18.8516 30.8828 18.827 30.8828 18.7969C30.8828 18.7668 30.8705 18.7422 30.8555 18.7422C30.8404 18.7422 30.8281 18.7203 30.8281 18.6935C30.8281 18.6668 30.8035 18.6272 30.7734 18.6055C30.7434 18.5838 30.7188 18.5494 30.7188 18.5289C30.7188 18.5085 30.6695 18.4445 30.6094 18.3867C30.5492 18.3289 30.5 18.2622 30.5 18.2385C30.5 18.2147 30.4807 18.1953 30.4572 18.1953C30.4337 18.1953 30.3545 18.1338 30.2812 18.0586C30.208 17.9834 30.1315 17.9219 30.1113 17.9219C30.0911 17.9219 30.0568 17.8973 30.0352 17.8672C30.0135 17.8371 29.9739 17.8125 29.9471 17.8125C29.9203 17.8125 29.8984 17.8002 29.8984 17.7852C29.8984 17.7701 29.8738 17.7578 29.8438 17.7578C29.8137 17.7578 29.7891 17.7455 29.7891 17.7305C29.7891 17.7154 29.7645 17.7031 29.7344 17.7031C29.7043 17.7031 29.6797 17.6908 29.6797 17.6758C29.6797 17.6607 29.6428 17.6484 29.5977 17.6484C29.5525 17.6484 29.5156 17.6361 29.5156 17.6211C29.5156 17.6061 29.4787 17.5938 29.4336 17.5938C29.3885 17.5938 29.3516 17.5814 29.3516 17.5664C29.3516 17.5514 29.29 17.5391 29.2148 17.5391C29.1396 17.5391 29.0781 17.5268 29.0781 17.5117C29.0781 17.4936 27.957 17.4844 25.7695 17.4844H22.4609V12.8633C22.4609 9.80078 22.4517 8.24219 22.4336 8.24219C22.4186 8.24219 22.4062 8.21758 22.4062 8.1875C22.4062 8.15742 22.3939 8.13281 22.3789 8.13281C22.3639 8.13281 22.3516 8.1082 22.3516 8.07812C22.3516 8.04805 22.3393 8.02344 22.3242 8.02344C22.3092 8.02344 22.2969 8.00443 22.2969 7.98119C22.2969 7.92648 22.1751 7.80469 22.1204 7.80469C22.0971 7.80469 22.0781 7.79238 22.0781 7.77734C22.0781 7.7623 22.0535 7.75 22.0234 7.75C21.9934 7.75 21.9688 7.7377 21.9688 7.72266C21.9688 7.70762 21.9441 7.69531 21.9141 7.69531C21.884 7.69531 21.8594 7.68301 21.8594 7.66797C21.8594 7.64998 21.112 7.64062 19.6719 7.64062H17.4844V7.12109C17.4844 6.79297 17.4743 6.60156 17.457 6.60156C17.442 6.60156 17.4297 6.57695 17.4297 6.54688C17.4297 6.5168 17.4174 6.49219 17.4023 6.49219C17.3873 6.49219 17.375 6.46758 17.375 6.4375C17.375 6.40742 17.3627 6.38281 17.3477 6.38281C17.3326 6.38281 17.3203 6.36381 17.3203 6.34057C17.3203 6.28585 17.1985 6.16406 17.1438 6.16406C17.1206 6.16406 17.1016 6.15176 17.1016 6.13672C17.1016 6.12168 17.077 6.10938 17.0469 6.10938C17.0168 6.10938 16.9922 6.09707 16.9922 6.08203C16.9922 6.06699 16.9676 6.05469 16.9375 6.05469C16.9074 6.05469 16.8828 6.04238 16.8828 6.02734C16.8828 6.0093 15.9714 6 14.2031 6C12.4349 6 11.5234 6.0093 11.5234 6.02734ZM15.8438 8.46094V9.28125H14.2031H12.5625V8.46094V7.64062H14.2031H15.8438V8.46094ZM10.9219 9.80078C10.9219 10.1289 10.9319 10.3203 10.9492 10.3203C10.9643 10.3203 10.9766 10.3449 10.9766 10.375C10.9766 10.4051 10.9889 10.4297 11.0039 10.4297C11.0189 10.4297 11.0312 10.4543 11.0312 10.4844C11.0312 10.5145 11.0436 10.5391 11.0586 10.5391C11.0736 10.5391 11.0859 10.5581 11.0859 10.5813C11.0859 10.636 11.2077 10.7578 11.2624 10.7578C11.2857 10.7578 11.3047 10.7701 11.3047 10.7852C11.3047 10.8002 11.3293 10.8125 11.3594 10.8125C11.3895 10.8125 11.4141 10.8248 11.4141 10.8398C11.4141 10.8549 11.4387 10.8672 11.4688 10.8672C11.4988 10.8672 11.5234 10.8795 11.5234 10.8945C11.5234 10.9126 12.4349 10.9219 14.2031 10.9219C15.9714 10.9219 16.8828 10.9126 16.8828 10.8945C16.8828 10.8795 16.9074 10.8672 16.9375 10.8672C16.9676 10.8672 16.9922 10.8549 16.9922 10.8398C16.9922 10.8248 17.0168 10.8125 17.0469 10.8125C17.077 10.8125 17.1016 10.8002 17.1016 10.7852C17.1016 10.7701 17.1206 10.7578 17.1438 10.7578C17.1985 10.7578 17.3203 10.636 17.3203 10.5813C17.3203 10.5581 17.3326 10.5391 17.3477 10.5391C17.3627 10.5391 17.375 10.5145 17.375 10.4844C17.375 10.4543 17.3873 10.4297 17.4023 10.4297C17.4174 10.4297 17.4297 10.4051 17.4297 10.375C17.4297 10.3449 17.442 10.3203 17.457 10.3203C17.4743 10.3203 17.4844 10.1289 17.4844 9.80078V9.28125H19.1523H20.8203V13.3828V17.4844H19.1523C18.0586 17.4844 17.4844 17.4938 17.4844 17.5117C17.4844 17.5268 17.4229 17.5391 17.3477 17.5391C17.2725 17.5391 17.2109 17.5514 17.2109 17.5664C17.2109 17.5814 17.174 17.5938 17.1289 17.5938C17.0838 17.5938 17.0469 17.6061 17.0469 17.6211C17.0469 17.6361 17.01 17.6484 16.9648 17.6484C16.9197 17.6484 16.8828 17.6607 16.8828 17.6758C16.8828 17.6908 16.8582 17.7031 16.8281 17.7031C16.798 17.7031 16.7734 17.7154 16.7734 17.7305C16.7734 17.7455 16.7488 17.7578 16.7188 17.7578C16.6887 17.7578 16.6641 17.7701 16.6641 17.7852C16.6641 17.8002 16.6422 17.8125 16.6154 17.8125C16.5886 17.8125 16.549 17.8371 16.5273 17.8672C16.5057 17.8973 16.4712 17.9219 16.4508 17.9219C16.4304 17.9219 16.3664 17.9711 16.3086 18.0312C16.2508 18.0914 16.1893 18.1406 16.1721 18.1406C16.1315 18.1406 16.0625 18.2096 16.0625 18.2502C16.0625 18.2675 16.0133 18.3289 15.9531 18.3867C15.893 18.4445 15.8438 18.5085 15.8438 18.5289C15.8438 18.5494 15.8191 18.5838 15.7891 18.6055C15.759 18.6272 15.7344 18.6668 15.7344 18.6935C15.7344 18.7203 15.7221 18.7422 15.707 18.7422C15.692 18.7422 15.6797 18.7668 15.6797 18.7969C15.6797 18.827 15.6674 18.8516 15.6523 18.8516C15.6373 18.8516 15.625 18.8762 15.625 18.9062C15.625 18.9363 15.6127 18.9609 15.5977 18.9609C15.5826 18.9609 15.5703 18.9855 15.5703 19.0156C15.5703 19.0457 15.558 19.0703 15.543 19.0703C15.5279 19.0703 15.5156 19.1072 15.5156 19.1523C15.5156 19.1975 15.5033 19.2344 15.4883 19.2344C15.4732 19.2344 15.4609 19.2713 15.4609 19.3164C15.4609 19.3615 15.4486 19.3984 15.4336 19.3984C15.4186 19.3984 15.4062 19.4354 15.4062 19.4805C15.4062 19.5256 15.3939 19.5625 15.3789 19.5625C15.3639 19.5625 15.3516 19.5994 15.3516 19.6445C15.3516 19.6896 15.3393 19.7266 15.3242 19.7266C15.3092 19.7266 15.2969 19.7635 15.2969 19.8086C15.2969 19.8537 15.2846 19.8906 15.2695 19.8906C15.2545 19.8906 15.2422 19.9275 15.2422 19.9727C15.2422 20.0178 15.2299 20.0547 15.2148 20.0547C15.1998 20.0547 15.1875 20.1039 15.1875 20.1641C15.1875 20.2242 15.1752 20.2734 15.1602 20.2734C15.1451 20.2734 15.1328 20.3104 15.1328 20.3555C15.1328 20.4006 15.1205 20.4375 15.1055 20.4375C15.0904 20.4375 15.0781 20.4744 15.0781 20.5195C15.0781 20.5646 15.0658 20.6016 15.0508 20.6016C15.0357 20.6016 15.0234 20.6385 15.0234 20.6836C15.0234 20.7287 15.0111 20.7656 14.9961 20.7656C14.9811 20.7656 14.9688 20.8025 14.9688 20.8477C14.9688 20.8928 14.9564 20.9297 14.9414 20.9297C14.9264 20.9297 14.9141 20.9666 14.9141 21.0117C14.9141 21.0568 14.9018 21.0938 14.8867 21.0938C14.8717 21.0938 14.8594 21.1307 14.8594 21.1758C14.8594 21.2209 14.8471 21.2578 14.832 21.2578C14.817 21.2578 14.8047 21.2947 14.8047 21.3398C14.8047 21.385 14.7924 21.4219 14.7773 21.4219C14.7623 21.4219 14.75 21.4588 14.75 21.5039C14.75 21.549 14.7377 21.5859 14.7227 21.5859C14.7076 21.5859 14.6953 21.6229 14.6953 21.668C14.6953 21.7131 14.683 21.75 14.668 21.75C14.6529 21.75 14.6406 21.7869 14.6406 21.832C14.6406 21.8771 14.6283 21.9141 14.6133 21.9141C14.5982 21.9141 14.5859 21.9633 14.5859 22.0234C14.5859 22.0836 14.5736 22.1328 14.5586 22.1328C14.5436 22.1328 14.5312 22.1697 14.5312 22.2148C14.5312 22.26 14.5189 22.2969 14.5039 22.2969C14.4889 22.2969 14.4766 22.3338 14.4766 22.3789C14.4766 22.424 14.4643 22.4609 14.4492 22.4609C14.4342 22.4609 14.4219 22.4979 14.4219 22.543C14.4219 22.5881 14.4096 22.625 14.3945 22.625C14.3795 22.625 14.3672 22.6619 14.3672 22.707C14.3672 22.7521 14.3549 22.7891 14.3398 22.7891C14.3248 22.7891 14.3125 22.8077 14.3125 22.8304C14.3125 22.8532 13.9557 23.2283 13.5195 23.6641C13.0834 24.0998 12.7266 24.4749 12.7266 24.4977C12.7266 24.5204 12.7143 24.5391 12.6992 24.5391C12.6842 24.5391 12.6719 24.5637 12.6719 24.5938C12.6719 24.6238 12.6596 24.6484 12.6445 24.6484C12.6295 24.6484 12.6172 24.673 12.6172 24.7031C12.6172 24.7332 12.6049 24.7578 12.5898 24.7578C12.5719 24.7578 12.5625 25.4141 12.5625 26.6719C12.5625 27.9297 12.5719 28.5859 12.5898 28.5859C12.6049 28.5859 12.6172 28.6475 12.6172 28.7227C12.6172 28.7979 12.6295 28.8594 12.6445 28.8594C12.6596 28.8594 12.6719 28.9086 12.6719 28.9688V29.0781H10.1562H7.64062V19.1797V9.28125H9.28125H10.9219V9.80078ZM9.88281 12.5898C9.88281 12.6049 9.8582 12.6172 9.82812 12.6172C9.79805 12.6172 9.77344 12.6295 9.77344 12.6445C9.77344 12.6596 9.74883 12.6719 9.71875 12.6719C9.68867 12.6719 9.66406 12.6842 9.66406 12.6992C9.66406 12.7143 9.64506 12.7266 9.62182 12.7266C9.59857 12.7266 9.54936 12.7568 9.51244 12.7937C9.47553 12.8306 9.44531 12.8798 9.44531 12.9031C9.44531 12.9263 9.43301 12.9453 9.41797 12.9453C9.40293 12.9453 9.39062 12.9699 9.39062 13C9.39062 13.0301 9.37832 13.0547 9.36328 13.0547C9.34824 13.0547 9.33594 13.0793 9.33594 13.1094C9.33594 13.1395 9.32363 13.1641 9.30859 13.1641C9.29265 13.1641 9.28125 13.2552 9.28125 13.3828C9.28125 13.5104 9.29265 13.6016 9.30859 13.6016C9.32363 13.6016 9.33594 13.6262 9.33594 13.6562C9.33594 13.6863 9.34824 13.7109 9.36328 13.7109C9.37832 13.7109 9.39062 13.7355 9.39062 13.7656C9.39062 13.7957 9.40293 13.8203 9.41797 13.8203C9.43301 13.8203 9.44531 13.8393 9.44531 13.8626C9.44531 13.9173 9.5671 14.0391 9.62182 14.0391C9.64506 14.0391 9.66406 14.0514 9.66406 14.0664C9.66406 14.0814 9.68867 14.0938 9.71875 14.0938C9.74883 14.0938 9.77344 14.1061 9.77344 14.1211C9.77344 14.1361 9.79805 14.1484 9.82812 14.1484C9.8582 14.1484 9.88281 14.1607 9.88281 14.1758C9.88281 14.1917 9.97395 14.2031 10.1016 14.2031C10.2292 14.2031 10.3203 14.1917 10.3203 14.1758C10.3203 14.1607 10.3449 14.1484 10.375 14.1484C10.4051 14.1484 10.4297 14.1361 10.4297 14.1211C10.4297 14.1061 10.4543 14.0938 10.4844 14.0938C10.5145 14.0938 10.5391 14.0814 10.5391 14.0664C10.5391 14.0514 10.5581 14.0391 10.5813 14.0391C10.636 14.0391 10.7578 13.9173 10.7578 13.8626C10.7578 13.8393 10.7701 13.8203 10.7852 13.8203C10.8002 13.8203 10.8125 13.7957 10.8125 13.7656C10.8125 13.7355 10.8248 13.7109 10.8398 13.7109C10.8549 13.7109 10.8672 13.6863 10.8672 13.6562C10.8672 13.6262 10.8795 13.6016 10.8945 13.6016C10.9105 13.6016 10.9219 13.5104 10.9219 13.3828C10.9219 13.2552 10.9105 13.1641 10.8945 13.1641C10.8795 13.1641 10.8672 13.1395 10.8672 13.1094C10.8672 13.0793 10.8549 13.0547 10.8398 13.0547C10.8248 13.0547 10.8125 13.0301 10.8125 13C10.8125 12.9699 10.8002 12.9453 10.7852 12.9453C10.7701 12.9453 10.7578 12.9263 10.7578 12.9031C10.7578 12.8484 10.636 12.7266 10.5813 12.7266C10.5581 12.7266 10.5391 12.7143 10.5391 12.6992C10.5391 12.6842 10.5145 12.6719 10.4844 12.6719C10.4543 12.6719 10.4297 12.6596 10.4297 12.6445C10.4297 12.6295 10.4051 12.6172 10.375 12.6172C10.3449 12.6172 10.3203 12.6049 10.3203 12.5898C10.3203 12.5739 10.2292 12.5625 10.1016 12.5625C9.97395 12.5625 9.88281 12.5739 9.88281 12.5898ZM13.1641 12.5898C13.1641 12.6049 13.1395 12.6172 13.1094 12.6172C13.0793 12.6172 13.0547 12.6295 13.0547 12.6445C13.0547 12.6596 13.0301 12.6719 13 12.6719C12.9699 12.6719 12.9453 12.6842 12.9453 12.6992C12.9453 12.7143 12.9263 12.7266 12.9031 12.7266C12.8798 12.7266 12.8306 12.7568 12.7937 12.7937C12.7568 12.8306 12.7266 12.8798 12.7266 12.9031C12.7266 12.9263 12.7143 12.9453 12.6992 12.9453C12.6842 12.9453 12.6719 12.9699 12.6719 13C12.6719 13.0301 12.6596 13.0547 12.6445 13.0547C12.6295 13.0547 12.6172 13.0793 12.6172 13.1094C12.6172 13.1395 12.6049 13.1641 12.5898 13.1641C12.5739 13.1641 12.5625 13.2552 12.5625 13.3828C12.5625 13.5104 12.5739 13.6016 12.5898 13.6016C12.6049 13.6016 12.6172 13.6262 12.6172 13.6562C12.6172 13.6863 12.6295 13.7109 12.6445 13.7109C12.6596 13.7109 12.6719 13.7355 12.6719 13.7656C12.6719 13.7957 12.6842 13.8203 12.6992 13.8203C12.7143 13.8203 12.7266 13.8393 12.7266 13.8626C12.7266 13.9173 12.8484 14.0391 12.9031 14.0391C12.9263 14.0391 12.9453 14.0514 12.9453 14.0664C12.9453 14.0814 12.9699 14.0938 13 14.0938C13.0301 14.0938 13.0547 14.1061 13.0547 14.1211C13.0547 14.1361 13.0793 14.1484 13.1094 14.1484C13.1395 14.1484 13.1641 14.1607 13.1641 14.1758C13.1641 14.1938 14.0755 14.2031 15.8438 14.2031C17.612 14.2031 18.5234 14.1938 18.5234 14.1758C18.5234 14.1607 18.548 14.1484 18.5781 14.1484C18.6082 14.1484 18.6328 14.1361 18.6328 14.1211C18.6328 14.1061 18.6574 14.0938 18.6875 14.0938C18.7176 14.0938 18.7422 14.0814 18.7422 14.0664C18.7422 14.0514 18.7612 14.0391 18.7844 14.0391C18.8391 14.0391 18.9609 13.9173 18.9609 13.8626C18.9609 13.8393 18.9732 13.8203 18.9883 13.8203C19.0033 13.8203 19.0156 13.7957 19.0156 13.7656C19.0156 13.7355 19.0279 13.7109 19.043 13.7109C19.058 13.7109 19.0703 13.6863 19.0703 13.6562C19.0703 13.6262 19.0826 13.6016 19.0977 13.6016C19.1136 13.6016 19.125 13.5104 19.125 13.3828C19.125 13.2552 19.1136 13.1641 19.0977 13.1641C19.0826 13.1641 19.0703 13.1395 19.0703 13.1094C19.0703 13.0793 19.058 13.0547 19.043 13.0547C19.0279 13.0547 19.0156 13.0301 19.0156 13C19.0156 12.9699 19.0033 12.9453 18.9883 12.9453C18.9732 12.9453 18.9609 12.9263 18.9609 12.9031C18.9609 12.8484 18.8391 12.7266 18.7844 12.7266C18.7612 12.7266 18.7422 12.7143 18.7422 12.6992C18.7422 12.6842 18.7176 12.6719 18.6875 12.6719C18.6574 12.6719 18.6328 12.6596 18.6328 12.6445C18.6328 12.6295 18.6082 12.6172 18.5781 12.6172C18.548 12.6172 18.5234 12.6049 18.5234 12.5898C18.5234 12.5718 17.612 12.5625 15.8438 12.5625C14.0755 12.5625 13.1641 12.5718 13.1641 12.5898ZM9.88281 15.8711C9.88281 15.8861 9.8582 15.8984 9.82812 15.8984C9.79805 15.8984 9.77344 15.9107 9.77344 15.9258C9.77344 15.9408 9.74883 15.9531 9.71875 15.9531C9.68867 15.9531 9.66406 15.9654 9.66406 15.9805C9.66406 15.9955 9.64506 16.0078 9.62182 16.0078C9.5671 16.0078 9.44531 16.1296 9.44531 16.1843C9.44531 16.2076 9.43301 16.2266 9.41797 16.2266C9.40293 16.2266 9.39062 16.2512 9.39062 16.2812C9.39062 16.3113 9.37832 16.3359 9.36328 16.3359C9.34824 16.3359 9.33594 16.3605 9.33594 16.3906C9.33594 16.4207 9.32363 16.4453 9.30859 16.4453C9.29265 16.4453 9.28125 16.5364 9.28125 16.6641C9.28125 16.7917 9.29265 16.8828 9.30859 16.8828C9.32363 16.8828 9.33594 16.9074 9.33594 16.9375C9.33594 16.9676 9.34824 16.9922 9.36328 16.9922C9.37832 16.9922 9.39062 17.0168 9.39062 17.0469C9.39062 17.077 9.40293 17.1016 9.41797 17.1016C9.43301 17.1016 9.44531 17.1206 9.44531 17.1438C9.44531 17.1985 9.5671 17.3203 9.62182 17.3203C9.64506 17.3203 9.66406 17.3326 9.66406 17.3477C9.66406 17.3627 9.68867 17.375 9.71875 17.375C9.74883 17.375 9.77344 17.3873 9.77344 17.4023C9.77344 17.4174 9.79805 17.4297 9.82812 17.4297C9.8582 17.4297 9.88281 17.442 9.88281 17.457C9.88281 17.473 9.97395 17.4844 10.1016 17.4844C10.2292 17.4844 10.3203 17.473 10.3203 17.457C10.3203 17.442 10.3449 17.4297 10.375 17.4297C10.4051 17.4297 10.4297 17.4174 10.4297 17.4023C10.4297 17.3873 10.4543 17.375 10.4844 17.375C10.5145 17.375 10.5391 17.3627 10.5391 17.3477C10.5391 17.3326 10.5581 17.3203 10.5813 17.3203C10.636 17.3203 10.7578 17.1985 10.7578 17.1438C10.7578 17.1206 10.7701 17.1016 10.7852 17.1016C10.8002 17.1016 10.8125 17.077 10.8125 17.0469C10.8125 17.0168 10.8248 16.9922 10.8398 16.9922C10.8549 16.9922 10.8672 16.9676 10.8672 16.9375C10.8672 16.9074 10.8795 16.8828 10.8945 16.8828C10.9105 16.8828 10.9219 16.7917 10.9219 16.6641C10.9219 16.5364 10.9105 16.4453 10.8945 16.4453C10.8795 16.4453 10.8672 16.4207 10.8672 16.3906C10.8672 16.3605 10.8549 16.3359 10.8398 16.3359C10.8248 16.3359 10.8125 16.3113 10.8125 16.2812C10.8125 16.2512 10.8002 16.2266 10.7852 16.2266C10.7701 16.2266 10.7578 16.2076 10.7578 16.1843C10.7578 16.1296 10.636 16.0078 10.5813 16.0078C10.5581 16.0078 10.5391 15.9955 10.5391 15.9805C10.5391 15.9654 10.5145 15.9531 10.4844 15.9531C10.4543 15.9531 10.4297 15.9408 10.4297 15.9258C10.4297 15.9107 10.4051 15.8984 10.375 15.8984C10.3449 15.8984 10.3203 15.8861 10.3203 15.8711C10.3203 15.8552 10.2292 15.8438 10.1016 15.8438C9.97395 15.8438 9.88281 15.8552 9.88281 15.8711ZM13.1641 15.8711C13.1641 15.8861 13.1395 15.8984 13.1094 15.8984C13.0793 15.8984 13.0547 15.9107 13.0547 15.9258C13.0547 15.9408 13.0301 15.9531 13 15.9531C12.9699 15.9531 12.9453 15.9654 12.9453 15.9805C12.9453 15.9955 12.9263 16.0078 12.9031 16.0078C12.8484 16.0078 12.7266 16.1296 12.7266 16.1843C12.7266 16.2076 12.7143 16.2266 12.6992 16.2266C12.6842 16.2266 12.6719 16.2512 12.6719 16.2812C12.6719 16.3113 12.6596 16.3359 12.6445 16.3359C12.6295 16.3359 12.6172 16.3605 12.6172 16.3906C12.6172 16.4207 12.6049 16.4453 12.5898 16.4453C12.5739 16.4453 12.5625 16.5364 12.5625 16.6641C12.5625 16.7917 12.5739 16.8828 12.5898 16.8828C12.6049 16.8828 12.6172 16.9074 12.6172 16.9375C12.6172 16.9676 12.6295 16.9922 12.6445 16.9922C12.6596 16.9922 12.6719 17.0168 12.6719 17.0469C12.6719 17.077 12.6842 17.1016 12.6992 17.1016C12.7143 17.1016 12.7266 17.1206 12.7266 17.1438C12.7266 17.1985 12.8484 17.3203 12.9031 17.3203C12.9263 17.3203 12.9453 17.3326 12.9453 17.3477C12.9453 17.3627 12.9699 17.375 13 17.375C13.0301 17.375 13.0547 17.3873 13.0547 17.4023C13.0547 17.4174 13.0793 17.4297 13.1094 17.4297C13.1395 17.4297 13.1641 17.442 13.1641 17.457C13.1641 17.475 13.8021 17.4844 15.0234 17.4844C16.2448 17.4844 16.8828 17.475 16.8828 17.457C16.8828 17.442 16.9074 17.4297 16.9375 17.4297C16.9676 17.4297 16.9922 17.4174 16.9922 17.4023C16.9922 17.3873 17.0168 17.375 17.0469 17.375C17.077 17.375 17.1016 17.3627 17.1016 17.3477C17.1016 17.3326 17.1206 17.3203 17.1438 17.3203C17.1985 17.3203 17.3203 17.1985 17.3203 17.1438C17.3203 17.1206 17.3326 17.1016 17.3477 17.1016C17.3627 17.1016 17.375 17.077 17.375 17.0469C17.375 17.0168 17.3873 16.9922 17.4023 16.9922C17.4174 16.9922 17.4297 16.9676 17.4297 16.9375C17.4297 16.9074 17.442 16.8828 17.457 16.8828C17.473 16.8828 17.4844 16.7917 17.4844 16.6641C17.4844 16.5364 17.473 16.4453 17.457 16.4453C17.442 16.4453 17.4297 16.4207 17.4297 16.3906C17.4297 16.3605 17.4174 16.3359 17.4023 16.3359C17.3873 16.3359 17.375 16.3113 17.375 16.2812C17.375 16.2512 17.3627 16.2266 17.3477 16.2266C17.3326 16.2266 17.3203 16.2076 17.3203 16.1843C17.3203 16.1296 17.1985 16.0078 17.1438 16.0078C17.1206 16.0078 17.1016 15.9955 17.1016 15.9805C17.1016 15.9654 17.077 15.9531 17.0469 15.9531C17.0168 15.9531 16.9922 15.9408 16.9922 15.9258C16.9922 15.9107 16.9676 15.8984 16.9375 15.8984C16.9074 15.8984 16.8828 15.8861 16.8828 15.8711C16.8828 15.8531 16.2448 15.8438 15.0234 15.8438C13.8021 15.8438 13.1641 15.8531 13.1641 15.8711ZM28.9141 19.1523C28.9141 19.1674 28.951 19.1797 28.9961 19.1797C29.0412 19.1797 29.0781 19.192 29.0781 19.207C29.0781 19.2221 29.0969 19.2344 29.1199 19.2344C29.1741 19.2344 29.4062 19.4665 29.4062 19.5208C29.4062 19.5437 29.4186 19.5625 29.4336 19.5625C29.4486 19.5625 29.4609 19.5871 29.4609 19.6172C29.4609 19.6473 29.4732 19.6719 29.4883 19.6719C29.5033 19.6719 29.5156 19.7088 29.5156 19.7539C29.5156 19.799 29.5279 19.8359 29.543 19.8359C29.558 19.8359 29.5703 19.8729 29.5703 19.918C29.5703 19.9631 29.5826 20 29.5977 20C29.6127 20 29.625 20.0369 29.625 20.082C29.625 20.1271 29.6373 20.1641 29.6523 20.1641C29.6674 20.1641 29.6797 20.201 29.6797 20.2461C29.6797 20.2912 29.692 20.3281 29.707 20.3281C29.7221 20.3281 29.7344 20.365 29.7344 20.4102C29.7344 20.4553 29.7467 20.4922 29.7617 20.4922C29.7768 20.4922 29.7891 20.5291 29.7891 20.5742C29.7891 20.6193 29.8014 20.6562 29.8164 20.6562C29.8314 20.6562 29.8438 20.7055 29.8438 20.7656C29.8438 20.8258 29.8561 20.875 29.8711 20.875C29.8861 20.875 29.8984 20.9119 29.8984 20.957C29.8984 21.0021 29.9107 21.0391 29.9258 21.0391C29.9408 21.0391 29.9531 21.076 29.9531 21.1211C29.9531 21.1662 29.9654 21.2031 29.9805 21.2031C29.9955 21.2031 30.0078 21.24 30.0078 21.2852C30.0078 21.3303 30.0201 21.3672 30.0352 21.3672C30.0502 21.3672 30.0625 21.4041 30.0625 21.4492C30.0625 21.4943 30.0748 21.5312 30.0898 21.5312C30.1049 21.5312 30.1172 21.5682 30.1172 21.6133C30.1172 21.6584 30.1295 21.6953 30.1445 21.6953C30.1596 21.6953 30.1719 21.7322 30.1719 21.7773C30.1719 21.8225 30.1842 21.8594 30.1992 21.8594C30.2143 21.8594 30.2266 21.8963 30.2266 21.9414C30.2266 21.9865 30.2389 22.0234 30.2539 22.0234C30.2689 22.0234 30.2812 22.0604 30.2812 22.1055C30.2812 22.1506 30.2936 22.1875 30.3086 22.1875C30.3236 22.1875 30.3359 22.2244 30.3359 22.2695C30.3359 22.3146 30.3482 22.3516 30.3633 22.3516C30.3783 22.3516 30.3906 22.3885 30.3906 22.4336V22.5156H30.0352C29.8164 22.5156 29.6797 22.5262 29.6797 22.543C29.6797 22.558 29.6428 22.5703 29.5977 22.5703C29.5525 22.5703 29.5156 22.5826 29.5156 22.5977C29.5156 22.6127 29.491 22.625 29.4609 22.625C29.4309 22.625 29.4062 22.6373 29.4062 22.6523C29.4062 22.6674 29.3816 22.6797 29.3516 22.6797C29.3215 22.6797 29.2969 22.692 29.2969 22.707C29.2969 22.7221 29.2723 22.7344 29.2422 22.7344C29.2121 22.7344 29.1875 22.7467 29.1875 22.7617C29.1875 22.7768 29.1629 22.7891 29.1328 22.7891C29.1027 22.7891 29.0781 22.8014 29.0781 22.8164C29.0781 22.8314 29.0535 22.8438 29.0234 22.8438C28.9934 22.8438 28.9688 22.8561 28.9688 22.8711C28.9688 22.8861 28.9441 22.8984 28.9141 22.8984C28.884 22.8984 28.8594 22.9107 28.8594 22.9258C28.8594 22.9408 28.8348 22.9531 28.8047 22.9531C28.7746 22.9531 28.75 22.9654 28.75 22.9805C28.75 22.9955 28.7254 23.0078 28.6953 23.0078C28.6652 23.0078 28.6406 23.0201 28.6406 23.0352C28.6406 23.0502 28.616 23.0625 28.5859 23.0625C28.5559 23.0625 28.5312 23.0748 28.5312 23.0898C28.5312 23.1049 28.5066 23.1172 28.4766 23.1172C28.4465 23.1172 28.4219 23.1295 28.4219 23.1445C28.4219 23.1596 28.3973 23.1719 28.3672 23.1719C28.3371 23.1719 28.3125 23.1842 28.3125 23.1992C28.3125 23.2143 28.2879 23.2266 28.2578 23.2266C28.2277 23.2266 28.2031 23.2389 28.2031 23.2539C28.2031 23.2689 28.1785 23.2812 28.1484 23.2812C28.1184 23.2812 28.0938 23.2936 28.0938 23.3086C28.0938 23.3236 28.0691 23.3359 28.0391 23.3359C28.009 23.3359 27.9844 23.3482 27.9844 23.3633C27.9844 23.3783 27.9598 23.3906 27.9297 23.3906C27.8996 23.3906 27.875 23.4029 27.875 23.418C27.875 23.433 27.8504 23.4453 27.8203 23.4453C27.7902 23.4453 27.7656 23.4576 27.7656 23.4727C27.7656 23.4877 27.741 23.5 27.7109 23.5C27.6809 23.5 27.6562 23.5123 27.6562 23.5273C27.6562 23.5424 27.6316 23.5547 27.6016 23.5547C27.5715 23.5547 27.5469 23.567 27.5469 23.582C27.5469 23.5971 27.5223 23.6094 27.4922 23.6094C27.4621 23.6094 27.4375 23.6217 27.4375 23.6367C27.4375 23.6518 27.4129 23.6641 27.3828 23.6641C27.3527 23.6641 27.3281 23.6764 27.3281 23.6914C27.3281 23.7064 27.3035 23.7188 27.2734 23.7188C27.2434 23.7188 27.2188 23.7311 27.2188 23.7461C27.2188 23.7611 27.1941 23.7734 27.1641 23.7734C27.134 23.7734 27.1094 23.7857 27.1094 23.8008C27.1094 23.8158 27.0848 23.8281 27.0547 23.8281C27.0246 23.8281 27 23.8404 27 23.8555C27 23.8705 26.9754 23.8828 26.9453 23.8828C26.9152 23.8828 26.8906 23.8951 26.8906 23.9102C26.8906 23.9252 26.866 23.9375 26.8359 23.9375C26.8059 23.9375 26.7812 23.9498 26.7812 23.9648C26.7812 23.9799 26.7566 23.9922 26.7266 23.9922C26.6965 23.9922 26.6719 24.0045 26.6719 24.0195C26.6719 24.0346 26.6473 24.0469 26.6172 24.0469C26.5871 24.0469 26.5625 24.0592 26.5625 24.0742C26.5625 24.0893 26.5379 24.1016 26.5078 24.1016C26.4777 24.1016 26.4531 24.1139 26.4531 24.1289C26.4531 24.147 25.3867 24.1562 23.3086 24.1562C21.2305 24.1562 20.1641 24.147 20.1641 24.1289C20.1641 24.1139 20.1395 24.1016 20.1094 24.1016C20.0793 24.1016 20.0547 24.0893 20.0547 24.0742C20.0547 24.0592 20.0301 24.0469 20 24.0469C19.9699 24.0469 19.9453 24.0346 19.9453 24.0195C19.9453 24.0045 19.9084 23.9922 19.8633 23.9922C19.8182 23.9922 19.7812 23.9799 19.7812 23.9648C19.7812 23.9498 19.7566 23.9375 19.7266 23.9375C19.6965 23.9375 19.6719 23.9252 19.6719 23.9102C19.6719 23.8951 19.6473 23.8828 19.6172 23.8828C19.5871 23.8828 19.5625 23.8705 19.5625 23.8555C19.5625 23.8404 19.5379 23.8281 19.5078 23.8281C19.4777 23.8281 19.4531 23.8158 19.4531 23.8008C19.4531 23.7857 19.4285 23.7734 19.3984 23.7734C19.3684 23.7734 19.3438 23.7611 19.3438 23.7461C19.3438 23.7311 19.3191 23.7188 19.2891 23.7188C19.259 23.7188 19.2344 23.7064 19.2344 23.6914C19.2344 23.6764 19.2098 23.6641 19.1797 23.6641C19.1496 23.6641 19.125 23.6518 19.125 23.6367C19.125 23.6217 19.1004 23.6094 19.0703 23.6094C19.0402 23.6094 19.0156 23.5971 19.0156 23.582C19.0156 23.567 18.991 23.5547 18.9609 23.5547C18.9309 23.5547 18.9062 23.5424 18.9062 23.5273C18.9062 23.5123 18.8816 23.5 18.8516 23.5C18.8215 23.5 18.7969 23.4877 18.7969 23.4727C18.7969 23.4576 18.7723 23.4453 18.7422 23.4453C18.7121 23.4453 18.6875 23.433 18.6875 23.418C18.6875 23.4029 18.6629 23.3906 18.6328 23.3906C18.6027 23.3906 18.5781 23.3783 18.5781 23.3633C18.5781 23.3482 18.5535 23.3359 18.5234 23.3359C18.4934 23.3359 18.4688 23.3236 18.4688 23.3086C18.4688 23.2936 18.4441 23.2812 18.4141 23.2812C18.384 23.2812 18.3594 23.2689 18.3594 23.2539C18.3594 23.2389 18.3348 23.2266 18.3047 23.2266C18.2746 23.2266 18.25 23.2143 18.25 23.1992C18.25 23.1842 18.2254 23.1719 18.1953 23.1719C18.1652 23.1719 18.1406 23.1596 18.1406 23.1445C18.1406 23.1295 18.116 23.1172 18.0859 23.1172C18.0559 23.1172 18.0312 23.1049 18.0312 23.0898C18.0312 23.0748 18.0066 23.0625 17.9766 23.0625C17.9465 23.0625 17.9219 23.0502 17.9219 23.0352C17.9219 23.0201 17.8973 23.0078 17.8672 23.0078C17.8371 23.0078 17.8125 22.9955 17.8125 22.9805C17.8125 22.9654 17.7879 22.9531 17.7578 22.9531C17.7277 22.9531 17.7031 22.9408 17.7031 22.9258C17.7031 22.9107 17.6785 22.8984 17.6484 22.8984C17.6184 22.8984 17.5938 22.8861 17.5938 22.8711C17.5938 22.8561 17.5691 22.8438 17.5391 22.8438C17.509 22.8438 17.4844 22.8314 17.4844 22.8164C17.4844 22.8014 17.4598 22.7891 17.4297 22.7891C17.3996 22.7891 17.375 22.7768 17.375 22.7617C17.375 22.7467 17.3504 22.7344 17.3203 22.7344C17.2902 22.7344 17.2656 22.7221 17.2656 22.707C17.2656 22.692 17.241 22.6797 17.2109 22.6797C17.1809 22.6797 17.1562 22.6674 17.1562 22.6523C17.1562 22.6373 17.1316 22.625 17.1016 22.625C17.0715 22.625 17.0469 22.6127 17.0469 22.5977C17.0469 22.5826 17.01 22.5703 16.9648 22.5703C16.9197 22.5703 16.8828 22.558 16.8828 22.543C16.8828 22.5262 16.7461 22.5156 16.5273 22.5156H16.1719V22.4336C16.1719 22.3885 16.1842 22.3516 16.1992 22.3516C16.2143 22.3516 16.2266 22.3146 16.2266 22.2695C16.2266 22.2244 16.2389 22.1875 16.2539 22.1875C16.2689 22.1875 16.2812 22.1506 16.2812 22.1055C16.2812 22.0604 16.2936 22.0234 16.3086 22.0234C16.3236 22.0234 16.3359 21.9865 16.3359 21.9414C16.3359 21.8963 16.3482 21.8594 16.3633 21.8594C16.3783 21.8594 16.3906 21.8225 16.3906 21.7773C16.3906 21.7322 16.4029 21.6953 16.418 21.6953C16.433 21.6953 16.4453 21.6584 16.4453 21.6133C16.4453 21.5682 16.4576 21.5312 16.4727 21.5312C16.4877 21.5312 16.5 21.4943 16.5 21.4492C16.5 21.4041 16.5123 21.3672 16.5273 21.3672C16.5424 21.3672 16.5547 21.3303 16.5547 21.2852C16.5547 21.24 16.567 21.2031 16.582 21.2031C16.5971 21.2031 16.6094 21.1662 16.6094 21.1211C16.6094 21.076 16.6217 21.0391 16.6367 21.0391C16.6518 21.0391 16.6641 21.0021 16.6641 20.957C16.6641 20.9119 16.6764 20.875 16.6914 20.875C16.7064 20.875 16.7188 20.8258 16.7188 20.7656C16.7188 20.7055 16.7311 20.6562 16.7461 20.6562C16.7611 20.6562 16.7734 20.6193 16.7734 20.5742C16.7734 20.5291 16.7857 20.4922 16.8008 20.4922C16.8158 20.4922 16.8281 20.4553 16.8281 20.4102C16.8281 20.365 16.8404 20.3281 16.8555 20.3281C16.8705 20.3281 16.8828 20.2912 16.8828 20.2461C16.8828 20.201 16.8951 20.1641 16.9102 20.1641C16.9252 20.1641 16.9375 20.1271 16.9375 20.082C16.9375 20.0369 16.9498 20 16.9648 20C16.9799 20 16.9922 19.9631 16.9922 19.918C16.9922 19.8729 17.0045 19.8359 17.0195 19.8359C17.0346 19.8359 17.0469 19.799 17.0469 19.7539C17.0469 19.7088 17.0592 19.6719 17.0742 19.6719C17.0893 19.6719 17.1016 19.6473 17.1016 19.6172C17.1016 19.5871 17.1139 19.5625 17.1289 19.5625C17.1439 19.5625 17.1562 19.5437 17.1562 19.5208C17.1562 19.4665 17.3884 19.2344 17.4426 19.2344C17.4656 19.2344 17.4844 19.2221 17.4844 19.207C17.4844 19.192 17.5213 19.1797 17.5664 19.1797C17.6115 19.1797 17.6484 19.1674 17.6484 19.1523C17.6484 19.1342 19.5443 19.125 23.2812 19.125C27.0182 19.125 28.9141 19.1342 28.9141 19.1523ZM16.5547 24.1836C16.5547 24.1986 16.5793 24.2109 16.6094 24.2109C16.6395 24.2109 16.6641 24.2232 16.6641 24.2383C16.6641 24.2533 16.6887 24.2656 16.7188 24.2656C16.7488 24.2656 16.7734 24.2779 16.7734 24.293C16.7734 24.308 16.798 24.3203 16.8281 24.3203C16.8582 24.3203 16.8828 24.3326 16.8828 24.3477C16.8828 24.3627 16.9074 24.375 16.9375 24.375C16.9676 24.375 16.9922 24.3873 16.9922 24.4023C16.9922 24.4174 17.0168 24.4297 17.0469 24.4297C17.077 24.4297 17.1016 24.442 17.1016 24.457C17.1016 24.4721 17.1262 24.4844 17.1562 24.4844C17.1863 24.4844 17.2109 24.4967 17.2109 24.5117C17.2109 24.5268 17.2355 24.5391 17.2656 24.5391C17.2957 24.5391 17.3203 24.5514 17.3203 24.5664C17.3203 24.5814 17.3449 24.5938 17.375 24.5938C17.4051 24.5938 17.4297 24.6061 17.4297 24.6211C17.4297 24.6361 17.4543 24.6484 17.4844 24.6484C17.5145 24.6484 17.5391 24.6607 17.5391 24.6758C17.5391 24.6908 17.5637 24.7031 17.5938 24.7031C17.6238 24.7031 17.6484 24.7154 17.6484 24.7305C17.6484 24.7455 17.673 24.7578 17.7031 24.7578C17.7332 24.7578 17.7578 24.7701 17.7578 24.7852C17.7578 24.8002 17.7824 24.8125 17.8125 24.8125C17.8426 24.8125 17.8672 24.8248 17.8672 24.8398C17.8672 24.8549 17.8918 24.8672 17.9219 24.8672C17.952 24.8672 17.9766 24.8795 17.9766 24.8945C17.9766 24.9096 18.0012 24.9219 18.0312 24.9219C18.0613 24.9219 18.0859 24.9342 18.0859 24.9492C18.0859 24.9643 18.1105 24.9766 18.1406 24.9766C18.1707 24.9766 18.1953 24.9889 18.1953 25.0039C18.1953 25.0189 18.2199 25.0312 18.25 25.0312C18.2801 25.0312 18.3047 25.0436 18.3047 25.0586C18.3047 25.0736 18.3293 25.0859 18.3594 25.0859C18.3895 25.0859 18.4141 25.0982 18.4141 25.1133C18.4141 25.1283 18.4387 25.1406 18.4688 25.1406C18.4988 25.1406 18.5234 25.1529 18.5234 25.168C18.5234 25.183 18.548 25.1953 18.5781 25.1953C18.6082 25.1953 18.6328 25.2076 18.6328 25.2227C18.6328 25.2377 18.6574 25.25 18.6875 25.25C18.7176 25.25 18.7422 25.2623 18.7422 25.2773C18.7422 25.2924 18.7668 25.3047 18.7969 25.3047C18.827 25.3047 18.8516 25.317 18.8516 25.332C18.8516 25.3471 18.8762 25.3594 18.9062 25.3594C18.9363 25.3594 18.9609 25.3717 18.9609 25.3867C18.9609 25.4018 18.9855 25.4141 19.0156 25.4141C19.0457 25.4141 19.0703 25.4264 19.0703 25.4414C19.0703 25.4564 19.0949 25.4688 19.125 25.4688C19.1551 25.4688 19.1797 25.4811 19.1797 25.4961C19.1797 25.5111 19.2043 25.5234 19.2344 25.5234C19.2645 25.5234 19.2891 25.5357 19.2891 25.5508C19.2891 25.5658 19.3137 25.5781 19.3438 25.5781C19.3738 25.5781 19.3984 25.5904 19.3984 25.6055C19.3984 25.6205 19.423 25.6328 19.4531 25.6328C19.4832 25.6328 19.5078 25.6451 19.5078 25.6602C19.5078 25.6752 19.5324 25.6875 19.5625 25.6875C19.5926 25.6875 19.6172 25.6998 19.6172 25.7148C19.6172 25.7299 19.6541 25.7422 19.6992 25.7422C19.7443 25.7422 19.7812 25.7545 19.7812 25.7695C19.7812 25.7876 20.9753 25.7969 23.3086 25.7969C25.6419 25.7969 26.8359 25.7876 26.8359 25.7695C26.8359 25.7545 26.8729 25.7422 26.918 25.7422C26.9631 25.7422 27 25.7299 27 25.7148C27 25.6998 27.0246 25.6875 27.0547 25.6875C27.0848 25.6875 27.1094 25.6752 27.1094 25.6602C27.1094 25.6451 27.134 25.6328 27.1641 25.6328C27.1941 25.6328 27.2188 25.6205 27.2188 25.6055C27.2188 25.5904 27.2434 25.5781 27.2734 25.5781C27.3035 25.5781 27.3281 25.5658 27.3281 25.5508C27.3281 25.5357 27.3527 25.5234 27.3828 25.5234C27.4129 25.5234 27.4375 25.5111 27.4375 25.4961C27.4375 25.4811 27.4621 25.4688 27.4922 25.4688C27.5223 25.4688 27.5469 25.4564 27.5469 25.4414C27.5469 25.4264 27.5715 25.4141 27.6016 25.4141C27.6316 25.4141 27.6562 25.4018 27.6562 25.3867C27.6562 25.3717 27.6809 25.3594 27.7109 25.3594C27.741 25.3594 27.7656 25.3471 27.7656 25.332C27.7656 25.317 27.7902 25.3047 27.8203 25.3047C27.8504 25.3047 27.875 25.2924 27.875 25.2773C27.875 25.2623 27.8996 25.25 27.9297 25.25C27.9598 25.25 27.9844 25.2377 27.9844 25.2227C27.9844 25.2076 28.009 25.1953 28.0391 25.1953C28.0691 25.1953 28.0938 25.183 28.0938 25.168C28.0938 25.1529 28.1184 25.1406 28.1484 25.1406C28.1785 25.1406 28.2031 25.1283 28.2031 25.1133C28.2031 25.0982 28.2277 25.0859 28.2578 25.0859C28.2879 25.0859 28.3125 25.0736 28.3125 25.0586C28.3125 25.0436 28.3371 25.0312 28.3672 25.0312C28.3973 25.0312 28.4219 25.0189 28.4219 25.0039C28.4219 24.9889 28.4465 24.9766 28.4766 24.9766C28.5066 24.9766 28.5312 24.9643 28.5312 24.9492C28.5312 24.9342 28.5559 24.9219 28.5859 24.9219C28.616 24.9219 28.6406 24.9096 28.6406 24.8945C28.6406 24.8795 28.6652 24.8672 28.6953 24.8672C28.7254 24.8672 28.75 24.8549 28.75 24.8398C28.75 24.8248 28.7746 24.8125 28.8047 24.8125C28.8348 24.8125 28.8594 24.8002 28.8594 24.7852C28.8594 24.7701 28.884 24.7578 28.9141 24.7578C28.9441 24.7578 28.9688 24.7455 28.9688 24.7305C28.9688 24.7154 28.9934 24.7031 29.0234 24.7031C29.0535 24.7031 29.0781 24.6908 29.0781 24.6758C29.0781 24.6607 29.1027 24.6484 29.1328 24.6484C29.1629 24.6484 29.1875 24.6361 29.1875 24.6211C29.1875 24.6061 29.2121 24.5938 29.2422 24.5938C29.2723 24.5938 29.2969 24.5814 29.2969 24.5664C29.2969 24.5514 29.3215 24.5391 29.3516 24.5391C29.3816 24.5391 29.4062 24.5268 29.4062 24.5117C29.4062 24.4967 29.4309 24.4844 29.4609 24.4844C29.491 24.4844 29.5156 24.4721 29.5156 24.457C29.5156 24.442 29.5402 24.4297 29.5703 24.4297C29.6004 24.4297 29.625 24.4174 29.625 24.4023C29.625 24.3873 29.6496 24.375 29.6797 24.375C29.7098 24.375 29.7344 24.3627 29.7344 24.3477C29.7344 24.3326 29.759 24.3203 29.7891 24.3203C29.8191 24.3203 29.8438 24.308 29.8438 24.293C29.8438 24.2779 29.8684 24.2656 29.8984 24.2656C29.9285 24.2656 29.9531 24.2533 29.9531 24.2383C29.9531 24.2232 29.9777 24.2109 30.0078 24.2109C30.0379 24.2109 30.0625 24.1986 30.0625 24.1836C30.0625 24.1663 30.2676 24.1562 30.6232 24.1562H31.1839L31.7716 24.744L32.3594 25.3317V25.5643V25.7969H31.0195C30.1445 25.7969 29.6797 25.8064 29.6797 25.8242C29.6797 25.8393 29.6551 25.8516 29.625 25.8516C29.5949 25.8516 29.5703 25.8639 29.5703 25.8789C29.5703 25.8939 29.5457 25.9062 29.5156 25.9062C29.4855 25.9062 29.4609 25.9186 29.4609 25.9336C29.4609 25.9486 29.4419 25.9609 29.4187 25.9609C29.364 25.9609 29.2422 26.0827 29.2422 26.1374C29.2422 26.1607 29.2299 26.1797 29.2148 26.1797C29.1998 26.1797 29.1875 26.2043 29.1875 26.2344C29.1875 26.2645 29.1752 26.2891 29.1602 26.2891C29.1451 26.2891 29.1328 26.3137 29.1328 26.3438C29.1328 26.3738 29.1205 26.3984 29.1055 26.3984C29.0895 26.3984 29.0781 26.4896 29.0781 26.6172C29.0781 26.7448 29.0895 26.8359 29.1055 26.8359C29.1205 26.8359 29.1328 26.8605 29.1328 26.8906C29.1328 26.9207 29.1451 26.9453 29.1602 26.9453C29.1752 26.9453 29.1875 26.9699 29.1875 27C29.1875 27.0301 29.1998 27.0547 29.2148 27.0547C29.2299 27.0547 29.2422 27.0737 29.2422 27.0969C29.2422 27.1516 29.364 27.2734 29.4187 27.2734C29.4419 27.2734 29.4609 27.2857 29.4609 27.3008C29.4609 27.3158 29.4855 27.3281 29.5156 27.3281C29.5457 27.3281 29.5703 27.3404 29.5703 27.3555C29.5703 27.3705 29.5949 27.3828 29.625 27.3828C29.6551 27.3828 29.6797 27.3951 29.6797 27.4102C29.6797 27.428 30.1445 27.4375 31.0195 27.4375H32.3594V27.957C32.3594 28.2852 32.3493 28.4766 32.332 28.4766C32.317 28.4766 32.3047 28.5012 32.3047 28.5312C32.3047 28.5613 32.2924 28.5859 32.2773 28.5859C32.2623 28.5859 32.25 28.6078 32.25 28.6346C32.25 28.6614 32.2254 28.701 32.1953 28.7227C32.1652 28.7443 32.1406 28.7787 32.1406 28.799C32.1406 28.8491 32.0722 28.9141 32.0195 28.9141C31.9959 28.9141 31.9766 28.9264 31.9766 28.9414C31.9766 28.9564 31.952 28.9688 31.9219 28.9688C31.8918 28.9688 31.8672 28.9811 31.8672 28.9961C31.8672 29.0111 31.8426 29.0234 31.8125 29.0234C31.7824 29.0234 31.7578 29.0357 31.7578 29.0508C31.7578 29.0689 30.737 29.0781 28.75 29.0781H25.7422V28.5586C25.7422 28.2305 25.7321 28.0391 25.7148 28.0391C25.6998 28.0391 25.6875 28.0145 25.6875 27.9844C25.6875 27.9543 25.6752 27.9297 25.6602 27.9297C25.6451 27.9297 25.6328 27.9051 25.6328 27.875C25.6328 27.8449 25.6205 27.8203 25.6055 27.8203C25.5904 27.8203 25.5781 27.8013 25.5781 27.7781C25.5781 27.7234 25.4563 27.6016 25.4016 27.6016C25.3784 27.6016 25.3594 27.5893 25.3594 27.5742C25.3594 27.5592 25.3348 27.5469 25.3047 27.5469C25.2746 27.5469 25.25 27.5346 25.25 27.5195C25.25 27.5045 25.2254 27.4922 25.1953 27.4922C25.1652 27.4922 25.1406 27.4799 25.1406 27.4648C25.1406 27.4489 25.0495 27.4375 24.9219 27.4375C24.7943 27.4375 24.7031 27.4489 24.7031 27.4648C24.7031 27.4799 24.6785 27.4922 24.6484 27.4922C24.6184 27.4922 24.5938 27.5045 24.5938 27.5195C24.5938 27.5346 24.5691 27.5469 24.5391 27.5469C24.509 27.5469 24.4844 27.5592 24.4844 27.5742C24.4844 27.5893 24.4654 27.6016 24.4421 27.6016C24.3874 27.6016 24.2656 27.7234 24.2656 27.7781C24.2656 27.8013 24.2533 27.8203 24.2383 27.8203C24.2232 27.8203 24.2109 27.8449 24.2109 27.875C24.2109 27.9051 24.1986 27.9297 24.1836 27.9297C24.1686 27.9297 24.1562 27.9543 24.1562 27.9844C24.1562 28.0145 24.1439 28.0391 24.1289 28.0391C24.1116 28.0391 24.1016 28.2305 24.1016 28.5586V29.0781H23.2812H22.4609V28.5586C22.4609 28.2305 22.4509 28.0391 22.4336 28.0391C22.4186 28.0391 22.4062 28.0145 22.4062 27.9844C22.4062 27.9543 22.3939 27.9297 22.3789 27.9297C22.3639 27.9297 22.3516 27.9051 22.3516 27.875C22.3516 27.8449 22.3393 27.8203 22.3242 27.8203C22.3092 27.8203 22.2969 27.8013 22.2969 27.7781C22.2969 27.7234 22.1751 27.6016 22.1204 27.6016C22.0971 27.6016 22.0781 27.5893 22.0781 27.5742C22.0781 27.5592 22.0535 27.5469 22.0234 27.5469C21.9934 27.5469 21.9688 27.5346 21.9688 27.5195C21.9688 27.5045 21.9441 27.4922 21.9141 27.4922C21.884 27.4922 21.8594 27.4799 21.8594 27.4648C21.8594 27.4489 21.7682 27.4375 21.6406 27.4375C21.513 27.4375 21.4219 27.4489 21.4219 27.4648C21.4219 27.4799 21.3973 27.4922 21.3672 27.4922C21.3371 27.4922 21.3125 27.5045 21.3125 27.5195C21.3125 27.5346 21.2879 27.5469 21.2578 27.5469C21.2277 27.5469 21.2031 27.5592 21.2031 27.5742C21.2031 27.5893 21.1841 27.6016 21.1609 27.6016C21.1062 27.6016 20.9844 27.7234 20.9844 27.7781C20.9844 27.8013 20.9721 27.8203 20.957 27.8203C20.942 27.8203 20.9297 27.8449 20.9297 27.875C20.9297 27.9051 20.9174 27.9297 20.9023 27.9297C20.8873 27.9297 20.875 27.9543 20.875 27.9844C20.875 28.0145 20.8627 28.0391 20.8477 28.0391C20.8304 28.0391 20.8203 28.2305 20.8203 28.5586V29.0781H17.8125C15.8255 29.0781 14.8047 29.0689 14.8047 29.0508C14.8047 29.0357 14.7801 29.0234 14.75 29.0234C14.7199 29.0234 14.6953 29.0111 14.6953 28.9961C14.6953 28.9811 14.6707 28.9688 14.6406 28.9688C14.6105 28.9688 14.5859 28.9564 14.5859 28.9414C14.5859 28.9264 14.5669 28.9141 14.5437 28.9141C14.489 28.9141 14.3672 28.7923 14.3672 28.7376C14.3672 28.7143 14.3549 28.6953 14.3398 28.6953C14.3248 28.6953 14.3125 28.6707 14.3125 28.6406C14.3125 28.6105 14.3002 28.5859 14.2852 28.5859C14.2701 28.5859 14.2578 28.5613 14.2578 28.5312C14.2578 28.5012 14.2455 28.4766 14.2305 28.4766C14.2132 28.4766 14.2031 28.2852 14.2031 27.957V27.4375H15.543C16.418 27.4375 16.8828 27.428 16.8828 27.4102C16.8828 27.3951 16.9074 27.3828 16.9375 27.3828C16.9676 27.3828 16.9922 27.3705 16.9922 27.3555C16.9922 27.3404 17.0168 27.3281 17.0469 27.3281C17.077 27.3281 17.1016 27.3158 17.1016 27.3008C17.1016 27.2857 17.1206 27.2734 17.1438 27.2734C17.1985 27.2734 17.3203 27.1516 17.3203 27.0969C17.3203 27.0737 17.3326 27.0547 17.3477 27.0547C17.3627 27.0547 17.375 27.0301 17.375 27C17.375 26.9699 17.3873 26.9453 17.4023 26.9453C17.4174 26.9453 17.4297 26.9207 17.4297 26.8906C17.4297 26.8605 17.442 26.8359 17.457 26.8359C17.473 26.8359 17.4844 26.7448 17.4844 26.6172C17.4844 26.4896 17.473 26.3984 17.457 26.3984C17.442 26.3984 17.4297 26.3738 17.4297 26.3438C17.4297 26.3137 17.4174 26.2891 17.4023 26.2891C17.3873 26.2891 17.375 26.2645 17.375 26.2344C17.375 26.2043 17.3627 26.1797 17.3477 26.1797C17.3326 26.1797 17.3203 26.1607 17.3203 26.1374C17.3203 26.0827 17.1985 25.9609 17.1438 25.9609C17.1206 25.9609 17.1016 25.9486 17.1016 25.9336C17.1016 25.9186 17.077 25.9062 17.0469 25.9062C17.0168 25.9062 16.9922 25.8939 16.9922 25.8789C16.9922 25.8639 16.9676 25.8516 16.9375 25.8516C16.9074 25.8516 16.8828 25.8393 16.8828 25.8242C16.8828 25.8064 16.418 25.7969 15.543 25.7969H14.2031V25.5643V25.3317L14.7842 24.7462L15.3652 24.1607L15.96 24.1585C16.3397 24.157 16.5547 24.1661 16.5547 24.1836ZM17.4844 31.5391V32.3594H16.6641H15.8438V31.5391V30.7188H16.6641H17.4844V31.5391ZM30.7188 31.5391V32.3594H29.8984H29.0781V31.5391V30.7188H29.8984H30.7188V31.5391Z" fill="#DD2A1B"/>
</svg>
