<svg width="40" height="40" viewBox="0 0 40 40" fill="none" xmlns="http://www.w3.org/2000/svg">
<path fill-rule="evenodd" clip-rule="evenodd" d="M32.9492 17.4258H29.668V8.05078C29.668 6.91998 28.748 6 27.6172 6H14.1406C13.0098 6 12.0898 6.91998 12.0898 8.05078V13.9102H7.05078C5.91998 13.9102 5 14.8301 5 15.9609V24.1641C5 25.2949 5.91998 26.2148 7.05078 26.2148H8.57422V29.7305C8.57422 30.5105 9.52139 30.9053 10.0746 30.3519L14.2117 26.2148H16.4844V27.6797C16.4844 28.8105 17.4044 29.7305 18.5352 29.7305H25.7883L29.9254 33.8675C30.4753 34.4176 31.4258 34.0295 31.4258 33.2461V29.7305H32.9492C34.08 29.7305 35 28.8105 35 27.6797V19.4766C35 18.3458 34.08 17.4258 32.9492 17.4258ZM13.8477 8.05078C13.8477 7.88924 13.9791 7.75781 14.1406 7.75781H27.6172C27.7787 7.75781 27.9102 7.88924 27.9102 8.05078V17.4258H22.6367V15.9609C22.6367 14.8301 21.7167 13.9102 20.5859 13.9102H13.8477V8.05078ZM13.8477 24.457C13.6146 24.457 13.391 24.5497 13.2262 24.7145L10.332 27.6086V25.3359C10.332 24.8505 9.93852 24.457 9.45312 24.457H7.05078C6.88924 24.457 6.75781 24.3256 6.75781 24.1641V15.9609C6.75781 15.7994 6.88924 15.668 7.05078 15.668H20.5859C20.7475 15.668 20.8789 15.7994 20.8789 15.9609V24.1641C20.8789 24.3256 20.7475 24.457 20.5859 24.457H13.8477ZM33.2422 27.6797C33.2422 27.8412 33.1108 27.9727 32.9492 27.9727H30.5469C30.0615 27.9727 29.668 28.3662 29.668 28.8516V31.1242L26.7738 28.2301C26.609 28.0653 26.3854 27.9727 26.1523 27.9727H18.5352C18.3736 27.9727 18.2422 27.8412 18.2422 27.6797V26.2148H20.5859C21.7167 26.2148 22.6367 25.2949 22.6367 24.1641V19.1836H32.9492C33.1108 19.1836 33.2422 19.315 33.2422 19.4766V27.6797ZM13.8477 20.9414C14.3331 20.9414 14.7266 20.5479 14.7266 20.0625C14.7266 19.5771 14.3331 19.1836 13.8477 19.1836C13.3622 19.1836 12.9688 19.5771 12.9688 20.0625C12.9688 20.5479 13.3622 20.9414 13.8477 20.9414ZM18.2422 20.0625C18.2422 20.5479 17.8487 20.9414 17.3633 20.9414C16.8779 20.9414 16.4844 20.5479 16.4844 20.0625C16.4844 19.5771 16.8779 19.1836 17.3633 19.1836C17.8487 19.1836 18.2422 19.5771 18.2422 20.0625ZM10.332 20.9414C10.8174 20.9414 11.2109 20.5479 11.2109 20.0625C11.2109 19.5771 10.8174 19.1836 10.332 19.1836C9.84662 19.1836 9.45312 19.5771 9.45312 20.0625C9.45312 20.5479 9.84662 20.9414 10.332 20.9414ZM26.1523 23.5781C26.1523 24.0635 25.7588 24.457 25.2734 24.457C24.788 24.457 24.3945 24.0635 24.3945 23.5781C24.3945 23.0927 24.788 22.6992 25.2734 22.6992C25.7588 22.6992 26.1523 23.0927 26.1523 23.5781ZM28.7891 24.457C29.2745 24.457 29.668 24.0635 29.668 23.5781C29.668 23.0927 29.2745 22.6992 28.7891 22.6992C28.3037 22.6992 27.9102 23.0927 27.9102 23.5781C27.9102 24.0635 28.3037 24.457 28.7891 24.457ZM21.7578 11.2734C21.7578 11.7588 21.3643 12.1523 20.8789 12.1523C20.3935 12.1523 20 11.7588 20 11.2734C20 10.788 20.3935 10.3945 20.8789 10.3945C21.3643 10.3945 21.7578 10.788 21.7578 11.2734ZM24.3945 12.1523C24.8799 12.1523 25.2734 11.7588 25.2734 11.2734C25.2734 10.788 24.8799 10.3945 24.3945 10.3945C23.9091 10.3945 23.5156 10.788 23.5156 11.2734C23.5156 11.7588 23.9091 12.1523 24.3945 12.1523ZM18.2422 11.2734C18.2422 11.7588 17.8487 12.1523 17.3633 12.1523C16.8779 12.1523 16.4844 11.7588 16.4844 11.2734C16.4844 10.788 16.8779 10.3945 17.3633 10.3945C17.8487 10.3945 18.2422 10.788 18.2422 11.2734Z" fill="#FF6F00"/>
</svg>
