<svg width="40" height="40" viewBox="0 0 40 40" fill="none" xmlns="http://www.w3.org/2000/svg">
<path d="M29.0469 26.0156H28.1875V20C28.1875 16.5118 25.8662 13.5559 22.6872 12.5951C22.8522 12.2623 22.9453 11.888 22.9453 11.4922C22.9453 10.118 21.8273 9 20.4531 9C19.079 9 17.9609 10.118 17.9609 11.4922C17.9609 11.888 18.0541 12.2623 18.2191 12.5951C15.0401 13.5559 12.7188 16.5118 12.7188 20V26.0156H11.8594C11.3847 26.0156 11 26.4003 11 26.875C11 27.3497 11.3847 27.7344 11.8594 27.7344H16.2466C16.643 29.5978 18.3013 31 20.2812 31H20.625C22.6049 31 24.2632 29.5978 24.6597 27.7344H29.0469C29.5215 27.7344 29.9062 27.3497 29.9062 26.875C29.9062 26.4003 29.5215 26.0156 29.0469 26.0156ZM19.6797 11.4922C19.6797 11.0657 20.0266 10.7188 20.4531 10.7188C20.8796 10.7188 21.2266 11.0657 21.2266 11.4922C21.2266 11.9187 20.8796 12.2656 20.4531 12.2656C20.0266 12.2656 19.6797 11.9187 19.6797 11.4922ZM20.625 29.2812H20.2812C19.257 29.2812 18.3802 28.6381 18.0336 27.7344H22.8726C22.526 28.6381 21.6492 29.2812 20.625 29.2812ZM14.4375 26.0156V20C14.4375 16.683 17.1361 13.9844 20.4531 13.9844C23.7701 13.9844 26.4688 16.683 26.4688 20V26.0156C25.301 26.0156 14.8917 26.0156 14.4375 26.0156Z" fill="#5F5F5F"/>
</svg>
