<svg width="25" height="24" viewBox="0 0 25 24" fill="none" xmlns="http://www.w3.org/2000/svg">
<g opacity="1">
<path fill-rule="evenodd" clip-rule="evenodd" d="M18.9522 4.0001H21.0278C22.6846 4.0001 24.0319 5.34559 24.0319 7.00015V19.0005C24.0319 20.6551 22.6846 22.0006 21.0278 22.0006H3.00409C1.34729 22.0006 0 20.6544 0 18.9998L0.00806876 7.00388C0.00949555 5.35296 1.35462 4.00821 3.00699 4.00526L5.07963 4.00157L6.58096 1H17.4495L18.9522 4.0001ZM6.00739 12.2503C6.00739 15.5588 8.7027 18.2505 12.0156 18.2505C15.3284 18.2505 18.0237 15.5588 18.0237 12.2503C18.0237 8.94184 15.3284 6.25011 12.0156 6.25011C8.7027 6.25011 6.00739 8.94184 6.00739 12.2503ZM14.1402 14.3717C15.3134 13.2001 15.3134 11.3005 14.1402 10.1289C12.9671 8.95729 11.065 8.95729 9.89183 10.1289C8.71866 11.3005 8.71866 13.2001 9.89183 14.3717C11.065 15.5433 12.9671 15.5433 14.1402 14.3717Z" fill="#5F5F5F"/>
</g>
</svg>
