<svg width="40" height="40" viewBox="0 0 40 40" fill="none" xmlns="http://www.w3.org/2000/svg">
<path d="M31.2969 19.2969H30.8516C30.5029 13.8594 26.1406 9.49709 20.7031 9.14834V8.70312C20.7031 8.31481 20.3883 8 20 8C19.6117 8 19.2969 8.31481 19.2969 8.70312V9.14834C13.8594 9.49709 9.49713 13.8594 9.14839 19.2969H8.70312C8.31481 19.2969 8 19.6117 8 20C8 20.3883 8.31481 20.7031 8.70312 20.7031H9.14839C9.49718 26.1405 13.8595 30.5028 19.2969 30.8515V31.2969C19.2969 31.6852 19.6117 32 20 32C20.3883 32 20.7031 31.6852 20.7031 31.2969V30.8515C26.1405 30.5028 30.5028 26.1405 30.8516 20.7031H31.2969C31.6852 20.7031 32 20.3883 32 20C32 19.6117 31.6852 19.2969 31.2969 19.2969ZM20 29.4686C19.0097 29.4686 18.0546 29.3155 17.1567 29.0322L18.5829 24.6646C19.0315 24.8012 19.5073 24.8749 20 24.8749C20.4933 24.8749 20.9696 24.801 21.4187 24.6641L22.8446 29.0318C21.9463 29.3153 20.9907 29.4686 20 29.4686ZM20 23.4687C18.0873 23.4687 16.5313 21.9126 16.5313 20C16.5313 18.0873 18.0873 16.5312 20 16.5312C21.9127 16.5312 23.4687 18.0873 23.4687 20C23.4687 21.9126 21.9127 23.4687 20 23.4687ZM10.5313 20C10.5313 19.0097 10.6844 18.0546 10.9677 17.1566L15.3353 18.5828C15.1988 19.0315 15.125 19.5073 15.125 20C15.125 20.4932 15.1989 20.9695 15.3358 21.4186L10.9682 22.8446C10.6846 21.9463 10.5313 20.9907 10.5313 20ZM20 10.5312C20.9903 10.5312 21.9454 10.6844 22.8433 10.9676L21.4171 15.3353C20.9684 15.1988 20.4927 15.125 20 15.125C19.5067 15.125 19.0303 15.1989 18.5812 15.3358L17.1554 10.9681C18.0537 10.6845 19.0093 10.5312 20 10.5312ZM24.6642 18.5812L29.0319 17.1554C29.3154 18.0536 29.4687 19.0092 29.4687 20C29.4687 20.9902 29.3156 21.9454 29.0323 22.8433L24.6647 21.4171C24.8012 20.9684 24.875 20.4927 24.875 20C24.875 19.5067 24.8011 19.0303 24.6642 18.5812ZM28.508 15.8471L24.0571 17.3002C23.6983 16.7629 23.2358 16.3005 22.6983 15.942L24.1516 11.4914C26.0426 12.4178 27.5813 13.9562 28.508 15.8471ZM15.8471 11.492L17.3002 15.9429C16.7629 16.3016 16.3005 16.7641 15.942 17.3017L11.4914 15.8483C12.4179 13.9573 13.9563 12.4187 15.8471 11.492ZM11.492 24.1528L15.9429 22.6997C16.3016 23.237 16.7641 23.6994 17.3016 24.0579L15.8483 28.5085C13.9574 27.582 12.4187 26.0437 11.492 24.1528ZM24.1529 28.5079L22.6998 24.057C23.2371 23.6983 23.6994 23.2358 24.058 22.6983L28.5086 24.1516C27.5821 26.0426 26.0437 27.5812 24.1529 28.5079Z" fill="#5F5F5F"/>
</svg>
