<svg width="40" height="40" viewBox="0 0 40 40" fill="none" xmlns="http://www.w3.org/2000/svg">
<path fill-rule="evenodd" clip-rule="evenodd" d="M15.5664 5.0293C15.5664 5.04638 15.4688 5.05859 15.332 5.05859C15.1953 5.05859 15.0977 5.07081 15.0977 5.08789C15.0977 5.104 15.0317 5.11719 14.9512 5.11719C14.8706 5.11719 14.8047 5.13037 14.8047 5.14648C14.8047 5.1626 14.752 5.17578 14.6875 5.17578C14.623 5.17578 14.5703 5.18896 14.5703 5.20508C14.5703 5.22119 14.5176 5.23438 14.4531 5.23438C14.3887 5.23438 14.3359 5.24756 14.3359 5.26367C14.3359 5.27979 14.2964 5.29297 14.248 5.29297C14.1997 5.29297 14.1602 5.30615 14.1602 5.32227C14.1602 5.33838 14.1206 5.35156 14.0723 5.35156C14.0239 5.35156 13.9844 5.36475 13.9844 5.38086C13.9844 5.39697 13.958 5.41016 13.9258 5.41016C13.8936 5.41016 13.8672 5.42334 13.8672 5.43945C13.8672 5.45557 13.8276 5.46875 13.7793 5.46875C13.731 5.46875 13.6914 5.48193 13.6914 5.49805C13.6914 5.51416 13.665 5.52734 13.6328 5.52734C13.6006 5.52734 13.5742 5.54053 13.5742 5.55664C13.5742 5.57275 13.5479 5.58594 13.5156 5.58594C13.4834 5.58594 13.457 5.59912 13.457 5.61523C13.457 5.63135 13.4307 5.64453 13.3984 5.64453C13.3662 5.64453 13.3398 5.65771 13.3398 5.67383C13.3398 5.68994 13.3135 5.70312 13.2812 5.70312C13.249 5.70312 13.2227 5.71631 13.2227 5.73242C13.2227 5.74854 13.1992 5.76172 13.1705 5.76172C13.1419 5.76172 13.0994 5.78809 13.0762 5.82031C13.0529 5.85254 13.0105 5.87891 12.9818 5.87891C12.9532 5.87891 12.9297 5.89209 12.9297 5.9082C12.9297 5.92432 12.9062 5.9375 12.8776 5.9375C12.8489 5.9375 12.8064 5.96387 12.7832 5.99609C12.76 6.02832 12.7228 6.05469 12.7006 6.05469C12.6784 6.05469 12.6233 6.09424 12.5781 6.14258C12.533 6.19092 12.4802 6.23047 12.4609 6.23047C12.4416 6.23047 12.3889 6.27002 12.3438 6.31836C12.2986 6.3667 12.247 6.40625 12.2292 6.40625C12.1868 6.40625 11.4062 7.18681 11.4062 7.2292C11.4062 7.24704 11.3667 7.2986 11.3184 7.34375C11.27 7.3889 11.2305 7.44163 11.2305 7.46094C11.2305 7.48024 11.1909 7.53298 11.1426 7.57812C11.0942 7.62327 11.0547 7.67841 11.0547 7.70059C11.0547 7.72279 11.0283 7.75997 10.9961 7.7832C10.9639 7.80644 10.9375 7.84889 10.9375 7.87757C10.9375 7.90622 10.9243 7.92969 10.9082 7.92969C10.8921 7.92969 10.8789 7.95315 10.8789 7.98181C10.8789 8.01049 10.8525 8.05294 10.8203 8.07617C10.7881 8.0994 10.7617 8.14186 10.7617 8.17054C10.7617 8.19919 10.7485 8.22266 10.7324 8.22266C10.7163 8.22266 10.7031 8.24902 10.7031 8.28125C10.7031 8.31348 10.6899 8.33984 10.6738 8.33984C10.6577 8.33984 10.6445 8.36621 10.6445 8.39844C10.6445 8.43066 10.6313 8.45703 10.6152 8.45703C10.5991 8.45703 10.5859 8.4834 10.5859 8.51562C10.5859 8.54785 10.5728 8.57422 10.5566 8.57422C10.5405 8.57422 10.5273 8.60059 10.5273 8.63281C10.5273 8.66504 10.5142 8.69141 10.498 8.69141C10.4819 8.69141 10.4688 8.73096 10.4688 8.7793C10.4688 8.82764 10.4556 8.86719 10.4395 8.86719C10.4233 8.86719 10.4102 8.89355 10.4102 8.92578C10.4102 8.95801 10.397 8.98438 10.3809 8.98438C10.3647 8.98438 10.3516 9.02393 10.3516 9.07227C10.3516 9.12061 10.3384 9.16016 10.3223 9.16016C10.3062 9.16016 10.293 9.19971 10.293 9.24805C10.293 9.29639 10.2798 9.33594 10.2637 9.33594C10.2476 9.33594 10.2344 9.38867 10.2344 9.45312C10.2344 9.51758 10.2212 9.57031 10.2051 9.57031C10.189 9.57031 10.1758 9.62305 10.1758 9.6875C10.1758 9.75195 10.1626 9.80469 10.1465 9.80469C10.1304 9.80469 10.1172 9.87061 10.1172 9.95117C10.1172 10.0317 10.104 10.0977 10.0879 10.0977C10.0708 10.0977 10.0586 10.1953 10.0586 10.332C10.0586 10.4688 10.0464 10.5664 10.0293 10.5664C10.0108 10.5664 10 10.7812 10 11.1523C10 11.5234 10.0108 11.7383 10.0293 11.7383C10.046 11.7383 10.0586 11.8262 10.0586 11.9434C10.0586 12.0605 10.0712 12.1484 10.0879 12.1484C10.1042 12.1484 10.1172 12.2266 10.1172 12.3242C10.1172 12.4219 10.1302 12.5 10.1465 12.5C10.1626 12.5 10.1758 12.5527 10.1758 12.6172C10.1758 12.6816 10.189 12.7344 10.2051 12.7344C10.2212 12.7344 10.2344 12.7739 10.2344 12.8223C10.2344 12.8706 10.2476 12.9102 10.2637 12.9102C10.2798 12.9102 10.293 12.9497 10.293 12.998C10.293 13.0464 10.3062 13.0859 10.3223 13.0859C10.3384 13.0859 10.3516 13.1255 10.3516 13.1738C10.3516 13.2222 10.3647 13.2617 10.3809 13.2617C10.397 13.2617 10.4102 13.3013 10.4102 13.3496C10.4102 13.3979 10.4233 13.4375 10.4395 13.4375C10.4556 13.4375 10.4688 13.4639 10.4688 13.4961C10.4688 13.5283 10.4819 13.5547 10.498 13.5547C10.5142 13.5547 10.5273 13.5942 10.5273 13.6426C10.5273 13.6909 10.5405 13.7305 10.5566 13.7305C10.5728 13.7305 10.5859 13.7568 10.5859 13.7891C10.5859 13.8213 10.5991 13.8477 10.6152 13.8477C10.6313 13.8477 10.6445 13.8711 10.6445 13.8998C10.6445 13.9285 10.6709 13.9709 10.7031 13.9941C10.7354 14.0174 10.7617 14.0598 10.7617 14.0885C10.7617 14.1172 10.7749 14.1406 10.791 14.1406C10.8071 14.1406 10.8203 14.167 10.8203 14.1992C10.8203 14.2314 10.8335 14.2578 10.8496 14.2578C10.8657 14.2578 10.8789 14.2813 10.8789 14.3099C10.8789 14.3386 10.9053 14.3811 10.9375 14.4043C10.9697 14.4275 10.9961 14.4671 10.9961 14.4922C10.9961 14.5173 11.0225 14.5568 11.0547 14.5801C11.0869 14.6033 11.1133 14.6405 11.1133 14.6627C11.1133 14.6849 11.1528 14.74 11.2012 14.7852C11.2495 14.8303 11.2891 14.8826 11.2891 14.9013C11.2891 14.9201 11.355 14.9996 11.4355 15.0781C11.5161 15.1566 11.582 15.2351 11.582 15.2525C11.582 15.2938 12.0109 15.7227 12.0522 15.7227C12.0696 15.7227 12.1481 15.7886 12.2266 15.8691C12.305 15.9497 12.3846 16.0156 12.4033 16.0156C12.4221 16.0156 12.4744 16.0552 12.5195 16.1035C12.5647 16.1519 12.6198 16.1914 12.642 16.1914C12.6642 16.1914 12.7014 16.2178 12.7246 16.25C12.7478 16.2822 12.7903 16.3086 12.819 16.3086C12.8476 16.3086 12.8711 16.3218 12.8711 16.3379C12.8711 16.354 12.8946 16.3672 12.9232 16.3672C12.9519 16.3672 12.9943 16.3936 13.0176 16.4258C13.0408 16.458 13.0833 16.4844 13.1119 16.4844C13.1406 16.4844 13.1641 16.4976 13.1641 16.5137C13.1641 16.5298 13.1904 16.543 13.2227 16.543C13.2549 16.543 13.2812 16.5562 13.2812 16.5723C13.2812 16.5884 13.3076 16.6016 13.3398 16.6016C13.3721 16.6016 13.3984 16.6147 13.3984 16.6309C13.3984 16.647 13.4248 16.6602 13.457 16.6602C13.5155 16.6602 13.5156 16.6797 13.5156 24.6875C13.5156 30.0195 13.5255 32.7148 13.5449 32.7148C13.561 32.7148 13.5742 32.7808 13.5742 32.8613C13.5742 32.9419 13.5874 33.0078 13.6035 33.0078C13.6196 33.0078 13.6328 33.0605 13.6328 33.125C13.6328 33.1895 13.646 33.2422 13.6621 33.2422C13.6782 33.2422 13.6914 33.2686 13.6914 33.3008C13.6914 33.333 13.7046 33.3594 13.7207 33.3594C13.7368 33.3594 13.75 33.3989 13.75 33.4473C13.75 33.4956 13.7632 33.5352 13.7793 33.5352C13.7954 33.5352 13.8086 33.5586 13.8086 33.5873C13.8086 33.616 13.835 33.6584 13.8672 33.6816C13.8994 33.7049 13.9258 33.7444 13.9258 33.7695C13.9258 33.7946 13.9521 33.8342 13.9844 33.8574C14.0166 33.8807 14.043 33.9167 14.043 33.9375C14.043 33.987 14.5287 34.4727 14.5781 34.4727C14.5989 34.4727 14.635 34.499 14.6582 34.5312C14.6814 34.5635 14.721 34.5898 14.7461 34.5898C14.7712 34.5898 14.8108 34.6162 14.834 34.6484C14.8588 34.6828 14.9098 34.707 14.9576 34.707C15.0024 34.707 15.0391 34.7202 15.0391 34.7363C15.0391 34.7524 15.0654 34.7656 15.0977 34.7656C15.1299 34.7656 15.1562 34.7788 15.1562 34.7949C15.1562 34.811 15.1826 34.8242 15.2148 34.8242C15.2471 34.8242 15.2734 34.8374 15.2734 34.8535C15.2734 34.8696 15.3262 34.8828 15.3906 34.8828C15.4551 34.8828 15.5078 34.896 15.5078 34.9121C15.5078 34.9282 15.5737 34.9414 15.6543 34.9414C15.7349 34.9414 15.8008 34.9546 15.8008 34.9707C15.8008 34.9886 15.9375 35 16.1523 35C16.3672 35 16.5039 34.9886 16.5039 34.9707C16.5039 34.9546 16.5698 34.9414 16.6504 34.9414C16.731 34.9414 16.7969 34.9282 16.7969 34.9121C16.7969 34.896 16.8496 34.8828 16.9141 34.8828C16.9785 34.8828 17.0312 34.8696 17.0312 34.8535C17.0312 34.8374 17.0576 34.8242 17.0898 34.8242C17.1221 34.8242 17.1484 34.811 17.1484 34.7949C17.1484 34.7788 17.1851 34.7656 17.2299 34.7656C17.2777 34.7656 17.3287 34.7414 17.3535 34.707C17.3767 34.6748 17.4192 34.6484 17.4479 34.6484C17.4765 34.6484 17.5 34.6353 17.5 34.6191C17.5 34.603 17.5235 34.5898 17.5521 34.5898C17.5808 34.5898 17.6233 34.5635 17.6465 34.5312C17.6697 34.499 17.7058 34.4727 17.7266 34.4727C17.776 34.4727 18.2617 33.987 18.2617 33.9375C18.2617 33.9167 18.2881 33.8807 18.3203 33.8574C18.3525 33.8342 18.3789 33.7917 18.3789 33.7631C18.3789 33.7344 18.3921 33.7109 18.4082 33.7109C18.4243 33.7109 18.4375 33.6846 18.4375 33.6523C18.4375 33.6201 18.4507 33.5938 18.4668 33.5938C18.4829 33.5938 18.4961 33.5674 18.4961 33.5352C18.4961 33.5029 18.5093 33.4766 18.5254 33.4766C18.5415 33.4766 18.5547 33.4502 18.5547 33.418C18.5547 33.3857 18.5679 33.3594 18.584 33.3594C18.6001 33.3594 18.6133 33.333 18.6133 33.3008C18.6133 33.2686 18.6265 33.2422 18.6426 33.2422C18.6587 33.2422 18.6719 33.1895 18.6719 33.125C18.6719 33.0605 18.6851 33.0078 18.7012 33.0078C18.7173 33.0078 18.7305 32.9419 18.7305 32.8613C18.7305 32.7808 18.7437 32.7148 18.7598 32.7148C18.7792 32.7148 18.7891 30.0195 18.7891 24.6875C18.7891 16.6797 18.7892 16.6602 18.8477 16.6602C18.8799 16.6602 18.9062 16.647 18.9062 16.6309C18.9062 16.6147 18.9326 16.6016 18.9648 16.6016C18.9971 16.6016 19.0234 16.5884 19.0234 16.5723C19.0234 16.5562 19.0469 16.543 19.0756 16.543C19.1042 16.543 19.1467 16.5166 19.1699 16.4844C19.1932 16.4521 19.2356 16.4258 19.2643 16.4258C19.2929 16.4258 19.3164 16.4126 19.3164 16.3965C19.3164 16.3804 19.3399 16.3672 19.3685 16.3672C19.3972 16.3672 19.4397 16.3408 19.4629 16.3086C19.4861 16.2764 19.5257 16.25 19.5508 16.25C19.5759 16.25 19.6154 16.2236 19.6387 16.1914C19.6619 16.1592 19.6991 16.1328 19.7213 16.1328C19.7435 16.1328 19.7986 16.0933 19.8438 16.0449C19.8889 15.9966 19.9409 15.957 19.9593 15.957C19.9777 15.957 20.0971 15.8516 20.2246 15.7227C20.3521 15.5938 20.4768 15.4883 20.5017 15.4883C20.5265 15.4883 20.5469 15.4679 20.5469 15.4429C20.5469 15.418 20.6392 15.3066 20.752 15.1953C20.8647 15.0841 20.957 14.9779 20.957 14.9594C20.957 14.941 20.9966 14.8889 21.0449 14.8438C21.0933 14.7986 21.1328 14.7459 21.1328 14.7266C21.1328 14.7073 21.1724 14.6545 21.2207 14.6094C21.269 14.5642 21.3086 14.5062 21.3086 14.4804C21.3086 14.4547 21.3218 14.4336 21.3379 14.4336C21.354 14.4336 21.3672 14.4101 21.3672 14.3815C21.3672 14.3528 21.3936 14.3103 21.4258 14.2871C21.458 14.2639 21.4844 14.2214 21.4844 14.1927C21.4844 14.1641 21.4976 14.1406 21.5137 14.1406C21.5298 14.1406 21.543 14.1143 21.543 14.082C21.543 14.0498 21.5562 14.0234 21.5723 14.0234C21.5884 14.0234 21.6016 13.9971 21.6016 13.9648C21.6016 13.9326 21.6147 13.9062 21.6309 13.9062C21.647 13.9062 21.6602 13.8799 21.6602 13.8477C21.6602 13.8154 21.6733 13.7891 21.6895 13.7891C21.7056 13.7891 21.7188 13.7627 21.7188 13.7305C21.7188 13.6982 21.7319 13.6719 21.748 13.6719C21.7642 13.6719 21.7773 13.6455 21.7773 13.6133C21.7773 13.5811 21.7905 13.5547 21.8066 13.5547C21.8228 13.5547 21.8359 13.5151 21.8359 13.4668C21.8359 13.4185 21.8491 13.3789 21.8652 13.3789C21.8813 13.3789 21.8945 13.3525 21.8945 13.3203C21.8945 13.2881 21.9077 13.2617 21.9238 13.2617C21.9399 13.2617 21.9531 13.2222 21.9531 13.1738C21.9531 13.1255 21.9663 13.0859 21.9824 13.0859C21.9985 13.0859 22.0117 13.0464 22.0117 12.998C22.0117 12.9497 22.0249 12.9102 22.041 12.9102C22.0571 12.9102 22.0703 12.8574 22.0703 12.793C22.0703 12.7285 22.0835 12.6758 22.0996 12.6758C22.1157 12.6758 22.1289 12.6362 22.1289 12.5879C22.1289 12.5396 22.1421 12.5 22.1582 12.5C22.1745 12.5 22.1875 12.4219 22.1875 12.3242C22.1875 12.2266 22.2005 12.1484 22.2168 12.1484C22.2335 12.1484 22.2461 12.0605 22.2461 11.9434C22.2461 11.8262 22.2587 11.7383 22.2754 11.7383C22.2939 11.7383 22.3047 11.5234 22.3047 11.1523C22.3047 10.7812 22.2939 10.5664 22.2754 10.5664C22.2583 10.5664 22.2461 10.4688 22.2461 10.332C22.2461 10.1953 22.2339 10.0977 22.2168 10.0977C22.2007 10.0977 22.1875 10.0317 22.1875 9.95117C22.1875 9.87061 22.1743 9.80469 22.1582 9.80469C22.1421 9.80469 22.1289 9.75195 22.1289 9.6875C22.1289 9.62305 22.1157 9.57031 22.0996 9.57031C22.0835 9.57031 22.0703 9.53076 22.0703 9.48242C22.0703 9.43408 22.0571 9.39453 22.041 9.39453C22.0249 9.39453 22.0117 9.3418 22.0117 9.27734C22.0117 9.21289 21.9985 9.16016 21.9824 9.16016C21.9663 9.16016 21.9531 9.13379 21.9531 9.10156C21.9531 9.06934 21.9399 9.04297 21.9238 9.04297C21.9077 9.04297 21.8945 9.00342 21.8945 8.95508C21.8945 8.90674 21.8813 8.86719 21.8652 8.86719C21.8491 8.86719 21.8359 8.84082 21.8359 8.80859C21.8359 8.77637 21.8228 8.75 21.8066 8.75C21.7905 8.75 21.7773 8.71045 21.7773 8.66211C21.7773 8.61377 21.7642 8.57422 21.748 8.57422C21.7319 8.57422 21.7188 8.55075 21.7188 8.5221C21.7188 8.49342 21.6924 8.45097 21.6602 8.42773C21.6279 8.4045 21.6016 8.36803 21.6016 8.3467C21.6016 8.29323 21.4678 8.16406 21.4125 8.16406C21.3875 8.16406 21.3672 8.15088 21.3672 8.13477C21.3672 8.11865 21.3408 8.10547 21.3086 8.10547C21.2764 8.10547 21.25 8.09229 21.25 8.07617C21.25 8.06006 21.2104 8.04688 21.1621 8.04688C21.1138 8.04688 21.0742 8.03369 21.0742 8.01758C21.0742 8.00129 20.9961 7.98828 20.8984 7.98828C20.8008 7.98828 20.7227 8.00129 20.7227 8.01758C20.7227 8.03369 20.6831 8.04688 20.6348 8.04688C20.5864 8.04688 20.5469 8.06006 20.5469 8.07617C20.5469 8.09229 20.527 8.10547 20.5027 8.10547C20.4784 8.10547 19.7731 8.7911 18.9354 9.62908L17.4121 11.1527L16.7821 10.5226L16.152 9.89255L17.6756 8.36932C18.5136 7.53157 19.1992 6.82625 19.1992 6.80196C19.1992 6.77768 19.2124 6.75781 19.2285 6.75781C19.2446 6.75781 19.2578 6.71826 19.2578 6.66992C19.2578 6.62158 19.271 6.58203 19.2871 6.58203C19.3034 6.58203 19.3164 6.5039 19.3164 6.40625C19.3164 6.3086 19.3034 6.23047 19.2871 6.23047C19.271 6.23047 19.2578 6.19092 19.2578 6.14258C19.2578 6.09424 19.2446 6.05469 19.2285 6.05469C19.2124 6.05469 19.1992 6.02832 19.1992 5.99609C19.1992 5.96387 19.186 5.9375 19.1699 5.9375C19.1538 5.9375 19.1406 5.91714 19.1406 5.89224C19.1406 5.83687 19.0115 5.70312 18.958 5.70312C18.9367 5.70312 18.9002 5.67676 18.877 5.64453C18.8537 5.6123 18.8113 5.58594 18.7826 5.58594C18.7539 5.58594 18.7305 5.57275 18.7305 5.55664C18.7305 5.54053 18.6909 5.52734 18.6426 5.52734C18.5942 5.52734 18.5547 5.51416 18.5547 5.49805C18.5547 5.48193 18.5283 5.46875 18.4961 5.46875C18.4639 5.46875 18.4375 5.45557 18.4375 5.43945C18.4375 5.42334 18.3979 5.41016 18.3496 5.41016C18.3013 5.41016 18.2617 5.39697 18.2617 5.38086C18.2617 5.36475 18.2354 5.35156 18.2031 5.35156C18.1709 5.35156 18.1445 5.33838 18.1445 5.32227C18.1445 5.30615 18.0918 5.29297 18.0273 5.29297C17.9629 5.29297 17.9102 5.27979 17.9102 5.26367C17.9102 5.24756 17.8706 5.23438 17.8223 5.23438C17.7739 5.23438 17.7344 5.22119 17.7344 5.20508C17.7344 5.18896 17.6816 5.17578 17.6172 5.17578C17.5527 5.17578 17.5 5.1626 17.5 5.14648C17.5 5.13037 17.4341 5.11719 17.3535 5.11719C17.2729 5.11719 17.207 5.104 17.207 5.08789C17.207 5.07081 17.1094 5.05859 16.9727 5.05859C16.8359 5.05859 16.7383 5.04638 16.7383 5.0293C16.7383 5.01075 16.5234 5 16.1523 5C15.7812 5 15.5664 5.01075 15.5664 5.0293ZM25.5859 5.0293C25.5859 5.04541 25.5493 5.05859 25.5045 5.05859C25.4567 5.05859 25.4057 5.08279 25.3809 5.11719C25.3576 5.14941 25.3212 5.17578 25.2998 5.17578C25.2495 5.17578 25.1172 5.30812 25.1172 5.35842C25.1172 5.37975 25.0908 5.41622 25.0586 5.43945C25.0242 5.46427 25 5.5153 25 5.56312C25 5.60788 24.9868 5.64453 24.9707 5.64453C24.9546 5.64453 24.9414 5.68408 24.9414 5.73242C24.9414 5.78076 24.9282 5.82031 24.9121 5.82031C24.896 5.82031 24.8828 5.85986 24.8828 5.9082C24.8828 5.95654 24.8696 5.99609 24.8535 5.99609C24.8374 5.99609 24.8242 6.03564 24.8242 6.08398C24.8242 6.13232 24.811 6.17188 24.7949 6.17188C24.7788 6.17188 24.7656 6.21143 24.7656 6.25977C24.7656 6.30811 24.7524 6.34766 24.7363 6.34766C24.7202 6.34766 24.707 6.38721 24.707 6.43555C24.707 6.48389 24.6938 6.52344 24.6777 6.52344C24.6616 6.52344 24.6484 6.56299 24.6484 6.61133C24.6484 6.65967 24.6353 6.69922 24.6191 6.69922C24.603 6.69922 24.5898 6.73877 24.5898 6.78711C24.5898 6.83545 24.5767 6.875 24.5605 6.875C24.5444 6.875 24.5312 6.91455 24.5312 6.96289C24.5312 7.01123 24.5181 7.05078 24.502 7.05078C24.4858 7.05078 24.4727 7.09033 24.4727 7.13867C24.4727 7.18701 24.4595 7.22656 24.4434 7.22656C24.4272 7.22656 24.4141 7.26611 24.4141 7.31445C24.4141 7.36279 24.4009 7.40234 24.3848 7.40234C24.3687 7.40234 24.3555 7.44189 24.3555 7.49023C24.3555 7.53857 24.3423 7.57812 24.3262 7.57812C24.3101 7.57812 24.2969 7.61768 24.2969 7.66602C24.2969 7.71436 24.2837 7.75391 24.2676 7.75391C24.2515 7.75391 24.2383 7.79346 24.2383 7.8418C24.2383 7.89014 24.2251 7.92969 24.209 7.92969C24.1929 7.92969 24.1797 7.96924 24.1797 8.01758C24.1797 8.06592 24.1665 8.10547 24.1504 8.10547C24.1343 8.10547 24.1211 8.14502 24.1211 8.19336C24.1211 8.2417 24.1079 8.28125 24.0918 8.28125C24.0747 8.28125 24.0625 8.3789 24.0625 8.51562C24.0625 8.65235 24.0747 8.75 24.0918 8.75C24.1079 8.75 24.1211 8.78955 24.1211 8.83789C24.1211 8.88623 24.1343 8.92578 24.1504 8.92578C24.1665 8.92578 24.1797 8.95215 24.1797 8.98438C24.1797 9.0166 24.1929 9.04297 24.209 9.04297C24.2251 9.04297 24.2383 9.08252 24.2383 9.13086C24.2383 9.1792 24.2515 9.21875 24.2676 9.21875C24.2837 9.21875 24.2969 9.24512 24.2969 9.27734C24.2969 9.30957 24.3101 9.33594 24.3262 9.33594C24.3423 9.33594 24.3555 9.37549 24.3555 9.42383C24.3555 9.47217 24.3687 9.51172 24.3848 9.51172C24.4009 9.51172 24.4141 9.53809 24.4141 9.57031C24.4141 9.60254 24.4272 9.62891 24.4434 9.62891C24.4595 9.62891 24.4727 9.66846 24.4727 9.7168C24.4727 9.76514 24.4858 9.80469 24.502 9.80469C24.5181 9.80469 24.5312 9.83105 24.5312 9.86328C24.5312 9.89551 24.5444 9.92188 24.5605 9.92188C24.5767 9.92188 24.5898 9.96143 24.5898 10.0098C24.5898 10.0581 24.603 10.0977 24.6191 10.0977C24.6353 10.0977 24.6484 10.124 24.6484 10.1562C24.6484 10.1885 24.6616 10.2148 24.6777 10.2148C24.6938 10.2148 24.707 10.2544 24.707 10.3027C24.707 10.3511 24.7202 10.3906 24.7363 10.3906C24.7524 10.3906 24.7656 10.417 24.7656 10.4492C24.7656 10.4814 24.7788 10.5078 24.7949 10.5078C24.811 10.5078 24.8242 10.5474 24.8242 10.5957C24.8242 10.644 24.8374 10.6836 24.8535 10.6836C24.8696 10.6836 24.8828 10.71 24.8828 10.7422C24.8828 10.7744 24.896 10.8008 24.9121 10.8008C24.9282 10.8008 24.9414 10.8403 24.9414 10.8887C24.9414 10.937 24.9546 10.9766 24.9707 10.9766C24.9868 10.9766 25 11.0029 25 11.0352C25 11.0674 25.0132 11.0938 25.0293 11.0938C25.0454 11.0938 25.0586 11.1333 25.0586 11.1816C25.0586 11.23 25.0718 11.2695 25.0879 11.2695C25.104 11.2695 25.1172 11.2959 25.1172 11.3281C25.1172 11.3604 25.1304 11.3867 25.1465 11.3867C25.1626 11.3867 25.1758 11.4263 25.1758 11.4746C25.1758 11.5229 25.189 11.5625 25.2051 11.5625C25.2212 11.5625 25.2344 11.5889 25.2344 11.6211C25.2344 11.6533 25.2476 11.6797 25.2637 11.6797C25.2798 11.6797 25.293 11.7192 25.293 11.7676C25.293 11.8159 25.3062 11.8555 25.3223 11.8555C25.3384 11.8555 25.3516 11.8818 25.3516 11.9141C25.3516 11.9463 25.3647 11.9727 25.3809 11.9727C25.397 11.9727 25.4102 12.0122 25.4102 12.0605C25.4102 12.1089 25.4233 12.1484 25.4395 12.1484C25.4556 12.1484 25.4688 12.1748 25.4688 12.207C25.4688 12.2393 25.4819 12.2656 25.498 12.2656C25.5142 12.2656 25.5273 12.3052 25.5273 12.3535C25.5273 12.4019 25.5405 12.4414 25.5566 12.4414C25.5728 12.4414 25.5859 12.4678 25.5859 12.5C25.5859 12.5322 25.5991 12.5586 25.6152 12.5586C25.6313 12.5586 25.6445 12.5981 25.6445 12.6465C25.6445 12.6948 25.6577 12.7344 25.6738 12.7344C25.6899 12.7344 25.7031 12.7607 25.7031 12.793C25.7031 12.8252 25.7163 12.8516 25.7324 12.8516C25.7485 12.8516 25.7617 12.8911 25.7617 12.9395C25.7617 12.9878 25.7749 13.0273 25.791 13.0273C25.8104 13.0273 25.8203 14.3457 25.8203 16.9238V20.8203H25.2637C24.9121 20.8203 24.707 20.8311 24.707 20.8496C24.707 20.8657 24.6704 20.8789 24.6256 20.8789C24.5778 20.8789 24.5268 20.9031 24.502 20.9375C24.4787 20.9697 24.4422 20.9961 24.4209 20.9961C24.3706 20.9961 24.2383 21.1284 24.2383 21.1787C24.2383 21.2001 24.2119 21.2365 24.1797 21.2598C24.1453 21.2846 24.1211 21.3356 24.1211 21.3834C24.1211 21.4282 24.1079 21.4648 24.0918 21.4648C24.0724 21.4648 24.0625 23.3594 24.0625 27.0898C24.0625 30.8203 24.0724 32.7148 24.0918 32.7148C24.1079 32.7148 24.1211 32.7808 24.1211 32.8613C24.1211 32.9419 24.1343 33.0078 24.1504 33.0078C24.1665 33.0078 24.1797 33.0605 24.1797 33.125C24.1797 33.1895 24.1929 33.2422 24.209 33.2422C24.2251 33.2422 24.2383 33.2686 24.2383 33.3008C24.2383 33.333 24.2515 33.3594 24.2676 33.3594C24.2837 33.3594 24.2969 33.3989 24.2969 33.4473C24.2969 33.4956 24.3101 33.5352 24.3262 33.5352C24.3423 33.5352 24.3555 33.5586 24.3555 33.5873C24.3555 33.616 24.3818 33.6584 24.4141 33.6816C24.4463 33.7049 24.4727 33.7444 24.4727 33.7695C24.4727 33.7946 24.499 33.8342 24.5312 33.8574C24.5635 33.8807 24.5898 33.9167 24.5898 33.9375C24.5898 33.987 25.0755 34.4727 25.125 34.4727C25.1458 34.4727 25.1818 34.499 25.2051 34.5312C25.2283 34.5635 25.2679 34.5898 25.293 34.5898C25.3181 34.5898 25.3576 34.6162 25.3809 34.6484C25.4057 34.6828 25.4567 34.707 25.5045 34.707C25.5493 34.707 25.5859 34.7202 25.5859 34.7363C25.5859 34.7524 25.6123 34.7656 25.6445 34.7656C25.6768 34.7656 25.7031 34.7788 25.7031 34.7949C25.7031 34.811 25.7295 34.8242 25.7617 34.8242C25.7939 34.8242 25.8203 34.8374 25.8203 34.8535C25.8203 34.8696 25.873 34.8828 25.9375 34.8828C26.002 34.8828 26.0547 34.896 26.0547 34.9121C26.0547 34.9282 26.1206 34.9414 26.2012 34.9414C26.2817 34.9414 26.3477 34.9546 26.3477 34.9707C26.3477 34.9886 26.4844 35 26.6992 35C26.9141 35 27.0508 34.9886 27.0508 34.9707C27.0508 34.9546 27.1167 34.9414 27.1973 34.9414C27.2778 34.9414 27.3438 34.9282 27.3438 34.9121C27.3438 34.896 27.3965 34.8828 27.4609 34.8828C27.5254 34.8828 27.5781 34.8696 27.5781 34.8535C27.5781 34.8374 27.6045 34.8242 27.6367 34.8242C27.6689 34.8242 27.6953 34.811 27.6953 34.7949C27.6953 34.7788 27.732 34.7656 27.7767 34.7656C27.8245 34.7656 27.8756 34.7414 27.9004 34.707C27.9236 34.6748 27.9661 34.6484 27.9948 34.6484C28.0234 34.6484 28.0469 34.6353 28.0469 34.6191C28.0469 34.603 28.0703 34.5898 28.099 34.5898C28.1277 34.5898 28.1701 34.5635 28.1934 34.5312C28.2166 34.499 28.2527 34.4727 28.2735 34.4727C28.3229 34.4727 28.8086 33.987 28.8086 33.9375C28.8086 33.9167 28.835 33.8807 28.8672 33.8574C28.8994 33.8342 28.9258 33.7917 28.9258 33.7631C28.9258 33.7344 28.939 33.7109 28.9551 33.7109C28.9712 33.7109 28.9844 33.6846 28.9844 33.6523C28.9844 33.6201 28.9976 33.5938 29.0137 33.5938C29.0298 33.5938 29.043 33.5674 29.043 33.5352C29.043 33.5029 29.0562 33.4766 29.0723 33.4766C29.0884 33.4766 29.1016 33.4502 29.1016 33.418C29.1016 33.3857 29.1147 33.3594 29.1309 33.3594C29.147 33.3594 29.1602 33.333 29.1602 33.3008C29.1602 33.2686 29.1733 33.2422 29.1895 33.2422C29.2056 33.2422 29.2188 33.1895 29.2188 33.125C29.2188 33.0605 29.2319 33.0078 29.248 33.0078C29.2642 33.0078 29.2773 32.9419 29.2773 32.8613C29.2773 32.7808 29.2905 32.7148 29.3066 32.7148C29.3261 32.7148 29.3359 30.8203 29.3359 27.0898C29.3359 23.3594 29.3261 21.4648 29.3066 21.4648C29.2905 21.4648 29.2773 21.4385 29.2773 21.4062C29.2773 21.374 29.2642 21.3477 29.248 21.3477C29.2319 21.3477 29.2188 21.3213 29.2188 21.2891C29.2188 21.2568 29.2056 21.2305 29.1895 21.2305C29.1733 21.2305 29.1602 21.2101 29.1602 21.1852C29.1602 21.1266 29.0297 20.9961 28.971 20.9961C28.9461 20.9961 28.9258 20.9829 28.9258 20.9668C28.9258 20.9507 28.8994 20.9375 28.8672 20.9375C28.835 20.9375 28.8086 20.9243 28.8086 20.9082C28.8086 20.8921 28.7822 20.8789 28.75 20.8789C28.7178 20.8789 28.6914 20.8657 28.6914 20.8496C28.6914 20.8311 28.4863 20.8203 28.1348 20.8203H27.5781V16.9238C27.5781 14.3457 27.588 13.0273 27.6074 13.0273C27.6235 13.0273 27.6367 12.9878 27.6367 12.9395C27.6367 12.8911 27.6499 12.8516 27.666 12.8516C27.6821 12.8516 27.6953 12.8252 27.6953 12.793C27.6953 12.7607 27.7085 12.7344 27.7246 12.7344C27.7407 12.7344 27.7539 12.6948 27.7539 12.6465C27.7539 12.5981 27.7671 12.5586 27.7832 12.5586C27.7993 12.5586 27.8125 12.5322 27.8125 12.5C27.8125 12.4678 27.8257 12.4414 27.8418 12.4414C27.8579 12.4414 27.8711 12.4019 27.8711 12.3535C27.8711 12.3052 27.8843 12.2656 27.9004 12.2656C27.9165 12.2656 27.9297 12.2393 27.9297 12.207C27.9297 12.1748 27.9429 12.1484 27.959 12.1484C27.9751 12.1484 27.9883 12.1089 27.9883 12.0605C27.9883 12.0122 28.0015 11.9727 28.0176 11.9727C28.0337 11.9727 28.0469 11.9463 28.0469 11.9141C28.0469 11.8818 28.0601 11.8555 28.0762 11.8555C28.0923 11.8555 28.1055 11.8159 28.1055 11.7676C28.1055 11.7192 28.1187 11.6797 28.1348 11.6797C28.1509 11.6797 28.1641 11.6533 28.1641 11.6211C28.1641 11.5889 28.1772 11.5625 28.1934 11.5625C28.2095 11.5625 28.2227 11.5229 28.2227 11.4746C28.2227 11.4263 28.2358 11.3867 28.252 11.3867C28.2681 11.3867 28.2812 11.3604 28.2812 11.3281C28.2812 11.2959 28.2944 11.2695 28.3105 11.2695C28.3267 11.2695 28.3398 11.23 28.3398 11.1816C28.3398 11.1333 28.353 11.0938 28.3691 11.0938C28.3853 11.0938 28.3984 11.0674 28.3984 11.0352C28.3984 11.0029 28.4116 10.9766 28.4277 10.9766C28.4438 10.9766 28.457 10.937 28.457 10.8887C28.457 10.8403 28.4702 10.8008 28.4863 10.8008C28.5024 10.8008 28.5156 10.7744 28.5156 10.7422C28.5156 10.71 28.5288 10.6836 28.5449 10.6836C28.561 10.6836 28.5742 10.644 28.5742 10.5957C28.5742 10.5474 28.5874 10.5078 28.6035 10.5078C28.6196 10.5078 28.6328 10.4814 28.6328 10.4492C28.6328 10.417 28.646 10.3906 28.6621 10.3906C28.6782 10.3906 28.6914 10.3511 28.6914 10.3027C28.6914 10.2544 28.7046 10.2148 28.7207 10.2148C28.7368 10.2148 28.75 10.1885 28.75 10.1562C28.75 10.124 28.7632 10.0977 28.7793 10.0977C28.7954 10.0977 28.8086 10.0581 28.8086 10.0098C28.8086 9.96143 28.8218 9.92188 28.8379 9.92188C28.854 9.92188 28.8672 9.89551 28.8672 9.86328C28.8672 9.83105 28.8804 9.80469 28.8965 9.80469C28.9126 9.80469 28.9258 9.76514 28.9258 9.7168C28.9258 9.66846 28.939 9.62891 28.9551 9.62891C28.9712 9.62891 28.9844 9.60254 28.9844 9.57031C28.9844 9.53809 28.9976 9.51172 29.0137 9.51172C29.0298 9.51172 29.043 9.47217 29.043 9.42383C29.043 9.37549 29.0562 9.33594 29.0723 9.33594C29.0884 9.33594 29.1016 9.30957 29.1016 9.27734C29.1016 9.24512 29.1147 9.21875 29.1309 9.21875C29.147 9.21875 29.1602 9.1792 29.1602 9.13086C29.1602 9.08252 29.1733 9.04297 29.1895 9.04297C29.2056 9.04297 29.2188 9.0166 29.2188 8.98438C29.2188 8.95215 29.2319 8.92578 29.248 8.92578C29.2642 8.92578 29.2773 8.88623 29.2773 8.83789C29.2773 8.78955 29.2905 8.75 29.3066 8.75C29.3237 8.75 29.3359 8.65235 29.3359 8.51562C29.3359 8.3789 29.3237 8.28125 29.3066 8.28125C29.2905 8.28125 29.2773 8.2417 29.2773 8.19336C29.2773 8.14502 29.2642 8.10547 29.248 8.10547C29.2319 8.10547 29.2188 8.06592 29.2188 8.01758C29.2188 7.96924 29.2056 7.92969 29.1895 7.92969C29.1733 7.92969 29.1602 7.89014 29.1602 7.8418C29.1602 7.79346 29.147 7.75391 29.1309 7.75391C29.1147 7.75391 29.1016 7.71436 29.1016 7.66602C29.1016 7.61768 29.0884 7.57812 29.0723 7.57812C29.0562 7.57812 29.043 7.53857 29.043 7.49023C29.043 7.44189 29.0298 7.40234 29.0137 7.40234C28.9976 7.40234 28.9844 7.36279 28.9844 7.31445C28.9844 7.26611 28.9712 7.22656 28.9551 7.22656C28.939 7.22656 28.9258 7.18701 28.9258 7.13867C28.9258 7.09033 28.9126 7.05078 28.8965 7.05078C28.8804 7.05078 28.8672 7.01123 28.8672 6.96289C28.8672 6.91455 28.854 6.875 28.8379 6.875C28.8218 6.875 28.8086 6.83545 28.8086 6.78711C28.8086 6.73877 28.7954 6.69922 28.7793 6.69922C28.7632 6.69922 28.75 6.65967 28.75 6.61133C28.75 6.56299 28.7368 6.52344 28.7207 6.52344C28.7046 6.52344 28.6914 6.48389 28.6914 6.43555C28.6914 6.38721 28.6782 6.34766 28.6621 6.34766C28.646 6.34766 28.6328 6.30811 28.6328 6.25977C28.6328 6.21143 28.6196 6.17188 28.6035 6.17188C28.5874 6.17188 28.5742 6.13232 28.5742 6.08398C28.5742 6.03564 28.561 5.99609 28.5449 5.99609C28.5288 5.99609 28.5156 5.95654 28.5156 5.9082C28.5156 5.85986 28.5024 5.82031 28.4863 5.82031C28.4702 5.82031 28.457 5.78076 28.457 5.73242C28.457 5.68408 28.4438 5.64453 28.4277 5.64453C28.4116 5.64453 28.3984 5.61816 28.3984 5.58594C28.3984 5.55371 28.3853 5.52734 28.3691 5.52734C28.353 5.52734 28.3398 5.50098 28.3398 5.46875C28.3398 5.43652 28.3267 5.41016 28.3105 5.41016C28.2944 5.41016 28.2812 5.38979 28.2812 5.36489C28.2812 5.30627 28.1508 5.17578 28.0921 5.17578C28.0672 5.17578 28.0469 5.1626 28.0469 5.14648C28.0469 5.13037 28.0205 5.11719 27.9883 5.11719C27.9561 5.11719 27.9297 5.104 27.9297 5.08789C27.9297 5.07178 27.9033 5.05859 27.8711 5.05859C27.8389 5.05859 27.8125 5.04541 27.8125 5.0293C27.8125 5.01028 27.4219 5 26.6992 5C25.9766 5 25.5859 5.01028 25.5859 5.0293ZM16.6211 6.78711C16.6211 6.80322 16.6475 6.81641 16.6797 6.81641C16.7119 6.81641 16.7383 6.82312 16.7383 6.83129C16.7383 6.83949 16.1582 7.42604 15.4492 8.13477C14.7402 8.84349 14.1602 9.44322 14.1602 9.46754C14.1602 9.49183 14.147 9.51172 14.1309 9.51172C14.1147 9.51172 14.1016 9.53809 14.1016 9.57031C14.1016 9.60254 14.0884 9.62891 14.0723 9.62891C14.0549 9.62891 14.043 9.73634 14.043 9.89258C14.043 10.0488 14.0549 10.1562 14.0723 10.1562C14.0884 10.1562 14.1016 10.1929 14.1016 10.2377C14.1016 10.2855 14.1258 10.3365 14.1602 10.3613C14.1924 10.3846 14.2188 10.4204 14.2188 10.4411C14.2188 10.4902 16.8145 13.0859 16.8636 13.0859C16.8842 13.0859 16.9201 13.1123 16.9434 13.1445C16.9682 13.1789 17.0192 13.2031 17.067 13.2031C17.1118 13.2031 17.1484 13.2163 17.1484 13.2324C17.1484 13.2498 17.2559 13.2617 17.4121 13.2617C17.5683 13.2617 17.6758 13.2498 17.6758 13.2324C17.6758 13.2163 17.7021 13.2031 17.7344 13.2031C17.7666 13.2031 17.793 13.1899 17.793 13.1738C17.793 13.1577 17.8129 13.1445 17.8371 13.1445C17.8615 13.1445 18.4612 12.5645 19.1699 11.8555C19.8786 11.1465 20.4652 10.5664 20.4734 10.5664C20.4816 10.5664 20.4883 10.5928 20.4883 10.625C20.4883 10.6572 20.5015 10.6836 20.5176 10.6836C20.5359 10.6836 20.5469 10.8594 20.5469 11.1523C20.5469 11.4453 20.5359 11.6211 20.5176 11.6211C20.5013 11.6211 20.4883 11.6992 20.4883 11.7969C20.4883 11.8945 20.4753 11.9727 20.459 11.9727C20.4429 11.9727 20.4297 12.0386 20.4297 12.1191C20.4297 12.1997 20.4165 12.2656 20.4004 12.2656C20.3843 12.2656 20.3711 12.3052 20.3711 12.3535C20.3711 12.4019 20.3579 12.4414 20.3418 12.4414C20.3257 12.4414 20.3125 12.481 20.3125 12.5293C20.3125 12.5776 20.2993 12.6172 20.2832 12.6172C20.2671 12.6172 20.2539 12.6567 20.2539 12.7051C20.2539 12.7534 20.2407 12.793 20.2246 12.793C20.2085 12.793 20.1953 12.8193 20.1953 12.8516C20.1953 12.8838 20.1821 12.9102 20.166 12.9102C20.1499 12.9102 20.1367 12.9365 20.1367 12.9688C20.1367 13.001 20.1235 13.0273 20.1074 13.0273C20.0913 13.0273 20.0781 13.0537 20.0781 13.0859C20.0781 13.1182 20.0649 13.1445 20.0488 13.1445C20.0327 13.1445 20.0195 13.1709 20.0195 13.2031C20.0195 13.2354 20.0063 13.2617 19.9902 13.2617C19.9741 13.2617 19.9609 13.2852 19.9609 13.3138C19.9609 13.3425 19.9346 13.385 19.9023 13.4082C19.8701 13.4314 19.8438 13.4739 19.8438 13.5026C19.8438 13.5312 19.8306 13.5547 19.8145 13.5547C19.7983 13.5547 19.7852 13.5755 19.7852 13.6009C19.7852 13.6264 19.7324 13.6978 19.668 13.7598C19.6035 13.8217 19.5508 13.8867 19.5508 13.9043C19.5508 13.9464 18.9458 14.5508 18.9037 14.5508C18.8858 14.5508 18.8342 14.5903 18.7891 14.6387C18.7439 14.687 18.6888 14.7266 18.6666 14.7266C18.6444 14.7266 18.6072 14.7529 18.584 14.7852C18.5608 14.8174 18.5183 14.8438 18.4896 14.8438C18.461 14.8438 18.4375 14.8569 18.4375 14.873C18.4375 14.8892 18.414 14.9023 18.3854 14.9023C18.3567 14.9023 18.3142 14.9287 18.291 14.9609C18.2678 14.9932 18.2253 15.0195 18.1967 15.0195C18.168 15.0195 18.1445 15.0327 18.1445 15.0488C18.1445 15.0649 18.1182 15.0781 18.0859 15.0781C18.0537 15.0781 18.0273 15.0913 18.0273 15.1074C18.0273 15.1235 18.001 15.1367 17.9688 15.1367C17.9365 15.1367 17.9102 15.1499 17.9102 15.166C17.9102 15.1821 17.8706 15.1953 17.8223 15.1953C17.7739 15.1953 17.7344 15.2085 17.7344 15.2246C17.7344 15.2407 17.708 15.2539 17.6758 15.2539C17.6436 15.2539 17.6172 15.2671 17.6172 15.2832C17.6172 15.2993 17.5908 15.3125 17.5586 15.3125C17.5264 15.3125 17.5 15.3257 17.5 15.3418C17.5 15.3579 17.4799 15.3711 17.4553 15.3711C17.3971 15.3711 17.1484 15.6198 17.1484 15.6779C17.1484 15.7025 17.1353 15.7227 17.1191 15.7227C17.103 15.7227 17.0898 15.7622 17.0898 15.8105C17.0898 15.8589 17.0767 15.8984 17.0605 15.8984C17.0411 15.8984 17.0312 18.7012 17.0312 24.248C17.0312 29.7949 17.0214 32.5977 17.002 32.5977C16.9858 32.5977 16.9727 32.624 16.9727 32.6562C16.9727 32.6885 16.9595 32.7148 16.9434 32.7148C16.9272 32.7148 16.9141 32.7383 16.9141 32.767C16.9141 32.7956 16.8877 32.8381 16.8555 32.8613C16.8232 32.8846 16.7969 32.9214 16.7969 32.9431C16.7969 32.9968 16.7236 33.0664 16.6671 33.0664C16.6418 33.0664 16.6211 33.0796 16.6211 33.0957C16.6211 33.1118 16.5947 33.125 16.5625 33.125C16.5303 33.125 16.5039 33.1382 16.5039 33.1543C16.5039 33.1704 16.4775 33.1836 16.4453 33.1836C16.4131 33.1836 16.3867 33.1968 16.3867 33.2129C16.3867 33.23 16.2891 33.2422 16.1523 33.2422C16.0156 33.2422 15.918 33.23 15.918 33.2129C15.918 33.1968 15.8916 33.1836 15.8594 33.1836C15.8271 33.1836 15.8008 33.1704 15.8008 33.1543C15.8008 33.1382 15.7773 33.125 15.7487 33.125C15.72 33.125 15.6775 33.0986 15.6543 33.0664C15.6311 33.0342 15.5943 33.0078 15.5725 33.0078C15.5189 33.0078 15.4492 32.9345 15.4492 32.8781C15.4492 32.8527 15.436 32.832 15.4199 32.832C15.4038 32.832 15.3906 32.8057 15.3906 32.7734C15.3906 32.7412 15.3774 32.7148 15.3613 32.7148C15.3452 32.7148 15.332 32.6885 15.332 32.6562C15.332 32.624 15.3188 32.5977 15.3027 32.5977C15.2833 32.5977 15.2734 29.7949 15.2734 24.248C15.2734 18.7012 15.2636 15.8984 15.2441 15.8984C15.228 15.8984 15.2148 15.8589 15.2148 15.8105C15.2148 15.7622 15.2017 15.7227 15.1855 15.7227C15.1694 15.7227 15.1562 15.7025 15.1562 15.6779C15.1562 15.6198 14.9075 15.3711 14.8494 15.3711C14.8248 15.3711 14.8047 15.3579 14.8047 15.3418C14.8047 15.3257 14.7783 15.3125 14.7461 15.3125C14.7139 15.3125 14.6875 15.2993 14.6875 15.2832C14.6875 15.2671 14.6611 15.2539 14.6289 15.2539C14.5967 15.2539 14.5703 15.2407 14.5703 15.2246C14.5703 15.2085 14.5308 15.1953 14.4824 15.1953C14.4341 15.1953 14.3945 15.1821 14.3945 15.166C14.3945 15.1499 14.3682 15.1367 14.3359 15.1367C14.3037 15.1367 14.2773 15.1235 14.2773 15.1074C14.2773 15.0913 14.251 15.0781 14.2188 15.0781C14.1865 15.0781 14.1602 15.0649 14.1602 15.0488C14.1602 15.0327 14.1338 15.0195 14.1016 15.0195C14.0693 15.0195 14.043 15.0063 14.043 14.9902C14.043 14.9741 14.0195 14.9609 13.9908 14.9609C13.9622 14.9609 13.9197 14.9346 13.8965 14.9023C13.8733 14.8701 13.8337 14.8438 13.8086 14.8438C13.7835 14.8438 13.7439 14.8174 13.7207 14.7852C13.6975 14.7529 13.6579 14.7266 13.6328 14.7266C13.6077 14.7266 13.5682 14.7002 13.5449 14.668C13.5217 14.6357 13.4857 14.6094 13.4649 14.6094C13.4189 14.6094 12.6953 13.8907 12.6953 13.845C12.6953 13.8272 12.6558 13.7756 12.6074 13.7305C12.5591 13.6853 12.5195 13.6273 12.5195 13.6015C12.5195 13.5758 12.5063 13.5547 12.4902 13.5547C12.4741 13.5547 12.4609 13.5312 12.4609 13.5026C12.4609 13.4739 12.4346 13.4314 12.4023 13.4082C12.3701 13.385 12.3438 13.3425 12.3438 13.3138C12.3438 13.2852 12.3306 13.2617 12.3145 13.2617C12.2983 13.2617 12.2852 13.2354 12.2852 13.2031C12.2852 13.1709 12.272 13.1445 12.2559 13.1445C12.2397 13.1445 12.2266 13.1182 12.2266 13.0859C12.2266 13.0537 12.2134 13.0273 12.1973 13.0273C12.1812 13.0273 12.168 13.001 12.168 12.9688C12.168 12.9365 12.1548 12.9102 12.1387 12.9102C12.1226 12.9102 12.1094 12.8838 12.1094 12.8516C12.1094 12.8193 12.0962 12.793 12.0801 12.793C12.064 12.793 12.0508 12.7534 12.0508 12.7051C12.0508 12.6567 12.0376 12.6172 12.0215 12.6172C12.0054 12.6172 11.9922 12.5776 11.9922 12.5293C11.9922 12.481 11.979 12.4414 11.9629 12.4414C11.9468 12.4414 11.9336 12.4019 11.9336 12.3535C11.9336 12.3052 11.9204 12.2656 11.9043 12.2656C11.8882 12.2656 11.875 12.1997 11.875 12.1191C11.875 12.0386 11.8618 11.9727 11.8457 11.9727C11.829 11.9727 11.8164 11.8848 11.8164 11.7676C11.8164 11.6504 11.8038 11.5625 11.7871 11.5625C11.7688 11.5625 11.7578 11.3867 11.7578 11.0938C11.7578 10.8008 11.7688 10.625 11.7871 10.625C11.8034 10.625 11.8164 10.5469 11.8164 10.4492C11.8164 10.3516 11.8294 10.2734 11.8457 10.2734C11.8618 10.2734 11.875 10.2075 11.875 10.127C11.875 10.0464 11.8882 9.98047 11.9043 9.98047C11.9204 9.98047 11.9336 9.94092 11.9336 9.89258C11.9336 9.84424 11.9468 9.80469 11.9629 9.80469C11.979 9.80469 11.9922 9.76514 11.9922 9.7168C11.9922 9.66846 12.0054 9.62891 12.0215 9.62891C12.0376 9.62891 12.0508 9.60254 12.0508 9.57031C12.0508 9.53809 12.064 9.51172 12.0801 9.51172C12.0962 9.51172 12.1094 9.47217 12.1094 9.42383C12.1094 9.37549 12.1226 9.33594 12.1387 9.33594C12.1548 9.33594 12.168 9.30957 12.168 9.27734C12.168 9.24512 12.1812 9.21875 12.1973 9.21875C12.2134 9.21875 12.2266 9.19238 12.2266 9.16016C12.2266 9.12793 12.2397 9.10156 12.2559 9.10156C12.272 9.10156 12.2852 9.0781 12.2852 9.04944C12.2852 9.02076 12.3115 8.97831 12.3438 8.95508C12.376 8.93185 12.4023 8.88939 12.4023 8.86071C12.4023 8.83206 12.4155 8.80859 12.4316 8.80859C12.4478 8.80859 12.4609 8.78753 12.4609 8.76175C12.4609 8.736 12.5005 8.67796 12.5488 8.63281C12.5972 8.58767 12.6367 8.53549 12.6367 8.51688C12.6367 8.49831 12.7158 8.40544 12.8125 8.31055C12.9092 8.21565 12.9883 8.12316 12.9883 8.105C12.9883 8.06237 13.0624 7.98828 13.105 7.98828C13.1232 7.98828 13.2157 7.90918 13.3105 7.8125C13.4054 7.71582 13.5007 7.63672 13.5222 7.63672C13.5437 7.63672 13.5803 7.61035 13.6035 7.57812C13.6267 7.5459 13.6663 7.51953 13.6914 7.51953C13.7165 7.51953 13.7561 7.49316 13.7793 7.46094C13.8025 7.42871 13.8421 7.40234 13.8672 7.40234C13.8923 7.40234 13.9318 7.37598 13.9551 7.34375C13.9783 7.31152 14.0208 7.28516 14.0494 7.28516C14.0781 7.28516 14.1016 7.27197 14.1016 7.25586C14.1016 7.23975 14.1279 7.22656 14.1602 7.22656C14.1924 7.22656 14.2188 7.21338 14.2188 7.19727C14.2188 7.18115 14.2451 7.16797 14.2773 7.16797C14.3096 7.16797 14.3359 7.15479 14.3359 7.13867C14.3359 7.12256 14.3755 7.10938 14.4238 7.10938C14.4722 7.10938 14.5117 7.09619 14.5117 7.08008C14.5117 7.06396 14.5381 7.05078 14.5703 7.05078C14.6025 7.05078 14.6289 7.0376 14.6289 7.02148C14.6289 7.00537 14.6685 6.99219 14.7168 6.99219C14.7651 6.99219 14.8047 6.979 14.8047 6.96289C14.8047 6.94678 14.8442 6.93359 14.8926 6.93359C14.9409 6.93359 14.9805 6.92041 14.9805 6.9043C14.9805 6.88818 15.0464 6.875 15.127 6.875C15.2075 6.875 15.2734 6.86182 15.2734 6.8457C15.2734 6.82941 15.3516 6.81641 15.4492 6.81641C15.5469 6.81641 15.625 6.8034 15.625 6.78711C15.625 6.76874 15.8105 6.75781 16.123 6.75781C16.4356 6.75781 16.6211 6.76874 16.6211 6.78711ZM26.9503 6.79968C26.9733 6.82268 26.9922 6.87541 26.9922 6.91687C26.9922 6.95829 27.0054 6.99219 27.0215 6.99219C27.0376 6.99219 27.0508 7.03174 27.0508 7.08008C27.0508 7.12842 27.064 7.16797 27.0801 7.16797C27.0962 7.16797 27.1094 7.20752 27.1094 7.25586C27.1094 7.3042 27.1226 7.34375 27.1387 7.34375C27.1548 7.34375 27.168 7.3833 27.168 7.43164C27.168 7.47998 27.1812 7.51953 27.1973 7.51953C27.2134 7.51953 27.2266 7.55908 27.2266 7.60742C27.2266 7.65576 27.2397 7.69531 27.2559 7.69531C27.272 7.69531 27.2852 7.73486 27.2852 7.7832C27.2852 7.83154 27.2983 7.87109 27.3145 7.87109C27.3306 7.87109 27.3438 7.91064 27.3438 7.95898C27.3438 8.00732 27.3569 8.04688 27.373 8.04688C27.3892 8.04688 27.4023 8.08643 27.4023 8.13477C27.4023 8.18311 27.4155 8.22266 27.4316 8.22266C27.4478 8.22266 27.4609 8.26221 27.4609 8.31055C27.4609 8.35889 27.4741 8.39844 27.4902 8.39844C27.5063 8.39844 27.5195 8.43799 27.5195 8.48633C27.5195 8.53467 27.5063 8.57422 27.4902 8.57422C27.4741 8.57422 27.4609 8.60059 27.4609 8.63281C27.4609 8.66504 27.4478 8.69141 27.4316 8.69141C27.4155 8.69141 27.4023 8.73096 27.4023 8.7793C27.4023 8.82764 27.3892 8.86719 27.373 8.86719C27.3569 8.86719 27.3438 8.89355 27.3438 8.92578C27.3438 8.95801 27.3306 8.98438 27.3145 8.98438C27.2983 8.98438 27.2852 9.02393 27.2852 9.07227C27.2852 9.12061 27.272 9.16016 27.2559 9.16016C27.2397 9.16016 27.2266 9.18652 27.2266 9.21875C27.2266 9.25098 27.2134 9.27734 27.1973 9.27734C27.1812 9.27734 27.168 9.31689 27.168 9.36523C27.168 9.41357 27.1548 9.45312 27.1387 9.45312C27.1226 9.45312 27.1094 9.47949 27.1094 9.51172C27.1094 9.54395 27.0962 9.57031 27.0801 9.57031C27.064 9.57031 27.0508 9.60986 27.0508 9.6582C27.0508 9.70654 27.0376 9.74609 27.0215 9.74609C27.0054 9.74609 26.9922 9.77246 26.9922 9.80469C26.9922 9.83691 26.979 9.86328 26.9629 9.86328C26.9468 9.86328 26.9336 9.90283 26.9336 9.95117C26.9336 9.99951 26.9204 10.0391 26.9043 10.0391C26.8882 10.0391 26.875 10.0654 26.875 10.0977C26.875 10.1299 26.8618 10.1562 26.8457 10.1562C26.8296 10.1562 26.8164 10.1958 26.8164 10.2441C26.8164 10.2925 26.8032 10.332 26.7871 10.332C26.771 10.332 26.7578 10.3584 26.7578 10.3906C26.7578 10.4297 26.7383 10.4492 26.6992 10.4492C26.6602 10.4492 26.6406 10.4297 26.6406 10.3906C26.6406 10.3584 26.6274 10.332 26.6113 10.332C26.5952 10.332 26.582 10.2925 26.582 10.2441C26.582 10.1958 26.5688 10.1562 26.5527 10.1562C26.5366 10.1562 26.5234 10.1299 26.5234 10.0977C26.5234 10.0654 26.5103 10.0391 26.4941 10.0391C26.478 10.0391 26.4648 9.99951 26.4648 9.95117C26.4648 9.90283 26.4517 9.86328 26.4355 9.86328C26.4194 9.86328 26.4062 9.83691 26.4062 9.80469C26.4062 9.77246 26.3931 9.74609 26.377 9.74609C26.3608 9.74609 26.3477 9.70654 26.3477 9.6582C26.3477 9.60986 26.3345 9.57031 26.3184 9.57031C26.3022 9.57031 26.2891 9.54395 26.2891 9.51172C26.2891 9.47949 26.2759 9.45312 26.2598 9.45312C26.2437 9.45312 26.2305 9.41357 26.2305 9.36523C26.2305 9.31689 26.2173 9.27734 26.2012 9.27734C26.1851 9.27734 26.1719 9.25098 26.1719 9.21875C26.1719 9.18652 26.1587 9.16016 26.1426 9.16016C26.1265 9.16016 26.1133 9.12061 26.1133 9.07227C26.1133 9.02393 26.1001 8.98438 26.084 8.98438C26.0679 8.98438 26.0547 8.95801 26.0547 8.92578C26.0547 8.89355 26.0415 8.86719 26.0254 8.86719C26.0093 8.86719 25.9961 8.82764 25.9961 8.7793C25.9961 8.73096 25.9829 8.69141 25.9668 8.69141C25.9507 8.69141 25.9375 8.66504 25.9375 8.63281C25.9375 8.60059 25.9243 8.57422 25.9082 8.57422C25.8921 8.57422 25.8789 8.53467 25.8789 8.48633C25.8789 8.43799 25.8921 8.39844 25.9082 8.39844C25.9243 8.39844 25.9375 8.35889 25.9375 8.31055C25.9375 8.26221 25.9507 8.22266 25.9668 8.22266C25.9829 8.22266 25.9961 8.18311 25.9961 8.13477C25.9961 8.08643 26.0093 8.04688 26.0254 8.04688C26.0415 8.04688 26.0547 8.00732 26.0547 7.95898C26.0547 7.91064 26.0679 7.87109 26.084 7.87109C26.1001 7.87109 26.1133 7.83154 26.1133 7.7832C26.1133 7.73486 26.1265 7.69531 26.1426 7.69531C26.1587 7.69531 26.1719 7.65576 26.1719 7.60742C26.1719 7.55908 26.1851 7.51953 26.2012 7.51953C26.2173 7.51953 26.2305 7.47998 26.2305 7.43164C26.2305 7.3833 26.2437 7.34375 26.2598 7.34375C26.2759 7.34375 26.2891 7.3042 26.2891 7.25586C26.2891 7.20752 26.3022 7.16797 26.3184 7.16797C26.3345 7.16797 26.3477 7.12842 26.3477 7.08008C26.3477 7.03174 26.3608 6.99219 26.377 6.99219C26.3931 6.99219 26.4062 6.95867 26.4062 6.91771C26.4062 6.78972 26.4599 6.76016 26.694 6.75893C26.8421 6.75816 26.9214 6.77076 26.9503 6.79968ZM27.5781 27.5879C27.5781 30.9082 27.5683 32.5977 27.5488 32.5977C27.5327 32.5977 27.5195 32.624 27.5195 32.6562C27.5195 32.6885 27.5063 32.7148 27.4902 32.7148C27.4741 32.7148 27.4609 32.7383 27.4609 32.767C27.4609 32.7956 27.4346 32.8381 27.4023 32.8613C27.3701 32.8846 27.3438 32.9214 27.3438 32.9431C27.3438 32.9968 27.2705 33.0664 27.214 33.0664C27.1887 33.0664 27.168 33.0796 27.168 33.0957C27.168 33.1118 27.1416 33.125 27.1094 33.125C27.0771 33.125 27.0508 33.1382 27.0508 33.1543C27.0508 33.1704 27.0244 33.1836 26.9922 33.1836C26.96 33.1836 26.9336 33.1968 26.9336 33.2129C26.9336 33.23 26.8359 33.2422 26.6992 33.2422C26.5625 33.2422 26.4648 33.23 26.4648 33.2129C26.4648 33.1968 26.4385 33.1836 26.4062 33.1836C26.374 33.1836 26.3477 33.1704 26.3477 33.1543C26.3477 33.1382 26.3242 33.125 26.2955 33.125C26.2669 33.125 26.2244 33.0986 26.2012 33.0664C26.1779 33.0342 26.1411 33.0078 26.1194 33.0078C26.0657 33.0078 25.9961 32.9345 25.9961 32.8781C25.9961 32.8527 25.9829 32.832 25.9668 32.832C25.9507 32.832 25.9375 32.8057 25.9375 32.7734C25.9375 32.7412 25.9243 32.7148 25.9082 32.7148C25.8921 32.7148 25.8789 32.6885 25.8789 32.6562C25.8789 32.624 25.8657 32.5977 25.8496 32.5977C25.8302 32.5977 25.8203 30.9082 25.8203 27.5879V22.5781H26.6992H27.5781V27.5879Z" fill="#DD2A1B"/>
</svg>
