<svg width="40" height="40" viewBox="0 0 40 40" fill="none" xmlns="http://www.w3.org/2000/svg">
<path fill-rule="evenodd" clip-rule="evenodd" d="M25.2998 5L27.4987 5.83656L26.1752 9.31534L23.9763 8.47878L25.2998 5ZM18.4371 8.53219L17.8321 7.92721L19.4956 6.26367L33.7576 20.5257L32.0942 22.1892L31.5221 21.6172L24.6303 25.4248L25.2847 26.5686C26.2491 28.2546 25.6636 30.4133 23.9794 31.3806L19.4139 34.0032C18.871 34.3153 18.2708 34.4742 17.6629 34.4742C17.3363 34.4742 17.0076 34.4284 16.6841 34.3356C15.7585 34.0704 14.9987 33.4567 14.5446 32.6077L13.8796 31.3644L7.29734 35.001L5.01172 32.5922L18.4371 8.53219ZM18.2421 31.9634L22.8076 29.3407C23.369 29.0182 23.5641 28.2987 23.2427 27.7367L22.5709 26.5625L15.864 30.2679L15.9394 30.2276L16.619 31.4981C16.7703 31.7811 17.0236 31.9857 17.3321 32.0741C17.6406 32.1625 17.9638 32.1232 18.2421 31.9634ZM8.1125 31.8629L29.7909 19.886L20.1662 10.2613L8.1125 31.8629ZM30.5361 7.79297L32.1996 9.45645L29.2296 12.4264L27.5661 10.763L30.5361 7.79297ZM31.5105 16.0168L34.9893 14.6934L34.1527 12.4944L30.674 13.8179L31.5105 16.0168Z" fill="#DD2A1B"/>
</svg>
