<svg width="40" height="40" viewBox="0 0 40 40" fill="none" xmlns="http://www.w3.org/2000/svg">
<path fill-rule="evenodd" clip-rule="evenodd" d="M7.64453 5.0293C7.64453 5.04541 7.61816 5.05859 7.58594 5.05859C7.55371 5.05859 7.52734 5.07178 7.52734 5.08789C7.52734 5.104 7.50098 5.11719 7.46875 5.11719C7.43652 5.11719 7.41016 5.13037 7.41016 5.14648C7.41016 5.1626 7.38979 5.17578 7.36489 5.17578C7.30627 5.17578 7.17578 5.30627 7.17578 5.36489C7.17578 5.38979 7.1626 5.41016 7.14648 5.41016C7.13037 5.41016 7.11719 5.43652 7.11719 5.46875C7.11719 5.50098 7.104 5.52734 7.08789 5.52734C7.07178 5.52734 7.05859 5.55371 7.05859 5.58594C7.05859 5.61816 7.04541 5.64453 7.0293 5.64453C7.00984 5.64453 7 7.79296 7 12.0312C7 16.2695 7.00984 18.418 7.0293 18.418C7.04541 18.418 7.05859 18.4443 7.05859 18.4766C7.05859 18.5088 7.07178 18.5352 7.08789 18.5352C7.104 18.5352 7.11719 18.5615 7.11719 18.5938C7.11719 18.626 7.13037 18.6523 7.14648 18.6523C7.1626 18.6523 7.17578 18.6731 7.17578 18.6984C7.17578 18.7549 7.24542 18.8281 7.29906 18.8281C7.32083 18.8281 7.35763 18.8545 7.38086 18.8867C7.40409 18.9189 7.44654 18.9453 7.47522 18.9453C7.50388 18.9453 7.52734 18.9585 7.52734 18.9746C7.52734 18.9907 7.55371 19.0039 7.58594 19.0039C7.61816 19.0039 7.64453 19.0171 7.64453 19.0332C7.64453 19.0503 7.74218 19.0625 7.87891 19.0625C8.01563 19.0625 8.11328 19.0503 8.11328 19.0332C8.11328 19.0171 8.13965 19.0039 8.17188 19.0039C8.2041 19.0039 8.23047 18.9907 8.23047 18.9746C8.23047 18.9585 8.25684 18.9453 8.28906 18.9453C8.32129 18.9453 8.34766 18.9321 8.34766 18.916C8.34766 18.8999 8.36802 18.8867 8.39292 18.8867C8.45154 18.8867 8.58203 18.7562 8.58203 18.6976C8.58203 18.6727 8.59521 18.6523 8.61133 18.6523C8.62744 18.6523 8.64062 18.626 8.64062 18.5938C8.64062 18.5615 8.65381 18.5352 8.66992 18.5352C8.68604 18.5352 8.69922 18.5088 8.69922 18.4766C8.69922 18.4443 8.7124 18.418 8.72852 18.418C8.7456 18.418 8.75781 18.3203 8.75781 18.1836C8.75781 18.0469 8.77003 17.9492 8.78711 17.9492C8.80322 17.9492 8.81641 17.9229 8.81641 17.8906C8.81641 17.8584 8.82959 17.832 8.8457 17.832C8.86182 17.832 8.875 17.8057 8.875 17.7734C8.875 17.7412 8.88818 17.7148 8.9043 17.7148C8.92041 17.7148 8.93359 17.6941 8.93359 17.6688C8.93359 17.6123 9.00323 17.5391 9.05687 17.5391C9.07864 17.5391 9.11544 17.5127 9.13867 17.4805C9.1619 17.4482 9.20436 17.4219 9.23304 17.4219C9.26169 17.4219 9.28516 17.4087 9.28516 17.3926C9.28516 17.3765 9.31152 17.3633 9.34375 17.3633C9.37598 17.3633 9.40234 17.3501 9.40234 17.334C9.40234 17.3155 9.60742 17.3047 9.95898 17.3047H10.5156V19.7656C10.5156 21.3867 10.5056 22.2266 10.4863 22.2266C10.4702 22.2266 10.457 22.2925 10.457 22.373C10.457 22.4536 10.4438 22.5195 10.4277 22.5195C10.4116 22.5195 10.3984 22.5723 10.3984 22.6367C10.3984 22.7012 10.3853 22.7539 10.3691 22.7539C10.353 22.7539 10.3398 22.7803 10.3398 22.8125C10.3398 22.8447 10.3267 22.8711 10.3105 22.8711C10.2944 22.8711 10.2812 22.9106 10.2812 22.959C10.2812 23.0073 10.2681 23.0469 10.252 23.0469C10.2358 23.0469 10.2227 23.0703 10.2227 23.099C10.2227 23.1277 10.1963 23.1701 10.1641 23.1934C10.1318 23.2166 10.1055 23.2561 10.1055 23.2812C10.1055 23.3064 10.0791 23.3459 10.0469 23.3691C10.0146 23.3924 9.98828 23.4285 9.98828 23.4494C9.98828 23.4958 9.62157 23.8672 9.57578 23.8672C9.55776 23.8672 9.50608 23.9067 9.46094 23.9551C9.41579 24.0034 9.3637 24.043 9.34524 24.043C9.32676 24.043 9.22062 24.1353 9.10938 24.248C8.99813 24.3608 8.8927 24.4531 8.87509 24.4531C8.83349 24.4531 8.69922 24.5874 8.69922 24.629C8.69922 24.6466 8.60693 24.752 8.49414 24.8633C8.38135 24.9745 8.28906 25.083 8.28906 25.1044C8.28906 25.1258 8.2627 25.1623 8.23047 25.1855C8.19824 25.2088 8.17188 25.246 8.17188 25.2682C8.17188 25.2903 8.13232 25.3455 8.08398 25.3906C8.03564 25.4358 7.99609 25.4938 7.99609 25.5196C7.99609 25.5453 7.98291 25.5664 7.9668 25.5664C7.95068 25.5664 7.9375 25.5899 7.9375 25.6185C7.9375 25.6472 7.91113 25.6897 7.87891 25.7129C7.84668 25.7361 7.82031 25.7786 7.82031 25.8073C7.82031 25.8359 7.80713 25.8594 7.79102 25.8594C7.7749 25.8594 7.76172 25.8857 7.76172 25.918C7.76172 25.9502 7.74854 25.9766 7.73242 25.9766C7.71631 25.9766 7.70312 26.0029 7.70312 26.0352C7.70312 26.0674 7.68994 26.0938 7.67383 26.0938C7.65771 26.0938 7.64453 26.1201 7.64453 26.1523C7.64453 26.1846 7.63135 26.2109 7.61523 26.2109C7.59912 26.2109 7.58594 26.2373 7.58594 26.2695C7.58594 26.3018 7.57275 26.3281 7.55664 26.3281C7.54053 26.3281 7.52734 26.3545 7.52734 26.3867C7.52734 26.4189 7.51416 26.4453 7.49805 26.4453C7.48193 26.4453 7.46875 26.4717 7.46875 26.5039C7.46875 26.5361 7.45557 26.5625 7.43945 26.5625C7.42334 26.5625 7.41016 26.6021 7.41016 26.6504C7.41016 26.6987 7.39697 26.7383 7.38086 26.7383C7.36475 26.7383 7.35156 26.7778 7.35156 26.8262C7.35156 26.8745 7.33838 26.9141 7.32227 26.9141C7.30615 26.9141 7.29297 26.9536 7.29297 27.002C7.29297 27.0503 7.27979 27.0898 7.26367 27.0898C7.24756 27.0898 7.23438 27.1294 7.23438 27.1777C7.23438 27.2261 7.22119 27.2656 7.20508 27.2656C7.18896 27.2656 7.17578 27.3315 7.17578 27.4121C7.17578 27.4927 7.1626 27.5586 7.14648 27.5586C7.13037 27.5586 7.11719 27.6113 7.11719 27.6758C7.11719 27.7402 7.104 27.793 7.08789 27.793C7.07081 27.793 7.05859 27.8906 7.05859 28.0273C7.05859 28.1641 7.04638 28.2617 7.0293 28.2617C7.01075 28.2617 7 28.4766 7 28.8477C7 29.2188 7.01075 29.4336 7.0293 29.4336C7.04638 29.4336 7.05859 29.5312 7.05859 29.668C7.05859 29.8047 7.07081 29.9023 7.08789 29.9023C7.104 29.9023 7.11719 29.9683 7.11719 30.0488C7.11719 30.1294 7.13037 30.1953 7.14648 30.1953C7.1626 30.1953 7.17578 30.248 7.17578 30.3125C7.17578 30.377 7.18896 30.4297 7.20508 30.4297C7.22119 30.4297 7.23438 30.4692 7.23438 30.5176C7.23438 30.5659 7.24756 30.6055 7.26367 30.6055C7.27979 30.6055 7.29297 30.645 7.29297 30.6934C7.29297 30.7417 7.30615 30.7812 7.32227 30.7812C7.33838 30.7812 7.35156 30.8208 7.35156 30.8691C7.35156 30.9175 7.36475 30.957 7.38086 30.957C7.39697 30.957 7.41016 30.9966 7.41016 31.0449C7.41016 31.0933 7.42334 31.1328 7.43945 31.1328C7.45557 31.1328 7.46875 31.1592 7.46875 31.1914C7.46875 31.2236 7.48193 31.25 7.49805 31.25C7.51416 31.25 7.52734 31.2896 7.52734 31.3379C7.52734 31.3862 7.54053 31.4258 7.55664 31.4258C7.57275 31.4258 7.58594 31.4521 7.58594 31.4844C7.58594 31.5166 7.59912 31.543 7.61523 31.543C7.63135 31.543 7.64453 31.5693 7.64453 31.6016C7.64453 31.6338 7.65771 31.6602 7.67383 31.6602C7.68994 31.6602 7.70312 31.6836 7.70312 31.7123C7.70312 31.741 7.72949 31.7834 7.76172 31.8066C7.79395 31.8299 7.82031 31.8723 7.82031 31.901C7.82031 31.9297 7.8335 31.9531 7.84961 31.9531C7.86572 31.9531 7.87891 31.9766 7.87891 32.0052C7.87891 32.0339 7.90527 32.0764 7.9375 32.0996C7.96973 32.1228 7.99609 32.1624 7.99609 32.1875C7.99609 32.2126 8.02246 32.2522 8.05469 32.2754C8.08691 32.2986 8.11328 32.3382 8.11328 32.3633C8.11328 32.3884 8.13965 32.4279 8.17188 32.4512C8.2041 32.4744 8.23047 32.5111 8.23047 32.5328C8.23047 32.5544 8.29639 32.6364 8.37695 32.7148C8.45752 32.7933 8.52344 32.8717 8.52344 32.8891C8.52344 32.9303 9.06971 33.4766 9.1109 33.4766C9.12827 33.4766 9.20667 33.5425 9.28516 33.623C9.36364 33.7036 9.44556 33.7695 9.46721 33.7695C9.48889 33.7695 9.5256 33.7959 9.54883 33.8281C9.57206 33.8604 9.61161 33.8867 9.63672 33.8867C9.66183 33.8867 9.70138 33.9131 9.72461 33.9453C9.74784 33.9775 9.78739 34.0039 9.8125 34.0039C9.83761 34.0039 9.87716 34.0303 9.90039 34.0625C9.92362 34.0947 9.96607 34.1211 9.99476 34.1211C10.0234 34.1211 10.0469 34.1343 10.0469 34.1504C10.0469 34.1665 10.0703 34.1797 10.099 34.1797C10.1277 34.1797 10.1701 34.2061 10.1934 34.2383C10.2166 34.2705 10.259 34.2969 10.2877 34.2969C10.3164 34.2969 10.3398 34.3101 10.3398 34.3262C10.3398 34.3423 10.3662 34.3555 10.3984 34.3555C10.4307 34.3555 10.457 34.3687 10.457 34.3848C10.457 34.4009 10.4834 34.4141 10.5156 34.4141C10.5479 34.4141 10.5742 34.4272 10.5742 34.4434C10.5742 34.4595 10.6138 34.4727 10.6621 34.4727C10.7104 34.4727 10.75 34.4858 10.75 34.502C10.75 34.5181 10.7764 34.5312 10.8086 34.5312C10.8408 34.5312 10.8672 34.5444 10.8672 34.5605C10.8672 34.5767 10.9067 34.5898 10.9551 34.5898C11.0034 34.5898 11.043 34.603 11.043 34.6191C11.043 34.6353 11.0825 34.6484 11.1309 34.6484C11.1792 34.6484 11.2188 34.6616 11.2188 34.6777C11.2188 34.6938 11.2583 34.707 11.3066 34.707C11.355 34.707 11.3945 34.7202 11.3945 34.7363C11.3945 34.7524 11.4341 34.7656 11.4824 34.7656C11.5308 34.7656 11.5703 34.7788 11.5703 34.7949C11.5703 34.811 11.623 34.8242 11.6875 34.8242C11.752 34.8242 11.8047 34.8374 11.8047 34.8535C11.8047 34.8696 11.8706 34.8828 11.9512 34.8828C12.0317 34.8828 12.0977 34.896 12.0977 34.9121C12.0977 34.9292 12.1953 34.9414 12.332 34.9414C12.4688 34.9414 12.5664 34.9536 12.5664 34.9707C12.5664 34.9892 12.7812 35 13.1523 35C13.5234 35 13.7383 34.9892 13.7383 34.9707C13.7383 34.9536 13.8359 34.9414 13.9727 34.9414C14.1094 34.9414 14.207 34.9292 14.207 34.9121C14.207 34.896 14.2729 34.8828 14.3535 34.8828C14.4341 34.8828 14.5 34.8696 14.5 34.8535C14.5 34.8374 14.5527 34.8242 14.6172 34.8242C14.6816 34.8242 14.7344 34.811 14.7344 34.7949C14.7344 34.7788 14.7739 34.7656 14.8223 34.7656C14.8706 34.7656 14.9102 34.7524 14.9102 34.7363C14.9102 34.7202 14.9629 34.707 15.0273 34.707C15.0918 34.707 15.1445 34.6938 15.1445 34.6777C15.1445 34.6616 15.1709 34.6484 15.2031 34.6484C15.2354 34.6484 15.2617 34.6353 15.2617 34.6191C15.2617 34.603 15.3013 34.5898 15.3496 34.5898C15.3979 34.5898 15.4375 34.5767 15.4375 34.5605C15.4375 34.5444 15.4639 34.5312 15.4961 34.5312C15.5283 34.5312 15.5547 34.5181 15.5547 34.502C15.5547 34.4858 15.5942 34.4727 15.6426 34.4727C15.6909 34.4727 15.7305 34.4595 15.7305 34.4434C15.7305 34.4272 15.7568 34.4141 15.7891 34.4141C15.8213 34.4141 15.8477 34.4009 15.8477 34.3848C15.8477 34.3687 15.874 34.3555 15.9062 34.3555C15.9385 34.3555 15.9648 34.3423 15.9648 34.3262C15.9648 34.3101 15.9912 34.2969 16.0234 34.2969C16.0557 34.2969 16.082 34.2837 16.082 34.2676C16.082 34.2515 16.1055 34.2383 16.1342 34.2383C16.1628 34.2383 16.2053 34.2119 16.2285 34.1797C16.2517 34.1475 16.2913 34.1211 16.3164 34.1211C16.3415 34.1211 16.3811 34.0947 16.4043 34.0625C16.4275 34.0303 16.47 34.0039 16.4987 34.0039C16.5273 34.0039 16.5508 33.9907 16.5508 33.9746C16.5508 33.9585 16.5718 33.9453 16.5976 33.9453C16.6234 33.9453 16.6814 33.9058 16.7266 33.8574C16.7717 33.8091 16.8242 33.7695 16.8432 33.7695C16.8621 33.7695 16.9283 33.7168 16.9902 33.6523C17.0522 33.5879 17.1172 33.5352 17.1347 33.5352C17.1764 33.5352 17.8398 32.8717 17.8398 32.83C17.8398 32.8125 17.8926 32.7475 17.957 32.6855C18.0215 32.6236 18.0742 32.5551 18.0742 32.5332C18.0742 32.5113 18.1006 32.4744 18.1328 32.4512C18.165 32.4279 18.1914 32.3884 18.1914 32.3633C18.1914 32.3382 18.2178 32.2986 18.25 32.2754C18.2822 32.2522 18.3086 32.2126 18.3086 32.1875C18.3086 32.1624 18.335 32.1228 18.3672 32.0996C18.3994 32.0764 18.4258 32.0339 18.4258 32.0052C18.4258 31.9766 18.439 31.9531 18.4551 31.9531C18.4712 31.9531 18.4844 31.9297 18.4844 31.901C18.4844 31.8723 18.5107 31.8299 18.543 31.8066C18.5752 31.7834 18.6016 31.741 18.6016 31.7123C18.6016 31.6836 18.6147 31.6602 18.6309 31.6602C18.647 31.6602 18.6602 31.6338 18.6602 31.6016C18.6602 31.5693 18.6733 31.543 18.6895 31.543C18.7056 31.543 18.7188 31.5166 18.7188 31.4844C18.7188 31.4521 18.7319 31.4258 18.748 31.4258C18.7642 31.4258 18.7773 31.3862 18.7773 31.3379C18.7773 31.2896 18.7905 31.25 18.8066 31.25C18.8228 31.25 18.8359 31.2236 18.8359 31.1914C18.8359 31.1592 18.8491 31.1328 18.8652 31.1328C18.8813 31.1328 18.8945 31.0933 18.8945 31.0449C18.8945 30.9966 18.9077 30.957 18.9238 30.957C18.9399 30.957 18.9531 30.9175 18.9531 30.8691C18.9531 30.8208 18.9663 30.7812 18.9824 30.7812C18.9985 30.7812 19.0117 30.7417 19.0117 30.6934C19.0117 30.645 19.0249 30.6055 19.041 30.6055C19.0571 30.6055 19.0703 30.5659 19.0703 30.5176C19.0703 30.4692 19.0835 30.4297 19.0996 30.4297C19.1157 30.4297 19.1289 30.377 19.1289 30.3125C19.1289 30.248 19.1421 30.1953 19.1582 30.1953C19.1743 30.1953 19.1875 30.1294 19.1875 30.0488C19.1875 29.9683 19.2007 29.9023 19.2168 29.9023C19.2339 29.9023 19.2461 29.8047 19.2461 29.668C19.2461 29.5312 19.2583 29.4336 19.2754 29.4336C19.2939 29.4336 19.3047 29.2188 19.3047 28.8477C19.3047 28.4766 19.2939 28.2617 19.2754 28.2617C19.2583 28.2617 19.2461 28.1641 19.2461 28.0273C19.2461 27.8906 19.2339 27.793 19.2168 27.793C19.2007 27.793 19.1875 27.7271 19.1875 27.6465C19.1875 27.5659 19.1743 27.5 19.1582 27.5C19.1421 27.5 19.1289 27.4473 19.1289 27.3828C19.1289 27.3184 19.1157 27.2656 19.0996 27.2656C19.0835 27.2656 19.0703 27.2261 19.0703 27.1777C19.0703 27.1294 19.0571 27.0898 19.041 27.0898C19.0249 27.0898 19.0117 27.0371 19.0117 26.9727C19.0117 26.9082 18.9985 26.8555 18.9824 26.8555C18.9663 26.8555 18.9531 26.8291 18.9531 26.7969C18.9531 26.7646 18.9399 26.7383 18.9238 26.7383C18.9077 26.7383 18.8945 26.6987 18.8945 26.6504C18.8945 26.6021 18.8813 26.5625 18.8652 26.5625C18.8491 26.5625 18.8359 26.5361 18.8359 26.5039C18.8359 26.4717 18.8228 26.4453 18.8066 26.4453C18.7905 26.4453 18.7773 26.4058 18.7773 26.3574C18.7773 26.3091 18.7642 26.2695 18.748 26.2695C18.7319 26.2695 18.7188 26.2432 18.7188 26.2109C18.7188 26.1787 18.7056 26.1523 18.6895 26.1523C18.6733 26.1523 18.6602 26.126 18.6602 26.0938C18.6602 26.0615 18.647 26.0352 18.6309 26.0352C18.6147 26.0352 18.6016 26.0117 18.6016 25.983C18.6016 25.9544 18.5752 25.9119 18.543 25.8887C18.5107 25.8654 18.4844 25.823 18.4844 25.7943C18.4844 25.7657 18.4712 25.7422 18.4551 25.7422C18.439 25.7422 18.4258 25.7187 18.4258 25.6901C18.4258 25.6614 18.3994 25.6189 18.3672 25.5957C18.335 25.5725 18.3086 25.5329 18.3086 25.5078C18.3086 25.4827 18.2822 25.4432 18.25 25.4199C18.2178 25.3967 18.1914 25.3595 18.1914 25.3373C18.1914 25.3151 18.1519 25.26 18.1035 25.2148C18.0552 25.1697 18.0156 25.1175 18.0156 25.0989C18.0156 25.0803 17.9365 24.9875 17.8398 24.8926C17.7432 24.7977 17.6641 24.7058 17.6641 24.6883C17.6641 24.6471 17.4115 24.3945 17.3702 24.3945C17.3528 24.3945 17.2609 24.3154 17.166 24.2188C17.0711 24.1221 16.9794 24.043 16.9623 24.043C16.9174 24.043 16.2578 23.3772 16.2578 23.332C16.2578 23.3112 16.2314 23.2752 16.1992 23.252C16.167 23.2287 16.1406 23.1863 16.1406 23.1576C16.1406 23.1289 16.1274 23.1055 16.1113 23.1055C16.0952 23.1055 16.082 23.0791 16.082 23.0469C16.082 23.0146 16.0688 22.9883 16.0527 22.9883C16.0366 22.9883 16.0234 22.9619 16.0234 22.9297C16.0234 22.8975 16.0103 22.8711 15.9941 22.8711C15.978 22.8711 15.9648 22.8315 15.9648 22.7832C15.9648 22.7349 15.9517 22.6953 15.9355 22.6953C15.9194 22.6953 15.9062 22.6558 15.9062 22.6074C15.9062 22.5591 15.8931 22.5195 15.877 22.5195C15.8608 22.5195 15.8477 22.4536 15.8477 22.373C15.8477 22.2925 15.8345 22.2266 15.8184 22.2266C15.7991 22.2266 15.7891 21.3867 15.7891 19.7656V17.3047H16.3457C16.6973 17.3047 16.9023 17.3155 16.9023 17.334C16.9023 17.3501 16.9287 17.3633 16.9609 17.3633C16.9932 17.3633 17.0195 17.3765 17.0195 17.3926C17.0195 17.4087 17.0459 17.4219 17.0781 17.4219C17.1104 17.4219 17.1367 17.4351 17.1367 17.4512C17.1367 17.4673 17.1574 17.4805 17.1827 17.4805C17.2392 17.4805 17.3125 17.5501 17.3125 17.6038C17.3125 17.6255 17.3389 17.6623 17.3711 17.6855C17.4033 17.7088 17.4297 17.7512 17.4297 17.7799C17.4297 17.8086 17.4429 17.832 17.459 17.832C17.4751 17.832 17.4883 17.8584 17.4883 17.8906C17.4883 17.9229 17.5015 17.9492 17.5176 17.9492C17.5347 17.9492 17.5469 18.0469 17.5469 18.1836C17.5469 18.3203 17.5591 18.418 17.5762 18.418C17.5923 18.418 17.6055 18.4443 17.6055 18.4766C17.6055 18.5088 17.6187 18.5352 17.6348 18.5352C17.6509 18.5352 17.6641 18.5615 17.6641 18.5938C17.6641 18.626 17.6772 18.6523 17.6934 18.6523C17.7095 18.6523 17.7227 18.6727 17.7227 18.6976C17.7227 18.7562 17.8531 18.8867 17.9118 18.8867C17.9367 18.8867 17.957 18.8999 17.957 18.916C17.957 18.9321 17.9834 18.9453 18.0156 18.9453C18.0479 18.9453 18.0742 18.9585 18.0742 18.9746C18.0742 18.9907 18.1006 19.0039 18.1328 19.0039C18.165 19.0039 18.1914 19.0171 18.1914 19.0332C18.1914 19.0503 18.2891 19.0625 18.4258 19.0625C18.5625 19.0625 18.6602 19.0503 18.6602 19.0332C18.6602 19.0171 18.6865 19.0039 18.7188 19.0039C18.751 19.0039 18.7773 18.9907 18.7773 18.9746C18.7773 18.9585 18.8037 18.9453 18.8359 18.9453C18.8682 18.9453 18.8945 18.9321 18.8945 18.916C18.8945 18.8999 18.9149 18.8867 18.9398 18.8867C18.9984 18.8867 19.1289 18.7562 19.1289 18.6976C19.1289 18.6727 19.1421 18.6523 19.1582 18.6523C19.1743 18.6523 19.1875 18.626 19.1875 18.5938C19.1875 18.5615 19.2007 18.5352 19.2168 18.5352C19.2329 18.5352 19.2461 18.5088 19.2461 18.4766C19.2461 18.4443 19.2593 18.418 19.2754 18.418C19.2948 18.418 19.3047 16.2695 19.3047 12.0312C19.3047 7.79296 19.2948 5.64453 19.2754 5.64453C19.2593 5.64453 19.2461 5.61816 19.2461 5.58594C19.2461 5.55371 19.2329 5.52734 19.2168 5.52734C19.2007 5.52734 19.1875 5.50098 19.1875 5.46875C19.1875 5.43652 19.1743 5.41016 19.1582 5.41016C19.1421 5.41016 19.1289 5.38979 19.1289 5.36489C19.1289 5.30627 18.9984 5.17578 18.9398 5.17578C18.9149 5.17578 18.8945 5.1626 18.8945 5.14648C18.8945 5.13037 18.8682 5.11719 18.8359 5.11719C18.8037 5.11719 18.7773 5.104 18.7773 5.08789C18.7773 5.07178 18.751 5.05859 18.7188 5.05859C18.6865 5.05859 18.6602 5.04541 18.6602 5.0293C18.6602 5.00987 16.8047 5 13.1523 5C9.49999 5 7.64453 5.00987 7.64453 5.0293ZM26.9805 5.0293C26.9805 5.04541 26.9541 5.05859 26.9219 5.05859C26.8896 5.05859 26.8633 5.07178 26.8633 5.08789C26.8633 5.104 26.8369 5.11719 26.8047 5.11719C26.7725 5.11719 26.7461 5.13037 26.7461 5.14648C26.7461 5.1626 26.7257 5.17578 26.7008 5.17578C26.6422 5.17578 26.5117 5.30627 26.5117 5.36489C26.5117 5.38979 26.4985 5.41016 26.4824 5.41016C26.4663 5.41016 26.4531 5.43652 26.4531 5.46875C26.4531 5.50098 26.4399 5.52734 26.4238 5.52734C26.4077 5.52734 26.3945 5.55371 26.3945 5.58594C26.3945 5.61816 26.3813 5.64453 26.3652 5.64453C26.3466 5.64453 26.3359 5.87891 26.3359 6.28906C26.3359 6.91405 26.3342 6.93359 26.2773 6.93359C26.2451 6.93359 26.2188 6.94678 26.2188 6.96289C26.2188 6.979 26.1792 6.99219 26.1309 6.99219C26.0825 6.99219 26.043 7.00537 26.043 7.02148C26.043 7.0376 26.0195 7.05078 25.9909 7.05078C25.9622 7.05078 25.9197 7.07715 25.8965 7.10938C25.8733 7.1416 25.8337 7.16797 25.8086 7.16797C25.7835 7.16797 25.7439 7.19434 25.7207 7.22656C25.6975 7.25879 25.6614 7.28516 25.6406 7.28516C25.5912 7.28516 25.1055 7.77084 25.1055 7.82026C25.1055 7.84109 25.0791 7.87716 25.0469 7.90039C25.0146 7.92362 24.9883 7.96317 24.9883 7.98828C24.9883 8.01339 24.9619 8.05294 24.9297 8.07617C24.8975 8.0994 24.8711 8.14186 24.8711 8.17054C24.8711 8.19919 24.8579 8.22266 24.8418 8.22266C24.8257 8.22266 24.8125 8.26221 24.8125 8.31055C24.8125 8.35889 24.7993 8.39844 24.7832 8.39844C24.7671 8.39844 24.7539 8.4248 24.7539 8.45703C24.7539 8.48926 24.7407 8.51562 24.7246 8.51562C24.7085 8.51562 24.6953 8.56836 24.6953 8.63281C24.6953 8.69727 24.6821 8.75 24.666 8.75C24.6499 8.75 24.6367 8.80273 24.6367 8.86719C24.6367 8.93164 24.6235 8.98438 24.6074 8.98438C24.5881 8.98438 24.5781 10.1172 24.5781 12.3242V15.6641H23.1426C22.2051 15.6641 21.707 15.6742 21.707 15.6934C21.707 15.7095 21.6807 15.7227 21.6484 15.7227C21.6162 15.7227 21.5898 15.7358 21.5898 15.752C21.5898 15.7681 21.5635 15.7812 21.5312 15.7812C21.499 15.7812 21.4727 15.7944 21.4727 15.8105C21.4727 15.8267 21.4523 15.8398 21.4274 15.8398C21.3688 15.8398 21.2383 15.9703 21.2383 16.029C21.2383 16.0539 21.2251 16.0742 21.209 16.0742C21.1929 16.0742 21.1797 16.1006 21.1797 16.1328C21.1797 16.165 21.1665 16.1914 21.1504 16.1914C21.1343 16.1914 21.1211 16.2178 21.1211 16.25C21.1211 16.2822 21.1079 16.3086 21.0918 16.3086C21.0725 16.3086 21.0625 16.9922 21.0625 18.3008C21.0625 19.6094 21.0725 20.293 21.0918 20.293C21.1079 20.293 21.1211 20.3193 21.1211 20.3516C21.1211 20.3838 21.1343 20.4102 21.1504 20.4102C21.1665 20.4102 21.1797 20.4365 21.1797 20.4688C21.1797 20.501 21.1929 20.5273 21.209 20.5273C21.2251 20.5273 21.2383 20.5477 21.2383 20.5726C21.2383 20.6312 21.3688 20.7617 21.4274 20.7617C21.4523 20.7617 21.4727 20.7749 21.4727 20.791C21.4727 20.8071 21.499 20.8203 21.5312 20.8203C21.5635 20.8203 21.5898 20.8335 21.5898 20.8496C21.5898 20.8657 21.6162 20.8789 21.6484 20.8789C21.6807 20.8789 21.707 20.8921 21.707 20.9082C21.707 20.9267 21.9121 20.9375 22.2637 20.9375H22.8203V22.373C22.8203 23.3105 22.8305 23.8086 22.8496 23.8086C22.8657 23.8086 22.8789 23.835 22.8789 23.8672C22.8789 23.8994 22.8921 23.9258 22.9082 23.9258C22.9243 23.9258 22.9375 23.9521 22.9375 23.9844C22.9375 24.0166 22.9507 24.043 22.9668 24.043C22.9829 24.043 22.9961 24.0633 22.9961 24.0882C22.9961 24.1469 23.1266 24.2773 23.1852 24.2773C23.2101 24.2773 23.2305 24.2905 23.2305 24.3066C23.2305 24.3228 23.2568 24.3359 23.2891 24.3359C23.3213 24.3359 23.3477 24.3491 23.3477 24.3652C23.3477 24.3813 23.374 24.3945 23.4062 24.3945C23.4385 24.3945 23.4648 24.4077 23.4648 24.4238C23.4648 24.4423 23.6699 24.4531 24.0215 24.4531H24.5781V27.6465C24.5781 29.7559 24.5881 30.8398 24.6074 30.8398C24.6235 30.8398 24.6367 30.8662 24.6367 30.8984C24.6367 30.9307 24.6499 30.957 24.666 30.957C24.6821 30.957 24.6953 30.9834 24.6953 31.0156C24.6953 31.0479 24.7085 31.0742 24.7246 31.0742C24.7407 31.0742 24.7539 31.0946 24.7539 31.1195C24.7539 31.1781 24.8844 31.3086 24.943 31.3086C24.9679 31.3086 24.9883 31.3218 24.9883 31.3379C24.9883 31.354 25.0146 31.3672 25.0469 31.3672C25.0791 31.3672 25.1055 31.3804 25.1055 31.3965C25.1055 31.4126 25.1318 31.4258 25.1641 31.4258C25.1963 31.4258 25.2227 31.439 25.2227 31.4551C25.2227 31.4742 25.7207 31.4844 26.6582 31.4844H28.0938V32.041C28.0938 32.3926 28.083 32.5977 28.0645 32.5977C28.0483 32.5977 28.0352 32.624 28.0352 32.6562C28.0352 32.6885 28.022 32.7148 28.0059 32.7148C27.9897 32.7148 27.9766 32.7383 27.9766 32.767C27.9766 32.7956 27.9502 32.8381 27.918 32.8613C27.8857 32.8846 27.8594 32.9214 27.8594 32.9431C27.8594 32.9968 27.7861 33.0664 27.7296 33.0664C27.7043 33.0664 27.6836 33.0796 27.6836 33.0957C27.6836 33.1118 27.6572 33.125 27.625 33.125C27.5928 33.125 27.5664 33.1382 27.5664 33.1543C27.5664 33.1704 27.54 33.1836 27.5078 33.1836C27.4756 33.1836 27.4492 33.1968 27.4492 33.2129C27.4492 33.2319 27.0586 33.2422 26.3359 33.2422C25.6133 33.2422 25.2227 33.2525 25.2227 33.2715C25.2227 33.2876 25.1963 33.3008 25.1641 33.3008C25.1318 33.3008 25.1055 33.314 25.1055 33.3301C25.1055 33.3462 25.0791 33.3594 25.0469 33.3594C25.0146 33.3594 24.9883 33.3726 24.9883 33.3887C24.9883 33.4048 24.9679 33.418 24.943 33.418C24.8844 33.418 24.7539 33.5485 24.7539 33.6071C24.7539 33.632 24.7407 33.6523 24.7246 33.6523C24.7085 33.6523 24.6953 33.6787 24.6953 33.7109C24.6953 33.7432 24.6821 33.7695 24.666 33.7695C24.6499 33.7695 24.6367 33.7959 24.6367 33.8281C24.6367 33.8604 24.6235 33.8867 24.6074 33.8867C24.5903 33.8867 24.5781 33.9844 24.5781 34.1211C24.5781 34.2578 24.5903 34.3555 24.6074 34.3555C24.6235 34.3555 24.6367 34.3818 24.6367 34.4141C24.6367 34.4463 24.6499 34.4727 24.666 34.4727C24.6821 34.4727 24.6953 34.499 24.6953 34.5312C24.6953 34.5635 24.7085 34.5898 24.7246 34.5898C24.7407 34.5898 24.7539 34.6102 24.7539 34.6351C24.7539 34.6937 24.8844 34.8242 24.943 34.8242C24.9679 34.8242 24.9883 34.8374 24.9883 34.8535C24.9883 34.8696 25.0146 34.8828 25.0469 34.8828C25.0791 34.8828 25.1055 34.896 25.1055 34.9121C25.1055 34.9282 25.1318 34.9414 25.1641 34.9414C25.1963 34.9414 25.2227 34.9546 25.2227 34.9707C25.2227 34.9897 25.6328 35 26.3945 35C27.1562 35 27.5664 34.9897 27.5664 34.9707C27.5664 34.9546 27.6323 34.9414 27.7129 34.9414C27.7935 34.9414 27.8594 34.9282 27.8594 34.9121C27.8594 34.896 27.9121 34.8828 27.9766 34.8828C28.041 34.8828 28.0938 34.8696 28.0938 34.8535C28.0938 34.8374 28.1201 34.8242 28.1523 34.8242C28.1846 34.8242 28.2109 34.811 28.2109 34.7949C28.2109 34.7788 28.2373 34.7656 28.2695 34.7656C28.3018 34.7656 28.3281 34.7524 28.3281 34.7363C28.3281 34.7202 28.3545 34.707 28.3867 34.707C28.4189 34.707 28.4453 34.6938 28.4453 34.6777C28.4453 34.6616 28.4717 34.6484 28.5039 34.6484C28.5361 34.6484 28.5625 34.6353 28.5625 34.6191C28.5625 34.603 28.586 34.5898 28.6146 34.5898C28.6433 34.5898 28.6858 34.5635 28.709 34.5312C28.7322 34.499 28.7683 34.4727 28.7891 34.4727C28.8385 34.4727 29.3242 33.987 29.3242 33.9375C29.3242 33.9167 29.3506 33.8807 29.3828 33.8574C29.415 33.8342 29.4414 33.7917 29.4414 33.7631C29.4414 33.7344 29.4546 33.7109 29.4707 33.7109C29.4868 33.7109 29.5 33.6846 29.5 33.6523C29.5 33.6201 29.5132 33.5938 29.5293 33.5938C29.5454 33.5938 29.5586 33.5674 29.5586 33.5352C29.5586 33.5029 29.5718 33.4766 29.5879 33.4766C29.604 33.4766 29.6172 33.4502 29.6172 33.418C29.6172 33.3857 29.6304 33.3594 29.6465 33.3594C29.6626 33.3594 29.6758 33.333 29.6758 33.3008C29.6758 33.2686 29.689 33.2422 29.7051 33.2422C29.7212 33.2422 29.7344 33.1895 29.7344 33.125C29.7344 33.0605 29.7476 33.0078 29.7637 33.0078C29.7798 33.0078 29.793 32.9419 29.793 32.8613C29.793 32.7808 29.8062 32.7148 29.8223 32.7148C29.8417 32.7148 29.8516 31.3183 29.8516 28.584V24.4531H30.4082C30.7598 24.4531 30.9648 24.4423 30.9648 24.4238C30.9648 24.4077 30.9912 24.3945 31.0234 24.3945C31.0557 24.3945 31.082 24.3813 31.082 24.3652C31.082 24.3491 31.1084 24.3359 31.1406 24.3359C31.1729 24.3359 31.1992 24.3228 31.1992 24.3066C31.1992 24.2905 31.2196 24.2773 31.2445 24.2773C31.3031 24.2773 31.4336 24.1469 31.4336 24.0882C31.4336 24.0633 31.4468 24.043 31.4629 24.043C31.479 24.043 31.4922 24.0166 31.4922 23.9844C31.4922 23.9521 31.5054 23.9258 31.5215 23.9258C31.5376 23.9258 31.5508 23.8994 31.5508 23.8672C31.5508 23.835 31.564 23.8086 31.5801 23.8086C31.5992 23.8086 31.6094 23.3105 31.6094 22.373V20.9375H32.166C32.5176 20.9375 32.7227 20.9267 32.7227 20.9082C32.7227 20.8921 32.749 20.8789 32.7812 20.8789C32.8135 20.8789 32.8398 20.8657 32.8398 20.8496C32.8398 20.8335 32.8662 20.8203 32.8984 20.8203C32.9307 20.8203 32.957 20.8071 32.957 20.791C32.957 20.7749 32.9774 20.7617 33.0023 20.7617C33.0609 20.7617 33.1914 20.6312 33.1914 20.5726C33.1914 20.5477 33.2046 20.5273 33.2207 20.5273C33.2368 20.5273 33.25 20.501 33.25 20.4688C33.25 20.4365 33.2632 20.4102 33.2793 20.4102C33.2954 20.4102 33.3086 20.3838 33.3086 20.3516C33.3086 20.3193 33.3218 20.293 33.3379 20.293C33.3571 20.293 33.3672 19.6094 33.3672 18.3008C33.3672 16.9922 33.3571 16.3086 33.3379 16.3086C33.3218 16.3086 33.3086 16.2822 33.3086 16.25C33.3086 16.2178 33.2954 16.1914 33.2793 16.1914C33.2632 16.1914 33.25 16.165 33.25 16.1328C33.25 16.1006 33.2368 16.0742 33.2207 16.0742C33.2046 16.0742 33.1914 16.0539 33.1914 16.029C33.1914 15.9703 33.0609 15.8398 33.0023 15.8398C32.9774 15.8398 32.957 15.8267 32.957 15.8105C32.957 15.7944 32.9307 15.7812 32.8984 15.7812C32.8662 15.7812 32.8398 15.7681 32.8398 15.752C32.8398 15.7358 32.8135 15.7227 32.7812 15.7227C32.749 15.7227 32.7227 15.7095 32.7227 15.6934C32.7227 15.6742 32.2246 15.6641 31.2871 15.6641H29.8516V12.3242C29.8516 10.1172 29.8416 8.98438 29.8223 8.98438C29.8062 8.98438 29.793 8.93164 29.793 8.86719C29.793 8.80273 29.7798 8.75 29.7637 8.75C29.7476 8.75 29.7344 8.69727 29.7344 8.63281C29.7344 8.56836 29.7212 8.51562 29.7051 8.51562C29.689 8.51562 29.6758 8.48926 29.6758 8.45703C29.6758 8.4248 29.6626 8.39844 29.6465 8.39844C29.6304 8.39844 29.6172 8.36179 29.6172 8.31702C29.6172 8.26921 29.593 8.21817 29.5586 8.19336C29.5264 8.17013 29.5 8.12768 29.5 8.09899C29.5 8.07034 29.4868 8.04688 29.4707 8.04688C29.4546 8.04688 29.4414 8.02341 29.4414 7.99476C29.4414 7.96607 29.415 7.92362 29.3828 7.90039C29.3506 7.87716 29.3242 7.84109 29.3242 7.82026C29.3242 7.77084 28.8385 7.28516 28.7891 7.28516C28.7683 7.28516 28.7322 7.25879 28.709 7.22656C28.6858 7.19434 28.6462 7.16797 28.6211 7.16797C28.596 7.16797 28.5564 7.1416 28.5332 7.10938C28.51 7.07715 28.4675 7.05078 28.4388 7.05078C28.4102 7.05078 28.3867 7.0376 28.3867 7.02148C28.3867 7.00537 28.3472 6.99219 28.2988 6.99219C28.2505 6.99219 28.2109 6.979 28.2109 6.96289C28.2109 6.94678 28.1846 6.93359 28.1523 6.93359C28.0955 6.93359 28.0938 6.91405 28.0938 6.28906C28.0938 5.87891 28.0831 5.64453 28.0645 5.64453C28.0483 5.64453 28.0352 5.61816 28.0352 5.58594C28.0352 5.55371 28.022 5.52734 28.0059 5.52734C27.9897 5.52734 27.9766 5.50098 27.9766 5.46875C27.9766 5.43652 27.9634 5.41016 27.9473 5.41016C27.9312 5.41016 27.918 5.38979 27.918 5.36489C27.918 5.30627 27.7875 5.17578 27.7289 5.17578C27.704 5.17578 27.6836 5.1626 27.6836 5.14648C27.6836 5.13037 27.6572 5.11719 27.625 5.11719C27.5928 5.11719 27.5664 5.104 27.5664 5.08789C27.5664 5.07178 27.54 5.05859 27.5078 5.05859C27.4756 5.05859 27.4492 5.04541 27.4492 5.0293C27.4492 5.01222 27.3516 5 27.2148 5C27.0781 5 26.9805 5.01222 26.9805 5.0293ZM17.5469 7.63672V8.51562H13.1523H8.75781V7.63672V6.75781H13.1523H17.5469V7.63672ZM27.4492 8.54492C27.4492 8.56104 27.4756 8.57422 27.5078 8.57422C27.54 8.57422 27.5664 8.5874 27.5664 8.60352C27.5664 8.61963 27.5928 8.63281 27.625 8.63281C27.6572 8.63281 27.6836 8.646 27.6836 8.66211C27.6836 8.67822 27.704 8.69141 27.7289 8.69141C27.7875 8.69141 27.918 8.82189 27.918 8.88052C27.918 8.90542 27.9312 8.92578 27.9473 8.92578C27.9634 8.92578 27.9766 8.95215 27.9766 8.98438C27.9766 9.0166 27.9897 9.04297 28.0059 9.04297C28.022 9.04297 28.0352 9.06934 28.0352 9.10156C28.0352 9.13379 28.0483 9.16016 28.0645 9.16016C28.0838 9.16016 28.0938 10.2637 28.0938 12.4121V15.6641H27.2148H26.3359V12.4121C26.3359 10.2637 26.3459 9.16016 26.3652 9.16016C26.3813 9.16016 26.3945 9.13379 26.3945 9.10156C26.3945 9.06934 26.4077 9.04297 26.4238 9.04297C26.4399 9.04297 26.4531 9.0195 26.4531 8.99085C26.4531 8.96217 26.4795 8.91972 26.5117 8.89648C26.5439 8.87325 26.5703 8.8308 26.5703 8.80212C26.5703 8.77168 26.592 8.75 26.6224 8.75C26.6511 8.75 26.6936 8.72363 26.7168 8.69141C26.74 8.65918 26.7825 8.63281 26.8112 8.63281C26.8398 8.63281 26.8633 8.61963 26.8633 8.60352C26.8633 8.5874 26.8896 8.57422 26.9219 8.57422C26.9541 8.57422 26.9805 8.56104 26.9805 8.54492C26.9805 8.52784 27.0781 8.51562 27.2148 8.51562C27.3516 8.51562 27.4492 8.52784 27.4492 8.54492ZM17.5469 12.9688V15.6641H17.459C17.4106 15.6641 17.3711 15.6509 17.3711 15.6348C17.3711 15.6185 17.293 15.6055 17.1953 15.6055C17.0977 15.6055 17.0195 15.5925 17.0195 15.5762C17.0195 15.5568 15.7012 15.5469 13.123 15.5469C10.5449 15.5469 9.22656 15.5568 9.22656 15.5762C9.22656 15.5923 9.16064 15.6055 9.08008 15.6055C8.99951 15.6055 8.93359 15.6187 8.93359 15.6348C8.93359 15.6509 8.89404 15.6641 8.8457 15.6641H8.75781V12.9688V10.2734H13.1523H17.5469V12.9688ZM12.918 12.0605C12.918 12.0767 12.8916 12.0898 12.8594 12.0898C12.8271 12.0898 12.8008 12.103 12.8008 12.1191C12.8008 12.1353 12.7744 12.1484 12.7422 12.1484C12.71 12.1484 12.6836 12.1616 12.6836 12.1777C12.6836 12.1938 12.6632 12.207 12.6383 12.207C12.6134 12.207 12.5607 12.2394 12.5211 12.279C12.4816 12.3185 12.4492 12.3712 12.4492 12.3961C12.4492 12.421 12.436 12.4414 12.4199 12.4414C12.4038 12.4414 12.3906 12.4678 12.3906 12.5C12.3906 12.5322 12.3774 12.5586 12.3613 12.5586C12.3452 12.5586 12.332 12.585 12.332 12.6172C12.332 12.6494 12.3188 12.6758 12.3027 12.6758C12.2857 12.6758 12.2734 12.7734 12.2734 12.9102C12.2734 13.0469 12.2857 13.1445 12.3027 13.1445C12.3188 13.1445 12.332 13.1709 12.332 13.2031C12.332 13.2354 12.3452 13.2617 12.3613 13.2617C12.3774 13.2617 12.3906 13.2881 12.3906 13.3203C12.3906 13.3525 12.4038 13.3789 12.4199 13.3789C12.436 13.3789 12.4492 13.3993 12.4492 13.4242C12.4492 13.4828 12.5797 13.6133 12.6383 13.6133C12.6632 13.6133 12.6836 13.6265 12.6836 13.6426C12.6836 13.6587 12.71 13.6719 12.7422 13.6719C12.7744 13.6719 12.8008 13.6851 12.8008 13.7012C12.8008 13.7173 12.8271 13.7305 12.8594 13.7305C12.8916 13.7305 12.918 13.7437 12.918 13.7598C12.918 13.7768 13.0156 13.7891 13.1523 13.7891C13.2891 13.7891 13.3867 13.7768 13.3867 13.7598C13.3867 13.7437 13.4131 13.7305 13.4453 13.7305C13.4775 13.7305 13.5039 13.7173 13.5039 13.7012C13.5039 13.6851 13.5303 13.6719 13.5625 13.6719C13.5947 13.6719 13.6211 13.6587 13.6211 13.6426C13.6211 13.6265 13.6415 13.6133 13.6664 13.6133C13.6913 13.6133 13.744 13.5809 13.7835 13.5414C13.8231 13.5018 13.8555 13.4491 13.8555 13.4242C13.8555 13.3993 13.8687 13.3789 13.8848 13.3789C13.9009 13.3789 13.9141 13.3525 13.9141 13.3203C13.9141 13.2881 13.9272 13.2617 13.9434 13.2617C13.9595 13.2617 13.9727 13.2354 13.9727 13.2031C13.9727 13.1709 13.9858 13.1445 14.002 13.1445C14.019 13.1445 14.0312 13.0469 14.0312 12.9102C14.0312 12.7734 14.019 12.6758 14.002 12.6758C13.9858 12.6758 13.9727 12.6494 13.9727 12.6172C13.9727 12.585 13.9595 12.5586 13.9434 12.5586C13.9272 12.5586 13.9141 12.5322 13.9141 12.5C13.9141 12.4678 13.9009 12.4414 13.8848 12.4414C13.8687 12.4414 13.8555 12.421 13.8555 12.3961C13.8555 12.3375 13.725 12.207 13.6664 12.207C13.6415 12.207 13.6211 12.1938 13.6211 12.1777C13.6211 12.1616 13.5947 12.1484 13.5625 12.1484C13.5303 12.1484 13.5039 12.1353 13.5039 12.1191C13.5039 12.103 13.4775 12.0898 13.4453 12.0898C13.4131 12.0898 13.3867 12.0767 13.3867 12.0605C13.3867 12.0435 13.2891 12.0312 13.1523 12.0312C13.0156 12.0312 12.918 12.0435 12.918 12.0605ZM14.0312 19.8242C14.0312 21.4844 14.0412 22.3438 14.0605 22.3438C14.0768 22.3438 14.0898 22.4219 14.0898 22.5195C14.0898 22.6172 14.1029 22.6953 14.1191 22.6953C14.1353 22.6953 14.1484 22.7612 14.1484 22.8418C14.1484 22.9224 14.1616 22.9883 14.1777 22.9883C14.1938 22.9883 14.207 23.0278 14.207 23.0762C14.207 23.1245 14.2202 23.1641 14.2363 23.1641C14.2524 23.1641 14.2656 23.2036 14.2656 23.252C14.2656 23.3003 14.2788 23.3398 14.2949 23.3398C14.311 23.3398 14.3242 23.3662 14.3242 23.3984C14.3242 23.4307 14.3374 23.457 14.3535 23.457C14.3696 23.457 14.3828 23.4966 14.3828 23.5449C14.3828 23.5933 14.396 23.6328 14.4121 23.6328C14.4282 23.6328 14.4414 23.6592 14.4414 23.6914C14.4414 23.7236 14.4546 23.75 14.4707 23.75C14.4868 23.75 14.5 23.7764 14.5 23.8086C14.5 23.8408 14.5132 23.8672 14.5293 23.8672C14.5454 23.8672 14.5586 23.8936 14.5586 23.9258C14.5586 23.958 14.5718 23.9844 14.5879 23.9844C14.604 23.9844 14.6172 24.0078 14.6172 24.0365C14.6172 24.0652 14.6436 24.1076 14.6758 24.1309C14.708 24.1541 14.7344 24.1936 14.7344 24.2188C14.7344 24.2439 14.7607 24.2834 14.793 24.3066C14.8252 24.3299 14.8516 24.3671 14.8516 24.3893C14.8516 24.4114 14.8911 24.4666 14.9395 24.5117C14.9878 24.5569 15.0273 24.6085 15.0273 24.6264C15.0273 24.6685 15.5731 25.2148 15.6152 25.2148C15.6328 25.2148 15.6978 25.2676 15.7598 25.332C15.8217 25.3965 15.8867 25.4492 15.9043 25.4492C15.9463 25.4492 16.6094 26.1129 16.6094 26.1549C16.6094 26.1728 16.6489 26.2244 16.6973 26.2695C16.7456 26.3147 16.7852 26.3698 16.7852 26.392C16.7852 26.4142 16.8115 26.4514 16.8438 26.4746C16.876 26.4978 16.9023 26.5403 16.9023 26.569C16.9023 26.5976 16.9155 26.6211 16.9316 26.6211C16.9478 26.6211 16.9609 26.6475 16.9609 26.6797C16.9609 26.7119 16.9741 26.7383 16.9902 26.7383C17.0063 26.7383 17.0195 26.7617 17.0195 26.7904C17.0195 26.8191 17.0459 26.8615 17.0781 26.8848C17.1125 26.9096 17.1367 26.9606 17.1367 27.0084C17.1367 27.0532 17.1499 27.0898 17.166 27.0898C17.1821 27.0898 17.1953 27.1162 17.1953 27.1484C17.1953 27.1807 17.2085 27.207 17.2246 27.207C17.2407 27.207 17.2539 27.2466 17.2539 27.2949C17.2539 27.3433 17.2671 27.3828 17.2832 27.3828C17.2993 27.3828 17.3125 27.4092 17.3125 27.4414C17.3125 27.4736 17.3257 27.5 17.3418 27.5C17.3579 27.5 17.3711 27.5527 17.3711 27.6172C17.3711 27.6816 17.3843 27.7344 17.4004 27.7344C17.4165 27.7344 17.4297 27.7871 17.4297 27.8516C17.4297 27.916 17.4429 27.9688 17.459 27.9688C17.4757 27.9688 17.4883 28.0566 17.4883 28.1738C17.4883 28.291 17.5008 28.3789 17.5176 28.3789C17.5359 28.3789 17.5469 28.5547 17.5469 28.8477C17.5469 29.1406 17.5359 29.3164 17.5176 29.3164C17.5008 29.3164 17.4883 29.4043 17.4883 29.5215C17.4883 29.6387 17.4757 29.7266 17.459 29.7266C17.4429 29.7266 17.4297 29.7793 17.4297 29.8438C17.4297 29.9082 17.4165 29.9609 17.4004 29.9609C17.3843 29.9609 17.3711 30.0137 17.3711 30.0781C17.3711 30.1426 17.3579 30.1953 17.3418 30.1953C17.3257 30.1953 17.3125 30.2349 17.3125 30.2832C17.3125 30.3315 17.2993 30.3711 17.2832 30.3711C17.2671 30.3711 17.2539 30.3975 17.2539 30.4297C17.2539 30.4619 17.2407 30.4883 17.2246 30.4883C17.2085 30.4883 17.1953 30.5146 17.1953 30.5469C17.1953 30.5791 17.1821 30.6055 17.166 30.6055C17.1499 30.6055 17.1367 30.645 17.1367 30.6934C17.1367 30.7417 17.1235 30.7812 17.1074 30.7812C17.0913 30.7812 17.0781 30.8047 17.0781 30.8334C17.0781 30.8621 17.0518 30.9045 17.0195 30.9277C16.9873 30.951 16.9609 30.9934 16.9609 31.0221C16.9609 31.0508 16.9478 31.0742 16.9316 31.0742C16.9155 31.0742 16.9023 31.0977 16.9023 31.1263C16.9023 31.155 16.876 31.1975 16.8438 31.2207C16.8115 31.2439 16.7852 31.2835 16.7852 31.3086C16.7852 31.3337 16.7588 31.3733 16.7266 31.3965C16.6943 31.4197 16.668 31.4563 16.668 31.4778C16.668 31.4993 16.5889 31.5946 16.4922 31.6895C16.3955 31.7843 16.3164 31.8768 16.3164 31.895C16.3164 31.9376 16.2423 32.0117 16.1997 32.0117C16.1815 32.0117 16.089 32.0908 15.9941 32.1875C15.8992 32.2842 15.804 32.3633 15.7825 32.3633C15.761 32.3633 15.7244 32.3896 15.7012 32.4219C15.6779 32.4541 15.6384 32.4805 15.6133 32.4805C15.5882 32.4805 15.5486 32.5068 15.5254 32.5391C15.5022 32.5713 15.4597 32.5977 15.431 32.5977C15.4024 32.5977 15.3789 32.6108 15.3789 32.627C15.3789 32.6431 15.3554 32.6562 15.3268 32.6562C15.2981 32.6562 15.2557 32.6826 15.2324 32.7148C15.2092 32.7471 15.1667 32.7734 15.1381 32.7734C15.1094 32.7734 15.0859 32.7866 15.0859 32.8027C15.0859 32.8188 15.0464 32.832 14.998 32.832C14.9497 32.832 14.9102 32.8452 14.9102 32.8613C14.9102 32.8774 14.8838 32.8906 14.8516 32.8906C14.8193 32.8906 14.793 32.9038 14.793 32.9199C14.793 32.936 14.7666 32.9492 14.7344 32.9492C14.7021 32.9492 14.6758 32.9624 14.6758 32.9785C14.6758 32.9946 14.6362 33.0078 14.5879 33.0078C14.5396 33.0078 14.5 33.021 14.5 33.0371C14.5 33.0532 14.4473 33.0664 14.3828 33.0664C14.3184 33.0664 14.2656 33.0796 14.2656 33.0957C14.2656 33.1118 14.2129 33.125 14.1484 33.125C14.084 33.125 14.0312 33.1382 14.0312 33.1543C14.0312 33.1706 13.9531 33.1836 13.8555 33.1836C13.7578 33.1836 13.6797 33.1966 13.6797 33.2129C13.6797 33.2313 13.4942 33.2422 13.1816 33.2422C12.8691 33.2422 12.6836 33.2313 12.6836 33.2129C12.6836 33.1962 12.5957 33.1836 12.4785 33.1836C12.3613 33.1836 12.2734 33.171 12.2734 33.1543C12.2734 33.1382 12.2207 33.125 12.1562 33.125C12.0918 33.125 12.0391 33.1118 12.0391 33.0957C12.0391 33.0796 11.9863 33.0664 11.9219 33.0664C11.8574 33.0664 11.8047 33.0532 11.8047 33.0371C11.8047 33.021 11.7651 33.0078 11.7168 33.0078C11.6685 33.0078 11.6289 32.9946 11.6289 32.9785C11.6289 32.9624 11.6025 32.9492 11.5703 32.9492C11.5381 32.9492 11.5117 32.936 11.5117 32.9199C11.5117 32.9038 11.4854 32.8906 11.4531 32.8906C11.4209 32.8906 11.3945 32.8774 11.3945 32.8613C11.3945 32.8452 11.355 32.832 11.3066 32.832C11.2583 32.832 11.2188 32.8188 11.2188 32.8027C11.2188 32.7866 11.1953 32.7734 11.1666 32.7734C11.1379 32.7734 11.0955 32.7471 11.0723 32.7148C11.049 32.6826 11.0066 32.6562 10.9779 32.6562C10.9492 32.6562 10.9258 32.6431 10.9258 32.627C10.9258 32.6108 10.9023 32.5977 10.8737 32.5977C10.845 32.5977 10.8025 32.5713 10.7793 32.5391C10.7561 32.5068 10.7165 32.4805 10.6914 32.4805C10.6663 32.4805 10.6267 32.4541 10.6035 32.4219C10.5803 32.3896 10.5443 32.3633 10.5236 32.3633C10.4743 32.3633 9.63672 31.5257 9.63672 31.4764C9.63672 31.4557 9.61035 31.4197 9.57812 31.3965C9.5459 31.3733 9.51953 31.3337 9.51953 31.3086C9.51953 31.2835 9.49316 31.2439 9.46094 31.2207C9.42871 31.1975 9.40234 31.155 9.40234 31.1263C9.40234 31.0977 9.38916 31.0742 9.37305 31.0742C9.35693 31.0742 9.34375 31.0508 9.34375 31.0221C9.34375 30.9934 9.31738 30.951 9.28516 30.9277C9.25293 30.9045 9.22656 30.8621 9.22656 30.8334C9.22656 30.8047 9.21338 30.7812 9.19727 30.7812C9.18115 30.7812 9.16797 30.7417 9.16797 30.6934C9.16797 30.645 9.15479 30.6055 9.13867 30.6055C9.12256 30.6055 9.10938 30.5791 9.10938 30.5469C9.10938 30.5146 9.09619 30.4883 9.08008 30.4883C9.06396 30.4883 9.05078 30.4619 9.05078 30.4297C9.05078 30.3975 9.0376 30.3711 9.02148 30.3711C9.00537 30.3711 8.99219 30.3315 8.99219 30.2832C8.99219 30.2349 8.979 30.1953 8.96289 30.1953C8.94678 30.1953 8.93359 30.1426 8.93359 30.0781C8.93359 30.0137 8.92041 29.9609 8.9043 29.9609C8.88818 29.9609 8.875 29.9082 8.875 29.8438C8.875 29.7793 8.86182 29.7266 8.8457 29.7266C8.82941 29.7266 8.81641 29.6484 8.81641 29.5508C8.81641 29.4531 8.8034 29.375 8.78711 29.375C8.76865 29.375 8.75781 29.1797 8.75781 28.8477C8.75781 28.5156 8.76865 28.3203 8.78711 28.3203C8.8034 28.3203 8.81641 28.2422 8.81641 28.1445C8.81641 28.0469 8.82941 27.9688 8.8457 27.9688C8.86182 27.9688 8.875 27.916 8.875 27.8516C8.875 27.7871 8.88818 27.7344 8.9043 27.7344C8.92041 27.7344 8.93359 27.6816 8.93359 27.6172C8.93359 27.5527 8.94678 27.5 8.96289 27.5C8.979 27.5 8.99219 27.4604 8.99219 27.4121C8.99219 27.3638 9.00537 27.3242 9.02148 27.3242C9.0376 27.3242 9.05078 27.2979 9.05078 27.2656C9.05078 27.2334 9.06396 27.207 9.08008 27.207C9.09619 27.207 9.10938 27.1807 9.10938 27.1484C9.10938 27.1162 9.12256 27.0898 9.13867 27.0898C9.15479 27.0898 9.16797 27.0503 9.16797 27.002C9.16797 26.9536 9.18115 26.9141 9.19727 26.9141C9.21338 26.9141 9.22656 26.8906 9.22656 26.8619C9.22656 26.8333 9.25293 26.7908 9.28516 26.7676C9.31738 26.7443 9.34375 26.7019 9.34375 26.6732C9.34375 26.6446 9.35693 26.6211 9.37305 26.6211C9.38916 26.6211 9.40234 26.5976 9.40234 26.569C9.40234 26.5403 9.42871 26.4978 9.46094 26.4746C9.49316 26.4514 9.51953 26.4142 9.51953 26.392C9.51953 26.3698 9.55908 26.3147 9.60742 26.2695C9.65576 26.2244 9.69531 26.1728 9.69531 26.1549C9.69531 26.1125 10.3586 25.4492 10.401 25.4492C10.4189 25.4492 10.4705 25.4097 10.5156 25.3613C10.5608 25.313 10.6123 25.2734 10.6302 25.2734C10.6759 25.2734 11.3945 24.5498 11.3945 24.5038C11.3945 24.4831 11.4209 24.4471 11.4531 24.4238C11.4854 24.4006 11.5117 24.361 11.5117 24.3359C11.5117 24.3108 11.5381 24.2713 11.5703 24.248C11.6025 24.2248 11.6289 24.1853 11.6289 24.1602C11.6289 24.135 11.6553 24.0955 11.6875 24.0723C11.7197 24.049 11.7461 24.0066 11.7461 23.9779C11.7461 23.9492 11.7593 23.9258 11.7754 23.9258C11.7915 23.9258 11.8047 23.8994 11.8047 23.8672C11.8047 23.835 11.8179 23.8086 11.834 23.8086C11.8501 23.8086 11.8633 23.7822 11.8633 23.75C11.8633 23.7178 11.8765 23.6914 11.8926 23.6914C11.9087 23.6914 11.9219 23.6519 11.9219 23.6035C11.9219 23.5552 11.9351 23.5156 11.9512 23.5156C11.9673 23.5156 11.9805 23.4893 11.9805 23.457C11.9805 23.4248 11.9937 23.3984 12.0098 23.3984C12.0259 23.3984 12.0391 23.3589 12.0391 23.3105C12.0391 23.2622 12.0522 23.2227 12.0684 23.2227C12.0845 23.2227 12.0977 23.1699 12.0977 23.1055C12.0977 23.041 12.1108 22.9883 12.127 22.9883C12.1431 22.9883 12.1562 22.9355 12.1562 22.8711C12.1562 22.8066 12.1694 22.7539 12.1855 22.7539C12.2018 22.7539 12.2148 22.6758 12.2148 22.5781C12.2148 22.4805 12.2279 22.4023 12.2441 22.4023C12.2634 22.4023 12.2734 21.5332 12.2734 19.8535V17.3047H13.1523H14.0312V19.8242ZM26.3359 18.3008V19.1797H24.5781H22.8203V18.3008V17.4219H24.5781H26.3359V18.3008ZM31.6094 18.3008V19.1797H29.8516H28.0938V18.3008V17.4219H29.8516H31.6094V18.3008ZM29.8516 21.8164V22.6953H27.2148H24.5781V21.8164V20.9375H27.2148H29.8516V21.8164ZM28.0938 25.332V26.2109H27.2148H26.3359V25.332V24.4531H27.2148H28.0938V25.332ZM12.8008 26.2402C12.8008 26.2563 12.7349 26.2695 12.6543 26.2695C12.5737 26.2695 12.5078 26.2827 12.5078 26.2988C12.5078 26.3149 12.4551 26.3281 12.3906 26.3281C12.3262 26.3281 12.2734 26.3413 12.2734 26.3574C12.2734 26.3735 12.2471 26.3867 12.2148 26.3867C12.1826 26.3867 12.1562 26.3999 12.1562 26.416C12.1562 26.4321 12.1299 26.4453 12.0977 26.4453C12.0654 26.4453 12.0391 26.4585 12.0391 26.4746C12.0391 26.4907 12.0024 26.5039 11.9576 26.5039C11.9098 26.5039 11.8588 26.5281 11.834 26.5625C11.8108 26.5947 11.7712 26.6211 11.7461 26.6211C11.721 26.6211 11.6814 26.6475 11.6582 26.6797C11.635 26.7119 11.5989 26.7383 11.5781 26.7383C11.5287 26.7383 11.043 27.224 11.043 27.2734C11.043 27.2942 11.0166 27.3303 10.9844 27.3535C10.9521 27.3767 10.9258 27.4163 10.9258 27.4414C10.9258 27.4665 10.8994 27.5061 10.8672 27.5293C10.835 27.5525 10.8086 27.595 10.8086 27.6237C10.8086 27.6523 10.7954 27.6758 10.7793 27.6758C10.7632 27.6758 10.75 27.7153 10.75 27.7637C10.75 27.812 10.7368 27.8516 10.7207 27.8516C10.7046 27.8516 10.6914 27.8779 10.6914 27.9102C10.6914 27.9424 10.6782 27.9688 10.6621 27.9688C10.646 27.9688 10.6328 28.0215 10.6328 28.0859C10.6328 28.1504 10.6196 28.2031 10.6035 28.2031C10.5874 28.2031 10.5742 28.269 10.5742 28.3496C10.5742 28.4302 10.561 28.4961 10.5449 28.4961C10.5269 28.4961 10.5156 28.6426 10.5156 28.877C10.5156 29.1113 10.5269 29.2578 10.5449 29.2578C10.561 29.2578 10.5742 29.3105 10.5742 29.375C10.5742 29.4395 10.5874 29.4922 10.6035 29.4922C10.6196 29.4922 10.6328 29.5449 10.6328 29.6094C10.6328 29.6738 10.646 29.7266 10.6621 29.7266C10.6782 29.7266 10.6914 29.7529 10.6914 29.7852C10.6914 29.8174 10.7046 29.8438 10.7207 29.8438C10.7368 29.8438 10.75 29.8833 10.75 29.9316C10.75 29.98 10.7632 30.0195 10.7793 30.0195C10.7954 30.0195 10.8086 30.043 10.8086 30.0716C10.8086 30.1003 10.835 30.1428 10.8672 30.166C10.8994 30.1892 10.9258 30.2288 10.9258 30.2539C10.9258 30.279 10.9521 30.3186 10.9844 30.3418C11.0166 30.365 11.043 30.4011 11.043 30.4219C11.043 30.4713 11.5287 30.957 11.5781 30.957C11.5989 30.957 11.635 30.9834 11.6582 31.0156C11.6814 31.0479 11.721 31.0742 11.7461 31.0742C11.7712 31.0742 11.8108 31.1006 11.834 31.1328C11.8588 31.1672 11.9098 31.1914 11.9576 31.1914C12.0024 31.1914 12.0391 31.2046 12.0391 31.2207C12.0391 31.2368 12.0654 31.25 12.0977 31.25C12.1299 31.25 12.1562 31.2632 12.1562 31.2793C12.1562 31.2954 12.1826 31.3086 12.2148 31.3086C12.2471 31.3086 12.2734 31.3218 12.2734 31.3379C12.2734 31.354 12.3262 31.3672 12.3906 31.3672C12.4551 31.3672 12.5078 31.3804 12.5078 31.3965C12.5078 31.4126 12.5737 31.4258 12.6543 31.4258C12.7349 31.4258 12.8008 31.439 12.8008 31.4551C12.8008 31.473 12.9375 31.4844 13.1523 31.4844C13.3672 31.4844 13.5039 31.473 13.5039 31.4551C13.5039 31.439 13.5698 31.4258 13.6504 31.4258C13.731 31.4258 13.7969 31.4126 13.7969 31.3965C13.7969 31.3804 13.8496 31.3672 13.9141 31.3672C13.9785 31.3672 14.0312 31.354 14.0312 31.3379C14.0312 31.3218 14.0576 31.3086 14.0898 31.3086C14.1221 31.3086 14.1484 31.2954 14.1484 31.2793C14.1484 31.2632 14.188 31.25 14.2363 31.25C14.2847 31.25 14.3242 31.2368 14.3242 31.2207C14.3242 31.2046 14.3477 31.1914 14.3763 31.1914C14.405 31.1914 14.4475 31.165 14.4707 31.1328C14.4939 31.1006 14.5335 31.0742 14.5586 31.0742C14.5837 31.0742 14.6233 31.0479 14.6465 31.0156C14.6697 30.9834 14.7058 30.957 14.7266 30.957C14.776 30.957 15.2617 30.4713 15.2617 30.4219C15.2617 30.4011 15.2881 30.365 15.3203 30.3418C15.3525 30.3186 15.3789 30.279 15.3789 30.2539C15.3789 30.2288 15.4053 30.1892 15.4375 30.166C15.4697 30.1428 15.4961 30.1003 15.4961 30.0716C15.4961 30.043 15.5093 30.0195 15.5254 30.0195C15.5415 30.0195 15.5547 29.98 15.5547 29.9316C15.5547 29.8833 15.5679 29.8438 15.584 29.8438C15.6001 29.8438 15.6133 29.8174 15.6133 29.7852C15.6133 29.7529 15.6265 29.7266 15.6426 29.7266C15.6587 29.7266 15.6719 29.6738 15.6719 29.6094C15.6719 29.5449 15.6851 29.4922 15.7012 29.4922C15.7173 29.4922 15.7305 29.4263 15.7305 29.3457C15.7305 29.2651 15.7437 29.1992 15.7598 29.1992C15.7777 29.1992 15.7891 29.0625 15.7891 28.8477C15.7891 28.6328 15.7777 28.4961 15.7598 28.4961C15.7437 28.4961 15.7305 28.4302 15.7305 28.3496C15.7305 28.269 15.7173 28.2031 15.7012 28.2031C15.6851 28.2031 15.6719 28.1504 15.6719 28.0859C15.6719 28.0215 15.6587 27.9688 15.6426 27.9688C15.6265 27.9688 15.6133 27.9424 15.6133 27.9102C15.6133 27.8779 15.6001 27.8516 15.584 27.8516C15.5679 27.8516 15.5547 27.8252 15.5547 27.793C15.5547 27.7607 15.5415 27.7344 15.5254 27.7344C15.5093 27.7344 15.4961 27.6977 15.4961 27.653C15.4961 27.6051 15.4719 27.5541 15.4375 27.5293C15.4053 27.5061 15.3789 27.4665 15.3789 27.4414C15.3789 27.4163 15.3525 27.3767 15.3203 27.3535C15.2881 27.3303 15.2617 27.2942 15.2617 27.2734C15.2617 27.224 14.776 26.7383 14.7266 26.7383C14.7058 26.7383 14.6697 26.7119 14.6465 26.6797C14.6233 26.6475 14.5837 26.6211 14.5586 26.6211C14.5335 26.6211 14.4939 26.5947 14.4707 26.5625C14.4475 26.5303 14.405 26.5039 14.3763 26.5039C14.3477 26.5039 14.3242 26.4907 14.3242 26.4746C14.3242 26.4585 14.2847 26.4453 14.2363 26.4453C14.188 26.4453 14.1484 26.4321 14.1484 26.416C14.1484 26.3999 14.1221 26.3867 14.0898 26.3867C14.0576 26.3867 14.0312 26.3735 14.0312 26.3574C14.0312 26.3413 13.9785 26.3281 13.9141 26.3281C13.8496 26.3281 13.7969 26.3149 13.7969 26.2988C13.7969 26.2827 13.7441 26.2695 13.6797 26.2695C13.6152 26.2695 13.5625 26.2563 13.5625 26.2402C13.5625 26.2222 13.416 26.2109 13.1816 26.2109C12.9473 26.2109 12.8008 26.2222 12.8008 26.2402ZM13.3867 27.998C13.3867 28.0142 13.4131 28.0273 13.4453 28.0273C13.4775 28.0273 13.5039 28.0405 13.5039 28.0566C13.5039 28.0728 13.5303 28.0859 13.5625 28.0859C13.5947 28.0859 13.6211 28.0991 13.6211 28.1152C13.6211 28.1313 13.6415 28.1445 13.6664 28.1445C13.725 28.1445 13.8555 28.275 13.8555 28.3336C13.8555 28.3585 13.8687 28.3789 13.8848 28.3789C13.9009 28.3789 13.9141 28.4053 13.9141 28.4375C13.9141 28.4697 13.9272 28.4961 13.9434 28.4961C13.9595 28.4961 13.9727 28.5225 13.9727 28.5547C13.9727 28.5869 13.9858 28.6133 14.002 28.6133C14.019 28.6133 14.0312 28.7109 14.0312 28.8477C14.0312 28.9844 14.019 29.082 14.002 29.082C13.9858 29.082 13.9727 29.1084 13.9727 29.1406C13.9727 29.1729 13.9595 29.1992 13.9434 29.1992C13.9272 29.1992 13.9141 29.2256 13.9141 29.2578C13.9141 29.29 13.9009 29.3164 13.8848 29.3164C13.8687 29.3164 13.8555 29.3368 13.8555 29.3617C13.8555 29.4203 13.725 29.5508 13.6664 29.5508C13.6415 29.5508 13.6211 29.564 13.6211 29.5801C13.6211 29.5962 13.5947 29.6094 13.5625 29.6094C13.5303 29.6094 13.5039 29.6226 13.5039 29.6387C13.5039 29.6548 13.4775 29.668 13.4453 29.668C13.4131 29.668 13.3867 29.6812 13.3867 29.6973C13.3867 29.7143 13.2891 29.7266 13.1523 29.7266C13.0156 29.7266 12.918 29.7143 12.918 29.6973C12.918 29.6812 12.8916 29.668 12.8594 29.668C12.8271 29.668 12.8008 29.6548 12.8008 29.6387C12.8008 29.6226 12.7773 29.6094 12.7487 29.6094C12.72 29.6094 12.6775 29.583 12.6543 29.5508C12.6311 29.5186 12.5943 29.4922 12.5725 29.4922C12.5189 29.4922 12.4492 29.4189 12.4492 29.3624C12.4492 29.3371 12.436 29.3164 12.4199 29.3164C12.4038 29.3164 12.3906 29.29 12.3906 29.2578C12.3906 29.2256 12.3774 29.1992 12.3613 29.1992C12.3452 29.1992 12.332 29.1729 12.332 29.1406C12.332 29.1084 12.3188 29.082 12.3027 29.082C12.2857 29.082 12.2734 28.9844 12.2734 28.8477C12.2734 28.7109 12.2857 28.6133 12.3027 28.6133C12.3188 28.6133 12.332 28.5869 12.332 28.5547C12.332 28.5225 12.3452 28.4961 12.3613 28.4961C12.3774 28.4961 12.3906 28.4697 12.3906 28.4375C12.3906 28.4053 12.4038 28.3789 12.4199 28.3789C12.436 28.3789 12.4492 28.3582 12.4492 28.3329C12.4492 28.2764 12.5189 28.2031 12.5725 28.2031C12.5943 28.2031 12.6311 28.1768 12.6543 28.1445C12.6775 28.1123 12.72 28.0859 12.7487 28.0859C12.7773 28.0859 12.8008 28.0728 12.8008 28.0566C12.8008 28.0405 12.8271 28.0273 12.8594 28.0273C12.8916 28.0273 12.918 28.0142 12.918 27.998C12.918 27.981 13.0156 27.9688 13.1523 27.9688C13.2891 27.9688 13.3867 27.981 13.3867 27.998ZM28.0938 28.8477V29.7266H27.2148H26.3359V28.8477V27.9688H27.2148H28.0938V28.8477Z" fill="#DD2A1B"/>
</svg>
