<svg width="40" height="40" viewBox="0 0 40 40" fill="none" xmlns="http://www.w3.org/2000/svg">
<path fill-rule="evenodd" clip-rule="evenodd" d="M10.2734 6.0293C10.2734 6.04541 10.2075 6.05859 10.127 6.05859C10.0464 6.05859 9.98047 6.07178 9.98047 6.08789C9.98047 6.104 9.94092 6.11719 9.89258 6.11719C9.84424 6.11719 9.80469 6.13037 9.80469 6.14648C9.80469 6.1626 9.76514 6.17578 9.7168 6.17578C9.66846 6.17578 9.62891 6.18896 9.62891 6.20508C9.62891 6.22119 9.60254 6.23438 9.57031 6.23438C9.53809 6.23438 9.51172 6.24756 9.51172 6.26367C9.51172 6.27979 9.48535 6.29297 9.45312 6.29297C9.4209 6.29297 9.39453 6.30615 9.39453 6.32227C9.39453 6.33838 9.37106 6.35156 9.34241 6.35156C9.31373 6.35156 9.27128 6.37793 9.24805 6.41016C9.22481 6.44238 9.18793 6.46875 9.16605 6.46875C9.14416 6.46875 9.07561 6.52148 9.01367 6.58594C8.95174 6.65039 8.88591 6.70312 8.86739 6.70312C8.82389 6.70312 8.75 6.77701 8.75 6.82052C8.75 6.83903 8.69727 6.90486 8.63281 6.9668C8.56836 7.02873 8.51562 7.09729 8.51562 7.11917C8.51562 7.14105 8.48926 7.17794 8.45703 7.20117C8.4248 7.2244 8.39844 7.26686 8.39844 7.29554C8.39844 7.32419 8.38525 7.34766 8.36914 7.34766C8.35303 7.34766 8.33984 7.37402 8.33984 7.40625C8.33984 7.43848 8.32666 7.46484 8.31055 7.46484C8.29443 7.46484 8.28125 7.49121 8.28125 7.52344C8.28125 7.55566 8.26807 7.58203 8.25195 7.58203C8.23584 7.58203 8.22266 7.6084 8.22266 7.64062C8.22266 7.67285 8.20947 7.69922 8.19336 7.69922C8.17725 7.69922 8.16406 7.73877 8.16406 7.78711C8.16406 7.83545 8.15088 7.875 8.13477 7.875C8.11865 7.875 8.10547 7.91455 8.10547 7.96289C8.10547 8.01123 8.09229 8.05078 8.07617 8.05078C8.06006 8.05078 8.04688 8.09033 8.04688 8.13867C8.04688 8.18701 8.03369 8.22656 8.01758 8.22656C8.00146 8.22656 7.98828 8.26611 7.98828 8.31445C7.98828 8.36279 7.9751 8.40234 7.95898 8.40234C7.94287 8.40234 7.92969 8.44189 7.92969 8.49023C7.92969 8.53857 7.9165 8.57812 7.90039 8.57812C7.88428 8.57812 7.87109 8.61768 7.87109 8.66602C7.87109 8.71436 7.85791 8.75391 7.8418 8.75391C7.82568 8.75391 7.8125 8.79346 7.8125 8.8418C7.8125 8.89014 7.79932 8.92969 7.7832 8.92969C7.76709 8.92969 7.75391 8.96924 7.75391 9.01758C7.75391 9.06592 7.74072 9.10547 7.72461 9.10547C7.7085 9.10547 7.69531 9.14502 7.69531 9.19336C7.69531 9.2417 7.68213 9.28125 7.66602 9.28125C7.6499 9.28125 7.63672 9.3208 7.63672 9.36914C7.63672 9.41748 7.62354 9.45703 7.60742 9.45703C7.59131 9.45703 7.57812 9.49658 7.57812 9.54492C7.57812 9.59326 7.56494 9.63281 7.54883 9.63281C7.53271 9.63281 7.51953 9.67236 7.51953 9.7207C7.51953 9.76904 7.50635 9.80859 7.49023 9.80859C7.47412 9.80859 7.46094 9.84814 7.46094 9.89648C7.46094 9.94482 7.44775 9.98438 7.43164 9.98438C7.41553 9.98438 7.40234 10.0239 7.40234 10.0723C7.40234 10.1206 7.38916 10.1602 7.37305 10.1602C7.35693 10.1602 7.34375 10.1997 7.34375 10.248C7.34375 10.2964 7.33057 10.3359 7.31445 10.3359C7.29834 10.3359 7.28516 10.3755 7.28516 10.4238C7.28516 10.4722 7.27197 10.5117 7.25586 10.5117C7.23975 10.5117 7.22656 10.5513 7.22656 10.5996C7.22656 10.6479 7.21338 10.6875 7.19727 10.6875C7.18115 10.6875 7.16797 10.7271 7.16797 10.7754C7.16797 10.8237 7.15479 10.8633 7.13867 10.8633C7.12256 10.8633 7.10938 10.9028 7.10938 10.9512C7.10938 10.9995 7.09619 11.0391 7.08008 11.0391C7.06396 11.0391 7.05078 11.0786 7.05078 11.127C7.05078 11.1753 7.0376 11.2148 7.02148 11.2148C7.00537 11.2148 6.99219 11.2544 6.99219 11.3027C6.99219 11.3511 6.979 11.3906 6.96289 11.3906C6.94678 11.3906 6.93359 11.4302 6.93359 11.4785C6.93359 11.5269 6.92041 11.5664 6.9043 11.5664C6.88818 11.5664 6.875 11.5864 6.875 11.6107C6.875 11.6351 6.49268 12.037 6.02539 12.5039C5.55811 12.9708 5.17578 13.3727 5.17578 13.3971C5.17578 13.4215 5.1626 13.4414 5.14648 13.4414C5.13037 13.4414 5.11719 13.4678 5.11719 13.5C5.11719 13.5322 5.104 13.5586 5.08789 13.5586C5.07178 13.5586 5.05859 13.585 5.05859 13.6172C5.05859 13.6494 5.04541 13.6758 5.0293 13.6758C5.01005 13.6758 5 14.3887 5 15.7559C5 17.1231 5.01005 17.8359 5.0293 17.8359C5.04541 17.8359 5.05859 17.8887 5.05859 17.9531C5.05859 18.0176 5.07178 18.0703 5.08789 18.0703C5.104 18.0703 5.11719 18.123 5.11719 18.1875C5.11719 18.252 5.13037 18.3047 5.14648 18.3047C5.1626 18.3047 5.17578 18.3311 5.17578 18.3633C5.17578 18.3955 5.18896 18.4219 5.20508 18.4219C5.22119 18.4219 5.23438 18.4614 5.23438 18.5098C5.23438 18.5581 5.24756 18.5977 5.26367 18.5977C5.27979 18.5977 5.29297 18.6211 5.29297 18.6498C5.29297 18.6785 5.31934 18.7209 5.35156 18.7441C5.38379 18.7674 5.41016 18.8069 5.41016 18.832C5.41016 18.8571 5.43652 18.8967 5.46875 18.9199C5.50098 18.9432 5.52734 18.9792 5.52734 19C5.52734 19.0495 6.01303 19.5352 6.06245 19.5352C6.08328 19.5352 6.11935 19.5615 6.14258 19.5938C6.16581 19.626 6.20826 19.6523 6.23694 19.6523C6.2656 19.6523 6.28906 19.6655 6.28906 19.6816C6.28906 19.6978 6.31543 19.7109 6.34766 19.7109C6.37988 19.7109 6.40625 19.7241 6.40625 19.7402C6.40625 19.7563 6.43262 19.7695 6.46484 19.7695C6.49707 19.7695 6.52344 19.7827 6.52344 19.7988C6.52344 19.8149 6.5498 19.8281 6.58203 19.8281C6.61426 19.8281 6.64062 19.8413 6.64062 19.8574C6.64062 19.8735 6.66699 19.8867 6.69922 19.8867C6.75705 19.8867 6.75781 19.9063 6.75781 21.4102C6.75781 22.4062 6.76795 22.9336 6.78711 22.9336C6.80322 22.9336 6.81641 22.96 6.81641 22.9922C6.81641 23.0244 6.82959 23.0508 6.8457 23.0508C6.86182 23.0508 6.875 23.0771 6.875 23.1094C6.875 23.1416 6.88818 23.168 6.9043 23.168C6.92041 23.168 6.93359 23.1883 6.93359 23.2132C6.93359 23.2719 7.06408 23.4023 7.12271 23.4023C7.14761 23.4023 7.16797 23.4155 7.16797 23.4316C7.16797 23.4478 7.19434 23.4609 7.22656 23.4609C7.25879 23.4609 7.28516 23.4741 7.28516 23.4902C7.28516 23.5063 7.31152 23.5195 7.34375 23.5195C7.37598 23.5195 7.40234 23.5327 7.40234 23.5488C7.40234 23.5681 8.08593 23.5781 9.39453 23.5781C10.7031 23.5781 11.3867 23.5681 11.3867 23.5488C11.3867 23.5327 11.4131 23.5195 11.4453 23.5195C11.4775 23.5195 11.5039 23.5063 11.5039 23.4902C11.5039 23.4741 11.5303 23.4609 11.5625 23.4609C11.5947 23.4609 11.6211 23.4478 11.6211 23.4316C11.6211 23.4155 11.6415 23.4023 11.6664 23.4023C11.725 23.4023 11.8555 23.2719 11.8555 23.2132C11.8555 23.1883 11.8687 23.168 11.8848 23.168C11.9009 23.168 11.9141 23.1416 11.9141 23.1094C11.9141 23.0771 11.9272 23.0508 11.9434 23.0508C11.9595 23.0508 11.9727 23.0244 11.9727 22.9922C11.9727 22.96 11.9858 22.9336 12.002 22.9336C12.0211 22.9336 12.0312 22.4355 12.0312 21.498V20.0625H14.5215H17.0117V20.1504C17.0117 20.1987 17.0249 20.2383 17.041 20.2383C17.0571 20.2383 17.0703 20.2778 17.0703 20.3262C17.0703 20.3745 17.0835 20.4141 17.0996 20.4141C17.1157 20.4141 17.1289 20.4536 17.1289 20.502C17.1289 20.5503 17.1421 20.5898 17.1582 20.5898C17.1743 20.5898 17.1875 20.6294 17.1875 20.6777C17.1875 20.7261 17.2007 20.7656 17.2168 20.7656C17.2329 20.7656 17.2461 20.8052 17.2461 20.8535C17.2461 20.9019 17.2593 20.9414 17.2754 20.9414C17.2925 20.9414 17.3047 21.0391 17.3047 21.1758C17.3047 21.3125 17.2925 21.4102 17.2754 21.4102C17.2593 21.4102 17.2461 21.4468 17.2461 21.4916C17.2461 21.5394 17.2219 21.5904 17.1875 21.6152C17.1553 21.6385 17.1289 21.6749 17.1289 21.6963C17.1289 21.7466 16.9966 21.8789 16.9463 21.8789C16.9249 21.8789 16.8885 21.9053 16.8652 21.9375C16.8404 21.9719 16.7894 21.9961 16.7416 21.9961C16.6968 21.9961 16.6602 22.0093 16.6602 22.0254C16.6602 22.0415 16.6338 22.0547 16.6016 22.0547C16.5693 22.0547 16.543 22.0679 16.543 22.084C16.543 22.1001 16.5034 22.1133 16.4551 22.1133C16.4067 22.1133 16.3672 22.1265 16.3672 22.1426C16.3672 22.1587 16.3408 22.1719 16.3086 22.1719C16.2764 22.1719 16.25 22.1851 16.25 22.2012C16.25 22.2173 16.2104 22.2305 16.1621 22.2305C16.1138 22.2305 16.0742 22.2437 16.0742 22.2598C16.0742 22.2759 16.0479 22.2891 16.0156 22.2891C15.9834 22.2891 15.957 22.3022 15.957 22.3184C15.957 22.3345 15.9175 22.3477 15.8691 22.3477C15.8208 22.3477 15.7812 22.3608 15.7812 22.377C15.7812 22.3931 15.7549 22.4062 15.7227 22.4062C15.6904 22.4062 15.6641 22.4194 15.6641 22.4355C15.6641 22.4517 15.6245 22.4648 15.5762 22.4648C15.5278 22.4648 15.4883 22.478 15.4883 22.4941C15.4883 22.5103 15.4619 22.5234 15.4297 22.5234C15.3975 22.5234 15.3711 22.5366 15.3711 22.5527C15.3711 22.5688 15.3315 22.582 15.2832 22.582C15.2349 22.582 15.1953 22.5952 15.1953 22.6113C15.1953 22.6274 15.1689 22.6406 15.1367 22.6406C15.1045 22.6406 15.0781 22.6538 15.0781 22.6699C15.0781 22.686 15.0386 22.6992 14.9902 22.6992C14.9419 22.6992 14.9023 22.7124 14.9023 22.7285C14.9023 22.7446 14.8628 22.7578 14.8145 22.7578C14.7661 22.7578 14.7266 22.771 14.7266 22.7871C14.7266 22.8032 14.7002 22.8164 14.668 22.8164C14.6357 22.8164 14.6094 22.8296 14.6094 22.8457C14.6094 22.8618 14.5698 22.875 14.5215 22.875C14.4731 22.875 14.4336 22.8882 14.4336 22.9043C14.4336 22.9204 14.4072 22.9336 14.375 22.9336C14.3428 22.9336 14.3164 22.9468 14.3164 22.9629C14.3164 22.979 14.2769 22.9922 14.2285 22.9922C14.1802 22.9922 14.1406 23.0054 14.1406 23.0215C14.1406 23.0376 14.1143 23.0508 14.082 23.0508C14.0498 23.0508 14.0234 23.064 14.0234 23.0801C14.0234 23.0962 13.9839 23.1094 13.9355 23.1094C13.8872 23.1094 13.8477 23.1226 13.8477 23.1387C13.8477 23.1548 13.8213 23.168 13.7891 23.168C13.7568 23.168 13.7305 23.1812 13.7305 23.1973C13.7305 23.2134 13.6909 23.2266 13.6426 23.2266C13.5942 23.2266 13.5547 23.2397 13.5547 23.2559C13.5547 23.272 13.5283 23.2852 13.4961 23.2852C13.4639 23.2852 13.4375 23.2983 13.4375 23.3145C13.4375 23.3306 13.3979 23.3438 13.3496 23.3438C13.3013 23.3438 13.2617 23.3569 13.2617 23.373C13.2617 23.3892 13.2222 23.4023 13.1738 23.4023C13.1255 23.4023 13.0859 23.4155 13.0859 23.4316C13.0859 23.4478 13.0596 23.4609 13.0273 23.4609C12.9951 23.4609 12.9688 23.4741 12.9688 23.4902C12.9688 23.5063 12.9292 23.5195 12.8809 23.5195C12.8325 23.5195 12.793 23.5327 12.793 23.5488C12.793 23.5649 12.7666 23.5781 12.7344 23.5781C12.7021 23.5781 12.6758 23.5913 12.6758 23.6074C12.6758 23.6235 12.6494 23.6367 12.6172 23.6367C12.585 23.6367 12.5586 23.6499 12.5586 23.666C12.5586 23.6821 12.5322 23.6953 12.5 23.6953C12.4678 23.6953 12.4414 23.7085 12.4414 23.7246C12.4414 23.7407 12.421 23.7539 12.3961 23.7539C12.3408 23.7539 12.207 23.8831 12.207 23.9365C12.207 23.9579 12.1807 23.9943 12.1484 24.0176C12.114 24.0424 12.0898 24.0934 12.0898 24.1412C12.0898 24.186 12.0767 24.2227 12.0605 24.2227C12.0435 24.2227 12.0312 24.3203 12.0312 24.457C12.0312 24.5938 12.0435 24.6914 12.0605 24.6914C12.0767 24.6914 12.0898 24.7178 12.0898 24.75C12.0898 24.7822 12.103 24.8086 12.1191 24.8086C12.1353 24.8086 12.1484 24.835 12.1484 24.8672C12.1484 24.8994 12.1616 24.9258 12.1777 24.9258C12.1938 24.9258 12.207 24.9461 12.207 24.971C12.207 25.0297 12.3375 25.1602 12.3961 25.1602C12.421 25.1602 12.4414 25.1733 12.4414 25.1895C12.4414 25.2056 12.4678 25.2188 12.5 25.2188C12.5322 25.2188 12.5586 25.2319 12.5586 25.248C12.5586 25.2642 12.585 25.2773 12.6172 25.2773C12.6494 25.2773 12.6758 25.2905 12.6758 25.3066C12.6758 25.3228 12.7021 25.3359 12.7344 25.3359C12.7666 25.3359 12.793 25.3491 12.793 25.3652C12.793 25.3813 12.8325 25.3945 12.8809 25.3945C12.9292 25.3945 12.9688 25.4077 12.9688 25.4238C12.9688 25.4399 13.0083 25.4531 13.0566 25.4531C13.105 25.4531 13.1445 25.4663 13.1445 25.4824C13.1445 25.4985 13.1709 25.5117 13.2031 25.5117C13.2354 25.5117 13.2617 25.5249 13.2617 25.541C13.2617 25.5571 13.3013 25.5703 13.3496 25.5703C13.3979 25.5703 13.4375 25.5835 13.4375 25.5996C13.4375 25.6157 13.4639 25.6289 13.4961 25.6289C13.5283 25.6289 13.5547 25.6421 13.5547 25.6582C13.5547 25.6743 13.5942 25.6875 13.6426 25.6875C13.6909 25.6875 13.7305 25.7007 13.7305 25.7168C13.7305 25.7329 13.7568 25.7461 13.7891 25.7461C13.8213 25.7461 13.8477 25.7593 13.8477 25.7754C13.8477 25.7915 13.8872 25.8047 13.9355 25.8047C13.9839 25.8047 14.0234 25.8179 14.0234 25.834C14.0234 25.8501 14.0498 25.8633 14.082 25.8633C14.1143 25.8633 14.1406 25.8765 14.1406 25.8926C14.1406 25.9087 14.1802 25.9219 14.2285 25.9219C14.2769 25.9219 14.3164 25.9351 14.3164 25.9512C14.3164 25.9673 14.3428 25.9805 14.375 25.9805C14.4072 25.9805 14.4336 25.9937 14.4336 26.0098C14.4336 26.0259 14.4731 26.0391 14.5215 26.0391C14.5698 26.0391 14.6094 26.0522 14.6094 26.0684C14.6094 26.0845 14.6357 26.0977 14.668 26.0977C14.7002 26.0977 14.7266 26.1108 14.7266 26.127C14.7266 26.1431 14.7661 26.1562 14.8145 26.1562C14.8628 26.1562 14.9023 26.1694 14.9023 26.1855C14.9023 26.2017 14.9419 26.2148 14.9902 26.2148C15.0386 26.2148 15.0781 26.228 15.0781 26.2441C15.0781 26.2603 15.1045 26.2734 15.1367 26.2734C15.1689 26.2734 15.1953 26.2866 15.1953 26.3027C15.1953 26.3188 15.2349 26.332 15.2832 26.332C15.3315 26.332 15.3711 26.3452 15.3711 26.3613C15.3711 26.3774 15.3975 26.3906 15.4297 26.3906C15.4619 26.3906 15.4883 26.4038 15.4883 26.4199C15.4883 26.436 15.5278 26.4492 15.5762 26.4492C15.6245 26.4492 15.6641 26.4624 15.6641 26.4785C15.6641 26.4946 15.6904 26.5078 15.7227 26.5078C15.7549 26.5078 15.7812 26.521 15.7812 26.5371C15.7812 26.5532 15.8208 26.5664 15.8691 26.5664C15.9175 26.5664 15.957 26.5796 15.957 26.5957C15.957 26.6118 15.9834 26.625 16.0156 26.625C16.0479 26.625 16.0742 26.6382 16.0742 26.6543C16.0742 26.6704 16.1138 26.6836 16.1621 26.6836C16.2104 26.6836 16.25 26.6968 16.25 26.7129C16.25 26.729 16.2764 26.7422 16.3086 26.7422C16.3408 26.7422 16.3672 26.7554 16.3672 26.7715C16.3672 26.7876 16.4067 26.8008 16.4551 26.8008C16.5034 26.8008 16.543 26.814 16.543 26.8301C16.543 26.8462 16.5693 26.8594 16.6016 26.8594C16.6338 26.8594 16.6602 26.8726 16.6602 26.8887C16.6602 26.9048 16.6968 26.918 16.7416 26.918C16.7894 26.918 16.8404 26.9422 16.8652 26.9766C16.8885 27.0088 16.9249 27.0352 16.9463 27.0352C16.9966 27.0352 17.1289 27.1675 17.1289 27.2178C17.1289 27.2391 17.1553 27.2756 17.1875 27.2988C17.2219 27.3236 17.2461 27.3747 17.2461 27.4225C17.2461 27.4673 17.2593 27.5039 17.2754 27.5039C17.2921 27.5039 17.3047 27.5918 17.3047 27.709C17.3047 27.8262 17.2921 27.9141 17.2754 27.9141C17.2593 27.9141 17.2461 27.9668 17.2461 28.0312C17.2461 28.0957 17.2329 28.1484 17.2168 28.1484C17.2007 28.1484 17.1875 28.188 17.1875 28.2363C17.1875 28.2847 17.1743 28.3242 17.1582 28.3242C17.1421 28.3242 17.1289 28.3638 17.1289 28.4121C17.1289 28.4604 17.1157 28.5 17.0996 28.5C17.0835 28.5 17.0703 28.5396 17.0703 28.5879C17.0703 28.6362 17.0571 28.6758 17.041 28.6758C17.0249 28.6758 17.0117 28.7153 17.0117 28.7637C17.0117 28.812 16.9985 28.8516 16.9824 28.8516C16.9663 28.8516 16.9531 28.8911 16.9531 28.9395C16.9531 28.9878 16.9399 29.0273 16.9238 29.0273C16.9077 29.0273 16.8945 29.0669 16.8945 29.1152C16.8945 29.1636 16.8813 29.2031 16.8652 29.2031C16.8491 29.2031 16.8359 29.2427 16.8359 29.291C16.8359 29.3394 16.8228 29.3789 16.8066 29.3789C16.7905 29.3789 16.7773 29.4185 16.7773 29.4668C16.7773 29.5151 16.7642 29.5547 16.748 29.5547C16.7319 29.5547 16.7188 29.5942 16.7188 29.6426C16.7188 29.6909 16.7056 29.7305 16.6895 29.7305C16.6733 29.7305 16.6602 29.77 16.6602 29.8184C16.6602 29.8667 16.647 29.9062 16.6309 29.9062C16.6147 29.9062 16.6016 29.9458 16.6016 29.9941C16.6016 30.0425 16.5884 30.082 16.5723 30.082C16.5562 30.082 16.543 30.1216 16.543 30.1699C16.543 30.2183 16.5298 30.2578 16.5137 30.2578C16.4976 30.2578 16.4844 30.2974 16.4844 30.3457C16.4844 30.394 16.4712 30.4336 16.4551 30.4336C16.438 30.4336 16.4258 30.5312 16.4258 30.668C16.4258 30.8047 16.438 30.9023 16.4551 30.9023C16.4712 30.9023 16.4844 30.939 16.4844 30.9838C16.4844 31.0316 16.5086 31.0826 16.543 31.1074C16.5752 31.1307 16.6016 31.1671 16.6016 31.1885C16.6016 31.2388 16.7339 31.3711 16.7842 31.3711C16.8055 31.3711 16.842 31.3975 16.8652 31.4297C16.89 31.4641 16.9411 31.4883 16.9889 31.4883C17.0337 31.4883 17.0703 31.5015 17.0703 31.5176C17.0703 31.5347 17.168 31.5469 17.3047 31.5469C17.4414 31.5469 17.5391 31.5347 17.5391 31.5176C17.5391 31.5015 17.5786 31.4883 17.627 31.4883C17.6753 31.4883 17.7148 31.4751 17.7148 31.459C17.7148 31.4429 17.7544 31.4297 17.8027 31.4297C17.8511 31.4297 17.8906 31.4165 17.8906 31.4004C17.8906 31.3843 17.9302 31.3711 17.9785 31.3711C18.0269 31.3711 18.0664 31.3579 18.0664 31.3418C18.0664 31.3257 18.106 31.3125 18.1543 31.3125C18.2026 31.3125 18.2422 31.2993 18.2422 31.2832C18.2422 31.2671 18.2817 31.2539 18.3301 31.2539C18.3784 31.2539 18.418 31.2407 18.418 31.2246C18.418 31.2085 18.4575 31.1953 18.5059 31.1953C18.5542 31.1953 18.5938 31.1821 18.5938 31.166C18.5938 31.1499 18.6333 31.1367 18.6816 31.1367C18.73 31.1367 18.7695 31.1235 18.7695 31.1074C18.7695 31.0913 18.8091 31.0781 18.8574 31.0781C18.9058 31.0781 18.9453 31.0649 18.9453 31.0488C18.9453 31.0327 18.9849 31.0195 19.0332 31.0195C19.0815 31.0195 19.1211 31.0063 19.1211 30.9902C19.1211 30.9741 19.1606 30.9609 19.209 30.9609C19.2573 30.9609 19.2969 30.9478 19.2969 30.9316C19.2969 30.9155 19.3364 30.9023 19.3848 30.9023C19.4331 30.9023 19.4727 30.8892 19.4727 30.873C19.4727 30.8569 19.5122 30.8438 19.5605 30.8438C19.6089 30.8438 19.6484 30.8306 19.6484 30.8145C19.6484 30.7983 19.688 30.7852 19.7363 30.7852C19.7847 30.7852 19.8242 30.772 19.8242 30.7559C19.8242 30.7397 19.8638 30.7266 19.9121 30.7266C19.9604 30.7266 20 30.7134 20 30.6973C20 30.6812 20.0396 30.668 20.0879 30.668C20.1362 30.668 20.1758 30.6548 20.1758 30.6387C20.1758 30.6226 20.2153 30.6094 20.2637 30.6094C20.312 30.6094 20.3516 30.5962 20.3516 30.5801C20.3516 30.5627 20.459 30.5508 20.6152 30.5508C20.7715 30.5508 20.8789 30.5627 20.8789 30.5801C20.8789 30.5962 20.9156 30.6094 20.9603 30.6094C21.0081 30.6094 21.0592 30.6336 21.084 30.668C21.1072 30.7002 21.1437 30.7266 21.165 30.7266C21.2185 30.7266 21.3477 30.8603 21.3477 30.9157C21.3477 30.9406 21.3608 30.9609 21.377 30.9609C21.3931 30.9609 21.4062 30.9873 21.4062 31.0195C21.4062 31.0518 21.4194 31.0781 21.4355 31.0781C21.4517 31.0781 21.4648 31.1045 21.4648 31.1367C21.4648 31.1689 21.478 31.1953 21.4941 31.1953C21.5103 31.1953 21.5234 31.2217 21.5234 31.2539C21.5234 31.2861 21.5366 31.3125 21.5527 31.3125C21.5688 31.3125 21.582 31.3389 21.582 31.3711C21.582 31.4033 21.5952 31.4297 21.6113 31.4297C21.6274 31.4297 21.6406 31.4561 21.6406 31.4883C21.6406 31.5205 21.6538 31.5469 21.6699 31.5469C21.686 31.5469 21.6992 31.5732 21.6992 31.6055C21.6992 31.6377 21.7124 31.6641 21.7285 31.6641C21.7446 31.6641 21.7578 31.6904 21.7578 31.7227C21.7578 31.7549 21.771 31.7812 21.7871 31.7812C21.8032 31.7812 21.8164 31.8076 21.8164 31.8398C21.8164 31.8721 21.8296 31.8984 21.8457 31.8984C21.8618 31.8984 21.875 31.9248 21.875 31.957C21.875 31.9893 21.8882 32.0156 21.9043 32.0156C21.9204 32.0156 21.9336 32.042 21.9336 32.0742C21.9336 32.1064 21.9468 32.1328 21.9629 32.1328C21.979 32.1328 21.9922 32.1592 21.9922 32.1914C21.9922 32.2236 22.0054 32.25 22.0215 32.25C22.0376 32.25 22.0508 32.2764 22.0508 32.3086C22.0508 32.3408 22.064 32.3672 22.0801 32.3672C22.0962 32.3672 22.1094 32.3936 22.1094 32.4258C22.1094 32.458 22.1226 32.4844 22.1387 32.4844C22.1548 32.4844 22.168 32.5107 22.168 32.543C22.168 32.5752 22.1812 32.6016 22.1973 32.6016C22.2134 32.6016 22.2266 32.6279 22.2266 32.6602C22.2266 32.6924 22.2397 32.7188 22.2559 32.7188C22.272 32.7188 22.2852 32.7451 22.2852 32.7773C22.2852 32.8096 22.2983 32.8359 22.3145 32.8359C22.3306 32.8359 22.3438 32.8623 22.3438 32.8945C22.3438 32.9268 22.3569 32.9531 22.373 32.9531C22.3892 32.9531 22.4023 32.9795 22.4023 33.0117C22.4023 33.0439 22.4155 33.0703 22.4316 33.0703C22.4478 33.0703 22.4609 33.0967 22.4609 33.1289C22.4609 33.1611 22.4741 33.1875 22.4902 33.1875C22.5063 33.1875 22.5195 33.2139 22.5195 33.2461C22.5195 33.2783 22.5327 33.3047 22.5488 33.3047C22.5649 33.3047 22.5781 33.3311 22.5781 33.3633C22.5781 33.3955 22.5913 33.4219 22.6074 33.4219C22.6235 33.4219 22.6367 33.4482 22.6367 33.4805C22.6367 33.5127 22.6499 33.5391 22.666 33.5391C22.6821 33.5391 22.6953 33.5625 22.6953 33.5912C22.6953 33.6199 22.7217 33.6623 22.7539 33.6855C22.7861 33.7088 22.8125 33.7453 22.8125 33.7666C22.8125 33.82 22.9462 33.9492 23.0016 33.9492C23.0265 33.9492 23.0469 33.9624 23.0469 33.9785C23.0469 33.9946 23.0732 34.0078 23.1055 34.0078C23.1377 34.0078 23.1641 34.021 23.1641 34.0371C23.1641 34.0532 23.1904 34.0664 23.2227 34.0664C23.2549 34.0664 23.2812 34.0796 23.2812 34.0957C23.2812 34.1128 23.3789 34.125 23.5156 34.125C23.6524 34.125 23.75 34.1128 23.75 34.0957C23.75 34.0796 23.7764 34.0664 23.8086 34.0664C23.8408 34.0664 23.8672 34.0532 23.8672 34.0371C23.8672 34.021 23.8936 34.0078 23.9258 34.0078C23.958 34.0078 23.9844 33.9946 23.9844 33.9785C23.9844 33.9624 24.0047 33.9492 24.0296 33.9492C24.085 33.9492 24.2188 33.82 24.2188 33.7666C24.2188 33.7453 24.2451 33.7088 24.2773 33.6855C24.3096 33.6623 24.3359 33.6199 24.3359 33.5912C24.3359 33.5625 24.3491 33.5391 24.3652 33.5391C24.3813 33.5391 24.3945 33.5127 24.3945 33.4805C24.3945 33.4482 24.4077 33.4219 24.4238 33.4219C24.4399 33.4219 24.4531 33.3955 24.4531 33.3633C24.4531 33.3311 24.4663 33.3047 24.4824 33.3047C24.4985 33.3047 24.5117 33.2783 24.5117 33.2461C24.5117 33.2139 24.5249 33.1875 24.541 33.1875C24.5571 33.1875 24.5703 33.1611 24.5703 33.1289C24.5703 33.0967 24.5835 33.0703 24.5996 33.0703C24.6157 33.0703 24.6289 33.0439 24.6289 33.0117C24.6289 32.9795 24.6421 32.9531 24.6582 32.9531C24.6743 32.9531 24.6875 32.9268 24.6875 32.8945C24.6875 32.8623 24.7007 32.8359 24.7168 32.8359C24.7329 32.8359 24.7461 32.8096 24.7461 32.7773C24.7461 32.7451 24.7593 32.7188 24.7754 32.7188C24.7915 32.7188 24.8047 32.6924 24.8047 32.6602C24.8047 32.6279 24.8179 32.6016 24.834 32.6016C24.8501 32.6016 24.8633 32.5752 24.8633 32.543C24.8633 32.5107 24.8765 32.4844 24.8926 32.4844C24.9087 32.4844 24.9219 32.458 24.9219 32.4258C24.9219 32.3936 24.9351 32.3672 24.9512 32.3672C24.9673 32.3672 24.9805 32.3408 24.9805 32.3086C24.9805 32.2764 24.9937 32.25 25.0098 32.25C25.0259 32.25 25.0391 32.2236 25.0391 32.1914C25.0391 32.1592 25.0522 32.1328 25.0684 32.1328C25.0845 32.1328 25.0977 32.1064 25.0977 32.0742C25.0977 32.042 25.1108 32.0156 25.127 32.0156C25.1431 32.0156 25.1562 31.9893 25.1562 31.957C25.1562 31.9248 25.1694 31.8984 25.1855 31.8984C25.2017 31.8984 25.2148 31.8721 25.2148 31.8398C25.2148 31.8076 25.228 31.7812 25.2441 31.7812C25.2603 31.7812 25.2734 31.7549 25.2734 31.7227C25.2734 31.6904 25.2866 31.6641 25.3027 31.6641C25.3188 31.6641 25.332 31.6377 25.332 31.6055C25.332 31.5732 25.3452 31.5469 25.3613 31.5469C25.3774 31.5469 25.3906 31.5205 25.3906 31.4883C25.3906 31.4561 25.4038 31.4297 25.4199 31.4297C25.436 31.4297 25.4492 31.4033 25.4492 31.3711C25.4492 31.3389 25.4624 31.3125 25.4785 31.3125C25.4946 31.3125 25.5078 31.2861 25.5078 31.2539C25.5078 31.2217 25.521 31.1953 25.5371 31.1953C25.5532 31.1953 25.5664 31.1689 25.5664 31.1367C25.5664 31.1045 25.5796 31.0781 25.5957 31.0781C25.6118 31.0781 25.625 31.0518 25.625 31.0195C25.625 30.9873 25.6382 30.9609 25.6543 30.9609C25.6704 30.9609 25.6836 30.9406 25.6836 30.9157C25.6836 30.8603 25.8128 30.7266 25.8662 30.7266C25.8876 30.7266 25.924 30.7002 25.9473 30.668C25.9721 30.6336 26.0231 30.6094 26.0709 30.6094C26.1157 30.6094 26.1523 30.5962 26.1523 30.5801C26.1523 30.5627 26.2598 30.5508 26.416 30.5508C26.5723 30.5508 26.6797 30.5627 26.6797 30.5801C26.6797 30.5962 26.7192 30.6094 26.7676 30.6094C26.8159 30.6094 26.8555 30.6226 26.8555 30.6387C26.8555 30.6548 26.895 30.668 26.9434 30.668C26.9917 30.668 27.0312 30.6812 27.0312 30.6973C27.0312 30.7134 27.0708 30.7266 27.1191 30.7266C27.1675 30.7266 27.207 30.7397 27.207 30.7559C27.207 30.772 27.2466 30.7852 27.2949 30.7852C27.3433 30.7852 27.3828 30.7983 27.3828 30.8145C27.3828 30.8306 27.4224 30.8438 27.4707 30.8438C27.519 30.8438 27.5586 30.8569 27.5586 30.873C27.5586 30.8892 27.5981 30.9023 27.6465 30.9023C27.6948 30.9023 27.7344 30.9155 27.7344 30.9316C27.7344 30.9478 27.7739 30.9609 27.8223 30.9609C27.8706 30.9609 27.9102 30.9741 27.9102 30.9902C27.9102 31.0063 27.9497 31.0195 27.998 31.0195C28.0464 31.0195 28.0859 31.0327 28.0859 31.0488C28.0859 31.0649 28.1255 31.0781 28.1738 31.0781C28.2222 31.0781 28.2617 31.0913 28.2617 31.1074C28.2617 31.1235 28.3013 31.1367 28.3496 31.1367C28.3979 31.1367 28.4375 31.1499 28.4375 31.166C28.4375 31.1821 28.4771 31.1953 28.5254 31.1953C28.5737 31.1953 28.6133 31.2085 28.6133 31.2246C28.6133 31.2407 28.6528 31.2539 28.7012 31.2539C28.7495 31.2539 28.7891 31.2671 28.7891 31.2832C28.7891 31.2993 28.8286 31.3125 28.877 31.3125C28.9253 31.3125 28.9648 31.3257 28.9648 31.3418C28.9648 31.3579 29.0044 31.3711 29.0527 31.3711C29.1011 31.3711 29.1406 31.3843 29.1406 31.4004C29.1406 31.4165 29.1802 31.4297 29.2285 31.4297C29.2769 31.4297 29.3164 31.4429 29.3164 31.459C29.3164 31.4751 29.356 31.4883 29.4043 31.4883C29.4526 31.4883 29.4922 31.5015 29.4922 31.5176C29.4922 31.5347 29.5898 31.5469 29.7266 31.5469C29.8633 31.5469 29.9609 31.5347 29.9609 31.5176C29.9609 31.5015 29.9976 31.4883 30.0424 31.4883C30.0902 31.4883 30.1412 31.4641 30.166 31.4297C30.1892 31.3975 30.2257 31.3711 30.2471 31.3711C30.2974 31.3711 30.4297 31.2388 30.4297 31.1885C30.4297 31.1671 30.4561 31.1307 30.4883 31.1074C30.5227 31.0826 30.5469 31.0316 30.5469 30.9838C30.5469 30.939 30.5601 30.9023 30.5762 30.9023C30.5933 30.9023 30.6055 30.8047 30.6055 30.668C30.6055 30.5312 30.5933 30.4336 30.5762 30.4336C30.5601 30.4336 30.5469 30.394 30.5469 30.3457C30.5469 30.2974 30.5337 30.2578 30.5176 30.2578C30.5015 30.2578 30.4883 30.2183 30.4883 30.1699C30.4883 30.1216 30.4751 30.082 30.459 30.082C30.4429 30.082 30.4297 30.0425 30.4297 29.9941C30.4297 29.9458 30.4165 29.9062 30.4004 29.9062C30.3843 29.9062 30.3711 29.8667 30.3711 29.8184C30.3711 29.77 30.3579 29.7305 30.3418 29.7305C30.3257 29.7305 30.3125 29.6909 30.3125 29.6426C30.3125 29.5942 30.2993 29.5547 30.2832 29.5547C30.2671 29.5547 30.2539 29.5151 30.2539 29.4668C30.2539 29.4185 30.2407 29.3789 30.2246 29.3789C30.2085 29.3789 30.1953 29.3394 30.1953 29.291C30.1953 29.2427 30.1821 29.2031 30.166 29.2031C30.1499 29.2031 30.1367 29.1636 30.1367 29.1152C30.1367 29.0669 30.1235 29.0273 30.1074 29.0273C30.0913 29.0273 30.0781 28.9878 30.0781 28.9395C30.0781 28.8911 30.0649 28.8516 30.0488 28.8516C30.0327 28.8516 30.0195 28.812 30.0195 28.7637C30.0195 28.7153 30.0063 28.6758 29.9902 28.6758C29.9741 28.6758 29.9609 28.6362 29.9609 28.5879C29.9609 28.5396 29.9478 28.5 29.9316 28.5C29.9155 28.5 29.9023 28.4604 29.9023 28.4121C29.9023 28.3638 29.8892 28.3242 29.873 28.3242C29.8569 28.3242 29.8438 28.2847 29.8438 28.2363C29.8438 28.188 29.8306 28.1484 29.8145 28.1484C29.7983 28.1484 29.7852 28.1089 29.7852 28.0605C29.7852 28.0122 29.772 27.9727 29.7559 27.9727C29.7388 27.9727 29.7266 27.875 29.7266 27.7383C29.7266 27.6016 29.7388 27.5039 29.7559 27.5039C29.772 27.5039 29.7852 27.4673 29.7852 27.4225C29.7852 27.3747 29.8094 27.3236 29.8438 27.2988C29.876 27.2756 29.9023 27.2391 29.9023 27.2178C29.9023 27.1964 29.9347 27.1466 29.9743 27.1071C30.0138 27.0675 30.0636 27.0352 30.085 27.0352C30.1063 27.0352 30.1428 27.0088 30.166 26.9766C30.1908 26.9422 30.2419 26.918 30.2897 26.918C30.3344 26.918 30.3711 26.9048 30.3711 26.8887C30.3711 26.8726 30.3975 26.8594 30.4297 26.8594C30.4619 26.8594 30.4883 26.8462 30.4883 26.8301C30.4883 26.814 30.5278 26.8008 30.5762 26.8008C30.6245 26.8008 30.6641 26.7876 30.6641 26.7715C30.6641 26.7554 30.6904 26.7422 30.7227 26.7422C30.7549 26.7422 30.7812 26.729 30.7812 26.7129C30.7812 26.6968 30.8208 26.6836 30.8691 26.6836C30.9175 26.6836 30.957 26.6704 30.957 26.6543C30.957 26.6382 30.9834 26.625 31.0156 26.625C31.0479 26.625 31.0742 26.6118 31.0742 26.5957C31.0742 26.5796 31.1138 26.5664 31.1621 26.5664C31.2104 26.5664 31.25 26.5532 31.25 26.5371C31.25 26.521 31.2764 26.5078 31.3086 26.5078C31.3408 26.5078 31.3672 26.4946 31.3672 26.4785C31.3672 26.4624 31.4067 26.4492 31.4551 26.4492C31.5034 26.4492 31.543 26.436 31.543 26.4199C31.543 26.4038 31.5825 26.3906 31.6309 26.3906C31.6792 26.3906 31.7188 26.3774 31.7188 26.3613C31.7188 26.3452 31.7451 26.332 31.7773 26.332C31.8096 26.332 31.8359 26.3188 31.8359 26.3027C31.8359 26.2866 31.8755 26.2734 31.9238 26.2734C31.9722 26.2734 32.0117 26.2603 32.0117 26.2441C32.0117 26.228 32.0381 26.2148 32.0703 26.2148C32.1025 26.2148 32.1289 26.2017 32.1289 26.1855C32.1289 26.1694 32.1685 26.1562 32.2168 26.1562C32.2651 26.1562 32.3047 26.1431 32.3047 26.127C32.3047 26.1108 32.3311 26.0977 32.3633 26.0977C32.3955 26.0977 32.4219 26.0845 32.4219 26.0684C32.4219 26.0522 32.4614 26.0391 32.5098 26.0391C32.5581 26.0391 32.5977 26.0259 32.5977 26.0098C32.5977 25.9937 32.624 25.9805 32.6562 25.9805C32.6885 25.9805 32.7148 25.9673 32.7148 25.9512C32.7148 25.9351 32.7544 25.9219 32.8027 25.9219C32.8511 25.9219 32.8906 25.9087 32.8906 25.8926C32.8906 25.8765 32.917 25.8633 32.9492 25.8633C32.9814 25.8633 33.0078 25.8501 33.0078 25.834C33.0078 25.8179 33.0474 25.8047 33.0957 25.8047C33.144 25.8047 33.1836 25.7915 33.1836 25.7754C33.1836 25.7593 33.21 25.7461 33.2422 25.7461C33.2744 25.7461 33.3008 25.7329 33.3008 25.7168C33.3008 25.7007 33.3403 25.6875 33.3887 25.6875C33.437 25.6875 33.4766 25.6743 33.4766 25.6582C33.4766 25.6421 33.5161 25.6289 33.5645 25.6289C33.6128 25.6289 33.6523 25.6157 33.6523 25.5996C33.6523 25.5835 33.6787 25.5703 33.7109 25.5703C33.7432 25.5703 33.7695 25.5571 33.7695 25.541C33.7695 25.5249 33.8091 25.5117 33.8574 25.5117C33.9058 25.5117 33.9453 25.4985 33.9453 25.4824C33.9453 25.4663 33.9717 25.4531 34.0039 25.4531C34.0361 25.4531 34.0625 25.4399 34.0625 25.4238C34.0625 25.4077 34.1021 25.3945 34.1504 25.3945C34.1987 25.3945 34.2383 25.3813 34.2383 25.3652C34.2383 25.3491 34.2646 25.3359 34.2969 25.3359C34.3291 25.3359 34.3555 25.3228 34.3555 25.3066C34.3555 25.2905 34.3818 25.2773 34.4141 25.2773C34.4463 25.2773 34.4727 25.2642 34.4727 25.248C34.4727 25.2319 34.499 25.2188 34.5312 25.2188C34.5635 25.2188 34.5898 25.2056 34.5898 25.1895C34.5898 25.1733 34.6102 25.1602 34.6351 25.1602C34.66 25.1602 34.7127 25.1278 34.7523 25.0882C34.7918 25.0487 34.8242 24.9959 34.8242 24.971C34.8242 24.9461 34.8374 24.9258 34.8535 24.9258C34.8696 24.9258 34.8828 24.8994 34.8828 24.8672C34.8828 24.835 34.896 24.8086 34.9121 24.8086C34.9282 24.8086 34.9414 24.7822 34.9414 24.75C34.9414 24.7178 34.9546 24.6914 34.9707 24.6914C34.9878 24.6914 35 24.5938 35 24.457C35 24.3203 34.9878 24.2227 34.9707 24.2227C34.9546 24.2227 34.9414 24.1963 34.9414 24.1641C34.9414 24.1318 34.9282 24.1055 34.9121 24.1055C34.896 24.1055 34.8828 24.0791 34.8828 24.0469C34.8828 24.0146 34.8696 23.9883 34.8535 23.9883C34.8374 23.9883 34.8242 23.9679 34.8242 23.943C34.8242 23.8844 34.6937 23.7539 34.6351 23.7539C34.6102 23.7539 34.5898 23.7407 34.5898 23.7246C34.5898 23.7085 34.5635 23.6953 34.5312 23.6953C34.499 23.6953 34.4727 23.6821 34.4727 23.666C34.4727 23.6499 34.4463 23.6367 34.4141 23.6367C34.3818 23.6367 34.3555 23.6235 34.3555 23.6074C34.3555 23.5913 34.3291 23.5781 34.2969 23.5781C34.2646 23.5781 34.2383 23.5649 34.2383 23.5488C34.2383 23.5327 34.1987 23.5195 34.1504 23.5195C34.1021 23.5195 34.0625 23.5063 34.0625 23.4902C34.0625 23.4741 34.0361 23.4609 34.0039 23.4609C33.9717 23.4609 33.9453 23.4478 33.9453 23.4316C33.9453 23.4155 33.9058 23.4023 33.8574 23.4023C33.8091 23.4023 33.7695 23.3892 33.7695 23.373C33.7695 23.3569 33.73 23.3438 33.6816 23.3438C33.6333 23.3438 33.5938 23.3306 33.5938 23.3145C33.5938 23.2983 33.5674 23.2852 33.5352 23.2852C33.5029 23.2852 33.4766 23.272 33.4766 23.2559C33.4766 23.2397 33.437 23.2266 33.3887 23.2266C33.3403 23.2266 33.3008 23.2134 33.3008 23.1973C33.3008 23.1812 33.2744 23.168 33.2422 23.168C33.21 23.168 33.1836 23.1548 33.1836 23.1387C33.1836 23.1226 33.144 23.1094 33.0957 23.1094C33.0474 23.1094 33.0078 23.0962 33.0078 23.0801C33.0078 23.064 32.9814 23.0508 32.9492 23.0508C32.917 23.0508 32.8906 23.0376 32.8906 23.0215C32.8906 23.0054 32.8511 22.9922 32.8027 22.9922C32.7544 22.9922 32.7148 22.979 32.7148 22.9629C32.7148 22.9468 32.6885 22.9336 32.6562 22.9336C32.624 22.9336 32.5977 22.9204 32.5977 22.9043C32.5977 22.8882 32.5581 22.875 32.5098 22.875C32.4614 22.875 32.4219 22.8618 32.4219 22.8457C32.4219 22.8296 32.3955 22.8164 32.3633 22.8164C32.3311 22.8164 32.3047 22.8032 32.3047 22.7871C32.3047 22.771 32.2651 22.7578 32.2168 22.7578C32.1685 22.7578 32.1289 22.7446 32.1289 22.7285C32.1289 22.7124 32.1025 22.6992 32.0703 22.6992C32.0381 22.6992 32.0117 22.686 32.0117 22.6699C32.0117 22.6538 31.9722 22.6406 31.9238 22.6406C31.8755 22.6406 31.8359 22.6274 31.8359 22.6113C31.8359 22.5952 31.8096 22.582 31.7773 22.582C31.7451 22.582 31.7188 22.5688 31.7188 22.5527C31.7188 22.5366 31.6792 22.5234 31.6309 22.5234C31.5825 22.5234 31.543 22.5103 31.543 22.4941C31.543 22.478 31.5166 22.4648 31.4844 22.4648C31.4521 22.4648 31.4258 22.4517 31.4258 22.4355C31.4258 22.4194 31.3862 22.4062 31.3379 22.4062C31.2896 22.4062 31.25 22.3931 31.25 22.377C31.25 22.3608 31.2104 22.3477 31.1621 22.3477C31.1138 22.3477 31.0742 22.3345 31.0742 22.3184C31.0742 22.3022 31.0479 22.2891 31.0156 22.2891C30.9834 22.2891 30.957 22.2759 30.957 22.2598C30.957 22.2437 30.9175 22.2305 30.8691 22.2305C30.8208 22.2305 30.7812 22.2173 30.7812 22.2012C30.7812 22.1851 30.7549 22.1719 30.7227 22.1719C30.6904 22.1719 30.6641 22.1587 30.6641 22.1426C30.6641 22.1265 30.6245 22.1133 30.5762 22.1133C30.5278 22.1133 30.4883 22.1001 30.4883 22.084C30.4883 22.0679 30.4619 22.0547 30.4297 22.0547C30.3975 22.0547 30.3711 22.0415 30.3711 22.0254C30.3711 22.0093 30.3447 21.9961 30.3125 21.9961C30.2803 21.9961 30.2539 21.9829 30.2539 21.9668C30.2539 21.9507 30.2275 21.9375 30.1953 21.9375C30.1631 21.9375 30.1367 21.9243 30.1367 21.9082C30.1367 21.8921 30.1164 21.8789 30.0915 21.8789C30.0361 21.8789 29.9023 21.7497 29.9023 21.6963C29.9023 21.6749 29.876 21.6385 29.8438 21.6152C29.8094 21.5904 29.7852 21.5394 29.7852 21.4916C29.7852 21.4468 29.772 21.4102 29.7559 21.4102C29.7388 21.4102 29.7266 21.3125 29.7266 21.1758C29.7266 21.0391 29.7388 20.9414 29.7559 20.9414C29.772 20.9414 29.7852 20.9019 29.7852 20.8535C29.7852 20.8052 29.7983 20.7656 29.8145 20.7656C29.8306 20.7656 29.8438 20.7261 29.8438 20.6777C29.8438 20.6294 29.8569 20.5898 29.873 20.5898C29.8892 20.5898 29.9023 20.5503 29.9023 20.502C29.9023 20.4536 29.9155 20.4141 29.9316 20.4141C29.9478 20.4141 29.9609 20.3745 29.9609 20.3262C29.9609 20.2778 29.9741 20.2383 29.9902 20.2383C30.0063 20.2383 30.0195 20.1987 30.0195 20.1504C30.0195 20.1021 30.0327 20.0625 30.0488 20.0625C30.0649 20.0625 30.0781 20.0229 30.0781 19.9746C30.0781 19.9263 30.0913 19.8867 30.1074 19.8867C30.1235 19.8867 30.1367 19.8472 30.1367 19.7988C30.1367 19.7505 30.1499 19.7109 30.166 19.7109C30.1821 19.7109 30.1953 19.6714 30.1953 19.623C30.1953 19.5747 30.2085 19.5352 30.2246 19.5352C30.2407 19.5352 30.2539 19.4956 30.2539 19.4473C30.2539 19.3989 30.2671 19.3594 30.2832 19.3594C30.2993 19.3594 30.3125 19.3198 30.3125 19.2715C30.3125 19.2231 30.3257 19.1836 30.3418 19.1836C30.3579 19.1836 30.3711 19.144 30.3711 19.0957C30.3711 19.0474 30.3843 19.0078 30.4004 19.0078C30.4165 19.0078 30.4297 18.9683 30.4297 18.9199C30.4297 18.8716 30.4429 18.832 30.459 18.832C30.4751 18.832 30.4883 18.7925 30.4883 18.7441C30.4883 18.6958 30.5015 18.6562 30.5176 18.6562C30.5337 18.6562 30.5469 18.6167 30.5469 18.5684C30.5469 18.52 30.5601 18.4805 30.5762 18.4805C30.5933 18.4805 30.6055 18.3828 30.6055 18.2461C30.6055 18.1094 30.5933 18.0117 30.5762 18.0117C30.5601 18.0117 30.5469 17.9751 30.5469 17.9303C30.5469 17.8825 30.5227 17.8315 30.4883 17.8066C30.4561 17.7834 30.4297 17.7469 30.4297 17.7256C30.4297 17.6753 30.2974 17.543 30.2471 17.543C30.2257 17.543 30.1892 17.5166 30.166 17.4844C30.1412 17.45 30.0902 17.4258 30.0424 17.4258C29.9976 17.4258 29.9609 17.4126 29.9609 17.3965C29.9609 17.3794 29.8633 17.3672 29.7266 17.3672C29.5898 17.3672 29.4922 17.3794 29.4922 17.3965C29.4922 17.4126 29.4526 17.4258 29.4043 17.4258C29.356 17.4258 29.3164 17.439 29.3164 17.4551C29.3164 17.4712 29.2769 17.4844 29.2285 17.4844C29.1802 17.4844 29.1406 17.4976 29.1406 17.5137C29.1406 17.5298 29.1011 17.543 29.0527 17.543C29.0044 17.543 28.9648 17.5562 28.9648 17.5723C28.9648 17.5884 28.9253 17.6016 28.877 17.6016C28.8286 17.6016 28.7891 17.6147 28.7891 17.6309C28.7891 17.647 28.7495 17.6602 28.7012 17.6602C28.6528 17.6602 28.6133 17.6733 28.6133 17.6895C28.6133 17.7056 28.5737 17.7188 28.5254 17.7188C28.4771 17.7188 28.4375 17.7319 28.4375 17.748C28.4375 17.7642 28.3979 17.7773 28.3496 17.7773C28.3013 17.7773 28.2617 17.7905 28.2617 17.8066C28.2617 17.8228 28.2222 17.8359 28.1738 17.8359C28.1255 17.8359 28.0859 17.8491 28.0859 17.8652C28.0859 17.8813 28.0464 17.8945 27.998 17.8945H27.9102V15.7852C27.9102 14.3984 27.9001 13.6758 27.8809 13.6758C27.8647 13.6758 27.8516 13.6494 27.8516 13.6172C27.8516 13.585 27.8384 13.5586 27.8223 13.5586C27.8062 13.5586 27.793 13.5322 27.793 13.5C27.793 13.4678 27.7798 13.4414 27.7637 13.4414C27.7476 13.4414 27.7344 13.4215 27.7344 13.3971C27.7344 13.3727 27.3521 12.9708 26.8848 12.5039C26.4175 12.037 26.0352 11.6351 26.0352 11.6107C26.0352 11.5864 26.022 11.5664 26.0059 11.5664C25.9897 11.5664 25.9766 11.5269 25.9766 11.4785C25.9766 11.4302 25.9634 11.3906 25.9473 11.3906C25.9312 11.3906 25.918 11.3511 25.918 11.3027C25.918 11.2544 25.9048 11.2148 25.8887 11.2148C25.8726 11.2148 25.8594 11.1753 25.8594 11.127C25.8594 11.0786 25.8462 11.0391 25.8301 11.0391C25.814 11.0391 25.8008 10.9995 25.8008 10.9512C25.8008 10.9028 25.7876 10.8633 25.7715 10.8633C25.7554 10.8633 25.7422 10.8237 25.7422 10.7754C25.7422 10.7271 25.729 10.6875 25.7129 10.6875C25.6968 10.6875 25.6836 10.6479 25.6836 10.5996C25.6836 10.5513 25.6704 10.5117 25.6543 10.5117C25.6382 10.5117 25.625 10.4722 25.625 10.4238C25.625 10.3755 25.6118 10.3359 25.5957 10.3359C25.5796 10.3359 25.5664 10.2964 25.5664 10.248C25.5664 10.1997 25.5532 10.1602 25.5371 10.1602C25.521 10.1602 25.5078 10.1206 25.5078 10.0723C25.5078 10.0239 25.4946 9.98438 25.4785 9.98438C25.4624 9.98438 25.4492 9.94482 25.4492 9.89648C25.4492 9.84814 25.436 9.80859 25.4199 9.80859C25.4038 9.80859 25.3906 9.76904 25.3906 9.7207C25.3906 9.67236 25.3774 9.63281 25.3613 9.63281C25.3452 9.63281 25.332 9.59326 25.332 9.54492C25.332 9.49658 25.3188 9.45703 25.3027 9.45703C25.2866 9.45703 25.2734 9.41748 25.2734 9.36914C25.2734 9.3208 25.2603 9.28125 25.2441 9.28125C25.228 9.28125 25.2148 9.2417 25.2148 9.19336C25.2148 9.14502 25.2017 9.10547 25.1855 9.10547C25.1694 9.10547 25.1562 9.06592 25.1562 9.01758C25.1562 8.96924 25.1431 8.92969 25.127 8.92969C25.1108 8.92969 25.0977 8.89014 25.0977 8.8418C25.0977 8.79346 25.0845 8.75391 25.0684 8.75391C25.0522 8.75391 25.0391 8.71436 25.0391 8.66602C25.0391 8.61768 25.0259 8.57812 25.0098 8.57812C24.9937 8.57812 24.9805 8.53857 24.9805 8.49023C24.9805 8.44189 24.9673 8.40234 24.9512 8.40234C24.9351 8.40234 24.9219 8.36279 24.9219 8.31445C24.9219 8.26611 24.9087 8.22656 24.8926 8.22656C24.8765 8.22656 24.8633 8.18701 24.8633 8.13867C24.8633 8.09033 24.8501 8.05078 24.834 8.05078C24.8179 8.05078 24.8047 8.01123 24.8047 7.96289C24.8047 7.91455 24.7915 7.875 24.7754 7.875C24.7593 7.875 24.7461 7.83545 24.7461 7.78711C24.7461 7.73877 24.7329 7.69922 24.7168 7.69922C24.7007 7.69922 24.6875 7.67285 24.6875 7.64062C24.6875 7.6084 24.6743 7.58203 24.6582 7.58203C24.6421 7.58203 24.6289 7.55566 24.6289 7.52344C24.6289 7.49121 24.6157 7.46484 24.5996 7.46484C24.5835 7.46484 24.5703 7.43848 24.5703 7.40625C24.5703 7.37402 24.5571 7.34766 24.541 7.34766C24.5249 7.34766 24.5117 7.32419 24.5117 7.29554C24.5117 7.26686 24.4854 7.2244 24.4531 7.20117C24.4209 7.17794 24.3945 7.14105 24.3945 7.11917C24.3945 7.09729 24.3418 7.02873 24.2773 6.9668C24.2129 6.90486 24.1602 6.83341 24.1602 6.80795C24.1602 6.78252 24.1395 6.76172 24.1143 6.76172C24.0891 6.76172 24.0043 6.6958 23.9258 6.61523C23.8473 6.53467 23.7654 6.46875 23.7437 6.46875C23.7221 6.46875 23.6853 6.44238 23.6621 6.41016C23.6389 6.37793 23.5964 6.35156 23.5677 6.35156C23.5391 6.35156 23.5156 6.33838 23.5156 6.32227C23.5156 6.30615 23.4893 6.29297 23.457 6.29297C23.4248 6.29297 23.3984 6.27979 23.3984 6.26367C23.3984 6.24756 23.3721 6.23438 23.3398 6.23438C23.3076 6.23438 23.2812 6.22119 23.2812 6.20508C23.2812 6.18896 23.2417 6.17578 23.1934 6.17578C23.145 6.17578 23.1055 6.1626 23.1055 6.14648C23.1055 6.13037 23.0659 6.11719 23.0176 6.11719C22.9692 6.11719 22.9297 6.104 22.9297 6.08789C22.9297 6.07178 22.8638 6.05859 22.7832 6.05859C22.7026 6.05859 22.6367 6.04541 22.6367 6.0293C22.6367 6.00984 20.5566 6 16.4551 6C12.3535 6 10.2734 6.00984 10.2734 6.0293ZM22.4609 7.78711C22.4609 7.80322 22.5005 7.81641 22.5488 7.81641C22.5972 7.81641 22.6367 7.82959 22.6367 7.8457C22.6367 7.86182 22.6568 7.875 22.6814 7.875C22.7396 7.875 22.9883 8.1237 22.9883 8.18186C22.9883 8.20644 23.0015 8.22656 23.0176 8.22656C23.0337 8.22656 23.0469 8.25293 23.0469 8.28516C23.0469 8.31738 23.0601 8.34375 23.0762 8.34375C23.0923 8.34375 23.1055 8.3833 23.1055 8.43164C23.1055 8.47998 23.1187 8.51953 23.1348 8.51953C23.1509 8.51953 23.1641 8.55908 23.1641 8.60742C23.1641 8.65576 23.1772 8.69531 23.1934 8.69531C23.2095 8.69531 23.2227 8.73486 23.2227 8.7832C23.2227 8.83154 23.2358 8.87109 23.252 8.87109C23.2681 8.87109 23.2812 8.91064 23.2812 8.95898C23.2812 9.00732 23.2944 9.04688 23.3105 9.04688C23.3267 9.04688 23.3398 9.08643 23.3398 9.13477C23.3398 9.18311 23.353 9.22266 23.3691 9.22266C23.3853 9.22266 23.3984 9.26221 23.3984 9.31055C23.3984 9.35889 23.4116 9.39844 23.4277 9.39844C23.4438 9.39844 23.457 9.43799 23.457 9.48633C23.457 9.53467 23.4702 9.57422 23.4863 9.57422C23.5024 9.57422 23.5156 9.61377 23.5156 9.66211C23.5156 9.71045 23.5288 9.75 23.5449 9.75C23.561 9.75 23.5742 9.78955 23.5742 9.83789C23.5742 9.88623 23.5874 9.92578 23.6035 9.92578C23.6196 9.92578 23.6328 9.96533 23.6328 10.0137C23.6328 10.062 23.646 10.1016 23.6621 10.1016C23.6782 10.1016 23.6914 10.1411 23.6914 10.1895C23.6914 10.2378 23.7046 10.2773 23.7207 10.2773C23.7368 10.2773 23.75 10.3169 23.75 10.3652C23.75 10.4136 23.7632 10.4531 23.7793 10.4531C23.7954 10.4531 23.8086 10.4927 23.8086 10.541C23.8086 10.5894 23.8218 10.6289 23.8379 10.6289C23.854 10.6289 23.8672 10.6685 23.8672 10.7168C23.8672 10.7651 23.8804 10.8047 23.8965 10.8047C23.9126 10.8047 23.9258 10.8442 23.9258 10.8926C23.9258 10.9409 23.939 10.9805 23.9551 10.9805C23.9712 10.9805 23.9844 11.02 23.9844 11.0684C23.9844 11.1167 23.9976 11.1562 24.0137 11.1562C24.0298 11.1562 24.043 11.1826 24.043 11.2148C24.043 11.2704 24.0234 11.2734 23.6621 11.2734C23.4277 11.2734 23.2812 11.2847 23.2812 11.3027C23.2812 11.3188 23.2417 11.332 23.1934 11.332C23.145 11.332 23.1055 11.3452 23.1055 11.3613C23.1055 11.3774 23.0791 11.3906 23.0469 11.3906C23.0146 11.3906 22.9883 11.4038 22.9883 11.4199C22.9883 11.436 22.9619 11.4492 22.9297 11.4492C22.8975 11.4492 22.8711 11.4624 22.8711 11.4785C22.8711 11.4946 22.8447 11.5078 22.8125 11.5078C22.7803 11.5078 22.7539 11.521 22.7539 11.5371C22.7539 11.5532 22.7275 11.5664 22.6953 11.5664C22.6631 11.5664 22.6367 11.5796 22.6367 11.5957C22.6367 11.6118 22.6104 11.625 22.5781 11.625C22.5459 11.625 22.5195 11.6382 22.5195 11.6543C22.5195 11.6704 22.4932 11.6836 22.4609 11.6836C22.4287 11.6836 22.4023 11.6968 22.4023 11.7129C22.4023 11.729 22.376 11.7422 22.3438 11.7422C22.3115 11.7422 22.2852 11.7554 22.2852 11.7715C22.2852 11.7876 22.2588 11.8008 22.2266 11.8008C22.1943 11.8008 22.168 11.814 22.168 11.8301C22.168 11.8462 22.1416 11.8594 22.1094 11.8594C22.0771 11.8594 22.0508 11.8726 22.0508 11.8887C22.0508 11.9048 22.0244 11.918 21.9922 11.918C21.96 11.918 21.9336 11.9312 21.9336 11.9473C21.9336 11.9634 21.9072 11.9766 21.875 11.9766C21.8428 11.9766 21.8164 11.9897 21.8164 12.0059C21.8164 12.022 21.79 12.0352 21.7578 12.0352C21.7256 12.0352 21.6992 12.0483 21.6992 12.0645C21.6992 12.0806 21.6729 12.0938 21.6406 12.0938C21.6084 12.0938 21.582 12.1069 21.582 12.123C21.582 12.1392 21.5557 12.1523 21.5234 12.1523C21.4912 12.1523 21.4648 12.1655 21.4648 12.1816C21.4648 12.1978 21.4385 12.2109 21.4062 12.2109C21.374 12.2109 21.3477 12.2241 21.3477 12.2402C21.3477 12.2563 21.3213 12.2695 21.2891 12.2695C21.2568 12.2695 21.2305 12.2827 21.2305 12.2988C21.2305 12.3149 21.2041 12.3281 21.1719 12.3281C21.1396 12.3281 21.1133 12.3413 21.1133 12.3574C21.1133 12.3735 21.0869 12.3867 21.0547 12.3867C21.0225 12.3867 20.9961 12.3999 20.9961 12.416C20.9961 12.4321 20.9697 12.4453 20.9375 12.4453C20.9053 12.4453 20.8789 12.4585 20.8789 12.4746C20.8789 12.4907 20.8525 12.5039 20.8203 12.5039C20.7881 12.5039 20.7617 12.5171 20.7617 12.5332C20.7617 12.5493 20.7354 12.5625 20.7031 12.5625C20.6709 12.5625 20.6445 12.5757 20.6445 12.5918C20.6445 12.6079 20.6182 12.6211 20.5859 12.6211C20.5537 12.6211 20.5273 12.6343 20.5273 12.6504C20.5273 12.6665 20.501 12.6797 20.4688 12.6797C20.4365 12.6797 20.4102 12.6929 20.4102 12.709C20.4102 12.7251 20.3838 12.7383 20.3516 12.7383C20.3193 12.7383 20.293 12.7515 20.293 12.7676C20.293 12.7837 20.2666 12.7969 20.2344 12.7969C20.2021 12.7969 20.1758 12.8101 20.1758 12.8262C20.1758 12.8423 20.1494 12.8555 20.1172 12.8555C20.085 12.8555 20.0586 12.8687 20.0586 12.8848C20.0586 12.9009 20.0322 12.9141 20 12.9141C19.9678 12.9141 19.9414 12.9272 19.9414 12.9434C19.9414 12.9595 19.915 12.9727 19.8828 12.9727C19.8506 12.9727 19.8242 12.9858 19.8242 13.002C19.8242 13.0213 18.6816 13.0312 16.4551 13.0312C14.2285 13.0312 13.0859 13.0213 13.0859 13.002C13.0859 12.9858 13.0596 12.9727 13.0273 12.9727C12.9951 12.9727 12.9688 12.9595 12.9688 12.9434C12.9688 12.9272 12.9424 12.9141 12.9102 12.9141C12.8779 12.9141 12.8516 12.9009 12.8516 12.8848C12.8516 12.8687 12.8252 12.8555 12.793 12.8555C12.7607 12.8555 12.7344 12.8423 12.7344 12.8262C12.7344 12.8101 12.708 12.7969 12.6758 12.7969C12.6436 12.7969 12.6172 12.7837 12.6172 12.7676C12.6172 12.7515 12.5908 12.7383 12.5586 12.7383C12.5264 12.7383 12.5 12.7251 12.5 12.709C12.5 12.6929 12.4736 12.6797 12.4414 12.6797C12.4092 12.6797 12.3828 12.6665 12.3828 12.6504C12.3828 12.6343 12.3564 12.6211 12.3242 12.6211C12.292 12.6211 12.2656 12.6079 12.2656 12.5918C12.2656 12.5757 12.2393 12.5625 12.207 12.5625C12.1748 12.5625 12.1484 12.5493 12.1484 12.5332C12.1484 12.5171 12.1221 12.5039 12.0898 12.5039C12.0576 12.5039 12.0312 12.4907 12.0312 12.4746C12.0312 12.4585 12.0049 12.4453 11.9727 12.4453C11.9404 12.4453 11.9141 12.4321 11.9141 12.416C11.9141 12.3999 11.8877 12.3867 11.8555 12.3867C11.8232 12.3867 11.7969 12.3735 11.7969 12.3574C11.7969 12.3413 11.7705 12.3281 11.7383 12.3281C11.7061 12.3281 11.6797 12.3149 11.6797 12.2988C11.6797 12.2827 11.6533 12.2695 11.6211 12.2695C11.5889 12.2695 11.5625 12.2563 11.5625 12.2402C11.5625 12.2241 11.5361 12.2109 11.5039 12.2109C11.4717 12.2109 11.4453 12.1978 11.4453 12.1816C11.4453 12.1655 11.4189 12.1523 11.3867 12.1523C11.3545 12.1523 11.3281 12.1392 11.3281 12.123C11.3281 12.1069 11.3018 12.0938 11.2695 12.0938C11.2373 12.0938 11.2109 12.0806 11.2109 12.0645C11.2109 12.0483 11.1846 12.0352 11.1523 12.0352C11.1201 12.0352 11.0938 12.022 11.0938 12.0059C11.0938 11.9897 11.0674 11.9766 11.0352 11.9766C11.0029 11.9766 10.9766 11.9634 10.9766 11.9473C10.9766 11.9312 10.9502 11.918 10.918 11.918C10.8857 11.918 10.8594 11.9048 10.8594 11.8887C10.8594 11.8726 10.833 11.8594 10.8008 11.8594C10.7686 11.8594 10.7422 11.8462 10.7422 11.8301C10.7422 11.814 10.7158 11.8008 10.6836 11.8008C10.6514 11.8008 10.625 11.7876 10.625 11.7715C10.625 11.7554 10.5986 11.7422 10.5664 11.7422C10.5342 11.7422 10.5078 11.729 10.5078 11.7129C10.5078 11.6968 10.4814 11.6836 10.4492 11.6836C10.417 11.6836 10.3906 11.6704 10.3906 11.6543C10.3906 11.6382 10.3643 11.625 10.332 11.625C10.2998 11.625 10.2734 11.6118 10.2734 11.5957C10.2734 11.5796 10.2471 11.5664 10.2148 11.5664C10.1826 11.5664 10.1562 11.5532 10.1562 11.5371C10.1562 11.521 10.1299 11.5078 10.0977 11.5078C10.0654 11.5078 10.0391 11.4946 10.0391 11.4785C10.0391 11.4624 10.0127 11.4492 9.98047 11.4492C9.94824 11.4492 9.92188 11.436 9.92188 11.4199C9.92188 11.4038 9.89551 11.3906 9.86328 11.3906C9.83105 11.3906 9.80469 11.3774 9.80469 11.3613C9.80469 11.3452 9.76514 11.332 9.7168 11.332C9.66846 11.332 9.62891 11.3188 9.62891 11.3027C9.62891 11.2847 9.48242 11.2734 9.24805 11.2734C8.88673 11.2734 8.86719 11.2704 8.86719 11.2148C8.86719 11.1826 8.88037 11.1562 8.89648 11.1562C8.9126 11.1562 8.92578 11.1167 8.92578 11.0684C8.92578 11.02 8.93896 10.9805 8.95508 10.9805C8.97119 10.9805 8.98438 10.9409 8.98438 10.8926C8.98438 10.8442 8.99756 10.8047 9.01367 10.8047C9.02979 10.8047 9.04297 10.7651 9.04297 10.7168C9.04297 10.6685 9.05615 10.6289 9.07227 10.6289C9.08838 10.6289 9.10156 10.5894 9.10156 10.541C9.10156 10.4927 9.11475 10.4531 9.13086 10.4531C9.14697 10.4531 9.16016 10.4136 9.16016 10.3652C9.16016 10.3169 9.17334 10.2773 9.18945 10.2773C9.20557 10.2773 9.21875 10.2378 9.21875 10.1895C9.21875 10.1411 9.23193 10.1016 9.24805 10.1016C9.26416 10.1016 9.27734 10.062 9.27734 10.0137C9.27734 9.96533 9.29053 9.92578 9.30664 9.92578C9.32275 9.92578 9.33594 9.88623 9.33594 9.83789C9.33594 9.78955 9.34912 9.75 9.36523 9.75C9.38135 9.75 9.39453 9.71045 9.39453 9.66211C9.39453 9.61377 9.40771 9.57422 9.42383 9.57422C9.43994 9.57422 9.45312 9.53467 9.45312 9.48633C9.45312 9.43799 9.46631 9.39844 9.48242 9.39844C9.49854 9.39844 9.51172 9.35889 9.51172 9.31055C9.51172 9.26221 9.5249 9.22266 9.54102 9.22266C9.55713 9.22266 9.57031 9.18311 9.57031 9.13477C9.57031 9.08643 9.5835 9.04688 9.59961 9.04688C9.61572 9.04688 9.62891 9.00732 9.62891 8.95898C9.62891 8.91064 9.64209 8.87109 9.6582 8.87109C9.67432 8.87109 9.6875 8.83154 9.6875 8.7832C9.6875 8.73486 9.70068 8.69531 9.7168 8.69531C9.73291 8.69531 9.74609 8.65576 9.74609 8.60742C9.74609 8.55908 9.75928 8.51953 9.77539 8.51953C9.7915 8.51953 9.80469 8.47998 9.80469 8.43164C9.80469 8.3833 9.81787 8.34375 9.83398 8.34375C9.8501 8.34375 9.86328 8.31738 9.86328 8.28516C9.86328 8.25293 9.87646 8.22656 9.89258 8.22656C9.90869 8.22656 9.92188 8.20644 9.92188 8.18186C9.92188 8.1237 10.1706 7.875 10.2287 7.875C10.2533 7.875 10.2734 7.86182 10.2734 7.8457C10.2734 7.82959 10.313 7.81641 10.3613 7.81641C10.4097 7.81641 10.4492 7.80322 10.4492 7.78711C10.4492 7.76769 12.4707 7.75781 16.4551 7.75781C20.4395 7.75781 22.4609 7.76769 22.4609 7.78711ZM9.21875 13.0605C9.21875 13.0767 9.24512 13.0898 9.27734 13.0898C9.30957 13.0898 9.33594 13.103 9.33594 13.1191C9.33594 13.1353 9.3623 13.1484 9.39453 13.1484C9.42676 13.1484 9.45312 13.1616 9.45312 13.1777C9.45312 13.1938 9.47949 13.207 9.51172 13.207C9.54395 13.207 9.57031 13.2202 9.57031 13.2363C9.57031 13.2524 9.59668 13.2656 9.62891 13.2656C9.66113 13.2656 9.6875 13.2788 9.6875 13.2949C9.6875 13.311 9.71387 13.3242 9.74609 13.3242C9.77832 13.3242 9.80469 13.3374 9.80469 13.3535C9.80469 13.3696 9.83105 13.3828 9.86328 13.3828C9.89551 13.3828 9.92188 13.396 9.92188 13.4121C9.92188 13.4282 9.94824 13.4414 9.98047 13.4414C10.0127 13.4414 10.0391 13.4546 10.0391 13.4707C10.0391 13.4868 10.0654 13.5 10.0977 13.5C10.1299 13.5 10.1562 13.5132 10.1562 13.5293C10.1562 13.5454 10.1826 13.5586 10.2148 13.5586C10.2471 13.5586 10.2734 13.5718 10.2734 13.5879C10.2734 13.604 10.2998 13.6172 10.332 13.6172C10.3643 13.6172 10.3906 13.6304 10.3906 13.6465C10.3906 13.6626 10.417 13.6758 10.4492 13.6758C10.4814 13.6758 10.5078 13.689 10.5078 13.7051C10.5078 13.7212 10.5342 13.7344 10.5664 13.7344C10.5986 13.7344 10.625 13.7476 10.625 13.7637C10.625 13.7798 10.6514 13.793 10.6836 13.793C10.7158 13.793 10.7422 13.8062 10.7422 13.8223C10.7422 13.8384 10.7686 13.8516 10.8008 13.8516C10.833 13.8516 10.8594 13.8647 10.8594 13.8809C10.8594 13.897 10.8857 13.9102 10.918 13.9102C10.9502 13.9102 10.9766 13.9233 10.9766 13.9395C10.9766 13.9556 11.0029 13.9688 11.0352 13.9688C11.0674 13.9688 11.0938 13.9819 11.0938 13.998C11.0938 14.0142 11.1201 14.0273 11.1523 14.0273C11.1846 14.0273 11.2109 14.0405 11.2109 14.0566C11.2109 14.0728 11.2373 14.0859 11.2695 14.0859C11.3018 14.0859 11.3281 14.0991 11.3281 14.1152C11.3281 14.1313 11.3545 14.1445 11.3867 14.1445C11.4189 14.1445 11.4453 14.1577 11.4453 14.1738C11.4453 14.1899 11.4717 14.2031 11.5039 14.2031C11.5361 14.2031 11.5625 14.2163 11.5625 14.2324C11.5625 14.2485 11.5889 14.2617 11.6211 14.2617C11.6533 14.2617 11.6797 14.2749 11.6797 14.291C11.6797 14.3071 11.7061 14.3203 11.7383 14.3203C11.7705 14.3203 11.7969 14.3335 11.7969 14.3496C11.7969 14.3657 11.8232 14.3789 11.8555 14.3789C11.8877 14.3789 11.9141 14.3921 11.9141 14.4082C11.9141 14.4243 11.9404 14.4375 11.9727 14.4375C12.0049 14.4375 12.0312 14.4507 12.0312 14.4668C12.0312 14.4829 12.0576 14.4961 12.0898 14.4961C12.1221 14.4961 12.1484 14.5093 12.1484 14.5254C12.1484 14.5415 12.1748 14.5547 12.207 14.5547C12.2393 14.5547 12.2656 14.5679 12.2656 14.584C12.2656 14.6001 12.292 14.6133 12.3242 14.6133C12.3564 14.6133 12.3828 14.6265 12.3828 14.6426C12.3828 14.6587 12.4092 14.6719 12.4414 14.6719C12.4736 14.6719 12.5 14.6851 12.5 14.7012C12.5 14.7173 12.5396 14.7305 12.5879 14.7305C12.6362 14.7305 12.6758 14.7437 12.6758 14.7598C12.6758 14.7791 13.9551 14.7891 16.4551 14.7891C18.9551 14.7891 20.2344 14.7791 20.2344 14.7598C20.2344 14.7437 20.2739 14.7305 20.3223 14.7305C20.3706 14.7305 20.4102 14.7173 20.4102 14.7012C20.4102 14.6851 20.4365 14.6719 20.4688 14.6719C20.501 14.6719 20.5273 14.6587 20.5273 14.6426C20.5273 14.6265 20.5537 14.6133 20.5859 14.6133C20.6182 14.6133 20.6445 14.6001 20.6445 14.584C20.6445 14.5679 20.6709 14.5547 20.7031 14.5547C20.7354 14.5547 20.7617 14.5415 20.7617 14.5254C20.7617 14.5093 20.7881 14.4961 20.8203 14.4961C20.8525 14.4961 20.8789 14.4829 20.8789 14.4668C20.8789 14.4507 20.9053 14.4375 20.9375 14.4375C20.9697 14.4375 20.9961 14.4243 20.9961 14.4082C20.9961 14.3921 21.0225 14.3789 21.0547 14.3789C21.0869 14.3789 21.1133 14.3657 21.1133 14.3496C21.1133 14.3335 21.1396 14.3203 21.1719 14.3203C21.2041 14.3203 21.2305 14.3071 21.2305 14.291C21.2305 14.2749 21.2568 14.2617 21.2891 14.2617C21.3213 14.2617 21.3477 14.2485 21.3477 14.2324C21.3477 14.2163 21.374 14.2031 21.4062 14.2031C21.4385 14.2031 21.4648 14.1899 21.4648 14.1738C21.4648 14.1577 21.4912 14.1445 21.5234 14.1445C21.5557 14.1445 21.582 14.1313 21.582 14.1152C21.582 14.0991 21.6084 14.0859 21.6406 14.0859C21.6729 14.0859 21.6992 14.0728 21.6992 14.0566C21.6992 14.0405 21.7256 14.0273 21.7578 14.0273C21.79 14.0273 21.8164 14.0142 21.8164 13.998C21.8164 13.9819 21.8428 13.9688 21.875 13.9688C21.9072 13.9688 21.9336 13.9556 21.9336 13.9395C21.9336 13.9233 21.96 13.9102 21.9922 13.9102C22.0244 13.9102 22.0508 13.897 22.0508 13.8809C22.0508 13.8647 22.0771 13.8516 22.1094 13.8516C22.1416 13.8516 22.168 13.8384 22.168 13.8223C22.168 13.8062 22.1943 13.793 22.2266 13.793C22.2588 13.793 22.2852 13.7798 22.2852 13.7637C22.2852 13.7476 22.3115 13.7344 22.3438 13.7344C22.376 13.7344 22.4023 13.7212 22.4023 13.7051C22.4023 13.689 22.4287 13.6758 22.4609 13.6758C22.4932 13.6758 22.5195 13.6626 22.5195 13.6465C22.5195 13.6304 22.5459 13.6172 22.5781 13.6172C22.6104 13.6172 22.6367 13.604 22.6367 13.5879C22.6367 13.5718 22.6631 13.5586 22.6953 13.5586C22.7275 13.5586 22.7539 13.5454 22.7539 13.5293C22.7539 13.5132 22.7803 13.5 22.8125 13.5C22.8447 13.5 22.8711 13.4868 22.8711 13.4707C22.8711 13.4546 22.8975 13.4414 22.9297 13.4414C22.9619 13.4414 22.9883 13.4282 22.9883 13.4121C22.9883 13.396 23.0146 13.3828 23.0469 13.3828C23.0791 13.3828 23.1055 13.3696 23.1055 13.3535C23.1055 13.3374 23.1318 13.3242 23.1641 13.3242C23.1963 13.3242 23.2227 13.311 23.2227 13.2949C23.2227 13.2788 23.249 13.2656 23.2812 13.2656C23.3135 13.2656 23.3398 13.2524 23.3398 13.2363C23.3398 13.2202 23.3662 13.207 23.3984 13.207C23.4307 13.207 23.457 13.1938 23.457 13.1777C23.457 13.1616 23.4834 13.1484 23.5156 13.1484C23.5479 13.1484 23.5742 13.1353 23.5742 13.1191C23.5742 13.103 23.6006 13.0898 23.6328 13.0898C23.665 13.0898 23.6914 13.0767 23.6914 13.0605C23.6914 13.042 23.9112 13.0312 24.2922 13.0312H24.8929L25.5226 13.661L26.1523 14.2907V16.2977V18.3047H26.0709C26.0231 18.3047 25.9721 18.2805 25.9473 18.2461C25.924 18.2139 25.8876 18.1875 25.8662 18.1875C25.8128 18.1875 25.6836 18.0538 25.6836 17.9984C25.6836 17.9735 25.6704 17.9531 25.6543 17.9531C25.6382 17.9531 25.625 17.9268 25.625 17.8945C25.625 17.8623 25.6118 17.8359 25.5957 17.8359C25.5796 17.8359 25.5664 17.8096 25.5664 17.7773C25.5664 17.7451 25.5532 17.7188 25.5371 17.7188C25.521 17.7188 25.5078 17.6924 25.5078 17.6602C25.5078 17.6279 25.4946 17.6016 25.4785 17.6016C25.4624 17.6016 25.4492 17.5752 25.4492 17.543C25.4492 17.5107 25.436 17.4844 25.4199 17.4844C25.4038 17.4844 25.3906 17.458 25.3906 17.4258C25.3906 17.3936 25.3774 17.3672 25.3613 17.3672C25.3452 17.3672 25.332 17.3408 25.332 17.3086C25.332 17.2764 25.3188 17.25 25.3027 17.25C25.2866 17.25 25.2734 17.2236 25.2734 17.1914C25.2734 17.1592 25.2603 17.1328 25.2441 17.1328C25.228 17.1328 25.2148 17.1064 25.2148 17.0742C25.2148 17.042 25.2017 17.0156 25.1855 17.0156C25.1694 17.0156 25.1562 16.9893 25.1562 16.957C25.1562 16.9248 25.1431 16.8984 25.127 16.8984C25.1108 16.8984 25.0977 16.8721 25.0977 16.8398C25.0977 16.8076 25.0845 16.7812 25.0684 16.7812C25.0522 16.7812 25.0391 16.7549 25.0391 16.7227C25.0391 16.6904 25.0259 16.6641 25.0098 16.6641C24.9937 16.6641 24.9805 16.6377 24.9805 16.6055C24.9805 16.5732 24.9673 16.5469 24.9512 16.5469C24.9351 16.5469 24.9219 16.5205 24.9219 16.4883C24.9219 16.4561 24.9087 16.4297 24.8926 16.4297C24.8765 16.4297 24.8633 16.4033 24.8633 16.3711C24.8633 16.3389 24.8501 16.3125 24.834 16.3125C24.8179 16.3125 24.8047 16.2861 24.8047 16.2539C24.8047 16.2217 24.7915 16.1953 24.7754 16.1953C24.7593 16.1953 24.7461 16.1689 24.7461 16.1367C24.7461 16.1045 24.7329 16.0781 24.7168 16.0781C24.7007 16.0781 24.6875 16.0518 24.6875 16.0195C24.6875 15.9873 24.6743 15.9609 24.6582 15.9609C24.6421 15.9609 24.6289 15.9346 24.6289 15.9023C24.6289 15.8701 24.6157 15.8438 24.5996 15.8438C24.5835 15.8438 24.5703 15.8174 24.5703 15.7852C24.5703 15.7529 24.5571 15.7266 24.541 15.7266C24.5249 15.7266 24.5117 15.7002 24.5117 15.668C24.5117 15.6357 24.4985 15.6094 24.4824 15.6094C24.4663 15.6094 24.4531 15.583 24.4531 15.5508C24.4531 15.5186 24.4399 15.4922 24.4238 15.4922C24.4077 15.4922 24.3945 15.4658 24.3945 15.4336C24.3945 15.4014 24.3813 15.375 24.3652 15.375C24.3491 15.375 24.3359 15.3515 24.3359 15.3229C24.3359 15.2942 24.3096 15.2517 24.2773 15.2285C24.2451 15.2053 24.2188 15.1688 24.2188 15.1475C24.2188 15.094 24.085 14.9648 24.0296 14.9648C24.0047 14.9648 23.9844 14.9517 23.9844 14.9355C23.9844 14.9194 23.958 14.9062 23.9258 14.9062C23.8936 14.9062 23.8672 14.8931 23.8672 14.877C23.8672 14.8608 23.8408 14.8477 23.8086 14.8477C23.7764 14.8477 23.75 14.8345 23.75 14.8184C23.75 14.8013 23.6524 14.7891 23.5156 14.7891C23.3789 14.7891 23.2812 14.8013 23.2812 14.8184C23.2812 14.8345 23.2549 14.8477 23.2227 14.8477C23.1904 14.8477 23.1641 14.8608 23.1641 14.877C23.1641 14.8931 23.1377 14.9062 23.1055 14.9062C23.0732 14.9062 23.0469 14.9194 23.0469 14.9355C23.0469 14.9517 23.0265 14.9648 23.0016 14.9648C22.9462 14.9648 22.8125 15.094 22.8125 15.1475C22.8125 15.1688 22.7861 15.2053 22.7539 15.2285C22.7217 15.2517 22.6953 15.2942 22.6953 15.3229C22.6953 15.3515 22.6821 15.375 22.666 15.375C22.6499 15.375 22.6367 15.4014 22.6367 15.4336C22.6367 15.4658 22.6235 15.4922 22.6074 15.4922C22.5913 15.4922 22.5781 15.5186 22.5781 15.5508C22.5781 15.583 22.5649 15.6094 22.5488 15.6094C22.5327 15.6094 22.5195 15.6357 22.5195 15.668C22.5195 15.7002 22.5063 15.7266 22.4902 15.7266C22.4741 15.7266 22.4609 15.7529 22.4609 15.7852C22.4609 15.8174 22.4478 15.8438 22.4316 15.8438C22.4155 15.8438 22.4023 15.8701 22.4023 15.9023C22.4023 15.9346 22.3892 15.9609 22.373 15.9609C22.3569 15.9609 22.3438 15.9873 22.3438 16.0195C22.3438 16.0518 22.3306 16.0781 22.3145 16.0781C22.2983 16.0781 22.2852 16.1045 22.2852 16.1367C22.2852 16.1689 22.272 16.1953 22.2559 16.1953C22.2397 16.1953 22.2266 16.2217 22.2266 16.2539C22.2266 16.2861 22.2134 16.3125 22.1973 16.3125C22.1812 16.3125 22.168 16.3389 22.168 16.3711C22.168 16.4033 22.1548 16.4297 22.1387 16.4297C22.1226 16.4297 22.1094 16.4561 22.1094 16.4883C22.1094 16.5205 22.0962 16.5469 22.0801 16.5469C22.064 16.5469 22.0508 16.5732 22.0508 16.6055C22.0508 16.6377 22.0376 16.6641 22.0215 16.6641C22.0054 16.6641 21.9922 16.6904 21.9922 16.7227C21.9922 16.7549 21.979 16.7812 21.9629 16.7812C21.9468 16.7812 21.9336 16.8076 21.9336 16.8398C21.9336 16.8721 21.9204 16.8984 21.9043 16.8984C21.8882 16.8984 21.875 16.9248 21.875 16.957C21.875 16.9893 21.8618 17.0156 21.8457 17.0156C21.8296 17.0156 21.8164 17.042 21.8164 17.0742C21.8164 17.1064 21.8032 17.1328 21.7871 17.1328C21.771 17.1328 21.7578 17.1592 21.7578 17.1914C21.7578 17.2236 21.7446 17.25 21.7285 17.25C21.7124 17.25 21.6992 17.2764 21.6992 17.3086C21.6992 17.3408 21.686 17.3672 21.6699 17.3672C21.6538 17.3672 21.6406 17.3936 21.6406 17.4258C21.6406 17.458 21.6274 17.4844 21.6113 17.4844C21.5952 17.4844 21.582 17.5107 21.582 17.543C21.582 17.5752 21.5688 17.6016 21.5527 17.6016C21.5366 17.6016 21.5234 17.6279 21.5234 17.6602C21.5234 17.6924 21.5103 17.7188 21.4941 17.7188C21.478 17.7188 21.4648 17.7451 21.4648 17.7773C21.4648 17.8096 21.4517 17.8359 21.4355 17.8359C21.4194 17.8359 21.4062 17.8623 21.4062 17.8945C21.4062 17.9268 21.3931 17.9531 21.377 17.9531C21.3608 17.9531 21.3477 17.9735 21.3477 17.9984C21.3477 18.0538 21.2185 18.1875 21.165 18.1875C21.1437 18.1875 21.1072 18.2139 21.084 18.2461C21.0592 18.2805 21.0081 18.3047 20.9603 18.3047C20.9156 18.3047 20.8789 18.3179 20.8789 18.334C20.8789 18.3514 20.7715 18.3633 20.6152 18.3633C20.459 18.3633 20.3516 18.3514 20.3516 18.334C20.3516 18.3179 20.312 18.3047 20.2637 18.3047C20.2153 18.3047 20.1758 18.2915 20.1758 18.2754C20.1758 18.2593 20.1362 18.2461 20.0879 18.2461C20.0396 18.2461 20 18.2329 20 18.2168C20 18.2007 19.9604 18.1875 19.9121 18.1875C19.8638 18.1875 19.8242 18.1743 19.8242 18.1582C19.8242 18.1421 19.7847 18.1289 19.7363 18.1289C19.688 18.1289 19.6484 18.1157 19.6484 18.0996C19.6484 18.0835 19.6089 18.0703 19.5605 18.0703C19.5122 18.0703 19.4727 18.0571 19.4727 18.041C19.4727 18.0249 19.4331 18.0117 19.3848 18.0117C19.3364 18.0117 19.2969 17.9985 19.2969 17.9824C19.2969 17.9663 19.2573 17.9531 19.209 17.9531C19.1606 17.9531 19.1211 17.9399 19.1211 17.9238C19.1211 17.9077 19.0815 17.8945 19.0332 17.8945C18.9849 17.8945 18.9453 17.8813 18.9453 17.8652C18.9453 17.8491 18.9058 17.8359 18.8574 17.8359C18.8091 17.8359 18.7695 17.8228 18.7695 17.8066C18.7695 17.7905 18.73 17.7773 18.6816 17.7773C18.6333 17.7773 18.5938 17.7642 18.5938 17.748C18.5938 17.7319 18.5542 17.7188 18.5059 17.7188C18.4575 17.7188 18.418 17.7056 18.418 17.6895C18.418 17.6733 18.3784 17.6602 18.3301 17.6602C18.2817 17.6602 18.2422 17.647 18.2422 17.6309C18.2422 17.6147 18.2026 17.6016 18.1543 17.6016C18.106 17.6016 18.0664 17.5884 18.0664 17.5723C18.0664 17.5562 18.0269 17.543 17.9785 17.543C17.9302 17.543 17.8906 17.5298 17.8906 17.5137C17.8906 17.4976 17.8511 17.4844 17.8027 17.4844C17.7544 17.4844 17.7148 17.4712 17.7148 17.4551C17.7148 17.439 17.6753 17.4258 17.627 17.4258C17.5786 17.4258 17.5391 17.4126 17.5391 17.3965C17.5391 17.3794 17.4414 17.3672 17.3047 17.3672C17.168 17.3672 17.0703 17.3794 17.0703 17.3965C17.0703 17.4126 17.0337 17.4258 16.9889 17.4258C16.9411 17.4258 16.89 17.45 16.8652 17.4844C16.842 17.5166 16.8055 17.543 16.7842 17.543C16.7339 17.543 16.6016 17.6753 16.6016 17.7256C16.6016 17.7469 16.5752 17.7834 16.543 17.8066C16.5086 17.8315 16.4844 17.8825 16.4844 17.9303C16.4844 17.9751 16.4712 18.0117 16.4551 18.0117C16.439 18.0117 16.4258 18.0776 16.4258 18.1582V18.3047H11.9141C8.92578 18.3047 7.40234 18.2948 7.40234 18.2754C7.40234 18.2593 7.37598 18.2461 7.34375 18.2461C7.31152 18.2461 7.28516 18.2329 7.28516 18.2168C7.28516 18.2007 7.25879 18.1875 7.22656 18.1875C7.19434 18.1875 7.16797 18.1743 7.16797 18.1582C7.16797 18.1421 7.14761 18.1289 7.12271 18.1289C7.06408 18.1289 6.93359 17.9984 6.93359 17.9398C6.93359 17.9149 6.92041 17.8945 6.9043 17.8945C6.88818 17.8945 6.875 17.8682 6.875 17.8359C6.875 17.8037 6.86182 17.7773 6.8457 17.7773C6.82959 17.7773 6.81641 17.751 6.81641 17.7188C6.81641 17.6865 6.80322 17.6602 6.78711 17.6602C6.76859 17.6602 6.75781 17.4551 6.75781 17.1035V16.5469H8.19336C9.13086 16.5469 9.62891 16.5367 9.62891 16.5176C9.62891 16.5015 9.65527 16.4883 9.6875 16.4883C9.71973 16.4883 9.74609 16.4751 9.74609 16.459C9.74609 16.4429 9.77246 16.4297 9.80469 16.4297C9.83691 16.4297 9.86328 16.4165 9.86328 16.4004C9.86328 16.3843 9.88364 16.3711 9.90855 16.3711C9.96717 16.3711 10.0977 16.2406 10.0977 16.182C10.0977 16.1571 10.1108 16.1367 10.127 16.1367C10.1431 16.1367 10.1562 16.1104 10.1562 16.0781C10.1562 16.0459 10.1694 16.0195 10.1855 16.0195C10.2017 16.0195 10.2148 15.9932 10.2148 15.9609C10.2148 15.9287 10.228 15.9023 10.2441 15.9023C10.2612 15.9023 10.2734 15.8047 10.2734 15.668C10.2734 15.5312 10.2612 15.4336 10.2441 15.4336C10.228 15.4336 10.2148 15.4072 10.2148 15.375C10.2148 15.3428 10.2017 15.3164 10.1855 15.3164C10.1694 15.3164 10.1562 15.29 10.1562 15.2578C10.1562 15.2256 10.1431 15.1992 10.127 15.1992C10.1108 15.1992 10.0977 15.1789 10.0977 15.154C10.0977 15.0953 9.96717 14.9648 9.90855 14.9648C9.88364 14.9648 9.86328 14.9517 9.86328 14.9355C9.86328 14.9194 9.83691 14.9062 9.80469 14.9062C9.77246 14.9062 9.74609 14.8931 9.74609 14.877C9.74609 14.8608 9.71973 14.8477 9.6875 14.8477C9.65527 14.8477 9.62891 14.8345 9.62891 14.8184C9.62891 14.7992 9.13086 14.7891 8.19336 14.7891H6.75781V14.5399V14.2907L7.38037 13.6634L8.00293 13.036L8.61084 13.0336C8.99817 13.0321 9.21875 13.0419 9.21875 13.0605ZM23.5742 17.7773C23.5742 17.8096 23.5874 17.8359 23.6035 17.8359C23.6196 17.8359 23.6328 17.8623 23.6328 17.8945C23.6328 17.9268 23.646 17.9531 23.6621 17.9531C23.6782 17.9531 23.6914 17.9795 23.6914 18.0117C23.6914 18.0439 23.7046 18.0703 23.7207 18.0703C23.7368 18.0703 23.75 18.0967 23.75 18.1289C23.75 18.1611 23.7632 18.1875 23.7793 18.1875C23.7954 18.1875 23.8086 18.2139 23.8086 18.2461C23.8086 18.2783 23.8218 18.3047 23.8379 18.3047C23.854 18.3047 23.8672 18.3311 23.8672 18.3633C23.8672 18.3955 23.8804 18.4219 23.8965 18.4219C23.9126 18.4219 23.9258 18.4482 23.9258 18.4805C23.9258 18.5127 23.939 18.5391 23.9551 18.5391C23.9712 18.5391 23.9844 18.5625 23.9844 18.5912C23.9844 18.6199 24.0107 18.6623 24.043 18.6855C24.0752 18.7088 24.1016 18.7512 24.1016 18.7799C24.1016 18.8086 24.1147 18.832 24.1309 18.832C24.147 18.832 24.1602 18.8555 24.1602 18.8842C24.1602 18.9128 24.1865 18.9553 24.2188 18.9785C24.251 19.0017 24.2773 19.0378 24.2773 19.0586C24.2773 19.1081 24.763 19.5938 24.8125 19.5938C24.8333 19.5938 24.8693 19.6201 24.8926 19.6523C24.9158 19.6846 24.9583 19.7109 24.9869 19.7109C25.0156 19.7109 25.0391 19.7241 25.0391 19.7402C25.0391 19.7563 25.0625 19.7695 25.0912 19.7695C25.1199 19.7695 25.1623 19.7959 25.1855 19.8281C25.2104 19.8625 25.2614 19.8867 25.3092 19.8867C25.354 19.8867 25.3906 19.8999 25.3906 19.916C25.3906 19.9321 25.417 19.9453 25.4492 19.9453C25.4814 19.9453 25.5078 19.9585 25.5078 19.9746C25.5078 19.9907 25.5474 20.0039 25.5957 20.0039C25.644 20.0039 25.6836 20.0171 25.6836 20.0332C25.6836 20.0493 25.7495 20.0625 25.8301 20.0625C25.9106 20.0625 25.9766 20.0757 25.9766 20.0918C25.9766 20.1103 26.1719 20.1211 26.5039 20.1211C26.8359 20.1211 27.0312 20.1103 27.0312 20.0918C27.0312 20.0757 27.0708 20.0625 27.1191 20.0625C27.1675 20.0625 27.207 20.0493 27.207 20.0332C27.207 20.0171 27.2466 20.0039 27.2949 20.0039C27.3433 20.0039 27.3828 19.9907 27.3828 19.9746C27.3828 19.9585 27.4092 19.9453 27.4414 19.9453C27.4736 19.9453 27.5 19.9321 27.5 19.916C27.5 19.8999 27.5396 19.8867 27.5879 19.8867C27.6362 19.8867 27.6758 19.8735 27.6758 19.8574C27.6758 19.8413 27.7153 19.8281 27.7637 19.8281C27.812 19.8281 27.8516 19.8149 27.8516 19.7988C27.8516 19.7827 27.8911 19.7695 27.9395 19.7695C27.9878 19.7695 28.0273 19.7563 28.0273 19.7402C28.0273 19.7241 28.0669 19.7109 28.1152 19.7109C28.1636 19.7109 28.2031 19.6978 28.2031 19.6816C28.2031 19.6655 28.2295 19.6523 28.2617 19.6523C28.3008 19.6523 28.3203 19.6719 28.3203 19.7109C28.3203 19.7432 28.3071 19.7695 28.291 19.7695C28.2749 19.7695 28.2617 19.8091 28.2617 19.8574C28.2617 19.9058 28.2485 19.9453 28.2324 19.9453C28.2163 19.9453 28.2031 19.9849 28.2031 20.0332C28.2031 20.0815 28.1899 20.1211 28.1738 20.1211C28.1577 20.1211 28.1445 20.1606 28.1445 20.209C28.1445 20.2573 28.1313 20.2969 28.1152 20.2969C28.0991 20.2969 28.0859 20.3496 28.0859 20.4141C28.0859 20.4785 28.0728 20.5312 28.0566 20.5312C28.0405 20.5312 28.0273 20.584 28.0273 20.6484C28.0273 20.7129 28.0142 20.7656 27.998 20.7656C27.9799 20.7656 27.9688 20.9219 27.9688 21.1758C27.9688 21.4297 27.9799 21.5859 27.998 21.5859C28.0142 21.5859 28.0273 21.6519 28.0273 21.7324C28.0273 21.813 28.0405 21.8789 28.0566 21.8789C28.0728 21.8789 28.0859 21.9185 28.0859 21.9668C28.0859 22.0151 28.0991 22.0547 28.1152 22.0547C28.1313 22.0547 28.1445 22.0811 28.1445 22.1133C28.1445 22.1455 28.1577 22.1719 28.1738 22.1719C28.1899 22.1719 28.2031 22.2114 28.2031 22.2598C28.2031 22.3081 28.2163 22.3477 28.2324 22.3477C28.2485 22.3477 28.2617 22.3711 28.2617 22.3998C28.2617 22.4285 28.2881 22.4709 28.3203 22.4941C28.3525 22.5174 28.3789 22.5569 28.3789 22.582C28.3789 22.6071 28.4053 22.6467 28.4375 22.6699C28.4697 22.6932 28.4961 22.7292 28.4961 22.75C28.4961 22.7709 28.608 22.8998 28.7447 23.0365C28.8814 23.1733 29.0104 23.2852 29.0312 23.2852C29.052 23.2852 29.0881 23.3115 29.1113 23.3438C29.1346 23.376 29.1741 23.4023 29.1992 23.4023C29.2243 23.4023 29.2639 23.4287 29.2871 23.4609C29.3103 23.4932 29.3528 23.5195 29.3815 23.5195C29.4101 23.5195 29.4336 23.5327 29.4336 23.5488C29.4336 23.5649 29.46 23.5781 29.4922 23.5781C29.5244 23.5781 29.5508 23.5913 29.5508 23.6074C29.5508 23.6235 29.5903 23.6367 29.6387 23.6367C29.687 23.6367 29.7266 23.6499 29.7266 23.666C29.7266 23.6821 29.7529 23.6953 29.7852 23.6953C29.8174 23.6953 29.8438 23.7085 29.8438 23.7246C29.8438 23.7407 29.8833 23.7539 29.9316 23.7539C29.98 23.7539 30.0195 23.7671 30.0195 23.7832C30.0195 23.7993 30.0459 23.8125 30.0781 23.8125C30.1104 23.8125 30.1367 23.8257 30.1367 23.8418C30.1367 23.8579 30.1763 23.8711 30.2246 23.8711C30.2729 23.8711 30.3125 23.8843 30.3125 23.9004C30.3125 23.9165 30.3521 23.9297 30.4004 23.9297C30.4487 23.9297 30.4883 23.9429 30.4883 23.959C30.4883 23.9751 30.5146 23.9883 30.5469 23.9883C30.5791 23.9883 30.6055 24.0015 30.6055 24.0176C30.6055 24.0337 30.645 24.0469 30.6934 24.0469C30.7417 24.0469 30.7812 24.0601 30.7812 24.0762C30.7812 24.0923 30.8076 24.1055 30.8398 24.1055C30.8721 24.1055 30.8984 24.1187 30.8984 24.1348C30.8984 24.1509 30.938 24.1641 30.9863 24.1641C31.0347 24.1641 31.0742 24.1772 31.0742 24.1934C31.0742 24.2095 31.1006 24.2227 31.1328 24.2227C31.165 24.2227 31.1914 24.2358 31.1914 24.252C31.1914 24.2681 31.231 24.2812 31.2793 24.2812C31.3276 24.2812 31.3672 24.2944 31.3672 24.3105C31.3672 24.3267 31.3936 24.3398 31.4258 24.3398C31.458 24.3398 31.4844 24.353 31.4844 24.3691C31.4844 24.3853 31.5239 24.3984 31.5723 24.3984C31.6406 24.3984 31.6602 24.4114 31.6602 24.457C31.6602 24.5026 31.6406 24.5156 31.5723 24.5156C31.5239 24.5156 31.4844 24.5288 31.4844 24.5449C31.4844 24.561 31.458 24.5742 31.4258 24.5742C31.3936 24.5742 31.3672 24.5874 31.3672 24.6035C31.3672 24.6196 31.3276 24.6328 31.2793 24.6328C31.231 24.6328 31.1914 24.646 31.1914 24.6621C31.1914 24.6782 31.165 24.6914 31.1328 24.6914C31.1006 24.6914 31.0742 24.7046 31.0742 24.7207C31.0742 24.7368 31.0347 24.75 30.9863 24.75C30.938 24.75 30.8984 24.7632 30.8984 24.7793C30.8984 24.7954 30.8721 24.8086 30.8398 24.8086C30.8076 24.8086 30.7812 24.8218 30.7812 24.8379C30.7812 24.854 30.7417 24.8672 30.6934 24.8672C30.645 24.8672 30.6055 24.8804 30.6055 24.8965C30.6055 24.9126 30.5791 24.9258 30.5469 24.9258C30.5146 24.9258 30.4883 24.939 30.4883 24.9551C30.4883 24.9712 30.4487 24.9844 30.4004 24.9844C30.3521 24.9844 30.3125 24.9976 30.3125 25.0137C30.3125 25.0298 30.2729 25.043 30.2246 25.043C30.1763 25.043 30.1367 25.0562 30.1367 25.0723C30.1367 25.0884 30.1104 25.1016 30.0781 25.1016C30.0459 25.1016 30.0195 25.1147 30.0195 25.1309C30.0195 25.147 29.98 25.1602 29.9316 25.1602C29.8833 25.1602 29.8438 25.1733 29.8438 25.1895C29.8438 25.2056 29.8174 25.2188 29.7852 25.2188C29.7529 25.2188 29.7266 25.2319 29.7266 25.248C29.7266 25.2642 29.687 25.2773 29.6387 25.2773C29.5903 25.2773 29.5508 25.2905 29.5508 25.3066C29.5508 25.3228 29.5244 25.3359 29.4922 25.3359C29.46 25.3359 29.4336 25.3491 29.4336 25.3652C29.4336 25.3813 29.4101 25.3945 29.3815 25.3945C29.3528 25.3945 29.3103 25.4209 29.2871 25.4531C29.2639 25.4854 29.2243 25.5117 29.1992 25.5117C29.1741 25.5117 29.1346 25.5381 29.1113 25.5703C29.0881 25.6025 29.052 25.6289 29.0312 25.6289C29.0104 25.6289 28.8814 25.7408 28.7447 25.8775C28.608 26.0142 28.4961 26.1432 28.4961 26.164C28.4961 26.1848 28.4697 26.2209 28.4375 26.2441C28.4053 26.2674 28.3789 26.3069 28.3789 26.332C28.3789 26.3571 28.3525 26.3967 28.3203 26.4199C28.2881 26.4432 28.2617 26.4856 28.2617 26.5143C28.2617 26.5429 28.2485 26.5664 28.2324 26.5664C28.2163 26.5664 28.2031 26.606 28.2031 26.6543C28.2031 26.7026 28.1899 26.7422 28.1738 26.7422C28.1577 26.7422 28.1445 26.7686 28.1445 26.8008C28.1445 26.833 28.1313 26.8594 28.1152 26.8594C28.0991 26.8594 28.0859 26.8989 28.0859 26.9473C28.0859 26.9956 28.0728 27.0352 28.0566 27.0352C28.0405 27.0352 28.0273 27.1011 28.0273 27.1816C28.0273 27.2622 28.0142 27.3281 27.998 27.3281C27.9799 27.3281 27.9688 27.4844 27.9688 27.7383C27.9688 27.9922 27.9799 28.1484 27.998 28.1484C28.0142 28.1484 28.0273 28.2012 28.0273 28.2656C28.0273 28.3301 28.0405 28.3828 28.0566 28.3828C28.0728 28.3828 28.0859 28.4355 28.0859 28.5C28.0859 28.5645 28.0991 28.6172 28.1152 28.6172C28.1313 28.6172 28.1445 28.6567 28.1445 28.7051C28.1445 28.7534 28.1577 28.793 28.1738 28.793C28.1899 28.793 28.2031 28.8325 28.2031 28.8809C28.2031 28.9292 28.2163 28.9688 28.2324 28.9688C28.2485 28.9688 28.2617 29.0083 28.2617 29.0566C28.2617 29.105 28.2749 29.1445 28.291 29.1445C28.3071 29.1445 28.3203 29.1709 28.3203 29.2031C28.3203 29.2422 28.3008 29.2617 28.2617 29.2617C28.2295 29.2617 28.2031 29.2485 28.2031 29.2324C28.2031 29.2163 28.1636 29.2031 28.1152 29.2031C28.0669 29.2031 28.0273 29.1899 28.0273 29.1738C28.0273 29.1577 27.9878 29.1445 27.9395 29.1445C27.8911 29.1445 27.8516 29.1313 27.8516 29.1152C27.8516 29.0991 27.812 29.0859 27.7637 29.0859C27.7153 29.0859 27.6758 29.0728 27.6758 29.0566C27.6758 29.0405 27.6362 29.0273 27.5879 29.0273C27.5396 29.0273 27.5 29.0142 27.5 28.998C27.5 28.9819 27.4604 28.9688 27.4121 28.9688C27.3638 28.9688 27.3242 28.9556 27.3242 28.9395C27.3242 28.9233 27.2847 28.9102 27.2363 28.9102C27.188 28.9102 27.1484 28.897 27.1484 28.8809C27.1484 28.8647 27.0825 28.8516 27.002 28.8516C26.9214 28.8516 26.8555 28.8384 26.8555 28.8223C26.8555 28.804 26.6797 28.793 26.3867 28.793C26.0938 28.793 25.918 28.804 25.918 28.8223C25.918 28.8384 25.8652 28.8516 25.8008 28.8516C25.7363 28.8516 25.6836 28.8647 25.6836 28.8809C25.6836 28.897 25.644 28.9102 25.5957 28.9102C25.5474 28.9102 25.5078 28.9233 25.5078 28.9395C25.5078 28.9556 25.4683 28.9688 25.4199 28.9688C25.3716 28.9688 25.332 28.9819 25.332 28.998C25.332 29.0142 25.3057 29.0273 25.2734 29.0273C25.2412 29.0273 25.2148 29.0405 25.2148 29.0566C25.2148 29.0728 25.1914 29.0859 25.1627 29.0859C25.134 29.0859 25.0916 29.1123 25.0684 29.1445C25.0451 29.1768 25.0056 29.2031 24.9805 29.2031C24.9554 29.2031 24.9158 29.2295 24.8926 29.2617C24.8693 29.2939 24.8333 29.3203 24.8125 29.3203C24.763 29.3203 24.2773 29.806 24.2773 29.8554C24.2773 29.8763 24.251 29.9123 24.2188 29.9355C24.1865 29.9588 24.1602 30.0012 24.1602 30.0299C24.1602 30.0586 24.147 30.082 24.1309 30.082C24.1147 30.082 24.1016 30.1055 24.1016 30.1341C24.1016 30.1628 24.0752 30.2053 24.043 30.2285C24.0107 30.2517 23.9844 30.2942 23.9844 30.3229C23.9844 30.3515 23.9712 30.375 23.9551 30.375C23.939 30.375 23.9258 30.4014 23.9258 30.4336C23.9258 30.4658 23.9126 30.4922 23.8965 30.4922C23.8804 30.4922 23.8672 30.5186 23.8672 30.5508C23.8672 30.583 23.854 30.6094 23.8379 30.6094C23.8218 30.6094 23.8086 30.6357 23.8086 30.668C23.8086 30.7002 23.7954 30.7266 23.7793 30.7266C23.7632 30.7266 23.75 30.7529 23.75 30.7852C23.75 30.8174 23.7368 30.8438 23.7207 30.8438C23.7046 30.8438 23.6914 30.8701 23.6914 30.9023C23.6914 30.9346 23.6782 30.9609 23.6621 30.9609C23.646 30.9609 23.6328 30.9873 23.6328 31.0195C23.6328 31.0518 23.6196 31.0781 23.6035 31.0781C23.5874 31.0781 23.5742 31.1045 23.5742 31.1367C23.5742 31.1758 23.5547 31.1953 23.5156 31.1953C23.4766 31.1953 23.457 31.1758 23.457 31.1367C23.457 31.1045 23.4438 31.0781 23.4277 31.0781C23.4116 31.0781 23.3984 31.0518 23.3984 31.0195C23.3984 30.9873 23.3853 30.9609 23.3691 30.9609C23.353 30.9609 23.3398 30.9346 23.3398 30.9023C23.3398 30.8701 23.3267 30.8438 23.3105 30.8438C23.2944 30.8438 23.2812 30.8174 23.2812 30.7852C23.2812 30.7529 23.2681 30.7266 23.252 30.7266C23.2358 30.7266 23.2227 30.7002 23.2227 30.668C23.2227 30.6357 23.2095 30.6094 23.1934 30.6094C23.1772 30.6094 23.1641 30.583 23.1641 30.5508C23.1641 30.5186 23.1509 30.4922 23.1348 30.4922C23.1187 30.4922 23.1055 30.4658 23.1055 30.4336C23.1055 30.4014 23.0923 30.375 23.0762 30.375C23.0601 30.375 23.0469 30.3515 23.0469 30.3229C23.0469 30.2942 23.0205 30.2517 22.9883 30.2285C22.9561 30.2053 22.9297 30.1628 22.9297 30.1341C22.9297 30.1055 22.9165 30.082 22.9004 30.082C22.8843 30.082 22.8711 30.0586 22.8711 30.0299C22.8711 30.0012 22.8447 29.9588 22.8125 29.9355C22.7803 29.9123 22.7539 29.8763 22.7539 29.8554C22.7539 29.806 22.2682 29.3203 22.2188 29.3203C22.198 29.3203 22.1619 29.2939 22.1387 29.2617C22.1154 29.2295 22.0759 29.2031 22.0508 29.2031C22.0257 29.2031 21.9861 29.1768 21.9629 29.1445C21.9397 29.1123 21.8972 29.0859 21.8685 29.0859C21.8399 29.0859 21.8164 29.0728 21.8164 29.0566C21.8164 29.0405 21.79 29.0273 21.7578 29.0273C21.7256 29.0273 21.6992 29.0142 21.6992 28.998C21.6992 28.9819 21.6597 28.9688 21.6113 28.9688C21.563 28.9688 21.5234 28.9556 21.5234 28.9395C21.5234 28.9233 21.4839 28.9102 21.4355 28.9102C21.3872 28.9102 21.3477 28.897 21.3477 28.8809C21.3477 28.8647 21.2949 28.8516 21.2305 28.8516C21.166 28.8516 21.1133 28.8384 21.1133 28.8223C21.1133 28.804 20.9375 28.793 20.6445 28.793C20.3516 28.793 20.1758 28.804 20.1758 28.8223C20.1758 28.8384 20.1099 28.8516 20.0293 28.8516C19.9487 28.8516 19.8828 28.8647 19.8828 28.8809C19.8828 28.897 19.8433 28.9102 19.7949 28.9102C19.7466 28.9102 19.707 28.9233 19.707 28.9395C19.707 28.9556 19.6675 28.9688 19.6191 28.9688C19.5708 28.9688 19.5312 28.9819 19.5312 28.998C19.5312 29.0142 19.4917 29.0273 19.4434 29.0273C19.395 29.0273 19.3555 29.0405 19.3555 29.0566C19.3555 29.0728 19.3159 29.0859 19.2676 29.0859C19.2192 29.0859 19.1797 29.0991 19.1797 29.1152C19.1797 29.1313 19.1401 29.1445 19.0918 29.1445C19.0435 29.1445 19.0039 29.1577 19.0039 29.1738C19.0039 29.1899 18.9644 29.2031 18.916 29.2031C18.8677 29.2031 18.8281 29.2163 18.8281 29.2324C18.8281 29.2485 18.8018 29.2617 18.7695 29.2617C18.7305 29.2617 18.7109 29.2422 18.7109 29.2031C18.7109 29.1709 18.7241 29.1445 18.7402 29.1445C18.7563 29.1445 18.7695 29.105 18.7695 29.0566C18.7695 29.0083 18.7827 28.9688 18.7988 28.9688C18.8149 28.9688 18.8281 28.9292 18.8281 28.8809C18.8281 28.8325 18.8413 28.793 18.8574 28.793C18.8735 28.793 18.8867 28.7534 18.8867 28.7051C18.8867 28.6567 18.8999 28.6172 18.916 28.6172C18.9321 28.6172 18.9453 28.5645 18.9453 28.5C18.9453 28.4355 18.9585 28.3828 18.9746 28.3828C18.9907 28.3828 19.0039 28.3301 19.0039 28.2656C19.0039 28.2012 19.0171 28.1484 19.0332 28.1484C19.0513 28.1484 19.0625 27.9922 19.0625 27.7383C19.0625 27.4844 19.0513 27.3281 19.0332 27.3281C19.0171 27.3281 19.0039 27.2622 19.0039 27.1816C19.0039 27.1011 18.9907 27.0352 18.9746 27.0352C18.9585 27.0352 18.9453 26.9956 18.9453 26.9473C18.9453 26.8989 18.9321 26.8594 18.916 26.8594C18.8999 26.8594 18.8867 26.833 18.8867 26.8008C18.8867 26.7686 18.8735 26.7422 18.8574 26.7422C18.8413 26.7422 18.8281 26.7026 18.8281 26.6543C18.8281 26.606 18.8149 26.5664 18.7988 26.5664C18.7827 26.5664 18.7695 26.5429 18.7695 26.5143C18.7695 26.4856 18.7432 26.4432 18.7109 26.4199C18.6787 26.3967 18.6523 26.3571 18.6523 26.332C18.6523 26.3069 18.626 26.2674 18.5938 26.2441C18.5615 26.2209 18.5352 26.1848 18.5352 26.164C18.5352 26.1146 18.0495 25.6289 18 25.6289C17.9792 25.6289 17.9432 25.6025 17.9199 25.5703C17.8967 25.5381 17.8571 25.5117 17.832 25.5117C17.8069 25.5117 17.7674 25.4854 17.7441 25.4531C17.7209 25.4209 17.6785 25.3945 17.6498 25.3945C17.6211 25.3945 17.5977 25.3813 17.5977 25.3652C17.5977 25.3491 17.5713 25.3359 17.5391 25.3359C17.5068 25.3359 17.4805 25.3228 17.4805 25.3066C17.4805 25.2905 17.4409 25.2773 17.3926 25.2773C17.3442 25.2773 17.3047 25.2642 17.3047 25.248C17.3047 25.2319 17.2783 25.2188 17.2461 25.2188C17.2139 25.2188 17.1875 25.2056 17.1875 25.1895C17.1875 25.1733 17.1479 25.1602 17.0996 25.1602C17.0513 25.1602 17.0117 25.147 17.0117 25.1309C17.0117 25.1147 16.9854 25.1016 16.9531 25.1016C16.9209 25.1016 16.8945 25.0884 16.8945 25.0723C16.8945 25.0562 16.855 25.043 16.8066 25.043C16.7583 25.043 16.7188 25.0298 16.7188 25.0137C16.7188 24.9976 16.6792 24.9844 16.6309 24.9844C16.5825 24.9844 16.543 24.9712 16.543 24.9551C16.543 24.939 16.5166 24.9258 16.4844 24.9258C16.4521 24.9258 16.4258 24.9126 16.4258 24.8965C16.4258 24.8804 16.3862 24.8672 16.3379 24.8672C16.2896 24.8672 16.25 24.854 16.25 24.8379C16.25 24.8218 16.2236 24.8086 16.1914 24.8086C16.1592 24.8086 16.1328 24.7954 16.1328 24.7793C16.1328 24.7632 16.0933 24.75 16.0449 24.75C15.9966 24.75 15.957 24.7368 15.957 24.7207C15.957 24.7046 15.9307 24.6914 15.8984 24.6914C15.8662 24.6914 15.8398 24.6782 15.8398 24.6621C15.8398 24.646 15.8003 24.6328 15.752 24.6328C15.7036 24.6328 15.6641 24.6196 15.6641 24.6035C15.6641 24.5874 15.6377 24.5742 15.6055 24.5742C15.5732 24.5742 15.5469 24.561 15.5469 24.5449C15.5469 24.5288 15.5073 24.5156 15.459 24.5156C15.3906 24.5156 15.3711 24.5026 15.3711 24.457C15.3711 24.4114 15.3906 24.3984 15.459 24.3984C15.5073 24.3984 15.5469 24.3853 15.5469 24.3691C15.5469 24.353 15.5732 24.3398 15.6055 24.3398C15.6377 24.3398 15.6641 24.3267 15.6641 24.3105C15.6641 24.2944 15.7036 24.2812 15.752 24.2812C15.8003 24.2812 15.8398 24.2681 15.8398 24.252C15.8398 24.2358 15.8662 24.2227 15.8984 24.2227C15.9307 24.2227 15.957 24.2095 15.957 24.1934C15.957 24.1772 15.9966 24.1641 16.0449 24.1641C16.0933 24.1641 16.1328 24.1509 16.1328 24.1348C16.1328 24.1187 16.1592 24.1055 16.1914 24.1055C16.2236 24.1055 16.25 24.0923 16.25 24.0762C16.25 24.0601 16.2896 24.0469 16.3379 24.0469C16.3862 24.0469 16.4258 24.0337 16.4258 24.0176C16.4258 24.0015 16.4521 23.9883 16.4844 23.9883C16.5166 23.9883 16.543 23.9751 16.543 23.959C16.543 23.9429 16.5825 23.9297 16.6309 23.9297C16.6792 23.9297 16.7188 23.9165 16.7188 23.9004C16.7188 23.8843 16.7583 23.8711 16.8066 23.8711C16.855 23.8711 16.8945 23.8579 16.8945 23.8418C16.8945 23.8257 16.9209 23.8125 16.9531 23.8125C16.9854 23.8125 17.0117 23.7993 17.0117 23.7832C17.0117 23.7671 17.0513 23.7539 17.0996 23.7539C17.1479 23.7539 17.1875 23.7407 17.1875 23.7246C17.1875 23.7085 17.2139 23.6953 17.2461 23.6953C17.2783 23.6953 17.3047 23.6821 17.3047 23.666C17.3047 23.6499 17.3442 23.6367 17.3926 23.6367C17.4409 23.6367 17.4805 23.6235 17.4805 23.6074C17.4805 23.5913 17.5068 23.5781 17.5391 23.5781C17.5713 23.5781 17.5977 23.5649 17.5977 23.5488C17.5977 23.5327 17.6211 23.5195 17.6498 23.5195C17.6785 23.5195 17.7209 23.4932 17.7441 23.4609C17.7674 23.4287 17.8069 23.4023 17.832 23.4023C17.8571 23.4023 17.8967 23.376 17.9199 23.3438C17.9432 23.3115 17.9792 23.2852 18 23.2852C18.0495 23.2852 18.5352 22.7995 18.5352 22.75C18.5352 22.7292 18.5615 22.6932 18.5938 22.6699C18.626 22.6467 18.6523 22.6071 18.6523 22.582C18.6523 22.5569 18.6787 22.5174 18.7109 22.4941C18.7432 22.4709 18.7695 22.4285 18.7695 22.3998C18.7695 22.3711 18.7827 22.3477 18.7988 22.3477C18.8149 22.3477 18.8281 22.3081 18.8281 22.2598C18.8281 22.2114 18.8413 22.1719 18.8574 22.1719C18.8735 22.1719 18.8867 22.1455 18.8867 22.1133C18.8867 22.0811 18.8999 22.0547 18.916 22.0547C18.9321 22.0547 18.9453 22.0151 18.9453 21.9668C18.9453 21.9185 18.9585 21.8789 18.9746 21.8789C18.9907 21.8789 19.0039 21.813 19.0039 21.7324C19.0039 21.6519 19.0171 21.5859 19.0332 21.5859C19.0513 21.5859 19.0625 21.4297 19.0625 21.1758C19.0625 20.9219 19.0513 20.7656 19.0332 20.7656C19.0171 20.7656 19.0039 20.7129 19.0039 20.6484C19.0039 20.584 18.9907 20.5312 18.9746 20.5312C18.9585 20.5312 18.9453 20.4785 18.9453 20.4141C18.9453 20.3496 18.9321 20.2969 18.916 20.2969C18.8999 20.2969 18.8867 20.2573 18.8867 20.209C18.8867 20.1606 18.8735 20.1211 18.8574 20.1211C18.8413 20.1211 18.8281 20.0815 18.8281 20.0332C18.8281 19.9849 18.8149 19.9453 18.7988 19.9453C18.7827 19.9453 18.7695 19.9058 18.7695 19.8574C18.7695 19.8091 18.7563 19.7695 18.7402 19.7695C18.7241 19.7695 18.7109 19.7432 18.7109 19.7109C18.7109 19.6719 18.7305 19.6523 18.7695 19.6523C18.8018 19.6523 18.8281 19.6655 18.8281 19.6816C18.8281 19.6978 18.8677 19.7109 18.916 19.7109C18.9644 19.7109 19.0039 19.7241 19.0039 19.7402C19.0039 19.7563 19.0435 19.7695 19.0918 19.7695C19.1401 19.7695 19.1797 19.7827 19.1797 19.7988C19.1797 19.8149 19.2192 19.8281 19.2676 19.8281C19.3159 19.8281 19.3555 19.8413 19.3555 19.8574C19.3555 19.8735 19.395 19.8867 19.4434 19.8867C19.4917 19.8867 19.5312 19.8999 19.5312 19.916C19.5312 19.9321 19.5708 19.9453 19.6191 19.9453C19.6675 19.9453 19.707 19.9585 19.707 19.9746C19.707 19.9907 19.7466 20.0039 19.7949 20.0039C19.8433 20.0039 19.8828 20.0171 19.8828 20.0332C19.8828 20.0493 19.9487 20.0625 20.0293 20.0625C20.1099 20.0625 20.1758 20.0757 20.1758 20.0918C20.1758 20.1101 20.3516 20.1211 20.6445 20.1211C20.9375 20.1211 21.1133 20.1101 21.1133 20.0918C21.1133 20.0757 21.166 20.0625 21.2305 20.0625C21.2949 20.0625 21.3477 20.0493 21.3477 20.0332C21.3477 20.0171 21.3872 20.0039 21.4355 20.0039C21.4839 20.0039 21.5234 19.9907 21.5234 19.9746C21.5234 19.9585 21.563 19.9453 21.6113 19.9453C21.6597 19.9453 21.6992 19.9321 21.6992 19.916C21.6992 19.8999 21.7256 19.8867 21.7578 19.8867C21.79 19.8867 21.8164 19.8735 21.8164 19.8574C21.8164 19.8413 21.8399 19.8281 21.8685 19.8281C21.8972 19.8281 21.9397 19.8018 21.9629 19.7695C21.9861 19.7373 22.0257 19.7109 22.0508 19.7109C22.0759 19.7109 22.1154 19.6846 22.1387 19.6523C22.1619 19.6201 22.198 19.5938 22.2188 19.5938C22.2682 19.5938 22.7539 19.1081 22.7539 19.0586C22.7539 19.0378 22.7803 19.0017 22.8125 18.9785C22.8447 18.9553 22.8711 18.9128 22.8711 18.8842C22.8711 18.8555 22.8843 18.832 22.9004 18.832C22.9165 18.832 22.9297 18.8086 22.9297 18.7799C22.9297 18.7512 22.9561 18.7088 22.9883 18.6855C23.0205 18.6623 23.0469 18.6199 23.0469 18.5912C23.0469 18.5625 23.0601 18.5391 23.0762 18.5391C23.0923 18.5391 23.1055 18.5127 23.1055 18.4805C23.1055 18.4482 23.1187 18.4219 23.1348 18.4219C23.1509 18.4219 23.1641 18.3955 23.1641 18.3633C23.1641 18.3311 23.1772 18.3047 23.1934 18.3047C23.2095 18.3047 23.2227 18.2783 23.2227 18.2461C23.2227 18.2139 23.2358 18.1875 23.252 18.1875C23.2681 18.1875 23.2812 18.1611 23.2812 18.1289C23.2812 18.0967 23.2944 18.0703 23.3105 18.0703C23.3267 18.0703 23.3398 18.0439 23.3398 18.0117C23.3398 17.9795 23.353 17.9531 23.3691 17.9531C23.3853 17.9531 23.3984 17.9268 23.3984 17.8945C23.3984 17.8623 23.4116 17.8359 23.4277 17.8359C23.4438 17.8359 23.457 17.8096 23.457 17.7773C23.457 17.7383 23.4766 17.7188 23.5156 17.7188C23.5547 17.7188 23.5742 17.7383 23.5742 17.7773ZM10.2734 20.9414V21.8203H9.39453H8.51562V20.9414V20.0625H9.39453H10.2734V20.9414ZM23.2812 20.9707C23.2812 20.9868 23.2549 21 23.2227 21C23.1904 21 23.1641 21.0132 23.1641 21.0293C23.1641 21.0454 23.1377 21.0586 23.1055 21.0586C23.0732 21.0586 23.0469 21.0718 23.0469 21.0879C23.0469 21.104 23.0265 21.1172 23.0016 21.1172C22.9767 21.1172 22.924 21.1496 22.8844 21.1891C22.8449 21.2287 22.8125 21.2814 22.8125 21.3063C22.8125 21.3312 22.7993 21.3516 22.7832 21.3516C22.7671 21.3516 22.7539 21.3779 22.7539 21.4102C22.7539 21.4424 22.7407 21.4688 22.7246 21.4688C22.7085 21.4688 22.6953 21.4951 22.6953 21.5273C22.6953 21.5596 22.6821 21.5859 22.666 21.5859C22.6469 21.5859 22.6367 22.123 22.6367 23.1387C22.6367 24.1543 22.6469 24.6914 22.666 24.6914C22.6821 24.6914 22.6953 24.7178 22.6953 24.75C22.6953 24.7822 22.7085 24.8086 22.7246 24.8086C22.7407 24.8086 22.7539 24.835 22.7539 24.8672C22.7539 24.8994 22.7671 24.9258 22.7832 24.9258C22.7993 24.9258 22.8125 24.9461 22.8125 24.971C22.8125 25.0297 22.943 25.1602 23.0016 25.1602C23.0265 25.1602 23.0469 25.1733 23.0469 25.1895C23.0469 25.2056 23.0732 25.2188 23.1055 25.2188C23.1377 25.2188 23.1641 25.2319 23.1641 25.248C23.1641 25.2642 23.1904 25.2773 23.2227 25.2773C23.2549 25.2773 23.2812 25.2905 23.2812 25.3066C23.2812 25.3237 23.3789 25.3359 23.5156 25.3359C23.6524 25.3359 23.75 25.3237 23.75 25.3066C23.75 25.2905 23.7764 25.2773 23.8086 25.2773C23.8408 25.2773 23.8672 25.2642 23.8672 25.248C23.8672 25.2319 23.8936 25.2188 23.9258 25.2188C23.958 25.2188 23.9844 25.2056 23.9844 25.1895C23.9844 25.1733 24.0047 25.1602 24.0296 25.1602C24.0883 25.1602 24.2188 25.0297 24.2188 24.971C24.2188 24.9461 24.2319 24.9258 24.248 24.9258C24.2642 24.9258 24.2773 24.8994 24.2773 24.8672C24.2773 24.835 24.2905 24.8086 24.3066 24.8086C24.3228 24.8086 24.3359 24.7822 24.3359 24.75C24.3359 24.7178 24.3491 24.6914 24.3652 24.6914C24.3844 24.6914 24.3945 24.1543 24.3945 23.1387C24.3945 22.123 24.3844 21.5859 24.3652 21.5859C24.3491 21.5859 24.3359 21.5596 24.3359 21.5273C24.3359 21.4951 24.3228 21.4688 24.3066 21.4688C24.2905 21.4688 24.2773 21.4424 24.2773 21.4102C24.2773 21.3779 24.2642 21.3516 24.248 21.3516C24.2319 21.3516 24.2188 21.3312 24.2188 21.3063C24.2188 21.2477 24.0883 21.1172 24.0296 21.1172C24.0047 21.1172 23.9844 21.104 23.9844 21.0879C23.9844 21.0718 23.958 21.0586 23.9258 21.0586C23.8936 21.0586 23.8672 21.0454 23.8672 21.0293C23.8672 21.0132 23.8408 21 23.8086 21C23.7764 21 23.75 20.9868 23.75 20.9707C23.75 20.9536 23.6524 20.9414 23.5156 20.9414C23.3789 20.9414 23.2812 20.9536 23.2812 20.9707ZM23.2812 26.2441C23.2812 26.2603 23.2549 26.2734 23.2227 26.2734C23.1904 26.2734 23.1641 26.2866 23.1641 26.3027C23.1641 26.3188 23.1377 26.332 23.1055 26.332C23.0732 26.332 23.0469 26.3452 23.0469 26.3613C23.0469 26.3774 23.0265 26.3906 23.0016 26.3906C22.9767 26.3906 22.924 26.423 22.8844 26.4625C22.8449 26.5021 22.8125 26.5548 22.8125 26.5797C22.8125 26.6046 22.7993 26.625 22.7832 26.625C22.7671 26.625 22.7539 26.6514 22.7539 26.6836C22.7539 26.7158 22.7407 26.7422 22.7246 26.7422C22.7085 26.7422 22.6953 26.7686 22.6953 26.8008C22.6953 26.833 22.6821 26.8594 22.666 26.8594C22.6489 26.8594 22.6367 26.957 22.6367 27.0938C22.6367 27.2305 22.6489 27.3281 22.666 27.3281C22.6821 27.3281 22.6953 27.3545 22.6953 27.3867C22.6953 27.4189 22.7085 27.4453 22.7246 27.4453C22.7407 27.4453 22.7539 27.4717 22.7539 27.5039C22.7539 27.5361 22.7671 27.5625 22.7832 27.5625C22.7993 27.5625 22.8125 27.5829 22.8125 27.6078C22.8125 27.6327 22.8449 27.6854 22.8844 27.725C22.924 27.7645 22.9767 27.7969 23.0016 27.7969C23.0265 27.7969 23.0469 27.8101 23.0469 27.8262C23.0469 27.8423 23.0732 27.8555 23.1055 27.8555C23.1377 27.8555 23.1641 27.8687 23.1641 27.8848C23.1641 27.9009 23.1904 27.9141 23.2227 27.9141C23.2549 27.9141 23.2812 27.9272 23.2812 27.9434C23.2812 27.9604 23.3789 27.9727 23.5156 27.9727C23.6524 27.9727 23.75 27.9604 23.75 27.9434C23.75 27.9272 23.7764 27.9141 23.8086 27.9141C23.8408 27.9141 23.8672 27.9009 23.8672 27.8848C23.8672 27.8687 23.8936 27.8555 23.9258 27.8555C23.958 27.8555 23.9844 27.8423 23.9844 27.8262C23.9844 27.8101 24.0047 27.7969 24.0296 27.7969C24.0545 27.7969 24.1073 27.7645 24.1468 27.725C24.1864 27.6854 24.2188 27.6327 24.2188 27.6078C24.2188 27.5829 24.2319 27.5625 24.248 27.5625C24.2642 27.5625 24.2773 27.5361 24.2773 27.5039C24.2773 27.4717 24.2905 27.4453 24.3066 27.4453C24.3228 27.4453 24.3359 27.4189 24.3359 27.3867C24.3359 27.3545 24.3491 27.3281 24.3652 27.3281C24.3823 27.3281 24.3945 27.2305 24.3945 27.0938C24.3945 26.957 24.3823 26.8594 24.3652 26.8594C24.3491 26.8594 24.3359 26.833 24.3359 26.8008C24.3359 26.7686 24.3228 26.7422 24.3066 26.7422C24.2905 26.7422 24.2773 26.7158 24.2773 26.6836C24.2773 26.6514 24.2642 26.625 24.248 26.625C24.2319 26.625 24.2188 26.6046 24.2188 26.5797C24.2188 26.5211 24.0883 26.3906 24.0296 26.3906C24.0047 26.3906 23.9844 26.3774 23.9844 26.3613C23.9844 26.3452 23.958 26.332 23.9258 26.332C23.8936 26.332 23.8672 26.3188 23.8672 26.3027C23.8672 26.2866 23.8408 26.2734 23.8086 26.2734C23.7764 26.2734 23.75 26.2603 23.75 26.2441C23.75 26.2271 23.6524 26.2148 23.5156 26.2148C23.3789 26.2148 23.2812 26.2271 23.2812 26.2441Z" fill="#DD2A1B"/>
</svg>
