<svg width="40" height="40" viewBox="0 0 40 40" fill="none" xmlns="http://www.w3.org/2000/svg">
<path d="M6.2607 21.6706C6.27711 21.6627 7.92582 20.8789 9.45312 20.8789C10.587 20.8789 11.9275 21.9628 12.3473 22.3793L12.9676 22.9972L13.589 22.3805C14.01 21.9628 15.3505 20.8789 16.4844 20.8789C17.4424 20.8789 18.5481 21.6528 19.1211 22.144V32.3633C19.1211 33.8172 20.3039 35 21.7578 35C23.2117 35 24.3945 33.8172 24.3945 32.3633V30.6055H22.6367V32.3633C22.6367 32.8479 22.2424 33.2422 21.7578 33.2422C21.2732 33.2422 20.8789 32.8479 20.8789 32.3633V22.1441C21.4528 21.6521 22.558 20.8789 23.5156 20.8789C24.6495 20.8789 25.99 21.9628 26.4098 22.3793L27.0301 22.9972L27.6515 22.3805C28.0725 21.9628 29.413 20.8789 30.5469 20.8789C32.0708 20.8789 33.7154 21.6591 33.7392 21.6705L35 22.2806V20.8789C35 12.9535 28.7687 7.1818 20.8789 6.78096V5H19.1211V6.78096C11.2286 7.18197 5 12.9561 5 20.8789L5.00111 22.2758L6.2607 21.6706ZM13.9164 19.9303C14.1867 16.3019 15.7956 9.89299 19.1211 8.6784V19.9718C18.3883 19.5243 17.458 19.1211 16.4844 19.1211C15.5409 19.1211 14.6381 19.4997 13.9164 19.9303ZM20.8789 19.9718V8.6784C24.2189 9.89832 25.8139 16.3108 26.0836 19.9303C25.3619 19.4997 24.4591 19.1211 23.5156 19.1211C22.542 19.1211 21.6117 19.5243 20.8789 19.9718ZM33.1761 19.5752C32.445 19.3436 31.4957 19.1211 30.5469 19.1211C29.5467 19.1211 28.5925 19.5466 27.851 20.0083C27.6086 16.3929 26.5168 11.9298 24.2196 9.10895C29.1547 10.5574 32.659 14.5299 33.1761 19.5752ZM15.7804 9.10895C13.4833 11.9298 12.3914 16.3929 12.149 20.0083C11.4075 19.5466 10.4533 19.1211 9.45312 19.1211C8.50426 19.1211 7.55504 19.3436 6.82391 19.5752C7.341 14.5299 10.8453 10.5574 15.7804 9.10895Z" fill="#DD2A1B"/>
</svg>
