<svg width="40" height="40" viewBox="0 0 40 40" fill="none" xmlns="http://www.w3.org/2000/svg">
<path fill-rule="evenodd" clip-rule="evenodd" d="M20.2769 19.0341L6.24281 5L5 6.24281L19.0341 20.2769L20.2769 19.0341ZM27.0763 9.28906L23.3473 13.0181L27.0763 16.7471L30.8053 13.0181L27.0763 9.28906ZM25.8333 13.0181L27.0763 11.7751L28.3193 13.0181L27.0763 14.2611L25.8333 13.0181ZM33.0493 21.1136L34.9987 27.081L33.0483 33.0515L27.0778 35.0018L21.1104 33.0525L19.1199 27.0809L21.1094 21.1125L27.0778 19.123L33.0493 21.1136ZM21.436 28.4707L22.498 31.6566L25.688 32.6986L24.6261 29.534L21.436 28.4707ZM21.1581 26.525L26.0137 28.1436L27.6336 32.9709L31.6544 31.6574L32.5815 28.8193L30.9897 29.6233L30.1973 28.0542L33.0043 26.6365L31.9604 23.4412L29.1997 26.202H26.1988V24.4441H28.4716L30.7243 22.1914L27.0778 20.9759L22.4991 22.5022L21.1581 26.525ZM18.5006 27.0825L14.7716 30.8115L11.0426 27.0825L14.7716 23.3535L18.5006 27.0825ZM14.7716 28.3256L16.0146 27.0826L14.7716 25.8396L13.5286 27.0826L14.7716 28.3256ZM11.2155 5L20.2784 14.0629L19.0356 15.3057L9.97266 6.24281L11.2155 5ZM15.3057 19.0336L6.24281 9.9707L5 11.2135L14.0629 20.2764L15.3057 19.0336ZM21.8053 15.2891L23.0481 16.5318L21.8053 17.7746L20.5625 16.5318L21.8053 15.2891ZM19.5305 32.3502L18.2877 31.1074L17.045 32.3502L18.2877 33.593L19.5305 32.3502Z" fill="#DD2A1B"/>
</svg>
