<svg width="40" height="40" viewBox="0 0 40 40" fill="none" xmlns="http://www.w3.org/2000/svg">
<path fill-rule="evenodd" clip-rule="evenodd" d="M33.7028 7.43084L27.4267 4.08404C27.2144 3.97083 26.9667 3.97083 26.7545 4.09112L20.634 7.43791C20.4076 7.5582 20.259 7.79877 20.259 8.06057V12.8013C20.2661 13.8768 20.4571 14.9452 20.8321 15.957H12.7234C11.7823 15.957 10.9262 16.5231 10.5583 17.3934L8.81056 21.4619L8.10299 22.1341C7.41665 22.7285 7.02042 23.5988 7.02749 24.5115V31.6721C7.01334 32.9457 8.03224 33.9858 9.30586 34H9.32001H10.6644C11.9451 33.9929 12.9781 32.9528 12.9711 31.6721V30.8089H25.212V31.665C25.2261 32.9528 26.2663 33.9929 27.554 33.9929H28.8984C30.1791 33.9858 31.2192 32.9528 31.2263 31.665V24.3205C31.2263 23.4643 30.8725 22.6506 30.2569 22.0633L29.7616 21.5397L29.4362 20.8251C32.3018 19.1269 34.0566 16.0419 34.0495 12.7093V8.06057C34.0707 7.7917 33.9292 7.55112 33.7028 7.43084ZM11.8602 17.9524C12.0088 17.5986 12.3484 17.3722 12.7234 17.3651H21.4831C21.6883 17.733 21.9147 18.0868 22.1624 18.4264C20.9736 18.8864 20.1033 19.9265 19.8628 21.186H10.4804L11.8602 17.9524ZM23.2166 19.6293C23.8676 20.2449 24.5964 20.7685 25.3889 21.186H21.3204C21.5892 20.3369 22.3322 19.7284 23.2166 19.6293ZM11.563 31.665C11.5701 32.1603 11.1738 32.5707 10.6715 32.5778H9.32708C8.82471 32.5778 8.4497 32.1674 8.4497 31.665V30.6532C8.72565 30.7664 9.02991 30.8159 9.32708 30.8089H11.563V31.665ZM29.8182 31.665C29.8182 32.1674 29.4079 32.5778 28.9055 32.5778H27.5611C27.0587 32.5778 26.6413 32.1745 26.6342 31.665V30.8089H28.9055C29.2168 30.8159 29.5281 30.7664 29.8182 30.6532V31.665ZM29.8182 24.3134V28.5164C29.8182 29.0187 29.4079 29.3937 28.9055 29.3937H9.32708C8.85301 29.4079 8.46385 29.0329 8.4497 28.5588V28.5164V24.5044C8.44262 24.0021 8.66197 23.528 9.03698 23.1954L9.05113 23.1813L9.68087 22.6011H28.8135L29.2451 23.0469C29.248 23.0498 29.2522 23.0527 29.2571 23.0562C29.2612 23.0591 29.2658 23.0623 29.2706 23.0663C29.2739 23.0689 29.2772 23.0718 29.2805 23.0752C29.6201 23.4006 29.8182 23.8464 29.8182 24.3134ZM32.6485 12.7022C32.6556 15.9287 30.7239 18.8439 27.7451 20.0963L27.0729 20.3864L26.4997 20.1388C23.5775 18.8651 21.6812 15.9783 21.6741 12.7871V8.47096L27.0729 5.50625L32.6485 8.47804V12.7022ZM10.0772 24.2286H13.8981C14.2872 24.2286 14.6056 24.547 14.6056 24.9361V27.5541C14.6056 27.9433 14.2872 28.2617 13.8981 28.2617H10.0772C9.68805 28.2617 9.36964 27.9433 9.36964 27.5541V24.9361C9.36964 24.547 9.68805 24.2286 10.0772 24.2286ZM10.7848 26.8466H13.1905V25.6437H10.7848V26.8466ZM24.2993 24.2286H28.1202C28.5093 24.2286 28.8277 24.547 28.8277 24.9361V27.5541C28.8277 27.9433 28.5093 28.2617 28.1202 28.2617H24.2993C23.9102 28.2617 23.5917 27.9433 23.5917 27.5541V24.9361C23.5917 24.547 23.9102 24.2286 24.2993 24.2286ZM25.0069 26.8466H27.4126V25.6437H25.0069V26.8466ZM21.5823 26.7758H16.6576C16.2684 26.7758 15.95 27.0942 15.95 27.4834C15.95 27.8725 16.2614 28.1909 16.6576 28.1909H21.5823C21.9714 28.1909 22.2898 27.8725 22.2898 27.4834C22.2898 27.0942 21.9714 26.7758 21.5823 26.7758ZM16.6576 24.7946H21.5823C21.9714 24.7946 22.2898 25.113 22.2898 25.5022C22.2898 25.8913 21.9714 26.2097 21.5823 26.2097H16.6576C16.2614 26.2097 15.95 25.8913 15.95 25.5022C15.95 25.113 16.2684 24.7946 16.6576 24.7946ZM29.6131 11.0465C29.9173 10.7988 30.3631 10.8413 30.6108 11.1455C30.8584 11.4498 30.8159 11.8956 30.5117 12.1432L26.6625 15.2707C26.6555 15.2777 26.6484 15.2777 26.6413 15.2848C26.6342 15.2883 26.6289 15.2937 26.6245 15.2981C26.6201 15.3025 26.6165 15.306 26.613 15.306C26.6059 15.306 26.5918 15.3131 26.5847 15.3202C26.5705 15.3202 26.5635 15.3273 26.5564 15.3343C26.552 15.3387 26.5476 15.3404 26.5416 15.3427C26.5379 15.3441 26.5335 15.3458 26.5281 15.3485C26.5139 15.3556 26.5069 15.3556 26.4998 15.3626C26.4962 15.3662 26.4909 15.368 26.4856 15.3697C26.4803 15.3715 26.475 15.3733 26.4715 15.3768C26.4632 15.3768 26.4573 15.3792 26.4525 15.3812C26.449 15.3827 26.4461 15.3839 26.4432 15.3839C26.4394 15.3858 26.4361 15.3877 26.4331 15.3894C26.4247 15.3942 26.4182 15.398 26.4078 15.398C26.4007 15.398 26.3937 15.4051 26.3866 15.4051C26.3795 15.4051 26.3724 15.4069 26.3654 15.4086C26.3583 15.4104 26.3512 15.4122 26.3441 15.4122C26.337 15.4192 26.33 15.4192 26.3229 15.4192C26.3087 15.4192 26.2875 15.4263 26.2734 15.4263H26.2592H26.1955H26.1743H26.1177C26.1106 15.4263 26.0965 15.4192 26.0894 15.4192C26.0752 15.4192 26.0611 15.4122 26.0469 15.4122C26.0438 15.4122 26.0394 15.4108 26.0348 15.4093C26.0288 15.4073 26.0226 15.4051 26.0186 15.4051C26.0116 15.4016 26.0045 15.3998 25.9974 15.398C25.9903 15.3963 25.9833 15.3945 25.9762 15.3909C25.9726 15.3874 25.9673 15.3856 25.962 15.3839C25.9567 15.3821 25.9514 15.3803 25.9479 15.3768C25.9337 15.3768 25.9196 15.3697 25.9054 15.3626C25.8984 15.3626 25.8842 15.3556 25.8771 15.3485C25.863 15.3414 25.8559 15.3343 25.8417 15.3273C25.8347 15.3202 25.8205 15.3131 25.8134 15.306L25.8134 15.306C25.7993 15.2989 25.7851 15.2919 25.7781 15.2848C25.771 15.2777 25.7568 15.2707 25.7498 15.2636C25.7476 15.2614 25.7455 15.2587 25.7431 15.2556C25.7378 15.2486 25.7313 15.2402 25.7215 15.2353C25.7073 15.2282 25.7002 15.2141 25.6932 15.207L25.6719 15.1858L24.0233 13.2541C23.7686 12.9569 23.804 12.5111 24.1011 12.2564C24.3983 12.0017 24.8441 12.0371 25.0988 12.3343L26.3017 13.7423L29.6131 11.0465Z" fill="#DD2A1B" stroke="#DD2A1B" stroke-width="0.3"/>
</svg>
