<svg width="40" height="40" viewBox="0 0 40 40" fill="none" xmlns="http://www.w3.org/2000/svg">
<path d="M32.3046 10H10.9766C9.97384 10 9.06042 10.5509 8.59279 11.4377C8.35126 11.8957 8.52681 12.4627 8.98478 12.7043C9.44269 12.9458 10.0098 12.7703 10.2513 12.3123C10.3935 12.0426 10.6715 11.875 10.9766 11.875H12.0312V14.8487C11.6083 14.9987 11.2319 15.2472 10.9291 15.5665C10.6756 15.3334 10.4054 15.1225 10.1497 14.941C9.75622 14.6616 8.39087 13.75 7.34375 13.75C6.84341 13.75 5.92273 13.9601 5.37805 15.3669C5.14133 15.9783 5 16.7757 5 17.5C5 18.2243 5.14133 19.0217 5.37805 19.633C5.92273 21.0399 6.84341 21.25 7.34375 21.25C8.39087 21.25 9.75622 20.3384 10.1498 20.059C10.4054 19.8775 10.6756 19.6666 10.9291 19.4335C11.232 19.7527 11.6084 20.0012 12.0313 20.1512V28.75H10.9766C10.5243 28.75 10.1563 28.382 10.1563 27.9297V23.125C10.1563 22.6072 9.73653 22.1875 9.2188 22.1875C8.70107 22.1875 8.2813 22.6072 8.2813 23.125V27.9297C8.2813 29.4158 9.49044 30.625 10.9766 30.625H32.3047C33.7909 30.625 35 29.4158 35 27.9297V12.6953C34.9999 11.2091 33.7908 10 32.3046 10ZM8.93374 18.6207C8.18427 19.1287 7.56453 19.3546 7.36642 19.3737C7.1624 19.2185 6.875 18.3944 6.875 17.5C6.875 16.6056 7.1624 15.7816 7.36642 15.6263C7.56482 15.6454 8.18445 15.8713 8.93374 16.3792C9.67642 16.8826 10.0385 17.313 10.1375 17.5C10.0385 17.687 9.67642 18.1173 8.93374 18.6207ZM32.3046 11.875C32.757 11.875 33.1249 12.243 33.1249 12.6953V16.5625H20.865C20.8008 16.1352 20.6961 15.72 20.5594 15.3669C20.0147 13.9601 19.0941 13.75 18.5937 13.75C17.5466 13.75 16.1812 14.6616 15.7877 14.941C15.532 15.1225 15.2619 15.3334 15.0083 15.5665C14.7055 15.2472 14.3291 14.9987 13.9062 14.8487V11.875H32.3046ZM19.0625 17.5C19.0625 18.3944 18.7751 19.2184 18.571 19.3737C18.3727 19.3546 17.753 19.1287 17.0037 18.6208C16.2611 18.1174 15.8989 17.6871 15.8 17.5C15.8989 17.313 16.2611 16.8827 17.0037 16.3793C17.7532 15.8713 18.3729 15.6454 18.571 15.6263C18.7751 15.7815 19.0625 16.6056 19.0625 17.5ZM12.9687 16.5625C13.4856 16.5625 13.9062 16.9831 13.9062 17.5C13.9062 18.0169 13.4856 18.4375 12.9687 18.4375C12.4518 18.4375 12.0312 18.0169 12.0312 17.5C12.0312 16.9831 12.4518 16.5625 12.9687 16.5625ZM32.3046 28.75H13.9062V20.1512C14.3292 20.0012 14.7056 19.7527 15.0084 19.4335C15.2619 19.6666 15.532 19.8775 15.7877 20.059C16.1812 20.3384 17.5466 21.25 18.5937 21.25C19.0941 21.25 20.0147 21.0399 20.5594 19.633C20.6961 19.2799 20.8008 18.8647 20.865 18.4375H33.1249V27.9297C33.1249 28.382 32.757 28.75 32.3046 28.75Z" fill="#DD2A1B"/>
</svg>
