<svg width="40" height="40" viewBox="0 0 40 40" fill="none" xmlns="http://www.w3.org/2000/svg">
<path fill-rule="evenodd" clip-rule="evenodd" d="M17.6562 6.05859C17.6562 6.09082 17.6431 6.11719 17.627 6.11719C17.6108 6.11719 17.5977 6.15674 17.5977 6.20508C17.5977 6.25342 17.5845 6.29297 17.5684 6.29297C17.5522 6.29297 17.5391 6.33252 17.5391 6.38086C17.5391 6.4292 17.5259 6.46875 17.5098 6.46875C17.4937 6.46875 17.4805 6.5083 17.4805 6.55664C17.4805 6.60498 17.4673 6.64453 17.4512 6.64453C17.4351 6.64453 17.4219 6.68408 17.4219 6.73242C17.4219 6.78076 17.4087 6.82031 17.3926 6.82031C17.3765 6.82031 17.3633 6.85986 17.3633 6.9082C17.3633 6.95654 17.3501 6.99609 17.334 6.99609C17.3179 6.99609 17.3047 7.03564 17.3047 7.08398C17.3047 7.13232 17.2915 7.17188 17.2754 7.17188C17.2593 7.17188 17.2461 7.21143 17.2461 7.25977C17.2461 7.30811 17.2329 7.34766 17.2168 7.34766C17.2007 7.34766 17.1875 7.38721 17.1875 7.43555C17.1875 7.48389 17.1743 7.52344 17.1582 7.52344C17.1421 7.52344 17.1289 7.56299 17.1289 7.61133C17.1289 7.65967 17.1157 7.69922 17.0996 7.69922C17.0835 7.69922 17.0703 7.73877 17.0703 7.78711C17.0703 7.83545 17.0571 7.875 17.041 7.875C17.0249 7.875 17.0117 7.91455 17.0117 7.96289C17.0117 8.01123 16.9985 8.05078 16.9824 8.05078C16.9663 8.05078 16.9531 8.09033 16.9531 8.13867C16.9531 8.18701 16.9399 8.22656 16.9238 8.22656C16.9077 8.22656 16.8945 8.26611 16.8945 8.31445C16.8945 8.36279 16.8813 8.40234 16.8652 8.40234C16.8491 8.40234 16.8359 8.44189 16.8359 8.49023C16.8359 8.53857 16.8228 8.57812 16.8066 8.57812C16.7905 8.57812 16.7773 8.61768 16.7773 8.66602C16.7773 8.71436 16.7642 8.75391 16.748 8.75391C16.7319 8.75391 16.7188 8.79346 16.7188 8.8418C16.7188 8.89014 16.7056 8.92969 16.6895 8.92969C16.6733 8.92969 16.6602 8.96924 16.6602 9.01758C16.6602 9.06592 16.647 9.10547 16.6309 9.10547C16.6147 9.10547 16.6016 9.14502 16.6016 9.19336C16.6016 9.2417 16.5884 9.28125 16.5723 9.28125C16.5562 9.28125 16.543 9.3208 16.543 9.36914C16.543 9.41748 16.5298 9.45703 16.5137 9.45703C16.4976 9.45703 16.4844 9.49658 16.4844 9.54492C16.4844 9.59326 16.4712 9.63281 16.4551 9.63281C16.439 9.63281 16.4258 9.67236 16.4258 9.7207C16.4258 9.76904 16.4126 9.80859 16.3965 9.80859C16.3804 9.80859 16.3672 9.84814 16.3672 9.89648C16.3672 9.94482 16.354 9.98438 16.3379 9.98438C16.3218 9.98438 16.3086 10.0239 16.3086 10.0723C16.3086 10.1206 16.2954 10.1602 16.2793 10.1602C16.2632 10.1602 16.25 10.1997 16.25 10.248C16.25 10.2964 16.2368 10.3359 16.2207 10.3359C16.2046 10.3359 16.1914 10.3755 16.1914 10.4238C16.1914 10.4722 16.1782 10.5117 16.1621 10.5117C16.146 10.5117 16.1328 10.5513 16.1328 10.5996C16.1328 10.6479 16.1196 10.6875 16.1035 10.6875C16.0874 10.6875 16.0742 10.7271 16.0742 10.7754C16.0742 10.8237 16.061 10.8633 16.0449 10.8633C16.0288 10.8633 16.0156 10.9028 16.0156 10.9512C16.0156 10.9995 16.0024 11.0391 15.9863 11.0391C15.9702 11.0391 15.957 11.073 15.957 11.1144C15.957 11.2796 16.032 11.2734 14.0109 11.2734H12.1484V14.7891V18.3047H13.9941C15.8203 18.3047 15.8398 18.3053 15.8398 18.3633C15.8398 18.3955 15.853 18.4219 15.8691 18.4219C15.8853 18.4219 15.8984 18.4614 15.8984 18.5098C15.8984 18.5581 15.9116 18.5977 15.9277 18.5977C15.9438 18.5977 15.957 18.6211 15.957 18.6498C15.957 18.6785 15.9834 18.7209 16.0156 18.7441C16.0479 18.7674 16.0742 18.8069 16.0742 18.832C16.0742 18.8571 16.1006 18.8967 16.1328 18.9199C16.165 18.9432 16.1914 18.9792 16.1914 19C16.1914 19.0495 16.6771 19.5352 16.7265 19.5352C16.7473 19.5352 16.7834 19.5615 16.8066 19.5938C16.8299 19.626 16.8723 19.6523 16.901 19.6523C16.9297 19.6523 16.9531 19.6655 16.9531 19.6816C16.9531 19.6978 16.9766 19.7109 17.0052 19.7109C17.0339 19.7109 17.0764 19.7373 17.0996 19.7695C17.1244 19.8039 17.1755 19.8281 17.2233 19.8281C17.268 19.8281 17.3047 19.8413 17.3047 19.8574C17.3047 19.8735 17.3311 19.8867 17.3633 19.8867C17.3955 19.8867 17.4219 19.8999 17.4219 19.916C17.4219 19.9321 17.4746 19.9453 17.5391 19.9453C17.6035 19.9453 17.6562 19.9585 17.6562 19.9746C17.6562 19.9907 17.709 20.0039 17.7734 20.0039C17.8379 20.0039 17.8906 20.0171 17.8906 20.0332C17.8906 20.0513 18.0469 20.0625 18.3008 20.0625C18.5547 20.0625 18.7109 20.0513 18.7109 20.0332C18.7109 20.0171 18.7637 20.0039 18.8281 20.0039C18.8926 20.0039 18.9453 19.9907 18.9453 19.9746C18.9453 19.9585 18.998 19.9453 19.0625 19.9453C19.127 19.9453 19.1797 19.9321 19.1797 19.916C19.1797 19.8999 19.2061 19.8867 19.2383 19.8867C19.2705 19.8867 19.2969 19.8735 19.2969 19.8574C19.2969 19.8413 19.3364 19.8281 19.3848 19.8281C19.4331 19.8281 19.4727 19.8149 19.4727 19.7988C19.4727 19.7827 19.4961 19.7695 19.5248 19.7695C19.5535 19.7695 19.5959 19.7432 19.6191 19.7109C19.6424 19.6787 19.6819 19.6523 19.707 19.6523C19.7321 19.6523 19.7717 19.626 19.7949 19.5938C19.8182 19.5615 19.8542 19.5352 19.875 19.5352C19.9245 19.5352 20.4102 19.0495 20.4102 19C20.4102 18.9792 20.4365 18.9432 20.4688 18.9199C20.501 18.8967 20.5273 18.8542 20.5273 18.8256C20.5273 18.7969 20.5405 18.7734 20.5566 18.7734C20.5728 18.7734 20.5859 18.7471 20.5859 18.7148C20.5859 18.6826 20.5991 18.6562 20.6152 18.6562C20.6313 18.6562 20.6445 18.6299 20.6445 18.5977C20.6445 18.5654 20.6577 18.5391 20.6738 18.5391C20.6899 18.5391 20.7031 18.5127 20.7031 18.4805C20.7031 18.4482 20.7163 18.4219 20.7324 18.4219C20.7485 18.4219 20.7617 18.3955 20.7617 18.3633C20.7617 18.3051 20.7813 18.3047 23.5742 18.3047C26.3672 18.3047 26.3867 18.3051 26.3867 18.3633C26.3867 18.3955 26.3999 18.4219 26.416 18.4219C26.4321 18.4219 26.4453 18.4614 26.4453 18.5098C26.4453 18.5581 26.4585 18.5977 26.4746 18.5977C26.4907 18.5977 26.5039 18.6211 26.5039 18.6498C26.5039 18.6785 26.5303 18.7209 26.5625 18.7441C26.5947 18.7674 26.6211 18.8069 26.6211 18.832C26.6211 18.8571 26.6475 18.8967 26.6797 18.9199C26.7119 18.9432 26.7383 18.9792 26.7383 19C26.7383 19.0495 27.224 19.5352 27.2734 19.5352C27.2942 19.5352 27.3303 19.5615 27.3535 19.5938C27.3767 19.626 27.4192 19.6523 27.4479 19.6523C27.4765 19.6523 27.5 19.6655 27.5 19.6816C27.5 19.6978 27.5235 19.7109 27.5521 19.7109C27.5808 19.7109 27.6233 19.7373 27.6465 19.7695C27.6713 19.8039 27.7223 19.8281 27.7701 19.8281C27.8149 19.8281 27.8516 19.8413 27.8516 19.8574C27.8516 19.8735 27.8779 19.8867 27.9102 19.8867C27.9424 19.8867 27.9688 19.8999 27.9688 19.916C27.9688 19.9321 28.0215 19.9453 28.0859 19.9453C28.1504 19.9453 28.2031 19.9585 28.2031 19.9746C28.2031 19.9907 28.2559 20.0039 28.3203 20.0039C28.3848 20.0039 28.4375 20.0171 28.4375 20.0332C28.4375 20.0513 28.5937 20.0625 28.8477 20.0625C29.1016 20.0625 29.2578 20.0513 29.2578 20.0332C29.2578 20.0171 29.3105 20.0039 29.375 20.0039C29.4395 20.0039 29.4922 19.9907 29.4922 19.9746C29.4922 19.9585 29.5449 19.9453 29.6094 19.9453C29.6738 19.9453 29.7266 19.9321 29.7266 19.916C29.7266 19.8999 29.7529 19.8867 29.7852 19.8867C29.8174 19.8867 29.8438 19.8735 29.8438 19.8574C29.8438 19.8413 29.8833 19.8281 29.9316 19.8281C29.98 19.8281 30.0195 19.8149 30.0195 19.7988C30.0195 19.7827 30.043 19.7695 30.0716 19.7695C30.1003 19.7695 30.1428 19.7432 30.166 19.7109C30.1892 19.6787 30.2288 19.6523 30.2539 19.6523C30.279 19.6523 30.3186 19.626 30.3418 19.5938C30.365 19.5615 30.4011 19.5352 30.4219 19.5352C30.4713 19.5352 30.957 19.0495 30.957 19C30.957 18.9792 30.9834 18.9432 31.0156 18.9199C31.0479 18.8967 31.0742 18.8542 31.0742 18.8256C31.0742 18.7969 31.0874 18.7734 31.1035 18.7734C31.1196 18.7734 31.1328 18.7471 31.1328 18.7148C31.1328 18.6826 31.146 18.6562 31.1621 18.6562C31.1782 18.6562 31.1914 18.6299 31.1914 18.5977C31.1914 18.5654 31.2046 18.5391 31.2207 18.5391C31.2368 18.5391 31.25 18.5127 31.25 18.4805C31.25 18.4482 31.2632 18.4219 31.2793 18.4219C31.2954 18.4219 31.3086 18.3955 31.3086 18.3633C31.3086 18.3053 31.3281 18.3047 33.1543 18.3047H35V14.7891V11.2734H33.1376C31.1164 11.2734 31.1914 11.2796 31.1914 11.1144C31.1914 11.073 31.1782 11.0391 31.1621 11.0391C31.146 11.0391 31.1328 10.9995 31.1328 10.9512C31.1328 10.9028 31.1196 10.8633 31.1035 10.8633C31.0874 10.8633 31.0742 10.8237 31.0742 10.7754C31.0742 10.7271 31.061 10.6875 31.0449 10.6875C31.0288 10.6875 31.0156 10.6479 31.0156 10.5996C31.0156 10.5513 31.0024 10.5117 30.9863 10.5117C30.9702 10.5117 30.957 10.4722 30.957 10.4238C30.957 10.3755 30.9438 10.3359 30.9277 10.3359C30.9116 10.3359 30.8984 10.2964 30.8984 10.248C30.8984 10.1997 30.8853 10.1602 30.8691 10.1602C30.853 10.1602 30.8398 10.1206 30.8398 10.0723C30.8398 10.0239 30.8267 9.98438 30.8105 9.98438C30.7944 9.98438 30.7812 9.94482 30.7812 9.89648C30.7812 9.84814 30.7681 9.80859 30.752 9.80859C30.7358 9.80859 30.7227 9.76904 30.7227 9.7207C30.7227 9.67236 30.7095 9.63281 30.6934 9.63281C30.6772 9.63281 30.6641 9.59326 30.6641 9.54492C30.6641 9.49658 30.6509 9.45703 30.6348 9.45703C30.6187 9.45703 30.6055 9.41748 30.6055 9.36914C30.6055 9.3208 30.5923 9.28125 30.5762 9.28125C30.5601 9.28125 30.5469 9.2417 30.5469 9.19336C30.5469 9.14502 30.5337 9.10547 30.5176 9.10547C30.5015 9.10547 30.4883 9.06592 30.4883 9.01758C30.4883 8.96924 30.4751 8.92969 30.459 8.92969C30.4429 8.92969 30.4297 8.89014 30.4297 8.8418C30.4297 8.79346 30.4165 8.75391 30.4004 8.75391C30.3843 8.75391 30.3711 8.71436 30.3711 8.66602C30.3711 8.61768 30.3579 8.57812 30.3418 8.57812C30.3257 8.57812 30.3125 8.53857 30.3125 8.49023C30.3125 8.44189 30.2993 8.40234 30.2832 8.40234C30.2671 8.40234 30.2539 8.36279 30.2539 8.31445C30.2539 8.26611 30.2407 8.22656 30.2246 8.22656C30.2085 8.22656 30.1953 8.18701 30.1953 8.13867C30.1953 8.09033 30.1821 8.05078 30.166 8.05078C30.1499 8.05078 30.1367 8.01123 30.1367 7.96289C30.1367 7.91455 30.1235 7.875 30.1074 7.875C30.0913 7.875 30.0781 7.83545 30.0781 7.78711C30.0781 7.73877 30.0649 7.69922 30.0488 7.69922C30.0327 7.69922 30.0195 7.65967 30.0195 7.61133C30.0195 7.56299 30.0063 7.52344 29.9902 7.52344C29.9741 7.52344 29.9609 7.48389 29.9609 7.43555C29.9609 7.38721 29.9478 7.34766 29.9316 7.34766C29.9155 7.34766 29.9023 7.30811 29.9023 7.25977C29.9023 7.21143 29.8892 7.17188 29.873 7.17188C29.8569 7.17188 29.8438 7.13232 29.8438 7.08398C29.8438 7.03564 29.8306 6.99609 29.8145 6.99609C29.7983 6.99609 29.7852 6.95654 29.7852 6.9082C29.7852 6.85986 29.772 6.82031 29.7559 6.82031C29.7397 6.82031 29.7266 6.78076 29.7266 6.73242C29.7266 6.68408 29.7134 6.64453 29.6973 6.64453C29.6812 6.64453 29.668 6.60498 29.668 6.55664C29.668 6.5083 29.6548 6.46875 29.6387 6.46875C29.6226 6.46875 29.6094 6.4292 29.6094 6.38086C29.6094 6.33252 29.5962 6.29297 29.5801 6.29297C29.564 6.29297 29.5508 6.25342 29.5508 6.20508C29.5508 6.15674 29.5376 6.11719 29.5215 6.11719C29.5054 6.11719 29.4922 6.09082 29.4922 6.05859C29.4922 6.00021 29.4726 6 23.5742 6C17.6758 6 17.6562 6.00021 17.6562 6.05859ZM28.2199 7.79968C28.2429 7.82268 28.2617 7.87541 28.2617 7.91687C28.2617 7.95829 28.2749 7.99219 28.291 7.99219C28.3071 7.99219 28.3203 8.03174 28.3203 8.08008C28.3203 8.12842 28.3335 8.16797 28.3496 8.16797C28.3657 8.16797 28.3789 8.20752 28.3789 8.25586C28.3789 8.3042 28.3921 8.34375 28.4082 8.34375C28.4243 8.34375 28.4375 8.3833 28.4375 8.43164C28.4375 8.47998 28.4507 8.51953 28.4668 8.51953C28.4829 8.51953 28.4961 8.55908 28.4961 8.60742C28.4961 8.65576 28.5093 8.69531 28.5254 8.69531C28.5415 8.69531 28.5547 8.73486 28.5547 8.7832C28.5547 8.83154 28.5679 8.87109 28.584 8.87109C28.6001 8.87109 28.6133 8.91064 28.6133 8.95898C28.6133 9.00732 28.6265 9.04688 28.6426 9.04688C28.6587 9.04688 28.6719 9.08643 28.6719 9.13477C28.6719 9.18311 28.6851 9.22266 28.7012 9.22266C28.7173 9.22266 28.7305 9.26221 28.7305 9.31055C28.7305 9.35889 28.7437 9.39844 28.7598 9.39844C28.7759 9.39844 28.7891 9.43799 28.7891 9.48633C28.7891 9.53467 28.8022 9.57422 28.8184 9.57422C28.8345 9.57422 28.8477 9.61377 28.8477 9.66211C28.8477 9.71045 28.8608 9.75 28.877 9.75C28.8931 9.75 28.9062 9.78955 28.9062 9.83789C28.9062 9.88623 28.9194 9.92578 28.9355 9.92578C28.9517 9.92578 28.9648 9.96533 28.9648 10.0137C28.9648 10.062 28.978 10.1016 28.9941 10.1016C29.0103 10.1016 29.0234 10.1411 29.0234 10.1895C29.0234 10.2378 29.0366 10.2773 29.0527 10.2773C29.0688 10.2773 29.082 10.3169 29.082 10.3652C29.082 10.4136 29.0952 10.4531 29.1113 10.4531C29.1274 10.4531 29.1406 10.4927 29.1406 10.541C29.1406 10.5894 29.1538 10.6289 29.1699 10.6289C29.186 10.6289 29.1992 10.6685 29.1992 10.7168C29.1992 10.7651 29.2124 10.8047 29.2285 10.8047C29.2446 10.8047 29.2578 10.8442 29.2578 10.8926C29.2578 10.9409 29.271 10.9805 29.2871 10.9805C29.3032 10.9805 29.3164 11.02 29.3164 11.0684C29.3164 11.1167 29.3296 11.1562 29.3457 11.1562C29.3618 11.1562 29.375 11.1826 29.375 11.2148C29.375 11.2732 29.3555 11.2734 23.5742 11.2734C17.793 11.2734 17.7734 11.2732 17.7734 11.2148C17.7734 11.1826 17.7866 11.1562 17.8027 11.1562C17.8188 11.1562 17.832 11.1167 17.832 11.0684C17.832 11.02 17.8452 10.9805 17.8613 10.9805C17.8774 10.9805 17.8906 10.9409 17.8906 10.8926C17.8906 10.8442 17.9038 10.8047 17.9199 10.8047C17.936 10.8047 17.9492 10.7651 17.9492 10.7168C17.9492 10.6685 17.9624 10.6289 17.9785 10.6289C17.9946 10.6289 18.0078 10.5894 18.0078 10.541C18.0078 10.4927 18.021 10.4531 18.0371 10.4531C18.0532 10.4531 18.0664 10.4136 18.0664 10.3652C18.0664 10.3169 18.0796 10.2773 18.0957 10.2773C18.1118 10.2773 18.125 10.2378 18.125 10.1895C18.125 10.1411 18.1382 10.1016 18.1543 10.1016C18.1704 10.1016 18.1836 10.062 18.1836 10.0137C18.1836 9.96533 18.1968 9.92578 18.2129 9.92578C18.229 9.92578 18.2422 9.88623 18.2422 9.83789C18.2422 9.78955 18.2554 9.75 18.2715 9.75C18.2876 9.75 18.3008 9.71045 18.3008 9.66211C18.3008 9.61377 18.314 9.57422 18.3301 9.57422C18.3462 9.57422 18.3594 9.53467 18.3594 9.48633C18.3594 9.43799 18.3726 9.39844 18.3887 9.39844C18.4048 9.39844 18.418 9.35889 18.418 9.31055C18.418 9.26221 18.4312 9.22266 18.4473 9.22266C18.4634 9.22266 18.4766 9.18311 18.4766 9.13477C18.4766 9.08643 18.4897 9.04688 18.5059 9.04688C18.522 9.04688 18.5352 9.00732 18.5352 8.95898C18.5352 8.91064 18.5483 8.87109 18.5645 8.87109C18.5806 8.87109 18.5938 8.83154 18.5938 8.7832C18.5938 8.73486 18.6069 8.69531 18.623 8.69531C18.6392 8.69531 18.6523 8.65576 18.6523 8.60742C18.6523 8.55908 18.6655 8.51953 18.6816 8.51953C18.6978 8.51953 18.7109 8.47998 18.7109 8.43164C18.7109 8.3833 18.7241 8.34375 18.7402 8.34375C18.7563 8.34375 18.7695 8.3042 18.7695 8.25586C18.7695 8.20752 18.7827 8.16797 18.7988 8.16797C18.8149 8.16797 18.8281 8.12842 18.8281 8.08008C18.8281 8.03174 18.8413 7.99219 18.8574 7.99219C18.8735 7.99219 18.8867 7.95867 18.8867 7.91771C18.8867 7.74914 18.5628 7.76013 23.569 7.75893C27.5255 7.75796 28.1839 7.76373 28.2199 7.79968ZM33.2422 14.7891V16.5469H32.2754C31.3281 16.5469 31.3086 16.5457 31.3086 16.4883C31.3086 16.4561 31.2954 16.4297 31.2793 16.4297C31.2632 16.4297 31.25 16.4033 31.25 16.3711C31.25 16.3389 31.2368 16.3125 31.2207 16.3125C31.2046 16.3125 31.1914 16.2861 31.1914 16.2539C31.1914 16.2217 31.1782 16.1953 31.1621 16.1953C31.146 16.1953 31.1328 16.1689 31.1328 16.1367C31.1328 16.1045 31.1196 16.0781 31.1035 16.0781C31.0874 16.0781 31.0742 16.0547 31.0742 16.026C31.0742 15.9973 31.0479 15.9549 31.0156 15.9316C30.9834 15.9084 30.957 15.8723 30.957 15.8515C30.957 15.8021 30.4713 15.3164 30.4219 15.3164C30.4011 15.3164 30.365 15.29 30.3418 15.2578C30.3186 15.2256 30.279 15.1992 30.2539 15.1992C30.2288 15.1992 30.1892 15.1729 30.166 15.1406C30.1428 15.1084 30.1003 15.082 30.0716 15.082C30.043 15.082 30.0195 15.0688 30.0195 15.0527C30.0195 15.0366 29.98 15.0234 29.9316 15.0234C29.8833 15.0234 29.8438 15.0103 29.8438 14.9941C29.8438 14.978 29.8174 14.9648 29.7852 14.9648C29.7529 14.9648 29.7266 14.9517 29.7266 14.9355C29.7266 14.9194 29.6738 14.9062 29.6094 14.9062C29.5449 14.9062 29.4922 14.8931 29.4922 14.877C29.4922 14.8608 29.4395 14.8477 29.375 14.8477C29.3105 14.8477 29.2578 14.8345 29.2578 14.8184C29.2578 14.8002 29.1016 14.7891 28.8477 14.7891C28.5937 14.7891 28.4375 14.8002 28.4375 14.8184C28.4375 14.8345 28.3848 14.8477 28.3203 14.8477C28.2559 14.8477 28.2031 14.8608 28.2031 14.877C28.2031 14.8931 28.1504 14.9062 28.0859 14.9062C28.0215 14.9062 27.9688 14.9194 27.9688 14.9355C27.9688 14.9517 27.9424 14.9648 27.9102 14.9648C27.8779 14.9648 27.8516 14.978 27.8516 14.9941C27.8516 15.0103 27.8149 15.0234 27.7701 15.0234C27.7223 15.0234 27.6713 15.0476 27.6465 15.082C27.6233 15.1143 27.5808 15.1406 27.5521 15.1406C27.5235 15.1406 27.5 15.1538 27.5 15.1699C27.5 15.186 27.4765 15.1992 27.4479 15.1992C27.4192 15.1992 27.3767 15.2256 27.3535 15.2578C27.3303 15.29 27.2942 15.3164 27.2734 15.3164C27.224 15.3164 26.7383 15.8021 26.7383 15.8515C26.7383 15.8723 26.7119 15.9084 26.6797 15.9316C26.6475 15.9549 26.6211 15.9944 26.6211 16.0195C26.6211 16.0446 26.5947 16.0842 26.5625 16.1074C26.5303 16.1307 26.5039 16.1731 26.5039 16.2018C26.5039 16.2304 26.4907 16.2539 26.4746 16.2539C26.4585 16.2539 26.4453 16.2935 26.4453 16.3418C26.4453 16.3901 26.4321 16.4297 26.416 16.4297C26.3999 16.4297 26.3867 16.4561 26.3867 16.4883C26.3867 16.5465 26.3672 16.5469 23.5742 16.5469C20.7813 16.5469 20.7617 16.5465 20.7617 16.4883C20.7617 16.4561 20.7485 16.4297 20.7324 16.4297C20.7163 16.4297 20.7031 16.4033 20.7031 16.3711C20.7031 16.3389 20.6899 16.3125 20.6738 16.3125C20.6577 16.3125 20.6445 16.2861 20.6445 16.2539C20.6445 16.2217 20.6313 16.1953 20.6152 16.1953C20.5991 16.1953 20.5859 16.1689 20.5859 16.1367C20.5859 16.1045 20.5728 16.0781 20.5566 16.0781C20.5405 16.0781 20.5273 16.0547 20.5273 16.026C20.5273 15.9973 20.501 15.9549 20.4688 15.9316C20.4365 15.9084 20.4102 15.8723 20.4102 15.8515C20.4102 15.8021 19.9245 15.3164 19.875 15.3164C19.8542 15.3164 19.8182 15.29 19.7949 15.2578C19.7717 15.2256 19.7321 15.1992 19.707 15.1992C19.6819 15.1992 19.6424 15.1729 19.6191 15.1406C19.5959 15.1084 19.5535 15.082 19.5248 15.082C19.4961 15.082 19.4727 15.0688 19.4727 15.0527C19.4727 15.0366 19.4331 15.0234 19.3848 15.0234C19.3364 15.0234 19.2969 15.0103 19.2969 14.9941C19.2969 14.978 19.2705 14.9648 19.2383 14.9648C19.2061 14.9648 19.1797 14.9517 19.1797 14.9355C19.1797 14.9194 19.127 14.9062 19.0625 14.9062C18.998 14.9062 18.9453 14.8931 18.9453 14.877C18.9453 14.8608 18.8926 14.8477 18.8281 14.8477C18.7637 14.8477 18.7109 14.8345 18.7109 14.8184C18.7109 14.8002 18.5547 14.7891 18.3008 14.7891C18.0469 14.7891 17.8906 14.8002 17.8906 14.8184C17.8906 14.8345 17.8379 14.8477 17.7734 14.8477C17.709 14.8477 17.6562 14.8608 17.6562 14.877C17.6562 14.8931 17.6035 14.9062 17.5391 14.9062C17.4746 14.9062 17.4219 14.9194 17.4219 14.9355C17.4219 14.9517 17.3955 14.9648 17.3633 14.9648C17.3311 14.9648 17.3047 14.978 17.3047 14.9941C17.3047 15.0103 17.268 15.0234 17.2233 15.0234C17.1755 15.0234 17.1244 15.0476 17.0996 15.082C17.0764 15.1143 17.0339 15.1406 17.0052 15.1406C16.9766 15.1406 16.9531 15.1538 16.9531 15.1699C16.9531 15.186 16.9297 15.1992 16.901 15.1992C16.8723 15.1992 16.8299 15.2256 16.8066 15.2578C16.7834 15.29 16.7473 15.3164 16.7265 15.3164C16.7057 15.3164 16.5767 15.4283 16.44 15.565C16.3033 15.7017 16.1914 15.8307 16.1914 15.8515C16.1914 15.8723 16.165 15.9084 16.1328 15.9316C16.1006 15.9549 16.0742 15.9944 16.0742 16.0195C16.0742 16.0446 16.0479 16.0842 16.0156 16.1074C15.9834 16.1307 15.957 16.1731 15.957 16.2018C15.957 16.2304 15.9438 16.2539 15.9277 16.2539C15.9116 16.2539 15.8984 16.2935 15.8984 16.3418C15.8984 16.3901 15.8853 16.4297 15.8691 16.4297C15.853 16.4297 15.8398 16.4561 15.8398 16.4883C15.8398 16.5457 15.8203 16.5469 14.873 16.5469H13.9062V14.7891V13.0312H23.5742H33.2422V14.7891ZM18.5352 16.5762C18.5352 16.5923 18.5615 16.6055 18.5938 16.6055C18.626 16.6055 18.6523 16.6187 18.6523 16.6348C18.6523 16.6509 18.6787 16.6641 18.7109 16.6641C18.7432 16.6641 18.7695 16.6772 18.7695 16.6934C18.7695 16.7095 18.7899 16.7227 18.8148 16.7227C18.8734 16.7227 19.0039 16.8531 19.0039 16.9118C19.0039 16.9367 19.0171 16.957 19.0332 16.957C19.0493 16.957 19.0625 16.9834 19.0625 17.0156C19.0625 17.0479 19.0757 17.0742 19.0918 17.0742C19.1079 17.0742 19.1211 17.1006 19.1211 17.1328C19.1211 17.165 19.1343 17.1914 19.1504 17.1914C19.1675 17.1914 19.1797 17.2891 19.1797 17.4258C19.1797 17.5625 19.1675 17.6602 19.1504 17.6602C19.1343 17.6602 19.1211 17.6865 19.1211 17.7188C19.1211 17.751 19.1079 17.7773 19.0918 17.7773C19.0757 17.7773 19.0625 17.8008 19.0625 17.8295C19.0625 17.8581 19.0361 17.9006 19.0039 17.9238C18.9717 17.9471 18.9453 17.9839 18.9453 18.0056C18.9453 18.0593 18.872 18.1289 18.8156 18.1289C18.7902 18.1289 18.7695 18.1421 18.7695 18.1582C18.7695 18.1743 18.7432 18.1875 18.7109 18.1875C18.6787 18.1875 18.6523 18.2007 18.6523 18.2168C18.6523 18.2329 18.626 18.2461 18.5938 18.2461C18.5615 18.2461 18.5352 18.2593 18.5352 18.2754C18.5352 18.2925 18.4375 18.3047 18.3008 18.3047C18.1641 18.3047 18.0664 18.2925 18.0664 18.2754C18.0664 18.2593 18.04 18.2461 18.0078 18.2461C17.9756 18.2461 17.9492 18.2329 17.9492 18.2168C17.9492 18.2007 17.9258 18.1875 17.8971 18.1875C17.8684 18.1875 17.826 18.1611 17.8027 18.1289C17.7795 18.0967 17.7427 18.0703 17.7209 18.0703C17.6673 18.0703 17.5977 17.997 17.5977 17.9406C17.5977 17.9152 17.5845 17.8945 17.5684 17.8945C17.5522 17.8945 17.5391 17.8682 17.5391 17.8359C17.5391 17.8037 17.5259 17.7773 17.5098 17.7773C17.4937 17.7773 17.4805 17.751 17.4805 17.7188C17.4805 17.6865 17.4673 17.6602 17.4512 17.6602C17.4341 17.6602 17.4219 17.5625 17.4219 17.4258C17.4219 17.2891 17.4341 17.1914 17.4512 17.1914C17.4673 17.1914 17.4805 17.165 17.4805 17.1328C17.4805 17.1006 17.4937 17.0742 17.5098 17.0742C17.5259 17.0742 17.5391 17.0508 17.5391 17.0221C17.5391 16.9934 17.5654 16.951 17.5977 16.9277C17.6299 16.9045 17.6562 16.8621 17.6562 16.8334C17.6562 16.8029 17.6779 16.7812 17.7084 16.7812C17.7371 16.7812 17.7795 16.7549 17.8027 16.7227C17.826 16.6904 17.8684 16.6641 17.8971 16.6641C17.9258 16.6641 17.9492 16.6509 17.9492 16.6348C17.9492 16.6187 17.9756 16.6055 18.0078 16.6055C18.04 16.6055 18.0664 16.5923 18.0664 16.5762C18.0664 16.5591 18.1641 16.5469 18.3008 16.5469C18.4375 16.5469 18.5352 16.5591 18.5352 16.5762ZM29.082 16.5762C29.082 16.5923 29.1084 16.6055 29.1406 16.6055C29.1729 16.6055 29.1992 16.6187 29.1992 16.6348C29.1992 16.6509 29.2256 16.6641 29.2578 16.6641C29.29 16.6641 29.3164 16.6772 29.3164 16.6934C29.3164 16.7095 29.3368 16.7227 29.3617 16.7227C29.4203 16.7227 29.5508 16.8531 29.5508 16.9118C29.5508 16.9367 29.564 16.957 29.5801 16.957C29.5962 16.957 29.6094 16.9834 29.6094 17.0156C29.6094 17.0479 29.6226 17.0742 29.6387 17.0742C29.6548 17.0742 29.668 17.1006 29.668 17.1328C29.668 17.165 29.6812 17.1914 29.6973 17.1914C29.7143 17.1914 29.7266 17.2891 29.7266 17.4258C29.7266 17.5625 29.7143 17.6602 29.6973 17.6602C29.6812 17.6602 29.668 17.6865 29.668 17.7188C29.668 17.751 29.6548 17.7773 29.6387 17.7773C29.6226 17.7773 29.6094 17.8008 29.6094 17.8295C29.6094 17.8581 29.583 17.9006 29.5508 17.9238C29.5186 17.9471 29.4922 17.9839 29.4922 18.0056C29.4922 18.0593 29.4189 18.1289 29.3624 18.1289C29.3371 18.1289 29.3164 18.1421 29.3164 18.1582C29.3164 18.1743 29.29 18.1875 29.2578 18.1875C29.2256 18.1875 29.1992 18.2007 29.1992 18.2168C29.1992 18.2329 29.1729 18.2461 29.1406 18.2461C29.1084 18.2461 29.082 18.2593 29.082 18.2754C29.082 18.2925 28.9844 18.3047 28.8477 18.3047C28.7109 18.3047 28.6133 18.2925 28.6133 18.2754C28.6133 18.2593 28.5869 18.2461 28.5547 18.2461C28.5225 18.2461 28.4961 18.2329 28.4961 18.2168C28.4961 18.2007 28.4726 18.1875 28.444 18.1875C28.4153 18.1875 28.3728 18.1611 28.3496 18.1289C28.3264 18.0967 28.2896 18.0703 28.2678 18.0703C28.2142 18.0703 28.1445 17.997 28.1445 17.9406C28.1445 17.9152 28.1313 17.8945 28.1152 17.8945C28.0991 17.8945 28.0859 17.8682 28.0859 17.8359C28.0859 17.8037 28.0728 17.7773 28.0566 17.7773C28.0405 17.7773 28.0273 17.751 28.0273 17.7188C28.0273 17.6865 28.0142 17.6602 27.998 17.6602C27.981 17.6602 27.9688 17.5625 27.9688 17.4258C27.9688 17.2891 27.981 17.1914 27.998 17.1914C28.0142 17.1914 28.0273 17.165 28.0273 17.1328C28.0273 17.1006 28.0405 17.0742 28.0566 17.0742C28.0728 17.0742 28.0859 17.0508 28.0859 17.0221C28.0859 16.9934 28.1123 16.951 28.1445 16.9277C28.1768 16.9045 28.2031 16.8621 28.2031 16.8334C28.2031 16.8029 28.2248 16.7812 28.2552 16.7812C28.2839 16.7812 28.3264 16.7549 28.3496 16.7227C28.3728 16.6904 28.4153 16.6641 28.444 16.6641C28.4726 16.6641 28.4961 16.6509 28.4961 16.6348C28.4961 16.6187 28.5225 16.6055 28.5547 16.6055C28.5869 16.6055 28.6133 16.5923 28.6133 16.5762C28.6133 16.5591 28.7109 16.5469 28.8477 16.5469C28.9844 16.5469 29.082 16.5591 29.082 16.5762ZM14.7266 22.7285C14.7266 22.7446 14.6606 22.7578 14.5801 22.7578C14.4995 22.7578 14.4336 22.771 14.4336 22.7871C14.4336 22.8032 14.3809 22.8164 14.3164 22.8164C14.252 22.8164 14.1992 22.8296 14.1992 22.8457C14.1992 22.8618 14.1597 22.875 14.1113 22.875C14.063 22.875 14.0234 22.8882 14.0234 22.9043C14.0234 22.9204 13.9839 22.9336 13.9355 22.9336C13.8872 22.9336 13.8477 22.9468 13.8477 22.9629C13.8477 22.979 13.8213 22.9922 13.7891 22.9922C13.7568 22.9922 13.7305 23.0054 13.7305 23.0215C13.7305 23.0376 13.7041 23.0508 13.6719 23.0508C13.6396 23.0508 13.6133 23.064 13.6133 23.0801C13.6133 23.0962 13.5869 23.1094 13.5547 23.1094C13.5225 23.1094 13.4961 23.1226 13.4961 23.1387C13.4961 23.1548 13.4697 23.168 13.4375 23.168C13.4053 23.168 13.3789 23.1812 13.3789 23.1973C13.3789 23.2134 13.3554 23.2266 13.3268 23.2266C13.2981 23.2266 13.2557 23.2529 13.2324 23.2852C13.2092 23.3174 13.1696 23.3438 13.1445 23.3438C13.1194 23.3438 13.0799 23.3701 13.0566 23.4023C13.0334 23.4346 12.9962 23.4609 12.974 23.4609C12.9518 23.4609 12.8967 23.5005 12.8516 23.5488C12.8064 23.5972 12.7539 23.6367 12.735 23.6367C12.716 23.6367 12.6498 23.6895 12.5879 23.7539C12.526 23.8184 12.4609 23.8711 12.4434 23.8711C12.4019 23.8711 11.7969 24.4758 11.7969 24.5172C11.7969 24.5345 11.731 24.6129 11.6504 24.6914C11.5698 24.7699 11.5039 24.8492 11.5039 24.8676C11.5039 24.886 11.4512 24.9517 11.3867 25.0137C11.3223 25.0756 11.2695 25.1411 11.2695 25.1592C11.2695 25.1773 11.2372 25.2245 11.1976 25.264L11.1257 25.3359H8.06284H5V28.8516V32.3672H8.36914C10.5957 32.3672 11.7383 32.3771 11.7383 32.3965C11.7383 32.4128 11.8164 32.4258 11.9141 32.4258C12.0117 32.4258 12.0898 32.4388 12.0898 32.4551C12.0898 32.4714 12.168 32.4844 12.2656 32.4844C12.3633 32.4844 12.4414 32.4974 12.4414 32.5137C12.4414 32.53 12.5195 32.543 12.6172 32.543C12.7148 32.543 12.793 32.556 12.793 32.5723C12.793 32.5886 12.8711 32.6016 12.9688 32.6016C13.0664 32.6016 13.1445 32.6146 13.1445 32.6309C13.1445 32.6471 13.2227 32.6602 13.3203 32.6602C13.418 32.6602 13.4961 32.6732 13.4961 32.6895C13.4961 32.7057 13.5742 32.7188 13.6719 32.7188C13.7695 32.7188 13.8477 32.7318 13.8477 32.748C13.8477 32.7643 13.9258 32.7773 14.0234 32.7773C14.1211 32.7773 14.1992 32.7904 14.1992 32.8066C14.1992 32.8229 14.2774 32.8359 14.375 32.8359C14.4726 32.8359 14.5508 32.8489 14.5508 32.8652C14.5508 32.8815 14.6289 32.8945 14.7266 32.8945C14.8242 32.8945 14.9023 32.9075 14.9023 32.9238C14.9023 32.9401 14.9805 32.9531 15.0781 32.9531C15.1758 32.9531 15.2539 32.9661 15.2539 32.9824C15.2539 32.9987 15.332 33.0117 15.4297 33.0117C15.5273 33.0117 15.6055 33.0247 15.6055 33.041C15.6055 33.0573 15.6836 33.0703 15.7812 33.0703C15.8789 33.0703 15.957 33.0833 15.957 33.0996C15.957 33.1159 16.0352 33.1289 16.1328 33.1289C16.2305 33.1289 16.3086 33.1419 16.3086 33.1582C16.3086 33.1745 16.3867 33.1875 16.4844 33.1875C16.582 33.1875 16.6602 33.2005 16.6602 33.2168C16.6602 33.2331 16.7383 33.2461 16.8359 33.2461C16.9336 33.2461 17.0117 33.2591 17.0117 33.2754C17.0117 33.2917 17.0899 33.3047 17.1875 33.3047C17.2851 33.3047 17.3633 33.3177 17.3633 33.334C17.3633 33.3503 17.4414 33.3633 17.5391 33.3633C17.6367 33.3633 17.7148 33.3763 17.7148 33.3926C17.7148 33.4089 17.793 33.4219 17.8906 33.4219C17.9883 33.4219 18.0664 33.4349 18.0664 33.4512C18.0664 33.4675 18.1445 33.4805 18.2422 33.4805C18.3398 33.4805 18.418 33.4935 18.418 33.5098C18.418 33.5261 18.4961 33.5391 18.5938 33.5391C18.6914 33.5391 18.7695 33.5521 18.7695 33.5684C18.7695 33.5846 18.8477 33.5977 18.9453 33.5977C19.043 33.5977 19.1211 33.6107 19.1211 33.627C19.1211 33.6432 19.1992 33.6562 19.2969 33.6562C19.3945 33.6562 19.4727 33.6693 19.4727 33.6855C19.4727 33.7018 19.5508 33.7148 19.6484 33.7148C19.7461 33.7148 19.8242 33.7279 19.8242 33.7441C19.8242 33.7604 19.9024 33.7734 20 33.7734C20.0976 33.7734 20.1758 33.7864 20.1758 33.8027C20.1758 33.819 20.2539 33.832 20.3516 33.832C20.4492 33.832 20.5273 33.845 20.5273 33.8613C20.5273 33.8776 20.6055 33.8906 20.7031 33.8906C20.8008 33.8906 20.8789 33.9036 20.8789 33.9199C20.8789 33.9362 20.957 33.9492 21.0547 33.9492C21.1523 33.9492 21.2305 33.9622 21.2305 33.9785C21.2305 33.9948 21.3086 34.0078 21.4062 34.0078C21.5039 34.0078 21.582 34.0208 21.582 34.0371C21.582 34.0545 21.6895 34.0664 21.8457 34.0664C22.0019 34.0664 22.1094 34.0783 22.1094 34.0957C22.1094 34.1144 22.3633 34.125 22.8125 34.125C23.2617 34.125 23.5156 34.1144 23.5156 34.0957C23.5156 34.0783 23.6231 34.0664 23.7793 34.0664C23.9355 34.0664 24.043 34.0545 24.043 34.0371C24.043 34.0204 24.1309 34.0078 24.248 34.0078C24.3652 34.0078 24.4531 33.9952 24.4531 33.9785C24.4531 33.9624 24.519 33.9492 24.5996 33.9492C24.6802 33.9492 24.7461 33.936 24.7461 33.9199C24.7461 33.9038 24.7988 33.8906 24.8633 33.8906C24.9277 33.8906 24.9805 33.8774 24.9805 33.8613C24.9805 33.8452 25.0332 33.832 25.0977 33.832C25.1621 33.832 25.2148 33.8188 25.2148 33.8027C25.2148 33.7866 25.2544 33.7734 25.3027 33.7734C25.3511 33.7734 25.3906 33.7603 25.3906 33.7441C25.3906 33.728 25.4302 33.7148 25.4785 33.7148C25.5269 33.7148 25.5664 33.7017 25.5664 33.6855C25.5664 33.6694 25.606 33.6562 25.6543 33.6562C25.7026 33.6562 25.7422 33.6431 25.7422 33.627C25.7422 33.6108 25.7817 33.5977 25.8301 33.5977C25.8784 33.5977 25.918 33.5845 25.918 33.5684C25.918 33.5522 25.9575 33.5391 26.0059 33.5391C26.0542 33.5391 26.0938 33.5259 26.0938 33.5098C26.0938 33.4937 26.1201 33.4805 26.1523 33.4805C26.1846 33.4805 26.2109 33.4673 26.2109 33.4512C26.2109 33.4351 26.2505 33.4219 26.2988 33.4219C26.3472 33.4219 26.3867 33.4087 26.3867 33.3926C26.3867 33.3765 26.4131 33.3633 26.4453 33.3633C26.4775 33.3633 26.5039 33.3501 26.5039 33.334C26.5039 33.3179 26.5303 33.3047 26.5625 33.3047C26.5947 33.3047 26.6211 33.2915 26.6211 33.2754C26.6211 33.2593 26.6475 33.2461 26.6797 33.2461C26.7119 33.2461 26.7383 33.2329 26.7383 33.2168C26.7383 33.2007 26.7646 33.1875 26.7969 33.1875C26.8291 33.1875 26.8555 33.1743 26.8555 33.1582C26.8555 33.1421 26.8818 33.1289 26.9141 33.1289C26.9463 33.1289 26.9727 33.1157 26.9727 33.0996C26.9727 33.0835 26.999 33.0703 27.0312 33.0703C27.0635 33.0703 27.0898 33.0571 27.0898 33.041C27.0898 33.0249 27.1162 33.0117 27.1484 33.0117C27.1807 33.0117 27.207 32.9985 27.207 32.9824C27.207 32.9663 27.2305 32.9531 27.2591 32.9531C27.2878 32.9531 27.3303 32.9268 27.3535 32.8945C27.3767 32.8623 27.4192 32.8359 27.4479 32.8359C27.4765 32.8359 27.5 32.8228 27.5 32.8066C27.5 32.7905 27.5235 32.7773 27.5521 32.7773C27.5808 32.7773 27.6233 32.751 27.6465 32.7188C27.6697 32.6865 27.7093 32.6602 27.7344 32.6602C27.7595 32.6602 27.799 32.6338 27.8223 32.6016C27.8455 32.5693 27.8827 32.543 27.9049 32.543C27.9271 32.543 27.9822 32.5034 28.0273 32.4551C28.0725 32.4067 28.1252 32.3672 28.1445 32.3672C28.1638 32.3672 28.2166 32.3276 28.2617 32.2793C28.3069 32.231 28.3592 32.1914 28.3779 32.1914C28.3967 32.1914 28.4762 32.1255 28.5547 32.0449C28.6332 31.9644 28.7123 31.8984 28.7305 31.8984C28.7487 31.8984 28.8278 31.8325 28.9062 31.752C28.9847 31.6714 29.0637 31.6055 29.0817 31.6055C29.0998 31.6055 29.1922 31.5264 29.2871 31.4297C29.382 31.333 29.4743 31.2539 29.4922 31.2539C29.5101 31.2539 29.6024 31.1748 29.6973 31.0781C29.7922 30.9814 29.8846 30.9023 29.9026 30.9023C29.9207 30.9023 29.9996 30.8364 30.0781 30.7559C30.1566 30.6753 30.2356 30.6094 30.2536 30.6094C30.2717 30.6094 30.3641 30.5303 30.459 30.4336C30.5539 30.3369 30.6463 30.2578 30.6644 30.2578C30.6824 30.2578 30.7614 30.1919 30.8398 30.1113C30.9183 30.0308 30.9973 29.9648 31.0153 29.9648C31.0334 29.9648 31.1258 29.8857 31.2207 29.7891C31.3156 29.6924 31.4079 29.6133 31.4258 29.6133C31.4437 29.6133 31.536 29.5342 31.6309 29.4375C31.7258 29.3408 31.8182 29.2617 31.8362 29.2617C31.8543 29.2617 31.9332 29.1958 32.0117 29.1152C32.0902 29.0347 32.1692 28.9688 32.1872 28.9688C32.2053 28.9688 32.2977 28.8896 32.3926 28.793C32.4875 28.6963 32.5798 28.6172 32.5977 28.6172C32.6156 28.6172 32.7078 28.5381 32.8027 28.4414C32.8976 28.3447 32.99 28.2656 33.0081 28.2656C33.0262 28.2656 33.1051 28.1997 33.1836 28.1191C33.2621 28.0386 33.341 27.9727 33.3591 27.9727C33.3772 27.9727 33.4696 27.8936 33.5645 27.7969C33.6593 27.7002 33.7517 27.6211 33.7698 27.6211C33.7879 27.6211 33.8668 27.5552 33.9453 27.4746C34.0238 27.394 34.1028 27.3281 34.1208 27.3281C34.1389 27.3281 34.2313 27.249 34.3262 27.1523C34.4211 27.0557 34.5133 26.9766 34.5312 26.9766C34.5492 26.9766 34.6414 26.8975 34.7363 26.8008C34.8312 26.7041 34.9294 26.625 34.9544 26.625C34.9795 26.625 35 26.6118 35 26.5957C35 26.5796 34.9868 26.5664 34.9707 26.5664C34.9546 26.5664 34.9414 26.5456 34.9414 26.5202C34.9414 26.4947 34.8887 26.4233 34.8242 26.3613C34.7598 26.2994 34.707 26.2335 34.707 26.2148C34.707 26.1962 34.6543 26.1303 34.5898 26.0684C34.5254 26.0064 34.4727 25.9414 34.4727 25.9239C34.4727 25.8786 33.7487 25.1602 33.7031 25.1602C33.6823 25.1602 33.6463 25.1338 33.623 25.1016C33.5998 25.0693 33.5603 25.043 33.5352 25.043C33.51 25.043 33.4705 25.0166 33.4473 24.9844C33.424 24.9521 33.3845 24.9258 33.3594 24.9258C33.3343 24.9258 33.2947 24.8994 33.2715 24.8672C33.2483 24.835 33.2058 24.8086 33.1771 24.8086C33.1485 24.8086 33.125 24.7954 33.125 24.7793C33.125 24.7632 33.0986 24.75 33.0664 24.75C33.0342 24.75 33.0078 24.7368 33.0078 24.7207C33.0078 24.7046 32.9814 24.6914 32.9492 24.6914C32.917 24.6914 32.8906 24.6782 32.8906 24.6621C32.8906 24.646 32.8511 24.6328 32.8027 24.6328C32.7544 24.6328 32.7148 24.6196 32.7148 24.6035C32.7148 24.5874 32.6885 24.5742 32.6562 24.5742C32.624 24.5742 32.5977 24.561 32.5977 24.5449C32.5977 24.5288 32.5581 24.5156 32.5098 24.5156C32.4614 24.5156 32.4219 24.5024 32.4219 24.4863C32.4219 24.4702 32.3823 24.457 32.334 24.457C32.2856 24.457 32.2461 24.4438 32.2461 24.4277C32.2461 24.4116 32.1802 24.3984 32.0996 24.3984C32.019 24.3984 31.9531 24.3853 31.9531 24.3691C31.9531 24.3529 31.875 24.3398 31.7773 24.3398C31.6797 24.3398 31.6016 24.3268 31.6016 24.3105C31.6016 24.2921 31.4062 24.2812 31.0742 24.2812C30.7422 24.2812 30.5469 24.2921 30.5469 24.3105C30.5469 24.3268 30.4687 24.3398 30.3711 24.3398C30.2734 24.3398 30.1953 24.3529 30.1953 24.3691C30.1953 24.3853 30.1426 24.3984 30.0781 24.3984C30.0137 24.3984 29.9609 24.4116 29.9609 24.4277C29.9609 24.4438 29.9082 24.457 29.8438 24.457C29.7793 24.457 29.7266 24.4702 29.7266 24.4863C29.7266 24.5024 29.687 24.5156 29.6387 24.5156C29.5903 24.5156 29.5508 24.5288 29.5508 24.5449C29.5508 24.561 29.5244 24.5742 29.4922 24.5742C29.46 24.5742 29.4336 24.5874 29.4336 24.6035C29.4336 24.6196 29.394 24.6328 29.3457 24.6328C29.2974 24.6328 29.2578 24.646 29.2578 24.6621C29.2578 24.6782 29.2314 24.6914 29.1992 24.6914C29.167 24.6914 29.1406 24.7046 29.1406 24.7207C29.1406 24.7368 29.1172 24.75 29.0885 24.75C29.0598 24.75 29.0174 24.7764 28.9941 24.8086C28.9709 24.8408 28.9285 24.8672 28.8998 24.8672C28.8711 24.8672 28.8477 24.8804 28.8477 24.8965C28.8477 24.9126 28.8242 24.9258 28.7955 24.9258C28.7669 24.9258 28.7244 24.9521 28.7012 24.9844C28.6779 25.0166 28.6408 25.043 28.6186 25.043C28.5964 25.043 28.5412 25.0825 28.4961 25.1309C28.4509 25.1792 28.3987 25.2188 28.3799 25.2188C28.3612 25.2188 28.2816 25.2847 28.2031 25.3652C28.1246 25.4458 28.0455 25.5117 28.0273 25.5117C28.0091 25.5117 27.93 25.5776 27.8516 25.6582C27.7731 25.7388 27.694 25.8047 27.6758 25.8047C27.6576 25.8047 27.5785 25.8706 27.5 25.9512C27.4215 26.0317 27.342 26.0977 27.3232 26.0977C27.3045 26.0977 27.2522 26.1372 27.207 26.1855C27.1619 26.2339 27.1067 26.2734 27.0846 26.2734C27.0624 26.2734 27.0252 26.2998 27.002 26.332C26.9787 26.3643 26.9392 26.3906 26.9141 26.3906C26.889 26.3906 26.8494 26.417 26.8262 26.4492C26.8029 26.4814 26.7605 26.5078 26.7318 26.5078C26.7032 26.5078 26.6797 26.521 26.6797 26.5371C26.6797 26.5532 26.6533 26.5664 26.6211 26.5664C26.5674 26.5664 26.5625 26.5469 26.5625 26.332C26.5625 26.1953 26.5503 26.0977 26.5332 26.0977C26.5171 26.0977 26.5039 26.0317 26.5039 25.9512C26.5039 25.8706 26.4907 25.8047 26.4746 25.8047C26.4585 25.8047 26.4453 25.752 26.4453 25.6875C26.4453 25.623 26.4321 25.5703 26.416 25.5703C26.3999 25.5703 26.3867 25.5439 26.3867 25.5117C26.3867 25.4795 26.3735 25.4531 26.3574 25.4531C26.3413 25.4531 26.3281 25.4136 26.3281 25.3652C26.3281 25.3169 26.3149 25.2773 26.2988 25.2773C26.2827 25.2773 26.2695 25.251 26.2695 25.2188C26.2695 25.1865 26.2563 25.1602 26.2402 25.1602C26.2241 25.1602 26.2109 25.1367 26.2109 25.108C26.2109 25.0794 26.1846 25.0369 26.1523 25.0137C26.1201 24.9904 26.0938 24.9509 26.0938 24.9258C26.0938 24.9007 26.0674 24.8611 26.0352 24.8379C26.0029 24.8147 25.9766 24.7786 25.9766 24.7578C25.9766 24.7084 25.4322 24.1641 25.3828 24.1641C25.362 24.1641 25.326 24.1377 25.3027 24.1055C25.2795 24.0732 25.24 24.0469 25.2148 24.0469C25.1897 24.0469 25.1502 24.0205 25.127 23.9883C25.1037 23.9561 25.0613 23.9297 25.0326 23.9297C25.0039 23.9297 24.9805 23.9165 24.9805 23.9004C24.9805 23.8843 24.9541 23.8711 24.9219 23.8711C24.8896 23.8711 24.8633 23.8579 24.8633 23.8418C24.8633 23.8257 24.8237 23.8125 24.7754 23.8125C24.7271 23.8125 24.6875 23.7993 24.6875 23.7832C24.6875 23.7671 24.6611 23.7539 24.6289 23.7539C24.5967 23.7539 24.5703 23.7407 24.5703 23.7246C24.5703 23.7085 24.5176 23.6953 24.4531 23.6953C24.3887 23.6953 24.3359 23.6821 24.3359 23.666C24.3359 23.6499 24.27 23.6367 24.1895 23.6367C24.1089 23.6367 24.043 23.6235 24.043 23.6074C24.043 23.5886 23.7598 23.5781 23.252 23.5781C22.7442 23.5781 22.4609 23.5676 22.4609 23.5488C22.4609 23.5305 22.2852 23.5195 21.9922 23.5195C21.6992 23.5195 21.5234 23.5085 21.5234 23.4902C21.5234 23.4722 21.377 23.4609 21.1426 23.4609C20.9082 23.4609 20.7617 23.4497 20.7617 23.4316C20.7617 23.4143 20.6543 23.4023 20.498 23.4023C20.3418 23.4023 20.2344 23.3904 20.2344 23.373C20.2344 23.3557 20.1269 23.3438 19.9707 23.3438C19.8145 23.3438 19.707 23.3318 19.707 23.3145C19.707 23.2977 19.6191 23.2852 19.502 23.2852C19.3848 23.2852 19.2969 23.2726 19.2969 23.2559C19.2969 23.2388 19.1992 23.2266 19.0625 23.2266C18.9258 23.2266 18.8281 23.2143 18.8281 23.1973C18.8281 23.1805 18.7402 23.168 18.623 23.168C18.5059 23.168 18.418 23.1554 18.418 23.1387C18.418 23.1224 18.3398 23.1094 18.2422 23.1094C18.1445 23.1094 18.0664 23.0964 18.0664 23.0801C18.0664 23.0638 17.9883 23.0508 17.8906 23.0508C17.793 23.0508 17.7148 23.0378 17.7148 23.0215C17.7148 23.0052 17.6367 22.9922 17.5391 22.9922C17.4414 22.9922 17.3633 22.9792 17.3633 22.9629C17.3633 22.9466 17.2851 22.9336 17.1875 22.9336C17.0899 22.9336 17.0117 22.9206 17.0117 22.9043C17.0117 22.888 16.9336 22.875 16.8359 22.875C16.7383 22.875 16.6602 22.862 16.6602 22.8457C16.6602 22.8294 16.582 22.8164 16.4844 22.8164C16.3867 22.8164 16.3086 22.8034 16.3086 22.7871C16.3086 22.7697 16.2012 22.7578 16.0449 22.7578C15.8887 22.7578 15.7812 22.7459 15.7812 22.7285C15.7812 22.7101 15.5859 22.6992 15.2539 22.6992C14.9219 22.6992 14.7266 22.7101 14.7266 22.7285ZM15.7227 24.4863C15.7227 24.5031 15.8105 24.5156 15.9277 24.5156C16.0449 24.5156 16.1328 24.5282 16.1328 24.5449C16.1328 24.5612 16.2109 24.5742 16.3086 24.5742C16.4062 24.5742 16.4844 24.5872 16.4844 24.6035C16.4844 24.6198 16.5625 24.6328 16.6602 24.6328C16.7578 24.6328 16.8359 24.6458 16.8359 24.6621C16.8359 24.6784 16.9141 24.6914 17.0117 24.6914C17.1094 24.6914 17.1875 24.7044 17.1875 24.7207C17.1875 24.737 17.2656 24.75 17.3633 24.75C17.4609 24.75 17.5391 24.763 17.5391 24.7793C17.5391 24.7956 17.6172 24.8086 17.7148 24.8086C17.8125 24.8086 17.8906 24.8216 17.8906 24.8379C17.8906 24.8546 17.9785 24.8672 18.0957 24.8672C18.2129 24.8672 18.3008 24.8798 18.3008 24.8965C18.3008 24.9132 18.3887 24.9258 18.5059 24.9258C18.623 24.9258 18.7109 24.9383 18.7109 24.9551C18.7109 24.9722 18.8086 24.9844 18.9453 24.9844C19.082 24.9844 19.1797 24.9966 19.1797 25.0137C19.1797 25.0304 19.2676 25.043 19.3848 25.043C19.502 25.043 19.5898 25.0555 19.5898 25.0723C19.5898 25.0896 19.6973 25.1016 19.8535 25.1016C20.0098 25.1016 20.1172 25.1135 20.1172 25.1309C20.1172 25.1484 20.2344 25.1602 20.4102 25.1602C20.5859 25.1602 20.7031 25.1719 20.7031 25.1895C20.7031 25.2074 20.8399 25.2188 21.0547 25.2188C21.2695 25.2188 21.4062 25.2301 21.4062 25.248C21.4062 25.2664 21.5918 25.2773 21.9043 25.2773C22.2168 25.2773 22.4023 25.2883 22.4023 25.3066C22.4023 25.3254 22.666 25.3359 23.1348 25.3359C23.6035 25.3359 23.8672 25.3465 23.8672 25.3652C23.8672 25.3813 23.9199 25.3945 23.9844 25.3945C24.0488 25.3945 24.1016 25.4077 24.1016 25.4238C24.1016 25.4399 24.125 25.4531 24.1537 25.4531C24.1824 25.4531 24.2248 25.4795 24.248 25.5117C24.2713 25.5439 24.3076 25.5703 24.3287 25.5703C24.3787 25.5703 24.5703 25.7619 24.5703 25.8119C24.5703 25.833 24.5967 25.8693 24.6289 25.8926C24.6611 25.9158 24.6875 25.9583 24.6875 25.9869C24.6875 26.0156 24.7007 26.0391 24.7168 26.0391C24.7329 26.0391 24.7461 26.0918 24.7461 26.1562C24.7461 26.2207 24.7593 26.2734 24.7754 26.2734C24.7935 26.2734 24.8047 26.4297 24.8047 26.6836V27.0938H22.168H19.5312V27.9727V28.8516H22.3145C24.1504 28.8516 25.0977 28.8416 25.0977 28.8223C25.0977 28.8052 25.1953 28.793 25.332 28.793C25.4688 28.793 25.5664 28.7808 25.5664 28.7637C25.5664 28.7476 25.6323 28.7344 25.7129 28.7344C25.7935 28.7344 25.8594 28.7212 25.8594 28.7051C25.8594 28.689 25.9121 28.6758 25.9766 28.6758C26.041 28.6758 26.0938 28.6626 26.0938 28.6465C26.0938 28.6304 26.1465 28.6172 26.2109 28.6172C26.2754 28.6172 26.3281 28.604 26.3281 28.5879C26.3281 28.5718 26.3677 28.5586 26.416 28.5586C26.4644 28.5586 26.5039 28.5454 26.5039 28.5293C26.5039 28.5132 26.5435 28.5 26.5918 28.5C26.6401 28.5 26.6797 28.4868 26.6797 28.4707C26.6797 28.4546 26.7061 28.4414 26.7383 28.4414C26.7705 28.4414 26.7969 28.4282 26.7969 28.4121C26.7969 28.396 26.8364 28.3828 26.8848 28.3828C26.9331 28.3828 26.9727 28.3696 26.9727 28.3535C26.9727 28.3374 26.999 28.3242 27.0312 28.3242C27.0635 28.3242 27.0898 28.311 27.0898 28.2949C27.0898 28.2788 27.1162 28.2656 27.1484 28.2656C27.1807 28.2656 27.207 28.2524 27.207 28.2363C27.207 28.2202 27.2334 28.207 27.2656 28.207C27.2979 28.207 27.3242 28.1938 27.3242 28.1777C27.3242 28.1616 27.3506 28.1484 27.3828 28.1484C27.415 28.1484 27.4414 28.1353 27.4414 28.1191C27.4414 28.103 27.4678 28.0898 27.5 28.0898C27.5322 28.0898 27.5586 28.0767 27.5586 28.0605C27.5586 28.0444 27.5821 28.0312 27.6107 28.0312C27.6394 28.0312 27.6818 28.0049 27.7051 27.9727C27.7283 27.9404 27.7679 27.9141 27.793 27.9141C27.8181 27.9141 27.8576 27.8877 27.8809 27.8555C27.9041 27.8232 27.9436 27.7969 27.9688 27.7969C27.9939 27.7969 28.0334 27.7705 28.0566 27.7383C28.0799 27.7061 28.1171 27.6797 28.1393 27.6797C28.1614 27.6797 28.2166 27.6401 28.2617 27.5918C28.3069 27.5435 28.3596 27.5039 28.3789 27.5039C28.3982 27.5039 28.4509 27.4644 28.4961 27.416C28.5412 27.3677 28.5934 27.3281 28.612 27.3281C28.6306 27.3281 28.7235 27.249 28.8184 27.1523C28.9133 27.0557 29.0055 26.9766 29.0234 26.9766C29.0413 26.9766 29.1336 26.8975 29.2285 26.8008C29.3234 26.7041 29.4187 26.625 29.4402 26.625C29.4617 26.625 29.4983 26.5986 29.5215 26.5664C29.5447 26.5342 29.5843 26.5078 29.6094 26.5078C29.6345 26.5078 29.674 26.4814 29.6973 26.4492C29.7205 26.417 29.7629 26.3906 29.7916 26.3906C29.8203 26.3906 29.8438 26.3774 29.8438 26.3613C29.8438 26.3452 29.8701 26.332 29.9023 26.332C29.9346 26.332 29.9609 26.3188 29.9609 26.3027C29.9609 26.2866 29.9873 26.2734 30.0195 26.2734C30.0518 26.2734 30.0781 26.2603 30.0781 26.2441C30.0781 26.228 30.1045 26.2148 30.1367 26.2148C30.1689 26.2148 30.1953 26.2017 30.1953 26.1855C30.1953 26.1694 30.2349 26.1562 30.2832 26.1562C30.3315 26.1562 30.3711 26.1431 30.3711 26.127C30.3711 26.1108 30.437 26.0977 30.5176 26.0977C30.5981 26.0977 30.6641 26.0845 30.6641 26.0684C30.6641 26.0502 30.8203 26.0391 31.0742 26.0391C31.3281 26.0391 31.4844 26.0502 31.4844 26.0684C31.4844 26.0845 31.5503 26.0977 31.6309 26.0977C31.7114 26.0977 31.7773 26.1108 31.7773 26.127C31.7773 26.1431 31.8169 26.1562 31.8652 26.1562C31.9136 26.1562 31.9531 26.1694 31.9531 26.1855C31.9531 26.2017 31.9795 26.2148 32.0117 26.2148C32.0439 26.2148 32.0703 26.228 32.0703 26.2441C32.0703 26.2603 32.107 26.2734 32.1517 26.2734C32.1995 26.2734 32.2506 26.2976 32.2754 26.332C32.2986 26.3643 32.3411 26.3906 32.3698 26.3906C32.4023 26.3906 32.4219 26.4126 32.4219 26.4492C32.4219 26.4827 32.4023 26.5078 32.3763 26.5078C32.3512 26.5078 32.2531 26.5869 32.1582 26.6836C32.0633 26.7803 31.9709 26.8594 31.9528 26.8594C31.9348 26.8594 31.8558 26.9253 31.7773 27.0059C31.6989 27.0864 31.6199 27.1523 31.6019 27.1523C31.5838 27.1523 31.4914 27.2314 31.3965 27.3281C31.3016 27.4248 31.2093 27.5039 31.1914 27.5039C31.1735 27.5039 31.0812 27.583 30.9863 27.6797C30.8914 27.7764 30.799 27.8555 30.781 27.8555C30.7629 27.8555 30.684 27.9214 30.6055 28.002C30.527 28.0825 30.448 28.1484 30.43 28.1484C30.4119 28.1484 30.3195 28.2275 30.2246 28.3242C30.1297 28.4209 30.0373 28.5 30.0192 28.5C30.0012 28.5 29.9222 28.5659 29.8438 28.6465C29.7653 28.7271 29.6863 28.793 29.6683 28.793C29.6502 28.793 29.5578 28.8721 29.4629 28.9688C29.368 29.0654 29.2757 29.1445 29.2578 29.1445C29.2399 29.1445 29.1476 29.2236 29.0527 29.3203C28.9578 29.417 28.8654 29.4961 28.8474 29.4961C28.8293 29.4961 28.7504 29.562 28.6719 29.6426C28.5934 29.7231 28.5144 29.7891 28.4964 29.7891C28.4783 29.7891 28.3859 29.8682 28.291 29.9648C28.1961 30.0615 28.1037 30.1406 28.0856 30.1406C28.0676 30.1406 27.9886 30.2065 27.9102 30.2871C27.8317 30.3677 27.7527 30.4336 27.7347 30.4336C27.7166 30.4336 27.6242 30.5127 27.5293 30.6094C27.4344 30.7061 27.3415 30.7852 27.323 30.7852C27.3044 30.7852 27.2522 30.8247 27.207 30.873C27.1619 30.9214 27.1091 30.9609 27.0898 30.9609C27.0705 30.9609 27.0178 31.0005 26.9727 31.0488C26.9275 31.0972 26.8695 31.1367 26.8437 31.1367C26.8179 31.1367 26.7969 31.1499 26.7969 31.166C26.7969 31.1821 26.7734 31.1953 26.7448 31.1953C26.7161 31.1953 26.6736 31.2217 26.6504 31.2539C26.6272 31.2861 26.5876 31.3125 26.5625 31.3125C26.5374 31.3125 26.4978 31.3389 26.4746 31.3711C26.4514 31.4033 26.4089 31.4297 26.3802 31.4297C26.3516 31.4297 26.3281 31.4429 26.3281 31.459C26.3281 31.4751 26.3018 31.4883 26.2695 31.4883C26.2373 31.4883 26.2109 31.5015 26.2109 31.5176C26.2109 31.5337 26.1846 31.5469 26.1523 31.5469C26.1201 31.5469 26.0938 31.5601 26.0938 31.5762C26.0938 31.5923 26.0674 31.6055 26.0352 31.6055C26.0029 31.6055 25.9766 31.6187 25.9766 31.6348C25.9766 31.6509 25.9502 31.6641 25.918 31.6641C25.8857 31.6641 25.8594 31.6772 25.8594 31.6934C25.8594 31.7095 25.833 31.7227 25.8008 31.7227C25.7686 31.7227 25.7422 31.7358 25.7422 31.752C25.7422 31.7681 25.7026 31.7812 25.6543 31.7812C25.606 31.7812 25.5664 31.7944 25.5664 31.8105C25.5664 31.8267 25.54 31.8398 25.5078 31.8398C25.4756 31.8398 25.4492 31.853 25.4492 31.8691C25.4492 31.8853 25.4097 31.8984 25.3613 31.8984C25.313 31.8984 25.2734 31.9116 25.2734 31.9277C25.2734 31.9438 25.2339 31.957 25.1855 31.957C25.1372 31.957 25.0977 31.9702 25.0977 31.9863C25.0977 32.0024 25.0581 32.0156 25.0098 32.0156C24.9614 32.0156 24.9219 32.0288 24.9219 32.0449C24.9219 32.061 24.8823 32.0742 24.834 32.0742C24.7856 32.0742 24.7461 32.0874 24.7461 32.1035C24.7461 32.1196 24.6934 32.1328 24.6289 32.1328C24.5645 32.1328 24.5117 32.146 24.5117 32.1621C24.5117 32.1782 24.459 32.1914 24.3945 32.1914C24.3301 32.1914 24.2773 32.2046 24.2773 32.2207C24.2773 32.237 24.1992 32.25 24.1016 32.25C24.0039 32.25 23.9258 32.263 23.9258 32.2793C23.9258 32.2964 23.8281 32.3086 23.6914 32.3086C23.5547 32.3086 23.457 32.3208 23.457 32.3379C23.457 32.3565 23.2324 32.3672 22.8418 32.3672C22.4512 32.3672 22.2266 32.3565 22.2266 32.3379C22.2266 32.3205 22.1191 32.3086 21.9629 32.3086C21.8067 32.3086 21.6992 32.2967 21.6992 32.2793C21.6992 32.2632 21.6333 32.25 21.5527 32.25C21.4722 32.25 21.4062 32.2368 21.4062 32.2207C21.4062 32.2044 21.3281 32.1914 21.2305 32.1914C21.1328 32.1914 21.0547 32.1784 21.0547 32.1621C21.0547 32.1454 20.9668 32.1328 20.8496 32.1328C20.7324 32.1328 20.6445 32.1202 20.6445 32.1035C20.6445 32.0872 20.5664 32.0742 20.4688 32.0742C20.3711 32.0742 20.293 32.0612 20.293 32.0449C20.293 32.0286 20.2148 32.0156 20.1172 32.0156C20.0195 32.0156 19.9414 32.0026 19.9414 31.9863C19.9414 31.97 19.8633 31.957 19.7656 31.957C19.668 31.957 19.5898 31.944 19.5898 31.9277C19.5898 31.9116 19.5239 31.8984 19.4434 31.8984C19.3628 31.8984 19.2969 31.8853 19.2969 31.8691C19.2969 31.8524 19.209 31.8398 19.0918 31.8398C18.9746 31.8398 18.8867 31.8273 18.8867 31.8105C18.8867 31.7944 18.8208 31.7812 18.7402 31.7812C18.6597 31.7812 18.5938 31.7681 18.5938 31.752C18.5938 31.7352 18.5059 31.7227 18.3887 31.7227C18.2715 31.7227 18.1836 31.7101 18.1836 31.6934C18.1836 31.6772 18.1177 31.6641 18.0371 31.6641C17.9565 31.6641 17.8906 31.6509 17.8906 31.6348C17.8906 31.6185 17.8125 31.6055 17.7148 31.6055C17.6172 31.6055 17.5391 31.5925 17.5391 31.5762C17.5391 31.5594 17.4512 31.5469 17.334 31.5469C17.2168 31.5469 17.1289 31.5343 17.1289 31.5176C17.1289 31.5015 17.063 31.4883 16.9824 31.4883C16.9019 31.4883 16.8359 31.4751 16.8359 31.459C16.8359 31.4423 16.748 31.4297 16.6309 31.4297C16.5137 31.4297 16.4258 31.4171 16.4258 31.4004C16.4258 31.3843 16.3599 31.3711 16.2793 31.3711C16.1987 31.3711 16.1328 31.3579 16.1328 31.3418C16.1328 31.3255 16.0547 31.3125 15.957 31.3125C15.8594 31.3125 15.7812 31.2995 15.7812 31.2832C15.7812 31.2665 15.6934 31.2539 15.5762 31.2539C15.459 31.2539 15.3711 31.2413 15.3711 31.2246C15.3711 31.2085 15.3052 31.1953 15.2246 31.1953C15.144 31.1953 15.0781 31.1821 15.0781 31.166C15.0781 31.1497 15 31.1367 14.9023 31.1367C14.8047 31.1367 14.7266 31.1237 14.7266 31.1074C14.7266 31.0907 14.6387 31.0781 14.5215 31.0781C14.4043 31.0781 14.3164 31.0656 14.3164 31.0488C14.3164 31.0327 14.2505 31.0195 14.1699 31.0195C14.0894 31.0195 14.0234 31.0063 14.0234 30.9902C14.0234 30.9739 13.9453 30.9609 13.8477 30.9609C13.75 30.9609 13.6719 30.9479 13.6719 30.9316C13.6719 30.9149 13.584 30.9023 13.4668 30.9023C13.3496 30.9023 13.2617 30.8898 13.2617 30.873C13.2617 30.8569 13.1958 30.8438 13.1152 30.8438C13.0347 30.8438 12.9688 30.8306 12.9688 30.8145C12.9688 30.7982 12.8906 30.7852 12.793 30.7852C12.6953 30.7852 12.6172 30.7721 12.6172 30.7559C12.6172 30.7396 12.5391 30.7266 12.4414 30.7266C12.3438 30.7266 12.2656 30.7136 12.2656 30.6973C12.2656 30.6805 12.1777 30.668 12.0605 30.668C11.9434 30.668 11.8555 30.6554 11.8555 30.6387C11.8555 30.6194 10.9863 30.6094 9.30664 30.6094H6.75781V28.8516V27.0938H9.45312C12.0174 27.0938 12.1484 27.0912 12.1484 27.0416C12.1484 27.0129 12.1748 26.9705 12.207 26.9473C12.2393 26.924 12.2656 26.8816 12.2656 26.8529C12.2656 26.8242 12.2788 26.8008 12.2949 26.8008C12.311 26.8008 12.3242 26.7797 12.3242 26.7539C12.3242 26.7282 12.3638 26.6701 12.4121 26.625C12.4604 26.5799 12.5 26.5247 12.5 26.5025C12.5 26.4803 12.5264 26.4432 12.5586 26.4199C12.5908 26.3967 12.6172 26.3571 12.6172 26.332C12.6172 26.3069 12.6436 26.2674 12.6758 26.2441C12.708 26.2209 12.7344 26.184 12.7344 26.1621C12.7344 26.1403 12.7871 26.0717 12.8516 26.0098C12.916 25.9478 12.9688 25.8829 12.9688 25.8653C12.9688 25.8234 13.8083 24.9844 13.8503 24.9844C13.8681 24.9844 13.9197 24.9448 13.9648 24.8965C14.01 24.8481 14.068 24.8086 14.0938 24.8086C14.1196 24.8086 14.1406 24.7954 14.1406 24.7793C14.1406 24.7632 14.167 24.75 14.1992 24.75C14.2314 24.75 14.2578 24.7368 14.2578 24.7207C14.2578 24.7046 14.2842 24.6914 14.3164 24.6914C14.3486 24.6914 14.375 24.6782 14.375 24.6621C14.375 24.646 14.4014 24.6328 14.4336 24.6328C14.4658 24.6328 14.4922 24.6196 14.4922 24.6035C14.4922 24.5874 14.5186 24.5742 14.5508 24.5742C14.583 24.5742 14.6094 24.561 14.6094 24.5449C14.6094 24.5288 14.6621 24.5156 14.7266 24.5156C14.791 24.5156 14.8438 24.5024 14.8438 24.4863C14.8438 24.4681 15.0098 24.457 15.2832 24.457C15.5566 24.457 15.7227 24.4681 15.7227 24.4863Z" fill="#DD2A1B"/>
</svg>
