<svg width="24" height="24" viewBox="0 0 24 24" fill="none" xmlns="http://www.w3.org/2000/svg">
<path d="M22 5.86001L17.405 2.00502L16.12 3.53501L20.715 7.39001L22 5.86001ZM7.88 3.53L6.59501 2L2 5.855L3.28498 7.385L7.88 3.53ZM12.5 8.14001H11V14.14L15.745 16.995L16.5 15.76L12.5 13.39V8.14001H12.5ZM11.995 4.13998C7.02003 4.13998 3.00003 8.16996 3.00003 13.14C3.00003 18.11 7.02003 22.14 11.995 22.14C16.97 22.14 21 18.11 21 13.14C21 8.16996 16.97 4.13998 11.995 4.13998ZM12 20.14C8.13504 20.14 5.00004 17.005 5.00004 13.14C5.00004 9.27504 8.13499 6.14 12 6.14C15.8651 6.14 19 9.27499 19 13.14C19 17.005 15.87 20.14 12 20.14Z" fill="#4087BE"/>
</svg>
