<svg width="22" height="22" viewBox="0 0 22 22" fill="none" xmlns="http://www.w3.org/2000/svg">
<path d="M16.8751 10.4243C18.6448 10.1385 20 8.61391 20 6.78125C20 5.32364 18.7859 4.14453 17.3281 4.14453H16.8008V5.72656C16.8008 6.01729 16.5643 6.25391 16.2734 6.25391C15.9827 6.25391 15.7461 6.01729 15.7461 5.72656C15.7461 3.67171 14.0902 2 12.0547 2L10.6892 2.0011L11.7018 2.91914C11.7038 2.92107 11.9112 3.11017 12.1239 3.41023C12.5325 3.98633 12.5448 4.80893 12.154 5.41098C11.5657 6.31708 11.4993 7.44565 11.9783 8.36328H6.49904L4.38966 11.5273H2V12.582H3.08984V17.8555H4.14453V20H7.30859V17.8555H14.6914V20H17.8555V17.8555H18.9102V12.582H20V11.5273H17.6103L16.8751 10.4243ZM13.0387 5.98515C13.5486 5.19977 13.6315 4.21196 13.2935 3.36835C14.1246 3.81851 14.6914 4.70676 14.6914 5.72656C14.6914 6.59888 15.4011 7.30859 16.2734 7.30859C17.1458 7.30859 17.8555 6.59888 17.8555 5.72656V5.28917C18.4825 5.50848 18.9453 6.10339 18.9453 6.78125C18.9453 8.23515 17.7467 9.41797 16.2734 9.41797H15.4677C14.4005 9.41797 13.4247 8.83267 12.921 7.89059C12.6092 7.30736 12.6543 6.57718 13.0387 5.98515ZM7.06346 9.41797H12.7839C13.5016 10.0859 14.4544 10.4727 15.4677 10.4727H15.6397L16.3428 11.5273H16.149L14.0396 12.582H7.96049L5.85112 11.5273H5.65721L7.06346 9.41797ZM4.14453 16.8008V15.7461H5.72656C6.41403 15.7461 7.00015 16.1869 7.21796 16.8008H4.14453ZM6.25391 18.9453H5.19922V17.8555H6.25391V18.9453ZM16.8008 18.9453H15.7461V17.8555H16.8008V18.9453ZM14.7822 16.8008C14.9998 16.1869 15.586 15.7461 16.2734 15.7461H17.8555V16.8008H14.7822ZM17.8555 14.6914H16.2734C15.0001 14.6914 13.9347 15.5987 13.6897 16.8008H8.31027C8.06528 15.5987 6.99988 14.6914 5.72656 14.6914H4.14453V12.582H5.60214L7.71152 13.6367H14.2886L16.398 12.582H17.8555V14.6914Z" fill="#4087BE"/>
</svg>
