<svg width="30" height="30" viewBox="0 0 30 30" fill="none" xmlns="http://www.w3.org/2000/svg">
<path fill-rule="evenodd" clip-rule="evenodd" d="M20.2928 4.75C18.3391 4.75 16.7501 6.33902 16.7501 8.29273C16.7501 8.76875 16.8445 9.22356 17.0158 9.639L12.639 12.4698C12.014 11.9164 11.1919 11.5795 10.2927 11.5795C8.33902 11.5795 6.75 13.1685 6.75 15.1222C6.75 17.076 8.33902 18.665 10.2927 18.665C11.1676 18.665 11.9696 18.3461 12.588 17.819L16.9178 20.6292C16.8088 20.9695 16.7501 21.3318 16.7501 21.7073C16.7501 23.661 18.3391 25.25 20.2928 25.25C22.2465 25.25 23.8355 23.661 23.8355 21.7073C23.8355 19.7535 22.2465 18.1646 20.2928 18.1646C19.4246 18.1646 18.6282 18.4786 18.0117 18.9985L13.6733 16.1828C13.7787 15.8476 13.8355 15.4912 13.8355 15.1222C13.8355 14.7769 13.7858 14.4427 13.693 14.1265L18.245 11.1823C18.8235 11.5933 19.5306 11.8355 20.2928 11.8355C22.2465 11.8355 23.8355 10.2464 23.8355 8.29273C23.8355 6.33902 22.2465 4.75 20.2928 4.75ZM18.7135 8.29273C18.7135 7.42201 19.4221 6.71345 20.2928 6.71345C21.1635 6.71345 21.8721 7.42201 21.8721 8.29273C21.8721 9.16343 21.1635 9.87201 20.2928 9.87201C19.4221 9.87201 18.7135 9.16346 18.7135 8.29273ZM8.71345 15.1222C8.71345 14.2516 9.42204 13.543 10.2927 13.543C11.1634 13.543 11.872 14.2516 11.872 15.1222C11.872 15.9929 11.1635 16.7015 10.2927 16.7015C9.42201 16.7015 8.71345 15.9929 8.71345 15.1222ZM18.7135 21.7073C18.7135 20.8366 19.4221 20.128 20.2928 20.128C21.1635 20.128 21.8721 20.8366 21.8721 21.7073C21.8721 22.578 21.1635 23.2866 20.2928 23.2866C19.4221 23.2866 18.7135 22.578 18.7135 21.7073Z" fill="#4087BE"/>
</svg>
