<svg width="30" height="30" viewBox="0 0 30 30" fill="none" xmlns="http://www.w3.org/2000/svg">
<path fill-rule="evenodd" clip-rule="evenodd" d="M14.597 5.01953C14.597 5.03092 14.5331 5.03906 14.4435 5.03906C14.3539 5.03906 14.29 5.04721 14.29 5.05859C14.29 5.06934 14.2468 5.07812 14.194 5.07812C14.1413 5.07812 14.0981 5.08691 14.0981 5.09766C14.0981 5.1084 14.0635 5.11719 14.0213 5.11719C13.9791 5.11719 13.9446 5.12598 13.9446 5.13672C13.9446 5.14746 13.9187 5.15625 13.887 5.15625C13.8553 5.15625 13.8294 5.16504 13.8294 5.17578C13.8294 5.18652 13.7949 5.19531 13.7527 5.19531C13.7104 5.19531 13.6759 5.2041 13.6759 5.21484C13.6759 5.22559 13.6586 5.23438 13.6375 5.23438C13.6164 5.23438 13.5991 5.24316 13.5991 5.25391C13.5991 5.26465 13.5732 5.27344 13.5416 5.27344C13.5099 5.27344 13.484 5.28223 13.484 5.29297C13.484 5.30371 13.4667 5.3125 13.4456 5.3125C13.4245 5.3125 13.4072 5.32129 13.4072 5.33203C13.4072 5.34277 13.3813 5.35156 13.3497 5.35156C13.318 5.35156 13.2921 5.36035 13.2921 5.37109C13.2921 5.38184 13.2748 5.39062 13.2537 5.39062C13.2326 5.39062 13.2154 5.39941 13.2154 5.41016C13.2154 5.4209 13.1981 5.42969 13.177 5.42969C13.1559 5.42969 13.1386 5.43848 13.1386 5.44922C13.1386 5.45996 13.1213 5.46875 13.1002 5.46875C13.0791 5.46875 13.0618 5.47754 13.0618 5.48828C13.0618 5.49902 13.0465 5.50781 13.0277 5.50781C13.0089 5.50781 12.9811 5.52539 12.9659 5.54688C12.9507 5.56836 12.9229 5.58594 12.9041 5.58594C12.8853 5.58594 12.8699 5.59473 12.8699 5.60547C12.8699 5.61621 12.8561 5.625 12.8393 5.625C12.8224 5.625 12.7844 5.65137 12.7548 5.68359C12.7252 5.71582 12.6891 5.74219 12.6746 5.74219C12.66 5.74219 12.6357 5.75977 12.6205 5.78125C12.6053 5.80273 12.5811 5.82031 12.5668 5.82031C12.5524 5.82031 12.5075 5.85547 12.467 5.89844C12.4264 5.94141 12.3838 5.97656 12.3723 5.97656C12.345 5.97656 11.9104 6.41887 11.9104 6.44664C11.9104 6.45834 11.8759 6.50168 11.8337 6.54297C11.7915 6.58426 11.7569 6.62838 11.7569 6.64102C11.7569 6.65367 11.731 6.68865 11.6994 6.71875C11.6677 6.74885 11.6418 6.78561 11.6418 6.80039C11.6418 6.8152 11.6245 6.83998 11.6034 6.85547C11.5823 6.87096 11.565 6.89926 11.565 6.91838C11.565 6.93748 11.5564 6.95312 11.5458 6.95312C11.5353 6.95312 11.5267 6.96877 11.5267 6.98787C11.5267 7.00699 11.5094 7.03529 11.4883 7.05078C11.4672 7.06627 11.4499 7.09457 11.4499 7.11369C11.4499 7.13279 11.4413 7.14844 11.4307 7.14844C11.4201 7.14844 11.4115 7.16602 11.4115 7.1875C11.4115 7.20898 11.4029 7.22656 11.3923 7.22656C11.3818 7.22656 11.3731 7.24414 11.3731 7.26562C11.3731 7.28711 11.3645 7.30469 11.3539 7.30469C11.3434 7.30469 11.3348 7.32227 11.3348 7.34375C11.3348 7.36523 11.3261 7.38281 11.3156 7.38281C11.305 7.38281 11.2964 7.40039 11.2964 7.42188C11.2964 7.44336 11.2877 7.46094 11.2772 7.46094C11.2666 7.46094 11.258 7.4873 11.258 7.51953C11.258 7.55176 11.2494 7.57812 11.2388 7.57812C11.2283 7.57812 11.2196 7.5957 11.2196 7.61719C11.2196 7.63867 11.211 7.65625 11.2004 7.65625C11.1899 7.65625 11.1812 7.68262 11.1812 7.71484C11.1812 7.74707 11.1726 7.77344 11.162 7.77344C11.1515 7.77344 11.1429 7.7998 11.1429 7.83203C11.1429 7.86426 11.1342 7.89062 11.1237 7.89062C11.1131 7.89062 11.1045 7.92578 11.1045 7.96875C11.1045 8.01172 11.0958 8.04688 11.0853 8.04688C11.0747 8.04688 11.0661 8.08203 11.0661 8.125C11.0661 8.16797 11.0575 8.20312 11.0469 8.20312C11.0364 8.20312 11.0277 8.24707 11.0277 8.30078C11.0277 8.35449 11.0191 8.39844 11.0085 8.39844C10.9973 8.39844 10.9893 8.46354 10.9893 8.55469C10.9893 8.64584 10.9813 8.71094 10.9701 8.71094C10.958 8.71094 10.951 8.85416 10.951 9.10156C10.951 9.34896 10.958 9.49219 10.9701 9.49219C10.9813 9.49219 10.9893 9.55729 10.9893 9.64844C10.9893 9.73959 10.9973 9.80469 11.0085 9.80469C11.0191 9.80469 11.0277 9.84863 11.0277 9.90234C11.0277 9.95605 11.0364 10 11.0469 10C11.0575 10 11.0661 10.0352 11.0661 10.0781C11.0661 10.1211 11.0747 10.1562 11.0853 10.1562C11.0958 10.1562 11.1045 10.1826 11.1045 10.2148C11.1045 10.2471 11.1131 10.2734 11.1237 10.2734C11.1342 10.2734 11.1429 10.2998 11.1429 10.332C11.1429 10.3643 11.1515 10.3906 11.162 10.3906C11.1726 10.3906 11.1812 10.417 11.1812 10.4492C11.1812 10.4814 11.1899 10.5078 11.2004 10.5078C11.211 10.5078 11.2196 10.5342 11.2196 10.5664C11.2196 10.5986 11.2283 10.625 11.2388 10.625C11.2494 10.625 11.258 10.6426 11.258 10.6641C11.258 10.6855 11.2666 10.7031 11.2772 10.7031C11.2877 10.7031 11.2964 10.7295 11.2964 10.7617C11.2964 10.7939 11.305 10.8203 11.3156 10.8203C11.3261 10.8203 11.3348 10.8379 11.3348 10.8594C11.3348 10.8809 11.3434 10.8984 11.3539 10.8984C11.3645 10.8984 11.3731 10.916 11.3731 10.9375C11.3731 10.959 11.3818 10.9766 11.3923 10.9766C11.4029 10.9766 11.4115 10.9922 11.4115 11.0113C11.4115 11.0304 11.4288 11.0587 11.4499 11.0742C11.471 11.0897 11.4883 11.118 11.4883 11.1371C11.4883 11.1562 11.4969 11.1719 11.5075 11.1719C11.518 11.1719 11.5267 11.1875 11.5267 11.2066C11.5267 11.2257 11.5439 11.254 11.565 11.2695C11.5861 11.285 11.6034 11.3133 11.6034 11.3324C11.6034 11.3515 11.612 11.3672 11.6226 11.3672C11.6332 11.3672 11.6418 11.3812 11.6418 11.3984C11.6418 11.4156 11.6677 11.4543 11.6994 11.4844C11.731 11.5145 11.7569 11.5495 11.7569 11.5621C11.7569 11.5747 11.7915 11.6189 11.8337 11.6602C11.8759 11.7014 11.9104 11.7448 11.9104 11.7565C11.9104 11.7843 12.345 12.2266 12.3723 12.2266C12.3838 12.2266 12.4264 12.2617 12.467 12.3047C12.5075 12.3477 12.5504 12.3828 12.5623 12.3828C12.5741 12.3828 12.605 12.4044 12.6309 12.4308L12.678 12.4787V13.8565C12.678 14.7621 12.6715 15.2344 12.6588 15.2344C12.6483 15.2344 12.6397 15.2607 12.6397 15.293C12.6397 15.3252 12.631 15.3516 12.6205 15.3516C12.6099 15.3516 12.6013 15.3672 12.6013 15.3863C12.6013 15.4054 12.584 15.4337 12.5629 15.4492C12.5418 15.4647 12.5245 15.4888 12.5245 15.5029C12.5245 15.5384 12.3592 15.7031 12.3235 15.7031C12.3074 15.7031 12.2942 15.7119 12.2942 15.7227C12.2942 15.7334 12.277 15.7422 12.2559 15.7422C12.2348 15.7422 12.2175 15.751 12.2175 15.7617C12.2175 15.7725 12.1916 15.7812 12.1599 15.7812C12.1283 15.7812 12.1023 15.79 12.1023 15.8008C12.1023 15.8115 12.0592 15.8203 12.0064 15.8203C11.9536 15.8203 11.9104 15.8291 11.9104 15.8398C11.9104 15.8507 11.8593 15.8594 11.7953 15.8594C11.7313 15.8594 11.6802 15.868 11.6802 15.8789C11.6802 15.8896 11.637 15.8984 11.5842 15.8984C11.5314 15.8984 11.4883 15.9072 11.4883 15.918C11.4883 15.9288 11.4371 15.9375 11.3731 15.9375C11.3092 15.9375 11.258 15.9462 11.258 15.957C11.258 15.9679 11.2068 15.9766 11.1429 15.9766C11.0789 15.9766 11.0277 15.9852 11.0277 15.9961C11.0277 16.0068 10.9845 16.0156 10.9318 16.0156C10.879 16.0156 10.8358 16.0244 10.8358 16.0352C10.8358 16.046 10.7846 16.0547 10.7207 16.0547C10.6567 16.0547 10.6055 16.0634 10.6055 16.0742C10.6055 16.0851 10.5544 16.0938 10.4904 16.0938C10.4264 16.0938 10.3753 16.1024 10.3753 16.1133C10.3753 16.124 10.3321 16.1328 10.2793 16.1328C10.2265 16.1328 10.1834 16.1416 10.1834 16.1523C10.1834 16.1632 10.1322 16.1719 10.0682 16.1719C10.0043 16.1719 9.95309 16.1805 9.95309 16.1914C9.95309 16.2023 9.90191 16.2109 9.83795 16.2109C9.77399 16.2109 9.72281 16.2196 9.72281 16.2305C9.72281 16.2412 9.67964 16.25 9.62687 16.25C9.57409 16.25 9.53092 16.2588 9.53092 16.2695C9.53092 16.2804 9.47974 16.2891 9.41578 16.2891C9.35182 16.2891 9.30064 16.2977 9.30064 16.3086C9.30064 16.3195 9.24946 16.3281 9.1855 16.3281C9.12154 16.3281 9.07036 16.3368 9.07036 16.3477C9.07036 16.3584 9.02719 16.3672 8.97441 16.3672C8.92164 16.3672 8.87846 16.376 8.87846 16.3867C8.87846 16.3976 8.82729 16.4062 8.76333 16.4062C8.69937 16.4062 8.64819 16.4149 8.64819 16.4258C8.64819 16.4366 8.59701 16.4453 8.53305 16.4453C8.46909 16.4453 8.41791 16.454 8.41791 16.4648C8.41791 16.4756 8.37473 16.4844 8.32196 16.4844C8.26919 16.4844 8.22601 16.4932 8.22601 16.5039C8.22601 16.5148 8.17483 16.5234 8.11087 16.5234C8.04691 16.5234 7.99574 16.5321 7.99574 16.543C7.99574 16.5538 7.94456 16.5625 7.8806 16.5625C7.81664 16.5625 7.76546 16.5712 7.76546 16.582C7.76546 16.5928 7.72228 16.6016 7.66951 16.6016C7.61674 16.6016 7.57356 16.6104 7.57356 16.6211C7.57356 16.632 7.52238 16.6406 7.45842 16.6406C7.39446 16.6406 7.34328 16.6493 7.34328 16.6602C7.34328 16.6709 7.30011 16.6797 7.24733 16.6797C7.19456 16.6797 7.15139 16.6885 7.15139 16.6992C7.15139 16.7101 7.10021 16.7188 7.03625 16.7188C6.97229 16.7188 6.92111 16.7274 6.92111 16.7383C6.92111 16.7491 6.86993 16.7578 6.80597 16.7578C6.74201 16.7578 6.69083 16.7665 6.69083 16.7773C6.69083 16.7881 6.64765 16.7969 6.59488 16.7969C6.54211 16.7969 6.49893 16.8057 6.49893 16.8164C6.49893 16.8273 6.44775 16.8359 6.3838 16.8359C6.31984 16.8359 6.26866 16.8446 6.26866 16.8555C6.26866 16.8662 6.22055 16.875 6.16175 16.875C6.09466 16.875 6.04462 16.8854 6.02742 16.9029C6.00395 16.9268 6 17.2865 6 19.4029V21.875H15H24V19.4029C24 17.2865 23.996 16.9268 23.9726 16.9029C23.9554 16.8854 23.9053 16.875 23.8382 16.875C23.7795 16.875 23.7313 16.8662 23.7313 16.8555C23.7313 16.8447 23.6882 16.8359 23.6354 16.8359C23.5826 16.8359 23.5394 16.8271 23.5394 16.8164C23.5394 16.8055 23.4883 16.7969 23.4243 16.7969C23.3603 16.7969 23.3092 16.7882 23.3092 16.7773C23.3092 16.7665 23.258 16.7578 23.194 16.7578C23.1301 16.7578 23.0789 16.7491 23.0789 16.7383C23.0789 16.7275 23.0357 16.7188 22.9829 16.7188C22.9302 16.7188 22.887 16.71 22.887 16.6992C22.887 16.6884 22.8358 16.6797 22.7719 16.6797C22.7079 16.6797 22.6567 16.671 22.6567 16.6602C22.6567 16.6493 22.6055 16.6406 22.5416 16.6406C22.4776 16.6406 22.4264 16.632 22.4264 16.6211C22.4264 16.6102 22.3753 16.6016 22.3113 16.6016C22.2473 16.6016 22.1962 16.5929 22.1962 16.582C22.1962 16.5713 22.153 16.5625 22.1002 16.5625C22.0474 16.5625 22.0043 16.5537 22.0043 16.543C22.0043 16.5321 21.9531 16.5234 21.8891 16.5234C21.8252 16.5234 21.774 16.5148 21.774 16.5039C21.774 16.4932 21.7308 16.4844 21.678 16.4844C21.6253 16.4844 21.5821 16.4756 21.5821 16.4648C21.5821 16.454 21.5309 16.4453 21.467 16.4453C21.403 16.4453 21.3518 16.4366 21.3518 16.4258C21.3518 16.4149 21.3006 16.4062 21.2367 16.4062C21.1727 16.4062 21.1215 16.3976 21.1215 16.3867C21.1215 16.376 21.0784 16.3672 21.0256 16.3672C20.9728 16.3672 20.9296 16.3584 20.9296 16.3477C20.9296 16.3368 20.8785 16.3281 20.8145 16.3281C20.7505 16.3281 20.6994 16.3195 20.6994 16.3086C20.6994 16.2977 20.6482 16.2891 20.5842 16.2891C20.5203 16.2891 20.4691 16.2804 20.4691 16.2695C20.4691 16.2587 20.4179 16.25 20.3539 16.25C20.29 16.25 20.2388 16.2413 20.2388 16.2305C20.2388 16.2197 20.1956 16.2109 20.1429 16.2109C20.0901 16.2109 20.0469 16.2021 20.0469 16.1914C20.0469 16.1805 19.9957 16.1719 19.9318 16.1719C19.8678 16.1719 19.8166 16.1632 19.8166 16.1523C19.8166 16.1415 19.7655 16.1328 19.7015 16.1328C19.6375 16.1328 19.5864 16.1241 19.5864 16.1133C19.5864 16.1025 19.5432 16.0938 19.4904 16.0938C19.4376 16.0938 19.3945 16.085 19.3945 16.0742C19.3945 16.0634 19.3433 16.0547 19.2793 16.0547C19.2154 16.0547 19.1642 16.046 19.1642 16.0352C19.1642 16.0243 19.113 16.0156 19.049 16.0156C18.9851 16.0156 18.9339 16.007 18.9339 15.9961C18.9339 15.9854 18.8907 15.9766 18.838 15.9766C18.7852 15.9766 18.742 15.9678 18.742 15.957C18.742 15.9462 18.6908 15.9375 18.6269 15.9375C18.5629 15.9375 18.5117 15.9288 18.5117 15.918C18.5117 15.9071 18.4605 15.8984 18.3966 15.8984C18.3326 15.8984 18.2815 15.8898 18.2815 15.8789C18.2815 15.8682 18.2383 15.8594 18.1855 15.8594C18.1327 15.8594 18.0896 15.8506 18.0896 15.8398C18.0896 15.829 18.0384 15.8203 17.9744 15.8203C17.9105 15.8203 17.8593 15.8116 17.8593 15.8008C17.8593 15.79 17.8334 15.7812 17.8017 15.7812C17.77 15.7812 17.7441 15.7725 17.7441 15.7617C17.7441 15.751 17.7269 15.7422 17.7058 15.7422C17.6846 15.7422 17.6674 15.7334 17.6674 15.7227C17.6674 15.7119 17.6542 15.7031 17.6381 15.7031C17.6024 15.7031 17.4371 15.5384 17.4371 15.5029C17.4371 15.4888 17.4198 15.4647 17.3987 15.4492C17.3776 15.4337 17.3603 15.4054 17.3603 15.3863C17.3603 15.3672 17.3517 15.3516 17.3412 15.3516C17.3306 15.3516 17.322 15.3164 17.322 15.2734C17.322 15.2305 17.3133 15.1953 17.3028 15.1953C17.2902 15.1953 17.2836 14.7295 17.2836 13.837V12.4787L17.3307 12.4308C17.3566 12.4044 17.3875 12.3828 17.3994 12.3828C17.4112 12.3828 17.4541 12.3477 17.4947 12.3047C17.5352 12.2617 17.5778 12.2266 17.5893 12.2266C17.6165 12.2266 18.0128 11.8234 18.0128 11.7958C18.0128 11.7843 18.056 11.732 18.1087 11.6797C18.1615 11.6274 18.2047 11.5728 18.2047 11.5583C18.2047 11.5439 18.222 11.5194 18.2431 11.5039C18.2642 11.4884 18.2815 11.4621 18.2815 11.4453C18.2815 11.4286 18.2987 11.4022 18.3198 11.3867C18.3409 11.3712 18.3582 11.3449 18.3582 11.3281C18.3582 11.3114 18.3755 11.285 18.3966 11.2695C18.4177 11.254 18.435 11.2257 18.435 11.2066C18.435 11.1875 18.4436 11.1719 18.4542 11.1719C18.4647 11.1719 18.4733 11.1562 18.4733 11.1371C18.4733 11.118 18.4906 11.0897 18.5117 11.0742C18.5328 11.0587 18.5501 11.0304 18.5501 11.0113C18.5501 10.9922 18.5587 10.9766 18.5693 10.9766C18.5799 10.9766 18.5885 10.959 18.5885 10.9375C18.5885 10.916 18.5971 10.8984 18.6077 10.8984C18.6182 10.8984 18.6269 10.8809 18.6269 10.8594C18.6269 10.8379 18.6355 10.8203 18.6461 10.8203C18.6566 10.8203 18.6652 10.7939 18.6652 10.7617C18.6652 10.7295 18.6739 10.7031 18.6844 10.7031C18.695 10.7031 18.7036 10.6855 18.7036 10.6641C18.7036 10.6426 18.7123 10.625 18.7228 10.625C18.7334 10.625 18.742 10.5986 18.742 10.5664C18.742 10.5342 18.7506 10.5078 18.7612 10.5078C18.7717 10.5078 18.7804 10.4814 18.7804 10.4492C18.7804 10.417 18.789 10.3906 18.7996 10.3906C18.8101 10.3906 18.8188 10.3643 18.8188 10.332C18.8188 10.2998 18.8274 10.2734 18.838 10.2734C18.8485 10.2734 18.8571 10.2471 18.8571 10.2148C18.8571 10.1826 18.8658 10.1562 18.8763 10.1562C18.8869 10.1562 18.8955 10.1211 18.8955 10.0781C18.8955 10.0352 18.9042 10 18.9147 10C18.9254 10 18.9339 9.94791 18.9339 9.88281C18.9339 9.81771 18.9424 9.76562 18.9531 9.76562C18.964 9.76562 18.9723 9.70703 18.9723 9.62891C18.9723 9.55078 18.9805 9.49219 18.9915 9.49219C19.0036 9.49219 19.0107 9.34896 19.0107 9.10156C19.0107 8.85416 19.0036 8.71094 18.9915 8.71094C18.9805 8.71094 18.9723 8.65234 18.9723 8.57422C18.9723 8.49609 18.964 8.4375 18.9531 8.4375C18.9424 8.4375 18.9339 8.38541 18.9339 8.32031C18.9339 8.25521 18.9254 8.20312 18.9147 8.20312C18.9042 8.20312 18.8955 8.16797 18.8955 8.125C18.8955 8.08203 18.8869 8.04688 18.8763 8.04688C18.8658 8.04688 18.8571 8.02051 18.8571 7.98828C18.8571 7.95605 18.8485 7.92969 18.838 7.92969C18.8274 7.92969 18.8188 7.90332 18.8188 7.87109C18.8188 7.83887 18.8101 7.8125 18.7996 7.8125C18.789 7.8125 18.7804 7.78613 18.7804 7.75391C18.7804 7.72168 18.7717 7.69531 18.7612 7.69531C18.7506 7.69531 18.742 7.66895 18.742 7.63672C18.742 7.60449 18.7334 7.57812 18.7228 7.57812C18.7123 7.57812 18.7036 7.56055 18.7036 7.53906C18.7036 7.51758 18.695 7.5 18.6844 7.5C18.6739 7.5 18.6652 7.47363 18.6652 7.44141C18.6652 7.40918 18.6566 7.38281 18.6461 7.38281C18.6355 7.38281 18.6269 7.36523 18.6269 7.34375C18.6269 7.32227 18.6182 7.30469 18.6077 7.30469C18.5971 7.30469 18.5885 7.28711 18.5885 7.26562C18.5885 7.24414 18.5799 7.22656 18.5693 7.22656C18.5587 7.22656 18.5501 7.21092 18.5501 7.19182C18.5501 7.1727 18.5328 7.14439 18.5117 7.12891C18.4906 7.11342 18.4733 7.08512 18.4733 7.066C18.4733 7.04689 18.4647 7.03125 18.4542 7.03125C18.4436 7.03125 18.435 7.01561 18.435 6.9965C18.435 6.97738 18.4177 6.94908 18.3966 6.93359C18.3755 6.91811 18.3582 6.89174 18.3582 6.875C18.3582 6.85826 18.3409 6.83189 18.3198 6.81641C18.2987 6.80092 18.2815 6.77613 18.2815 6.76133C18.2815 6.74654 18.2555 6.70979 18.2239 6.67969C18.1922 6.64959 18.1663 6.61461 18.1663 6.60195C18.1663 6.58932 18.1318 6.5452 18.0896 6.50391C18.0473 6.46262 18.0128 6.41926 18.0128 6.40754C18.0128 6.37988 17.6552 6.01562 17.628 6.01562C17.6166 6.01562 17.5653 5.97168 17.5139 5.91797C17.4625 5.86426 17.4088 5.82031 17.3946 5.82031C17.3804 5.82031 17.3564 5.80273 17.3412 5.78125C17.3259 5.75977 17.3 5.74219 17.2836 5.74219C17.2671 5.74219 17.2412 5.72461 17.226 5.70312C17.2108 5.68164 17.1849 5.66406 17.1684 5.66406C17.152 5.66406 17.1261 5.64648 17.1109 5.625C17.0957 5.60352 17.0679 5.58594 17.0491 5.58594C17.0303 5.58594 17.0149 5.57715 17.0149 5.56641C17.0149 5.55566 16.9996 5.54688 16.9808 5.54688C16.962 5.54688 16.9342 5.5293 16.919 5.50781C16.9038 5.48633 16.876 5.46875 16.8572 5.46875C16.8384 5.46875 16.823 5.45996 16.823 5.44922C16.823 5.43848 16.8058 5.42969 16.7846 5.42969C16.7635 5.42969 16.7463 5.4209 16.7463 5.41016C16.7463 5.39941 16.729 5.39062 16.7079 5.39062C16.6868 5.39062 16.6695 5.38184 16.6695 5.37109C16.6695 5.36035 16.6436 5.35156 16.6119 5.35156C16.5803 5.35156 16.5544 5.34277 16.5544 5.33203C16.5544 5.32129 16.5371 5.3125 16.516 5.3125C16.4949 5.3125 16.4776 5.30371 16.4776 5.29297C16.4776 5.28223 16.4517 5.27344 16.42 5.27344C16.3884 5.27344 16.3625 5.26465 16.3625 5.25391C16.3625 5.24316 16.3452 5.23438 16.3241 5.23438C16.303 5.23438 16.2857 5.22559 16.2857 5.21484C16.2857 5.2041 16.2598 5.19531 16.2281 5.19531C16.1965 5.19531 16.1706 5.18652 16.1706 5.17578C16.1706 5.16504 16.136 5.15625 16.0938 5.15625C16.0516 5.15625 16.0171 5.14746 16.0171 5.13672C16.0171 5.12598 15.9825 5.11719 15.9403 5.11719C15.8981 5.11719 15.8635 5.1084 15.8635 5.09766C15.8635 5.08691 15.8204 5.07812 15.7676 5.07812C15.7148 5.07812 15.6716 5.06934 15.6716 5.05859C15.6716 5.04721 15.6077 5.03906 15.5181 5.03906C15.4286 5.03906 15.3646 5.03092 15.3646 5.01953C15.3646 5.00717 15.2239 5 14.9808 5C14.7377 5 14.597 5.00717 14.597 5.01953ZM15.2878 6.58203C15.2878 6.59289 15.339 6.60156 15.403 6.60156C15.4669 6.60156 15.5181 6.61023 15.5181 6.62109C15.5181 6.63184 15.5527 6.64062 15.5949 6.64062C15.6371 6.64062 15.6716 6.64941 15.6716 6.66016C15.6716 6.6709 15.6975 6.67969 15.7292 6.67969C15.7609 6.67969 15.7868 6.68848 15.7868 6.69922C15.7868 6.70996 15.8127 6.71875 15.8443 6.71875C15.876 6.71875 15.9019 6.72754 15.9019 6.73828C15.9019 6.74902 15.9192 6.75781 15.9403 6.75781C15.9614 6.75781 15.9787 6.7666 15.9787 6.77734C15.9787 6.78809 15.9959 6.79688 16.0171 6.79688C16.0382 6.79688 16.0554 6.80566 16.0554 6.81641C16.0554 6.82715 16.0727 6.83594 16.0938 6.83594C16.1149 6.83594 16.1322 6.84473 16.1322 6.85547C16.1322 6.86621 16.1495 6.875 16.1706 6.875C16.1917 6.875 16.209 6.88379 16.209 6.89453C16.209 6.90527 16.2243 6.91406 16.2431 6.91406C16.2619 6.91406 16.2897 6.93164 16.3049 6.95312C16.3201 6.97461 16.346 6.99219 16.3625 6.99219C16.3789 6.99219 16.4048 7.00977 16.42 7.03125C16.4353 7.05273 16.4588 7.07031 16.4725 7.07031C16.5047 7.07031 16.9765 7.55053 16.9765 7.58338C16.9765 7.59723 16.9938 7.62123 17.0149 7.63672C17.036 7.65221 17.0533 7.67857 17.0533 7.69531C17.0533 7.71205 17.0706 7.73842 17.0917 7.75391C17.1128 7.76939 17.1301 7.7977 17.1301 7.81682C17.1301 7.83592 17.1387 7.85156 17.1493 7.85156C17.1598 7.85156 17.1684 7.86914 17.1684 7.89062C17.1684 7.91211 17.1771 7.92969 17.1876 7.92969C17.1982 7.92969 17.2068 7.94727 17.2068 7.96875C17.2068 7.99023 17.2155 8.00781 17.226 8.00781C17.2366 8.00781 17.2452 8.02539 17.2452 8.04688C17.2452 8.06836 17.2538 8.08594 17.2644 8.08594C17.2749 8.08594 17.2836 8.10352 17.2836 8.125C17.2836 8.14648 17.2922 8.16406 17.3028 8.16406C17.3133 8.16406 17.322 8.19043 17.322 8.22266C17.322 8.25488 17.3306 8.28125 17.3412 8.28125C17.3517 8.28125 17.3603 8.30762 17.3603 8.33984C17.3603 8.37207 17.369 8.39844 17.3795 8.39844C17.3901 8.39844 17.3987 8.43359 17.3987 8.47656C17.3987 8.51953 17.4074 8.55469 17.4179 8.55469C17.4286 8.55469 17.4371 8.60678 17.4371 8.67188C17.4371 8.73697 17.4456 8.78906 17.4563 8.78906C17.4683 8.78906 17.4755 8.90625 17.4755 9.10156C17.4755 9.29688 17.4683 9.41406 17.4563 9.41406C17.4456 9.41406 17.4371 9.46615 17.4371 9.53125C17.4371 9.59635 17.4286 9.64844 17.4179 9.64844C17.4074 9.64844 17.3987 9.68359 17.3987 9.72656C17.3987 9.76953 17.3901 9.80469 17.3795 9.80469C17.369 9.80469 17.3603 9.83105 17.3603 9.86328C17.3603 9.89551 17.3517 9.92188 17.3412 9.92188C17.3306 9.92188 17.322 9.94824 17.322 9.98047C17.322 10.0127 17.3133 10.0391 17.3028 10.0391C17.2922 10.0391 17.2836 10.0566 17.2836 10.0781C17.2836 10.0996 17.2749 10.1172 17.2644 10.1172C17.2538 10.1172 17.2452 10.1348 17.2452 10.1562C17.2452 10.1777 17.2366 10.1953 17.226 10.1953C17.2155 10.1953 17.2068 10.2129 17.2068 10.2344C17.2068 10.2559 17.1982 10.2734 17.1876 10.2734C17.1771 10.2734 17.1684 10.291 17.1684 10.3125C17.1684 10.334 17.1598 10.3516 17.1493 10.3516C17.1387 10.3516 17.1301 10.3672 17.1301 10.3863C17.1301 10.4054 17.1128 10.4337 17.0917 10.4492C17.0706 10.4647 17.0533 10.4911 17.0533 10.5078C17.0533 10.5246 17.036 10.5509 17.0149 10.5664C16.9938 10.5819 16.9765 10.6059 16.9765 10.6197C16.9765 10.6526 16.5047 11.1328 16.4725 11.1328C16.4588 11.1328 16.4353 11.1504 16.42 11.1719C16.4048 11.1934 16.3789 11.2109 16.3625 11.2109C16.346 11.2109 16.3201 11.2285 16.3049 11.25C16.2897 11.2715 16.2619 11.2891 16.2431 11.2891C16.2243 11.2891 16.209 11.2979 16.209 11.3086C16.209 11.3193 16.1936 11.3281 16.1748 11.3281C16.156 11.3281 16.1282 11.3457 16.113 11.3672C16.0978 11.3887 16.07 11.4062 16.0512 11.4062C16.0324 11.4062 16.0171 11.415 16.0171 11.4258C16.0171 11.4365 15.9998 11.4453 15.9787 11.4453C15.9576 11.4453 15.9403 11.4541 15.9403 11.4648C15.9403 11.4756 15.923 11.4844 15.9019 11.4844C15.8808 11.4844 15.8635 11.4932 15.8635 11.5039C15.8635 11.5146 15.85 11.5234 15.8334 11.5234C15.7458 11.5234 15.7484 11.4648 15.7484 13.4459C15.7484 14.6773 15.7549 15.3125 15.7676 15.3125C15.7783 15.3125 15.7868 15.3646 15.7868 15.4297C15.7868 15.4948 15.7953 15.5469 15.806 15.5469C15.8165 15.5469 15.8252 15.582 15.8252 15.625C15.8252 15.668 15.8338 15.7031 15.8443 15.7031C15.8549 15.7031 15.8635 15.7295 15.8635 15.7617C15.8635 15.7939 15.8722 15.8203 15.8827 15.8203C15.8933 15.8203 15.9019 15.8467 15.9019 15.8789C15.9019 15.9111 15.9106 15.9375 15.9211 15.9375C15.9317 15.9375 15.9403 15.9551 15.9403 15.9766C15.9403 15.998 15.9489 16.0156 15.9595 16.0156C15.97 16.0156 15.9787 16.0332 15.9787 16.0547C15.9787 16.0762 15.9873 16.0938 15.9979 16.0938C16.0084 16.0938 16.0171 16.1113 16.0171 16.1328C16.0171 16.1543 16.0257 16.1719 16.0362 16.1719C16.0468 16.1719 16.0554 16.1875 16.0554 16.2066C16.0554 16.2257 16.0727 16.254 16.0938 16.2695C16.1149 16.285 16.1322 16.3114 16.1322 16.3281C16.1322 16.3449 16.1495 16.3712 16.1706 16.3867C16.1917 16.4022 16.209 16.4262 16.209 16.4401C16.209 16.4708 16.6413 16.9141 16.6712 16.9141C16.6829 16.9141 16.7167 16.9404 16.7463 16.9727C16.7758 17.0049 16.8139 17.0312 16.8307 17.0312C16.8476 17.0312 16.8614 17.04 16.8614 17.0508C16.8614 17.0615 16.8787 17.0703 16.8998 17.0703C16.9209 17.0703 16.9382 17.0791 16.9382 17.0898C16.9382 17.1006 16.9554 17.1094 16.9765 17.1094C16.9977 17.1094 17.0149 17.1182 17.0149 17.1289C17.0149 17.1396 17.0322 17.1484 17.0533 17.1484C17.0744 17.1484 17.0917 17.1572 17.0917 17.168C17.0917 17.1787 17.109 17.1875 17.1301 17.1875C17.1512 17.1875 17.1684 17.1963 17.1684 17.207C17.1684 17.2178 17.1857 17.2266 17.2068 17.2266C17.2279 17.2266 17.2452 17.2354 17.2452 17.2461C17.2452 17.2568 17.2797 17.2656 17.322 17.2656C17.3642 17.2656 17.3987 17.2744 17.3987 17.2852C17.3987 17.2959 17.4246 17.3047 17.4563 17.3047C17.488 17.3047 17.5139 17.3135 17.5139 17.3242C17.5139 17.335 17.557 17.3438 17.6098 17.3438C17.6626 17.3438 17.7058 17.3525 17.7058 17.3633C17.7058 17.3741 17.7569 17.3828 17.8209 17.3828C17.8849 17.3828 17.936 17.3915 17.936 17.4023C17.936 17.4132 17.9872 17.4219 18.0512 17.4219C18.1151 17.4219 18.1663 17.4305 18.1663 17.4414C18.1663 17.4521 18.2095 17.4609 18.2623 17.4609C18.315 17.4609 18.3582 17.4697 18.3582 17.4805C18.3582 17.4913 18.4094 17.5 18.4733 17.5C18.5373 17.5 18.5885 17.5087 18.5885 17.5195C18.5885 17.5304 18.6397 17.5391 18.7036 17.5391C18.7676 17.5391 18.8188 17.5477 18.8188 17.5586C18.8188 17.5693 18.8619 17.5781 18.9147 17.5781C18.9675 17.5781 19.0107 17.5869 19.0107 17.5977C19.0107 17.6085 19.0618 17.6172 19.1258 17.6172C19.1898 17.6172 19.2409 17.6259 19.2409 17.6367C19.2409 17.6476 19.2921 17.6562 19.3561 17.6562C19.42 17.6562 19.4712 17.6649 19.4712 17.6758C19.4712 17.6865 19.5144 17.6953 19.5672 17.6953C19.6199 17.6953 19.6631 17.7041 19.6631 17.7148C19.6631 17.7257 19.7143 17.7344 19.7783 17.7344C19.8422 17.7344 19.8934 17.743 19.8934 17.7539C19.8934 17.7648 19.9446 17.7734 20.0085 17.7734C20.0725 17.7734 20.1237 17.7821 20.1237 17.793C20.1237 17.8037 20.1668 17.8125 20.2196 17.8125C20.2724 17.8125 20.3156 17.8213 20.3156 17.832C20.3156 17.8429 20.3667 17.8516 20.4307 17.8516C20.4947 17.8516 20.5458 17.8602 20.5458 17.8711C20.5458 17.882 20.597 17.8906 20.661 17.8906C20.7249 17.8906 20.7761 17.8993 20.7761 17.9102C20.7761 17.9209 20.8193 17.9297 20.8721 17.9297C20.9248 17.9297 20.968 17.9385 20.968 17.9492C20.968 17.9601 21.0192 17.9688 21.0832 17.9688C21.1471 17.9688 21.1983 17.9774 21.1983 17.9883C21.1983 17.9991 21.2495 18.0078 21.3134 18.0078C21.3774 18.0078 21.4286 18.0165 21.4286 18.0273C21.4286 18.0382 21.4798 18.0469 21.5437 18.0469C21.6077 18.0469 21.6588 18.0555 21.6588 18.0664C21.6588 18.0771 21.702 18.0859 21.7548 18.0859C21.8076 18.0859 21.8507 18.0947 21.8507 18.1055C21.8507 18.1163 21.9019 18.125 21.9659 18.125C22.0298 18.125 22.081 18.1337 22.081 18.1445C22.081 18.1554 22.1322 18.1641 22.1962 18.1641C22.2601 18.1641 22.3113 18.1727 22.3113 18.1836C22.3113 18.1943 22.3458 18.2031 22.3881 18.2031H22.4648V19.2578V20.3125H15H7.53518V19.2578V18.2031H7.63113C7.6839 18.2031 7.72708 18.1943 7.72708 18.1836C7.72708 18.1729 7.77026 18.1641 7.82303 18.1641C7.8758 18.1641 7.91898 18.1553 7.91898 18.1445C7.91898 18.1337 7.97016 18.125 8.03412 18.125C8.09807 18.125 8.14925 18.1163 8.14925 18.1055C8.14925 18.0946 8.20043 18.0859 8.26439 18.0859C8.32835 18.0859 8.37953 18.0773 8.37953 18.0664C8.37953 18.0557 8.42271 18.0469 8.47548 18.0469C8.52825 18.0469 8.57143 18.0381 8.57143 18.0273C8.57143 18.0165 8.62261 18.0078 8.68657 18.0078C8.75053 18.0078 8.80171 17.9991 8.80171 17.9883C8.80171 17.9774 8.85288 17.9688 8.91684 17.9688C8.9808 17.9688 9.03198 17.9601 9.03198 17.9492C9.03198 17.9385 9.07516 17.9297 9.12793 17.9297C9.1807 17.9297 9.22388 17.9209 9.22388 17.9102C9.22388 17.8993 9.27506 17.8906 9.33902 17.8906C9.40298 17.8906 9.45416 17.882 9.45416 17.8711C9.45416 17.8604 9.49733 17.8516 9.55011 17.8516C9.60288 17.8516 9.64606 17.8428 9.64606 17.832C9.64606 17.8212 9.69723 17.8125 9.76119 17.8125C9.82515 17.8125 9.87633 17.8038 9.87633 17.793C9.87633 17.7821 9.92751 17.7734 9.99147 17.7734C10.0554 17.7734 10.1066 17.7648 10.1066 17.7539C10.1066 17.7432 10.1498 17.7344 10.2026 17.7344C10.2553 17.7344 10.2985 17.7256 10.2985 17.7148C10.2985 17.704 10.3497 17.6953 10.4136 17.6953C10.4776 17.6953 10.5288 17.6866 10.5288 17.6758C10.5288 17.6649 10.58 17.6562 10.6439 17.6562C10.7079 17.6562 10.7591 17.6476 10.7591 17.6367C10.7591 17.626 10.8022 17.6172 10.855 17.6172C10.9078 17.6172 10.951 17.6084 10.951 17.5977C10.951 17.5868 11.0021 17.5781 11.0661 17.5781C11.1301 17.5781 11.1812 17.5695 11.1812 17.5586C11.1812 17.5477 11.2324 17.5391 11.2964 17.5391C11.3603 17.5391 11.4115 17.5304 11.4115 17.5195C11.4115 17.5088 11.4547 17.5 11.5075 17.5C11.5602 17.5 11.6034 17.4912 11.6034 17.4805C11.6034 17.4696 11.6546 17.4609 11.7186 17.4609C11.7825 17.4609 11.8337 17.4523 11.8337 17.4414C11.8337 17.4305 11.8849 17.4219 11.9488 17.4219C12.0128 17.4219 12.064 17.4132 12.064 17.4023C12.064 17.3916 12.1071 17.3828 12.1599 17.3828C12.2127 17.3828 12.2559 17.374 12.2559 17.3633C12.2559 17.3525 12.299 17.3438 12.3518 17.3438C12.4046 17.3438 12.4478 17.335 12.4478 17.3242C12.4478 17.3135 12.4823 17.3047 12.5245 17.3047C12.5667 17.3047 12.6013 17.2959 12.6013 17.2852C12.6013 17.2744 12.6272 17.2656 12.6588 17.2656C12.6905 17.2656 12.7164 17.2568 12.7164 17.2461C12.7164 17.2354 12.7337 17.2266 12.7548 17.2266C12.7759 17.2266 12.7932 17.2178 12.7932 17.207C12.7932 17.1963 12.8104 17.1875 12.8316 17.1875C12.8527 17.1875 12.8699 17.1787 12.8699 17.168C12.8699 17.1572 12.8872 17.1484 12.9083 17.1484C12.9294 17.1484 12.9467 17.1396 12.9467 17.1289C12.9467 17.1182 12.964 17.1094 12.9851 17.1094C13.0062 17.1094 13.0235 17.1006 13.0235 17.0898C13.0235 17.0791 13.0407 17.0703 13.0618 17.0703C13.0829 17.0703 13.1002 17.0615 13.1002 17.0508C13.1002 17.04 13.1156 17.0312 13.1344 17.0312C13.1531 17.0312 13.1809 17.0137 13.1962 16.9922C13.2114 16.9707 13.235 16.9531 13.2486 16.9531C13.2808 16.9531 13.7527 16.4729 13.7527 16.4401C13.7527 16.4262 13.7699 16.4022 13.791 16.3867C13.8122 16.3712 13.8294 16.3449 13.8294 16.3281C13.8294 16.3114 13.8467 16.285 13.8678 16.2695C13.8889 16.254 13.9062 16.2257 13.9062 16.2066C13.9062 16.1875 13.9148 16.1719 13.9254 16.1719C13.9359 16.1719 13.9446 16.1543 13.9446 16.1328C13.9446 16.1113 13.9532 16.0938 13.9638 16.0938C13.9743 16.0938 13.9829 16.0762 13.9829 16.0547C13.9829 16.0332 13.9916 16.0156 14.0021 16.0156C14.0127 16.0156 14.0213 15.998 14.0213 15.9766C14.0213 15.9551 14.03 15.9375 14.0405 15.9375C14.0511 15.9375 14.0597 15.9111 14.0597 15.8789C14.0597 15.8467 14.0683 15.8203 14.0789 15.8203C14.0894 15.8203 14.0981 15.7939 14.0981 15.7617C14.0981 15.7295 14.1067 15.7031 14.1173 15.7031C14.1278 15.7031 14.1365 15.668 14.1365 15.625C14.1365 15.582 14.1451 15.5469 14.1557 15.5469C14.1662 15.5469 14.1748 15.5029 14.1748 15.4492C14.1748 15.3955 14.1835 15.3516 14.194 15.3516C14.2067 15.3516 14.2132 14.7098 14.2132 13.4654C14.2132 11.4635 14.2158 11.5234 14.1282 11.5234C14.1116 11.5234 14.0981 11.5146 14.0981 11.5039C14.0981 11.4932 14.0808 11.4844 14.0597 11.4844C14.0386 11.4844 14.0213 11.4756 14.0213 11.4648C14.0213 11.4541 14.006 11.4453 13.9872 11.4453C13.9684 11.4453 13.9406 11.4277 13.9254 11.4062C13.9102 11.3848 13.8823 11.3672 13.8636 11.3672C13.8448 11.3672 13.8294 11.3584 13.8294 11.3477C13.8294 11.3369 13.8122 11.3281 13.791 11.3281C13.7699 11.3281 13.7527 11.3193 13.7527 11.3086C13.7527 11.2979 13.7373 11.2891 13.7185 11.2891C13.6997 11.2891 13.6719 11.2715 13.6567 11.25C13.6415 11.2285 13.6156 11.2109 13.5991 11.2109C13.5827 11.2109 13.5568 11.1934 13.5416 11.1719C13.5264 11.1504 13.5028 11.1328 13.4892 11.1328C13.4569 11.1328 12.9851 10.6526 12.9851 10.6197C12.9851 10.6059 12.9678 10.5819 12.9467 10.5664C12.9256 10.5509 12.9083 10.5246 12.9083 10.5078C12.9083 10.4911 12.891 10.4647 12.8699 10.4492C12.8488 10.4337 12.8316 10.4054 12.8316 10.3863C12.8316 10.3672 12.8229 10.3516 12.8124 10.3516C12.8018 10.3516 12.7932 10.334 12.7932 10.3125C12.7932 10.291 12.7845 10.2734 12.774 10.2734C12.7634 10.2734 12.7548 10.2559 12.7548 10.2344C12.7548 10.2129 12.7462 10.1953 12.7356 10.1953C12.7251 10.1953 12.7164 10.1777 12.7164 10.1562C12.7164 10.1348 12.7078 10.1172 12.6972 10.1172C12.6867 10.1172 12.678 10.0996 12.678 10.0781C12.678 10.0566 12.6694 10.0391 12.6588 10.0391C12.6483 10.0391 12.6397 10.0127 12.6397 9.98047C12.6397 9.94824 12.631 9.92188 12.6205 9.92188C12.6099 9.92188 12.6013 9.89551 12.6013 9.86328C12.6013 9.83105 12.5926 9.80469 12.5821 9.80469C12.5715 9.80469 12.5629 9.76953 12.5629 9.72656C12.5629 9.68359 12.5543 9.64844 12.5437 9.64844C12.533 9.64844 12.5245 9.59635 12.5245 9.53125C12.5245 9.46615 12.516 9.41406 12.5053 9.41406C12.4933 9.41406 12.4861 9.29688 12.4861 9.10156C12.4861 8.90625 12.4933 8.78906 12.5053 8.78906C12.516 8.78906 12.5245 8.73697 12.5245 8.67188C12.5245 8.60678 12.533 8.55469 12.5437 8.55469C12.5543 8.55469 12.5629 8.51953 12.5629 8.47656C12.5629 8.43359 12.5715 8.39844 12.5821 8.39844C12.5926 8.39844 12.6013 8.37207 12.6013 8.33984C12.6013 8.30762 12.6099 8.28125 12.6205 8.28125C12.631 8.28125 12.6397 8.25488 12.6397 8.22266C12.6397 8.19043 12.6483 8.16406 12.6588 8.16406C12.6694 8.16406 12.678 8.14648 12.678 8.125C12.678 8.10352 12.6867 8.08594 12.6972 8.08594C12.7078 8.08594 12.7164 8.06836 12.7164 8.04688C12.7164 8.02539 12.7251 8.00781 12.7356 8.00781C12.7462 8.00781 12.7548 7.99023 12.7548 7.96875C12.7548 7.94727 12.7634 7.92969 12.774 7.92969C12.7845 7.92969 12.7932 7.91211 12.7932 7.89062C12.7932 7.86914 12.8018 7.85156 12.8124 7.85156C12.8229 7.85156 12.8316 7.83592 12.8316 7.81682C12.8316 7.7977 12.8488 7.76939 12.8699 7.75391C12.891 7.73842 12.9083 7.71205 12.9083 7.69531C12.9083 7.67857 12.9256 7.65221 12.9467 7.63672C12.9678 7.62123 12.9851 7.59723 12.9851 7.58338C12.9851 7.55053 13.4569 7.07031 13.4892 7.07031C13.5028 7.07031 13.5264 7.05273 13.5416 7.03125C13.5568 7.00977 13.5827 6.99219 13.5991 6.99219C13.6156 6.99219 13.6415 6.97461 13.6567 6.95312C13.6719 6.93164 13.6997 6.91406 13.7185 6.91406C13.7373 6.91406 13.7527 6.90527 13.7527 6.89453C13.7527 6.88379 13.7699 6.875 13.791 6.875C13.8122 6.875 13.8294 6.86621 13.8294 6.85547C13.8294 6.84473 13.8467 6.83594 13.8678 6.83594C13.8889 6.83594 13.9062 6.82715 13.9062 6.81641C13.9062 6.80566 13.9235 6.79688 13.9446 6.79688C13.9657 6.79688 13.9829 6.78809 13.9829 6.77734C13.9829 6.7666 14.0002 6.75781 14.0213 6.75781C14.0424 6.75781 14.0597 6.74902 14.0597 6.73828C14.0597 6.72754 14.0856 6.71875 14.1173 6.71875C14.1489 6.71875 14.1748 6.70996 14.1748 6.69922C14.1748 6.68848 14.2007 6.67969 14.2324 6.67969C14.2641 6.67969 14.29 6.6709 14.29 6.66016C14.29 6.64941 14.3245 6.64062 14.3667 6.64062C14.409 6.64062 14.4435 6.63184 14.4435 6.62109C14.4435 6.61023 14.4947 6.60156 14.5586 6.60156C14.6226 6.60156 14.6738 6.59289 14.6738 6.58203C14.6738 6.56982 14.7889 6.5625 14.9808 6.5625C15.1727 6.5625 15.2878 6.56982 15.2878 6.58203ZM7.53518 24.2188V25H14.9808H22.4264V24.2188V23.4375H14.9808H7.53518V24.2188Z" fill="#4087BE"/>
</svg>
