<svg width="30" height="30" viewBox="0 0 30 30" fill="none" xmlns="http://www.w3.org/2000/svg">
<path d="M17.3715 13.6514L19.6235 11.4973L19.7135 11.4112H19.5889H8.99983H8.94983V11.4612V14.2805H7.05V11.4612C7.05 10.4345 7.92086 9.59835 8.99983 9.59835H19.5889H19.7139L19.6234 9.51215L17.3615 7.35805L18.709 6.06919L22.674 9.86175L17.3715 13.6514ZM17.3715 13.6514L18.709 14.9308L22.674 11.1383L17.3715 13.6514ZM22.6741 9.86185C23.0412 10.2152 23.0412 10.7848 22.6741 11.1382V9.86185Z" fill="#4087BE" stroke="white" stroke-width="0.1"/>
<path d="M20.9996 20.5888H21.0496V20.5388V17.7195H22.9494V20.5388C22.9494 21.5655 22.0786 22.4016 20.9996 22.4016H10.4105H10.2863L10.3759 22.4877L12.6281 24.6514L11.2904 25.9308L7.32546 22.1383C7.32543 22.1382 7.3254 22.1382 7.32537 22.1382C6.95821 21.7848 6.95821 21.2152 7.32537 20.8618C7.3254 20.8618 7.32543 20.8618 7.32546 20.8617L11.2904 17.0692L12.628 18.3486L10.376 20.5027L10.2859 20.5888H10.4105H20.9996Z" fill="#4087BE" stroke="white" stroke-width="0.1"/>
</svg>
