<svg width="30" height="30" viewBox="0 0 30 30" fill="none" xmlns="http://www.w3.org/2000/svg">
<g opacity="0.5">
<path fill-rule="evenodd" clip-rule="evenodd" d="M23.9569 12.9601C24.3783 13.6256 24.7225 14.3342 24.9832 15.0731C25.0059 15.1383 25.0059 15.4093 24.9816 15.4741C24.721 16.2128 24.3769 16.9212 23.9557 17.5867C22.0921 20.5495 18.8438 22.452 15.2696 22.5438H15.2579C15.2152 22.5457 15.1073 22.5457 14.9997 22.5457C14.9337 22.5457 14.8678 22.545 14.8168 22.5444C14.7845 22.5441 14.7581 22.5438 14.7414 22.5438H14.7297C11.1563 22.452 7.90837 20.5499 6.0436 17.5871C5.62201 16.9216 5.27781 16.213 5.01731 15.4741C4.99423 15.4093 4.99423 15.1383 5.01731 15.0731C5.27806 14.3341 5.62238 13.6254 6.04399 12.9597C7.90837 9.99732 11.1563 8.09515 14.7301 8.00341H14.7418C14.8279 8 14.9136 8 15 8C15.0865 8 15.173 8 15.2583 8.00379H15.27C18.8442 8.09553 22.0921 9.9977 23.9569 12.9601ZM22.7213 16.8581L22.7232 16.8547L22.7244 16.8532C23.0402 16.3524 23.3057 15.8234 23.5175 15.2736C23.3047 14.7235 23.0379 14.1944 22.7209 13.6936V13.6906C21.9272 12.4269 20.827 11.37 19.516 10.6118C18.2173 9.86335 16.7429 9.44832 15.2325 9.40597H15.2199C15.1358 9.40294 15.0634 9.40294 15.0008 9.40294C14.9719 9.40294 14.9411 9.40358 14.9079 9.40428C14.8692 9.40509 14.8274 9.40597 14.7817 9.40597H14.7684C13.2578 9.44826 11.7833 9.86329 10.4845 10.6118C9.17337 11.37 8.07322 12.4268 7.27961 13.6906L7.27726 13.6936C6.96036 14.1945 6.69361 14.7235 6.48064 15.2736C6.69353 15.8238 6.96028 16.353 7.27726 16.8539L7.27961 16.857C8.07322 18.1207 9.17337 19.1776 10.4845 19.9358C11.7833 20.6843 13.2578 21.0993 14.7684 21.1416H14.7805H15H15.2199H15.2317C16.7424 21.0994 18.2171 20.6843 19.516 19.9358C20.8271 19.1779 21.9273 18.1214 22.7213 16.8581ZM12.8955 12.2197C13.5185 11.8164 14.2509 11.6011 15.0002 11.6011C16.0049 11.6011 16.9684 11.9878 17.6788 12.6761C18.3893 13.3644 18.7884 14.2979 18.7884 15.2713C18.7884 15.9972 18.5662 16.7068 18.15 17.3103C17.7337 17.9139 17.1421 18.3843 16.4498 18.6621C15.7576 18.9398 14.9959 19.0125 14.2611 18.8709C13.5263 18.7293 12.8513 18.3797 12.3215 17.8665C11.7917 17.3532 11.4309 16.6992 11.2847 15.9873C11.1385 15.2754 11.2136 14.5374 11.5003 13.8668C11.787 13.1961 12.2725 12.6229 12.8955 12.2197ZM13.6998 17.1567C14.0847 17.4059 14.5372 17.5389 15.0002 17.5389V17.5404C15.621 17.5397 16.2161 17.3003 16.6549 16.8749C17.0937 16.4495 17.3404 15.8727 17.3407 15.2713C17.3407 14.8228 17.2034 14.3844 16.9462 14.0115C16.6891 13.6386 16.3235 13.3479 15.8958 13.1763C15.4682 13.0047 14.9976 12.9598 14.5435 13.0473C14.0895 13.1348 13.6725 13.3507 13.3451 13.6678C13.0178 13.985 12.7949 14.389 12.7046 14.8289C12.6143 15.2688 12.6606 15.7247 12.8378 16.1391C13.0149 16.5534 13.3149 16.9075 13.6998 17.1567Z" fill="#5F5F5F"/>
</g>
</svg>
