<svg width="50" height="50" viewBox="0 0 50 50" fill="none" xmlns="http://www.w3.org/2000/svg">
<path d="M29.9129 35.2798H33.2716C34.8101 35.2798 36.0617 34.0281 36.0617 32.4896L36.0709 24.165C36.0715 22.9036 35.4671 21.7825 34.4726 21.1024C34.4514 21.0181 32.2075 16.7272 32.2075 16.7272C31.5467 15.4708 30.3151 14.7207 28.913 14.7207H20.0708C18.6698 14.7207 17.4386 15.47 16.7775 16.7251C16.4197 17.4044 14.4548 21.1412 14.4548 21.1412C13.444 21.8216 12.842 22.9396 12.8414 24.2129L12.8398 32.4896C12.8398 34.0281 14.0915 35.2798 15.63 35.2798H18.9886C20.5272 35.2798 21.7788 34.0281 21.7788 32.4896V30.8107H27.1227V32.4896C27.1227 34.0281 28.3744 35.2798 29.9129 35.2798ZM33.8351 32.4896C33.8351 32.7951 33.577 33.0532 33.2716 33.0532H29.9129C29.6074 33.0532 29.3493 32.7951 29.3493 32.4896V30.8107H32.3415C32.8725 30.8107 33.3775 30.6984 33.8351 30.4976V32.4896ZM18.7475 17.7627C19.0245 17.2369 19.4945 16.9473 20.0708 16.9473H28.913C29.4897 16.9473 29.9599 17.2372 30.2368 17.7636C30.2368 17.7636 31.4138 20.0023 31.4673 20.1038C28.6046 19.5419 25.1773 19.4072 24.4575 19.4072C21.924 19.4072 19.4942 19.6454 17.5341 20.0686C17.5341 20.0687 18.39 18.4415 18.7475 17.7627ZM19.5523 32.4896C19.5523 32.7951 19.2942 33.0532 18.9887 33.0532H15.6301C15.3246 33.0532 15.0665 32.7951 15.0665 32.4896V30.4951C15.5338 30.7013 16.0425 30.8107 16.5677 30.8107H19.5523V32.4896H19.5523ZM16.5676 28.584C16.1681 28.584 15.7914 28.4275 15.5068 28.1432C15.2227 27.8593 15.0663 27.4838 15.0665 27.0859L15.0681 24.2142C15.0684 23.5785 15.4215 23.0586 16.0127 22.8233C17.8841 22.0785 21.0411 21.634 24.4576 21.634C25.7806 21.634 30.4116 21.9089 32.8368 22.7508C33.4586 22.9666 33.8447 23.5081 33.8443 24.1639L33.8352 27.2353C33.7605 27.9913 33.1192 28.5842 32.3416 28.5842H16.5676V28.584Z" fill="#DD2A1B"/>
<path d="M18.4375 24.1309C17.8243 24.1309 17.3242 24.6309 17.3242 25.2441C17.3242 25.8573 17.8243 26.3574 18.4375 26.3574C19.0507 26.3574 19.5508 25.8573 19.5508 25.2441C19.5508 24.6309 19.0507 24.1309 18.4375 24.1309Z" fill="#DD2A1B"/>
<path d="M30.4609 24.1309C29.8477 24.1309 29.3477 24.6309 29.3477 25.2441C29.3477 25.8573 29.8477 26.3574 30.4609 26.3574C31.0741 26.3574 31.5742 25.8573 31.5742 25.2441C31.5742 24.6309 31.0741 24.1309 30.4609 24.1309Z" fill="#DD2A1B"/>
<path d="M26.0078 24.1309H22.8906C22.2758 24.1309 21.7773 24.6293 21.7773 25.2442C21.7773 25.859 22.2758 26.3575 22.8906 26.3575H26.0078C26.6227 26.3575 27.1211 25.859 27.1211 25.2442C27.1211 24.6293 26.6227 24.1309 26.0078 24.1309Z" fill="#DD2A1B"/>
<path d="M8.51938 20.964C8.6627 20.964 8.80847 20.9361 8.94897 20.8773L12.4546 19.4093C13.0217 19.1718 13.2889 18.5196 13.0514 17.9524C12.8139 17.3851 12.1616 17.1182 11.5945 17.3555L10.5968 17.7733C13.122 12.0142 18.8435 8.22661 25.2099 8.22661C32.485 8.22661 38.8379 13.1458 40.6591 20.1892C40.789 20.6911 41.2409 21.0241 41.7362 21.0241C41.8285 21.0241 41.9222 21.0125 42.0158 20.9884C42.611 20.8344 42.9688 20.2271 42.8149 19.6319C40.7395 11.6056 33.5001 6 25.2099 6C17.9186 6 11.3703 10.3599 8.51515 16.9782L8.1393 16.0876C7.90023 15.5212 7.24724 15.2558 6.68072 15.4948C6.11427 15.7339 5.84886 16.3869 6.08784 16.9533L7.49314 20.2833C7.6726 20.7084 8.08512 20.964 8.51938 20.964Z" fill="#DD2A1B"/>
<path d="M43.8643 33.0464L42.459 29.7164C42.2796 29.2912 41.8671 29.0356 41.4328 29.0356C41.2895 29.0356 41.1437 29.0635 41.0032 29.1223L37.4976 30.5903C36.9305 30.8278 36.6632 31.4801 36.9007 32.0473C37.1383 32.6145 37.7906 32.8815 38.3577 32.6442L39.3554 32.2264C36.8302 37.9855 31.1087 41.773 24.7422 41.773C17.4671 41.773 11.1142 36.8539 9.29302 29.8105C9.16321 29.3086 8.71128 28.9756 8.21593 28.9756C8.12367 28.9756 8.02993 28.9872 7.93642 29.0113C7.34117 29.1652 6.98335 29.7726 7.13728 30.3678C9.21264 38.394 16.452 43.9996 24.7422 43.9996C32.0336 43.9996 38.5819 39.6397 41.437 33.0213L41.8129 33.912C42.0519 34.4784 42.7049 34.7438 43.2715 34.5048C43.8378 34.2659 44.1032 33.6129 43.8643 33.0464Z" fill="#DD2A1B"/>
</svg>
