<svg width="50" height="50" viewBox="0 0 50 50" fill="none" xmlns="http://www.w3.org/2000/svg">
<path d="M21.3845 33.6712C24.3888 32.6168 27.1173 30.7296 28.7528 28.8921L39.1734 18.577V22.2812L34.258 27.7612V31.2067H36.5987V28.6798L41.514 23.1998V15.2791L41.1127 14.887L41.8831 14.1167C42.9638 13.036 43.1905 11.4205 42.5649 10.1145L45 7.64274L43.3327 6L40.9079 8.46134C39.6207 7.84864 38.0094 8.05984 36.9178 9.15144L36.0903 9.97893L35.2533 9.16088L21.788 22.6262C20.1698 24.2444 18.8641 26.159 17.9336 28.2419H5V44.6264H21.3845V33.6712ZM38.5729 10.8065C39.0303 10.3491 39.7705 10.3491 40.228 10.8065C40.6843 11.2628 40.6843 12.0053 40.228 12.4616L39.4386 13.251L37.7645 11.615L38.5729 10.8065ZM35.2628 12.4616L38.6263 15.8251L27.0977 27.237L23.7925 23.9319L35.2628 12.4616ZM19.0438 42.2857H7.34064V30.5817H17.0683C16.8505 31.3178 16.6775 32.0684 16.5522 32.8272L12.6851 36.6944L10.2025 34.2118L8.5474 35.8668L12.6851 40.0045L18.2073 34.4823C18.488 34.4362 18.7669 34.3835 19.0439 34.3251V42.2857H19.0438ZM22.2125 25.662L25.3743 28.8238C23.5328 30.2927 21.4129 31.3384 19.1322 31.9046C19.7014 29.635 20.7581 27.4946 22.2125 25.662Z" fill="#DD2A1B"/>
</svg>
