<svg width="50" height="50" viewBox="0 0 50 50" fill="none" xmlns="http://www.w3.org/2000/svg">
<path d="M39.8266 12.8357H34.6691C33.3634 9.42693 30.0577 7 26.1953 7H22.6096C18.7472 7 15.4415 9.42693 14.1358 12.8357H10.1641C8.41941 12.8357 7 14.2551 7 15.9998V26.8983C7 28.643 8.41941 30.0624 10.1641 30.0624H11.4297V41.9453C11.4297 42.5278 11.9019 43 12.4844 43H14.5233C14.8916 43 15.2332 42.8079 15.4246 42.4931L17.6045 38.9069C17.7048 38.7418 17.7579 38.5523 17.7579 38.3591V30.0624H19.0235C20.7682 30.0624 22.1876 28.643 22.1876 26.8983V15.9998C22.1876 14.2551 20.7682 12.8357 19.0235 12.8357H16.4473C17.614 10.6221 19.9383 9.10939 22.6096 9.10939H26.1953C28.8666 9.10939 31.1909 10.6221 32.3576 12.8357H28.5957C26.8456 12.8357 25.4219 14.2594 25.4219 16.0094V34.3419C25.4219 36.092 26.8456 37.5157 28.5957 37.5157H39.8266C41.5766 37.5157 43.0003 36.092 43.0003 34.3419V16.0094C43.0003 14.2594 41.5766 12.8357 39.8266 12.8357ZM15.6485 38.0637L13.9301 40.8906H13.5391V30.0624H15.6485V38.0637ZM19.0235 14.9451C19.6051 14.9451 20.0782 15.4182 20.0782 15.9998V26.8983C20.0782 27.4799 19.6051 27.953 19.0235 27.953H10.1641C9.58253 27.953 9.10939 27.4799 9.10939 26.8983V15.9998C9.10939 15.4182 9.58253 14.9451 10.1641 14.9451C10.1641 14.9451 13.6086 14.9451 13.6089 14.9451C13.5633 14.9463 13.5632 15.4619 13.5595 15.5241C13.5428 15.7997 13.5391 16.0754 13.5391 16.3514C13.5391 16.9339 14.0113 17.4061 14.5938 17.4061C15.1763 17.4061 15.6485 16.9339 15.6485 16.3514C15.6485 15.8792 15.6637 15.4123 15.74 14.9451H19.0235ZM40.8909 34.3419C40.8909 34.9288 40.4135 35.4062 39.8266 35.4062H28.5957C28.0088 35.4062 27.5314 34.9288 27.5314 34.3419V16.0094C27.5314 15.4225 28.0088 14.9451 28.5957 14.9451C28.5957 14.9451 33.065 14.9451 33.065 14.9451C33.1635 14.9454 33.1565 16.1991 33.1565 16.3513C33.1565 16.9338 33.6287 17.406 34.2112 17.406C34.7936 17.406 35.2658 16.9338 35.2658 16.3513C35.2658 15.8805 35.2542 15.413 35.1961 14.9451H39.8266C40.4135 14.9451 40.891 15.4225 40.891 16.0094V34.3419H40.8909Z" fill="#DD2A1B"/>
<path d="M36.6719 19.5156H31.75C30.5869 19.5156 29.6406 20.4619 29.6406 21.625V31.1876C29.6406 32.3507 30.5869 33.297 31.75 33.297H36.6719C37.835 33.297 38.7813 32.3507 38.7813 31.1876V21.625C38.7813 20.4619 37.835 19.5156 36.6719 19.5156ZM36.6719 21.625V25.3516H31.7499L31.7498 21.625H36.6719ZM31.75 31.1876L31.7499 27.461H36.6719V31.1876H31.75Z" fill="#DD2A1B"/>
<path d="M11.2188 20.5703C11.2188 21.1528 11.691 21.625 12.2734 21.625H16.9141C17.4966 21.625 17.9688 21.1528 17.9688 20.5703C17.9688 19.9878 17.4966 19.5156 16.9141 19.5156H12.2734C11.691 19.5156 11.2188 19.9878 11.2188 20.5703Z" fill="#DD2A1B"/>
<path d="M16.9141 23.7344H12.2734C11.691 23.7344 11.2188 24.2066 11.2188 24.7891C11.2188 25.3716 11.691 25.8438 12.2734 25.8438H16.9141C17.4966 25.8438 17.9688 25.3716 17.9688 24.7891C17.9688 24.2066 17.4966 23.7344 16.9141 23.7344Z" fill="#DD2A1B"/>
</svg>
