<svg width="40" height="40" viewBox="0 0 40 40" fill="none" xmlns="http://www.w3.org/2000/svg">
<path d="M31.6499 24.0097L29.6672 14.2533C29.2838 12.3681 27.6096 11 25.6859 11H14.3141C12.3906 11 10.7162 12.3681 10.3332 14.2533L8.35015 24.0097C7.53638 24.5575 7 25.4868 7 26.5391V29.5859H33V26.5391C33 25.4868 32.4636 24.5575 31.6499 24.0097ZM12.3235 14.6578C12.5152 13.7154 13.3523 13.0312 14.3141 13.0312H25.6859C26.6477 13.0312 27.4848 13.7154 27.6765 14.6578L29.4721 23.4922H10.5279L12.3235 14.6578ZM30.9688 27.5547H9.03125V26.5391C9.03125 25.979 9.48685 25.5234 10.0469 25.5234H29.9531C30.5131 25.5234 30.9688 25.979 30.9688 26.5391V27.5547ZM18.7305 18.4141H21.2695V20.9531H18.7305V18.4141ZM23.8086 18.4141H26.3477V20.9531H23.8086V18.4141ZM23.8086 15.875V18.4141H21.2695V15.875H23.8086ZM13.6523 18.4141H16.1914V20.9531H13.6523V18.4141ZM18.7305 15.875V18.4141H16.1914V15.875H18.7305Z" fill="#DD2A1B"/>
</svg>
