<svg width="40" height="40" viewBox="0 0 40 40" fill="none" xmlns="http://www.w3.org/2000/svg">
<path fill-rule="evenodd" clip-rule="evenodd" d="M6 7.67969C6 8.11392 6.01022 8.35937 6.02832 8.35937C6.04407 8.35937 6.05664 8.43491 6.05664 8.5293C6.05664 8.62369 6.06921 8.69922 6.08496 8.69922C6.10054 8.69922 6.11328 8.7502 6.11328 8.8125C6.11328 8.8748 6.12603 8.92578 6.1416 8.92578C6.15718 8.92578 6.16992 8.96401 6.16992 9.01074C6.16992 9.05747 6.18267 9.0957 6.19824 9.0957C6.21382 9.0957 6.22656 9.13394 6.22656 9.18066C6.22656 9.22739 6.23931 9.26562 6.25488 9.26562C6.27046 9.26562 6.2832 9.30386 6.2832 9.35059C6.2832 9.39731 6.29595 9.43555 6.31152 9.43555C6.3271 9.43555 6.33984 9.46104 6.33984 9.49219C6.33984 9.52334 6.35259 9.54883 6.36816 9.54883C6.38374 9.54883 6.39648 9.57432 6.39648 9.60547C6.39648 9.63662 6.40923 9.66211 6.4248 9.66211C6.44038 9.66211 6.45312 9.6876 6.45312 9.71875C6.45312 9.7499 6.46587 9.77539 6.48145 9.77539C6.49702 9.77539 6.50977 9.80088 6.50977 9.83203C6.50977 9.86318 6.52251 9.88867 6.53809 9.88867C6.55366 9.88867 6.56641 9.91136 6.56641 9.93905C6.56641 9.96678 6.59189 10.0078 6.62305 10.0303C6.6542 10.0527 6.67969 10.091 6.67969 10.1152C6.67969 10.1395 6.70518 10.1777 6.73633 10.2002C6.76748 10.2227 6.79297 10.2586 6.79297 10.2801C6.79297 10.3015 6.8312 10.3548 6.87793 10.3984C6.92466 10.4421 6.96289 10.492 6.96289 10.5093C6.96289 10.5503 7.54737 11.1348 7.5884 11.1348C7.60571 11.1348 7.65558 11.173 7.69922 11.2197C7.74286 11.2665 7.79616 11.3047 7.8176 11.3047C7.83906 11.3047 7.875 11.3302 7.89746 11.3613C7.91992 11.3925 7.95815 11.418 7.98242 11.418C8.00669 11.418 8.04492 11.4435 8.06738 11.4746C8.08984 11.5058 8.13088 11.5312 8.1586 11.5312C8.1863 11.5312 8.20898 11.544 8.20898 11.5596C8.20898 11.5751 8.23447 11.5879 8.26562 11.5879C8.29678 11.5879 8.32227 11.6006 8.32227 11.6162C8.32227 11.6318 8.34775 11.6445 8.37891 11.6445C8.41006 11.6445 8.43555 11.6573 8.43555 11.6729C8.43555 11.6884 8.46104 11.7012 8.49219 11.7012C8.52334 11.7012 8.54883 11.7139 8.54883 11.7295C8.54883 11.7451 8.58706 11.7578 8.63379 11.7578C8.68052 11.7578 8.71875 11.7706 8.71875 11.7861C8.71875 11.8017 8.74424 11.8145 8.77539 11.8145C8.80654 11.8145 8.83203 11.8272 8.83203 11.8428C8.83203 11.8583 8.87026 11.8711 8.91699 11.8711C8.96372 11.8711 9.00195 11.8838 9.00195 11.8994C9.00195 11.915 9.05293 11.9277 9.11523 11.9277C9.17754 11.9277 9.22852 11.9405 9.22852 11.9561C9.22852 11.9716 9.27403 11.9844 9.32965 11.9844C9.41846 11.9844 9.51172 12.0341 9.51172 12.0815C9.51172 12.0904 8.72158 12.0977 7.75586 12.0977H6V20.5937V29.0898H7.72754H9.45508V29.3164C9.45508 29.4486 9.46689 29.543 9.4834 29.543C9.49897 29.543 9.51172 29.6067 9.51172 29.6846C9.51172 29.7624 9.52446 29.8262 9.54004 29.8262C9.55562 29.8262 9.56836 29.8771 9.56836 29.9395C9.56836 30.0018 9.5811 30.0527 9.59668 30.0527C9.61226 30.0527 9.625 30.091 9.625 30.1377C9.625 30.1844 9.63774 30.2227 9.65332 30.2227C9.6689 30.2227 9.68164 30.2609 9.68164 30.3076C9.68164 30.3543 9.69438 30.3926 9.70996 30.3926C9.72554 30.3926 9.73828 30.4181 9.73828 30.4492C9.73828 30.4804 9.75103 30.5059 9.7666 30.5059C9.78218 30.5059 9.79492 30.5313 9.79492 30.5625C9.79492 30.5937 9.80767 30.6191 9.82324 30.6191C9.83882 30.6191 9.85156 30.6446 9.85156 30.6758C9.85156 30.7069 9.86431 30.7324 9.87988 30.7324C9.89546 30.7324 9.9082 30.7551 9.9082 30.7828C9.9082 30.8105 9.93369 30.8516 9.96484 30.874C9.996 30.8965 10.0215 30.9347 10.0215 30.959C10.0215 30.9833 10.047 31.0215 10.0781 31.0439C10.1093 31.0664 10.1348 31.1012 10.1348 31.1213C10.1348 31.169 10.7744 31.8086 10.8221 31.8086C10.8422 31.8086 10.877 31.8341 10.8994 31.8652C10.9219 31.8964 10.9601 31.9219 10.9844 31.9219C11.0086 31.9219 11.0469 31.9474 11.0693 31.9785C11.0918 32.0097 11.1328 32.0352 11.1606 32.0352C11.1883 32.0352 11.2109 32.0479 11.2109 32.0635C11.2109 32.0791 11.2364 32.0918 11.2676 32.0918C11.2987 32.0918 11.3242 32.1045 11.3242 32.1201C11.3242 32.1357 11.3497 32.1484 11.3809 32.1484C11.412 32.1484 11.4375 32.1612 11.4375 32.1768C11.4375 32.1923 11.463 32.2051 11.4941 32.2051C11.5253 32.2051 11.5508 32.2178 11.5508 32.2334C11.5508 32.249 11.589 32.2617 11.6357 32.2617C11.6825 32.2617 11.7207 32.2745 11.7207 32.29C11.7207 32.3056 11.7589 32.3184 11.8057 32.3184C11.8524 32.3184 11.8906 32.3311 11.8906 32.3467C11.8906 32.3623 11.9416 32.375 12.0039 32.375C12.0662 32.375 12.1172 32.3877 12.1172 32.4033C12.1172 32.4189 12.1809 32.4316 12.2588 32.4316C12.3367 32.4316 12.4004 32.4444 12.4004 32.46C12.4004 32.4777 12.5703 32.4883 12.8535 32.4883C13.1367 32.4883 13.3066 32.4777 13.3066 32.46C13.3066 32.4444 13.3704 32.4316 13.4482 32.4316C13.5261 32.4316 13.5898 32.4189 13.5898 32.4033C13.5898 32.3877 13.6408 32.375 13.7031 32.375C13.7654 32.375 13.8164 32.3623 13.8164 32.3467C13.8164 32.3311 13.8546 32.3184 13.9014 32.3184C13.9481 32.3184 13.9863 32.3056 13.9863 32.29C13.9863 32.2745 14.0246 32.2617 14.0713 32.2617C14.118 32.2617 14.1562 32.249 14.1562 32.2334C14.1562 32.2178 14.1817 32.2051 14.2129 32.2051C14.244 32.2051 14.2695 32.1923 14.2695 32.1768C14.2695 32.1612 14.295 32.1484 14.3262 32.1484C14.3573 32.1484 14.3828 32.1357 14.3828 32.1201C14.3828 32.1045 14.4083 32.0918 14.4395 32.0918C14.4706 32.0918 14.4961 32.0791 14.4961 32.0635C14.4961 32.0479 14.5188 32.0352 14.5465 32.0352C14.5742 32.0352 14.6152 32.0097 14.6377 31.9785C14.6602 31.9474 14.6984 31.9219 14.7227 31.9219C14.7469 31.9219 14.7852 31.8964 14.8076 31.8652C14.8301 31.8341 14.8649 31.8086 14.885 31.8086C14.9327 31.8086 15.5723 31.169 15.5723 31.1213C15.5723 31.1012 15.5978 31.0664 15.6289 31.0439C15.6601 31.0215 15.6855 30.9833 15.6855 30.959C15.6855 30.9347 15.711 30.8965 15.7422 30.874C15.7733 30.8516 15.7988 30.8105 15.7988 30.7828C15.7988 30.7551 15.8116 30.7324 15.8271 30.7324C15.8427 30.7324 15.8555 30.7069 15.8555 30.6758C15.8555 30.6446 15.8682 30.6191 15.8838 30.6191C15.8994 30.6191 15.9121 30.5937 15.9121 30.5625C15.9121 30.5313 15.9249 30.5059 15.9404 30.5059C15.956 30.5059 15.9688 30.4804 15.9688 30.4492C15.9688 30.4181 15.9815 30.3926 15.9971 30.3926C16.0126 30.3926 16.0254 30.3543 16.0254 30.3076C16.0254 30.2609 16.0381 30.2227 16.0537 30.2227C16.0693 30.2227 16.082 30.1844 16.082 30.1377C16.082 30.091 16.0948 30.0527 16.1104 30.0527C16.1259 30.0527 16.1387 30.0018 16.1387 29.9395C16.1387 29.8771 16.1514 29.8262 16.167 29.8262C16.1826 29.8262 16.1953 29.7624 16.1953 29.6846C16.1953 29.6067 16.2081 29.543 16.2236 29.543C16.2401 29.543 16.252 29.4486 16.252 29.3164V29.0898H20.5283H24.8047V29.3164C24.8047 29.4486 24.8165 29.543 24.833 29.543C24.8486 29.543 24.8613 29.6067 24.8613 29.6846C24.8613 29.7624 24.8741 29.8262 24.8896 29.8262C24.9052 29.8262 24.918 29.8771 24.918 29.9395C24.918 30.0018 24.9307 30.0527 24.9463 30.0527C24.9619 30.0527 24.9746 30.091 24.9746 30.1377C24.9746 30.1844 24.9874 30.2227 25.0029 30.2227C25.0185 30.2227 25.0312 30.2609 25.0312 30.3076C25.0312 30.3543 25.044 30.3926 25.0596 30.3926C25.0751 30.3926 25.0879 30.4181 25.0879 30.4492C25.0879 30.4804 25.1006 30.5059 25.1162 30.5059C25.1318 30.5059 25.1445 30.5313 25.1445 30.5625C25.1445 30.5937 25.1573 30.6191 25.1729 30.6191C25.1884 30.6191 25.2012 30.6446 25.2012 30.6758C25.2012 30.7069 25.2139 30.7324 25.2295 30.7324C25.2451 30.7324 25.2578 30.7551 25.2578 30.7828C25.2578 30.8105 25.2833 30.8516 25.3145 30.874C25.3456 30.8965 25.3711 30.9347 25.3711 30.959C25.3711 30.9833 25.3966 31.0215 25.4277 31.0439C25.4589 31.0664 25.4844 31.1012 25.4844 31.1213C25.4844 31.169 26.124 31.8086 26.1717 31.8086C26.1918 31.8086 26.2266 31.8341 26.249 31.8652C26.2715 31.8964 26.3097 31.9219 26.334 31.9219C26.3583 31.9219 26.3965 31.9474 26.4189 31.9785C26.4414 32.0097 26.4824 32.0352 26.5102 32.0352C26.5379 32.0352 26.5605 32.0479 26.5605 32.0635C26.5605 32.0791 26.586 32.0918 26.6172 32.0918C26.6483 32.0918 26.6738 32.1045 26.6738 32.1201C26.6738 32.1357 26.6993 32.1484 26.7305 32.1484C26.7616 32.1484 26.7871 32.1612 26.7871 32.1768C26.7871 32.1923 26.8126 32.2051 26.8438 32.2051C26.8749 32.2051 26.9004 32.2178 26.9004 32.2334C26.9004 32.249 26.9386 32.2617 26.9854 32.2617C27.0321 32.2617 27.0703 32.2745 27.0703 32.29C27.0703 32.3056 27.1085 32.3184 27.1553 32.3184C27.202 32.3184 27.2402 32.3311 27.2402 32.3467C27.2402 32.3623 27.2912 32.375 27.3535 32.375C27.4158 32.375 27.4668 32.3877 27.4668 32.4033C27.4668 32.4189 27.5305 32.4316 27.6084 32.4316C27.6863 32.4316 27.75 32.4444 27.75 32.46C27.75 32.4777 27.9199 32.4883 28.2031 32.4883C28.4863 32.4883 28.6562 32.4777 28.6562 32.46C28.6562 32.4444 28.72 32.4316 28.7979 32.4316C28.8757 32.4316 28.9395 32.4189 28.9395 32.4033C28.9395 32.3877 28.9904 32.375 29.0527 32.375C29.115 32.375 29.166 32.3623 29.166 32.3467C29.166 32.3311 29.2042 32.3184 29.251 32.3184C29.2977 32.3184 29.3359 32.3056 29.3359 32.29C29.3359 32.2745 29.3742 32.2617 29.4209 32.2617C29.4676 32.2617 29.5059 32.249 29.5059 32.2334C29.5059 32.2178 29.5313 32.2051 29.5625 32.2051C29.5937 32.2051 29.6191 32.1923 29.6191 32.1768C29.6191 32.1612 29.6446 32.1484 29.6758 32.1484C29.7069 32.1484 29.7324 32.1357 29.7324 32.1201C29.7324 32.1045 29.7579 32.0918 29.7891 32.0918C29.8202 32.0918 29.8457 32.0791 29.8457 32.0635C29.8457 32.0479 29.8684 32.0352 29.8961 32.0352C29.9238 32.0352 29.9648 32.0097 29.9873 31.9785C30.0098 31.9474 30.048 31.9219 30.0723 31.9219C30.0965 31.9219 30.1348 31.8964 30.1572 31.8652C30.1797 31.8341 30.2145 31.8086 30.2346 31.8086C30.2547 31.8086 30.4175 31.6622 30.5965 31.4832C30.7755 31.3042 30.9219 31.1414 30.9219 31.1213C30.9219 31.1012 30.9474 31.0664 30.9785 31.0439C31.0097 31.0215 31.0352 30.9833 31.0352 30.959C31.0352 30.9347 31.0606 30.8965 31.0918 30.874C31.1229 30.8516 31.1484 30.8105 31.1484 30.7828C31.1484 30.7551 31.1612 30.7324 31.1768 30.7324C31.1923 30.7324 31.2051 30.7069 31.2051 30.6758C31.2051 30.6446 31.2178 30.6191 31.2334 30.6191C31.249 30.6191 31.2617 30.5937 31.2617 30.5625C31.2617 30.5313 31.2745 30.5059 31.29 30.5059C31.3056 30.5059 31.3184 30.4804 31.3184 30.4492C31.3184 30.4181 31.3311 30.3926 31.3467 30.3926C31.3623 30.3926 31.375 30.3543 31.375 30.3076C31.375 30.2609 31.3877 30.2227 31.4033 30.2227C31.4189 30.2227 31.4316 30.1844 31.4316 30.1377C31.4316 30.091 31.4444 30.0527 31.46 30.0527C31.4755 30.0527 31.4883 30.0018 31.4883 29.9395C31.4883 29.8771 31.501 29.8262 31.5166 29.8262C31.5322 29.8262 31.5449 29.7624 31.5449 29.6846C31.5449 29.6067 31.5577 29.543 31.5732 29.543C31.5898 29.543 31.6016 29.4486 31.6016 29.3164V29.0898H33.3008H35V25.9463C35 23.8695 34.9904 22.8027 34.9717 22.8027C34.9561 22.8027 34.9434 22.739 34.9434 22.6611C34.9434 22.5833 34.9306 22.5195 34.915 22.5195C34.8995 22.5195 34.8867 22.4686 34.8867 22.4062C34.8867 22.3439 34.874 22.293 34.8584 22.293C34.8428 22.293 34.8301 22.2675 34.8301 22.2363C34.8301 22.2052 34.8173 22.1797 34.8018 22.1797C34.7862 22.1797 34.7734 22.1542 34.7734 22.123C34.7734 22.0919 34.7607 22.0664 34.7451 22.0664C34.7295 22.0664 34.7168 22.031 34.7168 21.9877C34.7168 21.9415 34.6934 21.8921 34.6602 21.8682C34.629 21.8457 34.6035 21.8075 34.6035 21.7832C34.6035 21.7589 34.578 21.7207 34.5469 21.6982C34.5157 21.6758 34.4902 21.6409 34.4902 21.6208C34.4902 21.6006 34.3821 21.476 34.2499 21.3438C34.1177 21.2117 33.9931 21.1035 33.973 21.1035C33.9528 21.1035 33.918 21.078 33.8955 21.0469C33.8731 21.0157 33.8348 20.9902 33.8105 20.9902C33.7863 20.9902 33.748 20.9647 33.7256 20.9336C33.7031 20.9024 33.6621 20.877 33.6344 20.877C33.6067 20.877 33.584 20.8642 33.584 20.8486C33.584 20.8331 33.5458 20.8203 33.499 20.8203C33.4523 20.8203 33.4141 20.8076 33.4141 20.792C33.4141 20.7764 33.3886 20.7637 33.3574 20.7637C33.3263 20.7637 33.3008 20.7509 33.3008 20.7354C33.3008 20.7198 33.2498 20.707 33.1875 20.707C33.1252 20.707 33.0742 20.6943 33.0742 20.6787C33.0742 20.6631 33.0105 20.6504 32.9326 20.6504C32.8547 20.6504 32.791 20.6376 32.791 20.6221C32.791 20.6039 32.5121 20.5937 32.0109 20.5937H31.2308L31.1613 20.5242C31.1231 20.486 31.0918 20.4378 31.0918 20.4172C31.0918 20.3966 31.0663 20.3613 31.0352 20.3389C31.004 20.3164 30.9785 20.2782 30.9785 20.2539C30.9785 20.2296 30.953 20.1914 30.9219 20.1689C30.8907 20.1465 30.8652 20.1083 30.8652 20.084C30.8652 20.0597 30.8397 20.0215 30.8086 19.999C30.7774 19.9766 30.752 19.9383 30.752 19.9141C30.752 19.8898 30.7265 19.8516 30.6953 19.8291C30.6642 19.8066 30.6387 19.7684 30.6387 19.7441C30.6387 19.7199 30.6132 19.6816 30.582 19.6592C30.5509 19.6367 30.5254 19.5985 30.5254 19.5742C30.5254 19.5499 30.4999 19.5117 30.4688 19.4893C30.4376 19.4668 30.4121 19.4286 30.4121 19.4043C30.4121 19.38 30.3866 19.3418 30.3555 19.3193C30.3243 19.2969 30.2988 19.2586 30.2988 19.2344C30.2988 19.2101 30.2733 19.1719 30.2422 19.1494C30.211 19.127 30.1855 19.0887 30.1855 19.0645C30.1855 19.0402 30.1601 19.0019 30.1289 18.9795C30.0978 18.957 30.0723 18.9188 30.0723 18.8945C30.0723 18.8703 30.0468 18.832 30.0156 18.8096C29.9845 18.7871 29.959 18.7489 29.959 18.7246C29.959 18.7003 29.9335 18.6621 29.9023 18.6396C29.8712 18.6172 29.8457 18.579 29.8457 18.5547C29.8457 18.5304 29.8202 18.4922 29.7891 18.4697C29.7579 18.4473 29.7324 18.409 29.7324 18.3848C29.7324 18.3605 29.7069 18.3223 29.6758 18.2998C29.6446 18.2773 29.6191 18.2391 29.6191 18.2148C29.6191 18.1906 29.5937 18.1523 29.5625 18.1299C29.5313 18.1074 29.5059 18.0692 29.5059 18.0449C29.5059 18.0207 29.4804 17.9824 29.4492 17.96C29.4181 17.9375 29.3926 17.8993 29.3926 17.875C29.3926 17.8507 29.3671 17.8125 29.3359 17.79C29.3048 17.7676 29.2793 17.7293 29.2793 17.7051C29.2793 17.6808 29.2538 17.6426 29.2227 17.6201C29.1915 17.5977 29.166 17.5594 29.166 17.5352C29.166 17.5109 29.1405 17.4727 29.1094 17.4502C29.0782 17.4277 29.0527 17.3895 29.0527 17.3652C29.0527 17.341 29.0272 17.3027 28.9961 17.2803C28.9649 17.2578 28.9395 17.2196 28.9395 17.1953C28.9395 17.171 28.914 17.1328 28.8828 17.1104C28.8517 17.0879 28.8262 17.0497 28.8262 17.0254C28.8262 17.0011 28.8007 16.9629 28.7695 16.9404C28.7384 16.918 28.7129 16.8797 28.7129 16.8555C28.7129 16.8312 28.6874 16.793 28.6562 16.7705C28.6251 16.748 28.5996 16.7098 28.5996 16.6855C28.5996 16.6613 28.5741 16.623 28.543 16.6006C28.5118 16.5781 28.4863 16.5399 28.4863 16.5156C28.4863 16.4914 28.4608 16.4531 28.4297 16.4307C28.3985 16.4082 28.373 16.37 28.373 16.3457C28.373 16.3214 28.3476 16.2832 28.3164 16.2607C28.2853 16.2383 28.2598 16.2001 28.2598 16.1758C28.2598 16.1515 28.2343 16.1133 28.2031 16.0908C28.172 16.0684 28.1465 16.0301 28.1465 16.0059C28.1465 15.9816 28.121 15.9434 28.0898 15.9209C28.0587 15.8984 28.0332 15.8602 28.0332 15.8359C28.0332 15.8117 28.0077 15.7734 27.9766 15.751C27.9454 15.7285 27.9199 15.6933 27.9199 15.6726C27.9199 15.652 27.8886 15.6039 27.8504 15.5656L27.7809 15.4961H26.2928H24.8047V13.7969V12.0977H23.1055H21.4062V11.418C21.4062 10.9837 21.396 10.7383 21.3779 10.7383C21.3622 10.7383 21.3496 10.6628 21.3496 10.5684C21.3496 10.474 21.337 10.3984 21.3213 10.3984C21.3057 10.3984 21.293 10.3475 21.293 10.2852C21.293 10.2229 21.2802 10.1719 21.2646 10.1719C21.2491 10.1719 21.2363 10.1209 21.2363 10.0586C21.2363 9.99629 21.2236 9.94531 21.208 9.94531C21.1924 9.94531 21.1797 9.90708 21.1797 9.86035C21.1797 9.81362 21.1669 9.77539 21.1514 9.77539C21.1358 9.77539 21.123 9.7499 21.123 9.71875C21.123 9.6876 21.1103 9.66211 21.0947 9.66211C21.0792 9.66211 21.0664 9.62388 21.0664 9.57715C21.0664 9.53042 21.0537 9.49219 21.0381 9.49219C21.0225 9.49219 21.0098 9.4667 21.0098 9.43555C21.0098 9.40439 20.997 9.37891 20.9814 9.37891C20.9659 9.37891 20.9531 9.35342 20.9531 9.32227C20.9531 9.29111 20.9404 9.26562 20.9248 9.26562C20.9092 9.26562 20.8965 9.24294 20.8965 9.21524C20.8965 9.18752 20.871 9.14648 20.8398 9.12402C20.8087 9.10157 20.7832 9.06333 20.7832 9.03906C20.7832 9.01479 20.7577 8.97656 20.7266 8.9541C20.6954 8.93164 20.6699 8.89341 20.6699 8.86914C20.6699 8.84487 20.6444 8.80664 20.6133 8.78418C20.5821 8.76172 20.5566 8.72694 20.5566 8.70689C20.5566 8.65926 19.747 7.84961 19.6994 7.84961C19.6793 7.84961 19.6445 7.82412 19.6221 7.79297C19.5996 7.76182 19.5614 7.73633 19.5371 7.73633C19.5128 7.73633 19.4746 7.71084 19.4521 7.67969C19.4297 7.64854 19.3887 7.62305 19.3609 7.62305C19.3332 7.62305 19.3105 7.6103 19.3105 7.59473C19.3105 7.57915 19.2879 7.56641 19.2602 7.56641C19.2324 7.56641 19.1914 7.54092 19.1689 7.50977C19.1465 7.47861 19.1055 7.45312 19.0777 7.45312C19.05 7.45312 19.0273 7.44038 19.0273 7.4248C19.0273 7.40923 19.0019 7.39648 18.9707 7.39648C18.9396 7.39648 18.9141 7.38374 18.9141 7.36816C18.9141 7.35259 18.8758 7.33984 18.8291 7.33984C18.7824 7.33984 18.7441 7.3271 18.7441 7.31152C18.7441 7.29595 18.7187 7.2832 18.6875 7.2832C18.6563 7.2832 18.6309 7.27046 18.6309 7.25488C18.6309 7.23931 18.5926 7.22656 18.5459 7.22656C18.4992 7.22656 18.4609 7.21382 18.4609 7.19824C18.4609 7.18267 18.41 7.16992 18.3477 7.16992C18.2854 7.16992 18.2344 7.15718 18.2344 7.1416C18.2344 7.12603 18.1834 7.11328 18.1211 7.11328C18.0588 7.11328 18.0078 7.10054 18.0078 7.08496C18.0078 7.06921 17.9323 7.05664 17.8379 7.05664C17.7435 7.05664 17.668 7.04407 17.668 7.02832C17.668 7.00954 15.7044 7 11.834 7H6V7.67969ZM17.498 8.72754C17.498 8.74312 17.5618 8.75586 17.6396 8.75586C17.7175 8.75586 17.7812 8.7686 17.7812 8.78418C17.7812 8.79976 17.8322 8.8125 17.8945 8.8125C17.9568 8.8125 18.0078 8.82524 18.0078 8.84082C18.0078 8.8564 18.0333 8.86914 18.0645 8.86914C18.0956 8.86914 18.1211 8.88188 18.1211 8.89746C18.1211 8.91304 18.1593 8.92578 18.2061 8.92578C18.2528 8.92578 18.291 8.93853 18.291 8.9541C18.291 8.96968 18.3137 8.98242 18.3414 8.98242C18.3691 8.98242 18.4102 9.00791 18.4326 9.03906C18.4551 9.07021 18.4933 9.0957 18.5176 9.0957C18.5418 9.0957 18.5801 9.12119 18.6025 9.15234C18.625 9.1835 18.6599 9.20898 18.68 9.20898C18.7278 9.20898 19.1973 9.67848 19.1973 9.72625C19.1973 9.74639 19.2228 9.78125 19.2539 9.80371C19.2851 9.82617 19.3105 9.8644 19.3105 9.88867C19.3105 9.91294 19.336 9.95117 19.3672 9.97363C19.4004 9.99762 19.4238 10.047 19.4238 10.0932C19.4238 10.1364 19.4366 10.1719 19.4521 10.1719C19.4677 10.1719 19.4805 10.1974 19.4805 10.2285C19.4805 10.2597 19.4932 10.2852 19.5088 10.2852C19.5244 10.2852 19.5371 10.3106 19.5371 10.3418C19.5371 10.3729 19.5499 10.3984 19.5654 10.3984C19.581 10.3984 19.5938 10.4494 19.5938 10.5117C19.5938 10.574 19.6065 10.625 19.6221 10.625C19.6376 10.625 19.6504 10.6887 19.6504 10.7666C19.6504 10.8445 19.6631 10.9082 19.6787 10.9082C19.6974 10.9082 19.707 11.9749 19.707 14.0518V17.1953H18.2344C17.2715 17.1953 16.7617 17.1855 16.7617 17.167C16.7617 17.1514 16.7107 17.1387 16.6484 17.1387C16.5861 17.1387 16.5352 17.1259 16.5352 17.1104C16.5352 17.0948 16.4842 17.082 16.4219 17.082C16.3596 17.082 16.3086 17.0693 16.3086 17.0537C16.3086 17.0381 16.2831 17.0254 16.252 17.0254C16.2208 17.0254 16.1953 17.0126 16.1953 16.9971C16.1953 16.9815 16.1571 16.9687 16.1104 16.9687C16.0636 16.9687 16.0254 16.956 16.0254 16.9404C16.0254 16.9249 16.0027 16.9121 15.975 16.9121C15.9473 16.9121 15.9062 16.8866 15.8838 16.8555C15.8613 16.8243 15.8203 16.7988 15.7926 16.7988C15.7649 16.7988 15.7422 16.7861 15.7422 16.7705C15.7422 16.7549 15.7229 16.7422 15.6994 16.7422C15.6474 16.7422 15.0059 16.1064 15.0059 16.0549C15.0059 16.0348 14.9804 16 14.9492 15.9775C14.9181 15.9551 14.8926 15.914 14.8926 15.8863C14.8926 15.8586 14.8798 15.8359 14.8643 15.8359C14.8487 15.8359 14.8359 15.8104 14.8359 15.7793C14.8359 15.7481 14.8232 15.7227 14.8076 15.7227C14.792 15.7227 14.7793 15.6972 14.7793 15.666C14.7793 15.6349 14.7666 15.6094 14.751 15.6094C14.7354 15.6094 14.7227 15.5839 14.7227 15.5527C14.7227 15.4967 14.7415 15.4961 16.3652 15.4961H18.0078V14.6465V13.7969H15.6572C14.109 13.7969 13.3066 13.7872 13.3066 13.7686C13.3066 13.753 13.2557 13.7402 13.1934 13.7402C13.1311 13.7402 13.0801 13.7275 13.0801 13.7119C13.0801 13.6963 13.0291 13.6836 12.9668 13.6836C12.9045 13.6836 12.8535 13.6708 12.8535 13.6553C12.8535 13.6397 12.828 13.627 12.7969 13.627C12.7657 13.627 12.7402 13.6142 12.7402 13.5986C12.7402 13.5831 12.7048 13.5703 12.6615 13.5703C12.6153 13.5703 12.566 13.5469 12.542 13.5137C12.5195 13.4825 12.4785 13.457 12.4508 13.457C12.4231 13.457 12.4004 13.4443 12.4004 13.4287C12.4004 13.4131 12.3777 13.4004 12.35 13.4004C12.3223 13.4004 12.2812 13.3749 12.2588 13.3437C12.2363 13.3126 12.2015 13.2871 12.1813 13.2871C12.1612 13.2871 12.0366 13.179 11.9044 13.0468C11.7722 12.9146 11.6641 12.79 11.6641 12.7698C11.6641 12.7497 11.6386 12.7148 11.6074 12.6924C11.5763 12.6699 11.5508 12.6317 11.5508 12.6074C11.5508 12.5832 11.5253 12.5449 11.4941 12.5225C11.463 12.5 11.4375 12.459 11.4375 12.4312C11.4375 12.4035 11.4248 12.3809 11.4092 12.3809C11.3936 12.3809 11.3809 12.3426 11.3809 12.2959C11.3809 12.2492 11.3681 12.2109 11.3525 12.2109C11.337 12.2109 11.3242 12.1854 11.3242 12.1543C11.3242 12.098 11.3431 12.0977 14.666 12.0977H18.0078V11.248V10.3984H13.9863C11.3242 10.3984 9.96484 10.3889 9.96484 10.3701C9.96484 10.3545 9.90112 10.3418 9.82324 10.3418C9.74536 10.3418 9.68164 10.3291 9.68164 10.3135C9.68164 10.2979 9.63066 10.2852 9.56836 10.2852C9.50605 10.2852 9.45508 10.2724 9.45508 10.2568C9.45508 10.2413 9.42959 10.2285 9.39844 10.2285C9.36729 10.2285 9.3418 10.2158 9.3418 10.2002C9.3418 10.1846 9.30356 10.1719 9.25684 10.1719C9.21011 10.1719 9.17188 10.1591 9.17188 10.1436C9.17188 10.128 9.14919 10.1152 9.12149 10.1152C9.09377 10.1152 9.05273 10.0897 9.03027 10.0586C9.00782 10.0274 8.96678 10.002 8.93905 10.002C8.91136 10.002 8.88867 9.98921 8.88867 9.97363C8.88867 9.95806 8.86941 9.94531 8.84588 9.94531C8.79391 9.94531 8.15234 9.30952 8.15234 9.25801C8.15234 9.23793 8.12686 9.20312 8.0957 9.18066C8.06455 9.15821 8.03906 9.11717 8.03906 9.08944C8.03906 9.06175 8.02632 9.03906 8.01074 9.03906C7.99517 9.03906 7.98242 9.01357 7.98242 8.98242C7.98242 8.95127 7.96968 8.92578 7.9541 8.92578C7.93853 8.92578 7.92578 8.90029 7.92578 8.86914C7.92578 8.83799 7.91304 8.8125 7.89746 8.8125C7.88188 8.8125 7.86914 8.78701 7.86914 8.75586C7.86914 8.69945 7.88803 8.69922 12.6836 8.69922C15.8744 8.69922 17.498 8.70876 17.498 8.72754ZM10.461 13.9804C10.5619 14.0814 10.6445 14.1833 10.6445 14.207C10.6445 14.2307 10.6643 14.25 10.6884 14.25C10.7125 14.25 10.8202 14.3392 10.9277 14.4482C11.0353 14.5573 11.1402 14.6465 11.1608 14.6465C11.1815 14.6465 11.2168 14.672 11.2393 14.7031C11.2617 14.7343 11.2999 14.7598 11.3242 14.7598C11.3485 14.7598 11.3867 14.7853 11.4092 14.8164C11.4316 14.8476 11.4727 14.873 11.5004 14.873C11.5281 14.873 11.5508 14.8858 11.5508 14.9014C11.5508 14.9169 11.5735 14.9297 11.6012 14.9297C11.6289 14.9297 11.6699 14.9552 11.6924 14.9863C11.7148 15.0175 11.7559 15.043 11.7836 15.043C11.8113 15.043 11.834 15.0557 11.834 15.0713C11.834 15.0869 11.8595 15.0996 11.8906 15.0996C11.9218 15.0996 11.9473 15.1124 11.9473 15.1279C11.9473 15.1435 11.9855 15.1562 12.0322 15.1562C12.079 15.1562 12.1172 15.169 12.1172 15.1846C12.1172 15.2001 12.1554 15.2129 12.2021 15.2129C12.2489 15.2129 12.2871 15.2256 12.2871 15.2412C12.2871 15.2568 12.3126 15.2695 12.3438 15.2695C12.3749 15.2695 12.4004 15.2823 12.4004 15.2979C12.4004 15.3134 12.4514 15.3262 12.5137 15.3262C12.576 15.3262 12.627 15.3389 12.627 15.3545C12.627 15.3701 12.6721 15.3828 12.7273 15.3828C12.8635 15.3828 12.9668 15.4861 12.9668 15.6223C12.9668 15.6775 12.9795 15.7227 12.9951 15.7227C13.0107 15.7227 13.0234 15.7609 13.0234 15.8076C13.0234 15.8543 13.0362 15.8926 13.0518 15.8926C13.0673 15.8926 13.0801 15.9308 13.0801 15.9775C13.0801 16.0243 13.0928 16.0625 13.1084 16.0625C13.124 16.0625 13.1367 16.1007 13.1367 16.1475C13.1367 16.1942 13.1495 16.2324 13.165 16.2324C13.1806 16.2324 13.1934 16.2579 13.1934 16.2891C13.1934 16.3202 13.2061 16.3457 13.2217 16.3457C13.2373 16.3457 13.25 16.3712 13.25 16.4023C13.25 16.4335 13.2627 16.459 13.2783 16.459C13.2939 16.459 13.3066 16.4845 13.3066 16.5156C13.3066 16.5468 13.3194 16.5723 13.335 16.5723C13.3505 16.5723 13.3633 16.5978 13.3633 16.6289C13.3633 16.6601 13.376 16.6855 13.3916 16.6855C13.4072 16.6855 13.4199 16.7082 13.4199 16.7359C13.4199 16.7637 13.4454 16.8047 13.4766 16.8271C13.5077 16.8496 13.5332 16.8878 13.5332 16.9121C13.5332 16.9364 13.5587 16.9746 13.5898 16.9971C13.621 17.0195 13.6465 17.0555 13.6465 17.0769C13.6465 17.0984 13.6847 17.1517 13.7314 17.1953C13.7782 17.239 13.8164 17.2888 13.8164 17.3061C13.8164 17.3472 14.4009 17.9316 14.4419 17.9316C14.4592 17.9316 14.5091 17.9699 14.5527 18.0166C14.5964 18.0633 14.6497 18.1016 14.6711 18.1016C14.6926 18.1016 14.7285 18.1271 14.751 18.1582C14.7734 18.1894 14.8117 18.2148 14.8359 18.2148C14.8602 18.2148 14.8984 18.2403 14.9209 18.2715C14.9434 18.3026 14.9844 18.3281 15.0121 18.3281C15.0398 18.3281 15.0625 18.3409 15.0625 18.3564C15.0625 18.372 15.088 18.3848 15.1191 18.3848C15.1503 18.3848 15.1758 18.3975 15.1758 18.4131C15.1758 18.4287 15.2013 18.4414 15.2324 18.4414C15.2636 18.4414 15.2891 18.4541 15.2891 18.4697C15.2891 18.4853 15.3146 18.498 15.3457 18.498C15.3769 18.498 15.4023 18.5108 15.4023 18.5264C15.4023 18.5419 15.4406 18.5547 15.4873 18.5547C15.534 18.5547 15.5723 18.5674 15.5723 18.583C15.5723 18.5986 15.5978 18.6113 15.6289 18.6113C15.6601 18.6113 15.6855 18.6241 15.6855 18.6396C15.6855 18.6552 15.7238 18.668 15.7705 18.668C15.8172 18.668 15.8555 18.6807 15.8555 18.6963C15.8555 18.7119 15.9064 18.7246 15.9688 18.7246C16.0311 18.7246 16.082 18.7374 16.082 18.7529C16.082 18.7685 16.133 18.7812 16.1953 18.7812C16.2576 18.7812 16.3086 18.794 16.3086 18.8096C16.3086 18.8253 16.3841 18.8379 16.4785 18.8379C16.5729 18.8379 16.6484 18.8505 16.6484 18.8662C16.6484 18.8849 17.4603 18.8945 19.0273 18.8945H21.4062V16.3457V13.7969H22.2559H23.1055V20.5937V27.3906H19.465H15.8246L15.7551 27.3211C15.7168 27.2829 15.6855 27.2347 15.6855 27.2141C15.6855 27.1935 15.6601 27.1582 15.6289 27.1357C15.5978 27.1133 15.5723 27.0785 15.5723 27.0584C15.5723 27.0107 14.9327 26.3711 14.885 26.3711C14.8649 26.3711 14.8301 26.3456 14.8076 26.3145C14.7852 26.2833 14.7469 26.2578 14.7227 26.2578C14.6984 26.2578 14.6602 26.2323 14.6377 26.2012C14.6152 26.17 14.5742 26.1445 14.5465 26.1445C14.5188 26.1445 14.4961 26.1318 14.4961 26.1162C14.4961 26.1006 14.4706 26.0879 14.4395 26.0879C14.4083 26.0879 14.3828 26.0751 14.3828 26.0596C14.3828 26.044 14.3573 26.0312 14.3262 26.0312C14.295 26.0312 14.2695 26.0185 14.2695 26.0029C14.2695 25.9874 14.244 25.9746 14.2129 25.9746C14.1817 25.9746 14.1562 25.9619 14.1562 25.9463C14.1562 25.9307 14.118 25.918 14.0713 25.918C14.0246 25.918 13.9863 25.9052 13.9863 25.8896C13.9863 25.8741 13.9481 25.8613 13.9014 25.8613C13.8546 25.8613 13.8164 25.8486 13.8164 25.833C13.8164 25.8174 13.7654 25.8047 13.7031 25.8047C13.6408 25.8047 13.5898 25.7919 13.5898 25.7764C13.5898 25.7608 13.5261 25.748 13.4482 25.748C13.3704 25.748 13.3066 25.7353 13.3066 25.7197C13.3066 25.702 13.1367 25.6914 12.8535 25.6914C12.5703 25.6914 12.4004 25.702 12.4004 25.7197C12.4004 25.7353 12.3367 25.748 12.2588 25.748C12.1809 25.748 12.1172 25.7608 12.1172 25.7764C12.1172 25.7919 12.0662 25.8047 12.0039 25.8047C11.9416 25.8047 11.8906 25.8174 11.8906 25.833C11.8906 25.8486 11.8524 25.8613 11.8057 25.8613C11.7589 25.8613 11.7207 25.8741 11.7207 25.8896C11.7207 25.9052 11.6825 25.918 11.6357 25.918C11.589 25.918 11.5508 25.9307 11.5508 25.9463C11.5508 25.9619 11.5253 25.9746 11.4941 25.9746C11.463 25.9746 11.4375 25.9874 11.4375 26.0029C11.4375 26.0185 11.412 26.0312 11.3809 26.0312C11.3497 26.0312 11.3242 26.044 11.3242 26.0596C11.3242 26.0751 11.2987 26.0879 11.2676 26.0879C11.2364 26.0879 11.2109 26.1006 11.2109 26.1162C11.2109 26.1318 11.1883 26.1445 11.1606 26.1445C11.1328 26.1445 11.0918 26.17 11.0693 26.2012C11.0469 26.2323 11.0086 26.2578 10.9844 26.2578C10.9601 26.2578 10.9219 26.2833 10.8994 26.3145C10.877 26.3456 10.8422 26.3711 10.8221 26.3711C10.7744 26.3711 10.1348 27.0107 10.1348 27.0584C10.1348 27.0785 10.1093 27.1133 10.0781 27.1357C10.047 27.1582 10.0215 27.1935 10.0215 27.2141C10.0215 27.2347 9.99019 27.2829 9.95196 27.3211L9.88246 27.3906H8.79083H7.69922V20.5937V13.7969H8.98833H10.2774L10.461 13.9804ZM26.9441 17.2648C26.9824 17.3031 27.0137 17.3512 27.0137 17.3719C27.0137 17.3925 27.0392 17.4277 27.0703 17.4502C27.1015 17.4727 27.127 17.5109 27.127 17.5352C27.127 17.5594 27.1524 17.5977 27.1836 17.6201C27.2147 17.6426 27.2402 17.6808 27.2402 17.7051C27.2402 17.7293 27.2657 17.7676 27.2969 17.79C27.328 17.8125 27.3535 17.8507 27.3535 17.875C27.3535 17.8993 27.379 17.9375 27.4102 17.96C27.4413 17.9824 27.4668 18.0207 27.4668 18.0449C27.4668 18.0692 27.4923 18.1074 27.5234 18.1299C27.5546 18.1523 27.5801 18.1906 27.5801 18.2148C27.5801 18.2391 27.6056 18.2773 27.6367 18.2998C27.6679 18.3223 27.6934 18.3605 27.6934 18.3848C27.6934 18.409 27.7188 18.4473 27.75 18.4697C27.7812 18.4922 27.8066 18.5304 27.8066 18.5547C27.8066 18.579 27.8321 18.6172 27.8633 18.6396C27.8944 18.6621 27.9199 18.7003 27.9199 18.7246C27.9199 18.7489 27.9454 18.7871 27.9766 18.8096C28.0077 18.832 28.0332 18.8703 28.0332 18.8945C28.0332 18.9188 28.0587 18.957 28.0898 18.9795C28.121 19.0019 28.1465 19.0402 28.1465 19.0645C28.1465 19.0887 28.172 19.127 28.2031 19.1494C28.2343 19.1719 28.2598 19.2101 28.2598 19.2344C28.2598 19.2586 28.2853 19.2969 28.3164 19.3193C28.3476 19.3418 28.373 19.38 28.373 19.4043C28.373 19.4286 28.3985 19.4668 28.4297 19.4893C28.4608 19.5117 28.4863 19.5499 28.4863 19.5742C28.4863 19.5985 28.5118 19.6367 28.543 19.6592C28.5741 19.6816 28.5996 19.7199 28.5996 19.7441C28.5996 19.7684 28.6251 19.8066 28.6562 19.8291C28.6874 19.8516 28.7129 19.8898 28.7129 19.9141C28.7129 19.9383 28.7384 19.9766 28.7695 19.999C28.8007 20.0215 28.8262 20.0597 28.8262 20.084C28.8262 20.1083 28.8517 20.1465 28.8828 20.1689C28.914 20.1914 28.9395 20.2296 28.9395 20.2539C28.9395 20.2782 28.9649 20.3164 28.9961 20.3389C29.0272 20.3613 29.0527 20.3996 29.0527 20.4238C29.0527 20.4481 29.0782 20.4863 29.1094 20.5088C29.1405 20.5312 29.166 20.5595 29.166 20.5717C29.166 20.5838 28.1847 20.5937 26.9854 20.5937H24.8047V18.8945V17.1953H25.8397H26.8746L26.9441 17.2648ZM32.6777 22.3213C32.6777 22.3369 32.7032 22.3496 32.7344 22.3496C32.7655 22.3496 32.791 22.3624 32.791 22.3779C32.791 22.3935 32.8165 22.4062 32.8477 22.4062C32.8788 22.4062 32.9043 22.419 32.9043 22.4346C32.9043 22.4501 32.9243 22.4629 32.9488 22.4629C33.0034 22.4629 33.0742 22.5302 33.0742 22.5821C33.0742 22.6031 33.0997 22.6387 33.1309 22.6611C33.162 22.6836 33.1875 22.7246 33.1875 22.7524C33.1875 22.78 33.2002 22.8027 33.2158 22.8027C33.2314 22.8027 33.2441 22.8282 33.2441 22.8594C33.2441 22.8905 33.2569 22.916 33.2725 22.916C33.2904 22.916 33.3008 23.1143 33.3008 23.4541V23.9922H32.4512H31.6016V24.8418V25.6914H32.4512H33.3008V26.541V27.3906H32.2375H31.1742L31.1047 27.3211C31.0665 27.2829 31.0352 27.2347 31.0352 27.2141C31.0352 27.1935 31.0097 27.1582 30.9785 27.1357C30.9474 27.1133 30.9219 27.0785 30.9219 27.0584C30.9219 27.0383 30.7755 26.8755 30.5965 26.6965C30.4175 26.5175 30.2547 26.3711 30.2346 26.3711C30.2145 26.3711 30.1797 26.3456 30.1572 26.3145C30.1348 26.2833 30.0965 26.2578 30.0723 26.2578C30.048 26.2578 30.0098 26.2323 29.9873 26.2012C29.9648 26.17 29.9238 26.1445 29.8961 26.1445C29.8684 26.1445 29.8457 26.1318 29.8457 26.1162C29.8457 26.1006 29.8202 26.0879 29.7891 26.0879C29.7579 26.0879 29.7324 26.0751 29.7324 26.0596C29.7324 26.044 29.7069 26.0312 29.6758 26.0312C29.6446 26.0312 29.6191 26.0185 29.6191 26.0029C29.6191 25.9874 29.5937 25.9746 29.5625 25.9746C29.5313 25.9746 29.5059 25.9619 29.5059 25.9463C29.5059 25.9307 29.4676 25.918 29.4209 25.918C29.3742 25.918 29.3359 25.9052 29.3359 25.8896C29.3359 25.8741 29.2977 25.8613 29.251 25.8613C29.2042 25.8613 29.166 25.8486 29.166 25.833C29.166 25.8174 29.115 25.8047 29.0527 25.8047C28.9904 25.8047 28.9395 25.7919 28.9395 25.7764C28.9395 25.7608 28.8757 25.748 28.7979 25.748C28.72 25.748 28.6562 25.7353 28.6562 25.7197C28.6562 25.702 28.4863 25.6914 28.2031 25.6914C27.9199 25.6914 27.75 25.702 27.75 25.7197C27.75 25.7353 27.6863 25.748 27.6084 25.748C27.5305 25.748 27.4668 25.7608 27.4668 25.7764C27.4668 25.7919 27.4158 25.8047 27.3535 25.8047C27.2912 25.8047 27.2402 25.8174 27.2402 25.833C27.2402 25.8486 27.202 25.8613 27.1553 25.8613C27.1085 25.8613 27.0703 25.8741 27.0703 25.8896C27.0703 25.9052 27.0321 25.918 26.9854 25.918C26.9386 25.918 26.9004 25.9307 26.9004 25.9463C26.9004 25.9619 26.8749 25.9746 26.8438 25.9746C26.8126 25.9746 26.7871 25.9874 26.7871 26.0029C26.7871 26.0185 26.7616 26.0312 26.7305 26.0312C26.6993 26.0312 26.6738 26.044 26.6738 26.0596C26.6738 26.0751 26.6483 26.0879 26.6172 26.0879C26.586 26.0879 26.5605 26.1006 26.5605 26.1162C26.5605 26.1318 26.5379 26.1445 26.5102 26.1445C26.4824 26.1445 26.4414 26.17 26.4189 26.2012C26.3965 26.2323 26.3583 26.2578 26.334 26.2578C26.3097 26.2578 26.2715 26.2833 26.249 26.3145C26.2266 26.3456 26.1918 26.3711 26.1717 26.3711C26.124 26.3711 25.4844 27.0107 25.4844 27.0584C25.4844 27.0785 25.4589 27.1133 25.4277 27.1357C25.3966 27.1582 25.3711 27.1935 25.3711 27.2141C25.3711 27.2347 25.3398 27.2829 25.3016 27.3211C25.2401 27.3826 25.2075 27.3906 25.0184 27.3906H24.8047V24.8418V22.293H28.7412C31.3467 22.293 32.6777 22.3025 32.6777 22.3213ZM13.1367 27.4189C13.1367 27.4345 13.1877 27.4473 13.25 27.4473C13.3123 27.4473 13.3633 27.46 13.3633 27.4756C13.3633 27.4912 13.4015 27.5039 13.4482 27.5039C13.495 27.5039 13.5332 27.5166 13.5332 27.5322C13.5332 27.5478 13.5587 27.5605 13.5898 27.5605C13.621 27.5605 13.6465 27.5733 13.6465 27.5889C13.6465 27.6044 13.6692 27.6172 13.6969 27.6172C13.7246 27.6172 13.7656 27.6427 13.7881 27.6738C13.8105 27.705 13.8455 27.7305 13.8657 27.7305C13.9137 27.7305 14.2129 28.0296 14.2129 28.0776C14.2129 28.0979 14.2384 28.1328 14.2695 28.1553C14.3007 28.1777 14.3262 28.2188 14.3262 28.2465C14.3262 28.2742 14.3389 28.2969 14.3545 28.2969C14.3701 28.2969 14.3828 28.3224 14.3828 28.3535C14.3828 28.3847 14.3956 28.4102 14.4111 28.4102C14.4267 28.4102 14.4395 28.4484 14.4395 28.4951C14.4395 28.5418 14.4522 28.5801 14.4678 28.5801C14.4833 28.5801 14.4961 28.6311 14.4961 28.6934C14.4961 28.7557 14.5088 28.8066 14.5244 28.8066C14.5414 28.8066 14.5527 28.9199 14.5527 29.0898C14.5527 29.2598 14.5414 29.373 14.5244 29.373C14.5088 29.373 14.4961 29.424 14.4961 29.4863C14.4961 29.5486 14.4833 29.5996 14.4678 29.5996C14.4522 29.5996 14.4395 29.6378 14.4395 29.6846C14.4395 29.7313 14.4267 29.7695 14.4111 29.7695C14.3956 29.7695 14.3828 29.795 14.3828 29.8262C14.3828 29.8573 14.3701 29.8828 14.3545 29.8828C14.3389 29.8828 14.3262 29.9055 14.3262 29.9332C14.3262 29.9609 14.3007 30.002 14.2695 30.0244C14.2384 30.0469 14.2129 30.0818 14.2129 30.1021C14.2129 30.1501 13.9137 30.4492 13.8657 30.4492C13.8455 30.4492 13.8105 30.4747 13.7881 30.5059C13.7656 30.537 13.7246 30.5625 13.6969 30.5625C13.6692 30.5625 13.6465 30.5752 13.6465 30.5908C13.6465 30.6064 13.621 30.6191 13.5898 30.6191C13.5587 30.6191 13.5332 30.6319 13.5332 30.6475C13.5332 30.663 13.495 30.6758 13.4482 30.6758C13.4015 30.6758 13.3633 30.6885 13.3633 30.7041C13.3633 30.7197 13.3123 30.7324 13.25 30.7324C13.1877 30.7324 13.1367 30.7452 13.1367 30.7607C13.1367 30.7777 13.0234 30.7891 12.8535 30.7891C12.6836 30.7891 12.5703 30.7777 12.5703 30.7607C12.5703 30.7452 12.5193 30.7324 12.457 30.7324C12.3947 30.7324 12.3438 30.7197 12.3438 30.7041C12.3438 30.6885 12.3055 30.6758 12.2588 30.6758C12.2121 30.6758 12.1738 30.663 12.1738 30.6475C12.1738 30.6319 12.1483 30.6191 12.1172 30.6191C12.086 30.6191 12.0605 30.6064 12.0605 30.5908C12.0605 30.5752 12.0379 30.5625 12.0102 30.5625C11.9824 30.5625 11.9414 30.537 11.9189 30.5059C11.8965 30.4747 11.8615 30.4492 11.8413 30.4492C11.7933 30.4492 11.4941 30.1501 11.4941 30.1021C11.4941 30.0818 11.4687 30.0469 11.4375 30.0244C11.4063 30.002 11.3809 29.9609 11.3809 29.9332C11.3809 29.9055 11.3681 29.8828 11.3525 29.8828C11.337 29.8828 11.3242 29.8573 11.3242 29.8262C11.3242 29.795 11.3115 29.7695 11.2959 29.7695C11.2803 29.7695 11.2676 29.7313 11.2676 29.6846C11.2676 29.6378 11.2548 29.5996 11.2393 29.5996C11.2237 29.5996 11.2109 29.5486 11.2109 29.4863C11.2109 29.424 11.1982 29.373 11.1826 29.373C11.1656 29.373 11.1543 29.2598 11.1543 29.0898C11.1543 28.9199 11.1656 28.8066 11.1826 28.8066C11.1982 28.8066 11.2109 28.7557 11.2109 28.6934C11.2109 28.6311 11.2237 28.5801 11.2393 28.5801C11.2548 28.5801 11.2676 28.5418 11.2676 28.4951C11.2676 28.4484 11.2803 28.4102 11.2959 28.4102C11.3115 28.4102 11.3242 28.3847 11.3242 28.3535C11.3242 28.3224 11.337 28.2969 11.3525 28.2969C11.3681 28.2969 11.3809 28.2742 11.3809 28.2465C11.3809 28.2188 11.4063 28.1777 11.4375 28.1553C11.4687 28.1328 11.4941 28.0979 11.4941 28.0776C11.4941 28.0296 11.7933 27.7305 11.8413 27.7305C11.8615 27.7305 11.8965 27.705 11.9189 27.6738C11.9414 27.6427 11.9824 27.6172 12.0102 27.6172C12.0379 27.6172 12.0605 27.6044 12.0605 27.5889C12.0605 27.5733 12.086 27.5605 12.1172 27.5605C12.1483 27.5605 12.1738 27.5478 12.1738 27.5322C12.1738 27.5166 12.2121 27.5039 12.2588 27.5039C12.3055 27.5039 12.3438 27.4912 12.3438 27.4756C12.3438 27.46 12.3947 27.4473 12.457 27.4473C12.5193 27.4473 12.5703 27.4345 12.5703 27.4189C12.5703 27.402 12.6836 27.3906 12.8535 27.3906C13.0234 27.3906 13.1367 27.402 13.1367 27.4189ZM28.4863 27.4189C28.4863 27.4345 28.5373 27.4473 28.5996 27.4473C28.6619 27.4473 28.7129 27.46 28.7129 27.4756C28.7129 27.4912 28.7511 27.5039 28.7979 27.5039C28.8446 27.5039 28.8828 27.5166 28.8828 27.5322C28.8828 27.5478 28.9083 27.5605 28.9395 27.5605C28.9706 27.5605 28.9961 27.5733 28.9961 27.5889C28.9961 27.6044 29.0188 27.6172 29.0465 27.6172C29.0742 27.6172 29.1152 27.6427 29.1377 27.6738C29.1602 27.705 29.1951 27.7305 29.2153 27.7305C29.2634 27.7305 29.5625 28.0296 29.5625 28.0776C29.5625 28.0979 29.588 28.1328 29.6191 28.1553C29.6503 28.1777 29.6758 28.2188 29.6758 28.2465C29.6758 28.2742 29.6885 28.2969 29.7041 28.2969C29.7197 28.2969 29.7324 28.3224 29.7324 28.3535C29.7324 28.3847 29.7452 28.4102 29.7607 28.4102C29.7763 28.4102 29.7891 28.4484 29.7891 28.4951C29.7891 28.5418 29.8018 28.5801 29.8174 28.5801C29.833 28.5801 29.8457 28.6311 29.8457 28.6934C29.8457 28.7557 29.8584 28.8066 29.874 28.8066C29.891 28.8066 29.9023 28.9199 29.9023 29.0898C29.9023 29.2598 29.891 29.373 29.874 29.373C29.8584 29.373 29.8457 29.424 29.8457 29.4863C29.8457 29.5486 29.833 29.5996 29.8174 29.5996C29.8018 29.5996 29.7891 29.6378 29.7891 29.6846C29.7891 29.7313 29.7763 29.7695 29.7607 29.7695C29.7452 29.7695 29.7324 29.795 29.7324 29.8262C29.7324 29.8573 29.7197 29.8828 29.7041 29.8828C29.6885 29.8828 29.6758 29.9055 29.6758 29.9332C29.6758 29.9609 29.6503 30.002 29.6191 30.0244C29.588 30.0469 29.5625 30.0818 29.5625 30.1021C29.5625 30.1223 29.4927 30.2087 29.4074 30.2941C29.322 30.3794 29.2356 30.4492 29.2153 30.4492C29.1951 30.4492 29.1602 30.4747 29.1377 30.5059C29.1152 30.537 29.0742 30.5625 29.0465 30.5625C29.0188 30.5625 28.9961 30.5752 28.9961 30.5908C28.9961 30.6064 28.9706 30.6191 28.9395 30.6191C28.9083 30.6191 28.8828 30.6319 28.8828 30.6475C28.8828 30.663 28.8446 30.6758 28.7979 30.6758C28.7511 30.6758 28.7129 30.6885 28.7129 30.7041C28.7129 30.7197 28.6619 30.7324 28.5996 30.7324C28.5373 30.7324 28.4863 30.7452 28.4863 30.7607C28.4863 30.7777 28.373 30.7891 28.2031 30.7891C28.0332 30.7891 27.9199 30.7777 27.9199 30.7607C27.9199 30.7452 27.8689 30.7324 27.8066 30.7324C27.7443 30.7324 27.6934 30.7197 27.6934 30.7041C27.6934 30.6885 27.6551 30.6758 27.6084 30.6758C27.5617 30.6758 27.5234 30.663 27.5234 30.6475C27.5234 30.6319 27.4979 30.6191 27.4668 30.6191C27.4356 30.6191 27.4102 30.6064 27.4102 30.5908C27.4102 30.5752 27.3875 30.5625 27.3598 30.5625C27.332 30.5625 27.291 30.537 27.2686 30.5059C27.2461 30.4747 27.2111 30.4492 27.1909 30.4492C27.1706 30.4492 27.0842 30.3794 26.9989 30.2941C26.9136 30.2087 26.8438 30.1223 26.8438 30.1021C26.8438 30.0818 26.8183 30.0469 26.7871 30.0244C26.756 30.002 26.7305 29.9609 26.7305 29.9332C26.7305 29.9055 26.7177 29.8828 26.7021 29.8828C26.6866 29.8828 26.6738 29.8573 26.6738 29.8262C26.6738 29.795 26.6611 29.7695 26.6455 29.7695C26.6299 29.7695 26.6172 29.7313 26.6172 29.6846C26.6172 29.6378 26.6044 29.5996 26.5889 29.5996C26.5733 29.5996 26.5605 29.5486 26.5605 29.4863C26.5605 29.424 26.5478 29.373 26.5322 29.373C26.5152 29.373 26.5039 29.2598 26.5039 29.0898C26.5039 28.9199 26.5152 28.8066 26.5322 28.8066C26.5478 28.8066 26.5605 28.7557 26.5605 28.6934C26.5605 28.6311 26.5733 28.5801 26.5889 28.5801C26.6044 28.5801 26.6172 28.5418 26.6172 28.4951C26.6172 28.4484 26.6299 28.4102 26.6455 28.4102C26.6611 28.4102 26.6738 28.3847 26.6738 28.3535C26.6738 28.3224 26.6866 28.2969 26.7021 28.2969C26.7177 28.2969 26.7305 28.2742 26.7305 28.2465C26.7305 28.2188 26.756 28.1777 26.7871 28.1553C26.8183 28.1328 26.8438 28.0979 26.8438 28.0776C26.8438 28.0296 27.1429 27.7305 27.1909 27.7305C27.2111 27.7305 27.2461 27.705 27.2686 27.6738C27.291 27.6427 27.332 27.6172 27.3598 27.6172C27.3875 27.6172 27.4102 27.6044 27.4102 27.5889C27.4102 27.5733 27.4356 27.5605 27.4668 27.5605C27.4979 27.5605 27.5234 27.5478 27.5234 27.5322C27.5234 27.5166 27.5617 27.5039 27.6084 27.5039C27.6551 27.5039 27.6934 27.4912 27.6934 27.4756C27.6934 27.46 27.7443 27.4473 27.8066 27.4473C27.8689 27.4473 27.9199 27.4345 27.9199 27.4189C27.9199 27.402 28.0332 27.3906 28.2031 27.3906C28.373 27.3906 28.4863 27.402 28.4863 27.4189Z" fill="#DD2A1B"/>
</svg>
