<svg width="40" height="40" viewBox="0 0 40 40" fill="none" xmlns="http://www.w3.org/2000/svg">
<path d="M34 21.6695L29.8547 16.2031H32.3047V11.2812H28.0233L27.203 8H12.7971L11.9767 11.2812H7.69531V16.2031H10.1453L6 21.6695V29.3281H7.64062V30.1484C7.64062 31.5054 8.7446 32.6094 10.1016 32.6094H11.7422C13.0991 32.6094 14.2031 31.5054 14.2031 30.1484V29.3281H25.7969V30.1484C25.7969 31.5054 26.9009 32.6094 28.2578 32.6094H29.8984C31.2554 32.6094 32.3594 31.5054 32.3594 30.1484V29.3281H34V21.6695ZM30.6641 12.9219V14.5625H28.8436L28.4335 12.9219H30.6641ZM25.922 9.64062L27.1525 14.5625H12.8475L14.078 9.64062H25.922ZM9.33594 12.9219H11.5665L11.1564 14.5625H9.33594V12.9219ZM27.7957 16.2031L31.5281 21.125H26.6635L20.8203 19.6642V17.8438H19.1797V19.6642L13.3365 21.125H8.47187L12.2043 16.2031C13.0301 16.2031 27.0206 16.2031 27.7957 16.2031ZM29.0781 27.6875H10.9219V24.4062H7.64062V22.7656H12.6172V26.0469H27.3828V22.7656H32.3594V24.4062H29.0781V27.6875ZM7.64062 26.0469H9.28125V27.6875H7.64062V26.0469ZM25.7422 22.5858V24.4062H24.1016V22.1757L25.7422 22.5858ZM22.4609 24.4062H20.8203V21.3553L22.4609 21.7655V24.4062ZM19.1797 24.4062H17.5391V21.7655L19.1797 21.3553V24.4062ZM15.8984 24.4062H14.2578V22.5858L15.8984 22.1757V24.4062ZM12.5625 30.1484C12.5625 30.6008 12.1945 30.9688 11.7422 30.9688H10.1016C9.64924 30.9688 9.28125 30.6008 9.28125 30.1484V29.3281H12.5625V30.1484ZM30.7188 30.1484C30.7188 30.6008 30.3508 30.9688 29.8984 30.9688H28.2578C27.8055 30.9688 27.4375 30.6008 27.4375 30.1484V29.3281H30.7188V30.1484ZM30.7188 27.6875V26.0469H32.3594V27.6875H30.7188Z" fill="#DD2A1B"/>
</svg>
