<svg width="40" height="40" viewBox="0 0 40 40" fill="none" xmlns="http://www.w3.org/2000/svg">
<path fill-rule="evenodd" clip-rule="evenodd" d="M19.2474 6.01945C16.6501 6.17877 14.3304 6.94803 12.2397 8.34342C10.1721 9.72331 8.55736 11.5556 7.45173 13.7762C6.47558 15.7367 6.00206 17.7616 6.00001 19.9844C5.99922 20.8149 6.03317 21.3057 6.14281 22.0503C6.71311 25.9222 8.90292 29.4004 12.1533 31.5974C12.7807 32.0215 13.149 32.2355 13.8128 32.5614C17.1384 34.1947 20.9389 34.4471 24.4505 33.268C28.3514 31.9582 31.514 28.9563 33.0123 25.1414C33.6784 23.4453 33.9828 21.8265 33.982 19.9844C33.9812 18.4053 33.7466 16.9639 33.253 15.5054C32.3582 12.8617 30.6656 10.5145 28.4367 8.82666C26.8513 7.62609 25.0084 6.77281 23.0544 6.33456C21.8873 6.0728 20.3936 5.94917 19.2474 6.01945ZM21.4636 7.47212C23.8598 7.75055 26.0802 8.69414 27.9905 10.2457C28.4487 10.6179 29.3599 11.5298 29.7287 11.9853C31.7388 14.4678 32.728 17.4493 32.5799 20.5794C32.5112 22.0298 32.2489 23.2765 31.7349 24.5956C31.5609 25.0419 31.1319 25.9508 31.0952 25.9508C31.0812 25.9508 30.864 25.79 30.6127 25.5934C30.3613 25.3967 29.5011 24.7247 28.7012 24.0999C27.9012 23.4751 27.0162 22.7834 26.7344 22.5627C26.1028 22.0682 24.9618 21.1785 23.3098 19.8925C22.6171 19.3533 22.0342 18.8927 22.0145 18.8689C21.9948 18.8452 21.8211 17.6957 21.6285 16.3144C21.4358 14.9332 21.2123 13.3345 21.1316 12.7618C20.8162 10.5217 20.3878 7.4432 20.3878 7.41722C20.3878 7.38572 20.9806 7.416 21.4636 7.47212ZM19.6157 7.5143C19.6052 7.57337 19.4405 8.75222 19.2497 10.1339C18.2897 17.0887 18.0403 18.8576 18.0169 18.8788C18.0028 18.8916 17.1657 19.5461 16.1567 20.3332C13.1526 22.6768 11.7424 23.778 9.75396 25.3326C9.29581 25.6908 8.91181 25.9839 8.9006 25.9839C8.86543 25.9839 8.43575 25.0623 8.24469 24.5771C7.41114 22.4603 7.17195 19.9934 7.58299 17.7531C8.4778 12.8767 12.1177 8.97864 16.901 7.77425C17.7165 7.56891 18.7219 7.41814 19.3254 7.41071L19.6349 7.40687L19.6157 7.5143ZM20.801 22.6549C21.0919 22.7733 22.6537 23.4057 24.2718 24.0603C25.8898 24.7149 27.9723 25.5585 28.8995 25.935C29.8267 26.3115 30.6039 26.6269 30.6266 26.6358C30.6494 26.6447 30.668 26.6666 30.668 26.6844C30.668 26.7022 30.5465 26.8945 30.3981 27.1117C29.4888 28.4427 28.3043 29.6126 26.9643 30.5035C24.0262 32.4566 20.4285 33.084 16.9831 32.2439C14.3227 31.5952 11.8884 30.0366 10.1525 27.8704C9.93024 27.593 9.3056 26.7077 9.32216 26.6935C9.32695 26.6894 9.99278 26.4147 10.8018 26.0831C11.6108 25.7514 12.4438 25.4091 12.6529 25.3223C12.9987 25.1787 16.8314 23.6083 19.0656 22.6947L19.9746 22.323L20.1234 22.3814C20.2052 22.4135 20.5101 22.5365 20.801 22.6549Z" fill="#DD2A1B"/>
</svg>
