<svg width="40" height="40" viewBox="0 0 40 40" fill="none" xmlns="http://www.w3.org/2000/svg">
<path fill-rule="evenodd" clip-rule="evenodd" d="M31.6933 8.08203L34.3461 15.3433C35.3362 15.9399 36 17.0254 36 18.2632V21.2924C36 22.2811 35.3941 23.1307 34.5342 23.49V24.0499C34.5342 25.5842 33.2858 26.8326 31.7515 26.8326C30.2171 26.8326 28.9688 25.5843 28.9688 24.0499V23.6732H27.0296V26.2295C27.0296 27.2442 26.3912 28.1122 25.4952 28.4542V29.0485C25.4952 30.6304 24.2081 31.9174 22.6261 31.9174C21.0442 31.9174 19.7571 30.6305 19.7571 29.0485V28.6102H11.2724V29.0485C11.2724 30.6304 9.98537 31.9174 8.40337 31.9174C6.82143 31.9174 5.53438 30.6305 5.53438 29.0485V28.4542C4.63834 28.1122 4 27.2442 4 26.2295V22.8756C4 21.6 4.70515 20.4865 5.74576 19.9028L8.495 12.3775H16.6532L18.2225 8.08203H31.6933ZM30.382 9.95711H19.5338L18.6495 12.3775H22.5345L23.4402 14.8565H32.1719L30.382 9.95711ZM21.2232 14.2526H9.80624L7.9006 19.4688H23.1289L21.2232 14.2526ZM8.40337 30.0423C8.95145 30.0423 9.39735 29.5965 9.39735 29.0484V28.6101H7.40945V29.0484C7.40945 29.5964 7.85528 30.0423 8.40337 30.0423ZM13.8108 25.0551V26.7351H17.2187V25.0551H13.8108ZM19.0937 23.18V26.7351H19.7571H24.6488C24.9276 26.7351 25.1544 26.5083 25.1544 26.2295V22.8756C25.1544 22.031 24.4673 21.3439 23.6227 21.3439H7.40676C6.56223 21.3439 5.87508 22.031 5.87508 22.8756V26.2295C5.87508 26.5083 6.1019 26.7351 6.38066 26.7351H11.2724H11.9358V23.18H19.0937ZM22.6261 30.0423C23.1742 30.0423 23.6201 29.5965 23.6201 29.0484V28.6101H21.6322V29.0484C21.6322 29.5964 22.0781 30.0423 22.6261 30.0423ZM25.2837 19.9027C26.0172 20.3141 26.5833 20.9888 26.8539 21.798V21.7981H28.9688H33.6193C33.8981 21.7981 34.1249 21.5713 34.1249 21.2925V18.2633C34.1249 17.4187 33.4378 16.7316 32.5932 16.7316H24.1252L25.2837 19.9027ZM31.7515 24.9575C32.2519 24.9575 32.6591 24.5504 32.6591 24.0499V23.6732H30.8439V24.0499C30.8439 24.5503 31.251 24.9575 31.7515 24.9575ZM29.8301 18.4023H32.8741V20.2774H29.8301V18.4023ZM23.8006 23.1797H20.6143V25.0548H23.8006V23.1797ZM7.40137 23.1797H10.5877V25.0548H7.40137V23.1797Z" fill="#DD2A1B"/>
</svg>
