<svg width="40" height="40" viewBox="0 0 40 40" fill="none" xmlns="http://www.w3.org/2000/svg">
<path fill-rule="evenodd" clip-rule="evenodd" d="M11.0938 11.0586C11.0938 11.0908 11.0806 11.1172 11.0645 11.1172C11.0483 11.1172 11.0352 11.1436 11.0352 11.1758C11.0352 11.208 11.022 11.2344 11.0059 11.2344C10.9897 11.2344 10.9766 11.2607 10.9766 11.293C10.9766 11.3252 10.9634 11.3516 10.9473 11.3516C10.9312 11.3516 10.918 11.3779 10.918 11.4102C10.918 11.4424 10.9048 11.4688 10.8887 11.4688C10.8726 11.4688 10.8594 11.4922 10.8594 11.5209C10.8594 11.5496 10.833 11.592 10.8008 11.6152C10.7686 11.6385 10.7422 11.6809 10.7422 11.7096C10.7422 11.7383 10.729 11.7617 10.7129 11.7617C10.6968 11.7617 10.6836 11.7881 10.6836 11.8203C10.6836 11.8525 10.6704 11.8789 10.6543 11.8789C10.6382 11.8789 10.625 11.9053 10.625 11.9375C10.625 11.9697 10.6118 11.9961 10.5957 11.9961C10.5796 11.9961 10.5664 12.0225 10.5664 12.0547C10.5664 12.0869 10.5532 12.1133 10.5371 12.1133C10.521 12.1133 10.5078 12.1396 10.5078 12.1719C10.5078 12.2041 10.4946 12.2305 10.4785 12.2305C10.4624 12.2305 10.4492 12.2568 10.4492 12.2891C10.4492 12.3213 10.436 12.3477 10.4199 12.3477C10.4038 12.3477 10.3906 12.374 10.3906 12.4062C10.3906 12.4385 10.3774 12.4648 10.3613 12.4648C10.3452 12.4648 10.332 12.4912 10.332 12.5234C10.332 12.5557 10.3188 12.582 10.3027 12.582C10.2866 12.582 10.2734 12.6084 10.2734 12.6406C10.2734 12.6729 10.2603 12.6992 10.2441 12.6992C10.228 12.6992 10.2148 12.7256 10.2148 12.7578C10.2148 12.79 10.2017 12.8164 10.1855 12.8164C10.1694 12.8164 10.1562 12.8428 10.1562 12.875C10.1562 12.9072 10.1431 12.9336 10.127 12.9336C10.1108 12.9336 10.0977 12.96 10.0977 12.9922C10.0977 13.0244 10.0845 13.0508 10.0684 13.0508C10.0522 13.0508 10.0391 13.0771 10.0391 13.1094C10.0391 13.1416 10.0259 13.168 10.0098 13.168C9.99365 13.168 9.98047 13.1943 9.98047 13.2266C9.98047 13.2588 9.96729 13.2852 9.95117 13.2852C9.93506 13.2852 9.92188 13.3115 9.92188 13.3438C9.92188 13.376 9.90869 13.4023 9.89258 13.4023C9.87646 13.4023 9.86328 13.4287 9.86328 13.4609C9.86328 13.4932 9.8501 13.5195 9.83398 13.5195C9.81787 13.5195 9.80469 13.5459 9.80469 13.5781C9.80469 13.6104 9.7915 13.6367 9.77539 13.6367C9.75928 13.6367 9.74609 13.6602 9.74609 13.6888C9.74609 13.7175 9.71973 13.76 9.6875 13.7832C9.65527 13.8064 9.62891 13.8489 9.62891 13.8776C9.62891 13.9062 9.61572 13.9297 9.59961 13.9297C9.5835 13.9297 9.57031 13.9561 9.57031 13.9883C9.57031 14.0205 9.55713 14.0469 9.54102 14.0469C9.5249 14.0469 9.51172 14.0732 9.51172 14.1055C9.51172 14.1377 9.49854 14.1641 9.48242 14.1641C9.46631 14.1641 9.45312 14.1904 9.45312 14.2227C9.45312 14.2549 9.43994 14.2812 9.42383 14.2812C9.40771 14.2812 9.39453 14.2681 9.39453 14.252C9.39453 14.2358 9.37347 14.2227 9.34769 14.2227C9.32193 14.2227 9.2639 14.1831 9.21875 14.1348C9.1736 14.0864 9.11847 14.0469 9.09629 14.0469C9.07408 14.0469 9.0369 14.0205 9.01367 13.9883C8.99044 13.9561 8.94799 13.9297 8.91931 13.9297C8.89065 13.9297 8.86719 13.9165 8.86719 13.9004C8.86719 13.8843 8.84082 13.8711 8.80859 13.8711C8.77637 13.8711 8.75 13.8579 8.75 13.8418C8.75 13.8257 8.72363 13.8125 8.69141 13.8125C8.65918 13.8125 8.63281 13.7993 8.63281 13.7832C8.63281 13.7671 8.59326 13.7539 8.54492 13.7539C8.49658 13.7539 8.45703 13.7407 8.45703 13.7246C8.45703 13.7085 8.4043 13.6953 8.33984 13.6953C8.27539 13.6953 8.22266 13.6821 8.22266 13.666C8.22266 13.6497 8.14452 13.6367 8.04688 13.6367C7.94923 13.6367 7.87109 13.6237 7.87109 13.6074C7.87109 13.5903 7.77345 13.5781 7.63672 13.5781C7.49999 13.5781 7.40234 13.5903 7.40234 13.6074C7.40234 13.6237 7.32421 13.6367 7.22656 13.6367C7.12892 13.6367 7.05078 13.6497 7.05078 13.666C7.05078 13.6821 6.99805 13.6953 6.93359 13.6953C6.86914 13.6953 6.81641 13.7085 6.81641 13.7246C6.81641 13.7407 6.77686 13.7539 6.72852 13.7539C6.68018 13.7539 6.64062 13.7671 6.64062 13.7832C6.64062 13.7993 6.61426 13.8125 6.58203 13.8125C6.5498 13.8125 6.52344 13.8257 6.52344 13.8418C6.52344 13.8579 6.49707 13.8711 6.46484 13.8711C6.43262 13.8711 6.40625 13.8843 6.40625 13.9004C6.40625 13.9165 6.38278 13.9297 6.35413 13.9297C6.32545 13.9297 6.283 13.9561 6.25977 13.9883C6.23653 14.0205 6.19936 14.0469 6.17715 14.0469C6.15497 14.0469 6.09983 14.0864 6.05469 14.1348C6.00954 14.1831 5.9578 14.2227 5.93976 14.2227C5.89698 14.2227 5.58594 14.5337 5.58594 14.5765C5.58594 14.5945 5.54639 14.6463 5.49805 14.6914C5.44971 14.7366 5.41016 14.7946 5.41016 14.8203C5.41016 14.8461 5.39697 14.8672 5.38086 14.8672C5.36475 14.8672 5.35156 14.8936 5.35156 14.9258C5.35156 14.958 5.33838 14.9844 5.32227 14.9844C5.30615 14.9844 5.29297 15.0107 5.29297 15.043C5.29297 15.0752 5.27979 15.1016 5.26367 15.1016C5.24756 15.1016 5.23438 15.1279 5.23438 15.1602C5.23438 15.1924 5.22119 15.2188 5.20508 15.2188C5.18896 15.2188 5.17578 15.2583 5.17578 15.3066C5.17578 15.355 5.1626 15.3945 5.14648 15.3945C5.13037 15.3945 5.11719 15.4341 5.11719 15.4824C5.11719 15.5308 5.104 15.5703 5.08789 15.5703C5.07178 15.5703 5.05859 15.6362 5.05859 15.7168C5.05859 15.7974 5.04541 15.8633 5.0293 15.8633C5.00999 15.8633 5 16.6933 5 18.2949C5 19.8965 5.00999 20.7266 5.0293 20.7266C5.04541 20.7266 5.05859 20.7925 5.05859 20.873C5.05859 20.9536 5.07178 21.0195 5.08789 21.0195C5.104 21.0195 5.11719 21.0591 5.11719 21.1074C5.11719 21.1558 5.13037 21.1953 5.14648 21.1953C5.1626 21.1953 5.17578 21.2349 5.17578 21.2832C5.17578 21.3315 5.18896 21.3711 5.20508 21.3711C5.22119 21.3711 5.23438 21.3975 5.23438 21.4297C5.23438 21.4619 5.24756 21.4883 5.26367 21.4883C5.27979 21.4883 5.29297 21.5146 5.29297 21.5469C5.29297 21.5791 5.30615 21.6055 5.32227 21.6055C5.33838 21.6055 5.35156 21.6289 5.35156 21.6576C5.35156 21.6863 5.37793 21.7287 5.41016 21.752C5.44238 21.7752 5.46875 21.8124 5.46875 21.8346C5.46875 21.8567 5.5083 21.9119 5.55664 21.957C5.60498 22.0022 5.64453 22.0541 5.64453 22.0723C5.64453 22.1151 5.83754 22.3086 5.88022 22.3086C5.89815 22.3086 5.96346 22.3613 6.02539 22.4258C6.08732 22.4902 6.15588 22.543 6.17776 22.543C6.19965 22.543 6.23653 22.5693 6.25977 22.6016C6.283 22.6338 6.32545 22.6602 6.35413 22.6602C6.38278 22.6602 6.40625 22.6733 6.40625 22.6895C6.40625 22.7056 6.43262 22.7188 6.46484 22.7188C6.49707 22.7188 6.52344 22.7319 6.52344 22.748C6.52344 22.7642 6.56299 22.7773 6.61133 22.7773C6.65967 22.7773 6.69922 22.7905 6.69922 22.8066C6.69922 22.8228 6.72559 22.8359 6.75781 22.8359C6.79004 22.8359 6.81641 22.8491 6.81641 22.8652C6.81641 22.8813 6.86914 22.8945 6.93359 22.8945C6.99805 22.8945 7.05078 22.9077 7.05078 22.9238C7.05078 22.9409 7.14843 22.9531 7.28516 22.9531C7.42188 22.9531 7.51953 22.9653 7.51953 22.9824C7.51953 22.9985 7.58545 23.0117 7.66602 23.0117C7.74658 23.0117 7.8125 22.9985 7.8125 22.9824C7.8125 22.9657 7.90039 22.9531 8.01758 22.9531C8.13477 22.9531 8.22266 22.9406 8.22266 22.9238C8.22266 22.9077 8.27539 22.8945 8.33984 22.8945C8.4043 22.8945 8.45703 22.8813 8.45703 22.8652C8.45703 22.8491 8.4834 22.8359 8.51562 22.8359C8.54785 22.8359 8.57422 22.8228 8.57422 22.8066C8.57422 22.7905 8.61377 22.7773 8.66211 22.7773C8.71045 22.7773 8.75 22.7642 8.75 22.748C8.75 22.7319 8.77637 22.7188 8.80859 22.7188C8.84082 22.7188 8.86719 22.7056 8.86719 22.6895C8.86719 22.6733 8.90674 22.6602 8.95508 22.6602C9.04101 22.6602 9.04297 22.6634 9.04297 22.8066C9.04297 22.8872 9.05615 22.9531 9.07227 22.9531C9.08838 22.9531 9.10156 23.0059 9.10156 23.0703C9.10156 23.1348 9.11475 23.1875 9.13086 23.1875C9.14697 23.1875 9.16016 23.2534 9.16016 23.334C9.16016 23.4146 9.17334 23.4805 9.18945 23.4805C9.20557 23.4805 9.21875 23.5332 9.21875 23.5977C9.21875 23.6621 9.23193 23.7148 9.24805 23.7148C9.26416 23.7148 9.27734 23.7676 9.27734 23.832C9.27734 23.8965 9.29053 23.9492 9.30664 23.9492C9.32275 23.9492 9.33594 24.0151 9.33594 24.0957C9.33594 24.1763 9.34912 24.2422 9.36523 24.2422C9.38135 24.2422 9.39453 24.2949 9.39453 24.3594C9.39453 24.4238 9.40771 24.4766 9.42383 24.4766C9.43994 24.4766 9.45312 24.5425 9.45312 24.623C9.45312 24.7036 9.46631 24.7695 9.48242 24.7695C9.49854 24.7695 9.51172 24.8223 9.51172 24.8867C9.51172 24.9512 9.5249 25.0039 9.54102 25.0039C9.55713 25.0039 9.57031 25.0435 9.57031 25.0918V25.1797H10.6543H11.7383V25.4727C11.7383 25.6484 11.75 25.7656 11.7676 25.7656C11.7837 25.7656 11.7969 25.8315 11.7969 25.9121C11.7969 25.9927 11.8101 26.0586 11.8262 26.0586C11.8423 26.0586 11.8555 26.1113 11.8555 26.1758C11.8555 26.2402 11.8687 26.293 11.8848 26.293C11.9009 26.293 11.9141 26.3325 11.9141 26.3809C11.9141 26.4292 11.9272 26.4688 11.9434 26.4688C11.9595 26.4688 11.9727 26.4951 11.9727 26.5273C11.9727 26.5596 11.9858 26.5859 12.002 26.5859C12.0181 26.5859 12.0312 26.6255 12.0312 26.6738C12.0312 26.7222 12.0444 26.7617 12.0605 26.7617C12.0767 26.7617 12.0898 26.7852 12.0898 26.8138C12.0898 26.8425 12.1162 26.885 12.1484 26.9082C12.1807 26.9314 12.207 26.9739 12.207 27.0026C12.207 27.0312 12.2202 27.0547 12.2363 27.0547C12.2524 27.0547 12.2656 27.0782 12.2656 27.1068C12.2656 27.1355 12.292 27.1779 12.3242 27.2012C12.3564 27.2244 12.3828 27.2604 12.3828 27.2812C12.3828 27.3272 13.0428 27.9922 13.0885 27.9922C13.1064 27.9922 13.158 28.0317 13.2031 28.0801C13.2483 28.1284 13.3063 28.168 13.3321 28.168C13.3578 28.168 13.3789 28.1812 13.3789 28.1973C13.3789 28.2134 13.4024 28.2266 13.431 28.2266C13.4597 28.2266 13.5022 28.2529 13.5254 28.2852C13.5502 28.3196 13.6012 28.3438 13.6491 28.3438C13.6938 28.3438 13.7305 28.3569 13.7305 28.373C13.7305 28.3892 13.7568 28.4023 13.7891 28.4023C13.8213 28.4023 13.8477 28.4155 13.8477 28.4316C13.8477 28.4478 13.874 28.4609 13.9062 28.4609C13.9385 28.4609 13.9648 28.4741 13.9648 28.4902C13.9648 28.5063 14.0044 28.5195 14.0527 28.5195C14.1011 28.5195 14.1406 28.5327 14.1406 28.5488C14.1406 28.5649 14.1934 28.5781 14.2578 28.5781C14.3223 28.5781 14.375 28.5913 14.375 28.6074C14.375 28.6237 14.4531 28.6367 14.5508 28.6367C14.6484 28.6367 14.7266 28.6497 14.7266 28.666C14.7266 28.6842 14.8828 28.6953 15.1367 28.6953C15.3906 28.6953 15.5469 28.6842 15.5469 28.666C15.5469 28.6497 15.625 28.6367 15.7227 28.6367C15.8203 28.6367 15.8984 28.6237 15.8984 28.6074C15.8984 28.5913 15.9512 28.5781 16.0156 28.5781C16.0801 28.5781 16.1328 28.5649 16.1328 28.5488C16.1328 28.5327 16.1724 28.5195 16.2207 28.5195C16.269 28.5195 16.3086 28.5063 16.3086 28.4902C16.3086 28.4741 16.335 28.4609 16.3672 28.4609C16.3994 28.4609 16.4258 28.4478 16.4258 28.4316C16.4258 28.4155 16.4653 28.4023 16.5137 28.4023C16.562 28.4023 16.6016 28.3892 16.6016 28.373C16.6016 28.3569 16.625 28.3438 16.6537 28.3438C16.6824 28.3438 16.7248 28.3174 16.748 28.2852C16.7713 28.2529 16.8137 28.2266 16.8424 28.2266C16.8711 28.2266 16.8945 28.2134 16.8945 28.1973C16.8945 28.1812 16.918 28.168 16.9467 28.168C16.9753 28.168 17.0178 28.1416 17.041 28.1094C17.0642 28.0771 17.1003 28.0508 17.121 28.0508C17.1703 28.0508 17.8906 27.3305 17.8906 27.2812C17.8906 27.2604 17.917 27.2244 17.9492 27.2012C17.9814 27.1779 18.0078 27.1355 18.0078 27.1068C18.0078 27.0782 18.021 27.0547 18.0371 27.0547C18.0532 27.0547 18.0664 27.0312 18.0664 27.0026C18.0664 26.9739 18.0928 26.9314 18.125 26.9082C18.1572 26.885 18.1836 26.8425 18.1836 26.8138C18.1836 26.7852 18.1968 26.7617 18.2129 26.7617C18.229 26.7617 18.2422 26.7354 18.2422 26.7031C18.2422 26.6709 18.2554 26.6445 18.2715 26.6445C18.2876 26.6445 18.3008 26.605 18.3008 26.5566C18.3008 26.5083 18.314 26.4688 18.3301 26.4688C18.3462 26.4688 18.3594 26.4292 18.3594 26.3809C18.3594 26.3325 18.3726 26.293 18.3887 26.293C18.4048 26.293 18.418 26.2402 18.418 26.1758C18.418 26.1113 18.4312 26.0586 18.4473 26.0586C18.4634 26.0586 18.4766 25.9927 18.4766 25.9121C18.4766 25.8315 18.4897 25.7656 18.5059 25.7656C18.5234 25.7656 18.5352 25.6484 18.5352 25.4727V25.1797H21.8164H25.0977V25.4434C25.0977 25.5996 25.1096 25.707 25.127 25.707C25.1432 25.707 25.1562 25.7852 25.1562 25.8828C25.1562 25.9805 25.1693 26.0586 25.1855 26.0586C25.2017 26.0586 25.2148 26.1113 25.2148 26.1758C25.2148 26.2402 25.228 26.293 25.2441 26.293C25.2603 26.293 25.2734 26.3325 25.2734 26.3809C25.2734 26.4292 25.2866 26.4688 25.3027 26.4688C25.3188 26.4688 25.332 26.4951 25.332 26.5273C25.332 26.5596 25.3452 26.5859 25.3613 26.5859C25.3774 26.5859 25.3906 26.6123 25.3906 26.6445C25.3906 26.6768 25.4038 26.7031 25.4199 26.7031C25.436 26.7031 25.4492 26.7295 25.4492 26.7617C25.4492 26.7939 25.4624 26.8203 25.4785 26.8203C25.4946 26.8203 25.5078 26.8467 25.5078 26.8789C25.5078 26.9111 25.521 26.9375 25.5371 26.9375C25.5532 26.9375 25.5664 26.9639 25.5664 26.9961C25.5664 27.0283 25.5796 27.0547 25.5957 27.0547C25.6118 27.0547 25.625 27.0758 25.625 27.1015C25.625 27.1273 25.6646 27.1853 25.7129 27.2305C25.7612 27.2756 25.8008 27.3272 25.8008 27.3451C25.8008 27.363 25.9391 27.5159 26.108 27.6849C26.2771 27.8539 26.43 27.9922 26.4479 27.9922C26.4658 27.9922 26.5174 28.0317 26.5625 28.0801C26.6076 28.1284 26.6657 28.168 26.6914 28.168C26.7172 28.168 26.7383 28.1812 26.7383 28.1973C26.7383 28.2134 26.7646 28.2266 26.7969 28.2266C26.8291 28.2266 26.8555 28.2397 26.8555 28.2559C26.8555 28.272 26.8818 28.2852 26.9141 28.2852C26.9463 28.2852 26.9727 28.2983 26.9727 28.3145C26.9727 28.3306 26.999 28.3438 27.0312 28.3438C27.0635 28.3438 27.0898 28.3569 27.0898 28.373C27.0898 28.3892 27.1162 28.4023 27.1484 28.4023C27.1807 28.4023 27.207 28.4155 27.207 28.4316C27.207 28.4478 27.2466 28.4609 27.2949 28.4609C27.3433 28.4609 27.3828 28.4741 27.3828 28.4902C27.3828 28.5063 27.4092 28.5195 27.4414 28.5195C27.4736 28.5195 27.5 28.5327 27.5 28.5488C27.5 28.5649 27.5527 28.5781 27.6172 28.5781C27.6816 28.5781 27.7344 28.5913 27.7344 28.6074C27.7344 28.6237 27.8125 28.6367 27.9102 28.6367C28.0078 28.6367 28.0859 28.6497 28.0859 28.666C28.0859 28.6842 28.2422 28.6953 28.4961 28.6953C28.75 28.6953 28.9062 28.6842 28.9062 28.666C28.9062 28.6497 28.9844 28.6367 29.082 28.6367C29.1797 28.6367 29.2578 28.6237 29.2578 28.6074C29.2578 28.5913 29.3105 28.5781 29.375 28.5781C29.4395 28.5781 29.4922 28.5649 29.4922 28.5488C29.4922 28.5327 29.5317 28.5195 29.5801 28.5195C29.6284 28.5195 29.668 28.5063 29.668 28.4902C29.668 28.4741 29.6943 28.4609 29.7266 28.4609C29.7588 28.4609 29.7852 28.4478 29.7852 28.4316C29.7852 28.4155 29.8247 28.4023 29.873 28.4023C29.9214 28.4023 29.9609 28.3892 29.9609 28.373C29.9609 28.3569 29.9844 28.3438 30.0131 28.3438C30.0417 28.3438 30.0842 28.3174 30.1074 28.2852C30.1307 28.2529 30.1731 28.2266 30.2018 28.2266C30.2304 28.2266 30.2539 28.2134 30.2539 28.1973C30.2539 28.1812 30.2774 28.168 30.306 28.168C30.3347 28.168 30.3772 28.1416 30.4004 28.1094C30.4236 28.0771 30.4603 28.0508 30.482 28.0508C30.5037 28.0508 30.5856 27.9849 30.6641 27.9043C30.7425 27.8237 30.8217 27.7578 30.84 27.7578C30.883 27.7578 30.957 27.6838 30.957 27.6408C30.957 27.6225 31.0229 27.5433 31.1035 27.4648C31.1841 27.3864 31.25 27.3044 31.25 27.2828C31.25 27.2611 31.2764 27.2244 31.3086 27.2012C31.3408 27.1779 31.3672 27.1384 31.3672 27.1133C31.3672 27.0882 31.3936 27.0486 31.4258 27.0254C31.458 27.0022 31.4844 26.9597 31.4844 26.931C31.4844 26.9024 31.4976 26.8789 31.5137 26.8789C31.5298 26.8789 31.543 26.8525 31.543 26.8203C31.543 26.7881 31.5562 26.7617 31.5723 26.7617C31.5884 26.7617 31.6016 26.7354 31.6016 26.7031C31.6016 26.6709 31.6147 26.6445 31.6309 26.6445C31.647 26.6445 31.6602 26.605 31.6602 26.5566C31.6602 26.5083 31.6733 26.4688 31.6895 26.4688C31.7056 26.4688 31.7188 26.4292 31.7188 26.3809C31.7188 26.3325 31.7319 26.293 31.748 26.293C31.7642 26.293 31.7773 26.2402 31.7773 26.1758C31.7773 26.1113 31.7905 26.0586 31.8066 26.0586C31.8228 26.0586 31.8359 25.9927 31.8359 25.9121C31.8359 25.8315 31.8491 25.7656 31.8652 25.7656C31.8828 25.7656 31.8945 25.6484 31.8945 25.4727V25.1797H33.4473H35V22.3379C35 20.4629 34.99 19.4961 34.9707 19.4961C34.9546 19.4961 34.9414 19.4302 34.9414 19.3496C34.9414 19.269 34.9282 19.2031 34.9121 19.2031C34.896 19.2031 34.8828 19.1504 34.8828 19.0859C34.8828 19.0215 34.8696 18.9688 34.8535 18.9688C34.8374 18.9688 34.8242 18.9424 34.8242 18.9102C34.8242 18.8779 34.811 18.8516 34.7949 18.8516C34.7788 18.8516 34.7656 18.8252 34.7656 18.793C34.7656 18.7607 34.7524 18.7344 34.7363 18.7344C34.7202 18.7344 34.707 18.708 34.707 18.6758C34.707 18.6436 34.6938 18.6172 34.6777 18.6172C34.6616 18.6172 34.6484 18.5908 34.6484 18.5586C34.6484 18.5264 34.6353 18.5 34.6191 18.5C34.603 18.5 34.5898 18.4765 34.5898 18.4479C34.5898 18.4192 34.5635 18.3767 34.5312 18.3535C34.499 18.3303 34.4727 18.2942 34.4727 18.2734C34.4727 18.224 33.987 17.7383 33.9375 17.7383C33.9167 17.7383 33.8807 17.7119 33.8574 17.6797C33.8342 17.6475 33.7917 17.6211 33.7631 17.6211C33.7344 17.6211 33.7109 17.6079 33.7109 17.5918C33.7109 17.5757 33.6875 17.5625 33.6588 17.5625C33.6301 17.5625 33.5877 17.5361 33.5645 17.5039C33.5396 17.4695 33.4886 17.4453 33.4408 17.4453C33.396 17.4453 33.3594 17.4321 33.3594 17.416C33.3594 17.3999 33.333 17.3867 33.3008 17.3867C33.2686 17.3867 33.2422 17.3735 33.2422 17.3574C33.2422 17.3413 33.1895 17.3281 33.125 17.3281C33.0605 17.3281 33.0078 17.3149 33.0078 17.2988C33.0078 17.2827 32.9419 17.2695 32.8613 17.2695C32.7808 17.2695 32.7148 17.2563 32.7148 17.2402C32.7148 17.221 31.9577 17.2109 30.502 17.2109H28.2891L28.1875 17.1094C28.1316 17.0535 28.0859 16.9929 28.0859 16.9747C28.0859 16.9564 28.0464 16.9045 27.998 16.8594C27.9497 16.8142 27.9102 16.7591 27.9102 16.7369C27.9102 16.7147 27.8838 16.6775 27.8516 16.6543C27.8193 16.6311 27.793 16.5939 27.793 16.5717C27.793 16.5495 27.7534 16.4944 27.7051 16.4492C27.6567 16.4041 27.6172 16.3513 27.6172 16.332C27.6172 16.3127 27.5776 16.26 27.5293 16.2148C27.481 16.1697 27.4414 16.117 27.4414 16.0977C27.4414 16.0783 27.4019 16.0256 27.3535 15.9805C27.3052 15.9353 27.2656 15.8802 27.2656 15.858C27.2656 15.8358 27.2393 15.7986 27.207 15.7754C27.1748 15.7522 27.1484 15.715 27.1484 15.6928C27.1484 15.6706 27.1089 15.6155 27.0605 15.5703C27.0122 15.5252 26.9727 15.4724 26.9727 15.4531C26.9727 15.4338 26.9331 15.3811 26.8848 15.3359C26.8364 15.2908 26.7969 15.2357 26.7969 15.2135C26.7969 15.1913 26.7705 15.1541 26.7383 15.1309C26.7061 15.1076 26.6797 15.0704 26.6797 15.0482C26.6797 15.0261 26.6401 14.9709 26.5918 14.9258C26.5435 14.8806 26.5039 14.8279 26.5039 14.8086C26.5039 14.7893 26.4644 14.7366 26.416 14.6914C26.3677 14.6463 26.3281 14.5935 26.3281 14.5742C26.3281 14.5549 26.2886 14.5022 26.2402 14.457C26.1919 14.4119 26.1523 14.3567 26.1523 14.3346C26.1523 14.3124 26.126 14.2752 26.0938 14.252C26.0615 14.2287 26.0352 14.1915 26.0352 14.1693C26.0352 14.1472 25.9956 14.092 25.9473 14.0469C25.8989 14.0017 25.8594 13.949 25.8594 13.9297C25.8594 13.9104 25.8198 13.8576 25.7715 13.8125C25.7231 13.7674 25.6836 13.7146 25.6836 13.6953C25.6836 13.676 25.644 13.6233 25.5957 13.5781C25.5474 13.533 25.5078 13.4778 25.5078 13.4557C25.5078 13.4335 25.4814 13.3963 25.4492 13.373C25.417 13.3498 25.3906 13.3126 25.3906 13.2904C25.3906 13.2683 25.3511 13.2131 25.3027 13.168C25.2544 13.1228 25.2148 13.0701 25.2148 13.0508C25.2148 13.0315 25.1753 12.9787 25.127 12.9336C25.0786 12.8884 25.0391 12.8357 25.0391 12.8164C25.0391 12.7971 24.9995 12.7444 24.9512 12.6992C24.9028 12.6541 24.8633 12.5989 24.8633 12.5768C24.8633 12.5546 24.8369 12.5174 24.8047 12.4941C24.7725 12.4709 24.7461 12.4337 24.7461 12.4115C24.7461 12.3893 24.7065 12.3342 24.6582 12.2891C24.6099 12.2439 24.5703 12.1912 24.5703 12.1719C24.5703 12.1526 24.5308 12.0998 24.4824 12.0547C24.4341 12.0095 24.3945 11.9568 24.3945 11.9375C24.3945 11.9182 24.355 11.8655 24.3066 11.8203C24.2583 11.7752 24.2188 11.72 24.2188 11.6979C24.2188 11.6756 24.1924 11.6385 24.1602 11.6152C24.1279 11.592 24.1016 11.5548 24.1016 11.5326C24.1016 11.5104 24.062 11.4553 24.0137 11.4102C23.9653 11.365 23.9258 11.3123 23.9258 11.293C23.9258 11.2737 23.8862 11.2209 23.8379 11.1758C23.7896 11.1306 23.75 11.0726 23.75 11.0468C23.75 11.0041 23.2011 11 17.4219 11C11.1133 11 11.0938 11.0002 11.0938 11.0586ZM13.6719 14.9844V17.2109H11.9727H10.2734V16.8301C10.2734 16.5957 10.2847 16.4492 10.3027 16.4492C10.3188 16.4492 10.332 16.4229 10.332 16.3906C10.332 16.3584 10.3452 16.332 10.3613 16.332C10.3774 16.332 10.3906 16.3057 10.3906 16.2734C10.3906 16.2412 10.4038 16.2148 10.4199 16.2148C10.436 16.2148 10.4492 16.1885 10.4492 16.1562C10.4492 16.124 10.4624 16.0977 10.4785 16.0977C10.4946 16.0977 10.5078 16.0713 10.5078 16.0391C10.5078 16.0068 10.521 15.9805 10.5371 15.9805C10.5532 15.9805 10.5664 15.9541 10.5664 15.9219C10.5664 15.8896 10.5796 15.8633 10.5957 15.8633C10.6118 15.8633 10.625 15.8369 10.625 15.8047C10.625 15.7725 10.6382 15.7461 10.6543 15.7461C10.6704 15.7461 10.6836 15.7197 10.6836 15.6875C10.6836 15.6553 10.6968 15.6289 10.7129 15.6289C10.729 15.6289 10.7422 15.6025 10.7422 15.5703C10.7422 15.5381 10.7554 15.5117 10.7715 15.5117C10.7876 15.5117 10.8008 15.4854 10.8008 15.4531C10.8008 15.4209 10.814 15.3945 10.8301 15.3945C10.8462 15.3945 10.8594 15.3682 10.8594 15.3359C10.8594 15.3037 10.8726 15.2773 10.8887 15.2773C10.9048 15.2773 10.918 15.251 10.918 15.2188C10.918 15.1865 10.9312 15.1602 10.9473 15.1602C10.9634 15.1602 10.9766 15.1338 10.9766 15.1016C10.9766 15.0693 10.9897 15.043 11.0059 15.043C11.022 15.043 11.0352 15.0166 11.0352 14.9844C11.0352 14.9521 11.0483 14.9258 11.0645 14.9258C11.0806 14.9258 11.0938 14.9023 11.0938 14.8737C11.0938 14.845 11.1201 14.8025 11.1523 14.7793C11.1846 14.7561 11.2109 14.7136 11.2109 14.6849C11.2109 14.6563 11.2241 14.6328 11.2402 14.6328C11.2563 14.6328 11.2695 14.6064 11.2695 14.5742C11.2695 14.542 11.2827 14.5156 11.2988 14.5156C11.3149 14.5156 11.3281 14.4893 11.3281 14.457C11.3281 14.4248 11.3413 14.3984 11.3574 14.3984C11.3735 14.3984 11.3867 14.3721 11.3867 14.3398C11.3867 14.3076 11.3999 14.2812 11.416 14.2812C11.4321 14.2812 11.4453 14.2549 11.4453 14.2227C11.4453 14.1904 11.4585 14.1641 11.4746 14.1641C11.4907 14.1641 11.5039 14.1377 11.5039 14.1055C11.5039 14.0732 11.5171 14.0469 11.5332 14.0469C11.5493 14.0469 11.5625 14.0205 11.5625 13.9883C11.5625 13.9561 11.5757 13.9297 11.5918 13.9297C11.6079 13.9297 11.6211 13.9033 11.6211 13.8711C11.6211 13.8389 11.6343 13.8125 11.6504 13.8125C11.6665 13.8125 11.6797 13.7861 11.6797 13.7539C11.6797 13.7217 11.6929 13.6953 11.709 13.6953C11.7251 13.6953 11.7383 13.6689 11.7383 13.6367C11.7383 13.6045 11.7515 13.5781 11.7676 13.5781C11.7837 13.5781 11.7969 13.5518 11.7969 13.5195C11.7969 13.4873 11.8101 13.4609 11.8262 13.4609C11.8423 13.4609 11.8555 13.4346 11.8555 13.4023C11.8555 13.3701 11.8687 13.3438 11.8848 13.3438C11.9009 13.3438 11.9141 13.3174 11.9141 13.2852C11.9141 13.2529 11.9272 13.2266 11.9434 13.2266C11.9595 13.2266 11.9727 13.2002 11.9727 13.168C11.9727 13.1357 11.9858 13.1094 12.002 13.1094C12.0181 13.1094 12.0312 13.083 12.0312 13.0508C12.0312 13.0186 12.0444 12.9922 12.0605 12.9922C12.0767 12.9922 12.0898 12.9658 12.0898 12.9336C12.0898 12.9014 12.103 12.875 12.1191 12.875C12.1353 12.875 12.1484 12.8486 12.1484 12.8164C12.1484 12.7593 12.168 12.7578 12.9102 12.7578H13.6719V14.9844ZM19.5312 14.9844V17.2109H17.4805H15.4297V14.9844V12.7578H17.4805H19.5312V14.9844ZM22.8867 12.8594C22.9426 12.9152 22.9883 12.9759 22.9883 12.9941C22.9883 13.0123 23.0278 13.0642 23.0762 13.1094C23.1245 13.1545 23.1641 13.2073 23.1641 13.2266C23.1641 13.2459 23.2036 13.2986 23.252 13.3438C23.3003 13.3889 23.3398 13.444 23.3398 13.4662C23.3398 13.4884 23.3662 13.5256 23.3984 13.5488C23.4307 13.5721 23.457 13.6092 23.457 13.6314C23.457 13.6536 23.4966 13.7088 23.5449 13.7539C23.5933 13.7991 23.6328 13.8518 23.6328 13.8711C23.6328 13.8904 23.6724 13.9431 23.7207 13.9883C23.769 14.0334 23.8086 14.0862 23.8086 14.1055C23.8086 14.1248 23.8481 14.1775 23.8965 14.2227C23.9448 14.2678 23.9844 14.3229 23.9844 14.3451C23.9844 14.3673 24.0107 14.4045 24.043 14.4277C24.0752 14.451 24.1016 14.4881 24.1016 14.5104C24.1016 14.5325 24.1411 14.5877 24.1895 14.6328C24.2378 14.678 24.2773 14.7307 24.2773 14.75C24.2773 14.7693 24.3169 14.822 24.3652 14.8672C24.4136 14.9123 24.4531 14.9675 24.4531 14.9896C24.4531 15.0119 24.4795 15.049 24.5117 15.0723C24.5439 15.0955 24.5703 15.1327 24.5703 15.1549C24.5703 15.1771 24.6099 15.2322 24.6582 15.2773C24.7065 15.3225 24.7461 15.3752 24.7461 15.3945C24.7461 15.4138 24.7856 15.4666 24.834 15.5117C24.8823 15.5569 24.9219 15.6096 24.9219 15.6289C24.9219 15.6482 24.9614 15.7009 25.0098 15.7461C25.0581 15.7912 25.0977 15.844 25.0977 15.8633C25.0977 15.8826 25.1372 15.9353 25.1855 15.9805C25.2339 16.0256 25.2734 16.0808 25.2734 16.1029C25.2734 16.1251 25.2998 16.1623 25.332 16.1855C25.3643 16.2088 25.3906 16.246 25.3906 16.2682C25.3906 16.2903 25.4302 16.3455 25.4785 16.3906C25.5269 16.4358 25.5664 16.4885 25.5664 16.5078C25.5664 16.5271 25.606 16.5799 25.6543 16.625C25.7026 16.6701 25.7422 16.7253 25.7422 16.7475C25.7422 16.7697 25.7686 16.8068 25.8008 16.8301C25.833 16.8533 25.8594 16.8905 25.8594 16.9127C25.8594 16.9349 25.8989 16.99 25.9473 17.0352C25.9956 17.0803 26.0352 17.1383 26.0352 17.1641C26.0352 17.2066 25.8171 17.2109 23.6621 17.2109H21.2891V14.9844V12.7578H22.0371H22.7852L22.8867 12.8594ZM7.75391 15.3652C7.75391 15.3813 7.80664 15.3945 7.87109 15.3945C7.93555 15.3945 7.98828 15.4077 7.98828 15.4238C7.98828 15.4399 8.00835 15.4531 8.03287 15.4531C8.09088 15.4531 8.39844 15.7607 8.39844 15.8187C8.39844 15.8432 8.41162 15.8633 8.42773 15.8633C8.44385 15.8633 8.45703 15.9028 8.45703 15.9512C8.45703 15.9995 8.47021 16.0391 8.48633 16.0391C8.50561 16.0391 8.51562 16.8105 8.51562 18.2949C8.51562 19.7793 8.50561 20.5508 8.48633 20.5508C8.47021 20.5508 8.45703 20.5903 8.45703 20.6387C8.45703 20.687 8.44385 20.7266 8.42773 20.7266C8.41162 20.7266 8.39844 20.7467 8.39844 20.7713C8.39844 20.8294 8.14974 21.0781 8.09158 21.0781C8.067 21.0781 8.04688 21.0913 8.04688 21.1074C8.04688 21.1235 8.02051 21.1367 7.98828 21.1367C7.95605 21.1367 7.92969 21.1499 7.92969 21.166C7.92969 21.1821 7.87695 21.1953 7.8125 21.1953C7.74805 21.1953 7.69531 21.2085 7.69531 21.2246C7.69531 21.2407 7.65576 21.2539 7.60742 21.2539C7.55908 21.2539 7.51953 21.2407 7.51953 21.2246C7.51953 21.2085 7.4668 21.1953 7.40234 21.1953C7.33789 21.1953 7.28516 21.1821 7.28516 21.166C7.28516 21.1499 7.26509 21.1367 7.24057 21.1367C7.18256 21.1367 6.875 20.8292 6.875 20.7712C6.875 20.7466 6.86182 20.7266 6.8457 20.7266C6.82959 20.7266 6.81641 20.687 6.81641 20.6387C6.81641 20.5903 6.80322 20.5508 6.78711 20.5508C6.76783 20.5508 6.75781 19.7793 6.75781 18.2949C6.75781 16.8105 6.76783 16.0391 6.78711 16.0391C6.80322 16.0391 6.81641 15.9995 6.81641 15.9512C6.81641 15.9028 6.82959 15.8633 6.8457 15.8633C6.86182 15.8633 6.875 15.8432 6.875 15.8187C6.875 15.7607 7.18256 15.4531 7.24057 15.4531C7.26509 15.4531 7.28516 15.4399 7.28516 15.4238C7.28516 15.4077 7.33789 15.3945 7.40234 15.3945C7.4668 15.3945 7.51953 15.3813 7.51953 15.3652C7.51953 15.3491 7.57227 15.3359 7.63672 15.3359C7.70117 15.3359 7.75391 15.3491 7.75391 15.3652ZM32.5977 18.998C32.5977 19.0142 32.624 19.0273 32.6562 19.0273C32.6885 19.0273 32.7148 19.0405 32.7148 19.0566C32.7148 19.0728 32.7412 19.0859 32.7734 19.0859C32.8057 19.0859 32.832 19.0991 32.832 19.1152C32.832 19.1313 32.8527 19.1445 32.8781 19.1445C32.9345 19.1445 33.0078 19.2142 33.0078 19.2678C33.0078 19.2896 33.0342 19.3264 33.0664 19.3496C33.0986 19.3728 33.125 19.4153 33.125 19.444C33.125 19.4726 33.1382 19.4961 33.1543 19.4961C33.1704 19.4961 33.1836 19.5225 33.1836 19.5547C33.1836 19.5869 33.1968 19.6133 33.2129 19.6133C33.2306 19.6133 33.2422 19.7402 33.2422 19.9355V20.2578H32.4805H31.7188V21.1367V22.0156H32.4805H33.2422V22.7188V23.4219H32.2754C31.4142 23.4219 31.3086 23.4168 31.3086 23.3756C31.3086 23.3502 31.2559 23.2787 31.1914 23.2168C31.127 23.1549 31.0742 23.0897 31.0742 23.072C31.0742 23.03 30.763 22.7188 30.721 22.7188C30.7033 22.7188 30.6381 22.666 30.5762 22.6016C30.5142 22.5371 30.4457 22.4844 30.4238 22.4844C30.4019 22.4844 30.365 22.458 30.3418 22.4258C30.3186 22.3936 30.2761 22.3672 30.2474 22.3672C30.2188 22.3672 30.1953 22.354 30.1953 22.3379C30.1953 22.3218 30.1689 22.3086 30.1367 22.3086C30.1045 22.3086 30.0781 22.2954 30.0781 22.2793C30.0781 22.2632 30.0518 22.25 30.0195 22.25C29.9873 22.25 29.9609 22.2368 29.9609 22.2207C29.9609 22.2046 29.9346 22.1914 29.9023 22.1914C29.8701 22.1914 29.8438 22.1782 29.8438 22.1621C29.8438 22.146 29.8042 22.1328 29.7559 22.1328C29.7075 22.1328 29.668 22.1196 29.668 22.1035C29.668 22.0874 29.6416 22.0742 29.6094 22.0742C29.5771 22.0742 29.5508 22.061 29.5508 22.0449C29.5508 22.0288 29.498 22.0156 29.4336 22.0156C29.3691 22.0156 29.3164 22.0024 29.3164 21.9863C29.3164 21.9702 29.2505 21.957 29.1699 21.957C29.0894 21.957 29.0234 21.9438 29.0234 21.9277C29.0234 21.9093 28.8281 21.8984 28.4961 21.8984C28.1641 21.8984 27.9688 21.9093 27.9688 21.9277C27.9688 21.9438 27.9028 21.957 27.8223 21.957C27.7417 21.957 27.6758 21.9702 27.6758 21.9863C27.6758 22.0024 27.6362 22.0156 27.5879 22.0156C27.5396 22.0156 27.5 22.0288 27.5 22.0449C27.5 22.061 27.4604 22.0742 27.4121 22.0742C27.3638 22.0742 27.3242 22.0874 27.3242 22.1035C27.3242 22.1196 27.2847 22.1328 27.2363 22.1328C27.188 22.1328 27.1484 22.146 27.1484 22.1621C27.1484 22.1782 27.1221 22.1914 27.0898 22.1914C27.0576 22.1914 27.0312 22.2046 27.0312 22.2207C27.0312 22.2368 27.0049 22.25 26.9727 22.25C26.9404 22.25 26.9141 22.2632 26.9141 22.2793C26.9141 22.2954 26.8906 22.3086 26.8619 22.3086C26.8333 22.3086 26.7908 22.335 26.7676 22.3672C26.7443 22.3994 26.7048 22.4258 26.6797 22.4258C26.6546 22.4258 26.615 22.4521 26.5918 22.4844C26.5686 22.5166 26.5317 22.543 26.5098 22.543C26.4879 22.543 26.4194 22.5957 26.3574 22.6602C26.2955 22.7246 26.2302 22.7773 26.2123 22.7773C26.1699 22.7773 25.9766 22.9707 25.9766 23.013C25.9766 23.031 25.9238 23.0963 25.8594 23.1582C25.7949 23.2201 25.7422 23.286 25.7422 23.3045C25.7422 23.4251 25.8509 23.4219 21.8164 23.4219C17.7792 23.4219 17.8906 23.4252 17.8906 23.3039C17.8906 23.285 17.8511 23.2326 17.8027 23.1875C17.7544 23.1424 17.7148 23.0906 17.7148 23.0726C17.7148 23.0301 17.404 22.7188 17.3616 22.7188C17.3439 22.7188 17.2787 22.666 17.2168 22.6016C17.1549 22.5371 17.0863 22.4844 17.0644 22.4844C17.0425 22.4844 17.0057 22.458 16.9824 22.4258C16.9592 22.3936 16.9167 22.3672 16.8881 22.3672C16.8594 22.3672 16.8359 22.354 16.8359 22.3379C16.8359 22.3218 16.8096 22.3086 16.7773 22.3086C16.7451 22.3086 16.7188 22.2954 16.7188 22.2793C16.7188 22.2632 16.6924 22.25 16.6602 22.25C16.6279 22.25 16.6016 22.2368 16.6016 22.2207C16.6016 22.2046 16.5752 22.1914 16.543 22.1914C16.5107 22.1914 16.4844 22.1782 16.4844 22.1621C16.4844 22.146 16.4448 22.1328 16.3965 22.1328C16.3481 22.1328 16.3086 22.1196 16.3086 22.1035C16.3086 22.0874 16.269 22.0742 16.2207 22.0742C16.1724 22.0742 16.1328 22.061 16.1328 22.0449C16.1328 22.0288 16.0933 22.0156 16.0449 22.0156C15.9966 22.0156 15.957 22.0024 15.957 21.9863C15.957 21.9702 15.8911 21.957 15.8105 21.957C15.73 21.957 15.6641 21.9438 15.6641 21.9277C15.6641 21.9093 15.4687 21.8984 15.1367 21.8984C14.8047 21.8984 14.6094 21.9093 14.6094 21.9277C14.6094 21.9438 14.5435 21.957 14.4629 21.957C14.3823 21.957 14.3164 21.9702 14.3164 21.9863C14.3164 22.0024 14.2769 22.0156 14.2285 22.0156C14.1802 22.0156 14.1406 22.0288 14.1406 22.0449C14.1406 22.061 14.1011 22.0742 14.0527 22.0742C14.0044 22.0742 13.9648 22.0874 13.9648 22.1035C13.9648 22.1196 13.9253 22.1328 13.877 22.1328C13.8286 22.1328 13.7891 22.146 13.7891 22.1621C13.7891 22.1782 13.7627 22.1914 13.7305 22.1914C13.6982 22.1914 13.6719 22.2046 13.6719 22.2207C13.6719 22.2368 13.6455 22.25 13.6133 22.25C13.5811 22.25 13.5547 22.2632 13.5547 22.2793C13.5547 22.2954 13.5283 22.3086 13.4961 22.3086C13.4639 22.3086 13.4375 22.3218 13.4375 22.3379C13.4375 22.354 13.414 22.3672 13.3854 22.3672C13.3567 22.3672 13.3142 22.3936 13.291 22.4258C13.2678 22.458 13.2309 22.4844 13.209 22.4844C13.1871 22.4844 13.1186 22.5371 13.0566 22.6016C12.9947 22.666 12.9296 22.7188 12.9118 22.7188C12.8695 22.7188 12.5586 23.0301 12.5586 23.0726C12.5586 23.0906 12.519 23.1424 12.4707 23.1875C12.4224 23.2326 12.3828 23.285 12.3828 23.3039C12.3828 23.4109 12.3139 23.4219 11.6378 23.4219H10.9766V23.334C10.9766 23.2856 10.9634 23.2461 10.9473 23.2461C10.9312 23.2461 10.918 23.1934 10.918 23.1289C10.918 23.0645 10.9048 23.0117 10.8887 23.0117C10.8726 23.0117 10.8594 22.9458 10.8594 22.8652C10.8594 22.7847 10.8462 22.7188 10.8301 22.7188C10.814 22.7188 10.8008 22.666 10.8008 22.6016C10.8008 22.5371 10.7876 22.4844 10.7715 22.4844C10.7554 22.4844 10.7422 22.4316 10.7422 22.3672C10.7422 22.3027 10.729 22.25 10.7129 22.25C10.6968 22.25 10.6836 22.1973 10.6836 22.1328V22.0156H11.3574H12.0312V21.1367V20.2578H11.1523H10.2734V19.6133V18.9688H21.4355C28.8574 18.9688 32.5977 18.9786 32.5977 18.998ZM15.4883 23.6855C15.4883 23.7017 15.5278 23.7148 15.5762 23.7148C15.6245 23.7148 15.6641 23.728 15.6641 23.7441C15.6641 23.7603 15.7036 23.7734 15.752 23.7734C15.8003 23.7734 15.8398 23.7866 15.8398 23.8027C15.8398 23.8188 15.8633 23.832 15.892 23.832C15.9206 23.832 15.9631 23.8584 15.9863 23.8906C16.0096 23.9229 16.0457 23.9492 16.0666 23.9492C16.1161 23.9492 16.4844 24.3175 16.4844 24.367C16.4844 24.3879 16.5107 24.424 16.543 24.4473C16.5752 24.4705 16.6016 24.5129 16.6016 24.5416C16.6016 24.5703 16.6147 24.5938 16.6309 24.5938C16.647 24.5938 16.6602 24.6333 16.6602 24.6816C16.6602 24.73 16.6733 24.7695 16.6895 24.7695C16.7056 24.7695 16.7188 24.8091 16.7188 24.8574C16.7188 24.9058 16.7319 24.9453 16.748 24.9453C16.7659 24.9453 16.7773 25.082 16.7773 25.2969C16.7773 25.5117 16.7659 25.6484 16.748 25.6484C16.7319 25.6484 16.7188 25.688 16.7188 25.7363C16.7188 25.7847 16.7056 25.8242 16.6895 25.8242C16.6733 25.8242 16.6602 25.8638 16.6602 25.9121C16.6602 25.9604 16.647 26 16.6309 26C16.6147 26 16.6016 26.0235 16.6016 26.0521C16.6016 26.0808 16.5752 26.1233 16.543 26.1465C16.5107 26.1697 16.4844 26.2058 16.4844 26.2267C16.4844 26.28 16.1142 26.6445 16.0601 26.6445C16.0356 26.6445 16.0156 26.6577 16.0156 26.6738C16.0156 26.6899 15.9893 26.7031 15.957 26.7031C15.9248 26.7031 15.8984 26.7163 15.8984 26.7324C15.8984 26.7485 15.8721 26.7617 15.8398 26.7617C15.8076 26.7617 15.7812 26.7749 15.7812 26.791C15.7812 26.8071 15.7549 26.8203 15.7227 26.8203C15.6904 26.8203 15.6641 26.8335 15.6641 26.8496C15.6641 26.8657 15.6113 26.8789 15.5469 26.8789C15.4824 26.8789 15.4297 26.8921 15.4297 26.9082C15.4297 26.9258 15.3125 26.9375 15.1367 26.9375C14.9609 26.9375 14.8438 26.9258 14.8438 26.9082C14.8438 26.8921 14.791 26.8789 14.7266 26.8789C14.6621 26.8789 14.6094 26.8657 14.6094 26.8496C14.6094 26.8335 14.583 26.8203 14.5508 26.8203C14.5186 26.8203 14.4922 26.8071 14.4922 26.791C14.4922 26.7749 14.4658 26.7617 14.4336 26.7617C14.4014 26.7617 14.375 26.7485 14.375 26.7324C14.375 26.7163 14.3486 26.7031 14.3164 26.7031C14.2842 26.7031 14.2578 26.6899 14.2578 26.6738C14.2578 26.6577 14.2378 26.6445 14.2133 26.6445C14.1592 26.6445 13.7891 26.28 13.7891 26.2267C13.7891 26.2058 13.7627 26.1697 13.7305 26.1465C13.6982 26.1233 13.6719 26.0808 13.6719 26.0521C13.6719 26.0235 13.6587 26 13.6426 26C13.6265 26 13.6133 25.9604 13.6133 25.9121C13.6133 25.8638 13.6001 25.8242 13.584 25.8242C13.5679 25.8242 13.5547 25.7847 13.5547 25.7363C13.5547 25.688 13.5415 25.6484 13.5254 25.6484C13.5075 25.6484 13.4961 25.5117 13.4961 25.2969C13.4961 25.082 13.5075 24.9453 13.5254 24.9453C13.5415 24.9453 13.5547 24.9058 13.5547 24.8574C13.5547 24.8091 13.5679 24.7695 13.584 24.7695C13.6001 24.7695 13.6133 24.73 13.6133 24.6816C13.6133 24.6333 13.6265 24.5938 13.6426 24.5938C13.6587 24.5938 13.6719 24.5703 13.6719 24.5416C13.6719 24.5129 13.6982 24.4705 13.7305 24.4473C13.7627 24.424 13.7891 24.388 13.7891 24.3671C13.7891 24.3138 14.218 23.8906 14.272 23.8906C14.2964 23.8906 14.3164 23.8774 14.3164 23.8613C14.3164 23.8452 14.3428 23.832 14.375 23.832C14.4072 23.832 14.4336 23.8188 14.4336 23.8027C14.4336 23.7866 14.46 23.7734 14.4922 23.7734C14.5244 23.7734 14.5508 23.7603 14.5508 23.7441C14.5508 23.728 14.6035 23.7148 14.668 23.7148C14.7324 23.7148 14.7852 23.7017 14.7852 23.6855C14.7852 23.6676 14.9219 23.6562 15.1367 23.6562C15.3516 23.6562 15.4883 23.6676 15.4883 23.6855ZM28.8477 23.6855C28.8477 23.7017 28.9004 23.7148 28.9648 23.7148C29.0293 23.7148 29.082 23.728 29.082 23.7441C29.082 23.7603 29.1084 23.7734 29.1406 23.7734C29.1729 23.7734 29.1992 23.7866 29.1992 23.8027C29.1992 23.8188 29.2256 23.832 29.2578 23.832C29.29 23.832 29.3164 23.8452 29.3164 23.8613C29.3164 23.8774 29.3364 23.8906 29.3608 23.8906C29.4186 23.8906 29.9023 24.3744 29.9023 24.4322C29.9023 24.4566 29.9155 24.4766 29.9316 24.4766C29.9478 24.4766 29.9609 24.5029 29.9609 24.5352C29.9609 24.5674 29.9741 24.5938 29.9902 24.5938C30.0063 24.5938 30.0195 24.6201 30.0195 24.6523C30.0195 24.6846 30.0327 24.7109 30.0488 24.7109C30.0649 24.7109 30.0781 24.7637 30.0781 24.8281C30.0781 24.8926 30.0913 24.9453 30.1074 24.9453C30.1253 24.9453 30.1367 25.082 30.1367 25.2969C30.1367 25.5117 30.1253 25.6484 30.1074 25.6484C30.0913 25.6484 30.0781 25.688 30.0781 25.7363C30.0781 25.7847 30.0649 25.8242 30.0488 25.8242C30.0327 25.8242 30.0195 25.8638 30.0195 25.9121C30.0195 25.9604 30.0063 26 29.9902 26C29.9741 26 29.9609 26.0235 29.9609 26.0521C29.9609 26.0808 29.9346 26.1233 29.9023 26.1465C29.8701 26.1697 29.8438 26.2058 29.8438 26.2267C29.8438 26.2763 29.4755 26.6445 29.4259 26.6445C29.4051 26.6445 29.3689 26.6709 29.3457 26.7031C29.3209 26.7375 29.2699 26.7617 29.222 26.7617C29.1773 26.7617 29.1406 26.7749 29.1406 26.791C29.1406 26.8071 29.1143 26.8203 29.082 26.8203C29.0498 26.8203 29.0234 26.8335 29.0234 26.8496C29.0234 26.8657 28.9707 26.8789 28.9062 26.8789C28.8418 26.8789 28.7891 26.8921 28.7891 26.9082C28.7891 26.9258 28.6719 26.9375 28.4961 26.9375C28.3203 26.9375 28.2031 26.9258 28.2031 26.9082C28.2031 26.8921 28.1504 26.8789 28.0859 26.8789C28.0215 26.8789 27.9688 26.8657 27.9688 26.8496C27.9688 26.8335 27.9424 26.8203 27.9102 26.8203C27.8779 26.8203 27.8516 26.8071 27.8516 26.791C27.8516 26.7749 27.8252 26.7617 27.793 26.7617C27.7607 26.7617 27.7344 26.7485 27.7344 26.7324C27.7344 26.7163 27.7109 26.7031 27.6823 26.7031C27.6536 26.7031 27.6111 26.6768 27.5879 26.6445C27.5647 26.6123 27.5285 26.5859 27.5076 26.5859C27.4542 26.5859 27.1484 26.2747 27.1484 26.2204C27.1484 26.1958 27.1353 26.1758 27.1191 26.1758C27.103 26.1758 27.0898 26.1494 27.0898 26.1172C27.0898 26.085 27.0767 26.0586 27.0605 26.0586C27.0444 26.0586 27.0312 26.0322 27.0312 26C27.0312 25.9678 27.0181 25.9414 27.002 25.9414C26.9858 25.9414 26.9727 25.915 26.9727 25.8828C26.9727 25.8506 26.9595 25.8242 26.9434 25.8242C26.9272 25.8242 26.9141 25.7715 26.9141 25.707C26.9141 25.6426 26.9009 25.5898 26.8848 25.5898C26.8672 25.5898 26.8555 25.4727 26.8555 25.2969C26.8555 25.1211 26.8672 25.0039 26.8848 25.0039C26.9009 25.0039 26.9141 24.9512 26.9141 24.8867C26.9141 24.8223 26.9272 24.7695 26.9434 24.7695C26.9595 24.7695 26.9727 24.73 26.9727 24.6816C26.9727 24.6333 26.9858 24.5938 27.002 24.5938C27.0181 24.5938 27.0312 24.5703 27.0312 24.5416C27.0312 24.5129 27.0576 24.4705 27.0898 24.4473C27.1221 24.424 27.1484 24.3879 27.1484 24.367C27.1484 24.3461 27.2339 24.2435 27.3383 24.1391C27.4428 24.0347 27.5453 23.9492 27.5662 23.9492C27.5871 23.9492 27.6233 23.9229 27.6465 23.8906C27.6697 23.8584 27.7122 23.832 27.7409 23.832C27.7695 23.832 27.793 23.8188 27.793 23.8027C27.793 23.7866 27.8325 23.7734 27.8809 23.7734C27.9292 23.7734 27.9688 23.7603 27.9688 23.7441C27.9688 23.728 28.0083 23.7148 28.0566 23.7148C28.105 23.7148 28.1445 23.7017 28.1445 23.6855C28.1445 23.6676 28.2813 23.6562 28.4961 23.6562C28.7109 23.6562 28.8477 23.6676 28.8477 23.6855Z" fill="#DD2A1B"/>
</svg>
