<svg width="17" height="18" viewBox="0 0 17 18" fill="none" xmlns="http://www.w3.org/2000/svg">
<path d="M16.1753 16.0557L13.5515 13.1706C14.715 11.748 15.3524 9.95812 15.3524 8.09477C15.3524 3.74123 11.9088 0.199219 7.67622 0.199219C3.44362 0.199219 0 3.74123 0 8.09477C0 12.4483 3.44362 15.9903 7.67622 15.9903C9.2652 15.9903 10.7794 15.4974 12.074 14.5616L14.7321 17.4834C14.9227 17.687 15.179 17.7992 15.4537 17.7992C15.7137 17.7992 15.9603 17.6973 16.1476 17.5119C16.5454 17.1181 16.5581 16.4652 16.1753 16.0557ZM7.67622 1.95922C10.8048 1.95922 13.6889 4.90127 13.6889 8.11922C13.6889 11.3372 10.8048 14.2792 7.67622 14.2792C4.54766 14.2792 1.71111 11.3127 1.71111 8.09477C1.71111 4.87682 4.54766 1.95922 7.67622 1.95922Z" fill="white"/>
</svg>
