<svg width="25" height="24" viewBox="0 0 25 24" fill="none" xmlns="http://www.w3.org/2000/svg">
<path d="M20.4853 3.51469C18.2188 1.24823 15.2053 0 12 0C8.79469 0 5.78123 1.24823 3.51469 3.51469C1.24823 5.78123 0 8.79469 0 12C0 15.2053 1.24823 18.2188 3.51469 20.4853C5.78123 22.7518 8.79469 24 12 24C15.2053 24 18.2188 22.7518 20.4853 20.4853C22.7518 18.2188 24 15.2053 24 12C24 8.79469 22.7518 5.78123 20.4853 3.51469ZM21.6986 7.72425H19.6325C19.332 6.69075 18.387 5.92941 17.2634 5.90592C16.6169 4.22686 15.7221 2.81991 14.6168 1.73039C16.4454 2.19295 18.1224 3.14058 19.4909 4.50909C20.4334 5.45156 21.1762 6.54042 21.6986 7.72425ZM22.5938 12C22.5938 12.9839 22.4602 13.9472 22.2023 14.8695H18.1227C18.3411 13.5135 18.4047 12.1016 18.305 10.7C18.943 10.3913 19.4316 9.82153 19.6325 9.1305H22.2023C22.4602 10.0528 22.5938 11.0161 22.5938 12ZM3.68025 14.8695H1.7977C1.5398 13.9472 1.40625 12.9839 1.40625 12C1.40625 11.0161 1.5398 10.0528 1.7977 9.1305H5.87878C5.69353 10.2799 5.61872 11.4706 5.661 12.6598C4.68239 13.0157 3.92977 13.8451 3.68025 14.8695ZM17.2101 9.54394C16.5944 9.54394 16.0935 9.04303 16.0935 8.42737C16.0935 7.81172 16.5944 7.31086 17.2101 7.31086C17.8258 7.31086 18.3266 7.81177 18.3266 8.42737C18.3267 9.04308 17.8258 9.54394 17.2101 9.54394ZM14.7877 7.72425H12.7031V1.94808C14.3328 3.12075 15.315 4.81533 15.8969 6.27422C15.3663 6.59897 14.9651 7.11441 14.7877 7.72425ZM11.2969 1.95019V7.72425H7.61841C7.77497 7.15406 7.96322 6.60361 8.18217 6.08039C8.92641 4.30153 9.99127 2.89477 11.2969 1.95019ZM11.2969 9.1305V14.8695H9.78295C9.47353 13.5991 8.39006 12.6287 7.06219 12.4891C7.02975 11.353 7.11272 10.2188 7.30392 9.1305H11.2969ZM6.73158 13.8779C7.68811 13.8779 8.46628 14.6561 8.46628 15.6126C8.46628 16.5691 7.68811 17.3473 6.73158 17.3473C5.77509 17.3473 4.99692 16.5691 4.99692 15.6126C4.99692 14.6561 5.77509 13.8779 6.73158 13.8779ZM9.80147 16.2757H11.2969V22.0585C10.0549 21.1778 9.06605 19.9211 8.34473 18.3064C9.07711 17.8662 9.6158 17.136 9.80147 16.2757ZM12.7031 22.0508V16.2757H16.3821C16.2514 16.7511 16.0987 17.2135 15.9238 17.6587C15.1756 19.5634 14.0741 21.0602 12.7031 22.0508ZM12.7031 14.8695V9.1305H14.7877C15.066 10.0879 15.8972 10.8117 16.9114 10.9319C16.9955 12.2609 16.9214 13.5955 16.6974 14.8695H12.7031V14.8695ZM4.50909 4.50909C5.8792 3.13894 7.55864 2.19056 9.38977 1.72866C8.36662 2.73839 7.51884 4.02239 6.88491 5.53763C6.59564 6.22898 6.35545 6.96267 6.16584 7.72425H2.30142C2.8238 6.54042 3.56662 5.45156 4.50909 4.50909ZM2.30142 16.2757H3.66173C3.96703 17.6902 5.22717 18.7535 6.73158 18.7535C6.822 18.7535 6.91125 18.7488 6.99975 18.7413C7.60692 20.1437 8.39428 21.32 9.35419 22.262C7.53689 21.7968 5.8703 20.8521 4.50905 19.4909C3.56663 18.5484 2.8238 17.4596 2.30142 16.2757ZM19.4909 19.4909C18.1212 20.8606 16.4423 21.8089 14.6118 22.2709C15.6994 21.1979 16.5873 19.8158 17.2327 18.1728C17.4711 17.5659 17.6724 16.9308 17.8357 16.2757H21.6986C21.1762 17.4596 20.4334 18.5484 19.4909 19.4909Z" fill="#4087BE" stroke="#4087BE" stroke-width="0.3"/>
</svg>
