<svg width="24" height="24" viewBox="0 0 24 24" fill="none" xmlns="http://www.w3.org/2000/svg">
<path d="M21.9446 10.7361L20.9768 8.54441C20.8729 8.30907 20.64 8.15728 20.3827 8.15728H18.7787C18.4201 8.15728 18.1293 8.44796 18.1293 8.80669V9.83043H17.6304V8.98809C17.6304 8.62936 17.3396 8.33868 16.981 8.33868H15.252V6.56665C15.252 6.20792 14.9612 5.91724 14.6026 5.91724H11.4079V5.29882H14.6026C14.9612 5.29882 15.252 5.00806 15.252 4.64941C15.252 4.29068 14.9612 4 14.6026 4H6.91458C6.55593 4 6.26517 4.29068 6.26517 4.64941C6.26517 5.00806 6.55593 5.29882 6.91458 5.29882H10.1093V5.91724H6.91458C6.55593 5.91724 6.26517 6.20792 6.26517 6.56665V7.10644H4.84044C4.48179 7.10644 4.19103 7.39712 4.19103 7.75586V11.2408H3.29882V7.75586C3.29882 7.39712 3.00806 7.10644 2.64941 7.10644C2.29076 7.10644 2 7.39721 2 7.75586V16.0247C2 16.3834 2.29076 16.6741 2.64941 16.6741C3.00806 16.6741 3.29882 16.3834 3.29882 16.0247V12.5396H4.19103V16.0247C4.19103 16.3834 4.48179 16.6741 4.84044 16.6741H7.36354L9.92725 18.8182C10.0441 18.916 10.1915 18.9695 10.3439 18.9695H16.9811C17.3397 18.9695 17.6305 18.6788 17.6305 18.3201V16.5498H18.1294V17.5735C18.1294 17.9322 18.4202 18.2229 18.7788 18.2229H20.3828C20.64 18.2229 20.873 18.0711 20.9769 17.8358L21.9447 15.6441C21.9811 15.5614 22 15.4721 22 15.3818V10.9984C22 10.9082 21.9811 10.8187 21.9446 10.7361ZM20.7012 15.2449L19.9597 16.9242H19.4282V15.9004C19.4282 15.5417 19.1375 15.251 18.7788 15.251H16.9811C16.6224 15.251 16.3317 15.5417 16.3317 15.9004V17.6707H10.5796L8.0159 15.5266C7.899 15.4289 7.75163 15.3754 7.59923 15.3754H5.48986V8.40527H6.91458C7.27323 8.40527 7.56399 8.11459 7.56399 7.75586V7.21606H13.9533V8.98827C13.9533 9.347 14.244 9.63768 14.6027 9.63768H16.3317V10.48C16.3317 10.8387 16.6224 11.1294 16.9811 11.1294H18.7788C19.1375 11.1294 19.4282 10.8387 19.4282 10.48V9.45619H19.9597L20.7012 11.1355V15.2449Z" fill="#D2D2D7"/>
</svg>
