<svg width="24" height="24" viewBox="0 0 24 24" fill="none" xmlns="http://www.w3.org/2000/svg">
<path fill-rule="evenodd" clip-rule="evenodd" d="M11.8067 2.14453H18.7364C19.6917 2.14453 20.4689 2.9217 20.4689 3.87697V20.1234C20.4689 21.0786 19.6917 21.8558 18.7364 21.8558H4.87697C3.9217 21.8558 3.14453 21.0786 3.14453 20.1234V10.1242C3.14453 9.66157 3.32478 9.22653 3.65206 8.8993L4.25583 8.29548L3.35981 7.39947C3.13433 7.17394 3.13433 6.80832 3.35981 6.58284L5.46646 4.47585C5.69202 4.25029 6.05787 4.25048 6.28316 4.47581L7.17937 5.37198L7.51223 5.03912C7.83962 4.71169 8.27462 4.53144 8.73722 4.53144H11.2292V2.72201C11.2292 2.40309 11.4878 2.14453 11.8067 2.14453ZM6.3627 6.18861L5.87489 5.7008L4.58484 6.99108L5.07254 7.47878L6.3627 6.18861ZM18.7364 20.7008C19.0549 20.7008 19.3139 20.4418 19.3139 20.1234V5.6864H8.73722C8.58315 5.6864 8.43816 5.74653 8.32898 5.85564L4.46873 9.71593C4.35962 9.82507 4.29949 9.97006 4.29949 10.1242V20.1234C4.29949 20.4418 4.55854 20.7008 4.87697 20.7008H18.7364ZM12.3842 4.53144H19.3139V3.87697C19.3139 3.55854 19.0549 3.29949 18.7364 3.29949H12.3842V4.53144ZM14.3087 11.1231V16.0345L15.1741 16.8999C15.3996 17.1254 15.3996 17.4911 15.1741 17.7166C14.9486 17.9421 14.583 17.9421 14.3574 17.7166L13.492 16.8512H10.1206L9.25515 17.7166C9.02962 17.9421 8.664 17.9421 8.43847 17.7166C8.21295 17.4911 8.21295 17.1254 8.43847 16.8999L9.30388 16.0345V11.1231L8.43847 10.2577C8.21295 10.0322 8.21295 9.6665 8.43847 9.44101C8.664 9.21553 9.02966 9.21553 9.25515 9.44101L10.1206 10.3064H13.492L14.3574 9.44101C14.583 9.21553 14.9486 9.21553 15.1741 9.44101C15.3996 9.66654 15.3996 10.0322 15.1741 10.2577L14.3087 11.1231ZM10.4588 15.6962H13.1537V11.4614H10.4588V15.6962Z" fill="#D2D2D7"/>
<path fill-rule="evenodd" clip-rule="evenodd" d="M11.0847 2.72185C11.0847 2.32319 11.4079 2 11.8065 2H18.7363C19.7713 2 20.6131 2.84181 20.6131 3.8768V20.1232C20.6131 21.1582 19.7713 22 18.7363 22H4.8768C3.84181 22 3 21.1582 3 20.1232V10.124C3 9.62309 3.19548 9.15134 3.54982 8.79704L4.0515 8.29533L3.25757 7.50139C2.97572 7.21949 2.9757 6.76246 3.25757 6.48059L5.3642 4.37361C5.64616 4.09165 6.10344 4.09187 6.3851 4.37357L7.17921 5.16765L7.40998 4.93688C7.40998 4.93688 7.40998 4.93688 7.40998 4.93688C7.76442 4.5824 8.23614 4.38691 8.73706 4.38691H11.0847V2.72185ZM11.8065 2.28874C11.5674 2.28874 11.3734 2.48266 11.3734 2.72185V4.67565H8.73706C8.31278 4.67565 7.9145 4.84067 7.61416 5.14104L7.17921 5.57599L6.18092 4.57774C6.01199 4.40878 5.73755 4.40861 5.56839 4.57776C5.56838 4.57777 5.56839 4.57776 5.56839 4.57776L3.46175 6.68475C3.29265 6.85385 3.29262 7.12807 3.46174 7.29722C3.46174 7.29722 3.46173 7.29722 3.46174 7.29722L4.45983 8.29532L3.75398 9.00122C3.45377 9.30139 3.28874 9.69971 3.28874 10.124V20.1232C3.28874 20.9987 4.00127 21.7113 4.8768 21.7113H18.7363C19.6118 21.7113 20.3243 20.9987 20.3243 20.1232V3.8768C20.3243 3.00127 19.6118 2.28874 18.7363 2.28874H11.8065ZM12.2397 3.15496H18.7363C19.1344 3.15496 19.4581 3.47865 19.4581 3.8768V4.67565H12.2397V3.15496ZM12.5284 3.4437V4.38691H19.1694V3.8768C19.1694 3.63812 18.975 3.4437 18.7363 3.4437H12.5284ZM5.87472 5.49646L6.56671 6.18845L5.07238 7.68278L4.38052 6.99092L5.87472 5.49646ZM8.4309 5.95756C8.51308 5.87546 8.62138 5.83061 8.73706 5.83061L8.4309 5.95756ZM4.57065 9.81785C4.57064 9.81785 4.57066 9.81784 4.57065 9.81785L8.4309 5.95756L4.57065 9.81785ZM4.57065 9.81785C4.48856 9.89998 4.4437 10.0083 4.4437 10.124V20.1232C4.4437 20.3619 4.63812 20.5563 4.8768 20.5563H18.7363C18.975 20.5563 19.1694 20.3619 19.1694 20.1232V5.83061H8.73706M8.22677 5.75336C8.36294 5.61727 8.5446 5.54187 8.73706 5.54187H19.4581V20.1232C19.4581 20.5214 19.1344 20.845 18.7363 20.845H4.8768C4.47865 20.845 4.15496 20.5214 4.15496 20.1232V10.124C4.15496 9.93152 4.23036 9.74985 4.36646 9.6137L8.22677 5.75336ZM5.87473 5.90481L4.78884 6.9909L5.07238 7.27444L6.15837 6.18845L5.87473 5.90481ZM8.33624 9.33876C8.61813 9.05691 9.0752 9.05689 9.35707 9.33876L10.1802 10.1619H13.4321L14.2552 9.33876C14.5371 9.05692 14.9942 9.05689 15.276 9.33876C15.5579 9.62066 15.5579 10.0777 15.276 10.3596C15.276 10.3596 15.276 10.3596 15.276 10.3596L14.4529 11.1827V15.9745L15.276 16.7977C15.5579 17.0796 15.5579 17.5366 15.276 17.8185C14.9941 18.1004 14.5371 18.1004 14.2552 17.8185L13.4321 16.9954H10.1802L9.35707 17.8185C9.07516 18.1004 8.61813 18.1004 8.33623 17.8185C8.05433 17.5366 8.05432 17.0795 8.33623 16.7977C8.33623 16.7977 8.33622 16.7977 8.33623 16.7977L9.15935 15.9745V11.1827L8.33623 10.3596C8.05433 10.0777 8.05432 9.62063 8.33624 9.33876ZM9.1529 9.54293C8.9838 9.37383 8.70954 9.37382 8.54039 9.54294C8.37126 9.71204 8.37125 9.98629 8.5404 10.1554L9.44809 11.0631V16.0941L8.5404 17.0018C8.37127 17.1709 8.37125 17.4452 8.5404 17.6143C8.70954 17.7835 8.98375 17.7835 9.1529 17.6143L10.0606 16.7066H13.5517L14.4594 17.6143C14.6285 17.7835 14.9027 17.7835 15.0719 17.6143C15.241 17.4452 15.241 17.171 15.0719 17.0018L14.1642 16.0941V11.0631L15.0719 10.1554C15.241 9.98634 15.241 9.71208 15.0719 9.54293C14.9028 9.37384 14.6285 9.37382 14.4594 9.54293C14.4594 9.54294 14.4594 9.54293 14.4594 9.54293L13.5517 10.4506H10.0606L9.1529 9.54293ZM10.3143 11.3168H13.298V15.8404H10.3143V11.3168ZM10.6031 11.6056V15.5517H13.0092V11.6056H10.6031Z" fill="#D2D2D7"/>
</svg>
