<svg width="24" height="24" viewBox="0 0 24 24" fill="none" xmlns="http://www.w3.org/2000/svg">
<path fill-rule="evenodd" clip-rule="evenodd" d="M4.74103 2C3.2295 2 2 3.2295 2 4.74103C2 6.02308 2.88434 7.10171 4.0748 7.4001V14.5999C2.88434 14.8983 2 15.9769 2 17.259C2 18.7705 3.2295 20 4.74103 20C6.25257 20 7.48207 18.7705 7.48207 17.259C7.48207 15.9769 6.59773 14.8983 5.40727 14.5999V11.6662H10.3338V14.5999C9.1433 14.8983 8.25897 15.9769 8.25897 17.259C8.25897 18.7705 9.48846 20 11 20C12.5115 20 13.741 18.7705 13.741 17.259C13.741 15.9769 12.8567 14.8983 11.6662 14.5999V11.6662H16.2216C17.1611 11.6662 17.9252 10.9021 17.9252 9.9626V7.4001C19.1157 7.10174 20 6.02311 20 4.74103C20 3.2295 18.7705 2 17.259 2C15.7474 2 14.5179 3.2295 14.5179 4.74103C14.5179 6.02308 15.4023 7.10171 16.5927 7.4001V9.9626C16.5927 10.1671 16.4261 10.3338 16.2216 10.3338H11.6662V7.4001C12.8567 7.10174 13.741 6.02311 13.741 4.74103C13.741 3.2295 12.5115 2 11 2C9.48846 2 8.25897 3.2295 8.25897 4.74103C8.25897 6.02308 9.1433 7.10171 10.3338 7.4001V10.3338H5.40727V7.4001C6.59773 7.10174 7.48207 6.02311 7.48207 4.74103C7.48207 3.2295 6.25257 2 4.74103 2ZM3.33248 4.74103C3.33248 3.96449 3.96449 3.33248 4.74103 3.33248C5.51758 3.33248 6.14959 3.96449 6.14959 4.74103C6.14959 5.51758 5.51758 6.14959 4.74103 6.14959C3.96449 6.14959 3.33248 5.51758 3.33248 4.74103ZM9.59144 4.74103C9.59144 3.96449 10.2235 3.33248 11 3.33248C11.7765 3.33248 12.4086 3.96449 12.4086 4.74103C12.4086 5.51758 11.7765 6.14959 11 6.14959C10.2235 6.14959 9.59144 5.51758 9.59144 4.74103ZM15.8504 4.74103C15.8504 3.96449 16.4824 3.33248 17.259 3.33248C18.0355 3.33248 18.6675 3.96449 18.6675 4.74103C18.6675 5.51758 18.0355 6.14959 17.259 6.14959C16.4824 6.14959 15.8504 5.51758 15.8504 4.74103ZM3.33248 17.259C3.33248 16.4824 3.96449 15.8504 4.74103 15.8504C5.51758 15.8504 6.14959 16.4824 6.14959 17.259C6.14959 18.0355 5.51758 18.6675 4.74103 18.6675C3.96449 18.6675 3.33248 18.0355 3.33248 17.259ZM9.59144 17.259C9.59144 16.4824 10.2235 15.8504 11 15.8504C11.7765 15.8504 12.4086 16.4824 12.4086 17.259C12.4086 18.0355 11.7765 18.6675 11 18.6675C10.2235 18.6675 9.59144 18.0355 9.59144 17.259Z" fill="#D2D2D7"/>
</svg>
