<svg width="24" height="24" viewBox="0 0 24 24" fill="none" xmlns="http://www.w3.org/2000/svg">
<path d="M20.1859 17.0048H18.5177V14.8479L20.7758 12.5897C21.1016 12.264 21.1016 11.7358 20.7758 11.41L18.5177 9.15189V6.99495H20.1859C20.6466 6.99495 21.0201 6.6215 21.0201 6.1608V3.65834C21.0201 3.19765 20.6466 2.82419 20.1859 2.82419H15.181C14.7203 2.82419 14.3468 3.19765 14.3468 3.65834V6.1608C14.3468 6.6215 14.7203 6.99495 15.181 6.99495H16.8494V9.15189L14.8356 11.1657H7.18508L5.17127 9.15189V7.37195L6.18703 7.77143C6.61576 7.94005 7.1 7.72915 7.26858 7.30042L8.18447 4.97148C8.3531 4.54276 8.1422 4.05852 7.71347 3.88994L3.05558 2.0581C2.62686 1.88948 2.14262 2.10038 1.97404 2.5291L1.0581 4.85805C0.889479 5.28677 1.10038 5.77101 1.5291 5.93959L3.50292 6.71583V9.15189L1.24481 11.41C0.919049 11.7358 0.919049 12.264 1.24481 12.5897L3.50296 14.8479V16.4045L3.05558 16.2286C2.62686 16.0599 2.14262 16.2709 1.97404 16.6996L1.0581 19.0286C0.889479 19.4573 1.10038 19.9415 1.5291 20.1101L6.18699 21.9419C6.61572 22.1105 7.09996 21.8996 7.26854 21.4709L8.18443 19.142C8.35306 18.7132 8.14216 18.229 7.71343 18.0604L5.17118 17.0606V14.8479L7.185 12.8341H14.8355L16.8493 14.8479V17.0048H15.181C14.7203 17.0048 14.3468 17.3783 14.3468 17.839V20.3414C14.3468 20.8021 14.7203 21.1756 15.181 21.1756H20.1859C20.6466 21.1756 21.0201 20.8021 21.0201 20.3414V17.839C21.0201 17.3783 20.6466 17.0048 20.1859 17.0048ZM16.0152 4.49254H19.3518V5.32669H16.0152V4.49254ZM3.22127 3.91596L6.32661 5.13717L6.0213 5.91357L2.91596 4.69236L3.22127 3.91596ZM6.0213 20.0841L2.91596 18.8628L3.22127 18.0864L6.32661 19.3077L6.0213 20.0841ZM4.33711 13.3227L3.01432 11.9999L4.33711 10.6771L5.6599 11.9999L4.33711 13.3227ZM17.6835 10.6771L19.0063 11.9999L17.6835 13.3227L16.3607 11.9999L17.6835 10.6771ZM19.3518 19.5073H16.0152V18.6731H19.3518V19.5073Z" fill="#D2D2D7"/>
</svg>
