<svg width="40" height="40" viewBox="0 0 40 40" fill="none" xmlns="http://www.w3.org/2000/svg">
<path fill-rule="evenodd" clip-rule="evenodd" d="M25.9161 23.4122H32.2624V29.7495H29.2625V34.3996H8V28.062H11.0001V23.4122H15.2369C12.7239 21.6557 11.0705 18.6971 11.0705 15.3495C11.0705 9.97349 15.3349 5.59961 20.5767 5.59961C25.8183 5.59961 30.083 9.97349 30.0827 15.3495C30.0827 18.6971 28.4293 21.6557 25.9161 23.4122ZM24.4204 25.0997V28.062H26.6236V25.0997H24.4204ZM15.8423 32.7121V29.7495H13.6391V32.7121H15.8423ZM18.8422 28.062V25.0997H16.639V28.062H18.8422ZM22.7329 28.062V25.0997H20.5297V28.062H22.7329ZM19.733 29.7495H17.5298V32.7121H19.733V29.7495ZM23.6234 29.7495H21.4205V32.7121H23.6234V29.7495ZM20.5767 7.28711C16.2652 7.28711 12.758 10.904 12.758 15.3495C12.758 19.7953 16.2652 23.4122 20.5767 23.4122C24.888 23.4122 28.3955 19.7953 28.3955 15.3495C28.3955 10.904 24.888 7.28711 20.5767 7.28711ZM14.9517 25.0997H12.6876V28.062H14.9517V25.0997ZM11.9516 29.7495H9.6875V32.7121H11.9516V29.7495ZM25.3109 32.7121H27.575V29.7495H25.3109V32.7121ZM28.3111 28.062H30.5751V25.0997H28.3111V28.062ZM14.5279 15.3495C14.5279 11.9334 17.2413 9.15435 20.5767 9.15435C23.9119 9.15435 26.6253 11.9337 26.6253 15.3495C26.6253 18.7656 23.9119 21.5449 20.5767 21.5449C17.2413 21.5449 14.5279 18.7656 14.5279 15.3495ZM16.2154 15.3495C16.2154 17.8353 18.1718 19.8574 20.5767 19.8574C22.9814 19.8574 24.9378 17.8351 24.9378 15.3495C24.9378 12.864 22.9814 10.8418 20.5767 10.8418C18.1718 10.8418 16.2154 12.864 16.2154 15.3495Z" fill="#DD2A1B"/>
</svg>
