<svg width="40" height="40" viewBox="0 0 40 40" fill="none" xmlns="http://www.w3.org/2000/svg">
<path fill-rule="evenodd" clip-rule="evenodd" d="M30.7145 12.0849L31.3112 12.6816C31.6406 13.0111 32.1749 13.0111 32.5044 12.6816C32.8339 12.3521 32.8339 11.8178 32.5044 11.4883L30.1179 9.10187C29.7885 8.77232 29.2543 8.77232 28.9247 9.10187C28.5952 9.43132 28.5952 9.96555 28.9247 10.2951L29.5213 10.8916L28.2913 12.1217C26.1931 10.273 23.5907 9.18689 20.8191 9.00329V7.28711H23.3504C23.8164 7.28711 24.1941 6.90932 24.1941 6.44336C24.1941 5.9774 23.8164 5.59961 23.3504 5.59961H16.6004C16.1344 5.59961 15.7566 5.9774 15.7566 6.44336C15.7566 6.90932 16.1344 7.28711 16.6004 7.28711H19.1316V9.00329C16.3601 9.18689 13.7577 10.273 11.6594 12.1217L10.4294 10.8916L11.0261 10.2951C11.3556 9.96555 11.3556 9.43136 11.0261 9.10187C10.6966 8.77232 10.1623 8.77232 9.83282 9.10187L7.44636 11.4883C7.11684 11.8178 7.11684 12.352 7.44636 12.6816C7.77581 13.0111 8.31014 13.0111 8.63959 12.6816L9.23623 12.0849L10.4682 13.3168C8.43208 15.6415 7.31913 18.583 7.31913 21.6871C7.31913 28.6691 12.985 34.3996 19.9754 34.3996C26.9569 34.3996 32.6316 28.6775 32.6316 21.6871C32.6316 18.583 31.5187 15.6415 29.4826 13.3168L30.7145 12.0849ZM30.9441 21.6871C30.9441 27.7663 26.0235 32.7121 19.9754 32.7121C13.9272 32.7121 9.00663 27.7663 9.00663 21.6871C9.00663 15.6079 13.9271 10.6621 19.9754 10.6621C26.0236 10.6621 30.9441 15.6079 30.9441 21.6871ZM19.9754 12.3496C14.8577 12.3496 10.6941 16.5384 10.6941 21.6871C10.6941 26.8358 14.8577 31.0246 19.9754 31.0246C25.0931 31.0246 29.2566 26.8358 29.2566 21.6871C29.2566 16.5384 25.0931 12.3496 19.9754 12.3496ZM20.8191 29.2896V28.4934C20.8191 28.0274 20.4414 27.6496 19.9754 27.6496C19.5094 27.6496 19.1316 28.0274 19.1316 28.4934V29.2896C15.6151 28.8962 12.8157 26.0743 12.428 22.5309H13.2254C13.6914 22.5309 14.0691 22.1531 14.0691 21.6871C14.0691 21.2211 13.6914 20.8434 13.2254 20.8434H12.428C12.8157 17.2999 15.6151 14.478 19.1316 14.0846V14.8809C19.1316 15.3468 19.5094 15.7246 19.9754 15.7246C20.4414 15.7246 20.8191 15.3468 20.8191 14.8809V14.0846C24.3357 14.478 27.135 17.3 27.5227 20.8434H26.7254C26.2594 20.8434 25.8816 21.2211 25.8816 21.6871C25.8816 22.1531 26.2594 22.5309 26.7254 22.5309H27.5227C27.135 26.0743 24.3356 28.8962 20.8191 29.2896ZM22.9585 17.5109C23.288 17.1813 23.8223 17.1813 24.1517 17.5108C24.4812 17.8403 24.4812 18.3746 24.1517 18.704L22.2592 20.5965C22.4177 20.927 22.5066 21.2969 22.5066 21.6872C22.5066 23.0829 21.3711 24.2185 19.9754 24.2185C18.5796 24.2185 17.4441 23.0829 17.4441 21.6872C17.4441 20.2915 18.5796 19.156 19.9754 19.156C20.3657 19.156 20.7355 19.2449 21.066 19.4033L22.9585 17.5109ZM19.1316 21.6872C19.1316 22.1524 19.5101 22.531 19.9754 22.531C20.4406 22.531 20.8191 22.1524 20.8191 21.6872C20.8191 21.2219 20.4406 20.8435 19.9754 20.8435C19.5101 20.8435 19.1316 21.2219 19.1316 21.6872Z" fill="#DD2A1B"/>
</svg>
