<svg width="40" height="40" viewBox="0 0 40 40" fill="none" xmlns="http://www.w3.org/2000/svg">
<path fill-rule="evenodd" clip-rule="evenodd" d="M30.0505 8.90165C30.0723 8.91757 30.0864 8.92401 30.0911 8.91942C30.1052 8.90536 30.3052 9.08886 30.6442 9.42762C30.9833 9.76648 31.1661 9.96599 31.152 9.98005C31.1395 9.99334 31.2192 10.0906 31.3505 10.2231C31.4833 10.3557 31.563 10.453 31.5505 10.4662C31.5442 10.473 31.5567 10.4984 31.5848 10.5341C31.6083 10.5645 31.6426 10.6024 31.6833 10.643C31.7708 10.7314 31.8286 10.8072 31.8145 10.8198C31.8036 10.8319 31.8426 10.8916 31.9036 10.9523C31.9645 11.0131 32.0036 11.0728 31.9926 11.0849C31.9801 11.097 32.0098 11.1468 32.0583 11.1954C32.1067 11.244 32.1364 11.2937 32.1239 11.3059C32.1129 11.318 32.1426 11.3677 32.1911 11.4164C32.2395 11.465 32.2692 11.5147 32.2567 11.5269C32.2536 11.5301 32.2536 11.5361 32.2567 11.5439C32.2629 11.5655 32.2879 11.6017 32.3239 11.6374C32.3723 11.686 32.402 11.7357 32.3895 11.7478C32.377 11.76 32.3973 11.7998 32.4333 11.8362C32.4708 11.8727 32.4895 11.9125 32.4786 11.9246C32.4708 11.9329 32.477 11.9537 32.4942 11.9776L32.5223 12.013C32.5583 12.0495 32.5786 12.0892 32.5661 12.1014C32.5536 12.1135 32.5739 12.1533 32.6114 12.1898C32.6379 12.2165 32.6567 12.2451 32.6583 12.2632C32.6598 12.2698 32.6583 12.2749 32.6551 12.2782C32.6426 12.2903 32.6629 12.3301 32.6989 12.3665C32.7348 12.403 32.7551 12.4428 32.7426 12.4549C32.7317 12.467 32.7411 12.4969 32.7661 12.5212C32.7895 12.5455 32.7989 12.5753 32.7879 12.5875C32.7754 12.5996 32.7957 12.6394 32.8317 12.6759C32.8676 12.7123 32.8879 12.7521 32.8754 12.7643C32.8629 12.7764 32.8739 12.8063 32.8973 12.8306C32.9223 12.8549 32.9317 12.8847 32.9207 12.8969C32.9082 12.909 32.927 12.9488 32.9645 12.9853C33.0004 13.0217 33.0207 13.0615 33.0082 13.0737C32.9957 13.0858 33.0067 13.1157 33.0301 13.14C33.0551 13.1642 33.0645 13.1941 33.052 13.2062C33.0411 13.2184 33.0504 13.2482 33.0754 13.2725C33.0879 13.2855 33.0957 13.3 33.0989 13.3126C33.102 13.3237 33.102 13.3331 33.0973 13.3388C33.0848 13.3509 33.0942 13.3808 33.1192 13.4051C33.1426 13.4294 33.1536 13.4592 33.1411 13.4714C33.1286 13.4835 33.1395 13.5134 33.1629 13.5376C33.1879 13.5619 33.1973 13.5918 33.1848 13.6039C33.1723 13.6161 33.1832 13.6459 33.2067 13.6702C33.2317 13.6946 33.2411 13.7243 33.2301 13.7365C33.2176 13.7487 33.2254 13.7763 33.2473 13.798C33.2676 13.8196 33.2801 13.8715 33.2739 13.9133C33.2661 13.9551 33.2786 14.0071 33.3004 14.0287C33.3223 14.0503 33.3301 14.0779 33.3176 14.0901C33.3051 14.1023 33.3129 14.1299 33.3348 14.1515C33.3473 14.1638 33.3567 14.186 33.3614 14.2105C33.3645 14.2289 33.3645 14.2488 33.3614 14.2669C33.3551 14.3087 33.3676 14.3606 33.3895 14.3822C33.4098 14.4038 33.4176 14.4315 33.4067 14.4437C33.3942 14.4558 33.402 14.4834 33.4239 14.5051C33.4457 14.5267 33.4567 14.5786 33.4504 14.6204C33.4442 14.6622 33.452 14.7102 33.4692 14.727C33.4848 14.7437 33.4973 14.815 33.4942 14.8856C33.4926 14.9561 33.5036 15.0275 33.5207 15.0442C33.527 15.0502 33.5317 15.0601 33.5348 15.0722C33.5426 15.0942 33.5442 15.1237 33.5395 15.1507C33.5317 15.1926 33.5395 15.2402 33.5567 15.2567C33.5661 15.2661 33.5739 15.2995 33.5786 15.3441L33.5832 15.4601C33.5817 15.5554 33.5911 15.6446 33.6051 15.6583C33.6145 15.6684 33.6223 15.7526 33.6254 15.8642L33.627 15.9904C33.6254 16.1594 33.6348 16.3082 33.6489 16.3211C33.6785 16.3517 33.6785 17.176 33.6489 17.2067C33.6348 17.2197 33.6254 17.3485 33.627 17.493C33.6285 17.6375 33.6176 17.767 33.6051 17.7807C33.5911 17.7946 33.5817 17.8838 33.5832 17.9792C33.5848 18.0745 33.5723 18.1659 33.5567 18.1825C33.5395 18.199 33.5317 18.2466 33.5395 18.2884C33.5457 18.3303 33.5379 18.3783 33.5207 18.395C33.5036 18.4117 33.4926 18.4832 33.4942 18.5537C33.4973 18.6242 33.4848 18.6956 33.4692 18.7123C33.4551 18.7252 33.4473 18.7571 33.4489 18.7902L33.4504 18.8188C33.4567 18.8606 33.4457 18.9126 33.4239 18.9341C33.402 18.9558 33.3942 18.9834 33.4067 18.9956C33.4129 19.0021 33.4129 19.0131 33.4082 19.0251C33.4051 19.0356 33.3989 19.0469 33.3895 19.057C33.3676 19.0787 33.3551 19.1305 33.3614 19.1723C33.3692 19.2142 33.3567 19.2661 33.3348 19.2877C33.3129 19.3093 33.3051 19.337 33.3176 19.3492C33.3301 19.3613 33.3223 19.3889 33.3004 19.4105C33.2786 19.4322 33.2661 19.484 33.2739 19.5259C33.2801 19.5677 33.2676 19.6197 33.2473 19.6413C33.2254 19.6628 33.2176 19.6906 33.2301 19.7027C33.2364 19.7099 33.2348 19.7234 33.2286 19.7382L33.2067 19.769C33.1832 19.7933 33.1723 19.8231 33.1848 19.8353C33.1973 19.8474 33.1879 19.8773 33.1629 19.9015C33.1395 19.9258 33.1286 19.9557 33.1411 19.9678C33.1536 19.98 33.1426 20.0098 33.1192 20.0341C33.0942 20.0584 33.0848 20.0882 33.0973 20.1004C33.1082 20.1125 33.0989 20.1424 33.0754 20.1667C33.0582 20.1838 33.0489 20.2036 33.0473 20.2181L33.052 20.233C33.0645 20.2452 33.0551 20.2749 33.0301 20.2993C33.0067 20.3236 32.9957 20.3534 33.0082 20.3656C33.0145 20.3718 33.0114 20.3855 33.0036 20.4021C32.9957 20.4178 32.9817 20.4363 32.9645 20.4539C32.927 20.4905 32.9082 20.5302 32.9207 20.5423C32.9317 20.5545 32.9223 20.5843 32.8973 20.6086C32.8739 20.6329 32.8629 20.6628 32.8754 20.6749C32.8879 20.687 32.8676 20.7269 32.8317 20.7633C32.7957 20.7997 32.7754 20.8396 32.7879 20.8517C32.7957 20.8613 32.7926 20.8815 32.7786 20.9014L32.7661 20.918C32.7489 20.935 32.7395 20.9547 32.7379 20.9692L32.7426 20.9843C32.7473 20.9894 32.7473 20.9995 32.7426 21.0122C32.7348 21.0295 32.7192 21.0517 32.6989 21.0727C32.6848 21.0865 32.6739 21.1009 32.6661 21.114C32.652 21.1354 32.6473 21.1535 32.6551 21.1611C32.6614 21.1674 32.6583 21.181 32.6504 21.1977C32.6426 21.2134 32.6286 21.2319 32.6114 21.2494C32.5864 21.274 32.5692 21.3 32.5645 21.3181C32.5614 21.3269 32.5614 21.3338 32.5661 21.3378C32.5786 21.35 32.5583 21.3898 32.5223 21.4262C32.4864 21.4627 32.4661 21.5025 32.4786 21.5146C32.4895 21.5268 32.4708 21.5665 32.4333 21.603C32.3973 21.6395 32.377 21.6792 32.3895 21.6914C32.402 21.7035 32.3723 21.7532 32.3239 21.8019C32.2754 21.8505 32.2458 21.9002 32.2567 21.9123C32.2692 21.9245 32.2395 21.9742 32.1911 22.0229C32.1426 22.0715 32.1129 22.1212 32.1239 22.1333C32.1317 22.1406 32.1239 22.1615 32.1067 22.1876L32.0583 22.2438C32.0098 22.2924 31.9801 22.3421 31.9926 22.3543C32.0036 22.3666 31.9551 22.4354 31.8817 22.509C31.8083 22.5826 31.7583 22.6514 31.7708 22.6637C31.7833 22.676 31.7348 22.7446 31.6598 22.8184C31.5864 22.892 31.538 22.9607 31.5505 22.973C31.563 22.9862 31.4833 23.0835 31.3505 23.2161C31.2192 23.3486 31.1395 23.4459 31.152 23.4592C31.1661 23.4732 30.9833 23.6727 30.6442 24.0115C30.3052 24.3504 30.1052 24.5339 30.0911 24.5198C30.0786 24.5065 29.9817 24.5861 29.8489 24.7186C29.7161 24.8512 29.6192 24.9307 29.6052 24.9175C29.5927 24.9052 29.5239 24.9544 29.4505 25.028C29.4099 25.0685 29.3708 25.1016 29.3427 25.1212C29.3192 25.1371 29.302 25.144 29.2958 25.1384C29.2833 25.1262 29.2145 25.1754 29.1411 25.249C29.0677 25.3226 28.9989 25.3717 28.9864 25.3594C28.9739 25.3473 28.9255 25.3771 28.8771 25.4257C28.8271 25.4744 28.7786 25.5042 28.7661 25.4921C28.7536 25.4798 28.7036 25.5097 28.6552 25.5584C28.6067 25.6069 28.5567 25.6368 28.5442 25.6246C28.5364 25.6164 28.5114 25.6274 28.4802 25.6505L28.4349 25.6909C28.3864 25.7395 28.3364 25.7694 28.3239 25.7572C28.3114 25.7451 28.2724 25.7649 28.2349 25.8014C28.1989 25.8378 28.1599 25.8578 28.1474 25.8456C28.1349 25.8335 28.0958 25.8533 28.0583 25.8898C28.0224 25.9262 27.9818 25.9461 27.9708 25.9339C27.9583 25.9218 27.9177 25.9417 27.8818 25.9782C27.8458 26.0146 27.8052 26.0345 27.7943 26.0223C27.7818 26.0102 27.7411 26.0301 27.7052 26.0666C27.6693 26.103 27.6286 26.1229 27.6161 26.1107C27.6052 26.0986 27.5755 26.1085 27.5505 26.1329C27.5255 26.1572 27.4958 26.167 27.4849 26.1549C27.4724 26.1428 27.4318 26.1626 27.3958 26.1992C27.3599 26.2356 27.3193 26.2555 27.3068 26.2433C27.2958 26.2312 27.2661 26.2411 27.2411 26.2654C27.2161 26.2897 27.1864 26.2997 27.1755 26.2875C27.1677 26.2804 27.1521 26.2841 27.1318 26.2957L27.0865 26.3317C27.0505 26.3682 27.0099 26.388 26.9974 26.3759C26.9865 26.3637 26.9568 26.3737 26.9318 26.398C26.9068 26.4223 26.8771 26.4323 26.8661 26.4201C26.8536 26.408 26.824 26.4179 26.799 26.4422C26.7755 26.4665 26.7458 26.4764 26.7333 26.4643C26.7208 26.4521 26.6911 26.4621 26.6661 26.4864C26.6427 26.5107 26.613 26.5207 26.6005 26.5084C26.588 26.4963 26.5583 26.5063 26.5333 26.5306C26.5099 26.5549 26.4802 26.5648 26.4677 26.5527C26.4552 26.5406 26.4286 26.5483 26.4068 26.5699C26.3849 26.5915 26.3333 26.6037 26.2911 26.5969L26.2474 26.596C26.2177 26.5992 26.1896 26.6094 26.1755 26.6239C26.1537 26.6455 26.1271 26.6533 26.1146 26.6411C26.1021 26.629 26.0724 26.6388 26.0474 26.6631C26.0349 26.6756 26.0208 26.6844 26.0083 26.6882C25.9974 26.6918 25.988 26.6912 25.9818 26.6853C25.9755 26.6788 25.9646 26.678 25.9521 26.682C25.9412 26.6854 25.9302 26.6924 25.9208 26.7025C25.899 26.7241 25.8474 26.7363 25.8052 26.7294C25.763 26.7227 25.7115 26.7348 25.6896 26.7564C25.6677 26.7781 25.6396 26.7858 25.6287 26.7737C25.6162 26.7615 25.588 26.7693 25.5662 26.7909C25.5443 26.8124 25.4927 26.8247 25.4521 26.8178C25.4099 26.8111 25.3615 26.8192 25.3443 26.836C25.3349 26.8453 25.3083 26.8531 25.2755 26.8577C25.249 26.8614 25.2177 26.8631 25.1865 26.8621C25.1162 26.8596 25.0443 26.8714 25.0271 26.8881C25.0177 26.8982 24.9959 26.9052 24.9709 26.9077L24.9209 26.9062C24.8787 26.8995 24.8318 26.9074 24.8146 26.9239C24.799 26.9404 24.7068 26.9523 24.6115 26.9504C24.5162 26.9485 24.4271 26.9581 24.413 26.9718C24.399 26.9856 24.2506 26.9957 24.0818 26.9946C23.9834 26.9939 23.8927 26.9968 23.8302 27.0019C23.7849 27.0056 23.7552 27.0105 23.7506 27.016C23.7193 27.0466 22.9849 27.0466 22.9537 27.016C22.9443 27.0071 22.8709 26.9997 22.7709 26.9964L22.6224 26.9946C22.4537 26.9957 22.3053 26.9856 22.2912 26.9718C22.2771 26.9581 22.1881 26.9485 22.0928 26.9504C21.9975 26.9523 21.9053 26.9404 21.8896 26.9239C21.8725 26.9074 21.8256 26.8995 21.7834 26.9062C21.7412 26.913 21.6928 26.9048 21.6771 26.8881C21.66 26.8714 21.5881 26.8596 21.5178 26.8621C21.4475 26.8644 21.3756 26.8527 21.36 26.836C21.3428 26.8192 21.2943 26.8111 21.2522 26.8178C21.2115 26.8247 21.16 26.8124 21.1381 26.7909C21.1162 26.7693 21.0881 26.7615 21.0756 26.7737C21.0647 26.7858 21.0365 26.7781 21.0147 26.7564C20.9928 26.7348 20.9412 26.7227 20.899 26.7294C20.8568 26.7363 20.8053 26.7241 20.7834 26.7025C20.7631 26.6809 20.735 26.6731 20.7225 26.6853C20.71 26.6974 20.6834 26.6897 20.6615 26.668C20.6397 26.6464 20.5881 26.6343 20.5459 26.6411C20.5037 26.6479 20.4522 26.6357 20.4303 26.6141C20.4084 26.5924 20.3819 26.5847 20.3694 26.5969C20.3569 26.609 20.3272 26.5991 20.3022 26.5748C20.2881 26.5605 20.2725 26.5512 20.2584 26.5484C20.249 26.5464 20.2412 26.5477 20.2365 26.5527C20.224 26.5648 20.1944 26.5549 20.1709 26.5306C20.1459 26.5063 20.1162 26.4963 20.1037 26.5084C20.0912 26.5207 20.0615 26.5107 20.0381 26.4864C20.0225 26.4718 20.0069 26.4625 19.9928 26.4598C19.9834 26.4581 19.9756 26.4594 19.9709 26.4643C19.9584 26.4764 19.9287 26.4665 19.9053 26.4422C19.8803 26.4179 19.8506 26.408 19.8381 26.4201C19.8303 26.4296 19.81 26.4255 19.7897 26.4117L19.7725 26.398C19.7569 26.3834 19.7412 26.3741 19.7287 26.3714C19.7194 26.3697 19.7115 26.371 19.7069 26.3759C19.6944 26.388 19.6537 26.3682 19.6178 26.3317C19.5819 26.2953 19.5412 26.2753 19.5287 26.2875C19.5178 26.2997 19.4881 26.2897 19.4631 26.2654C19.4475 26.2499 19.4287 26.2402 19.4162 26.2383C19.4084 26.2374 19.4022 26.2389 19.3975 26.2433C19.385 26.2555 19.3444 26.2356 19.3084 26.1992C19.2912 26.1812 19.2725 26.1672 19.2569 26.1591C19.2397 26.1508 19.2256 26.1488 19.2194 26.1549C19.2116 26.164 19.1928 26.1607 19.1725 26.1482L19.1537 26.1329C19.1381 26.1183 19.1225 26.1088 19.11 26.1063C19.1006 26.1045 19.0928 26.1058 19.0881 26.1107C19.0756 26.1229 19.035 26.103 18.9991 26.0666C18.9631 26.0301 18.9225 26.0102 18.91 26.0223C18.8991 26.0345 18.8584 26.0146 18.8225 25.9782C18.8053 25.9602 18.7866 25.9463 18.7709 25.9382C18.7538 25.9298 18.7397 25.9278 18.7334 25.9339C18.7225 25.9461 18.6819 25.9262 18.6459 25.8898C18.6084 25.8533 18.5694 25.8335 18.5569 25.8456C18.5444 25.8578 18.5053 25.8378 18.4694 25.8014C18.4319 25.7649 18.3928 25.7451 18.3803 25.7572C18.3678 25.7694 18.3178 25.7395 18.2694 25.6909C18.2209 25.6422 18.1709 25.6125 18.16 25.6246C18.1475 25.6368 18.0975 25.6069 18.0491 25.5584C18.0006 25.5097 17.9506 25.4798 17.9381 25.4921C17.9256 25.5042 17.8772 25.4744 17.8272 25.4257C17.7788 25.3771 17.7303 25.3473 17.7178 25.3594C17.71 25.3668 17.6835 25.3522 17.6475 25.3236C17.6225 25.3044 17.5928 25.2787 17.5631 25.249C17.4897 25.1754 17.421 25.1262 17.4085 25.1384C17.4006 25.1459 17.3725 25.1307 17.335 25.1012C17.31 25.0821 17.2819 25.0569 17.2538 25.028C17.1803 24.9544 17.1116 24.9052 17.0991 24.9175C17.0866 24.9301 17.01 24.8733 16.9225 24.7849L16.7678 24.6302L16.0819 25.3153L15.3975 26.0002L15.8179 26.4201C16.0819 26.6853 16.2288 26.8481 16.2147 26.8621C16.2022 26.8742 16.2132 26.904 16.2366 26.9284C16.2616 26.9527 16.271 26.9825 16.2585 26.9946C16.2475 27.0068 16.2569 27.0366 16.2819 27.0609C16.3053 27.0852 16.3147 27.1151 16.3038 27.1272C16.2944 27.1359 16.2944 27.1511 16.3022 27.166L16.3147 27.1834C16.36 27.2277 16.36 27.4244 16.3147 27.4687C16.296 27.4874 16.2913 27.5128 16.3038 27.5249C16.3147 27.537 16.3053 27.5669 16.2819 27.5912C16.2569 27.6156 16.2475 27.6453 16.2585 27.6576C16.271 27.6697 16.2616 27.6995 16.2366 27.7238C16.2132 27.7481 16.2022 27.778 16.2147 27.7901C16.2288 27.8047 15.471 28.5782 13.9835 30.0661C12.496 31.5539 11.721 32.3125 11.707 32.2978C11.6945 32.2857 11.6351 32.3255 11.5742 32.3862C11.5132 32.447 11.4538 32.4868 11.4413 32.4746C11.4304 32.4625 11.3804 32.4923 11.332 32.5409C11.2835 32.5895 11.2335 32.6194 11.221 32.6072C11.2148 32.6006 11.2023 32.6005 11.1898 32.6057C11.1789 32.61 11.1664 32.6181 11.1554 32.6293C11.1304 32.6536 11.1007 32.6635 11.0882 32.6514C11.0757 32.6392 11.0367 32.6591 11.0007 32.6956C10.9632 32.7321 10.9242 32.7519 10.9117 32.7398C10.8992 32.7276 10.8726 32.7354 10.8507 32.757C10.8289 32.7787 10.7773 32.7908 10.7351 32.7839C10.6929 32.7772 10.6429 32.7872 10.6242 32.8061C10.6054 32.825 10.5554 32.8349 10.5132 32.8282C10.4726 32.8213 10.4257 32.8287 10.4086 32.8444C10.3867 32.8664 10.1242 32.8754 9.90387 32.8715C9.75075 32.8688 9.61794 32.8597 9.60231 32.8444C9.58669 32.8287 9.53981 32.8213 9.49763 32.8282C9.45544 32.8349 9.40544 32.825 9.38669 32.8061C9.36794 32.7872 9.31794 32.7772 9.27575 32.7839C9.23513 32.7908 9.182 32.7787 9.16169 32.757C9.13982 32.7354 9.11169 32.7276 9.09919 32.7398C9.09294 32.7463 9.07888 32.7436 9.06169 32.7343C9.04607 32.7261 9.02888 32.7127 9.01169 32.6956C8.97419 32.6591 8.93513 32.6392 8.92263 32.6514C8.91013 32.6635 8.88045 32.6536 8.85701 32.6293C8.83201 32.6049 8.80232 32.5951 8.78982 32.6072C8.77889 32.6194 8.72889 32.5895 8.68045 32.5409C8.63201 32.4923 8.58201 32.4625 8.56951 32.4746C8.55701 32.4868 8.49764 32.447 8.4367 32.3862C8.37577 32.3255 8.31639 32.2857 8.30389 32.2978C8.29139 32.3113 8.17889 32.2168 8.0164 32.0548C7.85546 31.8927 7.76015 31.781 7.77421 31.7676C7.78671 31.7553 7.74609 31.6957 7.68515 31.6349C7.62421 31.5742 7.58515 31.5145 7.59765 31.5023C7.60234 31.4966 7.59921 31.4824 7.58828 31.4638C7.57578 31.4433 7.55546 31.4175 7.53046 31.3919C7.48203 31.3432 7.45234 31.2935 7.46484 31.2814C7.47734 31.2692 7.4664 31.2394 7.44297 31.2151C7.41797 31.1908 7.40859 31.1609 7.42109 31.1488C7.43203 31.1367 7.42265 31.1068 7.39765 31.0825C7.37422 31.0582 7.36328 31.0284 7.37578 31.0162C7.38828 31.0041 7.37109 30.9665 7.33672 30.9327C7.31484 30.9112 7.29922 30.8824 7.29141 30.8532C7.28672 30.8334 7.28516 30.8134 7.28828 30.7953C7.29453 30.7534 7.28516 30.7037 7.26641 30.6848C7.24609 30.6658 7.23672 30.6161 7.24297 30.5743C7.25078 30.5325 7.24297 30.4853 7.22734 30.4696C7.18984 30.4324 7.18984 29.6997 7.22734 29.6625C7.23828 29.6515 7.24609 29.6249 7.24609 29.5955L7.24297 29.5578C7.23672 29.516 7.24609 29.4663 7.26641 29.4474C7.27578 29.4384 7.28203 29.4226 7.28516 29.4039C7.28984 29.3831 7.29141 29.3589 7.28828 29.3368C7.28047 29.295 7.29297 29.2432 7.31484 29.2215C7.33672 29.1999 7.34453 29.1723 7.33203 29.1601C7.31953 29.148 7.33984 29.1082 7.37578 29.0717C7.41328 29.0353 7.43203 28.9955 7.42109 28.9833C7.40859 28.9712 7.41797 28.9413 7.44297 28.917C7.4664 28.8927 7.47734 28.8629 7.46484 28.8507C7.45234 28.8386 7.48203 28.7889 7.53046 28.7403C7.5789 28.6916 7.60859 28.6419 7.59765 28.6298C7.58515 28.6176 7.61484 28.5679 7.66328 28.5193C7.71171 28.4707 7.7414 28.4209 7.73046 28.4088C7.71484 28.3943 8.48045 27.6133 9.98356 26.1107C10.6992 25.3955 11.2507 24.8471 11.6351 24.4705C12.057 24.0558 12.2742 23.8492 12.282 23.8569C12.2945 23.869 12.3241 23.8591 12.3476 23.8348C12.3726 23.8104 12.4023 23.8006 12.4148 23.8127C12.421 23.8191 12.432 23.8193 12.446 23.8144C12.457 23.8101 12.4695 23.8019 12.4804 23.7906C12.5054 23.7663 12.5351 23.7563 12.546 23.7684C12.5585 23.7806 12.5835 23.7752 12.6023 23.7564C12.6476 23.7122 12.8445 23.7122 12.8882 23.7564C12.907 23.7752 12.932 23.7806 12.9445 23.7684C12.957 23.7563 12.9866 23.7663 13.0101 23.7906C13.0241 23.8046 13.0398 23.8138 13.0538 23.8168C13.0632 23.819 13.0726 23.8179 13.0773 23.8127C13.0866 23.8033 13.107 23.8071 13.1257 23.8206L13.1429 23.8348C13.1585 23.8496 13.1757 23.8591 13.1898 23.8615C13.1976 23.8631 13.2054 23.8617 13.2101 23.8569C13.2241 23.843 13.3866 23.9894 13.6523 24.2546L14.071 24.6745L14.7569 23.9894L15.4413 23.3045L15.2866 23.1498C15.1991 23.0614 15.1413 22.9856 15.1538 22.973C15.1663 22.9607 15.1179 22.892 15.0444 22.8184C14.9694 22.7446 14.921 22.676 14.9335 22.6637C14.9397 22.6579 14.9319 22.6397 14.9147 22.6145C14.8944 22.5858 14.8616 22.5481 14.8226 22.509C14.7491 22.4354 14.7007 22.3666 14.7116 22.3543C14.7241 22.3421 14.6944 22.2924 14.646 22.2438C14.5976 22.1952 14.5679 22.1455 14.5804 22.1333C14.5913 22.1212 14.5616 22.0715 14.5132 22.0229C14.4647 21.9742 14.4351 21.9245 14.4476 21.9123C14.4585 21.9002 14.4288 21.8505 14.3804 21.8019C14.3319 21.7532 14.3022 21.7035 14.3147 21.6914C14.3272 21.6792 14.3069 21.6395 14.271 21.603C14.2507 21.5835 14.2366 21.563 14.2288 21.5463C14.2226 21.5319 14.221 21.5202 14.2257 21.5146C14.2382 21.5025 14.2179 21.4627 14.1819 21.4262C14.146 21.3898 14.1257 21.35 14.1382 21.3378C14.1507 21.3257 14.1304 21.286 14.0929 21.2494C14.0569 21.213 14.0366 21.1733 14.0491 21.1611C14.0616 21.1489 14.0413 21.1091 14.0054 21.0727C13.9694 21.0363 13.9491 20.9964 13.9616 20.9843C13.9726 20.9721 13.9538 20.9323 13.9163 20.8959C13.8804 20.8594 13.8601 20.8197 13.8726 20.8075C13.8851 20.7953 13.8741 20.7656 13.8507 20.7412C13.8257 20.7169 13.8163 20.687 13.8288 20.6749C13.8413 20.6628 13.8304 20.6329 13.8069 20.6086C13.7819 20.5843 13.7726 20.5545 13.7835 20.5423C13.796 20.5302 13.7773 20.4905 13.7398 20.4539C13.7038 20.4175 13.6835 20.3778 13.696 20.3656C13.7085 20.3534 13.6976 20.3236 13.6741 20.2993C13.6585 20.2842 13.6491 20.2671 13.6476 20.2534C13.646 20.2449 13.6476 20.2376 13.6523 20.233C13.6632 20.2208 13.6538 20.191 13.6288 20.1667C13.6132 20.1508 13.6038 20.1326 13.6023 20.1184L13.6069 20.1004C13.6194 20.0882 13.6101 20.0584 13.5851 20.0341C13.5726 20.0204 13.5632 20.005 13.5601 19.992C13.5569 19.9819 13.5585 19.9732 13.5632 19.9678C13.5757 19.9557 13.5648 19.9258 13.5413 19.9015C13.5163 19.8773 13.5069 19.8474 13.5194 19.8353C13.5319 19.8231 13.5241 19.7954 13.5023 19.7739C13.4804 19.7522 13.4679 19.7003 13.4741 19.6584C13.4819 19.6166 13.4694 19.5648 13.4476 19.5431C13.4351 19.5312 13.4273 19.5173 13.4241 19.5053C13.4226 19.4956 13.4241 19.4872 13.4304 19.4817C13.4429 19.4696 13.4335 19.4397 13.4085 19.4154C13.3835 19.3911 13.3741 19.3613 13.3866 19.3492C13.3991 19.337 13.3913 19.3093 13.3694 19.2877C13.3476 19.2661 13.3351 19.2142 13.3429 19.1723C13.3491 19.1305 13.3398 19.0808 13.3194 19.0619C13.3007 19.0429 13.2913 18.9932 13.2976 18.9514C13.3054 18.9095 13.2929 18.8577 13.271 18.836C13.2491 18.8144 13.2413 18.7868 13.2538 18.7746C13.2663 18.7625 13.2601 18.7366 13.2413 18.7171C13.221 18.6977 13.207 18.6242 13.2101 18.5537C13.2116 18.4832 13.2007 18.4117 13.1835 18.395C13.1663 18.3783 13.1585 18.3303 13.1648 18.2884C13.1726 18.2466 13.1648 18.199 13.1476 18.1825C13.132 18.1659 13.1195 18.0745 13.121 17.9792L13.1163 17.8632C13.1132 17.8201 13.107 17.7885 13.0991 17.7807C13.0898 17.7709 13.082 17.7013 13.0788 17.6094L13.0773 17.493C13.0788 17.3704 13.0726 17.259 13.0601 17.2202L13.0554 17.2067C13.0257 17.176 13.0257 16.2633 13.0554 16.2325C13.0695 16.2195 13.0788 16.0907 13.0773 15.9462C13.0757 15.8018 13.0866 15.6723 13.0991 15.6585C13.1132 15.6446 13.1226 15.5554 13.121 15.4601C13.1195 15.3647 13.132 15.2732 13.1476 15.2567C13.1648 15.2402 13.1726 15.1926 13.1648 15.1507C13.1585 15.1089 13.1663 15.0609 13.1835 15.0442C13.196 15.0324 13.2054 14.993 13.2085 14.9459L13.2101 14.8856C13.2085 14.8375 13.2132 14.7891 13.221 14.7577L13.2351 14.727C13.2523 14.7102 13.2601 14.6622 13.2538 14.6204C13.2476 14.5786 13.2585 14.5267 13.2804 14.5051C13.3023 14.4834 13.3101 14.4558 13.2976 14.4437C13.2866 14.4315 13.2944 14.4038 13.3148 14.3822C13.3366 14.3606 13.3491 14.3087 13.3429 14.2669C13.3351 14.225 13.3476 14.1732 13.3694 14.1515C13.3913 14.1299 13.3991 14.1023 13.3866 14.0901C13.3741 14.0779 13.3819 14.0503 13.4038 14.0287C13.4257 14.0071 13.4382 13.9551 13.4304 13.9133C13.4241 13.8715 13.4366 13.8196 13.4569 13.798C13.4788 13.7763 13.4866 13.7487 13.4741 13.7365C13.4632 13.7243 13.4726 13.6946 13.4976 13.6702C13.521 13.6459 13.5319 13.6161 13.5194 13.6039C13.5069 13.5918 13.5163 13.5619 13.5413 13.5376C13.5554 13.5238 13.5648 13.5079 13.5679 13.4948C13.5694 13.485 13.5679 13.4766 13.5632 13.4714C13.5507 13.4592 13.5616 13.4294 13.5851 13.4051C13.6101 13.3808 13.6194 13.3509 13.6069 13.3388C13.596 13.3267 13.6054 13.2968 13.6288 13.2725C13.6538 13.2482 13.6632 13.2184 13.6523 13.2062C13.6398 13.1941 13.6491 13.1642 13.6741 13.14C13.6976 13.1157 13.7085 13.0858 13.696 13.0737C13.6882 13.0665 13.6929 13.0498 13.7054 13.0299C13.7132 13.016 13.7241 13.0003 13.7398 12.9853C13.7773 12.9488 13.796 12.909 13.7835 12.8969C13.7726 12.8847 13.7819 12.8549 13.8069 12.8306C13.8304 12.8063 13.8413 12.7764 13.8288 12.7643C13.8163 12.7521 13.8257 12.7223 13.8507 12.698C13.8741 12.6737 13.8851 12.6439 13.8726 12.6317C13.8601 12.6196 13.8804 12.5797 13.9163 12.5433C13.9538 12.5069 13.9726 12.467 13.9616 12.4549C13.9491 12.4428 13.9694 12.403 14.0054 12.3665C14.0413 12.3301 14.0616 12.2903 14.0491 12.2782C14.0413 12.2709 14.046 12.254 14.0585 12.2339C14.0663 12.2201 14.0788 12.2046 14.0929 12.1898C14.1304 12.1533 14.1507 12.1135 14.1382 12.1014C14.1257 12.0892 14.146 12.0495 14.1819 12.013C14.2179 11.9765 14.2382 11.9368 14.2257 11.9246C14.2147 11.9125 14.2335 11.8727 14.271 11.8362C14.3069 11.7998 14.3272 11.76 14.3147 11.7478C14.3022 11.7357 14.3319 11.686 14.3804 11.6374C14.4288 11.5887 14.4585 11.539 14.4476 11.5269C14.4351 11.5147 14.4647 11.465 14.5132 11.4164C14.5616 11.3677 14.5913 11.318 14.5804 11.3059C14.5741 11.2992 14.5788 11.2811 14.5929 11.2581C14.6054 11.2393 14.6241 11.2172 14.646 11.1954C14.6944 11.1468 14.7241 11.097 14.7116 11.0849C14.7007 11.0726 14.7491 11.0039 14.8226 10.9302C14.8632 10.8902 14.896 10.8516 14.9147 10.8228C14.9319 10.7986 14.9397 10.7812 14.9335 10.7756C14.921 10.7632 14.9694 10.6945 15.0444 10.6209C15.0866 10.5791 15.121 10.5389 15.1397 10.5097C15.1538 10.4875 15.1585 10.4716 15.1538 10.4662C15.1413 10.453 15.221 10.3557 15.3538 10.2231C15.485 10.0906 15.5647 9.99334 15.5522 9.98005C15.5382 9.96599 15.7288 9.75916 16.0819 9.40555C16.4366 9.05204 16.6428 8.86112 16.6569 8.87528C16.6694 8.88837 16.76 8.8163 16.8772 8.69843C16.996 8.58066 17.085 8.50859 17.0991 8.52168C17.1116 8.53398 17.1803 8.48486 17.2538 8.41123C17.3272 8.3376 17.396 8.28848 17.4085 8.30068C17.421 8.31299 17.4897 8.26387 17.5631 8.19023C17.6366 8.1166 17.7053 8.06748 17.7178 8.07979C17.7303 8.0919 17.7788 8.06211 17.8272 8.01348C17.8647 7.97657 17.9022 7.95049 17.9241 7.94541C17.9303 7.94375 17.935 7.94424 17.9381 7.94717C17.9444 7.95391 17.9631 7.94786 17.9866 7.93282C18.0053 7.92061 18.0272 7.90264 18.0491 7.88086C18.0975 7.83223 18.1475 7.80245 18.16 7.81456C18.1663 7.82139 18.185 7.81485 18.2084 7.79922L18.2694 7.74835C18.3178 7.69971 18.3678 7.66983 18.3803 7.68204C18.3866 7.688 18.3991 7.68624 18.4147 7.67843C18.4303 7.67042 18.4506 7.65626 18.4694 7.6378C18.5053 7.60138 18.5444 7.58145 18.5569 7.59366C18.5694 7.60577 18.6084 7.58595 18.6459 7.54942C18.6819 7.513 18.7225 7.49308 18.7334 7.50528C18.7459 7.51739 18.7866 7.49747 18.8225 7.46105C18.8584 7.42462 18.8991 7.4047 18.91 7.41691C18.9225 7.42901 18.9631 7.40909 18.9991 7.37267C19.035 7.33624 19.0756 7.31632 19.0881 7.32843C19.0959 7.33634 19.11 7.33497 19.1256 7.32657L19.1537 7.30636C19.1725 7.288 19.1944 7.27784 19.2084 7.27921L19.2194 7.28429C19.2319 7.2964 19.2725 7.27658 19.3084 7.24005C19.3444 7.20363 19.385 7.18371 19.3975 7.19591C19.4084 7.20802 19.4381 7.19806 19.4631 7.17384C19.4881 7.14953 19.5178 7.13957 19.5287 7.15167C19.5412 7.16388 19.5819 7.14396 19.6178 7.10753C19.6537 7.07101 19.6944 7.05119 19.7069 7.0633C19.7178 7.0755 19.7475 7.06554 19.7725 7.04123C19.7975 7.01691 19.8272 7.00695 19.8381 7.01916C19.8444 7.0255 19.8553 7.0258 19.8678 7.02111C19.8803 7.01691 19.8928 7.00851 19.9053 6.99699C19.9287 6.97267 19.9584 6.96281 19.9709 6.97492C19.9787 6.98185 19.9912 6.98166 20.0053 6.9757C20.0162 6.97111 20.0272 6.9633 20.0381 6.95285C20.0615 6.92853 20.0912 6.91857 20.1037 6.93068C20.1115 6.93791 20.124 6.93742 20.1381 6.93078L20.1709 6.90861C20.1944 6.8843 20.224 6.87433 20.2365 6.88654C20.249 6.89865 20.2787 6.88879 20.3022 6.86447C20.3272 6.84016 20.3569 6.83019 20.3694 6.8423C20.3819 6.85451 20.4084 6.8467 20.4303 6.82512C20.4522 6.80353 20.5037 6.79133 20.5459 6.79816C20.5881 6.8049 20.6397 6.79279 20.6615 6.77121C20.6725 6.76047 20.6834 6.75314 20.6943 6.74992C20.7053 6.7467 20.7162 6.74777 20.7225 6.75393C20.735 6.76613 20.7631 6.75832 20.7834 6.73674C20.8053 6.71516 20.8568 6.70295 20.899 6.70979C20.9256 6.71399 20.9553 6.71086 20.9803 6.70266C20.9943 6.69768 21.0068 6.69084 21.0147 6.68274C21.0365 6.66115 21.0647 6.65344 21.0756 6.66555C21.0834 6.67258 21.0959 6.67297 21.1084 6.66789C21.1178 6.66418 21.1287 6.65744 21.1381 6.64836C21.16 6.62668 21.2115 6.61457 21.2522 6.62141C21.2943 6.62815 21.3428 6.62004 21.36 6.60324C21.3756 6.58655 21.4475 6.57473 21.5178 6.57717C21.549 6.57824 21.5803 6.57658 21.6068 6.57297C21.6412 6.56828 21.6678 6.56047 21.6771 6.5511C21.6928 6.5344 21.7412 6.52619 21.7834 6.53303C21.8256 6.53977 21.8725 6.53186 21.8896 6.51535C21.9053 6.49885 21.9975 6.48694 22.0928 6.48879C22.1537 6.48996 22.2115 6.48645 22.249 6.4801C22.2709 6.47659 22.2865 6.47219 22.2912 6.46721C22.3053 6.45344 22.435 6.44329 22.5787 6.44456C22.724 6.44592 22.8521 6.43645 22.8646 6.42346C22.8959 6.3927 23.8084 6.3927 23.8396 6.42346C23.8521 6.43645 23.9802 6.44592 24.1256 6.44456C24.2052 6.44387 24.2818 6.4467 24.3349 6.45178C24.3771 6.45579 24.4068 6.46116 24.413 6.46721C24.4271 6.48098 24.5162 6.49065 24.6115 6.48879C24.7068 6.48694 24.799 6.49885 24.8146 6.51535C24.8318 6.53186 24.8787 6.53977 24.9209 6.53303C24.963 6.52619 25.0115 6.5344 25.0271 6.5511C25.0349 6.55891 25.0552 6.56565 25.0802 6.57033C25.1099 6.57571 25.149 6.57844 25.1865 6.57717C25.2568 6.57473 25.3287 6.58655 25.3443 6.60324C25.3615 6.62004 25.4099 6.62815 25.4521 6.62141C25.4927 6.61457 25.5443 6.62668 25.5662 6.64836C25.588 6.66994 25.6162 6.67776 25.6287 6.66555C25.6396 6.65344 25.6677 6.66115 25.6896 6.68274C25.7115 6.70441 25.763 6.71652 25.8052 6.70979C25.8271 6.70617 25.8537 6.70793 25.8755 6.71369C25.8943 6.71867 25.9099 6.72668 25.9208 6.73674C25.9412 6.75832 25.9693 6.76613 25.9818 6.75393C25.9943 6.74182 26.0208 6.74953 26.0427 6.77121C26.0646 6.79279 26.1162 6.8049 26.1583 6.79816C26.1802 6.79455 26.2068 6.79631 26.2286 6.80207C26.2474 6.80705 26.263 6.81506 26.274 6.82512C26.2958 6.8467 26.3224 6.85451 26.3349 6.8423C26.3474 6.83019 26.3771 6.84016 26.4021 6.86447C26.4255 6.88879 26.4552 6.89865 26.4677 6.88654C26.4802 6.87433 26.5099 6.8843 26.5333 6.90861C26.5583 6.93293 26.588 6.94289 26.6005 6.93068C26.613 6.91857 26.6427 6.92853 26.6661 6.95285C26.6911 6.97717 26.7208 6.98703 26.7333 6.97492C26.7458 6.96281 26.7755 6.97267 26.799 6.99699C26.824 7.02131 26.8536 7.03127 26.8661 7.01916C26.8771 7.00695 26.9068 7.01691 26.9318 7.04123C26.9568 7.06554 26.9865 7.0755 26.9974 7.0633C27.0099 7.05119 27.0505 7.07101 27.0865 7.10753C27.1224 7.14396 27.163 7.16388 27.1755 7.15167C27.1864 7.13957 27.2161 7.14953 27.2411 7.17384C27.2661 7.19806 27.2958 7.20802 27.3068 7.19591C27.3193 7.18371 27.3599 7.20363 27.3958 7.24005C27.4114 7.25607 27.4286 7.26886 27.4427 7.27716C27.4614 7.28781 27.4786 7.29113 27.4849 7.28429C27.4958 7.27208 27.5255 7.28204 27.5505 7.30636C27.5755 7.33068 27.6052 7.34064 27.6161 7.32843C27.6286 7.31632 27.6693 7.33624 27.7052 7.37267C27.7411 7.40909 27.7818 7.42901 27.7943 7.41691C27.8052 7.4047 27.8458 7.42462 27.8818 7.46105C27.9177 7.49747 27.9583 7.51739 27.9708 7.50528C27.9818 7.49308 28.0224 7.513 28.0583 7.54942C28.0958 7.58595 28.1349 7.60577 28.1474 7.59366C28.1521 7.58849 28.163 7.58907 28.1755 7.59434C28.1927 7.60138 28.2146 7.6169 28.2349 7.6378C28.2724 7.67432 28.3114 7.69415 28.3239 7.68204C28.3364 7.66983 28.3864 7.69971 28.4349 7.74835C28.4833 7.79688 28.5333 7.82676 28.5442 7.81456C28.5567 7.80245 28.6067 7.83223 28.6552 7.88086C28.7036 7.9295 28.7536 7.95938 28.7661 7.94717C28.7786 7.93506 28.8271 7.96485 28.8771 8.01348C28.9255 8.06211 28.9739 8.0919 28.9864 8.07979C28.9989 8.06748 29.0677 8.1166 29.1411 8.19023C29.2145 8.26387 29.2833 8.31299 29.2958 8.30068C29.3083 8.28848 29.377 8.3376 29.4505 8.41123C29.5239 8.48486 29.5927 8.53398 29.6052 8.52168C29.613 8.51435 29.6458 8.53554 29.6974 8.57861C29.738 8.61308 29.7895 8.66162 29.8489 8.7206C29.9364 8.80732 30.0083 8.87148 30.0505 8.90165ZM29.9583 11.4827C29.8411 11.3648 29.7692 11.2748 29.7817 11.2617C29.7958 11.2476 29.627 11.0629 29.3177 10.7535C29.0083 10.4441 28.8239 10.2754 28.8099 10.2894C28.7974 10.3025 28.7067 10.2305 28.5896 10.1127C28.4708 9.9948 28.3817 9.92283 28.3677 9.93591C28.3552 9.94822 28.2864 9.8991 28.213 9.82537C28.1739 9.78611 28.1364 9.75379 28.1083 9.73406C28.0833 9.71678 28.0646 9.70916 28.0583 9.71492C28.0458 9.72703 27.9974 9.69725 27.9489 9.64861C27.8989 9.59998 27.8505 9.5702 27.838 9.58231C27.8255 9.59451 27.7661 9.55477 27.7052 9.49393C27.6443 9.43319 27.5849 9.39344 27.5724 9.40555C27.5599 9.41776 27.5208 9.39784 27.4849 9.36141C27.4474 9.32489 27.4083 9.30506 27.3958 9.31717C27.3896 9.32293 27.3771 9.32147 27.363 9.31444C27.3474 9.30672 27.3271 9.29217 27.3068 9.27303C27.2708 9.23651 27.2318 9.21669 27.2193 9.22879C27.2068 9.2409 27.1677 9.22108 27.1302 9.18456C27.0943 9.14813 27.0552 9.12821 27.0427 9.14042C27.0302 9.15253 26.9911 9.1327 26.9536 9.09618C26.9177 9.05975 26.8771 9.03983 26.8661 9.05204C26.8536 9.06415 26.813 9.04432 26.7771 9.0078C26.7411 8.97138 26.7005 8.95145 26.688 8.96366C26.6771 8.97577 26.6474 8.96581 26.6224 8.94149C26.5974 8.91728 26.5677 8.90731 26.5568 8.91942C26.5443 8.93163 26.5146 8.92167 26.4896 8.89735C26.4661 8.87304 26.4365 8.86308 26.424 8.87528C26.4177 8.88212 26.4021 8.8788 26.3833 8.86816L26.3349 8.83105C26.299 8.79462 26.2583 8.7747 26.2474 8.78691C26.2349 8.79902 26.2052 8.78905 26.1802 8.76474C26.1693 8.7539 26.1583 8.74589 26.1474 8.7415C26.1333 8.73603 26.1208 8.73593 26.1146 8.74267C26.1021 8.75478 26.0724 8.74491 26.0474 8.7206C26.0318 8.70517 26.0146 8.6955 26.0005 8.69365C25.9927 8.69257 25.9865 8.69404 25.9818 8.69843C25.9755 8.70429 25.9662 8.70507 25.9537 8.70146C25.9412 8.69765 25.9271 8.68896 25.9146 8.67636C25.8912 8.65204 25.8615 8.64208 25.849 8.65429C25.8365 8.6664 25.8099 8.65869 25.788 8.6371C25.7662 8.61542 25.7146 8.60332 25.6724 8.61005C25.6302 8.61689 25.5787 8.60478 25.5568 8.5831C25.5349 8.56152 25.5083 8.55371 25.4958 8.56591C25.4833 8.57802 25.4552 8.57031 25.4333 8.54873C25.413 8.52705 25.3599 8.51494 25.3193 8.52168C25.2771 8.52851 25.2271 8.51855 25.2084 8.49961C25.1896 8.48066 25.1396 8.4707 25.0974 8.47754C25.0552 8.48427 25.0068 8.47431 24.988 8.45537C24.9677 8.43642 24.9193 8.42656 24.8771 8.4333C24.8349 8.44013 24.7849 8.43017 24.7662 8.41123C24.7474 8.39228 24.6974 8.38232 24.6552 8.38916C24.6146 8.3959 24.5662 8.38808 24.5505 8.37178C24.5334 8.35547 24.4224 8.34336 24.3021 8.34492C24.1818 8.34648 24.074 8.33711 24.0599 8.32412C24.0287 8.29297 22.5865 8.29326 22.5553 8.32441C22.5412 8.3376 22.4537 8.34687 22.3584 8.34492C22.2631 8.34306 22.1709 8.35498 22.1537 8.37148C22.1381 8.38799 22.0896 8.3959 22.049 8.38916C22.0068 8.38232 21.9568 8.39228 21.9381 8.41123C21.9193 8.43017 21.8693 8.44013 21.8271 8.4333C21.785 8.42656 21.7365 8.43642 21.7162 8.45537C21.6975 8.47431 21.649 8.48427 21.6068 8.47754C21.5647 8.4707 21.5147 8.48066 21.4959 8.49961C21.4772 8.51855 21.4272 8.52851 21.385 8.52168C21.3443 8.51494 21.2912 8.52705 21.2709 8.54873C21.249 8.57031 21.2209 8.57802 21.2084 8.56591C21.2006 8.5581 21.1865 8.55849 21.1709 8.56533L21.1475 8.5831C21.135 8.59492 21.1147 8.6038 21.0912 8.60839C21.0725 8.6123 21.0506 8.61318 21.0318 8.61005C21.0084 8.60644 20.9834 8.6083 20.9615 8.61415C20.9428 8.61914 20.9256 8.62714 20.9162 8.6371C20.8943 8.65869 20.8678 8.6664 20.8553 8.65429C20.8475 8.64736 20.835 8.64755 20.8209 8.65361C20.81 8.6581 20.799 8.66591 20.7897 8.67636C20.7647 8.70068 20.735 8.71064 20.7225 8.69843C20.71 8.68632 20.6803 8.69628 20.6568 8.7206C20.6319 8.74491 20.6022 8.75478 20.5897 8.74267C20.5772 8.73056 20.5475 8.74042 20.524 8.76474C20.499 8.78905 20.4694 8.79902 20.4569 8.78691C20.4459 8.7747 20.4053 8.79462 20.3694 8.83105C20.3319 8.86747 20.2928 8.88739 20.2803 8.87528C20.2725 8.86835 20.26 8.86855 20.2459 8.8745C20.235 8.87899 20.224 8.88681 20.2147 8.89735C20.1897 8.92167 20.16 8.93163 20.1475 8.91942C20.1365 8.90731 20.1069 8.91728 20.0819 8.94149C20.0569 8.96581 20.0272 8.97577 20.0162 8.96366C20.0037 8.95145 19.9631 8.97138 19.9272 9.0078C19.8912 9.04432 19.8506 9.06415 19.8381 9.05204C19.8272 9.03983 19.7865 9.05975 19.7506 9.09618C19.7131 9.1327 19.6741 9.15253 19.6616 9.14042C19.6491 9.12821 19.61 9.14813 19.5741 9.18456C19.5366 9.22108 19.4975 9.2409 19.485 9.22879C19.4725 9.21669 19.4334 9.23651 19.3975 9.27303C19.36 9.30946 19.3209 9.32938 19.3084 9.31717C19.2959 9.30506 19.2569 9.32489 19.2194 9.36141C19.1834 9.39784 19.1444 9.41776 19.1319 9.40555C19.1194 9.39344 19.06 9.43319 18.9991 9.49393L18.9287 9.55584C18.8975 9.57859 18.8741 9.58953 18.8662 9.58231C18.8537 9.5702 18.8053 9.59998 18.7553 9.64861C18.7069 9.69725 18.6584 9.72703 18.6459 9.71492C18.6334 9.70262 18.5647 9.75174 18.4913 9.82537C18.4178 9.8991 18.3491 9.94822 18.3366 9.93591C18.3225 9.92283 18.2334 9.9948 18.1147 10.1127C17.9975 10.2305 17.9069 10.3025 17.8944 10.2894C17.8803 10.2754 17.696 10.4441 17.3866 10.7535C17.0772 11.0629 16.9085 11.2476 16.9225 11.2617C16.935 11.2748 16.8632 11.3648 16.746 11.4827C16.6272 11.6005 16.5553 11.6906 16.5678 11.7037C16.5803 11.716 16.5319 11.7846 16.4585 11.8583C16.4163 11.9005 16.3819 11.9412 16.3632 11.9705C16.3491 11.9922 16.3428 12.0078 16.3475 12.013C16.36 12.0251 16.3303 12.0749 16.2819 12.1235C16.2319 12.1721 16.2022 12.2218 16.2147 12.2339C16.2225 12.242 16.2116 12.2664 16.1913 12.2961L16.1491 12.3445C16.1007 12.393 16.0694 12.4428 16.0819 12.4549C16.0944 12.467 16.0647 12.5168 16.0163 12.5654C15.9679 12.614 15.9382 12.6637 15.9491 12.6759C15.9616 12.688 15.9413 12.7279 15.9054 12.7643C15.8694 12.8007 15.8491 12.8406 15.8616 12.8527C15.8741 12.8648 15.8538 12.9046 15.8179 12.941C15.7804 12.9775 15.76 13.0173 15.7725 13.0294C15.7804 13.0368 15.7757 13.0545 15.7616 13.0754C15.7538 13.0888 15.7429 13.1035 15.7288 13.1178C15.7085 13.1379 15.6944 13.159 15.6866 13.1759C15.6804 13.1897 15.6788 13.2007 15.685 13.2062C15.696 13.2184 15.6772 13.2581 15.6397 13.2946C15.6038 13.3311 15.5835 13.3708 15.596 13.383C15.6085 13.3951 15.5991 13.4249 15.5741 13.4492C15.5491 13.4736 15.5397 13.5034 15.5522 13.5156C15.5647 13.5278 15.5538 13.5575 15.5304 13.5819C15.5054 13.6062 15.496 13.636 15.5085 13.6482C15.5194 13.6603 15.5007 13.7001 15.4632 13.7365C15.4272 13.773 15.4069 13.8128 15.4194 13.8249C15.4319 13.837 15.421 13.8669 15.3975 13.8912C15.3725 13.9155 15.3632 13.9453 15.3757 13.9575C15.3866 13.9696 15.3772 13.9995 15.3538 14.0238C15.3288 14.0481 15.3194 14.0779 15.3304 14.0901C15.3429 14.1023 15.3335 14.132 15.3085 14.1564C15.285 14.1807 15.2741 14.2106 15.2866 14.2227C15.2991 14.2348 15.2913 14.2624 15.2694 14.2841C15.2475 14.3057 15.235 14.3576 15.2429 14.3994C15.2491 14.4412 15.2366 14.4932 15.2163 14.5149C15.1944 14.5364 15.1866 14.5641 15.1991 14.5762C15.21 14.5884 15.2022 14.616 15.1819 14.6376C15.16 14.6593 15.1475 14.7111 15.1538 14.753C15.1616 14.7948 15.1491 14.8467 15.1272 14.8684C15.1054 14.8899 15.0975 14.9176 15.11 14.9298C15.1225 14.9419 15.1163 14.9678 15.0975 14.9872C15.0772 15.0066 15.0632 15.0802 15.0663 15.1507C15.0679 15.2213 15.0569 15.2927 15.0397 15.3094C15.0226 15.3262 15.0147 15.374 15.021 15.4159C15.0257 15.4373 15.0241 15.4603 15.021 15.4798C15.0179 15.4984 15.0116 15.514 15.0038 15.522C14.9882 15.5385 14.9757 15.6299 14.9772 15.7253C14.9788 15.8206 14.9694 15.9094 14.9569 15.9226C14.9257 15.9539 14.9257 17.3969 14.9569 17.4283C14.9694 17.4415 14.9788 17.5302 14.9772 17.6256C14.9757 17.7209 14.9851 17.8106 15.0007 17.8249C15.0147 17.8392 15.0241 17.9087 15.021 17.9792C15.0194 18.0497 15.0304 18.1211 15.0476 18.1378C15.0647 18.1546 15.0726 18.2025 15.0663 18.2443C15.0616 18.2662 15.0632 18.2903 15.0679 18.311C15.0726 18.3297 15.0788 18.3458 15.0882 18.3547C15.1069 18.3737 15.1163 18.4234 15.11 18.4653C15.1038 18.5071 15.1132 18.5568 15.1319 18.5757C15.1507 18.5947 15.1616 18.6444 15.1538 18.6862C15.1507 18.7093 15.1522 18.7355 15.1585 18.758C15.1647 18.7762 15.1725 18.7919 15.1819 18.8016C15.2022 18.8232 15.21 18.8508 15.1991 18.863C15.1866 18.8751 15.1944 18.9028 15.2163 18.9244C15.2366 18.946 15.2491 18.9979 15.2429 19.0398C15.235 19.0816 15.2475 19.1335 15.2694 19.1551C15.2913 19.1767 15.2991 19.2043 15.2866 19.2166C15.2741 19.2287 15.285 19.2585 15.3085 19.2829C15.3335 19.3072 15.3429 19.337 15.3304 19.3492C15.3225 19.3585 15.3257 19.3784 15.3382 19.3981L15.3538 19.4154C15.3694 19.4312 15.3788 19.4493 15.3804 19.4633L15.3757 19.4817C15.3632 19.4939 15.3725 19.5237 15.3975 19.548C15.421 19.5723 15.4319 19.6021 15.4194 19.6143C15.4069 19.6264 15.4272 19.6663 15.4632 19.7027C15.5007 19.7391 15.5194 19.7789 15.5085 19.7911C15.496 19.8033 15.5054 19.833 15.5304 19.8574C15.5538 19.8817 15.5647 19.9115 15.5522 19.9237C15.5397 19.9358 15.5491 19.9657 15.5741 19.99C15.5866 20.0028 15.596 20.0172 15.5991 20.0297C15.6022 20.0409 15.6022 20.0505 15.596 20.0562C15.5897 20.0619 15.5913 20.0738 15.5975 20.0884C15.6054 20.1049 15.621 20.1252 15.6397 20.1446C15.6772 20.1811 15.696 20.2208 15.685 20.233C15.6725 20.2452 15.6929 20.2849 15.7288 20.3214C15.7647 20.3578 15.785 20.3976 15.7725 20.4098C15.76 20.4219 15.7804 20.4617 15.8179 20.4982C15.8538 20.5346 15.8741 20.5743 15.8616 20.5866C15.8491 20.5987 15.8694 20.6385 15.9054 20.6749C15.9413 20.7114 15.9616 20.7512 15.9491 20.7633C15.9444 20.7686 15.9475 20.7807 15.9554 20.7966C15.9663 20.8179 15.9882 20.846 16.0163 20.8738C16.0647 20.9224 16.0944 20.9721 16.0819 20.9843C16.0694 20.9964 16.1007 21.0461 16.1491 21.0947C16.1975 21.1434 16.2272 21.1931 16.2147 21.2053C16.2022 21.2174 16.2319 21.2671 16.2819 21.3157C16.3303 21.3644 16.36 21.4141 16.3475 21.4262C16.3413 21.4327 16.3522 21.455 16.3741 21.4854C16.3944 21.5125 16.4241 21.5461 16.4585 21.5809C16.5319 21.6545 16.5803 21.7233 16.5678 21.7356C16.5616 21.7425 16.5788 21.7712 16.6132 21.8142C16.6444 21.8522 16.6897 21.9013 16.746 21.9566C16.8632 22.0744 16.935 22.1644 16.9225 22.1775C16.9085 22.1916 17.0772 22.3764 17.3866 22.6857C17.5585 22.8583 17.6928 22.9871 17.7803 23.0648C17.8491 23.1265 17.8881 23.156 17.8944 23.1498C17.9069 23.1367 17.9975 23.2087 18.1147 23.3266C18.2334 23.4444 18.3225 23.5164 18.3366 23.5033C18.3444 23.4958 18.3725 23.5114 18.4116 23.5417L18.4913 23.6138C18.5647 23.6875 18.6334 23.7366 18.6459 23.7243C18.6584 23.7121 18.7069 23.742 18.7553 23.7906C18.8053 23.8391 18.8537 23.869 18.8662 23.8569C18.8787 23.8447 18.9381 23.8845 18.9991 23.9453C19.0303 23.9761 19.06 24.0014 19.085 24.0174C19.1084 24.033 19.1256 24.0396 19.1319 24.0337C19.1444 24.0215 19.1834 24.0414 19.2194 24.0778C19.2569 24.1143 19.2959 24.1342 19.3084 24.1221C19.3209 24.1098 19.36 24.1298 19.3975 24.1662C19.4334 24.2027 19.4725 24.2225 19.485 24.2104C19.4975 24.1982 19.5366 24.2181 19.5741 24.2546C19.5912 24.2717 19.6084 24.2851 19.6241 24.2933C19.6412 24.3026 19.6553 24.3053 19.6616 24.2988C19.6741 24.2867 19.7131 24.3065 19.7506 24.343C19.7865 24.3795 19.8272 24.3994 19.8381 24.3872C19.8506 24.3751 19.8912 24.3949 19.9272 24.4314C19.9631 24.4678 20.0037 24.4878 20.0162 24.4756C20.0272 24.4635 20.0569 24.4734 20.0819 24.4976C20.1069 24.5219 20.1365 24.5319 20.1475 24.5198C20.16 24.5076 20.1897 24.5176 20.2147 24.5419C20.2303 24.5578 20.2475 24.5676 20.2615 24.5689C20.2694 24.5697 20.2756 24.5681 20.2803 24.5639C20.2928 24.5518 20.3319 24.5717 20.3694 24.6082C20.4053 24.6446 20.4459 24.6645 20.4569 24.6523C20.4694 24.6402 20.499 24.6502 20.524 24.6745C20.5475 24.6988 20.5772 24.7087 20.5897 24.6966C20.599 24.687 20.6194 24.6911 20.6397 24.705L20.6568 24.7186C20.6803 24.7429 20.71 24.7529 20.7225 24.7407C20.735 24.7286 20.7647 24.7385 20.7897 24.7629C20.8037 24.7776 20.8193 24.787 20.8334 24.7894C20.8428 24.7911 20.8506 24.7897 20.8553 24.7849C20.8678 24.7728 20.8943 24.7805 20.9162 24.8021C20.9287 24.8151 20.9537 24.8246 20.9787 24.8287C20.9959 24.8315 21.0147 24.8319 21.0318 24.8292C21.074 24.8223 21.1256 24.8344 21.1475 24.8561C21.1584 24.8665 21.1693 24.8737 21.1803 24.877C21.1912 24.8805 21.2022 24.8797 21.2084 24.8733C21.2209 24.8612 21.249 24.8689 21.2709 24.8905C21.2912 24.9122 21.3443 24.9243 21.385 24.9175C21.4272 24.9107 21.4787 24.9228 21.5006 24.9445C21.5225 24.9661 21.5506 24.9739 21.5615 24.9617C21.574 24.9496 21.6006 24.9555 21.6193 24.975C21.6396 24.9944 21.7131 25.0083 21.7834 25.0059C21.8193 25.0047 21.8553 25.0071 21.8834 25.012C21.9115 25.0168 21.9334 25.0238 21.9412 25.032C21.9584 25.0487 22.0068 25.0569 22.049 25.0501C22.0896 25.0433 22.1381 25.0512 22.1537 25.0677C22.1709 25.0842 22.2631 25.0962 22.3584 25.0943C22.4537 25.0924 22.5412 25.1016 22.5553 25.1148C22.5865 25.1465 24.1177 25.146 24.149 25.1143C24.1568 25.1071 24.1802 25.1011 24.2115 25.0975L24.3021 25.0943C24.3724 25.0967 24.4427 25.0868 24.4568 25.0722C24.4709 25.0576 24.5412 25.0477 24.6115 25.0501C24.6818 25.0525 24.7537 25.0408 24.7709 25.024C24.7802 25.014 24.8021 25.0071 24.8271 25.0046L24.8771 25.0059C24.9193 25.0127 24.9677 25.0027 24.988 24.9838C25.0068 24.9649 25.0552 24.955 25.0974 24.9617C25.1396 24.9685 25.1896 24.9586 25.2084 24.9396C25.2271 24.9207 25.2771 24.9107 25.3193 24.9175C25.3599 24.9243 25.413 24.9122 25.4333 24.8905C25.4552 24.8689 25.4833 24.8612 25.4958 24.8733C25.5083 24.8855 25.5349 24.8777 25.5568 24.8561C25.5787 24.8344 25.6302 24.8223 25.6724 24.8292C25.7146 24.8359 25.7662 24.8238 25.788 24.8021C25.8099 24.7805 25.8365 24.7728 25.849 24.7849C25.8615 24.797 25.8912 24.7872 25.9146 24.7629C25.9396 24.7385 25.9693 24.7286 25.9818 24.7407C25.9943 24.7529 26.024 24.7429 26.0474 24.7186C26.0724 24.6943 26.1021 24.6843 26.1146 24.6966C26.1271 24.7087 26.1568 24.6988 26.1802 24.6745C26.2052 24.6502 26.2349 24.6402 26.2474 24.6523C26.2583 24.6645 26.299 24.6446 26.3349 24.6082C26.3536 24.5901 26.3724 24.5761 26.388 24.568C26.4036 24.5598 26.4177 24.5578 26.424 24.5639C26.4302 24.5707 26.4427 24.5707 26.4552 24.5652C26.4661 24.5608 26.4786 24.5528 26.4896 24.5419C26.5146 24.5176 26.5443 24.5076 26.5568 24.5198C26.563 24.5259 26.574 24.5264 26.5865 24.5223C26.5974 24.5183 26.6099 24.5097 26.6224 24.4976C26.6474 24.4734 26.6771 24.4635 26.688 24.4756C26.7005 24.4878 26.7411 24.4678 26.7771 24.4314C26.813 24.3949 26.8536 24.3751 26.8661 24.3872C26.8771 24.3994 26.9177 24.3795 26.9536 24.343C26.9911 24.3065 27.0302 24.2867 27.0427 24.2988C27.0552 24.3109 27.0943 24.2911 27.1302 24.2546C27.1677 24.2181 27.2068 24.1982 27.2193 24.2104C27.2318 24.2225 27.2708 24.2027 27.3068 24.1662C27.3443 24.1298 27.3833 24.1098 27.3958 24.1221C27.4083 24.1342 27.4474 24.1143 27.4849 24.0778C27.5208 24.0414 27.5599 24.0215 27.5724 24.0337C27.5849 24.0458 27.6443 24.006 27.7052 23.9453C27.7661 23.8845 27.8255 23.8447 27.838 23.8569C27.8505 23.869 27.8989 23.8391 27.9489 23.7906C27.9974 23.742 28.0458 23.7121 28.0583 23.7243C28.0708 23.7366 28.1396 23.6875 28.213 23.6138C28.2864 23.5401 28.3552 23.491 28.3677 23.5033C28.3817 23.5164 28.4708 23.4444 28.5896 23.3266C28.7067 23.2087 28.7974 23.1367 28.8099 23.1498C28.8239 23.1639 29.0083 22.9951 29.3177 22.6857C29.627 22.3764 29.7958 22.1916 29.7817 22.1775C29.7692 22.1644 29.8411 22.0744 29.9583 21.9566C30.0161 21.8995 30.063 21.849 30.0942 21.8106C30.127 21.7695 30.1427 21.7423 30.1364 21.7356C30.1239 21.7233 30.1723 21.6545 30.2458 21.5809C30.3192 21.5072 30.3692 21.4385 30.3567 21.4262C30.3442 21.4141 30.3739 21.3644 30.4223 21.3157C30.4723 21.2671 30.502 21.2174 30.4895 21.2053C30.477 21.1931 30.5067 21.1434 30.5552 21.0947C30.6036 21.0461 30.6348 20.9964 30.6223 20.9843C30.6145 20.9769 30.6223 20.9555 30.6411 20.9289L30.688 20.8738C30.7364 20.8252 30.7661 20.7755 30.7552 20.7633C30.7427 20.7512 30.763 20.7114 30.7989 20.6749C30.8348 20.6385 30.8552 20.5987 30.8426 20.5866C30.8302 20.5743 30.8505 20.5346 30.8864 20.4982C30.9239 20.4617 30.9442 20.4219 30.9317 20.4098C30.9239 20.402 30.9286 20.3829 30.9442 20.3608L30.9755 20.3214C31.0114 20.2849 31.0317 20.2452 31.0192 20.233C31.0083 20.2208 31.027 20.1811 31.0645 20.1446C31.1005 20.1081 31.1208 20.0684 31.1083 20.0562C31.0958 20.0441 31.1051 20.0142 31.1301 19.99C31.1551 19.9657 31.1645 19.9358 31.152 19.9237C31.1395 19.9115 31.1505 19.8817 31.1739 19.8574C31.1989 19.833 31.2083 19.8033 31.1958 19.7911C31.1848 19.7789 31.2036 19.7391 31.2411 19.7027C31.277 19.6663 31.2973 19.6264 31.2848 19.6143C31.2723 19.6021 31.2833 19.5723 31.3067 19.548C31.3317 19.5237 31.3411 19.4939 31.3286 19.4817C31.3176 19.4696 31.327 19.4397 31.3505 19.4154C31.3755 19.3911 31.3848 19.3613 31.3739 19.3492C31.3614 19.337 31.3708 19.3072 31.3958 19.2829C31.4192 19.2585 31.4301 19.2287 31.4176 19.2166C31.4098 19.2094 31.4098 19.197 31.4145 19.1837C31.4192 19.1742 31.4255 19.1641 31.4348 19.1551C31.4567 19.1335 31.4692 19.0816 31.4614 19.0398C31.4551 18.9979 31.4676 18.946 31.488 18.9244C31.5098 18.9028 31.5176 18.8751 31.5051 18.863C31.4942 18.8508 31.502 18.8232 31.5223 18.8016C31.5333 18.7905 31.5426 18.7715 31.5473 18.7501C31.552 18.7295 31.5536 18.7067 31.5505 18.6862C31.5426 18.6444 31.5536 18.5947 31.5723 18.5757C31.5911 18.5568 31.6005 18.5071 31.5942 18.4653C31.588 18.4234 31.5973 18.3737 31.6161 18.3547C31.6348 18.3358 31.6458 18.2861 31.638 18.2443C31.6317 18.2025 31.6411 18.1527 31.6598 18.1338C31.6739 18.12 31.6833 18.0899 31.6848 18.0584L31.6833 18.0233C31.6786 17.9954 31.6801 17.9647 31.6864 17.9425C31.6895 17.9316 31.6942 17.9227 31.7005 17.9173C31.7161 17.9007 31.7286 17.8092 31.727 17.7139C31.7255 17.662 31.7286 17.612 31.7333 17.5751C31.7364 17.5443 31.7411 17.5226 31.7473 17.5167C31.7692 17.4949 31.7754 16.7478 31.7661 16.2841C31.763 16.0809 31.7567 15.9321 31.7473 15.9226C31.7348 15.9094 31.7255 15.8206 31.727 15.7253C31.7286 15.6299 31.7161 15.5385 31.7005 15.522C31.6833 15.5055 31.6755 15.4577 31.6833 15.4159C31.6895 15.374 31.6817 15.3262 31.6645 15.3094C31.6473 15.2927 31.6364 15.2213 31.638 15.1507C31.6395 15.1181 31.638 15.0848 31.6333 15.0565C31.627 15.0236 31.6176 14.9977 31.6067 14.9872C31.588 14.9678 31.5817 14.9419 31.5942 14.9298C31.6067 14.9176 31.5989 14.8899 31.577 14.8684C31.5645 14.856 31.5551 14.8336 31.5505 14.8089C31.5473 14.7905 31.5473 14.7709 31.5505 14.753C31.5567 14.7111 31.5442 14.6593 31.5223 14.6376C31.502 14.616 31.4942 14.5884 31.5051 14.5762C31.5176 14.5641 31.5098 14.5364 31.488 14.5149C31.4676 14.4932 31.4551 14.4412 31.4614 14.3994C31.4692 14.3576 31.4567 14.3057 31.4348 14.2841C31.4239 14.2729 31.4161 14.26 31.413 14.2486C31.4098 14.2379 31.4114 14.2285 31.4176 14.2227C31.4301 14.2106 31.4192 14.1807 31.3958 14.1564C31.3708 14.132 31.3614 14.1023 31.3739 14.0901C31.3848 14.0779 31.3755 14.0481 31.3505 14.0238C31.327 13.9995 31.3176 13.9696 31.3286 13.9575C31.3411 13.9453 31.3317 13.9155 31.3067 13.8912C31.2942 13.878 31.2848 13.8633 31.2817 13.8506C31.2786 13.8399 31.2786 13.8305 31.2848 13.8249C31.2973 13.8128 31.277 13.773 31.2411 13.7365L31.2145 13.7071C31.1958 13.6807 31.188 13.6571 31.1958 13.6482C31.2083 13.636 31.1989 13.6062 31.1739 13.5819C31.1505 13.5575 31.1395 13.5278 31.152 13.5156C31.1645 13.5034 31.1551 13.4736 31.1301 13.4492C31.1051 13.4249 31.0958 13.3951 31.1083 13.383C31.1208 13.3708 31.1005 13.3311 31.0645 13.2946C31.027 13.2581 31.0083 13.2184 31.0192 13.2062C31.0317 13.1941 31.0114 13.1543 30.9755 13.1178C30.9489 13.0912 30.9317 13.0629 30.9286 13.0448C30.927 13.038 30.9286 13.0327 30.9317 13.0294C30.9442 13.0173 30.9239 12.9775 30.8864 12.941C30.8505 12.9046 30.8302 12.8648 30.8426 12.8527C30.8552 12.8406 30.8348 12.8007 30.7989 12.7643C30.763 12.7279 30.7427 12.688 30.7552 12.6759C30.7661 12.6637 30.7364 12.614 30.688 12.5654C30.6395 12.5168 30.6098 12.467 30.6223 12.4549C30.6348 12.4428 30.6145 12.403 30.577 12.3665C30.5411 12.3301 30.5208 12.2903 30.5333 12.2782C30.5458 12.266 30.5067 12.2063 30.4458 12.1456C30.3848 12.0848 30.3442 12.0251 30.3567 12.013C30.3692 12.0007 30.3192 11.932 30.2458 11.8583C30.1723 11.7846 30.1239 11.716 30.1364 11.7037C30.1489 11.6906 30.077 11.6005 29.9583 11.4827ZM10.4695 30.8837C10.4835 30.8982 11.1039 30.2944 12.282 29.1159L14.071 27.3261L13.4085 26.6631L12.746 26.0002L10.9554 27.7901C9.77731 28.9686 9.17419 29.5875 9.18825 29.6021C9.20075 29.6142 9.18982 29.644 9.16638 29.6684C9.15544 29.6796 9.14607 29.692 9.14138 29.7032C9.13669 29.7164 9.13826 29.728 9.14451 29.7346C9.15544 29.7468 9.14607 29.7766 9.12107 29.8009C9.10857 29.8135 9.10076 29.8276 9.09763 29.84C9.09451 29.8515 9.09451 29.8613 9.09919 29.8672C9.11169 29.8794 9.10544 29.9049 9.08669 29.924C9.04451 29.9666 9.04138 30.0744 9.08201 30.1148C9.09919 30.1312 9.10701 30.1789 9.09919 30.2207C9.09294 30.2626 9.10544 30.3144 9.12732 30.3361C9.14763 30.3577 9.15544 30.3853 9.14451 30.3976C9.13201 30.4097 9.14138 30.4395 9.16638 30.4638L9.18825 30.4933C9.1945 30.5086 9.19607 30.5226 9.18825 30.5301C9.17575 30.543 9.23982 30.6259 9.34294 30.729C9.44606 30.8321 9.52887 30.8966 9.54137 30.8837C9.55387 30.8715 9.58356 30.8814 9.60856 30.9057C9.632 30.9301 9.66169 30.94 9.67419 30.9278C9.68669 30.9157 9.71637 30.9257 9.73981 30.95C9.75387 30.9639 9.7695 30.9731 9.78356 30.9762C9.79293 30.9784 9.80231 30.9772 9.807 30.9721C9.8195 30.9599 9.8445 30.9653 9.86325 30.9841C9.90699 31.0283 10.1039 31.0283 10.1476 30.9841C10.1664 30.9653 10.1929 30.9599 10.2039 30.9721C10.2164 30.9842 10.2461 30.9742 10.2711 30.95C10.2945 30.9257 10.3257 30.9157 10.3367 30.9278C10.3492 30.94 10.3789 30.9301 10.4039 30.9057C10.4273 30.8814 10.457 30.8715 10.4695 30.8837ZM22.5396 12.0947C22.6849 12.0947 22.7896 12.0817 22.7896 12.0634C22.7896 12.0436 23.0193 12.0322 23.4146 12.0322C23.8099 12.0322 24.0396 12.0436 24.0396 12.0634C24.0396 12.0813 24.1334 12.0947 24.2584 12.0947C24.3834 12.0947 24.4771 12.1081 24.4771 12.1259C24.4771 12.1349 24.4974 12.143 24.5271 12.1488C24.5552 12.154 24.5927 12.1572 24.6334 12.1572C24.7193 12.1572 24.7896 12.1712 24.7896 12.1884C24.7896 12.2056 24.8459 12.2197 24.9146 12.2197C24.9834 12.2197 25.0396 12.2337 25.0396 12.2509C25.0396 12.2681 25.0818 12.2822 25.1334 12.2822C25.1849 12.2822 25.2271 12.2962 25.2271 12.3134C25.2271 12.3306 25.2552 12.3447 25.2896 12.3447C25.324 12.3447 25.3521 12.3587 25.3521 12.3759C25.3521 12.3931 25.3943 12.4072 25.4458 12.4072C25.4974 12.4072 25.5396 12.4212 25.5396 12.4384C25.5396 12.4556 25.5677 12.4697 25.6021 12.4697C25.6365 12.4697 25.6646 12.4837 25.6646 12.5009C25.6646 12.5181 25.6927 12.5322 25.7271 12.5322C25.7615 12.5322 25.7896 12.5462 25.7896 12.5634C25.7896 12.5727 25.7974 12.5811 25.8099 12.5869C25.8193 12.5917 25.8318 12.5947 25.8458 12.5947C25.8755 12.5947 25.9208 12.6228 25.9458 12.6572C25.9708 12.6915 26.0162 12.7197 26.0458 12.7197C26.0771 12.7197 26.1021 12.7337 26.1021 12.7509C26.1021 12.7681 26.1271 12.7822 26.1583 12.7822C26.188 12.7822 26.2333 12.8103 26.2583 12.8447C26.2833 12.879 26.3224 12.9072 26.3458 12.9072C26.3708 12.9072 26.4286 12.9494 26.4771 13.0009C26.5005 13.0262 26.5271 13.0493 26.549 13.0661C26.5724 13.0837 26.5911 13.0947 26.6021 13.0947C26.6224 13.0947 26.6927 13.1509 26.7583 13.2197C26.824 13.2884 26.8943 13.3447 26.913 13.3447C26.9318 13.3447 27.074 13.4712 27.2271 13.6259C27.3802 13.7806 27.5208 13.9071 27.538 13.9071C27.5896 13.9071 29.7895 16.1205 29.7895 16.1726C29.7895 16.1984 29.8036 16.2196 29.8208 16.2196C29.838 16.2196 29.852 16.2477 29.852 16.2821C29.852 16.307 29.8599 16.3287 29.8708 16.3387L29.8833 16.3446C29.9005 16.3446 29.9145 16.3727 29.9145 16.4071C29.9145 16.432 29.9223 16.4537 29.9333 16.4637L29.9458 16.4696C29.9645 16.4696 29.977 16.5738 29.977 16.7196C29.977 16.8654 29.9645 16.9696 29.9458 16.9696C29.9364 16.9696 29.927 16.9791 29.9223 16.9937C29.9177 17.0044 29.9145 17.0177 29.9145 17.0321C29.9145 17.0665 29.9005 17.0946 29.8833 17.0946C29.8739 17.0946 29.8645 17.1041 29.8599 17.1186C29.8552 17.1293 29.852 17.1427 29.852 17.1571C29.852 17.1915 29.838 17.2196 29.8208 17.2196C29.8036 17.2196 29.7895 17.2407 29.7895 17.2666C29.7895 17.319 27.3396 19.7821 27.288 19.7821C27.2693 19.7821 27.1724 19.8664 27.0708 19.9696C26.9693 20.0727 26.8708 20.1571 26.8521 20.1571C26.8427 20.1571 26.8224 20.1697 26.7958 20.1903C26.7661 20.2132 26.7302 20.2459 26.6958 20.2821C26.6302 20.3508 26.5568 20.4071 26.5333 20.4071C26.5099 20.4071 26.4708 20.4352 26.4458 20.4696C26.4208 20.5039 26.3786 20.5321 26.3521 20.5321C26.3255 20.5321 26.2833 20.5602 26.2583 20.5946C26.2333 20.6289 26.1912 20.6571 26.1646 20.6571C26.138 20.6571 26.0958 20.6852 26.0708 20.7196C26.0458 20.7539 26.0005 20.7821 25.9708 20.7821C25.9396 20.7821 25.9146 20.7961 25.9146 20.8133C25.9146 20.8305 25.8865 20.8446 25.8521 20.8446C25.8177 20.8446 25.7896 20.8586 25.7896 20.8758C25.7896 20.893 25.7615 20.9071 25.7271 20.9071C25.6927 20.9071 25.6646 20.9211 25.6646 20.9383C25.6646 20.9555 25.6365 20.9696 25.6021 20.9696C25.5677 20.9696 25.5396 20.9836 25.5396 21.0008C25.5396 21.018 25.4974 21.0321 25.4458 21.0321C25.3943 21.0321 25.3521 21.0461 25.3521 21.0633C25.3521 21.0805 25.324 21.0946 25.2896 21.0946C25.2552 21.0946 25.2271 21.1086 25.2271 21.1258C25.2271 21.1336 25.2193 21.1408 25.2037 21.1464C25.1865 21.153 25.1615 21.1571 25.1334 21.1571C25.0818 21.1571 25.0396 21.1711 25.0396 21.1883C25.0396 21.1978 25.0224 21.2063 24.9959 21.212C24.974 21.2167 24.9459 21.2196 24.9146 21.2196C24.8459 21.2196 24.7896 21.2336 24.7896 21.2508C24.7896 21.268 24.7334 21.2821 24.6646 21.2821C24.5959 21.2821 24.5396 21.2961 24.5396 21.3133C24.5396 21.3316 24.4349 21.3446 24.2896 21.3446C24.1443 21.3446 24.0396 21.3575 24.0396 21.3758C24.0396 21.3956 23.8099 21.407 23.4146 21.407C23.0193 21.407 22.7896 21.3956 22.7896 21.3758C22.7896 21.3579 22.6959 21.3446 22.5709 21.3446C22.4459 21.3446 22.3521 21.3312 22.3521 21.3133C22.3521 21.2961 22.2818 21.2821 22.1959 21.2821C22.11 21.2821 22.0396 21.268 22.0396 21.2508C22.0396 21.2336 21.9834 21.2196 21.9146 21.2196C21.885 21.2196 21.8584 21.217 21.8381 21.2128C21.8084 21.2071 21.7896 21.1983 21.7896 21.1883C21.7896 21.1711 21.7475 21.1571 21.6959 21.1571C21.6443 21.1571 21.6021 21.143 21.6021 21.1258C21.6021 21.1086 21.574 21.0946 21.5397 21.0946C21.5053 21.0946 21.4772 21.0805 21.4772 21.0633C21.4772 21.0461 21.449 21.0321 21.4147 21.0321C21.3803 21.0321 21.3522 21.018 21.3522 21.0008C21.3522 20.9836 21.31 20.9696 21.2584 20.9696C21.2068 20.9696 21.1647 20.9555 21.1647 20.9383C21.1647 20.9291 21.1568 20.9208 21.1428 20.9151C21.1318 20.9101 21.1178 20.9071 21.1022 20.9071C21.0678 20.9071 21.0397 20.893 21.0397 20.8758C21.0397 20.8586 21.0147 20.8446 20.9834 20.8446C20.9537 20.8446 20.9084 20.8164 20.8834 20.7821C20.8584 20.7477 20.8131 20.7196 20.7834 20.7196C20.7522 20.7196 20.7272 20.7055 20.7272 20.6883C20.7272 20.6711 20.7053 20.6571 20.6772 20.6571C20.649 20.6571 20.5881 20.6149 20.5397 20.5633C20.5178 20.5399 20.4944 20.5183 20.4725 20.5018C20.4475 20.4821 20.4256 20.4696 20.4147 20.4696C20.4006 20.4696 20.3709 20.4506 20.3381 20.4226L20.2897 20.3758C20.2412 20.3243 20.185 20.2821 20.1647 20.2821C20.1444 20.2821 20.074 20.2258 20.0084 20.1571C19.9428 20.0883 19.8725 20.0321 19.8537 20.0321C19.8334 20.0321 19.7069 19.9196 19.5709 19.7821C19.435 19.6446 19.3084 19.5321 19.2912 19.5321C19.2397 19.5321 17.0397 17.3188 17.0397 17.2666C17.0397 17.2408 17.0256 17.2196 17.0085 17.2196C16.9913 17.2196 16.9772 17.1915 16.9772 17.1571C16.9772 17.1227 16.9632 17.0946 16.946 17.0946C16.9288 17.0946 16.9147 17.0665 16.9147 17.0321C16.9147 16.9977 16.9007 16.9696 16.8835 16.9696C16.8647 16.9696 16.8522 16.8654 16.8522 16.7196C16.8522 16.5738 16.8647 16.4696 16.8835 16.4696C16.9007 16.4696 16.9147 16.4415 16.9147 16.4071C16.9147 16.3727 16.9288 16.3446 16.946 16.3446C16.9632 16.3446 16.9772 16.3165 16.9772 16.2821C16.9772 16.2477 16.9913 16.2196 17.0085 16.2196C17.0194 16.2196 17.0303 16.21 17.035 16.1957L17.0397 16.1726C17.0397 16.1416 17.8803 15.2835 18.5756 14.5909C19.0506 14.1164 19.4584 13.7197 19.4787 13.7197C19.4959 13.7197 19.6084 13.6212 19.7272 13.5009C19.8459 13.3806 19.9584 13.2822 19.9787 13.2822C19.9975 13.2822 20.0678 13.2259 20.1334 13.1572C20.1756 13.1127 20.2209 13.0736 20.2537 13.0514C20.2725 13.0392 20.2881 13.0322 20.2959 13.0322C20.3194 13.0322 20.3584 13.004 20.3834 12.9697C20.4084 12.9353 20.4506 12.9072 20.4772 12.9072C20.5037 12.9072 20.5459 12.879 20.5709 12.8447C20.5959 12.8103 20.6381 12.7822 20.6647 12.7822C20.6912 12.7822 20.7334 12.754 20.7584 12.7197C20.7834 12.6853 20.8287 12.6572 20.8584 12.6572C20.8897 12.6572 20.9147 12.6431 20.9147 12.6259C20.9147 12.6087 20.9428 12.5947 20.9772 12.5947C21.0115 12.5947 21.0397 12.5806 21.0397 12.5634C21.0397 12.5462 21.0678 12.5322 21.1022 12.5322C21.1365 12.5322 21.1647 12.5181 21.1647 12.5009C21.1647 12.4837 21.1928 12.4697 21.2272 12.4697C21.2615 12.4697 21.2897 12.4556 21.2897 12.4384C21.2897 12.4212 21.3318 12.4072 21.3834 12.4072C21.435 12.4072 21.4772 12.3931 21.4772 12.3759C21.4772 12.3587 21.5053 12.3447 21.5397 12.3447C21.574 12.3447 21.6021 12.3306 21.6021 12.3134C21.6021 12.2962 21.6443 12.2822 21.6959 12.2822C21.7475 12.2822 21.7896 12.2681 21.7896 12.2509C21.7896 12.2337 21.8459 12.2197 21.9146 12.2197C21.9834 12.2197 22.0396 12.2056 22.0396 12.1884C22.0396 12.1712 22.0959 12.1572 22.1646 12.1572C22.2334 12.1572 22.2896 12.1431 22.2896 12.1259C22.2896 12.1077 22.3943 12.0947 22.5396 12.0947ZM24.1334 13.9696C24.0474 13.9696 23.9771 13.9556 23.9771 13.9384C23.9771 13.9187 23.7693 13.9071 23.4146 13.9071C23.2146 13.9071 23.0615 13.9108 22.9662 13.9175C22.8912 13.9227 22.8521 13.9298 22.8521 13.9384C22.8521 13.9558 22.7693 13.9696 22.6646 13.9696C22.5599 13.9696 22.4771 13.9835 22.4771 14.0009C22.4771 14.0181 22.435 14.0321 22.3834 14.0321C22.3318 14.0321 22.2896 14.0462 22.2896 14.0634C22.2896 14.0806 22.2475 14.0946 22.1959 14.0946C22.1443 14.0946 22.1021 14.1087 22.1021 14.1259C22.1021 14.1431 22.074 14.1571 22.0396 14.1571C22.024 14.1571 22.01 14.1601 21.999 14.165C21.985 14.1707 21.9771 14.1791 21.9771 14.1884C21.9771 14.2056 21.949 14.2196 21.9146 14.2196C21.899 14.2196 21.885 14.2226 21.874 14.2275C21.86 14.2332 21.8521 14.2416 21.8521 14.2509C21.8521 14.2591 21.8459 14.2666 21.8365 14.2722C21.8256 14.2783 21.8115 14.2821 21.7959 14.2821C21.7662 14.2821 21.7209 14.3103 21.6959 14.3446C21.6709 14.379 21.6287 14.4071 21.6021 14.4071C21.5756 14.4071 21.5334 14.4353 21.5084 14.4696C21.4834 14.504 21.4443 14.5321 21.4209 14.5321C21.3975 14.5321 21.3115 14.6025 21.2272 14.6884C21.1428 14.7743 21.06 14.8446 21.0412 14.8446C21.0225 14.8446 20.81 15.0415 20.5709 15.2821C20.3319 15.5228 20.1209 15.7196 20.1022 15.7196C20.0584 15.7196 19.7897 15.9893 19.7897 16.0324C19.7897 16.039 19.7709 16.0635 19.7397 16.1002C19.6834 16.1647 19.5866 16.2671 19.4772 16.3759C19.3053 16.5466 19.1647 16.7008 19.1647 16.7186C19.1647 16.7617 20.9365 18.5321 20.9787 18.5321C20.9975 18.5321 21.0803 18.6024 21.1647 18.6883C21.249 18.7743 21.335 18.8446 21.3584 18.8446C21.3818 18.8446 21.4209 18.8727 21.4459 18.9071C21.4709 18.9415 21.5131 18.9696 21.5397 18.9696C21.5662 18.9696 21.6084 18.9977 21.6334 19.0321C21.6584 19.0665 21.7006 19.0946 21.7271 19.0946C21.7428 19.0946 21.7631 19.1041 21.7834 19.1186C21.7975 19.1292 21.81 19.1426 21.8209 19.1571C21.8459 19.1915 21.8912 19.2196 21.9209 19.2196C21.9521 19.2196 21.9771 19.2336 21.9771 19.2508C21.9771 19.268 22.0193 19.2821 22.0709 19.2821C22.1225 19.2821 22.1646 19.2961 22.1646 19.3133C22.1646 19.3305 22.1928 19.3446 22.2271 19.3446L22.2584 19.3489C22.2771 19.3543 22.2896 19.3644 22.2896 19.3758C22.2896 19.393 22.3459 19.4071 22.4146 19.4071C22.4834 19.4071 22.5396 19.4211 22.5396 19.4383C22.5396 19.448 22.5615 19.4567 22.5974 19.4624C22.624 19.4669 22.6584 19.4696 22.6959 19.4696C22.7818 19.4696 22.8521 19.4836 22.8521 19.5008C22.8521 19.5206 23.0599 19.5321 23.4146 19.5321C23.7693 19.5321 23.9771 19.5206 23.9771 19.5008C23.9771 19.4934 23.9896 19.4866 24.0115 19.4812C24.0412 19.4742 24.0849 19.4696 24.1334 19.4696C24.2193 19.4696 24.2896 19.4555 24.2896 19.4383C24.2896 19.4211 24.3459 19.4071 24.4146 19.4071C24.4834 19.4071 24.5396 19.393 24.5396 19.3758C24.5396 19.3586 24.5818 19.3446 24.6334 19.3446C24.6849 19.3446 24.7271 19.3305 24.7271 19.3133C24.7271 19.2961 24.7552 19.2821 24.7896 19.2821C24.824 19.2821 24.8521 19.268 24.8521 19.2508C24.8521 19.2336 24.8802 19.2196 24.9146 19.2196C24.949 19.2196 24.9771 19.2055 24.9771 19.1883C24.9771 19.1711 25.0021 19.1571 25.0334 19.1571C25.063 19.1571 25.1084 19.129 25.1334 19.0946C25.1584 19.0602 25.2005 19.0321 25.2271 19.0321C25.2537 19.0321 25.2959 19.004 25.3209 18.9696C25.3458 18.9352 25.3849 18.9071 25.4083 18.9071C25.4318 18.9071 25.5052 18.8508 25.5708 18.7821C25.6365 18.7133 25.7068 18.6571 25.7255 18.6571C25.7443 18.6571 25.9568 18.4602 26.1958 18.2196C26.4349 17.979 26.6474 17.7821 26.6646 17.7821C26.7083 17.7821 26.9146 17.5754 26.9146 17.5322C26.9146 17.5139 27.0833 17.3311 27.2896 17.1259C27.4958 16.9206 27.6646 16.7382 27.6646 16.7204C27.6646 16.6774 25.8927 14.9071 25.8505 14.9071C25.8318 14.9071 25.749 14.8368 25.6646 14.7509C25.5802 14.665 25.4943 14.5946 25.4708 14.5946C25.4474 14.5946 25.4083 14.5665 25.3833 14.5321C25.3583 14.4978 25.3162 14.4696 25.2896 14.4696C25.263 14.4696 25.2209 14.4415 25.1959 14.4071C25.1709 14.3728 25.1287 14.3446 25.1021 14.3446C25.0755 14.3446 25.0334 14.3165 25.0084 14.2821C24.9834 14.2478 24.938 14.2196 24.9084 14.2196C24.8771 14.2196 24.8521 14.2056 24.8521 14.1884C24.8521 14.1712 24.824 14.1571 24.7896 14.1571C24.7552 14.1571 24.7271 14.1431 24.7271 14.1259C24.7271 14.1087 24.6849 14.0946 24.6334 14.0946C24.5818 14.0946 24.5396 14.0806 24.5396 14.0634C24.5396 14.0462 24.4834 14.0321 24.4146 14.0321C24.3459 14.0321 24.2896 14.0181 24.2896 14.0009C24.2896 13.9837 24.2193 13.9696 24.1334 13.9696ZM23.1021 15.8446C23.1365 15.8446 23.1646 15.8306 23.1646 15.8134C23.1646 15.7951 23.2693 15.7821 23.4146 15.7821L23.5615 15.7875C23.6256 15.7929 23.6646 15.8021 23.6646 15.8134C23.6646 15.8306 23.6927 15.8446 23.7271 15.8446C23.7427 15.8446 23.7568 15.8475 23.7677 15.8521C23.7802 15.8579 23.7896 15.8664 23.7896 15.8759C23.7896 15.8931 23.8177 15.9071 23.8521 15.9071C23.8677 15.9071 23.8818 15.91 23.8927 15.9145C23.9052 15.9203 23.9146 15.9289 23.9146 15.9384C23.9146 15.9556 23.9365 15.9696 23.9631 15.9696C24.0256 15.9696 24.1646 16.1088 24.1646 16.1714C24.1646 16.1979 24.1787 16.2196 24.1959 16.2196C24.2131 16.2196 24.2271 16.2477 24.2271 16.2821C24.2271 16.3165 24.2412 16.3446 24.2584 16.3446C24.2693 16.3446 24.2802 16.3565 24.2849 16.3743L24.2896 16.4071C24.2896 16.4415 24.3037 16.4696 24.3209 16.4696C24.3396 16.4696 24.3521 16.5738 24.3521 16.7196C24.3521 16.8654 24.3396 16.9696 24.3209 16.9696C24.3037 16.9696 24.2896 16.9977 24.2896 17.0321C24.2896 17.0665 24.2756 17.0946 24.2584 17.0946C24.2412 17.0946 24.2271 17.1227 24.2271 17.1571C24.2271 17.1915 24.2131 17.2196 24.1959 17.2196C24.1787 17.2196 24.1646 17.2413 24.1646 17.2678C24.1646 17.3304 24.0256 17.4696 23.9631 17.4696C23.9365 17.4696 23.9146 17.4837 23.9146 17.5009C23.9146 17.518 23.8865 17.5321 23.8521 17.5321C23.8177 17.5321 23.7896 17.5462 23.7896 17.5634C23.7896 17.5805 23.7615 17.5946 23.7271 17.5946C23.6927 17.5946 23.6646 17.6087 23.6646 17.6258C23.6646 17.6441 23.5599 17.6571 23.4146 17.6571C23.2693 17.6571 23.1646 17.6441 23.1646 17.6258C23.1646 17.6087 23.1365 17.5946 23.1021 17.5946C23.0678 17.5946 23.0396 17.5805 23.0396 17.5634C23.0396 17.5462 23.0115 17.5321 22.9771 17.5321C22.9428 17.5321 22.9146 17.518 22.9146 17.5009C22.9146 17.4837 22.8928 17.4696 22.8662 17.4696C22.8037 17.4696 22.6646 17.3304 22.6646 17.2678C22.6646 17.2413 22.6506 17.2196 22.6334 17.2196C22.6162 17.2196 22.6021 17.1915 22.6021 17.1571C22.6021 17.1227 22.5881 17.0946 22.5709 17.0946C22.5537 17.0946 22.5396 17.0665 22.5396 17.0321C22.5396 16.9977 22.5256 16.9696 22.5084 16.9696C22.4896 16.9696 22.4771 16.8654 22.4771 16.7196C22.4771 16.5738 22.4896 16.4696 22.5084 16.4696C22.5193 16.4696 22.5271 16.4593 22.5334 16.4433L22.5396 16.4071C22.5396 16.3727 22.5537 16.3446 22.5709 16.3446C22.5881 16.3446 22.6021 16.3165 22.6021 16.2821C22.6021 16.2477 22.6162 16.2196 22.6334 16.2196C22.6506 16.2196 22.6646 16.1979 22.6646 16.1714C22.6646 16.1587 22.6724 16.1392 22.6849 16.1179C22.699 16.0943 22.7193 16.0684 22.7412 16.0464C22.7834 16.0042 22.8396 15.9696 22.8662 15.9696C22.8928 15.9696 22.9146 15.9556 22.9146 15.9384C22.9146 15.9212 22.9428 15.9071 22.9771 15.9071C23.0115 15.9071 23.0396 15.8931 23.0396 15.8759C23.0396 15.8587 23.0678 15.8446 23.1021 15.8446Z" fill="#DD2A1B"/>
</svg>
