<svg width="40" height="40" viewBox="0 0 40 40" fill="none" xmlns="http://www.w3.org/2000/svg">
<path fill-rule="evenodd" clip-rule="evenodd" d="M16.1419 5.59961H11.254C8.83756 5.59961 6.95582 7.70472 7.22487 10.1059C7.33969 11.1294 7.42537 12.0662 7.50329 12.9181C7.88773 17.1212 8.08341 19.2606 10.6578 19.5787V30.894C10.6578 31.226 10.6761 31.248 11.8849 32.7026C12.1861 33.065 12.5611 33.5163 13.0283 34.0835C13.3763 34.5061 14.0214 34.5039 14.3677 34.0835C14.836 33.5146 15.2118 33.0623 15.5134 32.6994L15.5136 32.699C16.7234 31.243 16.7376 31.2259 16.7376 30.894V26.9204C16.7376 26.5507 16.6012 26.4104 15.9587 25.7498C15.8186 25.6058 15.6545 25.437 15.4625 25.2358C15.6506 25.0386 15.8119 24.8725 15.9499 24.7303L15.9499 24.7303C16.6069 24.0536 16.7376 23.919 16.7376 23.5512V19.5787C19.3028 19.2618 19.4973 17.1612 19.8913 12.9055C19.9697 12.0586 20.056 11.1264 20.1705 10.1059C20.4402 7.69918 18.5532 5.59961 16.1419 5.59961ZM18.4466 9.91212L17.6878 16.6767C17.6121 17.353 17.0415 17.8675 16.3559 17.8675L10.6578 17.8119C10.1529 17.6628 9.76888 17.2238 9.70755 16.6767L8.94944 9.91212C8.79495 8.53642 9.86661 7.33456 11.254 7.33456H16.1419C17.526 7.33456 18.6012 8.53431 18.4466 9.91212ZM15.0027 23.2042L13.6355 24.6372C13.3157 24.9727 13.3157 25.4995 13.6355 25.8349L15.0027 27.2674V30.5829L13.698 32.1675L12.3928 30.5829V19.6024H15.0027V23.2042H15.0027ZM13.6977 9.09902C11.9176 9.09902 10.4695 10.5471 10.4695 12.3272C10.4695 14.1106 11.9219 15.5554 13.6977 15.5554C15.4739 15.5554 16.9259 14.1102 16.9259 12.3272C16.9259 10.5471 15.4777 9.09902 13.6977 9.09902ZM13.6977 10.834C14.5213 10.834 15.1909 11.5037 15.1909 12.3272C15.1909 13.1507 14.5213 13.8204 13.6977 13.8204C12.8742 13.8204 12.2045 13.1507 12.2045 12.3272C12.2045 11.5037 12.8742 10.834 13.6977 10.834ZM27.9941 14.0998H29.5012C31.2037 14.0998 32.5889 15.4848 32.5889 17.1874V30.8808C32.5889 32.5834 31.2038 33.9685 29.5012 33.9685H23.4463C21.7436 33.9685 20.3586 32.5834 20.3586 30.8808V17.1874C20.3586 15.4849 21.7437 14.0998 23.4463 14.0998H24.9545C24.399 13.114 23.3294 11.1578 23.3294 10.0741C23.3294 5.91878 29.618 5.91878 29.618 10.0741C29.618 11.1584 28.5456 13.1212 27.9941 14.0998ZM26.4737 13.2687C27.2371 11.9155 27.8831 10.5478 27.8831 10.0741C27.8831 8.21085 25.0644 8.21211 25.0644 10.0741C25.0644 10.5478 25.7104 11.9155 26.4737 13.2687ZM29.5012 32.2335C30.2473 32.2335 30.8539 31.6268 30.8539 30.8808V17.1874C30.8539 16.4414 30.2472 15.8347 29.5012 15.8347H23.4462C22.7007 15.8347 22.0935 16.4414 22.0935 17.1874V30.8808C22.0935 31.6268 22.7008 32.2335 23.4462 32.2335H29.5012ZM28.9976 18.0299H23.9495C23.4701 18.0299 23.082 18.418 23.082 18.8974V22.6171C23.082 23.0959 23.4701 23.4846 23.9495 23.4846H28.9976C29.4765 23.4846 29.8651 23.0959 29.8651 22.6171V18.8974C29.8651 18.418 29.4765 18.0299 28.9976 18.0299ZM28.1302 21.7496H24.817V19.7648H28.1302V21.7496ZM23.9495 24.5834H28.9976C29.4765 24.5834 29.8651 24.972 29.8651 25.4509V29.1706C29.8651 29.65 29.4765 30.0381 28.9976 30.0381H23.9495C23.4701 30.0381 23.082 29.65 23.082 29.1706V25.4509C23.082 24.972 23.4701 24.5834 23.9495 24.5834ZM24.817 28.3031H28.1302V26.3184H24.817V28.3031Z" fill="#DD2A1B"/>
</svg>
