<svg width="40" height="40" viewBox="0 0 40 40" fill="none" xmlns="http://www.w3.org/2000/svg">
<path fill-rule="evenodd" clip-rule="evenodd" d="M30.182 9.81724C27.4621 7.09751 23.846 5.59961 19.9996 5.59961C16.1532 5.59961 12.5371 7.09751 9.81724 9.81724C7.09751 12.5371 5.59961 16.1532 5.59961 19.9996C5.59961 23.846 7.09751 27.4621 9.81724 30.182C12.5371 32.9017 16.1532 34.3996 19.9996 34.3996C23.846 34.3996 27.4621 32.9017 30.182 30.182C32.9017 27.4621 34.3996 23.846 34.3996 19.9996C34.3996 16.1532 32.9017 12.5371 30.182 9.81724ZM19.9996 32.7121C12.9899 32.7121 7.28711 27.0093 7.28711 19.9996C7.28711 12.9899 12.9899 7.28711 19.9996 7.28711C27.0093 7.28711 32.7121 12.9899 32.7121 19.9996C32.7121 27.0093 27.0093 32.7121 19.9996 32.7121ZM19.9996 8.97461C13.9204 8.97461 8.97461 13.9204 8.97461 19.9996C8.97461 26.0788 13.9204 31.0246 19.9996 31.0246C26.0788 31.0246 31.0246 26.0788 31.0246 19.9996C31.0246 13.9204 26.0788 8.97461 19.9996 8.97461ZM19.9996 29.3371C14.8509 29.3371 10.6621 25.1483 10.6621 19.9996C10.6621 14.8509 14.8509 10.6621 19.9996 10.6621C25.1483 10.6621 29.3371 14.8509 29.3371 19.9996C29.3371 25.1483 25.1483 29.3371 19.9996 29.3371ZM19.9992 12.3556L22.2457 16.9075L27.2691 17.6375L23.6341 21.1806L24.4922 26.1837L19.9992 23.8216L15.5062 26.1837L16.3642 21.1806L12.7293 17.6375L17.7527 16.9075L19.9992 12.3556ZM17.7474 23.0989L19.9992 21.915L22.251 23.0989L21.821 20.5915L23.6428 18.8157L21.1251 18.4499L19.9992 16.1686L18.8734 18.4499L16.3557 18.8158L18.1775 20.5915L17.7474 23.0989Z" fill="#DD2A1B"/>
</svg>
