<svg width="40" height="40" viewBox="0 0 40 40" fill="none" xmlns="http://www.w3.org/2000/svg">
<path fill-rule="evenodd" clip-rule="evenodd" d="M33.5996 7.2002L6.39961 7.20019L6.39961 32.7002L33.5996 32.7002L33.5996 7.2002ZM8.09961 19.1002L8.09961 8.90019L31.8996 8.9002L31.8996 19.1002L8.09961 19.1002ZM8.09961 31.0002L8.09961 20.8002L31.8996 20.8002L31.8996 31.0002L8.09961 31.0002ZM30.1996 17.4002L30.1996 10.6002L18.2996 10.6002L18.2996 17.4002L30.1996 17.4002ZM19.9996 15.7002L19.9996 12.3002L28.4996 12.3002L28.4996 15.7002L19.9996 15.7002ZM11.4996 17.4002L11.4996 10.6002L9.79961 10.6002L9.79961 17.4002L11.4996 17.4002ZM14.8996 10.6002L14.8996 17.4002L13.1996 17.4002L13.1996 10.6002L14.8996 10.6002ZM30.1996 22.5002L30.1996 29.3002L18.2996 29.3002L18.2996 22.5002L30.1996 22.5002ZM19.9996 24.2002L19.9996 27.6002L28.4996 27.6002L28.4996 24.2002L19.9996 24.2002ZM11.4996 29.3002L11.4996 22.5002L9.79961 22.5002L9.79961 29.3002L11.4996 29.3002ZM14.8996 22.5002L14.8996 29.3002L13.1996 29.3002L13.1996 22.5002L14.8996 22.5002Z" fill="#DD2A1B"/>
</svg>
