<svg width="24" height="24" viewBox="0 0 24 24" fill="none" xmlns="http://www.w3.org/2000/svg">
<path fill-rule="evenodd" clip-rule="evenodd" d="M15.0704 3H9.23811V4.33248H10.2767V5.72707C9.13616 6.00961 8.07534 6.54976 7.16502 7.31802L6.61882 6.77181L7.35322 6.03741L6.41112 5.09512L4 7.50624L4.94228 8.44835L5.67669 7.71394L6.22289 8.26014C5.04549 9.65515 4.40368 11.4032 4.40368 13.2495C4.40368 15.3194 5.21011 17.2662 6.67379 18.7299C8.1376 20.1936 10.0843 21 12.1543 21C14.2242 21 16.1711 20.1936 17.6348 18.7299C19.0984 17.2662 19.9049 15.3194 19.9049 13.2495C19.9049 11.4032 19.2631 9.65516 18.0857 8.26015L18.632 7.71393L19.3664 8.44836L20.3085 7.50623L17.8974 5.09513L16.9553 6.03725L17.6897 6.7718L17.1435 7.31802C16.2332 6.54976 15.1724 6.00961 14.0318 5.72707V4.33248H15.0704V3ZM11.6093 5.51804V4.33248H12.6993V5.51804C12.5189 5.50543 12.3372 5.4988 12.1543 5.4988C11.9715 5.4988 11.7898 5.50543 11.6093 5.51804ZM5.73616 13.2495C5.73616 9.7106 8.61548 6.83128 12.1543 6.83128C15.6931 6.83128 18.5724 9.7106 18.5724 13.2495C18.5724 16.7882 15.6931 19.6675 12.1543 19.6675C8.61547 19.6675 5.73616 16.7882 5.73616 13.2495ZM12.1545 7.57354C9.02469 7.57354 6.47861 10.1196 6.47861 13.2494C6.47861 16.3791 9.02469 18.9251 12.1545 18.9251C15.2841 18.9251 17.8302 16.3791 17.8302 13.2494C17.8302 10.1196 15.2841 7.57354 12.1545 7.57354ZM7.81108 13.2494C7.81108 11.0813 9.40854 9.27889 11.4882 8.95737V11.6809C10.8788 11.9406 10.45 12.5453 10.45 13.2494C10.45 14.1893 11.2144 14.9539 12.1545 14.9539C12.8585 14.9539 13.4632 14.5249 13.723 13.9157H16.4464C16.1249 15.9952 14.3225 17.5927 12.1545 17.5927C9.75971 17.5927 7.81108 15.6442 7.81108 13.2494ZM12.8207 11.6809V8.95738C14.6829 9.24537 16.1585 10.7209 16.4464 12.5832H13.723C13.5503 12.1782 13.2257 11.8535 12.8207 11.6809ZM11.7825 13.2494C11.7825 13.0443 11.9495 12.8773 12.1545 12.8773C12.3593 12.8773 12.5264 13.0444 12.5264 13.2494C12.5264 13.4543 12.3594 13.6214 12.1545 13.6214C11.9495 13.6214 11.7825 13.4543 11.7825 13.2494Z" fill="#DD2A1B"/>
</svg>
