<svg width="40" height="40" viewBox="0 0 40 40" fill="none" xmlns="http://www.w3.org/2000/svg">
<path fill-rule="evenodd" clip-rule="evenodd" d="M30.882 8.65507C30.6843 8.96807 30.4085 9.40457 30.4085 10.1817C30.4085 10.9655 30.6808 11.4028 30.8871 11.7164C31.0439 11.9557 31.1099 12.0629 31.1099 12.3682C31.1099 12.6618 31.0412 12.7723 30.9038 12.9932L30.8871 13.0201L30.882 13.0282C30.6843 13.3411 30.4085 13.7776 30.4085 14.5548C30.4085 15.0086 30.7798 15.3799 31.2336 15.3799C31.6874 15.3799 32.0587 15.0086 32.0587 14.5548C32.0587 14.2611 32.1274 14.1507 32.2648 13.9298L32.2815 13.9029L32.2866 13.8948C32.4843 13.5818 32.7601 13.1453 32.7601 12.3682C32.7601 11.5906 32.4897 11.1629 32.2924 10.8508L32.2815 10.8335C32.1247 10.5942 32.0587 10.4787 32.0587 10.1817C32.0587 9.8963 32.1273 9.78609 32.2644 9.56568L32.2815 9.5381L32.2866 9.52997C32.4843 9.21701 32.7601 8.78051 32.7601 8.0034C32.7601 7.21954 32.4878 6.78223 32.2815 6.4687C32.1247 6.23766 32.0587 6.13039 32.0587 5.82511C32.0587 5.3713 31.6874 5 31.2336 5C30.7798 5 30.4085 5.3713 30.4085 5.82511C30.4085 6.60896 30.6808 7.04627 30.8871 7.35981C31.0439 7.59084 31.1099 7.70636 31.1099 8.0034C31.1099 8.28879 31.0413 8.399 30.9042 8.61943L30.8871 8.64698L30.882 8.65507ZM8.03158 17.2942L2.99017 21.9973C2.35483 22.5914 2.00004 23.4247 2.00004 24.2911V29.0024V29.0107C1.99179 30.7352 3.39447 32.1379 5.11895 32.1379H5.59751C5.98531 33.5488 7.09096 34.6544 8.50189 35.0422C10.7049 35.6446 12.9905 34.3492 13.5928 32.1379H25.9117C26.2995 33.5488 27.4051 34.6544 28.8161 35.0422C31.0191 35.6446 33.3047 34.3492 33.907 32.1379H34.4268H34.4351C36.1678 32.1379 37.5622 30.7352 37.5622 29.0024V27.146V27.1295C37.554 24.5551 35.4582 22.4758 32.8839 22.4841H30.062L34.6083 18.8949C34.9961 18.6226 35.516 18.6473 35.8707 18.9526L36.6216 19.6127L36.6381 19.6292C36.9846 19.9262 37.5045 19.885 37.8015 19.5385C38.0985 19.1919 38.0573 18.6721 37.7107 18.375L36.9599 17.715C36.0275 16.8981 34.6496 16.8238 33.643 17.5499C33.6265 17.5582 33.6182 17.5664 33.61 17.5747L27.9827 21.9973C27.9827 21.9943 27.9816 21.9924 27.9802 21.9912C27.9778 21.989 27.9745 21.989 27.9745 21.989L23.7086 17.4427C23.1146 16.8156 22.2812 16.4608 21.4148 16.4608H20.2349V15.1406H21.3818C21.8357 15.1406 22.207 14.7693 22.207 14.3155C22.207 13.8617 21.8357 13.4904 21.3818 13.4904H10.2594C9.80556 13.4904 9.43427 13.8617 9.43427 14.3155C9.43427 14.7693 9.80556 15.1406 10.2594 15.1406H11.4063V16.4608H10.1686C9.37651 16.4525 8.60916 16.7496 8.03158 17.2942ZM9.14548 18.5153C9.42601 18.2513 9.78906 18.111 10.1686 18.111H11.9921L9.96234 22.4841H4.89617L9.14548 18.5153ZM16.852 22.4841H11.7858L13.8156 18.111H16.852V22.4841ZM13.0565 15.1406H18.5847V16.4608H13.0565V15.1406ZM32.4053 31.0487C32.4053 32.4266 31.2914 33.5405 29.9135 33.5405C28.5355 33.5405 27.4216 32.4266 27.4216 31.0487C27.4216 29.6708 28.5355 28.5569 29.9135 28.5569C31.2914 28.5569 32.4053 29.6708 32.4053 31.0487ZM25.8044 30.4876H18.5022V24.1343H28.7913C28.8078 24.1343 28.8223 24.1322 28.8367 24.1302C28.8511 24.1281 28.8656 24.1261 28.8821 24.1261C28.9481 24.1343 29.0058 24.1343 29.0636 24.1343H32.8921H32.9086C34.5671 24.1343 35.912 25.4875 35.912 27.146V29.0024C35.912 29.8276 35.2519 30.4876 34.4351 30.4876H34.0225C33.7502 28.5074 32.0092 26.8984 29.9135 26.8984C27.8177 26.8984 26.0767 28.5074 25.8044 30.4876ZM26.1592 22.4841H18.5022V18.111H21.4148C21.8274 18.111 22.2235 18.2843 22.504 18.5813L26.1592 22.4841ZM12.0911 31.0487C12.0911 32.4266 10.9772 33.5405 9.59929 33.5405C8.22136 33.5405 7.10746 32.4266 7.10746 31.0487C7.10746 29.6708 8.22136 28.5569 9.59929 28.5569C10.9772 28.5569 12.0911 29.6708 12.0911 31.0487ZM3.65025 29.0024V24.2911C3.65025 24.2649 3.64688 24.2304 3.64395 24.2004L3.64393 24.2003C3.64038 24.164 3.63749 24.1343 3.642 24.1343H16.852V30.4876H13.7166C13.4443 28.5074 11.7033 26.8984 9.60754 26.8984C7.51176 26.8984 5.77078 28.5074 5.4985 30.4876H5.1272H5.1107C4.29384 30.4794 3.64201 29.8193 3.65025 29.0024ZM27.9332 12.3683C27.9332 12.063 27.8672 11.9557 27.7104 11.7164C27.5041 11.4029 27.2318 10.9656 27.2318 10.1817C27.2318 9.40458 27.5076 8.96808 27.7053 8.65511L27.7104 8.64702L27.7275 8.61945C27.8646 8.39902 27.9332 8.28881 27.9332 8.00343C27.9332 7.54962 28.3045 7.17832 28.7583 7.17832C29.2121 7.17832 29.5834 7.54962 29.5834 8.00343C29.5834 8.78055 29.3077 9.21707 29.11 9.53003L29.1048 9.53813L29.0877 9.5657C28.9506 9.78612 28.8821 9.89633 28.8821 10.1817C28.8821 10.4788 28.9481 10.5943 29.1048 10.8336L29.1158 10.8508C29.313 11.1629 29.5834 11.5906 29.5834 12.3683C29.5834 13.1454 29.3077 13.5819 29.11 13.8948L29.1048 13.903L29.0881 13.9298C28.9508 14.1507 28.8821 14.2612 28.8821 14.5548C28.8821 15.0086 28.5108 15.3799 28.057 15.3799C27.6031 15.3799 27.2318 15.0086 27.2318 14.5548C27.2318 13.7777 27.5076 13.3412 27.7053 13.0282L27.7104 13.0201L27.7271 12.9932C27.8645 12.7723 27.9332 12.6619 27.9332 12.3683ZM34.0637 11.7164C34.2205 11.9557 34.2865 12.063 34.2865 12.3683C34.2865 12.6619 34.2178 12.7723 34.0805 12.9932L34.0637 13.0201L34.0586 13.0282C33.8609 13.3412 33.5852 13.7777 33.5852 14.5548C33.5852 15.0086 33.9565 15.3799 34.4103 15.3799C34.8641 15.3799 35.2354 15.0086 35.2354 14.5548C35.2354 14.2612 35.3041 14.1507 35.4415 13.9298L35.4582 13.903L35.4633 13.8948C35.661 13.5819 35.9367 13.1454 35.9367 12.3683C35.9367 11.5906 35.6664 11.1629 35.4691 10.8508L35.4582 10.8336C35.3014 10.5943 35.2354 10.4788 35.2354 10.1817C35.2354 9.89633 35.304 9.78612 35.441 9.5657L35.4582 9.53813L35.4633 9.53003C35.661 9.21707 35.9367 8.78056 35.9367 8.00343C35.9367 7.54962 35.5654 7.17832 35.1116 7.17832C34.6578 7.17832 34.2865 7.54962 34.2865 8.00343C34.2865 8.28881 34.218 8.39902 34.0809 8.61945L34.0637 8.64702L34.0586 8.65511C33.8609 8.96808 33.5852 9.40458 33.5852 10.1817C33.5852 10.9656 33.8575 11.4029 34.0637 11.7164Z" fill="#DD2A1B"/>
</svg>
