<svg width="40" height="40" viewBox="0 0 40 40" fill="none" xmlns="http://www.w3.org/2000/svg">
<path d="M22.85 23.6682C22.0978 23.2445 20.657 22.3251 19.0901 20.7583C17.5229 19.1911 16.5931 17.7396 16.1626 16.9802L18.69 14.4202L12.3081 8L9.16397 11.1234C7.96994 12.3173 7.66067 14.1339 8.39401 15.6437C9.51297 17.9478 11.5779 21.4251 15.0594 24.9069C18.5412 28.3885 22.0185 30.4533 24.3226 31.5723C24.8684 31.8376 25.4543 31.9663 26.0366 31.9663C27.0646 31.9663 28.0806 31.5646 28.8429 30.8023L31.9725 27.6619L25.4613 21.1398L22.85 23.6682ZM27.5189 29.4799C26.8886 30.1095 25.9328 30.2739 25.1401 29.889C22.9652 28.8327 19.6805 26.8813 16.3827 23.5836C13.085 20.2858 11.1336 17.0011 10.0773 14.8262C9.69205 14.0333 9.85684 13.077 10.4849 12.4489L12.2997 10.6461L16.0559 14.4248L13.9027 16.6058L14.1626 17.1892C14.2049 17.284 15.2261 19.5408 17.7668 22.0816C20.3093 24.624 22.547 25.6239 22.6409 25.6653L23.2166 25.9184L25.4391 23.7663L29.3296 27.6632L27.5189 29.4799ZM25.3033 16.8151L20.8989 12.4108L25.3033 8.00641L26.6266 9.32971L24.5278 11.4283H29.1816C30.7325 11.4283 31.9943 12.6875 31.9943 14.2355L32 19.1466L30.1287 19.1489L30.123 14.2366C30.123 13.7195 29.7007 13.2998 29.1816 13.2998H24.4343L26.6266 15.492L25.3033 16.8151Z" fill="#DD2A1B"/>
</svg>
