<svg width="50" height="50" viewBox="0 0 50 50" fill="none" xmlns="http://www.w3.org/2000/svg">
<circle cx="25" cy="25" r="25" fill="#DD2A1B"/>
<path d="M13.9058 18.3433C13.9654 17.9297 14.0808 17.5678 14.2518 17.2576C14.4228 16.9435 14.6355 16.683 14.89 16.4762C15.1485 16.2655 15.4428 16.1084 15.7728 16.005C16.1069 15.8976 16.4647 15.844 16.8465 15.844C17.2442 15.844 17.6021 15.9016 17.9202 16.0169C18.2423 16.1283 18.5167 16.2854 18.7433 16.4882C18.97 16.687 19.143 16.9216 19.2623 17.192C19.3856 17.4624 19.4472 17.7547 19.4472 18.0689C19.4472 18.3433 19.4154 18.5858 19.3518 18.7966C19.2921 19.0034 19.2046 19.1843 19.0893 19.3394C18.974 19.4945 18.8308 19.6257 18.6598 19.7331C18.4888 19.8405 18.296 19.9299 18.0812 20.0015C18.5982 20.1645 18.9839 20.4131 19.2384 20.7471C19.4929 21.0812 19.6202 21.5007 19.6202 22.0057C19.6202 22.4352 19.5407 22.815 19.3816 23.145C19.2225 23.4751 19.0078 23.7534 18.7374 23.9801C18.467 24.2028 18.1528 24.3718 17.7949 24.4871C17.441 24.6024 17.0652 24.6601 16.6676 24.6601C16.2341 24.6601 15.8563 24.6104 15.5342 24.511C15.2121 24.4116 14.9318 24.2644 14.6932 24.0696C14.4546 23.8747 14.2518 23.6361 14.0847 23.3538C13.9177 23.0714 13.7746 22.7454 13.6553 22.3755L14.3054 22.1071C14.4764 22.0355 14.6355 22.0176 14.7826 22.0534C14.9338 22.0852 15.0431 22.1648 15.1107 22.292C15.1823 22.4312 15.2598 22.5684 15.3433 22.7036C15.4308 22.8388 15.5342 22.9601 15.6535 23.0675C15.7728 23.1709 15.912 23.2564 16.0711 23.324C16.2341 23.3876 16.427 23.4194 16.6497 23.4194C16.9002 23.4194 17.1189 23.3796 17.3058 23.3001C17.4927 23.2166 17.6478 23.1092 17.7711 22.978C17.8983 22.8468 17.9918 22.7016 18.0514 22.5426C18.115 22.3795 18.1469 22.2165 18.1469 22.0534C18.1469 21.8467 18.125 21.6598 18.0812 21.4927C18.0375 21.3217 17.946 21.1766 17.8069 21.0573C17.6677 20.938 17.4669 20.8445 17.2044 20.7769C16.9459 20.7093 16.598 20.6755 16.1605 20.6755V19.6257C16.5224 19.6217 16.8226 19.5879 17.0612 19.5243C17.2998 19.4607 17.4887 19.3732 17.6279 19.2619C17.7711 19.1465 17.8705 19.0093 17.9262 18.8503C17.9818 18.6912 18.0097 18.5162 18.0097 18.3254C18.0097 17.9198 17.8963 17.6116 17.6697 17.4008C17.443 17.19 17.1408 17.0847 16.763 17.0847C16.588 17.0847 16.427 17.1105 16.2798 17.1622C16.1327 17.2099 15.9995 17.2795 15.8802 17.371C15.7649 17.4585 15.6674 17.5619 15.5879 17.6812C15.5084 17.8005 15.4487 17.9317 15.409 18.0748C15.3414 18.2578 15.2519 18.379 15.1405 18.4387C15.0332 18.4983 14.8801 18.5123 14.6812 18.4805L13.9058 18.3433Z" fill="white"/>
<path d="M23.2955 19.071L22.9973 19.4408C23.1643 19.3573 23.3432 19.2937 23.5341 19.2499C23.729 19.2022 23.9377 19.1783 24.1604 19.1783C24.4865 19.1783 24.8026 19.232 25.1088 19.3394C25.419 19.4468 25.6914 19.6098 25.926 19.8285C26.1606 20.0433 26.3495 20.3117 26.4927 20.6338C26.6359 20.9559 26.7074 21.3317 26.7074 21.7612C26.7074 22.1628 26.6339 22.5406 26.4867 22.8945C26.3396 23.2444 26.1328 23.5506 25.8664 23.8131C25.5999 24.0755 25.2778 24.2823 24.9001 24.4334C24.5263 24.5845 24.1127 24.6601 23.6594 24.6601C23.1981 24.6601 22.7845 24.5865 22.4187 24.4394C22.0528 24.2923 21.7406 24.0875 21.4822 23.825C21.2237 23.5586 21.0249 23.2405 20.8857 22.8706C20.7505 22.4968 20.6829 22.0833 20.6829 21.6299C20.6829 21.2243 20.7644 20.8088 20.9274 20.3833C21.0944 19.9538 21.3509 19.5084 21.6969 19.0471L23.7548 16.2854C23.8264 16.1899 23.9298 16.1084 24.065 16.0408C24.2042 15.9732 24.3632 15.9394 24.5422 15.9394H25.8544L23.2955 19.071ZM23.6295 23.4552C23.8642 23.4552 24.0789 23.4154 24.2737 23.3359C24.4726 23.2564 24.6416 23.145 24.7808 23.0019C24.9239 22.8587 25.0353 22.6917 25.1148 22.5008C25.1943 22.306 25.2341 22.0952 25.2341 21.8685C25.2341 21.622 25.1963 21.4013 25.1208 21.2064C25.0452 21.0076 24.9378 20.8406 24.7987 20.7054C24.6595 20.5662 24.4925 20.4608 24.2976 20.3892C24.1028 20.3176 23.888 20.2819 23.6534 20.2819C23.4188 20.2819 23.206 20.3216 23.0152 20.4012C22.8243 20.4807 22.6612 20.592 22.526 20.7352C22.3908 20.8744 22.2854 21.0414 22.2099 21.2362C22.1343 21.4271 22.0966 21.6339 22.0966 21.8566C22.0966 22.0952 22.1284 22.3139 22.192 22.5127C22.2596 22.7076 22.357 22.8746 22.4843 23.0138C22.6155 23.153 22.7766 23.2623 22.9674 23.3419C23.1583 23.4174 23.379 23.4552 23.6295 23.4552Z" fill="white"/>
<path d="M33.7231 20.252C33.7231 21.0036 33.6416 21.6578 33.4785 22.2145C33.3195 22.7672 33.0968 23.2245 32.8105 23.5864C32.5281 23.9483 32.1921 24.2187 31.8024 24.3976C31.4167 24.5726 30.9991 24.6601 30.5498 24.6601C30.1004 24.6601 29.6829 24.5726 29.2971 24.3976C28.9154 24.2187 28.5833 23.9483 28.301 23.5864C28.0187 23.2245 27.798 22.7672 27.6389 22.2145C27.4798 21.6578 27.4003 21.0036 27.4003 20.252C27.4003 19.4965 27.4798 18.8423 27.6389 18.2896C27.798 17.7368 28.0187 17.2795 28.301 16.9176C28.5833 16.5558 28.9154 16.2874 29.2971 16.1124C29.6829 15.9334 30.1004 15.844 30.5498 15.844C30.9991 15.844 31.4167 15.9334 31.8024 16.1124C32.1921 16.2874 32.5281 16.5558 32.8105 16.9176C33.0968 17.2795 33.3195 17.7368 33.4785 18.2896C33.6416 18.8423 33.7231 19.4965 33.7231 20.252ZM32.202 20.252C32.202 19.6277 32.1563 19.1107 32.0649 18.7012C31.9734 18.2916 31.8501 17.9655 31.695 17.7229C31.5439 17.4803 31.3689 17.3113 31.1701 17.2159C30.9713 17.1165 30.7645 17.0668 30.5498 17.0668C30.339 17.0668 30.1342 17.1165 29.9354 17.2159C29.7405 17.3113 29.5675 17.4803 29.4164 17.7229C29.2653 17.9655 29.144 18.2916 29.0526 18.7012C28.9651 19.1107 28.9213 19.6277 28.9213 20.252C28.9213 20.8764 28.9651 21.3933 29.0526 21.8029C29.144 22.2125 29.2653 22.5386 29.4164 22.7812C29.5675 23.0237 29.7405 23.1947 29.9354 23.2941C30.1342 23.3896 30.339 23.4373 30.5498 23.4373C30.7645 23.4373 30.9713 23.3896 31.1701 23.2941C31.3689 23.1947 31.5439 23.0237 31.695 22.7812C31.8501 22.5386 31.9734 22.2125 32.0649 21.8029C32.1563 21.3933 32.202 20.8764 32.202 20.252Z" fill="white"/>
<path d="M34.4339 17.8661C34.4339 17.5837 34.4855 17.3193 34.5889 17.0727C34.6963 16.8222 34.8415 16.6055 35.0244 16.4226C35.2113 16.2396 35.43 16.0965 35.6805 15.9931C35.935 15.8857 36.2074 15.832 36.4977 15.832C36.788 15.832 37.0584 15.8857 37.3089 15.9931C37.5634 16.0965 37.7822 16.2396 37.9651 16.4226C38.152 16.6055 38.2991 16.8222 38.4065 17.0727C38.5139 17.3193 38.5675 17.5837 38.5675 17.8661C38.5675 18.1405 38.5139 18.4009 38.4065 18.6475C38.2991 18.894 38.152 19.1107 37.9651 19.2976C37.7822 19.4806 37.5634 19.6257 37.3089 19.7331C37.0584 19.8405 36.788 19.8941 36.4977 19.8941C36.2074 19.8941 35.935 19.8405 35.6805 19.7331C35.43 19.6257 35.2113 19.4806 35.0244 19.2976C34.8415 19.1107 34.6963 18.894 34.5889 18.6475C34.4855 18.4009 34.4339 18.1405 34.4339 17.8661ZM35.4598 17.878C35.4598 18.0251 35.4857 18.1623 35.5374 18.2896C35.5891 18.4168 35.6606 18.5282 35.7521 18.6236C35.8475 18.7151 35.9569 18.7886 36.0802 18.8443C36.2074 18.896 36.3466 18.9219 36.4977 18.9219C36.6448 18.9219 36.7801 18.896 36.9033 18.8443C37.0306 18.7886 37.1399 18.7151 37.2314 18.6236C37.3268 18.5282 37.4004 18.4168 37.4521 18.2896C37.5038 18.1623 37.5296 18.0251 37.5296 17.878C37.5296 17.7269 37.5038 17.5877 37.4521 17.4605C37.4004 17.3292 37.3268 17.2159 37.2314 17.1205C37.1399 17.025 37.0306 16.9495 36.9033 16.8938C36.7801 16.8381 36.6448 16.8103 36.4977 16.8103C36.3466 16.8103 36.2074 16.8381 36.0802 16.8938C35.9569 16.9495 35.8475 17.025 35.7521 17.1205C35.6606 17.2159 35.5891 17.3292 35.5374 17.4605C35.4857 17.5877 35.4598 17.7269 35.4598 17.878Z" fill="white"/>
<path fill-rule="evenodd" clip-rule="evenodd" d="M37.9809 32.3943C37.9067 32.3222 37.7664 32.2096 37.5066 32.0642C36.9198 31.7356 35.9966 31.4032 34.7593 31.1101C32.3024 30.5282 28.8513 30.1575 24.9997 30.1575C21.148 30.1575 17.697 30.5282 15.2401 31.1101C14.0028 31.4032 13.0795 31.7356 12.4927 32.0642C12.233 32.2096 12.0927 32.3222 12.0185 32.3943C12.0927 32.4664 12.233 32.579 12.4927 32.7245C13.0795 33.0531 14.0028 33.3855 15.2401 33.6785C17.697 34.2604 21.148 34.6312 24.9997 34.6312C25.1089 34.6312 25.2178 34.6309 25.3264 34.6303L23.1131 32.417L23.9039 31.6261L27.2818 35.004L23.9039 38.3819L23.1131 37.5911L24.9545 35.7496C17.1513 35.7438 10.833 34.2438 10.833 32.3943C10.833 30.5413 17.1756 29.0391 24.9997 29.0391C32.8237 29.0391 39.1663 30.5413 39.1663 32.3943C39.1663 33.8771 35.1051 35.1353 29.4734 35.5789V34.4569C31.5017 34.2935 33.3047 34.023 34.7593 33.6785C35.9966 33.3855 36.9198 33.0531 37.5066 32.7245C37.7664 32.579 37.9067 32.4664 37.9809 32.3943Z" fill="white"/>
</svg>
