<svg width="40" height="40" viewBox="0 0 40 40" fill="none" xmlns="http://www.w3.org/2000/svg">
<path fill-rule="evenodd" clip-rule="evenodd" d="M4 29.7126V8H36V29.7126H31.6041V31.1271H26.3958V29.7126H4ZM28.2708 29.2521H29.7291V27.0583C29.4927 27.1028 29.2492 27.1271 29 27.1271C28.7508 27.1271 28.5073 27.1028 28.2708 27.0583V29.2521ZM26.9375 23.1896C26.9375 24.3269 27.8627 25.2521 29 25.2521C30.1373 25.2521 31.0625 24.3269 31.0625 23.1896C31.0625 22.0524 30.1373 21.1271 29 21.1271C27.8627 21.1271 26.9375 22.0524 26.9375 23.1896ZM31.6041 27.8376H34.125V9.875H5.875V27.8376H26.3959V26.1393C25.5791 25.4173 25.0626 24.3629 25.0626 23.1896C25.0626 22.5494 25.2171 21.945 25.4894 21.4101H10.3334V19.5351H27.537C27.9896 19.3532 28.4831 19.2521 29 19.2521C31.1711 19.2521 32.9375 21.0185 32.9375 23.1896C32.9375 24.363 32.421 25.4174 31.6041 26.1394V27.8376ZM10.3331 15.7585H29.6663V17.6335H10.3331V15.7585ZM25 11.9817H15V13.8567H25V11.9817ZM10.3331 23.2523H15.6056V25.1273H10.3331V23.2523Z" fill="#DD2A1B"/>
</svg>
