<svg width="40" height="40" viewBox="0 0 40 40" fill="none" xmlns="http://www.w3.org/2000/svg">
<path fill-rule="evenodd" clip-rule="evenodd" d="M32.3097 10.6846V12.1194H35V30.8338H5V12.1194H7.69035V10.6846H9.49978V12.1194H11.3401L12.9582 9H27.0418L28.6599 12.1194H30.5002V10.6846H32.3097ZM27.5604 13.9288L25.942 10.8094H14.0577L12.4396 13.9288H6.80943V21.1847H11.3243C11.7785 16.7987 15.4959 13.3669 20.0001 13.3669C24.5041 13.3669 28.2217 16.7987 28.6757 21.1847H33.1906V13.9288H27.5604ZM11.3243 22.9941H6.80943V29.0243H14.7163C12.8536 27.6018 11.5783 25.4474 11.3243 22.9941ZM19.9999 15.1763C16.1881 15.1763 13.0871 18.2776 13.0871 22.0894C13.0871 25.9012 16.1881 29.0024 19.9999 29.0024C23.8117 29.0024 26.9129 25.9012 26.9129 22.0894C26.9129 18.2776 23.8117 15.1763 19.9999 15.1763ZM33.1906 22.9941H28.6757C28.4217 25.4474 27.1464 27.6018 25.2837 29.0243H33.1906V22.9941ZM19.9999 18.0655C22.2188 18.0655 24.024 19.8705 24.024 22.0894C24.024 24.3083 22.2188 26.1135 19.9999 26.1135C17.7812 26.1135 15.976 24.3083 15.976 22.0894C15.976 19.8705 17.7812 18.0655 19.9999 18.0655ZM19.9999 19.8749C18.7788 19.8749 17.7855 20.8683 17.7855 22.0894C17.7855 23.3105 18.7788 24.304 19.9999 24.304C21.221 24.304 22.2145 23.3105 22.2145 22.0894C22.2145 20.8683 21.221 19.8749 19.9999 19.8749Z" fill="#DD2A1B"/>
</svg>
