<svg width="40" height="40" viewBox="0 0 40 40" fill="none" xmlns="http://www.w3.org/2000/svg">
<path fill-rule="evenodd" clip-rule="evenodd" d="M30.4143 6.93058H32.0679C33.6846 6.93058 35 8.24598 35 9.86288V32.7735C35 34.3902 33.6848 35.7056 32.0679 35.7056H7.93206C6.3154 35.7056 5 34.3902 5 32.7735V9.86288C5 8.24598 6.3154 6.93058 7.93206 6.93058H9.58598V5.90661C9.58598 5.40598 9.99196 5 10.4926 5C10.9934 5 11.3994 5.40598 11.3994 5.90661V6.93058H13.181V5.90661C13.181 5.40598 13.587 5 14.0876 5C14.5885 5 14.9945 5.40598 14.9945 5.90661V6.93058H25.006V5.90661C25.006 5.40598 25.412 5 25.9126 5C26.4135 5 26.8195 5.40598 26.8195 5.90661V6.93058H28.601V5.90661C28.601 5.40598 29.007 5 29.5077 5C30.0083 5 30.4143 5.40598 30.4143 5.90661V6.93058ZM32.0679 33.8924C32.6848 33.8924 33.1866 33.3904 33.1866 32.7735V14.4695H6.81321V32.7735C6.81321 33.3904 7.31524 33.8924 7.93206 33.8924H32.0679ZM7.93206 8.74403C7.31524 8.74403 6.81321 9.24582 6.81321 9.86288V12.656H33.1868V9.86288C33.1868 9.24582 32.6848 8.74403 32.0679 8.74403H30.4145V9.768C30.4145 10.2686 30.0085 10.6746 29.5077 10.6746C29.007 10.6746 28.601 10.2686 28.601 9.768V8.74403H26.8195V9.768C26.8195 10.2686 26.4135 10.6746 25.9129 10.6746C25.412 10.6746 25.006 10.2686 25.006 9.768V8.74403H14.9945V9.768C14.9945 10.2686 14.5885 10.6746 14.0878 10.6746C13.587 10.6746 13.181 10.2686 13.181 9.768V8.74403H11.3994V9.768C11.3994 10.2686 10.9934 10.6746 10.4928 10.6746C9.99196 10.6746 9.58598 10.2686 9.58598 9.768V8.74403H7.93206ZM20.0002 31.3783C23.9689 31.3783 27.1976 28.1494 27.1976 24.1807C27.1976 20.212 23.9689 16.9834 20.0002 16.9834C16.0313 16.9834 12.8027 20.212 12.8027 24.1807C12.8027 28.1494 16.0315 31.3783 20.0002 31.3783ZM20.0002 18.7966C22.9691 18.7966 25.3844 21.2119 25.3844 24.1807C25.3844 27.1495 22.9691 29.565 20.0002 29.565C17.0314 29.565 14.6159 27.1495 14.6159 24.1807C14.6159 21.2119 17.0314 18.7966 20.0002 18.7966ZM18.653 26.4405C18.8231 26.6103 19.0536 26.7059 19.2942 26.7059C19.5345 26.7059 19.765 26.6106 19.9351 26.4405L23.172 23.2036C23.5262 22.8494 23.5262 22.2755 23.172 21.9213C22.818 21.5673 22.2438 21.5673 21.8898 21.9213L19.2942 24.5169L18.1107 23.3334C17.7564 22.9794 17.1825 22.9794 16.8283 23.3334C16.4743 23.6874 16.4743 24.2616 16.8283 24.6158L18.653 26.4405Z" fill="#DD2A1B"/>
</svg>
