<svg width="48" height="60" viewBox="0 0 48 60" fill="none" xmlns="http://www.w3.org/2000/svg">
<g filter="url(#filter0_d)">
<path d="M24 5C13.5234 5 5 13.6077 5 24.188C5 28.6713 6.53042 32.7999 9.09124 36.07L24 55L38.9088 36.07C41.4696 32.7999 43 28.6713 43 24.188C43 13.6077 34.4766 5 24 5Z" fill="white"/>
<path fill-rule="evenodd" clip-rule="evenodd" d="M29.683 33L30.7418 29.821H24.7189C23.8195 29.821 23.0566 29.7869 22.3963 29.6957C21.7359 29.6046 21.2008 29.4678 20.7795 29.2513C20.3469 29.0349 20.0281 28.75 19.8345 28.374C19.641 28.0094 19.5613 27.5536 19.6068 27.0067C19.6182 26.813 19.6524 26.6193 19.6865 26.4256C19.7207 26.2433 19.7662 26.0496 19.8232 25.8673L19.8345 25.8217H31.425L32.4041 22.882H20.8251L20.8706 22.7909C21.1439 22.1528 21.4399 21.5945 21.8384 21.1046C22.2369 20.6146 22.7265 20.2158 23.364 19.9082C23.9219 19.6461 24.5823 19.4638 25.3679 19.3385C26.1535 19.2245 27.0529 19.1789 28.1232 19.1789H33.9411L35 16H26.6431C24.8442 16 23.3982 16.1709 22.1913 16.5013C20.9845 16.8318 20.0167 17.3331 19.197 18.0054C18.3658 18.6776 17.7055 19.5094 17.1476 20.5121C16.5783 21.5147 16.1115 22.6997 15.6788 24.0442C15.5081 24.5684 15.3601 25.1039 15.2462 25.6394C15.1437 26.1407 15.064 26.6535 15.0299 27.1662C14.9616 28.0663 15.0071 28.8753 15.2007 29.5932C15.3828 30.2996 15.713 30.9149 16.2254 31.4162C16.7263 31.9176 17.3867 32.3164 18.252 32.5784C19.1173 32.8519 20.1989 32.9886 21.5538 32.9886H29.683V33Z" fill="#EC6502"/>
</g>
<defs>
<filter id="filter0_d" x="0" y="0" width="48" height="60" filterUnits="userSpaceOnUse" color-interpolation-filters="sRGB">
<feFlood flood-opacity="0" result="BackgroundImageFix"/>
<feColorMatrix in="SourceAlpha" type="matrix" values="0 0 0 0 0 0 0 0 0 0 0 0 0 0 0 0 0 0 127 0"/>
<feOffset/>
<feGaussianBlur stdDeviation="2.5"/>
<feColorMatrix type="matrix" values="0 0 0 0 0 0 0 0 0 0 0 0 0 0 0 0 0 0 0.55 0"/>
<feBlend mode="normal" in2="BackgroundImageFix" result="effect1_dropShadow"/>
<feBlend mode="normal" in="SourceGraphic" in2="effect1_dropShadow" result="shape"/>
</filter>
</defs>
</svg>
