<svg width="48" height="60" viewBox="0 0 48 60" fill="none" xmlns="http://www.w3.org/2000/svg">
<g filter="url(#filter0_d)">
<path d="M24 5C13.5234 5 5 13.6077 5 24.188C5 28.6713 6.53042 32.7999 9.09124 36.07L24 55L38.9088 36.07C41.4696 32.7999 43 28.6713 43 24.188C43 13.6077 34.4766 5 24 5Z" fill="white"/>
<path fill-rule="evenodd" clip-rule="evenodd" d="M24.0002 17C15.716 17 9 20.3206 9 24.4154C9 28.5106 15.716 31.8315 24.0002 31.8315C32.2837 31.8315 39 28.5109 39 24.4154C38.9997 20.3209 32.2834 17 24.0002 17ZM22.577 18.6505C24.2891 18.0443 29.3757 18.6505 31.3514 19.6007C31.9838 20.208 28.532 22.1592 24.422 23.0049C18.5458 24.1916 21.3385 19.6531 22.577 18.6505ZM12.4857 27.4371C11.194 26.5148 8.66466 23.8754 12.8546 21.1315C15.0679 19.8389 16.3061 19.5477 17.8341 19.2316C18.5723 19.0726 19.0991 19.2578 18.4403 19.8121C17.044 21.2634 14.1454 26.0647 13.8823 27.1209C13.671 27.8339 13.2497 28.0176 12.4857 27.4371ZM24.5528 30.4987C22.0764 30.7618 16.5698 29.9443 16.464 29.2328C16.5698 27.5166 25.2119 24.667 26.7661 26.2502C27.4255 27.4901 26.1608 30.4192 24.5528 30.4987ZM37.1482 25.5104C36.5153 26.962 34.3814 28.5987 29.9025 29.7071C29.2166 29.8643 28.9797 29.4427 29.4274 29.0468C30.1659 28.5984 33.7229 22.6355 34.1706 21.4474C34.4343 20.84 34.9346 21.0785 35.2512 21.3155C36.6743 22.2386 37.7544 23.7429 37.1482 25.5104Z" fill="#003469"/>
</g>
<defs>
<filter id="filter0_d" x="0" y="0" width="48" height="60" filterUnits="userSpaceOnUse" color-interpolation-filters="sRGB">
<feFlood flood-opacity="0" result="BackgroundImageFix"/>
<feColorMatrix in="SourceAlpha" type="matrix" values="0 0 0 0 0 0 0 0 0 0 0 0 0 0 0 0 0 0 127 0"/>
<feOffset/>
<feGaussianBlur stdDeviation="2.5"/>
<feColorMatrix type="matrix" values="0 0 0 0 0 0 0 0 0 0 0 0 0 0 0 0 0 0 0.55 0"/>
<feBlend mode="normal" in2="BackgroundImageFix" result="effect1_dropShadow"/>
<feBlend mode="normal" in="SourceGraphic" in2="effect1_dropShadow" result="shape"/>
</filter>
</defs>
</svg>
