<svg width="48" height="60" viewBox="0 0 48 60" fill="none" xmlns="http://www.w3.org/2000/svg">
<g filter="url(#filter0_d)">
<path d="M24 5C13.5234 5 5 13.6077 5 24.188C5 28.6713 6.53042 32.7999 9.09124 36.07L24 55L38.9088 36.07C41.4696 32.7999 43 28.6713 43 24.188C43 13.6077 34.4766 5 24 5Z" fill="white"/>
<path fill-rule="evenodd" clip-rule="evenodd" d="M30.6249 17.779C28.6257 17.28 26.3758 17 23.9981 17C23.9902 17 23.9824 17.0009 23.9742 17.0018C23.965 17.0029 23.9554 17.004 23.9447 17.004C21.7892 17.004 19.7323 17.2393 17.873 17.6572C12.6529 18.8339 9 21.4631 9 24.5021C9 27.5412 12.6529 30.1702 17.8729 31.3468C19.7322 31.7648 21.7889 32 23.9445 32H23.9979C26.3756 32 28.6256 31.7242 30.6247 31.2252C35.5816 29.9999 39 27.4438 39 24.5021C39.0003 21.5605 35.5819 19.0043 30.6249 17.779ZM30.6249 29.59C28.6546 30.0405 26.3962 30.2961 23.9981 30.2961C23.9902 30.2961 23.9824 30.2952 23.9742 30.2943C23.965 30.2932 23.9554 30.2921 23.9447 30.2921C21.7727 30.2921 19.7118 30.077 17.873 29.6997C13.2699 28.7543 10.0943 26.7784 10.0943 24.5022C10.0943 22.2261 13.2699 20.2501 17.873 19.3048C19.7118 18.9274 21.7727 18.7123 23.9447 18.7083H23.9981C26.3962 18.7083 28.6546 18.9639 30.6249 19.4142C34.9564 20.3961 37.9059 22.3112 37.9059 24.5021C37.9059 26.693 34.9564 28.6082 30.6249 29.59ZM18.799 24.3363L20.9463 21.2364C21.0286 21.1146 20.9298 20.9767 20.7571 20.9767L19.0994 20.9645C18.9759 20.9645 18.7291 21.1187 18.6222 21.2525L17.8736 22.2142L16.8329 23.5572L16.8411 21.2362C16.8411 21.0781 16.6724 20.9765 16.5696 20.9765H14.6689C14.5373 20.9765 14.418 21.0253 14.414 21.2646C14.4113 21.4192 14.5382 21.4932 14.6255 21.5442C14.6711 21.5709 14.706 21.5912 14.706 21.6135V27.8173C14.706 27.935 14.8705 28.1134 14.9858 28.1134L16.6147 28.1053C16.73 28.1012 16.8286 27.9389 16.8286 27.8293L16.8326 25.2448L17.8733 26.5147L18.9757 27.8537C19.0662 27.9592 19.243 28.1053 19.4282 28.1053L21.1971 28.0931C21.3658 28.0931 21.3493 27.8902 21.3082 27.8376C20.4673 26.6736 19.6309 25.5065 18.799 24.3363ZM24.9034 20.9769H23.0235C22.8015 20.9769 22.7521 21.1067 22.715 21.2446C22.7513 21.4668 22.9643 21.5465 23.0134 21.5649C23.0199 21.5673 23.0235 21.5687 23.0235 21.5692V27.8296C23.0235 27.996 23.1265 28.1056 23.2705 28.1056L23.9451 28.1015L24.9488 28.0935C25.1338 28.0935 25.183 27.984 25.183 27.8296V21.2364C25.183 21.0782 25.0474 20.9769 24.9034 20.9769ZM31.6122 20.9764C31.7522 20.9764 31.8593 21.1061 31.9208 21.2442L34.1917 27.8455C34.2204 27.9266 34.1133 28.1052 34.0228 28.1052L32.4679 28.093C32.3653 28.093 32.172 27.9429 32.1432 27.8496L30.7567 23.6543C30.7446 23.6137 30.6828 23.5934 30.6253 23.5934C30.5884 23.5934 30.5513 23.6097 30.5388 23.638C30.3153 24.3037 30.0878 24.9694 29.8601 25.6353L29.8272 25.7316L29.1197 27.8251C29.0661 27.9834 28.8809 28.0929 28.7494 28.0929L27.2562 28.1051C27.1246 28.1051 27.0301 27.9104 27.067 27.8049L29.2101 21.5688C29.2161 21.5535 29.1885 21.5436 29.1463 21.5286C29.0432 21.4919 28.8534 21.4244 28.8562 21.1711C28.8562 21.0495 28.9797 20.9764 29.0701 20.9764H31.6122Z" fill="#CC2229"/>
</g>
<defs>
<filter id="filter0_d" x="0" y="0" width="48" height="60" filterUnits="userSpaceOnUse" color-interpolation-filters="sRGB">
<feFlood flood-opacity="0" result="BackgroundImageFix"/>
<feColorMatrix in="SourceAlpha" type="matrix" values="0 0 0 0 0 0 0 0 0 0 0 0 0 0 0 0 0 0 127 0"/>
<feOffset/>
<feGaussianBlur stdDeviation="2.5"/>
<feColorMatrix type="matrix" values="0 0 0 0 0 0 0 0 0 0 0 0 0 0 0 0 0 0 0.55 0"/>
<feBlend mode="normal" in2="BackgroundImageFix" result="effect1_dropShadow"/>
<feBlend mode="normal" in="SourceGraphic" in2="effect1_dropShadow" result="shape"/>
</filter>
</defs>
</svg>
