<svg width="48" height="60" viewBox="0 0 48 60" fill="none" xmlns="http://www.w3.org/2000/svg">
<g filter="url(#filter0_d)">
<path d="M24 5C13.5234 5 5 13.6077 5 24.188C5 28.6713 6.53042 32.7999 9.09124 36.07L24 55L38.9088 36.07C41.4696 32.7999 43 28.6713 43 24.188C43 13.6077 34.4766 5 24 5Z" fill="white"/>
<path d="M36.7145 23.9989C36.7145 31.027 31.027 36.7145 23.9989 36.7145C16.9708 36.7145 11.2832 31.027 11.2832 23.9989C11.2832 16.9708 16.9708 11.2832 23.9989 11.2832C31.027 11.2832 36.7145 16.9708 36.7145 23.9989ZM23.9989 12.0551C17.377 12.0551 12.0551 17.377 12.0551 23.9989C12.0551 30.6208 17.4176 35.9426 23.9989 35.9426C30.6208 35.9426 35.9426 30.5801 35.9426 23.9989C35.9426 17.377 30.6208 12.0551 23.9989 12.0551Z" fill="url(#paint0_linear)"/>
<path d="M23.9985 12.0547C17.3766 12.0547 12.0547 17.3766 12.0547 23.9985C12.0547 30.6203 17.4172 35.9422 23.9985 35.9422C30.6203 35.9422 35.9422 30.5797 35.9422 23.9985C35.9422 17.3766 30.6203 12.0547 23.9985 12.0547ZM23.9985 35.1703C17.8235 35.1703 12.8266 30.1735 12.8266 23.9985C12.8266 17.8235 17.8235 12.8266 23.9985 12.8266C30.1735 12.8266 35.1703 17.8235 35.1703 23.9985C35.1703 30.1735 30.1735 35.1703 23.9985 35.1703Z" fill="url(#paint1_linear)"/>
<path opacity="0.4" d="M24 36.7157C31.0281 36.7157 36.7157 31.0281 36.7157 24C36.7157 16.9719 31.0281 11.2843 24 11.2843C16.9719 11.2843 11.2843 16.9719 11.2843 24C11.2843 31.0281 16.9719 36.7157 24 36.7157ZM24 11C31.15 11 37 16.85 37 24C37 31.15 31.15 37 24 37C16.85 37 11 31.15 11 24C11 16.85 16.85 11 24 11Z" fill="url(#paint2_linear)"/>
<path d="M11.8926 24.0395C11.8926 17.3769 17.2957 11.8926 23.9988 11.8926C30.7019 11.8926 36.105 17.3364 36.105 24.0395C36.105 30.702 30.7019 36.1051 23.9988 36.1051C17.2957 36.1051 11.8926 30.7019 11.8926 24.0395ZM15.6707 15.6707C13.5176 17.8238 12.1769 20.7895 12.1769 24.0395C12.1769 27.2895 13.5176 30.2551 15.63 32.3676C17.7831 34.4801 20.7488 35.8207 23.9988 35.8207C27.2488 35.8207 30.2145 34.5207 32.3269 32.3676C34.48 30.255 35.78 27.2895 35.78 24.0395C35.78 20.7895 34.4394 17.8238 32.3269 15.6707C30.2145 13.5176 27.2488 12.1769 23.9988 12.1769C20.7488 12.1769 17.7831 13.5176 15.6707 15.6707Z" fill="white"/>
<path opacity="0.4" d="M24.0015 35.2141C20.9953 35.2141 18.1922 34.036 16.0796 31.9234C13.9671 29.8108 12.7891 27.0077 12.7891 24.0015C12.7891 20.9953 13.9672 18.1922 16.0797 16.0796C18.1923 13.9671 20.9953 12.7891 24.0015 12.7891C27.0077 12.7891 29.8108 13.9672 31.9234 16.0797C34.036 18.1923 35.2141 20.9954 35.2141 24.0016C35.2141 27.0078 34.036 29.811 31.9234 31.9235C29.8108 34.0361 27.0077 35.2141 24.0015 35.2141ZM24.0015 34.8891C26.8858 34.8891 29.6484 33.7515 31.6796 31.7203C33.7515 29.6484 34.8484 26.9265 34.8484 24.0422C34.8484 21.1578 33.7108 18.3953 31.6796 16.3641C29.6077 14.2922 26.8858 13.1953 24.0015 13.1953C21.1172 13.1953 18.3546 14.3327 16.3234 16.3641C14.2515 18.3546 13.1141 21.1172 13.1141 24.0015C13.1141 26.8858 14.2516 29.6484 16.2828 31.6796C18.3546 33.7515 21.1172 34.8891 24.0015 34.8891Z" fill="url(#paint3_linear)"/>
<path d="M33.8731 29.2796C33.67 29.1171 25.8293 22.9015 25.8293 22.9015L24.0012 12.4609C23.8793 12.5016 23.7169 12.6235 23.6356 12.7859L22.3356 22.9422L14.2512 29.1577C14.2512 29.1577 14.0887 29.3608 14.0075 29.4827C13.9668 29.5639 13.9668 29.6858 13.9668 29.8077L23.9606 25.7046L33.9543 29.8077C34.0356 29.6046 33.9543 29.4015 33.8731 29.2796Z" fill="white"/>
<path d="M24.0812 24.325L24 26.1938L33.1812 29.8907C33.5062 30.0532 33.75 29.9719 33.9938 29.8094L24.2031 24.2844C24.1626 24.2438 24.0812 24.2843 24.0812 24.325Z" fill="#565F64"/>
<path d="M24.0801 24.325C24.0801 24.325 24.6082 25.2594 25.2176 25.9094C26.0707 26.8437 27.2083 27.4937 27.2083 27.4937L33.1802 29.8906C33.5052 30.0532 33.749 29.9718 33.9927 29.8094L24.2021 24.2844C24.1614 24.2438 24.0801 24.2844 24.0801 24.325Z" fill="url(#paint4_linear)"/>
<path d="M33.9547 29.4453C33.9547 29.4047 33.9141 29.3641 33.8735 29.2828L25.5047 23.1484L24.3672 23.8797C24.3672 23.8797 24.4484 23.9203 24.4891 23.8797C24.611 23.839 24.8547 23.7984 25.0984 23.8797C25.3016 23.9609 33.9547 29.4859 33.9547 29.4453C33.9547 29.4859 33.9547 29.4859 33.9547 29.4453Z" fill="#A4AAAE" fill-opacity="0.6"/>
<path d="M33.6676 29.0793L25.8676 22.9043L25.502 23.1481L33.8707 29.3231C33.8301 29.2418 33.7488 29.1605 33.6676 29.0793Z" fill="#333E46"/>
<path d="M24.2048 23.7144L24.1642 23.7551C24.1642 23.7551 24.1642 23.8363 24.2454 23.7957C24.286 23.7551 25.4642 23.1457 25.8704 22.902L24.4485 13.152C24.4078 12.7863 24.2454 12.6238 23.9609 12.502L24.1235 23.7957L24.2048 23.7144Z" fill="#565F64"/>
<path d="M23.5141 13.1521V13.6802L22.6204 22.6583C22.6204 22.7802 22.661 22.9021 22.7828 22.9833L23.3109 23.3895L23.6766 13.477L23.7172 12.7051C23.5954 12.7865 23.5547 12.949 23.5141 13.1521ZM23.0266 23.5521L22.539 23.1458L14.2921 29.1177C14.2921 29.1177 14.0484 29.2803 14.0078 29.4427L14.2921 29.2802L22.9453 23.8364C23.1078 23.7552 23.1485 23.674 23.0266 23.5521Z" fill="#A4AAAE" fill-opacity="0.6"/>
<path d="M23.8792 24.325C23.8792 24.2844 23.8386 24.2438 23.798 24.2844L13.9668 29.85C14.2106 30.0126 14.4543 30.0532 14.7793 29.9313L23.9606 26.2344L23.8792 24.325Z" fill="#565F64"/>
<path d="M24.1641 23.7578L24.2047 23.7172L24.1641 23.7578C24.1641 23.7578 24.1641 23.7985 24.2047 23.7985H24.2454C24.2861 23.7578 25.4642 23.1485 25.8704 22.9047L25.7078 21.7266L24.4485 13.1547C24.4485 12.9922 24.4078 12.8704 24.3266 12.7891C24.3266 12.7891 24.936 20.9953 24.936 21.8891C24.9358 23.0673 24.164 23.7578 24.1641 23.7578Z" fill="url(#paint5_linear)"/>
<path d="M23.8792 24.325C23.8792 24.2844 23.8386 24.2438 23.798 24.2844L13.9668 29.85C14.2106 30.0126 14.4543 30.0532 14.7793 29.9313L23.9606 26.2344L23.8792 24.325Z" fill="url(#paint6_linear)" fill-opacity="0.8"/>
<path opacity="0.8" d="M14.7771 29.8907L23.9583 26.1938L23.8771 24.4062C23.7145 24.8938 23.4302 25.4219 22.6583 25.8281C22.0895 26.1531 16.6457 28.8344 14.6957 29.7688C14.5739 29.85 14.4114 29.8907 14.3301 29.9314C14.4927 30.0126 14.6146 29.9719 14.7771 29.8907Z" fill="url(#paint7_linear)"/>
<path d="M24.2048 23.7144L24.1642 23.7551C24.1642 23.7551 24.1642 23.8363 24.2454 23.7957C24.286 23.7551 25.4642 23.1457 25.8704 22.902L24.4485 13.152C24.4078 12.7863 24.2454 12.6238 23.9609 12.502L24.1235 23.7957L24.2048 23.7144Z" fill="url(#paint8_linear)"/>
<path d="M24.2048 23.7144L24.1642 23.7551C24.1642 23.7551 24.1642 23.8363 24.2454 23.7957C24.286 23.7551 25.4642 23.1457 25.8704 22.902L24.4485 13.152C24.4078 12.7863 24.2454 12.6238 23.9609 12.502L24.1235 23.7957L24.2048 23.7144Z" fill="url(#paint9_linear)"/>
<path d="M13.0709 29.0376C12.7865 28.3876 11.1615 25.2188 12.949 19.125H12.2583C11.8926 20.3438 11.6083 21.075 11.4458 22.1719C11.4458 22.1719 11.3645 22.5781 11.3239 23.025C11.2832 23.4719 11.2832 23.7157 11.2832 24C11.2832 26.4376 11.8925 27.8593 11.8925 27.8593C12.5425 29.8906 13.6801 31.7187 15.2238 33.1C16.5644 34.2781 18.6363 35.1719 20.3425 35.4969C20.0583 35.4562 15.1833 33.3843 13.0709 29.0376Z" fill="url(#paint10_linear)"/>
<path d="M24.1625 24.2454H23.7969C23.8375 24.2454 23.8781 24.2454 23.8781 24.286L23.9593 26.1548H24L24.0812 24.286C24.0812 24.2454 24.1219 24.2047 24.1625 24.2454Z" fill="url(#paint11_linear)"/>
<path d="M28.0624 11.9355C32.3281 13.5605 36.35 18.0293 36.35 23.6762C36.35 30.5012 30.9062 36.0669 24 36.0669V36.7169C30.9062 36.7169 36.7157 31.0293 36.7157 24.0012C36.7156 18.395 33.1406 13.6824 28.0624 11.9355Z" fill="url(#paint12_linear)"/>
<path d="M34.8876 19.2047C32.0439 12.6641 25.6251 12.2985 25.2594 12.2578H25.2188C30.1344 13.1516 33.2625 16.3609 34.3594 19.7328V19.7735C34.847 21.0735 35.0906 22.4547 35.1313 23.9578C35.172 25.3797 34.847 26.964 34.2375 28.4266C34.1969 28.6297 34.1563 28.8735 34.1156 28.8735H34.7656C36.7157 25.2173 35.8626 21.5204 34.8876 19.2047Z" fill="url(#paint13_linear)"/>
<path d="M11.8926 24.0395C11.8926 17.3769 17.2957 11.8926 23.9988 11.8926C30.7019 11.8926 36.105 17.3364 36.105 24.0395C36.105 30.702 30.7019 36.1051 23.9988 36.1051C17.2957 36.1051 11.8926 30.7019 11.8926 24.0395ZM15.6707 15.6707C13.5176 17.8238 12.1769 20.7895 12.1769 24.0395C12.1769 27.2895 13.5176 30.2551 15.63 32.3676C17.7831 34.4801 20.7488 35.8207 23.9988 35.8207C27.2488 35.8207 30.2145 34.5207 32.3269 32.3676C34.48 30.255 35.78 27.2895 35.78 24.0395C35.78 20.7895 34.4394 17.8238 32.3269 15.6707C30.2145 13.5176 27.2488 12.1769 23.9988 12.1769C20.7488 12.1769 17.7831 13.5176 15.6707 15.6707Z" fill="#FBFBFB"/>
<path d="M14.2109 29.2016L22.4985 23.2297C22.9454 23.4735 23.6766 23.7985 23.7578 23.7985C23.8391 23.8392 23.8391 23.7578 23.8391 23.7578L22.8234 22.9047C22.7015 22.8235 22.6608 22.7016 22.6608 22.5797L23.6358 12.7891C23.5952 12.8297 23.5952 12.911 23.5546 12.9516C23.5139 13.0328 23.5139 13.0735 23.5139 13.1547L22.0921 22.9454L14.2921 29.0797C14.2516 29.1204 14.2109 29.161 14.2109 29.2016Z" fill="#333F47"/>
</g>
<defs>
<filter id="filter0_d" x="0" y="0" width="48" height="60" filterUnits="userSpaceOnUse" color-interpolation-filters="sRGB">
<feFlood flood-opacity="0" result="BackgroundImageFix"/>
<feColorMatrix in="SourceAlpha" type="matrix" values="0 0 0 0 0 0 0 0 0 0 0 0 0 0 0 0 0 0 127 0"/>
<feOffset/>
<feGaussianBlur stdDeviation="2.5"/>
<feColorMatrix type="matrix" values="0 0 0 0 0 0 0 0 0 0 0 0 0 0 0 0 0 0 0.55 0"/>
<feBlend mode="normal" in2="BackgroundImageFix" result="effect1_dropShadow"/>
<feBlend mode="normal" in="SourceGraphic" in2="effect1_dropShadow" result="shape"/>
</filter>
<linearGradient id="paint0_linear" x1="14.2481" y1="15.8325" x2="33.7496" y2="32.1653" gradientUnits="userSpaceOnUse">
<stop stop-color="white"/>
<stop offset="0.1" stop-color="#CDD0D0"/>
<stop offset="0.2" stop-color="#A5ACAF"/>
<stop offset="0.3" stop-color="#98A0A4"/>
<stop offset="0.4" stop-color="#828A8F"/>
<stop offset="0.5" stop-color="#667075"/>
<stop offset="0.6" stop-color="#535C63"/>
<stop offset="0.7" stop-color="#475158"/>
<stop offset="0.8" stop-color="#434D54"/>
<stop offset="1" stop-color="#475157"/>
</linearGradient>
<linearGradient id="paint1_linear" x1="14.8463" y1="16.3036" x2="33.1275" y2="31.6598" gradientUnits="userSpaceOnUse">
<stop stop-color="#0B1F2A"/>
<stop offset="0.2" stop-color="#333F47"/>
<stop offset="0.5" stop-color="#81898D"/>
<stop offset="0.7" stop-color="#B3B8B8"/>
<stop offset="0.8" stop-color="#DEE0DD"/>
<stop offset="1" stop-color="#FBFBFB"/>
</linearGradient>
<linearGradient id="paint2_linear" x1="28.4432" y1="36.2133" x2="19.5462" y2="11.7575" gradientUnits="userSpaceOnUse">
<stop stop-color="#E1E3E1"/>
<stop offset="0.1" stop-color="#C1C5C4"/>
<stop offset="0.3" stop-color="#9BA1A2"/>
<stop offset="0.5" stop-color="#7D8487"/>
<stop offset="0.7" stop-color="#687074" stop-opacity="0"/>
<stop offset="0.8" stop-color="#5B6469" stop-opacity="0"/>
<stop offset="1" stop-color="#576065" stop-opacity="0"/>
</linearGradient>
<linearGradient id="paint3_linear" x1="18.3957" y1="14.2925" x2="29.6074" y2="33.7105" gradientUnits="userSpaceOnUse">
<stop stop-color="#E1E3E1"/>
<stop offset="0.1" stop-color="#C1C5C4"/>
<stop offset="0.3" stop-color="#9BA1A2"/>
<stop offset="0.5" stop-color="#7D8487"/>
<stop offset="0.7" stop-color="#687074" stop-opacity="0"/>
<stop offset="0.8" stop-color="#5B6469" stop-opacity="0"/>
<stop offset="1" stop-color="#576065" stop-opacity="0"/>
</linearGradient>
<linearGradient id="paint4_linear" x1="29.0721" y1="27.0034" x2="28.3815" y2="28.141" gradientUnits="userSpaceOnUse">
<stop stop-color="#27343C"/>
<stop offset="1" stop-color="#00111E" stop-opacity="0"/>
</linearGradient>
<linearGradient id="paint5_linear" x1="27.0809" y1="22.8284" x2="25.9434" y2="21.0002" gradientUnits="userSpaceOnUse">
<stop offset="0.1" stop-color="#02131F"/>
<stop offset="0.9" stop-color="#02131F" stop-opacity="0"/>
</linearGradient>
<linearGradient id="paint6_linear" x1="23.9938" y1="25.7616" x2="22.2876" y2="26.2491" gradientUnits="userSpaceOnUse">
<stop offset="0.2" stop-color="#02131F"/>
<stop offset="0.9" stop-color="#02131F" stop-opacity="0"/>
</linearGradient>
<linearGradient id="paint7_linear" x1="19.4455" y1="28.0234" x2="19.2018" y2="27.4141" gradientUnits="userSpaceOnUse">
<stop stop-color="#02131F"/>
<stop offset="0.1" stop-color="#02131F"/>
<stop offset="1" stop-color="#02131F" stop-opacity="0"/>
</linearGradient>
<linearGradient id="paint8_linear" x1="25.4651" y1="17.992" x2="24.0838" y2="18.1546" gradientUnits="userSpaceOnUse">
<stop offset="0.3" stop-color="#02131F"/>
<stop offset="0.8" stop-color="#02131F" stop-opacity="0"/>
</linearGradient>
<linearGradient id="paint9_linear" x1="25.5081" y1="17.9689" x2="24.5733" y2="18.0908" gradientUnits="userSpaceOnUse">
<stop offset="0.4" stop-color="#27343C"/>
<stop offset="1" stop-color="#3B474E" stop-opacity="0"/>
</linearGradient>
<linearGradient id="paint10_linear" x1="10.8526" y1="24.3378" x2="22.187" y2="30.8785" gradientUnits="userSpaceOnUse">
<stop stop-color="#25323B" stop-opacity="0"/>
<stop offset="0.1" stop-color="#27343C"/>
</linearGradient>
<linearGradient id="paint11_linear" x1="23.9797" y1="26.1953" x2="23.9797" y2="24.2453" gradientUnits="userSpaceOnUse">
<stop offset="0.3" stop-color="#A5ABAF"/>
<stop offset="1" stop-color="#A5ABAF" stop-opacity="0"/>
</linearGradient>
<linearGradient id="paint12_linear" x1="30.3577" y1="11.9356" x2="30.3577" y2="36.7168" gradientUnits="userSpaceOnUse">
<stop stop-color="#6B7378"/>
<stop offset="0.2" stop-color="#333F47"/>
<stop offset="0.5" stop-color="#27343C"/>
<stop offset="0.8" stop-color="#333F47"/>
<stop offset="1" stop-color="#434D54"/>
</linearGradient>
<linearGradient id="paint13_linear" x1="34.2737" y1="14.2863" x2="28.7893" y2="22.33" gradientUnits="userSpaceOnUse">
<stop offset="0.7" stop-color="#49545B"/>
<stop offset="0.8" stop-color="white" stop-opacity="0"/>
</linearGradient>
</defs>
</svg>
