<svg width="48" height="60" viewBox="0 0 48 60" fill="none" xmlns="http://www.w3.org/2000/svg">
<g filter="url(#filter0_d)">
<path d="M24 5C13.5234 5 5 13.6077 5 24.188C5 28.6713 6.53042 32.7999 9.09124 36.07L24 55L38.9088 36.07C41.4696 32.7999 43 28.6713 43 24.188C43 13.6077 34.4766 5 24 5Z" fill="white"/>
<path d="M23.9985 11L28.4396 18.3865L23.9985 25.7729L19.5573 18.4396L23.9985 11ZM23.9985 25.7729H32.6642L36.997 33H28.3313L23.9985 25.7729ZM23.9985 25.7729H15.3328L11 33H19.6657L23.9985 25.7729Z" fill="#E60012"/>
</g>
<defs>
<filter id="filter0_d" x="0" y="0" width="48" height="60" filterUnits="userSpaceOnUse" color-interpolation-filters="sRGB">
<feFlood flood-opacity="0" result="BackgroundImageFix"/>
<feColorMatrix in="SourceAlpha" type="matrix" values="0 0 0 0 0 0 0 0 0 0 0 0 0 0 0 0 0 0 127 0"/>
<feOffset/>
<feGaussianBlur stdDeviation="2.5"/>
<feColorMatrix type="matrix" values="0 0 0 0 0 0 0 0 0 0 0 0 0 0 0 0 0 0 0.55 0"/>
<feBlend mode="normal" in2="BackgroundImageFix" result="effect1_dropShadow"/>
<feBlend mode="normal" in="SourceGraphic" in2="effect1_dropShadow" result="shape"/>
</filter>
</defs>
</svg>
