<svg width="48" height="60" viewBox="0 0 48 60" fill="none" xmlns="http://www.w3.org/2000/svg">
<g filter="url(#filter0_d)">
<path d="M24 5C13.5234 5 5 13.6077 5 24.188C5 28.6713 6.53042 32.7999 9.09124 36.07L24 55L38.9088 36.07C41.4696 32.7999 43 28.6713 43 24.188C43 13.6077 34.4766 5 24 5Z" fill="white"/>
<path d="M37.9679 20.4519C37.6907 20.3745 37.382 20.3379 36.7317 20.2577C34.0404 20.1473 27.3894 19.8887 24.0002 19.8887C20.6111 19.8887 13.9599 20.1471 11.2689 20.2577C10.6184 20.3379 10.3094 20.3745 10.0323 20.4519C9.18615 20.6514 9 20.9552 9 21.5612V25.7145C9 26.3206 9.64935 26.7291 10.097 26.8114C10.5448 26.8944 10.8282 26.9275 11.2994 26.9724C13.7064 27.1215 19.2909 27.4323 24 27.4372C28.7093 27.4327 34.2935 27.1216 36.7007 26.9724C37.1717 26.9275 37.4552 26.8942 37.9032 26.8114C38.3507 26.7289 39 26.3206 39 25.7145V21.5612C39 20.9552 38.814 20.6514 37.9679 20.4519Z" fill="url(#paint0_linear)"/>
<path d="M13.2084 20.6105C14.5326 16.004 18.8837 12.624 24.0486 12.624C29.1987 12.624 33.5409 15.9854 34.878 20.5734C34.8822 20.5896 34.8851 20.598 34.8897 20.6136C35.6574 20.5274 36.3452 20.3942 36.8312 20.2644C36.8223 20.2349 36.8201 20.2289 36.8124 20.1998C35.2928 14.7345 30.1541 10.7129 24.0486 10.7129C17.9226 10.7129 12.7704 14.7606 11.2695 20.2529C11.9447 20.4378 12.4392 20.5154 13.2084 20.6105Z" fill="url(#paint1_radial)"/>
<path d="M34.8449 26.6484C34.8316 26.6894 34.8167 26.7345 34.8098 26.7569C33.4018 31.2347 29.1163 34.4915 24.0473 34.4915C18.9383 34.4915 14.6258 31.1844 13.252 26.6528C12.4123 26.8014 12.1286 26.858 11.2988 26.9684C12.8363 32.4069 17.9609 36.4026 24.0473 36.4026C30.1363 36.4026 35.2627 32.4027 36.7973 26.9597C36.0662 26.8694 35.6356 26.8011 34.8449 26.6484Z" fill="url(#paint2_radial)"/>
<path d="M13.4805 20.6013C13.7992 20.4696 14.1076 20.2596 14.5884 20.1244C16.0216 16.4007 19.7167 13.749 24.0502 13.749C28.3702 13.749 32.0562 16.3843 33.4984 20.0901C33.5035 20.1027 33.5088 20.118 33.5128 20.1274C33.7609 20.2134 34.4919 20.5098 34.7193 20.6089C34.7515 20.6097 34.8204 20.6121 34.8915 20.614C34.8873 20.6007 34.8834 20.5873 34.8798 20.5738C33.5421 15.9873 29.2 12.627 24.0502 12.627C18.8866 12.627 14.5356 16.0054 13.2109 20.611C13.2874 20.6112 13.4331 20.6046 13.4805 20.6013Z" fill="url(#paint3_radial)"/>
<path d="M23.9666 12.9382C28.7985 12.9382 33.0818 15.8194 34.7042 20.5686L34.7174 20.6089C34.7426 20.6089 34.8346 20.6122 34.8896 20.614C34.8853 20.5968 34.8808 20.5867 34.8779 20.5738C33.5402 15.9873 29.1981 12.627 24.0483 12.627C18.8847 12.627 14.5336 16.0054 13.209 20.611C13.3122 20.6094 13.3618 20.6094 13.4788 20.6011C14.9293 16.0924 19.1702 12.9382 23.9666 12.9382Z" fill="white"/>
<path d="M34.5736 26.6613C34.2265 26.8553 33.7944 27.0419 33.4489 27.1509C33.4443 27.162 33.4246 27.2112 33.4204 27.2228C31.9261 30.8261 28.2936 33.3696 24.0498 33.3696C19.7793 33.3696 16.1282 30.7952 14.6513 27.1562C14.254 27.0459 13.66 26.775 13.4351 26.6619C13.351 26.6579 13.3057 26.6555 13.2539 26.6528C14.6278 31.1838 18.941 34.4914 24.05 34.4914C29.1358 34.4914 33.4324 31.2141 34.8264 26.715C34.8294 26.7063 34.8448 26.6568 34.8481 26.6484C34.7676 26.6516 34.6444 26.6613 34.5736 26.6613Z" fill="url(#paint4_radial)"/>
<path d="M37.7274 20.7434C37.0146 20.6567 36.5286 20.666 34.7922 20.6061C34.7133 20.6033 34.6331 20.6009 34.5516 20.598C31.4031 20.49 26.6736 20.3457 24 20.3457C21.3266 20.3457 16.5972 20.49 13.4482 20.598C13.367 20.6009 13.287 20.6033 13.2083 20.6061C11.4716 20.666 10.9857 20.6567 10.2728 20.7434C9.55995 20.8308 9 21.143 9 21.6738V25.5254C9 26.0565 9.67455 26.4866 10.2726 26.4866C10.2726 26.4866 17.8845 26.9565 24 26.9621C30.1157 26.9565 37.7274 26.4866 37.7274 26.4866C38.3255 26.4866 39 26.0565 39 25.5254V21.6738C39 21.143 38.4402 20.8308 37.7274 20.7434Z" fill="url(#paint5_radial)"/>
<path d="M34.5748 26.6619C33.081 31.0934 28.8798 34.1804 24.1342 34.1804C19.3403 34.1804 15.0866 31.3445 13.4357 26.6619C13.3751 26.6588 13.3151 26.6564 13.2559 26.6529C14.6294 31.1841 18.9434 34.4918 24.0526 34.4918C29.1634 34.4918 33.4779 31.182 34.8502 26.6484C34.7599 26.6526 34.6683 26.6576 34.5748 26.6619Z" fill="white"/>
<path d="M34.5778 26.6582L34.5687 26.6585C34.2216 26.8525 33.7897 27.0391 33.444 27.1481C33.4393 27.1592 33.4197 27.2084 33.4156 27.22C32.9428 28.3603 32.2558 29.3944 31.4023 30.2757C32.7382 29.299 33.8278 28.0651 34.5778 26.6582Z" fill="#8C8C8C"/>
<path d="M16.9812 30.5639C15.9765 29.6069 15.1767 28.4484 14.6517 27.1547C14.2544 27.0443 13.6605 26.7733 13.4355 26.6602C13.676 27.1586 13.9595 27.6351 14.2827 28.0842C14.9441 28.9455 15.7457 29.7132 16.6581 30.3629C16.7643 30.4325 16.872 30.4994 16.9812 30.5639Z" fill="#4D4D4D"/>
<path d="M13.2518 26.6526V26.6523L13.2484 26.6529C12.4114 26.8013 12.1274 26.8582 11.2988 26.968C11.3656 27.205 11.4395 27.4385 11.5201 27.6697L13.2518 26.6526Z" fill="#252525"/>
<path d="M30.0921 22.4558C29.8419 21.8966 29.9307 21.9553 29.386 21.9409C29.3418 21.9259 29.2237 21.9259 29.062 21.9259C28.9006 21.9259 28.8709 21.9259 28.7383 21.9409C28.2235 21.9409 28.3117 21.9115 28.1353 22.2793C28.1353 22.2793 27.2517 24.2656 26.8695 25.0895L26.8548 25.1189C26.7813 25.2658 26.8255 25.2658 26.943 25.2658H27.7378C27.7969 25.2658 27.826 25.237 27.8407 25.207C27.8407 25.207 27.9585 24.9568 28.1056 24.6038H30.048C30.1953 24.9424 30.2982 25.1923 30.2982 25.207C30.3129 25.2512 30.3571 25.2658 30.4011 25.2658H31.2252C31.3429 25.2658 31.3725 25.2812 31.3284 25.1776C31.1809 24.8246 30.2245 22.7644 30.0921 22.4558ZM28.3996 23.8976C28.6498 23.3092 28.9003 22.7354 28.9003 22.7206C28.9152 22.691 28.9446 22.6763 28.9885 22.6763C29.0034 22.6613 29.0478 22.6613 29.0917 22.6613C29.1213 22.6613 29.1651 22.6613 29.1799 22.6763C29.2092 22.6763 29.2392 22.691 29.2533 22.7353C29.3127 22.8968 29.5329 23.3974 29.7388 23.8976H28.3996ZM17.8048 21.8965C17.8783 21.8965 17.8932 21.9257 17.8932 21.9847V25.1339C17.8932 25.2071 17.8783 25.2371 17.7903 25.2371H17.025C16.9369 25.2371 16.9222 25.2221 16.9222 25.1339V21.9847C16.9222 21.9257 16.9369 21.8965 16.9956 21.8965H17.8048ZM16.1715 21.9257C16.2595 21.9257 16.2747 21.955 16.2747 22.0289V25.1633C16.2747 25.2518 16.2595 25.2665 16.1715 25.2665H15.2737C14.7442 25.2665 14.7 25.2665 14.5236 24.9725C14.1556 24.3988 13.0518 22.7065 13.0518 22.7065V25.1636C13.0518 25.2523 13.0371 25.2667 12.949 25.2667H12.2866C12.1984 25.2667 12.1836 25.2523 12.1836 25.1636V22.0289C12.1836 21.9553 12.1984 21.9257 12.2866 21.9257H13.0518C13.6257 21.9257 13.6992 21.9112 13.9056 22.2055C14.0673 22.4705 15.4063 24.5305 15.4063 24.5305V22.0289C15.4063 21.9553 15.421 21.9257 15.5095 21.9257H16.1715ZM35.8161 21.9257C35.9049 21.9257 35.9193 21.955 35.9193 22.0289V25.1633C35.9193 25.2518 35.9046 25.2665 35.8161 25.2665H34.9192C34.389 25.2665 34.3447 25.2665 34.1683 24.9725C33.8001 24.3983 32.6965 22.7062 32.6965 22.7062V25.1635C32.6965 25.252 32.6818 25.2664 32.5933 25.2664H31.9315C31.8433 25.2664 31.8282 25.252 31.8282 25.1635V22.0289C31.8282 21.9553 31.8435 21.9257 31.9315 21.9257H32.6965C33.2704 21.9257 33.3442 21.9112 33.5499 22.2055C33.7266 22.4705 35.0511 24.5305 35.0511 24.5305V22.0289C35.0511 21.9553 35.0659 21.9257 35.1543 21.9257H35.8161ZM21.1747 23.2064C21.7635 23.2651 22.1904 23.368 22.308 23.9273C22.308 23.9711 22.3228 24.1184 22.3228 24.2804C22.3228 24.3836 22.3228 24.5156 22.2933 24.6335C22.1905 25.1632 21.7929 25.2661 21.1752 25.2661H18.7026C18.6142 25.2661 18.5994 25.2517 18.5994 25.1632V24.6335C18.5994 24.545 18.6142 24.5303 18.7026 24.5303H21.2038C21.307 24.5303 21.3364 24.5011 21.351 24.4271V24.2947V24.2065C21.3361 24.1474 21.3216 24.0592 21.1893 24.0448C20.9095 24.0301 20.0857 23.9563 19.5262 23.8976C18.8052 23.824 18.6288 23.5153 18.5992 23.2502C18.5845 23.1617 18.5845 23.0441 18.5845 22.9411C18.5845 22.8527 18.5845 22.7204 18.5992 22.6172C18.7024 22.1461 19.0557 21.9257 19.6734 21.9257H22.0719C22.1605 21.9257 22.1901 21.9407 22.1901 22.0141V22.5587C22.1901 22.6318 22.1605 22.6615 22.0719 22.6468H19.7176C19.6146 22.6468 19.5706 22.6909 19.5556 22.7938V22.9262C19.5556 22.9999 19.5999 23.0588 19.7028 23.0731C19.983 23.1031 20.8509 23.1766 21.1747 23.2064ZM25.4271 23.2064C26.0163 23.2651 26.4427 23.368 26.5606 23.9273C26.5606 23.9711 26.5753 24.1184 26.5753 24.2804C26.5753 24.3836 26.5753 24.5156 26.5459 24.6335C26.4432 25.1632 26.046 25.2661 25.4277 25.2661H22.9552C22.8669 25.2661 22.852 25.2517 22.852 25.1632V24.6335C22.852 24.545 22.8669 24.5303 22.9552 24.5303H25.4569C25.5598 24.5303 25.5888 24.5011 25.6039 24.4271V24.2947V24.2065C25.5886 24.1474 25.5595 24.0592 25.4419 24.0448C25.1625 24.0301 24.3384 23.9563 23.7793 23.8976C23.058 23.824 22.8964 23.5153 22.852 23.2502C22.8373 23.1617 22.8373 23.0441 22.8373 22.9411C22.8373 22.8527 22.8373 22.7204 22.852 22.6172C22.9552 22.1461 23.3083 21.9257 23.9262 21.9257H26.3251C26.413 21.9257 26.4429 21.9407 26.4429 22.0141V22.5587C26.4429 22.6318 26.413 22.6615 26.3251 22.6468H23.9704C23.8675 22.6468 23.8236 22.6909 23.8086 22.7938V22.9262C23.8086 22.9999 23.8381 23.0588 23.956 23.0731C24.2356 23.1031 25.1035 23.1766 25.4271 23.2064Z" fill="url(#paint6_radial)"/>
</g>
<defs>
<filter id="filter0_d" x="0" y="0" width="48" height="60" filterUnits="userSpaceOnUse" color-interpolation-filters="sRGB">
<feFlood flood-opacity="0" result="BackgroundImageFix"/>
<feColorMatrix in="SourceAlpha" type="matrix" values="0 0 0 0 0 0 0 0 0 0 0 0 0 0 0 0 0 0 127 0"/>
<feOffset/>
<feGaussianBlur stdDeviation="2.5"/>
<feColorMatrix type="matrix" values="0 0 0 0 0 0 0 0 0 0 0 0 0 0 0 0 0 0 0.55 0"/>
<feBlend mode="normal" in2="BackgroundImageFix" result="effect1_dropShadow"/>
<feBlend mode="normal" in="SourceGraphic" in2="effect1_dropShadow" result="shape"/>
</filter>
<linearGradient id="paint0_linear" x1="24" y1="11.0969" x2="24" y2="32.007" gradientUnits="userSpaceOnUse">
<stop offset="0.194" stop-color="white"/>
<stop offset="0.208" stop-color="#F8F8F8"/>
<stop offset="0.366" stop-color="#AEAEAE"/>
<stop offset="0.513" stop-color="#707070"/>
<stop offset="0.647" stop-color="#404040"/>
<stop offset="0.764" stop-color="#1D1D1D"/>
<stop offset="0.86" stop-color="#080808"/>
<stop offset="0.922"/>
</linearGradient>
<radialGradient id="paint1_radial" cx="0" cy="0" r="1" gradientUnits="userSpaceOnUse" gradientTransform="translate(15.5795 5.54854) scale(20.9195)">
<stop offset="0.202" stop-color="white"/>
<stop offset="0.382" stop-color="#FDFDFD"/>
<stop offset="0.487" stop-color="#F4F4F4"/>
<stop offset="0.573" stop-color="#E6E6E6"/>
<stop offset="0.648" stop-color="#D2D2D2"/>
<stop offset="0.689" stop-color="#C4C4C4"/>
<stop offset="1" stop-color="#333333"/>
</radialGradient>
<radialGradient id="paint2_radial" cx="0" cy="0" r="1" gradientUnits="userSpaceOnUse" gradientTransform="translate(66.2044 39.0566) scale(43.5675)">
<stop offset="0.202" stop-color="white"/>
<stop offset="0.368" stop-color="#E4E4E4"/>
<stop offset="0.594" stop-color="#C4C4C4"/>
<stop offset="1" stop-color="#333333"/>
</radialGradient>
<radialGradient id="paint3_radial" cx="0" cy="0" r="1" gradientUnits="userSpaceOnUse" gradientTransform="translate(20.6059 29.4426) scale(13.3753)">
<stop offset="0.202" stop-color="white"/>
<stop offset="0.368" stop-color="#E4E4E4"/>
<stop offset="0.594" stop-color="#C4C4C4"/>
<stop offset="1" stop-color="#333333"/>
</radialGradient>
<radialGradient id="paint4_radial" cx="0" cy="0" r="1" gradientUnits="userSpaceOnUse" gradientTransform="translate(31.3989 43.1188) scale(25.379)">
<stop offset="0.202" stop-color="white"/>
<stop offset="0.368" stop-color="#E4E4E4"/>
<stop offset="0.594" stop-color="#C4C4C4"/>
<stop offset="1" stop-color="#333333"/>
</radialGradient>
<radialGradient id="paint5_radial" cx="0" cy="0" r="1" gradientUnits="userSpaceOnUse" gradientTransform="translate(23.799 13.3548) scale(20.1678)">
<stop offset="0.202" stop-color="white"/>
<stop offset="0.397" stop-color="#FDFDFD"/>
<stop offset="0.51" stop-color="#F4F4F4"/>
<stop offset="0.603" stop-color="#E6E6E6"/>
<stop offset="0.684" stop-color="#D2D2D2"/>
<stop offset="0.728" stop-color="#C4C4C4"/>
<stop offset="1" stop-color="#4D4D4D"/>
</radialGradient>
<radialGradient id="paint6_radial" cx="0" cy="0" r="1" gradientUnits="userSpaceOnUse" gradientTransform="translate(24.2626 15.3811) scale(13.5841)">
<stop offset="0.111" stop-color="#4D4D4D"/>
<stop offset="0.248" stop-color="#494949"/>
<stop offset="0.355" stop-color="#404040"/>
<stop offset="0.451" stop-color="#2F2F2F"/>
<stop offset="0.541" stop-color="#181818"/>
<stop offset="0.611"/>
</radialGradient>
</defs>
</svg>
