<svg width="48" height="60" viewBox="0 0 48 60" fill="none" xmlns="http://www.w3.org/2000/svg">
<g filter="url(#filter0_d)">
<path d="M24 5C13.5234 5 5 13.6077 5 24.188C5 28.6713 6.53042 32.7999 9.09124 36.07L24 55L38.9088 36.07C41.4696 32.7999 43 28.6713 43 24.188C43 13.6077 34.4766 5 24 5Z" fill="white"/>
<path d="M23.9481 9.04501C32.2074 9.0166 38.926 15.6891 38.9546 23.9481C38.983 32.2074 32.3105 38.926 24.0513 38.9546C15.792 38.983 9.07363 32.3107 9.04501 24.0515C9.0166 15.792 15.6891 9.07343 23.9481 9.04501Z" fill="url(#paint0_linear)"/>
<path d="M23.9982 39C21.992 39 20.0447 38.6103 18.2091 37.8412C16.4203 37.0919 14.8124 36.0159 13.4301 34.643C12.0479 33.2703 10.9608 31.6699 10.1992 29.8862C9.4105 28.0398 9.00699 26.0766 9.00009 24.0518C8.99319 22.0267 9.38289 20.061 10.1589 18.2091C10.9082 16.4203 11.9842 14.8124 13.3571 13.4301C14.73 12.0479 16.3304 10.9608 18.1139 10.199C19.9603 9.41028 21.9232 9.00698 23.9481 9.00008C25.9739 8.99358 27.9387 9.38288 29.7908 10.1588C31.5796 10.9082 33.1875 11.9842 34.5697 13.3571C35.952 14.7299 37.0391 16.3302 37.8008 18.1139C38.5894 19.9605 38.9929 21.9234 38.9998 23.9485C39.0067 25.9735 38.617 27.9393 37.841 29.7912C37.0917 31.58 36.0157 33.1879 34.6428 34.5701C33.2699 35.9524 31.6695 37.0395 29.886 37.8012C28.0394 38.5898 26.0764 38.9931 24.0514 39.0002C24.0339 38.9998 24.0159 39 23.9982 39ZM23.9483 9.04514L23.9485 9.0902C15.7274 9.11861 9.062 15.83 9.09021 24.0514C9.11863 32.2551 15.8018 38.9095 23.999 38.9097C24.0165 38.9097 24.0337 38.9097 24.0514 38.9095C32.2725 38.8812 38.9379 32.1696 38.9097 23.9485C38.8813 15.745 32.1976 9.0902 24.0004 9.0902C23.983 9.0902 23.9659 9.0902 23.9485 9.0902L23.9483 9.04514Z" fill="#141414"/>
<path d="M23.9991 37.4288C20.4122 37.4288 17.0398 36.0323 14.5035 33.4958C11.9672 30.9597 10.5703 27.5871 10.5703 24.0008C10.5703 20.4135 11.9674 17.0414 14.5037 14.5054C17.04 11.9689 20.4122 10.5723 23.9991 10.5723C27.5862 10.5723 30.9583 11.9689 33.4946 14.5054C36.0312 17.0416 37.4276 20.4135 37.4276 24.0008C37.4276 27.5871 36.031 30.9591 33.4946 33.4956C30.9583 36.0321 27.5862 37.4288 23.9991 37.4288Z" fill="#141414"/>
<path d="M24.0009 36.3389C20.7051 36.3389 17.6065 35.0555 15.2762 32.7252C12.9455 30.3947 11.6621 27.2961 11.6621 24.0009C11.6621 20.7051 12.9455 17.6067 15.2762 15.2762C17.6065 12.9459 20.7051 11.6621 24.0009 11.6621C27.2967 11.6621 30.3953 12.9459 32.7258 15.2762C35.0565 17.6067 36.3399 20.7053 36.3399 24.0009C36.3399 27.2963 35.0565 30.3949 32.7258 32.7254C30.3953 35.0555 27.297 36.3389 24.0009 36.3389Z" fill="white"/>
<path d="M33.3657 29.9276C32.4533 29.0714 31.3035 28.4989 30.0505 28.2989C29.8894 28.274 29.7386 28.3842 29.7134 28.5453C29.7112 28.5602 29.71 28.5752 29.71 28.5902V29.0448C29.71 29.18 29.6064 29.3333 29.4709 29.3333C29.3724 29.3333 29.2742 29.3359 29.1753 29.3333C28.826 29.3278 28.7627 28.8987 28.8325 28.646C29.5772 25.9755 29.7593 24.3554 29.7506 23.1759C29.7412 21.9222 29.71 20.6731 29.1449 19.0195C28.6003 17.4288 28.1034 15.8712 25.4744 13.4908C25.2958 13.3298 25.1153 13.2517 24.8748 13.2342C24.6162 13.2164 24.4049 13.207 24.1419 13.207C23.0505 13.207 21.9971 13.3672 21.0017 13.6659C20.629 13.7784 20.6851 14.0376 20.8899 14.2142C21.8822 15.0632 23.2281 16.3393 24.1565 17.9334C23.5687 17.9904 23.1195 17.6635 22.7418 17.3016C21.501 16.1207 20.2091 15.2783 19.1827 14.7021C19.0039 14.602 18.8279 14.5602 18.6509 14.6619C17.5197 15.3198 16.7576 15.9384 15.8594 16.9801C15.7066 17.1572 15.8054 17.2951 15.955 17.3744C16.9368 17.895 18.4741 18.8827 19.8839 20.1653C19.5967 20.407 19.1413 20.3277 18.4812 19.9818C17.2126 19.3152 15.993 18.9316 15.0624 18.6919C14.8631 18.641 14.6495 18.6968 14.5468 18.875C13.9509 19.9103 13.5397 21.1491 13.345 22.4051C13.3081 22.6464 13.4723 22.8597 13.7128 22.9017C15.8822 23.2813 19.7492 24.3012 20.3914 28.7558C20.4468 29.1459 20.092 29.4887 19.6247 29.2693C18.9728 28.9639 18.3215 28.6592 17.6699 28.3533C17.6015 28.3217 17.5238 28.2947 17.4487 28.2947H14.3763C13.9395 28.2947 13.7597 28.7124 14.0437 29.0377C14.7825 29.8884 15.46 30.8064 16.0397 31.7797C16.0908 31.8659 16.1495 31.899 16.25 31.899H17.5914C17.6789 31.9002 17.7649 31.8767 17.8396 31.831C18.2612 31.5838 18.6828 31.3372 19.1053 31.0902C19.1837 31.0435 19.2618 31.0443 19.3532 31.0443H29.4642C29.6 31.0443 29.71 31.1318 29.71 31.2678V31.7653C29.71 31.9461 29.8717 32.0837 30.0505 32.0561C31.3033 31.856 32.4533 31.2834 33.3657 30.4279C33.5039 30.299 33.5114 30.0824 33.3825 29.9442C33.377 29.9385 33.3716 29.933 33.3657 29.9276Z" fill="url(#paint1_linear)"/>
<path d="M30.005 32.1124C29.9222 32.1124 29.8416 32.083 29.7779 32.0284C29.701 31.9624 29.6569 31.8664 29.6569 31.7651V31.2676C29.6569 31.1671 29.5776 31.0971 29.4641 31.0971H19.348C19.2642 31.0975 19.1968 31.0971 19.1327 31.1355L19.0974 31.1562C18.6865 31.3965 18.2765 31.6362 17.8665 31.8765C17.7839 31.9269 17.6885 31.9533 17.5909 31.9516H16.2501C16.1311 31.9516 16.0546 31.9082 15.9943 31.8063C15.438 30.8722 14.7684 29.9524 14.0038 29.0721C13.8546 28.9012 13.8132 28.6939 13.8932 28.5182C13.9719 28.3448 14.1526 28.2413 14.3763 28.2413H17.449C17.5201 28.2413 17.5996 28.262 17.6924 28.3049C18.196 28.5413 18.6993 28.777 19.2029 29.0128L19.6474 29.2209C19.8396 29.3112 20.029 29.3045 20.1668 29.2026C20.2979 29.1058 20.3639 28.9373 20.3391 28.763C19.6517 23.9944 15.175 23.2109 13.7038 22.9535C13.4329 22.9062 13.2522 22.6619 13.2928 22.3968C13.4937 21.0996 13.9115 19.8726 14.5009 18.8484C14.6091 18.6605 14.8346 18.5789 15.0755 18.6404C16.3518 18.969 17.4738 19.3924 18.5059 19.9345C19.1254 20.2593 19.5398 20.3324 19.8009 20.1611C18.092 18.6173 16.4088 17.6747 15.9302 17.4209C15.8186 17.3617 15.7506 17.2833 15.7339 17.1946C15.7185 17.1128 15.7473 17.029 15.8194 16.9454C16.6995 15.9246 17.4596 15.2934 18.6242 14.6161C18.8514 14.4856 19.0665 14.5763 19.2086 14.6559C20.5525 15.4105 21.7534 16.2878 22.7782 17.2632C23.1129 17.5839 23.5262 17.9048 24.0673 17.8864C23.349 16.6771 22.2974 15.4883 20.8553 14.2546C20.7187 14.1369 20.6554 13.9993 20.6813 13.8767C20.6988 13.7943 20.766 13.682 20.9862 13.6154C22.0057 13.3094 23.0673 13.1543 24.1416 13.1543C24.3888 13.1543 24.5954 13.162 24.8782 13.1815C25.1278 13.1996 25.3225 13.2828 25.5096 13.4514C28.0987 15.7952 28.64 17.3789 29.1637 18.9105L29.195 19.0019C29.7418 20.6025 29.7931 21.7895 29.8035 23.1752C29.8142 24.6278 29.5219 26.3705 28.8834 28.6598C28.8414 28.8113 28.8513 29.0347 28.9514 29.1683C29.0058 29.241 29.0813 29.2785 29.1761 29.2799C29.2416 29.2817 29.308 29.2811 29.3719 29.2805C29.4048 29.2801 29.4379 29.2799 29.4708 29.2799C29.5739 29.2799 29.6569 29.151 29.6569 29.0445V28.5898C29.6569 28.5722 29.6583 28.5543 29.661 28.5368C29.6904 28.3471 29.8684 28.2166 30.0586 28.2462C31.3146 28.4467 32.4705 29.0146 33.4019 29.8886C33.4086 29.8947 33.4149 29.9012 33.4212 29.9077C33.57 30.067 33.5613 30.3177 33.4019 30.4663C32.4705 31.3399 31.3146 31.9076 30.059 32.1079C30.0409 32.111 30.0229 32.1124 30.005 32.1124ZM19.3428 30.9912C19.3446 30.9912 19.3462 30.9912 19.3478 30.9912H29.4641C29.6372 30.9912 29.7627 31.1075 29.7627 31.2676V31.7651C29.7627 31.8355 29.7933 31.9021 29.8467 31.948C29.9005 31.9943 29.9717 32.0145 30.0422 32.0036C31.2764 31.8065 32.4131 31.2481 33.3291 30.3892C33.4458 30.2802 33.4523 30.0967 33.3433 29.9802C33.3388 29.9753 33.3339 29.9706 33.3291 29.966L33.3607 29.9321L33.3291 29.9658C32.4133 29.1064 31.2764 28.5478 30.0418 28.3507C29.978 28.3408 29.9141 28.3564 29.8617 28.3946C29.8096 28.4327 29.7753 28.4889 29.7653 28.5531C29.7635 28.5653 29.7625 28.5776 29.7625 28.59V29.0447C29.7625 29.2058 29.6376 29.3861 29.4704 29.3861C29.4377 29.3861 29.405 29.3865 29.3726 29.3867C29.3076 29.3873 29.2402 29.3879 29.1734 29.3861C29.0468 29.384 28.9402 29.3309 28.8663 29.232C28.7403 29.0636 28.7338 28.8027 28.7811 28.6318C29.4168 26.3523 29.7079 24.6187 29.6973 23.1764C29.6872 21.8007 29.6362 20.6222 29.0945 19.0366L29.0632 18.9453C28.5201 17.3564 28.0072 15.8556 25.4384 13.53C25.2677 13.3761 25.0978 13.3035 24.8705 13.287C24.5906 13.2676 24.386 13.26 24.1414 13.26C23.0774 13.26 22.026 13.4137 21.0165 13.7167C20.8813 13.7575 20.8011 13.8204 20.7845 13.8986C20.767 13.9808 20.8192 14.0839 20.9239 14.1742C22.4044 15.4408 23.4765 16.6618 24.2017 17.9069L24.2433 17.9781L24.1611 17.986C23.5357 18.0467 23.0738 17.6933 22.7048 17.3398C21.6865 16.3706 20.4926 15.4986 19.1564 14.7482C18.9638 14.6404 18.8158 14.6279 18.6768 14.7076C17.5237 15.3782 16.7707 16.0034 15.8992 17.0144C15.8492 17.0724 15.8285 17.1264 15.8376 17.1749C15.848 17.2302 15.8983 17.2843 15.9795 17.3274C16.4652 17.5849 18.1852 18.548 19.9194 20.1257L19.964 20.1665L19.9178 20.2055C19.6196 20.4566 19.1688 20.4018 18.4564 20.0283C17.4316 19.4898 16.3171 19.0695 15.0489 18.7429C14.8555 18.6934 14.6763 18.7555 14.5924 18.9012C14.0095 19.9142 13.596 21.1286 13.3971 22.413C13.3649 22.6239 13.5043 22.8114 13.7217 22.8494C14.7625 23.0315 16.3025 23.3755 17.6534 24.2562C19.2226 25.279 20.1613 26.7903 20.4435 28.7481C20.4737 28.9613 20.3917 29.1681 20.2293 29.288C20.059 29.4139 19.8305 29.4244 19.6019 29.3171L19.1576 29.109C18.6539 28.8732 18.1507 28.6375 17.6473 28.4011C17.5692 28.3649 17.504 28.3473 17.4486 28.3473H14.3763C14.1952 28.3473 14.0505 28.4276 13.9894 28.562C13.9271 28.699 13.9622 28.8638 14.0834 29.0027C14.852 29.8876 15.5255 30.8128 16.0851 31.7523C16.1265 31.8223 16.1681 31.8459 16.2499 31.8459H17.5913C17.6693 31.8475 17.7458 31.826 17.8119 31.7856C18.2228 31.5447 18.6328 31.305 19.0436 31.0646L19.0785 31.0441C19.1658 30.992 19.2518 30.9912 19.3428 30.9912Z" fill="#141414"/>
<path d="M25.8349 28.4713C24.8389 28.4713 24.0327 27.6647 24.0327 26.6706C24.0327 25.6752 24.8387 24.869 25.8349 24.869C26.8284 24.869 27.6358 25.6752 27.6358 26.6706C27.6358 27.6647 26.8282 28.4713 25.8349 28.4713ZM32.456 30.1761C31.7719 29.6181 31.051 29.2574 30.1754 29.076C30.096 29.0595 30.0575 29.0902 30.0575 29.1718V29.2158C30.0575 29.431 29.8423 29.6814 29.6259 29.6814H29.0572C28.577 29.6814 28.1483 29.2859 28.3259 28.6508C30.3812 21.3162 28.0848 16.7812 25.1845 14.2425C24.3968 13.5542 24.3262 13.516 23.5411 13.5461C22.9224 13.5694 22.197 13.6455 21.5838 13.7943C21.4633 13.8235 21.3626 13.9193 21.5219 14.0529C23.0105 15.3073 25.0006 17.4693 25.9524 20.835C25.985 20.9519 25.916 20.9438 25.8269 20.9486C24.9745 21.0002 24.6873 20.4781 24.421 20.1461C22.4887 17.7409 20.3222 16.2781 18.7004 15.3168C18.5391 15.22 18.5131 15.2218 18.3901 15.2937C17.7381 15.67 17.0064 16.271 16.4909 16.8176C16.3833 16.9333 16.4105 16.9874 16.5295 17.051C17.9963 17.8371 20.2272 19.386 22.3001 22.012C22.429 22.1744 22.4377 22.2493 22.3649 22.2923C21.966 22.5298 21.3007 22.5263 20.5716 22.0723C18.5951 20.8396 16.5877 19.9664 15.0169 19.514C14.8495 19.4653 14.8202 19.4751 14.7518 19.6184C14.3688 20.4233 13.9515 21.4699 13.8011 22.3771C13.782 22.4955 13.7717 22.5048 13.8815 22.5271C18.2038 23.405 20.5755 25.7759 20.8458 28.9453C20.8931 29.4951 20.2712 30.0247 19.6522 29.829C18.9801 29.6155 18.3278 29.376 17.6551 29.1631C17.5835 29.1397 17.5086 29.1281 17.4335 29.1288C16.5045 29.1281 15.5745 29.1277 14.6443 29.1277C14.5204 29.1277 14.4476 29.2055 14.5708 29.3614C15.2727 30.2492 15.6808 30.7521 16.1757 31.5823C16.2262 31.6685 16.2849 31.7016 16.3866 31.7016C16.7278 31.7016 17.07 31.701 17.4128 31.701C17.5486 31.701 17.6649 31.6697 17.7828 31.6001C18.155 31.3821 18.5249 31.179 18.8971 30.9606C19.0154 30.8911 19.1165 30.8491 19.2533 30.8491C22.6283 30.8481 26.2455 30.8491 29.6199 30.8485C29.835 30.8485 30.0577 31.1 30.0577 31.3168V31.3915C30.0577 31.4729 30.0962 31.5033 30.1756 31.4875C31.0512 31.306 31.7722 30.8855 32.4562 30.3277C32.5179 30.2768 32.5179 30.2278 32.456 30.1761Z" fill="#42BD3B"/>
<path d="M27.7098 26.4653C27.8725 27.5764 27.1035 28.6075 25.9924 28.7699C24.8824 28.9323 23.8504 28.1648 23.6877 27.0537C23.525 25.9426 24.294 24.9107 25.404 24.7483C26.5151 24.5856 27.5471 25.3543 27.7098 26.4653Z" fill="url(#paint2_linear)"/>
<path d="M26.023 24.752L25.4121 28.7736C26.2875 28.8984 27.1752 28.4355 27.5535 27.587C28.011 26.5615 27.5506 25.3611 26.5259 24.9042C26.3655 24.832 26.1964 24.7809 26.023 24.752Z" fill="url(#paint3_linear)"/>
<path d="M27.414 26.7069C27.414 27.4581 26.804 28.0688 26.0508 28.0688C25.2986 28.0688 24.6895 27.4581 24.6895 26.7069C24.6895 25.9539 25.2984 25.3438 26.0508 25.3438C26.804 25.3438 27.414 25.9539 27.414 26.7069Z" fill="white"/>
<path d="M26.051 28.122C25.2712 28.122 24.6367 27.4873 24.6367 26.7071C24.6367 25.9263 25.2712 25.291 26.051 25.291C26.8318 25.291 27.4669 25.9263 27.4669 26.7071C27.4671 27.4873 26.8318 28.122 26.051 28.122ZM26.051 25.397C25.3297 25.397 24.7427 25.9848 24.7427 26.7071C24.7427 27.4289 25.3297 28.0161 26.051 28.0161C26.7734 28.0161 27.3612 27.4289 27.3612 26.7071C27.3612 25.9846 26.7734 25.397 26.051 25.397Z" fill="#141414"/>
</g>
<defs>
<filter id="filter0_d" x="0" y="0" width="48" height="60" filterUnits="userSpaceOnUse" color-interpolation-filters="sRGB">
<feFlood flood-opacity="0" result="BackgroundImageFix"/>
<feColorMatrix in="SourceAlpha" type="matrix" values="0 0 0 0 0 0 0 0 0 0 0 0 0 0 0 0 0 0 127 0"/>
<feOffset/>
<feGaussianBlur stdDeviation="2.5"/>
<feColorMatrix type="matrix" values="0 0 0 0 0 0 0 0 0 0 0 0 0 0 0 0 0 0 0.55 0"/>
<feBlend mode="normal" in2="BackgroundImageFix" result="effect1_dropShadow"/>
<feBlend mode="normal" in="SourceGraphic" in2="effect1_dropShadow" result="shape"/>
</filter>
<linearGradient id="paint0_linear" x1="24.052" y1="38.9932" x2="23.9995" y2="24.0047" gradientUnits="userSpaceOnUse">
<stop stop-color="#99A2A7"/>
<stop offset="0.476" stop-color="#98A3A8"/>
<stop offset="0.535" stop-color="#E6E6E6"/>
<stop offset="1" stop-color="#E6E6E6"/>
</linearGradient>
<linearGradient id="paint1_linear" x1="14.5431" y1="32.853" x2="24.4702" y2="23.77" gradientUnits="userSpaceOnUse">
<stop stop-color="#151313"/>
<stop offset="0.085" stop-color="#151313"/>
<stop offset="0.128" stop-color="#F8F1F1"/>
<stop offset="0.229" stop-color="#151313"/>
<stop offset="0.304" stop-color="#141414"/>
<stop offset="0.382" stop-color="#F8F1F1"/>
<stop offset="0.45" stop-color="#151313"/>
<stop offset="0.566" stop-color="#F8F1F4"/>
<stop offset="0.627" stop-color="#141414"/>
<stop offset="0.787" stop-color="#F8F1F1"/>
<stop offset="1" stop-color="#F8F1F2"/>
</linearGradient>
<linearGradient id="paint2_linear" x1="25.5255" y1="26.5263" x2="27.4592" y2="29.0548" gradientUnits="userSpaceOnUse">
<stop stop-color="#151313"/>
<stop offset="0.163" stop-color="#CCC4C4"/>
<stop offset="0.496" stop-color="#B7ACAD"/>
<stop offset="1" stop-color="#151313"/>
</linearGradient>
<linearGradient id="paint3_linear" x1="26.3787" y1="26.6422" x2="23.4935" y2="27.8145" gradientUnits="userSpaceOnUse">
<stop stop-color="#151313"/>
<stop offset="0.25" stop-color="#CCC4C4"/>
<stop offset="0.5" stop-color="#B7ACAD"/>
<stop offset="1" stop-color="#151313"/>
</linearGradient>
</defs>
</svg>
