<svg width="48" height="60" viewBox="0 0 48 60" fill="none" xmlns="http://www.w3.org/2000/svg">
<g filter="url(#filter0_d)">
<path d="M24 5C13.5234 5 5 13.6077 5 24.188C5 28.6713 6.53042 32.7999 9.09124 36.07L24 55L38.9088 36.07C41.4696 32.7999 43 28.6713 43 24.188C43 13.6077 34.4766 5 24 5Z" fill="white"/>
<path d="M24 35.804C17.526 35.804 12.222 30.474 12.222 24C12.222 22.544 12.482 21.166 12.976 19.866L19.866 33.724C19.944 33.906 20.074 34.062 20.282 34.062C20.49 34.062 20.62 33.906 20.698 33.724L23.87 26.626C23.896 26.548 23.948 26.47 24.026 26.47C24.104 26.47 24.13 26.548 24.182 26.626L27.354 33.724C27.432 33.906 27.562 34.062 27.77 34.062C27.978 34.062 28.108 33.906 28.186 33.724L35.076 19.866C35.57 21.166 35.83 22.544 35.83 24C35.778 30.474 30.474 35.804 24 35.804ZM24 21.322C23.922 21.322 23.896 21.244 23.844 21.166L20.152 12.846C21.348 12.404 22.648 12.17 24 12.17C25.352 12.17 26.652 12.404 27.848 12.846L24.156 21.166C24.104 21.27 24.078 21.322 24 21.322ZM20.23 29.876C20.152 29.876 20.126 29.798 20.074 29.72L14.094 17.656C15.16 16.018 16.59 14.64 18.332 13.678L22.648 23.272C22.7 23.428 22.83 23.48 22.96 23.48H25.04C25.196 23.48 25.3 23.454 25.378 23.272L29.694 13.678C31.41 14.64 32.866 16.018 33.932 17.656L27.9 29.72C27.874 29.798 27.822 29.876 27.744 29.876C27.666 29.876 27.64 29.798 27.588 29.72L25.326 24.572C25.248 24.39 25.144 24.364 24.988 24.364H22.908C22.752 24.364 22.648 24.39 22.57 24.572L20.386 29.72C20.36 29.798 20.308 29.876 20.23 29.876ZM24 37C31.202 37 37 31.202 37 24C37 16.798 31.202 11 24 11C16.798 11 11 16.798 11 24C11 31.202 16.798 37 24 37Z" fill="#001E50"/>
</g>
<defs>
<filter id="filter0_d" x="0" y="0" width="48" height="60" filterUnits="userSpaceOnUse" color-interpolation-filters="sRGB">
<feFlood flood-opacity="0" result="BackgroundImageFix"/>
<feColorMatrix in="SourceAlpha" type="matrix" values="0 0 0 0 0 0 0 0 0 0 0 0 0 0 0 0 0 0 127 0"/>
<feOffset/>
<feGaussianBlur stdDeviation="2.5"/>
<feColorMatrix type="matrix" values="0 0 0 0 0 0 0 0 0 0 0 0 0 0 0 0 0 0 0.55 0"/>
<feBlend mode="normal" in2="BackgroundImageFix" result="effect1_dropShadow"/>
<feBlend mode="normal" in="SourceGraphic" in2="effect1_dropShadow" result="shape"/>
</filter>
</defs>
</svg>
