<svg width="40" height="41" viewBox="0 0 40 41" fill="none" xmlns="http://www.w3.org/2000/svg">
<rect y="0.140625" width="40" height="40" rx="4" fill="white"/>
<path fill-rule="evenodd" clip-rule="evenodd" d="M20 5.14062C24.0066 5.14062 27.7735 6.70091 30.6066 9.53398C33.4397 12.3672 35 16.134 35 20.1406C35 24.1473 33.4397 27.9141 30.6066 30.7473C27.7735 33.5803 24.0066 35.1406 20 35.1406C15.9934 35.1406 12.2265 33.5803 9.39336 30.7473C6.56029 27.9141 5 24.1473 5 20.1406C5 16.134 6.56029 12.3672 9.39336 9.53398C12.2265 6.70091 15.9934 5.14062 20 5.14062ZM6.75781 20.1406C6.75781 27.4424 12.6982 33.3828 20 33.3828C27.3018 33.3828 33.2422 27.4424 33.2422 20.1406C33.2422 12.8389 27.3018 6.89844 20 6.89844C12.6982 6.89844 6.75781 12.8389 6.75781 20.1406ZM28.9154 16.3069C29.2465 16.355 29.5215 16.5869 29.6249 16.905C29.7283 17.2233 29.6421 17.5725 29.4025 17.806L25.3388 21.7671L26.2981 27.3602C26.3547 27.69 26.2191 28.0232 25.9485 28.2198C25.7954 28.3311 25.614 28.3877 25.4318 28.3877C25.2919 28.3877 25.1514 28.3544 25.0229 28.2868L19.9999 25.6461L14.977 28.2868C14.6809 28.4424 14.3221 28.4165 14.0514 28.2198C13.7808 28.0232 13.6453 27.6899 13.7018 27.3602L14.6611 21.7671L10.5975 17.806C10.3579 17.5725 10.2717 17.2232 10.3751 16.905C10.4785 16.5869 10.7535 16.355 11.0845 16.3069L16.7004 15.4908L19.2118 10.402C19.3599 10.1021 19.6655 9.91211 20 9.91211C20.3345 9.91211 20.6401 10.102 20.7881 10.402L23.2996 15.4908L28.9154 16.3069ZM23.5282 21.6088C23.4793 21.3237 23.5739 21.0328 23.781 20.8309L26.9002 17.7903L22.5895 17.164C22.3033 17.1224 22.0558 16.9425 21.9277 16.6832L19.9999 12.7769L18.0721 16.6832C17.9441 16.9426 17.6966 17.1224 17.4103 17.164L13.0996 17.7904L16.2189 20.8309C16.426 21.0329 16.5205 21.3238 16.4717 21.6089L15.7353 25.9022L19.591 23.8752C19.719 23.8078 19.8595 23.7742 19.9999 23.7742C20.1404 23.7742 20.2809 23.8078 20.4089 23.8752L24.2646 25.9021L23.5282 21.6088Z" fill="#DD2A1B"/>
</svg>
