<svg width="40" height="41" viewBox="0 0 40 41" fill="none" xmlns="http://www.w3.org/2000/svg">
<path fill-rule="evenodd" clip-rule="evenodd" d="M7.64453 5.16992C7.64453 5.18604 7.61816 5.19922 7.58594 5.19922C7.55371 5.19922 7.52734 5.2124 7.52734 5.22852C7.52734 5.24463 7.50098 5.25781 7.46875 5.25781C7.43652 5.25781 7.41016 5.271 7.41016 5.28711C7.41016 5.30322 7.38979 5.31641 7.36489 5.31641C7.30627 5.31641 7.17578 5.44689 7.17578 5.50552C7.17578 5.53042 7.1626 5.55078 7.14648 5.55078C7.13037 5.55078 7.11719 5.57715 7.11719 5.60938C7.11719 5.6416 7.104 5.66797 7.08789 5.66797C7.07178 5.66797 7.05859 5.69434 7.05859 5.72656C7.05859 5.75879 7.04541 5.78516 7.0293 5.78516C7.00984 5.78516 7 7.93358 7 12.1719C7 16.4102 7.00984 18.5586 7.0293 18.5586C7.04541 18.5586 7.05859 18.585 7.05859 18.6172C7.05859 18.6494 7.07178 18.6758 7.08789 18.6758C7.104 18.6758 7.11719 18.7021 7.11719 18.7344C7.11719 18.7666 7.13037 18.793 7.14648 18.793C7.1626 18.793 7.17578 18.8137 7.17578 18.839C7.17578 18.8955 7.24542 18.9688 7.29906 18.9688C7.32083 18.9688 7.35763 18.9951 7.38086 19.0273C7.40409 19.0596 7.44654 19.0859 7.47522 19.0859C7.50388 19.0859 7.52734 19.0991 7.52734 19.1152C7.52734 19.1313 7.55371 19.1445 7.58594 19.1445C7.61816 19.1445 7.64453 19.1577 7.64453 19.1738C7.64453 19.1909 7.74218 19.2031 7.87891 19.2031C8.01563 19.2031 8.11328 19.1909 8.11328 19.1738C8.11328 19.1577 8.13965 19.1445 8.17188 19.1445C8.2041 19.1445 8.23047 19.1313 8.23047 19.1152C8.23047 19.0991 8.25684 19.0859 8.28906 19.0859C8.32129 19.0859 8.34766 19.0728 8.34766 19.0566C8.34766 19.0405 8.36802 19.0273 8.39292 19.0273C8.45154 19.0273 8.58203 18.8969 8.58203 18.8382C8.58203 18.8133 8.59521 18.793 8.61133 18.793C8.62744 18.793 8.64062 18.7666 8.64062 18.7344C8.64062 18.7021 8.65381 18.6758 8.66992 18.6758C8.68604 18.6758 8.69922 18.6494 8.69922 18.6172C8.69922 18.585 8.7124 18.5586 8.72852 18.5586C8.7456 18.5586 8.75781 18.4609 8.75781 18.3242C8.75781 18.1875 8.77003 18.0898 8.78711 18.0898C8.80322 18.0898 8.81641 18.0635 8.81641 18.0312C8.81641 17.999 8.82959 17.9727 8.8457 17.9727C8.86182 17.9727 8.875 17.9463 8.875 17.9141C8.875 17.8818 8.88818 17.8555 8.9043 17.8555C8.92041 17.8555 8.93359 17.8348 8.93359 17.8094C8.93359 17.753 9.00323 17.6797 9.05687 17.6797C9.07864 17.6797 9.11544 17.6533 9.13867 17.6211C9.1619 17.5889 9.20436 17.5625 9.23304 17.5625C9.26169 17.5625 9.28516 17.5493 9.28516 17.5332C9.28516 17.5171 9.31152 17.5039 9.34375 17.5039C9.37598 17.5039 9.40234 17.4907 9.40234 17.4746C9.40234 17.4561 9.60742 17.4453 9.95898 17.4453H10.5156V19.9062C10.5156 21.5273 10.5056 22.3672 10.4863 22.3672C10.4702 22.3672 10.457 22.4331 10.457 22.5137C10.457 22.5942 10.4438 22.6602 10.4277 22.6602C10.4116 22.6602 10.3984 22.7129 10.3984 22.7773C10.3984 22.8418 10.3853 22.8945 10.3691 22.8945C10.353 22.8945 10.3398 22.9209 10.3398 22.9531C10.3398 22.9854 10.3267 23.0117 10.3105 23.0117C10.2944 23.0117 10.2812 23.0513 10.2812 23.0996C10.2812 23.1479 10.2681 23.1875 10.252 23.1875C10.2358 23.1875 10.2227 23.211 10.2227 23.2396C10.2227 23.2683 10.1963 23.3108 10.1641 23.334C10.1318 23.3572 10.1055 23.3968 10.1055 23.4219C10.1055 23.447 10.0791 23.4865 10.0469 23.5098C10.0146 23.533 9.98828 23.5691 9.98828 23.59C9.98828 23.6364 9.62157 24.0078 9.57578 24.0078C9.55776 24.0078 9.50608 24.0474 9.46094 24.0957C9.41579 24.144 9.3637 24.1836 9.34524 24.1836C9.32676 24.1836 9.22062 24.2759 9.10938 24.3887C8.99813 24.5015 8.8927 24.5938 8.87509 24.5938C8.83349 24.5938 8.69922 24.728 8.69922 24.7696C8.69922 24.7872 8.60693 24.8927 8.49414 25.0039C8.38135 25.1151 8.28906 25.2237 8.28906 25.245C8.28906 25.2664 8.2627 25.3029 8.23047 25.3262C8.19824 25.3494 8.17188 25.3866 8.17188 25.4088C8.17188 25.431 8.13232 25.4861 8.08398 25.5312C8.03564 25.5764 7.99609 25.6344 7.99609 25.6602C7.99609 25.686 7.98291 25.707 7.9668 25.707C7.95068 25.707 7.9375 25.7305 7.9375 25.7591C7.9375 25.7878 7.91113 25.8303 7.87891 25.8535C7.84668 25.8767 7.82031 25.9192 7.82031 25.9479C7.82031 25.9765 7.80713 26 7.79102 26C7.7749 26 7.76172 26.0264 7.76172 26.0586C7.76172 26.0908 7.74854 26.1172 7.73242 26.1172C7.71631 26.1172 7.70312 26.1436 7.70312 26.1758C7.70312 26.208 7.68994 26.2344 7.67383 26.2344C7.65771 26.2344 7.64453 26.2607 7.64453 26.293C7.64453 26.3252 7.63135 26.3516 7.61523 26.3516C7.59912 26.3516 7.58594 26.3779 7.58594 26.4102C7.58594 26.4424 7.57275 26.4688 7.55664 26.4688C7.54053 26.4688 7.52734 26.4951 7.52734 26.5273C7.52734 26.5596 7.51416 26.5859 7.49805 26.5859C7.48193 26.5859 7.46875 26.6123 7.46875 26.6445C7.46875 26.6768 7.45557 26.7031 7.43945 26.7031C7.42334 26.7031 7.41016 26.7427 7.41016 26.791C7.41016 26.8394 7.39697 26.8789 7.38086 26.8789C7.36475 26.8789 7.35156 26.9185 7.35156 26.9668C7.35156 27.0151 7.33838 27.0547 7.32227 27.0547C7.30615 27.0547 7.29297 27.0942 7.29297 27.1426C7.29297 27.1909 7.27979 27.2305 7.26367 27.2305C7.24756 27.2305 7.23438 27.27 7.23438 27.3184C7.23438 27.3667 7.22119 27.4062 7.20508 27.4062C7.18896 27.4062 7.17578 27.4722 7.17578 27.5527C7.17578 27.6333 7.1626 27.6992 7.14648 27.6992C7.13037 27.6992 7.11719 27.752 7.11719 27.8164C7.11719 27.8809 7.104 27.9336 7.08789 27.9336C7.07081 27.9336 7.05859 28.0312 7.05859 28.168C7.05859 28.3047 7.04638 28.4023 7.0293 28.4023C7.01075 28.4023 7 28.6172 7 28.9883C7 29.3594 7.01075 29.5742 7.0293 29.5742C7.04638 29.5742 7.05859 29.6719 7.05859 29.8086C7.05859 29.9453 7.07081 30.043 7.08789 30.043C7.104 30.043 7.11719 30.1089 7.11719 30.1895C7.11719 30.27 7.13037 30.3359 7.14648 30.3359C7.1626 30.3359 7.17578 30.3887 7.17578 30.4531C7.17578 30.5176 7.18896 30.5703 7.20508 30.5703C7.22119 30.5703 7.23438 30.6099 7.23438 30.6582C7.23438 30.7065 7.24756 30.7461 7.26367 30.7461C7.27979 30.7461 7.29297 30.7856 7.29297 30.834C7.29297 30.8823 7.30615 30.9219 7.32227 30.9219C7.33838 30.9219 7.35156 30.9614 7.35156 31.0098C7.35156 31.0581 7.36475 31.0977 7.38086 31.0977C7.39697 31.0977 7.41016 31.1372 7.41016 31.1855C7.41016 31.2339 7.42334 31.2734 7.43945 31.2734C7.45557 31.2734 7.46875 31.2998 7.46875 31.332C7.46875 31.3643 7.48193 31.3906 7.49805 31.3906C7.51416 31.3906 7.52734 31.4302 7.52734 31.4785C7.52734 31.5269 7.54053 31.5664 7.55664 31.5664C7.57275 31.5664 7.58594 31.5928 7.58594 31.625C7.58594 31.6572 7.59912 31.6836 7.61523 31.6836C7.63135 31.6836 7.64453 31.71 7.64453 31.7422C7.64453 31.7744 7.65771 31.8008 7.67383 31.8008C7.68994 31.8008 7.70312 31.8242 7.70312 31.8529C7.70312 31.8816 7.72949 31.924 7.76172 31.9473C7.79395 31.9705 7.82031 32.0129 7.82031 32.0416C7.82031 32.0703 7.8335 32.0938 7.84961 32.0938C7.86572 32.0938 7.87891 32.1172 7.87891 32.1459C7.87891 32.1746 7.90527 32.217 7.9375 32.2402C7.96973 32.2635 7.99609 32.303 7.99609 32.3281C7.99609 32.3532 8.02246 32.3928 8.05469 32.416C8.08691 32.4392 8.11328 32.4788 8.11328 32.5039C8.11328 32.529 8.13965 32.5686 8.17188 32.5918C8.2041 32.615 8.23047 32.6517 8.23047 32.6734C8.23047 32.6951 8.29639 32.777 8.37695 32.8555C8.45752 32.934 8.52344 33.0124 8.52344 33.0297C8.52344 33.0709 9.06971 33.6172 9.1109 33.6172C9.12827 33.6172 9.20667 33.6831 9.28516 33.7637C9.36364 33.8442 9.44556 33.9102 9.46721 33.9102C9.48889 33.9102 9.5256 33.9365 9.54883 33.9688C9.57206 34.001 9.61161 34.0273 9.63672 34.0273C9.66183 34.0273 9.70138 34.0537 9.72461 34.0859C9.74784 34.1182 9.78739 34.1445 9.8125 34.1445C9.83761 34.1445 9.87716 34.1709 9.90039 34.2031C9.92362 34.2354 9.96607 34.2617 9.99476 34.2617C10.0234 34.2617 10.0469 34.2749 10.0469 34.291C10.0469 34.3071 10.0703 34.3203 10.099 34.3203C10.1277 34.3203 10.1701 34.3467 10.1934 34.3789C10.2166 34.4111 10.259 34.4375 10.2877 34.4375C10.3164 34.4375 10.3398 34.4507 10.3398 34.4668C10.3398 34.4829 10.3662 34.4961 10.3984 34.4961C10.4307 34.4961 10.457 34.5093 10.457 34.5254C10.457 34.5415 10.4834 34.5547 10.5156 34.5547C10.5479 34.5547 10.5742 34.5679 10.5742 34.584C10.5742 34.6001 10.6138 34.6133 10.6621 34.6133C10.7104 34.6133 10.75 34.6265 10.75 34.6426C10.75 34.6587 10.7764 34.6719 10.8086 34.6719C10.8408 34.6719 10.8672 34.6851 10.8672 34.7012C10.8672 34.7173 10.9067 34.7305 10.9551 34.7305C11.0034 34.7305 11.043 34.7437 11.043 34.7598C11.043 34.7759 11.0825 34.7891 11.1309 34.7891C11.1792 34.7891 11.2188 34.8022 11.2188 34.8184C11.2188 34.8345 11.2583 34.8477 11.3066 34.8477C11.355 34.8477 11.3945 34.8608 11.3945 34.877C11.3945 34.8931 11.4341 34.9062 11.4824 34.9062C11.5308 34.9062 11.5703 34.9194 11.5703 34.9355C11.5703 34.9517 11.623 34.9648 11.6875 34.9648C11.752 34.9648 11.8047 34.978 11.8047 34.9941C11.8047 35.0103 11.8706 35.0234 11.9512 35.0234C12.0317 35.0234 12.0977 35.0366 12.0977 35.0527C12.0977 35.0698 12.1953 35.082 12.332 35.082C12.4688 35.082 12.5664 35.0942 12.5664 35.1113C12.5664 35.1299 12.7812 35.1406 13.1523 35.1406C13.5234 35.1406 13.7383 35.1299 13.7383 35.1113C13.7383 35.0942 13.8359 35.082 13.9727 35.082C14.1094 35.082 14.207 35.0698 14.207 35.0527C14.207 35.0366 14.2729 35.0234 14.3535 35.0234C14.4341 35.0234 14.5 35.0103 14.5 34.9941C14.5 34.978 14.5527 34.9648 14.6172 34.9648C14.6816 34.9648 14.7344 34.9517 14.7344 34.9355C14.7344 34.9194 14.7739 34.9062 14.8223 34.9062C14.8706 34.9062 14.9102 34.8931 14.9102 34.877C14.9102 34.8608 14.9629 34.8477 15.0273 34.8477C15.0918 34.8477 15.1445 34.8345 15.1445 34.8184C15.1445 34.8022 15.1709 34.7891 15.2031 34.7891C15.2354 34.7891 15.2617 34.7759 15.2617 34.7598C15.2617 34.7437 15.3013 34.7305 15.3496 34.7305C15.3979 34.7305 15.4375 34.7173 15.4375 34.7012C15.4375 34.6851 15.4639 34.6719 15.4961 34.6719C15.5283 34.6719 15.5547 34.6587 15.5547 34.6426C15.5547 34.6265 15.5942 34.6133 15.6426 34.6133C15.6909 34.6133 15.7305 34.6001 15.7305 34.584C15.7305 34.5679 15.7568 34.5547 15.7891 34.5547C15.8213 34.5547 15.8477 34.5415 15.8477 34.5254C15.8477 34.5093 15.874 34.4961 15.9062 34.4961C15.9385 34.4961 15.9648 34.4829 15.9648 34.4668C15.9648 34.4507 15.9912 34.4375 16.0234 34.4375C16.0557 34.4375 16.082 34.4243 16.082 34.4082C16.082 34.3921 16.1055 34.3789 16.1342 34.3789C16.1628 34.3789 16.2053 34.3525 16.2285 34.3203C16.2517 34.2881 16.2913 34.2617 16.3164 34.2617C16.3415 34.2617 16.3811 34.2354 16.4043 34.2031C16.4275 34.1709 16.47 34.1445 16.4987 34.1445C16.5273 34.1445 16.5508 34.1313 16.5508 34.1152C16.5508 34.0991 16.5718 34.0859 16.5976 34.0859C16.6234 34.0859 16.6814 34.0464 16.7266 33.998C16.7717 33.9497 16.8242 33.9102 16.8432 33.9102C16.8621 33.9102 16.9283 33.8574 16.9902 33.793C17.0522 33.7285 17.1172 33.6758 17.1347 33.6758C17.1764 33.6758 17.8398 33.0123 17.8398 32.9707C17.8398 32.9531 17.8926 32.8881 17.957 32.8262C18.0215 32.7642 18.0742 32.6957 18.0742 32.6738C18.0742 32.6519 18.1006 32.615 18.1328 32.5918C18.165 32.5686 18.1914 32.529 18.1914 32.5039C18.1914 32.4788 18.2178 32.4392 18.25 32.416C18.2822 32.3928 18.3086 32.3532 18.3086 32.3281C18.3086 32.303 18.335 32.2635 18.3672 32.2402C18.3994 32.217 18.4258 32.1746 18.4258 32.1459C18.4258 32.1172 18.439 32.0938 18.4551 32.0938C18.4712 32.0938 18.4844 32.0703 18.4844 32.0416C18.4844 32.0129 18.5107 31.9705 18.543 31.9473C18.5752 31.924 18.6016 31.8816 18.6016 31.8529C18.6016 31.8242 18.6147 31.8008 18.6309 31.8008C18.647 31.8008 18.6602 31.7744 18.6602 31.7422C18.6602 31.71 18.6733 31.6836 18.6895 31.6836C18.7056 31.6836 18.7188 31.6572 18.7188 31.625C18.7188 31.5928 18.7319 31.5664 18.748 31.5664C18.7642 31.5664 18.7773 31.5269 18.7773 31.4785C18.7773 31.4302 18.7905 31.3906 18.8066 31.3906C18.8228 31.3906 18.8359 31.3643 18.8359 31.332C18.8359 31.2998 18.8491 31.2734 18.8652 31.2734C18.8813 31.2734 18.8945 31.2339 18.8945 31.1855C18.8945 31.1372 18.9077 31.0977 18.9238 31.0977C18.9399 31.0977 18.9531 31.0581 18.9531 31.0098C18.9531 30.9614 18.9663 30.9219 18.9824 30.9219C18.9985 30.9219 19.0117 30.8823 19.0117 30.834C19.0117 30.7856 19.0249 30.7461 19.041 30.7461C19.0571 30.7461 19.0703 30.7065 19.0703 30.6582C19.0703 30.6099 19.0835 30.5703 19.0996 30.5703C19.1157 30.5703 19.1289 30.5176 19.1289 30.4531C19.1289 30.3887 19.1421 30.3359 19.1582 30.3359C19.1743 30.3359 19.1875 30.27 19.1875 30.1895C19.1875 30.1089 19.2007 30.043 19.2168 30.043C19.2339 30.043 19.2461 29.9453 19.2461 29.8086C19.2461 29.6719 19.2583 29.5742 19.2754 29.5742C19.2939 29.5742 19.3047 29.3594 19.3047 28.9883C19.3047 28.6172 19.2939 28.4023 19.2754 28.4023C19.2583 28.4023 19.2461 28.3047 19.2461 28.168C19.2461 28.0312 19.2339 27.9336 19.2168 27.9336C19.2007 27.9336 19.1875 27.8677 19.1875 27.7871C19.1875 27.7065 19.1743 27.6406 19.1582 27.6406C19.1421 27.6406 19.1289 27.5879 19.1289 27.5234C19.1289 27.459 19.1157 27.4062 19.0996 27.4062C19.0835 27.4062 19.0703 27.3667 19.0703 27.3184C19.0703 27.27 19.0571 27.2305 19.041 27.2305C19.0249 27.2305 19.0117 27.1777 19.0117 27.1133C19.0117 27.0488 18.9985 26.9961 18.9824 26.9961C18.9663 26.9961 18.9531 26.9697 18.9531 26.9375C18.9531 26.9053 18.9399 26.8789 18.9238 26.8789C18.9077 26.8789 18.8945 26.8394 18.8945 26.791C18.8945 26.7427 18.8813 26.7031 18.8652 26.7031C18.8491 26.7031 18.8359 26.6768 18.8359 26.6445C18.8359 26.6123 18.8228 26.5859 18.8066 26.5859C18.7905 26.5859 18.7773 26.5464 18.7773 26.498C18.7773 26.4497 18.7642 26.4102 18.748 26.4102C18.7319 26.4102 18.7188 26.3838 18.7188 26.3516C18.7188 26.3193 18.7056 26.293 18.6895 26.293C18.6733 26.293 18.6602 26.2666 18.6602 26.2344C18.6602 26.2021 18.647 26.1758 18.6309 26.1758C18.6147 26.1758 18.6016 26.1523 18.6016 26.1237C18.6016 26.095 18.5752 26.0525 18.543 26.0293C18.5107 26.0061 18.4844 25.9636 18.4844 25.9349C18.4844 25.9063 18.4712 25.8828 18.4551 25.8828C18.439 25.8828 18.4258 25.8593 18.4258 25.8307C18.4258 25.802 18.3994 25.7596 18.3672 25.7363C18.335 25.7131 18.3086 25.6735 18.3086 25.6484C18.3086 25.6233 18.2822 25.5838 18.25 25.5605C18.2178 25.5373 18.1914 25.5001 18.1914 25.4779C18.1914 25.4558 18.1519 25.4006 18.1035 25.3555C18.0552 25.3103 18.0156 25.2581 18.0156 25.2395C18.0156 25.221 17.9365 25.1281 17.8398 25.0332C17.7432 24.9383 17.6641 24.8464 17.6641 24.829C17.6641 24.7877 17.4115 24.5352 17.3702 24.5352C17.3528 24.5352 17.2609 24.4561 17.166 24.3594C17.0711 24.2627 16.9794 24.1836 16.9623 24.1836C16.9174 24.1836 16.2578 23.5179 16.2578 23.4726C16.2578 23.4518 16.2314 23.4158 16.1992 23.3926C16.167 23.3693 16.1406 23.3269 16.1406 23.2982C16.1406 23.2696 16.1274 23.2461 16.1113 23.2461C16.0952 23.2461 16.082 23.2197 16.082 23.1875C16.082 23.1553 16.0688 23.1289 16.0527 23.1289C16.0366 23.1289 16.0234 23.1025 16.0234 23.0703C16.0234 23.0381 16.0103 23.0117 15.9941 23.0117C15.978 23.0117 15.9648 22.9722 15.9648 22.9238C15.9648 22.8755 15.9517 22.8359 15.9355 22.8359C15.9194 22.8359 15.9062 22.7964 15.9062 22.748C15.9062 22.6997 15.8931 22.6602 15.877 22.6602C15.8608 22.6602 15.8477 22.5942 15.8477 22.5137C15.8477 22.4331 15.8345 22.3672 15.8184 22.3672C15.7991 22.3672 15.7891 21.5273 15.7891 19.9062V17.4453H16.3457C16.6973 17.4453 16.9023 17.4561 16.9023 17.4746C16.9023 17.4907 16.9287 17.5039 16.9609 17.5039C16.9932 17.5039 17.0195 17.5171 17.0195 17.5332C17.0195 17.5493 17.0459 17.5625 17.0781 17.5625C17.1104 17.5625 17.1367 17.5757 17.1367 17.5918C17.1367 17.6079 17.1574 17.6211 17.1827 17.6211C17.2392 17.6211 17.3125 17.6907 17.3125 17.7444C17.3125 17.7661 17.3389 17.8029 17.3711 17.8262C17.4033 17.8494 17.4297 17.8919 17.4297 17.9205C17.4297 17.9492 17.4429 17.9727 17.459 17.9727C17.4751 17.9727 17.4883 17.999 17.4883 18.0312C17.4883 18.0635 17.5015 18.0898 17.5176 18.0898C17.5347 18.0898 17.5469 18.1875 17.5469 18.3242C17.5469 18.4609 17.5591 18.5586 17.5762 18.5586C17.5923 18.5586 17.6055 18.585 17.6055 18.6172C17.6055 18.6494 17.6187 18.6758 17.6348 18.6758C17.6509 18.6758 17.6641 18.7021 17.6641 18.7344C17.6641 18.7666 17.6772 18.793 17.6934 18.793C17.7095 18.793 17.7227 18.8133 17.7227 18.8382C17.7227 18.8969 17.8531 19.0273 17.9118 19.0273C17.9367 19.0273 17.957 19.0405 17.957 19.0566C17.957 19.0728 17.9834 19.0859 18.0156 19.0859C18.0479 19.0859 18.0742 19.0991 18.0742 19.1152C18.0742 19.1313 18.1006 19.1445 18.1328 19.1445C18.165 19.1445 18.1914 19.1577 18.1914 19.1738C18.1914 19.1909 18.2891 19.2031 18.4258 19.2031C18.5625 19.2031 18.6602 19.1909 18.6602 19.1738C18.6602 19.1577 18.6865 19.1445 18.7188 19.1445C18.751 19.1445 18.7773 19.1313 18.7773 19.1152C18.7773 19.0991 18.8037 19.0859 18.8359 19.0859C18.8682 19.0859 18.8945 19.0728 18.8945 19.0566C18.8945 19.0405 18.9149 19.0273 18.9398 19.0273C18.9984 19.0273 19.1289 18.8969 19.1289 18.8382C19.1289 18.8133 19.1421 18.793 19.1582 18.793C19.1743 18.793 19.1875 18.7666 19.1875 18.7344C19.1875 18.7021 19.2007 18.6758 19.2168 18.6758C19.2329 18.6758 19.2461 18.6494 19.2461 18.6172C19.2461 18.585 19.2593 18.5586 19.2754 18.5586C19.2948 18.5586 19.3047 16.4102 19.3047 12.1719C19.3047 7.93358 19.2948 5.78516 19.2754 5.78516C19.2593 5.78516 19.2461 5.75879 19.2461 5.72656C19.2461 5.69434 19.2329 5.66797 19.2168 5.66797C19.2007 5.66797 19.1875 5.6416 19.1875 5.60938C19.1875 5.57715 19.1743 5.55078 19.1582 5.55078C19.1421 5.55078 19.1289 5.53042 19.1289 5.50552C19.1289 5.44689 18.9984 5.31641 18.9398 5.31641C18.9149 5.31641 18.8945 5.30322 18.8945 5.28711C18.8945 5.271 18.8682 5.25781 18.8359 5.25781C18.8037 5.25781 18.7773 5.24463 18.7773 5.22852C18.7773 5.2124 18.751 5.19922 18.7188 5.19922C18.6865 5.19922 18.6602 5.18604 18.6602 5.16992C18.6602 5.1505 16.8047 5.14062 13.1523 5.14062C9.49999 5.14062 7.64453 5.1505 7.64453 5.16992ZM26.9805 5.16992C26.9805 5.18604 26.9541 5.19922 26.9219 5.19922C26.8896 5.19922 26.8633 5.2124 26.8633 5.22852C26.8633 5.24463 26.8369 5.25781 26.8047 5.25781C26.7725 5.25781 26.7461 5.271 26.7461 5.28711C26.7461 5.30322 26.7257 5.31641 26.7008 5.31641C26.6422 5.31641 26.5117 5.44689 26.5117 5.50552C26.5117 5.53042 26.4985 5.55078 26.4824 5.55078C26.4663 5.55078 26.4531 5.57715 26.4531 5.60938C26.4531 5.6416 26.4399 5.66797 26.4238 5.66797C26.4077 5.66797 26.3945 5.69434 26.3945 5.72656C26.3945 5.75879 26.3813 5.78516 26.3652 5.78516C26.3466 5.78516 26.3359 6.01953 26.3359 6.42969C26.3359 7.05468 26.3342 7.07422 26.2773 7.07422C26.2451 7.07422 26.2188 7.0874 26.2188 7.10352C26.2188 7.11963 26.1792 7.13281 26.1309 7.13281C26.0825 7.13281 26.043 7.146 26.043 7.16211C26.043 7.17822 26.0195 7.19141 25.9909 7.19141C25.9622 7.19141 25.9197 7.21777 25.8965 7.25C25.8733 7.28223 25.8337 7.30859 25.8086 7.30859C25.7835 7.30859 25.7439 7.33496 25.7207 7.36719C25.6975 7.39941 25.6614 7.42578 25.6406 7.42578C25.5912 7.42578 25.1055 7.91146 25.1055 7.96089C25.1055 7.98172 25.0791 8.01778 25.0469 8.04102C25.0146 8.06425 24.9883 8.1038 24.9883 8.12891C24.9883 8.15401 24.9619 8.19356 24.9297 8.2168C24.8975 8.24003 24.8711 8.28248 24.8711 8.31116C24.8711 8.33981 24.8579 8.36328 24.8418 8.36328C24.8257 8.36328 24.8125 8.40283 24.8125 8.45117C24.8125 8.49951 24.7993 8.53906 24.7832 8.53906C24.7671 8.53906 24.7539 8.56543 24.7539 8.59766C24.7539 8.62988 24.7407 8.65625 24.7246 8.65625C24.7085 8.65625 24.6953 8.70898 24.6953 8.77344C24.6953 8.83789 24.6821 8.89062 24.666 8.89062C24.6499 8.89062 24.6367 8.94336 24.6367 9.00781C24.6367 9.07227 24.6235 9.125 24.6074 9.125C24.5881 9.125 24.5781 10.2578 24.5781 12.4648V15.8047H23.1426C22.2051 15.8047 21.707 15.8149 21.707 15.834C21.707 15.8501 21.6807 15.8633 21.6484 15.8633C21.6162 15.8633 21.5898 15.8765 21.5898 15.8926C21.5898 15.9087 21.5635 15.9219 21.5312 15.9219C21.499 15.9219 21.4727 15.9351 21.4727 15.9512C21.4727 15.9673 21.4523 15.9805 21.4274 15.9805C21.3688 15.9805 21.2383 16.111 21.2383 16.1696C21.2383 16.1945 21.2251 16.2148 21.209 16.2148C21.1929 16.2148 21.1797 16.2412 21.1797 16.2734C21.1797 16.3057 21.1665 16.332 21.1504 16.332C21.1343 16.332 21.1211 16.3584 21.1211 16.3906C21.1211 16.4229 21.1079 16.4492 21.0918 16.4492C21.0725 16.4492 21.0625 17.1328 21.0625 18.4414C21.0625 19.75 21.0725 20.4336 21.0918 20.4336C21.1079 20.4336 21.1211 20.46 21.1211 20.4922C21.1211 20.5244 21.1343 20.5508 21.1504 20.5508C21.1665 20.5508 21.1797 20.5771 21.1797 20.6094C21.1797 20.6416 21.1929 20.668 21.209 20.668C21.2251 20.668 21.2383 20.6883 21.2383 20.7132C21.2383 20.7719 21.3688 20.9023 21.4274 20.9023C21.4523 20.9023 21.4727 20.9155 21.4727 20.9316C21.4727 20.9478 21.499 20.9609 21.5312 20.9609C21.5635 20.9609 21.5898 20.9741 21.5898 20.9902C21.5898 21.0063 21.6162 21.0195 21.6484 21.0195C21.6807 21.0195 21.707 21.0327 21.707 21.0488C21.707 21.0673 21.9121 21.0781 22.2637 21.0781H22.8203V22.5137C22.8203 23.4512 22.8305 23.9492 22.8496 23.9492C22.8657 23.9492 22.8789 23.9756 22.8789 24.0078C22.8789 24.04 22.8921 24.0664 22.9082 24.0664C22.9243 24.0664 22.9375 24.0928 22.9375 24.125C22.9375 24.1572 22.9507 24.1836 22.9668 24.1836C22.9829 24.1836 22.9961 24.204 22.9961 24.2289C22.9961 24.2875 23.1266 24.418 23.1852 24.418C23.2101 24.418 23.2305 24.4312 23.2305 24.4473C23.2305 24.4634 23.2568 24.4766 23.2891 24.4766C23.3213 24.4766 23.3477 24.4897 23.3477 24.5059C23.3477 24.522 23.374 24.5352 23.4062 24.5352C23.4385 24.5352 23.4648 24.5483 23.4648 24.5645C23.4648 24.583 23.6699 24.5938 24.0215 24.5938H24.5781V27.7871C24.5781 29.8965 24.5881 30.9805 24.6074 30.9805C24.6235 30.9805 24.6367 31.0068 24.6367 31.0391C24.6367 31.0713 24.6499 31.0977 24.666 31.0977C24.6821 31.0977 24.6953 31.124 24.6953 31.1562C24.6953 31.1885 24.7085 31.2148 24.7246 31.2148C24.7407 31.2148 24.7539 31.2352 24.7539 31.2601C24.7539 31.3187 24.8844 31.4492 24.943 31.4492C24.9679 31.4492 24.9883 31.4624 24.9883 31.4785C24.9883 31.4946 25.0146 31.5078 25.0469 31.5078C25.0791 31.5078 25.1055 31.521 25.1055 31.5371C25.1055 31.5532 25.1318 31.5664 25.1641 31.5664C25.1963 31.5664 25.2227 31.5796 25.2227 31.5957C25.2227 31.6148 25.7207 31.625 26.6582 31.625H28.0938V32.1816C28.0938 32.5332 28.083 32.7383 28.0645 32.7383C28.0483 32.7383 28.0352 32.7646 28.0352 32.7969C28.0352 32.8291 28.022 32.8555 28.0059 32.8555C27.9897 32.8555 27.9766 32.8789 27.9766 32.9076C27.9766 32.9363 27.9502 32.9787 27.918 33.002C27.8857 33.0252 27.8594 33.062 27.8594 33.0837C27.8594 33.1374 27.7861 33.207 27.7296 33.207C27.7043 33.207 27.6836 33.2202 27.6836 33.2363C27.6836 33.2524 27.6572 33.2656 27.625 33.2656C27.5928 33.2656 27.5664 33.2788 27.5664 33.2949C27.5664 33.311 27.54 33.3242 27.5078 33.3242C27.4756 33.3242 27.4492 33.3374 27.4492 33.3535C27.4492 33.3725 27.0586 33.3828 26.3359 33.3828C25.6133 33.3828 25.2227 33.3931 25.2227 33.4121C25.2227 33.4282 25.1963 33.4414 25.1641 33.4414C25.1318 33.4414 25.1055 33.4546 25.1055 33.4707C25.1055 33.4868 25.0791 33.5 25.0469 33.5C25.0146 33.5 24.9883 33.5132 24.9883 33.5293C24.9883 33.5454 24.9679 33.5586 24.943 33.5586C24.8844 33.5586 24.7539 33.6891 24.7539 33.7477C24.7539 33.7726 24.7407 33.793 24.7246 33.793C24.7085 33.793 24.6953 33.8193 24.6953 33.8516C24.6953 33.8838 24.6821 33.9102 24.666 33.9102C24.6499 33.9102 24.6367 33.9365 24.6367 33.9688C24.6367 34.001 24.6235 34.0273 24.6074 34.0273C24.5903 34.0273 24.5781 34.125 24.5781 34.2617C24.5781 34.3984 24.5903 34.4961 24.6074 34.4961C24.6235 34.4961 24.6367 34.5225 24.6367 34.5547C24.6367 34.5869 24.6499 34.6133 24.666 34.6133C24.6821 34.6133 24.6953 34.6396 24.6953 34.6719C24.6953 34.7041 24.7085 34.7305 24.7246 34.7305C24.7407 34.7305 24.7539 34.7508 24.7539 34.7757C24.7539 34.8344 24.8844 34.9648 24.943 34.9648C24.9679 34.9648 24.9883 34.978 24.9883 34.9941C24.9883 35.0103 25.0146 35.0234 25.0469 35.0234C25.0791 35.0234 25.1055 35.0366 25.1055 35.0527C25.1055 35.0688 25.1318 35.082 25.1641 35.082C25.1963 35.082 25.2227 35.0952 25.2227 35.1113C25.2227 35.1304 25.6328 35.1406 26.3945 35.1406C27.1562 35.1406 27.5664 35.1304 27.5664 35.1113C27.5664 35.0952 27.6323 35.082 27.7129 35.082C27.7935 35.082 27.8594 35.0688 27.8594 35.0527C27.8594 35.0366 27.9121 35.0234 27.9766 35.0234C28.041 35.0234 28.0938 35.0103 28.0938 34.9941C28.0938 34.978 28.1201 34.9648 28.1523 34.9648C28.1846 34.9648 28.2109 34.9517 28.2109 34.9355C28.2109 34.9194 28.2373 34.9062 28.2695 34.9062C28.3018 34.9062 28.3281 34.8931 28.3281 34.877C28.3281 34.8608 28.3545 34.8477 28.3867 34.8477C28.4189 34.8477 28.4453 34.8345 28.4453 34.8184C28.4453 34.8022 28.4717 34.7891 28.5039 34.7891C28.5361 34.7891 28.5625 34.7759 28.5625 34.7598C28.5625 34.7437 28.586 34.7305 28.6146 34.7305C28.6433 34.7305 28.6858 34.7041 28.709 34.6719C28.7322 34.6396 28.7683 34.6133 28.7891 34.6133C28.8385 34.6133 29.3242 34.1276 29.3242 34.0782C29.3242 34.0573 29.3506 34.0213 29.3828 33.998C29.415 33.9748 29.4414 33.9324 29.4414 33.9037C29.4414 33.875 29.4546 33.8516 29.4707 33.8516C29.4868 33.8516 29.5 33.8252 29.5 33.793C29.5 33.7607 29.5132 33.7344 29.5293 33.7344C29.5454 33.7344 29.5586 33.708 29.5586 33.6758C29.5586 33.6436 29.5718 33.6172 29.5879 33.6172C29.604 33.6172 29.6172 33.5908 29.6172 33.5586C29.6172 33.5264 29.6304 33.5 29.6465 33.5C29.6626 33.5 29.6758 33.4736 29.6758 33.4414C29.6758 33.4092 29.689 33.3828 29.7051 33.3828C29.7212 33.3828 29.7344 33.3301 29.7344 33.2656C29.7344 33.2012 29.7476 33.1484 29.7637 33.1484C29.7798 33.1484 29.793 33.0825 29.793 33.002C29.793 32.9214 29.8062 32.8555 29.8223 32.8555C29.8417 32.8555 29.8516 31.459 29.8516 28.7246V24.5938H30.4082C30.7598 24.5938 30.9648 24.583 30.9648 24.5645C30.9648 24.5483 30.9912 24.5352 31.0234 24.5352C31.0557 24.5352 31.082 24.522 31.082 24.5059C31.082 24.4897 31.1084 24.4766 31.1406 24.4766C31.1729 24.4766 31.1992 24.4634 31.1992 24.4473C31.1992 24.4312 31.2196 24.418 31.2445 24.418C31.3031 24.418 31.4336 24.2875 31.4336 24.2289C31.4336 24.204 31.4468 24.1836 31.4629 24.1836C31.479 24.1836 31.4922 24.1572 31.4922 24.125C31.4922 24.0928 31.5054 24.0664 31.5215 24.0664C31.5376 24.0664 31.5508 24.04 31.5508 24.0078C31.5508 23.9756 31.564 23.9492 31.5801 23.9492C31.5992 23.9492 31.6094 23.4512 31.6094 22.5137V21.0781H32.166C32.5176 21.0781 32.7227 21.0673 32.7227 21.0488C32.7227 21.0327 32.749 21.0195 32.7812 21.0195C32.8135 21.0195 32.8398 21.0063 32.8398 20.9902C32.8398 20.9741 32.8662 20.9609 32.8984 20.9609C32.9307 20.9609 32.957 20.9478 32.957 20.9316C32.957 20.9155 32.9774 20.9023 33.0023 20.9023C33.0609 20.9023 33.1914 20.7719 33.1914 20.7132C33.1914 20.6883 33.2046 20.668 33.2207 20.668C33.2368 20.668 33.25 20.6416 33.25 20.6094C33.25 20.5771 33.2632 20.5508 33.2793 20.5508C33.2954 20.5508 33.3086 20.5244 33.3086 20.4922C33.3086 20.46 33.3218 20.4336 33.3379 20.4336C33.3571 20.4336 33.3672 19.75 33.3672 18.4414C33.3672 17.1328 33.3571 16.4492 33.3379 16.4492C33.3218 16.4492 33.3086 16.4229 33.3086 16.3906C33.3086 16.3584 33.2954 16.332 33.2793 16.332C33.2632 16.332 33.25 16.3057 33.25 16.2734C33.25 16.2412 33.2368 16.2148 33.2207 16.2148C33.2046 16.2148 33.1914 16.1945 33.1914 16.1696C33.1914 16.111 33.0609 15.9805 33.0023 15.9805C32.9774 15.9805 32.957 15.9673 32.957 15.9512C32.957 15.9351 32.9307 15.9219 32.8984 15.9219C32.8662 15.9219 32.8398 15.9087 32.8398 15.8926C32.8398 15.8765 32.8135 15.8633 32.7812 15.8633C32.749 15.8633 32.7227 15.8501 32.7227 15.834C32.7227 15.8149 32.2246 15.8047 31.2871 15.8047H29.8516V12.4648C29.8516 10.2578 29.8416 9.125 29.8223 9.125C29.8062 9.125 29.793 9.07227 29.793 9.00781C29.793 8.94336 29.7798 8.89062 29.7637 8.89062C29.7476 8.89062 29.7344 8.83789 29.7344 8.77344C29.7344 8.70898 29.7212 8.65625 29.7051 8.65625C29.689 8.65625 29.6758 8.62988 29.6758 8.59766C29.6758 8.56543 29.6626 8.53906 29.6465 8.53906C29.6304 8.53906 29.6172 8.50241 29.6172 8.45765C29.6172 8.40983 29.593 8.3588 29.5586 8.33398C29.5264 8.31075 29.5 8.2683 29.5 8.23962C29.5 8.21097 29.4868 8.1875 29.4707 8.1875C29.4546 8.1875 29.4414 8.16403 29.4414 8.13538C29.4414 8.1067 29.415 8.06425 29.3828 8.04102C29.3506 8.01778 29.3242 7.98172 29.3242 7.96089C29.3242 7.91146 28.8385 7.42578 28.7891 7.42578C28.7683 7.42578 28.7322 7.39941 28.709 7.36719C28.6858 7.33496 28.6462 7.30859 28.6211 7.30859C28.596 7.30859 28.5564 7.28223 28.5332 7.25C28.51 7.21777 28.4675 7.19141 28.4388 7.19141C28.4102 7.19141 28.3867 7.17822 28.3867 7.16211C28.3867 7.146 28.3472 7.13281 28.2988 7.13281C28.2505 7.13281 28.2109 7.11963 28.2109 7.10352C28.2109 7.0874 28.1846 7.07422 28.1523 7.07422C28.0955 7.07422 28.0938 7.05468 28.0938 6.42969C28.0938 6.01953 28.0831 5.78516 28.0645 5.78516C28.0483 5.78516 28.0352 5.75879 28.0352 5.72656C28.0352 5.69434 28.022 5.66797 28.0059 5.66797C27.9897 5.66797 27.9766 5.6416 27.9766 5.60938C27.9766 5.57715 27.9634 5.55078 27.9473 5.55078C27.9312 5.55078 27.918 5.53042 27.918 5.50552C27.918 5.44689 27.7875 5.31641 27.7289 5.31641C27.704 5.31641 27.6836 5.30322 27.6836 5.28711C27.6836 5.271 27.6572 5.25781 27.625 5.25781C27.5928 5.25781 27.5664 5.24463 27.5664 5.22852C27.5664 5.2124 27.54 5.19922 27.5078 5.19922C27.4756 5.19922 27.4492 5.18604 27.4492 5.16992C27.4492 5.15284 27.3516 5.14062 27.2148 5.14062C27.0781 5.14062 26.9805 5.15284 26.9805 5.16992ZM17.5469 7.77734V8.65625H13.1523H8.75781V7.77734V6.89844H13.1523H17.5469V7.77734ZM27.4492 8.68555C27.4492 8.70166 27.4756 8.71484 27.5078 8.71484C27.54 8.71484 27.5664 8.72803 27.5664 8.74414C27.5664 8.76025 27.5928 8.77344 27.625 8.77344C27.6572 8.77344 27.6836 8.78662 27.6836 8.80273C27.6836 8.81885 27.704 8.83203 27.7289 8.83203C27.7875 8.83203 27.918 8.96252 27.918 9.02114C27.918 9.04605 27.9312 9.06641 27.9473 9.06641C27.9634 9.06641 27.9766 9.09277 27.9766 9.125C27.9766 9.15723 27.9897 9.18359 28.0059 9.18359C28.022 9.18359 28.0352 9.20996 28.0352 9.24219C28.0352 9.27441 28.0483 9.30078 28.0645 9.30078C28.0838 9.30078 28.0938 10.4043 28.0938 12.5527V15.8047H27.2148H26.3359V12.5527C26.3359 10.4043 26.3459 9.30078 26.3652 9.30078C26.3813 9.30078 26.3945 9.27441 26.3945 9.24219C26.3945 9.20996 26.4077 9.18359 26.4238 9.18359C26.4399 9.18359 26.4531 9.16013 26.4531 9.13147C26.4531 9.10279 26.4795 9.06034 26.5117 9.03711C26.5439 9.01388 26.5703 8.97143 26.5703 8.94274C26.5703 8.9123 26.592 8.89062 26.6224 8.89062C26.6511 8.89062 26.6936 8.86426 26.7168 8.83203C26.74 8.7998 26.7825 8.77344 26.8112 8.77344C26.8398 8.77344 26.8633 8.76025 26.8633 8.74414C26.8633 8.72803 26.8896 8.71484 26.9219 8.71484C26.9541 8.71484 26.9805 8.70166 26.9805 8.68555C26.9805 8.66847 27.0781 8.65625 27.2148 8.65625C27.3516 8.65625 27.4492 8.66847 27.4492 8.68555ZM17.5469 13.1094V15.8047H17.459C17.4106 15.8047 17.3711 15.7915 17.3711 15.7754C17.3711 15.7591 17.293 15.7461 17.1953 15.7461C17.0977 15.7461 17.0195 15.7331 17.0195 15.7168C17.0195 15.6974 15.7012 15.6875 13.123 15.6875C10.5449 15.6875 9.22656 15.6974 9.22656 15.7168C9.22656 15.7329 9.16064 15.7461 9.08008 15.7461C8.99951 15.7461 8.93359 15.7593 8.93359 15.7754C8.93359 15.7915 8.89404 15.8047 8.8457 15.8047H8.75781V13.1094V10.4141H13.1523H17.5469V13.1094ZM12.918 12.2012C12.918 12.2173 12.8916 12.2305 12.8594 12.2305C12.8271 12.2305 12.8008 12.2437 12.8008 12.2598C12.8008 12.2759 12.7744 12.2891 12.7422 12.2891C12.71 12.2891 12.6836 12.3022 12.6836 12.3184C12.6836 12.3345 12.6632 12.3477 12.6383 12.3477C12.6134 12.3477 12.5607 12.38 12.5211 12.4196C12.4816 12.4591 12.4492 12.5119 12.4492 12.5368C12.4492 12.5617 12.436 12.582 12.4199 12.582C12.4038 12.582 12.3906 12.6084 12.3906 12.6406C12.3906 12.6729 12.3774 12.6992 12.3613 12.6992C12.3452 12.6992 12.332 12.7256 12.332 12.7578C12.332 12.79 12.3188 12.8164 12.3027 12.8164C12.2857 12.8164 12.2734 12.9141 12.2734 13.0508C12.2734 13.1875 12.2857 13.2852 12.3027 13.2852C12.3188 13.2852 12.332 13.3115 12.332 13.3438C12.332 13.376 12.3452 13.4023 12.3613 13.4023C12.3774 13.4023 12.3906 13.4287 12.3906 13.4609C12.3906 13.4932 12.4038 13.5195 12.4199 13.5195C12.436 13.5195 12.4492 13.5399 12.4492 13.5648C12.4492 13.6234 12.5797 13.7539 12.6383 13.7539C12.6632 13.7539 12.6836 13.7671 12.6836 13.7832C12.6836 13.7993 12.71 13.8125 12.7422 13.8125C12.7744 13.8125 12.8008 13.8257 12.8008 13.8418C12.8008 13.8579 12.8271 13.8711 12.8594 13.8711C12.8916 13.8711 12.918 13.8843 12.918 13.9004C12.918 13.9175 13.0156 13.9297 13.1523 13.9297C13.2891 13.9297 13.3867 13.9175 13.3867 13.9004C13.3867 13.8843 13.4131 13.8711 13.4453 13.8711C13.4775 13.8711 13.5039 13.8579 13.5039 13.8418C13.5039 13.8257 13.5303 13.8125 13.5625 13.8125C13.5947 13.8125 13.6211 13.7993 13.6211 13.7832C13.6211 13.7671 13.6415 13.7539 13.6664 13.7539C13.6913 13.7539 13.744 13.7215 13.7835 13.682C13.8231 13.6424 13.8555 13.5897 13.8555 13.5648C13.8555 13.5399 13.8687 13.5195 13.8848 13.5195C13.9009 13.5195 13.9141 13.4932 13.9141 13.4609C13.9141 13.4287 13.9272 13.4023 13.9434 13.4023C13.9595 13.4023 13.9727 13.376 13.9727 13.3438C13.9727 13.3115 13.9858 13.2852 14.002 13.2852C14.019 13.2852 14.0312 13.1875 14.0312 13.0508C14.0312 12.9141 14.019 12.8164 14.002 12.8164C13.9858 12.8164 13.9727 12.79 13.9727 12.7578C13.9727 12.7256 13.9595 12.6992 13.9434 12.6992C13.9272 12.6992 13.9141 12.6729 13.9141 12.6406C13.9141 12.6084 13.9009 12.582 13.8848 12.582C13.8687 12.582 13.8555 12.5617 13.8555 12.5368C13.8555 12.4781 13.725 12.3477 13.6664 12.3477C13.6415 12.3477 13.6211 12.3345 13.6211 12.3184C13.6211 12.3022 13.5947 12.2891 13.5625 12.2891C13.5303 12.2891 13.5039 12.2759 13.5039 12.2598C13.5039 12.2437 13.4775 12.2305 13.4453 12.2305C13.4131 12.2305 13.3867 12.2173 13.3867 12.2012C13.3867 12.1841 13.2891 12.1719 13.1523 12.1719C13.0156 12.1719 12.918 12.1841 12.918 12.2012ZM14.0312 19.9648C14.0312 21.625 14.0412 22.4844 14.0605 22.4844C14.0768 22.4844 14.0898 22.5625 14.0898 22.6602C14.0898 22.7578 14.1029 22.8359 14.1191 22.8359C14.1353 22.8359 14.1484 22.9019 14.1484 22.9824C14.1484 23.063 14.1616 23.1289 14.1777 23.1289C14.1938 23.1289 14.207 23.1685 14.207 23.2168C14.207 23.2651 14.2202 23.3047 14.2363 23.3047C14.2524 23.3047 14.2656 23.3442 14.2656 23.3926C14.2656 23.4409 14.2788 23.4805 14.2949 23.4805C14.311 23.4805 14.3242 23.5068 14.3242 23.5391C14.3242 23.5713 14.3374 23.5977 14.3535 23.5977C14.3696 23.5977 14.3828 23.6372 14.3828 23.6855C14.3828 23.7339 14.396 23.7734 14.4121 23.7734C14.4282 23.7734 14.4414 23.7998 14.4414 23.832C14.4414 23.8643 14.4546 23.8906 14.4707 23.8906C14.4868 23.8906 14.5 23.917 14.5 23.9492C14.5 23.9814 14.5132 24.0078 14.5293 24.0078C14.5454 24.0078 14.5586 24.0342 14.5586 24.0664C14.5586 24.0986 14.5718 24.125 14.5879 24.125C14.604 24.125 14.6172 24.1485 14.6172 24.1771C14.6172 24.2058 14.6436 24.2483 14.6758 24.2715C14.708 24.2947 14.7344 24.3343 14.7344 24.3594C14.7344 24.3845 14.7607 24.424 14.793 24.4473C14.8252 24.4705 14.8516 24.5077 14.8516 24.5299C14.8516 24.5521 14.8911 24.6072 14.9395 24.6523C14.9878 24.6975 15.0273 24.7491 15.0273 24.767C15.0273 24.8091 15.5731 25.3555 15.6152 25.3555C15.6328 25.3555 15.6978 25.4082 15.7598 25.4727C15.8217 25.5371 15.8867 25.5898 15.9043 25.5898C15.9463 25.5898 16.6094 26.2535 16.6094 26.2955C16.6094 26.3134 16.6489 26.365 16.6973 26.4102C16.7456 26.4553 16.7852 26.5104 16.7852 26.5326C16.7852 26.5548 16.8115 26.592 16.8438 26.6152C16.876 26.6385 16.9023 26.6809 16.9023 26.7096C16.9023 26.7383 16.9155 26.7617 16.9316 26.7617C16.9478 26.7617 16.9609 26.7881 16.9609 26.8203C16.9609 26.8525 16.9741 26.8789 16.9902 26.8789C17.0063 26.8789 17.0195 26.9024 17.0195 26.931C17.0195 26.9597 17.0459 27.0022 17.0781 27.0254C17.1125 27.0502 17.1367 27.1012 17.1367 27.1491C17.1367 27.1938 17.1499 27.2305 17.166 27.2305C17.1821 27.2305 17.1953 27.2568 17.1953 27.2891C17.1953 27.3213 17.2085 27.3477 17.2246 27.3477C17.2407 27.3477 17.2539 27.3872 17.2539 27.4355C17.2539 27.4839 17.2671 27.5234 17.2832 27.5234C17.2993 27.5234 17.3125 27.5498 17.3125 27.582C17.3125 27.6143 17.3257 27.6406 17.3418 27.6406C17.3579 27.6406 17.3711 27.6934 17.3711 27.7578C17.3711 27.8223 17.3843 27.875 17.4004 27.875C17.4165 27.875 17.4297 27.9277 17.4297 27.9922C17.4297 28.0566 17.4429 28.1094 17.459 28.1094C17.4757 28.1094 17.4883 28.1973 17.4883 28.3145C17.4883 28.4316 17.5008 28.5195 17.5176 28.5195C17.5359 28.5195 17.5469 28.6953 17.5469 28.9883C17.5469 29.2812 17.5359 29.457 17.5176 29.457C17.5008 29.457 17.4883 29.5449 17.4883 29.6621C17.4883 29.7793 17.4757 29.8672 17.459 29.8672C17.4429 29.8672 17.4297 29.9199 17.4297 29.9844C17.4297 30.0488 17.4165 30.1016 17.4004 30.1016C17.3843 30.1016 17.3711 30.1543 17.3711 30.2188C17.3711 30.2832 17.3579 30.3359 17.3418 30.3359C17.3257 30.3359 17.3125 30.3755 17.3125 30.4238C17.3125 30.4722 17.2993 30.5117 17.2832 30.5117C17.2671 30.5117 17.2539 30.5381 17.2539 30.5703C17.2539 30.6025 17.2407 30.6289 17.2246 30.6289C17.2085 30.6289 17.1953 30.6553 17.1953 30.6875C17.1953 30.7197 17.1821 30.7461 17.166 30.7461C17.1499 30.7461 17.1367 30.7856 17.1367 30.834C17.1367 30.8823 17.1235 30.9219 17.1074 30.9219C17.0913 30.9219 17.0781 30.9453 17.0781 30.974C17.0781 31.0027 17.0518 31.0451 17.0195 31.0684C16.9873 31.0916 16.9609 31.134 16.9609 31.1627C16.9609 31.1914 16.9478 31.2148 16.9316 31.2148C16.9155 31.2148 16.9023 31.2383 16.9023 31.267C16.9023 31.2956 16.876 31.3381 16.8438 31.3613C16.8115 31.3846 16.7852 31.4241 16.7852 31.4492C16.7852 31.4743 16.7588 31.5139 16.7266 31.5371C16.6943 31.5603 16.668 31.5969 16.668 31.6184C16.668 31.6399 16.5889 31.7352 16.4922 31.8301C16.3955 31.925 16.3164 32.0175 16.3164 32.0356C16.3164 32.0783 16.2423 32.1523 16.1997 32.1523C16.1815 32.1523 16.089 32.2314 15.9941 32.3281C15.8992 32.4248 15.804 32.5039 15.7825 32.5039C15.761 32.5039 15.7244 32.5303 15.7012 32.5625C15.6779 32.5947 15.6384 32.6211 15.6133 32.6211C15.5882 32.6211 15.5486 32.6475 15.5254 32.6797C15.5022 32.7119 15.4597 32.7383 15.431 32.7383C15.4024 32.7383 15.3789 32.7515 15.3789 32.7676C15.3789 32.7837 15.3554 32.7969 15.3268 32.7969C15.2981 32.7969 15.2557 32.8232 15.2324 32.8555C15.2092 32.8877 15.1667 32.9141 15.1381 32.9141C15.1094 32.9141 15.0859 32.9272 15.0859 32.9434C15.0859 32.9595 15.0464 32.9727 14.998 32.9727C14.9497 32.9727 14.9102 32.9858 14.9102 33.002C14.9102 33.0181 14.8838 33.0312 14.8516 33.0312C14.8193 33.0312 14.793 33.0444 14.793 33.0605C14.793 33.0767 14.7666 33.0898 14.7344 33.0898C14.7021 33.0898 14.6758 33.103 14.6758 33.1191C14.6758 33.1353 14.6362 33.1484 14.5879 33.1484C14.5396 33.1484 14.5 33.1616 14.5 33.1777C14.5 33.1938 14.4473 33.207 14.3828 33.207C14.3184 33.207 14.2656 33.2202 14.2656 33.2363C14.2656 33.2524 14.2129 33.2656 14.1484 33.2656C14.084 33.2656 14.0312 33.2788 14.0312 33.2949C14.0312 33.3112 13.9531 33.3242 13.8555 33.3242C13.7578 33.3242 13.6797 33.3372 13.6797 33.3535C13.6797 33.3719 13.4942 33.3828 13.1816 33.3828C12.8691 33.3828 12.6836 33.3719 12.6836 33.3535C12.6836 33.3368 12.5957 33.3242 12.4785 33.3242C12.3613 33.3242 12.2734 33.3117 12.2734 33.2949C12.2734 33.2788 12.2207 33.2656 12.1562 33.2656C12.0918 33.2656 12.0391 33.2524 12.0391 33.2363C12.0391 33.2202 11.9863 33.207 11.9219 33.207C11.8574 33.207 11.8047 33.1938 11.8047 33.1777C11.8047 33.1616 11.7651 33.1484 11.7168 33.1484C11.6685 33.1484 11.6289 33.1353 11.6289 33.1191C11.6289 33.103 11.6025 33.0898 11.5703 33.0898C11.5381 33.0898 11.5117 33.0767 11.5117 33.0605C11.5117 33.0444 11.4854 33.0312 11.4531 33.0312C11.4209 33.0312 11.3945 33.0181 11.3945 33.002C11.3945 32.9858 11.355 32.9727 11.3066 32.9727C11.2583 32.9727 11.2188 32.9595 11.2188 32.9434C11.2188 32.9272 11.1953 32.9141 11.1666 32.9141C11.1379 32.9141 11.0955 32.8877 11.0723 32.8555C11.049 32.8232 11.0066 32.7969 10.9779 32.7969C10.9492 32.7969 10.9258 32.7837 10.9258 32.7676C10.9258 32.7515 10.9023 32.7383 10.8737 32.7383C10.845 32.7383 10.8025 32.7119 10.7793 32.6797C10.7561 32.6475 10.7165 32.6211 10.6914 32.6211C10.6663 32.6211 10.6267 32.5947 10.6035 32.5625C10.5803 32.5303 10.5443 32.5039 10.5236 32.5039C10.4743 32.5039 9.63672 31.6663 9.63672 31.6171C9.63672 31.5963 9.61035 31.5603 9.57812 31.5371C9.5459 31.5139 9.51953 31.4743 9.51953 31.4492C9.51953 31.4241 9.49316 31.3846 9.46094 31.3613C9.42871 31.3381 9.40234 31.2956 9.40234 31.267C9.40234 31.2383 9.38916 31.2148 9.37305 31.2148C9.35693 31.2148 9.34375 31.1914 9.34375 31.1627C9.34375 31.134 9.31738 31.0916 9.28516 31.0684C9.25293 31.0451 9.22656 31.0027 9.22656 30.974C9.22656 30.9453 9.21338 30.9219 9.19727 30.9219C9.18115 30.9219 9.16797 30.8823 9.16797 30.834C9.16797 30.7856 9.15479 30.7461 9.13867 30.7461C9.12256 30.7461 9.10938 30.7197 9.10938 30.6875C9.10938 30.6553 9.09619 30.6289 9.08008 30.6289C9.06396 30.6289 9.05078 30.6025 9.05078 30.5703C9.05078 30.5381 9.0376 30.5117 9.02148 30.5117C9.00537 30.5117 8.99219 30.4722 8.99219 30.4238C8.99219 30.3755 8.979 30.3359 8.96289 30.3359C8.94678 30.3359 8.93359 30.2832 8.93359 30.2188C8.93359 30.1543 8.92041 30.1016 8.9043 30.1016C8.88818 30.1016 8.875 30.0488 8.875 29.9844C8.875 29.9199 8.86182 29.8672 8.8457 29.8672C8.82941 29.8672 8.81641 29.7891 8.81641 29.6914C8.81641 29.5938 8.8034 29.5156 8.78711 29.5156C8.76865 29.5156 8.75781 29.3203 8.75781 28.9883C8.75781 28.6563 8.76865 28.4609 8.78711 28.4609C8.8034 28.4609 8.81641 28.3828 8.81641 28.2852C8.81641 28.1875 8.82941 28.1094 8.8457 28.1094C8.86182 28.1094 8.875 28.0566 8.875 27.9922C8.875 27.9277 8.88818 27.875 8.9043 27.875C8.92041 27.875 8.93359 27.8223 8.93359 27.7578C8.93359 27.6934 8.94678 27.6406 8.96289 27.6406C8.979 27.6406 8.99219 27.6011 8.99219 27.5527C8.99219 27.5044 9.00537 27.4648 9.02148 27.4648C9.0376 27.4648 9.05078 27.4385 9.05078 27.4062C9.05078 27.374 9.06396 27.3477 9.08008 27.3477C9.09619 27.3477 9.10938 27.3213 9.10938 27.2891C9.10938 27.2568 9.12256 27.2305 9.13867 27.2305C9.15479 27.2305 9.16797 27.1909 9.16797 27.1426C9.16797 27.0942 9.18115 27.0547 9.19727 27.0547C9.21338 27.0547 9.22656 27.0312 9.22656 27.0026C9.22656 26.9739 9.25293 26.9314 9.28516 26.9082C9.31738 26.885 9.34375 26.8425 9.34375 26.8138C9.34375 26.7852 9.35693 26.7617 9.37305 26.7617C9.38916 26.7617 9.40234 26.7383 9.40234 26.7096C9.40234 26.6809 9.42871 26.6385 9.46094 26.6152C9.49316 26.592 9.51953 26.5548 9.51953 26.5326C9.51953 26.5104 9.55908 26.4553 9.60742 26.4102C9.65576 26.365 9.69531 26.3134 9.69531 26.2955C9.69531 26.2531 10.3586 25.5898 10.401 25.5898C10.4189 25.5898 10.4705 25.5503 10.5156 25.502C10.5608 25.4536 10.6123 25.4141 10.6302 25.4141C10.6759 25.4141 11.3945 24.6905 11.3945 24.6445C11.3945 24.6237 11.4209 24.5877 11.4531 24.5645C11.4854 24.5412 11.5117 24.5017 11.5117 24.4766C11.5117 24.4515 11.5381 24.4119 11.5703 24.3887C11.6025 24.3654 11.6289 24.3259 11.6289 24.3008C11.6289 24.2757 11.6553 24.2361 11.6875 24.2129C11.7197 24.1897 11.7461 24.1472 11.7461 24.1185C11.7461 24.0899 11.7593 24.0664 11.7754 24.0664C11.7915 24.0664 11.8047 24.04 11.8047 24.0078C11.8047 23.9756 11.8179 23.9492 11.834 23.9492C11.8501 23.9492 11.8633 23.9229 11.8633 23.8906C11.8633 23.8584 11.8765 23.832 11.8926 23.832C11.9087 23.832 11.9219 23.7925 11.9219 23.7441C11.9219 23.6958 11.9351 23.6562 11.9512 23.6562C11.9673 23.6562 11.9805 23.6299 11.9805 23.5977C11.9805 23.5654 11.9937 23.5391 12.0098 23.5391C12.0259 23.5391 12.0391 23.4995 12.0391 23.4512C12.0391 23.4028 12.0522 23.3633 12.0684 23.3633C12.0845 23.3633 12.0977 23.3105 12.0977 23.2461C12.0977 23.1816 12.1108 23.1289 12.127 23.1289C12.1431 23.1289 12.1562 23.0762 12.1562 23.0117C12.1562 22.9473 12.1694 22.8945 12.1855 22.8945C12.2018 22.8945 12.2148 22.8164 12.2148 22.7188C12.2148 22.6211 12.2279 22.543 12.2441 22.543C12.2634 22.543 12.2734 21.6738 12.2734 19.9941V17.4453H13.1523H14.0312V19.9648ZM26.3359 18.4414V19.3203H24.5781H22.8203V18.4414V17.5625H24.5781H26.3359V18.4414ZM31.6094 18.4414V19.3203H29.8516H28.0938V18.4414V17.5625H29.8516H31.6094V18.4414ZM29.8516 21.957V22.8359H27.2148H24.5781V21.957V21.0781H27.2148H29.8516V21.957ZM28.0938 25.4727V26.3516H27.2148H26.3359V25.4727V24.5938H27.2148H28.0938V25.4727ZM12.8008 26.3809C12.8008 26.397 12.7349 26.4102 12.6543 26.4102C12.5737 26.4102 12.5078 26.4233 12.5078 26.4395C12.5078 26.4556 12.4551 26.4688 12.3906 26.4688C12.3262 26.4688 12.2734 26.4819 12.2734 26.498C12.2734 26.5142 12.2471 26.5273 12.2148 26.5273C12.1826 26.5273 12.1562 26.5405 12.1562 26.5566C12.1562 26.5728 12.1299 26.5859 12.0977 26.5859C12.0654 26.5859 12.0391 26.5991 12.0391 26.6152C12.0391 26.6313 12.0024 26.6445 11.9576 26.6445C11.9098 26.6445 11.8588 26.6687 11.834 26.7031C11.8108 26.7354 11.7712 26.7617 11.7461 26.7617C11.721 26.7617 11.6814 26.7881 11.6582 26.8203C11.635 26.8525 11.5989 26.8789 11.5781 26.8789C11.5287 26.8789 11.043 27.3646 11.043 27.414C11.043 27.4348 11.0166 27.4709 10.9844 27.4941C10.9521 27.5174 10.9258 27.5569 10.9258 27.582C10.9258 27.6071 10.8994 27.6467 10.8672 27.6699C10.835 27.6932 10.8086 27.7356 10.8086 27.7643C10.8086 27.7929 10.7954 27.8164 10.7793 27.8164C10.7632 27.8164 10.75 27.856 10.75 27.9043C10.75 27.9526 10.7368 27.9922 10.7207 27.9922C10.7046 27.9922 10.6914 28.0186 10.6914 28.0508C10.6914 28.083 10.6782 28.1094 10.6621 28.1094C10.646 28.1094 10.6328 28.1621 10.6328 28.2266C10.6328 28.291 10.6196 28.3438 10.6035 28.3438C10.5874 28.3438 10.5742 28.4097 10.5742 28.4902C10.5742 28.5708 10.561 28.6367 10.5449 28.6367C10.5269 28.6367 10.5156 28.7832 10.5156 29.0176C10.5156 29.252 10.5269 29.3984 10.5449 29.3984C10.561 29.3984 10.5742 29.4512 10.5742 29.5156C10.5742 29.5801 10.5874 29.6328 10.6035 29.6328C10.6196 29.6328 10.6328 29.6855 10.6328 29.75C10.6328 29.8145 10.646 29.8672 10.6621 29.8672C10.6782 29.8672 10.6914 29.8936 10.6914 29.9258C10.6914 29.958 10.7046 29.9844 10.7207 29.9844C10.7368 29.9844 10.75 30.0239 10.75 30.0723C10.75 30.1206 10.7632 30.1602 10.7793 30.1602C10.7954 30.1602 10.8086 30.1836 10.8086 30.2123C10.8086 30.241 10.835 30.2834 10.8672 30.3066C10.8994 30.3299 10.9258 30.3694 10.9258 30.3945C10.9258 30.4196 10.9521 30.4592 10.9844 30.4824C11.0166 30.5057 11.043 30.5417 11.043 30.5625C11.043 30.612 11.5287 31.0977 11.5781 31.0977C11.5989 31.0977 11.635 31.124 11.6582 31.1562C11.6814 31.1885 11.721 31.2148 11.7461 31.2148C11.7712 31.2148 11.8108 31.2412 11.834 31.2734C11.8588 31.3078 11.9098 31.332 11.9576 31.332C12.0024 31.332 12.0391 31.3452 12.0391 31.3613C12.0391 31.3774 12.0654 31.3906 12.0977 31.3906C12.1299 31.3906 12.1562 31.4038 12.1562 31.4199C12.1562 31.436 12.1826 31.4492 12.2148 31.4492C12.2471 31.4492 12.2734 31.4624 12.2734 31.4785C12.2734 31.4946 12.3262 31.5078 12.3906 31.5078C12.4551 31.5078 12.5078 31.521 12.5078 31.5371C12.5078 31.5532 12.5737 31.5664 12.6543 31.5664C12.7349 31.5664 12.8008 31.5796 12.8008 31.5957C12.8008 31.6136 12.9375 31.625 13.1523 31.625C13.3672 31.625 13.5039 31.6136 13.5039 31.5957C13.5039 31.5796 13.5698 31.5664 13.6504 31.5664C13.731 31.5664 13.7969 31.5532 13.7969 31.5371C13.7969 31.521 13.8496 31.5078 13.9141 31.5078C13.9785 31.5078 14.0312 31.4946 14.0312 31.4785C14.0312 31.4624 14.0576 31.4492 14.0898 31.4492C14.1221 31.4492 14.1484 31.436 14.1484 31.4199C14.1484 31.4038 14.188 31.3906 14.2363 31.3906C14.2847 31.3906 14.3242 31.3774 14.3242 31.3613C14.3242 31.3452 14.3477 31.332 14.3763 31.332C14.405 31.332 14.4475 31.3057 14.4707 31.2734C14.4939 31.2412 14.5335 31.2148 14.5586 31.2148C14.5837 31.2148 14.6233 31.1885 14.6465 31.1562C14.6697 31.124 14.7058 31.0977 14.7266 31.0977C14.776 31.0977 15.2617 30.612 15.2617 30.5625C15.2617 30.5417 15.2881 30.5057 15.3203 30.4824C15.3525 30.4592 15.3789 30.4196 15.3789 30.3945C15.3789 30.3694 15.4053 30.3299 15.4375 30.3066C15.4697 30.2834 15.4961 30.241 15.4961 30.2123C15.4961 30.1836 15.5093 30.1602 15.5254 30.1602C15.5415 30.1602 15.5547 30.1206 15.5547 30.0723C15.5547 30.0239 15.5679 29.9844 15.584 29.9844C15.6001 29.9844 15.6133 29.958 15.6133 29.9258C15.6133 29.8936 15.6265 29.8672 15.6426 29.8672C15.6587 29.8672 15.6719 29.8145 15.6719 29.75C15.6719 29.6855 15.6851 29.6328 15.7012 29.6328C15.7173 29.6328 15.7305 29.5669 15.7305 29.4863C15.7305 29.4058 15.7437 29.3398 15.7598 29.3398C15.7777 29.3398 15.7891 29.2031 15.7891 28.9883C15.7891 28.7734 15.7777 28.6367 15.7598 28.6367C15.7437 28.6367 15.7305 28.5708 15.7305 28.4902C15.7305 28.4097 15.7173 28.3438 15.7012 28.3438C15.6851 28.3438 15.6719 28.291 15.6719 28.2266C15.6719 28.1621 15.6587 28.1094 15.6426 28.1094C15.6265 28.1094 15.6133 28.083 15.6133 28.0508C15.6133 28.0186 15.6001 27.9922 15.584 27.9922C15.5679 27.9922 15.5547 27.9658 15.5547 27.9336C15.5547 27.9014 15.5415 27.875 15.5254 27.875C15.5093 27.875 15.4961 27.8384 15.4961 27.7936C15.4961 27.7458 15.4719 27.6947 15.4375 27.6699C15.4053 27.6467 15.3789 27.6071 15.3789 27.582C15.3789 27.5569 15.3525 27.5174 15.3203 27.4941C15.2881 27.4709 15.2617 27.4348 15.2617 27.414C15.2617 27.3646 14.776 26.8789 14.7266 26.8789C14.7058 26.8789 14.6697 26.8525 14.6465 26.8203C14.6233 26.7881 14.5837 26.7617 14.5586 26.7617C14.5335 26.7617 14.4939 26.7354 14.4707 26.7031C14.4475 26.6709 14.405 26.6445 14.3763 26.6445C14.3477 26.6445 14.3242 26.6313 14.3242 26.6152C14.3242 26.5991 14.2847 26.5859 14.2363 26.5859C14.188 26.5859 14.1484 26.5728 14.1484 26.5566C14.1484 26.5405 14.1221 26.5273 14.0898 26.5273C14.0576 26.5273 14.0312 26.5142 14.0312 26.498C14.0312 26.4819 13.9785 26.4688 13.9141 26.4688C13.8496 26.4688 13.7969 26.4556 13.7969 26.4395C13.7969 26.4233 13.7441 26.4102 13.6797 26.4102C13.6152 26.4102 13.5625 26.397 13.5625 26.3809C13.5625 26.3628 13.416 26.3516 13.1816 26.3516C12.9473 26.3516 12.8008 26.3628 12.8008 26.3809ZM13.3867 28.1387C13.3867 28.1548 13.4131 28.168 13.4453 28.168C13.4775 28.168 13.5039 28.1812 13.5039 28.1973C13.5039 28.2134 13.5303 28.2266 13.5625 28.2266C13.5947 28.2266 13.6211 28.2397 13.6211 28.2559C13.6211 28.272 13.6415 28.2852 13.6664 28.2852C13.725 28.2852 13.8555 28.4156 13.8555 28.4743C13.8555 28.4992 13.8687 28.5195 13.8848 28.5195C13.9009 28.5195 13.9141 28.5459 13.9141 28.5781C13.9141 28.6104 13.9272 28.6367 13.9434 28.6367C13.9595 28.6367 13.9727 28.6631 13.9727 28.6953C13.9727 28.7275 13.9858 28.7539 14.002 28.7539C14.019 28.7539 14.0312 28.8516 14.0312 28.9883C14.0312 29.125 14.019 29.2227 14.002 29.2227C13.9858 29.2227 13.9727 29.249 13.9727 29.2812C13.9727 29.3135 13.9595 29.3398 13.9434 29.3398C13.9272 29.3398 13.9141 29.3662 13.9141 29.3984C13.9141 29.4307 13.9009 29.457 13.8848 29.457C13.8687 29.457 13.8555 29.4774 13.8555 29.5023C13.8555 29.5609 13.725 29.6914 13.6664 29.6914C13.6415 29.6914 13.6211 29.7046 13.6211 29.7207C13.6211 29.7368 13.5947 29.75 13.5625 29.75C13.5303 29.75 13.5039 29.7632 13.5039 29.7793C13.5039 29.7954 13.4775 29.8086 13.4453 29.8086C13.4131 29.8086 13.3867 29.8218 13.3867 29.8379C13.3867 29.855 13.2891 29.8672 13.1523 29.8672C13.0156 29.8672 12.918 29.855 12.918 29.8379C12.918 29.8218 12.8916 29.8086 12.8594 29.8086C12.8271 29.8086 12.8008 29.7954 12.8008 29.7793C12.8008 29.7632 12.7773 29.75 12.7487 29.75C12.72 29.75 12.6775 29.7236 12.6543 29.6914C12.6311 29.6592 12.5943 29.6328 12.5725 29.6328C12.5189 29.6328 12.4492 29.5595 12.4492 29.5031C12.4492 29.4777 12.436 29.457 12.4199 29.457C12.4038 29.457 12.3906 29.4307 12.3906 29.3984C12.3906 29.3662 12.3774 29.3398 12.3613 29.3398C12.3452 29.3398 12.332 29.3135 12.332 29.2812C12.332 29.249 12.3188 29.2227 12.3027 29.2227C12.2857 29.2227 12.2734 29.125 12.2734 28.9883C12.2734 28.8516 12.2857 28.7539 12.3027 28.7539C12.3188 28.7539 12.332 28.7275 12.332 28.6953C12.332 28.6631 12.3452 28.6367 12.3613 28.6367C12.3774 28.6367 12.3906 28.6104 12.3906 28.5781C12.3906 28.5459 12.4038 28.5195 12.4199 28.5195C12.436 28.5195 12.4492 28.4988 12.4492 28.4735C12.4492 28.417 12.5189 28.3438 12.5725 28.3438C12.5943 28.3438 12.6311 28.3174 12.6543 28.2852C12.6775 28.2529 12.72 28.2266 12.7487 28.2266C12.7773 28.2266 12.8008 28.2134 12.8008 28.1973C12.8008 28.1812 12.8271 28.168 12.8594 28.168C12.8916 28.168 12.918 28.1548 12.918 28.1387C12.918 28.1216 13.0156 28.1094 13.1523 28.1094C13.2891 28.1094 13.3867 28.1216 13.3867 28.1387ZM28.0938 28.9883V29.8672H27.2148H26.3359V28.9883V28.1094H27.2148H28.0938V28.9883Z" fill="#DD2A1B"/>
</svg>
