<svg width="89" height="25" viewBox="0 0 89 25" fill="none" xmlns="http://www.w3.org/2000/svg">
<path fill-rule="evenodd" clip-rule="evenodd" d="M88.3139 0.10026L88.314 0.100714V0.100728V0.100743V0.100758V0.100773V0.100788V0.100803V0.100818V0.100833V0.100848V0.100863V0.100878C88.3207 0.164534 88.3273 0.22791 88.3273 0.290456C88.3279 1.88527 88.3279 3.48009 88.328 5.0749C88.3281 8.79506 88.3283 12.5152 88.3349 16.2354C88.3349 16.4768 88.2481 16.5956 88.0444 16.6956C87.1976 17.1124 86.2998 17.2576 85.3662 17.2369C84.5476 17.2199 83.7687 17.052 83.0293 16.6937C82.8219 16.5937 82.7464 16.4674 82.7464 16.2297C82.7558 12.5688 82.7558 8.90795 82.7464 5.24707C82.7464 5.02829 82.8162 4.90946 83.0048 4.8227C84.2251 4.25877 85.4812 4.07959 86.7921 4.4568C86.8101 4.46236 86.8282 4.46382 86.8515 4.46572C86.8598 4.46639 86.8689 4.46713 86.8788 4.46812V0C87.3541 0.00377216 87.8294 0.00377216 88.3047 0.00377216C88.3072 0.0359584 88.3106 0.0681446 88.3139 0.10026ZM86.8788 10.7506C86.8788 10.4045 86.8786 10.0584 86.8784 9.71231C86.8778 8.5011 86.8771 7.29054 86.8845 6.07883C86.8864 5.87325 86.8166 5.78837 86.6261 5.73934C85.8867 5.54696 85.1549 5.5413 84.4175 5.75254C84.2477 5.80158 84.1893 5.87513 84.1893 6.05997C84.1968 9.19275 84.1968 12.3255 84.1893 15.4564C84.1893 15.645 84.2534 15.7129 84.4231 15.7601C85.17 15.9638 85.9094 15.9675 86.6563 15.7582C86.8298 15.7091 86.8845 15.6318 86.8826 15.4489C86.8769 14.2746 86.8776 13.0992 86.8783 11.9244V11.9242V11.924C86.8786 11.5328 86.8788 11.1417 86.8788 10.7506ZM49.8107 1.90028C49.7016 1.26822 49.5924 0.636088 49.4835 0.00372795C48.9215 0.00372795 48.3575 0.00372795 47.7955 0.00184187C47.7823 0.073014 47.769 0.144186 47.7557 0.215358C47.7157 0.428984 47.6757 0.64261 47.6389 0.856235C47.5013 1.65971 47.3631 2.46365 47.2249 3.2676C47.0868 4.07154 46.9486 4.87547 46.811 5.67894L46.8099 5.6849C46.5406 7.24647 46.2712 8.80805 46.0037 10.3715L45.1323 15.4809L45.0433 16.0051L44.8758 16.9916H46.4488C46.494 16.6845 46.5399 16.379 46.5856 16.0745C46.6907 15.3746 46.795 14.6799 46.8883 13.9833C46.9166 13.774 46.9901 13.7268 47.1844 13.7306C47.6577 13.7375 48.132 13.7363 48.6059 13.7352C48.7835 13.7348 48.961 13.7344 49.1384 13.7344H50.3342C50.4134 14.2669 50.4921 14.7942 50.5704 15.3185C50.6544 15.8805 50.7378 16.4392 50.8208 16.9973H52.39C52.3837 16.9554 52.3777 16.9142 52.3718 16.8736L52.3717 16.8735C52.3525 16.7424 52.3342 16.6175 52.3126 16.4937C52.2046 15.8679 52.0963 15.2424 51.988 14.6169C51.7882 13.4628 51.5885 12.3089 51.3904 11.1542C51.2272 10.1989 51.0655 9.24364 50.9038 8.28834C50.742 7.33304 50.5803 6.37774 50.4171 5.42243C50.2162 4.24862 50.0137 3.0756 49.8111 1.90234L49.8107 1.90028ZM48.4904 3.1273C48.4983 2.99928 48.5065 2.86615 48.7423 2.93281C48.8839 4.87195 49.1981 6.7837 49.5129 8.69849L49.513 8.69878C49.7141 9.92203 49.9154 11.1465 50.072 12.3802H47.1769L47.2809 11.7188L47.2814 11.7158L47.2839 11.6996L47.2848 11.6941C47.4109 10.8924 47.5368 10.0921 47.6616 9.29078C47.7208 8.91218 47.7808 8.53358 47.8409 8.1549L47.8409 8.15473L47.841 8.15455L47.841 8.15438L47.841 8.1542L47.841 8.15403L47.8411 8.15385L47.8411 8.15368L47.8411 8.1535L47.8411 8.15333L47.8412 8.15315L47.8412 8.15298L47.8412 8.1528L47.8412 8.15272L47.8412 8.15264L47.8412 8.15256L47.8412 8.15248L47.8413 8.1524L47.8413 8.15232L47.8413 8.15224L47.8413 8.15216L47.8413 8.15208L47.8413 8.152L47.8413 8.15192L47.8413 8.15184C48.0049 7.12048 48.1685 6.08857 48.316 5.05465C48.3758 4.63394 48.4073 4.20895 48.4387 3.78372L48.4388 3.78347C48.454 3.57778 48.4692 3.37203 48.4877 3.16668C48.4887 3.15387 48.4895 3.14079 48.4904 3.12764L48.4904 3.1273ZM7.34289 6.0297C7.03546 3.87958 6.39231 1.85015 5.22294 0.00368375H0.945312V17.0105C1.27544 17.0105 1.60556 17.01 1.93562 17.0095C2.92558 17.0081 3.915 17.0067 4.90231 17.018C5.15127 17.0199 5.27764 16.9312 5.39646 16.7313C6.58469 14.7434 7.19766 12.5725 7.42776 10.2904C7.57111 8.87202 7.54659 7.44804 7.34289 6.0297ZM2.55602 15.6827V1.33148C2.69843 1.33148 2.83953 1.33089 2.97961 1.33029H2.97963H2.97965H2.97966H2.97968H2.97969H2.97971H2.97972H2.97974H2.97975H2.97977H2.97978H2.97979C3.39622 1.32853 3.8037 1.3268 4.21011 1.34091C4.29687 1.3428 4.4157 1.45219 4.45908 1.54084C4.96077 2.55932 5.30027 3.63627 5.53791 4.7434C5.95097 6.66531 6.0415 8.6042 5.81517 10.5582C5.6209 12.25 5.20785 13.8796 4.49114 15.4299C4.40061 15.6261 4.29499 15.6959 4.07998 15.6883C3.72418 15.6762 3.36743 15.6785 3.00292 15.6808H3.00263H3.00234H3.00206H3.00177H3.00148H3.00119H3.0009H3.00061H3.00031H3.00001H2.99971H2.99941C2.85302 15.6817 2.70537 15.6827 2.55602 15.6827ZM39.6082 0.0089241L39.608 0.00368375H38.1821C38.1783 0.0470636 38.1746 0.0923294 38.1746 0.135709V16.7954C38.1746 16.8382 38.1801 16.8817 38.1855 16.9245L38.1855 16.9246C38.1885 16.9479 38.1914 16.9709 38.1934 16.9935H39.6155V16.6898V0.267735C39.6155 0.180887 39.6119 0.0958495 39.6082 0.00907513L39.6082 0.0089241ZM34.493 9.46054V6.65971C34.493 6.60964 34.4907 6.5592 34.4885 6.50879V6.50875C34.4836 6.39968 34.4787 6.29079 34.4968 6.18631C34.5515 5.86945 34.393 5.76383 34.1139 5.69781C33.4915 5.5507 32.8823 5.5639 32.2712 5.75251C32.1109 5.80155 32.0543 5.8751 32.0581 6.04674C32.0661 6.42151 32.0646 6.79629 32.0631 7.17788C32.0625 7.33207 32.0618 7.48738 32.0618 7.64425H30.6379C30.636 7.62028 30.6336 7.59612 30.6311 7.57183C30.626 7.52154 30.6209 7.47067 30.6209 7.4198C30.6203 7.174 30.6207 6.9282 30.6211 6.68246V6.68052V6.68044V6.68035V6.68027V6.68018V6.6801V6.68002V6.67993V6.67985V6.67976C30.6219 6.18726 30.6228 5.69504 30.6152 5.20366C30.6133 5.02825 30.6718 4.93395 30.8227 4.85285C31.5828 4.44357 32.3976 4.27194 33.252 4.26628C34.1346 4.26062 34.9739 4.43603 35.7586 4.85851C35.9057 4.93772 35.966 5.02825 35.966 5.20366C35.9604 8.90792 35.9604 12.6122 35.9641 16.3146C35.9641 16.4768 35.917 16.5692 35.7718 16.6446C35.0343 17.0294 34.2497 17.2048 33.4217 17.2368C32.4824 17.2727 31.5922 17.1105 30.7491 16.6861C30.5549 16.588 30.4775 16.473 30.4794 16.2448C30.4907 14.2832 30.4889 12.3217 30.4794 10.3583C30.4775 10.1395 30.553 10.0282 30.7378 9.93206C31.679 9.44922 32.6805 9.30022 33.7254 9.37944C33.8963 9.39118 34.0654 9.41104 34.2452 9.43216L34.2452 9.43217L34.2454 9.43219L34.2459 9.43225C34.3258 9.44163 34.4078 9.45127 34.493 9.46054ZM31.9487 13.2855C31.9487 13.4846 31.9491 13.6836 31.9495 13.8827C31.9506 14.4135 31.9518 14.9444 31.9449 15.4752C31.943 15.6356 31.9939 15.7035 32.1448 15.7525C32.8729 15.9864 33.5971 15.9637 34.3176 15.7374C34.393 15.7129 34.4873 15.5846 34.4873 15.5054C34.4933 14.5765 34.494 13.6475 34.4946 12.7186C34.495 12.1877 34.4954 11.6568 34.4968 11.1259C34.4968 10.9788 34.4534 10.9034 34.3082 10.8619C33.5914 10.6507 32.8766 10.6356 32.158 10.8525C31.9921 10.9015 31.943 10.9807 31.9449 11.1505C31.9506 11.6837 31.9499 12.2169 31.9492 12.751C31.9489 12.929 31.9487 13.1072 31.9487 13.2855ZM68.665 4.50559H67.2241C67.2241 4.62064 67.2241 4.70929 67.2222 4.79605C67.2222 5.43292 67.2222 6.0698 67.2223 6.70667C67.2225 9.88911 67.2228 13.0715 67.2165 16.254C67.2146 16.486 67.2976 16.601 67.4938 16.6953C68.2331 17.0537 69.0121 17.2215 69.8306 17.2404C70.7755 17.263 71.6809 17.1103 72.5352 16.6915C72.7352 16.5935 72.805 16.469 72.805 16.2427C72.7987 13.0683 72.7989 9.89528 72.7992 6.72246V6.71412C72.7992 6.07978 72.7993 5.44546 72.7993 4.81114V4.51313H71.3508V15.6787C70.5473 15.9767 69.7476 15.9711 68.9366 15.7787C68.7178 15.7278 68.6594 15.6203 68.6594 15.3977C68.6656 12.4651 68.6654 9.53121 68.6651 6.59818V6.59807V6.59797V6.59787V6.59777V6.59767C68.6651 6.01092 68.665 5.4242 68.665 4.83754V4.50559ZM76.4262 16.9992H74.9871V16.7106C74.9871 16.0738 74.9872 15.437 74.9872 14.8001V14.8C74.9875 11.6171 74.9877 8.4333 74.9814 5.25083C74.9814 5.03205 75.0531 4.917 75.2398 4.82458C76.0584 4.41341 76.9317 4.26064 77.8389 4.2663C78.7102 4.27196 79.5458 4.43605 80.3285 4.83589C80.4945 4.92077 80.5699 5.02262 80.5699 5.22065C80.5654 8.2886 80.5657 11.3565 80.566 14.4235V14.4343V14.4345V14.4347V14.4348V14.435V14.4352V14.4354C80.566 15.2014 80.5661 15.9674 80.5661 16.7333V16.9898H79.1157V16.6767C79.1157 15.9726 79.1156 15.2686 79.1154 14.5645V14.5645V14.5644V14.5644V14.5643V14.5643V14.5643V14.5642C79.1148 11.7471 79.1142 8.93029 79.1233 6.11466C79.1233 5.86946 79.0365 5.77327 78.8215 5.72424C78.018 5.53563 77.2259 5.53374 76.4281 5.83552C76.4262 9.54359 76.4262 13.2442 76.4262 16.9653V16.9992ZM24.0988 5.83371H25.1738C25.1738 5.97517 25.1738 6.08079 25.1701 6.19018C25.1701 6.75063 25.1701 7.31108 25.1702 7.87153V7.87522C25.1704 10.6745 25.1707 13.4738 25.1644 16.2732C25.1644 16.4806 25.2323 16.5919 25.4134 16.6787C26.0886 16.9993 26.8034 17.1672 27.5427 17.2181C27.9709 17.2483 28.4047 17.2351 28.8328 17.2143C28.946 17.2087 29.1459 17.1087 29.1516 17.037C29.1753 16.7678 29.1722 16.4966 29.1689 16.2149C29.1678 16.1156 29.1667 16.0151 29.1667 15.9129C29.085 15.9129 29.0064 15.9144 28.9299 15.9159C28.7642 15.9191 28.6085 15.922 28.4537 15.9091C28.1464 15.8847 27.8391 15.8538 27.5318 15.8229C27.3166 15.8012 27.1015 15.7796 26.8864 15.7601C26.6657 15.7413 26.611 15.6357 26.611 15.4169C26.6173 12.8344 26.6171 10.2532 26.6168 7.67223V7.6722V7.67218V7.67215C26.6167 7.15615 26.6167 6.64016 26.6167 6.12417V5.8224H29.0328V4.48894H26.6073V2.33881H25.1625V4.5078H24.0988V5.83371ZM58.2387 4.38514V5.58469C57.9482 5.59986 57.6564 5.59916 57.3641 5.59845C56.6393 5.59669 55.9121 5.59493 55.1983 5.83554V16.9936H53.7555V16.7163C53.7555 16.0797 53.7555 15.4429 53.7556 14.8062V14.8061V14.806V14.8059V14.8058V14.8057C53.7558 11.6228 53.7561 8.43898 53.7498 5.25651C53.7498 5.02453 53.8309 4.91136 54.0289 4.82083C54.7664 4.48322 55.5491 4.33045 56.3488 4.29273C56.7516 4.27374 57.1554 4.29473 57.5594 4.31574C57.7173 4.32395 57.8752 4.33216 58.0331 4.33799C58.0789 4.33927 58.1239 4.35256 58.1703 4.36629C58.1927 4.37291 58.2154 4.37963 58.2387 4.38514ZM11.0283 16.9896V4.51701H9.61372V16.9896H11.0283ZM22.5881 17.0011H21.1868V4.51333H22.5881V17.0011ZM11.0207 0.380899H9.61556V2.16702H11.0207V0.380899ZM21.1829 0.380899H22.588V2.1689H21.1829V0.380899ZM65.4469 11.9794C65.4471 11.5724 65.4472 11.1653 65.4472 10.7581C65.4472 10.3515 65.4471 9.94481 65.4469 9.53802C65.4462 8.11457 65.4456 6.69022 65.4529 5.26588C65.4548 5.03955 65.3812 4.91318 65.1832 4.81699C64.4042 4.43412 63.5781 4.26815 62.7143 4.26437C61.809 4.2606 60.9357 4.41526 60.1172 4.82642C59.9248 4.92261 59.8663 5.04521 59.8663 5.25645C59.8739 8.91733 59.8739 12.5801 59.8663 16.241C59.8644 16.4673 59.9324 16.5937 60.1323 16.6899C60.881 17.0501 61.6675 17.2217 62.4955 17.2387C63.4405 17.2576 64.3458 17.1067 65.1983 16.6804C65.3888 16.5861 65.4548 16.4654 65.4529 16.2504C65.4456 14.8262 65.4462 13.4031 65.4469 11.9794ZM61.313 6.18629V5.8317C62.1617 5.5205 63.0048 5.51673 63.8516 5.77889C63.9195 5.80153 63.9912 5.94487 63.9931 6.03163C64.0004 6.63452 63.9998 7.23627 63.9991 7.83866C63.9989 8.0108 63.9987 8.18299 63.9987 8.35528V15.3507V15.6808C63.1519 15.9845 62.3088 15.9882 61.4638 15.728C61.3959 15.7072 61.3318 15.5846 61.3205 15.5016C61.3043 15.379 61.3074 15.2525 61.3105 15.1263C61.3117 15.0759 61.313 15.0255 61.313 14.9754V6.18629Z" fill="white"/>
<path fill-rule="evenodd" clip-rule="evenodd" d="M18.6651 4.67407L18.6651 4.67405L18.6651 4.67403C18.8372 4.53169 19.0098 4.38887 19.1618 4.22628C19.373 4.00183 19.6107 3.99806 19.8898 4.03013V5.82001H18.8015V6.15008C18.8015 6.69244 18.8012 7.23471 18.8009 7.77691V7.77708V7.77724V7.7774V7.77756V7.77772C18.7999 9.58463 18.7989 11.3909 18.8091 13.1984C18.811 13.4417 18.7317 13.5775 18.5262 13.6586C18.4068 13.7055 18.2874 13.7524 18.1676 13.7991C18.1378 13.8114 18.1065 13.8243 18.0735 13.8377C17.9877 13.8727 17.9009 13.9056 17.8136 13.937C17.6126 14.015 17.41 14.0935 17.2045 14.173L17.2039 14.1732C17.0942 14.2157 16.9836 14.2585 16.8721 14.3017V15.9652C17.0836 16.0214 17.2931 16.0738 17.5008 16.1256L17.5008 16.1256L17.5008 16.1257C17.5757 16.1444 17.6502 16.163 17.7246 16.1817C17.9313 16.226 18.1348 16.2794 18.3352 16.3424C18.497 16.3877 18.6575 16.4356 18.8166 16.4877C19.6503 16.7587 19.6503 16.7834 19.6503 17.634V17.657C19.6503 17.8971 19.6499 18.137 19.6496 18.3769V18.3771V18.3773V18.3775V18.3776V18.3778C19.6485 19.0969 19.6474 19.8155 19.6559 20.5352C19.6578 20.7313 19.5918 20.8332 19.4221 20.92C18.4884 21.3934 17.4964 21.5952 16.4534 21.6197C16.3329 21.6225 16.2128 21.6237 16.0931 21.623C15.9734 21.6237 15.8533 21.6225 15.7329 21.6197C14.6899 21.5952 13.6978 21.3934 12.7642 20.92C12.5945 20.8332 12.5284 20.7313 12.5303 20.5352C12.5388 19.8153 12.5378 19.0965 12.5367 18.3771V18.3771V18.3771V18.3769L12.5367 18.3756C12.5363 18.1362 12.536 17.8967 12.536 17.657V17.6396C12.5359 16.7835 12.5359 16.7593 13.3696 16.4877C13.5288 16.4356 13.6892 16.3877 13.851 16.3424C14.0515 16.2794 14.255 16.226 14.4617 16.1817C14.536 16.163 14.6106 16.1444 14.6854 16.1257L14.6855 16.1256C14.8931 16.0738 15.1027 16.0214 15.3142 15.9652V14.3017C15.2026 14.2585 15.0921 14.2157 14.9824 14.1732L14.9814 14.1729L14.9782 14.1716C14.7739 14.0926 14.5725 14.0146 14.3727 13.937C14.2854 13.9056 14.1986 13.8727 14.1127 13.8377L14.0685 13.8197C14.0599 13.8161 14.0515 13.8127 14.0432 13.8092C14.0349 13.8058 14.0267 13.8025 14.0186 13.7991C13.8989 13.7523 13.7794 13.7055 13.6601 13.6586C13.4545 13.5775 13.3753 13.4417 13.3772 13.1984C13.3873 11.3909 13.3863 9.58456 13.3853 7.77762V7.77746V7.7773V7.77714L13.3853 7.76959C13.385 7.22982 13.3847 6.69 13.3847 6.15008V5.82001H12.2965V4.03013C12.5756 3.99806 12.8132 4.00183 13.0245 4.22628C13.1764 4.38887 13.3491 4.53169 13.5211 4.67403L13.5212 4.67405L13.5213 4.67412L13.5213 4.67416L13.5213 4.6742C13.5845 4.72644 13.6476 4.77861 13.7095 4.83167C13.9984 4.67469 14.3293 4.54544 14.6855 4.45015C15.1415 4.32064 15.6205 4.26227 16.0931 4.26421C16.5657 4.26227 17.0447 4.32064 17.5008 4.45016C17.857 4.54545 18.1879 4.6747 18.4767 4.83167C18.5387 4.77857 18.6019 4.72636 18.665 4.67409L18.6651 4.67407ZM14.9238 9.21873C14.9238 9.50883 14.9242 9.79893 14.9246 10.089C14.9257 10.8627 14.9268 11.6363 14.92 12.41C14.9181 12.591 14.9728 12.6778 15.1425 12.7287C15.4598 12.824 15.7766 12.8738 16.0931 12.8779C16.4097 12.8738 16.7265 12.824 17.0437 12.7287C17.2135 12.6778 17.2682 12.591 17.2663 12.41C17.2594 11.6364 17.2605 10.8627 17.2617 10.0891L17.2617 10.0862C17.2621 9.79702 17.2625 9.50787 17.2625 9.21873C17.2625 8.95703 17.2621 8.69534 17.2618 8.43365C17.2607 7.64857 17.2597 6.86349 17.2682 6.07841C17.27 5.87094 17.1965 5.78984 17.0098 5.73514C16.7029 5.64524 16.3976 5.59812 16.0931 5.59398C15.7887 5.59812 15.4834 5.64524 15.1765 5.73514C14.9898 5.78984 14.9162 5.87094 14.9181 6.07841C14.9278 6.84604 14.9263 7.61367 14.9248 8.3813C14.9243 8.66044 14.9238 8.93958 14.9238 9.21873ZM14.2787 17.6514C14.8838 17.4692 15.4883 17.3759 16.0931 17.3714C16.6979 17.3759 17.3025 17.4692 17.9075 17.6514C18.0641 17.6985 18.1282 17.7778 18.1244 17.9513C18.1131 18.5416 18.1131 19.1301 18.1244 19.7204C18.1282 19.8977 18.0565 19.9807 17.9019 20.0128C17.7835 20.0372 17.6655 20.0637 17.5475 20.0902L17.5474 20.0902L17.5474 20.0902L17.5474 20.0902C17.246 20.1578 16.945 20.2254 16.6401 20.2579C16.4573 20.2777 16.2749 20.2894 16.0931 20.2928C15.9113 20.2894 15.729 20.2777 15.5462 20.2579C15.2412 20.2254 14.9402 20.1578 14.6389 20.0902L14.6389 20.0902L14.6389 20.0902L14.6388 20.0902L14.6388 20.0902L14.6388 20.0902C14.5208 20.0637 14.4027 20.0372 14.2844 20.0128C14.1297 19.9807 14.058 19.8977 14.0618 19.7204C14.0731 19.1301 14.0731 18.5416 14.0618 17.9513C14.058 17.7778 14.1222 17.6985 14.2787 17.6514ZM0.96875 18.7377H11.1762V19.7449H0.96875V18.7377ZM88.5544 18.7377H21.2251V19.7449H88.5544V18.7377ZM14.8711 23.0454C14.6108 22.8983 14.3619 22.7569 14.1016 22.6079C13.7772 23.1737 13.4679 23.7169 13.1548 24.2695C13.3084 24.3557 13.4582 24.4413 13.6075 24.5266C13.7129 24.5869 13.8181 24.647 13.9243 24.7071C14.1178 24.3678 14.3079 24.0341 14.4974 23.7013C14.622 23.4827 14.7462 23.2645 14.8711 23.0454ZM18.2357 22.6079C17.9755 22.7569 17.7265 22.8983 17.4662 23.0454C17.535 23.1661 17.6036 23.2865 17.6722 23.4069C17.7281 23.505 17.784 23.6031 17.8399 23.7013C18.0294 24.0341 18.2195 24.3678 18.413 24.7071C18.5192 24.647 18.6244 24.5869 18.7298 24.5266C18.8791 24.4413 19.0289 24.3557 19.1826 24.2695C18.8695 23.7169 18.5602 23.1737 18.2357 22.6079ZM16.5968 24.9996H15.7122V23.0871H16.5968V24.9996Z" fill="#FF0000"/>
</svg>
