<?xml version="1.0" encoding="utf-8"?>
<!-- Generator: Adobe Illustrator 24.1.0, SVG Export Plug-In . SVG Version: 6.00 Build 0)  -->
<svg version="1.1" id="Слой_1" xmlns="http://www.w3.org/2000/svg" xmlns:xlink="http://www.w3.org/1999/xlink" x="0px" y="0px"
	 viewBox="0 0 1367 630" style="enable-background:new 0 0 1367 630;" xml:space="preserve">
<style type="text/css">
	.st0{opacity:0.12;}
</style>
<g class="st0">
	<path d="M2,201c0.8,0,1.5-0.7,1.5-1.5S2.8,198,2,198c-0.8,0-1.5,0.7-1.5,1.5S1.2,201,2,201z"/>
	<path d="M2,69c0.8,0,1.5-0.7,1.5-1.5S2.8,66,2,66c-0.8,0-1.5,0.7-1.5,1.5S1.2,69,2,69z"/>
	<path d="M2,333c0.8,0,1.5-0.7,1.5-1.5S2.8,330,2,330c-0.8,0-1.5,0.7-1.5,1.5S1.2,333,2,333z"/>
	<path d="M2,465c0.8,0,1.5-0.7,1.5-1.5S2.8,462,2,462c-0.8,0-1.5,0.7-1.5,1.5S1.2,465,2,465z"/>
	<path d="M2,234c0.8,0,1.5-0.7,1.5-1.5S2.8,231,2,231c-0.8,0-1.5,0.7-1.5,1.5S1.2,234,2,234z"/>
	<path d="M2,102c0.8,0,1.5-0.7,1.5-1.5C3.4,99.7,2.8,99,2,99c-0.8,0-1.5,0.7-1.5,1.5C0.5,101.3,1.2,102,2,102z"/>
	<path d="M2,366c0.8,0,1.5-0.7,1.5-1.5S2.8,363,2,363c-0.8,0-1.5,0.7-1.5,1.5S1.2,366,2,366z"/>
	<path d="M34,201c0.8,0,1.5-0.7,1.5-1.5S34.8,198,34,198c-0.8,0-1.5,0.7-1.5,1.5S33.2,201,34,201z"/>
	<path d="M34,69c0.8,0,1.5-0.7,1.5-1.5S34.8,66,34,66c-0.8,0-1.5,0.7-1.5,1.5S33.2,69,34,69z"/>
	<path d="M34,333c0.8,0,1.5-0.7,1.5-1.5S34.8,330,34,330c-0.8,0-1.5,0.7-1.5,1.5S33.2,333,34,333z"/>
	<path d="M34,465c0.8,0,1.5-0.7,1.5-1.5S34.8,462,34,462c-0.8,0-1.5,0.7-1.5,1.5S33.2,465,34,465z"/>
	<path d="M34,234c0.8,0,1.5-0.7,1.5-1.5S34.8,231,34,231c-0.8,0-1.5,0.7-1.5,1.5S33.2,234,34,234z"/>
	<path d="M34,102c0.8,0,1.5-0.7,1.5-1.5S34.8,99,34,99c-0.8,0-1.5,0.7-1.5,1.5S33.2,102,34,102z"/>
	<path d="M34,366c0.8,0,1.5-0.7,1.5-1.5S34.8,363,34,363c-0.8,0-1.5,0.7-1.5,1.5S33.2,366,34,366z"/>
	<path d="M65.2,201c0.8,0,1.5-0.7,1.5-1.5S66,198,65.2,198c-0.8,0-1.5,0.7-1.5,1.5S64.3,201,65.2,201z"/>
	<path d="M65.2,69c0.8,0,1.5-0.7,1.5-1.5S66,66,65.2,66c-0.8,0-1.5,0.7-1.5,1.5S64.3,69,65.2,69z"/>
	<path d="M65.2,333c0.8,0,1.5-0.7,1.5-1.5S66,330,65.2,330c-0.8,0-1.5,0.7-1.5,1.5S64.3,333,65.2,333z"/>
	<path d="M65.2,465c0.8,0,1.5-0.7,1.5-1.5S66,462,65.2,462c-0.8,0-1.5,0.7-1.5,1.5S64.3,465,65.2,465z"/>
	<path d="M65.2,234c0.8,0,1.5-0.7,1.5-1.5S66,231,65.2,231c-0.8,0-1.5,0.7-1.5,1.5S64.3,234,65.2,234z"/>
	<path d="M65.2,102c0.8,0,1.5-0.7,1.5-1.5S66,99,65.2,99c-0.8,0-1.5,0.7-1.5,1.5S64.3,102,65.2,102z"/>
	<path d="M65.2,366c0.8,0,1.5-0.7,1.5-1.5S66,363,65.2,363c-0.8,0-1.5,0.7-1.5,1.5S64.3,366,65.2,366z"/>
	<path d="M97.2,201c0.8,0,1.5-0.7,1.5-1.5S98,198,97.2,198c-0.8,0-1.5,0.7-1.5,1.5S96.4,201,97.2,201z"/>
	<path d="M97.2,69c0.8,0,1.5-0.7,1.5-1.5S98,66,97.2,66c-0.8,0-1.5,0.7-1.5,1.5S96.4,69,97.2,69z"/>
	<path d="M97.2,333c0.8,0,1.5-0.7,1.5-1.5S98,330,97.2,330c-0.8,0-1.5,0.7-1.5,1.5S96.4,333,97.2,333z"/>
	<path d="M97.2,465c0.8,0,1.5-0.7,1.5-1.5S98,462,97.2,462c-0.8,0-1.5,0.7-1.5,1.5S96.4,465,97.2,465z"/>
	<path d="M97.2,234c0.8,0,1.5-0.7,1.5-1.5S98,231,97.2,231c-0.8,0-1.5,0.7-1.5,1.5S96.4,234,97.2,234z"/>
	<path d="M97.2,102c0.8,0,1.5-0.7,1.5-1.5S98,99,97.2,99c-0.8,0-1.5,0.7-1.5,1.5S96.4,102,97.2,102z"/>
	<path d="M97.2,366c0.8,0,1.5-0.7,1.5-1.5S98,363,97.2,363c-0.8,0-1.5,0.7-1.5,1.5S96.4,366,97.2,366z"/>
	<path d="M128.3,201c0.8,0,1.5-0.7,1.5-1.5s-0.7-1.5-1.5-1.5c-0.8,0-1.5,0.7-1.5,1.5S127.5,201,128.3,201z"/>
	<path d="M128.3,69c0.8,0,1.5-0.7,1.5-1.5s-0.7-1.5-1.5-1.5c-0.8,0-1.5,0.7-1.5,1.5S127.5,69,128.3,69z"/>
	<path d="M128.3,333c0.8,0,1.5-0.7,1.5-1.5s-0.7-1.5-1.5-1.5c-0.8,0-1.5,0.7-1.5,1.5S127.5,333,128.3,333z"/>
	<path d="M128.3,465c0.8,0,1.5-0.7,1.5-1.5s-0.7-1.5-1.5-1.5c-0.8,0-1.5,0.7-1.5,1.5S127.5,465,128.3,465z"/>
	<path d="M128.3,234c0.8,0,1.5-0.7,1.5-1.5s-0.7-1.5-1.5-1.5c-0.8,0-1.5,0.7-1.5,1.5S127.5,234,128.3,234z"/>
	<path d="M128.3,102c0.8,0,1.5-0.7,1.5-1.5s-0.7-1.5-1.5-1.5c-0.8,0-1.5,0.7-1.5,1.5S127.5,102,128.3,102z"/>
	<path d="M128.3,366c0.8,0,1.5-0.7,1.5-1.5s-0.7-1.5-1.5-1.5c-0.8,0-1.5,0.7-1.5,1.5S127.5,366,128.3,366z"/>
	<path d="M160.4,201c0.8,0,1.5-0.7,1.5-1.5s-0.7-1.5-1.5-1.5s-1.5,0.7-1.5,1.5S159.6,201,160.4,201z"/>
	<path d="M160.4,69c0.8,0,1.5-0.7,1.5-1.5s-0.7-1.5-1.5-1.5s-1.5,0.7-1.5,1.5S159.6,69,160.4,69z"/>
	<path d="M160.4,333c0.8,0,1.5-0.7,1.5-1.5s-0.7-1.5-1.5-1.5s-1.5,0.7-1.5,1.5S159.6,333,160.4,333z"/>
	<path d="M160.4,465c0.8,0,1.5-0.7,1.5-1.5s-0.7-1.5-1.5-1.5s-1.5,0.7-1.5,1.5S159.6,465,160.4,465z"/>
	<path d="M160.4,234c0.8,0,1.5-0.7,1.5-1.5s-0.7-1.5-1.5-1.5s-1.5,0.7-1.5,1.5S159.6,234,160.4,234z"/>
	<path d="M160.4,102c0.8,0,1.5-0.7,1.5-1.5c0-0.8-0.7-1.5-1.5-1.5s-1.5,0.7-1.5,1.5C159,101.3,159.6,102,160.4,102z"/>
	<path d="M160.4,366c0.8,0,1.5-0.7,1.5-1.5s-0.7-1.5-1.5-1.5s-1.5,0.7-1.5,1.5S159.6,366,160.4,366z"/>
	<path d="M192.5,201c0.8,0,1.5-0.7,1.5-1.5s-0.7-1.5-1.5-1.5c-0.8,0-1.5,0.7-1.5,1.5S191.7,201,192.5,201z"/>
	<path d="M192.5,69c0.8,0,1.5-0.7,1.5-1.5s-0.7-1.5-1.5-1.5c-0.8,0-1.5,0.7-1.5,1.5S191.7,69,192.5,69z"/>
	<path d="M192.5,333c0.8,0,1.5-0.7,1.5-1.5s-0.7-1.5-1.5-1.5c-0.8,0-1.5,0.7-1.5,1.5S191.7,333,192.5,333z"/>
	<path d="M192.5,465c0.8,0,1.5-0.7,1.5-1.5s-0.7-1.5-1.5-1.5c-0.8,0-1.5,0.7-1.5,1.5S191.7,465,192.5,465z"/>
	<path d="M192.5,234c0.8,0,1.5-0.7,1.5-1.5s-0.7-1.5-1.5-1.5c-0.8,0-1.5,0.7-1.5,1.5S191.7,234,192.5,234z"/>
	<path d="M192.5,102c0.8,0,1.5-0.7,1.5-1.5s-0.7-1.5-1.5-1.5c-0.8,0-1.5,0.7-1.5,1.5S191.7,102,192.5,102z"/>
	<path d="M192.5,366c0.8,0,1.5-0.7,1.5-1.5s-0.7-1.5-1.5-1.5c-0.8,0-1.5,0.7-1.5,1.5S191.7,366,192.5,366z"/>
	<path d="M223.6,201c0.8,0,1.5-0.7,1.5-1.5s-0.7-1.5-1.5-1.5c-0.8,0-1.5,0.7-1.5,1.5S222.8,201,223.6,201z"/>
	<path d="M223.6,69c0.8,0,1.5-0.7,1.5-1.5s-0.7-1.5-1.5-1.5c-0.8,0-1.5,0.7-1.5,1.5S222.8,69,223.6,69z"/>
	<path d="M223.6,333c0.8,0,1.5-0.7,1.5-1.5s-0.7-1.5-1.5-1.5c-0.8,0-1.5,0.7-1.5,1.5S222.8,333,223.6,333z"/>
	<path d="M223.6,465c0.8,0,1.5-0.7,1.5-1.5s-0.7-1.5-1.5-1.5c-0.8,0-1.5,0.7-1.5,1.5S222.8,465,223.6,465z"/>
	<path d="M223.6,234c0.8,0,1.5-0.7,1.5-1.5s-0.7-1.5-1.5-1.5c-0.8,0-1.5,0.7-1.5,1.5S222.8,234,223.6,234z"/>
	<path d="M223.6,102c0.8,0,1.5-0.7,1.5-1.5s-0.7-1.5-1.5-1.5c-0.8,0-1.5,0.7-1.5,1.5S222.8,102,223.6,102z"/>
	<path d="M223.6,366c0.8,0,1.5-0.7,1.5-1.5s-0.7-1.5-1.5-1.5c-0.8,0-1.5,0.7-1.5,1.5S222.8,366,223.6,366z"/>
	<path d="M255.7,201c0.8,0,1.5-0.7,1.5-1.5s-0.7-1.5-1.5-1.5c-0.8,0-1.5,0.7-1.5,1.5S254.9,201,255.7,201z"/>
	<path d="M255.7,69c0.8,0,1.5-0.7,1.5-1.5s-0.7-1.5-1.5-1.5c-0.8,0-1.5,0.7-1.5,1.5S254.9,69,255.7,69z"/>
	<path d="M255.7,333c0.8,0,1.5-0.7,1.5-1.5s-0.7-1.5-1.5-1.5c-0.8,0-1.5,0.7-1.5,1.5S254.9,333,255.7,333z"/>
	<path d="M255.7,465c0.8,0,1.5-0.7,1.5-1.5s-0.7-1.5-1.5-1.5c-0.8,0-1.5,0.7-1.5,1.5S254.9,465,255.7,465z"/>
	<path d="M255.7,234c0.8,0,1.5-0.7,1.5-1.5s-0.7-1.5-1.5-1.5c-0.8,0-1.5,0.7-1.5,1.5S254.9,234,255.7,234z"/>
	<path d="M255.7,102c0.8,0,1.5-0.7,1.5-1.5s-0.7-1.5-1.5-1.5c-0.8,0-1.5,0.7-1.5,1.5S254.9,102,255.7,102z"/>
	<path d="M255.7,366c0.8,0,1.5-0.7,1.5-1.5s-0.7-1.5-1.5-1.5c-0.8,0-1.5,0.7-1.5,1.5S254.9,366,255.7,366z"/>
	<path d="M286.8,201c0.8,0,1.5-0.7,1.5-1.5s-0.7-1.5-1.5-1.5c-0.8,0-1.5,0.7-1.5,1.5S286,201,286.8,201z"/>
	<path d="M286.8,69c0.8,0,1.5-0.7,1.5-1.5s-0.7-1.5-1.5-1.5c-0.8,0-1.5,0.7-1.5,1.5S286,69,286.8,69z"/>
	<path d="M286.8,333c0.8,0,1.5-0.7,1.5-1.5s-0.7-1.5-1.5-1.5c-0.8,0-1.5,0.7-1.5,1.5S286,333,286.8,333z"/>
	<path d="M286.8,465c0.8,0,1.5-0.7,1.5-1.5s-0.7-1.5-1.5-1.5c-0.8,0-1.5,0.7-1.5,1.5S286,465,286.8,465z"/>
	<path d="M286.8,234c0.8,0,1.5-0.7,1.5-1.5s-0.7-1.5-1.5-1.5c-0.8,0-1.5,0.7-1.5,1.5S286,234,286.8,234z"/>
	<path d="M286.8,102c0.8,0,1.5-0.7,1.5-1.5s-0.7-1.5-1.5-1.5c-0.8,0-1.5,0.7-1.5,1.5S286,102,286.8,102z"/>
	<path d="M286.8,366c0.8,0,1.5-0.7,1.5-1.5s-0.7-1.5-1.5-1.5c-0.8,0-1.5,0.7-1.5,1.5S286,366,286.8,366z"/>
	<path d="M318.9,201c0.8,0,1.5-0.7,1.5-1.5s-0.7-1.5-1.5-1.5c-0.8,0-1.5,0.7-1.5,1.5S318.1,201,318.9,201z"/>
	<path d="M318.9,69c0.8,0,1.5-0.7,1.5-1.5s-0.7-1.5-1.5-1.5c-0.8,0-1.5,0.7-1.5,1.5S318.1,69,318.9,69z"/>
	<path d="M318.9,333c0.8,0,1.5-0.7,1.5-1.5s-0.7-1.5-1.5-1.5c-0.8,0-1.5,0.7-1.5,1.5S318.1,333,318.9,333z"/>
	<path d="M318.9,465c0.8,0,1.5-0.7,1.5-1.5s-0.7-1.5-1.5-1.5c-0.8,0-1.5,0.7-1.5,1.5S318.1,465,318.9,465z"/>
	<path d="M318.9,234c0.8,0,1.5-0.7,1.5-1.5s-0.7-1.5-1.5-1.5c-0.8,0-1.5,0.7-1.5,1.5S318.1,234,318.9,234z"/>
	<path d="M318.9,102c0.8,0,1.5-0.7,1.5-1.5c0-0.8-0.7-1.5-1.5-1.5c-0.8,0-1.5,0.7-1.5,1.5C317.4,101.3,318.1,102,318.9,102z"/>
	<path d="M318.9,366c0.8,0,1.5-0.7,1.5-1.5s-0.7-1.5-1.5-1.5c-0.8,0-1.5,0.7-1.5,1.5S318.1,366,318.9,366z"/>
	<path d="M2,135c0.8,0,1.5-0.7,1.5-1.5S2.8,132,2,132c-0.8,0-1.5,0.7-1.5,1.5S1.2,135,2,135z"/>
	<path d="M2,3c0.8,0,1.5-0.7,1.5-1.5C3.4,0.7,2.8,0,2,0C1.2,0,0.5,0.7,0.5,1.5C0.5,2.3,1.2,3,2,3z"/>
	<path d="M2,267c0.8,0,1.5-0.7,1.5-1.5S2.8,264,2,264c-0.8,0-1.5,0.7-1.5,1.5S1.2,267,2,267z"/>
	<path d="M2,399c0.8,0,1.5-0.7,1.5-1.5S2.8,396,2,396c-0.8,0-1.5,0.7-1.5,1.5S1.2,399,2,399z"/>
	<path d="M2,168c0.8,0,1.5-0.7,1.5-1.5S2.8,165,2,165c-0.8,0-1.5,0.7-1.5,1.5S1.2,168,2,168z"/>
	<path d="M2,36c0.8,0,1.5-0.7,1.5-1.5S2.8,33,2,33c-0.8,0-1.5,0.7-1.5,1.5S1.2,36,2,36z"/>
	<path d="M2,300c0.8,0,1.5-0.7,1.5-1.5S2.8,297,2,297c-0.8,0-1.5,0.7-1.5,1.5S1.2,300,2,300z"/>
	<path d="M2,432c0.8,0,1.5-0.7,1.5-1.5S2.8,429,2,429c-0.8,0-1.5,0.7-1.5,1.5S1.2,432,2,432z"/>
	<path d="M34,135c0.8,0,1.5-0.7,1.5-1.5S34.8,132,34,132c-0.8,0-1.5,0.7-1.5,1.5S33.2,135,34,135z"/>
	<path d="M34,3c0.8,0,1.5-0.7,1.5-1.5C35.5,0.7,34.8,0,34,0c-0.8,0-1.5,0.7-1.5,1.5C32.6,2.3,33.2,3,34,3z"/>
	<path d="M34,267c0.8,0,1.5-0.7,1.5-1.5S34.8,264,34,264c-0.8,0-1.5,0.7-1.5,1.5S33.2,267,34,267z"/>
	<path d="M34,399c0.8,0,1.5-0.7,1.5-1.5S34.8,396,34,396c-0.8,0-1.5,0.7-1.5,1.5S33.2,399,34,399z"/>
	<path d="M34,168c0.8,0,1.5-0.7,1.5-1.5S34.8,165,34,165c-0.8,0-1.5,0.7-1.5,1.5S33.2,168,34,168z"/>
	<path d="M34,36c0.8,0,1.5-0.7,1.5-1.5S34.8,33,34,33c-0.8,0-1.5,0.7-1.5,1.5S33.2,36,34,36z"/>
	<path d="M34,300c0.8,0,1.5-0.7,1.5-1.5S34.8,297,34,297c-0.8,0-1.5,0.7-1.5,1.5S33.2,300,34,300z"/>
	<path d="M34,432c0.8,0,1.5-0.7,1.5-1.5S34.8,429,34,429c-0.8,0-1.5,0.7-1.5,1.5S33.2,432,34,432z"/>
	<path d="M65.2,135c0.8,0,1.5-0.7,1.5-1.5S66,132,65.2,132c-0.8,0-1.5,0.7-1.5,1.5S64.3,135,65.2,135z"/>
	<path d="M65.2,3c0.8,0,1.5-0.7,1.5-1.5C66.6,0.7,66,0,65.2,0c-0.8,0-1.5,0.7-1.5,1.5C63.7,2.3,64.3,3,65.2,3z"/>
	<path d="M65.2,267c0.8,0,1.5-0.7,1.5-1.5S66,264,65.2,264c-0.8,0-1.5,0.7-1.5,1.5S64.3,267,65.2,267z"/>
	<path d="M65.2,399c0.8,0,1.5-0.7,1.5-1.5S66,396,65.2,396c-0.8,0-1.5,0.7-1.5,1.5S64.3,399,65.2,399z"/>
	<path d="M65.2,168c0.8,0,1.5-0.7,1.5-1.5S66,165,65.2,165c-0.8,0-1.5,0.7-1.5,1.5S64.3,168,65.2,168z"/>
	<path d="M65.2,36c0.8,0,1.5-0.7,1.5-1.5S66,33,65.2,33c-0.8,0-1.5,0.7-1.5,1.5S64.3,36,65.2,36z"/>
	<path d="M65.2,300c0.8,0,1.5-0.7,1.5-1.5S66,297,65.2,297c-0.8,0-1.5,0.7-1.5,1.5S64.3,300,65.2,300z"/>
	<path d="M65.2,432c0.8,0,1.5-0.7,1.5-1.5S66,429,65.2,429c-0.8,0-1.5,0.7-1.5,1.5S64.3,432,65.2,432z"/>
	<path d="M97.2,135c0.8,0,1.5-0.7,1.5-1.5S98,132,97.2,132c-0.8,0-1.5,0.7-1.5,1.5S96.4,135,97.2,135z"/>
	<path d="M97.2,3c0.8,0,1.5-0.7,1.5-1.5C98.7,0.7,98,0,97.2,0c-0.8,0-1.5,0.7-1.5,1.5C95.8,2.3,96.4,3,97.2,3z"/>
	<path d="M97.2,267c0.8,0,1.5-0.7,1.5-1.5S98,264,97.2,264c-0.8,0-1.5,0.7-1.5,1.5S96.4,267,97.2,267z"/>
	<path d="M97.2,399c0.8,0,1.5-0.7,1.5-1.5S98,396,97.2,396c-0.8,0-1.5,0.7-1.5,1.5S96.4,399,97.2,399z"/>
	<path d="M97.2,168c0.8,0,1.5-0.7,1.5-1.5S98,165,97.2,165c-0.8,0-1.5,0.7-1.5,1.5S96.4,168,97.2,168z"/>
	<path d="M97.2,36c0.8,0,1.5-0.7,1.5-1.5S98,33,97.2,33c-0.8,0-1.5,0.7-1.5,1.5S96.4,36,97.2,36z"/>
	<path d="M97.2,300c0.8,0,1.5-0.7,1.5-1.5S98,297,97.2,297c-0.8,0-1.5,0.7-1.5,1.5S96.4,300,97.2,300z"/>
	<path d="M97.2,432c0.8,0,1.5-0.7,1.5-1.5S98,429,97.2,429c-0.8,0-1.5,0.7-1.5,1.5S96.4,432,97.2,432z"/>
	<path d="M128.3,135c0.8,0,1.5-0.7,1.5-1.5s-0.7-1.5-1.5-1.5c-0.8,0-1.5,0.7-1.5,1.5S127.5,135,128.3,135z"/>
	<path d="M128.3,3c0.8,0,1.5-0.7,1.5-1.5c0-0.8-0.7-1.5-1.5-1.5c-0.8,0-1.5,0.7-1.5,1.5C126.9,2.3,127.5,3,128.3,3z"/>
	<path d="M128.3,267c0.8,0,1.5-0.7,1.5-1.5s-0.7-1.5-1.5-1.5c-0.8,0-1.5,0.7-1.5,1.5S127.5,267,128.3,267z"/>
	<path d="M128.3,399c0.8,0,1.5-0.7,1.5-1.5s-0.7-1.5-1.5-1.5c-0.8,0-1.5,0.7-1.5,1.5S127.5,399,128.3,399z"/>
	<path d="M128.3,168c0.8,0,1.5-0.7,1.5-1.5s-0.7-1.5-1.5-1.5c-0.8,0-1.5,0.7-1.5,1.5S127.5,168,128.3,168z"/>
	<path d="M128.3,36c0.8,0,1.5-0.7,1.5-1.5s-0.7-1.5-1.5-1.5c-0.8,0-1.5,0.7-1.5,1.5S127.5,36,128.3,36z"/>
	<path d="M128.3,300c0.8,0,1.5-0.7,1.5-1.5s-0.7-1.5-1.5-1.5c-0.8,0-1.5,0.7-1.5,1.5S127.5,300,128.3,300z"/>
	<path d="M128.3,432c0.8,0,1.5-0.7,1.5-1.5s-0.7-1.5-1.5-1.5c-0.8,0-1.5,0.7-1.5,1.5S127.5,432,128.3,432z"/>
	<path d="M160.4,135c0.8,0,1.5-0.7,1.5-1.5s-0.7-1.5-1.5-1.5s-1.5,0.7-1.5,1.5S159.6,135,160.4,135z"/>
	<path d="M160.4,3c0.8,0,1.5-0.7,1.5-1.5c0-0.8-0.7-1.5-1.5-1.5S159,0.7,159,1.5C159,2.3,159.6,3,160.4,3z"/>
	<path d="M160.4,267c0.8,0,1.5-0.7,1.5-1.5s-0.7-1.5-1.5-1.5s-1.5,0.7-1.5,1.5S159.6,267,160.4,267z"/>
	<path d="M160.4,399c0.8,0,1.5-0.7,1.5-1.5s-0.7-1.5-1.5-1.5s-1.5,0.7-1.5,1.5S159.6,399,160.4,399z"/>
	<path d="M160.4,168c0.8,0,1.5-0.7,1.5-1.5s-0.7-1.5-1.5-1.5s-1.5,0.7-1.5,1.5S159.6,168,160.4,168z"/>
	<path d="M160.4,36c0.8,0,1.5-0.7,1.5-1.5s-0.7-1.5-1.5-1.5s-1.5,0.7-1.5,1.5S159.6,36,160.4,36z"/>
	<path d="M160.4,300c0.8,0,1.5-0.7,1.5-1.5s-0.7-1.5-1.5-1.5s-1.5,0.7-1.5,1.5S159.6,300,160.4,300z"/>
	<path d="M160.4,432c0.8,0,1.5-0.7,1.5-1.5s-0.7-1.5-1.5-1.5s-1.5,0.7-1.5,1.5S159.6,432,160.4,432z"/>
	<path d="M192.5,135c0.8,0,1.5-0.7,1.5-1.5s-0.7-1.5-1.5-1.5c-0.8,0-1.5,0.7-1.5,1.5S191.7,135,192.5,135z"/>
	<path d="M192.5,3c0.8,0,1.5-0.7,1.5-1.5c0-0.8-0.7-1.5-1.5-1.5c-0.8,0-1.5,0.7-1.5,1.5C191.1,2.3,191.7,3,192.5,3z"/>
	<path d="M192.5,267c0.8,0,1.5-0.7,1.5-1.5s-0.7-1.5-1.5-1.5c-0.8,0-1.5,0.7-1.5,1.5S191.7,267,192.5,267z"/>
	<path d="M192.5,399c0.8,0,1.5-0.7,1.5-1.5s-0.7-1.5-1.5-1.5c-0.8,0-1.5,0.7-1.5,1.5S191.7,399,192.5,399z"/>
	<path d="M192.5,168c0.8,0,1.5-0.7,1.5-1.5s-0.7-1.5-1.5-1.5c-0.8,0-1.5,0.7-1.5,1.5S191.7,168,192.5,168z"/>
	<path d="M192.5,36c0.8,0,1.5-0.7,1.5-1.5s-0.7-1.5-1.5-1.5c-0.8,0-1.5,0.7-1.5,1.5S191.7,36,192.5,36z"/>
	<path d="M192.5,300c0.8,0,1.5-0.7,1.5-1.5s-0.7-1.5-1.5-1.5c-0.8,0-1.5,0.7-1.5,1.5S191.7,300,192.5,300z"/>
	<path d="M192.5,432c0.8,0,1.5-0.7,1.5-1.5s-0.7-1.5-1.5-1.5c-0.8,0-1.5,0.7-1.5,1.5S191.7,432,192.5,432z"/>
	<path d="M223.6,135c0.8,0,1.5-0.7,1.5-1.5s-0.7-1.5-1.5-1.5c-0.8,0-1.5,0.7-1.5,1.5S222.8,135,223.6,135z"/>
	<path d="M223.6,3c0.8,0,1.5-0.7,1.5-1.5c0-0.8-0.7-1.5-1.5-1.5c-0.8,0-1.5,0.7-1.5,1.5C222.2,2.3,222.8,3,223.6,3z"/>
	<path d="M223.6,267c0.8,0,1.5-0.7,1.5-1.5s-0.7-1.5-1.5-1.5c-0.8,0-1.5,0.7-1.5,1.5S222.8,267,223.6,267z"/>
	<path d="M223.6,399c0.8,0,1.5-0.7,1.5-1.5s-0.7-1.5-1.5-1.5c-0.8,0-1.5,0.7-1.5,1.5S222.8,399,223.6,399z"/>
	<path d="M223.6,168c0.8,0,1.5-0.7,1.5-1.5s-0.7-1.5-1.5-1.5c-0.8,0-1.5,0.7-1.5,1.5S222.8,168,223.6,168z"/>
	<path d="M223.6,36c0.8,0,1.5-0.7,1.5-1.5s-0.7-1.5-1.5-1.5c-0.8,0-1.5,0.7-1.5,1.5S222.8,36,223.6,36z"/>
	<path d="M223.6,300c0.8,0,1.5-0.7,1.5-1.5s-0.7-1.5-1.5-1.5c-0.8,0-1.5,0.7-1.5,1.5S222.8,300,223.6,300z"/>
	<path d="M223.6,432c0.8,0,1.5-0.7,1.5-1.5s-0.7-1.5-1.5-1.5c-0.8,0-1.5,0.7-1.5,1.5S222.8,432,223.6,432z"/>
	<path d="M255.7,135c0.8,0,1.5-0.7,1.5-1.5s-0.7-1.5-1.5-1.5c-0.8,0-1.5,0.7-1.5,1.5S254.9,135,255.7,135z"/>
	<path d="M255.7,3c0.8,0,1.5-0.7,1.5-1.5c0-0.8-0.7-1.5-1.5-1.5c-0.8,0-1.5,0.7-1.5,1.5C254.2,2.3,254.9,3,255.7,3z"/>
	<path d="M255.7,267c0.8,0,1.5-0.7,1.5-1.5s-0.7-1.5-1.5-1.5c-0.8,0-1.5,0.7-1.5,1.5S254.9,267,255.7,267z"/>
	<path d="M255.7,399c0.8,0,1.5-0.7,1.5-1.5s-0.7-1.5-1.5-1.5c-0.8,0-1.5,0.7-1.5,1.5S254.9,399,255.7,399z"/>
	<path d="M255.7,168c0.8,0,1.5-0.7,1.5-1.5s-0.7-1.5-1.5-1.5c-0.8,0-1.5,0.7-1.5,1.5S254.9,168,255.7,168z"/>
	<path d="M255.7,36c0.8,0,1.5-0.7,1.5-1.5s-0.7-1.5-1.5-1.5c-0.8,0-1.5,0.7-1.5,1.5S254.9,36,255.7,36z"/>
	<path d="M255.7,300c0.8,0,1.5-0.7,1.5-1.5s-0.7-1.5-1.5-1.5c-0.8,0-1.5,0.7-1.5,1.5S254.9,300,255.7,300z"/>
	<path d="M255.7,432c0.8,0,1.5-0.7,1.5-1.5s-0.7-1.5-1.5-1.5c-0.8,0-1.5,0.7-1.5,1.5S254.9,432,255.7,432z"/>
	<path d="M286.8,135c0.8,0,1.5-0.7,1.5-1.5s-0.7-1.5-1.5-1.5c-0.8,0-1.5,0.7-1.5,1.5S286,135,286.8,135z"/>
	<path d="M286.8,3c0.8,0,1.5-0.7,1.5-1.5c0-0.8-0.7-1.5-1.5-1.5c-0.8,0-1.5,0.7-1.5,1.5C285.4,2.3,286,3,286.8,3z"/>
	<path d="M286.8,267c0.8,0,1.5-0.7,1.5-1.5s-0.7-1.5-1.5-1.5c-0.8,0-1.5,0.7-1.5,1.5S286,267,286.8,267z"/>
	<path d="M286.8,399c0.8,0,1.5-0.7,1.5-1.5s-0.7-1.5-1.5-1.5c-0.8,0-1.5,0.7-1.5,1.5S286,399,286.8,399z"/>
	<path d="M286.8,168c0.8,0,1.5-0.7,1.5-1.5s-0.7-1.5-1.5-1.5c-0.8,0-1.5,0.7-1.5,1.5S286,168,286.8,168z"/>
	<path d="M286.8,36c0.8,0,1.5-0.7,1.5-1.5s-0.7-1.5-1.5-1.5c-0.8,0-1.5,0.7-1.5,1.5S286,36,286.8,36z"/>
	<path d="M286.8,300c0.8,0,1.5-0.7,1.5-1.5s-0.7-1.5-1.5-1.5c-0.8,0-1.5,0.7-1.5,1.5S286,300,286.8,300z"/>
	<path d="M286.8,432c0.8,0,1.5-0.7,1.5-1.5s-0.7-1.5-1.5-1.5c-0.8,0-1.5,0.7-1.5,1.5S286,432,286.8,432z"/>
	<path d="M318.9,135c0.8,0,1.5-0.7,1.5-1.5s-0.7-1.5-1.5-1.5c-0.8,0-1.5,0.7-1.5,1.5S318.1,135,318.9,135z"/>
	<path d="M318.9,3c0.8,0,1.5-0.7,1.5-1.5c0-0.8-0.7-1.5-1.5-1.5c-0.8,0-1.5,0.7-1.5,1.5C317.4,2.3,318.1,3,318.9,3z"/>
	<path d="M318.9,267c0.8,0,1.5-0.7,1.5-1.5s-0.7-1.5-1.5-1.5c-0.8,0-1.5,0.7-1.5,1.5S318.1,267,318.9,267z"/>
	<path d="M318.9,399c0.8,0,1.5-0.7,1.5-1.5s-0.7-1.5-1.5-1.5c-0.8,0-1.5,0.7-1.5,1.5S318.1,399,318.9,399z"/>
	<path d="M318.9,168c0.8,0,1.5-0.7,1.5-1.5s-0.7-1.5-1.5-1.5c-0.8,0-1.5,0.7-1.5,1.5S318.1,168,318.9,168z"/>
	<path d="M318.9,36c0.8,0,1.5-0.7,1.5-1.5s-0.7-1.5-1.5-1.5c-0.8,0-1.5,0.7-1.5,1.5S318.1,36,318.9,36z"/>
	<path d="M318.9,300c0.8,0,1.5-0.7,1.5-1.5s-0.7-1.5-1.5-1.5c-0.8,0-1.5,0.7-1.5,1.5S318.1,300,318.9,300z"/>
	<path d="M318.9,432c0.8,0,1.5-0.7,1.5-1.5s-0.7-1.5-1.5-1.5c-0.8,0-1.5,0.7-1.5,1.5S318.1,432,318.9,432z"/>
	<path d="M2,597c0.8,0,1.5-0.7,1.5-1.5S2.8,594,2,594c-0.8,0-1.5,0.7-1.5,1.5S1.2,597,2,597z"/>
	<path d="M34,597c0.8,0,1.5-0.7,1.5-1.5S34.8,594,34,594c-0.8,0-1.5,0.7-1.5,1.5S33.2,597,34,597z"/>
	<path d="M65.2,597c0.8,0,1.5-0.7,1.5-1.5S66,594,65.2,594c-0.8,0-1.5,0.7-1.5,1.5S64.3,597,65.2,597z"/>
	<path d="M97.2,597c0.8,0,1.5-0.7,1.5-1.5S98,594,97.2,594c-0.8,0-1.5,0.7-1.5,1.5S96.4,597,97.2,597z"/>
	<path d="M128.3,597c0.8,0,1.5-0.7,1.5-1.5s-0.7-1.5-1.5-1.5c-0.8,0-1.5,0.7-1.5,1.5S127.5,597,128.3,597z"/>
	<path d="M160.4,597c0.8,0,1.5-0.7,1.5-1.5s-0.7-1.5-1.5-1.5s-1.5,0.7-1.5,1.5S159.6,597,160.4,597z"/>
	<path d="M192.5,597c0.8,0,1.5-0.7,1.5-1.5s-0.7-1.5-1.5-1.5c-0.8,0-1.5,0.7-1.5,1.5S191.7,597,192.5,597z"/>
	<path d="M223.6,597c0.8,0,1.5-0.7,1.5-1.5s-0.7-1.5-1.5-1.5c-0.8,0-1.5,0.7-1.5,1.5S222.8,597,223.6,597z"/>
	<path d="M255.7,597c0.8,0,1.5-0.7,1.5-1.5s-0.7-1.5-1.5-1.5c-0.8,0-1.5,0.7-1.5,1.5S254.9,597,255.7,597z"/>
	<path d="M286.8,597c0.8,0,1.5-0.7,1.5-1.5s-0.7-1.5-1.5-1.5c-0.8,0-1.5,0.7-1.5,1.5S286,597,286.8,597z"/>
	<path d="M318.9,597c0.8,0,1.5-0.7,1.5-1.5s-0.7-1.5-1.5-1.5c-0.8,0-1.5,0.7-1.5,1.5S318.1,597,318.9,597z"/>
	<path d="M2,630c0.8,0,1.5-0.7,1.5-1.5S2.8,627,2,627c-0.8,0-1.5,0.7-1.5,1.5S1.2,630,2,630z"/>
	<path d="M34,630c0.8,0,1.5-0.7,1.5-1.5S34.8,627,34,627c-0.8,0-1.5,0.7-1.5,1.5S33.2,630,34,630z"/>
	<path d="M65.2,630c0.8,0,1.5-0.7,1.5-1.5S66,627,65.2,627c-0.8,0-1.5,0.7-1.5,1.5S64.3,630,65.2,630z"/>
	<path d="M97.2,630c0.8,0,1.5-0.7,1.5-1.5S98,627,97.2,627c-0.8,0-1.5,0.7-1.5,1.5S96.4,630,97.2,630z"/>
	<path d="M128.3,630c0.8,0,1.5-0.7,1.5-1.5s-0.7-1.5-1.5-1.5c-0.8,0-1.5,0.7-1.5,1.5S127.5,630,128.3,630z"/>
	<path d="M160.4,630c0.8,0,1.5-0.7,1.5-1.5s-0.7-1.5-1.5-1.5s-1.5,0.7-1.5,1.5S159.6,630,160.4,630z"/>
	<path d="M192.5,630c0.8,0,1.5-0.7,1.5-1.5s-0.7-1.5-1.5-1.5c-0.8,0-1.5,0.7-1.5,1.5S191.7,630,192.5,630z"/>
	<path d="M223.6,630c0.8,0,1.5-0.7,1.5-1.5s-0.7-1.5-1.5-1.5c-0.8,0-1.5,0.7-1.5,1.5S222.8,630,223.6,630z"/>
	<path d="M255.7,630c0.8,0,1.5-0.7,1.5-1.5s-0.7-1.5-1.5-1.5c-0.8,0-1.5,0.7-1.5,1.5S254.9,630,255.7,630z"/>
	<path d="M286.8,630c0.8,0,1.5-0.7,1.5-1.5s-0.7-1.5-1.5-1.5c-0.8,0-1.5,0.7-1.5,1.5S286,630,286.8,630z"/>
	<path d="M318.9,630c0.8,0,1.5-0.7,1.5-1.5s-0.7-1.5-1.5-1.5c-0.8,0-1.5,0.7-1.5,1.5S318.1,630,318.9,630z"/>
	<path d="M2,564c0.8,0,1.5-0.7,1.5-1.5S2.8,561,2,561c-0.8,0-1.5,0.7-1.5,1.5S1.2,564,2,564z"/>
	<path d="M34,564c0.8,0,1.5-0.7,1.5-1.5S34.8,561,34,561c-0.8,0-1.5,0.7-1.5,1.5S33.2,564,34,564z"/>
	<path d="M65.2,564c0.8,0,1.5-0.7,1.5-1.5S66,561,65.2,561c-0.8,0-1.5,0.7-1.5,1.5S64.3,564,65.2,564z"/>
	<path d="M97.2,564c0.8,0,1.5-0.7,1.5-1.5S98,561,97.2,561c-0.8,0-1.5,0.7-1.5,1.5S96.4,564,97.2,564z"/>
	<path d="M128.3,564c0.8,0,1.5-0.7,1.5-1.5s-0.7-1.5-1.5-1.5c-0.8,0-1.5,0.7-1.5,1.5S127.5,564,128.3,564z"/>
	<path d="M160.4,564c0.8,0,1.5-0.7,1.5-1.5s-0.7-1.5-1.5-1.5s-1.5,0.7-1.5,1.5S159.6,564,160.4,564z"/>
	<path d="M192.5,564c0.8,0,1.5-0.7,1.5-1.5s-0.7-1.5-1.5-1.5c-0.8,0-1.5,0.7-1.5,1.5S191.7,564,192.5,564z"/>
	<path d="M223.6,564c0.8,0,1.5-0.7,1.5-1.5s-0.7-1.5-1.5-1.5c-0.8,0-1.5,0.7-1.5,1.5S222.8,564,223.6,564z"/>
	<path d="M255.7,564c0.8,0,1.5-0.7,1.5-1.5s-0.7-1.5-1.5-1.5c-0.8,0-1.5,0.7-1.5,1.5S254.9,564,255.7,564z"/>
	<path d="M286.8,564c0.8,0,1.5-0.7,1.5-1.5s-0.7-1.5-1.5-1.5c-0.8,0-1.5,0.7-1.5,1.5S286,564,286.8,564z"/>
	<path d="M318.9,564c0.8,0,1.5-0.7,1.5-1.5s-0.7-1.5-1.5-1.5c-0.8,0-1.5,0.7-1.5,1.5S318.1,564,318.9,564z"/>
	<path d="M2,531c0.8,0,1.5-0.7,1.5-1.5S2.8,528,2,528c-0.8,0-1.5,0.7-1.5,1.5S1.2,531,2,531z"/>
	<path d="M34,531c0.8,0,1.5-0.7,1.5-1.5S34.8,528,34,528c-0.8,0-1.5,0.7-1.5,1.5S33.2,531,34,531z"/>
	<path d="M65.2,531c0.8,0,1.5-0.7,1.5-1.5S66,528,65.2,528c-0.8,0-1.5,0.7-1.5,1.5S64.3,531,65.2,531z"/>
	<path d="M97.2,531c0.8,0,1.5-0.7,1.5-1.5S98,528,97.2,528c-0.8,0-1.5,0.7-1.5,1.5S96.4,531,97.2,531z"/>
	<path d="M128.3,531c0.8,0,1.5-0.7,1.5-1.5s-0.7-1.5-1.5-1.5c-0.8,0-1.5,0.7-1.5,1.5S127.5,531,128.3,531z"/>
	<path d="M160.4,531c0.8,0,1.5-0.7,1.5-1.5s-0.7-1.5-1.5-1.5s-1.5,0.7-1.5,1.5S159.6,531,160.4,531z"/>
	<path d="M192.5,531c0.8,0,1.5-0.7,1.5-1.5s-0.7-1.5-1.5-1.5c-0.8,0-1.5,0.7-1.5,1.5S191.7,531,192.5,531z"/>
	<path d="M223.6,531c0.8,0,1.5-0.7,1.5-1.5s-0.7-1.5-1.5-1.5c-0.8,0-1.5,0.7-1.5,1.5S222.8,531,223.6,531z"/>
	<path d="M255.7,531c0.8,0,1.5-0.7,1.5-1.5s-0.7-1.5-1.5-1.5c-0.8,0-1.5,0.7-1.5,1.5S254.9,531,255.7,531z"/>
	<path d="M286.8,531c0.8,0,1.5-0.7,1.5-1.5s-0.7-1.5-1.5-1.5c-0.8,0-1.5,0.7-1.5,1.5S286,531,286.8,531z"/>
	<path d="M318.9,531c0.8,0,1.5-0.7,1.5-1.5s-0.7-1.5-1.5-1.5c-0.8,0-1.5,0.7-1.5,1.5S318.1,531,318.9,531z"/>
	<path d="M2,498c0.8,0,1.5-0.7,1.5-1.5S2.8,495,2,495c-0.8,0-1.5,0.7-1.5,1.5S1.2,498,2,498z"/>
	<path d="M34,498c0.8,0,1.5-0.7,1.5-1.5S34.8,495,34,495c-0.8,0-1.5,0.7-1.5,1.5S33.2,498,34,498z"/>
	<path d="M65.2,498c0.8,0,1.5-0.7,1.5-1.5S66,495,65.2,495c-0.8,0-1.5,0.7-1.5,1.5S64.3,498,65.2,498z"/>
	<path d="M97.2,498c0.8,0,1.5-0.7,1.5-1.5S98,495,97.2,495c-0.8,0-1.5,0.7-1.5,1.5S96.4,498,97.2,498z"/>
	<path d="M128.3,498c0.8,0,1.5-0.7,1.5-1.5s-0.7-1.5-1.5-1.5c-0.8,0-1.5,0.7-1.5,1.5S127.5,498,128.3,498z"/>
	<path d="M160.4,498c0.8,0,1.5-0.7,1.5-1.5s-0.7-1.5-1.5-1.5s-1.5,0.7-1.5,1.5S159.6,498,160.4,498z"/>
	<path d="M192.5,498c0.8,0,1.5-0.7,1.5-1.5s-0.7-1.5-1.5-1.5c-0.8,0-1.5,0.7-1.5,1.5S191.7,498,192.5,498z"/>
	<path d="M223.6,498c0.8,0,1.5-0.7,1.5-1.5s-0.7-1.5-1.5-1.5c-0.8,0-1.5,0.7-1.5,1.5S222.8,498,223.6,498z"/>
	<path d="M255.7,498c0.8,0,1.5-0.7,1.5-1.5s-0.7-1.5-1.5-1.5c-0.8,0-1.5,0.7-1.5,1.5S254.9,498,255.7,498z"/>
	<path d="M286.8,498c0.8,0,1.5-0.7,1.5-1.5s-0.7-1.5-1.5-1.5c-0.8,0-1.5,0.7-1.5,1.5S286,498,286.8,498z"/>
	<path d="M318.9,498c0.8,0,1.5-0.7,1.5-1.5s-0.7-1.5-1.5-1.5c-0.8,0-1.5,0.7-1.5,1.5S318.1,498,318.9,498z"/>
	<path d="M350.6,201c0.8,0,1.5-0.7,1.5-1.5s-0.7-1.5-1.5-1.5c-0.8,0-1.5,0.7-1.5,1.5S349.8,201,350.6,201z"/>
	<path d="M350.6,69c0.8,0,1.5-0.7,1.5-1.5s-0.7-1.5-1.5-1.5c-0.8,0-1.5,0.7-1.5,1.5S349.8,69,350.6,69z"/>
	<path d="M350.6,333c0.8,0,1.5-0.7,1.5-1.5s-0.7-1.5-1.5-1.5c-0.8,0-1.5,0.7-1.5,1.5S349.8,333,350.6,333z"/>
	<path d="M350.6,465c0.8,0,1.5-0.7,1.5-1.5s-0.7-1.5-1.5-1.5c-0.8,0-1.5,0.7-1.5,1.5S349.8,465,350.6,465z"/>
	<path d="M350.6,234c0.8,0,1.5-0.7,1.5-1.5s-0.7-1.5-1.5-1.5c-0.8,0-1.5,0.7-1.5,1.5S349.8,234,350.6,234z"/>
	<path d="M350.6,102c0.8,0,1.5-0.7,1.5-1.5c0-0.8-0.7-1.5-1.5-1.5c-0.8,0-1.5,0.7-1.5,1.5C349.1,101.3,349.8,102,350.6,102z"/>
	<path d="M350.6,366c0.8,0,1.5-0.7,1.5-1.5s-0.7-1.5-1.5-1.5c-0.8,0-1.5,0.7-1.5,1.5S349.8,366,350.6,366z"/>
	<path d="M382.6,201c0.8,0,1.5-0.7,1.5-1.5s-0.7-1.5-1.5-1.5c-0.8,0-1.5,0.7-1.5,1.5S381.8,201,382.6,201z"/>
	<path d="M382.6,69c0.8,0,1.5-0.7,1.5-1.5s-0.7-1.5-1.5-1.5c-0.8,0-1.5,0.7-1.5,1.5S381.8,69,382.6,69z"/>
	<path d="M382.6,333c0.8,0,1.5-0.7,1.5-1.5s-0.7-1.5-1.5-1.5c-0.8,0-1.5,0.7-1.5,1.5S381.8,333,382.6,333z"/>
	<path d="M382.6,465c0.8,0,1.5-0.7,1.5-1.5s-0.7-1.5-1.5-1.5c-0.8,0-1.5,0.7-1.5,1.5S381.8,465,382.6,465z"/>
	<path d="M382.6,234c0.8,0,1.5-0.7,1.5-1.5s-0.7-1.5-1.5-1.5c-0.8,0-1.5,0.7-1.5,1.5S381.8,234,382.6,234z"/>
	<path d="M382.6,102c0.8,0,1.5-0.7,1.5-1.5s-0.7-1.5-1.5-1.5c-0.8,0-1.5,0.7-1.5,1.5S381.8,102,382.6,102z"/>
	<path d="M382.6,366c0.8,0,1.5-0.7,1.5-1.5s-0.7-1.5-1.5-1.5c-0.8,0-1.5,0.7-1.5,1.5S381.8,366,382.6,366z"/>
	<path d="M413.8,201c0.8,0,1.5-0.7,1.5-1.5s-0.7-1.5-1.5-1.5c-0.8,0-1.5,0.7-1.5,1.5S412.9,201,413.8,201z"/>
	<path d="M413.8,69c0.8,0,1.5-0.7,1.5-1.5s-0.7-1.5-1.5-1.5c-0.8,0-1.5,0.7-1.5,1.5S412.9,69,413.8,69z"/>
	<path d="M413.8,333c0.8,0,1.5-0.7,1.5-1.5s-0.7-1.5-1.5-1.5c-0.8,0-1.5,0.7-1.5,1.5S412.9,333,413.8,333z"/>
	<path d="M413.8,465c0.8,0,1.5-0.7,1.5-1.5s-0.7-1.5-1.5-1.5c-0.8,0-1.5,0.7-1.5,1.5S412.9,465,413.8,465z"/>
	<path d="M413.8,234c0.8,0,1.5-0.7,1.5-1.5s-0.7-1.5-1.5-1.5c-0.8,0-1.5,0.7-1.5,1.5S412.9,234,413.8,234z"/>
	<path d="M413.8,102c0.8,0,1.5-0.7,1.5-1.5s-0.7-1.5-1.5-1.5c-0.8,0-1.5,0.7-1.5,1.5S412.9,102,413.8,102z"/>
	<path d="M413.8,366c0.8,0,1.5-0.7,1.5-1.5s-0.7-1.5-1.5-1.5c-0.8,0-1.5,0.7-1.5,1.5S412.9,366,413.8,366z"/>
	<path d="M445.8,201c0.8,0,1.5-0.7,1.5-1.5s-0.7-1.5-1.5-1.5c-0.8,0-1.5,0.7-1.5,1.5S445,201,445.8,201z"/>
	<path d="M445.8,69c0.8,0,1.5-0.7,1.5-1.5s-0.7-1.5-1.5-1.5c-0.8,0-1.5,0.7-1.5,1.5S445,69,445.8,69z"/>
	<path d="M445.8,333c0.8,0,1.5-0.7,1.5-1.5s-0.7-1.5-1.5-1.5c-0.8,0-1.5,0.7-1.5,1.5S445,333,445.8,333z"/>
	<path d="M445.8,465c0.8,0,1.5-0.7,1.5-1.5s-0.7-1.5-1.5-1.5c-0.8,0-1.5,0.7-1.5,1.5S445,465,445.8,465z"/>
	<path d="M445.8,234c0.8,0,1.5-0.7,1.5-1.5s-0.7-1.5-1.5-1.5c-0.8,0-1.5,0.7-1.5,1.5S445,234,445.8,234z"/>
	<path d="M445.8,102c0.8,0,1.5-0.7,1.5-1.5s-0.7-1.5-1.5-1.5c-0.8,0-1.5,0.7-1.5,1.5S445,102,445.8,102z"/>
	<path d="M445.8,366c0.8,0,1.5-0.7,1.5-1.5s-0.7-1.5-1.5-1.5c-0.8,0-1.5,0.7-1.5,1.5S445,366,445.8,366z"/>
	<path d="M476.9,201c0.8,0,1.5-0.7,1.5-1.5s-0.7-1.5-1.5-1.5c-0.8,0-1.5,0.7-1.5,1.5S476.1,201,476.9,201z"/>
	<path d="M476.9,69c0.8,0,1.5-0.7,1.5-1.5s-0.7-1.5-1.5-1.5c-0.8,0-1.5,0.7-1.5,1.5S476.1,69,476.9,69z"/>
	<path d="M476.9,333c0.8,0,1.5-0.7,1.5-1.5s-0.7-1.5-1.5-1.5c-0.8,0-1.5,0.7-1.5,1.5S476.1,333,476.9,333z"/>
	<path d="M476.9,465c0.8,0,1.5-0.7,1.5-1.5s-0.7-1.5-1.5-1.5c-0.8,0-1.5,0.7-1.5,1.5S476.1,465,476.9,465z"/>
	<path d="M476.9,234c0.8,0,1.5-0.7,1.5-1.5s-0.7-1.5-1.5-1.5c-0.8,0-1.5,0.7-1.5,1.5S476.1,234,476.9,234z"/>
	<path d="M476.9,102c0.8,0,1.5-0.7,1.5-1.5s-0.7-1.5-1.5-1.5c-0.8,0-1.5,0.7-1.5,1.5S476.1,102,476.9,102z"/>
	<path d="M476.9,366c0.8,0,1.5-0.7,1.5-1.5s-0.7-1.5-1.5-1.5c-0.8,0-1.5,0.7-1.5,1.5S476.1,366,476.9,366z"/>
	<path d="M509,201c0.8,0,1.5-0.7,1.5-1.5s-0.7-1.5-1.5-1.5c-0.8,0-1.5,0.7-1.5,1.5S508.2,201,509,201z"/>
	<path d="M509,69c0.8,0,1.5-0.7,1.5-1.5S509.8,66,509,66c-0.8,0-1.5,0.7-1.5,1.5S508.2,69,509,69z"/>
	<path d="M509,333c0.8,0,1.5-0.7,1.5-1.5s-0.7-1.5-1.5-1.5c-0.8,0-1.5,0.7-1.5,1.5S508.2,333,509,333z"/>
	<path d="M509,465c0.8,0,1.5-0.7,1.5-1.5s-0.7-1.5-1.5-1.5c-0.8,0-1.5,0.7-1.5,1.5S508.2,465,509,465z"/>
	<path d="M509,234c0.8,0,1.5-0.7,1.5-1.5s-0.7-1.5-1.5-1.5c-0.8,0-1.5,0.7-1.5,1.5S508.2,234,509,234z"/>
	<path d="M509,102c0.8,0,1.5-0.7,1.5-1.5c0-0.8-0.7-1.5-1.5-1.5c-0.8,0-1.5,0.7-1.5,1.5C507.6,101.3,508.2,102,509,102z"/>
	<path d="M509,366c0.8,0,1.5-0.7,1.5-1.5s-0.7-1.5-1.5-1.5c-0.8,0-1.5,0.7-1.5,1.5S508.2,366,509,366z"/>
	<path d="M541.1,201c0.8,0,1.5-0.7,1.5-1.5s-0.7-1.5-1.5-1.5c-0.8,0-1.5,0.7-1.5,1.5S540.3,201,541.1,201z"/>
	<path d="M541.1,69c0.8,0,1.5-0.7,1.5-1.5s-0.7-1.5-1.5-1.5c-0.8,0-1.5,0.7-1.5,1.5S540.3,69,541.1,69z"/>
	<path d="M541.1,333c0.8,0,1.5-0.7,1.5-1.5s-0.7-1.5-1.5-1.5c-0.8,0-1.5,0.7-1.5,1.5S540.3,333,541.1,333z"/>
	<path d="M541.1,465c0.8,0,1.5-0.7,1.5-1.5s-0.7-1.5-1.5-1.5c-0.8,0-1.5,0.7-1.5,1.5S540.3,465,541.1,465z"/>
	<path d="M541.1,234c0.8,0,1.5-0.7,1.5-1.5s-0.7-1.5-1.5-1.5c-0.8,0-1.5,0.7-1.5,1.5S540.3,234,541.1,234z"/>
	<path d="M541.1,102c0.8,0,1.5-0.7,1.5-1.5s-0.7-1.5-1.5-1.5c-0.8,0-1.5,0.7-1.5,1.5S540.3,102,541.1,102z"/>
	<path d="M541.1,366c0.8,0,1.5-0.7,1.5-1.5s-0.7-1.5-1.5-1.5c-0.8,0-1.5,0.7-1.5,1.5S540.3,366,541.1,366z"/>
	<path d="M572.2,201c0.8,0,1.5-0.7,1.5-1.5s-0.7-1.5-1.5-1.5c-0.8,0-1.5,0.7-1.5,1.5S571.4,201,572.2,201z"/>
	<path d="M572.2,69c0.8,0,1.5-0.7,1.5-1.5S573,66,572.2,66c-0.8,0-1.5,0.7-1.5,1.5S571.4,69,572.2,69z"/>
	<path d="M572.2,333c0.8,0,1.5-0.7,1.5-1.5s-0.7-1.5-1.5-1.5c-0.8,0-1.5,0.7-1.5,1.5S571.4,333,572.2,333z"/>
	<path d="M572.2,465c0.8,0,1.5-0.7,1.5-1.5s-0.7-1.5-1.5-1.5c-0.8,0-1.5,0.7-1.5,1.5S571.4,465,572.2,465z"/>
	<path d="M572.2,234c0.8,0,1.5-0.7,1.5-1.5s-0.7-1.5-1.5-1.5c-0.8,0-1.5,0.7-1.5,1.5S571.4,234,572.2,234z"/>
	<path d="M572.2,102c0.8,0,1.5-0.7,1.5-1.5S573,99,572.2,99c-0.8,0-1.5,0.7-1.5,1.5S571.4,102,572.2,102z"/>
	<path d="M572.2,366c0.8,0,1.5-0.7,1.5-1.5s-0.7-1.5-1.5-1.5c-0.8,0-1.5,0.7-1.5,1.5S571.4,366,572.2,366z"/>
	<path d="M604.3,201c0.8,0,1.5-0.7,1.5-1.5s-0.7-1.5-1.5-1.5c-0.8,0-1.5,0.7-1.5,1.5S603.5,201,604.3,201z"/>
	<path d="M604.3,69c0.8,0,1.5-0.7,1.5-1.5s-0.7-1.5-1.5-1.5c-0.8,0-1.5,0.7-1.5,1.5S603.5,69,604.3,69z"/>
	<path d="M604.3,333c0.8,0,1.5-0.7,1.5-1.5s-0.7-1.5-1.5-1.5c-0.8,0-1.5,0.7-1.5,1.5S603.5,333,604.3,333z"/>
	<path d="M604.3,465c0.8,0,1.5-0.7,1.5-1.5s-0.7-1.5-1.5-1.5c-0.8,0-1.5,0.7-1.5,1.5S603.5,465,604.3,465z"/>
	<path d="M604.3,234c0.8,0,1.5-0.7,1.5-1.5s-0.7-1.5-1.5-1.5c-0.8,0-1.5,0.7-1.5,1.5S603.5,234,604.3,234z"/>
	<path d="M604.3,102c0.8,0,1.5-0.7,1.5-1.5s-0.7-1.5-1.5-1.5c-0.8,0-1.5,0.7-1.5,1.5S603.5,102,604.3,102z"/>
	<path d="M604.3,366c0.8,0,1.5-0.7,1.5-1.5s-0.7-1.5-1.5-1.5c-0.8,0-1.5,0.7-1.5,1.5S603.5,366,604.3,366z"/>
	<path d="M635.4,201c0.8,0,1.5-0.7,1.5-1.5s-0.7-1.5-1.5-1.5c-0.8,0-1.5,0.7-1.5,1.5S634.6,201,635.4,201z"/>
	<path d="M635.4,69c0.8,0,1.5-0.7,1.5-1.5s-0.7-1.5-1.5-1.5c-0.8,0-1.5,0.7-1.5,1.5S634.6,69,635.4,69z"/>
	<path d="M635.4,333c0.8,0,1.5-0.7,1.5-1.5s-0.7-1.5-1.5-1.5c-0.8,0-1.5,0.7-1.5,1.5S634.6,333,635.4,333z"/>
	<path d="M635.4,465c0.8,0,1.5-0.7,1.5-1.5s-0.7-1.5-1.5-1.5c-0.8,0-1.5,0.7-1.5,1.5S634.6,465,635.4,465z"/>
	<path d="M635.4,234c0.8,0,1.5-0.7,1.5-1.5s-0.7-1.5-1.5-1.5c-0.8,0-1.5,0.7-1.5,1.5S634.6,234,635.4,234z"/>
	<path d="M635.4,102c0.8,0,1.5-0.7,1.5-1.5s-0.7-1.5-1.5-1.5c-0.8,0-1.5,0.7-1.5,1.5S634.6,102,635.4,102z"/>
	<path d="M635.4,366c0.8,0,1.5-0.7,1.5-1.5s-0.7-1.5-1.5-1.5c-0.8,0-1.5,0.7-1.5,1.5S634.6,366,635.4,366z"/>
	<path d="M667.5,201c0.8,0,1.5-0.7,1.5-1.5s-0.7-1.5-1.5-1.5c-0.8,0-1.5,0.7-1.5,1.5S666.7,201,667.5,201z"/>
	<path d="M667.5,69c0.8,0,1.5-0.7,1.5-1.5s-0.7-1.5-1.5-1.5c-0.8,0-1.5,0.7-1.5,1.5S666.7,69,667.5,69z"/>
	<path d="M667.5,333c0.8,0,1.5-0.7,1.5-1.5s-0.7-1.5-1.5-1.5c-0.8,0-1.5,0.7-1.5,1.5S666.7,333,667.5,333z"/>
	<path d="M667.5,465c0.8,0,1.5-0.7,1.5-1.5s-0.7-1.5-1.5-1.5c-0.8,0-1.5,0.7-1.5,1.5S666.7,465,667.5,465z"/>
	<path d="M667.5,234c0.8,0,1.5-0.7,1.5-1.5s-0.7-1.5-1.5-1.5c-0.8,0-1.5,0.7-1.5,1.5S666.7,234,667.5,234z"/>
	<path d="M667.5,102c0.8,0,1.5-0.7,1.5-1.5c0-0.8-0.7-1.5-1.5-1.5c-0.8,0-1.5,0.7-1.5,1.5C666,101.3,666.7,102,667.5,102z"/>
	<path d="M667.5,366c0.8,0,1.5-0.7,1.5-1.5s-0.7-1.5-1.5-1.5c-0.8,0-1.5,0.7-1.5,1.5S666.7,366,667.5,366z"/>
	<path d="M350.6,135c0.8,0,1.5-0.7,1.5-1.5s-0.7-1.5-1.5-1.5c-0.8,0-1.5,0.7-1.5,1.5S349.8,135,350.6,135z"/>
	<path d="M350.6,3c0.8,0,1.5-0.7,1.5-1.5c0-0.8-0.7-1.5-1.5-1.5c-0.8,0-1.5,0.7-1.5,1.5C349.1,2.3,349.8,3,350.6,3z"/>
	<path d="M350.6,267c0.8,0,1.5-0.7,1.5-1.5s-0.7-1.5-1.5-1.5c-0.8,0-1.5,0.7-1.5,1.5S349.8,267,350.6,267z"/>
	<path d="M350.6,399c0.8,0,1.5-0.7,1.5-1.5s-0.7-1.5-1.5-1.5c-0.8,0-1.5,0.7-1.5,1.5S349.8,399,350.6,399z"/>
	<path d="M350.6,168c0.8,0,1.5-0.7,1.5-1.5s-0.7-1.5-1.5-1.5c-0.8,0-1.5,0.7-1.5,1.5S349.8,168,350.6,168z"/>
	<path d="M350.6,36c0.8,0,1.5-0.7,1.5-1.5s-0.7-1.5-1.5-1.5c-0.8,0-1.5,0.7-1.5,1.5S349.8,36,350.6,36z"/>
	<path d="M350.6,300c0.8,0,1.5-0.7,1.5-1.5s-0.7-1.5-1.5-1.5c-0.8,0-1.5,0.7-1.5,1.5S349.8,300,350.6,300z"/>
	<path d="M350.6,432c0.8,0,1.5-0.7,1.5-1.5s-0.7-1.5-1.5-1.5c-0.8,0-1.5,0.7-1.5,1.5S349.8,432,350.6,432z"/>
	<path d="M382.6,135c0.8,0,1.5-0.7,1.5-1.5s-0.7-1.5-1.5-1.5c-0.8,0-1.5,0.7-1.5,1.5S381.8,135,382.6,135z"/>
	<path d="M382.6,3c0.8,0,1.5-0.7,1.5-1.5c0-0.8-0.7-1.5-1.5-1.5c-0.8,0-1.5,0.7-1.5,1.5C381.2,2.3,381.8,3,382.6,3z"/>
	<path d="M382.6,267c0.8,0,1.5-0.7,1.5-1.5s-0.7-1.5-1.5-1.5c-0.8,0-1.5,0.7-1.5,1.5S381.8,267,382.6,267z"/>
	<path d="M382.6,399c0.8,0,1.5-0.7,1.5-1.5s-0.7-1.5-1.5-1.5c-0.8,0-1.5,0.7-1.5,1.5S381.8,399,382.6,399z"/>
	<path d="M382.6,168c0.8,0,1.5-0.7,1.5-1.5s-0.7-1.5-1.5-1.5c-0.8,0-1.5,0.7-1.5,1.5S381.8,168,382.6,168z"/>
	<path d="M382.6,36c0.8,0,1.5-0.7,1.5-1.5s-0.7-1.5-1.5-1.5c-0.8,0-1.5,0.7-1.5,1.5S381.8,36,382.6,36z"/>
	<path d="M382.6,300c0.8,0,1.5-0.7,1.5-1.5s-0.7-1.5-1.5-1.5c-0.8,0-1.5,0.7-1.5,1.5S381.8,300,382.6,300z"/>
	<path d="M382.6,432c0.8,0,1.5-0.7,1.5-1.5s-0.7-1.5-1.5-1.5c-0.8,0-1.5,0.7-1.5,1.5S381.8,432,382.6,432z"/>
	<path d="M413.8,135c0.8,0,1.5-0.7,1.5-1.5s-0.7-1.5-1.5-1.5c-0.8,0-1.5,0.7-1.5,1.5S412.9,135,413.8,135z"/>
	<path d="M413.8,3c0.8,0,1.5-0.7,1.5-1.5c0-0.8-0.7-1.5-1.5-1.5c-0.8,0-1.5,0.7-1.5,1.5C412.3,2.3,412.9,3,413.8,3z"/>
	<path d="M413.8,267c0.8,0,1.5-0.7,1.5-1.5s-0.7-1.5-1.5-1.5c-0.8,0-1.5,0.7-1.5,1.5S412.9,267,413.8,267z"/>
	<path d="M413.8,399c0.8,0,1.5-0.7,1.5-1.5s-0.7-1.5-1.5-1.5c-0.8,0-1.5,0.7-1.5,1.5S412.9,399,413.8,399z"/>
	<path d="M413.8,168c0.8,0,1.5-0.7,1.5-1.5s-0.7-1.5-1.5-1.5c-0.8,0-1.5,0.7-1.5,1.5S412.9,168,413.8,168z"/>
	<path d="M413.8,36c0.8,0,1.5-0.7,1.5-1.5s-0.7-1.5-1.5-1.5c-0.8,0-1.5,0.7-1.5,1.5S412.9,36,413.8,36z"/>
	<path d="M413.8,300c0.8,0,1.5-0.7,1.5-1.5s-0.7-1.5-1.5-1.5c-0.8,0-1.5,0.7-1.5,1.5S412.9,300,413.8,300z"/>
	<path d="M413.8,432c0.8,0,1.5-0.7,1.5-1.5s-0.7-1.5-1.5-1.5c-0.8,0-1.5,0.7-1.5,1.5S412.9,432,413.8,432z"/>
	<path d="M445.8,135c0.8,0,1.5-0.7,1.5-1.5s-0.7-1.5-1.5-1.5c-0.8,0-1.5,0.7-1.5,1.5S445,135,445.8,135z"/>
	<path d="M445.8,3c0.8,0,1.5-0.7,1.5-1.5c0-0.8-0.7-1.5-1.5-1.5c-0.8,0-1.5,0.7-1.5,1.5C444.4,2.3,445,3,445.8,3z"/>
	<path d="M445.8,267c0.8,0,1.5-0.7,1.5-1.5s-0.7-1.5-1.5-1.5c-0.8,0-1.5,0.7-1.5,1.5S445,267,445.8,267z"/>
	<path d="M445.8,399c0.8,0,1.5-0.7,1.5-1.5s-0.7-1.5-1.5-1.5c-0.8,0-1.5,0.7-1.5,1.5S445,399,445.8,399z"/>
	<path d="M445.8,168c0.8,0,1.5-0.7,1.5-1.5s-0.7-1.5-1.5-1.5c-0.8,0-1.5,0.7-1.5,1.5S445,168,445.8,168z"/>
	<path d="M445.8,36c0.8,0,1.5-0.7,1.5-1.5s-0.7-1.5-1.5-1.5c-0.8,0-1.5,0.7-1.5,1.5S445,36,445.8,36z"/>
	<path d="M445.8,300c0.8,0,1.5-0.7,1.5-1.5s-0.7-1.5-1.5-1.5c-0.8,0-1.5,0.7-1.5,1.5S445,300,445.8,300z"/>
	<path d="M445.8,432c0.8,0,1.5-0.7,1.5-1.5s-0.7-1.5-1.5-1.5c-0.8,0-1.5,0.7-1.5,1.5S445,432,445.8,432z"/>
	<path d="M476.9,135c0.8,0,1.5-0.7,1.5-1.5s-0.7-1.5-1.5-1.5c-0.8,0-1.5,0.7-1.5,1.5S476.1,135,476.9,135z"/>
	<path d="M476.9,3c0.8,0,1.5-0.7,1.5-1.5c0-0.8-0.7-1.5-1.5-1.5c-0.8,0-1.5,0.7-1.5,1.5C475.5,2.3,476.1,3,476.9,3z"/>
	<path d="M476.9,267c0.8,0,1.5-0.7,1.5-1.5s-0.7-1.5-1.5-1.5c-0.8,0-1.5,0.7-1.5,1.5S476.1,267,476.9,267z"/>
	<path d="M476.9,399c0.8,0,1.5-0.7,1.5-1.5s-0.7-1.5-1.5-1.5c-0.8,0-1.5,0.7-1.5,1.5S476.1,399,476.9,399z"/>
	<path d="M476.9,168c0.8,0,1.5-0.7,1.5-1.5s-0.7-1.5-1.5-1.5c-0.8,0-1.5,0.7-1.5,1.5S476.1,168,476.9,168z"/>
	<path d="M476.9,36c0.8,0,1.5-0.7,1.5-1.5s-0.7-1.5-1.5-1.5c-0.8,0-1.5,0.7-1.5,1.5S476.1,36,476.9,36z"/>
	<path d="M476.9,300c0.8,0,1.5-0.7,1.5-1.5s-0.7-1.5-1.5-1.5c-0.8,0-1.5,0.7-1.5,1.5S476.1,300,476.9,300z"/>
	<path d="M476.9,432c0.8,0,1.5-0.7,1.5-1.5s-0.7-1.5-1.5-1.5c-0.8,0-1.5,0.7-1.5,1.5S476.1,432,476.9,432z"/>
	<path d="M509,135c0.8,0,1.5-0.7,1.5-1.5s-0.7-1.5-1.5-1.5c-0.8,0-1.5,0.7-1.5,1.5S508.2,135,509,135z"/>
	<path d="M509,3c0.8,0,1.5-0.7,1.5-1.5c0-0.8-0.7-1.5-1.5-1.5c-0.8,0-1.5,0.7-1.5,1.5C507.6,2.3,508.2,3,509,3z"/>
	<path d="M509,267c0.8,0,1.5-0.7,1.5-1.5s-0.7-1.5-1.5-1.5c-0.8,0-1.5,0.7-1.5,1.5S508.2,267,509,267z"/>
	<path d="M509,399c0.8,0,1.5-0.7,1.5-1.5s-0.7-1.5-1.5-1.5c-0.8,0-1.5,0.7-1.5,1.5S508.2,399,509,399z"/>
	<path d="M509,168c0.8,0,1.5-0.7,1.5-1.5s-0.7-1.5-1.5-1.5c-0.8,0-1.5,0.7-1.5,1.5S508.2,168,509,168z"/>
	<path d="M509,36c0.8,0,1.5-0.7,1.5-1.5S509.8,33,509,33c-0.8,0-1.5,0.7-1.5,1.5S508.2,36,509,36z"/>
	<path d="M509,300c0.8,0,1.5-0.7,1.5-1.5s-0.7-1.5-1.5-1.5c-0.8,0-1.5,0.7-1.5,1.5S508.2,300,509,300z"/>
	<path d="M509,432c0.8,0,1.5-0.7,1.5-1.5s-0.7-1.5-1.5-1.5c-0.8,0-1.5,0.7-1.5,1.5S508.2,432,509,432z"/>
	<path d="M541.1,135c0.8,0,1.5-0.7,1.5-1.5s-0.7-1.5-1.5-1.5c-0.8,0-1.5,0.7-1.5,1.5S540.3,135,541.1,135z"/>
	<path d="M541.1,3c0.8,0,1.5-0.7,1.5-1.5c0-0.8-0.7-1.5-1.5-1.5c-0.8,0-1.5,0.7-1.5,1.5C539.7,2.3,540.3,3,541.1,3z"/>
	<path d="M541.1,267c0.8,0,1.5-0.7,1.5-1.5s-0.7-1.5-1.5-1.5c-0.8,0-1.5,0.7-1.5,1.5S540.3,267,541.1,267z"/>
	<path d="M541.1,399c0.8,0,1.5-0.7,1.5-1.5s-0.7-1.5-1.5-1.5c-0.8,0-1.5,0.7-1.5,1.5S540.3,399,541.1,399z"/>
	<path d="M541.1,168c0.8,0,1.5-0.7,1.5-1.5s-0.7-1.5-1.5-1.5c-0.8,0-1.5,0.7-1.5,1.5S540.3,168,541.1,168z"/>
	<path d="M541.1,36c0.8,0,1.5-0.7,1.5-1.5s-0.7-1.5-1.5-1.5c-0.8,0-1.5,0.7-1.5,1.5S540.3,36,541.1,36z"/>
	<path d="M541.1,300c0.8,0,1.5-0.7,1.5-1.5s-0.7-1.5-1.5-1.5c-0.8,0-1.5,0.7-1.5,1.5S540.3,300,541.1,300z"/>
	<path d="M541.1,432c0.8,0,1.5-0.7,1.5-1.5s-0.7-1.5-1.5-1.5c-0.8,0-1.5,0.7-1.5,1.5S540.3,432,541.1,432z"/>
	<path d="M572.2,135c0.8,0,1.5-0.7,1.5-1.5s-0.7-1.5-1.5-1.5c-0.8,0-1.5,0.7-1.5,1.5S571.4,135,572.2,135z"/>
	<path d="M572.2,3c0.8,0,1.5-0.7,1.5-1.5c0-0.8-0.7-1.5-1.5-1.5c-0.8,0-1.5,0.7-1.5,1.5C570.8,2.3,571.4,3,572.2,3z"/>
	<path d="M572.2,267c0.8,0,1.5-0.7,1.5-1.5s-0.7-1.5-1.5-1.5c-0.8,0-1.5,0.7-1.5,1.5S571.4,267,572.2,267z"/>
	<path d="M572.2,399c0.8,0,1.5-0.7,1.5-1.5s-0.7-1.5-1.5-1.5c-0.8,0-1.5,0.7-1.5,1.5S571.4,399,572.2,399z"/>
	<path d="M572.2,168c0.8,0,1.5-0.7,1.5-1.5s-0.7-1.5-1.5-1.5c-0.8,0-1.5,0.7-1.5,1.5S571.4,168,572.2,168z"/>
	<path d="M572.2,36c0.8,0,1.5-0.7,1.5-1.5S573,33,572.2,33c-0.8,0-1.5,0.7-1.5,1.5S571.4,36,572.2,36z"/>
	<path d="M572.2,300c0.8,0,1.5-0.7,1.5-1.5s-0.7-1.5-1.5-1.5c-0.8,0-1.5,0.7-1.5,1.5S571.4,300,572.2,300z"/>
	<path d="M572.2,432c0.8,0,1.5-0.7,1.5-1.5s-0.7-1.5-1.5-1.5c-0.8,0-1.5,0.7-1.5,1.5S571.4,432,572.2,432z"/>
	<path d="M604.3,135c0.8,0,1.5-0.7,1.5-1.5s-0.7-1.5-1.5-1.5c-0.8,0-1.5,0.7-1.5,1.5S603.5,135,604.3,135z"/>
	<path d="M604.3,3c0.8,0,1.5-0.7,1.5-1.5c0-0.8-0.7-1.5-1.5-1.5c-0.8,0-1.5,0.7-1.5,1.5C602.8,2.3,603.5,3,604.3,3z"/>
	<path d="M604.3,267c0.8,0,1.5-0.7,1.5-1.5s-0.7-1.5-1.5-1.5c-0.8,0-1.5,0.7-1.5,1.5S603.5,267,604.3,267z"/>
	<path d="M604.3,399c0.8,0,1.5-0.7,1.5-1.5s-0.7-1.5-1.5-1.5c-0.8,0-1.5,0.7-1.5,1.5S603.5,399,604.3,399z"/>
	<path d="M604.3,168c0.8,0,1.5-0.7,1.5-1.5s-0.7-1.5-1.5-1.5c-0.8,0-1.5,0.7-1.5,1.5S603.5,168,604.3,168z"/>
	<path d="M604.3,36c0.8,0,1.5-0.7,1.5-1.5s-0.7-1.5-1.5-1.5c-0.8,0-1.5,0.7-1.5,1.5S603.5,36,604.3,36z"/>
	<path d="M604.3,300c0.8,0,1.5-0.7,1.5-1.5s-0.7-1.5-1.5-1.5c-0.8,0-1.5,0.7-1.5,1.5S603.5,300,604.3,300z"/>
	<path d="M604.3,432c0.8,0,1.5-0.7,1.5-1.5s-0.7-1.5-1.5-1.5c-0.8,0-1.5,0.7-1.5,1.5S603.5,432,604.3,432z"/>
	<path d="M635.4,135c0.8,0,1.5-0.7,1.5-1.5s-0.7-1.5-1.5-1.5c-0.8,0-1.5,0.7-1.5,1.5S634.6,135,635.4,135z"/>
	<path d="M635.4,3c0.8,0,1.5-0.7,1.5-1.5c0-0.8-0.7-1.5-1.5-1.5c-0.8,0-1.5,0.7-1.5,1.5C634,2.3,634.6,3,635.4,3z"/>
	<path d="M635.4,267c0.8,0,1.5-0.7,1.5-1.5s-0.7-1.5-1.5-1.5c-0.8,0-1.5,0.7-1.5,1.5S634.6,267,635.4,267z"/>
	<path d="M635.4,399c0.8,0,1.5-0.7,1.5-1.5s-0.7-1.5-1.5-1.5c-0.8,0-1.5,0.7-1.5,1.5S634.6,399,635.4,399z"/>
	<path d="M635.4,168c0.8,0,1.5-0.7,1.5-1.5s-0.7-1.5-1.5-1.5c-0.8,0-1.5,0.7-1.5,1.5S634.6,168,635.4,168z"/>
	<path d="M635.4,36c0.8,0,1.5-0.7,1.5-1.5s-0.7-1.5-1.5-1.5c-0.8,0-1.5,0.7-1.5,1.5S634.6,36,635.4,36z"/>
	<path d="M635.4,300c0.8,0,1.5-0.7,1.5-1.5s-0.7-1.5-1.5-1.5c-0.8,0-1.5,0.7-1.5,1.5S634.6,300,635.4,300z"/>
	<path d="M635.4,432c0.8,0,1.5-0.7,1.5-1.5s-0.7-1.5-1.5-1.5c-0.8,0-1.5,0.7-1.5,1.5S634.6,432,635.4,432z"/>
	<path d="M667.5,135c0.8,0,1.5-0.7,1.5-1.5s-0.7-1.5-1.5-1.5c-0.8,0-1.5,0.7-1.5,1.5S666.7,135,667.5,135z"/>
	<path d="M667.5,3c0.8,0,1.5-0.7,1.5-1.5c0-0.8-0.7-1.5-1.5-1.5c-0.8,0-1.5,0.7-1.5,1.5C666,2.3,666.7,3,667.5,3z"/>
	<path d="M667.5,267c0.8,0,1.5-0.7,1.5-1.5s-0.7-1.5-1.5-1.5c-0.8,0-1.5,0.7-1.5,1.5S666.7,267,667.5,267z"/>
	<path d="M667.5,399c0.8,0,1.5-0.7,1.5-1.5s-0.7-1.5-1.5-1.5c-0.8,0-1.5,0.7-1.5,1.5S666.7,399,667.5,399z"/>
	<path d="M667.5,168c0.8,0,1.5-0.7,1.5-1.5s-0.7-1.5-1.5-1.5c-0.8,0-1.5,0.7-1.5,1.5S666.7,168,667.5,168z"/>
	<path d="M667.5,36c0.8,0,1.5-0.7,1.5-1.5s-0.7-1.5-1.5-1.5c-0.8,0-1.5,0.7-1.5,1.5S666.7,36,667.5,36z"/>
	<path d="M667.5,300c0.8,0,1.5-0.7,1.5-1.5s-0.7-1.5-1.5-1.5c-0.8,0-1.5,0.7-1.5,1.5S666.7,300,667.5,300z"/>
	<path d="M667.5,432c0.8,0,1.5-0.7,1.5-1.5s-0.7-1.5-1.5-1.5c-0.8,0-1.5,0.7-1.5,1.5S666.7,432,667.5,432z"/>
	<path d="M350.6,597c0.8,0,1.5-0.7,1.5-1.5s-0.7-1.5-1.5-1.5c-0.8,0-1.5,0.7-1.5,1.5S349.8,597,350.6,597z"/>
	<path d="M382.6,597c0.8,0,1.5-0.7,1.5-1.5s-0.7-1.5-1.5-1.5c-0.8,0-1.5,0.7-1.5,1.5S381.8,597,382.6,597z"/>
	<path d="M413.8,597c0.8,0,1.5-0.7,1.5-1.5s-0.7-1.5-1.5-1.5c-0.8,0-1.5,0.7-1.5,1.5S412.9,597,413.8,597z"/>
	<path d="M445.8,597c0.8,0,1.5-0.7,1.5-1.5s-0.7-1.5-1.5-1.5c-0.8,0-1.5,0.7-1.5,1.5S445,597,445.8,597z"/>
	<path d="M476.9,597c0.8,0,1.5-0.7,1.5-1.5s-0.7-1.5-1.5-1.5c-0.8,0-1.5,0.7-1.5,1.5S476.1,597,476.9,597z"/>
	<path d="M509,597c0.8,0,1.5-0.7,1.5-1.5s-0.7-1.5-1.5-1.5c-0.8,0-1.5,0.7-1.5,1.5S508.2,597,509,597z"/>
	<path d="M541.1,597c0.8,0,1.5-0.7,1.5-1.5s-0.7-1.5-1.5-1.5c-0.8,0-1.5,0.7-1.5,1.5S540.3,597,541.1,597z"/>
	<path d="M572.2,597c0.8,0,1.5-0.7,1.5-1.5s-0.7-1.5-1.5-1.5c-0.8,0-1.5,0.7-1.5,1.5S571.4,597,572.2,597z"/>
	<path d="M604.3,597c0.8,0,1.5-0.7,1.5-1.5s-0.7-1.5-1.5-1.5c-0.8,0-1.5,0.7-1.5,1.5S603.5,597,604.3,597z"/>
	<path d="M635.4,597c0.8,0,1.5-0.7,1.5-1.5s-0.7-1.5-1.5-1.5c-0.8,0-1.5,0.7-1.5,1.5S634.6,597,635.4,597z"/>
	<path d="M667.5,597c0.8,0,1.5-0.7,1.5-1.5s-0.7-1.5-1.5-1.5c-0.8,0-1.5,0.7-1.5,1.5S666.7,597,667.5,597z"/>
	<path d="M350.6,630c0.8,0,1.5-0.7,1.5-1.5s-0.7-1.5-1.5-1.5c-0.8,0-1.5,0.7-1.5,1.5S349.8,630,350.6,630z"/>
	<path d="M382.6,630c0.8,0,1.5-0.7,1.5-1.5s-0.7-1.5-1.5-1.5c-0.8,0-1.5,0.7-1.5,1.5S381.8,630,382.6,630z"/>
	<path d="M413.8,630c0.8,0,1.5-0.7,1.5-1.5s-0.7-1.5-1.5-1.5c-0.8,0-1.5,0.7-1.5,1.5S412.9,630,413.8,630z"/>
	<path d="M445.8,630c0.8,0,1.5-0.7,1.5-1.5s-0.7-1.5-1.5-1.5c-0.8,0-1.5,0.7-1.5,1.5S445,630,445.8,630z"/>
	<path d="M476.9,630c0.8,0,1.5-0.7,1.5-1.5s-0.7-1.5-1.5-1.5c-0.8,0-1.5,0.7-1.5,1.5S476.1,630,476.9,630z"/>
	<path d="M509,630c0.8,0,1.5-0.7,1.5-1.5s-0.7-1.5-1.5-1.5c-0.8,0-1.5,0.7-1.5,1.5S508.2,630,509,630z"/>
	<path d="M541.1,630c0.8,0,1.5-0.7,1.5-1.5s-0.7-1.5-1.5-1.5c-0.8,0-1.5,0.7-1.5,1.5S540.3,630,541.1,630z"/>
	<path d="M572.2,630c0.8,0,1.5-0.7,1.5-1.5s-0.7-1.5-1.5-1.5c-0.8,0-1.5,0.7-1.5,1.5S571.4,630,572.2,630z"/>
	<path d="M604.3,630c0.8,0,1.5-0.7,1.5-1.5s-0.7-1.5-1.5-1.5c-0.8,0-1.5,0.7-1.5,1.5S603.5,630,604.3,630z"/>
	<path d="M635.4,630c0.8,0,1.5-0.7,1.5-1.5s-0.7-1.5-1.5-1.5c-0.8,0-1.5,0.7-1.5,1.5S634.6,630,635.4,630z"/>
	<path d="M667.5,630c0.8,0,1.5-0.7,1.5-1.5s-0.7-1.5-1.5-1.5c-0.8,0-1.5,0.7-1.5,1.5S666.7,630,667.5,630z"/>
	<path d="M350.6,564c0.8,0,1.5-0.7,1.5-1.5s-0.7-1.5-1.5-1.5c-0.8,0-1.5,0.7-1.5,1.5S349.8,564,350.6,564z"/>
	<path d="M382.6,564c0.8,0,1.5-0.7,1.5-1.5s-0.7-1.5-1.5-1.5c-0.8,0-1.5,0.7-1.5,1.5S381.8,564,382.6,564z"/>
	<path d="M413.8,564c0.8,0,1.5-0.7,1.5-1.5s-0.7-1.5-1.5-1.5c-0.8,0-1.5,0.7-1.5,1.5S412.9,564,413.8,564z"/>
	<path d="M445.8,564c0.8,0,1.5-0.7,1.5-1.5s-0.7-1.5-1.5-1.5c-0.8,0-1.5,0.7-1.5,1.5S445,564,445.8,564z"/>
	<path d="M476.9,564c0.8,0,1.5-0.7,1.5-1.5s-0.7-1.5-1.5-1.5c-0.8,0-1.5,0.7-1.5,1.5S476.1,564,476.9,564z"/>
	<path d="M509,564c0.8,0,1.5-0.7,1.5-1.5s-0.7-1.5-1.5-1.5c-0.8,0-1.5,0.7-1.5,1.5S508.2,564,509,564z"/>
	<path d="M541.1,564c0.8,0,1.5-0.7,1.5-1.5s-0.7-1.5-1.5-1.5c-0.8,0-1.5,0.7-1.5,1.5S540.3,564,541.1,564z"/>
	<path d="M572.2,564c0.8,0,1.5-0.7,1.5-1.5s-0.7-1.5-1.5-1.5c-0.8,0-1.5,0.7-1.5,1.5S571.4,564,572.2,564z"/>
	<path d="M604.3,564c0.8,0,1.5-0.7,1.5-1.5s-0.7-1.5-1.5-1.5c-0.8,0-1.5,0.7-1.5,1.5S603.5,564,604.3,564z"/>
	<path d="M635.4,564c0.8,0,1.5-0.7,1.5-1.5s-0.7-1.5-1.5-1.5c-0.8,0-1.5,0.7-1.5,1.5S634.6,564,635.4,564z"/>
	<path d="M667.5,564c0.8,0,1.5-0.7,1.5-1.5s-0.7-1.5-1.5-1.5c-0.8,0-1.5,0.7-1.5,1.5S666.7,564,667.5,564z"/>
	<path d="M350.6,531c0.8,0,1.5-0.7,1.5-1.5s-0.7-1.5-1.5-1.5c-0.8,0-1.5,0.7-1.5,1.5S349.8,531,350.6,531z"/>
	<path d="M382.6,531c0.8,0,1.5-0.7,1.5-1.5s-0.7-1.5-1.5-1.5c-0.8,0-1.5,0.7-1.5,1.5S381.8,531,382.6,531z"/>
	<path d="M413.8,531c0.8,0,1.5-0.7,1.5-1.5s-0.7-1.5-1.5-1.5c-0.8,0-1.5,0.7-1.5,1.5S412.9,531,413.8,531z"/>
	<path d="M445.8,531c0.8,0,1.5-0.7,1.5-1.5s-0.7-1.5-1.5-1.5c-0.8,0-1.5,0.7-1.5,1.5S445,531,445.8,531z"/>
	<path d="M476.9,531c0.8,0,1.5-0.7,1.5-1.5s-0.7-1.5-1.5-1.5c-0.8,0-1.5,0.7-1.5,1.5S476.1,531,476.9,531z"/>
	<path d="M509,531c0.8,0,1.5-0.7,1.5-1.5s-0.7-1.5-1.5-1.5c-0.8,0-1.5,0.7-1.5,1.5S508.2,531,509,531z"/>
	<path d="M541.1,531c0.8,0,1.5-0.7,1.5-1.5s-0.7-1.5-1.5-1.5c-0.8,0-1.5,0.7-1.5,1.5S540.3,531,541.1,531z"/>
	<path d="M572.2,531c0.8,0,1.5-0.7,1.5-1.5s-0.7-1.5-1.5-1.5c-0.8,0-1.5,0.7-1.5,1.5S571.4,531,572.2,531z"/>
	<path d="M604.3,531c0.8,0,1.5-0.7,1.5-1.5s-0.7-1.5-1.5-1.5c-0.8,0-1.5,0.7-1.5,1.5S603.5,531,604.3,531z"/>
	<path d="M635.4,531c0.8,0,1.5-0.7,1.5-1.5s-0.7-1.5-1.5-1.5c-0.8,0-1.5,0.7-1.5,1.5S634.6,531,635.4,531z"/>
	<path d="M667.5,531c0.8,0,1.5-0.7,1.5-1.5s-0.7-1.5-1.5-1.5c-0.8,0-1.5,0.7-1.5,1.5S666.7,531,667.5,531z"/>
	<path d="M350.6,498c0.8,0,1.5-0.7,1.5-1.5s-0.7-1.5-1.5-1.5c-0.8,0-1.5,0.7-1.5,1.5S349.8,498,350.6,498z"/>
	<path d="M382.6,498c0.8,0,1.5-0.7,1.5-1.5s-0.7-1.5-1.5-1.5c-0.8,0-1.5,0.7-1.5,1.5S381.8,498,382.6,498z"/>
	<path d="M413.8,498c0.8,0,1.5-0.7,1.5-1.5s-0.7-1.5-1.5-1.5c-0.8,0-1.5,0.7-1.5,1.5S412.9,498,413.8,498z"/>
	<path d="M445.8,498c0.8,0,1.5-0.7,1.5-1.5s-0.7-1.5-1.5-1.5c-0.8,0-1.5,0.7-1.5,1.5S445,498,445.8,498z"/>
	<path d="M476.9,498c0.8,0,1.5-0.7,1.5-1.5s-0.7-1.5-1.5-1.5c-0.8,0-1.5,0.7-1.5,1.5S476.1,498,476.9,498z"/>
	<path d="M509,498c0.8,0,1.5-0.7,1.5-1.5s-0.7-1.5-1.5-1.5c-0.8,0-1.5,0.7-1.5,1.5S508.2,498,509,498z"/>
	<path d="M541.1,498c0.8,0,1.5-0.7,1.5-1.5s-0.7-1.5-1.5-1.5c-0.8,0-1.5,0.7-1.5,1.5S540.3,498,541.1,498z"/>
	<path d="M572.2,498c0.8,0,1.5-0.7,1.5-1.5s-0.7-1.5-1.5-1.5c-0.8,0-1.5,0.7-1.5,1.5S571.4,498,572.2,498z"/>
	<path d="M604.3,498c0.8,0,1.5-0.7,1.5-1.5s-0.7-1.5-1.5-1.5c-0.8,0-1.5,0.7-1.5,1.5S603.5,498,604.3,498z"/>
	<path d="M635.4,498c0.8,0,1.5-0.7,1.5-1.5s-0.7-1.5-1.5-1.5c-0.8,0-1.5,0.7-1.5,1.5S634.6,498,635.4,498z"/>
	<path d="M667.5,498c0.8,0,1.5-0.7,1.5-1.5s-0.7-1.5-1.5-1.5c-0.8,0-1.5,0.7-1.5,1.5S666.7,498,667.5,498z"/>
	<path d="M699.2,201c0.8,0,1.5-0.7,1.5-1.5s-0.7-1.5-1.5-1.5c-0.8,0-1.5,0.7-1.5,1.5S698.4,201,699.2,201z"/>
	<path d="M699.2,69c0.8,0,1.5-0.7,1.5-1.5S700,66,699.2,66c-0.8,0-1.5,0.7-1.5,1.5S698.4,69,699.2,69z"/>
	<path d="M699.2,333c0.8,0,1.5-0.7,1.5-1.5s-0.7-1.5-1.5-1.5c-0.8,0-1.5,0.7-1.5,1.5S698.4,333,699.2,333z"/>
	<path d="M699.2,465c0.8,0,1.5-0.7,1.5-1.5s-0.7-1.5-1.5-1.5c-0.8,0-1.5,0.7-1.5,1.5S698.4,465,699.2,465z"/>
	<path d="M699.2,234c0.8,0,1.5-0.7,1.5-1.5s-0.7-1.5-1.5-1.5c-0.8,0-1.5,0.7-1.5,1.5S698.4,234,699.2,234z"/>
	<path d="M699.2,102c0.8,0,1.5-0.7,1.5-1.5c0-0.8-0.7-1.5-1.5-1.5c-0.8,0-1.5,0.7-1.5,1.5C697.7,101.3,698.4,102,699.2,102z"/>
	<path d="M699.2,366c0.8,0,1.5-0.7,1.5-1.5s-0.7-1.5-1.5-1.5c-0.8,0-1.5,0.7-1.5,1.5S698.4,366,699.2,366z"/>
	<path d="M731.2,201c0.8,0,1.5-0.7,1.5-1.5s-0.7-1.5-1.5-1.5c-0.8,0-1.5,0.7-1.5,1.5S730.4,201,731.2,201z"/>
	<path d="M731.2,69c0.8,0,1.5-0.7,1.5-1.5S732,66,731.2,66c-0.8,0-1.5,0.7-1.5,1.5S730.4,69,731.2,69z"/>
	<path d="M731.2,333c0.8,0,1.5-0.7,1.5-1.5s-0.7-1.5-1.5-1.5c-0.8,0-1.5,0.7-1.5,1.5S730.4,333,731.2,333z"/>
	<path d="M731.2,465c0.8,0,1.5-0.7,1.5-1.5s-0.7-1.5-1.5-1.5c-0.8,0-1.5,0.7-1.5,1.5S730.4,465,731.2,465z"/>
	<path d="M731.2,234c0.8,0,1.5-0.7,1.5-1.5s-0.7-1.5-1.5-1.5c-0.8,0-1.5,0.7-1.5,1.5S730.4,234,731.2,234z"/>
	<path d="M731.2,102c0.8,0,1.5-0.7,1.5-1.5S732,99,731.2,99c-0.8,0-1.5,0.7-1.5,1.5S730.4,102,731.2,102z"/>
	<path d="M731.2,366c0.8,0,1.5-0.7,1.5-1.5s-0.7-1.5-1.5-1.5c-0.8,0-1.5,0.7-1.5,1.5S730.4,366,731.2,366z"/>
	<path d="M762.4,201c0.8,0,1.5-0.7,1.5-1.5s-0.7-1.5-1.5-1.5c-0.8,0-1.5,0.7-1.5,1.5S761.5,201,762.4,201z"/>
	<path d="M762.4,69c0.8,0,1.5-0.7,1.5-1.5s-0.7-1.5-1.5-1.5c-0.8,0-1.5,0.7-1.5,1.5S761.5,69,762.4,69z"/>
	<path d="M762.4,333c0.8,0,1.5-0.7,1.5-1.5s-0.7-1.5-1.5-1.5c-0.8,0-1.5,0.7-1.5,1.5S761.5,333,762.4,333z"/>
	<path d="M762.4,465c0.8,0,1.5-0.7,1.5-1.5s-0.7-1.5-1.5-1.5c-0.8,0-1.5,0.7-1.5,1.5S761.5,465,762.4,465z"/>
	<path d="M762.4,234c0.8,0,1.5-0.7,1.5-1.5s-0.7-1.5-1.5-1.5c-0.8,0-1.5,0.7-1.5,1.5S761.5,234,762.4,234z"/>
	<path d="M762.4,102c0.8,0,1.5-0.7,1.5-1.5s-0.7-1.5-1.5-1.5c-0.8,0-1.5,0.7-1.5,1.5S761.5,102,762.4,102z"/>
	<path d="M762.4,366c0.8,0,1.5-0.7,1.5-1.5s-0.7-1.5-1.5-1.5c-0.8,0-1.5,0.7-1.5,1.5S761.5,366,762.4,366z"/>
	<path d="M794.4,201c0.8,0,1.5-0.7,1.5-1.5s-0.7-1.5-1.5-1.5c-0.8,0-1.5,0.7-1.5,1.5S793.6,201,794.4,201z"/>
	<path d="M794.4,69c0.8,0,1.5-0.7,1.5-1.5s-0.7-1.5-1.5-1.5c-0.8,0-1.5,0.7-1.5,1.5S793.6,69,794.4,69z"/>
	<path d="M794.4,333c0.8,0,1.5-0.7,1.5-1.5s-0.7-1.5-1.5-1.5c-0.8,0-1.5,0.7-1.5,1.5S793.6,333,794.4,333z"/>
	<path d="M794.4,465c0.8,0,1.5-0.7,1.5-1.5s-0.7-1.5-1.5-1.5c-0.8,0-1.5,0.7-1.5,1.5S793.6,465,794.4,465z"/>
	<path d="M794.4,234c0.8,0,1.5-0.7,1.5-1.5s-0.7-1.5-1.5-1.5c-0.8,0-1.5,0.7-1.5,1.5S793.6,234,794.4,234z"/>
	<path d="M794.4,102c0.8,0,1.5-0.7,1.5-1.5s-0.7-1.5-1.5-1.5c-0.8,0-1.5,0.7-1.5,1.5S793.6,102,794.4,102z"/>
	<path d="M794.4,366c0.8,0,1.5-0.7,1.5-1.5s-0.7-1.5-1.5-1.5c-0.8,0-1.5,0.7-1.5,1.5S793.6,366,794.4,366z"/>
	<path d="M825.5,201c0.8,0,1.5-0.7,1.5-1.5s-0.7-1.5-1.5-1.5c-0.8,0-1.5,0.7-1.5,1.5S824.7,201,825.5,201z"/>
	<path d="M825.5,69c0.8,0,1.5-0.7,1.5-1.5s-0.7-1.5-1.5-1.5c-0.8,0-1.5,0.7-1.5,1.5S824.7,69,825.5,69z"/>
	<path d="M825.5,333c0.8,0,1.5-0.7,1.5-1.5s-0.7-1.5-1.5-1.5c-0.8,0-1.5,0.7-1.5,1.5S824.7,333,825.5,333z"/>
	<path d="M825.5,465c0.8,0,1.5-0.7,1.5-1.5s-0.7-1.5-1.5-1.5c-0.8,0-1.5,0.7-1.5,1.5S824.7,465,825.5,465z"/>
	<path d="M825.5,234c0.8,0,1.5-0.7,1.5-1.5s-0.7-1.5-1.5-1.5c-0.8,0-1.5,0.7-1.5,1.5S824.7,234,825.5,234z"/>
	<path d="M825.5,102c0.8,0,1.5-0.7,1.5-1.5s-0.7-1.5-1.5-1.5c-0.8,0-1.5,0.7-1.5,1.5S824.7,102,825.5,102z"/>
	<path d="M825.5,366c0.8,0,1.5-0.7,1.5-1.5s-0.7-1.5-1.5-1.5c-0.8,0-1.5,0.7-1.5,1.5S824.7,366,825.5,366z"/>
	<path d="M857.6,201c0.8,0,1.5-0.7,1.5-1.5s-0.7-1.5-1.5-1.5c-0.8,0-1.5,0.7-1.5,1.5S856.8,201,857.6,201z"/>
	<path d="M857.6,69c0.8,0,1.5-0.7,1.5-1.5s-0.7-1.5-1.5-1.5c-0.8,0-1.5,0.7-1.5,1.5S856.8,69,857.6,69z"/>
	<path d="M857.6,333c0.8,0,1.5-0.7,1.5-1.5s-0.7-1.5-1.5-1.5c-0.8,0-1.5,0.7-1.5,1.5S856.8,333,857.6,333z"/>
	<path d="M857.6,465c0.8,0,1.5-0.7,1.5-1.5s-0.7-1.5-1.5-1.5c-0.8,0-1.5,0.7-1.5,1.5S856.8,465,857.6,465z"/>
	<path d="M857.6,234c0.8,0,1.5-0.7,1.5-1.5s-0.7-1.5-1.5-1.5c-0.8,0-1.5,0.7-1.5,1.5S856.8,234,857.6,234z"/>
	<path d="M857.6,102c0.8,0,1.5-0.7,1.5-1.5c0-0.8-0.7-1.5-1.5-1.5c-0.8,0-1.5,0.7-1.5,1.5C856.2,101.3,856.8,102,857.6,102z"/>
	<path d="M857.6,366c0.8,0,1.5-0.7,1.5-1.5s-0.7-1.5-1.5-1.5c-0.8,0-1.5,0.7-1.5,1.5S856.8,366,857.6,366z"/>
	<path d="M889.7,201c0.8,0,1.5-0.7,1.5-1.5s-0.7-1.5-1.5-1.5c-0.8,0-1.5,0.7-1.5,1.5S888.9,201,889.7,201z"/>
	<path d="M889.7,69c0.8,0,1.5-0.7,1.5-1.5s-0.7-1.5-1.5-1.5c-0.8,0-1.5,0.7-1.5,1.5S888.9,69,889.7,69z"/>
	<path d="M889.7,333c0.8,0,1.5-0.7,1.5-1.5s-0.7-1.5-1.5-1.5c-0.8,0-1.5,0.7-1.5,1.5S888.9,333,889.7,333z"/>
	<path d="M889.7,465c0.8,0,1.5-0.7,1.5-1.5s-0.7-1.5-1.5-1.5c-0.8,0-1.5,0.7-1.5,1.5S888.9,465,889.7,465z"/>
	<path d="M889.7,234c0.8,0,1.5-0.7,1.5-1.5s-0.7-1.5-1.5-1.5c-0.8,0-1.5,0.7-1.5,1.5S888.9,234,889.7,234z"/>
	<path d="M889.7,102c0.8,0,1.5-0.7,1.5-1.5s-0.7-1.5-1.5-1.5c-0.8,0-1.5,0.7-1.5,1.5S888.9,102,889.7,102z"/>
	<path d="M889.7,366c0.8,0,1.5-0.7,1.5-1.5s-0.7-1.5-1.5-1.5c-0.8,0-1.5,0.7-1.5,1.5S888.9,366,889.7,366z"/>
	<path d="M920.8,201c0.8,0,1.5-0.7,1.5-1.5s-0.7-1.5-1.5-1.5c-0.8,0-1.5,0.7-1.5,1.5S920,201,920.8,201z"/>
	<path d="M920.8,69c0.8,0,1.5-0.7,1.5-1.5s-0.7-1.5-1.5-1.5c-0.8,0-1.5,0.7-1.5,1.5S920,69,920.8,69z"/>
	<path d="M920.8,333c0.8,0,1.5-0.7,1.5-1.5s-0.7-1.5-1.5-1.5c-0.8,0-1.5,0.7-1.5,1.5S920,333,920.8,333z"/>
	<path d="M920.8,465c0.8,0,1.5-0.7,1.5-1.5s-0.7-1.5-1.5-1.5c-0.8,0-1.5,0.7-1.5,1.5S920,465,920.8,465z"/>
	<path d="M920.8,234c0.8,0,1.5-0.7,1.5-1.5s-0.7-1.5-1.5-1.5c-0.8,0-1.5,0.7-1.5,1.5S920,234,920.8,234z"/>
	<path d="M920.8,102c0.8,0,1.5-0.7,1.5-1.5s-0.7-1.5-1.5-1.5c-0.8,0-1.5,0.7-1.5,1.5S920,102,920.8,102z"/>
	<path d="M920.8,366c0.8,0,1.5-0.7,1.5-1.5s-0.7-1.5-1.5-1.5c-0.8,0-1.5,0.7-1.5,1.5S920,366,920.8,366z"/>
	<path d="M952.9,201c0.8,0,1.5-0.7,1.5-1.5s-0.7-1.5-1.5-1.5c-0.8,0-1.5,0.7-1.5,1.5S952.1,201,952.9,201z"/>
	<path d="M952.9,69c0.8,0,1.5-0.7,1.5-1.5s-0.7-1.5-1.5-1.5c-0.8,0-1.5,0.7-1.5,1.5S952.1,69,952.9,69z"/>
	<path d="M952.9,333c0.8,0,1.5-0.7,1.5-1.5s-0.7-1.5-1.5-1.5c-0.8,0-1.5,0.7-1.5,1.5S952.1,333,952.9,333z"/>
	<path d="M952.9,465c0.8,0,1.5-0.7,1.5-1.5s-0.7-1.5-1.5-1.5c-0.8,0-1.5,0.7-1.5,1.5S952.1,465,952.9,465z"/>
	<path d="M952.9,234c0.8,0,1.5-0.7,1.5-1.5s-0.7-1.5-1.5-1.5c-0.8,0-1.5,0.7-1.5,1.5S952.1,234,952.9,234z"/>
	<path d="M952.9,102c0.8,0,1.5-0.7,1.5-1.5s-0.7-1.5-1.5-1.5c-0.8,0-1.5,0.7-1.5,1.5S952.1,102,952.9,102z"/>
	<path d="M952.9,366c0.8,0,1.5-0.7,1.5-1.5s-0.7-1.5-1.5-1.5c-0.8,0-1.5,0.7-1.5,1.5S952.1,366,952.9,366z"/>
	<path d="M984,201c0.8,0,1.5-0.7,1.5-1.5s-0.7-1.5-1.5-1.5c-0.8,0-1.5,0.7-1.5,1.5S983.2,201,984,201z"/>
	<path d="M984,69c0.8,0,1.5-0.7,1.5-1.5S984.8,66,984,66c-0.8,0-1.5,0.7-1.5,1.5S983.2,69,984,69z"/>
	<path d="M984,333c0.8,0,1.5-0.7,1.5-1.5s-0.7-1.5-1.5-1.5c-0.8,0-1.5,0.7-1.5,1.5S983.2,333,984,333z"/>
	<path d="M984,465c0.8,0,1.5-0.7,1.5-1.5s-0.7-1.5-1.5-1.5c-0.8,0-1.5,0.7-1.5,1.5S983.2,465,984,465z"/>
	<path d="M984,234c0.8,0,1.5-0.7,1.5-1.5s-0.7-1.5-1.5-1.5c-0.8,0-1.5,0.7-1.5,1.5S983.2,234,984,234z"/>
	<path d="M984,102c0.8,0,1.5-0.7,1.5-1.5S984.8,99,984,99c-0.8,0-1.5,0.7-1.5,1.5S983.2,102,984,102z"/>
	<path d="M984,366c0.8,0,1.5-0.7,1.5-1.5s-0.7-1.5-1.5-1.5c-0.8,0-1.5,0.7-1.5,1.5S983.2,366,984,366z"/>
	<path d="M1016.1,201c0.8,0,1.5-0.7,1.5-1.5s-0.7-1.5-1.5-1.5c-0.8,0-1.5,0.7-1.5,1.5S1015.3,201,1016.1,201z"/>
	<path d="M1016.1,69c0.8,0,1.5-0.7,1.5-1.5s-0.7-1.5-1.5-1.5c-0.8,0-1.5,0.7-1.5,1.5S1015.3,69,1016.1,69z"/>
	<path d="M1016.1,333c0.8,0,1.5-0.7,1.5-1.5s-0.7-1.5-1.5-1.5c-0.8,0-1.5,0.7-1.5,1.5S1015.3,333,1016.1,333z"/>
	<path d="M1016.1,465c0.8,0,1.5-0.7,1.5-1.5s-0.7-1.5-1.5-1.5c-0.8,0-1.5,0.7-1.5,1.5S1015.3,465,1016.1,465z"/>
	<path d="M1016.1,234c0.8,0,1.5-0.7,1.5-1.5s-0.7-1.5-1.5-1.5c-0.8,0-1.5,0.7-1.5,1.5S1015.3,234,1016.1,234z"/>
	<path d="M1016.1,102c0.8,0,1.5-0.7,1.5-1.5c0-0.8-0.7-1.5-1.5-1.5c-0.8,0-1.5,0.7-1.5,1.5C1014.6,101.3,1015.3,102,1016.1,102z"/>
	<path d="M1016.1,366c0.8,0,1.5-0.7,1.5-1.5s-0.7-1.5-1.5-1.5c-0.8,0-1.5,0.7-1.5,1.5S1015.3,366,1016.1,366z"/>
	<path d="M699.2,135c0.8,0,1.5-0.7,1.5-1.5s-0.7-1.5-1.5-1.5c-0.8,0-1.5,0.7-1.5,1.5S698.4,135,699.2,135z"/>
	<path d="M699.2,3c0.8,0,1.5-0.7,1.5-1.5c0-0.8-0.7-1.5-1.5-1.5c-0.8,0-1.5,0.7-1.5,1.5C697.7,2.3,698.4,3,699.2,3z"/>
	<path d="M699.2,267c0.8,0,1.5-0.7,1.5-1.5s-0.7-1.5-1.5-1.5c-0.8,0-1.5,0.7-1.5,1.5S698.4,267,699.2,267z"/>
	<path d="M699.2,399c0.8,0,1.5-0.7,1.5-1.5s-0.7-1.5-1.5-1.5c-0.8,0-1.5,0.7-1.5,1.5S698.4,399,699.2,399z"/>
	<path d="M699.2,168c0.8,0,1.5-0.7,1.5-1.5s-0.7-1.5-1.5-1.5c-0.8,0-1.5,0.7-1.5,1.5S698.4,168,699.2,168z"/>
	<path d="M699.2,36c0.8,0,1.5-0.7,1.5-1.5S700,33,699.2,33c-0.8,0-1.5,0.7-1.5,1.5S698.4,36,699.2,36z"/>
	<path d="M699.2,300c0.8,0,1.5-0.7,1.5-1.5s-0.7-1.5-1.5-1.5c-0.8,0-1.5,0.7-1.5,1.5S698.4,300,699.2,300z"/>
	<path d="M699.2,432c0.8,0,1.5-0.7,1.5-1.5s-0.7-1.5-1.5-1.5c-0.8,0-1.5,0.7-1.5,1.5S698.4,432,699.2,432z"/>
	<path d="M731.2,135c0.8,0,1.5-0.7,1.5-1.5s-0.7-1.5-1.5-1.5c-0.8,0-1.5,0.7-1.5,1.5S730.4,135,731.2,135z"/>
	<path d="M731.2,3c0.8,0,1.5-0.7,1.5-1.5c0-0.8-0.7-1.5-1.5-1.5c-0.8,0-1.5,0.7-1.5,1.5C729.8,2.3,730.4,3,731.2,3z"/>
	<path d="M731.2,267c0.8,0,1.5-0.7,1.5-1.5s-0.7-1.5-1.5-1.5c-0.8,0-1.5,0.7-1.5,1.5S730.4,267,731.2,267z"/>
	<path d="M731.2,399c0.8,0,1.5-0.7,1.5-1.5s-0.7-1.5-1.5-1.5c-0.8,0-1.5,0.7-1.5,1.5S730.4,399,731.2,399z"/>
	<path d="M731.2,168c0.8,0,1.5-0.7,1.5-1.5s-0.7-1.5-1.5-1.5c-0.8,0-1.5,0.7-1.5,1.5S730.4,168,731.2,168z"/>
	<path d="M731.2,36c0.8,0,1.5-0.7,1.5-1.5S732,33,731.2,33c-0.8,0-1.5,0.7-1.5,1.5S730.4,36,731.2,36z"/>
	<path d="M731.2,300c0.8,0,1.5-0.7,1.5-1.5s-0.7-1.5-1.5-1.5c-0.8,0-1.5,0.7-1.5,1.5S730.4,300,731.2,300z"/>
	<path d="M731.2,432c0.8,0,1.5-0.7,1.5-1.5s-0.7-1.5-1.5-1.5c-0.8,0-1.5,0.7-1.5,1.5S730.4,432,731.2,432z"/>
	<path d="M762.4,135c0.8,0,1.5-0.7,1.5-1.5s-0.7-1.5-1.5-1.5c-0.8,0-1.5,0.7-1.5,1.5S761.5,135,762.4,135z"/>
	<path d="M762.4,3c0.8,0,1.5-0.7,1.5-1.5c0-0.8-0.7-1.5-1.5-1.5c-0.8,0-1.5,0.7-1.5,1.5C760.9,2.3,761.5,3,762.4,3z"/>
	<path d="M762.4,267c0.8,0,1.5-0.7,1.5-1.5s-0.7-1.5-1.5-1.5c-0.8,0-1.5,0.7-1.5,1.5S761.5,267,762.4,267z"/>
	<path d="M762.4,399c0.8,0,1.5-0.7,1.5-1.5s-0.7-1.5-1.5-1.5c-0.8,0-1.5,0.7-1.5,1.5S761.5,399,762.4,399z"/>
	<path d="M762.4,168c0.8,0,1.5-0.7,1.5-1.5s-0.7-1.5-1.5-1.5c-0.8,0-1.5,0.7-1.5,1.5S761.5,168,762.4,168z"/>
	<path d="M762.4,36c0.8,0,1.5-0.7,1.5-1.5s-0.7-1.5-1.5-1.5c-0.8,0-1.5,0.7-1.5,1.5S761.5,36,762.4,36z"/>
	<path d="M762.4,300c0.8,0,1.5-0.7,1.5-1.5s-0.7-1.5-1.5-1.5c-0.8,0-1.5,0.7-1.5,1.5S761.5,300,762.4,300z"/>
	<path d="M762.4,432c0.8,0,1.5-0.7,1.5-1.5s-0.7-1.5-1.5-1.5c-0.8,0-1.5,0.7-1.5,1.5S761.5,432,762.4,432z"/>
	<path d="M794.4,135c0.8,0,1.5-0.7,1.5-1.5s-0.7-1.5-1.5-1.5c-0.8,0-1.5,0.7-1.5,1.5S793.6,135,794.4,135z"/>
	<path d="M794.4,3c0.8,0,1.5-0.7,1.5-1.5c0-0.8-0.7-1.5-1.5-1.5c-0.8,0-1.5,0.7-1.5,1.5C793,2.3,793.6,3,794.4,3z"/>
	<path d="M794.4,267c0.8,0,1.5-0.7,1.5-1.5s-0.7-1.5-1.5-1.5c-0.8,0-1.5,0.7-1.5,1.5S793.6,267,794.4,267z"/>
	<path d="M794.4,399c0.8,0,1.5-0.7,1.5-1.5s-0.7-1.5-1.5-1.5c-0.8,0-1.5,0.7-1.5,1.5S793.6,399,794.4,399z"/>
	<path d="M794.4,168c0.8,0,1.5-0.7,1.5-1.5s-0.7-1.5-1.5-1.5c-0.8,0-1.5,0.7-1.5,1.5S793.6,168,794.4,168z"/>
	<path d="M794.4,36c0.8,0,1.5-0.7,1.5-1.5s-0.7-1.5-1.5-1.5c-0.8,0-1.5,0.7-1.5,1.5S793.6,36,794.4,36z"/>
	<path d="M794.4,300c0.8,0,1.5-0.7,1.5-1.5s-0.7-1.5-1.5-1.5c-0.8,0-1.5,0.7-1.5,1.5S793.6,300,794.4,300z"/>
	<path d="M794.4,432c0.8,0,1.5-0.7,1.5-1.5s-0.7-1.5-1.5-1.5c-0.8,0-1.5,0.7-1.5,1.5S793.6,432,794.4,432z"/>
	<path d="M825.5,135c0.8,0,1.5-0.7,1.5-1.5s-0.7-1.5-1.5-1.5c-0.8,0-1.5,0.7-1.5,1.5S824.7,135,825.5,135z"/>
	<path d="M825.5,3c0.8,0,1.5-0.7,1.5-1.5c0-0.8-0.7-1.5-1.5-1.5c-0.8,0-1.5,0.7-1.5,1.5C824.1,2.3,824.7,3,825.5,3z"/>
	<path d="M825.5,267c0.8,0,1.5-0.7,1.5-1.5s-0.7-1.5-1.5-1.5c-0.8,0-1.5,0.7-1.5,1.5S824.7,267,825.5,267z"/>
	<path d="M825.5,399c0.8,0,1.5-0.7,1.5-1.5s-0.7-1.5-1.5-1.5c-0.8,0-1.5,0.7-1.5,1.5S824.7,399,825.5,399z"/>
	<path d="M825.5,168c0.8,0,1.5-0.7,1.5-1.5s-0.7-1.5-1.5-1.5c-0.8,0-1.5,0.7-1.5,1.5S824.7,168,825.5,168z"/>
	<path d="M825.5,36c0.8,0,1.5-0.7,1.5-1.5s-0.7-1.5-1.5-1.5c-0.8,0-1.5,0.7-1.5,1.5S824.7,36,825.5,36z"/>
	<path d="M825.5,300c0.8,0,1.5-0.7,1.5-1.5s-0.7-1.5-1.5-1.5c-0.8,0-1.5,0.7-1.5,1.5S824.7,300,825.5,300z"/>
	<path d="M825.5,432c0.8,0,1.5-0.7,1.5-1.5s-0.7-1.5-1.5-1.5c-0.8,0-1.5,0.7-1.5,1.5S824.7,432,825.5,432z"/>
	<path d="M857.6,135c0.8,0,1.5-0.7,1.5-1.5s-0.7-1.5-1.5-1.5c-0.8,0-1.5,0.7-1.5,1.5S856.8,135,857.6,135z"/>
	<path d="M857.6,3c0.8,0,1.5-0.7,1.5-1.5c0-0.8-0.7-1.5-1.5-1.5c-0.8,0-1.5,0.7-1.5,1.5C856.2,2.3,856.8,3,857.6,3z"/>
	<path d="M857.6,267c0.8,0,1.5-0.7,1.5-1.5s-0.7-1.5-1.5-1.5c-0.8,0-1.5,0.7-1.5,1.5S856.8,267,857.6,267z"/>
	<path d="M857.6,399c0.8,0,1.5-0.7,1.5-1.5s-0.7-1.5-1.5-1.5c-0.8,0-1.5,0.7-1.5,1.5S856.8,399,857.6,399z"/>
	<path d="M857.6,168c0.8,0,1.5-0.7,1.5-1.5s-0.7-1.5-1.5-1.5c-0.8,0-1.5,0.7-1.5,1.5S856.8,168,857.6,168z"/>
	<path d="M857.6,36c0.8,0,1.5-0.7,1.5-1.5s-0.7-1.5-1.5-1.5c-0.8,0-1.5,0.7-1.5,1.5S856.8,36,857.6,36z"/>
	<path d="M857.6,300c0.8,0,1.5-0.7,1.5-1.5s-0.7-1.5-1.5-1.5c-0.8,0-1.5,0.7-1.5,1.5S856.8,300,857.6,300z"/>
	<path d="M857.6,432c0.8,0,1.5-0.7,1.5-1.5s-0.7-1.5-1.5-1.5c-0.8,0-1.5,0.7-1.5,1.5S856.8,432,857.6,432z"/>
	<path d="M889.7,135c0.8,0,1.5-0.7,1.5-1.5s-0.7-1.5-1.5-1.5c-0.8,0-1.5,0.7-1.5,1.5S888.9,135,889.7,135z"/>
	<path d="M889.7,3c0.8,0,1.5-0.7,1.5-1.5c0-0.8-0.7-1.5-1.5-1.5c-0.8,0-1.5,0.7-1.5,1.5C888.3,2.3,888.9,3,889.7,3z"/>
	<path d="M889.7,267c0.8,0,1.5-0.7,1.5-1.5s-0.7-1.5-1.5-1.5c-0.8,0-1.5,0.7-1.5,1.5S888.9,267,889.7,267z"/>
	<path d="M889.7,399c0.8,0,1.5-0.7,1.5-1.5s-0.7-1.5-1.5-1.5c-0.8,0-1.5,0.7-1.5,1.5S888.9,399,889.7,399z"/>
	<path d="M889.7,168c0.8,0,1.5-0.7,1.5-1.5s-0.7-1.5-1.5-1.5c-0.8,0-1.5,0.7-1.5,1.5S888.9,168,889.7,168z"/>
	<path d="M889.7,36c0.8,0,1.5-0.7,1.5-1.5s-0.7-1.5-1.5-1.5c-0.8,0-1.5,0.7-1.5,1.5S888.9,36,889.7,36z"/>
	<path d="M889.7,300c0.8,0,1.5-0.7,1.5-1.5s-0.7-1.5-1.5-1.5c-0.8,0-1.5,0.7-1.5,1.5S888.9,300,889.7,300z"/>
	<path d="M889.7,432c0.8,0,1.5-0.7,1.5-1.5s-0.7-1.5-1.5-1.5c-0.8,0-1.5,0.7-1.5,1.5S888.9,432,889.7,432z"/>
	<path d="M920.8,135c0.8,0,1.5-0.7,1.5-1.5s-0.7-1.5-1.5-1.5c-0.8,0-1.5,0.7-1.5,1.5S920,135,920.8,135z"/>
	<path d="M920.8,3c0.8,0,1.5-0.7,1.5-1.5c0-0.8-0.7-1.5-1.5-1.5c-0.8,0-1.5,0.7-1.5,1.5C919.4,2.3,920,3,920.8,3z"/>
	<path d="M920.8,267c0.8,0,1.5-0.7,1.5-1.5s-0.7-1.5-1.5-1.5c-0.8,0-1.5,0.7-1.5,1.5S920,267,920.8,267z"/>
	<path d="M920.8,399c0.8,0,1.5-0.7,1.5-1.5s-0.7-1.5-1.5-1.5c-0.8,0-1.5,0.7-1.5,1.5S920,399,920.8,399z"/>
	<path d="M920.8,168c0.8,0,1.5-0.7,1.5-1.5s-0.7-1.5-1.5-1.5c-0.8,0-1.5,0.7-1.5,1.5S920,168,920.8,168z"/>
	<path d="M920.8,36c0.8,0,1.5-0.7,1.5-1.5s-0.7-1.5-1.5-1.5c-0.8,0-1.5,0.7-1.5,1.5S920,36,920.8,36z"/>
	<path d="M920.8,300c0.8,0,1.5-0.7,1.5-1.5s-0.7-1.5-1.5-1.5c-0.8,0-1.5,0.7-1.5,1.5S920,300,920.8,300z"/>
	<path d="M920.8,432c0.8,0,1.5-0.7,1.5-1.5s-0.7-1.5-1.5-1.5c-0.8,0-1.5,0.7-1.5,1.5S920,432,920.8,432z"/>
	<path d="M952.9,135c0.8,0,1.5-0.7,1.5-1.5s-0.7-1.5-1.5-1.5c-0.8,0-1.5,0.7-1.5,1.5S952.1,135,952.9,135z"/>
	<path d="M952.9,3c0.8,0,1.5-0.7,1.5-1.5c0-0.8-0.7-1.5-1.5-1.5c-0.8,0-1.5,0.7-1.5,1.5C951.4,2.3,952.1,3,952.9,3z"/>
	<path d="M952.9,267c0.8,0,1.5-0.7,1.5-1.5s-0.7-1.5-1.5-1.5c-0.8,0-1.5,0.7-1.5,1.5S952.1,267,952.9,267z"/>
	<path d="M952.9,399c0.8,0,1.5-0.7,1.5-1.5s-0.7-1.5-1.5-1.5c-0.8,0-1.5,0.7-1.5,1.5S952.1,399,952.9,399z"/>
	<path d="M952.9,168c0.8,0,1.5-0.7,1.5-1.5s-0.7-1.5-1.5-1.5c-0.8,0-1.5,0.7-1.5,1.5S952.1,168,952.9,168z"/>
	<path d="M952.9,36c0.8,0,1.5-0.7,1.5-1.5s-0.7-1.5-1.5-1.5c-0.8,0-1.5,0.7-1.5,1.5S952.1,36,952.9,36z"/>
	<path d="M952.9,300c0.8,0,1.5-0.7,1.5-1.5s-0.7-1.5-1.5-1.5c-0.8,0-1.5,0.7-1.5,1.5S952.1,300,952.9,300z"/>
	<path d="M952.9,432c0.8,0,1.5-0.7,1.5-1.5s-0.7-1.5-1.5-1.5c-0.8,0-1.5,0.7-1.5,1.5S952.1,432,952.9,432z"/>
	<path d="M984,135c0.8,0,1.5-0.7,1.5-1.5s-0.7-1.5-1.5-1.5c-0.8,0-1.5,0.7-1.5,1.5S983.2,135,984,135z"/>
	<path d="M984,3c0.8,0,1.5-0.7,1.5-1.5c0-0.8-0.7-1.5-1.5-1.5c-0.8,0-1.5,0.7-1.5,1.5C982.6,2.3,983.2,3,984,3z"/>
	<path d="M984,267c0.8,0,1.5-0.7,1.5-1.5s-0.7-1.5-1.5-1.5c-0.8,0-1.5,0.7-1.5,1.5S983.2,267,984,267z"/>
	<path d="M984,399c0.8,0,1.5-0.7,1.5-1.5s-0.7-1.5-1.5-1.5c-0.8,0-1.5,0.7-1.5,1.5S983.2,399,984,399z"/>
	<path d="M984,168c0.8,0,1.5-0.7,1.5-1.5s-0.7-1.5-1.5-1.5c-0.8,0-1.5,0.7-1.5,1.5S983.2,168,984,168z"/>
	<path d="M984,36c0.8,0,1.5-0.7,1.5-1.5S984.8,33,984,33c-0.8,0-1.5,0.7-1.5,1.5S983.2,36,984,36z"/>
	<path d="M984,300c0.8,0,1.5-0.7,1.5-1.5s-0.7-1.5-1.5-1.5c-0.8,0-1.5,0.7-1.5,1.5S983.2,300,984,300z"/>
	<path d="M984,432c0.8,0,1.5-0.7,1.5-1.5s-0.7-1.5-1.5-1.5c-0.8,0-1.5,0.7-1.5,1.5S983.2,432,984,432z"/>
	<path d="M1016.1,135c0.8,0,1.5-0.7,1.5-1.5s-0.7-1.5-1.5-1.5c-0.8,0-1.5,0.7-1.5,1.5S1015.3,135,1016.1,135z"/>
	<path d="M1016.1,3c0.8,0,1.5-0.7,1.5-1.5c0-0.8-0.7-1.5-1.5-1.5c-0.8,0-1.5,0.7-1.5,1.5C1014.6,2.3,1015.3,3,1016.1,3z"/>
	<path d="M1016.1,267c0.8,0,1.5-0.7,1.5-1.5s-0.7-1.5-1.5-1.5c-0.8,0-1.5,0.7-1.5,1.5S1015.3,267,1016.1,267z"/>
	<path d="M1016.1,399c0.8,0,1.5-0.7,1.5-1.5s-0.7-1.5-1.5-1.5c-0.8,0-1.5,0.7-1.5,1.5S1015.3,399,1016.1,399z"/>
	<path d="M1016.1,168c0.8,0,1.5-0.7,1.5-1.5s-0.7-1.5-1.5-1.5c-0.8,0-1.5,0.7-1.5,1.5S1015.3,168,1016.1,168z"/>
	<path d="M1016.1,36c0.8,0,1.5-0.7,1.5-1.5s-0.7-1.5-1.5-1.5c-0.8,0-1.5,0.7-1.5,1.5S1015.3,36,1016.1,36z"/>
	<path d="M1016.1,300c0.8,0,1.5-0.7,1.5-1.5s-0.7-1.5-1.5-1.5c-0.8,0-1.5,0.7-1.5,1.5S1015.3,300,1016.1,300z"/>
	<path d="M1016.1,432c0.8,0,1.5-0.7,1.5-1.5s-0.7-1.5-1.5-1.5c-0.8,0-1.5,0.7-1.5,1.5S1015.3,432,1016.1,432z"/>
	<path d="M699.2,597c0.8,0,1.5-0.7,1.5-1.5s-0.7-1.5-1.5-1.5c-0.8,0-1.5,0.7-1.5,1.5S698.4,597,699.2,597z"/>
	<path d="M731.2,597c0.8,0,1.5-0.7,1.5-1.5s-0.7-1.5-1.5-1.5c-0.8,0-1.5,0.7-1.5,1.5S730.4,597,731.2,597z"/>
	<path d="M762.4,597c0.8,0,1.5-0.7,1.5-1.5s-0.7-1.5-1.5-1.5c-0.8,0-1.5,0.7-1.5,1.5S761.5,597,762.4,597z"/>
	<path d="M794.4,597c0.8,0,1.5-0.7,1.5-1.5s-0.7-1.5-1.5-1.5c-0.8,0-1.5,0.7-1.5,1.5S793.6,597,794.4,597z"/>
	<path d="M825.5,597c0.8,0,1.5-0.7,1.5-1.5s-0.7-1.5-1.5-1.5c-0.8,0-1.5,0.7-1.5,1.5S824.7,597,825.5,597z"/>
	<path d="M857.6,597c0.8,0,1.5-0.7,1.5-1.5s-0.7-1.5-1.5-1.5c-0.8,0-1.5,0.7-1.5,1.5S856.8,597,857.6,597z"/>
	<path d="M889.7,597c0.8,0,1.5-0.7,1.5-1.5s-0.7-1.5-1.5-1.5c-0.8,0-1.5,0.7-1.5,1.5S888.9,597,889.7,597z"/>
	<path d="M920.8,597c0.8,0,1.5-0.7,1.5-1.5s-0.7-1.5-1.5-1.5c-0.8,0-1.5,0.7-1.5,1.5S920,597,920.8,597z"/>
	<path d="M952.9,597c0.8,0,1.5-0.7,1.5-1.5s-0.7-1.5-1.5-1.5c-0.8,0-1.5,0.7-1.5,1.5S952.1,597,952.9,597z"/>
	<path d="M984,597c0.8,0,1.5-0.7,1.5-1.5s-0.7-1.5-1.5-1.5c-0.8,0-1.5,0.7-1.5,1.5S983.2,597,984,597z"/>
	<path d="M1016.1,597c0.8,0,1.5-0.7,1.5-1.5s-0.7-1.5-1.5-1.5c-0.8,0-1.5,0.7-1.5,1.5S1015.3,597,1016.1,597z"/>
	<path d="M699.2,630c0.8,0,1.5-0.7,1.5-1.5s-0.7-1.5-1.5-1.5c-0.8,0-1.5,0.7-1.5,1.5S698.4,630,699.2,630z"/>
	<path d="M731.2,630c0.8,0,1.5-0.7,1.5-1.5s-0.7-1.5-1.5-1.5c-0.8,0-1.5,0.7-1.5,1.5S730.4,630,731.2,630z"/>
	<path d="M762.4,630c0.8,0,1.5-0.7,1.5-1.5s-0.7-1.5-1.5-1.5c-0.8,0-1.5,0.7-1.5,1.5S761.5,630,762.4,630z"/>
	<path d="M794.4,630c0.8,0,1.5-0.7,1.5-1.5s-0.7-1.5-1.5-1.5c-0.8,0-1.5,0.7-1.5,1.5S793.6,630,794.4,630z"/>
	<path d="M825.5,630c0.8,0,1.5-0.7,1.5-1.5s-0.7-1.5-1.5-1.5c-0.8,0-1.5,0.7-1.5,1.5S824.7,630,825.5,630z"/>
	<path d="M857.6,630c0.8,0,1.5-0.7,1.5-1.5s-0.7-1.5-1.5-1.5c-0.8,0-1.5,0.7-1.5,1.5S856.8,630,857.6,630z"/>
	<path d="M889.7,630c0.8,0,1.5-0.7,1.5-1.5s-0.7-1.5-1.5-1.5c-0.8,0-1.5,0.7-1.5,1.5S888.9,630,889.7,630z"/>
	<path d="M920.8,630c0.8,0,1.5-0.7,1.5-1.5s-0.7-1.5-1.5-1.5c-0.8,0-1.5,0.7-1.5,1.5S920,630,920.8,630z"/>
	<path d="M952.9,630c0.8,0,1.5-0.7,1.5-1.5s-0.7-1.5-1.5-1.5c-0.8,0-1.5,0.7-1.5,1.5S952.1,630,952.9,630z"/>
	<path d="M984,630c0.8,0,1.5-0.7,1.5-1.5s-0.7-1.5-1.5-1.5c-0.8,0-1.5,0.7-1.5,1.5S983.2,630,984,630z"/>
	<path d="M1016.1,630c0.8,0,1.5-0.7,1.5-1.5s-0.7-1.5-1.5-1.5c-0.8,0-1.5,0.7-1.5,1.5S1015.3,630,1016.1,630z"/>
	<path d="M699.2,564c0.8,0,1.5-0.7,1.5-1.5s-0.7-1.5-1.5-1.5c-0.8,0-1.5,0.7-1.5,1.5S698.4,564,699.2,564z"/>
	<path d="M731.2,564c0.8,0,1.5-0.7,1.5-1.5s-0.7-1.5-1.5-1.5c-0.8,0-1.5,0.7-1.5,1.5S730.4,564,731.2,564z"/>
	<path d="M762.4,564c0.8,0,1.5-0.7,1.5-1.5s-0.7-1.5-1.5-1.5c-0.8,0-1.5,0.7-1.5,1.5S761.5,564,762.4,564z"/>
	<path d="M794.4,564c0.8,0,1.5-0.7,1.5-1.5s-0.7-1.5-1.5-1.5c-0.8,0-1.5,0.7-1.5,1.5S793.6,564,794.4,564z"/>
	<path d="M825.5,564c0.8,0,1.5-0.7,1.5-1.5s-0.7-1.5-1.5-1.5c-0.8,0-1.5,0.7-1.5,1.5S824.7,564,825.5,564z"/>
	<path d="M857.6,564c0.8,0,1.5-0.7,1.5-1.5s-0.7-1.5-1.5-1.5c-0.8,0-1.5,0.7-1.5,1.5S856.8,564,857.6,564z"/>
	<path d="M889.7,564c0.8,0,1.5-0.7,1.5-1.5s-0.7-1.5-1.5-1.5c-0.8,0-1.5,0.7-1.5,1.5S888.9,564,889.7,564z"/>
	<path d="M920.8,564c0.8,0,1.5-0.7,1.5-1.5s-0.7-1.5-1.5-1.5c-0.8,0-1.5,0.7-1.5,1.5S920,564,920.8,564z"/>
	<path d="M952.9,564c0.8,0,1.5-0.7,1.5-1.5s-0.7-1.5-1.5-1.5c-0.8,0-1.5,0.7-1.5,1.5S952.1,564,952.9,564z"/>
	<path d="M984,564c0.8,0,1.5-0.7,1.5-1.5s-0.7-1.5-1.5-1.5c-0.8,0-1.5,0.7-1.5,1.5S983.2,564,984,564z"/>
	<path d="M1016.1,564c0.8,0,1.5-0.7,1.5-1.5s-0.7-1.5-1.5-1.5c-0.8,0-1.5,0.7-1.5,1.5S1015.3,564,1016.1,564z"/>
	<path d="M699.2,531c0.8,0,1.5-0.7,1.5-1.5s-0.7-1.5-1.5-1.5c-0.8,0-1.5,0.7-1.5,1.5S698.4,531,699.2,531z"/>
	<path d="M731.2,531c0.8,0,1.5-0.7,1.5-1.5s-0.7-1.5-1.5-1.5c-0.8,0-1.5,0.7-1.5,1.5S730.4,531,731.2,531z"/>
	<path d="M762.4,531c0.8,0,1.5-0.7,1.5-1.5s-0.7-1.5-1.5-1.5c-0.8,0-1.5,0.7-1.5,1.5S761.5,531,762.4,531z"/>
	<path d="M794.4,531c0.8,0,1.5-0.7,1.5-1.5s-0.7-1.5-1.5-1.5c-0.8,0-1.5,0.7-1.5,1.5S793.6,531,794.4,531z"/>
	<path d="M825.5,531c0.8,0,1.5-0.7,1.5-1.5s-0.7-1.5-1.5-1.5c-0.8,0-1.5,0.7-1.5,1.5S824.7,531,825.5,531z"/>
	<path d="M857.6,531c0.8,0,1.5-0.7,1.5-1.5s-0.7-1.5-1.5-1.5c-0.8,0-1.5,0.7-1.5,1.5S856.8,531,857.6,531z"/>
	<path d="M889.7,531c0.8,0,1.5-0.7,1.5-1.5s-0.7-1.5-1.5-1.5c-0.8,0-1.5,0.7-1.5,1.5S888.9,531,889.7,531z"/>
	<path d="M920.8,531c0.8,0,1.5-0.7,1.5-1.5s-0.7-1.5-1.5-1.5c-0.8,0-1.5,0.7-1.5,1.5S920,531,920.8,531z"/>
	<path d="M952.9,531c0.8,0,1.5-0.7,1.5-1.5s-0.7-1.5-1.5-1.5c-0.8,0-1.5,0.7-1.5,1.5S952.1,531,952.9,531z"/>
	<path d="M984,531c0.8,0,1.5-0.7,1.5-1.5s-0.7-1.5-1.5-1.5c-0.8,0-1.5,0.7-1.5,1.5S983.2,531,984,531z"/>
	<path d="M1016.1,531c0.8,0,1.5-0.7,1.5-1.5s-0.7-1.5-1.5-1.5c-0.8,0-1.5,0.7-1.5,1.5S1015.3,531,1016.1,531z"/>
	<path d="M699.2,498c0.8,0,1.5-0.7,1.5-1.5s-0.7-1.5-1.5-1.5c-0.8,0-1.5,0.7-1.5,1.5S698.4,498,699.2,498z"/>
	<path d="M731.2,498c0.8,0,1.5-0.7,1.5-1.5s-0.7-1.5-1.5-1.5c-0.8,0-1.5,0.7-1.5,1.5S730.4,498,731.2,498z"/>
	<path d="M762.4,498c0.8,0,1.5-0.7,1.5-1.5s-0.7-1.5-1.5-1.5c-0.8,0-1.5,0.7-1.5,1.5S761.5,498,762.4,498z"/>
	<path d="M794.4,498c0.8,0,1.5-0.7,1.5-1.5s-0.7-1.5-1.5-1.5c-0.8,0-1.5,0.7-1.5,1.5S793.6,498,794.4,498z"/>
	<path d="M825.5,498c0.8,0,1.5-0.7,1.5-1.5s-0.7-1.5-1.5-1.5c-0.8,0-1.5,0.7-1.5,1.5S824.7,498,825.5,498z"/>
	<path d="M857.6,498c0.8,0,1.5-0.7,1.5-1.5s-0.7-1.5-1.5-1.5c-0.8,0-1.5,0.7-1.5,1.5S856.8,498,857.6,498z"/>
	<path d="M889.7,498c0.8,0,1.5-0.7,1.5-1.5s-0.7-1.5-1.5-1.5c-0.8,0-1.5,0.7-1.5,1.5S888.9,498,889.7,498z"/>
	<path d="M920.8,498c0.8,0,1.5-0.7,1.5-1.5s-0.7-1.5-1.5-1.5c-0.8,0-1.5,0.7-1.5,1.5S920,498,920.8,498z"/>
	<path d="M952.9,498c0.8,0,1.5-0.7,1.5-1.5s-0.7-1.5-1.5-1.5c-0.8,0-1.5,0.7-1.5,1.5S952.1,498,952.9,498z"/>
	<path d="M984,498c0.8,0,1.5-0.7,1.5-1.5s-0.7-1.5-1.5-1.5c-0.8,0-1.5,0.7-1.5,1.5S983.2,498,984,498z"/>
	<path d="M1016.1,498c0.8,0,1.5-0.7,1.5-1.5s-0.7-1.5-1.5-1.5c-0.8,0-1.5,0.7-1.5,1.5S1015.3,498,1016.1,498z"/>
	<path d="M1047.8,201c0.8,0,1.5-0.7,1.5-1.5s-0.7-1.5-1.5-1.5c-0.8,0-1.5,0.7-1.5,1.5S1046.9,201,1047.8,201z"/>
	<path d="M1047.8,69c0.8,0,1.5-0.7,1.5-1.5s-0.7-1.5-1.5-1.5c-0.8,0-1.5,0.7-1.5,1.5S1046.9,69,1047.8,69z"/>
	<path d="M1047.8,333c0.8,0,1.5-0.7,1.5-1.5s-0.7-1.5-1.5-1.5c-0.8,0-1.5,0.7-1.5,1.5S1046.9,333,1047.8,333z"/>
	<path d="M1047.8,465c0.8,0,1.5-0.7,1.5-1.5s-0.7-1.5-1.5-1.5c-0.8,0-1.5,0.7-1.5,1.5S1046.9,465,1047.8,465z"/>
	<path d="M1047.8,234c0.8,0,1.5-0.7,1.5-1.5s-0.7-1.5-1.5-1.5c-0.8,0-1.5,0.7-1.5,1.5S1046.9,234,1047.8,234z"/>
	<path d="M1047.8,102c0.8,0,1.5-0.7,1.5-1.5c0-0.8-0.7-1.5-1.5-1.5c-0.8,0-1.5,0.7-1.5,1.5C1046.3,101.3,1046.9,102,1047.8,102z"/>
	<path d="M1047.8,366c0.8,0,1.5-0.7,1.5-1.5s-0.7-1.5-1.5-1.5c-0.8,0-1.5,0.7-1.5,1.5S1046.9,366,1047.8,366z"/>
	<path d="M1079.8,201c0.8,0,1.5-0.7,1.5-1.5s-0.7-1.5-1.5-1.5c-0.8,0-1.5,0.7-1.5,1.5S1079,201,1079.8,201z"/>
	<path d="M1079.8,69c0.8,0,1.5-0.7,1.5-1.5s-0.7-1.5-1.5-1.5c-0.8,0-1.5,0.7-1.5,1.5S1079,69,1079.8,69z"/>
	<path d="M1079.8,333c0.8,0,1.5-0.7,1.5-1.5s-0.7-1.5-1.5-1.5c-0.8,0-1.5,0.7-1.5,1.5S1079,333,1079.8,333z"/>
	<path d="M1079.8,465c0.8,0,1.5-0.7,1.5-1.5s-0.7-1.5-1.5-1.5c-0.8,0-1.5,0.7-1.5,1.5S1079,465,1079.8,465z"/>
	<path d="M1079.8,234c0.8,0,1.5-0.7,1.5-1.5s-0.7-1.5-1.5-1.5c-0.8,0-1.5,0.7-1.5,1.5S1079,234,1079.8,234z"/>
	<path d="M1079.8,102c0.8,0,1.5-0.7,1.5-1.5s-0.7-1.5-1.5-1.5c-0.8,0-1.5,0.7-1.5,1.5S1079,102,1079.8,102z"/>
	<path d="M1079.8,366c0.8,0,1.5-0.7,1.5-1.5s-0.7-1.5-1.5-1.5c-0.8,0-1.5,0.7-1.5,1.5S1079,366,1079.8,366z"/>
	<path d="M1110.9,201c0.8,0,1.5-0.7,1.5-1.5s-0.7-1.5-1.5-1.5c-0.8,0-1.5,0.7-1.5,1.5S1110.1,201,1110.9,201z"/>
	<path d="M1110.9,69c0.8,0,1.5-0.7,1.5-1.5s-0.7-1.5-1.5-1.5c-0.8,0-1.5,0.7-1.5,1.5S1110.1,69,1110.9,69z"/>
	<path d="M1110.9,333c0.8,0,1.5-0.7,1.5-1.5s-0.7-1.5-1.5-1.5c-0.8,0-1.5,0.7-1.5,1.5S1110.1,333,1110.9,333z"/>
	<path d="M1110.9,465c0.8,0,1.5-0.7,1.5-1.5s-0.7-1.5-1.5-1.5c-0.8,0-1.5,0.7-1.5,1.5S1110.1,465,1110.9,465z"/>
	<path d="M1110.9,234c0.8,0,1.5-0.7,1.5-1.5s-0.7-1.5-1.5-1.5c-0.8,0-1.5,0.7-1.5,1.5S1110.1,234,1110.9,234z"/>
	<path d="M1110.9,102c0.8,0,1.5-0.7,1.5-1.5s-0.7-1.5-1.5-1.5c-0.8,0-1.5,0.7-1.5,1.5S1110.1,102,1110.9,102z"/>
	<path d="M1110.9,366c0.8,0,1.5-0.7,1.5-1.5s-0.7-1.5-1.5-1.5c-0.8,0-1.5,0.7-1.5,1.5S1110.1,366,1110.9,366z"/>
	<path d="M1143,201c0.8,0,1.4-0.7,1.4-1.5s-0.7-1.5-1.4-1.5c-0.8,0-1.5,0.7-1.5,1.5S1142.2,201,1143,201z"/>
	<path d="M1143,69c0.8,0,1.4-0.7,1.4-1.5s-0.7-1.5-1.4-1.5c-0.8,0-1.5,0.7-1.5,1.5S1142.2,69,1143,69z"/>
	<path d="M1143,333c0.8,0,1.4-0.7,1.4-1.5s-0.7-1.5-1.4-1.5c-0.8,0-1.5,0.7-1.5,1.5S1142.2,333,1143,333z"/>
	<path d="M1143,465c0.8,0,1.4-0.7,1.4-1.5s-0.7-1.5-1.4-1.5c-0.8,0-1.5,0.7-1.5,1.5S1142.2,465,1143,465z"/>
	<path d="M1143,234c0.8,0,1.4-0.7,1.4-1.5s-0.7-1.5-1.4-1.5c-0.8,0-1.5,0.7-1.5,1.5S1142.2,234,1143,234z"/>
	<path d="M1143,102c0.8,0,1.4-0.7,1.4-1.5s-0.7-1.5-1.4-1.5c-0.8,0-1.5,0.7-1.5,1.5S1142.2,102,1143,102z"/>
	<path d="M1143,366c0.8,0,1.4-0.7,1.4-1.5s-0.7-1.5-1.4-1.5c-0.8,0-1.5,0.7-1.5,1.5S1142.2,366,1143,366z"/>
	<path d="M1174.2,201c0.8,0,1.5-0.7,1.5-1.5s-0.7-1.5-1.5-1.5c-0.8,0-1.5,0.7-1.5,1.5S1173.3,201,1174.2,201z"/>
	<path d="M1174.2,69c0.8,0,1.5-0.7,1.5-1.5s-0.7-1.5-1.5-1.5c-0.8,0-1.5,0.7-1.5,1.5S1173.3,69,1174.2,69z"/>
	<path d="M1174.2,333c0.8,0,1.5-0.7,1.5-1.5s-0.7-1.5-1.5-1.5c-0.8,0-1.5,0.7-1.5,1.5S1173.3,333,1174.2,333z"/>
	<path d="M1174.2,465c0.8,0,1.5-0.7,1.5-1.5s-0.7-1.5-1.5-1.5c-0.8,0-1.5,0.7-1.5,1.5S1173.3,465,1174.2,465z"/>
	<path d="M1174.2,234c0.8,0,1.5-0.7,1.5-1.5s-0.7-1.5-1.5-1.5c-0.8,0-1.5,0.7-1.5,1.5S1173.3,234,1174.2,234z"/>
	<path d="M1174.2,102c0.8,0,1.5-0.7,1.5-1.5s-0.7-1.5-1.5-1.5c-0.8,0-1.5,0.7-1.5,1.5S1173.3,102,1174.2,102z"/>
	<path d="M1174.2,366c0.8,0,1.5-0.7,1.5-1.5s-0.7-1.5-1.5-1.5c-0.8,0-1.5,0.7-1.5,1.5S1173.3,366,1174.2,366z"/>
	<path d="M1206.2,201c0.8,0,1.5-0.7,1.5-1.5s-0.6-1.5-1.5-1.5c-0.8,0-1.5,0.7-1.5,1.5S1205.4,201,1206.2,201z"/>
	<path d="M1206.2,69c0.8,0,1.5-0.7,1.5-1.5s-0.6-1.5-1.5-1.5c-0.8,0-1.5,0.7-1.5,1.5S1205.4,69,1206.2,69z"/>
	<path d="M1206.2,333c0.8,0,1.5-0.7,1.5-1.5s-0.6-1.5-1.5-1.5c-0.8,0-1.5,0.7-1.5,1.5S1205.4,333,1206.2,333z"/>
	<path d="M1206.2,465c0.8,0,1.5-0.7,1.5-1.5s-0.6-1.5-1.5-1.5c-0.8,0-1.5,0.7-1.5,1.5S1205.4,465,1206.2,465z"/>
	<path d="M1206.2,234c0.8,0,1.5-0.7,1.5-1.5s-0.6-1.5-1.5-1.5c-0.8,0-1.5,0.7-1.5,1.5S1205.4,234,1206.2,234z"/>
	<path d="M1206.2,102c0.8,0,1.5-0.7,1.5-1.5c0-0.8-0.6-1.5-1.5-1.5c-0.8,0-1.5,0.7-1.5,1.5C1204.8,101.3,1205.4,102,1206.2,102z"/>
	<path d="M1206.2,366c0.8,0,1.5-0.7,1.5-1.5s-0.6-1.5-1.5-1.5c-0.8,0-1.5,0.7-1.5,1.5S1205.4,366,1206.2,366z"/>
	<path d="M1238.3,201c0.8,0,1.5-0.7,1.5-1.5s-0.7-1.5-1.5-1.5c-0.8,0-1.5,0.7-1.5,1.5S1237.5,201,1238.3,201z"/>
	<path d="M1238.3,69c0.8,0,1.5-0.7,1.5-1.5s-0.7-1.5-1.5-1.5c-0.8,0-1.5,0.7-1.5,1.5S1237.5,69,1238.3,69z"/>
	<path d="M1238.3,333c0.8,0,1.5-0.7,1.5-1.5s-0.7-1.5-1.5-1.5c-0.8,0-1.5,0.7-1.5,1.5S1237.5,333,1238.3,333z"/>
	<path d="M1238.3,465c0.8,0,1.5-0.7,1.5-1.5s-0.7-1.5-1.5-1.5c-0.8,0-1.5,0.7-1.5,1.5S1237.5,465,1238.3,465z"/>
	<path d="M1238.3,234c0.8,0,1.5-0.7,1.5-1.5s-0.7-1.5-1.5-1.5c-0.8,0-1.5,0.7-1.5,1.5S1237.5,234,1238.3,234z"/>
	<path d="M1238.3,102c0.8,0,1.5-0.7,1.5-1.5s-0.7-1.5-1.5-1.5c-0.8,0-1.5,0.7-1.5,1.5S1237.5,102,1238.3,102z"/>
	<path d="M1238.3,366c0.8,0,1.5-0.7,1.5-1.5s-0.7-1.5-1.5-1.5c-0.8,0-1.5,0.7-1.5,1.5S1237.5,366,1238.3,366z"/>
	<path d="M1269.4,201c0.8,0,1.4-0.7,1.4-1.5s-0.7-1.5-1.4-1.5c-0.8,0-1.5,0.7-1.5,1.5S1268.6,201,1269.4,201z"/>
	<path d="M1269.4,69c0.8,0,1.4-0.7,1.4-1.5s-0.7-1.5-1.4-1.5c-0.8,0-1.5,0.7-1.5,1.5S1268.6,69,1269.4,69z"/>
	<path d="M1269.4,333c0.8,0,1.4-0.7,1.4-1.5s-0.7-1.5-1.4-1.5c-0.8,0-1.5,0.7-1.5,1.5S1268.6,333,1269.4,333z"/>
	<path d="M1269.4,465c0.8,0,1.4-0.7,1.4-1.5s-0.7-1.5-1.4-1.5c-0.8,0-1.5,0.7-1.5,1.5S1268.6,465,1269.4,465z"/>
	<path d="M1269.4,234c0.8,0,1.4-0.7,1.4-1.5s-0.7-1.5-1.4-1.5c-0.8,0-1.5,0.7-1.5,1.5S1268.6,234,1269.4,234z"/>
	<path d="M1269.4,102c0.8,0,1.4-0.7,1.4-1.5s-0.7-1.5-1.4-1.5c-0.8,0-1.5,0.7-1.5,1.5S1268.6,102,1269.4,102z"/>
	<path d="M1269.4,366c0.8,0,1.4-0.7,1.4-1.5s-0.7-1.5-1.4-1.5c-0.8,0-1.5,0.7-1.5,1.5S1268.6,366,1269.4,366z"/>
	<path d="M1301.5,201c0.8,0,1.5-0.7,1.5-1.5s-0.7-1.5-1.5-1.5c-0.8,0-1.5,0.7-1.5,1.5S1300.7,201,1301.5,201z"/>
	<path d="M1301.5,69c0.8,0,1.5-0.7,1.5-1.5s-0.7-1.5-1.5-1.5c-0.8,0-1.5,0.7-1.5,1.5S1300.7,69,1301.5,69z"/>
	<path d="M1301.5,333c0.8,0,1.5-0.7,1.5-1.5s-0.7-1.5-1.5-1.5c-0.8,0-1.5,0.7-1.5,1.5S1300.7,333,1301.5,333z"/>
	<path d="M1301.5,465c0.8,0,1.5-0.7,1.5-1.5s-0.7-1.5-1.5-1.5c-0.8,0-1.5,0.7-1.5,1.5S1300.7,465,1301.5,465z"/>
	<path d="M1301.5,234c0.8,0,1.5-0.7,1.5-1.5s-0.7-1.5-1.5-1.5c-0.8,0-1.5,0.7-1.5,1.5S1300.7,234,1301.5,234z"/>
	<path d="M1301.5,102c0.8,0,1.5-0.7,1.5-1.5s-0.7-1.5-1.5-1.5c-0.8,0-1.5,0.7-1.5,1.5S1300.7,102,1301.5,102z"/>
	<path d="M1301.5,366c0.8,0,1.5-0.7,1.5-1.5s-0.7-1.5-1.5-1.5c-0.8,0-1.5,0.7-1.5,1.5S1300.7,366,1301.5,366z"/>
	<path d="M1332.6,201c0.8,0,1.5-0.7,1.5-1.5s-0.7-1.5-1.5-1.5c-0.8,0-1.5,0.7-1.5,1.5S1331.8,201,1332.6,201z"/>
	<path d="M1332.6,69c0.8,0,1.5-0.7,1.5-1.5s-0.7-1.5-1.5-1.5c-0.8,0-1.5,0.7-1.5,1.5S1331.8,69,1332.6,69z"/>
	<path d="M1332.6,333c0.8,0,1.5-0.7,1.5-1.5s-0.7-1.5-1.5-1.5c-0.8,0-1.5,0.7-1.5,1.5S1331.8,333,1332.6,333z"/>
	<path d="M1332.6,465c0.8,0,1.5-0.7,1.5-1.5s-0.7-1.5-1.5-1.5c-0.8,0-1.5,0.7-1.5,1.5S1331.8,465,1332.6,465z"/>
	<path d="M1332.6,234c0.8,0,1.5-0.7,1.5-1.5s-0.7-1.5-1.5-1.5c-0.8,0-1.5,0.7-1.5,1.5S1331.8,234,1332.6,234z"/>
	<path d="M1332.6,102c0.8,0,1.5-0.7,1.5-1.5s-0.7-1.5-1.5-1.5c-0.8,0-1.5,0.7-1.5,1.5S1331.8,102,1332.6,102z"/>
	<path d="M1332.6,366c0.8,0,1.5-0.7,1.5-1.5s-0.7-1.5-1.5-1.5c-0.8,0-1.5,0.7-1.5,1.5S1331.8,366,1332.6,366z"/>
	<path d="M1364.7,201c0.8,0,1.5-0.7,1.5-1.5s-0.7-1.5-1.5-1.5c-0.8,0-1.5,0.7-1.5,1.5S1363.9,201,1364.7,201z"/>
	<path d="M1364.7,69c0.8,0,1.5-0.7,1.5-1.5s-0.7-1.5-1.5-1.5c-0.8,0-1.5,0.7-1.5,1.5S1363.9,69,1364.7,69z"/>
	<path d="M1364.7,333c0.8,0,1.5-0.7,1.5-1.5s-0.7-1.5-1.5-1.5c-0.8,0-1.5,0.7-1.5,1.5S1363.9,333,1364.7,333z"/>
	<path d="M1364.7,465c0.8,0,1.5-0.7,1.5-1.5s-0.7-1.5-1.5-1.5c-0.8,0-1.5,0.7-1.5,1.5S1363.9,465,1364.7,465z"/>
	<path d="M1364.7,234c0.8,0,1.5-0.7,1.5-1.5s-0.7-1.5-1.5-1.5c-0.8,0-1.5,0.7-1.5,1.5S1363.9,234,1364.7,234z"/>
	<path d="M1364.7,102c0.8,0,1.5-0.7,1.5-1.5c0-0.8-0.7-1.5-1.5-1.5c-0.8,0-1.5,0.7-1.5,1.5C1363.2,101.3,1363.9,102,1364.7,102z"/>
	<path d="M1364.7,366c0.8,0,1.5-0.7,1.5-1.5s-0.7-1.5-1.5-1.5c-0.8,0-1.5,0.7-1.5,1.5S1363.9,366,1364.7,366z"/>
	<path d="M1047.8,135c0.8,0,1.5-0.7,1.5-1.5s-0.7-1.5-1.5-1.5c-0.8,0-1.5,0.7-1.5,1.5S1046.9,135,1047.8,135z"/>
	<path d="M1047.8,3c0.8,0,1.5-0.7,1.5-1.5c0-0.8-0.7-1.5-1.5-1.5c-0.8,0-1.5,0.7-1.5,1.5C1046.3,2.3,1046.9,3,1047.8,3z"/>
	<path d="M1047.8,267c0.8,0,1.5-0.7,1.5-1.5s-0.7-1.5-1.5-1.5c-0.8,0-1.5,0.7-1.5,1.5S1046.9,267,1047.8,267z"/>
	<path d="M1047.8,399c0.8,0,1.5-0.7,1.5-1.5s-0.7-1.5-1.5-1.5c-0.8,0-1.5,0.7-1.5,1.5S1046.9,399,1047.8,399z"/>
	<path d="M1047.8,168c0.8,0,1.5-0.7,1.5-1.5s-0.7-1.5-1.5-1.5c-0.8,0-1.5,0.7-1.5,1.5S1046.9,168,1047.8,168z"/>
	<path d="M1047.8,36c0.8,0,1.5-0.7,1.5-1.5s-0.7-1.5-1.5-1.5c-0.8,0-1.5,0.7-1.5,1.5S1046.9,36,1047.8,36z"/>
	<path d="M1047.8,300c0.8,0,1.5-0.7,1.5-1.5s-0.7-1.5-1.5-1.5c-0.8,0-1.5,0.7-1.5,1.5S1046.9,300,1047.8,300z"/>
	<path d="M1047.8,432c0.8,0,1.5-0.7,1.5-1.5s-0.7-1.5-1.5-1.5c-0.8,0-1.5,0.7-1.5,1.5S1046.9,432,1047.8,432z"/>
	<path d="M1079.8,135c0.8,0,1.5-0.7,1.5-1.5s-0.7-1.5-1.5-1.5c-0.8,0-1.5,0.7-1.5,1.5S1079,135,1079.8,135z"/>
	<path d="M1079.8,3c0.8,0,1.5-0.7,1.5-1.5c0-0.8-0.7-1.5-1.5-1.5c-0.8,0-1.5,0.7-1.5,1.5C1078.4,2.3,1079,3,1079.8,3z"/>
	<path d="M1079.8,267c0.8,0,1.5-0.7,1.5-1.5s-0.7-1.5-1.5-1.5c-0.8,0-1.5,0.7-1.5,1.5S1079,267,1079.8,267z"/>
	<path d="M1079.8,399c0.8,0,1.5-0.7,1.5-1.5s-0.7-1.5-1.5-1.5c-0.8,0-1.5,0.7-1.5,1.5S1079,399,1079.8,399z"/>
	<path d="M1079.8,168c0.8,0,1.5-0.7,1.5-1.5s-0.7-1.5-1.5-1.5c-0.8,0-1.5,0.7-1.5,1.5S1079,168,1079.8,168z"/>
	<path d="M1079.8,36c0.8,0,1.5-0.7,1.5-1.5s-0.7-1.5-1.5-1.5c-0.8,0-1.5,0.7-1.5,1.5S1079,36,1079.8,36z"/>
	<path d="M1079.8,300c0.8,0,1.5-0.7,1.5-1.5s-0.7-1.5-1.5-1.5c-0.8,0-1.5,0.7-1.5,1.5S1079,300,1079.8,300z"/>
	<path d="M1079.8,432c0.8,0,1.5-0.7,1.5-1.5s-0.7-1.5-1.5-1.5c-0.8,0-1.5,0.7-1.5,1.5S1079,432,1079.8,432z"/>
	<path d="M1110.9,135c0.8,0,1.5-0.7,1.5-1.5s-0.7-1.5-1.5-1.5c-0.8,0-1.5,0.7-1.5,1.5S1110.1,135,1110.9,135z"/>
	<path d="M1110.9,3c0.8,0,1.5-0.7,1.5-1.5c0-0.8-0.7-1.5-1.5-1.5c-0.8,0-1.5,0.7-1.5,1.5C1109.5,2.3,1110.1,3,1110.9,3z"/>
	<path d="M1110.9,267c0.8,0,1.5-0.7,1.5-1.5s-0.7-1.5-1.5-1.5c-0.8,0-1.5,0.7-1.5,1.5S1110.1,267,1110.9,267z"/>
	<path d="M1110.9,399c0.8,0,1.5-0.7,1.5-1.5s-0.7-1.5-1.5-1.5c-0.8,0-1.5,0.7-1.5,1.5S1110.1,399,1110.9,399z"/>
	<path d="M1110.9,168c0.8,0,1.5-0.7,1.5-1.5s-0.7-1.5-1.5-1.5c-0.8,0-1.5,0.7-1.5,1.5S1110.1,168,1110.9,168z"/>
	<path d="M1110.9,36c0.8,0,1.5-0.7,1.5-1.5s-0.7-1.5-1.5-1.5c-0.8,0-1.5,0.7-1.5,1.5S1110.1,36,1110.9,36z"/>
	<path d="M1110.9,300c0.8,0,1.5-0.7,1.5-1.5s-0.7-1.5-1.5-1.5c-0.8,0-1.5,0.7-1.5,1.5S1110.1,300,1110.9,300z"/>
	<path d="M1110.9,432c0.8,0,1.5-0.7,1.5-1.5s-0.7-1.5-1.5-1.5c-0.8,0-1.5,0.7-1.5,1.5S1110.1,432,1110.9,432z"/>
	<path d="M1143,135c0.8,0,1.4-0.7,1.4-1.5s-0.7-1.5-1.4-1.5c-0.8,0-1.5,0.7-1.5,1.5S1142.2,135,1143,135z"/>
	<path d="M1143,3c0.8,0,1.4-0.7,1.4-1.5c0-0.8-0.7-1.5-1.4-1.5c-0.8,0-1.5,0.7-1.5,1.5C1141.6,2.3,1142.2,3,1143,3z"/>
	<path d="M1143,267c0.8,0,1.4-0.7,1.4-1.5s-0.7-1.5-1.4-1.5c-0.8,0-1.5,0.7-1.5,1.5S1142.2,267,1143,267z"/>
	<path d="M1143,399c0.8,0,1.4-0.7,1.4-1.5s-0.7-1.5-1.4-1.5c-0.8,0-1.5,0.7-1.5,1.5S1142.2,399,1143,399z"/>
	<path d="M1143,168c0.8,0,1.4-0.7,1.4-1.5s-0.7-1.5-1.4-1.5c-0.8,0-1.5,0.7-1.5,1.5S1142.2,168,1143,168z"/>
	<path d="M1143,36c0.8,0,1.4-0.7,1.4-1.5s-0.7-1.5-1.4-1.5c-0.8,0-1.5,0.7-1.5,1.5S1142.2,36,1143,36z"/>
	<path d="M1143,300c0.8,0,1.4-0.7,1.4-1.5s-0.7-1.5-1.4-1.5c-0.8,0-1.5,0.7-1.5,1.5S1142.2,300,1143,300z"/>
	<path d="M1143,432c0.8,0,1.4-0.7,1.4-1.5s-0.7-1.5-1.4-1.5c-0.8,0-1.5,0.7-1.5,1.5S1142.2,432,1143,432z"/>
	<path d="M1174.2,135c0.8,0,1.5-0.7,1.5-1.5s-0.7-1.5-1.5-1.5c-0.8,0-1.5,0.7-1.5,1.5S1173.3,135,1174.2,135z"/>
	<path d="M1174.2,3c0.8,0,1.5-0.7,1.5-1.5c0-0.8-0.7-1.5-1.5-1.5c-0.8,0-1.5,0.7-1.5,1.5C1172.7,2.3,1173.3,3,1174.2,3z"/>
	<path d="M1174.2,267c0.8,0,1.5-0.7,1.5-1.5s-0.7-1.5-1.5-1.5c-0.8,0-1.5,0.7-1.5,1.5S1173.3,267,1174.2,267z"/>
	<path d="M1174.2,399c0.8,0,1.5-0.7,1.5-1.5s-0.7-1.5-1.5-1.5c-0.8,0-1.5,0.7-1.5,1.5S1173.3,399,1174.2,399z"/>
	<path d="M1174.2,168c0.8,0,1.5-0.7,1.5-1.5s-0.7-1.5-1.5-1.5c-0.8,0-1.5,0.7-1.5,1.5S1173.3,168,1174.2,168z"/>
	<path d="M1174.2,36c0.8,0,1.5-0.7,1.5-1.5s-0.7-1.5-1.5-1.5c-0.8,0-1.5,0.7-1.5,1.5S1173.3,36,1174.2,36z"/>
	<path d="M1174.2,300c0.8,0,1.5-0.7,1.5-1.5s-0.7-1.5-1.5-1.5c-0.8,0-1.5,0.7-1.5,1.5S1173.3,300,1174.2,300z"/>
	<path d="M1174.2,432c0.8,0,1.5-0.7,1.5-1.5s-0.7-1.5-1.5-1.5c-0.8,0-1.5,0.7-1.5,1.5S1173.3,432,1174.2,432z"/>
	<path d="M1206.2,135c0.8,0,1.5-0.7,1.5-1.5s-0.6-1.5-1.5-1.5c-0.8,0-1.5,0.7-1.5,1.5S1205.4,135,1206.2,135z"/>
	<path d="M1206.2,3c0.8,0,1.5-0.7,1.5-1.5c0-0.8-0.6-1.5-1.5-1.5c-0.8,0-1.5,0.7-1.5,1.5C1204.8,2.3,1205.4,3,1206.2,3z"/>
	<path d="M1206.2,267c0.8,0,1.5-0.7,1.5-1.5s-0.6-1.5-1.5-1.5c-0.8,0-1.5,0.7-1.5,1.5S1205.4,267,1206.2,267z"/>
	<path d="M1206.2,399c0.8,0,1.5-0.7,1.5-1.5s-0.6-1.5-1.5-1.5c-0.8,0-1.5,0.7-1.5,1.5S1205.4,399,1206.2,399z"/>
	<path d="M1206.2,168c0.8,0,1.5-0.7,1.5-1.5s-0.6-1.5-1.5-1.5c-0.8,0-1.5,0.7-1.5,1.5S1205.4,168,1206.2,168z"/>
	<path d="M1206.2,36c0.8,0,1.5-0.7,1.5-1.5s-0.6-1.5-1.5-1.5c-0.8,0-1.5,0.7-1.5,1.5S1205.4,36,1206.2,36z"/>
	<path d="M1206.2,300c0.8,0,1.5-0.7,1.5-1.5s-0.6-1.5-1.5-1.5c-0.8,0-1.5,0.7-1.5,1.5S1205.4,300,1206.2,300z"/>
	<path d="M1206.2,432c0.8,0,1.5-0.7,1.5-1.5s-0.6-1.5-1.5-1.5c-0.8,0-1.5,0.7-1.5,1.5S1205.4,432,1206.2,432z"/>
	<path d="M1238.3,135c0.8,0,1.5-0.7,1.5-1.5s-0.7-1.5-1.5-1.5c-0.8,0-1.5,0.7-1.5,1.5S1237.5,135,1238.3,135z"/>
	<path d="M1238.3,3c0.8,0,1.5-0.7,1.5-1.5c0-0.8-0.7-1.5-1.5-1.5c-0.8,0-1.5,0.7-1.5,1.5C1236.9,2.3,1237.5,3,1238.3,3z"/>
	<path d="M1238.3,267c0.8,0,1.5-0.7,1.5-1.5s-0.7-1.5-1.5-1.5c-0.8,0-1.5,0.7-1.5,1.5S1237.5,267,1238.3,267z"/>
	<path d="M1238.3,399c0.8,0,1.5-0.7,1.5-1.5s-0.7-1.5-1.5-1.5c-0.8,0-1.5,0.7-1.5,1.5S1237.5,399,1238.3,399z"/>
	<path d="M1238.3,168c0.8,0,1.5-0.7,1.5-1.5s-0.7-1.5-1.5-1.5c-0.8,0-1.5,0.7-1.5,1.5S1237.5,168,1238.3,168z"/>
	<path d="M1238.3,36c0.8,0,1.5-0.7,1.5-1.5s-0.7-1.5-1.5-1.5c-0.8,0-1.5,0.7-1.5,1.5S1237.5,36,1238.3,36z"/>
	<path d="M1238.3,300c0.8,0,1.5-0.7,1.5-1.5s-0.7-1.5-1.5-1.5c-0.8,0-1.5,0.7-1.5,1.5S1237.5,300,1238.3,300z"/>
	<path d="M1238.3,432c0.8,0,1.5-0.7,1.5-1.5s-0.7-1.5-1.5-1.5c-0.8,0-1.5,0.7-1.5,1.5S1237.5,432,1238.3,432z"/>
	<path d="M1269.4,135c0.8,0,1.4-0.7,1.4-1.5s-0.7-1.5-1.4-1.5c-0.8,0-1.5,0.7-1.5,1.5S1268.6,135,1269.4,135z"/>
	<path d="M1269.4,3c0.8,0,1.4-0.7,1.4-1.5c0-0.8-0.7-1.5-1.4-1.5c-0.8,0-1.5,0.7-1.5,1.5C1268,2.3,1268.6,3,1269.4,3z"/>
	<path d="M1269.4,267c0.8,0,1.4-0.7,1.4-1.5s-0.7-1.5-1.4-1.5c-0.8,0-1.5,0.7-1.5,1.5S1268.6,267,1269.4,267z"/>
	<path d="M1269.4,399c0.8,0,1.4-0.7,1.4-1.5s-0.7-1.5-1.4-1.5c-0.8,0-1.5,0.7-1.5,1.5S1268.6,399,1269.4,399z"/>
	<path d="M1269.4,168c0.8,0,1.4-0.7,1.4-1.5s-0.7-1.5-1.4-1.5c-0.8,0-1.5,0.7-1.5,1.5S1268.6,168,1269.4,168z"/>
	<path d="M1269.4,36c0.8,0,1.4-0.7,1.4-1.5s-0.7-1.5-1.4-1.5c-0.8,0-1.5,0.7-1.5,1.5S1268.6,36,1269.4,36z"/>
	<path d="M1269.4,300c0.8,0,1.4-0.7,1.4-1.5s-0.7-1.5-1.4-1.5c-0.8,0-1.5,0.7-1.5,1.5S1268.6,300,1269.4,300z"/>
	<path d="M1269.4,432c0.8,0,1.4-0.7,1.4-1.5s-0.7-1.5-1.4-1.5c-0.8,0-1.5,0.7-1.5,1.5S1268.6,432,1269.4,432z"/>
	<path d="M1301.5,135c0.8,0,1.5-0.7,1.5-1.5s-0.7-1.5-1.5-1.5c-0.8,0-1.5,0.7-1.5,1.5S1300.7,135,1301.5,135z"/>
	<path d="M1301.5,3c0.8,0,1.5-0.7,1.5-1.5c0-0.8-0.7-1.5-1.5-1.5c-0.8,0-1.5,0.7-1.5,1.5C1300.1,2.3,1300.7,3,1301.5,3z"/>
	<path d="M1301.5,267c0.8,0,1.5-0.7,1.5-1.5s-0.7-1.5-1.5-1.5c-0.8,0-1.5,0.7-1.5,1.5S1300.7,267,1301.5,267z"/>
	<path d="M1301.5,399c0.8,0,1.5-0.7,1.5-1.5s-0.7-1.5-1.5-1.5c-0.8,0-1.5,0.7-1.5,1.5S1300.7,399,1301.5,399z"/>
	<path d="M1301.5,168c0.8,0,1.5-0.7,1.5-1.5s-0.7-1.5-1.5-1.5c-0.8,0-1.5,0.7-1.5,1.5S1300.7,168,1301.5,168z"/>
	<path d="M1301.5,36c0.8,0,1.5-0.7,1.5-1.5s-0.7-1.5-1.5-1.5c-0.8,0-1.5,0.7-1.5,1.5S1300.7,36,1301.5,36z"/>
	<path d="M1301.5,300c0.8,0,1.5-0.7,1.5-1.5s-0.7-1.5-1.5-1.5c-0.8,0-1.5,0.7-1.5,1.5S1300.7,300,1301.5,300z"/>
	<path d="M1301.5,432c0.8,0,1.5-0.7,1.5-1.5s-0.7-1.5-1.5-1.5c-0.8,0-1.5,0.7-1.5,1.5S1300.7,432,1301.5,432z"/>
	<path d="M1332.6,135c0.8,0,1.5-0.7,1.5-1.5s-0.7-1.5-1.5-1.5c-0.8,0-1.5,0.7-1.5,1.5S1331.8,135,1332.6,135z"/>
	<path d="M1332.6,3c0.8,0,1.5-0.7,1.5-1.5c0-0.8-0.7-1.5-1.5-1.5c-0.8,0-1.5,0.7-1.5,1.5C1331.2,2.3,1331.8,3,1332.6,3z"/>
	<path d="M1332.6,267c0.8,0,1.5-0.7,1.5-1.5s-0.7-1.5-1.5-1.5c-0.8,0-1.5,0.7-1.5,1.5S1331.8,267,1332.6,267z"/>
	<path d="M1332.6,399c0.8,0,1.5-0.7,1.5-1.5s-0.7-1.5-1.5-1.5c-0.8,0-1.5,0.7-1.5,1.5S1331.8,399,1332.6,399z"/>
	<path d="M1332.6,168c0.8,0,1.5-0.7,1.5-1.5s-0.7-1.5-1.5-1.5c-0.8,0-1.5,0.7-1.5,1.5S1331.8,168,1332.6,168z"/>
	<path d="M1332.6,36c0.8,0,1.5-0.7,1.5-1.5s-0.7-1.5-1.5-1.5c-0.8,0-1.5,0.7-1.5,1.5S1331.8,36,1332.6,36z"/>
	<path d="M1332.6,300c0.8,0,1.5-0.7,1.5-1.5s-0.7-1.5-1.5-1.5c-0.8,0-1.5,0.7-1.5,1.5S1331.8,300,1332.6,300z"/>
	<path d="M1332.6,432c0.8,0,1.5-0.7,1.5-1.5s-0.7-1.5-1.5-1.5c-0.8,0-1.5,0.7-1.5,1.5S1331.8,432,1332.6,432z"/>
	<path d="M1364.7,135c0.8,0,1.5-0.7,1.5-1.5s-0.7-1.5-1.5-1.5c-0.8,0-1.5,0.7-1.5,1.5S1363.9,135,1364.7,135z"/>
	<path d="M1364.7,3c0.8,0,1.5-0.7,1.5-1.5c0-0.8-0.7-1.5-1.5-1.5c-0.8,0-1.5,0.7-1.5,1.5C1363.2,2.3,1363.9,3,1364.7,3z"/>
	<path d="M1364.7,267c0.8,0,1.5-0.7,1.5-1.5s-0.7-1.5-1.5-1.5c-0.8,0-1.5,0.7-1.5,1.5S1363.9,267,1364.7,267z"/>
	<path d="M1364.7,399c0.8,0,1.5-0.7,1.5-1.5s-0.7-1.5-1.5-1.5c-0.8,0-1.5,0.7-1.5,1.5S1363.9,399,1364.7,399z"/>
	<path d="M1364.7,168c0.8,0,1.5-0.7,1.5-1.5s-0.7-1.5-1.5-1.5c-0.8,0-1.5,0.7-1.5,1.5S1363.9,168,1364.7,168z"/>
	<path d="M1364.7,36c0.8,0,1.5-0.7,1.5-1.5s-0.7-1.5-1.5-1.5c-0.8,0-1.5,0.7-1.5,1.5S1363.9,36,1364.7,36z"/>
	<path d="M1364.7,300c0.8,0,1.5-0.7,1.5-1.5s-0.7-1.5-1.5-1.5c-0.8,0-1.5,0.7-1.5,1.5S1363.9,300,1364.7,300z"/>
	<path d="M1364.7,432c0.8,0,1.5-0.7,1.5-1.5s-0.7-1.5-1.5-1.5c-0.8,0-1.5,0.7-1.5,1.5S1363.9,432,1364.7,432z"/>
	<path d="M1047.8,597c0.8,0,1.5-0.7,1.5-1.5s-0.7-1.5-1.5-1.5c-0.8,0-1.5,0.7-1.5,1.5S1046.9,597,1047.8,597z"/>
	<path d="M1079.8,597c0.8,0,1.5-0.7,1.5-1.5s-0.7-1.5-1.5-1.5c-0.8,0-1.5,0.7-1.5,1.5S1079,597,1079.8,597z"/>
	<path d="M1110.9,597c0.8,0,1.5-0.7,1.5-1.5s-0.7-1.5-1.5-1.5c-0.8,0-1.5,0.7-1.5,1.5S1110.1,597,1110.9,597z"/>
	<path d="M1143,597c0.8,0,1.4-0.7,1.4-1.5s-0.7-1.5-1.4-1.5c-0.8,0-1.5,0.7-1.5,1.5S1142.2,597,1143,597z"/>
	<path d="M1174.2,597c0.8,0,1.5-0.7,1.5-1.5s-0.7-1.5-1.5-1.5c-0.8,0-1.5,0.7-1.5,1.5S1173.3,597,1174.2,597z"/>
	<path d="M1206.2,597c0.8,0,1.5-0.7,1.5-1.5s-0.6-1.5-1.5-1.5c-0.8,0-1.5,0.7-1.5,1.5S1205.4,597,1206.2,597z"/>
	<path d="M1238.3,597c0.8,0,1.5-0.7,1.5-1.5s-0.7-1.5-1.5-1.5c-0.8,0-1.5,0.7-1.5,1.5S1237.5,597,1238.3,597z"/>
	<path d="M1269.4,597c0.8,0,1.4-0.7,1.4-1.5s-0.7-1.5-1.4-1.5c-0.8,0-1.5,0.7-1.5,1.5S1268.6,597,1269.4,597z"/>
	<path d="M1301.5,597c0.8,0,1.5-0.7,1.5-1.5s-0.7-1.5-1.5-1.5c-0.8,0-1.5,0.7-1.5,1.5S1300.7,597,1301.5,597z"/>
	<path d="M1332.6,597c0.8,0,1.5-0.7,1.5-1.5s-0.7-1.5-1.5-1.5c-0.8,0-1.5,0.7-1.5,1.5S1331.8,597,1332.6,597z"/>
	<path d="M1364.7,597c0.8,0,1.5-0.7,1.5-1.5s-0.7-1.5-1.5-1.5c-0.8,0-1.5,0.7-1.5,1.5S1363.9,597,1364.7,597z"/>
	<path d="M1047.8,630c0.8,0,1.5-0.7,1.5-1.5s-0.7-1.5-1.5-1.5c-0.8,0-1.5,0.7-1.5,1.5S1046.9,630,1047.8,630z"/>
	<path d="M1079.8,630c0.8,0,1.5-0.7,1.5-1.5s-0.7-1.5-1.5-1.5c-0.8,0-1.5,0.7-1.5,1.5S1079,630,1079.8,630z"/>
	<path d="M1110.9,630c0.8,0,1.5-0.7,1.5-1.5s-0.7-1.5-1.5-1.5c-0.8,0-1.5,0.7-1.5,1.5S1110.1,630,1110.9,630z"/>
	<path d="M1143,630c0.8,0,1.4-0.7,1.4-1.5s-0.7-1.5-1.4-1.5c-0.8,0-1.5,0.7-1.5,1.5S1142.2,630,1143,630z"/>
	<path d="M1174.2,630c0.8,0,1.5-0.7,1.5-1.5s-0.7-1.5-1.5-1.5c-0.8,0-1.5,0.7-1.5,1.5S1173.3,630,1174.2,630z"/>
	<path d="M1206.2,630c0.8,0,1.5-0.7,1.5-1.5s-0.6-1.5-1.5-1.5c-0.8,0-1.5,0.7-1.5,1.5S1205.4,630,1206.2,630z"/>
	<path d="M1238.3,630c0.8,0,1.5-0.7,1.5-1.5s-0.7-1.5-1.5-1.5c-0.8,0-1.5,0.7-1.5,1.5S1237.5,630,1238.3,630z"/>
	<path d="M1269.4,630c0.8,0,1.4-0.7,1.4-1.5s-0.7-1.5-1.4-1.5c-0.8,0-1.5,0.7-1.5,1.5S1268.6,630,1269.4,630z"/>
	<path d="M1301.5,630c0.8,0,1.5-0.7,1.5-1.5s-0.7-1.5-1.5-1.5c-0.8,0-1.5,0.7-1.5,1.5S1300.7,630,1301.5,630z"/>
	<path d="M1332.6,630c0.8,0,1.5-0.7,1.5-1.5s-0.7-1.5-1.5-1.5c-0.8,0-1.5,0.7-1.5,1.5S1331.8,630,1332.6,630z"/>
	<path d="M1364.7,630c0.8,0,1.5-0.7,1.5-1.5s-0.7-1.5-1.5-1.5c-0.8,0-1.5,0.7-1.5,1.5S1363.9,630,1364.7,630z"/>
	<path d="M1047.8,564c0.8,0,1.5-0.7,1.5-1.5s-0.7-1.5-1.5-1.5c-0.8,0-1.5,0.7-1.5,1.5S1046.9,564,1047.8,564z"/>
	<path d="M1079.8,564c0.8,0,1.5-0.7,1.5-1.5s-0.7-1.5-1.5-1.5c-0.8,0-1.5,0.7-1.5,1.5S1079,564,1079.8,564z"/>
	<path d="M1110.9,564c0.8,0,1.5-0.7,1.5-1.5s-0.7-1.5-1.5-1.5c-0.8,0-1.5,0.7-1.5,1.5S1110.1,564,1110.9,564z"/>
	<path d="M1143,564c0.8,0,1.4-0.7,1.4-1.5s-0.7-1.5-1.4-1.5c-0.8,0-1.5,0.7-1.5,1.5S1142.2,564,1143,564z"/>
	<path d="M1174.2,564c0.8,0,1.5-0.7,1.5-1.5s-0.7-1.5-1.5-1.5c-0.8,0-1.5,0.7-1.5,1.5S1173.3,564,1174.2,564z"/>
	<path d="M1206.2,564c0.8,0,1.5-0.7,1.5-1.5s-0.6-1.5-1.5-1.5c-0.8,0-1.5,0.7-1.5,1.5S1205.4,564,1206.2,564z"/>
	<path d="M1238.3,564c0.8,0,1.5-0.7,1.5-1.5s-0.7-1.5-1.5-1.5c-0.8,0-1.5,0.7-1.5,1.5S1237.5,564,1238.3,564z"/>
	<path d="M1269.4,564c0.8,0,1.4-0.7,1.4-1.5s-0.7-1.5-1.4-1.5c-0.8,0-1.5,0.7-1.5,1.5S1268.6,564,1269.4,564z"/>
	<path d="M1301.5,564c0.8,0,1.5-0.7,1.5-1.5s-0.7-1.5-1.5-1.5c-0.8,0-1.5,0.7-1.5,1.5S1300.7,564,1301.5,564z"/>
	<path d="M1332.6,564c0.8,0,1.5-0.7,1.5-1.5s-0.7-1.5-1.5-1.5c-0.8,0-1.5,0.7-1.5,1.5S1331.8,564,1332.6,564z"/>
	<path d="M1364.7,564c0.8,0,1.5-0.7,1.5-1.5s-0.7-1.5-1.5-1.5c-0.8,0-1.5,0.7-1.5,1.5S1363.9,564,1364.7,564z"/>
	<path d="M1047.8,531c0.8,0,1.5-0.7,1.5-1.5s-0.7-1.5-1.5-1.5c-0.8,0-1.5,0.7-1.5,1.5S1046.9,531,1047.8,531z"/>
	<path d="M1079.8,531c0.8,0,1.5-0.7,1.5-1.5s-0.7-1.5-1.5-1.5c-0.8,0-1.5,0.7-1.5,1.5S1079,531,1079.8,531z"/>
	<path d="M1110.9,531c0.8,0,1.5-0.7,1.5-1.5s-0.7-1.5-1.5-1.5c-0.8,0-1.5,0.7-1.5,1.5S1110.1,531,1110.9,531z"/>
	<path d="M1143,531c0.8,0,1.4-0.7,1.4-1.5s-0.7-1.5-1.4-1.5c-0.8,0-1.5,0.7-1.5,1.5S1142.2,531,1143,531z"/>
	<path d="M1174.2,531c0.8,0,1.5-0.7,1.5-1.5s-0.7-1.5-1.5-1.5c-0.8,0-1.5,0.7-1.5,1.5S1173.3,531,1174.2,531z"/>
	<path d="M1206.2,531c0.8,0,1.5-0.7,1.5-1.5s-0.6-1.5-1.5-1.5c-0.8,0-1.5,0.7-1.5,1.5S1205.4,531,1206.2,531z"/>
	<path d="M1238.3,531c0.8,0,1.5-0.7,1.5-1.5s-0.7-1.5-1.5-1.5c-0.8,0-1.5,0.7-1.5,1.5S1237.5,531,1238.3,531z"/>
	<path d="M1269.4,531c0.8,0,1.4-0.7,1.4-1.5s-0.7-1.5-1.4-1.5c-0.8,0-1.5,0.7-1.5,1.5S1268.6,531,1269.4,531z"/>
	<path d="M1301.5,531c0.8,0,1.5-0.7,1.5-1.5s-0.7-1.5-1.5-1.5c-0.8,0-1.5,0.7-1.5,1.5S1300.7,531,1301.5,531z"/>
	<path d="M1332.6,531c0.8,0,1.5-0.7,1.5-1.5s-0.7-1.5-1.5-1.5c-0.8,0-1.5,0.7-1.5,1.5S1331.8,531,1332.6,531z"/>
	<path d="M1364.7,531c0.8,0,1.5-0.7,1.5-1.5s-0.7-1.5-1.5-1.5c-0.8,0-1.5,0.7-1.5,1.5S1363.9,531,1364.7,531z"/>
	<path d="M1047.8,498c0.8,0,1.5-0.7,1.5-1.5s-0.7-1.5-1.5-1.5c-0.8,0-1.5,0.7-1.5,1.5S1046.9,498,1047.8,498z"/>
	<path d="M1079.8,498c0.8,0,1.5-0.7,1.5-1.5s-0.7-1.5-1.5-1.5c-0.8,0-1.5,0.7-1.5,1.5S1079,498,1079.8,498z"/>
	<path d="M1110.9,498c0.8,0,1.5-0.7,1.5-1.5s-0.7-1.5-1.5-1.5c-0.8,0-1.5,0.7-1.5,1.5S1110.1,498,1110.9,498z"/>
	<path d="M1143,498c0.8,0,1.4-0.7,1.4-1.5s-0.7-1.5-1.4-1.5c-0.8,0-1.5,0.7-1.5,1.5S1142.2,498,1143,498z"/>
	<path d="M1174.2,498c0.8,0,1.5-0.7,1.5-1.5s-0.7-1.5-1.5-1.5c-0.8,0-1.5,0.7-1.5,1.5S1173.3,498,1174.2,498z"/>
	<path d="M1206.2,498c0.8,0,1.5-0.7,1.5-1.5s-0.6-1.5-1.5-1.5c-0.8,0-1.5,0.7-1.5,1.5S1205.4,498,1206.2,498z"/>
	<path d="M1238.3,498c0.8,0,1.5-0.7,1.5-1.5s-0.7-1.5-1.5-1.5c-0.8,0-1.5,0.7-1.5,1.5S1237.5,498,1238.3,498z"/>
	<path d="M1269.4,498c0.8,0,1.4-0.7,1.4-1.5s-0.7-1.5-1.4-1.5c-0.8,0-1.5,0.7-1.5,1.5S1268.6,498,1269.4,498z"/>
	<path d="M1301.5,498c0.8,0,1.5-0.7,1.5-1.5s-0.7-1.5-1.5-1.5c-0.8,0-1.5,0.7-1.5,1.5S1300.7,498,1301.5,498z"/>
	<path d="M1332.6,498c0.8,0,1.5-0.7,1.5-1.5s-0.7-1.5-1.5-1.5c-0.8,0-1.5,0.7-1.5,1.5S1331.8,498,1332.6,498z"/>
	<path d="M1364.7,498c0.8,0,1.5-0.7,1.5-1.5s-0.7-1.5-1.5-1.5c-0.8,0-1.5,0.7-1.5,1.5S1363.9,498,1364.7,498z"/>
</g>
</svg>
