<svg width="293" height="201" viewBox="0 0 293 201" fill="none" xmlns="http://www.w3.org/2000/svg">
<path opacity="0.15" fill-rule="evenodd" clip-rule="evenodd" d="M1.49999 3C2.32841 3 3 2.32843 3 1.5C3 0.671573 2.32841 0 1.49999 0C0.671568 0 0 0.671573 0 1.5C0 2.32843 0.671568 3 1.49999 3ZM3 67.5C3 68.3284 2.32841 69 1.49999 69C0.671568 69 0 68.3284 0 67.5C0 66.6716 0.671568 66 1.49999 66C2.32841 66 3 66.6716 3 67.5ZM3 199.5C3 200.328 2.32841 201 1.49999 201C0.671568 201 0 200.328 0 199.5C0 198.672 0.671568 198 1.49999 198C2.32841 198 3 198.672 3 199.5ZM1.49999 102C2.32841 102 3 101.328 3 100.5C3 99.6716 2.32841 99 1.49999 99C0.671568 99 0 99.6716 0 100.5C0 101.328 0.671568 102 1.49999 102ZM36 199.5C36 200.332 35.332 201 34.5 201C33.668 201 33 200.332 33 199.5C33 198.668 33.668 198 34.5 198C35.3203 198 36 198.668 36 199.5ZM34.5 69C35.332 69 36 68.332 36 67.5C36 66.668 35.3203 66 34.5 66C33.668 66 33 66.668 33 67.5C33 68.332 33.668 69 34.5 69ZM36 100.5C36 101.332 35.332 102 34.5 102C33.668 102 33 101.332 33 100.5C33 99.668 33.668 99 34.5 99C35.3203 99 36 99.668 36 100.5ZM66.5 201C67.332 201 68 200.332 68 199.5C68 198.668 67.3203 198 66.5 198C65.668 198 65 198.668 65 199.5C65 200.332 65.668 201 66.5 201ZM68 67.5C68 68.332 67.332 69 66.5 69C65.668 69 65 68.332 65 67.5C65 66.668 65.668 66 66.5 66C67.3203 66 68 66.668 68 67.5ZM66.5 102C67.332 102 68 101.332 68 100.5C68 99.668 67.3203 99 66.5 99C65.668 99 65 99.668 65 100.5C65 101.332 65.668 102 66.5 102ZM101 199.5C101 200.332 100.332 201 99.5 201C98.668 201 98 200.332 98 199.5C98 198.668 98.668 198 99.5 198C100.32 198 101 198.668 101 199.5ZM99.5 69C100.332 69 101 68.332 101 67.5C101 66.668 100.32 66 99.5 66C98.668 66 98 66.668 98 67.5C98 68.332 98.668 69 99.5 69ZM101 100.5C101 101.332 100.332 102 99.5 102C98.668 102 98 101.332 98 100.5C98 99.668 98.668 99 99.5 99C100.32 99 101 99.668 101 100.5ZM131.5 201C132.332 201 133 200.332 133 199.5C133 198.668 132.32 198 131.5 198C130.668 198 130 198.668 130 199.5C130 200.332 130.668 201 131.5 201ZM133 67.5C133 68.332 132.332 69 131.5 69C130.668 69 130 68.332 130 67.5C130 66.668 130.668 66 131.5 66C132.32 66 133 66.668 133 67.5ZM131.5 102C132.332 102 133 101.332 133 100.5C133 99.668 132.32 99 131.5 99C130.668 99 130 99.668 130 100.5C130 101.332 130.668 102 131.5 102ZM166 199.5C166 200.328 165.328 201 164.5 201C163.672 201 163 200.328 163 199.5C163 198.672 163.672 198 164.5 198C165.328 198 166 198.672 166 199.5ZM164.5 69C165.328 69 166 68.3284 166 67.5C166 66.6716 165.328 66 164.5 66C163.672 66 163 66.6716 163 67.5C163 68.3284 163.672 69 164.5 69ZM166 100.5C166 101.328 165.328 102 164.5 102C163.672 102 163 101.328 163 100.5C163 99.6716 163.672 99 164.5 99C165.328 99 166 99.6716 166 100.5ZM197.5 201C198.332 201 199 200.332 199 199.5C199 198.668 198.32 198 197.5 198C196.668 198 196 198.668 196 199.5C196 200.332 196.668 201 197.5 201ZM199 67.5C199 68.332 198.332 69 197.5 69C196.668 69 196 68.332 196 67.5C196 66.668 196.668 66 197.5 66C198.32 66 199 66.668 199 67.5ZM197.5 102C198.332 102 199 101.332 199 100.5C199 99.668 198.32 99 197.5 99C196.668 99 196 99.668 196 100.5C196 101.332 196.668 102 197.5 102ZM3 133.5C3 134.328 2.32841 135 1.49999 135C0.671568 135 0 134.328 0 133.5C0 132.672 0.671568 132 1.49999 132C2.32841 132 3 132.672 3 133.5ZM3 166.5C3 167.328 2.32841 168 1.49999 168C0.671568 168 0 167.328 0 166.5C0 165.672 0.671568 165 1.49999 165C2.32841 165 3 165.672 3 166.5ZM1.49999 36C2.32841 36 3 35.3284 3 34.5C3 33.6716 2.32841 33 1.49999 33C0.671568 33 0 33.6716 0 34.5C0 35.3284 0.671568 36 1.49999 36ZM36 133.5C36 134.332 35.332 135 34.5 135C33.668 135 33 134.332 33 133.5C33 132.668 33.668 132 34.5 132C35.3203 132 36 132.668 36 133.5ZM34.5 3C35.332 3 36 2.33203 36 1.5C36 0.667969 35.3203 0 34.5 0C33.668 0 33 0.667969 33 1.5C33 2.33203 33.668 3 34.5 3ZM36 166.5C36 167.332 35.332 168 34.5 168C33.668 168 33 167.332 33 166.5C33 165.668 33.668 165 34.5 165C35.3203 165 36 165.668 36 166.5ZM34.5 36C35.332 36 36 35.332 36 34.5C36 33.668 35.3203 33 34.5 33C33.668 33 33 33.668 33 34.5C33 35.332 33.668 36 34.5 36ZM68 133.5C68 134.332 67.332 135 66.5 135C65.668 135 65 134.332 65 133.5C65 132.668 65.668 132 66.5 132C67.3203 132 68 132.668 68 133.5ZM66.5 3C67.332 3 68 2.33203 68 1.5C68 0.667969 67.3203 0 66.5 0C65.668 0 65 0.667969 65 1.5C65 2.33203 65.668 3 66.5 3ZM68 166.5C68 167.332 67.332 168 66.5 168C65.668 168 65 167.332 65 166.5C65 165.668 65.668 165 66.5 165C67.3203 165 68 165.668 68 166.5ZM66.5 36C67.332 36 68 35.332 68 34.5C68 33.668 67.3203 33 66.5 33C65.668 33 65 33.668 65 34.5C65 35.332 65.668 36 66.5 36ZM101 133.5C101 134.332 100.332 135 99.5 135C98.668 135 98 134.332 98 133.5C98 132.668 98.668 132 99.5 132C100.32 132 101 132.668 101 133.5ZM99.5 3C100.332 3 101 2.33203 101 1.5C101 0.667969 100.32 0 99.5 0C98.668 0 98 0.667969 98 1.5C98 2.33203 98.668 3 99.5 3ZM101 166.5C101 167.332 100.332 168 99.5 168C98.668 168 98 167.332 98 166.5C98 165.668 98.668 165 99.5 165C100.32 165 101 165.668 101 166.5ZM99.5 36C100.332 36 101 35.332 101 34.5C101 33.668 100.32 33 99.5 33C98.668 33 98 33.668 98 34.5C98 35.332 98.668 36 99.5 36ZM133 133.5C133 134.332 132.332 135 131.5 135C130.668 135 130 134.332 130 133.5C130 132.668 130.668 132 131.5 132C132.32 132 133 132.668 133 133.5ZM131.5 3C132.332 3 133 2.33203 133 1.5C133 0.667969 132.32 0 131.5 0C130.668 0 130 0.667969 130 1.5C130 2.33203 130.668 3 131.5 3ZM133 166.5C133 167.332 132.332 168 131.5 168C130.668 168 130 167.332 130 166.5C130 165.668 130.668 165 131.5 165C132.32 165 133 165.668 133 166.5ZM131.5 36C132.332 36 133 35.332 133 34.5C133 33.668 132.32 33 131.5 33C130.668 33 130 33.668 130 34.5C130 35.332 130.668 36 131.5 36ZM166 133.5C166 134.328 165.328 135 164.5 135C163.672 135 163 134.328 163 133.5C163 132.672 163.672 132 164.5 132C165.328 132 166 132.672 166 133.5ZM164.5 3C165.328 3 166 2.32843 166 1.5C166 0.671573 165.328 0 164.5 0C163.672 0 163 0.671573 163 1.5C163 2.32843 163.672 3 164.5 3ZM166 166.5C166 167.328 165.328 168 164.5 168C163.672 168 163 167.328 163 166.5C163 165.672 163.672 165 164.5 165C165.328 165 166 165.672 166 166.5ZM164.5 36C165.328 36 166 35.3284 166 34.5C166 33.6716 165.328 33 164.5 33C163.672 33 163 33.6716 163 34.5C163 35.3284 163.672 36 164.5 36ZM199 133.5C199 134.332 198.332 135 197.5 135C196.668 135 196 134.332 196 133.5C196 132.668 196.668 132 197.5 132C198.32 132 199 132.668 199 133.5ZM197.5 3C198.332 3 199 2.33203 199 1.5C199 0.667969 198.32 0 197.5 0C196.668 0 196 0.667969 196 1.5C196 2.33203 196.668 3 197.5 3ZM199 166.5C199 167.332 198.332 168 197.5 168C196.668 168 196 167.332 196 166.5C196 165.668 196.668 165 197.5 165C198.32 165 199 165.668 199 166.5ZM197.5 36C198.332 36 199 35.332 199 34.5C199 33.668 198.32 33 197.5 33C196.668 33 196 33.668 196 34.5C196 35.332 196.668 36 197.5 36ZM231.56 199.5C231.56 200.328 230.888 201 230.06 201C229.232 201 228.56 200.328 228.56 199.5C228.56 198.672 229.232 198 230.06 198C230.888 198 231.56 198.672 231.56 199.5ZM230.06 69C230.888 69 231.56 68.3284 231.56 67.5C231.56 66.6716 230.888 66 230.06 66C229.232 66 228.56 66.6716 228.56 67.5C228.56 68.3284 229.232 69 230.06 69ZM231.56 100.5C231.56 101.328 230.888 102 230.06 102C229.232 102 228.56 101.328 228.56 100.5C228.56 99.6716 229.232 99 230.06 99C230.888 99 231.56 99.6716 231.56 100.5ZM263.06 201C263.892 201 264.56 200.332 264.56 199.5C264.56 198.668 263.88 198 263.06 198C262.228 198 261.56 198.668 261.56 199.5C261.56 200.332 262.228 201 263.06 201ZM264.56 67.5C264.56 68.332 263.892 69 263.06 69C262.228 69 261.56 68.332 261.56 67.5C261.56 66.668 262.228 66 263.06 66C263.88 66 264.56 66.668 264.56 67.5ZM263.06 102C263.892 102 264.56 101.332 264.56 100.5C264.56 99.668 263.88 99 263.06 99C262.228 99 261.56 99.668 261.56 100.5C261.56 101.332 262.228 102 263.06 102ZM296.56 199.5C296.56 200.332 295.892 201 295.06 201C294.228 201 293.56 200.332 293.56 199.5C293.56 198.668 294.228 198 295.06 198C295.88 198 296.56 198.668 296.56 199.5ZM295.06 69C295.892 69 296.56 68.332 296.56 67.5C296.56 66.668 295.88 66 295.06 66C294.228 66 293.56 66.668 293.56 67.5C293.56 68.332 294.228 69 295.06 69ZM296.56 100.5C296.56 101.332 295.892 102 295.06 102C294.228 102 293.56 101.332 293.56 100.5C293.56 99.668 294.228 99 295.06 99C295.88 99 296.56 99.668 296.56 100.5ZM328.06 201C328.892 201 329.56 200.332 329.56 199.5C329.56 198.668 328.88 198 328.06 198C327.228 198 326.56 198.668 326.56 199.5C326.56 200.332 327.228 201 328.06 201ZM329.56 67.5C329.56 68.332 328.892 69 328.06 69C327.228 69 326.56 68.332 326.56 67.5C326.56 66.668 327.228 66 328.06 66C328.88 66 329.56 66.668 329.56 67.5ZM328.06 102C328.892 102 329.56 101.332 329.56 100.5C329.56 99.668 328.88 99 328.06 99C327.228 99 326.56 99.668 326.56 100.5C326.56 101.332 327.228 102 328.06 102ZM361.56 199.5C361.56 200.332 360.892 201 360.06 201C359.228 201 358.56 200.332 358.56 199.5C358.56 198.668 359.228 198 360.06 198C360.88 198 361.56 198.668 361.56 199.5ZM360.06 69C360.892 69 361.56 68.332 361.56 67.5C361.56 66.668 360.88 66 360.06 66C359.228 66 358.56 66.668 358.56 67.5C358.56 68.332 359.228 69 360.06 69ZM361.56 100.5C361.56 101.332 360.892 102 360.06 102C359.228 102 358.56 101.332 358.56 100.5C358.56 99.668 359.228 99 360.06 99C360.88 99 361.56 99.668 361.56 100.5ZM393.06 201C393.888 201 394.56 200.328 394.56 199.5C394.56 198.672 393.888 198 393.06 198C392.232 198 391.56 198.672 391.56 199.5C391.56 200.328 392.232 201 393.06 201ZM394.56 67.5C394.56 68.3284 393.888 69 393.06 69C392.232 69 391.56 68.3284 391.56 67.5C391.56 66.6716 392.232 66 393.06 66C393.888 66 394.56 66.6716 394.56 67.5ZM393.06 102C393.888 102 394.56 101.328 394.56 100.5C394.56 99.6716 393.888 99 393.06 99C392.232 99 391.56 99.6716 391.56 100.5C391.56 101.328 392.232 102 393.06 102ZM427.56 199.5C427.56 200.332 426.892 201 426.06 201C425.228 201 424.56 200.332 424.56 199.5C424.56 198.668 425.228 198 426.06 198C426.88 198 427.56 198.668 427.56 199.5ZM426.06 69C426.892 69 427.56 68.332 427.56 67.5C427.56 66.668 426.88 66 426.06 66C425.228 66 424.56 66.668 424.56 67.5C424.56 68.332 425.228 69 426.06 69ZM427.56 100.5C427.56 101.332 426.892 102 426.06 102C425.228 102 424.56 101.332 424.56 100.5C424.56 99.668 425.228 99 426.06 99C426.88 99 427.56 99.668 427.56 100.5ZM230.06 135C230.888 135 231.56 134.328 231.56 133.5C231.56 132.672 230.888 132 230.06 132C229.232 132 228.56 132.672 228.56 133.5C228.56 134.328 229.232 135 230.06 135ZM231.56 1.5C231.56 2.32843 230.888 3 230.06 3C229.232 3 228.56 2.32843 228.56 1.5C228.56 0.671573 229.232 0 230.06 0C230.888 0 231.56 0.671573 231.56 1.5ZM230.06 168C230.888 168 231.56 167.328 231.56 166.5C231.56 165.672 230.888 165 230.06 165C229.232 165 228.56 165.672 228.56 166.5C228.56 167.328 229.232 168 230.06 168ZM231.56 34.5C231.56 35.3284 230.888 36 230.06 36C229.232 36 228.56 35.3284 228.56 34.5C228.56 33.6716 229.232 33 230.06 33C230.888 33 231.56 33.6716 231.56 34.5ZM263.06 135C263.892 135 264.56 134.332 264.56 133.5C264.56 132.668 263.88 132 263.06 132C262.228 132 261.56 132.668 261.56 133.5C261.56 134.332 262.228 135 263.06 135ZM264.56 1.5C264.56 2.33203 263.892 3 263.06 3C262.228 3 261.56 2.33203 261.56 1.5C261.56 0.667969 262.228 0 263.06 0C263.88 0 264.56 0.667969 264.56 1.5ZM263.06 168C263.892 168 264.56 167.332 264.56 166.5C264.56 165.668 263.88 165 263.06 165C262.228 165 261.56 165.668 261.56 166.5C261.56 167.332 262.228 168 263.06 168ZM264.56 34.5C264.56 35.332 263.892 36 263.06 36C262.228 36 261.56 35.332 261.56 34.5C261.56 33.668 262.228 33 263.06 33C263.88 33 264.56 33.668 264.56 34.5ZM295.06 135C295.892 135 296.56 134.332 296.56 133.5C296.56 132.668 295.88 132 295.06 132C294.228 132 293.56 132.668 293.56 133.5C293.56 134.332 294.228 135 295.06 135ZM296.56 1.5C296.56 2.33203 295.892 3 295.06 3C294.228 3 293.56 2.33203 293.56 1.5C293.56 0.667969 294.228 0 295.06 0C295.88 0 296.56 0.667969 296.56 1.5ZM295.06 168C295.892 168 296.56 167.332 296.56 166.5C296.56 165.668 295.88 165 295.06 165C294.228 165 293.56 165.668 293.56 166.5C293.56 167.332 294.228 168 295.06 168ZM296.56 34.5C296.56 35.332 295.892 36 295.06 36C294.228 36 293.56 35.332 293.56 34.5C293.56 33.668 294.228 33 295.06 33C295.88 33 296.56 33.668 296.56 34.5ZM328.06 135C328.892 135 329.56 134.332 329.56 133.5C329.56 132.668 328.88 132 328.06 132C327.228 132 326.56 132.668 326.56 133.5C326.56 134.332 327.228 135 328.06 135ZM329.56 1.5C329.56 2.33203 328.892 3 328.06 3C327.228 3 326.56 2.33203 326.56 1.5C326.56 0.667969 327.228 0 328.06 0C328.88 0 329.56 0.667969 329.56 1.5ZM328.06 168C328.892 168 329.56 167.332 329.56 166.5C329.56 165.668 328.88 165 328.06 165C327.228 165 326.56 165.668 326.56 166.5C326.56 167.332 327.228 168 328.06 168ZM329.56 34.5C329.56 35.332 328.892 36 328.06 36C327.228 36 326.56 35.332 326.56 34.5C326.56 33.668 327.228 33 328.06 33C328.88 33 329.56 33.668 329.56 34.5ZM360.06 135C360.892 135 361.56 134.332 361.56 133.5C361.56 132.668 360.88 132 360.06 132C359.228 132 358.56 132.668 358.56 133.5C358.56 134.332 359.228 135 360.06 135ZM361.56 1.5C361.56 2.33203 360.892 3 360.06 3C359.228 3 358.56 2.33203 358.56 1.5C358.56 0.667969 359.228 0 360.06 0C360.88 0 361.56 0.667969 361.56 1.5ZM360.06 168C360.892 168 361.56 167.332 361.56 166.5C361.56 165.668 360.88 165 360.06 165C359.228 165 358.56 165.668 358.56 166.5C358.56 167.332 359.228 168 360.06 168ZM361.56 34.5C361.56 35.332 360.892 36 360.06 36C359.228 36 358.56 35.332 358.56 34.5C358.56 33.668 359.228 33 360.06 33C360.88 33 361.56 33.668 361.56 34.5ZM393.06 135C393.888 135 394.56 134.328 394.56 133.5C394.56 132.672 393.888 132 393.06 132C392.232 132 391.56 132.672 391.56 133.5C391.56 134.328 392.232 135 393.06 135ZM394.56 1.5C394.56 2.32843 393.888 3 393.06 3C392.232 3 391.56 2.32843 391.56 1.5C391.56 0.671573 392.232 0 393.06 0C393.888 0 394.56 0.671573 394.56 1.5ZM393.06 168C393.888 168 394.56 167.328 394.56 166.5C394.56 165.672 393.888 165 393.06 165C392.232 165 391.56 165.672 391.56 166.5C391.56 167.328 392.232 168 393.06 168ZM394.56 34.5C394.56 35.3284 393.888 36 393.06 36C392.232 36 391.56 35.3284 391.56 34.5C391.56 33.6716 392.232 33 393.06 33C393.888 33 394.56 33.6716 394.56 34.5ZM426.06 135C426.892 135 427.56 134.332 427.56 133.5C427.56 132.668 426.88 132 426.06 132C425.228 132 424.56 132.668 424.56 133.5C424.56 134.332 425.228 135 426.06 135ZM427.56 1.5C427.56 2.33203 426.892 3 426.06 3C425.228 3 424.56 2.33203 424.56 1.5C424.56 0.667969 425.228 0 426.06 0C426.88 0 427.56 0.667969 427.56 1.5ZM426.06 168C426.892 168 427.56 167.332 427.56 166.5C427.56 165.668 426.88 165 426.06 165C425.228 165 424.56 165.668 424.56 166.5C424.56 167.332 425.228 168 426.06 168ZM427.56 34.5C427.56 35.332 426.892 36 426.06 36C425.228 36 424.56 35.332 424.56 34.5C424.56 33.668 425.228 33 426.06 33C426.88 33 427.56 33.668 427.56 34.5Z" fill="black"/>
</svg>
