<svg width="91" height="41" viewBox="0 0 91 41" fill="none" xmlns="http://www.w3.org/2000/svg">
<path d="M26.5345 20.7571C26.7124 20.1428 26.8713 19.3061 26.4328 18.7637C26.0261 18.2604 25.2954 18.195 24.7108 18.195H19.9576C19.7415 18.195 19.5318 18.2081 19.3221 18.2604C18.6867 18.4238 18.2355 18.9074 18.0512 19.561L16.2656 25.7637C15.9606 26.816 16.6342 27.169 17.5556 27.169C19.1506 27.1494 20.7455 27.169 22.3405 27.169C23.1666 27.169 23.7195 27.1232 24.4184 26.5807C25.0857 26.0644 25.3271 25.4761 25.5623 24.6722C25.6322 24.4238 25.7148 24.1428 25.7402 23.8487C25.772 23.3977 25.6449 23.0317 25.3208 22.7768C25.2382 22.7114 25.1365 22.6526 25.0221 22.6068C25.8355 22.2735 26.2867 21.6134 26.5345 20.7571ZM23.389 24.6199C23.2111 25.1428 22.9696 25.4369 22.4295 25.535C22.2325 25.5742 22.0419 25.5742 21.8957 25.5742C20.9171 25.5742 19.9385 25.5742 18.9536 25.5742C18.8201 25.5742 18.5024 25.6134 18.5151 25.4042C18.5215 25.3324 18.5405 25.2343 18.5787 25.1036L19.0616 23.4304H22.6455C23.0904 23.4304 23.5669 23.4827 23.5034 24.0774C23.4907 24.2604 23.4462 24.4565 23.389 24.6199ZM24.3422 20.7702C24.2596 21.0513 24.177 21.2408 24.1007 21.365C23.9546 21.6068 23.7258 21.7572 23.4589 21.8094C23.2873 21.8421 23.1094 21.8421 22.9315 21.8421H19.5255L20.0084 20.1558C20.0211 20.1166 20.0402 20.0578 20.072 19.999C20.1736 19.8094 20.288 19.7833 20.4977 19.7833C21.5208 19.7833 22.5439 19.7833 23.5733 19.7833C23.9736 19.7833 24.4566 19.7833 24.4312 20.3388C24.4184 20.5022 24.374 20.6591 24.3422 20.7702ZM15.7255 21.9728C15.7255 21.999 15.7191 22.0186 15.7128 22.0447L15.3379 23.3193C15.3124 23.3977 15.2425 23.45 15.1663 23.45H9.34557C9.24389 23.8421 9.19306 24.1689 9.23119 24.4369C9.30744 24.999 9.8158 25.2866 10.2987 25.4042C10.5783 25.4696 10.9215 25.5088 11.3663 25.5088H14.7914C14.9185 25.5088 15.0074 25.6461 14.9566 25.7637L14.5817 27.0383C14.5436 27.1624 14.4482 27.169 14.3466 27.169H10.2161C9.82215 27.169 9.33921 27.1363 8.86262 27.0252C7.72517 26.7507 6.94992 26.0775 6.93086 24.7703C6.9245 24.1493 7.07701 23.4173 7.33119 22.548C7.50276 21.9532 7.71881 21.3192 8.04289 20.7245C8.77366 19.3846 9.89205 18.6264 11.3218 18.3257C11.9064 18.2016 12.4148 18.1885 12.7452 18.1885H16.7994C16.9265 18.1885 17.0091 18.3257 16.9646 18.4499L16.5897 19.7244C16.5643 19.8094 16.488 19.8552 16.4118 19.8552H12.9549C12.5419 19.8552 12.167 19.9075 11.8429 19.999C10.9024 20.2604 10.267 20.816 9.86028 21.7768H15.5476C15.6492 21.7833 15.7255 21.8683 15.7255 21.9728ZM36.5746 22.5088C36.8288 22.0578 36.9877 21.5938 37.0893 21.2343C37.1974 20.8617 37.3054 20.4238 37.3244 19.999C37.3626 19.0186 36.8733 18.4434 35.9709 18.2669C35.6214 18.2016 35.2783 18.2016 35.0114 18.2016H30.3536C30.1756 18.2016 29.9596 18.2146 29.7372 18.2669C28.9683 18.4434 28.5679 18.8617 28.3392 19.6395L26.2168 26.901C26.1786 27.0383 26.2803 27.182 26.4138 27.182H28.2566C28.3582 27.182 28.4409 27.1036 28.4599 27.0056L29.2924 24.1559H33.7214C34.0201 24.1559 34.3315 24.1167 34.6238 24.0382C35.5071 23.8095 36.1044 23.3389 36.5746 22.5088ZM34.789 21.097C34.7445 21.2539 34.6746 21.4565 34.5793 21.6591C34.3696 22.084 34.0964 22.3127 33.6388 22.3911C33.4355 22.4238 33.2258 22.4304 33.0288 22.4304H29.8007L30.4362 20.2669C30.4679 20.1624 30.4997 20.0512 30.595 19.9859C30.7031 19.914 30.8174 19.914 30.9128 19.914C31.9168 19.914 32.9208 19.914 33.9248 19.914C34.0709 19.914 34.2679 19.914 34.4459 19.9532C35.075 20.0709 34.9288 20.6199 34.789 21.097ZM44.2318 19.3258C44.0348 18.4238 43.5646 18.195 42.7004 18.195C41.7472 18.195 41.2452 18.4761 40.6479 19.2277L34.7064 26.8226C34.6365 26.9141 34.6492 27.0513 34.7382 27.1232C34.7763 27.1559 34.8208 27.169 34.8716 27.169H36.8161C36.8923 27.169 36.9559 27.1298 36.994 27.0709L38.5445 25.0317H42.98L43.3231 26.9925C43.3422 27.1167 43.4438 27.169 43.5582 27.169H45.4773C45.6107 27.169 45.7124 27.0383 45.6806 26.901L44.2318 19.3258ZM39.6883 23.4761L42.1793 20.2081C42.2111 20.1689 42.2238 20.2277 42.2301 20.2604C42.4081 21.3323 42.586 22.4042 42.7703 23.4761H39.6883ZM56.5214 20.7833C56.4388 21.0709 56.3435 21.3585 56.1783 21.633C55.9241 22.0709 55.5301 22.3911 55.0853 22.6003C55.1171 22.6134 55.1488 22.633 55.1806 22.6526C55.4094 22.7833 55.5809 22.9728 55.6635 23.2147C55.7271 23.3781 55.7462 23.5872 55.7271 23.8421C55.708 24.084 55.6445 24.3781 55.5428 24.7441C55.4475 25.0644 55.3204 25.4565 55.0853 25.8291C54.5515 26.6853 53.7699 27.0121 52.8294 27.1232C52.4355 27.169 52.0415 27.182 51.6983 27.182H46.6401C46.5003 27.182 46.3987 27.0448 46.4432 26.901L46.8117 25.6395C46.8308 25.5415 46.9134 25.4631 47.0151 25.4631H51.5141C51.6157 25.4631 51.9271 25.4565 52.213 25.4173C52.8803 25.3324 53.109 25.0513 53.2997 24.4173C53.3378 24.2931 53.3759 24.1363 53.3823 23.9859C53.4013 23.4565 52.7341 23.5023 52.3783 23.5023H47.9428C47.911 23.5023 47.8729 23.5023 47.8411 23.4892C47.7331 23.4565 47.6696 23.3323 47.7014 23.2212L48.0699 21.9598C48.089 21.8617 48.1716 21.7833 48.2733 21.7833H52.5117C53.3314 21.7833 53.8843 21.7768 54.1639 20.816C54.1702 20.7898 54.1766 20.7637 54.1893 20.7375C54.4181 19.9728 54.2084 19.9075 53.5411 19.9075H48.8896C48.8452 19.9075 48.8007 19.9075 48.7562 19.8944C48.6482 19.8617 48.5846 19.7375 48.6164 19.6264L48.985 18.365C49.004 18.2669 49.093 18.1885 49.1883 18.1885H54.3354C55.3967 18.1885 56.7375 18.3388 56.7057 19.7767C56.7057 20.1101 56.6167 20.4499 56.5214 20.7833ZM67.9532 19.9205L65.8816 27.0056C65.8625 27.1036 65.7799 27.182 65.6782 27.182H63.8354C63.6956 27.182 63.594 27.0383 63.6321 26.901L65.5257 20.6068L65.494 20.6395C63.5685 22.5742 61.6431 24.5088 59.6987 26.4239C59.2983 26.8291 58.8408 27.2866 57.7732 27.2866C56.9535 27.2866 56.604 26.9729 56.4833 26.5873C56.3689 26.2212 56.4833 25.8095 56.5595 25.5415L58.6502 18.3846C58.6692 18.2865 58.7518 18.2081 58.8535 18.2081H60.6836C60.8298 18.2081 60.9505 18.3323 60.8997 18.4891L59.0124 24.7964C60.7789 22.8879 62.7933 20.9794 64.6361 19.1231C65.0301 18.7244 65.3605 18.4761 65.6846 18.3192C66.015 18.1623 66.3328 18.1035 66.7013 18.1035C67.5528 18.1035 67.9023 18.4499 68.0231 18.8682C68.1374 19.2539 68.0167 19.6787 67.9532 19.9205ZM78.6986 19.829L76.6016 27.0056C76.5826 27.1036 76.5 27.182 76.3983 27.182H74.5555C74.4157 27.182 74.314 27.0448 74.3585 26.901L76.3093 20.2212C76.3856 19.9467 76.2331 19.9271 75.9916 19.9271H72.916C71.9756 19.9271 71.6642 20.3388 71.4036 21.2343C71.321 21.5219 71.2702 21.7375 71.2511 21.9009C71.2003 22.3323 71.4354 22.4892 71.8739 22.4892H73.8056C73.9073 22.4892 74.1424 22.4957 74.3458 22.5742C74.924 22.8029 74.7143 23.4957 74.4284 23.8748C74.3204 24.0186 74.1552 24.182 73.9073 24.352L69.8341 27.1363C69.796 27.169 69.7515 27.182 69.7006 27.182H67.3241C67.1144 27.182 67.0317 26.8945 67.216 26.7833L71.213 24.2082H70.6157C69.3702 24.2082 68.7157 23.4304 68.8682 22.1558C68.9063 21.8225 69.0016 21.4696 69.097 21.1232C69.6562 19.1624 70.6093 18.2081 72.6364 18.2081H77.4341C78.4444 18.2081 79.0227 18.7571 78.6986 19.829Z" fill="white"/>
<path d="M24.6791 8.49549C19.2714 11.4302 16.6088 15.3518 5.71087 15.8616C5.71087 15.8616 2.95937 16.1622 2.95937 14.7831C2.91488 14.1426 3.32793 13.2406 3.63294 12.7897C13.3109 12.2733 14.8232 10.8158 22.6901 6.91378C26.7888 4.88108 32.152 3.26669 41.5566 3.59349C51.2727 3.92683 54.4436 5.86802 58.3834 7.97915C61.9228 9.87459 62.2342 11.2798 69.0907 12.3648C74.7526 13.2602 84.0174 14.9073 87.2455 18.8093C72.4776 11.8092 52.1115 11.7766 36.1871 13.6785C35.3038 13.587 35.4436 11.9269 35.8884 11.7112C43.1707 11.1753 52.9693 11.0968 59.4191 11.4955C60.7536 11.574 60.5566 11.0641 60.0101 10.5282C59.0315 9.57393 57.0934 8.61314 55.8733 8.00529C50.5101 5.33207 45.9285 4.71115 39.1737 4.92683C31.6817 5.16867 30.0931 5.56736 24.6791 8.49549ZM62.2024 31.9728C62.1007 32.3323 61.9419 32.7964 61.6877 33.2408C61.4335 33.6983 61.0777 34.1297 60.582 34.4238L60.5693 34.4304C60.3342 34.5676 60.0546 34.6787 59.7559 34.7572C59.4636 34.8291 59.1522 34.8748 58.8536 34.8748H54.4372L53.6048 37.718C53.5857 37.816 53.5031 37.8945 53.4014 37.8945H51.5586C51.5396 37.8945 51.5205 37.8945 51.4951 37.8879C51.387 37.8552 51.3235 37.7311 51.3553 37.6199L53.4713 30.3715C53.5222 30.2016 53.573 30.0251 53.6747 29.8421C53.7763 29.6525 53.9288 29.4695 54.1703 29.3061C54.3991 29.1493 54.6405 29.0578 54.8693 29.0055C55.0917 28.9532 55.3078 28.9401 55.4857 28.9401H60.1308C60.3977 28.9401 60.7409 28.9401 61.0904 29.0055C61.4526 29.0774 61.8021 29.2212 62.0626 29.5088L62.069 29.5153C62.3676 29.8421 62.4502 30.28 62.4375 30.731C62.4185 31.1624 62.3104 31.6003 62.2024 31.9728ZM60.0228 31.2604C60.0355 31.1035 60.0165 30.9532 59.9402 30.8617C59.8576 30.7702 59.7114 30.7179 59.5589 30.6852C59.381 30.6526 59.1904 30.646 59.0442 30.646H56.0767H56.0449C55.9496 30.646 55.8352 30.646 55.7272 30.7179C55.6319 30.7833 55.6001 30.8944 55.5683 31.0055L54.9392 33.1624H58.1546C58.3516 33.1624 58.5613 33.1624 58.7646 33.1297C58.9553 33.097 59.1459 33.0251 59.3238 32.8944C59.4827 32.7702 59.6034 32.5872 59.6987 32.3977C59.8004 32.1951 59.864 31.9924 59.9084 31.8356C59.9593 31.6591 60.0101 31.4565 60.0228 31.2604ZM72.1917 28.9401H68.1566C67.8007 28.9401 67.2225 28.9597 66.5743 29.1101C65.0874 29.4434 63.9626 30.2539 63.2064 31.646C62.8887 32.2277 62.6663 32.8617 62.4757 33.4826C62.3295 33.9663 62.1706 34.5415 62.1325 35.1166C62.0435 36.4827 62.6726 37.3781 63.9372 37.7311C64.4646 37.8748 65.0238 37.9075 65.5068 37.9075H69.7706C69.8723 37.9075 69.9613 37.8291 69.9803 37.7311L70.368 36.4696C70.3997 36.352 70.3425 36.2343 70.2345 36.2016C70.2027 36.1951 70.1837 36.1886 70.1519 36.1886H66.7141C66.1486 36.1886 65.6656 36.1559 65.2971 36.0448C64.7251 35.8683 64.4964 35.5415 64.5154 34.9402C64.5218 34.633 64.5917 34.2016 64.7823 33.5872C64.973 32.9728 65.17 32.5088 65.3733 32.1558C65.7927 31.4303 66.3392 30.9663 67.1526 30.7767C67.6037 30.6722 68.093 30.6591 68.6268 30.6591H71.8358C71.9375 30.6591 72.0201 30.5872 72.0455 30.4826L72.4332 29.2277C72.4776 29.0447 72.3378 28.9401 72.1917 28.9401ZM41.9442 30.4761L42.3128 29.2212C42.3446 29.1035 42.2874 28.9859 42.173 28.9532C42.1539 28.9467 42.1349 28.9401 42.1158 28.9401H32.6476C32.5459 28.9401 32.4633 29.0186 32.4443 29.1166L32.0757 30.378C32.0439 30.4957 32.1075 30.6133 32.2155 30.646C32.2346 30.6526 32.2536 30.6591 32.279 30.6591H35.8058L33.7724 37.6265C33.7406 37.7376 33.8041 37.8618 33.9122 37.8945C33.9312 37.901 33.9503 37.901 33.9757 37.901H35.7994C35.9011 37.901 35.9837 37.8226 36.0028 37.7245L38.068 30.6526H41.7346C41.8362 30.6526 41.9252 30.5807 41.9442 30.4761ZM31.4275 31.7245C31.3894 32.2996 31.2306 32.8813 31.0844 33.3585C30.8938 33.9794 30.6714 34.6134 30.3536 35.1951C29.6038 36.5873 28.4727 37.3912 26.9857 37.7311C26.3312 37.8814 25.7593 37.901 25.3971 37.901H24.8951H23.7449H23.7259C23.2493 37.901 22.6837 37.8748 22.1563 37.7245C20.8918 37.3781 20.2627 36.4827 20.3516 35.1101C20.3898 34.5284 20.5486 33.9532 20.6948 33.4761C20.8854 32.8552 21.1078 32.2212 21.4256 31.6395C22.1754 30.2473 23.3065 29.4434 24.7934 29.1035C25.448 28.9532 26.0199 28.9336 26.3821 28.9336H26.4138H27.367H28.0533C28.5299 28.9336 29.0954 28.9597 29.6229 29.1101C30.8874 29.463 31.5229 30.3584 31.4275 31.7245ZM29.051 31.9075C29.07 31.2996 28.8413 30.9794 28.2694 30.8029C27.9008 30.6918 27.4242 30.6591 26.8714 30.6591H26.5219C25.9881 30.6591 25.8356 30.6722 25.3844 30.7767C24.571 30.9597 24.0182 31.4303 23.6052 32.1558C23.4018 32.5088 23.1985 32.9728 23.0142 33.5872C22.8235 34.2016 22.7536 34.633 22.7473 34.9402C22.7282 35.548 22.957 35.8683 23.5289 36.0448C23.8911 36.1559 24.3677 36.1886 24.9142 36.1886H24.9332C25.467 36.1886 25.9627 36.1755 26.4075 36.0709C27.2209 35.8879 27.7674 35.4173 28.1867 34.6918C28.3901 34.3389 28.5934 33.8748 28.7777 33.2604C28.9747 32.6395 29.0446 32.2081 29.051 31.9075ZM19.3985 28.8486C18.5279 28.8486 17.9941 29.2408 17.3841 29.8617C16.3991 30.8813 15.357 31.9075 14.3339 32.9467C13.9145 31.9075 13.4697 30.8748 13.0694 29.8617C12.7771 29.1231 12.4022 28.8486 11.6396 28.8486C10.4704 28.8486 9.70785 29.5218 9.37742 30.6656L7.31856 37.7311C7.28043 37.8291 7.31856 37.9075 7.42023 37.9075H9.22491C9.36471 37.9075 9.54263 37.7637 9.58076 37.6265L11.3791 31.3519L12.7834 34.9271C13.0694 35.6787 14.0925 35.8814 14.8232 35.1166L18.1975 31.6983L16.4563 37.633C16.4182 37.7768 16.5135 37.9141 16.6533 37.9141H18.3945C18.4961 37.9141 18.5787 37.8422 18.5978 37.7376L20.6185 30.6722C20.9299 29.5545 20.5995 28.8486 19.3985 28.8486ZM51.6793 33.3585C51.4887 33.9794 51.2663 34.6134 50.9486 35.1951C50.1987 36.5873 49.0676 37.3912 47.5807 37.7311C46.9262 37.8814 46.3543 37.901 45.9921 37.901H45.4901H44.3399H44.3208C43.8442 37.901 43.2787 37.8748 42.7513 37.7245C41.4867 37.3781 40.8576 36.4827 40.9466 35.1101C40.9847 34.5284 41.1436 33.9532 41.2897 33.4761C41.4804 32.8552 41.7028 32.2212 42.0205 31.6395C42.7703 30.2473 43.9014 29.4434 45.3884 29.1035C46.0429 28.9532 46.6148 28.9336 46.977 28.9336H47.0088H47.962H48.6483C49.1248 28.9336 49.6904 28.9597 50.2178 29.1101C51.4824 29.4565 52.1115 30.3519 52.0225 31.7245C51.9844 32.2996 51.8255 32.8813 51.6793 33.3585ZM49.6459 31.9075C49.665 31.2996 49.4362 30.9794 48.8643 30.8029C48.5021 30.6918 48.0192 30.6591 47.4663 30.6591H47.1105C46.5767 30.6591 46.4242 30.6722 45.973 30.7767C45.1596 30.9597 44.6131 31.4303 44.1937 32.1558C43.9904 32.5088 43.7871 32.9728 43.6028 33.5872C43.4121 34.2016 43.3422 34.633 43.3359 34.9402C43.3168 35.548 43.5456 35.8683 44.1175 36.0448C44.4797 36.1559 44.9563 36.1886 45.5028 36.1886H45.5218C46.0556 36.1886 46.5513 36.1755 46.9961 36.0709C47.8095 35.8879 48.3559 35.4173 48.7753 34.6918C48.9787 34.3389 49.182 33.8748 49.3663 33.2604C49.5633 32.6395 49.6332 32.2081 49.6459 31.9075Z" fill="white"/>
</svg>
