<svg width="124" height="60" viewBox="0 0 124 60" fill="none" xmlns="http://www.w3.org/2000/svg">
<path fill-rule="evenodd" clip-rule="evenodd" d="M89.0682 29.0393L86.6024 37.19C86.6024 37.3269 86.4654 37.3954 86.3285 37.3954H84.1367C83.9997 37.3954 83.8627 37.2585 83.9312 37.053L86.1915 29.7927L86.123 29.8612C84.9928 30.9571 83.8456 32.0701 82.6983 33.1831C81.5511 34.2961 80.4038 35.4091 79.2737 36.505C78.7942 36.9845 78.2463 37.4639 77.0134 37.4639C76.0545 37.4639 75.6435 37.1215 75.5066 36.642C75.3875 36.2849 75.4754 35.876 75.5454 35.5502C75.5501 35.5281 75.5548 35.5064 75.5593 35.4851C75.5648 35.4591 75.5701 35.4338 75.5751 35.4091L78.0408 27.19C78.0408 27.053 78.1778 26.9845 78.3148 26.9845H80.5065C80.712 26.9845 80.849 27.1215 80.7805 27.327L78.5203 34.5872C80.1287 32.9269 81.8551 31.2665 83.5506 29.6359L83.5507 29.6358L83.5525 29.6341C84.0945 29.1128 84.6333 28.5946 85.1641 28.0804C85.6435 27.6009 85.986 27.327 86.3969 27.19C86.8079 26.9845 87.1504 26.916 87.6298 26.916C88.6572 26.916 89.0682 27.327 89.2051 27.8064C89.2686 28.2508 89.1556 28.6951 89.0842 28.9759L89.0682 29.0393ZM31.5347 27.1214C31.8087 27.0529 32.0142 27.0529 32.2881 27.0529H37.9046C38.5895 27.0529 39.4799 27.1214 39.9593 27.7378C40.5073 28.3543 40.3018 29.3132 40.0963 29.9981C39.8224 30.957 39.2744 31.7789 38.3155 32.1214C38.4525 32.1899 38.5895 32.2584 38.658 32.3269C39.0689 32.6008 39.2059 33.0118 39.1374 33.5597C39.1374 33.813 39.0625 34.0663 38.9958 34.2919L38.9958 34.2919C38.9723 34.3713 38.9498 34.4473 38.9319 34.5186C38.658 35.409 38.384 36.094 37.5621 36.7104C36.7402 37.3268 36.0552 37.3953 35.0963 37.3953H29.4114C28.3155 37.3953 27.5621 36.9844 27.9046 35.7515L30.0279 28.6282C30.3018 27.8748 30.8498 27.3269 31.5347 27.1214ZM32.3566 29.3132L31.8087 31.231H35.8498C36.0552 31.231 36.2607 31.231 36.4662 31.1625C36.8087 31.094 37.0826 30.957 37.2196 30.683C37.232 30.6583 37.2466 30.6314 37.2626 30.6018C37.3353 30.4674 37.4375 30.2788 37.4936 29.9981C37.5621 29.8611 37.5621 29.7241 37.5621 29.5186C37.5621 28.9022 37.0141 28.9022 36.5347 28.9022H32.9046C32.6306 28.9022 32.4936 28.9022 32.4251 29.1762C32.4251 29.2447 32.4251 29.3132 32.3566 29.3132ZM35.5073 33.0803H31.2607L30.7128 34.9981C30.6443 35.1351 30.6443 35.2721 30.6443 35.3405C30.6443 35.546 30.9868 35.546 31.1922 35.546H34.6854C34.8224 35.546 35.0963 35.546 35.3018 35.4775C35.9183 35.3405 36.1922 34.9981 36.4662 34.4501C36.5347 34.2447 36.6032 34.0392 36.6032 33.8337C36.6032 33.1488 36.0552 33.0803 35.5073 33.0803ZM25.7123 37.3953H20.8493C20.3698 37.3953 19.8219 37.3268 19.2739 37.2583C17.9041 36.9158 17.0137 36.1624 17.0137 34.6556C17.0137 33.9706 17.2192 33.0802 17.4931 32.1213C17.6986 31.4364 17.9726 30.683 18.315 29.998C19.2054 28.4912 20.5068 27.6008 22.2191 27.2583C22.9041 27.1213 23.5205 27.1213 23.9314 27.1213H23.9315H28.726C28.8629 27.1213 28.9999 27.2583 28.9314 27.3953L28.5205 28.8337C28.5205 28.9022 28.3835 28.9707 28.315 28.9707H24.2054C23.726 28.9707 23.2465 29.0391 22.9041 29.1076C21.8082 29.3816 21.0548 30.0665 20.5753 31.1624H27.2876C27.4246 31.1624 27.4931 31.2309 27.4931 31.3679V31.4364L27.0821 32.8748C27.0821 32.9432 26.9452 33.0117 26.8767 33.0117H19.7534C19.6164 33.4912 19.5479 33.8337 19.6164 34.1761C19.6849 34.7926 20.3013 35.135 20.8493 35.272C21.1917 35.3405 21.6027 35.409 22.0822 35.409H26.1232C26.2602 35.409 26.3972 35.546 26.3287 35.683L25.9178 37.1213C25.9178 37.3953 25.7808 37.3953 25.7123 37.3953ZM42.0822 37.3953C42.2192 37.3953 42.3562 37.3268 42.3562 37.1899L43.3836 33.9022H48.589C49 33.9022 49.3425 33.8337 49.6849 33.7652C50.7123 33.4912 51.3972 32.9433 51.9452 31.9844C52.2192 31.5049 52.4246 30.957 52.5616 30.546C52.6986 30.1351 52.8356 29.5871 52.8356 29.1077C52.9041 28.0118 52.3562 27.3269 51.2603 27.1214C50.8493 27.0529 50.4383 27.0529 50.0959 27.0529H44.6165C44.411 27.0529 44.137 27.0529 43.863 27.1214C42.9726 27.3269 42.4932 27.8063 42.2192 28.6967L39.685 37.0529C39.6165 37.2584 39.7535 37.3953 39.8904 37.3953H42.0822ZM47.7671 31.9159H43.9315L44.7534 29.4502C44.7739 29.4093 44.7882 29.3684 44.8019 29.3293C44.8341 29.2375 44.8628 29.1557 44.9589 29.1077C45.0274 29.0392 45.1644 29.0392 45.3014 29.0392H48.863C49.0685 29.0392 49.274 29.0392 49.4795 29.1077C50.1896 29.2368 50.0478 29.7918 49.9145 30.314C49.9064 30.3459 49.8983 30.3776 49.8904 30.4091C49.8664 30.4571 49.8424 30.522 49.8154 30.5949C49.7654 30.7298 49.7054 30.8921 49.6164 31.0255C49.411 31.5049 49.0685 31.7789 48.5205 31.8474C48.2466 31.9159 47.9726 31.9159 47.7671 31.9159ZM52.2878 37.3953H49.959C49.8905 37.3953 49.822 37.3953 49.822 37.3268C49.685 37.2583 49.685 37.0528 49.7535 36.9843L56.8083 28.2857C57.4932 27.3953 58.1097 27.1213 59.2056 27.1213C60.233 27.1213 60.7809 27.3953 60.9864 28.4227L62.6987 37.1213C62.7672 37.2583 62.6302 37.3953 62.4247 37.3953H60.1645C60.0275 37.3953 59.8905 37.3268 59.8905 37.1898L59.4795 34.9295H54.2056L52.3563 37.2583C52.4248 37.3268 52.3563 37.3953 52.2878 37.3953ZM55.6439 33.1487H59.2741L58.6576 29.4501C58.6576 29.3816 58.6576 29.3131 58.5891 29.3816L55.6439 33.1487ZM63.8632 37.3953H69.822C70.233 37.3953 70.7125 37.3953 71.2604 37.3268C72.3563 37.1899 73.3152 36.7789 73.9316 35.82C74.1409 35.5061 74.2703 35.1521 74.3807 34.8499L74.3808 34.8496C74.415 34.7563 74.4473 34.6679 74.4796 34.5871C74.6166 34.1762 74.685 33.8337 74.685 33.5597C74.685 33.2173 74.685 33.0118 74.6166 32.8063C74.5481 32.5323 74.3426 32.3269 74.0686 32.1899C74.0344 32.1899 74.0172 32.1727 74.0001 32.1556C73.983 32.1385 73.9659 32.1214 73.9316 32.1214C74.4796 31.9159 74.959 31.5049 75.233 31.0255C75.4385 30.7515 75.5755 30.4091 75.6439 30.0666C75.6684 29.9202 75.7014 29.7824 75.7339 29.6472L75.734 29.6472C75.7927 29.4029 75.8494 29.1667 75.8494 28.9022C75.8494 27.2584 74.2741 27.0529 73.0412 27.0529H66.9453C66.8084 27.0529 66.6714 27.1214 66.6714 27.2584L66.2604 28.6967C66.1919 28.8337 66.2604 28.9707 66.3974 29.0392H66.5344H72.0138C72.7672 29.0392 73.0412 29.1077 72.7672 29.9981V30.0666C72.4933 31.1625 71.8083 31.1625 70.8494 31.1625H65.8495C65.7125 31.1625 65.5755 31.231 65.5755 31.368L65.1645 32.8063C65.096 32.9433 65.1645 33.0803 65.3015 33.1488H65.4385H70.7125C70.748 33.1488 70.7861 33.1483 70.8261 33.1477C71.2481 33.1421 71.8768 33.1336 71.8768 33.6967C71.8768 33.8337 71.8768 34.0392 71.8083 34.1762C71.5344 34.9296 71.2604 35.2721 70.507 35.3405C70.1645 35.409 69.8221 35.409 69.6851 35.409H64.3426C64.2056 35.409 64.0686 35.4775 64.0686 35.6145L63.6577 37.0529C63.5892 37.2584 63.7262 37.3953 63.8632 37.3953ZM99.3423 37.1902L101.808 28.9711C102.15 27.7382 101.466 27.0533 100.37 27.1218H94.6848C92.2875 27.1218 91.1916 28.2176 90.5067 30.4779C90.3697 30.8204 90.3012 31.2313 90.2327 31.6423C90.0272 33.0806 90.8491 33.971 92.2875 33.971H92.9724L88.2464 36.9162C88.0409 37.0532 88.1094 37.3957 88.3834 37.3957H91.1916C91.2601 37.3957 91.2601 37.3957 91.3286 37.3272L96.1231 34.108C96.3971 33.9026 96.6026 33.6971 96.7395 33.5601C97.082 33.0806 97.356 32.3272 96.6711 32.0532C96.4656 31.9848 96.1916 31.9848 96.0546 31.9848H93.7943C93.2464 31.9848 92.9724 31.7793 93.0409 31.2998C93.1094 31.0943 93.1779 30.8889 93.2464 30.5464C93.5204 29.519 93.9313 29.0396 95.0272 29.0396H98.6573C98.9313 29.0396 99.0683 29.0396 98.9998 29.382L96.6711 37.0532C96.6026 37.2587 96.7396 37.3957 96.8765 37.3957H99.0683C99.2053 37.3957 99.3423 37.3272 99.3423 37.1902Z" fill="black"/>
<path fill-rule="evenodd" clip-rule="evenodd" d="M12.1511 23.1511C12.0826 22.3976 12.5621 21.3702 12.973 20.8908C22.9246 20.3545 25.5661 19.0405 32.2191 15.7309C33.213 15.2365 34.2965 14.6976 35.5072 14.11C40.3702 11.7812 46.6715 9.93192 57.8359 10.2744C68.9031 10.6696 72.7473 12.7123 77.1687 15.0615L77.172 15.0633C77.3466 15.156 77.522 15.2493 77.6988 15.3429C78.7781 15.909 79.6014 16.434 80.3694 16.9238C82.5748 18.3302 84.3247 19.4461 90.37 20.4113C97.0824 21.4387 108.041 23.3565 111.808 27.8086C94.3426 19.7949 70.3016 19.7264 51.4661 21.9182C50.4387 21.8497 50.5756 19.9319 51.1236 19.6579C59.7537 19.0415 71.329 18.973 78.9317 19.3839C80.507 19.4524 80.3016 18.9045 79.6166 18.2881C78.4523 17.1922 76.192 16.0963 74.7536 15.4114C68.3838 12.3292 62.9729 11.6442 55.0277 11.8497C46.1921 12.1237 44.2743 12.6031 37.9045 15.9593C36.3182 16.7775 34.9314 17.6608 33.5545 18.5378C29.2834 21.2582 25.1078 23.9178 15.3703 24.3839C15.3703 24.3839 12.1511 24.7264 12.1511 23.1511ZM73.1101 46.2321L72.1512 49.5198C72.1512 49.6567 72.0142 49.7252 71.8772 49.7252H69.6854H69.6169C69.4799 49.6567 69.4114 49.5198 69.4799 49.3828L72.0142 41.0266L72.2197 40.4102C72.3566 40.2047 72.4936 39.9992 72.8361 39.7938C73.1101 39.5883 73.384 39.5198 73.658 39.4513C73.932 39.3828 74.206 39.3828 74.4114 39.3828H79.8909C80.2333 39.3828 80.6443 39.3828 81.0552 39.4513C81.4662 39.5198 81.8772 39.7253 82.2196 39.9992C82.5621 40.4102 82.6991 40.8896 82.6306 41.3691C82.6306 41.8485 82.4936 42.328 82.3566 42.8074L82.3566 42.8074C82.2196 43.2184 82.0141 43.7664 81.7402 44.2458C81.4662 44.7938 80.9867 45.2732 80.4388 45.6157C80.1648 45.7527 79.8224 45.8896 79.4799 45.9581C79.1374 46.0266 78.795 46.0951 78.384 46.0951H73.1101V46.2321ZM74.4114 41.7801L73.658 44.2458H77.4936C77.6991 44.2458 77.9731 44.2458 78.1785 44.1773C78.218 44.1642 78.26 44.151 78.3036 44.1373L78.3039 44.1373C78.487 44.0799 78.6976 44.0139 78.8635 43.9033C79.0689 43.7664 79.2059 43.5609 79.2744 43.3554C79.3634 43.222 79.4234 43.0597 79.4734 42.9248C79.5003 42.8519 79.5244 42.787 79.5484 42.739C79.6169 42.5335 79.6854 42.328 79.6854 42.054C79.6854 41.8486 79.6854 41.7116 79.6169 41.5746C79.5681 41.477 79.4498 41.4489 79.3116 41.4161C79.2557 41.4029 79.1966 41.3888 79.1374 41.3691C78.932 41.3006 78.7265 41.3006 78.521 41.3006H75.0279H74.9594C74.8224 41.3006 74.6854 41.3006 74.6169 41.3691C74.5256 41.5061 74.4951 41.5822 74.4647 41.6583C74.4495 41.6963 74.4343 41.7344 74.4114 41.7801ZM91.3973 49.5198L91.8767 48.0814C91.9452 47.9444 91.8767 47.8074 91.7397 47.7389H91.6712H87.6302C87.0137 47.7389 86.3973 47.7389 85.9863 47.602C85.3014 47.3965 85.0274 46.9855 85.0274 46.3006C85.0439 46.218 85.0604 46.1236 85.0789 46.0181L85.0789 46.018C85.1369 45.6859 85.214 45.245 85.3699 44.7253C85.5754 44.0403 85.7809 43.4924 86.0548 43.0814C86.5343 42.2595 87.2192 41.7116 88.1781 41.5061C88.6575 41.3691 89.274 41.3691 89.8904 41.3691H93.6575C93.7945 41.3691 93.9315 41.3006 93.9315 41.1636L94.411 39.7253C94.4795 39.5198 94.3425 39.3828 94.137 39.3828H89.3425C88.9315 39.3828 88.2466 39.4513 87.4932 39.5883C85.7124 39.9992 84.411 40.9581 83.5206 42.5335C83.1096 43.2184 82.8357 43.9718 82.6302 44.6568C82.4247 45.2047 82.2877 45.8211 82.2192 46.5061C82.0822 48.0814 82.8357 49.1088 84.3425 49.5198C84.9589 49.7252 85.6439 49.7252 86.1918 49.7252H91.1233C91.2603 49.7252 91.3973 49.6567 91.3973 49.5198ZM53.7263 41.3691L51.2605 49.5198C51.2605 49.6567 51.1235 49.7252 50.9866 49.7252H48.7948H48.7263C48.5893 49.6567 48.5208 49.5198 48.5893 49.3828L50.9866 41.3691H46.8085H46.74C46.603 41.3006 46.5345 41.1636 46.603 41.0266L47.014 39.5883C47.014 39.4513 47.1509 39.3828 47.2879 39.3828H58.4523H58.5208C58.6578 39.4513 58.7263 39.5883 58.6578 39.7253L58.2468 41.1636C58.2468 41.3006 58.1098 41.3691 57.9728 41.3691H53.7263ZM36.4658 47.602C36.9097 47.7288 37.4711 47.7382 38.0411 47.7389H38.3151C38.9315 47.7389 39.548 47.7389 40.0274 47.6019C40.9863 47.3964 41.6712 46.8485 42.1507 46.0266C42.4247 45.6156 42.6301 45.0677 42.8356 44.3827C42.9916 43.8629 43.0686 43.422 43.1266 43.0899L43.1266 43.0899C43.1451 42.9844 43.1616 42.8899 43.1781 42.8074C43.1781 42.1225 42.9041 41.7115 42.2192 41.506C41.8097 41.3695 41.1962 41.369 40.5819 41.369L40.5753 41.3691H40.0274C39.411 41.3691 39.2055 41.3691 38.6575 41.5061C37.6986 41.7116 37.0137 42.2595 36.5343 43.0814C36.2603 43.4924 36.0548 44.0403 35.8493 44.7253C35.6934 45.2451 35.6163 45.686 35.5583 46.0181L35.5583 46.0181L35.5583 46.0182L35.5583 46.0184C35.5398 46.1237 35.5234 46.2181 35.5069 46.3006C35.5069 46.9855 35.7808 47.3965 36.4658 47.602ZM41.0548 39.3828C41.1418 39.3828 41.2165 39.4074 41.2685 39.4512H41.9452C42.4932 39.4512 43.1781 39.4512 43.7945 39.6567C45.3014 40.0677 46.0548 41.0951 45.9178 42.6704C45.8493 43.3553 45.7123 43.9718 45.5068 44.5197C45.3014 45.2047 45.0274 45.9581 44.6164 46.643C43.726 48.2183 42.3562 49.1087 40.6438 49.5197C39.8904 49.6567 39.2055 49.7252 38.7945 49.7252H38.1164L38.1096 49.7252H36.7397C36.1918 49.7252 35.5069 49.7252 34.8904 49.5198C33.4521 49.1088 32.6987 48.0814 32.7671 46.5061C32.8356 45.8211 32.9726 45.2047 33.1781 44.6568C33.3836 43.9718 33.6576 43.2184 34.0685 42.5335C34.9589 40.9581 36.2603 39.9992 38.0411 39.5883C38.7945 39.4513 39.4795 39.3828 39.8904 39.3828H41.0548ZM17.3566 49.5198L19.8224 41.3691C20.2333 40.0678 21.1237 39.3143 22.2881 39.3828C23.247 39.3828 23.658 39.7253 24.0005 40.5472C24.2401 41.1292 24.4969 41.7284 24.7537 42.3275L24.7539 42.3281C25.0107 42.9274 25.2676 43.5267 25.5073 44.1088C26.1325 43.4836 26.7577 42.876 27.374 42.2771L27.3742 42.2769C27.9731 41.6949 28.5636 41.1211 29.1374 40.5472C29.8908 39.8623 30.5073 39.3828 31.5347 39.3828C32.973 39.3828 33.3155 40.1362 32.973 41.4376L30.5758 49.5883C30.5758 49.7253 30.5073 49.7938 30.3703 49.7938H28.3155C28.1785 49.7938 28.0415 49.5883 28.11 49.4513L30.1648 42.602L26.1922 46.5061C25.3703 47.3965 24.1374 47.191 23.795 46.3006L22.1511 42.191L20.0279 49.3828C19.9594 49.5883 19.7539 49.7253 19.6169 49.7253H17.4936C17.3566 49.7253 17.2881 49.6568 17.3566 49.5198ZM63.1062 47.805C63.0701 47.7792 63.026 47.7567 62.9726 47.7389H62.9041H62.4931C61.8767 47.7389 61.2603 47.7389 60.8493 47.602C60.1644 47.3965 59.8904 46.9855 59.8904 46.3006C59.9069 46.218 59.9234 46.1236 59.9419 46.0181L59.9419 46.018C59.9999 45.6859 60.0769 45.245 60.2329 44.7253C60.4384 44.0403 60.6438 43.4924 60.9178 43.0814C61.3973 42.2595 62.0822 41.7116 63.0411 41.5061C63.3363 41.4323 63.5321 41.3982 63.7463 41.3825C63.7791 41.4038 63.818 41.4223 63.8636 41.4375H63.9321H64.891C65.5074 41.4375 66.1239 41.4375 66.5348 41.5745C67.2198 41.78 67.4937 42.191 67.4937 42.8759C67.4772 42.9584 67.4607 43.0529 67.4423 43.1584C67.3843 43.4905 67.3072 43.9314 67.1513 44.4512C66.9458 45.1362 66.7403 45.6841 66.4663 46.0951C65.9869 46.917 65.302 47.4649 64.3431 47.6704C63.9875 47.772 63.5566 47.7982 63.1062 47.805ZM65.6521 39.4512C65.6 39.4074 65.5253 39.3828 65.4383 39.3828H64.274C63.863 39.3828 63.1781 39.4513 62.4247 39.5883C60.6438 39.9992 59.3425 40.9581 58.4521 42.5335C58.0411 43.2184 57.7671 43.9718 57.5617 44.6568C57.3562 45.2047 57.2192 45.8211 57.1507 46.5061C57.0137 48.0814 57.7671 49.1088 59.274 49.5198C59.8372 49.7075 60.4576 49.7237 60.9785 49.7251C61.0306 49.7691 61.1053 49.7937 61.1924 49.7937H63.1102C63.5211 49.7937 64.2061 49.7252 64.9595 49.5882C66.7403 49.1772 68.0417 48.2183 68.9321 46.643C69.343 45.9581 69.617 45.2047 69.8225 44.5197C70.028 43.9718 70.165 43.3553 70.2334 42.6704C70.3704 41.0951 69.617 40.0677 68.1102 39.6567C67.4937 39.4512 66.8088 39.4512 66.2609 39.4512H65.6521Z" fill="white"/>
</svg>
