<svg width="200" height="87" viewBox="0 0 200 87" fill="none" xmlns="http://www.w3.org/2000/svg">
<path d="M13.0136 38.7993C12.9005 38.7993 12.8016 38.8134 12.6885 38.8134C7.11929 39.3647 0.150696 37.3292 0.00934528 30.6009C-0.11787 27.887 1.06948 24.7773 2.6102 22.5863L4.32054 20.141L7.30304 19.9855C14.6109 19.6038 22.0318 18.996 28.958 16.48C35.135 14.2466 41.4251 10.7412 47.3618 7.87173C61.5959 1.01622 76.5084 -0.425556 92.17 0.0974421C106.022 0.563899 116.482 2.14703 128.808 8.49368C132.497 10.3878 135.72 12.3101 139.254 14.4869C143.947 17.3705 148.724 18.3034 154.138 19.1374C167.199 21.1446 188.797 25.1024 198.24 35.1524C203.272 41.0185 196.459 47.9729 191.045 44.6512C187.907 43.0822 184.5 41.697 180.868 40.5944C180.825 41.4001 180.684 42.22 180.429 43.0681L175.793 58.4612C175.016 61.3023 172.443 63.3095 169.461 63.3095H166.718L161.036 81.7275C160.245 84.5262 157.672 86.5051 154.718 86.5051C107.761 86.5051 61.7655 86.5051 16.0527 86.5051C11.6566 86.5051 8.68828 82.2222 10.017 78.1513L14.5543 62.9985C14.6816 62.5886 14.8088 62.207 14.9643 61.8253C8.06634 58.4753 8.06634 51.8177 9.98871 45.4569C10.7096 43.0681 11.586 40.8347 13.0136 38.7993Z" fill="white"/>
<path d="M42.4994 37.6825C42.9659 37.5694 43.4323 37.5411 43.9129 37.5411H54.486C55.7864 37.5411 57.4119 37.6825 58.3166 38.7709C59.2919 39.9441 58.9385 41.7534 58.5427 43.0821C57.9914 44.9338 56.9879 46.3756 55.1644 47.0964C55.4189 47.1954 55.645 47.3226 55.8288 47.464C56.5497 48.0152 56.8324 48.7927 56.7617 49.7821C56.7193 50.4041 56.5355 51.0119 56.3659 51.5631C55.8571 53.3017 55.3058 54.5739 53.8216 55.6906C52.2667 56.8638 51.0229 56.9627 49.1994 56.9627C45.6515 56.9627 42.1036 56.9345 38.5557 56.9627C36.5061 56.9627 35.0078 56.1994 35.6863 53.9237L39.6583 40.5095C40.0823 39.0819 41.0859 38.0217 42.4994 37.6825ZM44.026 41.7817L42.9517 45.4285H50.5281C50.9239 45.4285 51.3338 45.4285 51.7013 45.3578C52.295 45.2448 52.8039 44.9196 53.129 44.3966C53.2986 44.1281 53.4965 43.7182 53.6661 43.1104C53.7368 42.8701 53.8357 42.5308 53.8499 42.2057C53.9064 41.0042 52.8321 41.0042 51.9416 41.0042C49.6659 41.0042 47.376 41.0042 45.1003 41.0042C44.6338 41.0042 44.3794 41.0608 44.1532 41.4707C44.0967 41.5696 44.0543 41.6827 44.026 41.7817ZM49.9062 48.8775H41.934L40.8597 52.496C40.7749 52.7787 40.7325 52.9908 40.7184 53.1463C40.6901 53.5986 41.3969 53.5138 41.6937 53.5138C43.8705 53.5138 46.0473 53.5138 48.2383 53.5138C48.5492 53.5138 48.9874 53.5138 49.4256 53.429C50.6271 53.2028 51.1642 52.5809 51.56 51.4501C51.6872 51.0967 51.8003 50.6585 51.8286 50.291C51.9558 48.9905 50.8956 48.8775 49.9062 48.8775Z" fill="#141515"/>
<path d="M31.4315 56.9483H22.2437C21.3674 56.9483 20.2931 56.8776 19.233 56.6374C16.7028 56.0437 14.9783 54.5878 14.9359 51.7608C14.9218 50.4179 15.261 48.8348 15.8264 46.9548C16.2081 45.6685 16.6887 44.2974 17.4095 43.0111C19.0351 40.1135 21.5229 38.4738 24.7032 37.8236C26.0037 37.555 27.1345 37.5267 27.8695 37.5267H36.8877C37.1704 37.5267 37.3541 37.8236 37.2552 38.0921L36.4212 40.8485C36.3647 41.0322 36.1951 41.1312 36.0254 41.1312H28.336C27.4172 41.1312 26.5832 41.2443 25.8623 41.4421C23.7703 42.0076 22.3568 43.209 21.4522 45.2869H34.1031C34.3292 45.2869 34.4989 45.4706 34.4989 45.6968C34.4989 45.7533 34.4847 45.7957 34.4706 45.8523L33.6366 48.6086C33.5801 48.7783 33.4246 48.8913 33.255 48.8913H20.3072C20.0811 49.7394 19.968 50.4462 20.0528 51.0257C20.2224 52.2413 21.3532 52.8633 22.4275 53.1177C23.0494 53.2591 23.8127 53.3439 24.8022 53.3439H32.421C32.7037 53.3439 32.9016 53.6407 32.7885 53.8951L31.9545 56.6515C31.8697 56.9342 31.6577 56.9483 31.4315 56.9483Z" fill="#141515"/>
<path d="M64.6914 50.4038L62.8397 56.5667C62.7973 56.7787 62.6136 56.9483 62.3874 56.9483H58.2882C57.9773 56.9483 57.7511 56.6515 57.8501 56.3405L62.5712 40.6365C63.08 38.9544 63.9705 38.0497 65.6809 37.6681C66.1897 37.555 66.6562 37.5267 67.052 37.5267H77.413C78.0067 37.5267 78.77 37.5267 79.5474 37.6681C81.5546 38.0497 82.643 39.2936 82.5582 41.4139C82.5157 42.3327 82.2755 43.2797 82.0352 44.0854C81.7949 44.8628 81.4556 45.8664 80.8902 46.8417C79.8442 48.6369 78.5297 49.6546 76.5932 50.1352C75.9429 50.3048 75.2503 50.3897 74.586 50.3897H64.6914V50.4038ZM65.8222 46.6863H73.0028C73.441 46.6863 73.9075 46.6863 74.3598 46.6015C75.3775 46.4318 75.9853 45.923 76.4518 45.0183C76.678 44.5801 76.8193 44.1419 76.9183 43.8027C77.2292 42.7708 77.5543 41.5835 76.1408 41.3149C75.745 41.2443 75.321 41.2301 74.9818 41.2301C72.7484 41.2301 70.5151 41.2301 68.2817 41.2301C68.0697 41.2301 67.8153 41.2301 67.575 41.3856C67.363 41.527 67.2923 41.7531 67.2216 41.9934L65.8222 46.6863Z" fill="#141515"/>
<path d="M81.4273 56.9486H77.102C77.003 56.9486 76.89 56.9203 76.8052 56.8497C76.6073 56.6942 76.579 56.3973 76.7345 56.1994L89.9508 39.7745C91.2795 38.1348 92.3961 37.5411 94.5164 37.5411C96.4388 37.5411 97.4848 38.0217 97.9229 39.9865L101.132 56.3973C101.202 56.68 100.976 56.9769 100.679 56.9769H96.4105C96.1561 56.9769 95.944 56.8638 95.8875 56.5952L95.1242 52.3547H85.2579L81.809 56.7648C81.7383 56.8638 81.5828 56.9486 81.4273 56.9486ZM87.8022 48.9481H94.6577C94.262 46.63 93.852 44.3118 93.4563 41.9937C93.4421 41.923 93.4139 41.7817 93.3432 41.8806L87.8022 48.9481Z" fill="#141515"/>
<path d="M114.518 56.9489H103.266C102.955 56.9489 102.729 56.652 102.828 56.3411L103.648 53.613C103.69 53.401 103.874 53.2314 104.1 53.2314H114.108C114.334 53.2314 115.027 53.2172 115.663 53.1324C117.147 52.9487 117.656 52.3408 118.08 50.9697C118.165 50.7012 118.249 50.3619 118.263 50.0368C118.306 48.8919 116.822 48.9908 116.03 48.9908H106.164C106.093 48.9908 106.008 48.9908 105.938 48.9626C105.697 48.8919 105.556 48.6233 105.627 48.383L106.447 45.655C106.489 45.4429 106.673 45.2733 106.899 45.2733H116.327C118.15 45.2733 119.38 45.2592 120.002 43.1813C120.016 43.1248 120.03 43.0682 120.059 43.0117C120.567 41.3579 120.101 41.2165 118.617 41.2165H108.27C108.171 41.2165 108.072 41.2165 107.973 41.1883C107.733 41.1176 107.591 40.849 107.662 40.6087L108.482 37.8807C108.524 37.6686 108.722 37.499 108.934 37.499H120.384C122.744 37.499 125.727 37.8241 125.656 40.9338C125.642 41.6406 125.444 42.3898 125.232 43.1106C125.048 43.7326 124.836 44.3545 124.469 44.9482C123.903 45.8953 123.027 46.5879 122.038 47.0402C122.108 47.0685 122.179 47.1109 122.25 47.1533C122.758 47.436 123.14 47.8459 123.324 48.3689C123.465 48.7223 123.508 49.1746 123.465 49.7259C123.423 50.2489 123.281 50.8849 123.055 51.6765C122.843 52.3691 122.561 53.2172 122.038 54.0229C120.85 55.8746 119.112 56.5814 117.02 56.8217C116.157 56.9347 115.281 56.9489 114.518 56.9489Z" fill="#141515"/>
<path d="M150.675 41.2587L146.067 56.5811C146.025 56.7931 145.841 56.9627 145.615 56.9627H141.516C141.205 56.9627 140.978 56.6517 141.063 56.3549L145.275 42.7428L145.205 42.8135C140.922 46.9975 136.639 51.1815 132.314 55.323C131.423 56.1994 130.405 57.1889 128.031 57.1889C126.207 57.1889 125.43 56.5104 125.161 55.6764C124.907 54.8849 125.161 53.9944 125.331 53.4148L129.981 37.9369C130.024 37.7249 130.207 37.5553 130.434 37.5553H134.505C134.83 37.5553 135.098 37.8238 134.985 38.1631L130.787 51.8034C134.717 47.676 139.197 43.5485 143.297 39.5342C144.173 38.6719 144.908 38.1348 145.629 37.7956C146.364 37.4563 147.071 37.3291 147.89 37.3291C149.785 37.3291 150.562 38.0783 150.831 38.9829C151.085 39.8169 150.816 40.7357 150.675 41.2587Z" fill="#141515"/>
<path d="M174.578 41.0608L169.913 56.5811C169.871 56.7931 169.687 56.9628 169.461 56.9628H165.361C165.05 56.9628 164.824 56.6659 164.923 56.3549L169.263 41.9089C169.432 41.3152 169.093 41.2728 168.556 41.2728H161.715C159.623 41.2728 158.93 42.1633 158.35 44.0998C158.167 44.7218 158.054 45.1882 158.011 45.5416C157.898 46.4745 158.421 46.8138 159.396 46.8138H163.694C163.92 46.8138 164.443 46.8279 164.895 46.9975C166.181 47.4923 165.715 48.9906 165.079 49.8104C164.838 50.1214 164.471 50.4748 163.92 50.8423L154.859 56.8638C154.774 56.9345 154.675 56.9628 154.562 56.9628H149.276C148.809 56.9628 148.626 56.3408 149.035 56.1005L157.926 50.5313H156.598C153.827 50.5313 152.371 48.8492 152.711 46.0929C152.795 45.372 153.007 44.6087 153.219 43.8595C154.463 39.619 156.584 37.5553 161.093 37.5553H171.765C174.012 37.5553 175.298 38.7426 174.578 41.0608Z" fill="#141515"/>
<path d="M6.10154 30.1486C6.0026 28.7633 6.92138 26.8127 7.59986 25.8374C29.1276 24.7207 32.4917 21.5686 49.9909 13.13C59.1081 8.73395 71.0381 5.24258 91.958 5.94934C113.571 6.67023 120.624 10.8683 129.388 15.434C137.261 19.5331 137.954 22.5722 153.205 24.9186C165.8 26.8551 186.409 30.4171 193.589 38.8558C160.739 23.7171 115.436 23.6464 80.0138 27.7598C78.0491 27.5619 78.36 23.9716 79.3495 23.5051C95.5483 22.346 117.345 22.1764 131.692 23.0386C134.66 23.2083 134.222 22.1057 133.006 20.9466C130.829 18.8829 126.518 16.8051 123.804 15.4905C111.874 9.70927 101.683 8.36643 86.6573 8.83289C69.9779 9.34175 66.4442 10.204 54.4011 16.5506C42.3863 22.8973 36.4637 31.3783 12.222 32.4809C12.222 32.4809 6.10154 33.1452 6.10154 30.1486Z" fill="#DC2A1B"/>
<path d="M120.61 73.6141L118.758 79.7628C118.716 79.9748 118.532 80.1445 118.306 80.1445H114.207C114.164 80.1445 114.122 80.1445 114.065 80.1303C113.825 80.0597 113.684 79.7911 113.754 79.5508L118.461 63.875C118.574 63.5075 118.687 63.1258 118.913 62.7301C119.14 62.3201 119.479 61.9244 120.016 61.571C120.525 61.2317 121.062 61.0338 121.571 60.9208C122.066 60.8077 122.546 60.7794 122.942 60.7794H133.275C133.868 60.7794 134.632 60.7794 135.409 60.9208C136.215 61.0763 136.992 61.3872 137.572 62.0092L137.586 62.0233C138.25 62.7301 138.434 63.6771 138.406 64.6524C138.363 65.5712 138.123 66.5183 137.883 67.324C137.657 68.1014 137.303 69.105 136.738 70.0662C136.172 71.0556 135.381 71.9885 134.278 72.6246L134.25 72.6387C133.727 72.9356 133.105 73.1759 132.441 73.3455C131.791 73.501 131.098 73.5999 130.434 73.5999H120.61V73.6141ZM123.126 65.2461L121.726 69.9107H128.879C129.317 69.9107 129.783 69.9107 130.236 69.8259C130.66 69.7552 131.084 69.5997 131.48 69.317C131.833 69.0484 132.102 68.6527 132.314 68.2427C132.54 67.8045 132.681 67.3664 132.78 67.0271C132.893 66.6455 133.006 66.2073 133.034 65.7974V65.7832C133.063 65.444 133.02 65.1189 132.851 64.921C132.667 64.7231 132.342 64.61 132.003 64.5393C131.607 64.4687 131.183 64.4545 130.858 64.4545H124.257H124.186C123.974 64.4545 123.719 64.4545 123.479 64.61C123.267 64.7655 123.196 65.0058 123.126 65.2461Z" fill="#DC2A1B"/>
<path d="M156.018 77.0348L155.156 79.7629C155.114 79.9749 154.916 80.1445 154.689 80.1445H145.205C144.131 80.1445 142.887 80.088 141.713 79.7629C138.901 79.0137 137.501 77.0772 137.699 74.1089C137.784 72.865 138.137 71.607 138.462 70.5751C138.886 69.2323 139.381 67.8612 140.088 66.6031C141.756 63.5924 144.272 61.8538 147.58 61.1187C149.035 60.7936 150.308 60.7512 151.099 60.7512H160.075C160.414 60.7512 160.711 60.9774 160.598 61.359L159.736 64.0871C159.693 64.2991 159.495 64.4687 159.269 64.4687H152.131C150.944 64.4687 149.841 64.497 148.852 64.7232C147.042 65.119 145.813 66.1367 144.894 67.7057C144.442 68.469 143.989 69.4726 143.579 70.8013C143.155 72.13 143 73.0629 142.986 73.7272C142.957 75.0418 143.452 75.7344 144.724 76.116C145.544 76.3563 146.618 76.427 147.876 76.427H155.523C155.594 76.427 155.637 76.427 155.707 76.4553C155.962 76.526 156.103 76.7945 156.018 77.0348Z" fill="#DC2A1B"/>
<path d="M84.1978 64.4687L79.6039 79.7628C79.5615 79.9748 79.3777 80.1445 79.1516 80.1445H75.0524C75.01 80.1445 74.9676 80.1445 74.9111 80.1303C74.6708 80.0597 74.5294 79.7911 74.6001 79.5508L79.1233 64.4828H71.2784C71.2359 64.4828 71.1935 64.4687 71.137 64.4687C70.8967 64.398 70.7554 64.1294 70.826 63.8891L71.6459 61.1611C71.6883 60.949 71.872 60.7794 72.0982 60.7794H93.1595C93.2019 60.7794 93.2443 60.7794 93.2867 60.7936C93.527 60.8642 93.6683 61.1328 93.5976 61.3731L92.7778 64.087C92.7354 64.2991 92.5516 64.4687 92.3255 64.4687H84.1978Z" fill="#DC2A1B"/>
<path d="M56.2245 77.0348L55.3623 79.7629C55.3199 79.9749 55.122 80.1445 54.8958 80.1445H52.295C51.2348 80.1445 49.9768 80.088 48.8036 79.7629C45.9907 79.0137 44.5914 77.0772 44.7892 74.1089C44.8741 72.8508 45.2274 71.607 45.5525 70.5751C45.9766 69.2323 46.4713 67.8612 47.1781 66.6031C48.846 63.5924 51.3621 61.8538 54.6697 61.1187C56.1256 60.7936 57.3977 60.7512 58.2034 60.7512H60.3802C60.7195 60.7512 61.0163 60.9774 60.9032 61.359L60.041 64.0871C59.9986 64.2991 59.8007 64.4687 59.5745 64.4687H58.5144C57.3271 64.4687 56.9878 64.497 55.9842 64.7232C54.1749 65.119 52.9452 66.1367 52.0264 67.7057C51.5741 68.469 51.1218 69.4726 50.7118 70.8013C50.2878 72.13 50.1323 73.0629 50.1182 73.7272C50.0758 75.0418 50.5846 75.7344 51.8568 76.116C52.6766 76.3563 53.7509 76.427 55.0089 76.427H55.7581C55.8287 76.427 55.8711 76.427 55.9418 76.4553C56.168 76.526 56.3093 76.7945 56.2245 77.0348Z" fill="#DC2A1B"/>
<path d="M56.9737 63.8609L57.8359 61.1329C57.8783 60.9208 58.0762 60.7512 58.3024 60.7512H61.9492C63.0094 60.7512 64.2674 60.8078 65.4406 61.1329C68.2535 61.882 69.6529 63.8185 69.455 66.7869C69.3702 68.0308 69.0168 69.2888 68.6917 70.3207C68.2676 71.6635 67.7729 73.0346 67.0661 74.2926C65.3982 77.3034 62.8822 79.042 59.5746 79.777C58.1186 80.1021 56.8465 80.1445 56.0408 80.1445H52.3798C52.0406 80.1445 51.7437 79.9184 51.8568 79.5367L52.719 76.8087C52.7614 76.5966 52.9593 76.427 53.1855 76.427H55.0089C56.1963 76.427 57.2988 76.3987 58.2883 76.1726C60.0976 75.7768 61.3132 74.7591 62.2461 73.1901C62.6984 72.4268 63.1507 71.4232 63.5606 70.0945C63.9847 68.7658 64.1402 67.8329 64.1543 67.1685C64.1967 65.854 63.6879 65.1614 62.4157 64.7797C61.5959 64.5394 60.5216 64.4687 59.2636 64.4687H57.4684C57.3977 64.4687 57.3553 64.4687 57.2847 64.4405C57.0302 64.3698 56.8889 64.1154 56.9737 63.8609Z" fill="#DC2A1B"/>
<path d="M20.3922 64.4826L15.8124 79.7626C15.7276 79.9746 15.8124 80.1442 16.0386 80.1442H20.0529C20.3639 80.1442 20.7597 79.8332 20.8445 79.5364L24.8447 65.9667L27.9686 73.6986C28.6047 75.3242 30.8804 75.7623 32.5059 74.1085L40.0117 66.7159L36.1386 79.5505C36.0538 79.8615 36.2659 80.1584 36.5768 80.1584H40.4498C40.676 80.1584 40.8598 80.0029 40.9022 79.7767L45.3971 64.4967C46.1039 62.1079 45.3547 60.5671 42.6973 60.5671C40.7608 60.5671 39.5735 61.4152 38.2165 62.7581C36.0256 64.9632 33.7074 67.1824 31.4317 69.4298C30.4988 67.1824 29.5093 64.949 28.6188 62.7581C27.9686 61.1608 27.1346 60.5671 25.4384 60.5671C22.8375 60.5671 21.1272 62.0231 20.3922 64.4826Z" fill="#DC2A1B"/>
<path d="M102.036 77.0348L101.174 79.7629C101.132 79.9749 100.934 80.1445 100.708 80.1445H98.1068C97.0467 80.1445 95.7887 80.088 94.6154 79.7629C91.8026 79.0137 90.4032 77.0772 90.6011 74.1089C90.6859 72.8508 91.0393 71.607 91.3644 70.5751C91.7884 69.2323 92.2832 67.8612 92.9899 66.6031C94.6578 63.5924 97.1739 61.8538 100.481 61.1187C101.937 60.7936 103.21 60.7512 104.015 60.7512H106.192C106.531 60.7512 106.828 60.9774 106.715 61.359L105.853 64.0871C105.81 64.2991 105.613 64.4687 105.386 64.4687H104.312C103.125 64.4687 102.786 64.497 101.782 64.7232C99.9726 65.119 98.757 66.1367 97.8241 67.7057C97.3718 68.469 96.9195 69.4726 96.5095 70.8013C96.0855 72.13 95.93 73.0629 95.9159 73.7272C95.8735 75.0418 96.3823 75.7344 97.6545 76.116C98.4743 76.3563 99.5486 76.427 100.807 76.427H101.556C101.626 76.427 101.669 76.427 101.74 76.4553C101.98 76.526 102.107 76.7945 102.036 77.0348Z" fill="#DC2A1B"/>
<path d="M102.771 63.8609L103.634 61.1329C103.676 60.9208 103.874 60.7512 104.1 60.7512H107.747C108.807 60.7512 110.065 60.8078 111.238 61.1329C114.051 61.882 115.451 63.8185 115.253 66.7869C115.168 68.0308 114.814 69.2888 114.489 70.3207C114.065 71.6635 113.571 73.0346 112.864 74.2926C111.196 77.3034 108.68 79.042 105.372 79.777C103.916 80.1021 102.644 80.1445 101.838 80.1445H98.1775C97.8382 80.1445 97.5414 79.9184 97.6545 79.5367L98.5167 76.8087C98.5591 76.5966 98.757 76.427 98.9832 76.427H100.807C101.994 76.427 103.096 76.3987 104.086 76.1726C105.895 75.7768 107.111 74.7591 108.044 73.1901C108.496 72.4268 108.948 71.4232 109.358 70.0945C109.782 68.7658 109.938 67.8329 109.952 67.1685C109.994 65.854 109.486 65.1614 108.213 64.7797C107.394 64.5394 106.319 64.4687 105.061 64.4687H103.266C103.195 64.4687 103.153 64.4687 103.082 64.4405C102.828 64.3698 102.701 64.1154 102.771 63.8609Z" fill="#DC2A1B"/>
</svg>
