<svg width="104" height="50" viewBox="0 0 104 50" fill="none" xmlns="http://www.w3.org/2000/svg">
<path fill-rule="evenodd" clip-rule="evenodd" d="M74.2231 24.1991L72.1683 30.9913C72.1683 31.1055 72.0541 31.1625 71.94 31.1625H70.1135C69.9994 31.1625 69.8852 31.0484 69.9423 30.8771L71.8258 24.8269L71.7688 24.884C70.827 25.7973 69.8709 26.7248 68.9149 27.6523C67.9589 28.5798 67.0028 29.5073 66.061 30.4205C65.6615 30.8201 65.2049 31.2196 64.1775 31.2196C63.3784 31.2196 63.0359 30.9342 62.9218 30.5347C62.8226 30.237 62.8958 29.8963 62.9541 29.6249C62.9581 29.6064 62.962 29.5883 62.9657 29.5706C62.9703 29.549 62.9747 29.5278 62.9788 29.5073L65.0336 22.658C65.0336 22.5438 65.1478 22.4868 65.2619 22.4868H67.0884C67.2596 22.4868 67.3738 22.6009 67.3167 22.7722L65.4332 28.8224C66.7736 27.4387 68.2122 26.0551 69.6251 24.6963L69.6252 24.6962L69.6267 24.6947C70.0784 24.2603 70.5274 23.8285 70.9697 23.4C71.3692 23.0005 71.6546 22.7722 71.9971 22.658C72.3395 22.4868 72.6249 22.4297 73.0245 22.4297C73.8806 22.4297 74.2231 22.7722 74.3372 23.1717C74.3901 23.542 74.296 23.9123 74.2365 24.1463L74.2231 24.1991ZM26.2786 22.6008C26.5069 22.5438 26.6781 22.5438 26.9064 22.5438H31.5868C32.1576 22.5438 32.8996 22.6008 33.2991 23.1145C33.7557 23.6282 33.5845 24.4273 33.4133 24.9981C33.185 25.7972 32.7283 26.4821 31.9292 26.7675C32.0434 26.8246 32.1576 26.8816 32.2146 26.9387C32.5571 27.167 32.6713 27.5095 32.6142 27.9661C32.6142 28.1772 32.5517 28.3882 32.4961 28.5762L32.4961 28.5762C32.4765 28.6424 32.4578 28.7057 32.4429 28.7652C32.2146 29.5072 31.9863 30.078 31.3014 30.5917C30.6165 31.1054 30.0457 31.1624 29.2466 31.1624H24.5092C23.5959 31.1624 22.9681 30.82 23.2535 29.7926L25.0229 23.8565C25.2512 23.2287 25.7078 22.7721 26.2786 22.6008ZM26.9635 24.4273L26.5069 26.0255H29.8745C30.0457 26.0255 30.2169 26.0255 30.3882 25.9684C30.6735 25.9113 30.9019 25.7972 31.016 25.5689C31.0263 25.5483 31.0385 25.5258 31.0518 25.5012C31.1124 25.3892 31.1975 25.232 31.2443 24.9981C31.3014 24.8839 31.3014 24.7698 31.3014 24.5985C31.3014 24.0849 30.8448 24.0849 30.4452 24.0849H27.4201C27.1918 24.0849 27.0777 24.0849 27.0206 24.3132C27.0206 24.3702 27.0206 24.4273 26.9635 24.4273ZM29.5891 27.5666H26.0503L25.5937 29.1647C25.5366 29.2789 25.5366 29.393 25.5366 29.4501C25.5366 29.6214 25.822 29.6214 25.9932 29.6214H28.9041C29.0183 29.6214 29.2466 29.6214 29.4178 29.5643C29.9315 29.4501 30.1599 29.1647 30.3882 28.7081C30.4452 28.5369 30.5023 28.3657 30.5023 28.1944C30.5023 27.6236 30.0457 27.5666 29.5891 27.5666ZM21.4266 31.1624H17.3741C16.9745 31.1624 16.5179 31.1053 16.0613 31.0483C14.9197 30.7629 14.1777 30.135 14.1777 28.8793C14.1777 28.3085 14.349 27.5665 14.5773 26.7674C14.7485 26.1967 14.9768 25.5688 15.2622 24.998C16.0042 23.7423 17.0887 23.0003 18.5156 22.7149C19.0864 22.6008 19.6001 22.6008 19.9425 22.6008H19.9426H23.938C24.0521 22.6008 24.1663 22.7149 24.1092 22.8291L23.7667 24.0277C23.7667 24.0848 23.6526 24.1419 23.5955 24.1419H20.1709C19.7713 24.1419 19.3718 24.199 19.0864 24.256C18.1732 24.4843 17.5453 25.0551 17.1458 25.9684H22.7393C22.8535 25.9684 22.9106 26.0254 22.9106 26.1396V26.1967L22.5681 27.3953C22.5681 27.4524 22.454 27.5094 22.3969 27.5094H16.4608C16.3467 27.909 16.2896 28.1944 16.3467 28.4798C16.4038 28.9935 16.9174 29.2788 17.3741 29.393C17.6595 29.4501 18.0019 29.5072 18.4015 29.5072H21.769C21.8832 29.5072 21.9973 29.6213 21.9403 29.7355L21.5978 30.9341C21.5978 31.1624 21.4836 31.1624 21.4266 31.1624ZM35.0682 31.1624C35.1823 31.1624 35.2965 31.1054 35.2965 30.9912L36.1526 28.2515H40.4905C40.833 28.2515 41.1184 28.1944 41.4038 28.1373C42.2599 27.909 42.8307 27.4524 43.2873 26.6533C43.5156 26.2538 43.6868 25.7972 43.801 25.4547C43.9152 25.1122 44.0293 24.6556 44.0293 24.2561C44.0864 23.3428 43.6298 22.7721 42.7165 22.6008C42.3741 22.5438 42.0316 22.5438 41.7462 22.5438H37.18C37.0088 22.5438 36.7805 22.5438 36.5522 22.6008C35.8102 22.7721 35.4106 23.1716 35.1823 23.9136L33.0705 30.8771C33.0134 31.0483 33.1275 31.1624 33.2417 31.1624H35.0682ZM39.8056 26.5963H36.6093L37.2942 24.5415C37.3112 24.5074 37.3232 24.4733 37.3346 24.4408C37.3614 24.3643 37.3853 24.2961 37.4654 24.2561C37.5225 24.199 37.6366 24.199 37.7508 24.199H40.7188C40.8901 24.199 41.0613 24.199 41.2325 24.2561C41.8243 24.3637 41.7062 24.8262 41.5951 25.2613C41.5883 25.2879 41.5815 25.3143 41.575 25.3406C41.555 25.3806 41.5349 25.4347 41.5125 25.4954C41.4708 25.6079 41.4208 25.7431 41.3467 25.8542C41.1754 26.2538 40.8901 26.4821 40.4334 26.5392C40.2051 26.5963 39.9768 26.5963 39.8056 26.5963ZM43.5728 31.1624H41.6322C41.5751 31.1624 41.518 31.1624 41.518 31.1053C41.4039 31.0482 41.4039 30.877 41.4609 30.8199L47.3399 23.5711C47.9107 22.8291 48.4244 22.6008 49.3376 22.6008C50.1938 22.6008 50.6504 22.8291 50.8216 23.6853L52.2486 30.9341C52.3056 31.0482 52.1915 31.1624 52.0203 31.1624H50.1367C50.0225 31.1624 49.9084 31.1053 49.9084 30.9912L49.5659 29.1076H45.171L43.6299 31.0483C43.6869 31.1053 43.6299 31.1624 43.5728 31.1624ZM46.3696 27.6236H49.3947L48.881 24.5414C48.881 24.4843 48.881 24.4273 48.8239 24.4843L46.3696 27.6236ZM53.2189 31.1624H58.1847C58.5271 31.1624 58.9267 31.1624 59.3833 31.1054C60.2965 30.9912 61.0956 30.6488 61.6093 29.8497C61.7837 29.588 61.8915 29.2931 61.9836 29.0412L61.9837 29.041C62.0121 28.9632 62.039 28.8896 62.0659 28.8223C62.1801 28.4798 62.2372 28.1944 62.2372 27.9661C62.2372 27.6807 62.2372 27.5095 62.1801 27.3383C62.123 27.11 61.9518 26.9387 61.7235 26.8246C61.6949 26.8246 61.6807 26.8103 61.6664 26.796C61.6521 26.7818 61.6379 26.7675 61.6093 26.7675C62.0659 26.5963 62.4655 26.2538 62.6938 25.8542C62.865 25.6259 62.9792 25.3406 63.0362 25.0552C63.0566 24.9331 63.0842 24.8184 63.1113 24.7057L63.1113 24.7056C63.1602 24.5021 63.2075 24.3053 63.2075 24.0849C63.2075 22.715 61.8947 22.5438 60.8673 22.5438H55.7874C55.6733 22.5438 55.5591 22.6008 55.5591 22.715L55.2167 23.9136C55.1596 24.0278 55.2166 24.1419 55.3308 24.199H55.445H60.0112C60.639 24.199 60.8673 24.2561 60.639 24.9981V25.0552C60.4107 25.9684 59.8399 25.9684 59.0408 25.9684H54.8742C54.76 25.9684 54.6459 26.0255 54.6459 26.1396L54.3034 27.3383C54.2463 27.4524 54.3034 27.5666 54.4176 27.6236H54.5317H58.9267C58.9563 27.6236 58.9881 27.6232 59.0214 27.6228C59.3731 27.618 59.897 27.611 59.897 28.0803C59.897 28.1944 59.897 28.3657 59.8399 28.4798C59.6116 29.1077 59.3833 29.393 58.7555 29.4501C58.4701 29.5072 58.1847 29.5072 58.0705 29.5072H53.6185C53.5043 29.5072 53.3902 29.5643 53.3902 29.6784L53.0477 30.8771C52.9906 31.0483 53.1048 31.1624 53.2189 31.1624ZM82.7848 30.9915L84.8396 24.1422C85.125 23.1148 84.5542 22.5441 83.641 22.6011H78.9036C76.9059 22.6011 75.9926 23.5144 75.4219 25.3979C75.3077 25.6833 75.2506 26.0258 75.1935 26.3682C75.0223 27.5669 75.7072 28.3089 76.9059 28.3089H77.4766L73.5383 30.7632C73.3671 30.8774 73.4241 31.1627 73.6525 31.1627H75.9926C76.0497 31.1627 76.0497 31.1627 76.1068 31.1057L80.1022 28.423C80.3305 28.2518 80.5017 28.0806 80.6159 27.9664C80.9013 27.5669 81.1296 26.939 80.5588 26.7107C80.3876 26.6536 80.1593 26.6536 80.0451 26.6536H78.1616C77.705 26.6536 77.4766 26.4824 77.5337 26.0829C77.5908 25.9116 77.6479 25.7404 77.705 25.455C77.9333 24.5988 78.2757 24.1993 79.189 24.1993H82.2141C82.4424 24.1993 82.5565 24.1993 82.4995 24.4847L80.5588 30.8774C80.5017 31.0486 80.6159 31.1627 80.7301 31.1627H82.5565C82.6707 31.1627 82.7848 31.1057 82.7848 30.9915Z" fill="white"/>
<path fill-rule="evenodd" clip-rule="evenodd" d="M10.1266 19.2921C10.0695 18.6642 10.469 17.808 10.8115 17.4085C19.1045 16.9616 21.3057 15.8666 26.8499 13.1086C27.6781 12.6966 28.581 12.2475 29.59 11.7578C33.6425 9.8172 38.8936 8.27611 48.1972 8.5615C57.4199 8.89088 60.6234 10.5931 64.3079 12.5508L64.3106 12.5523C64.4561 12.6295 64.6023 12.7072 64.7496 12.7852C65.649 13.257 66.3351 13.6945 66.9751 14.1027C68.813 15.2747 70.2712 16.2046 75.309 17.009C80.9026 17.8651 90.0349 19.4633 93.1742 23.1733C78.6195 16.4953 58.5853 16.4382 42.889 18.2647C42.0328 18.2076 42.147 16.6094 42.6036 16.3811C49.7954 15.8674 59.4415 15.8103 65.777 16.1528C67.0898 16.2099 66.9186 15.7533 66.3478 15.2396C65.3775 14.3263 63.4939 13.4131 62.2953 12.8423C56.9871 10.2738 52.478 9.70305 45.857 9.87428C38.494 10.1026 36.8959 10.5021 31.5877 13.2989C30.2658 13.9807 29.1101 14.7168 27.9627 15.4476C24.4035 17.7147 20.9238 19.931 12.8092 20.3194C12.8092 20.3194 10.1266 20.6048 10.1266 19.2921ZM60.9257 38.5262L60.1266 41.266C60.1266 41.3801 60.0124 41.4372 59.8983 41.4372H58.0718H58.0147C57.9006 41.3801 57.8435 41.266 57.9006 41.1518L60.0124 34.1884L60.1837 33.6747C60.2978 33.5034 60.412 33.3322 60.6974 33.161C60.9257 32.9897 61.154 32.9327 61.3823 32.8756C61.6106 32.8185 61.8389 32.8185 62.0101 32.8185H66.5763C66.8617 32.8185 67.2042 32.8185 67.5466 32.8756C67.8891 32.9327 68.2316 33.1039 68.517 33.3322C68.8024 33.6747 68.9165 34.0742 68.8594 34.4737C68.8594 34.8733 68.7453 35.2728 68.6311 35.6723L68.6311 35.6724C68.517 36.0148 68.3457 36.4715 68.1174 36.871C67.8891 37.3276 67.4896 37.7272 67.033 38.0125C66.8046 38.1267 66.5193 38.2409 66.2339 38.2979C65.9485 38.355 65.6631 38.4121 65.3206 38.4121H60.9257V38.5262ZM62.0101 34.8162L61.3823 36.871H64.5786C64.7499 36.871 64.9782 36.871 65.1494 36.8139C65.1823 36.803 65.2173 36.792 65.2536 36.7806L65.2539 36.7805C65.4065 36.7327 65.5819 36.6778 65.7202 36.5856C65.8914 36.4715 66.0056 36.3002 66.0626 36.129C66.1367 36.0178 66.1868 35.8826 66.2284 35.7702C66.2509 35.7094 66.2709 35.6553 66.291 35.6153C66.348 35.4441 66.4051 35.2728 66.4051 35.0445C66.4051 34.8733 66.4051 34.7591 66.348 34.645C66.3074 34.5637 66.2088 34.5403 66.0936 34.5129C66.047 34.5019 65.9978 34.4902 65.9485 34.4737C65.7772 34.4167 65.606 34.4167 65.4348 34.4167H62.5238H62.4668C62.3526 34.4167 62.2384 34.4167 62.1814 34.4737C62.1053 34.5879 62.0799 34.6513 62.0545 34.7147C62.0419 34.7464 62.0292 34.7782 62.0101 34.8162ZM76.165 41.266L76.5645 40.0673C76.6216 39.9532 76.5645 39.839 76.4504 39.7819H76.3933H73.0257C72.5121 39.7819 71.9983 39.7819 71.6559 39.6678C71.0851 39.4966 70.8568 39.1541 70.8568 38.5833C70.8706 38.5145 70.8843 38.4358 70.8997 38.3479L70.8997 38.3478C70.948 38.0711 71.0122 37.7037 71.1422 37.2705C71.3134 36.6998 71.4846 36.2431 71.713 35.9007C72.1125 35.2158 72.6833 34.7591 73.4824 34.5879C73.8819 34.4737 74.3956 34.4737 74.9093 34.4737H78.0486C78.1627 34.4737 78.2769 34.4167 78.2769 34.3025L78.6764 33.1039C78.7335 32.9327 78.6193 32.8185 78.4481 32.8185H74.4527C74.1102 32.8185 73.5394 32.8756 72.9116 32.9897C71.4276 33.3322 70.3431 34.1313 69.6011 35.4441C69.2586 36.0148 69.0303 36.6427 68.8591 37.2135C68.6879 37.6701 68.5737 38.1838 68.5166 38.7545C68.4025 40.0673 69.0303 40.9235 70.286 41.266C70.7997 41.4372 71.3705 41.4372 71.8271 41.4372H75.9367C76.0508 41.4372 76.165 41.3801 76.165 41.266ZM44.7725 34.4737L42.7177 41.266C42.7177 41.3801 42.6036 41.4372 42.4894 41.4372H40.6629H40.6059C40.4917 41.3801 40.4346 41.266 40.4917 41.1518L42.4894 34.4737H39.0077H38.9506C38.8365 34.4167 38.7794 34.3025 38.8365 34.1884L39.1789 32.9897C39.1789 32.8756 39.2931 32.8185 39.4072 32.8185H48.7109H48.7679C48.8821 32.8756 48.9392 32.9897 48.8821 33.1039L48.5396 34.3025C48.5396 34.4167 48.4255 34.4737 48.3113 34.4737H44.7725ZM30.3888 39.6678C30.7587 39.7735 31.2265 39.7813 31.7016 39.7819H31.9299C32.4436 39.7819 32.9573 39.7819 33.3568 39.6677C34.1559 39.4965 34.7267 39.0399 35.1262 38.355C35.3545 38.0125 35.5258 37.5559 35.697 36.9851C35.8269 36.5519 35.8911 36.1845 35.9395 35.9078L35.9395 35.9077C35.9549 35.8199 35.9686 35.7411 35.9824 35.6723C35.9824 35.1016 35.7541 34.7591 35.1833 34.5879C34.842 34.4741 34.3308 34.4737 33.8189 34.4737L33.8134 34.4737H33.3568C32.8431 34.4737 32.6719 34.4737 32.2153 34.5879C31.4162 34.7591 30.8454 35.2158 30.4459 35.9007C30.2175 36.2431 30.0463 36.6998 29.8751 37.2705C29.7451 37.7037 29.6809 38.0712 29.6326 38.3479L29.6326 38.3479L29.6325 38.348L29.6325 38.3482C29.6172 38.4359 29.6034 38.5146 29.5897 38.5833C29.5897 39.1541 29.818 39.4966 30.3888 39.6678ZM34.213 32.8185C34.2854 32.8185 34.3477 32.839 34.3911 32.8755H34.955C35.4116 32.8755 35.9824 32.8755 36.4961 33.0468C37.7518 33.3892 38.3796 34.2454 38.2655 35.5582C38.2084 36.1289 38.0942 36.6426 37.923 37.0993C37.7518 37.67 37.5235 38.2979 37.181 38.8687C36.439 40.1814 35.2974 40.9235 33.8705 41.2659C33.2427 41.3801 32.6719 41.4371 32.3294 41.4371H31.7643L31.7586 41.4372H30.6171C30.1605 41.4372 29.5897 41.4372 29.076 41.266C27.8774 40.9235 27.2495 40.0673 27.3066 38.7545C27.3637 38.1838 27.4778 37.6701 27.6491 37.2135C27.8203 36.6427 28.0486 36.0148 28.3911 35.4441C29.1331 34.1313 30.2175 33.3322 31.7016 32.9897C32.3294 32.8756 32.9002 32.8185 33.2426 32.8185H34.213ZM14.4645 41.266L16.5193 34.4738C16.8618 33.3893 17.6038 32.7614 18.5741 32.8185C19.3732 32.8185 19.7156 33.1039 20.001 33.7888C20.2007 34.2739 20.4147 34.7732 20.6287 35.2724L20.6289 35.2729C20.8429 35.7723 21.057 36.2717 21.2567 36.7569C21.7777 36.2359 22.2987 35.7295 22.8123 35.2304L22.8125 35.2303C23.3116 34.7452 23.8036 34.267 24.2818 33.7888C24.9097 33.2181 25.4234 32.8185 26.2795 32.8185C27.4782 32.8185 27.7635 33.4464 27.4782 34.5308L25.4805 41.323C25.4805 41.4372 25.4234 41.4943 25.3092 41.4943H23.5969C23.4827 41.4943 23.3686 41.323 23.4257 41.2089L25.138 35.5012L21.8275 38.7546C21.1426 39.4966 20.1152 39.3253 19.8298 38.5833L18.4599 35.1587L16.6905 41.1518C16.6335 41.3231 16.4622 41.4372 16.3481 41.4372H14.5787C14.4645 41.4372 14.4074 41.3801 14.4645 41.266ZM52.5892 39.837C52.5591 39.8155 52.5223 39.7968 52.4778 39.7819H52.4207H52.0782C51.5645 39.7819 51.0509 39.7819 50.7084 39.6678C50.1376 39.4966 49.9093 39.1541 49.9093 38.5833C49.9231 38.5145 49.9368 38.4358 49.9522 38.3479L49.9522 38.3478C50.0005 38.0711 50.0647 37.7037 50.1947 37.2705C50.3659 36.6998 50.5372 36.2431 50.7655 35.9007C51.165 35.2158 51.7358 34.7591 52.5349 34.5879C52.7808 34.5264 52.944 34.498 53.1225 34.4849C53.1499 34.5026 53.1823 34.5181 53.2203 34.5308H53.2774H54.0765C54.5902 34.5308 55.1038 34.5308 55.4463 34.6449C56.0171 34.8162 56.2454 35.1586 56.2454 35.7294C56.2316 35.7982 56.2179 35.8769 56.2025 35.9648C56.1542 36.2415 56.09 36.609 55.96 37.0422C55.7888 37.613 55.6175 38.0696 55.3892 38.412C54.9897 39.097 54.4189 39.5536 53.6198 39.7248C53.3235 39.8095 52.9645 39.8314 52.5892 39.837ZM54.7107 32.8755C54.6673 32.839 54.6051 32.8185 54.5326 32.8185H53.5623C53.2198 32.8185 52.649 32.8756 52.0212 32.9897C50.5372 33.3322 49.4527 34.1313 48.7107 35.4441C48.3682 36.0148 48.1399 36.6427 47.9687 37.2135C47.7974 37.6701 47.6833 38.1838 47.6262 38.7545C47.5121 40.0673 48.1399 40.9235 49.3956 41.266C49.865 41.4224 50.382 41.4359 50.816 41.4371C50.8594 41.4737 50.9217 41.4942 50.9943 41.4942H52.5924C52.9349 41.4942 53.5057 41.4371 54.1335 41.323C55.6175 40.9805 56.702 40.1814 57.444 38.8687C57.7865 38.2979 58.0148 37.67 58.186 37.0993C58.3573 36.6426 58.4714 36.1289 58.5285 35.5582C58.6426 34.2454 58.0148 33.3892 56.7591 33.0468C56.2454 32.8755 55.6746 32.8755 55.218 32.8755H54.7107Z" fill="#DD2A1B"/>
</svg>
