<svg width="50" height="50" viewBox="0 0 50 50" fill="none" xmlns="http://www.w3.org/2000/svg">
<path d="M40.2344 26.1719H30.8594V26.2966C29.3693 24.7745 27.2933 23.8281 25 23.8281H22.6562V22.653C24.0784 21.583 25 19.8816 25 17.9688V14.4531H28.5156V12.1094H25.9952L25.3105 7.93766C25.0267 6.23547 23.5684 5 21.8427 5L21.6376 5.00023C21.6298 5.00273 20.0677 5.58594 19.1406 5.58594C18.2705 5.58594 16.7398 5.03016 16.6437 5H16.4386C14.713 5 13.2545 6.23547 12.9703 7.94047L12.286 12.1094H9.76562V14.4531H13.2812V17.9688C13.2812 19.8816 14.2028 21.583 15.625 22.653V23.8281H13.2812C8.71492 23.8281 5 27.508 5 32.0312V40.2344H26.1719V45H45V30.8594H40.2344V26.1719ZM37.8906 28.5156V30.8594H33.2031V28.5156H37.8906ZM15.2827 8.32297C15.3681 7.81023 15.7734 7.42453 16.2751 7.355C16.8148 7.53469 18.1175 7.92969 19.1407 7.92969C20.1639 7.92969 21.4666 7.53469 22.0063 7.355C22.5078 7.42453 22.9129 7.80992 22.9986 8.32227L23.6201 12.1094H14.6612L15.2827 8.32297ZM22.6562 14.4531V17.9688C22.6562 19.9073 21.0791 21.4844 19.1406 21.4844C17.2021 21.4844 15.625 19.9073 15.625 17.9688V14.4531H22.6562ZM19.1406 23.8281C19.5419 23.8281 19.9338 23.7874 20.3125 23.7102V24.5146L19.1406 25.6865L17.9688 24.5146V23.7102C18.3475 23.7874 18.7394 23.8281 19.1406 23.8281ZM7.34375 32.0312C7.34375 28.8004 10.0073 26.1719 13.2812 26.1719H16.3115L17.8685 27.7289L15.8362 37.8906H7.34375V32.0312ZM19.1406 33.3191L20.0549 37.8906H18.2263L19.1406 33.3191ZM22.4451 37.8906L20.4127 27.7289L21.9698 26.1719H25C27.8296 26.1719 30.197 28.1881 30.7415 30.8594H26.1719V37.8906H22.4451ZM28.5156 42.6562V37.8906H34.375V40.2344H36.7188V37.8906H42.6562V42.6562H28.5156ZM42.6562 35.5469H28.5156V33.2031H42.6562V35.5469Z" fill="#DD2A1B"/>
</svg>
