<svg width="50" height="50" viewBox="0 0 50 50" fill="none" xmlns="http://www.w3.org/2000/svg">
<path d="M37.9688 5V17.5102L36.6986 14.8217C35.9593 13.257 34.0247 12.0312 32.2941 12.0312H17.7061C15.9755 12.0312 14.0409 13.257 13.3016 14.8216L12.0312 17.5105V5H5V45H16.7188V42.6562H12.0312V37.9688H16.7188V33.2812H33.2812V37.9688H37.9688V42.6562H33.2812V45H45V5H37.9688ZM9.6875 42.6562H7.34375V33.2812H9.6875V42.6562ZM9.6875 30.9375H7.34375V7.34375H9.6875V30.9375ZM15.4207 15.8229C15.7787 15.0651 16.868 14.375 17.706 14.375H32.2941C33.1321 14.375 34.2214 15.0651 34.5794 15.8229L37.291 21.5625H12.7091L15.4207 15.8229ZM14.375 35.625H12.0312V33.2812H14.375V35.625ZM30.9375 30.9375H19.0625V28.5938H30.9375V30.9375ZM37.9688 35.625H35.625V33.2812H37.9688V35.625ZM37.9688 30.9375H33.2812V26.25H16.7188V30.9375H12.0312V23.9062H37.9688V30.9375ZM42.6562 42.6562H40.3125V33.2812H42.6562V42.6562ZM42.6562 30.9375H40.3125V7.34375H42.6562V30.9375Z" fill="#DD2A1B"/>
</svg>
