<svg width="50" height="50" viewBox="0 0 50 50" fill="none" xmlns="http://www.w3.org/2000/svg">
<path fill-rule="evenodd" clip-rule="evenodd" d="M29.8322 9.6875C29.8322 12.2722 27.699 14.375 25.0769 14.375C22.4549 14.375 20.3217 12.2722 20.3217 9.6875C20.3217 7.10281 22.4549 5 25.0769 5C27.699 5 29.8322 7.10281 29.8322 9.6875ZM27.4545 9.6875C27.4545 8.39516 26.3879 7.34375 25.0769 7.34375C23.7659 7.34375 22.6993 8.39516 22.6993 9.6875C22.6993 10.9798 23.7659 12.0312 25.0769 12.0312C26.3879 12.0312 27.4545 10.9798 27.4545 9.6875ZM16.4252 41.7058L16 45H23.0331L23.2582 44.1123C23.4246 43.4701 24.0348 42.6562 25.0769 42.6562C26.4348 42.6562 26.8459 43.9377 26.8967 44.1168L27.1012 45H34.1538L33.7287 41.7058C36.5496 39.2375 38.1538 35.7202 38.1538 31.9531C38.1538 29.2537 37.2855 26.3136 35.7746 23.75H38.1538V22.5781C38.1538 19.3473 35.4873 16.7188 32.2098 16.7188H28.6434V17.3814C27.479 16.9419 26.2855 16.7188 25.0769 16.7188C23.8683 16.7188 22.6748 16.9419 21.5105 17.3814V16.7188H17.9441C14.6665 16.7188 12 19.3473 12 22.5781V23.7492L14.3792 23.75C12.8684 26.3136 12 29.2537 12 31.9531C12 35.7202 13.6043 39.2376 16.4252 41.7058ZM31.021 19.0625H32.2098C33.7598 19.0625 35.0819 20.0421 35.5725 21.4062H31.021V19.0625ZM17.9441 19.0625H19.1329V21.4062H14.5813C15.072 20.0421 16.3941 19.0625 17.9441 19.0625ZM21.5105 23.75V19.9433C22.6759 19.3591 23.8728 19.0625 25.0769 19.0625C26.281 19.0625 27.4779 19.3591 28.6434 19.9433V23.75H32.9507C34.7273 26.2063 35.7762 29.2328 35.7762 31.9531C35.7762 37.2568 32.1524 39.995 31.3547 40.5977C31.2709 40.6611 31.2183 40.7008 31.2044 40.7175L31.4546 42.6562H28.8535C28.2838 41.5687 27.0928 40.3125 25.077 40.3125C23.0613 40.3125 21.8702 41.5687 21.3005 42.6562H18.6994L18.9496 40.7175C18.935 40.7 18.8805 40.659 18.7939 40.5939C17.9852 39.9852 14.3776 37.2701 14.3776 31.9531C14.3776 29.2328 15.4265 26.2063 17.2032 23.75H21.5105ZM19.1329 28.4375V26.0938H21.5105V28.4375H19.1329ZM28.6434 28.4375V26.0938H31.021V28.4375H28.6434ZM31.021 33.2031C31.021 35.6009 28.6357 37.8906 25.0769 37.8906C21.5532 37.8906 19.1329 35.6257 19.1329 33.2031C19.1329 30.5753 21.7994 28.4375 25.0769 28.4375C28.3545 28.4375 31.021 30.5753 31.021 33.2031ZM28.6434 33.2031C28.6434 31.913 26.9768 30.7812 25.0769 30.7812C23.177 30.7812 21.5105 31.913 21.5105 33.2031C21.5105 34.4736 23.1437 35.5469 25.0769 35.5469C27.0102 35.5469 28.6434 34.4736 28.6434 33.2031Z" fill="#DD2A1B"/>
</svg>
