<svg width="50" height="50" viewBox="0 0 50 50" fill="none" xmlns="http://www.w3.org/2000/svg">
<path fill-rule="evenodd" clip-rule="evenodd" d="M25.2 5L25.7799 5.33199C27.3782 6.247 28.5108 6.95824 29.4209 7.52978C32.7136 9.5975 33.9246 9.82883 36.9796 10.4124C37.9111 10.5903 39.0142 10.801 40.4 11.1065V24.2602C40.4 34.2 34.9096 40.6448 25.6787 44.7853L25.2 45L24.7217 44.7844C15.5248 40.6401 10 34.2068 10 24.2601V11.1054C11.3659 10.8094 12.4582 10.6004 13.3786 10.4244C16.5545 9.81677 17.6833 9.60082 20.9394 7.55447L20.9399 7.55416C21.8567 6.97798 22.9977 6.26089 24.6201 5.33199L25.2 5ZM25.2023 42.4298C28.8958 40.7497 38.0616 36.1111 38.0616 24.26V13.0485C32.126 11.9002 31.1649 11.3909 28.1795 9.51608L28.176 9.51386C27.3994 9.02627 26.4576 8.43494 25.2 7.70222C23.9186 8.4487 22.9663 9.0472 22.1815 9.54037C19.1722 11.4316 18.2921 11.899 12.3385 13.0476V24.26C12.3385 36.0845 21.5081 40.7418 25.2023 42.4298ZM25.1995 10.4234L25.8129 10.8019C26.1476 11.0084 26.4589 11.2022 26.7522 11.3848C29.5553 13.13 30.7113 13.8496 34.8096 14.7703L35.7231 14.9756V24.2601C35.7231 31.0738 32.555 35.9288 25.7528 39.5391L25.2049 39.8299L24.6573 39.5383C17.8483 35.9131 14.6769 31.0583 14.6769 24.2601V14.9753C15.1832 14.8238 15.6253 14.7377 16.0818 14.6488C17.6609 14.3413 19.4121 14.0002 24.5863 10.8024L25.1995 10.4234ZM17.0154 16.844V24.2601C17.0154 29.5815 19.1955 33.4116 24.0308 36.4695V13.9052C21.8803 15.2294 20.3747 16.0233 17.0154 16.844ZM26.3693 36.4791C31.2047 33.4309 33.3847 29.5981 33.3847 24.2601V16.8437C30.0247 16.0217 28.5224 15.2285 26.3693 13.9038V36.4791Z" fill="#DD2A1B"/>
</svg>
