<svg width="50" height="50" viewBox="0 0 50 50" fill="none" xmlns="http://www.w3.org/2000/svg">
<path d="M6.68094 27.2274C6.70281 27.2169 8.90109 26.1719 10.9375 26.1719C12.4493 26.1719 14.2367 27.6171 14.7964 28.1724L15.6234 28.9963L16.452 28.174C17.0133 27.6171 18.8007 26.1719 20.3125 26.1719C21.5899 26.1719 23.0641 27.2038 23.8281 27.8587V41.4844C23.8281 43.4229 25.4052 45 27.3438 45C29.2823 45 30.8594 43.4229 30.8594 41.4844V39.1406H28.5156V41.4844C28.5156 42.1305 27.9899 42.6562 27.3438 42.6562C26.6976 42.6562 26.1719 42.1305 26.1719 41.4844V27.8587C26.9371 27.2028 28.4106 26.1719 29.6875 26.1719C31.1993 26.1719 32.9867 27.6171 33.5464 28.1724L34.3734 28.9963L35.202 28.174C35.7633 27.6171 37.5507 26.1719 39.0625 26.1719C41.0944 26.1719 43.2872 27.2122 43.3189 27.2273L45 28.0408V26.1719C45 15.6047 36.6916 7.90906 26.1719 7.37461V5H23.8281V7.37461C13.3048 7.9093 5 15.6081 5 26.1719L5.00148 28.0345L6.68094 27.2274ZM16.8885 24.907C17.249 20.0691 19.3941 11.524 23.8281 9.90453V24.9624C22.8511 24.3658 21.6107 23.8281 20.3125 23.8281C19.0545 23.8281 17.8509 24.333 16.8885 24.907ZM26.1719 24.9623V9.90453C30.6252 11.5311 32.7519 20.081 33.1115 24.9071C32.1491 24.333 30.9455 23.8281 29.6875 23.8281C28.3893 23.8281 27.1489 24.3658 26.1719 24.9623ZM42.5681 24.4336C41.5933 24.1248 40.3277 23.8281 39.0625 23.8281C37.729 23.8281 36.4567 24.3955 35.468 25.0111C35.1448 20.1905 33.6891 14.2397 30.6261 10.4786C37.2063 12.4098 41.8787 17.7065 42.5681 24.4336ZM19.3739 10.4786C16.311 14.2397 14.8552 20.1905 14.532 25.0111C13.5433 24.3955 12.271 23.8281 10.9375 23.8281C9.67234 23.8281 8.40672 24.1248 7.43187 24.4336C8.12133 17.7065 12.7937 12.4098 19.3739 10.4786Z" fill="#DD2A1B"/>
</svg>
