<svg width="50" height="50" viewBox="0 0 50 50" fill="none" xmlns="http://www.w3.org/2000/svg">
<rect width="50" height="50" fill="white"/>
<path fill-rule="evenodd" clip-rule="evenodd" d="M25 45.25C30.016 45.25 34.607 43.4257 38.144 40.405L38.1887 40.4496L40.449 38.1893L40.4044 38.1447C43.4254 34.6076 45.25 30.0163 45.25 25C45.25 13.8162 36.1838 4.75 25 4.75C19.9837 4.75 15.3924 6.57456 11.8553 9.59559L11.8112 9.55144L10.763 10.5996C10.7082 10.6538 10.6528 10.7092 10.5986 10.764L9.55084 11.8118L9.59504 11.856C6.57434 15.393 4.75 19.984 4.75 25C4.75 36.1838 13.8162 45.25 25 45.25ZM38.1357 35.876L14.124 11.8643C17.0762 9.41717 20.8658 7.94663 25 7.94663C34.4183 7.94663 42.0534 15.5817 42.0534 25C42.0534 29.1342 40.5828 32.9238 38.1357 35.876ZM7.94663 25C7.94663 20.8661 9.41695 17.0768 11.8637 14.1247L35.8753 38.1363C32.9232 40.583 29.1339 42.0534 25 42.0534C15.5817 42.0534 7.94663 34.4183 7.94663 25Z" fill="#DD2A1B"/>
</svg>
