<svg width="30" height="30" viewBox="0 0 30 30" fill="none" xmlns="http://www.w3.org/2000/svg">
<path d="M15 28.62C7.53 28.62 1.41 22.47 1.41 15C1.41 13.32 1.71 11.73 2.28 10.23L10.23 26.22C10.32 26.43 10.47 26.61 10.71 26.61C10.95 26.61 11.1 26.43 11.19 26.22L14.85 18.03C14.88 17.94 14.94 17.85 15.03 17.85C15.12 17.85 15.15 17.94 15.21 18.03L18.87 26.22C18.96 26.43 19.11 26.61 19.35 26.61C19.59 26.61 19.74 26.43 19.83 26.22L27.78 10.23C28.35 11.73 28.65 13.32 28.65 15C28.59 22.47 22.47 28.62 15 28.62ZM15 11.91C14.91 11.91 14.88 11.82 14.82 11.73L10.56 2.13C11.94 1.62 13.44 1.35 15 1.35C16.56 1.35 18.06 1.62 19.44 2.13L15.18 11.73C15.12 11.85 15.09 11.91 15 11.91ZM10.65 21.78C10.56 21.78 10.53 21.69 10.47 21.6L3.57 7.68C4.8 5.79 6.45 4.2 8.46 3.09L13.44 14.16C13.5 14.34 13.65 14.4 13.8 14.4H16.2C16.38 14.4 16.5 14.37 16.59 14.16L21.57 3.09C23.55 4.2 25.23 5.79 26.46 7.68L19.5 21.6C19.47 21.69 19.41 21.78 19.32 21.78C19.23 21.78 19.2 21.69 19.14 21.6L16.53 15.66C16.44 15.45 16.32 15.42 16.14 15.42H13.74C13.56 15.42 13.44 15.45 13.35 15.66L10.83 21.6C10.8 21.69 10.74 21.78 10.65 21.78ZM15 30C23.31 30 30 23.31 30 15C30 6.69 23.31 0 15 0C6.69 0 0 6.69 0 15C0 23.31 6.69 30 15 30Z" fill="white"/>
</svg>
