<svg width="40" height="41" viewBox="0 0 40 41" fill="none" xmlns="http://www.w3.org/2000/svg">
<path fill-rule="evenodd" clip-rule="evenodd" d="M18.1406 5.16992C18.1406 5.18621 18.0625 5.19922 17.9648 5.19922C17.8672 5.19922 17.7891 5.21223 17.7891 5.22852C17.7891 5.24463 17.7363 5.25781 17.6719 5.25781C17.6074 5.25781 17.5547 5.271 17.5547 5.28711C17.5547 5.30322 17.502 5.31641 17.4375 5.31641C17.373 5.31641 17.3203 5.32959 17.3203 5.3457C17.3203 5.36182 17.2808 5.375 17.2324 5.375C17.1841 5.375 17.1445 5.38818 17.1445 5.4043C17.1445 5.42041 17.1182 5.43359 17.0859 5.43359C17.0537 5.43359 17.0273 5.44678 17.0273 5.46289C17.0273 5.479 16.9878 5.49219 16.9395 5.49219C16.8911 5.49219 16.8516 5.50537 16.8516 5.52148C16.8516 5.5376 16.8252 5.55078 16.793 5.55078C16.7607 5.55078 16.7344 5.56396 16.7344 5.58008C16.7344 5.59619 16.708 5.60938 16.6758 5.60938C16.6436 5.60938 16.6172 5.62256 16.6172 5.63867C16.6172 5.65479 16.5937 5.66797 16.5651 5.66797C16.5364 5.66797 16.4939 5.69434 16.4707 5.72656C16.4475 5.75879 16.4079 5.78516 16.3828 5.78516C16.3577 5.78516 16.3182 5.81152 16.2949 5.84375C16.2717 5.87598 16.2321 5.90234 16.207 5.90234C16.1819 5.90234 16.1424 5.92871 16.1191 5.96094C16.0959 5.99316 16.0594 6.01953 16.038 6.01953C16.0166 6.01953 15.9081 6.11182 15.7969 6.22461C15.6856 6.3374 15.5742 6.42969 15.5493 6.42969C15.5243 6.42969 15.5039 6.4502 15.5039 6.47524C15.5039 6.50032 15.4248 6.59847 15.3281 6.69336C15.2314 6.78825 15.1523 6.8835 15.1523 6.905C15.1523 6.9265 15.126 6.9631 15.0938 6.98633C15.0615 7.00956 15.0352 7.04911 15.0352 7.07422C15.0352 7.09933 15.0088 7.13888 14.9766 7.16211C14.9443 7.18534 14.918 7.22489 14.918 7.25C14.918 7.27511 14.8916 7.31466 14.8594 7.33789C14.8271 7.36112 14.8008 7.40357 14.8008 7.43226C14.8008 7.46091 14.7876 7.48438 14.7715 7.48438C14.7554 7.48438 14.7422 7.51074 14.7422 7.54297C14.7422 7.5752 14.729 7.60156 14.7129 7.60156C14.6968 7.60156 14.6836 7.62793 14.6836 7.66016C14.6836 7.69238 14.6704 7.71875 14.6543 7.71875C14.6382 7.71875 14.625 7.7583 14.625 7.80664C14.625 7.85498 14.6118 7.89453 14.5957 7.89453C14.5796 7.89453 14.5664 7.9209 14.5664 7.95312C14.5664 7.98535 14.5532 8.01172 14.5371 8.01172C14.521 8.01172 14.5078 8.05127 14.5078 8.09961C14.5078 8.14795 14.4946 8.1875 14.4785 8.1875C14.4624 8.1875 14.4492 8.24023 14.4492 8.30469C14.4492 8.36914 14.436 8.42188 14.4199 8.42188C14.4038 8.42188 14.3906 8.47461 14.3906 8.53906C14.3906 8.60352 14.3774 8.65625 14.3613 8.65625C14.345 8.65625 14.332 8.73438 14.332 8.83203C14.332 8.92968 14.319 9.00781 14.3027 9.00781C14.284 9.00781 14.2734 9.26173 14.2734 9.71094V10.4141H13.6582C13.2676 10.4141 13.043 10.4248 13.043 10.4434C13.043 10.4595 12.9771 10.4727 12.8965 10.4727C12.8159 10.4727 12.75 10.4858 12.75 10.502C12.75 10.5181 12.6973 10.5312 12.6328 10.5312C12.5684 10.5312 12.5156 10.5444 12.5156 10.5605C12.5156 10.5767 12.4893 10.5898 12.457 10.5898C12.4248 10.5898 12.3984 10.603 12.3984 10.6191C12.3984 10.6353 12.3721 10.6484 12.3398 10.6484C12.3076 10.6484 12.2812 10.6616 12.2812 10.6777C12.2812 10.6938 12.2446 10.707 12.1998 10.707C12.152 10.707 12.101 10.7312 12.0762 10.7656C12.0529 10.7979 12.0134 10.8242 11.9883 10.8242C11.9632 10.8242 11.9236 10.8506 11.9004 10.8828C11.8772 10.915 11.8411 10.9414 11.8203 10.9414C11.7708 10.9414 11.2852 11.4271 11.2852 11.4765C11.2852 11.4973 11.2588 11.5334 11.2266 11.5566C11.1943 11.5799 11.168 11.6194 11.168 11.6445C11.168 11.6696 11.1416 11.7092 11.1094 11.7324C11.075 11.7572 11.0508 11.8083 11.0508 11.8561C11.0508 11.9008 11.0376 11.9375 11.0215 11.9375C11.0054 11.9375 10.9922 11.9639 10.9922 11.9961C10.9922 12.0283 10.979 12.0547 10.9629 12.0547C10.9468 12.0547 10.9336 12.0811 10.9336 12.1133C10.9336 12.1455 10.9204 12.1719 10.9043 12.1719C10.8882 12.1719 10.875 12.2246 10.875 12.2891C10.875 12.3535 10.8618 12.4062 10.8457 12.4062C10.8296 12.4062 10.8164 12.4722 10.8164 12.5527C10.8164 12.6333 10.8032 12.6992 10.7871 12.6992C10.768 12.6992 10.7578 13.1289 10.7578 13.9297C10.7578 14.7305 10.768 15.1602 10.7871 15.1602C10.8032 15.1602 10.8164 15.2261 10.8164 15.3066C10.8164 15.3872 10.8296 15.4531 10.8457 15.4531C10.8618 15.4531 10.875 15.5059 10.875 15.5703C10.875 15.6348 10.8882 15.6875 10.9043 15.6875C10.9204 15.6875 10.9336 15.7271 10.9336 15.7754C10.9336 15.8237 10.9468 15.8633 10.9629 15.8633C10.979 15.8633 10.9922 15.8896 10.9922 15.9219C10.9922 15.9541 11.0054 15.9805 11.0215 15.9805C11.0376 15.9805 11.0508 16.0068 11.0508 16.0391C11.0508 16.0713 11.064 16.0977 11.0801 16.0977C11.0962 16.0977 11.1094 16.1211 11.1094 16.1498C11.1094 16.1785 11.1357 16.2209 11.168 16.2441C11.2002 16.2674 11.2266 16.3043 11.2266 16.3261C11.2266 16.348 11.2793 16.4166 11.3438 16.4785C11.4082 16.5404 11.4609 16.6058 11.4609 16.6237C11.4609 16.6664 11.6544 16.8594 11.6972 16.8594C11.7155 16.8594 11.7674 16.8989 11.8125 16.9473C11.8576 16.9956 11.9128 17.0352 11.935 17.0352C11.9572 17.0352 11.9943 17.0615 12.0176 17.0938C12.0408 17.126 12.0833 17.1523 12.1119 17.1523C12.1406 17.1523 12.1641 17.1655 12.1641 17.1816C12.1641 17.1978 12.1904 17.2109 12.2227 17.2109C12.2549 17.2109 12.2812 17.2241 12.2812 17.2402C12.2812 17.2563 12.3076 17.2695 12.3398 17.2695C12.3721 17.2695 12.3984 17.2827 12.3984 17.2988C12.3984 17.3149 12.438 17.3281 12.4863 17.3281C12.5347 17.3281 12.5742 17.3413 12.5742 17.3574C12.5742 17.3735 12.6138 17.3867 12.6621 17.3867C12.7104 17.3867 12.75 17.3999 12.75 17.416C12.75 17.4321 12.8159 17.4453 12.8965 17.4453C12.9771 17.4453 13.043 17.4585 13.043 17.4746C13.043 17.4932 13.2773 17.5039 13.6875 17.5039H14.332V17.5918C14.332 17.6401 14.3452 17.6797 14.3613 17.6797C14.3774 17.6797 14.3906 17.7456 14.3906 17.8262C14.3906 17.9067 14.4038 17.9727 14.4199 17.9727C14.436 17.9727 14.4492 18.0254 14.4492 18.0898C14.4492 18.1543 14.4624 18.207 14.4785 18.207C14.4946 18.207 14.5078 18.2466 14.5078 18.2949C14.5078 18.3433 14.521 18.3828 14.5371 18.3828C14.5532 18.3828 14.5664 18.4355 14.5664 18.5C14.5664 18.5645 14.5796 18.6172 14.5957 18.6172C14.6118 18.6172 14.625 18.6436 14.625 18.6758C14.625 18.708 14.6382 18.7344 14.6543 18.7344C14.6704 18.7344 14.6836 18.7739 14.6836 18.8223C14.6836 18.8706 14.6968 18.9102 14.7129 18.9102C14.729 18.9102 14.7422 18.9365 14.7422 18.9688C14.7422 19.001 14.7554 19.0273 14.7715 19.0273C14.7876 19.0273 14.8008 19.0669 14.8008 19.1152C14.8008 19.1636 14.814 19.2031 14.8301 19.2031C14.8462 19.2031 14.8594 19.2295 14.8594 19.2617C14.8594 19.2939 14.8726 19.3203 14.8887 19.3203C14.9048 19.3203 14.918 19.3467 14.918 19.3789C14.918 19.4111 14.9312 19.4375 14.9473 19.4375C14.9634 19.4375 14.9766 19.461 14.9766 19.4896C14.9766 19.5183 15.0029 19.5608 15.0352 19.584C15.0674 19.6072 15.0938 19.6497 15.0938 19.6783C15.0938 19.707 15.1069 19.7305 15.123 19.7305C15.1392 19.7305 15.1523 19.7539 15.1523 19.7826C15.1523 19.8113 15.1787 19.8537 15.2109 19.877C15.2432 19.9002 15.2695 19.9397 15.2695 19.9648C15.2695 19.99 15.2959 20.0295 15.3281 20.0527C15.3604 20.076 15.3867 20.1155 15.3867 20.1406C15.3867 20.1657 15.4131 20.2053 15.4453 20.2285C15.4775 20.2517 15.5039 20.2885 15.5039 20.3101C15.5039 20.3318 15.5698 20.4137 15.6504 20.4922C15.731 20.5707 15.7969 20.6491 15.7969 20.6664C15.7969 20.7078 16.4019 21.3125 16.4434 21.3125C16.4609 21.3125 16.526 21.3652 16.5879 21.4297C16.6498 21.4941 16.7184 21.5469 16.7403 21.5469C16.7621 21.5469 16.799 21.5732 16.8223 21.6055C16.8455 21.6377 16.885 21.6641 16.9102 21.6641C16.9353 21.6641 16.9748 21.6904 16.998 21.7227C17.0213 21.7549 17.0608 21.7812 17.0859 21.7812C17.111 21.7812 17.1506 21.8076 17.1738 21.8398C17.1971 21.8721 17.2395 21.8984 17.2682 21.8984C17.2968 21.8984 17.3203 21.9116 17.3203 21.9277C17.3203 21.9438 17.3438 21.957 17.3724 21.957C17.4011 21.957 17.4436 21.9834 17.4668 22.0156C17.49 22.0479 17.5325 22.0742 17.5612 22.0742C17.5898 22.0742 17.6133 22.0874 17.6133 22.1035C17.6133 22.1196 17.6396 22.1328 17.6719 22.1328C17.7041 22.1328 17.7305 22.146 17.7305 22.1621C17.7305 22.1782 17.7568 22.1914 17.7891 22.1914C17.8213 22.1914 17.8477 22.2046 17.8477 22.2207C17.8477 22.2368 17.8872 22.25 17.9355 22.25C17.9839 22.25 18.0234 22.2632 18.0234 22.2793C18.0234 22.2954 18.0498 22.3086 18.082 22.3086C18.1143 22.3086 18.1406 22.3218 18.1406 22.3379C18.1406 22.354 18.1802 22.3672 18.2285 22.3672C18.2769 22.3672 18.3164 22.3804 18.3164 22.3965C18.3164 22.4126 18.3428 22.4258 18.375 22.4258C18.4072 22.4258 18.4336 22.439 18.4336 22.4551C18.4336 22.4712 18.4863 22.4844 18.5508 22.4844C18.6152 22.4844 18.668 22.4976 18.668 22.5137C18.668 22.5298 18.7075 22.543 18.7559 22.543C18.8042 22.543 18.8438 22.5562 18.8438 22.5723C18.8438 22.5884 18.8965 22.6016 18.9609 22.6016C19.0254 22.6016 19.0781 22.6147 19.0781 22.6309C19.0781 22.647 19.144 22.6602 19.2246 22.6602C19.3052 22.6602 19.3711 22.6733 19.3711 22.6895C19.3711 22.7065 19.4687 22.7188 19.6055 22.7188C19.7422 22.7188 19.8398 22.731 19.8398 22.748C19.8398 22.7674 18.6582 22.7773 16.3535 22.7773C14.0488 22.7773 12.8672 22.7873 12.8672 22.8066C12.8672 22.8229 12.7891 22.8359 12.6914 22.8359C12.5938 22.8359 12.5156 22.8489 12.5156 22.8652C12.5156 22.8813 12.4629 22.8945 12.3984 22.8945C12.334 22.8945 12.2812 22.9077 12.2812 22.9238C12.2812 22.9399 12.2285 22.9531 12.1641 22.9531C12.0996 22.9531 12.0469 22.9663 12.0469 22.9824C12.0469 22.9985 12.0205 23.0117 11.9883 23.0117C11.9561 23.0117 11.9297 23.0249 11.9297 23.041C11.9297 23.0571 11.8901 23.0703 11.8418 23.0703C11.7935 23.0703 11.7539 23.0835 11.7539 23.0996C11.7539 23.1157 11.7275 23.1289 11.6953 23.1289C11.6631 23.1289 11.6367 23.1421 11.6367 23.1582C11.6367 23.1743 11.6104 23.1875 11.5781 23.1875C11.5459 23.1875 11.5195 23.2007 11.5195 23.2168C11.5195 23.2329 11.4932 23.2461 11.4609 23.2461C11.4287 23.2461 11.4023 23.2593 11.4023 23.2754C11.4023 23.2915 11.376 23.3047 11.3438 23.3047C11.3115 23.3047 11.2852 23.3179 11.2852 23.334C11.2852 23.3501 11.2588 23.3633 11.2266 23.3633C11.1943 23.3633 11.168 23.3765 11.168 23.3926C11.168 23.4087 11.1445 23.4219 11.1158 23.4219C11.0872 23.4219 11.0447 23.4482 11.0215 23.4805C10.9983 23.5127 10.9614 23.5391 10.9395 23.5391C10.9176 23.5391 10.849 23.5918 10.7871 23.6562C10.7252 23.7207 10.6601 23.7734 10.6426 23.7734C10.6005 23.7734 9.99609 24.3784 9.99609 24.4205C9.99609 24.4384 9.95654 24.49 9.9082 24.5352C9.85986 24.5803 9.82031 24.6354 9.82031 24.6576C9.82031 24.6798 9.79395 24.717 9.76172 24.7402C9.72949 24.7635 9.70312 24.803 9.70312 24.8281C9.70312 24.8532 9.67676 24.8928 9.64453 24.916C9.6123 24.9392 9.58594 24.9817 9.58594 25.0104C9.58594 25.039 9.57275 25.0625 9.55664 25.0625C9.54053 25.0625 9.52734 25.0889 9.52734 25.1211C9.52734 25.1533 9.51416 25.1797 9.49805 25.1797C9.48193 25.1797 9.46875 25.2061 9.46875 25.2383C9.46875 25.2705 9.45557 25.2969 9.43945 25.2969C9.42334 25.2969 9.41016 25.3232 9.41016 25.3555C9.41016 25.3877 9.39697 25.4141 9.38086 25.4141C9.36475 25.4141 9.35156 25.4536 9.35156 25.502C9.35156 25.5503 9.33838 25.5898 9.32227 25.5898C9.30615 25.5898 9.29297 25.6162 9.29297 25.6484C9.29297 25.6807 9.27979 25.707 9.26367 25.707C9.24756 25.707 9.23438 25.7466 9.23438 25.7949C9.23438 25.8433 9.22119 25.8828 9.20508 25.8828C9.18896 25.8828 9.17578 25.9355 9.17578 26C9.17578 26.0645 9.1626 26.1172 9.14648 26.1172C9.13037 26.1172 9.11719 26.1699 9.11719 26.2344C9.11719 26.2988 9.104 26.3516 9.08789 26.3516C9.0716 26.3516 9.05859 26.4297 9.05859 26.5273C9.05859 26.625 9.04559 26.7031 9.0293 26.7031C9.0099 26.7031 9 28.0215 9 30.5996C9 33.1777 9.0099 34.4961 9.0293 34.4961C9.04541 34.4961 9.05859 34.5225 9.05859 34.5547C9.05859 34.5869 9.07178 34.6133 9.08789 34.6133C9.104 34.6133 9.11719 34.6396 9.11719 34.6719C9.11719 34.7041 9.13037 34.7305 9.14648 34.7305C9.1626 34.7305 9.17578 34.7508 9.17578 34.7757C9.17578 34.8344 9.30627 34.9648 9.36489 34.9648C9.38979 34.9648 9.41016 34.978 9.41016 34.9941C9.41016 35.0103 9.43652 35.0234 9.46875 35.0234C9.50098 35.0234 9.52734 35.0366 9.52734 35.0527C9.52734 35.0688 9.55371 35.082 9.58594 35.082C9.61816 35.082 9.64453 35.0952 9.64453 35.1113C9.64453 35.1308 13.2578 35.1406 20.4258 35.1406C27.5938 35.1406 31.207 35.1308 31.207 35.1113C31.207 35.0952 31.2334 35.082 31.2656 35.082C31.2979 35.082 31.3242 35.0688 31.3242 35.0527C31.3242 35.0366 31.3506 35.0234 31.3828 35.0234C31.415 35.0234 31.4414 35.0103 31.4414 34.9941C31.4414 34.978 31.4618 34.9648 31.4867 34.9648C31.5453 34.9648 31.6758 34.8344 31.6758 34.7757C31.6758 34.7508 31.689 34.7305 31.7051 34.7305C31.7212 34.7305 31.7344 34.7041 31.7344 34.6719C31.7344 34.6396 31.7476 34.6133 31.7637 34.6133C31.7798 34.6133 31.793 34.5869 31.793 34.5547C31.793 34.5225 31.8062 34.4961 31.8223 34.4961C31.8417 34.4961 31.8516 33.1777 31.8516 30.5996C31.8516 28.0215 31.8417 26.7031 31.8223 26.7031C31.806 26.7031 31.793 26.625 31.793 26.5273C31.793 26.4297 31.78 26.3516 31.7637 26.3516C31.7476 26.3516 31.7344 26.2988 31.7344 26.2344C31.7344 26.1699 31.7212 26.1172 31.7051 26.1172C31.689 26.1172 31.6758 26.0645 31.6758 26C31.6758 25.9355 31.6626 25.8828 31.6465 25.8828C31.6304 25.8828 31.6172 25.8433 31.6172 25.7949C31.6172 25.7466 31.604 25.707 31.5879 25.707C31.5718 25.707 31.5586 25.6807 31.5586 25.6484C31.5586 25.6162 31.5454 25.5898 31.5293 25.5898C31.5132 25.5898 31.5 25.5503 31.5 25.502C31.5 25.4536 31.4868 25.4141 31.4707 25.4141C31.4546 25.4141 31.4414 25.3877 31.4414 25.3555C31.4414 25.3232 31.4282 25.2969 31.4121 25.2969C31.396 25.2969 31.3828 25.2705 31.3828 25.2383C31.3828 25.2061 31.3696 25.1797 31.3535 25.1797C31.3374 25.1797 31.3242 25.1533 31.3242 25.1211C31.3242 25.0889 31.311 25.0625 31.2949 25.0625C31.2788 25.0625 31.2656 25.039 31.2656 25.0104C31.2656 24.9817 31.2393 24.9392 31.207 24.916C31.1748 24.8928 31.1484 24.8532 31.1484 24.8281C31.1484 24.803 31.1221 24.7635 31.0898 24.7402C31.0576 24.717 31.0312 24.6798 31.0312 24.6576C31.0312 24.6354 30.9917 24.5803 30.9434 24.5352C30.895 24.49 30.8555 24.4384 30.8555 24.4205C30.8555 24.3748 30.1905 23.7148 30.1445 23.7148C30.1237 23.7148 30.0877 23.6885 30.0645 23.6562C30.0412 23.624 30.0017 23.5977 29.9766 23.5977C29.9515 23.5977 29.9119 23.5713 29.8887 23.5391C29.8654 23.5068 29.8259 23.4805 29.8008 23.4805C29.7757 23.4805 29.7361 23.4541 29.7129 23.4219C29.6897 23.3896 29.6472 23.3633 29.6185 23.3633C29.5899 23.3633 29.5664 23.3501 29.5664 23.334C29.5664 23.3179 29.54 23.3047 29.5078 23.3047C29.4756 23.3047 29.4492 23.2915 29.4492 23.2754C29.4492 23.2593 29.4229 23.2461 29.3906 23.2461C29.3584 23.2461 29.332 23.2329 29.332 23.2168C29.332 23.2007 29.3057 23.1875 29.2734 23.1875C29.2412 23.1875 29.2148 23.1743 29.2148 23.1582C29.2148 23.1421 29.1885 23.1289 29.1562 23.1289C29.124 23.1289 29.0977 23.1157 29.0977 23.0996C29.0977 23.0835 29.0581 23.0703 29.0098 23.0703C28.9614 23.0703 28.9219 23.0571 28.9219 23.041C28.9219 23.0249 28.8823 23.0117 28.834 23.0117C28.7856 23.0117 28.7461 22.9985 28.7461 22.9824C28.7461 22.9663 28.7065 22.9531 28.6582 22.9531C28.6099 22.9531 28.5703 22.9399 28.5703 22.9238C28.5703 22.9077 28.5176 22.8945 28.4531 22.8945C28.3887 22.8945 28.3359 22.8813 28.3359 22.8652C28.3359 22.8489 28.2578 22.8359 28.1602 22.8359C28.0625 22.8359 27.9844 22.8229 27.9844 22.8066C27.9844 22.7873 26.8027 22.7773 24.498 22.7773C22.1933 22.7773 21.0117 22.7674 21.0117 22.748C21.0117 22.731 21.1094 22.7188 21.2461 22.7188C21.3828 22.7188 21.4805 22.7065 21.4805 22.6895C21.4805 22.6733 21.5464 22.6602 21.627 22.6602C21.7075 22.6602 21.7734 22.647 21.7734 22.6309C21.7734 22.6147 21.8262 22.6016 21.8906 22.6016C21.9551 22.6016 22.0078 22.5884 22.0078 22.5723C22.0078 22.5562 22.0474 22.543 22.0957 22.543C22.144 22.543 22.1836 22.5298 22.1836 22.5137C22.1836 22.4976 22.2231 22.4844 22.2715 22.4844C22.3198 22.4844 22.3594 22.4712 22.3594 22.4551C22.3594 22.439 22.3989 22.4258 22.4473 22.4258C22.4956 22.4258 22.5352 22.4126 22.5352 22.3965C22.5352 22.3804 22.5747 22.3672 22.623 22.3672C22.6714 22.3672 22.7109 22.354 22.7109 22.3379C22.7109 22.3218 22.7373 22.3086 22.7695 22.3086C22.8018 22.3086 22.8281 22.2954 22.8281 22.2793C22.8281 22.2632 22.8677 22.25 22.916 22.25C22.9644 22.25 23.0039 22.2368 23.0039 22.2207C23.0039 22.2046 23.0303 22.1914 23.0625 22.1914C23.0947 22.1914 23.1211 22.1782 23.1211 22.1621C23.1211 22.146 23.1475 22.1328 23.1797 22.1328C23.2119 22.1328 23.2383 22.1196 23.2383 22.1035C23.2383 22.0874 23.2617 22.0742 23.2904 22.0742C23.3191 22.0742 23.3615 22.0479 23.3848 22.0156C23.408 21.9834 23.4504 21.957 23.4791 21.957C23.5078 21.957 23.5312 21.9438 23.5312 21.9277C23.5312 21.9116 23.5547 21.8984 23.5834 21.8984C23.6121 21.8984 23.6545 21.8721 23.6777 21.8398C23.701 21.8076 23.7405 21.7812 23.7656 21.7812C23.7907 21.7812 23.8303 21.7549 23.8535 21.7227C23.8767 21.6904 23.9163 21.6641 23.9414 21.6641C23.9665 21.6641 24.0061 21.6377 24.0293 21.6055C24.0525 21.5732 24.0894 21.5469 24.1113 21.5469C24.1332 21.5469 24.2017 21.4941 24.2637 21.4297C24.3256 21.3652 24.3906 21.3125 24.4082 21.3125C24.4498 21.3125 25.1133 20.649 25.1133 20.6074C25.1133 20.5898 25.166 20.5248 25.2305 20.4629C25.2949 20.401 25.3477 20.3324 25.3477 20.3105C25.3477 20.2886 25.374 20.2517 25.4062 20.2285C25.4385 20.2053 25.4648 20.1657 25.4648 20.1406C25.4648 20.1155 25.4912 20.076 25.5234 20.0527C25.5557 20.0295 25.582 19.99 25.582 19.9648C25.582 19.9397 25.6084 19.9002 25.6406 19.877C25.6729 19.8537 25.6992 19.8113 25.6992 19.7826C25.6992 19.7539 25.7124 19.7305 25.7285 19.7305C25.7446 19.7305 25.7578 19.707 25.7578 19.6783C25.7578 19.6497 25.7842 19.6072 25.8164 19.584C25.8486 19.5608 25.875 19.5183 25.875 19.4896C25.875 19.461 25.8882 19.4375 25.9043 19.4375C25.9204 19.4375 25.9336 19.4111 25.9336 19.3789C25.9336 19.3467 25.9468 19.3203 25.9629 19.3203C25.979 19.3203 25.9922 19.2939 25.9922 19.2617C25.9922 19.2295 26.0054 19.2031 26.0215 19.2031C26.0376 19.2031 26.0508 19.1636 26.0508 19.1152C26.0508 19.0669 26.064 19.0273 26.0801 19.0273C26.0962 19.0273 26.1094 19.001 26.1094 18.9688C26.1094 18.9365 26.1226 18.9102 26.1387 18.9102C26.1548 18.9102 26.168 18.8706 26.168 18.8223C26.168 18.7739 26.1812 18.7344 26.1973 18.7344C26.2134 18.7344 26.2266 18.708 26.2266 18.6758C26.2266 18.6436 26.2397 18.6172 26.2559 18.6172C26.272 18.6172 26.2852 18.5645 26.2852 18.5C26.2852 18.4355 26.2983 18.3828 26.3145 18.3828C26.3306 18.3828 26.3438 18.3433 26.3438 18.2949C26.3438 18.2466 26.3569 18.207 26.373 18.207C26.3892 18.207 26.4023 18.1543 26.4023 18.0898C26.4023 18.0254 26.4155 17.9727 26.4316 17.9727C26.4478 17.9727 26.4609 17.9067 26.4609 17.8262C26.4609 17.7456 26.4741 17.6797 26.4902 17.6797C26.5063 17.6797 26.5195 17.6401 26.5195 17.5918V17.5039H27.1641C27.5742 17.5039 27.8086 17.4932 27.8086 17.4746C27.8086 17.4585 27.8745 17.4453 27.9551 17.4453C28.0356 17.4453 28.1016 17.4321 28.1016 17.416C28.1016 17.3999 28.1411 17.3867 28.1895 17.3867C28.2378 17.3867 28.2773 17.3735 28.2773 17.3574C28.2773 17.3413 28.3169 17.3281 28.3652 17.3281C28.4136 17.3281 28.4531 17.3149 28.4531 17.2988C28.4531 17.2827 28.4795 17.2695 28.5117 17.2695C28.5439 17.2695 28.5703 17.2563 28.5703 17.2402C28.5703 17.2241 28.5967 17.2109 28.6289 17.2109C28.6611 17.2109 28.6875 17.1978 28.6875 17.1816C28.6875 17.1655 28.711 17.1523 28.7396 17.1523C28.7683 17.1523 28.8108 17.126 28.834 17.0938C28.8572 17.0615 28.8944 17.0352 28.9166 17.0352C28.9388 17.0352 28.9939 16.9956 29.0391 16.9473C29.0842 16.8989 29.1361 16.8594 29.1543 16.8594C29.1971 16.8594 29.3906 16.6664 29.3906 16.6237C29.3906 16.6058 29.4434 16.5404 29.5078 16.4785C29.5723 16.4166 29.625 16.348 29.625 16.3261C29.625 16.3043 29.6514 16.2674 29.6836 16.2441C29.7158 16.2209 29.7422 16.1785 29.7422 16.1498C29.7422 16.1211 29.7554 16.0977 29.7715 16.0977C29.7876 16.0977 29.8008 16.0713 29.8008 16.0391C29.8008 16.0068 29.814 15.9805 29.8301 15.9805C29.8462 15.9805 29.8594 15.9541 29.8594 15.9219C29.8594 15.8896 29.8726 15.8633 29.8887 15.8633C29.9048 15.8633 29.918 15.8237 29.918 15.7754C29.918 15.7271 29.9312 15.6875 29.9473 15.6875C29.9634 15.6875 29.9766 15.6348 29.9766 15.5703C29.9766 15.5059 29.9897 15.4531 30.0059 15.4531C30.022 15.4531 30.0352 15.3872 30.0352 15.3066C30.0352 15.2261 30.0483 15.1602 30.0645 15.1602C30.0835 15.1602 30.0938 14.7305 30.0938 13.9297C30.0938 13.1289 30.0835 12.6992 30.0645 12.6992C30.0483 12.6992 30.0352 12.6333 30.0352 12.5527C30.0352 12.4722 30.022 12.4062 30.0059 12.4062C29.9897 12.4062 29.9766 12.3535 29.9766 12.2891C29.9766 12.2246 29.9634 12.1719 29.9473 12.1719C29.9312 12.1719 29.918 12.1455 29.918 12.1133C29.918 12.0811 29.9048 12.0547 29.8887 12.0547C29.8726 12.0547 29.8594 12.0283 29.8594 11.9961C29.8594 11.9639 29.8462 11.9375 29.8301 11.9375C29.814 11.9375 29.8008 11.9008 29.8008 11.8561C29.8008 11.8083 29.7766 11.7572 29.7422 11.7324C29.71 11.7092 29.6836 11.6696 29.6836 11.6445C29.6836 11.6194 29.6572 11.5799 29.625 11.5566C29.5928 11.5334 29.5664 11.4973 29.5664 11.4765C29.5664 11.4271 29.0807 10.9414 29.0313 10.9414C29.0105 10.9414 28.9744 10.915 28.9512 10.8828C28.9279 10.8506 28.8884 10.8242 28.8633 10.8242C28.8382 10.8242 28.7986 10.7979 28.7754 10.7656C28.7506 10.7312 28.6995 10.707 28.6517 10.707C28.607 10.707 28.5703 10.6938 28.5703 10.6777C28.5703 10.6616 28.5439 10.6484 28.5117 10.6484C28.4795 10.6484 28.4531 10.6353 28.4531 10.6191C28.4531 10.603 28.4268 10.5898 28.3945 10.5898C28.3623 10.5898 28.3359 10.5767 28.3359 10.5605C28.3359 10.5444 28.2832 10.5312 28.2188 10.5312C28.1543 10.5312 28.1016 10.5181 28.1016 10.502C28.1016 10.4858 28.0356 10.4727 27.9551 10.4727C27.8745 10.4727 27.8086 10.4595 27.8086 10.4434C27.8086 10.4247 27.5742 10.4141 27.1641 10.4141H26.5195V10.3262C26.5195 10.2778 26.5063 10.2383 26.4902 10.2383C26.4741 10.2383 26.4609 10.1724 26.4609 10.0918C26.4609 10.0112 26.4478 9.94531 26.4316 9.94531C26.4155 9.94531 26.4023 9.89258 26.4023 9.82812C26.4023 9.76367 26.3892 9.71094 26.373 9.71094C26.3569 9.71094 26.3438 9.67139 26.3438 9.62305C26.3438 9.57471 26.3306 9.53516 26.3145 9.53516C26.2983 9.53516 26.2852 9.48242 26.2852 9.41797C26.2852 9.35352 26.272 9.30078 26.2559 9.30078C26.2397 9.30078 26.2266 9.27441 26.2266 9.24219C26.2266 9.20996 26.2134 9.18359 26.1973 9.18359C26.1812 9.18359 26.168 9.14404 26.168 9.0957C26.168 9.04736 26.1548 9.00781 26.1387 9.00781C26.1226 9.00781 26.1094 8.98145 26.1094 8.94922C26.1094 8.91699 26.0962 8.89062 26.0801 8.89062C26.064 8.89062 26.0508 8.85107 26.0508 8.80273C26.0508 8.75439 26.0376 8.71484 26.0215 8.71484C26.0054 8.71484 25.9922 8.68848 25.9922 8.65625C25.9922 8.62402 25.979 8.59766 25.9629 8.59766C25.9468 8.59766 25.9336 8.57129 25.9336 8.53906C25.9336 8.50684 25.9204 8.48047 25.9043 8.48047C25.8882 8.48047 25.875 8.4541 25.875 8.42188C25.875 8.38965 25.8618 8.36328 25.8457 8.36328C25.8296 8.36328 25.8164 8.33981 25.8164 8.31116C25.8164 8.28248 25.79 8.24003 25.7578 8.2168C25.7256 8.19356 25.6992 8.15401 25.6992 8.12891C25.6992 8.1038 25.6729 8.06425 25.6406 8.04102C25.6084 8.01778 25.582 7.97533 25.582 7.94665C25.582 7.918 25.5688 7.89453 25.5527 7.89453C25.5366 7.89453 25.5234 7.87347 25.5234 7.84769C25.5234 7.82193 25.4839 7.7639 25.4355 7.71875C25.3872 7.6736 25.3477 7.62113 25.3477 7.60215C25.3477 7.58319 25.2949 7.51701 25.2305 7.45508C25.166 7.39314 25.1133 7.32755 25.1133 7.30927C25.1133 7.29099 25.0342 7.19841 24.9375 7.10352C24.7644 6.93365 24.7617 6.92844 24.7617 6.76821C24.7617 6.67871 24.7749 6.60547 24.791 6.60547C24.8092 6.60547 24.8203 6.44923 24.8203 6.19531C24.8203 5.9414 24.8092 5.78516 24.791 5.78516C24.7749 5.78516 24.7617 5.75879 24.7617 5.72656C24.7617 5.69434 24.7485 5.66797 24.7324 5.66797C24.7163 5.66797 24.7031 5.6416 24.7031 5.60938C24.7031 5.57715 24.6899 5.55078 24.6738 5.55078C24.6577 5.55078 24.6445 5.53042 24.6445 5.50552C24.6445 5.44689 24.514 5.31641 24.4554 5.31641C24.4305 5.31641 24.4102 5.30322 24.4102 5.28711C24.4102 5.271 24.3838 5.25781 24.3516 5.25781C24.3193 5.25781 24.293 5.24463 24.293 5.22852C24.293 5.2124 24.2666 5.19922 24.2344 5.19922C24.2021 5.19922 24.1758 5.18604 24.1758 5.16992C24.1758 5.15059 23.1504 5.14062 21.1582 5.14062C19.166 5.14062 18.1406 5.15059 18.1406 5.16992ZM22.9453 7.01562C22.9453 7.08008 22.9321 7.13281 22.916 7.13281C22.8999 7.13281 22.8867 7.17236 22.8867 7.2207C22.8867 7.26904 22.8735 7.30859 22.8574 7.30859C22.8413 7.30859 22.8281 7.34814 22.8281 7.39648C22.8281 7.44482 22.8149 7.48438 22.7988 7.48438C22.7827 7.48438 22.7695 7.52393 22.7695 7.57227C22.7695 7.62061 22.7563 7.66016 22.7402 7.66016C22.7241 7.66016 22.7109 7.68652 22.7109 7.71875C22.7109 7.75098 22.6978 7.77734 22.6816 7.77734C22.6655 7.77734 22.6523 7.81689 22.6523 7.86523C22.6523 7.91357 22.6392 7.95312 22.623 7.95312C22.6069 7.95312 22.5938 7.97659 22.5938 8.00524C22.5938 8.03393 22.5674 8.07638 22.5352 8.09961C22.5029 8.12284 22.4766 8.16529 22.4766 8.19397C22.4766 8.22263 22.4634 8.24609 22.4473 8.24609C22.4312 8.24609 22.418 8.26956 22.418 8.29821C22.418 8.32689 22.3916 8.36935 22.3594 8.39258C22.3271 8.41581 22.3008 8.45299 22.3008 8.4752C22.3008 8.49737 22.2612 8.55251 22.2129 8.59766C22.1646 8.6428 22.125 8.69437 22.125 8.71221C22.125 8.75788 21.3427 9.53516 21.2968 9.53516C21.276 9.53516 21.24 9.56152 21.2168 9.59375C21.1936 9.62598 21.154 9.65234 21.1289 9.65234C21.1038 9.65234 21.0642 9.67871 21.041 9.71094C21.0178 9.74316 20.9753 9.76953 20.9467 9.76953C20.918 9.76953 20.8945 9.78271 20.8945 9.79883C20.8945 9.81494 20.8682 9.82812 20.8359 9.82812C20.8037 9.82812 20.7773 9.84131 20.7773 9.85742C20.7773 9.87354 20.7539 9.88672 20.7252 9.88672C20.6965 9.88672 20.6541 9.91309 20.6309 9.94531C20.606 9.97971 20.555 10.0039 20.5072 10.0039C20.4624 10.0039 20.4258 10.0171 20.4258 10.0332C20.4258 10.0493 20.3994 10.0625 20.3672 10.0625C20.335 10.0625 20.3086 10.0757 20.3086 10.0918C20.3086 10.1079 20.269 10.1211 20.2207 10.1211C20.1724 10.1211 20.1328 10.1343 20.1328 10.1504C20.1328 10.1665 20.0933 10.1797 20.0449 10.1797C19.9966 10.1797 19.957 10.1929 19.957 10.209C19.957 10.2251 19.9175 10.2383 19.8691 10.2383C19.8208 10.2383 19.7812 10.2515 19.7812 10.2676C19.7812 10.2837 19.7285 10.2969 19.6641 10.2969C19.5996 10.2969 19.5469 10.3101 19.5469 10.3262C19.5469 10.3429 19.459 10.3555 19.3418 10.3555C19.2246 10.3555 19.1367 10.368 19.1367 10.3848C19.1367 10.4039 18.5996 10.4141 17.584 10.4141H16.0312V9.79883C16.0312 9.40821 16.0419 9.18359 16.0605 9.18359C16.0767 9.18359 16.0898 9.11768 16.0898 9.03711C16.0898 8.95654 16.103 8.89062 16.1191 8.89062C16.1353 8.89062 16.1484 8.83789 16.1484 8.77344C16.1484 8.70898 16.1616 8.65625 16.1777 8.65625C16.1938 8.65625 16.207 8.62988 16.207 8.59766C16.207 8.56543 16.2202 8.53906 16.2363 8.53906C16.2524 8.53906 16.2656 8.5127 16.2656 8.48047C16.2656 8.44824 16.2788 8.42188 16.2949 8.42188C16.311 8.42188 16.3242 8.39551 16.3242 8.36328C16.3242 8.33105 16.3374 8.30469 16.3535 8.30469C16.3696 8.30469 16.3828 8.27832 16.3828 8.24609C16.3828 8.21387 16.396 8.1875 16.4121 8.1875C16.4282 8.1875 16.4414 8.16403 16.4414 8.13538C16.4414 8.1067 16.4678 8.06425 16.5 8.04102C16.5322 8.01778 16.5586 7.98172 16.5586 7.96089C16.5586 7.91146 17.0443 7.42578 17.0937 7.42578C17.1145 7.42578 17.1506 7.39941 17.1738 7.36719C17.1971 7.33496 17.2366 7.30859 17.2617 7.30859C17.2868 7.30859 17.3264 7.28223 17.3496 7.25C17.3744 7.21561 17.4255 7.19141 17.4733 7.19141C17.518 7.19141 17.5547 7.17822 17.5547 7.16211C17.5547 7.146 17.5811 7.13281 17.6133 7.13281C17.6455 7.13281 17.6719 7.11963 17.6719 7.10352C17.6719 7.0874 17.6982 7.07422 17.7305 7.07422C17.7627 7.07422 17.7891 7.06104 17.7891 7.04492C17.7891 7.02881 17.8418 7.01562 17.9062 7.01562C17.9707 7.01562 18.0234 7.00244 18.0234 6.98633C18.0234 6.97021 18.0894 6.95703 18.1699 6.95703C18.2505 6.95703 18.3164 6.94385 18.3164 6.92773C18.3164 6.90846 19.1074 6.89844 20.6309 6.89844H22.9453V7.01562ZM24.1758 9.00134C24.1758 9.03002 24.2021 9.07247 24.2344 9.0957C24.2666 9.11894 24.293 9.16139 24.293 9.19007C24.293 9.21872 24.3062 9.24219 24.3223 9.24219C24.3384 9.24219 24.3516 9.26855 24.3516 9.30078C24.3516 9.33301 24.3647 9.35938 24.3809 9.35938C24.397 9.35938 24.4102 9.39893 24.4102 9.44727C24.4102 9.49561 24.4233 9.53516 24.4395 9.53516C24.4556 9.53516 24.4688 9.56152 24.4688 9.59375C24.4688 9.62598 24.4819 9.65234 24.498 9.65234C24.5142 9.65234 24.5273 9.67871 24.5273 9.71094C24.5273 9.74316 24.5405 9.76953 24.5566 9.76953C24.5728 9.76953 24.5859 9.80908 24.5859 9.85742C24.5859 9.90576 24.5991 9.94531 24.6152 9.94531C24.6313 9.94531 24.6445 9.99805 24.6445 10.0625C24.6445 10.127 24.6577 10.1797 24.6738 10.1797C24.6899 10.1797 24.7031 10.2324 24.7031 10.2969C24.7031 10.3613 24.7163 10.4141 24.7324 10.4141C24.7492 10.4141 24.7617 10.502 24.7617 10.6191C24.7617 10.7363 24.7743 10.8242 24.791 10.8242C24.8104 10.8242 24.8203 11.8887 24.8203 13.959C24.8203 16.0293 24.8104 17.0938 24.791 17.0938C24.7743 17.0938 24.7617 17.1816 24.7617 17.2988V17.5039H22.4766C20.9727 17.5039 20.1914 17.5139 20.1914 17.5332C20.1914 17.5493 20.165 17.5625 20.1328 17.5625C20.1006 17.5625 20.0742 17.5757 20.0742 17.5918C20.0742 17.6079 20.0479 17.6211 20.0156 17.6211C19.9834 17.6211 19.957 17.6343 19.957 17.6504C19.957 17.6665 19.9367 17.6797 19.9118 17.6797C19.8531 17.6797 19.7227 17.8102 19.7227 17.8688C19.7227 17.8937 19.7095 17.9141 19.6934 17.9141C19.6772 17.9141 19.6641 17.9404 19.6641 17.9727C19.6641 18.0049 19.6509 18.0312 19.6348 18.0312C19.6187 18.0312 19.6055 18.0576 19.6055 18.0898C19.6055 18.1221 19.5923 18.1484 19.5762 18.1484C19.5591 18.1484 19.5469 18.2461 19.5469 18.3828C19.5469 18.5195 19.5591 18.6172 19.5762 18.6172C19.5923 18.6172 19.6055 18.6436 19.6055 18.6758C19.6055 18.708 19.6187 18.7344 19.6348 18.7344C19.6509 18.7344 19.6641 18.7607 19.6641 18.793C19.6641 18.8252 19.6772 18.8516 19.6934 18.8516C19.7095 18.8516 19.7227 18.8719 19.7227 18.8968C19.7227 18.9555 19.8531 19.0859 19.9118 19.0859C19.9367 19.0859 19.957 19.0991 19.957 19.1152C19.957 19.1313 19.9834 19.1445 20.0156 19.1445C20.0479 19.1445 20.0742 19.1577 20.0742 19.1738C20.0742 19.1899 20.1006 19.2031 20.1328 19.2031C20.165 19.2031 20.1914 19.2163 20.1914 19.2324C20.1914 19.2516 20.8359 19.2617 22.0664 19.2617C23.0977 19.2617 23.9414 19.2684 23.9414 19.2766C23.9414 19.3104 23.0893 20.1406 23.0546 20.1406C23.0338 20.1406 22.9978 20.167 22.9746 20.1992C22.9514 20.2314 22.9118 20.2578 22.8867 20.2578C22.8616 20.2578 22.8221 20.2842 22.7988 20.3164C22.7756 20.3486 22.7331 20.375 22.7045 20.375C22.6758 20.375 22.6523 20.3882 22.6523 20.4043C22.6523 20.4204 22.6289 20.4336 22.6002 20.4336C22.5715 20.4336 22.5291 20.46 22.5059 20.4922C22.4826 20.5244 22.4402 20.5508 22.4115 20.5508C22.3828 20.5508 22.3594 20.564 22.3594 20.5801C22.3594 20.5962 22.3198 20.6094 22.2715 20.6094C22.2231 20.6094 22.1836 20.6226 22.1836 20.6387C22.1836 20.6548 22.1572 20.668 22.125 20.668C22.0928 20.668 22.0664 20.6812 22.0664 20.6973C22.0664 20.7134 22.04 20.7266 22.0078 20.7266C21.9756 20.7266 21.9492 20.7397 21.9492 20.7559C21.9492 20.772 21.9097 20.7852 21.8613 20.7852C21.813 20.7852 21.7734 20.7983 21.7734 20.8145C21.7734 20.8306 21.7207 20.8438 21.6562 20.8438C21.5918 20.8438 21.5391 20.8569 21.5391 20.873C21.5391 20.8892 21.4863 20.9023 21.4219 20.9023C21.3574 20.9023 21.3047 20.9155 21.3047 20.9316C21.3047 20.9479 21.2266 20.9609 21.1289 20.9609C21.0313 20.9609 20.9531 20.9739 20.9531 20.9902C20.9531 21.0086 20.7676 21.0195 20.4551 21.0195C20.1426 21.0195 19.957 21.0086 19.957 20.9902C19.957 20.9735 19.8691 20.9609 19.752 20.9609C19.6348 20.9609 19.5469 20.9484 19.5469 20.9316C19.5469 20.9155 19.4941 20.9023 19.4297 20.9023C19.3652 20.9023 19.3125 20.8892 19.3125 20.873C19.3125 20.8569 19.2598 20.8438 19.1953 20.8438C19.1309 20.8438 19.0781 20.8306 19.0781 20.8145C19.0781 20.7983 19.0386 20.7852 18.9902 20.7852C18.9419 20.7852 18.9023 20.772 18.9023 20.7559C18.9023 20.7397 18.876 20.7266 18.8438 20.7266C18.8115 20.7266 18.7852 20.7134 18.7852 20.6973C18.7852 20.6812 18.7588 20.668 18.7266 20.668C18.6943 20.668 18.668 20.6548 18.668 20.6387C18.668 20.6226 18.6284 20.6094 18.5801 20.6094C18.5317 20.6094 18.4922 20.5962 18.4922 20.5801C18.4922 20.564 18.4687 20.5508 18.4401 20.5508C18.4114 20.5508 18.3689 20.5244 18.3457 20.4922C18.3225 20.46 18.28 20.4336 18.2513 20.4336C18.2227 20.4336 18.1992 20.4204 18.1992 20.4043C18.1992 20.3882 18.1758 20.375 18.1471 20.375C18.1184 20.375 18.076 20.3486 18.0527 20.3164C18.0295 20.2842 17.99 20.2578 17.9648 20.2578C17.9397 20.2578 17.9002 20.2314 17.877 20.1992C17.8537 20.167 17.8177 20.1406 17.797 20.1406C17.7477 20.1406 16.9102 19.3031 16.9102 19.2538C16.9102 19.233 16.8838 19.1971 16.8516 19.1738C16.8193 19.1506 16.793 19.111 16.793 19.0859C16.793 19.0608 16.7666 19.0213 16.7344 18.998C16.7021 18.9748 16.6758 18.9324 16.6758 18.9037C16.6758 18.875 16.6626 18.8516 16.6465 18.8516C16.6304 18.8516 16.6172 18.8281 16.6172 18.7994C16.6172 18.7708 16.5908 18.7283 16.5586 18.7051C16.5264 18.6818 16.5 18.6394 16.5 18.6107C16.5 18.5821 16.4868 18.5586 16.4707 18.5586C16.4546 18.5586 16.4414 18.519 16.4414 18.4707C16.4414 18.4224 16.4282 18.3828 16.4121 18.3828C16.396 18.3828 16.3828 18.3564 16.3828 18.3242C16.3828 18.292 16.3696 18.2656 16.3535 18.2656C16.3374 18.2656 16.3242 18.2393 16.3242 18.207C16.3242 18.1748 16.311 18.1484 16.2949 18.1484C16.2788 18.1484 16.2656 18.1089 16.2656 18.0605C16.2656 18.0122 16.2524 17.9727 16.2363 17.9727C16.2202 17.9727 16.207 17.9199 16.207 17.8555C16.207 17.791 16.1938 17.7383 16.1777 17.7383C16.1616 17.7383 16.1484 17.6855 16.1484 17.6211C16.1484 17.5566 16.1353 17.5039 16.1191 17.5039C16.1029 17.5039 16.0898 17.4258 16.0898 17.3281C16.0898 17.2305 16.0768 17.1523 16.0605 17.1523C16.0412 17.1523 16.0312 16.3027 16.0312 14.6621V12.1719H17.6426C18.6973 12.1719 19.2539 12.1618 19.2539 12.1426C19.2539 12.1258 19.3418 12.1133 19.459 12.1133C19.5762 12.1133 19.6641 12.1007 19.6641 12.084C19.6641 12.0677 19.7422 12.0547 19.8398 12.0547C19.9375 12.0547 20.0156 12.0417 20.0156 12.0254C20.0156 12.0093 20.0684 11.9961 20.1328 11.9961C20.1973 11.9961 20.25 11.9829 20.25 11.9668C20.25 11.9507 20.2896 11.9375 20.3379 11.9375C20.3862 11.9375 20.4258 11.9243 20.4258 11.9082C20.4258 11.8921 20.4785 11.8789 20.543 11.8789C20.6074 11.8789 20.6602 11.8657 20.6602 11.8496C20.6602 11.8335 20.6865 11.8203 20.7188 11.8203C20.751 11.8203 20.7773 11.8071 20.7773 11.791C20.7773 11.7749 20.8169 11.7617 20.8652 11.7617C20.9136 11.7617 20.9531 11.7485 20.9531 11.7324C20.9531 11.7163 20.9795 11.7031 21.0117 11.7031C21.0439 11.7031 21.0703 11.6899 21.0703 11.6738C21.0703 11.6577 21.1099 11.6445 21.1582 11.6445C21.2065 11.6445 21.2461 11.6313 21.2461 11.6152C21.2461 11.5991 21.2725 11.5859 21.3047 11.5859C21.3369 11.5859 21.3633 11.5728 21.3633 11.5566C21.3633 11.5405 21.3896 11.5273 21.4219 11.5273C21.4541 11.5273 21.4805 11.5142 21.4805 11.498C21.4805 11.4819 21.5039 11.4688 21.5326 11.4688C21.5613 11.4688 21.6037 11.4424 21.627 11.4102C21.6502 11.3779 21.6926 11.3516 21.7213 11.3516C21.75 11.3516 21.7734 11.3384 21.7734 11.3223C21.7734 11.3062 21.7969 11.293 21.8256 11.293C21.8542 11.293 21.8967 11.2666 21.9199 11.2344C21.9432 11.2021 21.9827 11.1758 22.0078 11.1758C22.0329 11.1758 22.0725 11.1494 22.0957 11.1172C22.1189 11.085 22.1585 11.0586 22.1836 11.0586C22.2087 11.0586 22.2483 11.0322 22.2715 11C22.2947 10.9678 22.3314 10.9414 22.3531 10.9414C22.3748 10.9414 22.4567 10.8755 22.5352 10.7949C22.6136 10.7144 22.692 10.6484 22.7094 10.6484C22.7509 10.6484 23.2969 10.1021 23.2969 10.0606C23.2969 10.043 23.3496 9.97795 23.4141 9.91602C23.4785 9.85408 23.5312 9.7879 23.5312 9.76895C23.5312 9.74996 23.5708 9.69749 23.6191 9.65234C23.6675 9.6072 23.707 9.55206 23.707 9.52988C23.707 9.50768 23.7334 9.4705 23.7656 9.44727C23.7979 9.42403 23.8242 9.38448 23.8242 9.35938C23.8242 9.33427 23.8506 9.29472 23.8828 9.27148C23.915 9.24825 23.9414 9.2058 23.9414 9.17712C23.9414 9.14847 23.9546 9.125 23.9707 9.125C23.9868 9.125 24 9.10467 24 9.07982C24 9.05498 24.0165 9.01593 24.0366 8.99305C24.089 8.93357 24.1758 8.93876 24.1758 9.00134ZM14.2734 13.959V15.7461H13.7461C13.4141 15.7461 13.2188 15.7353 13.2188 15.7168C13.2188 15.7007 13.1792 15.6875 13.1309 15.6875C13.0825 15.6875 13.043 15.6743 13.043 15.6582C13.043 15.6421 13.0229 15.6289 12.9984 15.6289C12.9404 15.6289 12.6328 15.3213 12.6328 15.2633C12.6328 15.2388 12.6196 15.2188 12.6035 15.2188C12.5874 15.2188 12.5742 15.1792 12.5742 15.1309C12.5742 15.0825 12.561 15.043 12.5449 15.043C12.5259 15.043 12.5156 14.6524 12.5156 13.9297C12.5156 13.207 12.5259 12.8164 12.5449 12.8164C12.561 12.8164 12.5742 12.79 12.5742 12.7578C12.5742 12.7256 12.5874 12.6992 12.6035 12.6992C12.6196 12.6992 12.6328 12.6758 12.6328 12.6471C12.6328 12.6184 12.6592 12.576 12.6914 12.5527C12.7236 12.5295 12.75 12.4871 12.75 12.4584C12.75 12.4279 12.7717 12.4062 12.8021 12.4062C12.8308 12.4062 12.8733 12.3799 12.8965 12.3477C12.9197 12.3154 12.9622 12.2891 12.9908 12.2891C13.0195 12.2891 13.043 12.2759 13.043 12.2598C13.043 12.2437 13.0693 12.2305 13.1016 12.2305C13.1338 12.2305 13.1602 12.2173 13.1602 12.2012C13.1602 12.1827 13.3652 12.1719 13.7168 12.1719H14.2734V13.959ZM27.6914 12.2012C27.6914 12.2173 27.7178 12.2305 27.75 12.2305C27.7822 12.2305 27.8086 12.2437 27.8086 12.2598C27.8086 12.2759 27.835 12.2891 27.8672 12.2891C27.8994 12.2891 27.9258 12.3022 27.9258 12.3184C27.9258 12.3345 27.9465 12.3477 27.9718 12.3477C28.0283 12.3477 28.1016 12.4173 28.1016 12.4709C28.1016 12.4927 28.1279 12.5295 28.1602 12.5527C28.1924 12.576 28.2188 12.6184 28.2188 12.6471C28.2188 12.6758 28.2319 12.6992 28.248 12.6992C28.2642 12.6992 28.2773 12.7256 28.2773 12.7578C28.2773 12.79 28.2905 12.8164 28.3066 12.8164C28.3257 12.8164 28.3359 13.207 28.3359 13.9297C28.3359 14.6524 28.3257 15.043 28.3066 15.043C28.2905 15.043 28.2773 15.0825 28.2773 15.1309C28.2773 15.1792 28.2642 15.2188 28.248 15.2188C28.2319 15.2188 28.2188 15.2388 28.2188 15.2633C28.2188 15.3213 27.9112 15.6289 27.8532 15.6289C27.8287 15.6289 27.8086 15.6421 27.8086 15.6582C27.8086 15.6743 27.769 15.6875 27.7207 15.6875C27.6724 15.6875 27.6328 15.7007 27.6328 15.7168C27.6328 15.7353 27.4375 15.7461 27.1055 15.7461H26.5781V13.959V12.1719H27.1348C27.4863 12.1719 27.6914 12.1827 27.6914 12.2012ZM16.1652 24.577C16.1914 24.6033 16.207 24.6797 16.207 24.7821C16.207 24.8719 16.2202 24.9453 16.2363 24.9453C16.2526 24.9453 16.2656 25.0234 16.2656 25.1211C16.2656 25.2187 16.2786 25.2969 16.2949 25.2969C16.3112 25.2969 16.3242 25.375 16.3242 25.4727C16.3242 25.5703 16.3372 25.6484 16.3535 25.6484C16.3698 25.6484 16.3828 25.7266 16.3828 25.8242C16.3828 25.9219 16.3958 26 16.4121 26C16.4288 26 16.4414 26.0879 16.4414 26.2051C16.4414 26.3223 16.454 26.4102 16.4707 26.4102C16.487 26.4102 16.5 26.4883 16.5 26.5859C16.5 26.6836 16.513 26.7617 16.5293 26.7617C16.5456 26.7617 16.5586 26.8399 16.5586 26.9375C16.5586 27.0351 16.5716 27.1133 16.5879 27.1133C16.6042 27.1133 16.6172 27.1914 16.6172 27.2891C16.6172 27.3867 16.6302 27.4648 16.6465 27.4648C16.6628 27.4648 16.6758 27.543 16.6758 27.6406C16.6758 27.7383 16.6888 27.8164 16.7051 27.8164C16.7214 27.8164 16.7344 27.8945 16.7344 27.9922C16.7344 28.0898 16.7474 28.168 16.7637 28.168C16.78 28.168 16.793 28.2461 16.793 28.3438C16.793 28.4414 16.806 28.5195 16.8223 28.5195C16.8386 28.5195 16.8516 28.5977 16.8516 28.6953C16.8516 28.793 16.8646 28.8711 16.8809 28.8711C16.8971 28.8711 16.9102 28.9492 16.9102 29.0469C16.9102 29.1445 16.9232 29.2227 16.9395 29.2227C16.9557 29.2227 16.9688 29.3008 16.9688 29.3984C16.9688 29.4961 16.9818 29.5742 16.998 29.5742C17.0143 29.5742 17.0273 29.6524 17.0273 29.75C17.0273 29.8476 17.0404 29.9258 17.0566 29.9258C17.0729 29.9258 17.0859 30.0039 17.0859 30.1016C17.0859 30.1992 17.0989 30.2773 17.1152 30.2773C17.1315 30.2773 17.1445 30.3555 17.1445 30.4531C17.1445 30.5508 17.1575 30.6289 17.1738 30.6289C17.1901 30.6289 17.2031 30.707 17.2031 30.8047C17.2031 30.9023 17.2161 30.9805 17.2324 30.9805C17.2487 30.9805 17.2617 31.0586 17.2617 31.1562C17.2617 31.2539 17.2747 31.332 17.291 31.332C17.3073 31.332 17.3203 31.4102 17.3203 31.5078C17.3203 31.6055 17.3333 31.6836 17.3496 31.6836C17.3659 31.6836 17.3789 31.7617 17.3789 31.8594C17.3789 31.957 17.3919 32.0352 17.4082 32.0352C17.4245 32.0352 17.4375 32.1133 17.4375 32.2109C17.4375 32.3086 17.4505 32.3867 17.4668 32.3867C17.4831 32.3867 17.4961 32.4649 17.4961 32.5625C17.4961 32.6601 17.5091 32.7383 17.5254 32.7383C17.5417 32.7383 17.5547 32.8164 17.5547 32.9141C17.5547 33.0117 17.5677 33.0898 17.584 33.0898C17.6001 33.0898 17.6133 33.1558 17.6133 33.2363V33.3828H16.3828H15.1523V31.9473C15.1523 31.0098 15.1422 30.5117 15.123 30.5117C15.1069 30.5117 15.0938 30.4854 15.0938 30.4531C15.0938 30.4209 15.0806 30.3945 15.0645 30.3945C15.0483 30.3945 15.0352 30.3682 15.0352 30.3359C15.0352 30.3037 15.022 30.2773 15.0059 30.2773C14.9897 30.2773 14.9766 30.257 14.9766 30.2321C14.9766 30.1735 14.8461 30.043 14.7875 30.043C14.7625 30.043 14.7422 30.0298 14.7422 30.0137C14.7422 29.9976 14.7158 29.9844 14.6836 29.9844C14.6514 29.9844 14.625 29.9712 14.625 29.9551C14.625 29.939 14.5986 29.9258 14.5664 29.9258C14.5342 29.9258 14.5078 29.9126 14.5078 29.8965C14.5078 29.8794 14.4102 29.8672 14.2734 29.8672C14.1367 29.8672 14.0391 29.8794 14.0391 29.8965C14.0391 29.9126 14.0127 29.9258 13.9805 29.9258C13.9482 29.9258 13.9219 29.939 13.9219 29.9551C13.9219 29.9712 13.8955 29.9844 13.8633 29.9844C13.8311 29.9844 13.8047 29.9976 13.8047 30.0137C13.8047 30.0298 13.7843 30.043 13.7594 30.043C13.7008 30.043 13.5703 30.1735 13.5703 30.2321C13.5703 30.257 13.5571 30.2773 13.541 30.2773C13.5249 30.2773 13.5117 30.3037 13.5117 30.3359C13.5117 30.3682 13.4985 30.3945 13.4824 30.3945C13.4663 30.3945 13.4531 30.4209 13.4531 30.4531C13.4531 30.4854 13.4399 30.5117 13.4238 30.5117C13.4047 30.5117 13.3945 31.0098 13.3945 31.9473V33.3828H12.0762H10.7578V30.1309C10.7578 27.9824 10.7677 26.8789 10.7871 26.8789C10.8032 26.8789 10.8164 26.813 10.8164 26.7324C10.8164 26.6519 10.8296 26.5859 10.8457 26.5859C10.8618 26.5859 10.875 26.5332 10.875 26.4688C10.875 26.4043 10.8882 26.3516 10.9043 26.3516C10.9204 26.3516 10.9336 26.3252 10.9336 26.293C10.9336 26.2607 10.9468 26.2344 10.9629 26.2344C10.979 26.2344 10.9922 26.1948 10.9922 26.1465C10.9922 26.0981 11.0054 26.0586 11.0215 26.0586C11.0376 26.0586 11.0508 26.0351 11.0508 26.0065C11.0508 25.9778 11.0771 25.9353 11.1094 25.9121C11.1416 25.8889 11.168 25.8493 11.168 25.8242C11.168 25.7991 11.1943 25.7596 11.2266 25.7363C11.2588 25.7131 11.2852 25.6771 11.2852 25.6563C11.2852 25.6069 11.8882 25.0039 11.9375 25.0039C11.9583 25.0039 11.9943 24.9775 12.0176 24.9453C12.0408 24.9131 12.0833 24.8867 12.1119 24.8867C12.1406 24.8867 12.1641 24.8735 12.1641 24.8574C12.1641 24.8413 12.1904 24.8281 12.2227 24.8281C12.2549 24.8281 12.2812 24.8149 12.2812 24.7988C12.2812 24.7827 12.3076 24.7695 12.3398 24.7695C12.3721 24.7695 12.3984 24.7563 12.3984 24.7402C12.3984 24.7241 12.438 24.7109 12.4863 24.7109C12.5347 24.7109 12.5742 24.6978 12.5742 24.6816C12.5742 24.6655 12.6138 24.6523 12.6621 24.6523C12.7104 24.6523 12.75 24.6392 12.75 24.623C12.75 24.6069 12.8159 24.5938 12.8965 24.5938C12.9771 24.5938 13.043 24.5806 13.043 24.5645C13.043 24.5453 13.5759 24.5352 14.5831 24.5352C15.8789 24.5352 16.13 24.5418 16.1652 24.577ZM22.8867 24.6816C22.8867 24.7622 22.8735 24.8281 22.8574 24.8281C22.8411 24.8281 22.8281 24.9063 22.8281 25.0039C22.8281 25.1016 22.8151 25.1797 22.7988 25.1797C22.7825 25.1797 22.7695 25.2578 22.7695 25.3555C22.7695 25.4531 22.7565 25.5312 22.7402 25.5312C22.7239 25.5312 22.7109 25.6094 22.7109 25.707C22.7109 25.8047 22.6979 25.8828 22.6816 25.8828C22.6654 25.8828 22.6523 25.9609 22.6523 26.0586C22.6523 26.1562 22.6393 26.2344 22.623 26.2344C22.6068 26.2344 22.5938 26.3125 22.5938 26.4102C22.5938 26.5078 22.5807 26.5859 22.5645 26.5859C22.5482 26.5859 22.5352 26.6641 22.5352 26.7617C22.5352 26.8594 22.5221 26.9375 22.5059 26.9375C22.4896 26.9375 22.4766 27.0156 22.4766 27.1133C22.4766 27.2109 22.4636 27.2891 22.4473 27.2891C22.431 27.2891 22.418 27.3672 22.418 27.4648C22.418 27.5625 22.405 27.6406 22.3887 27.6406C22.3724 27.6406 22.3594 27.7188 22.3594 27.8164C22.3594 27.9141 22.3464 27.9922 22.3301 27.9922C22.3138 27.9922 22.3008 28.0703 22.3008 28.168C22.3008 28.2656 22.2878 28.3438 22.2715 28.3438C22.2552 28.3438 22.2422 28.4219 22.2422 28.5195C22.2422 28.6172 22.2292 28.6953 22.2129 28.6953C22.1966 28.6953 22.1836 28.7734 22.1836 28.8711C22.1836 28.9687 22.1706 29.0469 22.1543 29.0469C22.138 29.0469 22.125 29.125 22.125 29.2227C22.125 29.3203 22.112 29.3984 22.0957 29.3984C22.0794 29.3984 22.0664 29.4766 22.0664 29.5742C22.0664 29.6719 22.0534 29.75 22.0371 29.75C22.0208 29.75 22.0078 29.8281 22.0078 29.9258C22.0078 30.0234 21.9948 30.1016 21.9785 30.1016C21.9622 30.1016 21.9492 30.1797 21.9492 30.2773C21.9492 30.375 21.9362 30.4531 21.9199 30.4531C21.9036 30.4531 21.8906 30.5313 21.8906 30.6289C21.8906 30.7266 21.8776 30.8047 21.8613 30.8047C21.845 30.8047 21.832 30.8828 21.832 30.9805C21.832 31.0781 21.819 31.1562 21.8027 31.1562C21.7864 31.1562 21.7734 31.2344 21.7734 31.332C21.7734 31.4297 21.7604 31.5078 21.7441 31.5078C21.7274 31.5078 21.7148 31.5957 21.7148 31.7129C21.7148 31.8301 21.7023 31.918 21.6855 31.918C21.6693 31.918 21.6562 31.9961 21.6562 32.0938C21.6562 32.1914 21.6432 32.2695 21.627 32.2695C21.6107 32.2695 21.5977 32.3477 21.5977 32.4453C21.5977 32.543 21.5846 32.6211 21.5684 32.6211C21.5521 32.6211 21.5391 32.6992 21.5391 32.7969C21.5391 32.8945 21.5261 32.9727 21.5098 32.9727C21.4937 32.9727 21.4805 33.0461 21.4805 33.1359C21.4805 33.2383 21.4649 33.3147 21.4386 33.3409C21.3765 33.4031 19.4751 33.4031 19.413 33.3409C19.3867 33.3147 19.3711 33.2383 19.3711 33.1359C19.3711 33.0461 19.3579 32.9727 19.3418 32.9727C19.3255 32.9727 19.3125 32.8945 19.3125 32.7969C19.3125 32.6992 19.2995 32.6211 19.2832 32.6211C19.2665 32.6211 19.2539 32.5332 19.2539 32.416C19.2539 32.2988 19.2413 32.2109 19.2246 32.2109C19.2083 32.2109 19.1953 32.1328 19.1953 32.0352C19.1953 31.9375 19.1823 31.8594 19.166 31.8594C19.1497 31.8594 19.1367 31.7812 19.1367 31.6836C19.1367 31.5859 19.1237 31.5078 19.1074 31.5078C19.0911 31.5078 19.0781 31.4297 19.0781 31.332C19.0781 31.2344 19.0651 31.1562 19.0488 31.1562C19.0325 31.1562 19.0195 31.0781 19.0195 30.9805C19.0195 30.8828 19.0065 30.8047 18.9902 30.8047C18.9739 30.8047 18.9609 30.7266 18.9609 30.6289C18.9609 30.5313 18.9479 30.4531 18.9316 30.4531C18.9154 30.4531 18.9023 30.375 18.9023 30.2773C18.9023 30.1797 18.8893 30.1016 18.873 30.1016C18.8568 30.1016 18.8438 30.0234 18.8438 29.9258C18.8438 29.8281 18.8307 29.75 18.8145 29.75C18.7982 29.75 18.7852 29.6719 18.7852 29.5742C18.7852 29.4766 18.7721 29.3984 18.7559 29.3984C18.7396 29.3984 18.7266 29.3203 18.7266 29.2227C18.7266 29.125 18.7136 29.0469 18.6973 29.0469C18.681 29.0469 18.668 28.9687 18.668 28.8711C18.668 28.7734 18.655 28.6953 18.6387 28.6953C18.6224 28.6953 18.6094 28.6172 18.6094 28.5195C18.6094 28.4219 18.5964 28.3438 18.5801 28.3438C18.5638 28.3438 18.5508 28.2656 18.5508 28.168C18.5508 28.0703 18.5378 27.9922 18.5215 27.9922C18.5052 27.9922 18.4922 27.9141 18.4922 27.8164C18.4922 27.7188 18.4792 27.6406 18.4629 27.6406C18.4466 27.6406 18.4336 27.5625 18.4336 27.4648C18.4336 27.3672 18.4206 27.2891 18.4043 27.2891C18.388 27.2891 18.375 27.2109 18.375 27.1133C18.375 27.0156 18.362 26.9375 18.3457 26.9375C18.3294 26.9375 18.3164 26.8594 18.3164 26.7617C18.3164 26.6641 18.3034 26.5859 18.2871 26.5859C18.2708 26.5859 18.2578 26.5078 18.2578 26.4102C18.2578 26.3125 18.2448 26.2344 18.2285 26.2344C18.2122 26.2344 18.1992 26.1562 18.1992 26.0586C18.1992 25.9609 18.1862 25.8828 18.1699 25.8828C18.1536 25.8828 18.1406 25.8047 18.1406 25.707C18.1406 25.6094 18.1276 25.5312 18.1113 25.5312C18.095 25.5312 18.082 25.4531 18.082 25.3555C18.082 25.2578 18.069 25.1797 18.0527 25.1797C18.0364 25.1797 18.0234 25.1016 18.0234 25.0039C18.0234 24.9063 18.0104 24.8281 17.9941 24.8281C17.978 24.8281 17.9648 24.7622 17.9648 24.6816V24.5352H20.4258H22.8867V24.6816ZM27.8086 24.5645C27.8086 24.5806 27.8745 24.5938 27.9551 24.5938C28.0356 24.5938 28.1016 24.6069 28.1016 24.623C28.1016 24.6392 28.1411 24.6523 28.1895 24.6523C28.2378 24.6523 28.2773 24.6655 28.2773 24.6816C28.2773 24.6978 28.3169 24.7109 28.3652 24.7109C28.4136 24.7109 28.4531 24.7241 28.4531 24.7402C28.4531 24.7563 28.4795 24.7695 28.5117 24.7695C28.5439 24.7695 28.5703 24.7827 28.5703 24.7988C28.5703 24.8149 28.5967 24.8281 28.6289 24.8281C28.6611 24.8281 28.6875 24.8413 28.6875 24.8574C28.6875 24.8735 28.711 24.8867 28.7396 24.8867C28.7683 24.8867 28.8108 24.9131 28.834 24.9453C28.8572 24.9775 28.8932 25.0039 28.914 25.0039C28.9634 25.0039 29.5664 25.6069 29.5664 25.6563C29.5664 25.6771 29.5928 25.7131 29.625 25.7363C29.6572 25.7596 29.6836 25.7991 29.6836 25.8242C29.6836 25.8493 29.71 25.8889 29.7422 25.9121C29.7744 25.9353 29.8008 25.9778 29.8008 26.0065C29.8008 26.0351 29.814 26.0586 29.8301 26.0586C29.8462 26.0586 29.8594 26.0981 29.8594 26.1465C29.8594 26.1948 29.8726 26.2344 29.8887 26.2344C29.9048 26.2344 29.918 26.2607 29.918 26.293C29.918 26.3252 29.9312 26.3516 29.9473 26.3516C29.9634 26.3516 29.9766 26.4043 29.9766 26.4688C29.9766 26.5332 29.9897 26.5859 30.0059 26.5859C30.022 26.5859 30.0352 26.6519 30.0352 26.7324C30.0352 26.813 30.0483 26.8789 30.0645 26.8789C30.0838 26.8789 30.0938 27.9824 30.0938 30.1309V33.3828H28.7754H27.457V31.9473C27.457 31.0098 27.4469 30.5117 27.4277 30.5117C27.4116 30.5117 27.3984 30.4854 27.3984 30.4531C27.3984 30.4209 27.3853 30.3945 27.3691 30.3945C27.353 30.3945 27.3398 30.3682 27.3398 30.3359C27.3398 30.3037 27.3267 30.2773 27.3105 30.2773C27.2944 30.2773 27.2812 30.257 27.2812 30.2321C27.2812 30.1735 27.1508 30.043 27.0921 30.043C27.0672 30.043 27.0469 30.0298 27.0469 30.0137C27.0469 29.9976 27.0205 29.9844 26.9883 29.9844C26.9561 29.9844 26.9297 29.9712 26.9297 29.9551C26.9297 29.939 26.9033 29.9258 26.8711 29.9258C26.8389 29.9258 26.8125 29.9126 26.8125 29.8965C26.8125 29.8794 26.7149 29.8672 26.5781 29.8672C26.4414 29.8672 26.3438 29.8794 26.3438 29.8965C26.3438 29.9126 26.3174 29.9258 26.2852 29.9258C26.2529 29.9258 26.2266 29.939 26.2266 29.9551C26.2266 29.9712 26.2002 29.9844 26.168 29.9844C26.1357 29.9844 26.1094 29.9976 26.1094 30.0137C26.1094 30.0298 26.089 30.043 26.0641 30.043C26.0055 30.043 25.875 30.1735 25.875 30.2321C25.875 30.257 25.8618 30.2773 25.8457 30.2773C25.8296 30.2773 25.8164 30.3037 25.8164 30.3359C25.8164 30.3682 25.8032 30.3945 25.7871 30.3945C25.771 30.3945 25.7578 30.4209 25.7578 30.4531C25.7578 30.4854 25.7446 30.5117 25.7285 30.5117C25.7094 30.5117 25.6992 31.0098 25.6992 31.9473V33.3828H24.4688H23.2383V33.2363C23.2383 33.1558 23.2515 33.0898 23.2676 33.0898C23.2839 33.0898 23.2969 33.0117 23.2969 32.9141C23.2969 32.8164 23.3099 32.7383 23.3262 32.7383C23.3425 32.7383 23.3555 32.6601 23.3555 32.5625C23.3555 32.4649 23.3685 32.3867 23.3848 32.3867C23.4011 32.3867 23.4141 32.3086 23.4141 32.2109C23.4141 32.1133 23.4271 32.0352 23.4434 32.0352C23.4596 32.0352 23.4727 31.957 23.4727 31.8594C23.4727 31.7617 23.4857 31.6836 23.502 31.6836C23.5182 31.6836 23.5312 31.6055 23.5312 31.5078C23.5312 31.4102 23.5443 31.332 23.5605 31.332C23.5768 31.332 23.5898 31.2539 23.5898 31.1562C23.5898 31.0586 23.6029 30.9805 23.6191 30.9805C23.6354 30.9805 23.6484 30.9023 23.6484 30.8047C23.6484 30.707 23.6614 30.6289 23.6777 30.6289C23.694 30.6289 23.707 30.5508 23.707 30.4531C23.707 30.3555 23.72 30.2773 23.7363 30.2773C23.7526 30.2773 23.7656 30.1992 23.7656 30.1016C23.7656 30.0039 23.7786 29.9258 23.7949 29.9258C23.8112 29.9258 23.8242 29.8476 23.8242 29.75C23.8242 29.6524 23.8372 29.5742 23.8535 29.5742C23.8698 29.5742 23.8828 29.4961 23.8828 29.3984C23.8828 29.3008 23.8958 29.2227 23.9121 29.2227C23.9284 29.2227 23.9414 29.1445 23.9414 29.0469C23.9414 28.9492 23.9544 28.8711 23.9707 28.8711C23.987 28.8711 24 28.793 24 28.6953C24 28.5977 24.013 28.5195 24.0293 28.5195C24.0456 28.5195 24.0586 28.4414 24.0586 28.3438C24.0586 28.2461 24.0716 28.168 24.0879 28.168C24.1042 28.168 24.1172 28.0898 24.1172 27.9922C24.1172 27.8945 24.1302 27.8164 24.1465 27.8164C24.1628 27.8164 24.1758 27.7383 24.1758 27.6406C24.1758 27.543 24.1888 27.4648 24.2051 27.4648C24.2214 27.4648 24.2344 27.3867 24.2344 27.2891C24.2344 27.1914 24.2474 27.1133 24.2637 27.1133C24.28 27.1133 24.293 27.0351 24.293 26.9375C24.293 26.8399 24.306 26.7617 24.3223 26.7617C24.3386 26.7617 24.3516 26.6836 24.3516 26.5859C24.3516 26.4883 24.3646 26.4102 24.3809 26.4102C24.3976 26.4102 24.4102 26.3223 24.4102 26.2051C24.4102 26.0879 24.4227 26 24.4395 26C24.4557 26 24.4688 25.9219 24.4688 25.8242C24.4688 25.7266 24.4818 25.6484 24.498 25.6484C24.5143 25.6484 24.5273 25.5703 24.5273 25.4727C24.5273 25.375 24.5404 25.2969 24.5566 25.2969C24.5729 25.2969 24.5859 25.2187 24.5859 25.1211C24.5859 25.0234 24.5989 24.9453 24.6152 24.9453C24.6313 24.9453 24.6445 24.8722 24.6445 24.7829C24.6445 24.6937 24.661 24.6019 24.6812 24.579C24.7119 24.5441 24.966 24.5372 26.2632 24.5363C27.2747 24.5355 27.8086 24.5453 27.8086 24.5645Z" fill="#DD2A1B"/>
</svg>
