<svg width="40" height="41" viewBox="0 0 40 41" fill="none" xmlns="http://www.w3.org/2000/svg">
<path fill-rule="evenodd" clip-rule="evenodd" d="M10.918 5.16992C10.918 5.18604 10.8916 5.19922 10.8594 5.19922C10.8271 5.19922 10.8008 5.2124 10.8008 5.22852C10.8008 5.24463 10.7744 5.25781 10.7422 5.25781C10.71 5.25781 10.6836 5.271 10.6836 5.28711C10.6836 5.30322 10.6632 5.31641 10.6383 5.31641C10.5797 5.31641 10.4492 5.44689 10.4492 5.50552C10.4492 5.53042 10.436 5.55078 10.4199 5.55078C10.4038 5.55078 10.3906 5.57715 10.3906 5.60938C10.3906 5.6416 10.3774 5.66797 10.3613 5.66797C10.3452 5.66797 10.332 5.69434 10.332 5.72656C10.332 5.75879 10.3188 5.78516 10.3027 5.78516C10.2842 5.78516 10.2734 5.99023 10.2734 6.3418V6.89844H7.95898C6.43555 6.89844 5.64453 6.90846 5.64453 6.92773C5.64453 6.94385 5.61816 6.95703 5.58594 6.95703C5.55371 6.95703 5.52734 6.97021 5.52734 6.98633C5.52734 7.00244 5.50098 7.01562 5.46875 7.01562C5.43652 7.01562 5.41016 7.02881 5.41016 7.04492C5.41016 7.06104 5.38979 7.07422 5.36489 7.07422C5.30627 7.07422 5.17578 7.20471 5.17578 7.26333C5.17578 7.28823 5.1626 7.30859 5.14648 7.30859C5.13037 7.30859 5.11719 7.33496 5.11719 7.36719C5.11719 7.39941 5.104 7.42578 5.08789 7.42578C5.07178 7.42578 5.05859 7.45215 5.05859 7.48438C5.05859 7.5166 5.04541 7.54297 5.0293 7.54297C5.00981 7.54297 5 11.4688 5 19.2617C5 27.0547 5.00981 30.9805 5.0293 30.9805C5.04541 30.9805 5.05859 31.0068 5.05859 31.0391C5.05859 31.0713 5.07178 31.0977 5.08789 31.0977C5.104 31.0977 5.11719 31.124 5.11719 31.1562C5.11719 31.1885 5.13037 31.2148 5.14648 31.2148C5.1626 31.2148 5.17578 31.2352 5.17578 31.2601C5.17578 31.3187 5.30627 31.4492 5.36489 31.4492C5.38979 31.4492 5.41016 31.4624 5.41016 31.4785C5.41016 31.4946 5.43652 31.5078 5.46875 31.5078C5.50098 31.5078 5.52734 31.521 5.52734 31.5371C5.52734 31.5532 5.55371 31.5664 5.58594 31.5664C5.61816 31.5664 5.64453 31.5796 5.64453 31.5957C5.64453 31.6151 7.02148 31.625 9.7168 31.625H13.7891V33.0605C13.7891 33.998 13.7992 34.4961 13.8184 34.4961C13.8345 34.4961 13.8477 34.5225 13.8477 34.5547C13.8477 34.5869 13.8608 34.6133 13.877 34.6133C13.8931 34.6133 13.9062 34.6396 13.9062 34.6719C13.9062 34.7041 13.9194 34.7305 13.9355 34.7305C13.9517 34.7305 13.9648 34.7508 13.9648 34.7757C13.9648 34.8344 14.0953 34.9648 14.154 34.9648C14.1789 34.9648 14.1992 34.978 14.1992 34.9941C14.1992 35.0103 14.2256 35.0234 14.2578 35.0234C14.29 35.0234 14.3164 35.0366 14.3164 35.0527C14.3164 35.0688 14.3428 35.082 14.375 35.082C14.4072 35.082 14.4336 35.0952 14.4336 35.1113C14.4336 35.1306 15.1172 35.1406 16.4258 35.1406C17.7344 35.1406 18.418 35.1306 18.418 35.1113C18.418 35.0952 18.4443 35.082 18.4766 35.082C18.5088 35.082 18.5352 35.0688 18.5352 35.0527C18.5352 35.0366 18.5615 35.0234 18.5938 35.0234C18.626 35.0234 18.6523 35.0103 18.6523 34.9941C18.6523 34.978 18.6727 34.9648 18.6976 34.9648C18.7562 34.9648 18.8867 34.8344 18.8867 34.7757C18.8867 34.7508 18.8999 34.7305 18.916 34.7305C18.9321 34.7305 18.9453 34.7041 18.9453 34.6719C18.9453 34.6396 18.9585 34.6133 18.9746 34.6133C18.9907 34.6133 19.0039 34.5869 19.0039 34.5547C19.0039 34.5225 19.0171 34.4961 19.0332 34.4961C19.0523 34.4961 19.0625 33.998 19.0625 33.0605V31.625H23.5156H27.9688V33.0605C27.9688 33.998 27.9789 34.4961 27.998 34.4961C28.0142 34.4961 28.0273 34.5225 28.0273 34.5547C28.0273 34.5869 28.0405 34.6133 28.0566 34.6133C28.0728 34.6133 28.0859 34.6396 28.0859 34.6719C28.0859 34.7041 28.0991 34.7305 28.1152 34.7305C28.1313 34.7305 28.1445 34.7508 28.1445 34.7757C28.1445 34.8344 28.275 34.9648 28.3336 34.9648C28.3585 34.9648 28.3789 34.978 28.3789 34.9941C28.3789 35.0103 28.4053 35.0234 28.4375 35.0234C28.4697 35.0234 28.4961 35.0366 28.4961 35.0527C28.4961 35.0688 28.5225 35.082 28.5547 35.082C28.5869 35.082 28.6133 35.0952 28.6133 35.1113C28.6133 35.1306 29.2969 35.1406 30.6055 35.1406C31.9141 35.1406 32.5977 35.1306 32.5977 35.1113C32.5977 35.0952 32.624 35.082 32.6562 35.082C32.6885 35.082 32.7148 35.0688 32.7148 35.0527C32.7148 35.0366 32.7412 35.0234 32.7734 35.0234C32.8057 35.0234 32.832 35.0103 32.832 34.9941C32.832 34.978 32.8524 34.9648 32.8773 34.9648C32.9359 34.9648 33.0664 34.8344 33.0664 34.7757C33.0664 34.7508 33.0796 34.7305 33.0957 34.7305C33.1118 34.7305 33.125 34.7041 33.125 34.6719C33.125 34.6396 33.1382 34.6133 33.1543 34.6133C33.1704 34.6133 33.1836 34.5869 33.1836 34.5547C33.1836 34.5225 33.1968 34.4961 33.2129 34.4961C33.232 34.4961 33.2422 33.9688 33.2422 32.9727C33.2422 31.4688 33.2429 31.4492 33.3008 31.4492C33.333 31.4492 33.3594 31.436 33.3594 31.4199C33.3594 31.4038 33.3857 31.3906 33.418 31.3906C33.4502 31.3906 33.4766 31.3774 33.4766 31.3613C33.4766 31.3452 33.5029 31.332 33.5352 31.332C33.5674 31.332 33.5938 31.3188 33.5938 31.3027C33.5938 31.2866 33.6201 31.2734 33.6523 31.2734C33.6846 31.2734 33.7109 31.2603 33.7109 31.2441C33.7109 31.228 33.7344 31.2148 33.7631 31.2148C33.7917 31.2148 33.8342 31.1885 33.8574 31.1562C33.8807 31.124 33.9167 31.0977 33.9375 31.0977C33.987 31.0977 34.4727 30.612 34.4727 30.5625C34.4727 30.5417 34.499 30.5057 34.5312 30.4824C34.5635 30.4592 34.5898 30.4167 34.5898 30.3881C34.5898 30.3594 34.603 30.3359 34.6191 30.3359C34.6353 30.3359 34.6484 30.3125 34.6484 30.2838C34.6484 30.2551 34.6748 30.2127 34.707 30.1895C34.7414 30.1646 34.7656 30.1136 34.7656 30.0658C34.7656 30.021 34.7788 29.9844 34.7949 29.9844C34.811 29.9844 34.8242 29.958 34.8242 29.9258C34.8242 29.8936 34.8374 29.8672 34.8535 29.8672C34.8696 29.8672 34.8828 29.8145 34.8828 29.75C34.8828 29.6855 34.896 29.6328 34.9121 29.6328C34.9282 29.6328 34.9414 29.5801 34.9414 29.5156C34.9414 29.4512 34.9546 29.3984 34.9707 29.3984C34.99 29.3984 35 28.6856 35 27.3184C35 25.9512 34.99 25.2383 34.9707 25.2383C34.9546 25.2383 34.9414 25.2119 34.9414 25.1797C34.9414 25.1475 34.9282 25.1211 34.9121 25.1211C34.896 25.1211 34.8828 25.0947 34.8828 25.0625C34.8828 25.0303 34.8696 25.0039 34.8535 25.0039C34.8374 25.0039 34.8242 24.984 34.8242 24.9596C34.8242 24.9352 34.4419 24.5333 33.9746 24.0664C33.5073 23.5995 33.125 23.1976 33.125 23.1732C33.125 23.1489 33.1118 23.1289 33.0957 23.1289C33.0796 23.1289 33.0664 23.0894 33.0664 23.041C33.0664 22.9927 33.0532 22.9531 33.0371 22.9531C33.021 22.9531 33.0078 22.9136 33.0078 22.8652C33.0078 22.8169 32.9946 22.7773 32.9785 22.7773C32.9624 22.7773 32.9492 22.7378 32.9492 22.6895C32.9492 22.6411 32.936 22.6016 32.9199 22.6016C32.9038 22.6016 32.8906 22.562 32.8906 22.5137C32.8906 22.4653 32.8774 22.4258 32.8613 22.4258C32.8452 22.4258 32.832 22.373 32.832 22.3086C32.832 22.2441 32.8188 22.1914 32.8027 22.1914C32.7866 22.1914 32.7734 22.1519 32.7734 22.1035C32.7734 22.0552 32.7603 22.0156 32.7441 22.0156C32.728 22.0156 32.7148 21.9761 32.7148 21.9277C32.7148 21.8794 32.7017 21.8398 32.6855 21.8398C32.6694 21.8398 32.6562 21.8003 32.6562 21.752C32.6562 21.7036 32.6431 21.6641 32.627 21.6641C32.6108 21.6641 32.5977 21.6245 32.5977 21.5762C32.5977 21.5278 32.5845 21.4883 32.5684 21.4883C32.5522 21.4883 32.5391 21.4487 32.5391 21.4004C32.5391 21.3521 32.5259 21.3125 32.5098 21.3125C32.4937 21.3125 32.4805 21.2729 32.4805 21.2246C32.4805 21.1763 32.4673 21.1367 32.4512 21.1367C32.4351 21.1367 32.4219 21.0972 32.4219 21.0488C32.4219 21.0005 32.4087 20.9609 32.3926 20.9609C32.3765 20.9609 32.3633 20.9214 32.3633 20.873C32.3633 20.8247 32.3501 20.7852 32.334 20.7852C32.3179 20.7852 32.3047 20.7456 32.3047 20.6973C32.3047 20.6489 32.2915 20.6094 32.2754 20.6094C32.2593 20.6094 32.2461 20.5698 32.2461 20.5215C32.2461 20.4731 32.2329 20.4336 32.2168 20.4336C32.2007 20.4336 32.1875 20.394 32.1875 20.3457C32.1875 20.2974 32.1743 20.2578 32.1582 20.2578C32.1421 20.2578 32.1289 20.2051 32.1289 20.1406C32.1289 20.0762 32.1157 20.0234 32.0996 20.0234C32.0835 20.0234 32.0703 19.9839 32.0703 19.9355C32.0703 19.8872 32.0571 19.8477 32.041 19.8477C32.0249 19.8477 32.0117 19.8081 32.0117 19.7598C32.0117 19.7114 31.9985 19.6719 31.9824 19.6719C31.9663 19.6719 31.9531 19.6323 31.9531 19.584C31.9531 19.5356 31.9399 19.4961 31.9238 19.4961C31.9077 19.4961 31.8945 19.4565 31.8945 19.4082C31.8945 19.3599 31.8813 19.3203 31.8652 19.3203C31.8491 19.3203 31.8359 19.2808 31.8359 19.2324C31.8359 19.1841 31.8228 19.1445 31.8066 19.1445C31.7905 19.1445 31.7773 19.1182 31.7773 19.0859C31.7773 19.0537 31.7642 19.0273 31.748 19.0273C31.7319 19.0273 31.7188 19.001 31.7188 18.9688C31.7188 18.9365 31.7056 18.9102 31.6895 18.9102C31.6733 18.9102 31.6602 18.8838 31.6602 18.8516C31.6602 18.8193 31.647 18.793 31.6309 18.793C31.6147 18.793 31.6016 18.7695 31.6016 18.7408C31.6016 18.7122 31.5752 18.6697 31.543 18.6465C31.5107 18.6233 31.4844 18.5864 31.4844 18.5645C31.4844 18.5426 31.4316 18.474 31.3672 18.4121C31.3027 18.3502 31.25 18.2787 31.25 18.2533C31.25 18.2278 31.2294 18.207 31.2042 18.207C31.1789 18.207 31.0941 18.1411 31.0156 18.0605C30.9371 17.98 30.8552 17.9141 30.8336 17.9141C30.8119 17.9141 30.7752 17.8877 30.752 17.8555C30.7287 17.8232 30.6863 17.7969 30.6576 17.7969C30.6289 17.7969 30.6055 17.7837 30.6055 17.7676C30.6055 17.7515 30.5791 17.7383 30.5469 17.7383C30.5146 17.7383 30.4883 17.7251 30.4883 17.709C30.4883 17.6929 30.4619 17.6797 30.4297 17.6797C30.3975 17.6797 30.3711 17.6665 30.3711 17.6504C30.3711 17.6343 30.3315 17.6211 30.2832 17.6211C30.2349 17.6211 30.1953 17.6079 30.1953 17.5918C30.1953 17.5757 30.1558 17.5625 30.1074 17.5625C30.0591 17.5625 30.0195 17.5493 30.0195 17.5332C30.0195 17.5171 29.9536 17.5039 29.873 17.5039C29.7925 17.5039 29.7266 17.4907 29.7266 17.4746C29.7266 17.4552 28.5254 17.4453 26.1816 17.4453H22.6367V12.4941C22.6367 9.21289 22.6268 7.54297 22.6074 7.54297C22.5913 7.54297 22.5781 7.5166 22.5781 7.48438C22.5781 7.45215 22.5649 7.42578 22.5488 7.42578C22.5327 7.42578 22.5195 7.39941 22.5195 7.36719C22.5195 7.33496 22.5063 7.30859 22.4902 7.30859C22.4741 7.30859 22.4609 7.28823 22.4609 7.26333C22.4609 7.20471 22.3304 7.07422 22.2718 7.07422C22.2469 7.07422 22.2266 7.06104 22.2266 7.04492C22.2266 7.02881 22.2002 7.01562 22.168 7.01562C22.1357 7.01562 22.1094 7.00244 22.1094 6.98633C22.1094 6.97021 22.083 6.95703 22.0508 6.95703C22.0186 6.95703 21.9922 6.94385 21.9922 6.92773C21.9922 6.90846 21.1914 6.89844 19.6484 6.89844H17.3047V6.3418C17.3047 5.99023 17.2939 5.78516 17.2754 5.78516C17.2593 5.78516 17.2461 5.75879 17.2461 5.72656C17.2461 5.69434 17.2329 5.66797 17.2168 5.66797C17.2007 5.66797 17.1875 5.6416 17.1875 5.60938C17.1875 5.57715 17.1743 5.55078 17.1582 5.55078C17.1421 5.55078 17.1289 5.53042 17.1289 5.50552C17.1289 5.44689 16.9984 5.31641 16.9398 5.31641C16.9149 5.31641 16.8945 5.30322 16.8945 5.28711C16.8945 5.271 16.8682 5.25781 16.8359 5.25781C16.8037 5.25781 16.7773 5.24463 16.7773 5.22852C16.7773 5.2124 16.751 5.19922 16.7188 5.19922C16.6865 5.19922 16.6602 5.18604 16.6602 5.16992C16.6602 5.15059 15.6836 5.14062 13.7891 5.14062C11.8945 5.14062 10.918 5.15059 10.918 5.16992ZM15.5469 7.77734V8.65625H13.7891H12.0312V7.77734V6.89844H13.7891H15.5469V7.77734ZM10.2734 9.21289C10.2734 9.56445 10.2842 9.76953 10.3027 9.76953C10.3188 9.76953 10.332 9.7959 10.332 9.82812C10.332 9.86035 10.3452 9.88672 10.3613 9.88672C10.3774 9.88672 10.3906 9.91309 10.3906 9.94531C10.3906 9.97754 10.4038 10.0039 10.4199 10.0039C10.436 10.0039 10.4492 10.0243 10.4492 10.0492C10.4492 10.1078 10.5797 10.2383 10.6383 10.2383C10.6632 10.2383 10.6836 10.2515 10.6836 10.2676C10.6836 10.2837 10.71 10.2969 10.7422 10.2969C10.7744 10.2969 10.8008 10.3101 10.8008 10.3262C10.8008 10.3423 10.8271 10.3555 10.8594 10.3555C10.8916 10.3555 10.918 10.3687 10.918 10.3848C10.918 10.4041 11.8945 10.4141 13.7891 10.4141C15.6836 10.4141 16.6602 10.4041 16.6602 10.3848C16.6602 10.3687 16.6865 10.3555 16.7188 10.3555C16.751 10.3555 16.7773 10.3423 16.7773 10.3262C16.7773 10.3101 16.8037 10.2969 16.8359 10.2969C16.8682 10.2969 16.8945 10.2837 16.8945 10.2676C16.8945 10.2515 16.9149 10.2383 16.9398 10.2383C16.9984 10.2383 17.1289 10.1078 17.1289 10.0492C17.1289 10.0243 17.1421 10.0039 17.1582 10.0039C17.1743 10.0039 17.1875 9.97754 17.1875 9.94531C17.1875 9.91309 17.2007 9.88672 17.2168 9.88672C17.2329 9.88672 17.2461 9.86035 17.2461 9.82812C17.2461 9.7959 17.2593 9.76953 17.2754 9.76953C17.2939 9.76953 17.3047 9.56445 17.3047 9.21289V8.65625H19.0918H20.8789V13.0508V17.4453H19.0918C17.9199 17.4453 17.3047 17.4554 17.3047 17.4746C17.3047 17.4907 17.2388 17.5039 17.1582 17.5039C17.0776 17.5039 17.0117 17.5171 17.0117 17.5332C17.0117 17.5493 16.9722 17.5625 16.9238 17.5625C16.8755 17.5625 16.8359 17.5757 16.8359 17.5918C16.8359 17.6079 16.7964 17.6211 16.748 17.6211C16.6997 17.6211 16.6602 17.6343 16.6602 17.6504C16.6602 17.6665 16.6338 17.6797 16.6016 17.6797C16.5693 17.6797 16.543 17.6929 16.543 17.709C16.543 17.7251 16.5166 17.7383 16.4844 17.7383C16.4521 17.7383 16.4258 17.7515 16.4258 17.7676C16.4258 17.7837 16.4023 17.7969 16.3737 17.7969C16.345 17.7969 16.3025 17.8232 16.2793 17.8555C16.2561 17.8877 16.2192 17.9141 16.1973 17.9141C16.1754 17.9141 16.1069 17.9668 16.0449 18.0312C15.983 18.0957 15.9172 18.1484 15.8986 18.1484C15.8551 18.1484 15.7812 18.2223 15.7812 18.2658C15.7812 18.2843 15.7285 18.3502 15.6641 18.4121C15.5996 18.474 15.5469 18.5426 15.5469 18.5645C15.5469 18.5864 15.5205 18.6233 15.4883 18.6465C15.4561 18.6697 15.4297 18.7122 15.4297 18.7408C15.4297 18.7695 15.4165 18.793 15.4004 18.793C15.3843 18.793 15.3711 18.8193 15.3711 18.8516C15.3711 18.8838 15.3579 18.9102 15.3418 18.9102C15.3257 18.9102 15.3125 18.9365 15.3125 18.9688C15.3125 19.001 15.2993 19.0273 15.2832 19.0273C15.2671 19.0273 15.2539 19.0537 15.2539 19.0859C15.2539 19.1182 15.2407 19.1445 15.2246 19.1445C15.2085 19.1445 15.1953 19.1841 15.1953 19.2324C15.1953 19.2808 15.1821 19.3203 15.166 19.3203C15.1499 19.3203 15.1367 19.3599 15.1367 19.4082C15.1367 19.4565 15.1235 19.4961 15.1074 19.4961C15.0913 19.4961 15.0781 19.5356 15.0781 19.584C15.0781 19.6323 15.0649 19.6719 15.0488 19.6719C15.0327 19.6719 15.0195 19.7114 15.0195 19.7598C15.0195 19.8081 15.0063 19.8477 14.9902 19.8477C14.9741 19.8477 14.9609 19.8872 14.9609 19.9355C14.9609 19.9839 14.9478 20.0234 14.9316 20.0234C14.9155 20.0234 14.9023 20.063 14.9023 20.1113C14.9023 20.1597 14.8892 20.1992 14.873 20.1992C14.8569 20.1992 14.8438 20.252 14.8438 20.3164C14.8438 20.3809 14.8306 20.4336 14.8145 20.4336C14.7983 20.4336 14.7852 20.4731 14.7852 20.5215C14.7852 20.5698 14.772 20.6094 14.7559 20.6094C14.7397 20.6094 14.7266 20.6489 14.7266 20.6973C14.7266 20.7456 14.7134 20.7852 14.6973 20.7852C14.6812 20.7852 14.668 20.8247 14.668 20.873C14.668 20.9214 14.6548 20.9609 14.6387 20.9609C14.6226 20.9609 14.6094 21.0005 14.6094 21.0488C14.6094 21.0972 14.5962 21.1367 14.5801 21.1367C14.564 21.1367 14.5508 21.1763 14.5508 21.2246C14.5508 21.2729 14.5376 21.3125 14.5215 21.3125C14.5054 21.3125 14.4922 21.3521 14.4922 21.4004C14.4922 21.4487 14.479 21.4883 14.4629 21.4883C14.4468 21.4883 14.4336 21.5278 14.4336 21.5762C14.4336 21.6245 14.4204 21.6641 14.4043 21.6641C14.3882 21.6641 14.375 21.7036 14.375 21.752C14.375 21.8003 14.3618 21.8398 14.3457 21.8398C14.3296 21.8398 14.3164 21.8794 14.3164 21.9277C14.3164 21.9761 14.3032 22.0156 14.2871 22.0156C14.271 22.0156 14.2578 22.0552 14.2578 22.1035C14.2578 22.1519 14.2446 22.1914 14.2285 22.1914C14.2124 22.1914 14.1992 22.2441 14.1992 22.3086C14.1992 22.373 14.186 22.4258 14.1699 22.4258C14.1538 22.4258 14.1406 22.4653 14.1406 22.5137C14.1406 22.562 14.1274 22.6016 14.1113 22.6016C14.0952 22.6016 14.082 22.6411 14.082 22.6895C14.082 22.7378 14.0688 22.7773 14.0527 22.7773C14.0366 22.7773 14.0234 22.8169 14.0234 22.8652C14.0234 22.9136 14.0103 22.9531 13.9941 22.9531C13.978 22.9531 13.9648 22.9927 13.9648 23.041C13.9648 23.0894 13.9517 23.1289 13.9355 23.1289C13.9194 23.1289 13.9062 23.1489 13.9062 23.1732C13.9062 23.1976 13.5239 23.5995 13.0566 24.0664C12.5894 24.5333 12.207 24.9352 12.207 24.9596C12.207 24.984 12.1938 25.0039 12.1777 25.0039C12.1616 25.0039 12.1484 25.0303 12.1484 25.0625C12.1484 25.0947 12.1353 25.1211 12.1191 25.1211C12.103 25.1211 12.0898 25.1475 12.0898 25.1797C12.0898 25.2119 12.0767 25.2383 12.0605 25.2383C12.0413 25.2383 12.0312 25.9414 12.0312 27.2891C12.0312 28.6367 12.0413 29.3398 12.0605 29.3398C12.0767 29.3398 12.0898 29.4058 12.0898 29.4863C12.0898 29.5669 12.103 29.6328 12.1191 29.6328C12.1353 29.6328 12.1484 29.6855 12.1484 29.75V29.8672H9.45312H6.75781V19.2617V8.65625H8.51562H10.2734V9.21289ZM9.16016 12.2012C9.16016 12.2173 9.13379 12.2305 9.10156 12.2305C9.06934 12.2305 9.04297 12.2437 9.04297 12.2598C9.04297 12.2759 9.0166 12.2891 8.98438 12.2891C8.95215 12.2891 8.92578 12.3022 8.92578 12.3184C8.92578 12.3345 8.90542 12.3477 8.88052 12.3477C8.85562 12.3477 8.80288 12.38 8.76333 12.4196C8.72378 12.4591 8.69141 12.5119 8.69141 12.5368C8.69141 12.5617 8.67822 12.582 8.66211 12.582C8.646 12.582 8.63281 12.6084 8.63281 12.6406C8.63281 12.6729 8.61963 12.6992 8.60352 12.6992C8.5874 12.6992 8.57422 12.7256 8.57422 12.7578C8.57422 12.79 8.56104 12.8164 8.54492 12.8164C8.52784 12.8164 8.51562 12.9141 8.51562 13.0508C8.51562 13.1875 8.52784 13.2852 8.54492 13.2852C8.56104 13.2852 8.57422 13.3115 8.57422 13.3438C8.57422 13.376 8.5874 13.4023 8.60352 13.4023C8.61963 13.4023 8.63281 13.4287 8.63281 13.4609C8.63281 13.4932 8.646 13.5195 8.66211 13.5195C8.67822 13.5195 8.69141 13.5399 8.69141 13.5648C8.69141 13.6234 8.82189 13.7539 8.88052 13.7539C8.90542 13.7539 8.92578 13.7671 8.92578 13.7832C8.92578 13.7993 8.95215 13.8125 8.98438 13.8125C9.0166 13.8125 9.04297 13.8257 9.04297 13.8418C9.04297 13.8579 9.06934 13.8711 9.10156 13.8711C9.13379 13.8711 9.16016 13.8843 9.16016 13.9004C9.16016 13.9175 9.2578 13.9297 9.39453 13.9297C9.53126 13.9297 9.62891 13.9175 9.62891 13.9004C9.62891 13.8843 9.65527 13.8711 9.6875 13.8711C9.71973 13.8711 9.74609 13.8579 9.74609 13.8418C9.74609 13.8257 9.77246 13.8125 9.80469 13.8125C9.83691 13.8125 9.86328 13.7993 9.86328 13.7832C9.86328 13.7671 9.88364 13.7539 9.90855 13.7539C9.96717 13.7539 10.0977 13.6234 10.0977 13.5648C10.0977 13.5399 10.1108 13.5195 10.127 13.5195C10.1431 13.5195 10.1562 13.4932 10.1562 13.4609C10.1562 13.4287 10.1694 13.4023 10.1855 13.4023C10.2017 13.4023 10.2148 13.376 10.2148 13.3438C10.2148 13.3115 10.228 13.2852 10.2441 13.2852C10.2612 13.2852 10.2734 13.1875 10.2734 13.0508C10.2734 12.9141 10.2612 12.8164 10.2441 12.8164C10.228 12.8164 10.2148 12.79 10.2148 12.7578C10.2148 12.7256 10.2017 12.6992 10.1855 12.6992C10.1694 12.6992 10.1562 12.6729 10.1562 12.6406C10.1562 12.6084 10.1431 12.582 10.127 12.582C10.1108 12.582 10.0977 12.5617 10.0977 12.5368C10.0977 12.4781 9.96717 12.3477 9.90855 12.3477C9.88364 12.3477 9.86328 12.3345 9.86328 12.3184C9.86328 12.3022 9.83691 12.2891 9.80469 12.2891C9.77246 12.2891 9.74609 12.2759 9.74609 12.2598C9.74609 12.2437 9.71973 12.2305 9.6875 12.2305C9.65527 12.2305 9.62891 12.2173 9.62891 12.2012C9.62891 12.1841 9.53126 12.1719 9.39453 12.1719C9.2578 12.1719 9.16016 12.1841 9.16016 12.2012ZM12.6758 12.2012C12.6758 12.2173 12.6494 12.2305 12.6172 12.2305C12.585 12.2305 12.5586 12.2437 12.5586 12.2598C12.5586 12.2759 12.5322 12.2891 12.5 12.2891C12.4678 12.2891 12.4414 12.3022 12.4414 12.3184C12.4414 12.3345 12.421 12.3477 12.3961 12.3477C12.3712 12.3477 12.3185 12.38 12.279 12.4196C12.2394 12.4591 12.207 12.5119 12.207 12.5368C12.207 12.5617 12.1938 12.582 12.1777 12.582C12.1616 12.582 12.1484 12.6084 12.1484 12.6406C12.1484 12.6729 12.1353 12.6992 12.1191 12.6992C12.103 12.6992 12.0898 12.7256 12.0898 12.7578C12.0898 12.79 12.0767 12.8164 12.0605 12.8164C12.0435 12.8164 12.0312 12.9141 12.0312 13.0508C12.0312 13.1875 12.0435 13.2852 12.0605 13.2852C12.0767 13.2852 12.0898 13.3115 12.0898 13.3438C12.0898 13.376 12.103 13.4023 12.1191 13.4023C12.1353 13.4023 12.1484 13.4287 12.1484 13.4609C12.1484 13.4932 12.1616 13.5195 12.1777 13.5195C12.1938 13.5195 12.207 13.5399 12.207 13.5648C12.207 13.6234 12.3375 13.7539 12.3961 13.7539C12.421 13.7539 12.4414 13.7671 12.4414 13.7832C12.4414 13.7993 12.4678 13.8125 12.5 13.8125C12.5322 13.8125 12.5586 13.8257 12.5586 13.8418C12.5586 13.8579 12.585 13.8711 12.6172 13.8711C12.6494 13.8711 12.6758 13.8843 12.6758 13.9004C12.6758 13.9197 13.6523 13.9297 15.5469 13.9297C17.4414 13.9297 18.418 13.9197 18.418 13.9004C18.418 13.8843 18.4443 13.8711 18.4766 13.8711C18.5088 13.8711 18.5352 13.8579 18.5352 13.8418C18.5352 13.8257 18.5615 13.8125 18.5938 13.8125C18.626 13.8125 18.6523 13.7993 18.6523 13.7832C18.6523 13.7671 18.6727 13.7539 18.6976 13.7539C18.7562 13.7539 18.8867 13.6234 18.8867 13.5648C18.8867 13.5399 18.8999 13.5195 18.916 13.5195C18.9321 13.5195 18.9453 13.4932 18.9453 13.4609C18.9453 13.4287 18.9585 13.4023 18.9746 13.4023C18.9907 13.4023 19.0039 13.376 19.0039 13.3438C19.0039 13.3115 19.0171 13.2852 19.0332 13.2852C19.0503 13.2852 19.0625 13.1875 19.0625 13.0508C19.0625 12.9141 19.0503 12.8164 19.0332 12.8164C19.0171 12.8164 19.0039 12.79 19.0039 12.7578C19.0039 12.7256 18.9907 12.6992 18.9746 12.6992C18.9585 12.6992 18.9453 12.6729 18.9453 12.6406C18.9453 12.6084 18.9321 12.582 18.916 12.582C18.8999 12.582 18.8867 12.5617 18.8867 12.5368C18.8867 12.4781 18.7562 12.3477 18.6976 12.3477C18.6727 12.3477 18.6523 12.3345 18.6523 12.3184C18.6523 12.3022 18.626 12.2891 18.5938 12.2891C18.5615 12.2891 18.5352 12.2759 18.5352 12.2598C18.5352 12.2437 18.5088 12.2305 18.4766 12.2305C18.4443 12.2305 18.418 12.2173 18.418 12.2012C18.418 12.1818 17.4414 12.1719 15.5469 12.1719C13.6523 12.1719 12.6758 12.1818 12.6758 12.2012ZM9.16016 15.7168C9.16016 15.7329 9.13379 15.7461 9.10156 15.7461C9.06934 15.7461 9.04297 15.7593 9.04297 15.7754C9.04297 15.7915 9.0166 15.8047 8.98438 15.8047C8.95215 15.8047 8.92578 15.8179 8.92578 15.834C8.92578 15.8501 8.90542 15.8633 8.88052 15.8633C8.82189 15.8633 8.69141 15.9938 8.69141 16.0524C8.69141 16.0773 8.67822 16.0977 8.66211 16.0977C8.646 16.0977 8.63281 16.124 8.63281 16.1562C8.63281 16.1885 8.61963 16.2148 8.60352 16.2148C8.5874 16.2148 8.57422 16.2412 8.57422 16.2734C8.57422 16.3057 8.56104 16.332 8.54492 16.332C8.52784 16.332 8.51562 16.4297 8.51562 16.5664C8.51562 16.7031 8.52784 16.8008 8.54492 16.8008C8.56104 16.8008 8.57422 16.8271 8.57422 16.8594C8.57422 16.8916 8.5874 16.918 8.60352 16.918C8.61963 16.918 8.63281 16.9443 8.63281 16.9766C8.63281 17.0088 8.646 17.0352 8.66211 17.0352C8.67822 17.0352 8.69141 17.0555 8.69141 17.0804C8.69141 17.139 8.82189 17.2695 8.88052 17.2695C8.90542 17.2695 8.92578 17.2827 8.92578 17.2988C8.92578 17.3149 8.95215 17.3281 8.98438 17.3281C9.0166 17.3281 9.04297 17.3413 9.04297 17.3574C9.04297 17.3735 9.06934 17.3867 9.10156 17.3867C9.13379 17.3867 9.16016 17.3999 9.16016 17.416C9.16016 17.4331 9.2578 17.4453 9.39453 17.4453C9.53126 17.4453 9.62891 17.4331 9.62891 17.416C9.62891 17.3999 9.65527 17.3867 9.6875 17.3867C9.71973 17.3867 9.74609 17.3735 9.74609 17.3574C9.74609 17.3413 9.77246 17.3281 9.80469 17.3281C9.83691 17.3281 9.86328 17.3149 9.86328 17.2988C9.86328 17.2827 9.88364 17.2695 9.90855 17.2695C9.96717 17.2695 10.0977 17.139 10.0977 17.0804C10.0977 17.0555 10.1108 17.0352 10.127 17.0352C10.1431 17.0352 10.1562 17.0088 10.1562 16.9766C10.1562 16.9443 10.1694 16.918 10.1855 16.918C10.2017 16.918 10.2148 16.8916 10.2148 16.8594C10.2148 16.8271 10.228 16.8008 10.2441 16.8008C10.2612 16.8008 10.2734 16.7031 10.2734 16.5664C10.2734 16.4297 10.2612 16.332 10.2441 16.332C10.228 16.332 10.2148 16.3057 10.2148 16.2734C10.2148 16.2412 10.2017 16.2148 10.1855 16.2148C10.1694 16.2148 10.1562 16.1885 10.1562 16.1562C10.1562 16.124 10.1431 16.0977 10.127 16.0977C10.1108 16.0977 10.0977 16.0773 10.0977 16.0524C10.0977 15.9938 9.96717 15.8633 9.90855 15.8633C9.88364 15.8633 9.86328 15.8501 9.86328 15.834C9.86328 15.8179 9.83691 15.8047 9.80469 15.8047C9.77246 15.8047 9.74609 15.7915 9.74609 15.7754C9.74609 15.7593 9.71973 15.7461 9.6875 15.7461C9.65527 15.7461 9.62891 15.7329 9.62891 15.7168C9.62891 15.6997 9.53126 15.6875 9.39453 15.6875C9.2578 15.6875 9.16016 15.6997 9.16016 15.7168ZM12.6758 15.7168C12.6758 15.7329 12.6494 15.7461 12.6172 15.7461C12.585 15.7461 12.5586 15.7593 12.5586 15.7754C12.5586 15.7915 12.5322 15.8047 12.5 15.8047C12.4678 15.8047 12.4414 15.8179 12.4414 15.834C12.4414 15.8501 12.421 15.8633 12.3961 15.8633C12.3375 15.8633 12.207 15.9938 12.207 16.0524C12.207 16.0773 12.1938 16.0977 12.1777 16.0977C12.1616 16.0977 12.1484 16.124 12.1484 16.1562C12.1484 16.1885 12.1353 16.2148 12.1191 16.2148C12.103 16.2148 12.0898 16.2412 12.0898 16.2734C12.0898 16.3057 12.0767 16.332 12.0605 16.332C12.0435 16.332 12.0312 16.4297 12.0312 16.5664C12.0312 16.7031 12.0435 16.8008 12.0605 16.8008C12.0767 16.8008 12.0898 16.8271 12.0898 16.8594C12.0898 16.8916 12.103 16.918 12.1191 16.918C12.1353 16.918 12.1484 16.9443 12.1484 16.9766C12.1484 17.0088 12.1616 17.0352 12.1777 17.0352C12.1938 17.0352 12.207 17.0555 12.207 17.0804C12.207 17.139 12.3375 17.2695 12.3961 17.2695C12.421 17.2695 12.4414 17.2827 12.4414 17.2988C12.4414 17.3149 12.4678 17.3281 12.5 17.3281C12.5322 17.3281 12.5586 17.3413 12.5586 17.3574C12.5586 17.3735 12.585 17.3867 12.6172 17.3867C12.6494 17.3867 12.6758 17.3999 12.6758 17.416C12.6758 17.4353 13.3594 17.4453 14.668 17.4453C15.9766 17.4453 16.6602 17.4353 16.6602 17.416C16.6602 17.3999 16.6865 17.3867 16.7188 17.3867C16.751 17.3867 16.7773 17.3735 16.7773 17.3574C16.7773 17.3413 16.8037 17.3281 16.8359 17.3281C16.8682 17.3281 16.8945 17.3149 16.8945 17.2988C16.8945 17.2827 16.9149 17.2695 16.9398 17.2695C16.9984 17.2695 17.1289 17.139 17.1289 17.0804C17.1289 17.0555 17.1421 17.0352 17.1582 17.0352C17.1743 17.0352 17.1875 17.0088 17.1875 16.9766C17.1875 16.9443 17.2007 16.918 17.2168 16.918C17.2329 16.918 17.2461 16.8916 17.2461 16.8594C17.2461 16.8271 17.2593 16.8008 17.2754 16.8008C17.2925 16.8008 17.3047 16.7031 17.3047 16.5664C17.3047 16.4297 17.2925 16.332 17.2754 16.332C17.2593 16.332 17.2461 16.3057 17.2461 16.2734C17.2461 16.2412 17.2329 16.2148 17.2168 16.2148C17.2007 16.2148 17.1875 16.1885 17.1875 16.1562C17.1875 16.124 17.1743 16.0977 17.1582 16.0977C17.1421 16.0977 17.1289 16.0773 17.1289 16.0524C17.1289 15.9938 16.9984 15.8633 16.9398 15.8633C16.9149 15.8633 16.8945 15.8501 16.8945 15.834C16.8945 15.8179 16.8682 15.8047 16.8359 15.8047C16.8037 15.8047 16.7773 15.7915 16.7773 15.7754C16.7773 15.7593 16.751 15.7461 16.7188 15.7461C16.6865 15.7461 16.6602 15.7329 16.6602 15.7168C16.6602 15.6975 15.9766 15.6875 14.668 15.6875C13.3594 15.6875 12.6758 15.6975 12.6758 15.7168ZM29.5508 19.2324C29.5508 19.2485 29.5903 19.2617 29.6387 19.2617C29.687 19.2617 29.7266 19.2749 29.7266 19.291C29.7266 19.3071 29.7467 19.3203 29.7713 19.3203C29.8294 19.3203 30.0781 19.569 30.0781 19.6272C30.0781 19.6517 30.0913 19.6719 30.1074 19.6719C30.1235 19.6719 30.1367 19.6982 30.1367 19.7305C30.1367 19.7627 30.1499 19.7891 30.166 19.7891C30.1821 19.7891 30.1953 19.8286 30.1953 19.877C30.1953 19.9253 30.2085 19.9648 30.2246 19.9648C30.2407 19.9648 30.2539 20.0044 30.2539 20.0527C30.2539 20.1011 30.2671 20.1406 30.2832 20.1406C30.2993 20.1406 30.3125 20.1802 30.3125 20.2285C30.3125 20.2769 30.3257 20.3164 30.3418 20.3164C30.3579 20.3164 30.3711 20.356 30.3711 20.4043C30.3711 20.4526 30.3843 20.4922 30.4004 20.4922C30.4165 20.4922 30.4297 20.5317 30.4297 20.5801C30.4297 20.6284 30.4429 20.668 30.459 20.668C30.4751 20.668 30.4883 20.7075 30.4883 20.7559C30.4883 20.8042 30.5015 20.8438 30.5176 20.8438C30.5337 20.8438 30.5469 20.8965 30.5469 20.9609C30.5469 21.0254 30.5601 21.0781 30.5762 21.0781C30.5923 21.0781 30.6055 21.1177 30.6055 21.166C30.6055 21.2144 30.6187 21.2539 30.6348 21.2539C30.6509 21.2539 30.6641 21.2935 30.6641 21.3418C30.6641 21.3901 30.6772 21.4297 30.6934 21.4297C30.7095 21.4297 30.7227 21.4692 30.7227 21.5176C30.7227 21.5659 30.7358 21.6055 30.752 21.6055C30.7681 21.6055 30.7812 21.645 30.7812 21.6934C30.7812 21.7417 30.7944 21.7812 30.8105 21.7812C30.8267 21.7812 30.8398 21.8208 30.8398 21.8691C30.8398 21.9175 30.853 21.957 30.8691 21.957C30.8853 21.957 30.8984 21.9966 30.8984 22.0449C30.8984 22.0933 30.9116 22.1328 30.9277 22.1328C30.9438 22.1328 30.957 22.1724 30.957 22.2207C30.957 22.269 30.9702 22.3086 30.9863 22.3086C31.0024 22.3086 31.0156 22.3481 31.0156 22.3965C31.0156 22.4448 31.0288 22.4844 31.0449 22.4844C31.061 22.4844 31.0742 22.5239 31.0742 22.5723C31.0742 22.6206 31.0874 22.6602 31.1035 22.6602C31.1196 22.6602 31.1328 22.6997 31.1328 22.748V22.8359H30.752C30.5176 22.8359 30.3711 22.8472 30.3711 22.8652C30.3711 22.8813 30.3315 22.8945 30.2832 22.8945C30.2349 22.8945 30.1953 22.9077 30.1953 22.9238C30.1953 22.9399 30.1689 22.9531 30.1367 22.9531C30.1045 22.9531 30.0781 22.9663 30.0781 22.9824C30.0781 22.9985 30.0518 23.0117 30.0195 23.0117C29.9873 23.0117 29.9609 23.0249 29.9609 23.041C29.9609 23.0571 29.9346 23.0703 29.9023 23.0703C29.8701 23.0703 29.8438 23.0835 29.8438 23.0996C29.8438 23.1157 29.8174 23.1289 29.7852 23.1289C29.7529 23.1289 29.7266 23.1421 29.7266 23.1582C29.7266 23.1743 29.7002 23.1875 29.668 23.1875C29.6357 23.1875 29.6094 23.2007 29.6094 23.2168C29.6094 23.2329 29.583 23.2461 29.5508 23.2461C29.5186 23.2461 29.4922 23.2593 29.4922 23.2754C29.4922 23.2915 29.4658 23.3047 29.4336 23.3047C29.4014 23.3047 29.375 23.3179 29.375 23.334C29.375 23.3501 29.3486 23.3633 29.3164 23.3633C29.2842 23.3633 29.2578 23.3765 29.2578 23.3926C29.2578 23.4087 29.2314 23.4219 29.1992 23.4219C29.167 23.4219 29.1406 23.4351 29.1406 23.4512C29.1406 23.4673 29.1143 23.4805 29.082 23.4805C29.0498 23.4805 29.0234 23.4937 29.0234 23.5098C29.0234 23.5259 28.9971 23.5391 28.9648 23.5391C28.9326 23.5391 28.9062 23.5522 28.9062 23.5684C28.9062 23.5845 28.8799 23.5977 28.8477 23.5977C28.8154 23.5977 28.7891 23.6108 28.7891 23.627C28.7891 23.6431 28.7627 23.6562 28.7305 23.6562C28.6982 23.6562 28.6719 23.6694 28.6719 23.6855C28.6719 23.7017 28.6455 23.7148 28.6133 23.7148C28.5811 23.7148 28.5547 23.728 28.5547 23.7441C28.5547 23.7603 28.5283 23.7734 28.4961 23.7734C28.4639 23.7734 28.4375 23.7866 28.4375 23.8027C28.4375 23.8188 28.4111 23.832 28.3789 23.832C28.3467 23.832 28.3203 23.8452 28.3203 23.8613C28.3203 23.8774 28.2939 23.8906 28.2617 23.8906C28.2295 23.8906 28.2031 23.9038 28.2031 23.9199C28.2031 23.936 28.1768 23.9492 28.1445 23.9492C28.1123 23.9492 28.0859 23.9624 28.0859 23.9785C28.0859 23.9946 28.0596 24.0078 28.0273 24.0078C27.9951 24.0078 27.9688 24.021 27.9688 24.0371C27.9688 24.0532 27.9424 24.0664 27.9102 24.0664C27.8779 24.0664 27.8516 24.0796 27.8516 24.0957C27.8516 24.1118 27.8252 24.125 27.793 24.125C27.7607 24.125 27.7344 24.1382 27.7344 24.1543C27.7344 24.1704 27.708 24.1836 27.6758 24.1836C27.6436 24.1836 27.6172 24.1968 27.6172 24.2129C27.6172 24.229 27.5908 24.2422 27.5586 24.2422C27.5264 24.2422 27.5 24.2554 27.5 24.2715C27.5 24.2876 27.4736 24.3008 27.4414 24.3008C27.4092 24.3008 27.3828 24.314 27.3828 24.3301C27.3828 24.3462 27.3564 24.3594 27.3242 24.3594C27.292 24.3594 27.2656 24.3726 27.2656 24.3887C27.2656 24.4048 27.2393 24.418 27.207 24.418C27.1748 24.418 27.1484 24.4312 27.1484 24.4473C27.1484 24.4634 27.1221 24.4766 27.0898 24.4766C27.0576 24.4766 27.0312 24.4897 27.0312 24.5059C27.0312 24.522 27.0049 24.5352 26.9727 24.5352C26.9404 24.5352 26.9141 24.5483 26.9141 24.5645C26.9141 24.5838 25.7715 24.5938 23.5449 24.5938C21.3184 24.5938 20.1758 24.5838 20.1758 24.5645C20.1758 24.5483 20.1494 24.5352 20.1172 24.5352C20.085 24.5352 20.0586 24.522 20.0586 24.5059C20.0586 24.4897 20.0322 24.4766 20 24.4766C19.9678 24.4766 19.9414 24.4634 19.9414 24.4473C19.9414 24.4312 19.9019 24.418 19.8535 24.418C19.8052 24.418 19.7656 24.4048 19.7656 24.3887C19.7656 24.3726 19.7393 24.3594 19.707 24.3594C19.6748 24.3594 19.6484 24.3462 19.6484 24.3301C19.6484 24.314 19.6221 24.3008 19.5898 24.3008C19.5576 24.3008 19.5312 24.2876 19.5312 24.2715C19.5312 24.2554 19.5049 24.2422 19.4727 24.2422C19.4404 24.2422 19.4141 24.229 19.4141 24.2129C19.4141 24.1968 19.3877 24.1836 19.3555 24.1836C19.3232 24.1836 19.2969 24.1704 19.2969 24.1543C19.2969 24.1382 19.2705 24.125 19.2383 24.125C19.2061 24.125 19.1797 24.1118 19.1797 24.0957C19.1797 24.0796 19.1533 24.0664 19.1211 24.0664C19.0889 24.0664 19.0625 24.0532 19.0625 24.0371C19.0625 24.021 19.0361 24.0078 19.0039 24.0078C18.9717 24.0078 18.9453 23.9946 18.9453 23.9785C18.9453 23.9624 18.9189 23.9492 18.8867 23.9492C18.8545 23.9492 18.8281 23.936 18.8281 23.9199C18.8281 23.9038 18.8018 23.8906 18.7695 23.8906C18.7373 23.8906 18.7109 23.8774 18.7109 23.8613C18.7109 23.8452 18.6846 23.832 18.6523 23.832C18.6201 23.832 18.5938 23.8188 18.5938 23.8027C18.5938 23.7866 18.5674 23.7734 18.5352 23.7734C18.5029 23.7734 18.4766 23.7603 18.4766 23.7441C18.4766 23.728 18.4502 23.7148 18.418 23.7148C18.3857 23.7148 18.3594 23.7017 18.3594 23.6855C18.3594 23.6694 18.333 23.6562 18.3008 23.6562C18.2686 23.6562 18.2422 23.6431 18.2422 23.627C18.2422 23.6108 18.2158 23.5977 18.1836 23.5977C18.1514 23.5977 18.125 23.5845 18.125 23.5684C18.125 23.5522 18.0986 23.5391 18.0664 23.5391C18.0342 23.5391 18.0078 23.5259 18.0078 23.5098C18.0078 23.4937 17.9814 23.4805 17.9492 23.4805C17.917 23.4805 17.8906 23.4673 17.8906 23.4512C17.8906 23.4351 17.8643 23.4219 17.832 23.4219C17.7998 23.4219 17.7734 23.4087 17.7734 23.3926C17.7734 23.3765 17.7471 23.3633 17.7148 23.3633C17.6826 23.3633 17.6562 23.3501 17.6562 23.334C17.6562 23.3179 17.6299 23.3047 17.5977 23.3047C17.5654 23.3047 17.5391 23.2915 17.5391 23.2754C17.5391 23.2593 17.5127 23.2461 17.4805 23.2461C17.4482 23.2461 17.4219 23.2329 17.4219 23.2168C17.4219 23.2007 17.3955 23.1875 17.3633 23.1875C17.3311 23.1875 17.3047 23.1743 17.3047 23.1582C17.3047 23.1421 17.2783 23.1289 17.2461 23.1289C17.2139 23.1289 17.1875 23.1157 17.1875 23.0996C17.1875 23.0835 17.1611 23.0703 17.1289 23.0703C17.0967 23.0703 17.0703 23.0571 17.0703 23.041C17.0703 23.0249 17.0439 23.0117 17.0117 23.0117C16.9795 23.0117 16.9531 22.9985 16.9531 22.9824C16.9531 22.9663 16.9268 22.9531 16.8945 22.9531C16.8623 22.9531 16.8359 22.9399 16.8359 22.9238C16.8359 22.9077 16.7964 22.8945 16.748 22.8945C16.6997 22.8945 16.6602 22.8813 16.6602 22.8652C16.6602 22.8472 16.5137 22.8359 16.2793 22.8359H15.8984V22.748C15.8984 22.6997 15.9116 22.6602 15.9277 22.6602C15.9438 22.6602 15.957 22.6206 15.957 22.5723C15.957 22.5239 15.9702 22.4844 15.9863 22.4844C16.0024 22.4844 16.0156 22.4448 16.0156 22.3965C16.0156 22.3481 16.0288 22.3086 16.0449 22.3086C16.061 22.3086 16.0742 22.269 16.0742 22.2207C16.0742 22.1724 16.0874 22.1328 16.1035 22.1328C16.1196 22.1328 16.1328 22.0933 16.1328 22.0449C16.1328 21.9966 16.146 21.957 16.1621 21.957C16.1782 21.957 16.1914 21.9175 16.1914 21.8691C16.1914 21.8208 16.2046 21.7812 16.2207 21.7812C16.2368 21.7812 16.25 21.7417 16.25 21.6934C16.25 21.645 16.2632 21.6055 16.2793 21.6055C16.2954 21.6055 16.3086 21.5659 16.3086 21.5176C16.3086 21.4692 16.3218 21.4297 16.3379 21.4297C16.354 21.4297 16.3672 21.3901 16.3672 21.3418C16.3672 21.2935 16.3804 21.2539 16.3965 21.2539C16.4126 21.2539 16.4258 21.2144 16.4258 21.166C16.4258 21.1177 16.439 21.0781 16.4551 21.0781C16.4712 21.0781 16.4844 21.0254 16.4844 20.9609C16.4844 20.8965 16.4976 20.8438 16.5137 20.8438C16.5298 20.8438 16.543 20.8042 16.543 20.7559C16.543 20.7075 16.5562 20.668 16.5723 20.668C16.5884 20.668 16.6016 20.6284 16.6016 20.5801C16.6016 20.5317 16.6147 20.4922 16.6309 20.4922C16.647 20.4922 16.6602 20.4526 16.6602 20.4043C16.6602 20.356 16.6733 20.3164 16.6895 20.3164C16.7056 20.3164 16.7188 20.2769 16.7188 20.2285C16.7188 20.1802 16.7319 20.1406 16.748 20.1406C16.7642 20.1406 16.7773 20.1011 16.7773 20.0527C16.7773 20.0044 16.7905 19.9648 16.8066 19.9648C16.8228 19.9648 16.8359 19.9253 16.8359 19.877C16.8359 19.8286 16.8491 19.7891 16.8652 19.7891C16.8813 19.7891 16.8945 19.7627 16.8945 19.7305C16.8945 19.6982 16.9077 19.6719 16.9238 19.6719C16.9399 19.6719 16.9531 19.6517 16.9531 19.6272C16.9531 19.569 17.2018 19.3203 17.26 19.3203C17.2846 19.3203 17.3047 19.3071 17.3047 19.291C17.3047 19.2749 17.3442 19.2617 17.3926 19.2617C17.4409 19.2617 17.4805 19.2485 17.4805 19.2324C17.4805 19.213 19.5117 19.2031 23.5156 19.2031C27.5195 19.2031 29.5508 19.213 29.5508 19.2324ZM16.3086 24.623C16.3086 24.6392 16.335 24.6523 16.3672 24.6523C16.3994 24.6523 16.4258 24.6655 16.4258 24.6816C16.4258 24.6978 16.4521 24.7109 16.4844 24.7109C16.5166 24.7109 16.543 24.7241 16.543 24.7402C16.543 24.7563 16.5693 24.7695 16.6016 24.7695C16.6338 24.7695 16.6602 24.7827 16.6602 24.7988C16.6602 24.8149 16.6865 24.8281 16.7188 24.8281C16.751 24.8281 16.7773 24.8413 16.7773 24.8574C16.7773 24.8735 16.8037 24.8867 16.8359 24.8867C16.8682 24.8867 16.8945 24.8999 16.8945 24.916C16.8945 24.9321 16.9209 24.9453 16.9531 24.9453C16.9854 24.9453 17.0117 24.9585 17.0117 24.9746C17.0117 24.9907 17.0381 25.0039 17.0703 25.0039C17.1025 25.0039 17.1289 25.0171 17.1289 25.0332C17.1289 25.0493 17.1553 25.0625 17.1875 25.0625C17.2197 25.0625 17.2461 25.0757 17.2461 25.0918C17.2461 25.1079 17.2725 25.1211 17.3047 25.1211C17.3369 25.1211 17.3633 25.1343 17.3633 25.1504C17.3633 25.1665 17.3896 25.1797 17.4219 25.1797C17.4541 25.1797 17.4805 25.1929 17.4805 25.209C17.4805 25.2251 17.5068 25.2383 17.5391 25.2383C17.5713 25.2383 17.5977 25.2515 17.5977 25.2676C17.5977 25.2837 17.624 25.2969 17.6562 25.2969C17.6885 25.2969 17.7148 25.3101 17.7148 25.3262C17.7148 25.3423 17.7412 25.3555 17.7734 25.3555C17.8057 25.3555 17.832 25.3687 17.832 25.3848C17.832 25.4009 17.8584 25.4141 17.8906 25.4141C17.9229 25.4141 17.9492 25.4272 17.9492 25.4434C17.9492 25.4595 17.9756 25.4727 18.0078 25.4727C18.04 25.4727 18.0664 25.4858 18.0664 25.502C18.0664 25.5181 18.0928 25.5312 18.125 25.5312C18.1572 25.5312 18.1836 25.5444 18.1836 25.5605C18.1836 25.5767 18.21 25.5898 18.2422 25.5898C18.2744 25.5898 18.3008 25.603 18.3008 25.6191C18.3008 25.6353 18.3271 25.6484 18.3594 25.6484C18.3916 25.6484 18.418 25.6616 18.418 25.6777C18.418 25.6938 18.4443 25.707 18.4766 25.707C18.5088 25.707 18.5352 25.7202 18.5352 25.7363C18.5352 25.7524 18.5615 25.7656 18.5938 25.7656C18.626 25.7656 18.6523 25.7788 18.6523 25.7949C18.6523 25.811 18.6787 25.8242 18.7109 25.8242C18.7432 25.8242 18.7695 25.8374 18.7695 25.8535C18.7695 25.8696 18.7959 25.8828 18.8281 25.8828C18.8604 25.8828 18.8867 25.896 18.8867 25.9121C18.8867 25.9282 18.9131 25.9414 18.9453 25.9414C18.9775 25.9414 19.0039 25.9546 19.0039 25.9707C19.0039 25.9868 19.0303 26 19.0625 26C19.0947 26 19.1211 26.0132 19.1211 26.0293C19.1211 26.0454 19.1475 26.0586 19.1797 26.0586C19.2119 26.0586 19.2383 26.0718 19.2383 26.0879C19.2383 26.104 19.2646 26.1172 19.2969 26.1172C19.3291 26.1172 19.3555 26.1304 19.3555 26.1465C19.3555 26.1626 19.3818 26.1758 19.4141 26.1758C19.4463 26.1758 19.4727 26.189 19.4727 26.2051C19.4727 26.2212 19.499 26.2344 19.5312 26.2344C19.5635 26.2344 19.5898 26.2476 19.5898 26.2637C19.5898 26.2798 19.6294 26.293 19.6777 26.293C19.7261 26.293 19.7656 26.3062 19.7656 26.3223C19.7656 26.3416 21.0449 26.3516 23.5449 26.3516C26.0449 26.3516 27.3242 26.3416 27.3242 26.3223C27.3242 26.3062 27.3638 26.293 27.4121 26.293C27.4604 26.293 27.5 26.2798 27.5 26.2637C27.5 26.2476 27.5264 26.2344 27.5586 26.2344C27.5908 26.2344 27.6172 26.2212 27.6172 26.2051C27.6172 26.189 27.6436 26.1758 27.6758 26.1758C27.708 26.1758 27.7344 26.1626 27.7344 26.1465C27.7344 26.1304 27.7607 26.1172 27.793 26.1172C27.8252 26.1172 27.8516 26.104 27.8516 26.0879C27.8516 26.0718 27.8779 26.0586 27.9102 26.0586C27.9424 26.0586 27.9688 26.0454 27.9688 26.0293C27.9688 26.0132 27.9951 26 28.0273 26C28.0596 26 28.0859 25.9868 28.0859 25.9707C28.0859 25.9546 28.1123 25.9414 28.1445 25.9414C28.1768 25.9414 28.2031 25.9282 28.2031 25.9121C28.2031 25.896 28.2295 25.8828 28.2617 25.8828C28.2939 25.8828 28.3203 25.8696 28.3203 25.8535C28.3203 25.8374 28.3467 25.8242 28.3789 25.8242C28.4111 25.8242 28.4375 25.811 28.4375 25.7949C28.4375 25.7788 28.4639 25.7656 28.4961 25.7656C28.5283 25.7656 28.5547 25.7524 28.5547 25.7363C28.5547 25.7202 28.5811 25.707 28.6133 25.707C28.6455 25.707 28.6719 25.6938 28.6719 25.6777C28.6719 25.6616 28.6982 25.6484 28.7305 25.6484C28.7627 25.6484 28.7891 25.6353 28.7891 25.6191C28.7891 25.603 28.8154 25.5898 28.8477 25.5898C28.8799 25.5898 28.9062 25.5767 28.9062 25.5605C28.9062 25.5444 28.9326 25.5312 28.9648 25.5312C28.9971 25.5312 29.0234 25.5181 29.0234 25.502C29.0234 25.4858 29.0498 25.4727 29.082 25.4727C29.1143 25.4727 29.1406 25.4595 29.1406 25.4434C29.1406 25.4272 29.167 25.4141 29.1992 25.4141C29.2314 25.4141 29.2578 25.4009 29.2578 25.3848C29.2578 25.3687 29.2842 25.3555 29.3164 25.3555C29.3486 25.3555 29.375 25.3423 29.375 25.3262C29.375 25.3101 29.4014 25.2969 29.4336 25.2969C29.4658 25.2969 29.4922 25.2837 29.4922 25.2676C29.4922 25.2515 29.5186 25.2383 29.5508 25.2383C29.583 25.2383 29.6094 25.2251 29.6094 25.209C29.6094 25.1929 29.6357 25.1797 29.668 25.1797C29.7002 25.1797 29.7266 25.1665 29.7266 25.1504C29.7266 25.1343 29.7529 25.1211 29.7852 25.1211C29.8174 25.1211 29.8438 25.1079 29.8438 25.0918C29.8438 25.0757 29.8701 25.0625 29.9023 25.0625C29.9346 25.0625 29.9609 25.0493 29.9609 25.0332C29.9609 25.0171 29.9873 25.0039 30.0195 25.0039C30.0518 25.0039 30.0781 24.9907 30.0781 24.9746C30.0781 24.9585 30.1045 24.9453 30.1367 24.9453C30.1689 24.9453 30.1953 24.9321 30.1953 24.916C30.1953 24.8999 30.2217 24.8867 30.2539 24.8867C30.2861 24.8867 30.3125 24.8735 30.3125 24.8574C30.3125 24.8413 30.3389 24.8281 30.3711 24.8281C30.4033 24.8281 30.4297 24.8149 30.4297 24.7988C30.4297 24.7827 30.4561 24.7695 30.4883 24.7695C30.5205 24.7695 30.5469 24.7563 30.5469 24.7402C30.5469 24.7241 30.5732 24.7109 30.6055 24.7109C30.6377 24.7109 30.6641 24.6978 30.6641 24.6816C30.6641 24.6655 30.6904 24.6523 30.7227 24.6523C30.7549 24.6523 30.7812 24.6392 30.7812 24.623C30.7812 24.6045 31.001 24.5938 31.382 24.5938H31.9827L32.6125 25.2235L33.2422 25.8532V26.1024V26.3516H31.8066C30.8691 26.3516 30.3711 26.3617 30.3711 26.3809C30.3711 26.397 30.3447 26.4102 30.3125 26.4102C30.2803 26.4102 30.2539 26.4233 30.2539 26.4395C30.2539 26.4556 30.2275 26.4688 30.1953 26.4688C30.1631 26.4688 30.1367 26.4819 30.1367 26.498C30.1367 26.5142 30.1164 26.5273 30.0915 26.5273C30.0328 26.5273 29.9023 26.6578 29.9023 26.7165C29.9023 26.7414 29.8892 26.7617 29.873 26.7617C29.8569 26.7617 29.8438 26.7881 29.8438 26.8203C29.8438 26.8525 29.8306 26.8789 29.8145 26.8789C29.7983 26.8789 29.7852 26.9053 29.7852 26.9375C29.7852 26.9697 29.772 26.9961 29.7559 26.9961C29.7388 26.9961 29.7266 27.0937 29.7266 27.2305C29.7266 27.3672 29.7388 27.4648 29.7559 27.4648C29.772 27.4648 29.7852 27.4912 29.7852 27.5234C29.7852 27.5557 29.7983 27.582 29.8145 27.582C29.8306 27.582 29.8438 27.6084 29.8438 27.6406C29.8438 27.6729 29.8569 27.6992 29.873 27.6992C29.8892 27.6992 29.9023 27.7196 29.9023 27.7445C29.9023 27.8031 30.0328 27.9336 30.0915 27.9336C30.1164 27.9336 30.1367 27.9468 30.1367 27.9629C30.1367 27.979 30.1631 27.9922 30.1953 27.9922C30.2275 27.9922 30.2539 28.0054 30.2539 28.0215C30.2539 28.0376 30.2803 28.0508 30.3125 28.0508C30.3447 28.0508 30.3711 28.064 30.3711 28.0801C30.3711 28.0992 30.8691 28.1094 31.8066 28.1094H33.2422V28.666C33.2422 29.0176 33.2314 29.2227 33.2129 29.2227C33.1968 29.2227 33.1836 29.249 33.1836 29.2812C33.1836 29.3135 33.1704 29.3398 33.1543 29.3398C33.1382 29.3398 33.125 29.3633 33.125 29.392C33.125 29.4206 33.0986 29.4631 33.0664 29.4863C33.0342 29.5096 33.0078 29.5464 33.0078 29.5681C33.0078 29.6218 32.9345 29.6914 32.8781 29.6914C32.8527 29.6914 32.832 29.7046 32.832 29.7207C32.832 29.7368 32.8057 29.75 32.7734 29.75C32.7412 29.75 32.7148 29.7632 32.7148 29.7793C32.7148 29.7954 32.6885 29.8086 32.6562 29.8086C32.624 29.8086 32.5977 29.8218 32.5977 29.8379C32.5977 29.8573 31.5039 29.8672 29.375 29.8672H26.1523V29.3105C26.1523 28.959 26.1416 28.7539 26.123 28.7539C26.1069 28.7539 26.0938 28.7275 26.0938 28.6953C26.0938 28.6631 26.0806 28.6367 26.0645 28.6367C26.0483 28.6367 26.0352 28.6104 26.0352 28.5781C26.0352 28.5459 26.022 28.5195 26.0059 28.5195C25.9897 28.5195 25.9766 28.4992 25.9766 28.4743C25.9766 28.4156 25.8461 28.2852 25.7875 28.2852C25.7625 28.2852 25.7422 28.272 25.7422 28.2559C25.7422 28.2397 25.7158 28.2266 25.6836 28.2266C25.6514 28.2266 25.625 28.2134 25.625 28.1973C25.625 28.1812 25.5986 28.168 25.5664 28.168C25.5342 28.168 25.5078 28.1548 25.5078 28.1387C25.5078 28.1216 25.4102 28.1094 25.2734 28.1094C25.1367 28.1094 25.0391 28.1216 25.0391 28.1387C25.0391 28.1548 25.0127 28.168 24.9805 28.168C24.9482 28.168 24.9219 28.1812 24.9219 28.1973C24.9219 28.2134 24.8955 28.2266 24.8633 28.2266C24.8311 28.2266 24.8047 28.2397 24.8047 28.2559C24.8047 28.272 24.7843 28.2852 24.7594 28.2852C24.7008 28.2852 24.5703 28.4156 24.5703 28.4743C24.5703 28.4992 24.5571 28.5195 24.541 28.5195C24.5249 28.5195 24.5117 28.5459 24.5117 28.5781C24.5117 28.6104 24.4985 28.6367 24.4824 28.6367C24.4663 28.6367 24.4531 28.6631 24.4531 28.6953C24.4531 28.7275 24.4399 28.7539 24.4238 28.7539C24.4053 28.7539 24.3945 28.959 24.3945 29.3105V29.8672H23.5156H22.6367V29.3105C22.6367 28.959 22.6259 28.7539 22.6074 28.7539C22.5913 28.7539 22.5781 28.7275 22.5781 28.6953C22.5781 28.6631 22.5649 28.6367 22.5488 28.6367C22.5327 28.6367 22.5195 28.6104 22.5195 28.5781C22.5195 28.5459 22.5063 28.5195 22.4902 28.5195C22.4741 28.5195 22.4609 28.4992 22.4609 28.4743C22.4609 28.4156 22.3304 28.2852 22.2718 28.2852C22.2469 28.2852 22.2266 28.272 22.2266 28.2559C22.2266 28.2397 22.2002 28.2266 22.168 28.2266C22.1357 28.2266 22.1094 28.2134 22.1094 28.1973C22.1094 28.1812 22.083 28.168 22.0508 28.168C22.0186 28.168 21.9922 28.1548 21.9922 28.1387C21.9922 28.1216 21.8945 28.1094 21.7578 28.1094C21.6211 28.1094 21.5234 28.1216 21.5234 28.1387C21.5234 28.1548 21.4971 28.168 21.4648 28.168C21.4326 28.168 21.4062 28.1812 21.4062 28.1973C21.4062 28.2134 21.3799 28.2266 21.3477 28.2266C21.3154 28.2266 21.2891 28.2397 21.2891 28.2559C21.2891 28.272 21.2687 28.2852 21.2438 28.2852C21.1852 28.2852 21.0547 28.4156 21.0547 28.4743C21.0547 28.4992 21.0415 28.5195 21.0254 28.5195C21.0093 28.5195 20.9961 28.5459 20.9961 28.5781C20.9961 28.6104 20.9829 28.6367 20.9668 28.6367C20.9507 28.6367 20.9375 28.6631 20.9375 28.6953C20.9375 28.7275 20.9243 28.7539 20.9082 28.7539C20.8897 28.7539 20.8789 28.959 20.8789 29.3105V29.8672H17.6562C15.5273 29.8672 14.4336 29.8573 14.4336 29.8379C14.4336 29.8218 14.4072 29.8086 14.375 29.8086C14.3428 29.8086 14.3164 29.7954 14.3164 29.7793C14.3164 29.7632 14.29 29.75 14.2578 29.75C14.2256 29.75 14.1992 29.7368 14.1992 29.7207C14.1992 29.7046 14.1789 29.6914 14.154 29.6914C14.0953 29.6914 13.9648 29.5609 13.9648 29.5023C13.9648 29.4774 13.9517 29.457 13.9355 29.457C13.9194 29.457 13.9062 29.4307 13.9062 29.3984C13.9062 29.3662 13.8931 29.3398 13.877 29.3398C13.8608 29.3398 13.8477 29.3135 13.8477 29.2812C13.8477 29.249 13.8345 29.2227 13.8184 29.2227C13.7998 29.2227 13.7891 29.0176 13.7891 28.666V28.1094H15.2246C16.1621 28.1094 16.6602 28.0992 16.6602 28.0801C16.6602 28.064 16.6865 28.0508 16.7188 28.0508C16.751 28.0508 16.7773 28.0376 16.7773 28.0215C16.7773 28.0054 16.8037 27.9922 16.8359 27.9922C16.8682 27.9922 16.8945 27.979 16.8945 27.9629C16.8945 27.9468 16.9149 27.9336 16.9398 27.9336C16.9984 27.9336 17.1289 27.8031 17.1289 27.7445C17.1289 27.7196 17.1421 27.6992 17.1582 27.6992C17.1743 27.6992 17.1875 27.6729 17.1875 27.6406C17.1875 27.6084 17.2007 27.582 17.2168 27.582C17.2329 27.582 17.2461 27.5557 17.2461 27.5234C17.2461 27.4912 17.2593 27.4648 17.2754 27.4648C17.2925 27.4648 17.3047 27.3672 17.3047 27.2305C17.3047 27.0937 17.2925 26.9961 17.2754 26.9961C17.2593 26.9961 17.2461 26.9697 17.2461 26.9375C17.2461 26.9053 17.2329 26.8789 17.2168 26.8789C17.2007 26.8789 17.1875 26.8525 17.1875 26.8203C17.1875 26.7881 17.1743 26.7617 17.1582 26.7617C17.1421 26.7617 17.1289 26.7414 17.1289 26.7165C17.1289 26.6578 16.9984 26.5273 16.9398 26.5273C16.9149 26.5273 16.8945 26.5142 16.8945 26.498C16.8945 26.4819 16.8682 26.4688 16.8359 26.4688C16.8037 26.4688 16.7773 26.4556 16.7773 26.4395C16.7773 26.4233 16.751 26.4102 16.7188 26.4102C16.6865 26.4102 16.6602 26.397 16.6602 26.3809C16.6602 26.3617 16.1621 26.3516 15.2246 26.3516H13.7891V26.1024V25.8532L14.4116 25.2259L15.0342 24.5985L15.6714 24.5961C16.0783 24.5946 16.3086 24.6043 16.3086 24.623ZM17.3047 32.5039V33.3828H16.4258H15.5469V32.5039V31.625H16.4258H17.3047V32.5039ZM31.4844 32.5039V33.3828H30.6055H29.7266V32.5039V31.625H30.6055H31.4844V32.5039Z" fill="#DD2A1B"/>
</svg>
