<svg width="40" height="41" viewBox="0 0 40 41" fill="none" xmlns="http://www.w3.org/2000/svg">
<path fill-rule="evenodd" clip-rule="evenodd" d="M15.1367 5.16992C15.1367 5.18604 15.0972 5.19922 15.0488 5.19922C15.0005 5.19922 14.9609 5.2124 14.9609 5.22852C14.9609 5.24463 14.9401 5.25781 14.9147 5.25781C14.8892 5.25781 14.8178 5.31055 14.7559 5.375C14.6939 5.43945 14.6283 5.49219 14.61 5.49219C14.5918 5.49219 14.4992 5.57129 14.4043 5.66797C14.3094 5.76465 14.217 5.84375 14.1989 5.84375C14.1809 5.84375 14.1019 5.90967 14.0234 5.99023C13.945 6.0708 13.866 6.13672 13.8479 6.13672C13.8299 6.13672 13.7375 6.21582 13.6426 6.3125C13.5477 6.40918 13.4554 6.48828 13.4375 6.48828C13.4196 6.48828 13.3273 6.56738 13.2324 6.66406C13.1375 6.76074 13.0451 6.83984 13.0271 6.83984C13.009 6.83984 12.93 6.90576 12.8516 6.98633C12.7731 7.06689 12.6941 7.13281 12.6761 7.13281C12.658 7.13281 12.5656 7.21191 12.4707 7.30859C12.3758 7.40527 12.2835 7.48438 12.2656 7.48438C12.2477 7.48438 12.1554 7.56348 12.0605 7.66016C11.9657 7.75684 11.8733 7.83594 11.8552 7.83594C11.8371 7.83594 11.7582 7.90186 11.6797 7.98242C11.6012 8.06299 11.5222 8.12891 11.5042 8.12891C11.4861 8.12891 11.3937 8.20801 11.2988 8.30469C11.2039 8.40137 11.1122 8.48047 11.095 8.48047C11.0463 8.48047 10.5664 8.97213 10.5664 9.02205C10.5664 9.04645 10.5532 9.06641 10.5371 9.06641C10.521 9.06641 10.5078 9.10596 10.5078 9.1543C10.5078 9.20264 10.4946 9.24219 10.4785 9.24219C10.4618 9.24219 10.4492 9.33008 10.4492 9.44727C10.4492 9.56445 10.4618 9.65234 10.4785 9.65234C10.4946 9.65234 10.5078 9.69189 10.5078 9.74023C10.5078 9.78857 10.521 9.82812 10.5371 9.82812C10.5532 9.82812 10.5664 9.84893 10.5664 9.87436C10.5664 9.89981 10.6191 9.97127 10.6836 10.0332C10.748 10.0951 10.8008 10.1609 10.8008 10.1793C10.8008 10.1977 10.8667 10.277 10.9473 10.3555C11.0278 10.434 11.0938 10.5129 11.0938 10.531C11.0938 10.549 11.1729 10.6414 11.2695 10.7363C11.3662 10.8312 11.4453 10.9236 11.4453 10.9417C11.4453 10.9597 11.5112 11.0387 11.5918 11.1172C11.6724 11.1957 11.7383 11.2748 11.7383 11.293C11.7383 11.3112 11.8042 11.3903 11.8848 11.4688C11.9653 11.5472 12.0312 11.6263 12.0312 11.6445C12.0312 11.6627 12.0972 11.7418 12.1777 11.8203C12.2583 11.8988 12.3242 11.9779 12.3242 11.9961C12.3242 12.0143 12.3901 12.0934 12.4707 12.1719C12.5513 12.2504 12.6172 12.3295 12.6172 12.3477C12.6172 12.3658 12.6831 12.445 12.7637 12.5234C12.8442 12.6019 12.9102 12.6867 12.9102 12.712C12.9102 12.7372 12.9233 12.7578 12.9395 12.7578C12.9556 12.7578 12.9688 12.771 12.9688 12.7871C12.9688 12.8032 12.9292 12.8164 12.8809 12.8164C12.8325 12.8164 12.793 12.8296 12.793 12.8457C12.793 12.8618 12.7534 12.875 12.7051 12.875C12.6567 12.875 12.6172 12.8882 12.6172 12.9043C12.6172 12.9204 12.5776 12.9336 12.5293 12.9336C12.481 12.9336 12.4414 12.9468 12.4414 12.9629C12.4414 12.979 12.415 12.9922 12.3828 12.9922C12.3506 12.9922 12.3242 13.0054 12.3242 13.0215C12.3242 13.0376 12.2847 13.0508 12.2363 13.0508C12.188 13.0508 12.1484 13.064 12.1484 13.0801C12.1484 13.0962 12.1221 13.1094 12.0898 13.1094C12.0576 13.1094 12.0312 13.1226 12.0312 13.1387C12.0312 13.1548 11.9917 13.168 11.9434 13.168C11.895 13.168 11.8555 13.1812 11.8555 13.1973C11.8555 13.2134 11.8291 13.2266 11.7969 13.2266C11.7646 13.2266 11.7383 13.2397 11.7383 13.2559C11.7383 13.272 11.7119 13.2852 11.6797 13.2852C11.6475 13.2852 11.6211 13.2983 11.6211 13.3145C11.6211 13.3306 11.5947 13.3438 11.5625 13.3438C11.5303 13.3438 11.5039 13.3569 11.5039 13.373C11.5039 13.3892 11.4775 13.4023 11.4453 13.4023C11.4131 13.4023 11.3867 13.4155 11.3867 13.4316C11.3867 13.4478 11.3604 13.4609 11.3281 13.4609C11.2959 13.4609 11.2695 13.4741 11.2695 13.4902C11.2695 13.5063 11.2432 13.5195 11.2109 13.5195C11.1787 13.5195 11.1523 13.5327 11.1523 13.5488C11.1523 13.5649 11.126 13.5781 11.0938 13.5781C11.0615 13.5781 11.0352 13.5913 11.0352 13.6074C11.0352 13.6235 11.0088 13.6367 10.9766 13.6367C10.9443 13.6367 10.918 13.6499 10.918 13.666C10.918 13.6821 10.8945 13.6953 10.8658 13.6953C10.8372 13.6953 10.7947 13.7217 10.7715 13.7539C10.7483 13.7861 10.7058 13.8125 10.6771 13.8125C10.6485 13.8125 10.625 13.8257 10.625 13.8418C10.625 13.8579 10.6015 13.8711 10.5729 13.8711C10.5442 13.8711 10.5017 13.8975 10.4785 13.9297C10.4553 13.9619 10.4128 13.9883 10.3842 13.9883C10.3555 13.9883 10.332 14.0015 10.332 14.0176C10.332 14.0337 10.3086 14.0469 10.2799 14.0469C10.2512 14.0469 10.2088 14.0732 10.1855 14.1055C10.1623 14.1377 10.1228 14.1641 10.0977 14.1641C10.0725 14.1641 10.033 14.1904 10.0098 14.2227C9.98653 14.2549 9.94936 14.2812 9.92715 14.2812C9.90497 14.2812 9.84983 14.3208 9.80469 14.3691C9.75954 14.4175 9.70681 14.457 9.6875 14.457C9.66819 14.457 9.61546 14.4966 9.57031 14.5449C9.52517 14.5933 9.4727 14.6328 9.45371 14.6328C9.43476 14.6328 9.36857 14.6855 9.30664 14.75C9.24471 14.8145 9.17911 14.8672 9.16083 14.8672C9.14255 14.8672 9.04997 14.9463 8.95508 15.043C8.86019 15.1396 8.76852 15.2188 8.75135 15.2188C8.71063 15.2188 7.92969 15.9997 7.92969 16.0404C7.92969 16.0576 7.85059 16.1492 7.75391 16.2441C7.65723 16.339 7.57812 16.4316 7.57812 16.4499C7.57812 16.4682 7.52539 16.5338 7.46094 16.5957C7.39648 16.6576 7.34375 16.7238 7.34375 16.7428C7.34375 16.7618 7.3042 16.8142 7.25586 16.8594C7.20752 16.9045 7.16797 16.9597 7.16797 16.9818C7.16797 17.004 7.1416 17.0412 7.10938 17.0645C7.07715 17.0877 7.05078 17.1272 7.05078 17.1523C7.05078 17.1775 7.02441 17.217 6.99219 17.2402C6.95996 17.2635 6.93359 17.303 6.93359 17.3281C6.93359 17.3532 6.90723 17.3928 6.875 17.416C6.84277 17.4392 6.81641 17.4788 6.81641 17.5039C6.81641 17.529 6.79004 17.5686 6.75781 17.5918C6.72559 17.615 6.69922 17.6546 6.69922 17.6797C6.69922 17.7048 6.67285 17.7443 6.64062 17.7676C6.6084 17.7908 6.58203 17.8333 6.58203 17.8619C6.58203 17.8906 6.56885 17.9141 6.55273 17.9141C6.53662 17.9141 6.52344 17.9404 6.52344 17.9727C6.52344 18.0049 6.51025 18.0312 6.49414 18.0312C6.47803 18.0312 6.46484 18.0547 6.46484 18.0834C6.46484 18.1121 6.43848 18.1545 6.40625 18.1777C6.37402 18.201 6.34766 18.2434 6.34766 18.2721C6.34766 18.3008 6.33447 18.3242 6.31836 18.3242C6.30225 18.3242 6.28906 18.3506 6.28906 18.3828C6.28906 18.415 6.27588 18.4414 6.25977 18.4414C6.24365 18.4414 6.23047 18.4678 6.23047 18.5C6.23047 18.5322 6.21729 18.5586 6.20117 18.5586C6.18506 18.5586 6.17188 18.585 6.17188 18.6172C6.17188 18.6494 6.15869 18.6758 6.14258 18.6758C6.12646 18.6758 6.11328 18.7021 6.11328 18.7344C6.11328 18.7666 6.1001 18.793 6.08398 18.793C6.06787 18.793 6.05469 18.8325 6.05469 18.8809C6.05469 18.9292 6.0415 18.9688 6.02539 18.9688C6.00928 18.9688 5.99609 18.9951 5.99609 19.0273C5.99609 19.0596 5.98291 19.0859 5.9668 19.0859C5.95068 19.0859 5.9375 19.1123 5.9375 19.1445C5.9375 19.1768 5.92432 19.2031 5.9082 19.2031C5.89209 19.2031 5.87891 19.2295 5.87891 19.2617C5.87891 19.2939 5.86572 19.3203 5.84961 19.3203C5.8335 19.3203 5.82031 19.3599 5.82031 19.4082C5.82031 19.4565 5.80713 19.4961 5.79102 19.4961C5.7749 19.4961 5.76172 19.5225 5.76172 19.5547C5.76172 19.5869 5.74854 19.6133 5.73242 19.6133C5.71631 19.6133 5.70312 19.6528 5.70312 19.7012C5.70312 19.7495 5.68994 19.7891 5.67383 19.7891C5.65771 19.7891 5.64453 19.8286 5.64453 19.877C5.64453 19.9253 5.63135 19.9648 5.61523 19.9648C5.59912 19.9648 5.58594 20.0044 5.58594 20.0527C5.58594 20.1011 5.57275 20.1406 5.55664 20.1406C5.54053 20.1406 5.52734 20.1802 5.52734 20.2285C5.52734 20.2769 5.51416 20.3164 5.49805 20.3164C5.48193 20.3164 5.46875 20.3691 5.46875 20.4336C5.46875 20.498 5.45557 20.5508 5.43945 20.5508C5.42334 20.5508 5.41016 20.5903 5.41016 20.6387C5.41016 20.687 5.39697 20.7266 5.38086 20.7266C5.36475 20.7266 5.35156 20.7793 5.35156 20.8438C5.35156 20.9082 5.33838 20.9609 5.32227 20.9609C5.30615 20.9609 5.29297 21.0137 5.29297 21.0781C5.29297 21.1426 5.27979 21.1953 5.26367 21.1953C5.24756 21.1953 5.23438 21.2612 5.23438 21.3418C5.23438 21.4224 5.22119 21.4883 5.20508 21.4883C5.18879 21.4883 5.17578 21.5664 5.17578 21.6641C5.17578 21.7617 5.16277 21.8398 5.14648 21.8398C5.12976 21.8398 5.11719 21.9277 5.11719 22.0449C5.11719 22.1621 5.10462 22.25 5.08789 22.25C5.07031 22.25 5.05859 22.3672 5.05859 22.543C5.05859 22.7188 5.04688 22.8359 5.0293 22.8359C5.01049 22.8359 5 23.1192 5 23.627C5 24.1348 5.01049 24.418 5.0293 24.418C5.04705 24.418 5.05859 24.5449 5.05859 24.7402C5.05859 24.9356 5.07014 25.0625 5.08789 25.0625C5.10462 25.0625 5.11719 25.1504 5.11719 25.2676C5.11719 25.3848 5.12976 25.4727 5.14648 25.4727C5.16277 25.4727 5.17578 25.5508 5.17578 25.6484C5.17578 25.7461 5.18879 25.8242 5.20508 25.8242C5.22119 25.8242 5.23438 25.8901 5.23438 25.9707C5.23438 26.0513 5.24756 26.1172 5.26367 26.1172C5.27979 26.1172 5.29297 26.1699 5.29297 26.2344C5.29297 26.2988 5.30615 26.3516 5.32227 26.3516C5.33838 26.3516 5.35156 26.4043 5.35156 26.4688C5.35156 26.5332 5.36475 26.5859 5.38086 26.5859C5.39697 26.5859 5.41016 26.6255 5.41016 26.6738C5.41016 26.7222 5.42334 26.7617 5.43945 26.7617C5.45557 26.7617 5.46875 26.8145 5.46875 26.8789C5.46875 26.9434 5.48193 26.9961 5.49805 26.9961C5.51416 26.9961 5.52734 27.0356 5.52734 27.084C5.52734 27.1323 5.54053 27.1719 5.55664 27.1719C5.57275 27.1719 5.58594 27.2114 5.58594 27.2598C5.58594 27.3081 5.59912 27.3477 5.61523 27.3477C5.63135 27.3477 5.64453 27.3872 5.64453 27.4355C5.64453 27.4839 5.65771 27.5234 5.67383 27.5234C5.68994 27.5234 5.70312 27.563 5.70312 27.6113C5.70312 27.6597 5.71631 27.6992 5.73242 27.6992C5.74854 27.6992 5.76172 27.7256 5.76172 27.7578C5.76172 27.79 5.7749 27.8164 5.79102 27.8164C5.80713 27.8164 5.82031 27.856 5.82031 27.9043C5.82031 27.9526 5.8335 27.9922 5.84961 27.9922C5.86572 27.9922 5.87891 28.0186 5.87891 28.0508C5.87891 28.083 5.89209 28.1094 5.9082 28.1094C5.92432 28.1094 5.9375 28.1357 5.9375 28.168C5.9375 28.2002 5.95068 28.2266 5.9668 28.2266C5.98291 28.2266 5.99609 28.2661 5.99609 28.3145C5.99609 28.3628 6.00928 28.4023 6.02539 28.4023C6.0415 28.4023 6.05469 28.4287 6.05469 28.4609C6.05469 28.4932 6.06787 28.5195 6.08398 28.5195C6.1001 28.5195 6.11328 28.5459 6.11328 28.5781C6.11328 28.6104 6.12646 28.6367 6.14258 28.6367C6.15869 28.6367 6.17188 28.6631 6.17188 28.6953C6.17188 28.7275 6.18506 28.7539 6.20117 28.7539C6.21729 28.7539 6.23047 28.7803 6.23047 28.8125C6.23047 28.8447 6.24365 28.8711 6.25977 28.8711C6.27588 28.8711 6.28906 28.8975 6.28906 28.9297C6.28906 28.9619 6.30225 28.9883 6.31836 28.9883C6.33447 28.9883 6.34766 29.0146 6.34766 29.0469C6.34766 29.0791 6.36084 29.1055 6.37695 29.1055C6.39307 29.1055 6.40625 29.1289 6.40625 29.1576C6.40625 29.1863 6.43262 29.2287 6.46484 29.252C6.49707 29.2752 6.52344 29.3176 6.52344 29.3463C6.52344 29.375 6.53662 29.3984 6.55273 29.3984C6.56885 29.3984 6.58203 29.4219 6.58203 29.4506C6.58203 29.4792 6.6084 29.5217 6.64062 29.5449C6.67285 29.5682 6.69922 29.6106 6.69922 29.6393C6.69922 29.6679 6.7124 29.6914 6.72852 29.6914C6.74463 29.6914 6.75781 29.7149 6.75781 29.7435C6.75781 29.7722 6.78418 29.8147 6.81641 29.8379C6.84863 29.8611 6.875 29.9007 6.875 29.9258C6.875 29.9509 6.90137 29.9904 6.93359 30.0137C6.96582 30.0369 6.99219 30.0741 6.99219 30.0963C6.99219 30.1185 7.03174 30.1736 7.08008 30.2188C7.12842 30.2639 7.16797 30.319 7.16797 30.3412C7.16797 30.3634 7.19434 30.4006 7.22656 30.4238C7.25879 30.4471 7.28516 30.4839 7.28516 30.5058C7.28516 30.5277 7.33789 30.5963 7.40234 30.6582C7.4668 30.7201 7.51953 30.7859 7.51953 30.8043C7.51953 30.8227 7.58545 30.902 7.66602 30.9805C7.74658 31.059 7.8125 31.1373 7.8125 31.1545C7.8125 31.1955 8.94509 32.3281 8.9861 32.3281C9.00336 32.3281 9.08167 32.394 9.16016 32.4746C9.23864 32.5552 9.31792 32.6211 9.33632 32.6211C9.35475 32.6211 9.42049 32.6738 9.48242 32.7383C9.54436 32.8027 9.61291 32.8555 9.6348 32.8555C9.65668 32.8555 9.69356 32.8818 9.7168 32.9141C9.74003 32.9463 9.77721 32.9727 9.79941 32.9727C9.82159 32.9727 9.87673 33.0122 9.92188 33.0605C9.96702 33.1089 10.0222 33.1484 10.0443 33.1484C10.0665 33.1484 10.1037 33.1748 10.127 33.207C10.1502 33.2393 10.1897 33.2656 10.2148 33.2656C10.24 33.2656 10.2795 33.292 10.3027 33.3242C10.326 33.3564 10.3684 33.3828 10.3971 33.3828C10.4258 33.3828 10.4492 33.396 10.4492 33.4121C10.4492 33.4282 10.4727 33.4414 10.5013 33.4414C10.53 33.4414 10.5725 33.4678 10.5957 33.5C10.6189 33.5322 10.6614 33.5586 10.6901 33.5586C10.7187 33.5586 10.7422 33.5718 10.7422 33.5879C10.7422 33.604 10.7657 33.6172 10.7943 33.6172C10.823 33.6172 10.8654 33.6436 10.8887 33.6758C10.9119 33.708 10.9544 33.7344 10.983 33.7344C11.0117 33.7344 11.0352 33.7476 11.0352 33.7637C11.0352 33.7798 11.0615 33.793 11.0938 33.793C11.126 33.793 11.1523 33.8062 11.1523 33.8223C11.1523 33.8384 11.1787 33.8516 11.2109 33.8516C11.2432 33.8516 11.2695 33.8647 11.2695 33.8809C11.2695 33.897 11.2959 33.9102 11.3281 33.9102C11.3604 33.9102 11.3867 33.9233 11.3867 33.9395C11.3867 33.9556 11.4131 33.9688 11.4453 33.9688C11.4775 33.9688 11.5039 33.9819 11.5039 33.998C11.5039 34.0142 11.5303 34.0273 11.5625 34.0273C11.5947 34.0273 11.6211 34.0405 11.6211 34.0566C11.6211 34.0728 11.6475 34.0859 11.6797 34.0859C11.7119 34.0859 11.7383 34.0991 11.7383 34.1152C11.7383 34.1313 11.7778 34.1445 11.8262 34.1445C11.8745 34.1445 11.9141 34.1577 11.9141 34.1738C11.9141 34.1899 11.9404 34.2031 11.9727 34.2031C12.0049 34.2031 12.0312 34.2163 12.0312 34.2324C12.0312 34.2485 12.0576 34.2617 12.0898 34.2617C12.1221 34.2617 12.1484 34.2749 12.1484 34.291C12.1484 34.3071 12.188 34.3203 12.2363 34.3203C12.2847 34.3203 12.3242 34.3335 12.3242 34.3496C12.3242 34.3657 12.3506 34.3789 12.3828 34.3789C12.415 34.3789 12.4414 34.3921 12.4414 34.4082C12.4414 34.4243 12.481 34.4375 12.5293 34.4375C12.5776 34.4375 12.6172 34.4507 12.6172 34.4668C12.6172 34.4829 12.6567 34.4961 12.7051 34.4961C12.7534 34.4961 12.793 34.5093 12.793 34.5254C12.793 34.5415 12.8325 34.5547 12.8809 34.5547C12.9292 34.5547 12.9688 34.5679 12.9688 34.584C12.9688 34.6001 13.0083 34.6133 13.0566 34.6133C13.105 34.6133 13.1445 34.6265 13.1445 34.6426C13.1445 34.6587 13.1973 34.6719 13.2617 34.6719C13.3262 34.6719 13.3789 34.6851 13.3789 34.7012C13.3789 34.7173 13.4185 34.7305 13.4668 34.7305C13.5151 34.7305 13.5547 34.7437 13.5547 34.7598C13.5547 34.7759 13.6074 34.7891 13.6719 34.7891C13.7363 34.7891 13.7891 34.8022 13.7891 34.8184C13.7891 34.8345 13.855 34.8477 13.9355 34.8477C14.0161 34.8477 14.082 34.8608 14.082 34.877C14.082 34.8931 14.1348 34.9062 14.1992 34.9062C14.2637 34.9062 14.3164 34.9194 14.3164 34.9355C14.3164 34.9518 14.3945 34.9648 14.4922 34.9648C14.5898 34.9648 14.668 34.9779 14.668 34.9941C14.668 35.0112 14.7656 35.0234 14.9023 35.0234C15.0391 35.0234 15.1367 35.0357 15.1367 35.0527C15.1367 35.0703 15.2539 35.082 15.4297 35.082C15.6055 35.082 15.7227 35.0938 15.7227 35.1113C15.7227 35.1301 15.9961 35.1406 16.4844 35.1406C16.9727 35.1406 17.2461 35.1301 17.2461 35.1113C17.2461 35.0936 17.373 35.082 17.5684 35.082C17.7637 35.082 17.8906 35.0705 17.8906 35.0527C17.8906 35.036 17.9785 35.0234 18.0957 35.0234C18.2129 35.0234 18.3008 35.0109 18.3008 34.9941C18.3008 34.9779 18.3789 34.9648 18.4766 34.9648C18.5742 34.9648 18.6523 34.9518 18.6523 34.9355C18.6523 34.9194 18.7183 34.9062 18.7988 34.9062C18.8794 34.9062 18.9453 34.8931 18.9453 34.877C18.9453 34.8608 18.998 34.8477 19.0625 34.8477C19.127 34.8477 19.1797 34.8345 19.1797 34.8184C19.1797 34.8022 19.2324 34.7891 19.2969 34.7891C19.3613 34.7891 19.4141 34.7759 19.4141 34.7598C19.4141 34.7437 19.4536 34.7305 19.502 34.7305C19.5503 34.7305 19.5898 34.7173 19.5898 34.7012C19.5898 34.6851 19.6426 34.6719 19.707 34.6719C19.7715 34.6719 19.8242 34.6587 19.8242 34.6426C19.8242 34.6265 19.8638 34.6133 19.9121 34.6133C19.9604 34.6133 20 34.6001 20 34.584C20 34.5679 20.0396 34.5547 20.0879 34.5547C20.1362 34.5547 20.1758 34.5415 20.1758 34.5254C20.1758 34.5093 20.2153 34.4961 20.2637 34.4961C20.312 34.4961 20.3516 34.4829 20.3516 34.4668C20.3516 34.4507 20.3911 34.4375 20.4395 34.4375C20.4878 34.4375 20.5273 34.4243 20.5273 34.4082C20.5273 34.3921 20.5537 34.3789 20.5859 34.3789C20.6182 34.3789 20.6445 34.3657 20.6445 34.3496C20.6445 34.3335 20.6841 34.3203 20.7324 34.3203C20.7808 34.3203 20.8203 34.3071 20.8203 34.291C20.8203 34.2749 20.8467 34.2617 20.8789 34.2617C20.9111 34.2617 20.9375 34.2485 20.9375 34.2324C20.9375 34.2163 20.9639 34.2031 20.9961 34.2031C21.0283 34.2031 21.0547 34.1899 21.0547 34.1738C21.0547 34.1577 21.0942 34.1445 21.1426 34.1445C21.1909 34.1445 21.2305 34.1313 21.2305 34.1152C21.2305 34.0991 21.2568 34.0859 21.2891 34.0859C21.3213 34.0859 21.3477 34.0728 21.3477 34.0566C21.3477 34.0405 21.374 34.0273 21.4062 34.0273C21.4385 34.0273 21.4648 34.0142 21.4648 33.998C21.4648 33.9819 21.4912 33.9688 21.5234 33.9688C21.5557 33.9688 21.582 33.9556 21.582 33.9395C21.582 33.9233 21.6084 33.9102 21.6406 33.9102C21.6729 33.9102 21.6992 33.897 21.6992 33.8809C21.6992 33.8647 21.7256 33.8516 21.7578 33.8516C21.79 33.8516 21.8164 33.8384 21.8164 33.8223C21.8164 33.8062 21.8399 33.793 21.8685 33.793C21.8972 33.793 21.9397 33.7666 21.9629 33.7344C21.9861 33.7021 22.0286 33.6758 22.0573 33.6758C22.0859 33.6758 22.1094 33.6626 22.1094 33.6465C22.1094 33.6304 22.1357 33.6172 22.168 33.6172C22.2002 33.6172 22.2266 33.604 22.2266 33.5879C22.2266 33.5718 22.25 33.5586 22.2787 33.5586C22.3074 33.5586 22.3498 33.5322 22.373 33.5C22.3963 33.4678 22.4358 33.4414 22.4609 33.4414C22.486 33.4414 22.5256 33.415 22.5488 33.3828C22.5721 33.3506 22.6116 33.3242 22.6367 33.3242C22.6618 33.3242 22.7014 33.2979 22.7246 33.2656C22.7478 33.2334 22.7874 33.207 22.8125 33.207C22.8376 33.207 22.8772 33.1807 22.9004 33.1484C22.9236 33.1162 22.9632 33.0898 22.9883 33.0898C23.0134 33.0898 23.0529 33.0635 23.0762 33.0312C23.0994 32.999 23.1366 32.9727 23.1588 32.9727C23.181 32.9727 23.2361 32.9331 23.2812 32.8848C23.3264 32.8364 23.3789 32.7969 23.3979 32.7969C23.4168 32.7969 23.483 32.7441 23.5449 32.6797C23.6069 32.6152 23.6725 32.5625 23.6907 32.5625C23.709 32.5625 23.8016 32.4834 23.8965 32.3867C23.9914 32.29 24.083 32.2109 24.1002 32.2109C24.1408 32.2109 24.9219 31.4301 24.9219 31.3895C24.9219 31.3724 25.0142 31.2675 25.127 31.1562C25.2397 31.045 25.332 30.9389 25.332 30.9204C25.332 30.9019 25.3716 30.8498 25.4199 30.8047C25.4683 30.7595 25.5078 30.7068 25.5078 30.6875C25.5078 30.6682 25.5474 30.6155 25.5957 30.5703C25.644 30.5252 25.6836 30.4724 25.6836 30.4531C25.6836 30.4338 25.7231 30.3811 25.7715 30.3359C25.8198 30.2908 25.8594 30.2357 25.8594 30.2135C25.8594 30.1913 25.8857 30.1541 25.918 30.1309C25.9502 30.1076 25.9766 30.0681 25.9766 30.043C25.9766 30.0179 26.0029 29.9783 26.0352 29.9551C26.0674 29.9318 26.0938 29.8894 26.0938 29.8607C26.0938 29.8321 26.1069 29.8086 26.123 29.8086C26.1392 29.8086 26.1523 29.7851 26.1523 29.7565C26.1523 29.7278 26.1787 29.6853 26.2109 29.6621C26.2432 29.6389 26.2695 29.5964 26.2695 29.5677C26.2695 29.5391 26.2827 29.5156 26.2988 29.5156C26.3149 29.5156 26.3281 29.4922 26.3281 29.4635C26.3281 29.4348 26.3545 29.3924 26.3867 29.3691C26.4189 29.3459 26.4453 29.3035 26.4453 29.2748C26.4453 29.2461 26.4585 29.2227 26.4746 29.2227C26.4907 29.2227 26.5039 29.1963 26.5039 29.1641C26.5039 29.1318 26.5171 29.1055 26.5332 29.1055C26.5493 29.1055 26.5625 29.0791 26.5625 29.0469C26.5625 29.0146 26.5757 28.9883 26.5918 28.9883C26.6079 28.9883 26.6211 28.9619 26.6211 28.9297C26.6211 28.8975 26.6343 28.8711 26.6504 28.8711C26.6665 28.8711 26.6797 28.8447 26.6797 28.8125C26.6797 28.7803 26.6929 28.7539 26.709 28.7539C26.7251 28.7539 26.7383 28.7275 26.7383 28.6953C26.7383 28.6631 26.7515 28.6367 26.7676 28.6367C26.7837 28.6367 26.7969 28.6104 26.7969 28.5781C26.7969 28.5459 26.8101 28.5195 26.8262 28.5195C26.8423 28.5195 26.8555 28.4932 26.8555 28.4609C26.8555 28.4287 26.8687 28.4023 26.8848 28.4023C26.9009 28.4023 26.9141 28.376 26.9141 28.3438C26.9141 28.3115 26.9272 28.2852 26.9434 28.2852C26.9595 28.2852 26.9727 28.2588 26.9727 28.2266C26.9727 28.1943 26.9858 28.168 27.002 28.168C27.0181 28.168 27.0312 28.1284 27.0312 28.0801C27.0312 28.0317 27.0444 27.9922 27.0605 27.9922C27.0767 27.9922 27.0898 27.9526 27.0898 27.9043C27.0898 27.856 27.103 27.8164 27.1191 27.8164C27.1353 27.8164 27.1484 27.79 27.1484 27.7578C27.1484 27.7256 27.1616 27.6992 27.1777 27.6992C27.1938 27.6992 27.207 27.6597 27.207 27.6113C27.207 27.563 27.2202 27.5234 27.2363 27.5234C27.2524 27.5234 27.2656 27.4839 27.2656 27.4355C27.2656 27.3872 27.2788 27.3477 27.2949 27.3477C27.311 27.3477 27.3242 27.3081 27.3242 27.2598C27.3242 27.2114 27.3374 27.1719 27.3535 27.1719C27.3696 27.1719 27.3828 27.1323 27.3828 27.084C27.3828 27.0356 27.396 26.9961 27.4121 26.9961C27.4282 26.9961 27.4414 26.9565 27.4414 26.9082C27.4414 26.8599 27.4546 26.8203 27.4707 26.8203C27.4868 26.8203 27.5 26.7676 27.5 26.7031C27.5 26.6387 27.5132 26.5859 27.5293 26.5859C27.5454 26.5859 27.5586 26.5332 27.5586 26.4688C27.5586 26.4043 27.5718 26.3516 27.5879 26.3516C27.604 26.3516 27.6172 26.2988 27.6172 26.2344C27.6172 26.1699 27.6304 26.1172 27.6465 26.1172C27.6626 26.1172 27.6758 26.0513 27.6758 25.9707C27.6758 25.8901 27.689 25.8242 27.7051 25.8242C27.7214 25.8242 27.7344 25.7461 27.7344 25.6484C27.7344 25.5508 27.7474 25.4727 27.7637 25.4727C27.7804 25.4727 27.793 25.3848 27.793 25.2676C27.793 25.1504 27.8055 25.0625 27.8223 25.0625C27.84 25.0625 27.8516 24.9356 27.8516 24.7402C27.8516 24.5449 27.8631 24.418 27.8809 24.418C27.8996 24.418 27.9102 24.1445 27.9102 23.6562C27.9102 23.168 27.8996 22.8945 27.8809 22.8945C27.8631 22.8945 27.8516 22.7676 27.8516 22.5723C27.8516 22.3769 27.84 22.25 27.8223 22.25C27.8055 22.25 27.793 22.1621 27.793 22.0449C27.793 21.9277 27.7804 21.8398 27.7637 21.8398C27.7474 21.8398 27.7344 21.7617 27.7344 21.6641C27.7344 21.5664 27.7214 21.4883 27.7051 21.4883C27.689 21.4883 27.6758 21.4355 27.6758 21.3711C27.6758 21.3066 27.6626 21.2539 27.6465 21.2539C27.6304 21.2539 27.6172 21.188 27.6172 21.1074C27.6172 21.0269 27.604 20.9609 27.5879 20.9609C27.5718 20.9609 27.5586 20.9082 27.5586 20.8438C27.5586 20.7793 27.5454 20.7266 27.5293 20.7266C27.5132 20.7266 27.5 20.687 27.5 20.6387C27.5 20.5903 27.4868 20.5508 27.4707 20.5508C27.4546 20.5508 27.4414 20.498 27.4414 20.4336C27.4414 20.3691 27.4282 20.3164 27.4121 20.3164C27.396 20.3164 27.3828 20.2769 27.3828 20.2285C27.3828 20.1802 27.3696 20.1406 27.3535 20.1406C27.3374 20.1406 27.3242 20.1011 27.3242 20.0527C27.3242 20.0044 27.311 19.9648 27.2949 19.9648C27.2788 19.9648 27.2656 19.9253 27.2656 19.877C27.2656 19.8286 27.2524 19.7891 27.2363 19.7891C27.2202 19.7891 27.207 19.7495 27.207 19.7012C27.207 19.6528 27.1938 19.6133 27.1777 19.6133C27.1616 19.6133 27.1484 19.5869 27.1484 19.5547C27.1484 19.5225 27.1353 19.4961 27.1191 19.4961C27.103 19.4961 27.0898 19.4565 27.0898 19.4082C27.0898 19.3599 27.0767 19.3203 27.0605 19.3203C27.0444 19.3203 27.0312 19.3071 27.0312 19.291C27.0312 19.2719 27.5 19.2617 28.3789 19.2617H29.7266V19.8184C29.7266 20.1699 29.7373 20.375 29.7559 20.375C29.772 20.375 29.7852 20.4014 29.7852 20.4336C29.7852 20.4658 29.7983 20.4922 29.8145 20.4922C29.8306 20.4922 29.8438 20.5186 29.8438 20.5508C29.8438 20.583 29.8569 20.6094 29.873 20.6094C29.8892 20.6094 29.9023 20.6297 29.9023 20.6546C29.9023 20.7133 30.0328 20.8438 30.0915 20.8438C30.1164 20.8438 30.1367 20.8569 30.1367 20.873C30.1367 20.8892 30.1631 20.9023 30.1953 20.9023C30.2275 20.9023 30.2539 20.9155 30.2539 20.9316C30.2539 20.9478 30.2803 20.9609 30.3125 20.9609C30.3447 20.9609 30.3711 20.9741 30.3711 20.9902C30.3711 21.0095 31.0547 21.0195 32.3633 21.0195C33.6719 21.0195 34.3555 21.0095 34.3555 20.9902C34.3555 20.9741 34.3818 20.9609 34.4141 20.9609C34.4463 20.9609 34.4727 20.9478 34.4727 20.9316C34.4727 20.9155 34.499 20.9023 34.5312 20.9023C34.5635 20.9023 34.5898 20.8892 34.5898 20.873C34.5898 20.8569 34.6102 20.8438 34.6351 20.8438C34.6937 20.8438 34.8242 20.7133 34.8242 20.6546C34.8242 20.6297 34.8374 20.6094 34.8535 20.6094C34.8696 20.6094 34.8828 20.583 34.8828 20.5508C34.8828 20.5186 34.896 20.4922 34.9121 20.4922C34.9282 20.4922 34.9414 20.4658 34.9414 20.4336C34.9414 20.4014 34.9546 20.375 34.9707 20.375C34.9901 20.375 35 18.8125 35 15.7461C35 12.6797 34.9901 11.1172 34.9707 11.1172C34.9546 11.1172 34.9414 11.0908 34.9414 11.0586C34.9414 11.0264 34.9282 11 34.9121 11C34.896 11 34.8828 10.9736 34.8828 10.9414C34.8828 10.9092 34.8696 10.8828 34.8535 10.8828C34.8374 10.8828 34.8242 10.8625 34.8242 10.8375C34.8242 10.7789 34.6937 10.6484 34.6351 10.6484C34.6102 10.6484 34.5898 10.6353 34.5898 10.6191C34.5898 10.603 34.5635 10.5898 34.5312 10.5898C34.499 10.5898 34.4727 10.5767 34.4727 10.5605C34.4727 10.5444 34.4463 10.5312 34.4141 10.5312C34.3818 10.5312 34.3555 10.5181 34.3555 10.502C34.3555 10.4827 33.6719 10.4727 32.3633 10.4727C31.0547 10.4727 30.3711 10.4827 30.3711 10.502C30.3711 10.5181 30.3447 10.5312 30.3125 10.5312C30.2803 10.5312 30.2539 10.5444 30.2539 10.5605C30.2539 10.5767 30.2275 10.5898 30.1953 10.5898C30.1631 10.5898 30.1367 10.603 30.1367 10.6191C30.1367 10.6353 30.1164 10.6484 30.0915 10.6484C30.0328 10.6484 29.9023 10.7789 29.9023 10.8375C29.9023 10.8625 29.8892 10.8828 29.873 10.8828C29.8569 10.8828 29.8438 10.9092 29.8438 10.9414C29.8438 10.9736 29.8306 11 29.8145 11C29.7983 11 29.7852 11.0264 29.7852 11.0586C29.7852 11.0908 29.772 11.1172 29.7559 11.1172C29.7373 11.1172 29.7266 11.3223 29.7266 11.6738V12.2305H25.7266H21.7266L21.625 12.1289C21.5691 12.0731 21.5234 12.0129 21.5234 11.9952C21.5234 11.9775 21.4575 11.8988 21.377 11.8203C21.2964 11.7418 21.2305 11.6627 21.2305 11.6445C21.2305 11.6263 21.1646 11.5472 21.084 11.4688C21.0034 11.3903 20.9375 11.3113 20.9375 11.2933C20.9375 11.2752 20.8584 11.1828 20.7617 11.0879C20.665 10.993 20.5859 10.9006 20.5859 10.8825C20.5859 10.8645 20.52 10.7855 20.4395 10.707C20.3589 10.6285 20.293 10.5494 20.293 10.5312C20.293 10.5131 20.2271 10.434 20.1465 10.3555C20.0659 10.277 20 10.1979 20 10.1797C20 10.1615 19.9341 10.0824 19.8535 10.0039C19.7729 9.92542 19.707 9.84646 19.707 9.82842C19.707 9.81034 19.6279 9.71794 19.5312 9.62305C19.4346 9.52815 19.3555 9.43575 19.3555 9.41768C19.3555 9.39963 19.2896 9.32067 19.209 9.24219C19.1284 9.1637 19.0625 9.08475 19.0625 9.0667C19.0625 9.04862 18.9834 8.95622 18.8867 8.86133C18.79 8.76644 18.7109 8.67403 18.7109 8.65596C18.7109 8.63791 18.645 8.55896 18.5645 8.48047C18.4839 8.40198 18.418 8.32288 18.418 8.30469C18.418 8.28649 18.3521 8.20739 18.2715 8.12891C18.1909 8.05042 18.125 7.97146 18.125 7.95342C18.125 7.93534 18.0459 7.84294 17.9492 7.74805C17.8525 7.65315 17.7734 7.56075 17.7734 7.54268C17.7734 7.52463 17.7075 7.44567 17.627 7.36719C17.5464 7.2887 17.4805 7.2096 17.4805 7.19141C17.4805 7.17321 17.4146 7.09411 17.334 7.01562C17.2534 6.93714 17.1875 6.85818 17.1875 6.84014C17.1875 6.82206 17.1084 6.72966 17.0117 6.63477C16.915 6.53987 16.8359 6.44747 16.8359 6.42939C16.8359 6.41135 16.77 6.33239 16.6895 6.25391C16.6089 6.17542 16.543 6.09632 16.543 6.07812C16.543 6.05993 16.4771 5.98083 16.3965 5.90234C16.3159 5.82386 16.25 5.7454 16.25 5.728C16.25 5.67913 15.8173 5.25781 15.7671 5.25781C15.7426 5.25781 15.7227 5.24463 15.7227 5.22852C15.7227 5.2124 15.6831 5.19922 15.6348 5.19922C15.5864 5.19922 15.5469 5.18604 15.5469 5.16992C15.5469 5.15319 15.459 5.14062 15.3418 5.14062C15.2246 5.14062 15.1367 5.15319 15.1367 5.16992ZM15.3281 7.35157C15.384 7.40741 15.4297 7.46762 15.4297 7.48531C15.4297 7.50301 15.4956 7.58167 15.5762 7.66016C15.6567 7.73864 15.7227 7.81774 15.7227 7.83594C15.7227 7.85413 15.7886 7.93323 15.8691 8.01172C15.9497 8.09021 16.0156 8.16916 16.0156 8.18721C16.0156 8.20528 16.0947 8.29769 16.1914 8.39258C16.2881 8.48747 16.3672 8.57987 16.3672 8.59795C16.3672 8.616 16.4331 8.69495 16.5137 8.77344C16.5942 8.85192 16.6602 8.93088 16.6602 8.94893C16.6602 8.967 16.7393 9.0594 16.8359 9.1543C16.9326 9.24919 17.0117 9.34159 17.0117 9.35967C17.0117 9.37771 17.0776 9.45667 17.1582 9.53516C17.2388 9.61364 17.3047 9.69274 17.3047 9.71094C17.3047 9.72913 17.3706 9.80823 17.4512 9.88672C17.5317 9.96521 17.5977 10.0442 17.5977 10.0622C17.5977 10.0803 17.6768 10.1727 17.7734 10.2676C17.8701 10.3625 17.9492 10.4549 17.9492 10.4729C17.9492 10.491 18.0151 10.57 18.0957 10.6484C18.1763 10.7269 18.2422 10.806 18.2422 10.8242C18.2422 10.8424 18.3081 10.9215 18.3887 11C18.4692 11.0785 18.5352 11.1574 18.5352 11.1755C18.5352 11.1936 18.6143 11.286 18.7109 11.3809C18.8076 11.4758 18.8867 11.5682 18.8867 11.5862C18.8867 11.6043 18.9526 11.6832 19.0332 11.7617C19.1138 11.8402 19.1797 11.9195 19.1797 11.9379C19.1797 11.9563 19.2324 12.0221 19.2969 12.084C19.3613 12.1459 19.4141 12.2042 19.4141 12.2135C19.4141 12.2229 18.5703 12.2305 17.5391 12.2305C16.3086 12.2305 15.6641 12.2405 15.6641 12.2598C15.6641 12.2773 15.5469 12.2891 15.3711 12.2891C15.1953 12.2891 15.0781 12.3008 15.0781 12.3184C15.0781 12.3345 15.0449 12.3477 15.0042 12.3477C14.9538 12.3477 14.8795 12.2968 14.7699 12.1872C14.6816 12.0989 14.6094 12.0123 14.6094 11.9948C14.6094 11.9773 14.5435 11.8988 14.4629 11.8203C14.3823 11.7418 14.3164 11.6627 14.3164 11.6445C14.3164 11.6263 14.2505 11.5472 14.1699 11.4688C14.0894 11.3903 14.0234 11.3112 14.0234 11.293C14.0234 11.2748 13.9575 11.1957 13.877 11.1172C13.7964 11.0387 13.7305 10.9596 13.7305 10.9414C13.7305 10.9232 13.6646 10.8441 13.584 10.7656C13.5034 10.6871 13.4375 10.608 13.4375 10.5898C13.4375 10.5717 13.3716 10.4925 13.291 10.4141C13.2104 10.3356 13.1445 10.2565 13.1445 10.2383C13.1445 10.2201 13.0786 10.141 12.998 10.0625C12.9175 9.98401 12.8516 9.90491 12.8516 9.88672C12.8516 9.86853 12.785 9.78881 12.7037 9.70962L12.5559 9.56562L12.6883 9.4332C12.7611 9.36037 12.835 9.30078 12.8524 9.30078C12.8698 9.30078 12.9617 9.22168 13.0566 9.125C13.1515 9.02832 13.2438 8.94922 13.2617 8.94922C13.2796 8.94922 13.3719 8.87012 13.4668 8.77344C13.5617 8.67676 13.6541 8.59766 13.6722 8.59766C13.6902 8.59766 13.7692 8.53174 13.8477 8.45117C13.9261 8.37061 14.0051 8.30469 14.0231 8.30469C14.0412 8.30469 14.1336 8.22559 14.2285 8.12891C14.3234 8.03223 14.4157 7.95312 14.4336 7.95312C14.4515 7.95312 14.5438 7.87402 14.6387 7.77734C14.7336 7.68066 14.8284 7.60077 14.8495 7.5998C14.8705 7.59884 14.9602 7.52053 15.0488 7.42578C15.1375 7.33104 15.2137 7.25272 15.2183 7.25176C15.2228 7.25079 15.2723 7.2957 15.3281 7.35157ZM33.2422 15.7461V19.2617H32.3633H31.4844V15.7461V12.2305H32.3633H33.2422V15.7461ZM29.7266 15.7461V17.5039H22.8125C18.2226 17.5039 15.8984 17.5138 15.8984 17.5332C15.8984 17.5503 15.8008 17.5625 15.6641 17.5625C15.5273 17.5625 15.4297 17.5747 15.4297 17.5918C15.4297 17.6079 15.3638 17.6211 15.2832 17.6211C15.2026 17.6211 15.1367 17.6343 15.1367 17.6504C15.1367 17.6665 15.084 17.6797 15.0195 17.6797C14.9551 17.6797 14.9023 17.6929 14.9023 17.709C14.9023 17.7251 14.8496 17.7383 14.7852 17.7383C14.7207 17.7383 14.668 17.7515 14.668 17.7676C14.668 17.7837 14.6284 17.7969 14.5801 17.7969C14.5317 17.7969 14.4922 17.8101 14.4922 17.8262C14.4922 17.8423 14.4526 17.8555 14.4043 17.8555C14.356 17.8555 14.3164 17.8687 14.3164 17.8848C14.3164 17.9009 14.29 17.9141 14.2578 17.9141C14.2256 17.9141 14.1992 17.9272 14.1992 17.9434C14.1992 17.9595 14.1597 17.9727 14.1113 17.9727C14.063 17.9727 14.0234 17.9858 14.0234 18.002C14.0234 18.0181 13.9971 18.0312 13.9648 18.0312C13.9326 18.0312 13.9062 18.0444 13.9062 18.0605C13.9062 18.0767 13.8799 18.0898 13.8477 18.0898C13.8154 18.0898 13.7891 18.103 13.7891 18.1191C13.7891 18.1353 13.7627 18.1484 13.7305 18.1484C13.6982 18.1484 13.6719 18.1616 13.6719 18.1777C13.6719 18.1938 13.6455 18.207 13.6133 18.207C13.5811 18.207 13.5547 18.2202 13.5547 18.2363C13.5547 18.2524 13.5312 18.2656 13.5026 18.2656C13.4739 18.2656 13.4314 18.292 13.4082 18.3242C13.385 18.3564 13.3425 18.3828 13.3138 18.3828C13.2852 18.3828 13.2617 18.396 13.2617 18.4121C13.2617 18.4282 13.2383 18.4414 13.2096 18.4414C13.1809 18.4414 13.1385 18.4678 13.1152 18.5C13.092 18.5322 13.0525 18.5586 13.0273 18.5586C13.0022 18.5586 12.9627 18.585 12.9395 18.6172C12.9162 18.6494 12.879 18.6758 12.8568 18.6758C12.8347 18.6758 12.7795 18.7153 12.7344 18.7637C12.6892 18.812 12.6377 18.8516 12.6199 18.8516C12.5775 18.8516 11.6211 19.808 11.6211 19.8503C11.6211 19.8682 11.5815 19.9197 11.5332 19.9648C11.4849 20.01 11.4453 20.0627 11.4453 20.082C11.4453 20.1013 11.4058 20.1541 11.3574 20.1992C11.3091 20.2444 11.2695 20.3024 11.2695 20.3282C11.2695 20.3539 11.2563 20.375 11.2402 20.375C11.2241 20.375 11.2109 20.3985 11.2109 20.4271C11.2109 20.4558 11.1846 20.4983 11.1523 20.5215C11.1201 20.5447 11.0938 20.5872 11.0938 20.6158C11.0938 20.6445 11.0806 20.668 11.0645 20.668C11.0483 20.668 11.0352 20.6943 11.0352 20.7266C11.0352 20.7588 11.022 20.7852 11.0059 20.7852C10.9897 20.7852 10.9766 20.8115 10.9766 20.8438C10.9766 20.876 10.9634 20.9023 10.9473 20.9023C10.9312 20.9023 10.918 20.9287 10.918 20.9609C10.918 20.9932 10.9048 21.0195 10.8887 21.0195C10.8726 21.0195 10.8594 21.0459 10.8594 21.0781C10.8594 21.1104 10.8462 21.1367 10.8301 21.1367C10.814 21.1367 10.8008 21.1631 10.8008 21.1953C10.8008 21.2275 10.7876 21.2539 10.7715 21.2539C10.7554 21.2539 10.7422 21.2803 10.7422 21.3125C10.7422 21.3447 10.729 21.3711 10.7129 21.3711C10.6968 21.3711 10.6836 21.4106 10.6836 21.459C10.6836 21.5073 10.6704 21.5469 10.6543 21.5469C10.6382 21.5469 10.625 21.5864 10.625 21.6348C10.625 21.6831 10.6118 21.7227 10.5957 21.7227C10.5796 21.7227 10.5664 21.7622 10.5664 21.8105C10.5664 21.8589 10.5532 21.8984 10.5371 21.8984C10.521 21.8984 10.5078 21.938 10.5078 21.9863C10.5078 22.0347 10.4946 22.0742 10.4785 22.0742C10.4624 22.0742 10.4492 22.127 10.4492 22.1914C10.4492 22.2559 10.436 22.3086 10.4199 22.3086C10.4036 22.3086 10.3906 22.3867 10.3906 22.4844C10.3906 22.582 10.3776 22.6602 10.3613 22.6602C10.3446 22.6602 10.332 22.748 10.332 22.8652C10.332 22.9824 10.3195 23.0703 10.3027 23.0703C10.2842 23.0703 10.2734 23.2851 10.2734 23.6562C10.2734 24.0274 10.2842 24.2422 10.3027 24.2422C10.3198 24.2422 10.332 24.3398 10.332 24.4766C10.332 24.6133 10.3442 24.7109 10.3613 24.7109C10.3774 24.7109 10.3906 24.7769 10.3906 24.8574C10.3906 24.938 10.4038 25.0039 10.4199 25.0039C10.436 25.0039 10.4492 25.0566 10.4492 25.1211C10.4492 25.1855 10.4624 25.2383 10.4785 25.2383C10.4946 25.2383 10.5078 25.2778 10.5078 25.3262C10.5078 25.3745 10.521 25.4141 10.5371 25.4141C10.5532 25.4141 10.5664 25.4536 10.5664 25.502C10.5664 25.5503 10.5796 25.5898 10.5957 25.5898C10.6118 25.5898 10.625 25.6294 10.625 25.6777C10.625 25.7261 10.6382 25.7656 10.6543 25.7656C10.6704 25.7656 10.6836 25.8052 10.6836 25.8535C10.6836 25.9019 10.6968 25.9414 10.7129 25.9414C10.729 25.9414 10.7422 25.9678 10.7422 26C10.7422 26.0322 10.7554 26.0586 10.7715 26.0586C10.7876 26.0586 10.8008 26.085 10.8008 26.1172C10.8008 26.1494 10.814 26.1758 10.8301 26.1758C10.8462 26.1758 10.8594 26.2021 10.8594 26.2344C10.8594 26.2666 10.8726 26.293 10.8887 26.293C10.9048 26.293 10.918 26.3193 10.918 26.3516C10.918 26.3838 10.9312 26.4102 10.9473 26.4102C10.9634 26.4102 10.9766 26.4365 10.9766 26.4688C10.9766 26.501 10.9897 26.5273 11.0059 26.5273C11.022 26.5273 11.0352 26.5537 11.0352 26.5859C11.0352 26.6182 11.0483 26.6445 11.0645 26.6445C11.0806 26.6445 11.0938 26.668 11.0938 26.6966C11.0938 26.7253 11.1201 26.7678 11.1523 26.791C11.1846 26.8142 11.2109 26.8567 11.2109 26.8854C11.2109 26.914 11.2241 26.9375 11.2402 26.9375C11.2563 26.9375 11.2695 26.9586 11.2695 26.9843C11.2695 27.0101 11.3091 27.0681 11.3574 27.1133C11.4058 27.1584 11.4453 27.2112 11.4453 27.2305C11.4453 27.2498 11.4849 27.3025 11.5332 27.3477C11.5815 27.3928 11.6211 27.4443 11.6211 27.4622C11.6211 27.5045 12.5775 28.4609 12.6199 28.4609C12.6377 28.4609 12.6892 28.5005 12.7344 28.5488C12.7795 28.5972 12.8347 28.6367 12.8568 28.6367C12.879 28.6367 12.9162 28.6631 12.9395 28.6953C12.9627 28.7275 13.0022 28.7539 13.0273 28.7539C13.0525 28.7539 13.092 28.7803 13.1152 28.8125C13.1385 28.8447 13.1809 28.8711 13.2096 28.8711C13.2383 28.8711 13.2617 28.8843 13.2617 28.9004C13.2617 28.9165 13.2852 28.9297 13.3138 28.9297C13.3425 28.9297 13.385 28.9561 13.4082 28.9883C13.4314 29.0205 13.4739 29.0469 13.5026 29.0469C13.5312 29.0469 13.5547 29.0601 13.5547 29.0762C13.5547 29.0923 13.5811 29.1055 13.6133 29.1055C13.6455 29.1055 13.6719 29.1187 13.6719 29.1348C13.6719 29.1509 13.6982 29.1641 13.7305 29.1641C13.7627 29.1641 13.7891 29.1772 13.7891 29.1934C13.7891 29.2095 13.8154 29.2227 13.8477 29.2227C13.8799 29.2227 13.9062 29.2358 13.9062 29.252C13.9062 29.2681 13.9326 29.2812 13.9648 29.2812C13.9971 29.2812 14.0234 29.2944 14.0234 29.3105C14.0234 29.3267 14.063 29.3398 14.1113 29.3398C14.1597 29.3398 14.1992 29.353 14.1992 29.3691C14.1992 29.3853 14.2256 29.3984 14.2578 29.3984C14.29 29.3984 14.3164 29.4116 14.3164 29.4277C14.3164 29.4438 14.356 29.457 14.4043 29.457C14.4526 29.457 14.4922 29.4702 14.4922 29.4863C14.4922 29.5024 14.5449 29.5156 14.6094 29.5156C14.6738 29.5156 14.7266 29.5288 14.7266 29.5449C14.7266 29.561 14.7661 29.5742 14.8145 29.5742C14.8628 29.5742 14.9023 29.5874 14.9023 29.6035C14.9023 29.6196 14.9551 29.6328 15.0195 29.6328C15.084 29.6328 15.1367 29.646 15.1367 29.6621C15.1367 29.6782 15.2026 29.6914 15.2832 29.6914C15.3638 29.6914 15.4297 29.7046 15.4297 29.7207C15.4297 29.7378 15.5273 29.75 15.6641 29.75C15.8008 29.75 15.8984 29.7622 15.8984 29.7793C15.8984 29.7978 16.1133 29.8086 16.4844 29.8086C16.8555 29.8086 17.0703 29.7978 17.0703 29.7793C17.0703 29.7626 17.1582 29.75 17.2754 29.75C17.3926 29.75 17.4805 29.7374 17.4805 29.7207C17.4805 29.7044 17.5586 29.6914 17.6562 29.6914C17.7539 29.6914 17.832 29.6784 17.832 29.6621C17.832 29.646 17.8848 29.6328 17.9492 29.6328C18.0137 29.6328 18.0664 29.6196 18.0664 29.6035C18.0664 29.5874 18.106 29.5742 18.1543 29.5742C18.2026 29.5742 18.2422 29.561 18.2422 29.5449C18.2422 29.5288 18.2817 29.5156 18.3301 29.5156C18.3784 29.5156 18.418 29.5024 18.418 29.4863C18.418 29.4702 18.4575 29.457 18.5059 29.457C18.5542 29.457 18.5938 29.4438 18.5938 29.4277C18.5938 29.4116 18.6333 29.3984 18.6816 29.3984C18.73 29.3984 18.7695 29.3853 18.7695 29.3691C18.7695 29.353 18.7959 29.3398 18.8281 29.3398C18.8604 29.3398 18.8867 29.3267 18.8867 29.3105C18.8867 29.2944 18.9263 29.2812 18.9746 29.2812C19.0229 29.2812 19.0625 29.2681 19.0625 29.252C19.0625 29.2358 19.0889 29.2227 19.1211 29.2227C19.1533 29.2227 19.1797 29.2095 19.1797 29.1934C19.1797 29.1772 19.2061 29.1641 19.2383 29.1641C19.2705 29.1641 19.2969 29.1509 19.2969 29.1348C19.2969 29.1187 19.3203 29.1055 19.349 29.1055C19.3777 29.1055 19.4201 29.0791 19.4434 29.0469C19.4666 29.0146 19.509 28.9883 19.5377 28.9883C19.5664 28.9883 19.5898 28.9751 19.5898 28.959C19.5898 28.9429 19.6133 28.9297 19.642 28.9297C19.6706 28.9297 19.7131 28.9033 19.7363 28.8711C19.7596 28.8389 19.7991 28.8125 19.8242 28.8125C19.8493 28.8125 19.8889 28.7861 19.9121 28.7539C19.9353 28.7217 19.9749 28.6953 20 28.6953C20.0251 28.6953 20.0647 28.6689 20.0879 28.6367C20.1111 28.6045 20.1478 28.5781 20.1695 28.5781C20.1912 28.5781 20.2731 28.5122 20.3516 28.4316C20.43 28.3511 20.5084 28.2852 20.5258 28.2852C20.567 28.2852 21.1133 27.7389 21.1133 27.6977C21.1133 27.6803 21.1792 27.6019 21.2598 27.5234C21.3403 27.445 21.4062 27.363 21.4062 27.3414C21.4062 27.3197 21.4326 27.283 21.4648 27.2598C21.4971 27.2365 21.5234 27.197 21.5234 27.1719C21.5234 27.1468 21.5498 27.1072 21.582 27.084C21.6143 27.0608 21.6406 27.0212 21.6406 26.9961C21.6406 26.971 21.667 26.9314 21.6992 26.9082C21.7314 26.885 21.7578 26.8425 21.7578 26.8138C21.7578 26.7852 21.771 26.7617 21.7871 26.7617C21.8032 26.7617 21.8164 26.7383 21.8164 26.7096C21.8164 26.6809 21.8428 26.6385 21.875 26.6152C21.9072 26.592 21.9336 26.5496 21.9336 26.5209C21.9336 26.4922 21.9468 26.4688 21.9629 26.4688C21.979 26.4688 21.9922 26.4424 21.9922 26.4102C21.9922 26.3779 22.0054 26.3516 22.0215 26.3516C22.0376 26.3516 22.0508 26.3252 22.0508 26.293C22.0508 26.2607 22.064 26.2344 22.0801 26.2344C22.0962 26.2344 22.1094 26.1948 22.1094 26.1465C22.1094 26.0981 22.1226 26.0586 22.1387 26.0586C22.1548 26.0586 22.168 26.0322 22.168 26C22.168 25.9678 22.1812 25.9414 22.1973 25.9414C22.2134 25.9414 22.2266 25.9019 22.2266 25.8535C22.2266 25.8052 22.2397 25.7656 22.2559 25.7656C22.272 25.7656 22.2852 25.7261 22.2852 25.6777C22.2852 25.6294 22.2983 25.5898 22.3145 25.5898C22.3306 25.5898 22.3438 25.5503 22.3438 25.502C22.3438 25.4536 22.3569 25.4141 22.373 25.4141C22.3892 25.4141 22.4023 25.3745 22.4023 25.3262C22.4023 25.2778 22.4155 25.2383 22.4316 25.2383C22.4478 25.2383 22.4609 25.1855 22.4609 25.1211C22.4609 25.0566 22.4741 25.0039 22.4902 25.0039C22.5063 25.0039 22.5195 24.938 22.5195 24.8574C22.5195 24.7769 22.5327 24.7109 22.5488 24.7109C22.5659 24.7109 22.5781 24.6133 22.5781 24.4766C22.5781 24.3398 22.5903 24.2422 22.6074 24.2422C22.626 24.2422 22.6367 24.0274 22.6367 23.6562C22.6367 23.2851 22.626 23.0703 22.6074 23.0703C22.5903 23.0703 22.5781 22.9727 22.5781 22.8359C22.5781 22.6992 22.5659 22.6016 22.5488 22.6016C22.5327 22.6016 22.5195 22.5356 22.5195 22.4551C22.5195 22.3745 22.5063 22.3086 22.4902 22.3086C22.4741 22.3086 22.4609 22.2559 22.4609 22.1914C22.4609 22.127 22.4478 22.0742 22.4316 22.0742C22.4155 22.0742 22.4023 22.0347 22.4023 21.9863C22.4023 21.938 22.3892 21.8984 22.373 21.8984C22.3569 21.8984 22.3438 21.8589 22.3438 21.8105C22.3438 21.7622 22.3306 21.7227 22.3145 21.7227C22.2983 21.7227 22.2852 21.6831 22.2852 21.6348C22.2852 21.5864 22.272 21.5469 22.2559 21.5469C22.2397 21.5469 22.2266 21.5073 22.2266 21.459C22.2266 21.4106 22.2134 21.3711 22.1973 21.3711C22.1812 21.3711 22.168 21.3447 22.168 21.3125C22.168 21.2803 22.1548 21.2539 22.1387 21.2539C22.1226 21.2539 22.1094 21.2144 22.1094 21.166C22.1094 21.1177 22.0962 21.0781 22.0801 21.0781C22.064 21.0781 22.0508 21.0518 22.0508 21.0195C22.0508 20.9873 22.0376 20.9609 22.0215 20.9609C22.0054 20.9609 21.9922 20.9346 21.9922 20.9023C21.9922 20.8701 21.979 20.8438 21.9629 20.8438C21.9468 20.8438 21.9336 20.8203 21.9336 20.7916C21.9336 20.7629 21.9072 20.7205 21.875 20.6973C21.8428 20.674 21.8164 20.6316 21.8164 20.6029C21.8164 20.5742 21.8032 20.5508 21.7871 20.5508C21.771 20.5508 21.7578 20.5273 21.7578 20.4987C21.7578 20.47 21.7314 20.4275 21.6992 20.4043C21.667 20.3811 21.6406 20.3415 21.6406 20.3164C21.6406 20.2913 21.6143 20.2517 21.582 20.2285C21.5498 20.2053 21.5234 20.1657 21.5234 20.1406C21.5234 20.1155 21.4971 20.076 21.4648 20.0527C21.4326 20.0295 21.4062 19.9928 21.4062 19.9711C21.4062 19.9495 21.3403 19.8675 21.2598 19.7891C21.1792 19.7106 21.1133 19.6315 21.1133 19.6133C21.1133 19.5951 21.0474 19.516 20.9668 19.4375C20.8862 19.359 20.8203 19.2874 20.8203 19.2783C20.8203 19.2692 21.7771 19.2617 22.9464 19.2617C25.198 19.2617 25.1562 19.2593 25.1562 19.3915C25.1562 19.4168 25.1694 19.4375 25.1855 19.4375C25.2017 19.4375 25.2148 19.4639 25.2148 19.4961C25.2148 19.5283 25.228 19.5547 25.2441 19.5547C25.2603 19.5547 25.2734 19.5811 25.2734 19.6133C25.2734 19.6455 25.2866 19.6719 25.3027 19.6719C25.3188 19.6719 25.332 19.7114 25.332 19.7598C25.332 19.8081 25.3452 19.8477 25.3613 19.8477C25.3774 19.8477 25.3906 19.874 25.3906 19.9062C25.3906 19.9385 25.4038 19.9648 25.4199 19.9648C25.436 19.9648 25.4492 20.0044 25.4492 20.0527C25.4492 20.1011 25.4624 20.1406 25.4785 20.1406C25.4946 20.1406 25.5078 20.167 25.5078 20.1992C25.5078 20.2314 25.521 20.2578 25.5371 20.2578C25.5532 20.2578 25.5664 20.2974 25.5664 20.3457C25.5664 20.394 25.5796 20.4336 25.5957 20.4336C25.6118 20.4336 25.625 20.4731 25.625 20.5215C25.625 20.5698 25.6382 20.6094 25.6543 20.6094C25.6704 20.6094 25.6836 20.6489 25.6836 20.6973C25.6836 20.7456 25.6968 20.7852 25.7129 20.7852C25.729 20.7852 25.7422 20.8247 25.7422 20.873C25.7422 20.9214 25.7554 20.9609 25.7715 20.9609C25.7876 20.9609 25.8008 21.0137 25.8008 21.0781C25.8008 21.1426 25.814 21.1953 25.8301 21.1953C25.8462 21.1953 25.8594 21.248 25.8594 21.3125C25.8594 21.377 25.8726 21.4297 25.8887 21.4297C25.9048 21.4297 25.918 21.4956 25.918 21.5762C25.918 21.6567 25.9312 21.7227 25.9473 21.7227C25.9634 21.7227 25.9766 21.7754 25.9766 21.8398C25.9766 21.9043 25.9897 21.957 26.0059 21.957C26.0226 21.957 26.0352 22.0449 26.0352 22.1621C26.0352 22.2793 26.0477 22.3672 26.0645 22.3672C26.082 22.3672 26.0938 22.4844 26.0938 22.6602C26.0938 22.8359 26.1055 22.9531 26.123 22.9531C26.1418 22.9531 26.1523 23.207 26.1523 23.6562C26.1523 24.1055 26.1418 24.3594 26.123 24.3594C26.1055 24.3594 26.0938 24.4766 26.0938 24.6523C26.0938 24.8281 26.082 24.9453 26.0645 24.9453C26.0477 24.9453 26.0352 25.0332 26.0352 25.1504C26.0352 25.2676 26.0226 25.3555 26.0059 25.3555C25.9897 25.3555 25.9766 25.4214 25.9766 25.502C25.9766 25.5825 25.9634 25.6484 25.9473 25.6484C25.9312 25.6484 25.918 25.7012 25.918 25.7656C25.918 25.8301 25.9048 25.8828 25.8887 25.8828C25.8726 25.8828 25.8594 25.9355 25.8594 26C25.8594 26.0645 25.8462 26.1172 25.8301 26.1172C25.814 26.1172 25.8008 26.1699 25.8008 26.2344C25.8008 26.2988 25.7876 26.3516 25.7715 26.3516C25.7554 26.3516 25.7422 26.3911 25.7422 26.4395C25.7422 26.4878 25.729 26.5273 25.7129 26.5273C25.6968 26.5273 25.6836 26.5669 25.6836 26.6152C25.6836 26.6636 25.6704 26.7031 25.6543 26.7031C25.6382 26.7031 25.625 26.7427 25.625 26.791C25.625 26.8394 25.6118 26.8789 25.5957 26.8789C25.5796 26.8789 25.5664 26.9185 25.5664 26.9668C25.5664 27.0151 25.5532 27.0547 25.5371 27.0547C25.521 27.0547 25.5078 27.0942 25.5078 27.1426C25.5078 27.1909 25.4946 27.2305 25.4785 27.2305C25.4624 27.2305 25.4492 27.2568 25.4492 27.2891C25.4492 27.3213 25.436 27.3477 25.4199 27.3477C25.4038 27.3477 25.3906 27.3872 25.3906 27.4355C25.3906 27.4839 25.3774 27.5234 25.3613 27.5234C25.3452 27.5234 25.332 27.5498 25.332 27.582C25.332 27.6143 25.3188 27.6406 25.3027 27.6406C25.2866 27.6406 25.2734 27.667 25.2734 27.6992C25.2734 27.7314 25.2603 27.7578 25.2441 27.7578C25.228 27.7578 25.2148 27.7842 25.2148 27.8164C25.2148 27.8486 25.2017 27.875 25.1855 27.875C25.1694 27.875 25.1562 27.9014 25.1562 27.9336C25.1562 27.9658 25.1431 27.9922 25.127 27.9922C25.1108 27.9922 25.0977 28.0186 25.0977 28.0508C25.0977 28.083 25.0845 28.1094 25.0684 28.1094C25.0522 28.1094 25.0391 28.1357 25.0391 28.168C25.0391 28.2002 25.0259 28.2266 25.0098 28.2266C24.9937 28.2266 24.9805 28.2529 24.9805 28.2852C24.9805 28.3174 24.9673 28.3438 24.9512 28.3438C24.9351 28.3438 24.9219 28.3672 24.9219 28.3959C24.9219 28.4246 24.8955 28.467 24.8633 28.4902C24.8311 28.5135 24.8047 28.5559 24.8047 28.5846C24.8047 28.6133 24.7915 28.6367 24.7754 28.6367C24.7593 28.6367 24.7461 28.6602 24.7461 28.6888C24.7461 28.7175 24.7197 28.76 24.6875 28.7832C24.6553 28.8064 24.6289 28.8489 24.6289 28.8776C24.6289 28.9062 24.6157 28.9297 24.5996 28.9297C24.5835 28.9297 24.5703 28.9532 24.5703 28.9818C24.5703 29.0105 24.5439 29.0529 24.5117 29.0762C24.4795 29.0994 24.4531 29.1366 24.4531 29.1588C24.4531 29.181 24.4136 29.2361 24.3652 29.2812C24.3169 29.3264 24.2773 29.3791 24.2773 29.3984C24.2773 29.4177 24.2378 29.4705 24.1895 29.5156C24.1411 29.5608 24.1016 29.6132 24.1016 29.6322C24.1016 29.6512 24.0488 29.7174 23.9844 29.7793C23.9199 29.8412 23.8672 29.9062 23.8672 29.9237C23.8672 29.9652 22.6761 31.1562 22.6346 31.1562C22.6171 31.1562 22.5522 31.209 22.4902 31.2734C22.4283 31.3379 22.3621 31.3906 22.3432 31.3906C22.3242 31.3906 22.2717 31.4302 22.2266 31.4785C22.1814 31.5269 22.1263 31.5664 22.1041 31.5664C22.0819 31.5664 22.0447 31.5928 22.0215 31.625C21.9983 31.6572 21.9587 31.6836 21.9336 31.6836C21.9085 31.6836 21.8689 31.71 21.8457 31.7422C21.8225 31.7744 21.7829 31.8008 21.7578 31.8008C21.7327 31.8008 21.6932 31.8271 21.6699 31.8594C21.6467 31.8916 21.6071 31.918 21.582 31.918C21.5569 31.918 21.5174 31.9443 21.4941 31.9766C21.4709 32.0088 21.4285 32.0352 21.3998 32.0352C21.3711 32.0352 21.3477 32.0483 21.3477 32.0645C21.3477 32.0806 21.3213 32.0938 21.2891 32.0938C21.2568 32.0938 21.2305 32.1069 21.2305 32.123C21.2305 32.1392 21.207 32.1523 21.1784 32.1523C21.1497 32.1523 21.1072 32.1787 21.084 32.2109C21.0608 32.2432 21.0183 32.2695 20.9896 32.2695C20.961 32.2695 20.9375 32.2827 20.9375 32.2988C20.9375 32.3149 20.9111 32.3281 20.8789 32.3281C20.8467 32.3281 20.8203 32.3413 20.8203 32.3574C20.8203 32.3735 20.7939 32.3867 20.7617 32.3867C20.7295 32.3867 20.7031 32.3999 20.7031 32.416C20.7031 32.4321 20.6636 32.4453 20.6152 32.4453C20.5669 32.4453 20.5273 32.4585 20.5273 32.4746C20.5273 32.4907 20.501 32.5039 20.4688 32.5039C20.4365 32.5039 20.4102 32.5171 20.4102 32.5332C20.4102 32.5493 20.3838 32.5625 20.3516 32.5625C20.3193 32.5625 20.293 32.5757 20.293 32.5918C20.293 32.6079 20.2666 32.6211 20.2344 32.6211C20.2021 32.6211 20.1758 32.6343 20.1758 32.6504C20.1758 32.6665 20.1362 32.6797 20.0879 32.6797C20.0396 32.6797 20 32.6929 20 32.709C20 32.7251 19.9736 32.7383 19.9414 32.7383C19.9092 32.7383 19.8828 32.7515 19.8828 32.7676C19.8828 32.7837 19.8433 32.7969 19.7949 32.7969C19.7466 32.7969 19.707 32.8101 19.707 32.8262C19.707 32.8423 19.6675 32.8555 19.6191 32.8555C19.5708 32.8555 19.5312 32.8687 19.5312 32.8848C19.5312 32.9009 19.4917 32.9141 19.4434 32.9141C19.395 32.9141 19.3555 32.9272 19.3555 32.9434C19.3555 32.9595 19.3159 32.9727 19.2676 32.9727C19.2192 32.9727 19.1797 32.9858 19.1797 33.002C19.1797 33.0181 19.127 33.0312 19.0625 33.0312C18.998 33.0312 18.9453 33.0444 18.9453 33.0605C18.9453 33.0767 18.8926 33.0898 18.8281 33.0898C18.7637 33.0898 18.7109 33.103 18.7109 33.1191C18.7109 33.1353 18.6582 33.1484 18.5938 33.1484C18.5293 33.1484 18.4766 33.1616 18.4766 33.1777C18.4766 33.194 18.3984 33.207 18.3008 33.207C18.2031 33.207 18.125 33.22 18.125 33.2363C18.125 33.2526 18.0469 33.2656 17.9492 33.2656C17.8516 33.2656 17.7734 33.2786 17.7734 33.2949C17.7734 33.3125 17.6562 33.3242 17.4805 33.3242C17.3047 33.3242 17.1875 33.3359 17.1875 33.3535C17.1875 33.3722 16.9336 33.3828 16.4844 33.3828C16.0352 33.3828 15.7812 33.3722 15.7812 33.3535C15.7812 33.3359 15.6641 33.3242 15.4883 33.3242C15.3125 33.3242 15.1953 33.3125 15.1953 33.2949C15.1953 33.2786 15.1172 33.2656 15.0195 33.2656C14.9219 33.2656 14.8438 33.2526 14.8438 33.2363C14.8438 33.22 14.7656 33.207 14.668 33.207C14.5703 33.207 14.4922 33.194 14.4922 33.1777C14.4922 33.1616 14.4395 33.1484 14.375 33.1484C14.3105 33.1484 14.2578 33.1353 14.2578 33.1191C14.2578 33.103 14.2051 33.0898 14.1406 33.0898C14.0762 33.0898 14.0234 33.0767 14.0234 33.0605C14.0234 33.0444 13.9707 33.0312 13.9062 33.0312C13.8418 33.0312 13.7891 33.0181 13.7891 33.002C13.7891 32.9858 13.7495 32.9727 13.7012 32.9727C13.6528 32.9727 13.6133 32.9595 13.6133 32.9434C13.6133 32.9272 13.5737 32.9141 13.5254 32.9141C13.4771 32.9141 13.4375 32.9009 13.4375 32.8848C13.4375 32.8687 13.3979 32.8555 13.3496 32.8555C13.3013 32.8555 13.2617 32.8423 13.2617 32.8262C13.2617 32.8101 13.2222 32.7969 13.1738 32.7969C13.1255 32.7969 13.0859 32.7837 13.0859 32.7676C13.0859 32.7515 13.0596 32.7383 13.0273 32.7383C12.9951 32.7383 12.9688 32.7251 12.9688 32.709C12.9688 32.6929 12.9292 32.6797 12.8809 32.6797C12.8325 32.6797 12.793 32.6665 12.793 32.6504C12.793 32.6343 12.7666 32.6211 12.7344 32.6211C12.7021 32.6211 12.6758 32.6079 12.6758 32.5918C12.6758 32.5757 12.6362 32.5625 12.5879 32.5625C12.5396 32.5625 12.5 32.5493 12.5 32.5332C12.5 32.5171 12.4736 32.5039 12.4414 32.5039C12.4092 32.5039 12.3828 32.4907 12.3828 32.4746C12.3828 32.4585 12.3564 32.4453 12.3242 32.4453C12.292 32.4453 12.2656 32.4321 12.2656 32.416C12.2656 32.3999 12.2393 32.3867 12.207 32.3867C12.1748 32.3867 12.1484 32.3735 12.1484 32.3574C12.1484 32.3413 12.1221 32.3281 12.0898 32.3281C12.0576 32.3281 12.0312 32.3149 12.0312 32.2988C12.0312 32.2827 12.0049 32.2695 11.9727 32.2695C11.9404 32.2695 11.9141 32.2563 11.9141 32.2402C11.9141 32.2241 11.8877 32.2109 11.8555 32.2109C11.8232 32.2109 11.7969 32.1978 11.7969 32.1816C11.7969 32.1655 11.7734 32.1523 11.7448 32.1523C11.7161 32.1523 11.6736 32.126 11.6504 32.0938C11.6272 32.0615 11.5847 32.0352 11.556 32.0352C11.5274 32.0352 11.5039 32.022 11.5039 32.0059C11.5039 31.9897 11.4804 31.9766 11.4518 31.9766C11.4231 31.9766 11.3807 31.9502 11.3574 31.918C11.3342 31.8857 11.2946 31.8594 11.2695 31.8594C11.2444 31.8594 11.2049 31.833 11.1816 31.8008C11.1584 31.7686 11.1189 31.7422 11.0938 31.7422C11.0686 31.7422 11.0291 31.7158 11.0059 31.6836C10.9826 31.6514 10.9454 31.625 10.9232 31.625C10.9011 31.625 10.8459 31.5854 10.8008 31.5371C10.7556 31.4888 10.7029 31.4492 10.6836 31.4492C10.6643 31.4492 10.6116 31.4097 10.5664 31.3613C10.5213 31.313 10.469 31.2734 10.4502 31.2734C10.4315 31.2734 10.3519 31.2075 10.2734 31.127C10.195 31.0464 10.1166 30.9805 10.0993 30.9805C10.0583 30.9805 9.16016 30.0823 9.16016 30.0413C9.16016 30.024 9.09424 29.9457 9.01367 29.8672C8.93311 29.7887 8.86719 29.7094 8.86719 29.691C8.86719 29.6726 8.81445 29.6069 8.75 29.5449C8.68555 29.483 8.63281 29.4144 8.63281 29.3925C8.63281 29.3707 8.60645 29.3338 8.57422 29.3105C8.54199 29.2873 8.51562 29.2478 8.51562 29.2227C8.51562 29.1975 8.48926 29.158 8.45703 29.1348C8.4248 29.1115 8.39844 29.072 8.39844 29.0469C8.39844 29.0218 8.37207 28.9822 8.33984 28.959C8.30762 28.9358 8.28125 28.8962 8.28125 28.8711C8.28125 28.846 8.25488 28.8064 8.22266 28.7832C8.19043 28.76 8.16406 28.7175 8.16406 28.6888C8.16406 28.6602 8.15088 28.6367 8.13477 28.6367C8.11865 28.6367 8.10547 28.6133 8.10547 28.5846C8.10547 28.5559 8.0791 28.5135 8.04688 28.4902C8.01465 28.467 7.98828 28.4246 7.98828 28.3959C7.98828 28.3672 7.9751 28.3438 7.95898 28.3438C7.94287 28.3438 7.92969 28.3174 7.92969 28.2852C7.92969 28.2529 7.9165 28.2266 7.90039 28.2266C7.88428 28.2266 7.87109 28.2002 7.87109 28.168C7.87109 28.1357 7.85791 28.1094 7.8418 28.1094C7.82568 28.1094 7.8125 28.083 7.8125 28.0508C7.8125 28.0186 7.79932 27.9922 7.7832 27.9922C7.76709 27.9922 7.75391 27.9658 7.75391 27.9336C7.75391 27.9014 7.74072 27.875 7.72461 27.875C7.7085 27.875 7.69531 27.8486 7.69531 27.8164C7.69531 27.7842 7.68213 27.7578 7.66602 27.7578C7.6499 27.7578 7.63672 27.7314 7.63672 27.6992C7.63672 27.667 7.62354 27.6406 7.60742 27.6406C7.59131 27.6406 7.57812 27.6011 7.57812 27.5527C7.57812 27.5044 7.56494 27.4648 7.54883 27.4648C7.53271 27.4648 7.51953 27.4385 7.51953 27.4062C7.51953 27.374 7.50635 27.3477 7.49023 27.3477C7.47412 27.3477 7.46094 27.3213 7.46094 27.2891C7.46094 27.2568 7.44775 27.2305 7.43164 27.2305C7.41553 27.2305 7.40234 27.1909 7.40234 27.1426C7.40234 27.0942 7.38916 27.0547 7.37305 27.0547C7.35693 27.0547 7.34375 27.0151 7.34375 26.9668C7.34375 26.9185 7.33057 26.8789 7.31445 26.8789C7.29834 26.8789 7.28516 26.8394 7.28516 26.791C7.28516 26.7427 7.27197 26.7031 7.25586 26.7031C7.23975 26.7031 7.22656 26.6636 7.22656 26.6152C7.22656 26.5669 7.21338 26.5273 7.19727 26.5273C7.18115 26.5273 7.16797 26.4878 7.16797 26.4395C7.16797 26.3911 7.15479 26.3516 7.13867 26.3516C7.12256 26.3516 7.10938 26.2988 7.10938 26.2344C7.10938 26.1699 7.09619 26.1172 7.08008 26.1172C7.06396 26.1172 7.05078 26.0645 7.05078 26C7.05078 25.9355 7.0376 25.8828 7.02148 25.8828C7.00537 25.8828 6.99219 25.8301 6.99219 25.7656C6.99219 25.7012 6.979 25.6484 6.96289 25.6484C6.94678 25.6484 6.93359 25.5825 6.93359 25.502C6.93359 25.4214 6.92041 25.3555 6.9043 25.3555C6.88757 25.3555 6.875 25.2676 6.875 25.1504C6.875 25.0332 6.86243 24.9453 6.8457 24.9453C6.82812 24.9453 6.81641 24.8281 6.81641 24.6523C6.81641 24.4766 6.80469 24.3594 6.78711 24.3594C6.76839 24.3594 6.75781 24.1055 6.75781 23.6562C6.75781 23.207 6.76839 22.9531 6.78711 22.9531C6.80469 22.9531 6.81641 22.8359 6.81641 22.6602C6.81641 22.4844 6.82812 22.3672 6.8457 22.3672C6.86199 22.3672 6.875 22.2891 6.875 22.1914C6.875 22.0938 6.88801 22.0156 6.9043 22.0156C6.92059 22.0156 6.93359 21.9375 6.93359 21.8398C6.93359 21.7422 6.9466 21.6641 6.96289 21.6641C6.979 21.6641 6.99219 21.6113 6.99219 21.5469C6.99219 21.4824 7.00537 21.4297 7.02148 21.4297C7.0376 21.4297 7.05078 21.377 7.05078 21.3125C7.05078 21.248 7.06396 21.1953 7.08008 21.1953C7.09619 21.1953 7.10938 21.1426 7.10938 21.0781C7.10938 21.0137 7.12256 20.9609 7.13867 20.9609C7.15479 20.9609 7.16797 20.9214 7.16797 20.873C7.16797 20.8247 7.18115 20.7852 7.19727 20.7852C7.21338 20.7852 7.22656 20.7456 7.22656 20.6973C7.22656 20.6489 7.23975 20.6094 7.25586 20.6094C7.27197 20.6094 7.28516 20.5698 7.28516 20.5215C7.28516 20.4731 7.29834 20.4336 7.31445 20.4336C7.33057 20.4336 7.34375 20.394 7.34375 20.3457C7.34375 20.2974 7.35693 20.2578 7.37305 20.2578C7.38916 20.2578 7.40234 20.2314 7.40234 20.1992C7.40234 20.167 7.41553 20.1406 7.43164 20.1406C7.44775 20.1406 7.46094 20.1011 7.46094 20.0527C7.46094 20.0044 7.47412 19.9648 7.49023 19.9648C7.50635 19.9648 7.51953 19.9385 7.51953 19.9062C7.51953 19.874 7.53271 19.8477 7.54883 19.8477C7.56494 19.8477 7.57812 19.8213 7.57812 19.7891C7.57812 19.7568 7.59131 19.7305 7.60742 19.7305C7.62354 19.7305 7.63672 19.6909 7.63672 19.6426C7.63672 19.5942 7.6499 19.5547 7.66602 19.5547C7.68213 19.5547 7.69531 19.5283 7.69531 19.4961C7.69531 19.4639 7.7085 19.4375 7.72461 19.4375C7.74072 19.4375 7.75391 19.4111 7.75391 19.3789C7.75391 19.3467 7.76709 19.3203 7.7832 19.3203C7.79932 19.3203 7.8125 19.2939 7.8125 19.2617C7.8125 19.2295 7.82568 19.2031 7.8418 19.2031C7.85791 19.2031 7.87109 19.1797 7.87109 19.151C7.87109 19.1223 7.89746 19.0799 7.92969 19.0566C7.96191 19.0334 7.98828 18.991 7.98828 18.9623C7.98828 18.9336 8.00146 18.9102 8.01758 18.9102C8.03369 18.9102 8.04688 18.8838 8.04688 18.8516C8.04688 18.8193 8.06006 18.793 8.07617 18.793C8.09229 18.793 8.10547 18.7695 8.10547 18.7408C8.10547 18.7122 8.13184 18.6697 8.16406 18.6465C8.19629 18.6233 8.22266 18.5837 8.22266 18.5586C8.22266 18.5335 8.24902 18.4939 8.28125 18.4707C8.31348 18.4475 8.33984 18.4079 8.33984 18.3828C8.33984 18.3577 8.36621 18.3182 8.39844 18.2949C8.43066 18.2717 8.45703 18.2321 8.45703 18.207C8.45703 18.1819 8.4834 18.1424 8.51562 18.1191C8.54785 18.0959 8.57422 18.0587 8.57422 18.0365C8.57422 18.0143 8.61377 17.9592 8.66211 17.9141C8.71045 17.8689 8.75 17.8164 8.75 17.7975C8.75 17.7785 8.80273 17.7123 8.86719 17.6504C8.93164 17.5885 8.98438 17.5235 8.98438 17.506C8.98438 17.4645 10.1755 16.2734 10.217 16.2734C10.2344 16.2734 10.2994 16.2207 10.3613 16.1562C10.4233 16.0918 10.4894 16.0391 10.5084 16.0391C10.5274 16.0391 10.5799 15.9995 10.625 15.9512C10.6701 15.9028 10.7253 15.8633 10.7475 15.8633C10.7697 15.8633 10.8068 15.8369 10.8301 15.8047C10.8533 15.7725 10.8905 15.7461 10.9127 15.7461C10.9349 15.7461 10.99 15.7065 11.0352 15.6582C11.0803 15.6099 11.1383 15.5703 11.1641 15.5703C11.1899 15.5703 11.2109 15.5571 11.2109 15.541C11.2109 15.5249 11.2344 15.5117 11.2631 15.5117C11.2917 15.5117 11.3342 15.4854 11.3574 15.4531C11.3807 15.4209 11.4231 15.3945 11.4518 15.3945C11.4804 15.3945 11.5039 15.3813 11.5039 15.3652C11.5039 15.3491 11.5274 15.3359 11.556 15.3359C11.5847 15.3359 11.6272 15.3096 11.6504 15.2773C11.6736 15.2451 11.7161 15.2188 11.7448 15.2188C11.7734 15.2188 11.7969 15.2056 11.7969 15.1895C11.7969 15.1733 11.8232 15.1602 11.8555 15.1602C11.8877 15.1602 11.9141 15.147 11.9141 15.1309C11.9141 15.1147 11.9404 15.1016 11.9727 15.1016C12.0049 15.1016 12.0312 15.0884 12.0312 15.0723C12.0312 15.0562 12.0576 15.043 12.0898 15.043C12.1221 15.043 12.1484 15.0298 12.1484 15.0137C12.1484 14.9976 12.1748 14.9844 12.207 14.9844C12.2393 14.9844 12.2656 14.9712 12.2656 14.9551C12.2656 14.939 12.292 14.9258 12.3242 14.9258C12.3564 14.9258 12.3828 14.9126 12.3828 14.8965C12.3828 14.8804 12.4092 14.8672 12.4414 14.8672C12.4736 14.8672 12.5 14.854 12.5 14.8379C12.5 14.8218 12.5264 14.8086 12.5586 14.8086C12.5908 14.8086 12.6172 14.7954 12.6172 14.7793C12.6172 14.7632 12.6567 14.75 12.7051 14.75C12.7534 14.75 12.793 14.7368 12.793 14.7207C12.793 14.7046 12.8193 14.6914 12.8516 14.6914C12.8838 14.6914 12.9102 14.6782 12.9102 14.6621C12.9102 14.646 12.9497 14.6328 12.998 14.6328C13.0464 14.6328 13.0859 14.6196 13.0859 14.6035C13.0859 14.5874 13.1255 14.5742 13.1738 14.5742C13.2222 14.5742 13.2617 14.561 13.2617 14.5449C13.2617 14.5288 13.3013 14.5156 13.3496 14.5156C13.3979 14.5156 13.4375 14.5024 13.4375 14.4863C13.4375 14.4702 13.4639 14.457 13.4961 14.457C13.5283 14.457 13.5547 14.4438 13.5547 14.4277C13.5547 14.4116 13.6074 14.3984 13.6719 14.3984C13.7363 14.3984 13.7891 14.3853 13.7891 14.3691C13.7891 14.353 13.8286 14.3398 13.877 14.3398C13.9253 14.3398 13.9648 14.3267 13.9648 14.3105C13.9648 14.2944 14.0308 14.2812 14.1113 14.2812C14.1919 14.2812 14.2578 14.2681 14.2578 14.252C14.2578 14.2358 14.3105 14.2227 14.375 14.2227C14.4395 14.2227 14.4922 14.2095 14.4922 14.1934C14.4922 14.1772 14.5581 14.1641 14.6387 14.1641C14.7192 14.1641 14.7852 14.1509 14.7852 14.1348C14.7852 14.118 14.873 14.1055 14.9902 14.1055C15.1074 14.1055 15.1953 14.0929 15.1953 14.0762C15.1953 14.0586 15.3125 14.0469 15.4883 14.0469C15.6641 14.0469 15.7812 14.0352 15.7812 14.0176C15.7812 13.9981 18.125 13.9883 22.7539 13.9883H29.7266V15.7461ZM17.3633 19.3496C17.3633 19.3657 17.416 19.3789 17.4805 19.3789C17.5449 19.3789 17.5977 19.3921 17.5977 19.4082C17.5977 19.4243 17.6372 19.4375 17.6855 19.4375C17.7339 19.4375 17.7734 19.4507 17.7734 19.4668C17.7734 19.4829 17.813 19.4961 17.8613 19.4961C17.9097 19.4961 17.9492 19.5093 17.9492 19.5254C17.9492 19.5415 17.9888 19.5547 18.0371 19.5547C18.0854 19.5547 18.125 19.5679 18.125 19.584C18.125 19.6001 18.1514 19.6133 18.1836 19.6133C18.2158 19.6133 18.2422 19.6265 18.2422 19.6426C18.2422 19.6587 18.2817 19.6719 18.3301 19.6719C18.3784 19.6719 18.418 19.6851 18.418 19.7012C18.418 19.7173 18.4414 19.7305 18.4701 19.7305C18.4988 19.7305 18.5412 19.7568 18.5645 19.7891C18.5877 19.8213 18.6301 19.8477 18.6588 19.8477C18.6875 19.8477 18.7109 19.8608 18.7109 19.877C18.7109 19.8931 18.7344 19.9062 18.7631 19.9062C18.7917 19.9062 18.8342 19.9326 18.8574 19.9648C18.8807 19.9971 18.9202 20.0234 18.9453 20.0234C18.9704 20.0234 19.01 20.0498 19.0332 20.082C19.0564 20.1143 19.0929 20.1406 19.1142 20.1406C19.1356 20.1406 19.1862 20.1738 19.2267 20.2142C19.2918 20.2794 19.2953 20.2929 19.2567 20.3314C19.2328 20.3554 19.1661 20.375 19.1085 20.375C19.051 20.375 19.0039 20.3882 19.0039 20.4043C19.0039 20.4204 18.9644 20.4336 18.916 20.4336C18.8677 20.4336 18.8281 20.4468 18.8281 20.4629C18.8281 20.479 18.8018 20.4922 18.7695 20.4922C18.7373 20.4922 18.7109 20.5054 18.7109 20.5215C18.7109 20.5376 18.6714 20.5508 18.623 20.5508C18.5747 20.5508 18.5352 20.564 18.5352 20.5801C18.5352 20.5962 18.5088 20.6094 18.4766 20.6094C18.4443 20.6094 18.418 20.6226 18.418 20.6387C18.418 20.6548 18.3916 20.668 18.3594 20.668C18.3271 20.668 18.3008 20.6812 18.3008 20.6973C18.3008 20.7134 18.2744 20.7266 18.2422 20.7266C18.21 20.7266 18.1836 20.7397 18.1836 20.7559C18.1836 20.772 18.1572 20.7852 18.125 20.7852C18.0928 20.7852 18.0664 20.7983 18.0664 20.8145C18.0664 20.8306 18.04 20.8438 18.0078 20.8438C17.9756 20.8438 17.9492 20.8569 17.9492 20.873C17.9492 20.8892 17.9258 20.9023 17.8971 20.9023C17.8684 20.9023 17.826 20.9287 17.8027 20.9609C17.7795 20.9932 17.74 21.0195 17.7148 21.0195C17.6897 21.0195 17.6502 21.0459 17.627 21.0781C17.6037 21.1104 17.5642 21.1367 17.5391 21.1367C17.514 21.1367 17.4744 21.1631 17.4512 21.1953C17.4279 21.2275 17.3912 21.2539 17.3696 21.2539C17.3479 21.2539 17.266 21.3198 17.1875 21.4004C17.109 21.481 17.0299 21.5469 17.0117 21.5469C16.9935 21.5469 16.9144 21.6128 16.8359 21.6934C16.7575 21.7739 16.6858 21.8398 16.6767 21.8398C16.6676 21.8398 16.6602 21.8135 16.6602 21.7812C16.6602 21.749 16.647 21.7227 16.6309 21.7227C16.6138 21.7227 16.6016 21.625 16.6016 21.4883C16.6016 21.3516 16.5893 21.2539 16.5723 21.2539C16.5552 21.2539 16.543 21.1563 16.543 21.0195C16.543 20.8828 16.5552 20.7852 16.5723 20.7852C16.5893 20.7852 16.6016 20.6875 16.6016 20.5508C16.6016 20.4141 16.6138 20.3164 16.6309 20.3164C16.647 20.3164 16.6602 20.2637 16.6602 20.1992C16.6602 20.1348 16.6733 20.082 16.6895 20.082C16.7056 20.082 16.7188 20.0293 16.7188 19.9648C16.7188 19.9004 16.7319 19.8477 16.748 19.8477C16.7642 19.8477 16.7773 19.8081 16.7773 19.7598C16.7773 19.7114 16.7905 19.6719 16.8066 19.6719C16.8228 19.6719 16.8359 19.6455 16.8359 19.6133C16.8359 19.5811 16.8491 19.5547 16.8652 19.5547C16.8813 19.5547 16.8945 19.5212 16.8945 19.4802C16.8945 19.3546 16.9491 19.3227 17.1655 19.3214C17.2786 19.3208 17.3633 19.3329 17.3633 19.3496ZM15.0195 19.584C15.0195 19.6001 15.0063 19.6133 14.9902 19.6133C14.9741 19.6133 14.9609 19.666 14.9609 19.7305C14.9609 19.7949 14.9478 19.8477 14.9316 19.8477C14.9155 19.8477 14.9023 19.9136 14.9023 19.9941C14.9023 20.0747 14.8892 20.1406 14.873 20.1406C14.8557 20.1406 14.8438 20.2481 14.8438 20.4043C14.8438 20.5605 14.8318 20.668 14.8145 20.668C14.7967 20.668 14.7852 20.7949 14.7852 20.9902C14.7852 21.1856 14.7967 21.3125 14.8145 21.3125C14.832 21.3125 14.8438 21.4297 14.8438 21.6055C14.8438 21.7812 14.8555 21.8984 14.873 21.8984C14.8892 21.8984 14.9023 21.9644 14.9023 22.0449C14.9023 22.1255 14.9155 22.1914 14.9316 22.1914C14.9478 22.1914 14.9609 22.2441 14.9609 22.3086C14.9609 22.373 14.9741 22.4258 14.9902 22.4258C15.0063 22.4258 15.0195 22.4653 15.0195 22.5137C15.0195 22.582 15.0065 22.6016 14.9609 22.6016C14.9287 22.6016 14.9023 22.5884 14.9023 22.5723C14.9023 22.5562 14.8628 22.543 14.8145 22.543C14.7661 22.543 14.7266 22.5298 14.7266 22.5137C14.7266 22.4976 14.7002 22.4844 14.668 22.4844C14.6357 22.4844 14.6094 22.4712 14.6094 22.4551C14.6094 22.439 14.583 22.4258 14.5508 22.4258C14.5186 22.4258 14.4922 22.4126 14.4922 22.3965C14.4922 22.3804 14.4658 22.3672 14.4336 22.3672C14.4014 22.3672 14.375 22.354 14.375 22.3379C14.375 22.3218 14.3486 22.3086 14.3164 22.3086C14.2842 22.3086 14.2578 22.2954 14.2578 22.2793C14.2578 22.2632 14.2343 22.25 14.2057 22.25C14.177 22.25 14.1346 22.2236 14.1113 22.1914C14.0881 22.1592 14.0509 22.1328 14.0287 22.1328C14.0065 22.1328 13.9514 22.0933 13.9062 22.0449C13.8611 21.9966 13.8095 21.957 13.7916 21.957C13.7492 21.957 13.1445 21.3524 13.1445 21.31C13.1445 21.2921 13.105 21.2405 13.0566 21.1953C12.8946 21.0439 12.922 20.9778 13.3053 20.5944C13.4905 20.4093 13.6566 20.2578 13.6745 20.2578C13.6923 20.2578 13.7439 20.2183 13.7891 20.1699C13.8342 20.1216 13.8893 20.082 13.9115 20.082C13.9337 20.082 13.9709 20.0557 13.9941 20.0234C14.0174 19.9912 14.0569 19.9648 14.082 19.9648C14.1071 19.9648 14.1467 19.9385 14.1699 19.9062C14.1932 19.874 14.2356 19.8477 14.2643 19.8477C14.2929 19.8477 14.3164 19.8345 14.3164 19.8184C14.3164 19.8022 14.3428 19.7891 14.375 19.7891C14.4072 19.7891 14.4336 19.7759 14.4336 19.7598C14.4336 19.7437 14.46 19.7305 14.4922 19.7305C14.5244 19.7305 14.5508 19.7173 14.5508 19.7012C14.5508 19.6851 14.5771 19.6719 14.6094 19.6719C14.6416 19.6719 14.668 19.6587 14.668 19.6426C14.668 19.6265 14.7075 19.6133 14.7559 19.6133C14.8042 19.6133 14.8438 19.6001 14.8438 19.584C14.8438 19.5679 14.8833 19.5547 14.9316 19.5547C14.98 19.5547 15.0195 19.5679 15.0195 19.584ZM20.5273 21.957C20.5273 21.9893 20.5405 22.0156 20.5566 22.0156C20.5728 22.0156 20.5859 22.0552 20.5859 22.1035C20.5859 22.1519 20.5991 22.1914 20.6152 22.1914C20.6313 22.1914 20.6445 22.2178 20.6445 22.25C20.6445 22.2822 20.6577 22.3086 20.6738 22.3086C20.6899 22.3086 20.7031 22.3613 20.7031 22.4258C20.7031 22.4902 20.7163 22.543 20.7324 22.543C20.7485 22.543 20.7617 22.5957 20.7617 22.6602C20.7617 22.7246 20.7749 22.7773 20.791 22.7773C20.8073 22.7773 20.8203 22.8555 20.8203 22.9531C20.8203 23.0508 20.8333 23.1289 20.8496 23.1289C20.868 23.1289 20.8789 23.3144 20.8789 23.627C20.8789 23.9395 20.868 24.125 20.8496 24.125C20.8335 24.125 20.8203 24.1909 20.8203 24.2715C20.8203 24.3521 20.8127 24.418 20.8034 24.418C20.794 24.418 20.7358 24.3652 20.6738 24.3008C20.6119 24.2363 20.5462 24.1836 20.5277 24.1836C20.5093 24.1836 20.43 24.1177 20.3516 24.0371C20.2731 23.9565 20.1912 23.8906 20.1695 23.8906C20.1478 23.8906 20.1111 23.8643 20.0879 23.832C20.0647 23.7998 20.0251 23.7734 20 23.7734C19.9749 23.7734 19.9353 23.7471 19.9121 23.7148C19.8889 23.6826 19.8493 23.6562 19.8242 23.6562C19.7991 23.6562 19.7596 23.6299 19.7363 23.5977C19.7131 23.5654 19.6706 23.5391 19.642 23.5391C19.6133 23.5391 19.5898 23.5259 19.5898 23.5098C19.5898 23.4937 19.5635 23.4805 19.5312 23.4805C19.499 23.4805 19.4727 23.4673 19.4727 23.4512C19.4727 23.4351 19.4463 23.4219 19.4141 23.4219C19.3818 23.4219 19.3555 23.4087 19.3555 23.3926C19.3555 23.3765 19.3291 23.3633 19.2969 23.3633C19.2646 23.3633 19.2383 23.3501 19.2383 23.334C19.2383 23.3179 19.2119 23.3047 19.1797 23.3047C19.1475 23.3047 19.1211 23.2915 19.1211 23.2754C19.1211 23.2593 19.0947 23.2461 19.0625 23.2461C19.0303 23.2461 19.0039 23.2329 19.0039 23.2168C19.0039 23.2007 18.9644 23.1875 18.916 23.1875C18.8677 23.1875 18.8281 23.1743 18.8281 23.1582C18.8281 23.1421 18.8018 23.1289 18.7695 23.1289C18.7373 23.1289 18.7109 23.1157 18.7109 23.0996C18.7109 23.0835 18.6714 23.0703 18.623 23.0703C18.5747 23.0703 18.5352 23.0571 18.5352 23.041C18.5352 23.0249 18.4824 23.0117 18.418 23.0117C18.3535 23.0117 18.3008 22.9985 18.3008 22.9824C18.3008 22.9663 18.2612 22.9531 18.2129 22.9531C18.1646 22.9531 18.125 22.9462 18.125 22.9377C18.125 22.9045 18.3894 22.6602 18.4254 22.6602C18.4464 22.6602 18.4826 22.6338 18.5059 22.6016C18.5291 22.5693 18.5686 22.543 18.5938 22.543C18.6189 22.543 18.6584 22.5166 18.6816 22.4844C18.7049 22.4521 18.7473 22.4258 18.776 22.4258C18.8047 22.4258 18.8281 22.4126 18.8281 22.3965C18.8281 22.3804 18.8545 22.3672 18.8867 22.3672C18.9189 22.3672 18.9453 22.354 18.9453 22.3379C18.9453 22.3218 18.9717 22.3086 19.0039 22.3086C19.0361 22.3086 19.0625 22.2954 19.0625 22.2793C19.0625 22.2632 19.0889 22.25 19.1211 22.25C19.1533 22.25 19.1797 22.2368 19.1797 22.2207C19.1797 22.2046 19.2061 22.1914 19.2383 22.1914C19.2705 22.1914 19.2969 22.1782 19.2969 22.1621C19.2969 22.146 19.3364 22.1328 19.3848 22.1328C19.4331 22.1328 19.4727 22.1196 19.4727 22.1035C19.4727 22.0874 19.5122 22.0742 19.5605 22.0742C19.6089 22.0742 19.6484 22.061 19.6484 22.0449C19.6484 22.0288 19.7012 22.0156 19.7656 22.0156C19.8301 22.0156 19.8828 22.0024 19.8828 21.9863C19.8828 21.9702 19.9487 21.957 20.0293 21.957C20.1099 21.957 20.1758 21.9438 20.1758 21.9277C20.1758 21.9114 20.2539 21.8984 20.3516 21.8984C20.5078 21.8984 20.5273 21.9049 20.5273 21.957ZM12.2656 22.9824C12.3441 23.063 12.4234 23.1289 12.4418 23.1289C12.4602 23.1289 12.526 23.1816 12.5879 23.2461C12.6498 23.3105 12.716 23.3633 12.735 23.3633C12.7539 23.3633 12.8064 23.4028 12.8516 23.4512C12.8967 23.4995 12.9518 23.5391 12.974 23.5391C12.9962 23.5391 13.0334 23.5654 13.0566 23.5977C13.0799 23.6299 13.1194 23.6562 13.1445 23.6562C13.1696 23.6562 13.2092 23.6826 13.2324 23.7148C13.2557 23.7471 13.2981 23.7734 13.3268 23.7734C13.3554 23.7734 13.3789 23.7866 13.3789 23.8027C13.3789 23.8188 13.4053 23.832 13.4375 23.832C13.4697 23.832 13.4961 23.8452 13.4961 23.8613C13.4961 23.8774 13.5225 23.8906 13.5547 23.8906C13.5869 23.8906 13.6133 23.9038 13.6133 23.9199C13.6133 23.936 13.6396 23.9492 13.6719 23.9492C13.7041 23.9492 13.7305 23.9624 13.7305 23.9785C13.7305 23.9946 13.7568 24.0078 13.7891 24.0078C13.8213 24.0078 13.8477 24.021 13.8477 24.0371C13.8477 24.0532 13.874 24.0664 13.9062 24.0664C13.9385 24.0664 13.9648 24.0796 13.9648 24.0957C13.9648 24.1118 14.0044 24.125 14.0527 24.125C14.1011 24.125 14.1406 24.1382 14.1406 24.1543C14.1406 24.1704 14.167 24.1836 14.1992 24.1836C14.2314 24.1836 14.2578 24.1968 14.2578 24.2129C14.2578 24.229 14.2974 24.2422 14.3457 24.2422C14.394 24.2422 14.4336 24.2554 14.4336 24.2715C14.4336 24.2876 14.4863 24.3008 14.5508 24.3008C14.6152 24.3008 14.668 24.314 14.668 24.3301C14.668 24.3462 14.7075 24.3594 14.7559 24.3594C14.8042 24.3594 14.8438 24.3663 14.8438 24.3748C14.8438 24.408 14.5794 24.6523 14.5434 24.6523C14.5223 24.6523 14.4861 24.6787 14.4629 24.7109C14.4397 24.7432 14.4001 24.7695 14.375 24.7695C14.3499 24.7695 14.3103 24.7959 14.2871 24.8281C14.2639 24.8604 14.2214 24.8867 14.1927 24.8867C14.1641 24.8867 14.1406 24.8999 14.1406 24.916C14.1406 24.9321 14.1143 24.9453 14.082 24.9453C14.0498 24.9453 14.0234 24.9585 14.0234 24.9746C14.0234 24.9907 13.9971 25.0039 13.9648 25.0039C13.9326 25.0039 13.9062 25.0171 13.9062 25.0332C13.9062 25.0493 13.8799 25.0625 13.8477 25.0625C13.8154 25.0625 13.7891 25.0757 13.7891 25.0918C13.7891 25.1079 13.7627 25.1211 13.7305 25.1211C13.6982 25.1211 13.6719 25.1343 13.6719 25.1504C13.6719 25.1665 13.6323 25.1797 13.584 25.1797C13.5356 25.1797 13.4961 25.1929 13.4961 25.209C13.4961 25.2251 13.4565 25.2383 13.4082 25.2383C13.3599 25.2383 13.3203 25.2515 13.3203 25.2676C13.3203 25.2837 13.2676 25.2969 13.2031 25.2969C13.1387 25.2969 13.0859 25.3101 13.0859 25.3262C13.0859 25.3423 13.02 25.3555 12.9395 25.3555C12.8589 25.3555 12.793 25.3687 12.793 25.3848C12.793 25.4015 12.7051 25.4141 12.5879 25.4141C12.4024 25.4141 12.3828 25.4085 12.3828 25.3555C12.3828 25.3232 12.3696 25.2969 12.3535 25.2969C12.3374 25.2969 12.3242 25.2573 12.3242 25.209C12.3242 25.1606 12.311 25.1211 12.2949 25.1211C12.2788 25.1211 12.2656 25.0815 12.2656 25.0332C12.2656 24.9849 12.2524 24.9453 12.2363 24.9453C12.2202 24.9453 12.207 24.9058 12.207 24.8574C12.207 24.8091 12.1938 24.7695 12.1777 24.7695C12.1616 24.7695 12.1484 24.7168 12.1484 24.6523C12.1484 24.5879 12.1353 24.5352 12.1191 24.5352C12.1029 24.5352 12.0898 24.457 12.0898 24.3594C12.0898 24.2617 12.0768 24.1836 12.0605 24.1836C12.0422 24.1836 12.0312 23.9981 12.0312 23.6855C12.0312 23.373 12.0422 23.1875 12.0605 23.1875C12.0768 23.1875 12.0898 23.1094 12.0898 23.0117C12.0898 22.915 12.0973 22.8359 12.1064 22.8359C12.1155 22.8359 12.1871 22.9019 12.2656 22.9824ZM18.0664 24.7402C18.0664 24.7563 18.106 24.7695 18.1543 24.7695C18.2026 24.7695 18.2422 24.7827 18.2422 24.7988C18.2422 24.8149 18.2686 24.8281 18.3008 24.8281C18.333 24.8281 18.3594 24.8413 18.3594 24.8574C18.3594 24.8735 18.3857 24.8867 18.418 24.8867C18.4502 24.8867 18.4766 24.8999 18.4766 24.916C18.4766 24.9321 18.5029 24.9453 18.5352 24.9453C18.5674 24.9453 18.5938 24.9585 18.5938 24.9746C18.5938 24.9907 18.6201 25.0039 18.6523 25.0039C18.6846 25.0039 18.7109 25.0171 18.7109 25.0332C18.7109 25.0493 18.7344 25.0625 18.7631 25.0625C18.7917 25.0625 18.8342 25.0889 18.8574 25.1211C18.8807 25.1533 18.9178 25.1797 18.94 25.1797C18.9622 25.1797 19.0174 25.2192 19.0625 25.2676C19.1076 25.3159 19.1592 25.3555 19.1771 25.3555C19.2196 25.3555 19.8242 25.9601 19.8242 26.0025C19.8242 26.0204 19.8638 26.072 19.9121 26.1172C19.9604 26.1623 20 26.2271 20 26.261C20 26.3289 19.1792 27.1719 19.1132 27.1719C19.0924 27.1719 19.0564 27.1982 19.0332 27.2305C19.01 27.2627 18.9704 27.2891 18.9453 27.2891C18.9202 27.2891 18.8807 27.3154 18.8574 27.3477C18.8342 27.3799 18.7917 27.4062 18.7631 27.4062C18.7344 27.4062 18.7109 27.4194 18.7109 27.4355C18.7109 27.4517 18.6875 27.4648 18.6588 27.4648C18.6301 27.4648 18.5877 27.4912 18.5645 27.5234C18.5396 27.5578 18.4886 27.582 18.4408 27.582C18.396 27.582 18.3594 27.5952 18.3594 27.6113C18.3594 27.6274 18.333 27.6406 18.3008 27.6406C18.2686 27.6406 18.2422 27.6538 18.2422 27.6699C18.2422 27.686 18.2158 27.6992 18.1836 27.6992C18.1514 27.6992 18.125 27.7124 18.125 27.7285C18.125 27.7446 18.0854 27.7578 18.0371 27.7578C17.9888 27.7578 17.9492 27.7446 17.9492 27.7285C17.9492 27.7124 17.9624 27.6992 17.9785 27.6992C17.9946 27.6992 18.0078 27.6465 18.0078 27.582C18.0078 27.5176 18.021 27.4648 18.0371 27.4648C18.0532 27.4648 18.0664 27.3989 18.0664 27.3184C18.0664 27.2378 18.0796 27.1719 18.0957 27.1719C18.1133 27.1719 18.125 27.0547 18.125 26.8789C18.125 26.7031 18.1367 26.5859 18.1543 26.5859C18.1717 26.5859 18.1836 26.4785 18.1836 26.3223C18.1836 26.166 18.1717 26.0586 18.1543 26.0586C18.1365 26.0586 18.125 25.9317 18.125 25.7363C18.125 25.541 18.1135 25.4141 18.0957 25.4141C18.0796 25.4141 18.0664 25.3481 18.0664 25.2676C18.0664 25.187 18.0532 25.1211 18.0371 25.1211C18.021 25.1211 18.0078 25.0684 18.0078 25.0039C18.0078 24.9395 17.9946 24.8867 17.9785 24.8867C17.9624 24.8867 17.9492 24.8472 17.9492 24.7988C17.9492 24.7305 17.9622 24.7109 18.0078 24.7109C18.04 24.7109 18.0664 24.7241 18.0664 24.7402ZM16.3086 25.5312C16.3086 25.5635 16.3218 25.5898 16.3379 25.5898C16.355 25.5898 16.3672 25.6875 16.3672 25.8242C16.3672 25.9609 16.3794 26.0586 16.3965 26.0586C16.4136 26.0586 16.4258 26.1562 16.4258 26.293C16.4258 26.4297 16.4136 26.5273 16.3965 26.5273C16.3794 26.5273 16.3672 26.625 16.3672 26.7617C16.3672 26.8984 16.355 26.9961 16.3379 26.9961C16.3218 26.9961 16.3086 27.0488 16.3086 27.1133C16.3086 27.1777 16.2954 27.2305 16.2793 27.2305C16.2632 27.2305 16.25 27.2832 16.25 27.3477C16.25 27.4121 16.2368 27.4648 16.2207 27.4648C16.2046 27.4648 16.1914 27.5044 16.1914 27.5527C16.1914 27.6011 16.1782 27.6406 16.1621 27.6406C16.146 27.6406 16.1328 27.667 16.1328 27.6992C16.1328 27.7314 16.1196 27.7578 16.1035 27.7578C16.0874 27.7578 16.0742 27.7917 16.0742 27.8331C16.0742 27.956 16.0114 27.9922 15.798 27.9922C15.6892 27.9922 15.6055 27.9794 15.6055 27.9629C15.6055 27.9468 15.5527 27.9336 15.4883 27.9336C15.4238 27.9336 15.3711 27.9204 15.3711 27.9043C15.3711 27.8882 15.3184 27.875 15.2539 27.875C15.1895 27.875 15.1367 27.8618 15.1367 27.8457C15.1367 27.8296 15.0972 27.8164 15.0488 27.8164C15.0005 27.8164 14.9609 27.8032 14.9609 27.7871C14.9609 27.771 14.9346 27.7578 14.9023 27.7578C14.8701 27.7578 14.8438 27.7446 14.8438 27.7285C14.8438 27.7124 14.8042 27.6992 14.7559 27.6992C14.7075 27.6992 14.668 27.686 14.668 27.6699C14.668 27.6538 14.6416 27.6406 14.6094 27.6406C14.5771 27.6406 14.5508 27.6274 14.5508 27.6113C14.5508 27.5952 14.5244 27.582 14.4922 27.582C14.46 27.582 14.4336 27.5688 14.4336 27.5527C14.4336 27.5366 14.4072 27.5234 14.375 27.5234C14.3428 27.5234 14.3164 27.5103 14.3164 27.4941C14.3164 27.478 14.2929 27.4648 14.2643 27.4648C14.2356 27.4648 14.1932 27.4385 14.1699 27.4062C14.1467 27.374 14.1071 27.3477 14.082 27.3477C14.0569 27.3477 14.0174 27.3213 13.9941 27.2891C13.9709 27.2568 13.9337 27.2305 13.9115 27.2305C13.8893 27.2305 13.8342 27.1909 13.7891 27.1426C13.7439 27.0942 13.6859 27.0547 13.6601 27.0547C13.6343 27.0547 13.6133 27.0415 13.6133 27.0254C13.6133 27.0093 13.6528 26.9961 13.7012 26.9961C13.7495 26.9961 13.7891 26.9829 13.7891 26.9668C13.7891 26.9507 13.8286 26.9375 13.877 26.9375C13.9253 26.9375 13.9648 26.9243 13.9648 26.9082C13.9648 26.8921 14.0044 26.8789 14.0527 26.8789C14.1011 26.8789 14.1406 26.8657 14.1406 26.8496C14.1406 26.8335 14.1802 26.8203 14.2285 26.8203C14.2769 26.8203 14.3164 26.8071 14.3164 26.791C14.3164 26.7749 14.3428 26.7617 14.375 26.7617C14.4072 26.7617 14.4336 26.7485 14.4336 26.7324C14.4336 26.7163 14.46 26.7031 14.4922 26.7031C14.5244 26.7031 14.5508 26.6899 14.5508 26.6738C14.5508 26.6577 14.5771 26.6445 14.6094 26.6445C14.6416 26.6445 14.668 26.6313 14.668 26.6152C14.668 26.5991 14.6943 26.5859 14.7266 26.5859C14.7588 26.5859 14.7852 26.5728 14.7852 26.5566C14.7852 26.5405 14.8115 26.5273 14.8438 26.5273C14.876 26.5273 14.9023 26.5142 14.9023 26.498C14.9023 26.4819 14.9287 26.4688 14.9609 26.4688C14.9932 26.4688 15.0195 26.4556 15.0195 26.4395C15.0195 26.4233 15.043 26.4102 15.0717 26.4102C15.1003 26.4102 15.1428 26.3838 15.166 26.3516C15.1892 26.3193 15.2288 26.293 15.2539 26.293C15.279 26.293 15.3186 26.2666 15.3418 26.2344C15.365 26.2021 15.4046 26.1758 15.4297 26.1758C15.4548 26.1758 15.4943 26.1494 15.5176 26.1172C15.5408 26.085 15.5775 26.0586 15.5992 26.0586C15.6208 26.0586 15.7028 25.9927 15.7812 25.9121C15.8597 25.8315 15.9413 25.7649 15.9625 25.764C15.9836 25.7631 16.0603 25.6979 16.1328 25.6191C16.2793 25.4599 16.3086 25.4453 16.3086 25.5312Z" fill="#DD2A1B"/>
</svg>
