<svg width="40" height="41" viewBox="0 0 40 41" fill="none" xmlns="http://www.w3.org/2000/svg">
<path fill-rule="evenodd" clip-rule="evenodd" d="M8.33562 20.0948C8.52818 20.382 8.86311 20.5399 9.20718 20.5056C9.55124 20.4714 9.84849 20.2505 9.98061 19.931C10.6124 18.4034 12.1024 17.382 13.7887 17.3776C15.669 17.3726 17.394 16.5014 18.5099 15.0679L18.9341 15.7005L16.213 19.7587C15.9247 20.1888 16.0395 20.7711 16.4696 21.0595C16.8996 21.3478 17.482 21.233 17.7704 20.8029L20.0629 17.3839L22.3553 20.8029C22.6436 21.2329 23.226 21.3478 23.656 21.0595C24.0861 20.7711 24.201 20.1887 23.9126 19.7587L21.1915 15.7005L21.49 15.2554C22.6059 16.6888 24.3308 17.56 26.2112 17.565C27.8616 17.5694 29.3716 18.5523 30.0193 20.1184C30.1515 20.4379 30.4487 20.6587 30.7928 20.693C31.1363 20.7272 31.4718 20.5694 31.6643 20.2822L35.8411 14.0529C36.0157 13.7925 36.0486 13.4622 35.9288 13.1726C34.999 10.9242 32.826 9.46717 30.393 9.46075C28.719 9.45631 27.2238 8.45231 26.5849 6.90738C26.4528 6.58788 26.1555 6.36701 25.8115 6.33275C25.4675 6.29849 25.1324 6.45638 24.9399 6.74356L22.9392 9.72743L20.0629 14.0172L15.0602 6.55606C14.8677 6.26894 14.5325 6.11099 14.1886 6.14525C13.8445 6.17951 13.5473 6.40038 13.4152 6.71988C12.7751 8.26768 11.2781 9.26881 9.60699 9.27325C7.17399 9.27967 5.00106 10.7367 4.07119 12.9851C3.95138 13.2747 3.98425 13.6051 4.15887 13.8654C4.43017 14.2701 5.66781 16.116 6.73504 17.7076L6.8827 17.9279L8.33562 20.0948ZM25.7335 15.6603L26.6936 14.2284C27.2079 14.3719 27.7469 14.4489 28.2996 14.4504C28.4625 14.4509 28.6236 14.461 28.7825 14.4799L27.8223 15.9119C27.308 15.7684 26.7689 15.6915 26.2162 15.6901C26.0533 15.6897 25.8923 15.6792 25.7335 15.6603ZM30.9373 17.9998C30.5434 17.4938 30.0733 17.0582 29.5475 16.7057L30.5915 15.1488C31.1253 15.5067 31.5751 15.9899 31.8971 16.5684L30.9373 17.9998ZM33.9857 13.4534L33.0253 14.8858C32.6313 14.3797 32.162 13.9432 31.6362 13.5906L32.6796 12.0345C33.2134 12.3925 33.6636 12.8751 33.9857 13.4534ZM30.8707 11.3655L29.9106 12.7974C29.3963 12.654 28.8573 12.5769 28.3046 12.5754C28.1417 12.575 27.9806 12.5649 27.8217 12.5459L28.7818 11.114C29.2962 11.2574 29.8353 11.3343 30.388 11.3357C30.5508 11.3362 30.7118 11.3467 30.8707 11.3655ZM25.6669 9.02612C26.0608 9.53212 26.5309 9.96768 27.0567 10.3202L26.0128 11.8771C25.4789 11.5192 25.0292 11.036 24.7071 10.4576L25.6669 9.02612ZM23.579 12.1401C23.9729 12.6461 24.4422 13.0827 24.968 13.4352L23.9247 14.9914C23.3908 14.6334 22.9406 14.1509 22.6185 13.5724L23.579 12.1401ZM9.06268 17.8123L8.10287 16.3809C8.42487 15.8024 8.87468 15.3192 9.40855 14.9613L10.4525 16.5182C9.92668 16.8707 9.45662 17.3062 9.06268 17.8123ZM13.7838 15.5026C13.2311 15.504 12.692 15.5809 12.1776 15.7244L11.2175 14.2924C11.3764 14.2735 11.5375 14.2634 11.7004 14.2629C12.253 14.2615 12.792 14.1844 13.3064 14.0409L14.2664 15.4728C14.1076 15.4917 13.9467 15.5022 13.7838 15.5026ZM16.0754 14.8039L15.032 13.2477C15.5578 12.8952 16.0271 12.4586 16.421 11.9526L17.3815 13.3849C17.0595 13.9634 16.6092 14.446 16.0754 14.8039ZM14.3331 8.83862L15.2929 10.2701C14.9709 10.8485 14.5211 11.3317 13.9872 11.6896L12.9434 10.1327C13.4691 9.78018 13.9392 9.34468 14.3331 8.83862ZM9.61199 11.1483C10.1647 11.1469 10.7038 11.07 11.2182 10.9266L12.1783 12.3585C12.0194 12.3774 11.8583 12.3875 11.6954 12.388C11.1427 12.3894 10.6037 12.4666 10.0894 12.61L9.12936 11.1781C9.28812 11.1592 9.44912 11.1487 9.61199 11.1483ZM7.32037 11.8471L8.36374 13.4032C7.83793 13.7557 7.36862 14.1923 6.97468 14.6984L6.01425 13.266C6.33631 12.6876 6.78656 12.205 7.32037 11.8471ZM35.0625 28.7656H26.5625V24.0781C26.5625 23.5604 26.1427 23.1406 25.625 23.1406H14.375C13.8572 23.1406 13.4375 23.5604 13.4375 24.0781V26.8906H4.9375C4.41975 26.8906 4 27.3103 4 27.8281V33.4531C4 33.9708 4.41975 34.3906 4.9375 34.3906H35.0625C35.5802 34.3906 36 33.9708 36 33.4531V29.7031C36 29.1853 35.5802 28.7656 35.0625 28.7656ZM5.875 28.7656H13.4375V32.5156H5.875V28.7656ZM15.3125 25.0156H24.6875V32.5156H15.3125V25.0156ZM34.125 32.5156H26.5625V30.6406H34.125V32.5156ZM19.0625 27.8281C19.0625 27.3103 19.4822 26.8906 20 26.8906C20.5177 26.8906 20.9375 27.3103 20.9375 27.8281V29.7031C20.9375 30.2208 20.5177 30.6406 20 30.6406C19.4822 30.6406 19.0625 30.2208 19.0625 29.7031V27.8281Z" fill="#DD2A1B"/>
</svg>
