<svg width="40" height="41" viewBox="0 0 40 41" fill="none" xmlns="http://www.w3.org/2000/svg">
<path fill-rule="evenodd" clip-rule="evenodd" d="M34.9745 2.93481L30.5022 0.140625L22.964 12.4297H5V28.25H35V12.4297H29.1503L34.9745 2.93481ZM23.722 14.5347L23.9679 14.1411L25.4586 15.0725L25.2128 15.4661C24.2803 16.9585 23.0911 18.2917 21.7197 19.3967C22.1113 17.6797 22.7897 16.0269 23.722 14.5347ZM26.384 13.5776L24.8932 12.6465L27.6505 8.15137L29.1411 9.08276L26.384 13.5776ZM31.0739 2.57056L32.5645 3.50195L30.0603 7.58423L28.5696 6.65283L31.0739 2.57056ZM21.8824 14.1875C21.5576 14.7561 21.2649 15.3435 21.0056 15.9453H6.75781V14.1875H21.8824ZM6.75781 26.4922V17.7026H20.3563C20.2487 18.05 20.1516 18.4006 20.0654 18.7537C20.0082 18.9883 19.9558 19.2241 19.9083 19.4609H12.0312V21.2188H19.5458L18.8999 22.2524L20.3905 23.1841L21.1609 21.9509C22.9448 20.8298 24.5253 19.3813 25.8008 17.7031H33.2422V26.4922H6.75781ZM33.2422 14.1875V15.9453H26.9938L28.072 14.1875H33.2422ZM8.51562 22.9766H15.6055V24.7344H8.51562V22.9766ZM10.2734 19.4609H8.51562V21.2188H10.2734V19.4609Z" fill="#DD2A1B"/>
</svg>
