<svg width="40" height="41" viewBox="0 0 40 41" fill="none" xmlns="http://www.w3.org/2000/svg">
<path fill-rule="evenodd" clip-rule="evenodd" d="M14.0234 5.16992C14.0234 5.1875 13.9062 5.19922 13.7305 5.19922C13.5547 5.19922 13.4375 5.21094 13.4375 5.22852C13.4375 5.24524 13.3496 5.25781 13.2324 5.25781C13.1152 5.25781 13.0273 5.27038 13.0273 5.28711C13.0273 5.30322 12.9614 5.31641 12.8809 5.31641C12.8003 5.31641 12.7344 5.32959 12.7344 5.3457C12.7344 5.36182 12.6816 5.375 12.6172 5.375C12.5527 5.375 12.5 5.38818 12.5 5.4043C12.5 5.42041 12.4473 5.43359 12.3828 5.43359C12.3184 5.43359 12.2656 5.44678 12.2656 5.46289C12.2656 5.479 12.2129 5.49219 12.1484 5.49219C12.084 5.49219 12.0312 5.50537 12.0312 5.52148C12.0312 5.5376 11.9917 5.55078 11.9434 5.55078C11.895 5.55078 11.8555 5.56396 11.8555 5.58008C11.8555 5.59619 11.8159 5.60938 11.7676 5.60938C11.7192 5.60938 11.6797 5.62256 11.6797 5.63867C11.6797 5.65479 11.6401 5.66797 11.5918 5.66797C11.5435 5.66797 11.5039 5.68115 11.5039 5.69727C11.5039 5.71338 11.4644 5.72656 11.416 5.72656C11.3677 5.72656 11.3281 5.73975 11.3281 5.75586C11.3281 5.77197 11.2886 5.78516 11.2402 5.78516C11.1919 5.78516 11.1523 5.79834 11.1523 5.81445C11.1523 5.83057 11.126 5.84375 11.0938 5.84375C11.0615 5.84375 11.0352 5.85693 11.0352 5.87305C11.0352 5.88916 10.9956 5.90234 10.9473 5.90234C10.8989 5.90234 10.8594 5.91553 10.8594 5.93164C10.8594 5.94775 10.833 5.96094 10.8008 5.96094C10.7686 5.96094 10.7422 5.97412 10.7422 5.99023C10.7422 6.00635 10.7158 6.01953 10.6836 6.01953C10.6514 6.01953 10.625 6.03271 10.625 6.04883C10.625 6.06494 10.5986 6.07812 10.5664 6.07812C10.5342 6.07812 10.5078 6.09131 10.5078 6.10742C10.5078 6.12354 10.4814 6.13672 10.4492 6.13672C10.417 6.13672 10.3906 6.1499 10.3906 6.16602C10.3906 6.18213 10.3643 6.19531 10.332 6.19531C10.2998 6.19531 10.2734 6.2085 10.2734 6.22461C10.2734 6.24072 10.2471 6.25391 10.2148 6.25391C10.1826 6.25391 10.1562 6.26709 10.1562 6.2832C10.1562 6.29932 10.1299 6.3125 10.0977 6.3125C10.0654 6.3125 10.0391 6.32568 10.0391 6.3418C10.0391 6.35791 10.0156 6.37109 9.98694 6.37109C9.95826 6.37109 9.91581 6.39746 9.89258 6.42969C9.86935 6.46191 9.82689 6.48828 9.79821 6.48828C9.76956 6.48828 9.74609 6.50146 9.74609 6.51758C9.74609 6.53369 9.72263 6.54688 9.69397 6.54688C9.66529 6.54688 9.62284 6.57324 9.59961 6.60547C9.57638 6.6377 9.53683 6.66406 9.51172 6.66406C9.48661 6.66406 9.44706 6.69043 9.42383 6.72266C9.4006 6.75488 9.36104 6.78125 9.33594 6.78125C9.31083 6.78125 9.27128 6.80762 9.24805 6.83984C9.22481 6.87207 9.18526 6.89844 9.16016 6.89844C9.13505 6.89844 9.0955 6.9248 9.07227 6.95703C9.04903 6.98926 9.01186 7.01562 8.98965 7.01562C8.96747 7.01562 8.91233 7.05518 8.86719 7.10352C8.82204 7.15186 8.76975 7.19141 8.751 7.19141C8.73225 7.19141 8.65271 7.25732 8.57422 7.33789C8.49573 7.41846 8.41742 7.48438 8.40014 7.48438C8.35889 7.48438 7.28516 8.55849 7.28516 8.59977C7.28516 8.61726 7.23242 8.68221 7.16797 8.74414C7.10352 8.80607 7.05078 8.87226 7.05078 8.89121C7.05078 8.9102 7.01123 8.96267 6.96289 9.00781C6.91455 9.05296 6.875 9.10569 6.875 9.125C6.875 9.14431 6.83545 9.19704 6.78711 9.24219C6.73877 9.28733 6.69922 9.34247 6.69922 9.36465C6.69922 9.38686 6.67285 9.42403 6.64062 9.44727C6.6084 9.4705 6.58203 9.51005 6.58203 9.53516C6.58203 9.56026 6.55566 9.59981 6.52344 9.62305C6.49121 9.64628 6.46484 9.68873 6.46484 9.71741C6.46484 9.74606 6.45166 9.76953 6.43555 9.76953C6.41943 9.76953 6.40625 9.793 6.40625 9.82165C6.40625 9.85033 6.37988 9.89278 6.34766 9.91602C6.31543 9.93925 6.28906 9.9817 6.28906 10.0104C6.28906 10.039 6.27588 10.0625 6.25977 10.0625C6.24365 10.0625 6.23047 10.0889 6.23047 10.1211C6.23047 10.1533 6.21729 10.1797 6.20117 10.1797C6.18506 10.1797 6.17188 10.2061 6.17188 10.2383C6.17188 10.2705 6.15869 10.2969 6.14258 10.2969C6.12646 10.2969 6.11328 10.3203 6.11328 10.349C6.11328 10.3777 6.08691 10.4201 6.05469 10.4434C6.02246 10.4666 5.99609 10.509 5.99609 10.5377C5.99609 10.5664 5.98291 10.5898 5.9668 10.5898C5.95068 10.5898 5.9375 10.6294 5.9375 10.6777C5.9375 10.7261 5.92432 10.7656 5.9082 10.7656C5.89209 10.7656 5.87891 10.792 5.87891 10.8242C5.87891 10.8564 5.86572 10.8828 5.84961 10.8828C5.8335 10.8828 5.82031 10.9092 5.82031 10.9414C5.82031 10.9736 5.80713 11 5.79102 11C5.7749 11 5.76172 11.0264 5.76172 11.0586C5.76172 11.0908 5.74854 11.1172 5.73242 11.1172C5.71631 11.1172 5.70312 11.1567 5.70312 11.2051C5.70312 11.2534 5.68994 11.293 5.67383 11.293C5.65771 11.293 5.64453 11.3193 5.64453 11.3516C5.64453 11.3838 5.63135 11.4102 5.61523 11.4102C5.59912 11.4102 5.58594 11.4497 5.58594 11.498C5.58594 11.5464 5.57275 11.5859 5.55664 11.5859C5.54053 11.5859 5.52734 11.6255 5.52734 11.6738C5.52734 11.7222 5.51416 11.7617 5.49805 11.7617C5.48193 11.7617 5.46875 11.8013 5.46875 11.8496C5.46875 11.8979 5.45557 11.9375 5.43945 11.9375C5.42334 11.9375 5.41016 11.9771 5.41016 12.0254C5.41016 12.0737 5.39697 12.1133 5.38086 12.1133C5.36475 12.1133 5.35156 12.166 5.35156 12.2305C5.35156 12.2949 5.33838 12.3477 5.32227 12.3477C5.30615 12.3477 5.29297 12.4004 5.29297 12.4648C5.29297 12.5293 5.27979 12.582 5.26367 12.582C5.24756 12.582 5.23438 12.6348 5.23438 12.6992C5.23438 12.7637 5.22119 12.8164 5.20508 12.8164C5.18879 12.8164 5.17578 12.8945 5.17578 12.9922C5.17578 13.0898 5.16277 13.168 5.14648 13.168C5.1302 13.168 5.11719 13.2461 5.11719 13.3438C5.11719 13.4414 5.10418 13.5195 5.08789 13.5195C5.07031 13.5195 5.05859 13.6367 5.05859 13.8125C5.05859 13.9883 5.04688 14.1055 5.0293 14.1055C5.00981 14.1055 5 17.5234 5 24.3008C5 31.0781 5.00981 34.4961 5.0293 34.4961C5.04541 34.4961 5.05859 34.5225 5.05859 34.5547C5.05859 34.5869 5.07178 34.6133 5.08789 34.6133C5.104 34.6133 5.11719 34.6396 5.11719 34.6719C5.11719 34.7041 5.13037 34.7305 5.14648 34.7305C5.1626 34.7305 5.17578 34.7508 5.17578 34.7757C5.17578 34.8344 5.30627 34.9648 5.36489 34.9648C5.38979 34.9648 5.41016 34.978 5.41016 34.9941C5.41016 35.0103 5.43652 35.0234 5.46875 35.0234C5.50098 35.0234 5.52734 35.0366 5.52734 35.0527C5.52734 35.0688 5.55371 35.082 5.58594 35.082C5.61816 35.082 5.64453 35.0952 5.64453 35.1113C5.64453 35.1307 6.92384 35.1406 9.42383 35.1406C11.9238 35.1406 13.2031 35.1307 13.2031 35.1113C13.2031 35.0952 13.2295 35.082 13.2617 35.082C13.2939 35.082 13.3203 35.0688 13.3203 35.0527C13.3203 35.0366 13.3467 35.0234 13.3789 35.0234C13.4111 35.0234 13.4375 35.0103 13.4375 34.9941C13.4375 34.978 13.4579 34.9648 13.4828 34.9648C13.5414 34.9648 13.6719 34.8344 13.6719 34.7757C13.6719 34.7508 13.6851 34.7305 13.7012 34.7305C13.7173 34.7305 13.7305 34.7041 13.7305 34.6719C13.7305 34.6396 13.7437 34.6133 13.7598 34.6133C13.7759 34.6133 13.7891 34.5869 13.7891 34.5547C13.7891 34.5225 13.8022 34.4961 13.8184 34.4961C13.8378 34.4961 13.8477 31.1562 13.8477 24.5352C13.8477 17.9141 13.8575 14.5742 13.877 14.5742C13.8931 14.5742 13.9062 14.5479 13.9062 14.5156C13.9062 14.4834 13.9194 14.457 13.9355 14.457C13.9517 14.457 13.9648 14.4307 13.9648 14.3984C13.9648 14.3662 13.978 14.3398 13.9941 14.3398C14.0103 14.3398 14.0234 14.3191 14.0234 14.2938C14.0234 14.2373 14.0931 14.1641 14.1467 14.1641C14.1685 14.1641 14.2053 14.1377 14.2285 14.1055C14.2517 14.0732 14.2942 14.0469 14.3229 14.0469C14.3515 14.0469 14.375 14.0337 14.375 14.0176C14.375 14.0015 14.4014 13.9883 14.4336 13.9883C14.4658 13.9883 14.4922 13.9751 14.4922 13.959C14.4922 13.9419 14.5898 13.9297 14.7266 13.9297C14.8633 13.9297 14.9609 13.9419 14.9609 13.959C14.9609 13.9751 14.9873 13.9883 15.0195 13.9883C15.0518 13.9883 15.0781 14.0015 15.0781 14.0176C15.0781 14.0337 15.1045 14.0469 15.1367 14.0469C15.1689 14.0469 15.1953 14.0601 15.1953 14.0762C15.1953 14.0923 15.216 14.1055 15.2413 14.1055C15.2978 14.1055 15.3711 14.1751 15.3711 14.2288C15.3711 14.2505 15.3975 14.2873 15.4297 14.3105C15.4619 14.3338 15.4883 14.3762 15.4883 14.4049C15.4883 14.4336 15.5015 14.457 15.5176 14.457C15.5337 14.457 15.5469 14.4834 15.5469 14.5156C15.5469 14.5479 15.5601 14.5742 15.5762 14.5742C15.5956 14.5742 15.6055 16.5176 15.6055 20.3457C15.6055 24.1738 15.6153 26.1172 15.6348 26.1172C15.6523 26.1172 15.6641 26.2344 15.6641 26.4102C15.6641 26.5859 15.6758 26.7031 15.6934 26.7031C15.7101 26.7031 15.7227 26.791 15.7227 26.9082C15.7227 27.0254 15.7352 27.1133 15.752 27.1133C15.7681 27.1133 15.7812 27.1792 15.7812 27.2598C15.7812 27.3403 15.7944 27.4062 15.8105 27.4062C15.8267 27.4062 15.8398 27.459 15.8398 27.5234C15.8398 27.5879 15.853 27.6406 15.8691 27.6406C15.8853 27.6406 15.8984 27.6934 15.8984 27.7578C15.8984 27.8223 15.9116 27.875 15.9277 27.875C15.9438 27.875 15.957 27.9277 15.957 27.9922C15.957 28.0566 15.9702 28.1094 15.9863 28.1094C16.0024 28.1094 16.0156 28.1489 16.0156 28.1973C16.0156 28.2456 16.0288 28.2852 16.0449 28.2852C16.061 28.2852 16.0742 28.3247 16.0742 28.373C16.0742 28.4214 16.0874 28.4609 16.1035 28.4609C16.1196 28.4609 16.1328 28.5005 16.1328 28.5488C16.1328 28.5972 16.146 28.6367 16.1621 28.6367C16.1782 28.6367 16.1914 28.6763 16.1914 28.7246C16.1914 28.7729 16.2046 28.8125 16.2207 28.8125C16.2368 28.8125 16.25 28.8521 16.25 28.9004C16.25 28.9487 16.2632 28.9883 16.2793 28.9883C16.2954 28.9883 16.3086 29.0146 16.3086 29.0469C16.3086 29.0791 16.3218 29.1055 16.3379 29.1055C16.354 29.1055 16.3672 29.145 16.3672 29.1934C16.3672 29.2417 16.3804 29.2812 16.3965 29.2812C16.4126 29.2812 16.4258 29.3076 16.4258 29.3398C16.4258 29.3721 16.439 29.3984 16.4551 29.3984C16.4712 29.3984 16.4844 29.4248 16.4844 29.457C16.4844 29.4893 16.4976 29.5156 16.5137 29.5156C16.5298 29.5156 16.543 29.542 16.543 29.5742C16.543 29.6064 16.5562 29.6328 16.5723 29.6328C16.5884 29.6328 16.6016 29.6592 16.6016 29.6914C16.6016 29.7236 16.6147 29.75 16.6309 29.75C16.647 29.75 16.6602 29.7764 16.6602 29.8086C16.6602 29.8408 16.6733 29.8672 16.6895 29.8672C16.7056 29.8672 16.7188 29.8936 16.7188 29.9258C16.7188 29.958 16.7319 29.9844 16.748 29.9844C16.7642 29.9844 16.7773 30.0107 16.7773 30.043C16.7773 30.0752 16.7905 30.1016 16.8066 30.1016C16.8228 30.1016 16.8359 30.125 16.8359 30.1537C16.8359 30.1824 16.8623 30.2248 16.8945 30.248C16.9268 30.2713 16.9531 30.3137 16.9531 30.3424C16.9531 30.3711 16.9663 30.3945 16.9824 30.3945C16.9985 30.3945 17.0117 30.418 17.0117 30.4466C17.0117 30.4753 17.0381 30.5178 17.0703 30.541C17.1025 30.5642 17.1289 30.6038 17.1289 30.6289C17.1289 30.654 17.1553 30.6936 17.1875 30.7168C17.2197 30.74 17.2461 30.7796 17.2461 30.8047C17.2461 30.8298 17.2725 30.8693 17.3047 30.8926C17.3369 30.9158 17.3633 30.9554 17.3633 30.9805C17.3633 31.0056 17.3896 31.0451 17.4219 31.0684C17.4541 31.0916 17.4805 31.1288 17.4805 31.151C17.4805 31.1732 17.52 31.2283 17.5684 31.2734C17.6167 31.3186 17.6562 31.3709 17.6562 31.3896C17.6562 31.4084 17.7222 31.4879 17.8027 31.5664C17.8833 31.6449 17.9492 31.7232 17.9492 31.7405C17.9492 31.7817 19.0233 32.8555 19.0646 32.8555C19.0821 32.8555 19.1471 32.9082 19.209 32.9727C19.2709 33.0371 19.3371 33.0898 19.3561 33.0898C19.375 33.0898 19.4275 33.1294 19.4727 33.1777C19.5178 33.2261 19.5705 33.2656 19.5898 33.2656C19.6091 33.2656 19.6619 33.3052 19.707 33.3535C19.7522 33.4019 19.8073 33.4414 19.8295 33.4414C19.8517 33.4414 19.8889 33.4678 19.9121 33.5C19.9353 33.5322 19.9749 33.5586 20 33.5586C20.0251 33.5586 20.0647 33.585 20.0879 33.6172C20.1111 33.6494 20.1536 33.6758 20.1823 33.6758C20.2109 33.6758 20.2344 33.689 20.2344 33.7051C20.2344 33.7212 20.2578 33.7344 20.2865 33.7344C20.3152 33.7344 20.3576 33.7607 20.3809 33.793C20.4041 33.8252 20.4465 33.8516 20.4752 33.8516C20.5039 33.8516 20.5273 33.8647 20.5273 33.8809C20.5273 33.897 20.5537 33.9102 20.5859 33.9102C20.6182 33.9102 20.6445 33.9233 20.6445 33.9395C20.6445 33.9556 20.6709 33.9688 20.7031 33.9688C20.7354 33.9688 20.7617 33.9819 20.7617 33.998C20.7617 34.0142 20.7881 34.0273 20.8203 34.0273C20.8525 34.0273 20.8789 34.0405 20.8789 34.0566C20.8789 34.0728 20.9024 34.0859 20.931 34.0859C20.9597 34.0859 21.0022 34.1123 21.0254 34.1445C21.0502 34.1789 21.1012 34.2031 21.1491 34.2031C21.1938 34.2031 21.2305 34.2163 21.2305 34.2324C21.2305 34.2485 21.2568 34.2617 21.2891 34.2617C21.3213 34.2617 21.3477 34.2749 21.3477 34.291C21.3477 34.3071 21.374 34.3203 21.4062 34.3203C21.4385 34.3203 21.4648 34.3335 21.4648 34.3496C21.4648 34.3657 21.4912 34.3789 21.5234 34.3789C21.5557 34.3789 21.582 34.3921 21.582 34.4082C21.582 34.4243 21.6216 34.4375 21.6699 34.4375C21.7183 34.4375 21.7578 34.4507 21.7578 34.4668C21.7578 34.4829 21.7842 34.4961 21.8164 34.4961C21.8486 34.4961 21.875 34.5093 21.875 34.5254C21.875 34.5415 21.9146 34.5547 21.9629 34.5547C22.0112 34.5547 22.0508 34.5679 22.0508 34.584C22.0508 34.6001 22.0903 34.6133 22.1387 34.6133C22.187 34.6133 22.2266 34.6265 22.2266 34.6426C22.2266 34.6587 22.2661 34.6719 22.3145 34.6719C22.3628 34.6719 22.4023 34.6851 22.4023 34.7012C22.4023 34.7173 22.4419 34.7305 22.4902 34.7305C22.5386 34.7305 22.5781 34.7437 22.5781 34.7598C22.5781 34.7759 22.6309 34.7891 22.6953 34.7891C22.7598 34.7891 22.8125 34.8022 22.8125 34.8184C22.8125 34.8345 22.8652 34.8477 22.9297 34.8477C22.9941 34.8477 23.0469 34.8608 23.0469 34.877C23.0469 34.8931 23.0996 34.9062 23.1641 34.9062C23.2285 34.9062 23.2812 34.9194 23.2812 34.9355C23.2812 34.9518 23.3594 34.9648 23.457 34.9648C23.5547 34.9648 23.6328 34.9779 23.6328 34.9941C23.6328 35.0104 23.7109 35.0234 23.8086 35.0234C23.9062 35.0234 23.9844 35.0364 23.9844 35.0527C23.9844 35.0703 24.1016 35.082 24.2773 35.082C24.4531 35.082 24.5703 35.0938 24.5703 35.1113C24.5703 35.13 24.8242 35.1406 25.2734 35.1406C25.7226 35.1406 25.9766 35.13 25.9766 35.1113C25.9766 35.0938 26.0938 35.082 26.2695 35.082C26.4453 35.082 26.5625 35.0703 26.5625 35.0527C26.5625 35.0364 26.6406 35.0234 26.7383 35.0234C26.8359 35.0234 26.9141 35.0104 26.9141 34.9941C26.9141 34.9779 26.9922 34.9648 27.0898 34.9648C27.1875 34.9648 27.2656 34.9518 27.2656 34.9355C27.2656 34.9194 27.3184 34.9062 27.3828 34.9062C27.4473 34.9062 27.5 34.8931 27.5 34.877C27.5 34.8608 27.5527 34.8477 27.6172 34.8477C27.6816 34.8477 27.7344 34.8345 27.7344 34.8184C27.7344 34.8022 27.7871 34.7891 27.8516 34.7891C27.916 34.7891 27.9688 34.7759 27.9688 34.7598C27.9688 34.7437 28.0083 34.7305 28.0566 34.7305C28.105 34.7305 28.1445 34.7173 28.1445 34.7012C28.1445 34.6851 28.1841 34.6719 28.2324 34.6719C28.2808 34.6719 28.3203 34.6587 28.3203 34.6426C28.3203 34.6265 28.3599 34.6133 28.4082 34.6133C28.4565 34.6133 28.4961 34.6001 28.4961 34.584C28.4961 34.5679 28.5356 34.5547 28.584 34.5547C28.6323 34.5547 28.6719 34.5415 28.6719 34.5254C28.6719 34.5093 28.6982 34.4961 28.7305 34.4961C28.7627 34.4961 28.7891 34.4829 28.7891 34.4668C28.7891 34.4507 28.8286 34.4375 28.877 34.4375C28.9253 34.4375 28.9648 34.4243 28.9648 34.4082C28.9648 34.3921 28.9912 34.3789 29.0234 34.3789C29.0557 34.3789 29.082 34.3657 29.082 34.3496C29.082 34.3335 29.1084 34.3203 29.1406 34.3203C29.1729 34.3203 29.1992 34.3071 29.1992 34.291C29.1992 34.2749 29.2388 34.2617 29.2871 34.2617C29.3354 34.2617 29.375 34.2485 29.375 34.2324C29.375 34.2163 29.4014 34.2031 29.4336 34.2031C29.4658 34.2031 29.4922 34.1899 29.4922 34.1738C29.4922 34.1577 29.5186 34.1445 29.5508 34.1445C29.583 34.1445 29.6094 34.1313 29.6094 34.1152C29.6094 34.0991 29.6357 34.0859 29.668 34.0859C29.7002 34.0859 29.7266 34.0728 29.7266 34.0566C29.7266 34.0405 29.75 34.0273 29.7787 34.0273C29.8074 34.0273 29.8498 34.001 29.873 33.9688C29.8963 33.9365 29.9387 33.9102 29.9674 33.9102C29.9961 33.9102 30.0195 33.897 30.0195 33.8809C30.0195 33.8647 30.0459 33.8516 30.0781 33.8516C30.1104 33.8516 30.1367 33.8384 30.1367 33.8223C30.1367 33.8062 30.1602 33.793 30.1888 33.793C30.2175 33.793 30.26 33.7666 30.2832 33.7344C30.3064 33.7021 30.346 33.6758 30.3711 33.6758C30.3962 33.6758 30.4358 33.6494 30.459 33.6172C30.4822 33.585 30.5247 33.5586 30.5534 33.5586C30.582 33.5586 30.6055 33.5454 30.6055 33.5293C30.6055 33.5132 30.6265 33.5 30.6523 33.5C30.6781 33.5 30.7361 33.4604 30.7812 33.4121C30.8264 33.3638 30.8791 33.3242 30.8984 33.3242C30.9177 33.3242 30.9705 33.2847 31.0156 33.2363C31.0608 33.188 31.1135 33.1484 31.1328 33.1484C31.1521 33.1484 31.2049 33.1089 31.25 33.0605C31.2951 33.0122 31.3473 32.9727 31.3659 32.9727C31.3845 32.9727 31.4774 32.8936 31.5723 32.7969C31.6672 32.7002 31.7589 32.6211 31.776 32.6211C31.8168 32.6211 32.4805 31.9574 32.4805 31.9167C32.4805 31.8995 32.5596 31.8078 32.6562 31.7129C32.7529 31.618 32.832 31.5251 32.832 31.5066C32.832 31.4879 32.8716 31.4358 32.9199 31.3906C32.9683 31.3455 33.0078 31.2927 33.0078 31.2734C33.0078 31.2541 33.0474 31.2014 33.0957 31.1562C33.144 31.1111 33.1836 31.0584 33.1836 31.0391C33.1836 31.0198 33.2231 30.967 33.2715 30.9219C33.3198 30.8767 33.3594 30.8187 33.3594 30.7929C33.3594 30.7672 33.3726 30.7461 33.3887 30.7461C33.4048 30.7461 33.418 30.7226 33.418 30.694C33.418 30.6653 33.4443 30.6228 33.4766 30.5996C33.5088 30.5764 33.5352 30.5368 33.5352 30.5117C33.5352 30.4866 33.5615 30.4471 33.5938 30.4238C33.626 30.4006 33.6523 30.3581 33.6523 30.3295C33.6523 30.3008 33.6655 30.2773 33.6816 30.2773C33.6978 30.2773 33.7109 30.251 33.7109 30.2188C33.7109 30.1865 33.7241 30.1602 33.7402 30.1602C33.7563 30.1602 33.7695 30.1367 33.7695 30.108C33.7695 30.0794 33.7959 30.0369 33.8281 30.0137C33.8604 29.9904 33.8867 29.948 33.8867 29.9193C33.8867 29.8907 33.8999 29.8672 33.916 29.8672C33.9321 29.8672 33.9453 29.8408 33.9453 29.8086C33.9453 29.7764 33.9585 29.75 33.9746 29.75C33.9907 29.75 34.0039 29.7236 34.0039 29.6914C34.0039 29.6592 34.0171 29.6328 34.0332 29.6328C34.0493 29.6328 34.0625 29.6064 34.0625 29.5742C34.0625 29.542 34.0757 29.5156 34.0918 29.5156C34.1079 29.5156 34.1211 29.4761 34.1211 29.4277C34.1211 29.3794 34.1343 29.3398 34.1504 29.3398C34.1665 29.3398 34.1797 29.3135 34.1797 29.2812C34.1797 29.249 34.1929 29.2227 34.209 29.2227C34.2251 29.2227 34.2383 29.1963 34.2383 29.1641C34.2383 29.1318 34.2515 29.1055 34.2676 29.1055C34.2837 29.1055 34.2969 29.0659 34.2969 29.0176C34.2969 28.9692 34.3101 28.9297 34.3262 28.9297C34.3423 28.9297 34.3555 28.9033 34.3555 28.8711C34.3555 28.8389 34.3687 28.8125 34.3848 28.8125C34.4009 28.8125 34.4141 28.7729 34.4141 28.7246C34.4141 28.6763 34.4272 28.6367 34.4434 28.6367C34.4595 28.6367 34.4727 28.5972 34.4727 28.5488C34.4727 28.5005 34.4858 28.4609 34.502 28.4609C34.5181 28.4609 34.5312 28.4214 34.5312 28.373C34.5312 28.3247 34.5444 28.2852 34.5605 28.2852C34.5767 28.2852 34.5898 28.2456 34.5898 28.1973C34.5898 28.1489 34.603 28.1094 34.6191 28.1094C34.6353 28.1094 34.6484 28.0566 34.6484 27.9922C34.6484 27.9277 34.6616 27.875 34.6777 27.875C34.6938 27.875 34.707 27.8223 34.707 27.7578C34.707 27.6934 34.7202 27.6406 34.7363 27.6406C34.7524 27.6406 34.7656 27.5879 34.7656 27.5234C34.7656 27.459 34.7788 27.4062 34.7949 27.4062C34.8112 27.4062 34.8242 27.3281 34.8242 27.2305C34.8242 27.1328 34.8372 27.0547 34.8535 27.0547C34.8698 27.0547 34.8828 26.9766 34.8828 26.8789C34.8828 26.7813 34.8958 26.7031 34.9121 26.7031C34.9297 26.7031 34.9414 26.5859 34.9414 26.4102C34.9414 26.2344 34.9531 26.1172 34.9707 26.1172C34.9902 26.1172 35 22.709 35 15.9512C35 9.19335 34.9902 5.78516 34.9707 5.78516C34.9546 5.78516 34.9414 5.75879 34.9414 5.72656C34.9414 5.69434 34.9282 5.66797 34.9121 5.66797C34.896 5.66797 34.8828 5.6416 34.8828 5.60938C34.8828 5.57715 34.8696 5.55078 34.8535 5.55078C34.8374 5.55078 34.8242 5.53042 34.8242 5.50552C34.8242 5.44689 34.6937 5.31641 34.6351 5.31641C34.6102 5.31641 34.5898 5.30322 34.5898 5.28711C34.5898 5.271 34.5635 5.25781 34.5312 5.25781C34.499 5.25781 34.4727 5.24463 34.4727 5.22852C34.4727 5.2124 34.4463 5.19922 34.4141 5.19922C34.3818 5.19922 34.3555 5.18604 34.3555 5.16992C34.3555 5.15056 33.0762 5.14062 30.5762 5.14062C28.0762 5.14062 26.7969 5.15056 26.7969 5.16992C26.7969 5.18604 26.7705 5.19922 26.7383 5.19922C26.7061 5.19922 26.6797 5.2124 26.6797 5.22852C26.6797 5.24463 26.6533 5.25781 26.6211 5.25781C26.5889 5.25781 26.5625 5.271 26.5625 5.28711C26.5625 5.30322 26.5421 5.31641 26.5172 5.31641C26.4586 5.31641 26.3281 5.44689 26.3281 5.50552C26.3281 5.53042 26.3149 5.55078 26.2988 5.55078C26.2827 5.55078 26.2695 5.57715 26.2695 5.60938C26.2695 5.6416 26.2563 5.66797 26.2402 5.66797C26.2241 5.66797 26.2109 5.69434 26.2109 5.72656C26.2109 5.75879 26.1978 5.78516 26.1816 5.78516C26.1622 5.78516 26.1523 9.11524 26.1523 15.7168C26.1523 22.3183 26.1425 25.6484 26.123 25.6484C26.1069 25.6484 26.0938 25.6748 26.0938 25.707C26.0938 25.7393 26.0806 25.7656 26.0645 25.7656C26.0483 25.7656 26.0352 25.792 26.0352 25.8242C26.0352 25.8564 26.022 25.8828 26.0059 25.8828C25.9897 25.8828 25.9766 25.9032 25.9766 25.9281C25.9766 25.9867 25.8461 26.1172 25.7875 26.1172C25.7625 26.1172 25.7422 26.1304 25.7422 26.1465C25.7422 26.1626 25.7158 26.1758 25.6836 26.1758C25.6514 26.1758 25.625 26.189 25.625 26.2051C25.625 26.2212 25.5986 26.2344 25.5664 26.2344C25.5342 26.2344 25.5078 26.2476 25.5078 26.2637C25.5078 26.2808 25.4102 26.293 25.2734 26.293C25.1367 26.293 25.0391 26.2808 25.0391 26.2637C25.0391 26.2476 25.0127 26.2344 24.9805 26.2344C24.9482 26.2344 24.9219 26.2212 24.9219 26.2051C24.9219 26.189 24.8984 26.1758 24.8698 26.1758C24.8411 26.1758 24.7986 26.1494 24.7754 26.1172C24.7522 26.085 24.7097 26.0586 24.681 26.0586C24.6506 26.0586 24.6289 26.0369 24.6289 26.0065C24.6289 25.9778 24.6025 25.9353 24.5703 25.9121C24.5381 25.8889 24.5117 25.8464 24.5117 25.8177C24.5117 25.7891 24.4985 25.7656 24.4824 25.7656C24.4663 25.7656 24.4531 25.7393 24.4531 25.707C24.4531 25.6748 24.4399 25.6484 24.4238 25.6484C24.4044 25.6484 24.3945 23.7051 24.3945 19.877C24.3945 16.0488 24.3847 14.1055 24.3652 14.1055C24.3477 14.1055 24.3359 13.9883 24.3359 13.8125C24.3359 13.6367 24.3242 13.5195 24.3066 13.5195C24.2904 13.5195 24.2773 13.4414 24.2773 13.3438C24.2773 13.2461 24.2643 13.168 24.248 13.168C24.2318 13.168 24.2188 13.0898 24.2188 12.9922C24.2188 12.8945 24.2057 12.8164 24.1895 12.8164C24.1733 12.8164 24.1602 12.7637 24.1602 12.6992C24.1602 12.6348 24.147 12.582 24.1309 12.582C24.1147 12.582 24.1016 12.5293 24.1016 12.4648C24.1016 12.4004 24.0884 12.3477 24.0723 12.3477C24.0562 12.3477 24.043 12.2949 24.043 12.2305C24.043 12.166 24.0298 12.1133 24.0137 12.1133C23.9976 12.1133 23.9844 12.0737 23.9844 12.0254C23.9844 11.9771 23.9712 11.9375 23.9551 11.9375C23.939 11.9375 23.9258 11.8979 23.9258 11.8496C23.9258 11.8013 23.9126 11.7617 23.8965 11.7617C23.8804 11.7617 23.8672 11.7222 23.8672 11.6738C23.8672 11.6255 23.854 11.5859 23.8379 11.5859C23.8218 11.5859 23.8086 11.5464 23.8086 11.498C23.8086 11.4497 23.7954 11.4102 23.7793 11.4102C23.7632 11.4102 23.75 11.3838 23.75 11.3516C23.75 11.3193 23.7368 11.293 23.7207 11.293C23.7046 11.293 23.6914 11.2534 23.6914 11.2051C23.6914 11.1567 23.6782 11.1172 23.6621 11.1172C23.646 11.1172 23.6328 11.0908 23.6328 11.0586C23.6328 11.0264 23.6196 11 23.6035 11C23.5874 11 23.5742 10.9604 23.5742 10.9121C23.5742 10.8638 23.561 10.8242 23.5449 10.8242C23.5288 10.8242 23.5156 10.7979 23.5156 10.7656C23.5156 10.7334 23.5024 10.707 23.4863 10.707C23.4702 10.707 23.457 10.6807 23.457 10.6484C23.457 10.6162 23.4438 10.5898 23.4277 10.5898C23.4116 10.5898 23.3984 10.5635 23.3984 10.5312C23.3984 10.499 23.3853 10.4727 23.3691 10.4727C23.353 10.4727 23.3398 10.4463 23.3398 10.4141C23.3398 10.3818 23.3267 10.3555 23.3105 10.3555C23.2944 10.3555 23.2812 10.3291 23.2812 10.2969C23.2812 10.2646 23.2681 10.2383 23.252 10.2383C23.2358 10.2383 23.2227 10.2148 23.2227 10.1862C23.2227 10.1575 23.1963 10.115 23.1641 10.0918C23.1318 10.0686 23.1055 10.0261 23.1055 9.99743C23.1055 9.96878 23.0923 9.94531 23.0762 9.94531C23.0601 9.94531 23.0469 9.92185 23.0469 9.89319C23.0469 9.86451 23.0205 9.82206 22.9883 9.79883C22.9561 9.7756 22.9297 9.73314 22.9297 9.70446C22.9297 9.67581 22.9165 9.65234 22.9004 9.65234C22.8843 9.65234 22.8711 9.62888 22.8711 9.60022C22.8711 9.57154 22.8447 9.52909 22.8125 9.50586C22.7803 9.48263 22.7539 9.44545 22.7539 9.42324C22.7539 9.40106 22.7144 9.34593 22.666 9.30078C22.6177 9.25563 22.5781 9.2005 22.5781 9.17832C22.5781 9.15611 22.5518 9.11894 22.5195 9.0957C22.4873 9.07247 22.4609 9.03559 22.4609 9.0137C22.4609 8.99182 22.4082 8.92326 22.3438 8.86133C22.2793 8.79939 22.2266 8.7338 22.2266 8.71552C22.2266 8.69724 22.1475 8.60466 22.0508 8.50977C21.9541 8.41487 21.875 8.32314 21.875 8.30595C21.875 8.26522 21.3287 7.71875 21.288 7.71875C21.2709 7.71875 21.1659 7.62646 21.0547 7.51367C20.9434 7.40088 20.8376 7.30859 20.8194 7.30859C20.8013 7.30859 20.7358 7.25586 20.6738 7.19141C20.6119 7.12695 20.5433 7.07422 20.5215 7.07422C20.4996 7.07422 20.4627 7.04785 20.4395 7.01562C20.4162 6.9834 20.379 6.95703 20.3568 6.95703C20.3347 6.95703 20.2795 6.91748 20.2344 6.86914C20.1892 6.8208 20.1341 6.78125 20.1119 6.78125C20.0897 6.78125 20.0525 6.75488 20.0293 6.72266C20.0061 6.69043 19.9636 6.66406 19.9349 6.66406C19.9063 6.66406 19.8828 6.65088 19.8828 6.63477C19.8828 6.61865 19.8593 6.60547 19.8307 6.60547C19.802 6.60547 19.7596 6.5791 19.7363 6.54688C19.7131 6.51465 19.6706 6.48828 19.642 6.48828C19.6133 6.48828 19.5898 6.4751 19.5898 6.45898C19.5898 6.44287 19.5664 6.42969 19.5377 6.42969C19.509 6.42969 19.4666 6.40332 19.4434 6.37109C19.4201 6.33887 19.3777 6.3125 19.349 6.3125C19.3203 6.3125 19.2969 6.29932 19.2969 6.2832C19.2969 6.26709 19.2705 6.25391 19.2383 6.25391C19.2061 6.25391 19.1797 6.24072 19.1797 6.22461C19.1797 6.2085 19.1533 6.19531 19.1211 6.19531C19.0889 6.19531 19.0625 6.18213 19.0625 6.16602C19.0625 6.1499 19.0361 6.13672 19.0039 6.13672C18.9717 6.13672 18.9453 6.12354 18.9453 6.10742C18.9453 6.09131 18.9189 6.07812 18.8867 6.07812C18.8545 6.07812 18.8281 6.06494 18.8281 6.04883C18.8281 6.03271 18.8018 6.01953 18.7695 6.01953C18.7373 6.01953 18.7109 6.00635 18.7109 5.99023C18.7109 5.97412 18.6714 5.96094 18.623 5.96094C18.5747 5.96094 18.5352 5.94775 18.5352 5.93164C18.5352 5.91553 18.5088 5.90234 18.4766 5.90234C18.4443 5.90234 18.418 5.88916 18.418 5.87305C18.418 5.85693 18.3784 5.84375 18.3301 5.84375C18.2817 5.84375 18.2422 5.83057 18.2422 5.81445C18.2422 5.79834 18.2158 5.78516 18.1836 5.78516C18.1514 5.78516 18.125 5.77197 18.125 5.75586C18.125 5.73975 18.0854 5.72656 18.0371 5.72656C17.9888 5.72656 17.9492 5.71338 17.9492 5.69727C17.9492 5.68115 17.9097 5.66797 17.8613 5.66797C17.813 5.66797 17.7734 5.65479 17.7734 5.63867C17.7734 5.62256 17.7339 5.60938 17.6855 5.60938C17.6372 5.60938 17.5977 5.59619 17.5977 5.58008C17.5977 5.56396 17.5581 5.55078 17.5098 5.55078C17.4614 5.55078 17.4219 5.5376 17.4219 5.52148C17.4219 5.50537 17.3691 5.49219 17.3047 5.49219C17.2402 5.49219 17.1875 5.479 17.1875 5.46289C17.1875 5.44678 17.1348 5.43359 17.0703 5.43359C17.0059 5.43359 16.9531 5.42041 16.9531 5.4043C16.9531 5.38818 16.9004 5.375 16.8359 5.375C16.7715 5.375 16.7188 5.36182 16.7188 5.3457C16.7188 5.32941 16.6406 5.31641 16.543 5.31641C16.4453 5.31641 16.3672 5.3034 16.3672 5.28711C16.3672 5.27082 16.2891 5.25781 16.1914 5.25781C16.0938 5.25781 16.0156 5.2448 16.0156 5.22852C16.0156 5.21094 15.8984 5.19922 15.7227 5.19922C15.5469 5.19922 15.4297 5.1875 15.4297 5.16992C15.4297 5.1512 15.1758 5.14062 14.7266 5.14062C14.2774 5.14062 14.0234 5.1512 14.0234 5.16992ZM15.3711 6.92773C15.3711 6.94511 15.4785 6.95703 15.6348 6.95703C15.791 6.95703 15.8984 6.96896 15.8984 6.98633C15.8984 7.00262 15.9766 7.01562 16.0742 7.01562C16.1719 7.01562 16.25 7.02863 16.25 7.04492C16.25 7.06104 16.3159 7.07422 16.3965 7.07422C16.4771 7.07422 16.543 7.0874 16.543 7.10352C16.543 7.11963 16.5825 7.13281 16.6309 7.13281C16.6792 7.13281 16.7188 7.146 16.7188 7.16211C16.7188 7.17822 16.7715 7.19141 16.8359 7.19141C16.9004 7.19141 16.9531 7.20459 16.9531 7.2207C16.9531 7.23682 16.9927 7.25 17.041 7.25C17.0894 7.25 17.1289 7.26318 17.1289 7.2793C17.1289 7.29541 17.1685 7.30859 17.2168 7.30859C17.2651 7.30859 17.3047 7.32178 17.3047 7.33789C17.3047 7.354 17.3442 7.36719 17.3926 7.36719C17.4409 7.36719 17.4805 7.38037 17.4805 7.39648C17.4805 7.4126 17.52 7.42578 17.5684 7.42578C17.6167 7.42578 17.6562 7.43896 17.6562 7.45508C17.6562 7.47119 17.6826 7.48438 17.7148 7.48438C17.7471 7.48438 17.7734 7.49756 17.7734 7.51367C17.7734 7.52979 17.7998 7.54297 17.832 7.54297C17.8643 7.54297 17.8906 7.55615 17.8906 7.57227C17.8906 7.58838 17.9302 7.60156 17.9785 7.60156C18.0269 7.60156 18.0664 7.61475 18.0664 7.63086C18.0664 7.64697 18.0928 7.66016 18.125 7.66016C18.1572 7.66016 18.1836 7.67334 18.1836 7.68945C18.1836 7.70557 18.21 7.71875 18.2422 7.71875C18.2744 7.71875 18.3008 7.73193 18.3008 7.74805C18.3008 7.76416 18.3271 7.77734 18.3594 7.77734C18.3916 7.77734 18.418 7.79053 18.418 7.80664C18.418 7.82275 18.4414 7.83594 18.4701 7.83594C18.4988 7.83594 18.5412 7.8623 18.5645 7.89453C18.5877 7.92676 18.6301 7.95312 18.6588 7.95312C18.6875 7.95312 18.7109 7.96631 18.7109 7.98242C18.7109 7.99854 18.7344 8.01172 18.7631 8.01172C18.7917 8.01172 18.8342 8.03809 18.8574 8.07031C18.8807 8.10254 18.9231 8.12891 18.9518 8.12891C18.9804 8.12891 19.0039 8.14209 19.0039 8.1582C19.0039 8.17432 19.025 8.1875 19.0508 8.1875C19.0765 8.1875 19.1345 8.22705 19.1797 8.27539C19.2248 8.32373 19.28 8.36328 19.3021 8.36328C19.3244 8.36328 19.3615 8.38965 19.3848 8.42188C19.408 8.4541 19.4449 8.48047 19.4668 8.48047C19.4887 8.48047 19.5572 8.5332 19.6191 8.59766C19.6811 8.66211 19.7461 8.71484 19.7635 8.71484C19.8051 8.71484 20.8203 9.73007 20.8203 9.77161C20.8203 9.7891 20.873 9.85408 20.9375 9.91602C21.002 9.97795 21.0547 10.0465 21.0547 10.0684C21.0547 10.0903 21.0811 10.1272 21.1133 10.1504C21.1455 10.1736 21.1719 10.2132 21.1719 10.2383C21.1719 10.2634 21.1982 10.3029 21.2305 10.3262C21.2627 10.3494 21.2891 10.389 21.2891 10.4141C21.2891 10.4392 21.3154 10.4787 21.3477 10.502C21.3799 10.5252 21.4062 10.5647 21.4062 10.5898C21.4062 10.615 21.4326 10.6545 21.4648 10.6777C21.4971 10.701 21.5234 10.7434 21.5234 10.7721C21.5234 10.8008 21.5366 10.8242 21.5527 10.8242C21.5688 10.8242 21.582 10.8477 21.582 10.8763C21.582 10.905 21.6084 10.9475 21.6406 10.9707C21.6729 10.9939 21.6992 11.0364 21.6992 11.0651C21.6992 11.0937 21.7124 11.1172 21.7285 11.1172C21.7446 11.1172 21.7578 11.1436 21.7578 11.1758C21.7578 11.208 21.771 11.2344 21.7871 11.2344C21.8032 11.2344 21.8164 11.2607 21.8164 11.293C21.8164 11.3252 21.8296 11.3516 21.8457 11.3516C21.8618 11.3516 21.875 11.3779 21.875 11.4102C21.875 11.4424 21.8882 11.4688 21.9043 11.4688C21.9204 11.4688 21.9336 11.5083 21.9336 11.5566C21.9336 11.605 21.9468 11.6445 21.9629 11.6445C21.979 11.6445 21.9922 11.6709 21.9922 11.7031C21.9922 11.7354 22.0054 11.7617 22.0215 11.7617C22.0376 11.7617 22.0508 11.7881 22.0508 11.8203C22.0508 11.8525 22.064 11.8789 22.0801 11.8789C22.0962 11.8789 22.1094 11.9185 22.1094 11.9668C22.1094 12.0151 22.1226 12.0547 22.1387 12.0547C22.1548 12.0547 22.168 12.0942 22.168 12.1426C22.168 12.1909 22.1812 12.2305 22.1973 12.2305C22.2134 12.2305 22.2266 12.27 22.2266 12.3184C22.2266 12.3667 22.2397 12.4062 22.2559 12.4062C22.272 12.4062 22.2852 12.4458 22.2852 12.4941C22.2852 12.5425 22.2983 12.582 22.3145 12.582C22.3306 12.582 22.3438 12.6348 22.3438 12.6992C22.3438 12.7637 22.3569 12.8164 22.373 12.8164C22.3892 12.8164 22.4023 12.8691 22.4023 12.9336C22.4023 12.998 22.4155 13.0508 22.4316 13.0508C22.4478 13.0508 22.4609 13.1035 22.4609 13.168C22.4609 13.2324 22.4741 13.2852 22.4902 13.2852C22.5065 13.2852 22.5195 13.3633 22.5195 13.4609C22.5195 13.5586 22.5325 13.6367 22.5488 13.6367C22.5662 13.6367 22.5781 13.7442 22.5781 13.9004C22.5781 14.0566 22.59 14.1641 22.6074 14.1641C22.6268 14.1641 22.6367 16.1172 22.6367 19.9648C22.6367 23.8125 22.6466 25.7656 22.666 25.7656C22.6821 25.7656 22.6953 25.8315 22.6953 25.9121C22.6953 25.9927 22.7085 26.0586 22.7246 26.0586C22.7407 26.0586 22.7539 26.1113 22.7539 26.1758C22.7539 26.2402 22.7671 26.293 22.7832 26.293C22.7993 26.293 22.8125 26.3193 22.8125 26.3516C22.8125 26.3838 22.8257 26.4102 22.8418 26.4102C22.8579 26.4102 22.8711 26.4365 22.8711 26.4688C22.8711 26.501 22.8843 26.5273 22.9004 26.5273C22.9165 26.5273 22.9297 26.564 22.9297 26.6088C22.9297 26.6566 22.9539 26.7076 22.9883 26.7324C23.0205 26.7557 23.0469 26.7952 23.0469 26.8203C23.0469 26.8454 23.0732 26.885 23.1055 26.9082C23.1377 26.9314 23.1641 26.9675 23.1641 26.9883C23.1641 27.0378 23.6497 27.5234 23.6992 27.5234C23.72 27.5234 23.7561 27.5498 23.7793 27.582C23.8025 27.6143 23.8421 27.6406 23.8672 27.6406C23.8923 27.6406 23.9318 27.667 23.9551 27.6992C23.9799 27.7336 24.0309 27.7578 24.0787 27.7578C24.1235 27.7578 24.1602 27.771 24.1602 27.7871C24.1602 27.8032 24.1865 27.8164 24.2188 27.8164C24.251 27.8164 24.2773 27.8296 24.2773 27.8457C24.2773 27.8618 24.3037 27.875 24.3359 27.875C24.3682 27.875 24.3945 27.8882 24.3945 27.9043C24.3945 27.9204 24.4473 27.9336 24.5117 27.9336C24.5762 27.9336 24.6289 27.9468 24.6289 27.9629C24.6289 27.979 24.6948 27.9922 24.7754 27.9922C24.856 27.9922 24.9219 28.0054 24.9219 28.0215C24.9219 28.0394 25.0586 28.0508 25.2734 28.0508C25.4883 28.0508 25.625 28.0394 25.625 28.0215C25.625 28.0054 25.6909 27.9922 25.7715 27.9922C25.8521 27.9922 25.918 27.979 25.918 27.9629C25.918 27.9468 25.9707 27.9336 26.0352 27.9336C26.0996 27.9336 26.1523 27.9204 26.1523 27.9043C26.1523 27.8882 26.1787 27.875 26.2109 27.875C26.2432 27.875 26.2695 27.8618 26.2695 27.8457C26.2695 27.8296 26.2959 27.8164 26.3281 27.8164C26.3604 27.8164 26.3867 27.8032 26.3867 27.7871C26.3867 27.771 26.4131 27.7578 26.4453 27.7578C26.4775 27.7578 26.5039 27.7446 26.5039 27.7285C26.5039 27.7124 26.5303 27.6992 26.5625 27.6992C26.5947 27.6992 26.6211 27.686 26.6211 27.6699C26.6211 27.6538 26.6446 27.6406 26.6732 27.6406C26.7019 27.6406 26.7443 27.6143 26.7676 27.582C26.7908 27.5498 26.8269 27.5234 26.8477 27.5234C26.8971 27.5234 27.3828 27.0378 27.3828 26.9883C27.3828 26.9675 27.4092 26.9314 27.4414 26.9082C27.4736 26.885 27.5 26.8425 27.5 26.8138C27.5 26.7852 27.5132 26.7617 27.5293 26.7617C27.5454 26.7617 27.5586 26.7354 27.5586 26.7031C27.5586 26.6709 27.5718 26.6445 27.5879 26.6445C27.604 26.6445 27.6172 26.6182 27.6172 26.5859C27.6172 26.5537 27.6304 26.5273 27.6465 26.5273C27.6626 26.5273 27.6758 26.501 27.6758 26.4688C27.6758 26.4365 27.689 26.4102 27.7051 26.4102C27.7212 26.4102 27.7344 26.3838 27.7344 26.3516C27.7344 26.3193 27.7476 26.293 27.7637 26.293C27.7798 26.293 27.793 26.2402 27.793 26.1758C27.793 26.1113 27.8062 26.0586 27.8223 26.0586C27.8384 26.0586 27.8516 25.9927 27.8516 25.9121C27.8516 25.8315 27.8647 25.7656 27.8809 25.7656C27.9003 25.7656 27.9102 22.6016 27.9102 16.332V6.89844H28.7891H29.668V9.21289C29.668 10.7363 29.678 11.5273 29.6973 11.5273C29.7134 11.5273 29.7266 11.5537 29.7266 11.5859C29.7266 11.6182 29.7397 11.6445 29.7559 11.6445C29.772 11.6445 29.7852 11.6709 29.7852 11.7031C29.7852 11.7354 29.7983 11.7617 29.8145 11.7617C29.8306 11.7617 29.8438 11.7821 29.8438 11.807C29.8438 11.8656 29.9742 11.9961 30.0329 11.9961C30.0578 11.9961 30.0781 12.0093 30.0781 12.0254C30.0781 12.0415 30.1045 12.0547 30.1367 12.0547C30.1689 12.0547 30.1953 12.0679 30.1953 12.084C30.1953 12.1001 30.2217 12.1133 30.2539 12.1133C30.2861 12.1133 30.3125 12.1265 30.3125 12.1426C30.3125 12.1597 30.4101 12.1719 30.5469 12.1719C30.6836 12.1719 30.7812 12.1597 30.7812 12.1426C30.7812 12.1265 30.8076 12.1133 30.8398 12.1133C30.8721 12.1133 30.8984 12.1001 30.8984 12.084C30.8984 12.0679 30.9248 12.0547 30.957 12.0547C30.9893 12.0547 31.0156 12.0415 31.0156 12.0254C31.0156 12.0093 31.036 11.9961 31.0609 11.9961C31.1195 11.9961 31.25 11.8656 31.25 11.807C31.25 11.7821 31.2632 11.7617 31.2793 11.7617C31.2954 11.7617 31.3086 11.7354 31.3086 11.7031C31.3086 11.6709 31.3218 11.6445 31.3379 11.6445C31.354 11.6445 31.3672 11.6182 31.3672 11.5859C31.3672 11.5537 31.3804 11.5273 31.3965 11.5273C31.4158 11.5273 31.4258 10.7363 31.4258 9.21289V6.89844H32.334H33.2422V16.4785C33.2422 22.8457 33.2324 26.0586 33.2129 26.0586C33.1955 26.0586 33.1836 26.166 33.1836 26.3223C33.1836 26.4785 33.1717 26.5859 33.1543 26.5859C33.138 26.5859 33.125 26.6641 33.125 26.7617C33.125 26.8594 33.112 26.9375 33.0957 26.9375C33.0796 26.9375 33.0664 26.9902 33.0664 27.0547C33.0664 27.1191 33.0532 27.1719 33.0371 27.1719C33.021 27.1719 33.0078 27.2378 33.0078 27.3184C33.0078 27.3989 32.9946 27.4648 32.9785 27.4648C32.9624 27.4648 32.9492 27.5044 32.9492 27.5527C32.9492 27.6011 32.936 27.6406 32.9199 27.6406C32.9038 27.6406 32.8906 27.6802 32.8906 27.7285C32.8906 27.7769 32.8774 27.8164 32.8613 27.8164C32.8452 27.8164 32.832 27.856 32.832 27.9043C32.832 27.9526 32.8188 27.9922 32.8027 27.9922C32.7866 27.9922 32.7734 28.0317 32.7734 28.0801C32.7734 28.1284 32.7603 28.168 32.7441 28.168C32.728 28.168 32.7148 28.2075 32.7148 28.2559C32.7148 28.3042 32.7017 28.3438 32.6855 28.3438C32.6694 28.3438 32.6562 28.3701 32.6562 28.4023C32.6562 28.4346 32.6431 28.4609 32.627 28.4609C32.6108 28.4609 32.5977 28.5005 32.5977 28.5488C32.5977 28.5972 32.5845 28.6367 32.5684 28.6367C32.5522 28.6367 32.5391 28.6631 32.5391 28.6953C32.5391 28.7275 32.5259 28.7539 32.5098 28.7539C32.4937 28.7539 32.4805 28.7803 32.4805 28.8125C32.4805 28.8447 32.4673 28.8711 32.4512 28.8711C32.4351 28.8711 32.4219 28.8975 32.4219 28.9297C32.4219 28.9619 32.4087 28.9883 32.3926 28.9883C32.3765 28.9883 32.3633 29.0146 32.3633 29.0469C32.3633 29.0791 32.3501 29.1055 32.334 29.1055C32.3179 29.1055 32.3047 29.1318 32.3047 29.1641C32.3047 29.1963 32.2915 29.2227 32.2754 29.2227C32.2593 29.2227 32.2461 29.2461 32.2461 29.2748C32.2461 29.3035 32.2197 29.3459 32.1875 29.3691C32.1553 29.3924 32.1289 29.4348 32.1289 29.4635C32.1289 29.4922 32.1157 29.5156 32.0996 29.5156C32.0835 29.5156 32.0703 29.5391 32.0703 29.5677C32.0703 29.5964 32.0439 29.6389 32.0117 29.6621C31.9795 29.6853 31.9531 29.7249 31.9531 29.75C31.9531 29.7751 31.9268 29.8147 31.8945 29.8379C31.8623 29.8611 31.8359 29.8983 31.8359 29.9205C31.8359 29.9427 31.7964 29.9978 31.748 30.043C31.6997 30.0881 31.6602 30.1409 31.6602 30.1602C31.6602 30.1795 31.6206 30.2322 31.5723 30.2773C31.5239 30.3225 31.4844 30.3748 31.4844 30.3935C31.4844 30.4123 31.4185 30.4918 31.3379 30.5703C31.2573 30.6488 31.1914 30.7272 31.1914 30.7446C31.1914 30.7619 31.0663 30.9012 30.9135 31.0541C30.7606 31.207 30.6213 31.332 30.6039 31.332C30.5866 31.332 30.5082 31.3979 30.4297 31.4785C30.3512 31.5591 30.2719 31.625 30.2535 31.625C30.2351 31.625 30.1694 31.6777 30.1074 31.7422C30.0455 31.8066 29.9769 31.8594 29.955 31.8594C29.9332 31.8594 29.8963 31.8857 29.873 31.918C29.8498 31.9502 29.8103 31.9766 29.7852 31.9766C29.76 31.9766 29.7205 32.0029 29.6973 32.0352C29.674 32.0674 29.6345 32.0938 29.6094 32.0938C29.5843 32.0938 29.5447 32.1201 29.5215 32.1523C29.4983 32.1846 29.4558 32.2109 29.4271 32.2109C29.3985 32.2109 29.375 32.2241 29.375 32.2402C29.375 32.2563 29.3515 32.2695 29.3229 32.2695C29.2942 32.2695 29.2517 32.2959 29.2285 32.3281C29.2053 32.3604 29.1628 32.3867 29.1341 32.3867C29.1055 32.3867 29.082 32.3999 29.082 32.416C29.082 32.4321 29.0557 32.4453 29.0234 32.4453C28.9912 32.4453 28.9648 32.4585 28.9648 32.4746C28.9648 32.4907 28.9385 32.5039 28.9062 32.5039C28.874 32.5039 28.8477 32.5171 28.8477 32.5332C28.8477 32.5493 28.8213 32.5625 28.7891 32.5625C28.7568 32.5625 28.7305 32.5757 28.7305 32.5918C28.7305 32.6079 28.7041 32.6211 28.6719 32.6211C28.6396 32.6211 28.6133 32.6343 28.6133 32.6504C28.6133 32.6665 28.5869 32.6797 28.5547 32.6797C28.5225 32.6797 28.4961 32.6929 28.4961 32.709C28.4961 32.7251 28.4565 32.7383 28.4082 32.7383C28.3599 32.7383 28.3203 32.7515 28.3203 32.7676C28.3203 32.7837 28.2939 32.7969 28.2617 32.7969C28.2295 32.7969 28.2031 32.8101 28.2031 32.8262C28.2031 32.8423 28.1636 32.8555 28.1152 32.8555C28.0669 32.8555 28.0273 32.8687 28.0273 32.8848C28.0273 32.9009 27.9878 32.9141 27.9395 32.9141C27.8911 32.9141 27.8516 32.9272 27.8516 32.9434C27.8516 32.9595 27.812 32.9727 27.7637 32.9727C27.7153 32.9727 27.6758 32.9858 27.6758 33.002C27.6758 33.0181 27.6362 33.0312 27.5879 33.0312C27.5396 33.0312 27.5 33.0444 27.5 33.0605C27.5 33.0767 27.4604 33.0898 27.4121 33.0898C27.3638 33.0898 27.3242 33.103 27.3242 33.1191C27.3242 33.1353 27.2715 33.1484 27.207 33.1484C27.1426 33.1484 27.0898 33.1616 27.0898 33.1777C27.0898 33.1938 27.0239 33.207 26.9434 33.207C26.8628 33.207 26.7969 33.2202 26.7969 33.2363C26.7969 33.2526 26.7187 33.2656 26.6211 33.2656C26.5234 33.2656 26.4453 33.2786 26.4453 33.2949C26.4453 33.3123 26.3379 33.3242 26.1816 33.3242C26.0254 33.3242 25.918 33.3361 25.918 33.3535C25.918 33.3721 25.6836 33.3828 25.2734 33.3828C24.8633 33.3828 24.6289 33.3721 24.6289 33.3535C24.6289 33.3361 24.5215 33.3242 24.3652 33.3242C24.209 33.3242 24.1016 33.3123 24.1016 33.2949C24.1016 33.2786 24.0234 33.2656 23.9258 33.2656C23.8281 33.2656 23.75 33.2526 23.75 33.2363C23.75 33.2202 23.6973 33.207 23.6328 33.207C23.5684 33.207 23.5156 33.1938 23.5156 33.1777C23.5156 33.1616 23.4629 33.1484 23.3984 33.1484C23.334 33.1484 23.2812 33.1353 23.2812 33.1191C23.2812 33.103 23.2285 33.0898 23.1641 33.0898C23.0996 33.0898 23.0469 33.0767 23.0469 33.0605C23.0469 33.0444 23.0073 33.0312 22.959 33.0312C22.9106 33.0312 22.8711 33.0181 22.8711 33.002C22.8711 32.9858 22.8315 32.9727 22.7832 32.9727C22.7349 32.9727 22.6953 32.9595 22.6953 32.9434C22.6953 32.9272 22.6558 32.9141 22.6074 32.9141C22.5591 32.9141 22.5195 32.9009 22.5195 32.8848C22.5195 32.8687 22.4932 32.8555 22.4609 32.8555C22.4287 32.8555 22.4023 32.8423 22.4023 32.8262C22.4023 32.8101 22.3628 32.7969 22.3145 32.7969C22.2661 32.7969 22.2266 32.7837 22.2266 32.7676C22.2266 32.7515 22.2002 32.7383 22.168 32.7383C22.1357 32.7383 22.1094 32.7251 22.1094 32.709C22.1094 32.6929 22.083 32.6797 22.0508 32.6797C22.0186 32.6797 21.9922 32.6665 21.9922 32.6504C21.9922 32.6343 21.9555 32.6211 21.9108 32.6211C21.863 32.6211 21.8119 32.5969 21.7871 32.5625C21.7639 32.5303 21.7214 32.5039 21.6927 32.5039C21.6641 32.5039 21.6406 32.4907 21.6406 32.4746C21.6406 32.4585 21.6143 32.4453 21.582 32.4453C21.5498 32.4453 21.5234 32.4321 21.5234 32.416C21.5234 32.3999 21.4971 32.3867 21.4648 32.3867C21.4326 32.3867 21.4062 32.3735 21.4062 32.3574C21.4062 32.3413 21.3799 32.3281 21.3477 32.3281C21.3154 32.3281 21.2891 32.3149 21.2891 32.2988C21.2891 32.2827 21.2656 32.2695 21.2369 32.2695C21.2083 32.2695 21.1658 32.2432 21.1426 32.2109C21.1193 32.1787 21.0798 32.1523 21.0547 32.1523C21.0296 32.1523 20.99 32.126 20.9668 32.0938C20.9436 32.0615 20.9064 32.0352 20.8842 32.0352C20.862 32.0352 20.8069 31.9956 20.7617 31.9473C20.7166 31.8989 20.6638 31.8594 20.6445 31.8594C20.6252 31.8594 20.5725 31.8198 20.5273 31.7715C20.4822 31.7231 20.4297 31.6836 20.4107 31.6836C20.3918 31.6836 20.3256 31.6309 20.2637 31.5664C20.2017 31.502 20.1367 31.4492 20.1192 31.4492C20.0776 31.4492 19.2969 30.6685 19.2969 30.6269C19.2969 30.6094 19.2441 30.5444 19.1797 30.4824C19.1152 30.4205 19.0625 30.3543 19.0625 30.3354C19.0625 30.3164 19.0229 30.2639 18.9746 30.2188C18.9263 30.1736 18.8867 30.1209 18.8867 30.1016C18.8867 30.0823 18.8472 30.0295 18.7988 29.9844C18.7505 29.9392 18.7109 29.8841 18.7109 29.8619C18.7109 29.8397 18.6846 29.8025 18.6523 29.7793C18.6201 29.7561 18.5938 29.7136 18.5938 29.6849C18.5938 29.6563 18.5806 29.6328 18.5645 29.6328C18.5483 29.6328 18.5352 29.6093 18.5352 29.5807C18.5352 29.552 18.5088 29.5096 18.4766 29.4863C18.4443 29.4631 18.418 29.4206 18.418 29.392C18.418 29.3633 18.4048 29.3398 18.3887 29.3398C18.3726 29.3398 18.3594 29.3135 18.3594 29.2812C18.3594 29.249 18.3462 29.2227 18.3301 29.2227C18.314 29.2227 18.3008 29.1963 18.3008 29.1641C18.3008 29.1318 18.2876 29.1055 18.2715 29.1055C18.2554 29.1055 18.2422 29.0791 18.2422 29.0469C18.2422 29.0146 18.229 28.9883 18.2129 28.9883C18.1968 28.9883 18.1836 28.9619 18.1836 28.9297C18.1836 28.8975 18.1704 28.8711 18.1543 28.8711C18.1382 28.8711 18.125 28.8447 18.125 28.8125C18.125 28.7803 18.1118 28.7539 18.0957 28.7539C18.0796 28.7539 18.0664 28.7275 18.0664 28.6953C18.0664 28.6631 18.0532 28.6367 18.0371 28.6367C18.021 28.6367 18.0078 28.6104 18.0078 28.5781C18.0078 28.5459 17.9946 28.5195 17.9785 28.5195C17.9624 28.5195 17.9492 28.48 17.9492 28.4316C17.9492 28.3833 17.936 28.3438 17.9199 28.3438C17.9038 28.3438 17.8906 28.3042 17.8906 28.2559C17.8906 28.2075 17.8774 28.168 17.8613 28.168C17.8452 28.168 17.832 28.1416 17.832 28.1094C17.832 28.0771 17.8188 28.0508 17.8027 28.0508C17.7866 28.0508 17.7734 28.0112 17.7734 27.9629C17.7734 27.9146 17.7603 27.875 17.7441 27.875C17.728 27.875 17.7148 27.8223 17.7148 27.7578C17.7148 27.6934 17.7017 27.6406 17.6855 27.6406C17.6694 27.6406 17.6562 27.6011 17.6562 27.5527C17.6562 27.5044 17.6431 27.4648 17.627 27.4648C17.6108 27.4648 17.5977 27.4121 17.5977 27.3477C17.5977 27.2832 17.5845 27.2305 17.5684 27.2305C17.5522 27.2305 17.5391 27.1646 17.5391 27.084C17.5391 27.0034 17.5259 26.9375 17.5098 26.9375C17.4935 26.9375 17.4805 26.8594 17.4805 26.7617C17.4805 26.6641 17.4675 26.5859 17.4512 26.5859C17.4338 26.5859 17.4219 26.4785 17.4219 26.3223C17.4219 26.166 17.41 26.0586 17.3926 26.0586C17.3732 26.0586 17.3633 24.1055 17.3633 20.2578C17.3633 16.4102 17.3534 14.457 17.334 14.457C17.3179 14.457 17.3047 14.3911 17.3047 14.3105C17.3047 14.23 17.2915 14.1641 17.2754 14.1641C17.2593 14.1641 17.2461 14.1113 17.2461 14.0469C17.2461 13.9824 17.2329 13.9297 17.2168 13.9297C17.2007 13.9297 17.1875 13.9033 17.1875 13.8711C17.1875 13.8389 17.1743 13.8125 17.1582 13.8125C17.1421 13.8125 17.1289 13.7861 17.1289 13.7539C17.1289 13.7217 17.1157 13.6953 17.0996 13.6953C17.0835 13.6953 17.0703 13.6587 17.0703 13.6139C17.0703 13.5661 17.0461 13.515 17.0117 13.4902C16.9795 13.467 16.9531 13.4275 16.9531 13.4023C16.9531 13.3772 16.9268 13.3377 16.8945 13.3145C16.8623 13.2912 16.8359 13.2552 16.8359 13.2343C16.8359 13.1849 16.3503 12.6992 16.3008 12.6992C16.28 12.6992 16.2439 12.6729 16.2207 12.6406C16.1975 12.6084 16.1579 12.582 16.1328 12.582C16.1077 12.582 16.0682 12.5557 16.0449 12.5234C16.0201 12.489 15.9691 12.4648 15.9213 12.4648C15.8765 12.4648 15.8398 12.4517 15.8398 12.4355C15.8398 12.4194 15.8135 12.4062 15.7812 12.4062C15.749 12.4062 15.7227 12.3931 15.7227 12.377C15.7227 12.3608 15.6963 12.3477 15.6641 12.3477C15.6318 12.3477 15.6055 12.3345 15.6055 12.3184C15.6055 12.3022 15.5527 12.2891 15.4883 12.2891C15.4238 12.2891 15.3711 12.2759 15.3711 12.2598C15.3711 12.2437 15.3052 12.2305 15.2246 12.2305C15.144 12.2305 15.0781 12.2173 15.0781 12.2012C15.0781 12.1833 14.9414 12.1719 14.7266 12.1719C14.5117 12.1719 14.375 12.1833 14.375 12.2012C14.375 12.2173 14.3091 12.2305 14.2285 12.2305C14.1479 12.2305 14.082 12.2437 14.082 12.2598C14.082 12.2759 14.0293 12.2891 13.9648 12.2891C13.9004 12.2891 13.8477 12.3022 13.8477 12.3184C13.8477 12.3345 13.8213 12.3477 13.7891 12.3477C13.7568 12.3477 13.7305 12.3608 13.7305 12.377C13.7305 12.3931 13.7041 12.4062 13.6719 12.4062C13.6396 12.4062 13.6133 12.4194 13.6133 12.4355C13.6133 12.4517 13.5766 12.4648 13.5319 12.4648C13.4841 12.4648 13.433 12.489 13.4082 12.5234C13.385 12.5557 13.3454 12.582 13.3203 12.582C13.2952 12.582 13.2557 12.6084 13.2324 12.6406C13.2092 12.6729 13.1731 12.6992 13.1523 12.6992C13.1029 12.6992 12.6172 13.1849 12.6172 13.2343C12.6172 13.2552 12.5908 13.2912 12.5586 13.3145C12.5264 13.3377 12.5 13.3772 12.5 13.4023C12.5 13.4275 12.4736 13.467 12.4414 13.4902C12.4092 13.5135 12.3828 13.5559 12.3828 13.5846C12.3828 13.6133 12.3696 13.6367 12.3535 13.6367C12.3374 13.6367 12.3242 13.6763 12.3242 13.7246C12.3242 13.7729 12.311 13.8125 12.2949 13.8125C12.2788 13.8125 12.2656 13.8389 12.2656 13.8711C12.2656 13.9033 12.2524 13.9297 12.2363 13.9297C12.2202 13.9297 12.207 13.9824 12.207 14.0469C12.207 14.1113 12.1938 14.1641 12.1777 14.1641C12.1616 14.1641 12.1484 14.23 12.1484 14.3105C12.1484 14.3911 12.1353 14.457 12.1191 14.457C12.0997 14.457 12.0898 17.6308 12.0898 23.9199V33.3828H11.2109H10.332V31.0391C10.332 29.4961 10.322 28.6953 10.3027 28.6953C10.2866 28.6953 10.2734 28.6689 10.2734 28.6367C10.2734 28.6045 10.2603 28.5781 10.2441 28.5781C10.228 28.5781 10.2148 28.5518 10.2148 28.5195C10.2148 28.4873 10.2017 28.4609 10.1855 28.4609C10.1694 28.4609 10.1562 28.4406 10.1562 28.4157C10.1562 28.3571 10.0258 28.2266 9.96714 28.2266C9.94224 28.2266 9.92188 28.2134 9.92188 28.1973C9.92188 28.1812 9.89551 28.168 9.86328 28.168C9.83105 28.168 9.80469 28.1548 9.80469 28.1387C9.80469 28.1226 9.77832 28.1094 9.74609 28.1094C9.71387 28.1094 9.6875 28.0962 9.6875 28.0801C9.6875 28.063 9.58985 28.0508 9.45312 28.0508C9.3164 28.0508 9.21875 28.063 9.21875 28.0801C9.21875 28.0962 9.19238 28.1094 9.16016 28.1094C9.12793 28.1094 9.10156 28.1226 9.10156 28.1387C9.10156 28.1548 9.0752 28.168 9.04297 28.168C9.01074 28.168 8.98438 28.1812 8.98438 28.1973C8.98438 28.2134 8.96401 28.2266 8.93911 28.2266C8.88049 28.2266 8.75 28.3571 8.75 28.4157C8.75 28.4406 8.73682 28.4609 8.7207 28.4609C8.70459 28.4609 8.69141 28.4873 8.69141 28.5195C8.69141 28.5518 8.67822 28.5781 8.66211 28.5781C8.646 28.5781 8.63281 28.6045 8.63281 28.6367C8.63281 28.6689 8.61963 28.6953 8.60352 28.6953C8.58424 28.6953 8.57422 29.4961 8.57422 31.0391V33.3828H7.66602H6.75781V23.7734C6.75781 17.3867 6.76763 14.1641 6.78711 14.1641C6.80448 14.1641 6.81641 14.0566 6.81641 13.9004C6.81641 13.7442 6.82833 13.6367 6.8457 13.6367C6.86199 13.6367 6.875 13.5586 6.875 13.4609C6.875 13.3633 6.88801 13.2852 6.9043 13.2852C6.92041 13.2852 6.93359 13.2324 6.93359 13.168C6.93359 13.1035 6.94678 13.0508 6.96289 13.0508C6.979 13.0508 6.99219 12.998 6.99219 12.9336C6.99219 12.8691 7.00537 12.8164 7.02148 12.8164C7.0376 12.8164 7.05078 12.7637 7.05078 12.6992C7.05078 12.6348 7.06396 12.582 7.08008 12.582C7.09619 12.582 7.10938 12.5425 7.10938 12.4941C7.10938 12.4458 7.12256 12.4062 7.13867 12.4062C7.15479 12.4062 7.16797 12.3667 7.16797 12.3184C7.16797 12.27 7.18115 12.2305 7.19727 12.2305C7.21338 12.2305 7.22656 12.1909 7.22656 12.1426C7.22656 12.0942 7.23975 12.0547 7.25586 12.0547C7.27197 12.0547 7.28516 12.0283 7.28516 11.9961C7.28516 11.9639 7.29834 11.9375 7.31445 11.9375C7.33057 11.9375 7.34375 11.8979 7.34375 11.8496C7.34375 11.8013 7.35693 11.7617 7.37305 11.7617C7.38916 11.7617 7.40234 11.7354 7.40234 11.7031C7.40234 11.6709 7.41553 11.6445 7.43164 11.6445C7.44775 11.6445 7.46094 11.6182 7.46094 11.5859C7.46094 11.5537 7.47412 11.5273 7.49023 11.5273C7.50635 11.5273 7.51953 11.4878 7.51953 11.4395C7.51953 11.3911 7.53271 11.3516 7.54883 11.3516C7.56494 11.3516 7.57812 11.3281 7.57812 11.2994C7.57812 11.2708 7.60449 11.2283 7.63672 11.2051C7.66895 11.1818 7.69531 11.1394 7.69531 11.1107C7.69531 11.0821 7.7085 11.0586 7.72461 11.0586C7.74072 11.0586 7.75391 11.0322 7.75391 11C7.75391 10.9678 7.76709 10.9414 7.7832 10.9414C7.79932 10.9414 7.8125 10.915 7.8125 10.8828C7.8125 10.8506 7.82568 10.8242 7.8418 10.8242C7.85791 10.8242 7.87109 10.8008 7.87109 10.7721C7.87109 10.7434 7.89746 10.701 7.92969 10.6777C7.96191 10.6545 7.98828 10.615 7.98828 10.5898C7.98828 10.5647 8.01465 10.5252 8.04688 10.502C8.0791 10.4787 8.10547 10.4392 8.10547 10.4141C8.10547 10.389 8.13184 10.3494 8.16406 10.3262C8.19629 10.3029 8.22266 10.2658 8.22266 10.2436C8.22266 10.2214 8.26221 10.1662 8.31055 10.1211C8.35889 10.0759 8.39844 10.0237 8.39844 10.0049C8.39844 9.98615 8.46436 9.90661 8.54492 9.82812C8.62549 9.74964 8.69141 9.67127 8.69141 9.65395C8.69141 9.61285 9.41363 8.89062 9.45474 8.89062C9.47205 8.89062 9.55042 8.82471 9.62891 8.74414C9.70739 8.66357 9.78693 8.59766 9.80568 8.59766C9.82443 8.59766 9.87673 8.55811 9.92188 8.50977C9.96702 8.46143 10.0198 8.42188 10.0391 8.42188C10.0584 8.42188 10.1111 8.38232 10.1562 8.33398C10.2014 8.28564 10.2594 8.24609 10.2852 8.24609C10.311 8.24609 10.332 8.23291 10.332 8.2168C10.332 8.20068 10.3555 8.1875 10.3842 8.1875C10.4128 8.1875 10.4553 8.16113 10.4785 8.12891C10.5017 8.09668 10.5413 8.07031 10.5664 8.07031C10.5915 8.07031 10.6311 8.04395 10.6543 8.01172C10.6775 7.97949 10.72 7.95312 10.7487 7.95312C10.7773 7.95312 10.8008 7.93994 10.8008 7.92383C10.8008 7.90771 10.8271 7.89453 10.8594 7.89453C10.8916 7.89453 10.918 7.88135 10.918 7.86523C10.918 7.84912 10.9443 7.83594 10.9766 7.83594C11.0088 7.83594 11.0352 7.82275 11.0352 7.80664C11.0352 7.79053 11.0615 7.77734 11.0938 7.77734C11.126 7.77734 11.1523 7.76416 11.1523 7.74805C11.1523 7.73193 11.1787 7.71875 11.2109 7.71875C11.2432 7.71875 11.2695 7.70557 11.2695 7.68945C11.2695 7.67334 11.2959 7.66016 11.3281 7.66016C11.3604 7.66016 11.3867 7.64697 11.3867 7.63086C11.3867 7.61475 11.4131 7.60156 11.4453 7.60156C11.4775 7.60156 11.5039 7.58838 11.5039 7.57227C11.5039 7.55615 11.5303 7.54297 11.5625 7.54297C11.5947 7.54297 11.6211 7.52979 11.6211 7.51367C11.6211 7.49756 11.6606 7.48438 11.709 7.48438C11.7573 7.48438 11.7969 7.47119 11.7969 7.45508C11.7969 7.43896 11.8364 7.42578 11.8848 7.42578C11.9331 7.42578 11.9727 7.4126 11.9727 7.39648C11.9727 7.38037 11.999 7.36719 12.0312 7.36719C12.0635 7.36719 12.0898 7.354 12.0898 7.33789C12.0898 7.32178 12.1294 7.30859 12.1777 7.30859C12.2261 7.30859 12.2656 7.29541 12.2656 7.2793C12.2656 7.26318 12.3184 7.25 12.3828 7.25C12.4473 7.25 12.5 7.23682 12.5 7.2207C12.5 7.20459 12.5396 7.19141 12.5879 7.19141C12.6362 7.19141 12.6758 7.17822 12.6758 7.16211C12.6758 7.146 12.7417 7.13281 12.8223 7.13281C12.9028 7.13281 12.9688 7.11963 12.9688 7.10352C12.9688 7.0874 13.0215 7.07422 13.0859 7.07422C13.1504 7.07422 13.2031 7.06104 13.2031 7.04492C13.2031 7.02863 13.2813 7.01562 13.3789 7.01562C13.4766 7.01562 13.5547 7.00262 13.5547 6.98633C13.5547 6.96896 13.6621 6.95703 13.8184 6.95703C13.9746 6.95703 14.082 6.94511 14.082 6.92773C14.082 6.9091 14.3164 6.89844 14.7266 6.89844C15.1367 6.89844 15.3711 6.9091 15.3711 6.92773ZM12.793 8.97852C12.793 8.99463 12.7534 9.00781 12.7051 9.00781C12.6567 9.00781 12.6172 9.021 12.6172 9.03711C12.6172 9.05322 12.5776 9.06641 12.5293 9.06641C12.481 9.06641 12.4414 9.07959 12.4414 9.0957C12.4414 9.11182 12.415 9.125 12.3828 9.125C12.3506 9.125 12.3242 9.13818 12.3242 9.1543C12.3242 9.17041 12.2847 9.18359 12.2363 9.18359C12.188 9.18359 12.1484 9.19678 12.1484 9.21289C12.1484 9.229 12.1221 9.24219 12.0898 9.24219C12.0576 9.24219 12.0312 9.25537 12.0312 9.27148C12.0312 9.2876 12.0049 9.30078 11.9727 9.30078C11.9404 9.30078 11.9141 9.31396 11.9141 9.33008C11.9141 9.34619 11.8906 9.35938 11.8619 9.35938C11.8333 9.35938 11.7908 9.38574 11.7676 9.41797C11.7443 9.4502 11.7019 9.47656 11.6732 9.47656C11.6446 9.47656 11.6211 9.48975 11.6211 9.50586C11.6211 9.52197 11.5976 9.53516 11.569 9.53516C11.5403 9.53516 11.4978 9.56152 11.4746 9.59375C11.4514 9.62598 11.4118 9.65234 11.3867 9.65234C11.3616 9.65234 11.3221 9.67871 11.2988 9.71094C11.2756 9.74316 11.236 9.76953 11.2109 9.76953C11.1858 9.76953 11.1463 9.7959 11.123 9.82812C11.0998 9.86035 11.0629 9.88672 11.041 9.88672C11.0192 9.88672 10.9506 9.93945 10.8887 10.0039C10.8267 10.0684 10.7617 10.1211 10.7442 10.1211C10.6989 10.1211 10.0977 10.7277 10.0977 10.7735C10.0977 10.7943 10.0713 10.8303 10.0391 10.8535C10.0047 10.8783 9.98047 10.9294 9.98047 10.9772C9.98047 11.0219 9.96729 11.0586 9.95117 11.0586C9.93409 11.0586 9.92188 11.1562 9.92188 11.293C9.92188 11.4297 9.93409 11.5273 9.95117 11.5273C9.96729 11.5273 9.98047 11.564 9.98047 11.6088C9.98047 11.6566 10.0047 11.7076 10.0391 11.7324C10.0713 11.7557 10.0977 11.7921 10.0977 11.8135C10.0977 11.8669 10.2314 11.9961 10.2868 11.9961C10.3117 11.9961 10.332 12.0093 10.332 12.0254C10.332 12.0415 10.3584 12.0547 10.3906 12.0547C10.4229 12.0547 10.4492 12.0679 10.4492 12.084C10.4492 12.1001 10.4756 12.1133 10.5078 12.1133C10.54 12.1133 10.5664 12.1265 10.5664 12.1426C10.5664 12.1597 10.6641 12.1719 10.8008 12.1719C10.9375 12.1719 11.0352 12.1597 11.0352 12.1426C11.0352 12.1265 11.0615 12.1133 11.0938 12.1133C11.126 12.1133 11.1523 12.1001 11.1523 12.084C11.1523 12.0679 11.1787 12.0547 11.2109 12.0547C11.2432 12.0547 11.2695 12.0415 11.2695 12.0254C11.2695 12.0093 11.2897 11.9961 11.3144 11.9961C11.3659 11.9961 11.5625 11.8094 11.5625 11.7606C11.5625 11.7185 11.6369 11.6445 11.6792 11.6445C11.6974 11.6445 11.7899 11.5654 11.8848 11.4688C11.9797 11.3721 12.0749 11.293 12.0964 11.293C12.1179 11.293 12.1545 11.2666 12.1777 11.2344C12.201 11.2021 12.2405 11.1758 12.2656 11.1758C12.2907 11.1758 12.3303 11.1494 12.3535 11.1172C12.3767 11.085 12.4192 11.0586 12.4479 11.0586C12.4765 11.0586 12.5 11.0454 12.5 11.0293C12.5 11.0132 12.5235 11 12.5521 11C12.5808 11 12.6233 10.9736 12.6465 10.9414C12.6697 10.9092 12.7122 10.8828 12.7408 10.8828C12.7695 10.8828 12.793 10.8696 12.793 10.8535C12.793 10.8374 12.8193 10.8242 12.8516 10.8242C12.8838 10.8242 12.9102 10.811 12.9102 10.7949C12.9102 10.7788 12.9497 10.7656 12.998 10.7656C13.0464 10.7656 13.0859 10.7524 13.0859 10.7363C13.0859 10.7202 13.1123 10.707 13.1445 10.707C13.1768 10.707 13.2031 10.6938 13.2031 10.6777C13.2031 10.6616 13.2398 10.6484 13.2845 10.6484C13.3324 10.6484 13.3834 10.6242 13.4082 10.5898C13.4314 10.5576 13.4679 10.5312 13.4892 10.5312C13.5395 10.5312 13.6719 10.3989 13.6719 10.3486C13.6719 10.3273 13.6982 10.2908 13.7305 10.2676C13.7649 10.2428 13.7891 10.1917 13.7891 10.1439C13.7891 10.0992 13.8022 10.0625 13.8184 10.0625C13.8354 10.0625 13.8477 9.96485 13.8477 9.82812C13.8477 9.6914 13.8354 9.59375 13.8184 9.59375C13.8022 9.59375 13.7891 9.56738 13.7891 9.53516C13.7891 9.50293 13.7759 9.47656 13.7598 9.47656C13.7437 9.47656 13.7305 9.4531 13.7305 9.42444C13.7305 9.39576 13.7041 9.35331 13.6719 9.33008C13.6396 9.30685 13.6133 9.26439 13.6133 9.23571C13.6133 9.20527 13.5916 9.18359 13.5612 9.18359C13.5325 9.18359 13.49 9.15723 13.4668 9.125C13.4436 9.09277 13.4011 9.06641 13.3724 9.06641C13.3438 9.06641 13.3203 9.05322 13.3203 9.03711C13.3203 9.021 13.2808 9.00781 13.2324 9.00781C13.1841 9.00781 13.1445 8.99463 13.1445 8.97852C13.1445 8.96223 13.0664 8.94922 12.9688 8.94922C12.8711 8.94922 12.793 8.96223 12.793 8.97852ZM16.3086 8.97852C16.3086 8.99463 16.269 9.00781 16.2207 9.00781C16.1724 9.00781 16.1328 9.021 16.1328 9.03711C16.1328 9.05322 16.1093 9.06641 16.0807 9.06641C16.052 9.06641 16.0096 9.09277 15.9863 9.125C15.9631 9.15723 15.9263 9.18359 15.9045 9.18359C15.8509 9.18359 15.7812 9.25687 15.7812 9.31335C15.7812 9.33866 15.7681 9.35938 15.752 9.35938C15.7358 9.35938 15.7227 9.38574 15.7227 9.41797C15.7227 9.4502 15.7095 9.47656 15.6934 9.47656C15.6772 9.47656 15.6641 9.50293 15.6641 9.53516C15.6641 9.56738 15.6509 9.59375 15.6348 9.59375C15.6177 9.59375 15.6055 9.6914 15.6055 9.82812C15.6055 9.96485 15.6177 10.0625 15.6348 10.0625C15.6509 10.0625 15.6641 10.0992 15.6641 10.1439C15.6641 10.1917 15.6883 10.2428 15.7227 10.2676C15.7549 10.2908 15.7812 10.3273 15.7812 10.3486C15.7812 10.3989 15.9136 10.5312 15.9639 10.5312C15.9852 10.5312 16.0217 10.5576 16.0449 10.5898C16.0697 10.6242 16.1208 10.6484 16.1686 10.6484C16.2134 10.6484 16.25 10.6616 16.25 10.6777C16.25 10.6938 16.2764 10.707 16.3086 10.707C16.3408 10.707 16.3672 10.7202 16.3672 10.7363C16.3672 10.7524 16.4067 10.7656 16.4551 10.7656C16.5034 10.7656 16.543 10.7788 16.543 10.7949C16.543 10.811 16.5693 10.8242 16.6016 10.8242C16.6338 10.8242 16.6602 10.8374 16.6602 10.8535C16.6602 10.8696 16.6865 10.8828 16.7188 10.8828C16.751 10.8828 16.7773 10.896 16.7773 10.9121C16.7773 10.9282 16.8008 10.9414 16.8295 10.9414C16.8581 10.9414 16.9006 10.9678 16.9238 11C16.9471 11.0322 16.9866 11.0586 17.0117 11.0586C17.0368 11.0586 17.0764 11.085 17.0996 11.1172C17.1228 11.1494 17.1624 11.1758 17.1875 11.1758C17.2126 11.1758 17.2522 11.2021 17.2754 11.2344C17.2986 11.2666 17.3353 11.293 17.357 11.293C17.3787 11.293 17.4606 11.3589 17.5391 11.4395C17.6175 11.52 17.6967 11.5859 17.715 11.5859C17.7575 11.5859 17.832 11.6597 17.832 11.7018C17.832 11.7507 18.0879 11.9961 18.1389 11.9961C18.1635 11.9961 18.1836 12.0093 18.1836 12.0254C18.1836 12.0415 18.21 12.0547 18.2422 12.0547C18.2744 12.0547 18.3008 12.0679 18.3008 12.084C18.3008 12.1001 18.3271 12.1133 18.3594 12.1133C18.3916 12.1133 18.418 12.1265 18.418 12.1426C18.418 12.1597 18.5156 12.1719 18.6523 12.1719C18.7891 12.1719 18.8867 12.1597 18.8867 12.1426C18.8867 12.1265 18.9131 12.1133 18.9453 12.1133C18.9775 12.1133 19.0039 12.1001 19.0039 12.084C19.0039 12.0679 19.0303 12.0547 19.0625 12.0547C19.0947 12.0547 19.1211 12.0415 19.1211 12.0254C19.1211 12.0093 19.1415 11.9961 19.1664 11.9961C19.2217 11.9961 19.3555 11.8669 19.3555 11.8135C19.3555 11.7921 19.3818 11.7557 19.4141 11.7324C19.4485 11.7076 19.4727 11.6566 19.4727 11.6088C19.4727 11.564 19.4858 11.5273 19.502 11.5273C19.519 11.5273 19.5312 11.4297 19.5312 11.293C19.5312 11.1562 19.519 11.0586 19.502 11.0586C19.4858 11.0586 19.4727 11.0219 19.4727 10.9772C19.4727 10.9294 19.4485 10.8783 19.4141 10.8535C19.3818 10.8303 19.3555 10.7943 19.3555 10.7735C19.3555 10.7277 18.7543 10.1211 18.709 10.1211C18.6914 10.1211 18.6264 10.0684 18.5645 10.0039C18.5025 9.93945 18.434 9.88672 18.4121 9.88672C18.3902 9.88672 18.3533 9.86035 18.3301 9.82812C18.3068 9.7959 18.2673 9.76953 18.2422 9.76953C18.2171 9.76953 18.1775 9.74316 18.1543 9.71094C18.1311 9.67871 18.0915 9.65234 18.0664 9.65234C18.0413 9.65234 18.0017 9.62598 17.9785 9.59375C17.9553 9.56152 17.9128 9.53516 17.8842 9.53516C17.8555 9.53516 17.832 9.52197 17.832 9.50586C17.832 9.48975 17.8086 9.47656 17.7799 9.47656C17.7512 9.47656 17.7088 9.4502 17.6855 9.41797C17.6623 9.38574 17.6199 9.35938 17.5912 9.35938C17.5625 9.35938 17.5391 9.34619 17.5391 9.33008C17.5391 9.31396 17.5127 9.30078 17.4805 9.30078C17.4482 9.30078 17.4219 9.2876 17.4219 9.27148C17.4219 9.25537 17.3955 9.24219 17.3633 9.24219C17.3311 9.24219 17.3047 9.229 17.3047 9.21289C17.3047 9.19678 17.2651 9.18359 17.2168 9.18359C17.1685 9.18359 17.1289 9.17041 17.1289 9.1543C17.1289 9.13818 17.1025 9.125 17.0703 9.125C17.0381 9.125 17.0117 9.11182 17.0117 9.0957C17.0117 9.07959 16.9722 9.06641 16.9238 9.06641C16.8755 9.06641 16.8359 9.05322 16.8359 9.03711C16.8359 9.021 16.7964 9.00781 16.748 9.00781C16.6997 9.00781 16.6602 8.99463 16.6602 8.97852C16.6602 8.96223 16.582 8.94922 16.4844 8.94922C16.3867 8.94922 16.3086 8.96223 16.3086 8.97852ZM9.21875 13.959C9.21875 13.9751 9.19238 13.9883 9.16016 13.9883C9.12793 13.9883 9.10156 14.0015 9.10156 14.0176C9.10156 14.0337 9.0752 14.0469 9.04297 14.0469C9.01074 14.0469 8.98438 14.0601 8.98438 14.0762C8.98438 14.0923 8.96401 14.1055 8.93911 14.1055C8.88049 14.1055 8.75 14.236 8.75 14.2946C8.75 14.3195 8.73682 14.3398 8.7207 14.3398C8.70459 14.3398 8.69141 14.3662 8.69141 14.3984C8.69141 14.4307 8.67822 14.457 8.66211 14.457C8.646 14.457 8.63281 14.4834 8.63281 14.5156C8.63281 14.5479 8.61963 14.5742 8.60352 14.5742C8.58427 14.5742 8.57422 15.2578 8.57422 16.5664C8.57422 17.875 8.58427 18.5586 8.60352 18.5586C8.61963 18.5586 8.63281 18.585 8.63281 18.6172C8.63281 18.6494 8.646 18.6758 8.66211 18.6758C8.67822 18.6758 8.69141 18.7021 8.69141 18.7344C8.69141 18.7666 8.70459 18.793 8.7207 18.793C8.73682 18.793 8.75 18.8133 8.75 18.8382C8.75 18.8969 8.88049 19.0273 8.93911 19.0273C8.96401 19.0273 8.98438 19.0405 8.98438 19.0566C8.98438 19.0728 9.01074 19.0859 9.04297 19.0859C9.0752 19.0859 9.10156 19.0991 9.10156 19.1152C9.10156 19.1313 9.12793 19.1445 9.16016 19.1445C9.19238 19.1445 9.21875 19.1577 9.21875 19.1738C9.21875 19.1909 9.3164 19.2031 9.45312 19.2031C9.58985 19.2031 9.6875 19.1909 9.6875 19.1738C9.6875 19.1577 9.71387 19.1445 9.74609 19.1445C9.77832 19.1445 9.80469 19.1313 9.80469 19.1152C9.80469 19.0991 9.83105 19.0859 9.86328 19.0859C9.89551 19.0859 9.92188 19.0728 9.92188 19.0566C9.92188 19.0405 9.94224 19.0273 9.96714 19.0273C10.0258 19.0273 10.1562 18.8969 10.1562 18.8382C10.1562 18.8133 10.1694 18.793 10.1855 18.793C10.2017 18.793 10.2148 18.7666 10.2148 18.7344C10.2148 18.7021 10.228 18.6758 10.2441 18.6758C10.2603 18.6758 10.2734 18.6494 10.2734 18.6172C10.2734 18.585 10.2866 18.5586 10.3027 18.5586C10.322 18.5586 10.332 17.875 10.332 16.5664C10.332 15.2578 10.322 14.5742 10.3027 14.5742C10.2866 14.5742 10.2734 14.5479 10.2734 14.5156C10.2734 14.4834 10.2603 14.457 10.2441 14.457C10.228 14.457 10.2148 14.4307 10.2148 14.3984C10.2148 14.3662 10.2017 14.3398 10.1855 14.3398C10.1694 14.3398 10.1562 14.3195 10.1562 14.2946C10.1562 14.236 10.0258 14.1055 9.96714 14.1055C9.94224 14.1055 9.92188 14.0923 9.92188 14.0762C9.92188 14.0601 9.89551 14.0469 9.86328 14.0469C9.83105 14.0469 9.80469 14.0337 9.80469 14.0176C9.80469 14.0015 9.77832 13.9883 9.74609 13.9883C9.71387 13.9883 9.6875 13.9751 9.6875 13.959C9.6875 13.9419 9.58985 13.9297 9.45312 13.9297C9.3164 13.9297 9.21875 13.9419 9.21875 13.959ZM19.7656 13.959C19.7656 13.9751 19.7393 13.9883 19.707 13.9883C19.6748 13.9883 19.6484 14.0015 19.6484 14.0176C19.6484 14.0337 19.6221 14.0469 19.5898 14.0469C19.5576 14.0469 19.5312 14.0601 19.5312 14.0762C19.5312 14.0923 19.5109 14.1055 19.486 14.1055C19.4611 14.1055 19.4083 14.1378 19.3688 14.1774C19.3292 14.2169 19.2969 14.2697 19.2969 14.2946C19.2969 14.3195 19.2837 14.3398 19.2676 14.3398C19.2515 14.3398 19.2383 14.3662 19.2383 14.3984C19.2383 14.4307 19.2251 14.457 19.209 14.457C19.1929 14.457 19.1797 14.4834 19.1797 14.5156C19.1797 14.5479 19.1665 14.5742 19.1504 14.5742C19.1311 14.5742 19.1211 15.2578 19.1211 16.5664C19.1211 17.875 19.1311 18.5586 19.1504 18.5586C19.1665 18.5586 19.1797 18.585 19.1797 18.6172C19.1797 18.6494 19.1929 18.6758 19.209 18.6758C19.2251 18.6758 19.2383 18.7021 19.2383 18.7344C19.2383 18.7666 19.2515 18.793 19.2676 18.793C19.2837 18.793 19.2969 18.8133 19.2969 18.8382C19.2969 18.8969 19.4274 19.0273 19.486 19.0273C19.5109 19.0273 19.5312 19.0405 19.5312 19.0566C19.5312 19.0728 19.5576 19.0859 19.5898 19.0859C19.6221 19.0859 19.6484 19.0991 19.6484 19.1152C19.6484 19.1313 19.6748 19.1445 19.707 19.1445C19.7393 19.1445 19.7656 19.1577 19.7656 19.1738C19.7656 19.1909 19.8633 19.2031 20 19.2031C20.1367 19.2031 20.2344 19.1909 20.2344 19.1738C20.2344 19.1577 20.2607 19.1445 20.293 19.1445C20.3252 19.1445 20.3516 19.1313 20.3516 19.1152C20.3516 19.0991 20.3779 19.0859 20.4102 19.0859C20.4424 19.0859 20.4688 19.0728 20.4688 19.0566C20.4688 19.0405 20.4891 19.0273 20.514 19.0273C20.5726 19.0273 20.7031 18.8969 20.7031 18.8382C20.7031 18.8133 20.7163 18.793 20.7324 18.793C20.7485 18.793 20.7617 18.7666 20.7617 18.7344C20.7617 18.7021 20.7749 18.6758 20.791 18.6758C20.8071 18.6758 20.8203 18.6494 20.8203 18.6172C20.8203 18.585 20.8335 18.5586 20.8496 18.5586C20.8689 18.5586 20.8789 17.875 20.8789 16.5664C20.8789 15.2578 20.8689 14.5742 20.8496 14.5742C20.8335 14.5742 20.8203 14.5479 20.8203 14.5156C20.8203 14.4834 20.8071 14.457 20.791 14.457C20.7749 14.457 20.7617 14.4307 20.7617 14.3984C20.7617 14.3662 20.7485 14.3398 20.7324 14.3398C20.7163 14.3398 20.7031 14.3195 20.7031 14.2946C20.7031 14.236 20.5726 14.1055 20.514 14.1055C20.4891 14.1055 20.4688 14.0923 20.4688 14.0762C20.4688 14.0601 20.4424 14.0469 20.4102 14.0469C20.3779 14.0469 20.3516 14.0337 20.3516 14.0176C20.3516 14.0015 20.3252 13.9883 20.293 13.9883C20.2607 13.9883 20.2344 13.9751 20.2344 13.959C20.2344 13.9419 20.1367 13.9297 20 13.9297C19.8633 13.9297 19.7656 13.9419 19.7656 13.959ZM30.3125 13.959C30.3125 13.9751 30.2861 13.9883 30.2539 13.9883C30.2217 13.9883 30.1953 14.0015 30.1953 14.0176C30.1953 14.0337 30.1689 14.0469 30.1367 14.0469C30.1045 14.0469 30.0781 14.0601 30.0781 14.0762C30.0781 14.0923 30.0578 14.1055 30.0329 14.1055C29.9742 14.1055 29.8438 14.236 29.8438 14.2946C29.8438 14.3195 29.8306 14.3398 29.8145 14.3398C29.7983 14.3398 29.7852 14.3662 29.7852 14.3984C29.7852 14.4307 29.772 14.457 29.7559 14.457C29.7397 14.457 29.7266 14.4834 29.7266 14.5156C29.7266 14.5479 29.7134 14.5742 29.6973 14.5742C29.678 14.5742 29.668 15.2578 29.668 16.5664C29.668 17.875 29.678 18.5586 29.6973 18.5586C29.7134 18.5586 29.7266 18.585 29.7266 18.6172C29.7266 18.6494 29.7397 18.6758 29.7559 18.6758C29.772 18.6758 29.7852 18.7021 29.7852 18.7344C29.7852 18.7666 29.7983 18.793 29.8145 18.793C29.8306 18.793 29.8438 18.8133 29.8438 18.8382C29.8438 18.8969 29.9742 19.0273 30.0329 19.0273C30.0578 19.0273 30.0781 19.0405 30.0781 19.0566C30.0781 19.0728 30.1045 19.0859 30.1367 19.0859C30.1689 19.0859 30.1953 19.0991 30.1953 19.1152C30.1953 19.1313 30.2217 19.1445 30.2539 19.1445C30.2861 19.1445 30.3125 19.1577 30.3125 19.1738C30.3125 19.1909 30.4101 19.2031 30.5469 19.2031C30.6836 19.2031 30.7812 19.1909 30.7812 19.1738C30.7812 19.1577 30.8076 19.1445 30.8398 19.1445C30.8721 19.1445 30.8984 19.1313 30.8984 19.1152C30.8984 19.0991 30.9248 19.0859 30.957 19.0859C30.9893 19.0859 31.0156 19.0728 31.0156 19.0566C31.0156 19.0405 31.036 19.0273 31.0609 19.0273C31.1195 19.0273 31.25 18.8969 31.25 18.8382C31.25 18.8133 31.2632 18.793 31.2793 18.793C31.2954 18.793 31.3086 18.7666 31.3086 18.7344C31.3086 18.7021 31.3218 18.6758 31.3379 18.6758C31.354 18.6758 31.3672 18.6494 31.3672 18.6172C31.3672 18.585 31.3804 18.5586 31.3965 18.5586C31.4157 18.5586 31.4258 17.875 31.4258 16.5664C31.4258 15.2578 31.4157 14.5742 31.3965 14.5742C31.3804 14.5742 31.3672 14.5479 31.3672 14.5156C31.3672 14.4834 31.354 14.457 31.3379 14.457C31.3218 14.457 31.3086 14.4307 31.3086 14.3984C31.3086 14.3662 31.2954 14.3398 31.2793 14.3398C31.2632 14.3398 31.25 14.3195 31.25 14.2946C31.25 14.236 31.1195 14.1055 31.0609 14.1055C31.036 14.1055 31.0156 14.0923 31.0156 14.0762C31.0156 14.0601 30.9893 14.0469 30.957 14.0469C30.9248 14.0469 30.8984 14.0337 30.8984 14.0176C30.8984 14.0015 30.8721 13.9883 30.8398 13.9883C30.8076 13.9883 30.7812 13.9751 30.7812 13.959C30.7812 13.9419 30.6836 13.9297 30.5469 13.9297C30.4101 13.9297 30.3125 13.9419 30.3125 13.959ZM9.21875 20.9902C9.21875 21.0063 9.19238 21.0195 9.16016 21.0195C9.12793 21.0195 9.10156 21.0327 9.10156 21.0488C9.10156 21.0649 9.0752 21.0781 9.04297 21.0781C9.01074 21.0781 8.98438 21.0913 8.98438 21.1074C8.98438 21.1235 8.96401 21.1367 8.93911 21.1367C8.88049 21.1367 8.75 21.2672 8.75 21.3258C8.75 21.3507 8.73682 21.3711 8.7207 21.3711C8.70459 21.3711 8.69141 21.3975 8.69141 21.4297C8.69141 21.4619 8.67822 21.4883 8.66211 21.4883C8.646 21.4883 8.63281 21.5146 8.63281 21.5469C8.63281 21.5791 8.61963 21.6055 8.60352 21.6055C8.58427 21.6055 8.57422 22.2988 8.57422 23.627C8.57422 24.9551 8.58427 25.6484 8.60352 25.6484C8.61963 25.6484 8.63281 25.6748 8.63281 25.707C8.63281 25.7393 8.646 25.7656 8.66211 25.7656C8.67822 25.7656 8.69141 25.792 8.69141 25.8242C8.69141 25.8564 8.70459 25.8828 8.7207 25.8828C8.73682 25.8828 8.75 25.9032 8.75 25.9281C8.75 25.9867 8.88049 26.1172 8.93911 26.1172C8.96401 26.1172 8.98438 26.1304 8.98438 26.1465C8.98438 26.1626 9.01074 26.1758 9.04297 26.1758C9.0752 26.1758 9.10156 26.189 9.10156 26.2051C9.10156 26.2212 9.12793 26.2344 9.16016 26.2344C9.19238 26.2344 9.21875 26.2476 9.21875 26.2637C9.21875 26.2808 9.3164 26.293 9.45312 26.293C9.58985 26.293 9.6875 26.2808 9.6875 26.2637C9.6875 26.2476 9.71387 26.2344 9.74609 26.2344C9.77832 26.2344 9.80469 26.2212 9.80469 26.2051C9.80469 26.189 9.83105 26.1758 9.86328 26.1758C9.89551 26.1758 9.92188 26.1626 9.92188 26.1465C9.92188 26.1304 9.94224 26.1172 9.96714 26.1172C10.0258 26.1172 10.1562 25.9867 10.1562 25.9281C10.1562 25.9032 10.1694 25.8828 10.1855 25.8828C10.2017 25.8828 10.2148 25.8564 10.2148 25.8242C10.2148 25.792 10.228 25.7656 10.2441 25.7656C10.2603 25.7656 10.2734 25.7393 10.2734 25.707C10.2734 25.6748 10.2866 25.6484 10.3027 25.6484C10.322 25.6484 10.332 24.9551 10.332 23.627C10.332 22.2988 10.322 21.6055 10.3027 21.6055C10.2866 21.6055 10.2734 21.5791 10.2734 21.5469C10.2734 21.5146 10.2603 21.4883 10.2441 21.4883C10.228 21.4883 10.2148 21.4619 10.2148 21.4297C10.2148 21.3975 10.2017 21.3711 10.1855 21.3711C10.1694 21.3711 10.1562 21.3507 10.1562 21.3258C10.1562 21.2672 10.0258 21.1367 9.96714 21.1367C9.94224 21.1367 9.92188 21.1235 9.92188 21.1074C9.92188 21.0913 9.89551 21.0781 9.86328 21.0781C9.83105 21.0781 9.80469 21.0649 9.80469 21.0488C9.80469 21.0327 9.77832 21.0195 9.74609 21.0195C9.71387 21.0195 9.6875 21.0063 9.6875 20.9902C9.6875 20.9732 9.58985 20.9609 9.45312 20.9609C9.3164 20.9609 9.21875 20.9732 9.21875 20.9902ZM19.7656 20.9902C19.7656 21.0063 19.7393 21.0195 19.707 21.0195C19.6748 21.0195 19.6484 21.0327 19.6484 21.0488C19.6484 21.0649 19.6221 21.0781 19.5898 21.0781C19.5576 21.0781 19.5312 21.0913 19.5312 21.1074C19.5312 21.1235 19.5109 21.1367 19.486 21.1367C19.4274 21.1367 19.2969 21.2672 19.2969 21.3258C19.2969 21.3507 19.2837 21.3711 19.2676 21.3711C19.2515 21.3711 19.2383 21.3975 19.2383 21.4297C19.2383 21.4619 19.2251 21.4883 19.209 21.4883C19.1929 21.4883 19.1797 21.5146 19.1797 21.5469C19.1797 21.5791 19.1665 21.6055 19.1504 21.6055C19.1311 21.6055 19.1211 22.2988 19.1211 23.627C19.1211 24.9551 19.1311 25.6484 19.1504 25.6484C19.1665 25.6484 19.1797 25.6748 19.1797 25.707C19.1797 25.7393 19.1929 25.7656 19.209 25.7656C19.2251 25.7656 19.2383 25.792 19.2383 25.8242C19.2383 25.8564 19.2515 25.8828 19.2676 25.8828C19.2837 25.8828 19.2969 25.9032 19.2969 25.9281C19.2969 25.9867 19.4274 26.1172 19.486 26.1172C19.5109 26.1172 19.5312 26.1304 19.5312 26.1465C19.5312 26.1626 19.5576 26.1758 19.5898 26.1758C19.6221 26.1758 19.6484 26.189 19.6484 26.2051C19.6484 26.2212 19.6748 26.2344 19.707 26.2344C19.7393 26.2344 19.7656 26.2476 19.7656 26.2637C19.7656 26.2808 19.8633 26.293 20 26.293C20.1367 26.293 20.2344 26.2808 20.2344 26.2637C20.2344 26.2476 20.2607 26.2344 20.293 26.2344C20.3252 26.2344 20.3516 26.2212 20.3516 26.2051C20.3516 26.189 20.3779 26.1758 20.4102 26.1758C20.4424 26.1758 20.4688 26.1626 20.4688 26.1465C20.4688 26.1304 20.4891 26.1172 20.514 26.1172C20.5726 26.1172 20.7031 25.9867 20.7031 25.9281C20.7031 25.9032 20.7163 25.8828 20.7324 25.8828C20.7485 25.8828 20.7617 25.8564 20.7617 25.8242C20.7617 25.792 20.7749 25.7656 20.791 25.7656C20.8071 25.7656 20.8203 25.7393 20.8203 25.707C20.8203 25.6748 20.8335 25.6484 20.8496 25.6484C20.8689 25.6484 20.8789 24.9551 20.8789 23.627C20.8789 22.2988 20.8689 21.6055 20.8496 21.6055C20.8335 21.6055 20.8203 21.5791 20.8203 21.5469C20.8203 21.5146 20.8071 21.4883 20.791 21.4883C20.7749 21.4883 20.7617 21.4619 20.7617 21.4297C20.7617 21.3975 20.7485 21.3711 20.7324 21.3711C20.7163 21.3711 20.7031 21.3507 20.7031 21.3258C20.7031 21.2672 20.5726 21.1367 20.514 21.1367C20.4891 21.1367 20.4688 21.1235 20.4688 21.1074C20.4688 21.0913 20.4424 21.0781 20.4102 21.0781C20.3779 21.0781 20.3516 21.0649 20.3516 21.0488C20.3516 21.0327 20.3252 21.0195 20.293 21.0195C20.2607 21.0195 20.2344 21.0063 20.2344 20.9902C20.2344 20.9732 20.1367 20.9609 20 20.9609C19.8633 20.9609 19.7656 20.9732 19.7656 20.9902ZM30.3125 20.9902C30.3125 21.0063 30.2861 21.0195 30.2539 21.0195C30.2217 21.0195 30.1953 21.0327 30.1953 21.0488C30.1953 21.0649 30.1689 21.0781 30.1367 21.0781C30.1045 21.0781 30.0781 21.0913 30.0781 21.1074C30.0781 21.1235 30.0578 21.1367 30.0329 21.1367C30.008 21.1367 29.9552 21.1691 29.9157 21.2086C29.8761 21.2482 29.8438 21.3009 29.8438 21.3258C29.8438 21.3507 29.8306 21.3711 29.8145 21.3711C29.7983 21.3711 29.7852 21.3975 29.7852 21.4297C29.7852 21.4619 29.772 21.4883 29.7559 21.4883C29.7397 21.4883 29.7266 21.5146 29.7266 21.5469C29.7266 21.5791 29.7134 21.6055 29.6973 21.6055C29.678 21.6055 29.668 22.2988 29.668 23.627C29.668 24.9551 29.678 25.6484 29.6973 25.6484C29.7134 25.6484 29.7266 25.6748 29.7266 25.707C29.7266 25.7393 29.7397 25.7656 29.7559 25.7656C29.772 25.7656 29.7852 25.792 29.7852 25.8242C29.7852 25.8564 29.7983 25.8828 29.8145 25.8828C29.8306 25.8828 29.8438 25.9032 29.8438 25.9281C29.8438 25.9867 29.9742 26.1172 30.0329 26.1172C30.0578 26.1172 30.0781 26.1304 30.0781 26.1465C30.0781 26.1626 30.1045 26.1758 30.1367 26.1758C30.1689 26.1758 30.1953 26.189 30.1953 26.2051C30.1953 26.2212 30.2217 26.2344 30.2539 26.2344C30.2861 26.2344 30.3125 26.2476 30.3125 26.2637C30.3125 26.2808 30.4101 26.293 30.5469 26.293C30.6836 26.293 30.7812 26.2808 30.7812 26.2637C30.7812 26.2476 30.8076 26.2344 30.8398 26.2344C30.8721 26.2344 30.8984 26.2212 30.8984 26.2051C30.8984 26.189 30.9248 26.1758 30.957 26.1758C30.9893 26.1758 31.0156 26.1626 31.0156 26.1465C31.0156 26.1304 31.036 26.1172 31.0609 26.1172C31.1195 26.1172 31.25 25.9867 31.25 25.9281C31.25 25.9032 31.2632 25.8828 31.2793 25.8828C31.2954 25.8828 31.3086 25.8564 31.3086 25.8242C31.3086 25.792 31.3218 25.7656 31.3379 25.7656C31.354 25.7656 31.3672 25.7393 31.3672 25.707C31.3672 25.6748 31.3804 25.6484 31.3965 25.6484C31.4157 25.6484 31.4258 24.9551 31.4258 23.627C31.4258 22.2988 31.4157 21.6055 31.3965 21.6055C31.3804 21.6055 31.3672 21.5791 31.3672 21.5469C31.3672 21.5146 31.354 21.4883 31.3379 21.4883C31.3218 21.4883 31.3086 21.4619 31.3086 21.4297C31.3086 21.3975 31.2954 21.3711 31.2793 21.3711C31.2632 21.3711 31.25 21.3507 31.25 21.3258C31.25 21.2672 31.1195 21.1367 31.0609 21.1367C31.036 21.1367 31.0156 21.1235 31.0156 21.1074C31.0156 21.0913 30.9893 21.0781 30.957 21.0781C30.9248 21.0781 30.8984 21.0649 30.8984 21.0488C30.8984 21.0327 30.8721 21.0195 30.8398 21.0195C30.8076 21.0195 30.7812 21.0063 30.7812 20.9902C30.7812 20.9732 30.6836 20.9609 30.5469 20.9609C30.4101 20.9609 30.3125 20.9732 30.3125 20.9902ZM21.1133 28.0801C21.1133 28.0962 21.0766 28.1094 21.0319 28.1094C20.9841 28.1094 20.933 28.1336 20.9082 28.168C20.885 28.2002 20.8485 28.2266 20.8272 28.2266C20.8058 28.2266 20.756 28.2589 20.7165 28.2985C20.6769 28.338 20.6445 28.3878 20.6445 28.4092C20.6445 28.4305 20.6182 28.467 20.5859 28.4902C20.5515 28.515 20.5273 28.5661 20.5273 28.6139C20.5273 28.6587 20.5142 28.6953 20.498 28.6953C20.481 28.6953 20.4688 28.793 20.4688 28.9297C20.4688 29.0664 20.481 29.1641 20.498 29.1641C20.5142 29.1641 20.5273 29.2007 20.5273 29.2455C20.5273 29.2933 20.5515 29.3443 20.5859 29.3691C20.6182 29.3924 20.6445 29.4284 20.6445 29.4492C20.6445 29.4948 21.3044 30.1602 21.3496 30.1602C21.3672 30.1602 21.4322 30.2129 21.4941 30.2773C21.5561 30.3418 21.6223 30.3945 21.6412 30.3945C21.6602 30.3945 21.7127 30.4341 21.7578 30.4824C21.803 30.5308 21.8581 30.5703 21.8803 30.5703C21.9025 30.5703 21.9397 30.5967 21.9629 30.6289C21.9861 30.6611 22.0257 30.6875 22.0508 30.6875C22.0759 30.6875 22.1154 30.7139 22.1387 30.7461C22.1619 30.7783 22.2044 30.8047 22.233 30.8047C22.2617 30.8047 22.2852 30.8179 22.2852 30.834C22.2852 30.8501 22.3115 30.8633 22.3438 30.8633C22.376 30.8633 22.4023 30.8765 22.4023 30.8926C22.4023 30.9087 22.4287 30.9219 22.4609 30.9219C22.4932 30.9219 22.5195 30.9351 22.5195 30.9512C22.5195 30.9673 22.5459 30.9805 22.5781 30.9805C22.6104 30.9805 22.6367 30.9937 22.6367 31.0098C22.6367 31.0259 22.6631 31.0391 22.6953 31.0391C22.7275 31.0391 22.7539 31.0522 22.7539 31.0684C22.7539 31.0845 22.7803 31.0977 22.8125 31.0977C22.8447 31.0977 22.8711 31.1108 22.8711 31.127C22.8711 31.1431 22.8975 31.1562 22.9297 31.1562C22.9619 31.1562 22.9883 31.1694 22.9883 31.1855C22.9883 31.2017 23.0278 31.2148 23.0762 31.2148C23.1245 31.2148 23.1641 31.228 23.1641 31.2441C23.1641 31.2603 23.2036 31.2734 23.252 31.2734C23.3003 31.2734 23.3398 31.2866 23.3398 31.3027C23.3398 31.319 23.418 31.332 23.5156 31.332C23.6133 31.332 23.6914 31.319 23.6914 31.3027C23.6914 31.2866 23.731 31.2734 23.7793 31.2734C23.8276 31.2734 23.8672 31.2603 23.8672 31.2441C23.8672 31.228 23.8907 31.2148 23.9193 31.2148C23.948 31.2148 23.9904 31.1885 24.0137 31.1562C24.0369 31.124 24.0794 31.0977 24.108 31.0977C24.1385 31.0977 24.1602 31.076 24.1602 31.0455C24.1602 31.0169 24.1865 30.9744 24.2188 30.9512C24.251 30.9279 24.2773 30.8855 24.2773 30.8568C24.2773 30.8282 24.2905 30.8047 24.3066 30.8047C24.3228 30.8047 24.3359 30.7783 24.3359 30.7461C24.3359 30.7139 24.3491 30.6875 24.3652 30.6875C24.3823 30.6875 24.3945 30.5899 24.3945 30.4531C24.3945 30.3164 24.3823 30.2188 24.3652 30.2188C24.3491 30.2188 24.3359 30.1821 24.3359 30.1373C24.3359 30.0895 24.3117 30.0385 24.2773 30.0137C24.2451 29.9904 24.2188 29.954 24.2188 29.9326C24.2188 29.8823 24.0864 29.75 24.0361 29.75C24.0148 29.75 23.9783 29.7236 23.9551 29.6914C23.9303 29.657 23.8792 29.6328 23.8314 29.6328C23.7866 29.6328 23.75 29.6196 23.75 29.6035C23.75 29.5874 23.7236 29.5742 23.6914 29.5742C23.6592 29.5742 23.6328 29.561 23.6328 29.5449C23.6328 29.5288 23.6064 29.5156 23.5742 29.5156C23.542 29.5156 23.5156 29.5024 23.5156 29.4863C23.5156 29.4702 23.4893 29.457 23.457 29.457C23.4248 29.457 23.3984 29.4438 23.3984 29.4277C23.3984 29.4116 23.3721 29.3984 23.3398 29.3984C23.3076 29.3984 23.2812 29.3853 23.2812 29.3691C23.2812 29.353 23.2549 29.3398 23.2227 29.3398C23.1904 29.3398 23.1641 29.3267 23.1641 29.3105C23.1641 29.2944 23.1406 29.2812 23.1119 29.2812C23.0833 29.2812 23.0408 29.2549 23.0176 29.2227C22.9943 29.1904 22.9548 29.1641 22.9297 29.1641C22.9046 29.1641 22.865 29.1377 22.8418 29.1055C22.8186 29.0732 22.782 29.0469 22.7605 29.0469C22.739 29.0469 22.6437 28.9678 22.5488 28.8711C22.4539 28.7744 22.3619 28.6953 22.3444 28.6953C22.3033 28.6953 22.1094 28.502 22.1094 28.4609C22.1094 28.413 21.9121 28.2266 21.8613 28.2266C21.8366 28.2266 21.8164 28.2134 21.8164 28.1973C21.8164 28.1812 21.79 28.168 21.7578 28.168C21.7256 28.168 21.6992 28.1548 21.6992 28.1387C21.6992 28.1226 21.6729 28.1094 21.6406 28.1094C21.6084 28.1094 21.582 28.0962 21.582 28.0801C21.582 28.063 21.4844 28.0508 21.3477 28.0508C21.2109 28.0508 21.1133 28.063 21.1133 28.0801ZM28.9648 28.0801C28.9648 28.0962 28.9385 28.1094 28.9062 28.1094C28.874 28.1094 28.8477 28.1226 28.8477 28.1387C28.8477 28.1548 28.8213 28.168 28.7891 28.168C28.7568 28.168 28.7305 28.1812 28.7305 28.1973C28.7305 28.2134 28.7103 28.2266 28.6856 28.2266C28.6348 28.2266 28.4375 28.413 28.4375 28.4609C28.4375 28.502 28.2436 28.6953 28.2025 28.6953C28.1849 28.6953 28.0929 28.7744 27.998 28.8711C27.9032 28.9678 27.8079 29.0469 27.7864 29.0469C27.7649 29.0469 27.7283 29.0732 27.7051 29.1055C27.6818 29.1377 27.6423 29.1641 27.6172 29.1641C27.5921 29.1641 27.5525 29.1904 27.5293 29.2227C27.5061 29.2549 27.4636 29.2812 27.4349 29.2812C27.4063 29.2812 27.3828 29.2944 27.3828 29.3105C27.3828 29.3267 27.3564 29.3398 27.3242 29.3398C27.292 29.3398 27.2656 29.353 27.2656 29.3691C27.2656 29.3853 27.2393 29.3984 27.207 29.3984C27.1748 29.3984 27.1484 29.4116 27.1484 29.4277C27.1484 29.4438 27.1221 29.457 27.0898 29.457C27.0576 29.457 27.0312 29.4702 27.0312 29.4863C27.0312 29.5024 27.0049 29.5156 26.9727 29.5156C26.9404 29.5156 26.9141 29.5288 26.9141 29.5449C26.9141 29.561 26.8877 29.5742 26.8555 29.5742C26.8232 29.5742 26.7969 29.5874 26.7969 29.6035C26.7969 29.6196 26.7602 29.6328 26.7155 29.6328C26.6676 29.6328 26.6166 29.657 26.5918 29.6914C26.5686 29.7236 26.5321 29.75 26.5108 29.75C26.4605 29.75 26.3281 29.8823 26.3281 29.9326C26.3281 29.954 26.3018 29.9904 26.2695 30.0137C26.2351 30.0385 26.2109 30.0895 26.2109 30.1373C26.2109 30.1821 26.1978 30.2188 26.1816 30.2188C26.1646 30.2188 26.1523 30.3164 26.1523 30.4531C26.1523 30.5899 26.1646 30.6875 26.1816 30.6875C26.1978 30.6875 26.2109 30.7139 26.2109 30.7461C26.2109 30.7783 26.2241 30.8047 26.2402 30.8047C26.2563 30.8047 26.2695 30.8282 26.2695 30.8568C26.2695 30.8855 26.2959 30.9279 26.3281 30.9512C26.3604 30.9744 26.3867 31.0169 26.3867 31.0455C26.3867 31.076 26.4084 31.0977 26.4388 31.0977C26.4675 31.0977 26.51 31.124 26.5332 31.1562C26.5564 31.1885 26.5989 31.2148 26.6276 31.2148C26.6562 31.2148 26.6797 31.228 26.6797 31.2441C26.6797 31.2603 26.7192 31.2734 26.7676 31.2734C26.8159 31.2734 26.8555 31.2866 26.8555 31.3027C26.8555 31.319 26.9336 31.332 27.0312 31.332C27.1289 31.332 27.207 31.319 27.207 31.3027C27.207 31.2866 27.2466 31.2734 27.2949 31.2734C27.3433 31.2734 27.3828 31.2603 27.3828 31.2441C27.3828 31.228 27.4224 31.2148 27.4707 31.2148C27.519 31.2148 27.5586 31.2017 27.5586 31.1855C27.5586 31.1694 27.585 31.1562 27.6172 31.1562C27.6494 31.1562 27.6758 31.1431 27.6758 31.127C27.6758 31.1108 27.7153 31.0977 27.7637 31.0977C27.812 31.0977 27.8516 31.0845 27.8516 31.0684C27.8516 31.0522 27.8779 31.0391 27.9102 31.0391C27.9424 31.0391 27.9688 31.0259 27.9688 31.0098C27.9688 30.9937 27.9922 30.9805 28.0209 30.9805C28.0496 30.9805 28.092 30.9541 28.1152 30.9219C28.1385 30.8896 28.1809 30.8633 28.2096 30.8633C28.2383 30.8633 28.2617 30.8501 28.2617 30.834C28.2617 30.8179 28.2852 30.8047 28.3138 30.8047C28.3425 30.8047 28.385 30.7783 28.4082 30.7461C28.4314 30.7139 28.471 30.6875 28.4961 30.6875C28.5212 30.6875 28.5608 30.6611 28.584 30.6289C28.6072 30.5967 28.6468 30.5703 28.6719 30.5703C28.697 30.5703 28.7365 30.5439 28.7598 30.5117C28.783 30.4795 28.8197 30.4531 28.8414 30.4531C28.863 30.4531 28.945 30.3872 29.0234 30.3066C29.1019 30.2261 29.1803 30.1602 29.1976 30.1602C29.2426 30.1602 29.9023 29.4946 29.9023 29.4492C29.9023 29.4284 29.9287 29.3924 29.9609 29.3691C29.9953 29.3443 30.0195 29.2933 30.0195 29.2455C30.0195 29.2007 30.0327 29.1641 30.0488 29.1641C30.0659 29.1641 30.0781 29.0664 30.0781 28.9297C30.0781 28.793 30.0659 28.6953 30.0488 28.6953C30.0327 28.6953 30.0195 28.6587 30.0195 28.6139C30.0195 28.5661 29.9953 28.515 29.9609 28.4902C29.9287 28.467 29.9023 28.4305 29.9023 28.4092C29.9023 28.3589 29.77 28.2266 29.7197 28.2266C29.6984 28.2266 29.6619 28.2002 29.6387 28.168C29.6139 28.1336 29.5628 28.1094 29.515 28.1094C29.4702 28.1094 29.4336 28.0962 29.4336 28.0801C29.4336 28.063 29.3359 28.0508 29.1992 28.0508C29.0625 28.0508 28.9648 28.063 28.9648 28.0801Z" fill="#DD2A1B"/>
</svg>
