<svg width="40" height="40" viewBox="0 0 40 40" fill="none" xmlns="http://www.w3.org/2000/svg">
<path fill-rule="evenodd" clip-rule="evenodd" d="M28.6337 16.4896L32.071 17.6854C33.8229 18.2949 35 19.9507 35 21.8057V24.3863C35 24.8717 34.6065 25.2652 34.1211 25.2652H30.6624C30.2728 26.7393 28.9282 27.8295 27.3333 27.8295C25.7384 27.8295 24.3938 26.7393 24.0042 25.2652H15.8738C15.4843 26.7393 14.1396 27.8295 12.5448 27.8295C10.9499 27.8295 9.60523 26.7393 9.2157 25.2652H5.87891C5.39352 25.2652 5 24.8717 5 24.3863V20.1253C5 18.1982 6.45494 16.6046 8.32396 16.3852L9.98568 14.3189C11.1708 12.8452 12.9351 12 14.8262 12H22.0126C23.8805 12 25.6311 12.8283 26.8156 14.2727L28.6337 16.4896ZM26.2537 16.3595L25.4564 15.3874C24.6071 14.3518 23.3519 13.7578 22.0127 13.7578H19.3174V16.3594H22.0466L21.7857 15.9681C21.5165 15.5642 21.6256 15.0185 22.0295 14.7493C22.4333 14.48 22.979 14.5891 23.2483 14.993L24.1593 16.3595H26.2537ZM17.5595 13.7578H14.8262C13.4703 13.7578 12.2052 14.3638 11.3555 15.4205L10.6004 16.3595H17.5595V13.7578ZM10.8594 24.3863C10.8594 25.3156 11.6154 26.0716 12.5447 26.0716C13.4741 26.0716 14.2301 25.3156 14.2301 24.3863C14.2301 23.457 13.474 22.701 12.5447 22.701C11.6154 22.701 10.8594 23.457 10.8594 24.3863ZM25.6479 24.3863C25.6479 25.3156 26.4039 26.0716 27.3332 26.0716C28.2625 26.0716 29.0186 25.3156 29.0186 24.3863C29.0186 23.457 28.2625 22.701 27.3332 22.701C26.4039 22.701 25.6479 23.457 25.6479 24.3863ZM30.6623 23.5074H33.2422V21.8057C33.2422 21.7867 33.2417 21.7678 33.2412 21.7488L33.2409 21.7393H31.905C31.4196 21.7393 31.0261 21.3458 31.0261 20.8604C31.0261 20.375 31.4196 19.9815 31.905 19.9815H32.4958C32.2208 19.701 31.8808 19.4805 31.4934 19.3457L27.9625 18.1174H23.6925C23.6915 18.1174 23.6906 18.1175 23.6896 18.1175C23.6894 18.1175 23.6891 18.1175 23.6888 18.1174C23.6885 18.1174 23.6883 18.1174 23.688 18.1174H8.76576C7.70697 18.1174 6.83762 18.9412 6.76355 19.9814H7.63672C8.12211 19.9814 8.51562 20.3749 8.51562 20.8603C8.51562 21.3457 8.12211 21.7392 7.63672 21.7392H6.75781V23.5074H9.21564C9.60518 22.0333 10.9498 20.9432 12.5447 20.9432C14.1396 20.9432 15.4842 22.0332 15.8738 23.5074H24.0042C24.3937 22.0333 25.7384 20.9432 27.3332 20.9432C28.9281 20.9432 30.2728 22.0332 30.6623 23.5074ZM20.5985 19.9815H21.7703C22.2557 19.9815 22.6493 20.375 22.6493 20.8604C22.6493 21.3457 22.2557 21.7393 21.7703 21.7393H20.5985C20.1131 21.7393 19.7196 21.3457 19.7196 20.8604C19.7196 20.375 20.1131 19.9815 20.5985 19.9815Z" fill="#DD2A1B"/>
</svg>
