<svg width="40" height="40" viewBox="0 0 40 40" fill="none" xmlns="http://www.w3.org/2000/svg">
<path fill-rule="evenodd" clip-rule="evenodd" d="M27.3365 13.52L34.0229 18.9358C34.653 19.4463 35 20.1738 35 20.9849V26.6797C35 28.1335 33.8171 29.3164 32.3633 29.3164H31.2621C30.8879 30.5037 29.7766 31.3672 28.4672 31.3672C27.1578 31.3672 26.0465 30.5037 25.6724 29.3164H14.9434C14.5691 30.5037 13.4579 31.3672 12.1484 31.3672C10.839 31.3672 9.72778 30.5037 9.35352 29.3164H7.63672C6.18286 29.3164 5 28.1335 5 26.6797V14.7852C5 13.3313 6.18286 12.1484 7.63672 12.1484H18.4766V10.3906C18.4766 9.42139 19.2651 8.63281 20.2344 8.63281H22.8125C23.7817 8.63281 24.5703 9.42139 24.5703 10.3906V12.241C25.5814 12.415 26.4939 12.8374 27.3365 13.52ZM26.1654 20.5273H33.1191C33.0679 20.4451 33.0006 20.3699 32.9165 20.3018L29.3339 17.3999C29.2716 17.4138 29.207 17.4219 29.1406 17.4219H26.1654V20.5273ZM17.8906 17.4219V20.5273H24.4076V17.4219H17.8906ZM22.8125 10.3906H20.234L20.2343 12.1484H22.8125V10.3906ZM10.9766 28.4375C10.9766 29.0837 11.5023 29.6094 12.1484 29.6094C12.7946 29.6094 13.3203 29.0837 13.3203 28.4375C13.3203 27.7913 12.7946 27.2656 12.1484 27.2656C11.5023 27.2656 10.9766 27.7913 10.9766 28.4375ZM27.2953 28.4375C27.2953 29.0837 27.821 29.6094 28.4672 29.6094C29.1134 29.6094 29.6392 29.0837 29.6392 28.4375C29.6392 27.7913 29.1134 27.2656 28.4672 27.2656C27.821 27.2656 27.2953 27.7913 27.2953 28.4375ZM31.2621 27.5586H32.3633C32.8479 27.5586 33.2422 27.1643 33.2422 26.6797V25.8008H33.0046C32.5193 25.8008 32.1257 25.4072 32.1257 24.9219C32.1257 24.4365 32.5193 24.043 33.0046 24.043H33.2422V22.2852H17.8906C16.9214 22.2852 16.1328 21.4966 16.1328 20.5273V17.4219C16.1328 16.4526 16.9214 15.6641 17.8906 15.6641H27.1909L26.2301 14.886C25.4058 14.2183 24.5278 13.9067 23.4673 13.9062H7.63672C7.1521 13.9062 6.75781 14.3005 6.75781 14.7852V24.043H6.99524C7.48071 24.043 7.87415 24.4365 7.87415 24.9219C7.87415 25.4072 7.48071 25.8008 6.99524 25.8008H6.75781V26.6797C6.75781 27.1643 7.1521 27.5586 7.63672 27.5586H9.35364C9.72791 26.3713 10.8391 25.5078 12.1484 25.5078C13.4578 25.5078 14.569 26.3713 14.9432 27.5586H25.6724C26.0466 26.3713 27.1578 25.5078 28.4672 25.5078C29.7765 25.5078 30.8878 26.3713 31.2621 27.5586ZM11.4746 16.2656C11.9634 16.2656 12.2524 16.6399 12.4636 16.9131C12.564 17.043 12.6709 17.1919 12.7776 17.3501C12.859 17.4707 12.9404 17.5967 13.0188 17.7236C13.5603 18.6025 13.8348 19.3142 13.8348 19.8384C13.8348 21.1399 12.7761 22.1987 11.4746 22.1987C10.1732 22.1987 9.1145 21.1399 9.1145 19.8384C9.1145 19.3142 9.38904 18.6025 9.93042 17.7236C10.1113 17.4302 10.3085 17.1421 10.4856 16.9131C10.6967 16.6399 10.9858 16.2656 11.4746 16.2656ZM10.8722 19.8418C10.8723 20.1707 11.1425 20.4409 11.4746 20.4409C11.8068 20.4409 12.0769 20.1707 12.0769 19.8384C12.0649 19.6006 11.7722 19.0427 11.4746 18.5669C11.2909 18.8608 11.1089 19.1865 10.9937 19.449C10.9224 19.6116 10.8767 19.75 10.8722 19.8418Z" fill="#DD2A1B"/>
</svg>
