<svg width="40" height="40" viewBox="0 0 40 40" fill="none" xmlns="http://www.w3.org/2000/svg">
<path d="M32.3633 21.3048H29.2594L26.0047 16.4228C25.8417 16.1783 25.5673 16.0314 25.2734 16.0314H24.3945V14.2734H25.2734C25.7588 14.2734 26.1523 13.8799 26.1523 13.3945C26.1523 12.9091 25.7588 12.5156 25.2734 12.5156H22.6367V9.87891C22.6367 9.39352 22.2432 9 21.7578 9C21.1648 9 11.7375 9 11.1523 9C10.667 9 10.2734 9.39352 10.2734 9.87891V12.5156H7.63672C7.15133 12.5156 6.75781 12.9091 6.75781 13.3945C6.75781 13.8799 7.15133 14.2734 7.63672 14.2734H8.51562V16.0314H7.63672C7.25844 16.0314 6.92258 16.2734 6.80293 16.6323L5.04512 21.9057C5.01887 21.9838 5 22.0904 5 22.1837V29.215C5 29.7004 5.39352 30.0939 5.87891 30.0933H10.4247C10.7875 31.1167 11.7644 31.8516 12.9102 31.8516C14.0559 31.8516 15.0328 31.1167 15.3956 30.0933H24.5458C24.9086 31.1167 25.8855 31.8516 27.0312 31.8516C28.177 31.8516 29.1539 31.1167 29.5167 30.0933H34.1211C34.6065 30.0939 35 29.7004 35 29.215V23.9415C35 22.4876 33.8172 21.3048 32.3633 21.3048ZM27.1469 21.3048H19.1211C19.1211 20.2345 19.1211 18.8283 19.1211 17.7886L24.8031 17.7892L27.1469 21.3048ZM12.3718 21.3048L13.5437 17.7886H17.3633V21.3048H12.3718ZM20.8789 12.5156H17.3633V10.7578H20.8789V12.5156ZM12.0312 10.7578H15.6055V12.5156H12.0312V10.7578ZM10.2734 14.2734H22.6367V16.0314C20.7051 16.0314 11.5271 16.0314 10.2734 16.0314V14.2734ZM8.27023 17.7892L11.6908 17.7886L10.5189 21.3048H7.09836L8.27023 17.7892ZM12.9102 30.0938C12.4255 30.0938 12.0312 29.6995 12.0312 29.2148C12.0312 28.7302 12.4255 28.3359 12.9102 28.3359C13.3948 28.3359 13.7891 28.7302 13.7891 29.2148C13.7891 29.6995 13.3948 30.0938 12.9102 30.0938ZM27.0312 30.0938C26.5466 30.0938 26.1523 29.6995 26.1523 29.2148C26.1523 28.7302 26.5466 28.3359 27.0312 28.3359C27.5159 28.3359 27.9102 28.7302 27.9102 29.2148C27.9102 29.6995 27.5159 30.0938 27.0312 30.0938ZM29.5168 28.3361C29.154 27.313 28.1771 26.5781 27.0312 26.5781C25.8854 26.5781 24.9085 27.313 24.5457 28.3361H15.3957C15.0329 27.313 14.056 26.5781 12.9102 26.5781C11.7643 26.5781 10.7874 27.313 10.4246 28.3361H6.75781V26.5777H7.63672C8.12211 26.5777 8.51562 26.1847 8.51562 25.6993C8.51562 25.2139 8.12211 24.8204 7.63672 24.8204H6.75781V23.062H32.3633C32.8479 23.062 33.2422 23.4569 33.2422 23.9415V24.8204H31.4844C30.999 24.8204 30.6055 25.2139 30.6055 25.6993C30.6055 26.1847 30.999 26.5777 31.4844 26.5777H33.2422V28.3361H29.5168Z" fill="#DD2A1B"/>
</svg>
