<svg width="40" height="40" viewBox="0 0 40 40" fill="none" xmlns="http://www.w3.org/2000/svg">
<path fill-rule="evenodd" clip-rule="evenodd" d="M8.13281 11.0273C8.13281 11.0424 8.07129 11.0547 7.99609 11.0547C7.9209 11.0547 7.85938 11.067 7.85938 11.082C7.85938 11.0971 7.81016 11.1094 7.75 11.1094C7.68984 11.1094 7.64062 11.1217 7.64062 11.1367C7.64062 11.1518 7.61602 11.1641 7.58594 11.1641C7.55586 11.1641 7.53125 11.1764 7.53125 11.1914C7.53125 11.2064 7.50664 11.2188 7.47656 11.2188C7.44648 11.2188 7.42188 11.2311 7.42188 11.2461C7.42188 11.2611 7.39727 11.2734 7.36719 11.2734C7.33711 11.2734 7.3125 11.2857 7.3125 11.3008C7.3125 11.3158 7.28789 11.3281 7.25781 11.3281C7.22773 11.3281 7.20312 11.3404 7.20312 11.3555C7.20312 11.3705 7.18346 11.3828 7.1594 11.3828C7.13537 11.3828 7.0812 11.4197 7.03906 11.4648C6.99693 11.51 6.94872 11.5469 6.93196 11.5469C6.88922 11.5469 6.49219 11.9484 6.49219 11.9916C6.49219 12.0111 6.46758 12.0447 6.4375 12.0664C6.40742 12.0881 6.38281 12.1277 6.38281 12.1545C6.38281 12.1812 6.37051 12.2031 6.35547 12.2031C6.34043 12.2031 6.32812 12.2277 6.32812 12.2578C6.32812 12.2879 6.31582 12.3125 6.30078 12.3125C6.28574 12.3125 6.27344 12.3371 6.27344 12.3672C6.27344 12.3973 6.26113 12.4219 6.24609 12.4219C6.23105 12.4219 6.21875 12.4465 6.21875 12.4766C6.21875 12.5066 6.20645 12.5312 6.19141 12.5312C6.17637 12.5312 6.16406 12.5559 6.16406 12.5859C6.16406 12.616 6.15176 12.6406 6.13672 12.6406C6.12168 12.6406 6.10938 12.6898 6.10938 12.75C6.10938 12.8102 6.09707 12.8594 6.08203 12.8594C6.06699 12.8594 6.05469 12.9209 6.05469 12.9961C6.05469 13.0713 6.04238 13.1328 6.02734 13.1328C6.00919 13.1328 6 15.1745 6 19.2031C6 23.2318 6.00919 25.2734 6.02734 25.2734C6.04238 25.2734 6.05469 25.335 6.05469 25.4102C6.05469 25.4854 6.06699 25.5469 6.08203 25.5469C6.09707 25.5469 6.10938 25.5961 6.10938 25.6562C6.10938 25.7164 6.12168 25.7656 6.13672 25.7656C6.15176 25.7656 6.16406 25.7902 6.16406 25.8203C6.16406 25.8504 6.17637 25.875 6.19141 25.875C6.20645 25.875 6.21875 25.8996 6.21875 25.9297C6.21875 25.9598 6.23105 25.9844 6.24609 25.9844C6.26113 25.9844 6.27344 26.009 6.27344 26.0391C6.27344 26.0691 6.28574 26.0938 6.30078 26.0938C6.31582 26.0938 6.32812 26.1184 6.32812 26.1484C6.32812 26.1785 6.34043 26.2031 6.35547 26.2031C6.37051 26.2031 6.38281 26.225 6.38281 26.2518C6.38281 26.2785 6.40742 26.3182 6.4375 26.3398C6.46758 26.3615 6.49219 26.3952 6.49219 26.4147C6.49219 26.4579 6.88922 26.8594 6.93196 26.8594C6.94872 26.8594 6.99693 26.8963 7.03906 26.9414C7.0812 26.9865 7.13537 27.0234 7.1594 27.0234C7.18346 27.0234 7.20312 27.0357 7.20312 27.0508C7.20312 27.0658 7.22773 27.0781 7.25781 27.0781C7.28789 27.0781 7.3125 27.0904 7.3125 27.1055C7.3125 27.1205 7.33711 27.1328 7.36719 27.1328C7.39727 27.1328 7.42188 27.1451 7.42188 27.1602C7.42188 27.1752 7.44648 27.1875 7.47656 27.1875C7.50664 27.1875 7.53125 27.1998 7.53125 27.2148C7.53125 27.2299 7.55586 27.2422 7.58594 27.2422C7.61602 27.2422 7.64062 27.2545 7.64062 27.2695C7.64062 27.2846 7.68984 27.2969 7.75 27.2969C7.81016 27.2969 7.85938 27.3092 7.85938 27.3242C7.85938 27.3393 7.9209 27.3516 7.99609 27.3516C8.07129 27.3516 8.13281 27.3639 8.13281 27.3789C8.13281 27.3965 8.41123 27.4062 8.91334 27.4062H9.69389L9.761 27.4734C9.79791 27.5103 9.82812 27.5568 9.82812 27.5767C9.82812 27.5966 9.85273 27.6307 9.88281 27.6523C9.91289 27.674 9.9375 27.7076 9.9375 27.727C9.9375 27.7731 10.5551 28.3906 10.6011 28.3906C10.6205 28.3906 10.6541 28.4152 10.6758 28.4453C10.6975 28.4754 10.7344 28.5 10.7578 28.5C10.7812 28.5 10.8182 28.5246 10.8398 28.5547C10.8615 28.5848 10.9011 28.6094 10.9279 28.6094C10.9547 28.6094 10.9766 28.6217 10.9766 28.6367C10.9766 28.6518 11.0012 28.6641 11.0312 28.6641C11.0613 28.6641 11.0859 28.6764 11.0859 28.6914C11.0859 28.7064 11.1105 28.7188 11.1406 28.7188C11.1707 28.7188 11.1953 28.7311 11.1953 28.7461C11.1953 28.7611 11.2199 28.7734 11.25 28.7734C11.2801 28.7734 11.3047 28.7857 11.3047 28.8008C11.3047 28.8158 11.3416 28.8281 11.3867 28.8281C11.4318 28.8281 11.4688 28.8404 11.4688 28.8555C11.4688 28.8705 11.5057 28.8828 11.5508 28.8828C11.5959 28.8828 11.6328 28.8951 11.6328 28.9102C11.6328 28.9252 11.682 28.9375 11.7422 28.9375C11.8023 28.9375 11.8516 28.9498 11.8516 28.9648C11.8516 28.98 11.9245 28.9922 12.0156 28.9922C12.1068 28.9922 12.1797 29.0043 12.1797 29.0195C12.1797 29.0365 12.3255 29.0469 12.5625 29.0469C12.7995 29.0469 12.9453 29.0365 12.9453 29.0195C12.9453 29.0043 13.0182 28.9922 13.1094 28.9922C13.2005 28.9922 13.2734 28.98 13.2734 28.9648C13.2734 28.9498 13.3227 28.9375 13.3828 28.9375C13.443 28.9375 13.4922 28.9252 13.4922 28.9102C13.4922 28.8951 13.5291 28.8828 13.5742 28.8828C13.6193 28.8828 13.6562 28.8705 13.6562 28.8555C13.6562 28.8404 13.6809 28.8281 13.7109 28.8281C13.741 28.8281 13.7656 28.8158 13.7656 28.8008C13.7656 28.7857 13.8025 28.7734 13.8477 28.7734C13.8928 28.7734 13.9297 28.7611 13.9297 28.7461C13.9297 28.7311 13.9543 28.7188 13.9844 28.7188C14.0145 28.7188 14.0391 28.7064 14.0391 28.6914C14.0391 28.6764 14.0637 28.6641 14.0938 28.6641C14.1238 28.6641 14.1484 28.6518 14.1484 28.6367C14.1484 28.6217 14.1703 28.6094 14.1971 28.6094C14.2239 28.6094 14.2635 28.5848 14.2852 28.5547C14.3068 28.5246 14.3415 28.5 14.3623 28.5C14.383 28.5 14.4344 28.4631 14.4766 28.418C14.5187 28.3729 14.5669 28.3359 14.5836 28.3359C14.6233 28.3359 15.1328 27.8264 15.1328 27.7867C15.1328 27.77 15.1697 27.7218 15.2148 27.6797C15.26 27.6376 15.2969 27.589 15.2969 27.5718C15.2969 27.5546 15.3271 27.5103 15.364 27.4734L15.4311 27.4062H20H24.5689L24.636 27.4734C24.6729 27.5103 24.7031 27.5568 24.7031 27.5767C24.7031 27.5966 24.7277 27.6307 24.7578 27.6523C24.7879 27.674 24.8125 27.7076 24.8125 27.727C24.8125 27.7464 24.9539 27.9037 25.1267 28.0765C25.2995 28.2493 25.4567 28.3906 25.4761 28.3906C25.4955 28.3906 25.5291 28.4152 25.5508 28.4453C25.5725 28.4754 25.6094 28.5 25.6328 28.5C25.6562 28.5 25.6932 28.5246 25.7148 28.5547C25.7365 28.5848 25.7761 28.6094 25.8029 28.6094C25.8297 28.6094 25.8516 28.6217 25.8516 28.6367C25.8516 28.6518 25.8762 28.6641 25.9062 28.6641C25.9363 28.6641 25.9609 28.6764 25.9609 28.6914C25.9609 28.7064 25.9855 28.7188 26.0156 28.7188C26.0457 28.7188 26.0703 28.7311 26.0703 28.7461C26.0703 28.7611 26.0949 28.7734 26.125 28.7734C26.1551 28.7734 26.1797 28.7857 26.1797 28.8008C26.1797 28.8158 26.2166 28.8281 26.2617 28.8281C26.3068 28.8281 26.3438 28.8404 26.3438 28.8555C26.3438 28.8705 26.3807 28.8828 26.4258 28.8828C26.4709 28.8828 26.5078 28.8951 26.5078 28.9102C26.5078 28.9252 26.557 28.9375 26.6172 28.9375C26.6773 28.9375 26.7266 28.9498 26.7266 28.9648C26.7266 28.98 26.7995 28.9922 26.8906 28.9922C26.9818 28.9922 27.0547 29.0043 27.0547 29.0195C27.0547 29.0365 27.2005 29.0469 27.4375 29.0469C27.6745 29.0469 27.8203 29.0365 27.8203 29.0195C27.8203 29.0043 27.8932 28.9922 27.9844 28.9922C28.0755 28.9922 28.1484 28.98 28.1484 28.9648C28.1484 28.9498 28.1977 28.9375 28.2578 28.9375C28.318 28.9375 28.3672 28.9252 28.3672 28.9102C28.3672 28.8951 28.4041 28.8828 28.4492 28.8828C28.4943 28.8828 28.5312 28.8705 28.5312 28.8555C28.5312 28.8404 28.5559 28.8281 28.5859 28.8281C28.616 28.8281 28.6406 28.8158 28.6406 28.8008C28.6406 28.7857 28.6775 28.7734 28.7227 28.7734C28.7678 28.7734 28.8047 28.7611 28.8047 28.7461C28.8047 28.7311 28.8293 28.7188 28.8594 28.7188C28.8895 28.7188 28.9141 28.7064 28.9141 28.6914C28.9141 28.6764 28.936 28.6641 28.9627 28.6641C28.9895 28.6641 29.0291 28.6395 29.0508 28.6094C29.0725 28.5793 29.1121 28.5547 29.1389 28.5547C29.1656 28.5547 29.1875 28.5424 29.1875 28.5273C29.1875 28.5123 29.2072 28.5 29.2312 28.5C29.2553 28.5 29.3094 28.4631 29.3516 28.418C29.3937 28.3729 29.4419 28.3359 29.4586 28.3359C29.4983 28.3359 29.9531 27.8812 29.9531 27.8414C29.9531 27.8247 29.99 27.7765 30.0352 27.7344C30.0803 27.6922 30.1172 27.6408 30.1172 27.6201C30.1172 27.5994 30.1418 27.5647 30.1719 27.543C30.202 27.5213 30.2266 27.4817 30.2266 27.4549C30.2266 27.4093 30.2787 27.4062 31.0469 27.4062C31.5755 27.4062 31.8672 27.3965 31.8672 27.3789C31.8672 27.3639 31.9287 27.3516 32.0039 27.3516C32.0791 27.3516 32.1406 27.3393 32.1406 27.3242C32.1406 27.3092 32.1775 27.2969 32.2227 27.2969C32.2678 27.2969 32.3047 27.2846 32.3047 27.2695C32.3047 27.2545 32.3416 27.2422 32.3867 27.2422C32.4318 27.2422 32.4688 27.2299 32.4688 27.2148C32.4688 27.1998 32.4934 27.1875 32.5234 27.1875C32.5535 27.1875 32.5781 27.1752 32.5781 27.1602C32.5781 27.1451 32.6027 27.1328 32.6328 27.1328C32.6629 27.1328 32.6875 27.1205 32.6875 27.1055C32.6875 27.0904 32.7121 27.0781 32.7422 27.0781C32.7723 27.0781 32.7969 27.0658 32.7969 27.0508C32.7969 27.0357 32.8165 27.0234 32.8406 27.0234C32.8646 27.0234 32.9188 26.9865 32.9609 26.9414C33.0031 26.8963 33.0513 26.8594 33.0681 26.8594C33.1079 26.8594 33.4531 26.5142 33.4531 26.4744C33.4531 26.4576 33.49 26.4093 33.5352 26.3672C33.5803 26.3251 33.6172 26.2709 33.6172 26.2468C33.6172 26.2228 33.6295 26.2031 33.6445 26.2031C33.6596 26.2031 33.6719 26.1785 33.6719 26.1484C33.6719 26.1184 33.6842 26.0938 33.6992 26.0938C33.7143 26.0938 33.7266 26.0691 33.7266 26.0391C33.7266 26.009 33.7389 25.9844 33.7539 25.9844C33.7689 25.9844 33.7812 25.9598 33.7812 25.9297C33.7812 25.8996 33.7936 25.875 33.8086 25.875C33.8236 25.875 33.8359 25.8381 33.8359 25.793C33.8359 25.7479 33.8482 25.7109 33.8633 25.7109C33.8783 25.7109 33.8906 25.674 33.8906 25.6289C33.8906 25.5838 33.9029 25.5469 33.918 25.5469C33.933 25.5469 33.9453 25.4854 33.9453 25.4102C33.9453 25.335 33.9576 25.2734 33.9727 25.2734C33.9907 25.2734 34 24.3529 34 22.5664C34 20.78 33.9907 19.8594 33.9727 19.8594C33.9576 19.8594 33.9453 19.8225 33.9453 19.7773C33.9453 19.7322 33.933 19.6953 33.918 19.6953C33.9029 19.6953 33.8906 19.6584 33.8906 19.6133C33.8906 19.5682 33.8783 19.5312 33.8633 19.5312C33.8482 19.5312 33.8359 19.5066 33.8359 19.4766C33.8359 19.4465 33.8236 19.4219 33.8086 19.4219C33.7936 19.4219 33.7812 19.385 33.7812 19.3398C33.7812 19.2947 33.7689 19.2578 33.7539 19.2578C33.7389 19.2578 33.7266 19.2332 33.7266 19.2031C33.7266 19.173 33.7143 19.1484 33.6992 19.1484C33.6842 19.1484 33.6719 19.1115 33.6719 19.0664C33.6719 19.0213 33.6596 18.9844 33.6445 18.9844C33.6295 18.9844 33.6172 18.9598 33.6172 18.9297C33.6172 18.8996 33.6049 18.875 33.5898 18.875C33.5748 18.875 33.5625 18.8381 33.5625 18.793C33.5625 18.7479 33.5502 18.7109 33.5352 18.7109C33.5201 18.7109 33.5078 18.6863 33.5078 18.6562C33.5078 18.6262 33.4955 18.6016 33.4805 18.6016C33.4654 18.6016 33.4531 18.5646 33.4531 18.5195C33.4531 18.4744 33.4408 18.4375 33.4258 18.4375C33.4107 18.4375 33.3984 18.4129 33.3984 18.3828C33.3984 18.3527 33.3861 18.3281 33.3711 18.3281C33.3561 18.3281 33.3438 18.2912 33.3438 18.2461C33.3438 18.201 33.3314 18.1641 33.3164 18.1641C33.3014 18.1641 33.2891 18.1395 33.2891 18.1094C33.2891 18.0793 33.2768 18.0547 33.2617 18.0547C33.2467 18.0547 33.2344 18.0178 33.2344 17.9727C33.2344 17.9275 33.2221 17.8906 33.207 17.8906C33.192 17.8906 33.1797 17.866 33.1797 17.8359C33.1797 17.8059 33.1674 17.7812 33.1523 17.7812C33.1373 17.7812 33.125 17.7443 33.125 17.6992C33.125 17.6541 33.1127 17.6172 33.0977 17.6172C33.0826 17.6172 33.0703 17.5926 33.0703 17.5625C33.0703 17.5324 33.058 17.5078 33.043 17.5078C33.0279 17.5078 33.0156 17.4709 33.0156 17.4258C33.0156 17.3807 33.0033 17.3438 32.9883 17.3438C32.9732 17.3438 32.9609 17.3191 32.9609 17.2891C32.9609 17.259 32.9486 17.2344 32.9336 17.2344C32.9186 17.2344 32.9062 17.1975 32.9062 17.1523C32.9062 17.1072 32.8939 17.0703 32.8789 17.0703C32.8639 17.0703 32.8516 17.0457 32.8516 17.0156C32.8516 16.9855 32.8393 16.9609 32.8242 16.9609C32.8092 16.9609 32.7969 16.924 32.7969 16.8789C32.7969 16.8338 32.7846 16.7969 32.7695 16.7969C32.7545 16.7969 32.7422 16.7723 32.7422 16.7422C32.7422 16.7121 32.7299 16.6875 32.7148 16.6875C32.6998 16.6875 32.6875 16.6506 32.6875 16.6055C32.6875 16.5604 32.6752 16.5234 32.6602 16.5234C32.6451 16.5234 32.6328 16.4988 32.6328 16.4688C32.6328 16.4387 32.6205 16.4141 32.6055 16.4141C32.5904 16.4141 32.5781 16.3771 32.5781 16.332C32.5781 16.2869 32.5658 16.25 32.5508 16.25C32.5357 16.25 32.5234 16.2254 32.5234 16.1953C32.5234 16.1652 32.5111 16.1406 32.4961 16.1406C32.4811 16.1406 32.4688 16.1037 32.4688 16.0586C32.4688 16.0135 32.4564 15.9766 32.4414 15.9766C32.4264 15.9766 32.4141 15.952 32.4141 15.9219C32.4141 15.8918 32.4018 15.8672 32.3867 15.8672C32.3717 15.8672 32.3594 15.8303 32.3594 15.7852C32.3594 15.74 32.3471 15.7031 32.332 15.7031C32.317 15.7031 32.3047 15.6785 32.3047 15.6484C32.3047 15.6184 32.2924 15.5938 32.2773 15.5938C32.2623 15.5938 32.25 15.5568 32.25 15.5117C32.25 15.4666 32.2377 15.4297 32.2227 15.4297C32.2076 15.4297 32.1953 15.4051 32.1953 15.375C32.1953 15.3449 32.183 15.3203 32.168 15.3203C32.1529 15.3203 32.1406 15.2834 32.1406 15.2383C32.1406 15.1932 32.1283 15.1562 32.1133 15.1562C32.0982 15.1562 32.0859 15.1316 32.0859 15.1016C32.0859 15.0715 32.0736 15.0469 32.0586 15.0469C32.0436 15.0469 32.0312 15.01 32.0312 14.9648C32.0312 14.9197 32.0189 14.8828 32.0039 14.8828C31.9889 14.8828 31.9766 14.8582 31.9766 14.8281C31.9766 14.798 31.9643 14.7734 31.9492 14.7734C31.9342 14.7734 31.9219 14.7365 31.9219 14.6914C31.9219 14.6463 31.9096 14.6094 31.8945 14.6094C31.8795 14.6094 31.8672 14.5848 31.8672 14.5547C31.8672 14.5246 31.8549 14.5 31.8398 14.5C31.8248 14.5 31.8125 14.4631 31.8125 14.418C31.8125 14.3729 31.8002 14.3359 31.7852 14.3359C31.7701 14.3359 31.7578 14.3113 31.7578 14.2812C31.7578 14.2512 31.7455 14.2266 31.7305 14.2266C31.7154 14.2266 31.7031 14.1896 31.7031 14.1445C31.7031 14.0994 31.6908 14.0625 31.6758 14.0625C31.6607 14.0625 31.6484 14.0379 31.6484 14.0078C31.6484 13.9777 31.6361 13.9531 31.6211 13.9531C31.6061 13.9531 31.5938 13.9162 31.5938 13.8711C31.5938 13.826 31.5814 13.7891 31.5664 13.7891C31.5514 13.7891 31.5391 13.7645 31.5391 13.7344C31.5391 13.7043 31.5268 13.6797 31.5117 13.6797C31.4967 13.6797 31.4844 13.6428 31.4844 13.5977C31.4844 13.5525 31.4721 13.5156 31.457 13.5156C31.442 13.5156 31.4297 13.491 31.4297 13.4609C31.4297 13.4309 31.4174 13.4062 31.4023 13.4062C31.3873 13.4062 31.375 13.3693 31.375 13.3242C31.375 13.2791 31.3627 13.2422 31.3477 13.2422C31.3326 13.2422 31.3203 13.2176 31.3203 13.1875C31.3203 13.1574 31.308 13.1328 31.293 13.1328C31.2779 13.1328 31.2656 13.0959 31.2656 13.0508C31.2656 13.0057 31.2533 12.9688 31.2383 12.9688C31.2232 12.9688 31.2109 12.9441 31.2109 12.9141C31.2109 12.884 31.1986 12.8594 31.1836 12.8594C31.1686 12.8594 31.1562 12.8225 31.1562 12.7773C31.1562 12.7322 31.1439 12.6953 31.1289 12.6953C31.1139 12.6953 31.1016 12.6707 31.1016 12.6406C31.1016 12.6105 31.0893 12.5859 31.0742 12.5859C31.0592 12.5859 31.0469 12.5613 31.0469 12.5312C31.0469 12.5012 31.0346 12.4766 31.0195 12.4766C31.0045 12.4766 30.9922 12.4424 30.9922 12.4006C30.9922 12.3559 30.9696 12.3083 30.9375 12.2852C30.9074 12.2635 30.8828 12.2239 30.8828 12.1971C30.8828 12.1703 30.8705 12.1484 30.8555 12.1484C30.8404 12.1484 30.8281 12.129 30.8281 12.1053C30.8281 12.0815 30.7789 12.0148 30.7188 11.957C30.6586 11.8992 30.6094 11.8383 30.6094 11.8215C30.6094 11.7817 30.4288 11.6016 30.3888 11.6016C30.3718 11.6016 30.3234 11.5646 30.2812 11.5195C30.2391 11.4744 30.1877 11.4375 30.167 11.4375C30.1462 11.4375 30.1115 11.4129 30.0898 11.3828C30.0682 11.3527 30.0285 11.3281 30.0018 11.3281C29.975 11.3281 29.9531 11.3158 29.9531 11.3008C29.9531 11.2857 29.9285 11.2734 29.8984 11.2734C29.8684 11.2734 29.8438 11.2611 29.8438 11.2461C29.8438 11.2311 29.8191 11.2188 29.7891 11.2188C29.759 11.2188 29.7344 11.2064 29.7344 11.1914C29.7344 11.1764 29.6975 11.1641 29.6523 11.1641C29.6072 11.1641 29.5703 11.1518 29.5703 11.1367C29.5703 11.1217 29.5334 11.1094 29.4883 11.1094C29.4432 11.1094 29.4062 11.0971 29.4062 11.082C29.4062 11.067 29.3447 11.0547 29.2695 11.0547C29.1943 11.0547 29.1328 11.0424 29.1328 11.0273C29.1328 11.0092 25.6146 11 18.6328 11C11.6511 11 8.13281 11.0092 8.13281 11.0273ZM25.7422 13.4609V14.2812H16.6914H7.64062V13.7617C7.64062 13.4336 7.65069 13.2422 7.66797 13.2422C7.68301 13.2422 7.69531 13.2176 7.69531 13.1875C7.69531 13.1574 7.70762 13.1328 7.72266 13.1328C7.7377 13.1328 7.75 13.1109 7.75 13.0842C7.75 13.0574 7.77461 13.0178 7.80469 12.9961C7.83477 12.9744 7.85938 12.9348 7.85938 12.908C7.85938 12.8796 7.87961 12.8594 7.90802 12.8594C7.93479 12.8594 7.97441 12.8348 7.99609 12.8047C8.01778 12.7746 8.0574 12.75 8.08417 12.75C8.11091 12.75 8.13281 12.7377 8.13281 12.7227C8.13281 12.7076 8.16973 12.6953 8.21484 12.6953C8.25996 12.6953 8.29688 12.683 8.29688 12.668C8.29688 12.6498 11.2227 12.6406 17.0195 12.6406H25.7422V13.4609ZM28.9688 12.668C28.9688 12.683 29.0057 12.6953 29.0508 12.6953C29.0959 12.6953 29.1328 12.7076 29.1328 12.7227C29.1328 12.7377 29.1516 12.75 29.1745 12.75C29.2288 12.75 29.4609 12.9821 29.4609 13.0364C29.4609 13.0593 29.4732 13.0781 29.4883 13.0781C29.5033 13.0781 29.5156 13.1027 29.5156 13.1328C29.5156 13.1629 29.5279 13.1875 29.543 13.1875C29.558 13.1875 29.5703 13.2121 29.5703 13.2422C29.5703 13.2723 29.5826 13.2969 29.5977 13.2969C29.6127 13.2969 29.625 13.3338 29.625 13.3789C29.625 13.424 29.6373 13.4609 29.6523 13.4609C29.6674 13.4609 29.6797 13.4855 29.6797 13.5156C29.6797 13.5457 29.692 13.5703 29.707 13.5703C29.7221 13.5703 29.7344 13.6072 29.7344 13.6523C29.7344 13.6975 29.7467 13.7344 29.7617 13.7344C29.7768 13.7344 29.7891 13.759 29.7891 13.7891C29.7891 13.8191 29.8014 13.8438 29.8164 13.8438C29.8314 13.8438 29.8438 13.8807 29.8438 13.9258C29.8438 13.9709 29.8561 14.0078 29.8711 14.0078C29.8861 14.0078 29.8984 14.0324 29.8984 14.0625C29.8984 14.0926 29.9107 14.1172 29.9258 14.1172C29.9408 14.1172 29.9531 14.1541 29.9531 14.1992C29.9531 14.2443 29.9654 14.2812 29.9805 14.2812C29.9955 14.2812 30.0078 14.3059 30.0078 14.3359C30.0078 14.366 30.0201 14.3906 30.0352 14.3906C30.0502 14.3906 30.0625 14.4275 30.0625 14.4727C30.0625 14.5178 30.0748 14.5547 30.0898 14.5547C30.1049 14.5547 30.1172 14.5793 30.1172 14.6094C30.1172 14.6395 30.1295 14.6641 30.1445 14.6641C30.1596 14.6641 30.1719 14.701 30.1719 14.7461C30.1719 14.7912 30.1842 14.8281 30.1992 14.8281C30.2143 14.8281 30.2266 14.8527 30.2266 14.8828C30.2266 14.9129 30.2389 14.9375 30.2539 14.9375C30.2689 14.9375 30.2812 14.9744 30.2812 15.0195C30.2812 15.0646 30.2936 15.1016 30.3086 15.1016C30.3236 15.1016 30.3359 15.1262 30.3359 15.1562C30.3359 15.1863 30.3482 15.2109 30.3633 15.2109C30.3783 15.2109 30.3906 15.2479 30.3906 15.293C30.3906 15.3381 30.4029 15.375 30.418 15.375C30.433 15.375 30.4453 15.3996 30.4453 15.4297C30.4453 15.4598 30.4576 15.4844 30.4727 15.4844C30.4877 15.4844 30.5 15.5213 30.5 15.5664C30.5 15.6115 30.5123 15.6484 30.5273 15.6484C30.5424 15.6484 30.5547 15.673 30.5547 15.7031C30.5547 15.7332 30.567 15.7578 30.582 15.7578C30.5971 15.7578 30.6094 15.7947 30.6094 15.8398C30.6094 15.885 30.6217 15.9219 30.6367 15.9219C30.6518 15.9219 30.6641 15.9465 30.6641 15.9766C30.6641 16.0066 30.6764 16.0312 30.6914 16.0312C30.7064 16.0312 30.7188 16.0682 30.7188 16.1133C30.7188 16.1584 30.7311 16.1953 30.7461 16.1953C30.7611 16.1953 30.7734 16.2199 30.7734 16.25C30.7734 16.2801 30.7857 16.3047 30.8008 16.3047C30.8158 16.3047 30.8281 16.3416 30.8281 16.3867C30.8281 16.4318 30.8404 16.4688 30.8555 16.4688C30.8705 16.4688 30.8828 16.4934 30.8828 16.5234C30.8828 16.5535 30.8951 16.5781 30.9102 16.5781C30.9252 16.5781 30.9375 16.615 30.9375 16.6602C30.9375 16.7053 30.9498 16.7422 30.9648 16.7422C30.9799 16.7422 30.9922 16.7668 30.9922 16.7969C30.9922 16.827 31.0045 16.8516 31.0195 16.8516C31.0346 16.8516 31.0469 16.8885 31.0469 16.9336C31.0469 16.9787 31.0592 17.0156 31.0742 17.0156C31.0893 17.0156 31.1016 17.0402 31.1016 17.0703C31.1016 17.1004 31.1139 17.125 31.1289 17.125C31.1439 17.125 31.1562 17.1619 31.1562 17.207C31.1562 17.2521 31.1686 17.2891 31.1836 17.2891C31.1986 17.2891 31.2109 17.3137 31.2109 17.3438C31.2109 17.3738 31.2232 17.3984 31.2383 17.3984C31.2533 17.3984 31.2656 17.4354 31.2656 17.4805C31.2656 17.5256 31.2779 17.5625 31.293 17.5625C31.308 17.5625 31.3203 17.5871 31.3203 17.6172C31.3203 17.6473 31.3326 17.6719 31.3477 17.6719C31.3627 17.6719 31.375 17.7088 31.375 17.7539C31.375 17.799 31.3873 17.8359 31.4023 17.8359C31.4174 17.8359 31.4297 17.8605 31.4297 17.8906C31.4297 17.9207 31.442 17.9453 31.457 17.9453C31.4721 17.9453 31.4844 17.9822 31.4844 18.0273C31.4844 18.0725 31.4967 18.1094 31.5117 18.1094C31.5268 18.1094 31.5391 18.134 31.5391 18.1641C31.5391 18.1941 31.5514 18.2188 31.5664 18.2188C31.5814 18.2188 31.5938 18.2557 31.5938 18.3008C31.5938 18.3459 31.6061 18.3828 31.6211 18.3828C31.6361 18.3828 31.6484 18.4074 31.6484 18.4375C31.6484 18.4676 31.6607 18.4922 31.6758 18.4922C31.6908 18.4922 31.7031 18.5291 31.7031 18.5742C31.7031 18.6193 31.7154 18.6562 31.7305 18.6562C31.7455 18.6562 31.7578 18.6809 31.7578 18.7109C31.7578 18.741 31.7701 18.7656 31.7852 18.7656C31.8002 18.7656 31.8125 18.8025 31.8125 18.8477C31.8125 18.8928 31.8248 18.9297 31.8398 18.9297C31.8549 18.9297 31.8672 18.9543 31.8672 18.9844C31.8672 19.0145 31.8795 19.0391 31.8945 19.0391C31.9096 19.0391 31.9219 19.076 31.9219 19.1211V19.2031H29.6797H27.4375V15.9219V12.6406H28.2031C28.6953 12.6406 28.9688 12.6504 28.9688 12.668ZM10.8672 17.5625V19.2031H9.25391H7.64062V17.5625V15.9219H9.25391H10.8672V17.5625ZM15.7891 17.5625V19.2031H14.1758H12.5625V17.5625V15.9219H14.1758H15.7891V17.5625ZM20.8203 17.5625V19.2031H19.1523H17.4844V17.5625V15.9219H19.1523H20.8203V17.5625ZM25.7969 17.5625V19.2031H24.1562H22.5156V17.5625V15.9219H24.1562H25.7969V17.5625ZM32.3047 22.9766C32.3047 24.3802 32.2953 25.1094 32.2773 25.1094C32.2623 25.1094 32.25 25.1559 32.25 25.2127C32.25 25.2847 32.2334 25.328 32.1953 25.3555C32.1652 25.3772 32.1406 25.411 32.1406 25.4308C32.1406 25.4806 31.9603 25.6562 31.9091 25.6562C31.8861 25.6562 31.8672 25.6686 31.8672 25.6836C31.8672 25.6986 31.8303 25.7109 31.7852 25.7109C31.74 25.7109 31.7031 25.7232 31.7031 25.7383C31.7031 25.7555 31.5208 25.7656 31.2109 25.7656H30.7188V25.6016C30.7188 25.5104 30.7066 25.4375 30.6914 25.4375C30.6762 25.4375 30.6641 25.3646 30.6641 25.2734C30.6641 25.1823 30.6519 25.1094 30.6367 25.1094C30.6217 25.1094 30.6094 25.0602 30.6094 25C30.6094 24.9398 30.5971 24.8906 30.582 24.8906C30.567 24.8906 30.5547 24.8414 30.5547 24.7812C30.5547 24.7211 30.5424 24.6719 30.5273 24.6719C30.5123 24.6719 30.5 24.6473 30.5 24.6172C30.5 24.5871 30.4877 24.5625 30.4727 24.5625C30.4576 24.5625 30.4453 24.5256 30.4453 24.4805C30.4453 24.4354 30.433 24.3984 30.418 24.3984C30.4029 24.3984 30.3906 24.3738 30.3906 24.3438C30.3906 24.3137 30.3783 24.2891 30.3633 24.2891C30.3482 24.2891 30.3359 24.2672 30.3359 24.2404C30.3359 24.2136 30.3113 24.174 30.2812 24.1523C30.2512 24.1307 30.2266 24.091 30.2266 24.0643C30.2266 24.0375 30.2143 24.0156 30.1992 24.0156C30.1842 24.0156 30.1719 23.996 30.1719 23.9719C30.1719 23.9479 30.135 23.8937 30.0898 23.8516C30.0447 23.8094 30.0078 23.7612 30.0078 23.7445C30.0078 23.7049 29.4983 23.1953 29.4586 23.1953C29.4419 23.1953 29.3937 23.1584 29.3516 23.1133C29.3094 23.0682 29.258 23.0312 29.2373 23.0312C29.2165 23.0312 29.1818 23.0066 29.1602 22.9766C29.1385 22.9465 29.0989 22.9219 29.0721 22.9219C29.0453 22.9219 29.0234 22.9096 29.0234 22.8945C29.0234 22.8795 28.9988 22.8672 28.9688 22.8672C28.9387 22.8672 28.9141 22.8549 28.9141 22.8398C28.9141 22.8248 28.8895 22.8125 28.8594 22.8125C28.8293 22.8125 28.8047 22.8002 28.8047 22.7852C28.8047 22.7701 28.7801 22.7578 28.75 22.7578C28.7199 22.7578 28.6953 22.7455 28.6953 22.7305C28.6953 22.7154 28.6584 22.7031 28.6133 22.7031C28.5682 22.7031 28.5312 22.6908 28.5312 22.6758C28.5312 22.6607 28.4943 22.6484 28.4492 22.6484C28.4041 22.6484 28.3672 22.6361 28.3672 22.6211C28.3672 22.6061 28.318 22.5938 28.2578 22.5938C28.1977 22.5938 28.1484 22.5814 28.1484 22.5664C28.1484 22.5514 28.0869 22.5391 28.0117 22.5391C27.9365 22.5391 27.875 22.5268 27.875 22.5117C27.875 22.4946 27.7109 22.4844 27.4375 22.4844C27.1641 22.4844 27 22.4946 27 22.5117C27 22.5268 26.9385 22.5391 26.8633 22.5391C26.7881 22.5391 26.7266 22.5514 26.7266 22.5664C26.7266 22.5814 26.6773 22.5938 26.6172 22.5938C26.557 22.5938 26.5078 22.6061 26.5078 22.6211C26.5078 22.6361 26.4709 22.6484 26.4258 22.6484C26.3807 22.6484 26.3438 22.6607 26.3438 22.6758C26.3438 22.6908 26.3068 22.7031 26.2617 22.7031C26.2166 22.7031 26.1797 22.7154 26.1797 22.7305C26.1797 22.7455 26.1551 22.7578 26.125 22.7578C26.0949 22.7578 26.0703 22.7701 26.0703 22.7852C26.0703 22.8002 26.0457 22.8125 26.0156 22.8125C25.9855 22.8125 25.9609 22.8248 25.9609 22.8398C25.9609 22.8549 25.9363 22.8672 25.9062 22.8672C25.8762 22.8672 25.8516 22.8795 25.8516 22.8945C25.8516 22.9096 25.8297 22.9219 25.8029 22.9219C25.7761 22.9219 25.7365 22.9465 25.7148 22.9766C25.6932 23.0066 25.6562 23.0312 25.6328 23.0312C25.6094 23.0312 25.5725 23.0559 25.5508 23.0859C25.5291 23.116 25.4955 23.1406 25.4761 23.1406C25.4331 23.1406 24.8125 23.7566 24.8125 23.7993C24.8125 23.816 24.7756 23.8641 24.7305 23.9062C24.6854 23.9484 24.6484 24.0026 24.6484 24.0266C24.6484 24.0507 24.6361 24.0703 24.6211 24.0703C24.6061 24.0703 24.5938 24.0949 24.5938 24.125C24.5938 24.1551 24.5814 24.1797 24.5664 24.1797C24.5514 24.1797 24.5391 24.2043 24.5391 24.2344C24.5391 24.2645 24.5268 24.2891 24.5117 24.2891C24.4967 24.2891 24.4844 24.3137 24.4844 24.3438C24.4844 24.3738 24.4721 24.3984 24.457 24.3984C24.442 24.3984 24.4297 24.423 24.4297 24.4531C24.4297 24.4832 24.4174 24.5078 24.4023 24.5078C24.3873 24.5078 24.375 24.5447 24.375 24.5898C24.375 24.635 24.3627 24.6719 24.3477 24.6719C24.3326 24.6719 24.3203 24.6965 24.3203 24.7266C24.3203 24.7566 24.308 24.7812 24.293 24.7812C24.2779 24.7812 24.2656 24.8305 24.2656 24.8906C24.2656 24.9508 24.2533 25 24.2383 25C24.2232 25 24.2109 25.0615 24.2109 25.1367C24.2109 25.2119 24.1986 25.2734 24.1836 25.2734C24.1674 25.2734 24.1562 25.3737 24.1562 25.5195V25.7656H20H15.8438V25.5742C15.8438 25.4648 15.832 25.3828 15.8164 25.3828C15.8012 25.3828 15.7891 25.3099 15.7891 25.2188C15.7891 25.1276 15.7769 25.0547 15.7617 25.0547C15.7467 25.0547 15.7344 25.0055 15.7344 24.9453C15.7344 24.8852 15.7221 24.8359 15.707 24.8359C15.692 24.8359 15.6797 24.799 15.6797 24.7539C15.6797 24.7088 15.6674 24.6719 15.6523 24.6719C15.6373 24.6719 15.625 24.635 15.625 24.5898C15.625 24.5447 15.6127 24.5078 15.5977 24.5078C15.5826 24.5078 15.5703 24.4832 15.5703 24.4531C15.5703 24.423 15.558 24.3984 15.543 24.3984C15.5279 24.3984 15.5156 24.3738 15.5156 24.3438C15.5156 24.3137 15.5033 24.2891 15.4883 24.2891C15.4732 24.2891 15.4609 24.2645 15.4609 24.2344C15.4609 24.2043 15.4486 24.1797 15.4336 24.1797C15.4186 24.1797 15.4062 24.1578 15.4062 24.131C15.4062 24.1043 15.3816 24.0647 15.3516 24.043C15.3215 24.0213 15.2969 23.9866 15.2969 23.9659C15.2969 23.9452 15.26 23.8937 15.2148 23.8516C15.1697 23.8094 15.1328 23.7613 15.1328 23.7446C15.1328 23.7019 14.5669 23.1406 14.5239 23.1406C14.5045 23.1406 14.4709 23.116 14.4492 23.0859C14.4275 23.0559 14.3906 23.0312 14.3672 23.0312C14.3438 23.0312 14.3068 23.0066 14.2852 22.9766C14.2635 22.9465 14.2239 22.9219 14.1971 22.9219C14.1703 22.9219 14.1484 22.9096 14.1484 22.8945C14.1484 22.8795 14.1238 22.8672 14.0938 22.8672C14.0637 22.8672 14.0391 22.8549 14.0391 22.8398C14.0391 22.8248 14.0145 22.8125 13.9844 22.8125C13.9543 22.8125 13.9297 22.8002 13.9297 22.7852C13.9297 22.7701 13.9051 22.7578 13.875 22.7578C13.8449 22.7578 13.8203 22.7455 13.8203 22.7305C13.8203 22.7154 13.7834 22.7031 13.7383 22.7031C13.6932 22.7031 13.6562 22.6908 13.6562 22.6758C13.6562 22.6607 13.6193 22.6484 13.5742 22.6484C13.5291 22.6484 13.4922 22.6361 13.4922 22.6211C13.4922 22.6061 13.443 22.5938 13.3828 22.5938C13.3227 22.5938 13.2734 22.5814 13.2734 22.5664C13.2734 22.5514 13.2119 22.5391 13.1367 22.5391C13.0615 22.5391 13 22.5268 13 22.5117C13 22.4946 12.8359 22.4844 12.5625 22.4844C12.2891 22.4844 12.125 22.4946 12.125 22.5117C12.125 22.5268 12.0635 22.5391 11.9883 22.5391C11.9131 22.5391 11.8516 22.5514 11.8516 22.5664C11.8516 22.5814 11.8023 22.5938 11.7422 22.5938C11.682 22.5938 11.6328 22.6061 11.6328 22.6211C11.6328 22.6361 11.5959 22.6484 11.5508 22.6484C11.5057 22.6484 11.4688 22.6607 11.4688 22.6758C11.4688 22.6908 11.4318 22.7031 11.3867 22.7031C11.3416 22.7031 11.3047 22.7154 11.3047 22.7305C11.3047 22.7455 11.2801 22.7578 11.25 22.7578C11.2199 22.7578 11.1953 22.7701 11.1953 22.7852C11.1953 22.8002 11.1707 22.8125 11.1406 22.8125C11.1105 22.8125 11.0859 22.8248 11.0859 22.8398C11.0859 22.8549 11.0613 22.8672 11.0312 22.8672C11.0012 22.8672 10.9766 22.8795 10.9766 22.8945C10.9766 22.9096 10.9547 22.9219 10.9279 22.9219C10.9011 22.9219 10.8615 22.9465 10.8398 22.9766C10.8182 23.0066 10.7812 23.0312 10.7578 23.0312C10.7344 23.0312 10.6975 23.0559 10.6758 23.0859C10.6541 23.116 10.6205 23.1406 10.6011 23.1406C10.5551 23.1406 9.9375 23.7582 9.9375 23.8042C9.9375 23.8236 9.91289 23.8572 9.88281 23.8789C9.85273 23.9006 9.82812 23.9375 9.82812 23.9609C9.82812 23.9844 9.80352 24.0213 9.77344 24.043C9.74336 24.0647 9.71875 24.1043 9.71875 24.131C9.71875 24.1578 9.70645 24.1797 9.69141 24.1797C9.67637 24.1797 9.66406 24.2043 9.66406 24.2344C9.66406 24.2645 9.65176 24.2891 9.63672 24.2891C9.62168 24.2891 9.60938 24.3137 9.60938 24.3438C9.60938 24.3738 9.59707 24.3984 9.58203 24.3984C9.56699 24.3984 9.55469 24.423 9.55469 24.4531C9.55469 24.4832 9.54238 24.5078 9.52734 24.5078C9.5123 24.5078 9.5 24.5447 9.5 24.5898C9.5 24.635 9.4877 24.6719 9.47266 24.6719C9.45762 24.6719 9.44531 24.7088 9.44531 24.7539C9.44531 24.799 9.43301 24.8359 9.41797 24.8359C9.40293 24.8359 9.39062 24.8852 9.39062 24.9453C9.39062 25.0055 9.37832 25.0547 9.36328 25.0547C9.34824 25.0547 9.33594 25.1162 9.33594 25.1914C9.33594 25.2666 9.32363 25.3281 9.30859 25.3281C9.29265 25.3281 9.28125 25.4193 9.28125 25.5469V25.7656H8.76172C8.43359 25.7656 8.24219 25.7556 8.24219 25.7383C8.24219 25.7232 8.21758 25.7109 8.1875 25.7109C8.15742 25.7109 8.13281 25.6986 8.13281 25.6836C8.13281 25.6686 8.11091 25.6562 8.08417 25.6562C8.0574 25.6562 8.01778 25.6316 7.99609 25.6016C7.97441 25.5715 7.93479 25.5469 7.90802 25.5469C7.87961 25.5469 7.85938 25.5266 7.85938 25.4982C7.85938 25.4715 7.83477 25.4318 7.80469 25.4102C7.77461 25.3885 7.75 25.3489 7.75 25.3221C7.75 25.2953 7.7377 25.2734 7.72266 25.2734C7.70762 25.2734 7.69531 25.2488 7.69531 25.2188C7.69531 25.1887 7.68301 25.1641 7.66797 25.1641C7.64998 25.1641 7.64062 24.4258 7.64062 23.0039V20.8438H19.9727H32.3047V22.9766ZM12.8359 24.1523C12.8359 24.1674 12.8852 24.1797 12.9453 24.1797C13.0055 24.1797 13.0547 24.192 13.0547 24.207C13.0547 24.2221 13.0916 24.2344 13.1367 24.2344C13.1818 24.2344 13.2188 24.2467 13.2188 24.2617C13.2188 24.2768 13.2434 24.2891 13.2734 24.2891C13.3035 24.2891 13.3281 24.3014 13.3281 24.3164C13.3281 24.3314 13.35 24.3438 13.3768 24.3438C13.4035 24.3438 13.4432 24.3684 13.4648 24.3984C13.4865 24.4285 13.5203 24.4531 13.5398 24.4531C13.5862 24.4531 13.875 24.742 13.875 24.7883C13.875 24.8079 13.8996 24.8416 13.9297 24.8633C13.9598 24.885 13.9844 24.9246 13.9844 24.9514C13.9844 24.9781 13.9967 25 14.0117 25C14.0268 25 14.0391 25.0246 14.0391 25.0547C14.0391 25.0848 14.0514 25.1094 14.0664 25.1094C14.0814 25.1094 14.0938 25.1463 14.0938 25.1914C14.0938 25.2365 14.1061 25.2734 14.1211 25.2734C14.1361 25.2734 14.1484 25.3227 14.1484 25.3828C14.1484 25.443 14.1607 25.4922 14.1758 25.4922C14.1922 25.4922 14.2031 25.6016 14.2031 25.7656C14.2031 25.9297 14.1922 26.0391 14.1758 26.0391C14.1607 26.0391 14.1484 26.0883 14.1484 26.1484C14.1484 26.2086 14.1361 26.2578 14.1211 26.2578C14.1061 26.2578 14.0938 26.2947 14.0938 26.3398C14.0938 26.385 14.0814 26.4219 14.0664 26.4219C14.0514 26.4219 14.0391 26.4465 14.0391 26.4766C14.0391 26.5066 14.0268 26.5312 14.0117 26.5312C13.9967 26.5312 13.9844 26.5509 13.9844 26.575C13.9844 26.599 13.9475 26.6532 13.9023 26.6953C13.8572 26.7374 13.8203 26.7859 13.8203 26.8029C13.8203 26.8432 13.64 27.0234 13.5998 27.0234C13.5827 27.0234 13.5343 27.0604 13.4922 27.1055C13.4501 27.1506 13.3959 27.1875 13.3718 27.1875C13.3478 27.1875 13.3281 27.1998 13.3281 27.2148C13.3281 27.2299 13.3035 27.2422 13.2734 27.2422C13.2434 27.2422 13.2188 27.2545 13.2188 27.2695C13.2188 27.2846 13.1818 27.2969 13.1367 27.2969C13.0916 27.2969 13.0547 27.3092 13.0547 27.3242C13.0547 27.3393 13.0055 27.3516 12.9453 27.3516C12.8852 27.3516 12.8359 27.3639 12.8359 27.3789C12.8359 27.3953 12.7266 27.4062 12.5625 27.4062C12.3984 27.4062 12.2891 27.3953 12.2891 27.3789C12.2891 27.3639 12.2398 27.3516 12.1797 27.3516C12.1195 27.3516 12.0703 27.3393 12.0703 27.3242C12.0703 27.3092 12.0334 27.2969 11.9883 27.2969C11.9432 27.2969 11.9062 27.2846 11.9062 27.2695C11.9062 27.2545 11.8816 27.2422 11.8516 27.2422C11.8215 27.2422 11.7969 27.2299 11.7969 27.2148C11.7969 27.1998 11.775 27.1875 11.7482 27.1875C11.7215 27.1875 11.6818 27.1629 11.6602 27.1328C11.6385 27.1027 11.6047 27.0781 11.5852 27.0781C11.5388 27.0781 11.25 26.7893 11.25 26.7429C11.25 26.7234 11.2254 26.6897 11.1953 26.668C11.1652 26.6463 11.1406 26.6067 11.1406 26.5799C11.1406 26.5532 11.1283 26.5312 11.1133 26.5312C11.0982 26.5312 11.0859 26.5066 11.0859 26.4766C11.0859 26.4465 11.0736 26.4219 11.0586 26.4219C11.0436 26.4219 11.0312 26.385 11.0312 26.3398C11.0312 26.2947 11.0189 26.2578 11.0039 26.2578C10.9889 26.2578 10.9766 26.2209 10.9766 26.1758C10.9766 26.1307 10.9643 26.0938 10.9492 26.0938C10.9325 26.0938 10.9219 25.9661 10.9219 25.7656C10.9219 25.5651 10.9325 25.4375 10.9492 25.4375C10.9643 25.4375 10.9766 25.4006 10.9766 25.3555C10.9766 25.3104 10.9889 25.2734 11.0039 25.2734C11.0189 25.2734 11.0312 25.2365 11.0312 25.1914C11.0312 25.1463 11.0436 25.1094 11.0586 25.1094C11.0736 25.1094 11.0859 25.0848 11.0859 25.0547C11.0859 25.0246 11.0982 25 11.1133 25C11.1283 25 11.1406 24.9781 11.1406 24.9514C11.1406 24.9246 11.1652 24.885 11.1953 24.8633C11.2254 24.8416 11.25 24.8079 11.25 24.7883C11.25 24.742 11.5388 24.4531 11.5852 24.4531C11.6047 24.4531 11.6385 24.4285 11.6602 24.3984C11.6818 24.3684 11.7215 24.3438 11.7482 24.3438C11.775 24.3438 11.7969 24.3314 11.7969 24.3164C11.7969 24.3014 11.8215 24.2891 11.8516 24.2891C11.8816 24.2891 11.9062 24.2768 11.9062 24.2617C11.9062 24.2467 11.9432 24.2344 11.9883 24.2344C12.0334 24.2344 12.0703 24.2221 12.0703 24.207C12.0703 24.192 12.1072 24.1797 12.1523 24.1797C12.1975 24.1797 12.2344 24.1674 12.2344 24.1523C12.2344 24.1358 12.3529 24.125 12.5352 24.125C12.7175 24.125 12.8359 24.1358 12.8359 24.1523ZM27.7109 24.1523C27.7109 24.1674 27.7602 24.1797 27.8203 24.1797C27.8805 24.1797 27.9297 24.192 27.9297 24.207C27.9297 24.2221 27.9666 24.2344 28.0117 24.2344C28.0568 24.2344 28.0938 24.2467 28.0938 24.2617C28.0938 24.2768 28.1184 24.2891 28.1484 24.2891C28.1785 24.2891 28.2031 24.3014 28.2031 24.3164C28.2031 24.3314 28.2228 24.3438 28.2468 24.3438C28.2709 24.3438 28.3251 24.3807 28.3672 24.4258C28.4093 24.4709 28.4578 24.5078 28.4748 24.5078C28.5177 24.5078 28.6953 24.6894 28.6953 24.7333C28.6953 24.753 28.7199 24.7869 28.75 24.8086C28.7801 24.8303 28.8047 24.8672 28.8047 24.8906C28.8047 24.9141 28.8293 24.951 28.8594 24.9727C28.8895 24.9943 28.9141 25.034 28.9141 25.0607C28.9141 25.0875 28.9264 25.1094 28.9414 25.1094C28.9564 25.1094 28.9688 25.1463 28.9688 25.1914C28.9688 25.2365 28.9811 25.2734 28.9961 25.2734C29.0111 25.2734 29.0234 25.335 29.0234 25.4102C29.0234 25.4854 29.0357 25.5469 29.0508 25.5469C29.0667 25.5469 29.0781 25.638 29.0781 25.7656C29.0781 25.8932 29.0667 25.9844 29.0508 25.9844C29.0357 25.9844 29.0234 26.0459 29.0234 26.1211C29.0234 26.1963 29.0111 26.2578 28.9961 26.2578C28.9811 26.2578 28.9688 26.2824 28.9688 26.3125C28.9688 26.3426 28.9564 26.3672 28.9414 26.3672C28.9264 26.3672 28.9141 26.4014 28.9141 26.4432C28.9141 26.4878 28.8915 26.5354 28.8594 26.5586C28.8293 26.5803 28.8047 26.6172 28.8047 26.6406C28.8047 26.6641 28.7801 26.701 28.75 26.7227C28.7199 26.7443 28.6953 26.7782 28.6953 26.798C28.6953 26.8446 28.5165 27.0234 28.4698 27.0234C28.4501 27.0234 28.4162 27.048 28.3945 27.0781C28.3728 27.1082 28.3359 27.1328 28.3125 27.1328C28.2891 27.1328 28.2522 27.1574 28.2305 27.1875C28.2088 27.2176 28.1692 27.2422 28.1424 27.2422C28.1157 27.2422 28.0938 27.2545 28.0938 27.2695C28.0938 27.2846 28.0568 27.2969 28.0117 27.2969C27.9666 27.2969 27.9297 27.3092 27.9297 27.3242C27.9297 27.3393 27.8805 27.3516 27.8203 27.3516C27.7602 27.3516 27.7109 27.3639 27.7109 27.3789C27.7109 27.3953 27.6016 27.4062 27.4375 27.4062C27.2734 27.4062 27.1641 27.3953 27.1641 27.3789C27.1641 27.3639 27.1148 27.3516 27.0547 27.3516C26.9945 27.3516 26.9453 27.3393 26.9453 27.3242C26.9453 27.3092 26.9084 27.2969 26.8633 27.2969C26.8182 27.2969 26.7812 27.2846 26.7812 27.2695C26.7812 27.2545 26.7566 27.2422 26.7266 27.2422C26.6965 27.2422 26.6719 27.2299 26.6719 27.2148C26.6719 27.1998 26.65 27.1875 26.6232 27.1875C26.5965 27.1875 26.5568 27.1629 26.5352 27.1328C26.5135 27.1027 26.4797 27.0781 26.4602 27.0781C26.4406 27.0781 26.3572 27.0107 26.2748 26.9283C26.1924 26.8459 26.125 26.7625 26.125 26.7429C26.125 26.7234 26.1004 26.6897 26.0703 26.668C26.0402 26.6463 26.0156 26.6067 26.0156 26.5799C26.0156 26.5532 26.0033 26.5312 25.9883 26.5312C25.9732 26.5312 25.9609 26.5066 25.9609 26.4766C25.9609 26.4465 25.9486 26.4219 25.9336 26.4219C25.9186 26.4219 25.9062 26.3973 25.9062 26.3672C25.9062 26.3371 25.8939 26.3125 25.8789 26.3125C25.8639 26.3125 25.8516 26.2633 25.8516 26.2031C25.8516 26.143 25.8393 26.0938 25.8242 26.0938C25.8075 26.0938 25.7969 25.9661 25.7969 25.7656C25.7969 25.5651 25.8075 25.4375 25.8242 25.4375C25.8393 25.4375 25.8516 25.3883 25.8516 25.3281C25.8516 25.268 25.8639 25.2188 25.8789 25.2188C25.8939 25.2188 25.9062 25.1941 25.9062 25.1641C25.9062 25.134 25.9186 25.1094 25.9336 25.1094C25.9486 25.1094 25.9609 25.0848 25.9609 25.0547C25.9609 25.0246 25.9732 25 25.9883 25C26.0033 25 26.0156 24.9754 26.0156 24.9453C26.0156 24.9152 26.0279 24.8906 26.043 24.8906C26.058 24.8906 26.0703 24.872 26.0703 24.8491C26.0703 24.7986 26.4105 24.4531 26.4603 24.4531C26.4798 24.4531 26.5135 24.4285 26.5352 24.3984C26.5568 24.3684 26.5965 24.3438 26.6232 24.3438C26.65 24.3438 26.6719 24.3314 26.6719 24.3164C26.6719 24.3014 26.6965 24.2891 26.7266 24.2891C26.7566 24.2891 26.7812 24.2768 26.7812 24.2617C26.7812 24.2467 26.8059 24.2344 26.8359 24.2344C26.866 24.2344 26.8906 24.2221 26.8906 24.207C26.8906 24.192 26.9398 24.1797 27 24.1797C27.0602 24.1797 27.1094 24.1674 27.1094 24.1523C27.1094 24.1358 27.2279 24.125 27.4102 24.125C27.5925 24.125 27.7109 24.1358 27.7109 24.1523Z" fill="#DD2A1B"/>
</svg>
