<svg width="40" height="40" viewBox="0 0 40 40" fill="none" xmlns="http://www.w3.org/2000/svg">
<path d="M29.2994 18.0477L28.4961 16.9766C25.7353 13.2955 21.2694 11 16.4844 11H12.9102C8.5485 11 5 14.5485 5 18.9102V24.1836C5 25.6375 6.18283 26.8203 7.63672 26.8203H8.98859C9.59744 27.8701 10.7329 28.5781 12.0312 28.5781C13.3296 28.5781 14.4651 27.8701 15.0739 26.8203H24.9261C25.5349 27.8701 26.6704 28.5781 27.9688 28.5781C29.2671 28.5781 30.4026 27.8701 31.0114 26.8203H34.1211C34.6065 26.8203 35 26.4268 35 25.9414V24.1836C35 20.9494 32.4867 18.2802 29.2994 18.0477ZM27.0898 18.0312H22.6953V16.2734H25.4986C26.078 16.8069 26.6119 17.394 27.0898 18.0312ZM12.0312 26.8203C11.062 26.8203 10.2734 26.0318 10.2734 25.0625C10.2734 24.0932 11.062 23.3047 12.0312 23.3047C13.0005 23.3047 13.7891 24.0932 13.7891 25.0625C13.7891 26.0318 13.0005 26.8203 12.0312 26.8203ZM27.9688 26.8203C26.9995 26.8203 26.2109 26.0318 26.2109 25.0625C26.2109 24.0932 26.9995 23.3047 27.9688 23.3047C28.938 23.3047 29.7266 24.0932 29.7266 25.0625C29.7266 26.0318 28.938 26.8203 27.9688 26.8203ZM33.2422 25.0625H31.4844C31.4844 23.124 29.9073 21.5469 27.9688 21.5469C26.0302 21.5469 24.4531 23.124 24.4531 25.0625H15.5469C15.5469 23.124 13.9698 21.5469 12.0312 21.5469C10.0927 21.5469 8.51562 23.124 8.51562 25.0625H7.63672C7.15209 25.0625 6.75781 24.6682 6.75781 24.1836V23.3047H7.63672C8.12211 23.3047 8.51562 22.9112 8.51562 22.4258C8.51562 21.9404 8.12211 21.5469 7.63672 21.5469H6.75781V18.9102C6.75781 15.5178 9.51775 12.7578 12.9102 12.7578H16.4844C18.8272 12.7578 21.1068 13.3818 23.0938 14.5156C22.6539 14.5156 13.4185 14.5156 12.9102 14.5156C10.487 14.5156 8.51562 16.487 8.51562 18.9102C8.51562 19.3955 8.90914 19.7891 9.39453 19.7891C10.4231 19.7891 27.8204 19.7891 28.8477 19.7891C30.2823 19.7891 31.5584 20.4803 32.361 21.547C31.8767 21.5482 31.4844 21.9412 31.4844 22.4258C31.4844 22.9112 31.8779 23.3047 32.3633 23.3047H33.1538C33.2117 23.5887 33.2422 23.8827 33.2422 24.1836V25.0625ZM20.9375 16.2734V18.0312H17.3633V16.2734H20.9375ZM15.6055 16.2734V18.0312H10.424C10.7868 17.0081 11.7643 16.2734 12.9102 16.2734H15.6055Z" fill="#DD2A1B"/>
</svg>
