<svg width="40" height="40" viewBox="0 0 40 40" fill="none" xmlns="http://www.w3.org/2000/svg">
<path fill-rule="evenodd" clip-rule="evenodd" d="M11.0938 12.0586C11.0938 12.0908 11.0806 12.1172 11.0645 12.1172C11.0483 12.1172 11.0352 12.1436 11.0352 12.1758C11.0352 12.208 11.022 12.2344 11.0059 12.2344C10.9897 12.2344 10.9766 12.2607 10.9766 12.293C10.9766 12.3252 10.9634 12.3516 10.9473 12.3516C10.9312 12.3516 10.918 12.3779 10.918 12.4102C10.918 12.4424 10.9048 12.4688 10.8887 12.4688C10.8726 12.4688 10.8594 12.4922 10.8594 12.5209C10.8594 12.5496 10.833 12.592 10.8008 12.6152C10.7686 12.6385 10.7422 12.6809 10.7422 12.7096C10.7422 12.7383 10.729 12.7617 10.7129 12.7617C10.6968 12.7617 10.6836 12.7881 10.6836 12.8203C10.6836 12.8525 10.6704 12.8789 10.6543 12.8789C10.6382 12.8789 10.625 12.9053 10.625 12.9375C10.625 12.9697 10.6118 12.9961 10.5957 12.9961C10.5796 12.9961 10.5664 13.0225 10.5664 13.0547C10.5664 13.0869 10.5532 13.1133 10.5371 13.1133C10.521 13.1133 10.5078 13.1396 10.5078 13.1719C10.5078 13.2041 10.4946 13.2305 10.4785 13.2305C10.4624 13.2305 10.4492 13.2568 10.4492 13.2891C10.4492 13.3213 10.436 13.3477 10.4199 13.3477C10.4038 13.3477 10.3906 13.374 10.3906 13.4062C10.3906 13.4385 10.3774 13.4648 10.3613 13.4648C10.3452 13.4648 10.332 13.4912 10.332 13.5234C10.332 13.5557 10.3188 13.582 10.3027 13.582C10.2866 13.582 10.2734 13.6084 10.2734 13.6406C10.2734 13.6729 10.2603 13.6992 10.2441 13.6992C10.228 13.6992 10.2148 13.7256 10.2148 13.7578C10.2148 13.79 10.2017 13.8164 10.1855 13.8164C10.1694 13.8164 10.1562 13.8428 10.1562 13.875C10.1562 13.9072 10.1431 13.9336 10.127 13.9336C10.1108 13.9336 10.0977 13.96 10.0977 13.9922C10.0977 14.0244 10.0845 14.0508 10.0684 14.0508C10.0522 14.0508 10.0391 14.0771 10.0391 14.1094C10.0391 14.1416 10.0259 14.168 10.0098 14.168C9.99365 14.168 9.98047 14.1943 9.98047 14.2266C9.98047 14.2588 9.96729 14.2852 9.95117 14.2852C9.93506 14.2852 9.92188 14.3115 9.92188 14.3438C9.92188 14.376 9.90869 14.4023 9.89258 14.4023C9.87646 14.4023 9.86328 14.4287 9.86328 14.4609C9.86328 14.4932 9.8501 14.5195 9.83398 14.5195C9.81787 14.5195 9.80469 14.5459 9.80469 14.5781C9.80469 14.6104 9.7915 14.6367 9.77539 14.6367C9.75928 14.6367 9.74609 14.6602 9.74609 14.6888C9.74609 14.7175 9.71973 14.76 9.6875 14.7832C9.65527 14.8064 9.62891 14.8489 9.62891 14.8776C9.62891 14.9062 9.61572 14.9297 9.59961 14.9297C9.5835 14.9297 9.57031 14.9561 9.57031 14.9883C9.57031 15.0205 9.55713 15.0469 9.54102 15.0469C9.5249 15.0469 9.51172 15.0732 9.51172 15.1055C9.51172 15.1377 9.49854 15.1641 9.48242 15.1641C9.46631 15.1641 9.45312 15.1904 9.45312 15.2227C9.45312 15.2549 9.43994 15.2812 9.42383 15.2812C9.40771 15.2812 9.39453 15.2681 9.39453 15.252C9.39453 15.2358 9.37347 15.2227 9.34769 15.2227C9.32193 15.2227 9.2639 15.1831 9.21875 15.1348C9.1736 15.0864 9.11847 15.0469 9.09629 15.0469C9.07408 15.0469 9.0369 15.0205 9.01367 14.9883C8.99044 14.9561 8.94799 14.9297 8.91931 14.9297C8.89065 14.9297 8.86719 14.9165 8.86719 14.9004C8.86719 14.8843 8.84082 14.8711 8.80859 14.8711C8.77637 14.8711 8.75 14.8579 8.75 14.8418C8.75 14.8257 8.72363 14.8125 8.69141 14.8125C8.65918 14.8125 8.63281 14.7993 8.63281 14.7832C8.63281 14.7671 8.59326 14.7539 8.54492 14.7539C8.49658 14.7539 8.45703 14.7407 8.45703 14.7246C8.45703 14.7085 8.4043 14.6953 8.33984 14.6953C8.27539 14.6953 8.22266 14.6821 8.22266 14.666C8.22266 14.6497 8.14452 14.6367 8.04688 14.6367C7.94923 14.6367 7.87109 14.6237 7.87109 14.6074C7.87109 14.5903 7.77345 14.5781 7.63672 14.5781C7.49999 14.5781 7.40234 14.5903 7.40234 14.6074C7.40234 14.6237 7.32421 14.6367 7.22656 14.6367C7.12892 14.6367 7.05078 14.6497 7.05078 14.666C7.05078 14.6821 6.99805 14.6953 6.93359 14.6953C6.86914 14.6953 6.81641 14.7085 6.81641 14.7246C6.81641 14.7407 6.77686 14.7539 6.72852 14.7539C6.68018 14.7539 6.64062 14.7671 6.64062 14.7832C6.64062 14.7993 6.61426 14.8125 6.58203 14.8125C6.5498 14.8125 6.52344 14.8257 6.52344 14.8418C6.52344 14.8579 6.49707 14.8711 6.46484 14.8711C6.43262 14.8711 6.40625 14.8843 6.40625 14.9004C6.40625 14.9165 6.38278 14.9297 6.35413 14.9297C6.32545 14.9297 6.283 14.9561 6.25977 14.9883C6.23653 15.0205 6.19936 15.0469 6.17715 15.0469C6.15497 15.0469 6.09983 15.0864 6.05469 15.1348C6.00954 15.1831 5.9578 15.2227 5.93976 15.2227C5.89698 15.2227 5.58594 15.5337 5.58594 15.5765C5.58594 15.5945 5.54639 15.6463 5.49805 15.6914C5.44971 15.7366 5.41016 15.7946 5.41016 15.8203C5.41016 15.8461 5.39697 15.8672 5.38086 15.8672C5.36475 15.8672 5.35156 15.8936 5.35156 15.9258C5.35156 15.958 5.33838 15.9844 5.32227 15.9844C5.30615 15.9844 5.29297 16.0107 5.29297 16.043C5.29297 16.0752 5.27979 16.1016 5.26367 16.1016C5.24756 16.1016 5.23438 16.1279 5.23438 16.1602C5.23438 16.1924 5.22119 16.2188 5.20508 16.2188C5.18896 16.2188 5.17578 16.2583 5.17578 16.3066C5.17578 16.355 5.1626 16.3945 5.14648 16.3945C5.13037 16.3945 5.11719 16.4341 5.11719 16.4824C5.11719 16.5308 5.104 16.5703 5.08789 16.5703C5.07178 16.5703 5.05859 16.6362 5.05859 16.7168C5.05859 16.7974 5.04541 16.8633 5.0293 16.8633C5.00999 16.8633 5 17.6933 5 19.2949C5 20.8965 5.00999 21.7266 5.0293 21.7266C5.04541 21.7266 5.05859 21.7925 5.05859 21.873C5.05859 21.9536 5.07178 22.0195 5.08789 22.0195C5.104 22.0195 5.11719 22.0591 5.11719 22.1074C5.11719 22.1558 5.13037 22.1953 5.14648 22.1953C5.1626 22.1953 5.17578 22.2349 5.17578 22.2832C5.17578 22.3315 5.18896 22.3711 5.20508 22.3711C5.22119 22.3711 5.23438 22.3975 5.23438 22.4297C5.23438 22.4619 5.24756 22.4883 5.26367 22.4883C5.27979 22.4883 5.29297 22.5146 5.29297 22.5469C5.29297 22.5791 5.30615 22.6055 5.32227 22.6055C5.33838 22.6055 5.35156 22.6289 5.35156 22.6576C5.35156 22.6863 5.37793 22.7287 5.41016 22.752C5.44238 22.7752 5.46875 22.8124 5.46875 22.8346C5.46875 22.8567 5.5083 22.9119 5.55664 22.957C5.60498 23.0022 5.64453 23.0541 5.64453 23.0723C5.64453 23.1151 5.83754 23.3086 5.88022 23.3086C5.89815 23.3086 5.96346 23.3613 6.02539 23.4258C6.08732 23.4902 6.15588 23.543 6.17776 23.543C6.19965 23.543 6.23653 23.5693 6.25977 23.6016C6.283 23.6338 6.32545 23.6602 6.35413 23.6602C6.38278 23.6602 6.40625 23.6733 6.40625 23.6895C6.40625 23.7056 6.43262 23.7188 6.46484 23.7188C6.49707 23.7188 6.52344 23.7319 6.52344 23.748C6.52344 23.7642 6.56299 23.7773 6.61133 23.7773C6.65967 23.7773 6.69922 23.7905 6.69922 23.8066C6.69922 23.8228 6.72559 23.8359 6.75781 23.8359C6.79004 23.8359 6.81641 23.8491 6.81641 23.8652C6.81641 23.8813 6.86914 23.8945 6.93359 23.8945C6.99805 23.8945 7.05078 23.9077 7.05078 23.9238C7.05078 23.9409 7.14843 23.9531 7.28516 23.9531C7.42188 23.9531 7.51953 23.9653 7.51953 23.9824C7.51953 23.9985 7.58545 24.0117 7.66602 24.0117C7.74658 24.0117 7.8125 23.9985 7.8125 23.9824C7.8125 23.9657 7.90039 23.9531 8.01758 23.9531C8.13477 23.9531 8.22266 23.9406 8.22266 23.9238C8.22266 23.9077 8.27539 23.8945 8.33984 23.8945C8.4043 23.8945 8.45703 23.8813 8.45703 23.8652C8.45703 23.8491 8.4834 23.8359 8.51562 23.8359C8.54785 23.8359 8.57422 23.8228 8.57422 23.8066C8.57422 23.7905 8.61377 23.7773 8.66211 23.7773C8.71045 23.7773 8.75 23.7642 8.75 23.748C8.75 23.7319 8.77637 23.7188 8.80859 23.7188C8.84082 23.7188 8.86719 23.7056 8.86719 23.6895C8.86719 23.6733 8.90674 23.6602 8.95508 23.6602C9.04101 23.6602 9.04297 23.6634 9.04297 23.8066C9.04297 23.8872 9.05615 23.9531 9.07227 23.9531C9.08838 23.9531 9.10156 24.0059 9.10156 24.0703C9.10156 24.1348 9.11475 24.1875 9.13086 24.1875C9.14697 24.1875 9.16016 24.2534 9.16016 24.334C9.16016 24.4146 9.17334 24.4805 9.18945 24.4805C9.20557 24.4805 9.21875 24.5332 9.21875 24.5977C9.21875 24.6621 9.23193 24.7148 9.24805 24.7148C9.26416 24.7148 9.27734 24.7676 9.27734 24.832C9.27734 24.8965 9.29053 24.9492 9.30664 24.9492C9.32275 24.9492 9.33594 25.0151 9.33594 25.0957C9.33594 25.1763 9.34912 25.2422 9.36523 25.2422C9.38135 25.2422 9.39453 25.2949 9.39453 25.3594C9.39453 25.4238 9.40771 25.4766 9.42383 25.4766C9.43994 25.4766 9.45312 25.5425 9.45312 25.623C9.45312 25.7036 9.46631 25.7695 9.48242 25.7695C9.49854 25.7695 9.51172 25.8223 9.51172 25.8867C9.51172 25.9512 9.5249 26.0039 9.54102 26.0039C9.55713 26.0039 9.57031 26.0435 9.57031 26.0918V26.1797H10.6543H11.7383V26.4727C11.7383 26.6484 11.75 26.7656 11.7676 26.7656C11.7837 26.7656 11.7969 26.8315 11.7969 26.9121C11.7969 26.9927 11.8101 27.0586 11.8262 27.0586C11.8423 27.0586 11.8555 27.1113 11.8555 27.1758C11.8555 27.2402 11.8687 27.293 11.8848 27.293C11.9009 27.293 11.9141 27.3325 11.9141 27.3809C11.9141 27.4292 11.9272 27.4688 11.9434 27.4688C11.9595 27.4688 11.9727 27.4951 11.9727 27.5273C11.9727 27.5596 11.9858 27.5859 12.002 27.5859C12.0181 27.5859 12.0312 27.6255 12.0312 27.6738C12.0312 27.7222 12.0444 27.7617 12.0605 27.7617C12.0767 27.7617 12.0898 27.7852 12.0898 27.8138C12.0898 27.8425 12.1162 27.885 12.1484 27.9082C12.1807 27.9314 12.207 27.9739 12.207 28.0026C12.207 28.0312 12.2202 28.0547 12.2363 28.0547C12.2524 28.0547 12.2656 28.0782 12.2656 28.1068C12.2656 28.1355 12.292 28.1779 12.3242 28.2012C12.3564 28.2244 12.3828 28.2604 12.3828 28.2812C12.3828 28.3272 13.0428 28.9922 13.0885 28.9922C13.1064 28.9922 13.158 29.0317 13.2031 29.0801C13.2483 29.1284 13.3063 29.168 13.3321 29.168C13.3578 29.168 13.3789 29.1812 13.3789 29.1973C13.3789 29.2134 13.4024 29.2266 13.431 29.2266C13.4597 29.2266 13.5022 29.2529 13.5254 29.2852C13.5502 29.3196 13.6012 29.3438 13.6491 29.3438C13.6938 29.3438 13.7305 29.3569 13.7305 29.373C13.7305 29.3892 13.7568 29.4023 13.7891 29.4023C13.8213 29.4023 13.8477 29.4155 13.8477 29.4316C13.8477 29.4478 13.874 29.4609 13.9062 29.4609C13.9385 29.4609 13.9648 29.4741 13.9648 29.4902C13.9648 29.5063 14.0044 29.5195 14.0527 29.5195C14.1011 29.5195 14.1406 29.5327 14.1406 29.5488C14.1406 29.5649 14.1934 29.5781 14.2578 29.5781C14.3223 29.5781 14.375 29.5913 14.375 29.6074C14.375 29.6237 14.4531 29.6367 14.5508 29.6367C14.6484 29.6367 14.7266 29.6497 14.7266 29.666C14.7266 29.6842 14.8828 29.6953 15.1367 29.6953C15.3906 29.6953 15.5469 29.6842 15.5469 29.666C15.5469 29.6497 15.625 29.6367 15.7227 29.6367C15.8203 29.6367 15.8984 29.6237 15.8984 29.6074C15.8984 29.5913 15.9512 29.5781 16.0156 29.5781C16.0801 29.5781 16.1328 29.5649 16.1328 29.5488C16.1328 29.5327 16.1724 29.5195 16.2207 29.5195C16.269 29.5195 16.3086 29.5063 16.3086 29.4902C16.3086 29.4741 16.335 29.4609 16.3672 29.4609C16.3994 29.4609 16.4258 29.4478 16.4258 29.4316C16.4258 29.4155 16.4653 29.4023 16.5137 29.4023C16.562 29.4023 16.6016 29.3892 16.6016 29.373C16.6016 29.3569 16.625 29.3438 16.6537 29.3438C16.6824 29.3438 16.7248 29.3174 16.748 29.2852C16.7713 29.2529 16.8137 29.2266 16.8424 29.2266C16.8711 29.2266 16.8945 29.2134 16.8945 29.1973C16.8945 29.1812 16.918 29.168 16.9467 29.168C16.9753 29.168 17.0178 29.1416 17.041 29.1094C17.0642 29.0771 17.1003 29.0508 17.121 29.0508C17.1703 29.0508 17.8906 28.3305 17.8906 28.2812C17.8906 28.2604 17.917 28.2244 17.9492 28.2012C17.9814 28.1779 18.0078 28.1355 18.0078 28.1068C18.0078 28.0782 18.021 28.0547 18.0371 28.0547C18.0532 28.0547 18.0664 28.0312 18.0664 28.0026C18.0664 27.9739 18.0928 27.9314 18.125 27.9082C18.1572 27.885 18.1836 27.8425 18.1836 27.8138C18.1836 27.7852 18.1968 27.7617 18.2129 27.7617C18.229 27.7617 18.2422 27.7354 18.2422 27.7031C18.2422 27.6709 18.2554 27.6445 18.2715 27.6445C18.2876 27.6445 18.3008 27.605 18.3008 27.5566C18.3008 27.5083 18.314 27.4688 18.3301 27.4688C18.3462 27.4688 18.3594 27.4292 18.3594 27.3809C18.3594 27.3325 18.3726 27.293 18.3887 27.293C18.4048 27.293 18.418 27.2402 18.418 27.1758C18.418 27.1113 18.4312 27.0586 18.4473 27.0586C18.4634 27.0586 18.4766 26.9927 18.4766 26.9121C18.4766 26.8315 18.4897 26.7656 18.5059 26.7656C18.5234 26.7656 18.5352 26.6484 18.5352 26.4727V26.1797H21.8164H25.0977V26.4434C25.0977 26.5996 25.1096 26.707 25.127 26.707C25.1432 26.707 25.1562 26.7852 25.1562 26.8828C25.1562 26.9805 25.1693 27.0586 25.1855 27.0586C25.2017 27.0586 25.2148 27.1113 25.2148 27.1758C25.2148 27.2402 25.228 27.293 25.2441 27.293C25.2603 27.293 25.2734 27.3325 25.2734 27.3809C25.2734 27.4292 25.2866 27.4688 25.3027 27.4688C25.3188 27.4688 25.332 27.4951 25.332 27.5273C25.332 27.5596 25.3452 27.5859 25.3613 27.5859C25.3774 27.5859 25.3906 27.6123 25.3906 27.6445C25.3906 27.6768 25.4038 27.7031 25.4199 27.7031C25.436 27.7031 25.4492 27.7295 25.4492 27.7617C25.4492 27.7939 25.4624 27.8203 25.4785 27.8203C25.4946 27.8203 25.5078 27.8467 25.5078 27.8789C25.5078 27.9111 25.521 27.9375 25.5371 27.9375C25.5532 27.9375 25.5664 27.9639 25.5664 27.9961C25.5664 28.0283 25.5796 28.0547 25.5957 28.0547C25.6118 28.0547 25.625 28.0758 25.625 28.1015C25.625 28.1273 25.6646 28.1853 25.7129 28.2305C25.7612 28.2756 25.8008 28.3272 25.8008 28.3451C25.8008 28.363 25.9391 28.5159 26.108 28.6849C26.2771 28.8539 26.43 28.9922 26.4479 28.9922C26.4658 28.9922 26.5174 29.0317 26.5625 29.0801C26.6076 29.1284 26.6657 29.168 26.6914 29.168C26.7172 29.168 26.7383 29.1812 26.7383 29.1973C26.7383 29.2134 26.7646 29.2266 26.7969 29.2266C26.8291 29.2266 26.8555 29.2397 26.8555 29.2559C26.8555 29.272 26.8818 29.2852 26.9141 29.2852C26.9463 29.2852 26.9727 29.2983 26.9727 29.3145C26.9727 29.3306 26.999 29.3438 27.0312 29.3438C27.0635 29.3438 27.0898 29.3569 27.0898 29.373C27.0898 29.3892 27.1162 29.4023 27.1484 29.4023C27.1807 29.4023 27.207 29.4155 27.207 29.4316C27.207 29.4478 27.2466 29.4609 27.2949 29.4609C27.3433 29.4609 27.3828 29.4741 27.3828 29.4902C27.3828 29.5063 27.4092 29.5195 27.4414 29.5195C27.4736 29.5195 27.5 29.5327 27.5 29.5488C27.5 29.5649 27.5527 29.5781 27.6172 29.5781C27.6816 29.5781 27.7344 29.5913 27.7344 29.6074C27.7344 29.6237 27.8125 29.6367 27.9102 29.6367C28.0078 29.6367 28.0859 29.6497 28.0859 29.666C28.0859 29.6842 28.2422 29.6953 28.4961 29.6953C28.75 29.6953 28.9062 29.6842 28.9062 29.666C28.9062 29.6497 28.9844 29.6367 29.082 29.6367C29.1797 29.6367 29.2578 29.6237 29.2578 29.6074C29.2578 29.5913 29.3105 29.5781 29.375 29.5781C29.4395 29.5781 29.4922 29.5649 29.4922 29.5488C29.4922 29.5327 29.5317 29.5195 29.5801 29.5195C29.6284 29.5195 29.668 29.5063 29.668 29.4902C29.668 29.4741 29.6943 29.4609 29.7266 29.4609C29.7588 29.4609 29.7852 29.4478 29.7852 29.4316C29.7852 29.4155 29.8247 29.4023 29.873 29.4023C29.9214 29.4023 29.9609 29.3892 29.9609 29.373C29.9609 29.3569 29.9844 29.3438 30.0131 29.3438C30.0417 29.3438 30.0842 29.3174 30.1074 29.2852C30.1307 29.2529 30.1731 29.2266 30.2018 29.2266C30.2304 29.2266 30.2539 29.2134 30.2539 29.1973C30.2539 29.1812 30.2774 29.168 30.306 29.168C30.3347 29.168 30.3772 29.1416 30.4004 29.1094C30.4236 29.0771 30.4603 29.0508 30.482 29.0508C30.5037 29.0508 30.5856 28.9849 30.6641 28.9043C30.7425 28.8237 30.8217 28.7578 30.84 28.7578C30.883 28.7578 30.957 28.6838 30.957 28.6408C30.957 28.6225 31.0229 28.5433 31.1035 28.4648C31.1841 28.3864 31.25 28.3044 31.25 28.2828C31.25 28.2611 31.2764 28.2244 31.3086 28.2012C31.3408 28.1779 31.3672 28.1384 31.3672 28.1133C31.3672 28.0882 31.3936 28.0486 31.4258 28.0254C31.458 28.0022 31.4844 27.9597 31.4844 27.931C31.4844 27.9024 31.4976 27.8789 31.5137 27.8789C31.5298 27.8789 31.543 27.8525 31.543 27.8203C31.543 27.7881 31.5562 27.7617 31.5723 27.7617C31.5884 27.7617 31.6016 27.7354 31.6016 27.7031C31.6016 27.6709 31.6147 27.6445 31.6309 27.6445C31.647 27.6445 31.6602 27.605 31.6602 27.5566C31.6602 27.5083 31.6733 27.4688 31.6895 27.4688C31.7056 27.4688 31.7188 27.4292 31.7188 27.3809C31.7188 27.3325 31.7319 27.293 31.748 27.293C31.7642 27.293 31.7773 27.2402 31.7773 27.1758C31.7773 27.1113 31.7905 27.0586 31.8066 27.0586C31.8228 27.0586 31.8359 26.9927 31.8359 26.9121C31.8359 26.8315 31.8491 26.7656 31.8652 26.7656C31.8828 26.7656 31.8945 26.6484 31.8945 26.4727V26.1797H33.4473H35V23.3379C35 21.4629 34.99 20.4961 34.9707 20.4961C34.9546 20.4961 34.9414 20.4302 34.9414 20.3496C34.9414 20.269 34.9282 20.2031 34.9121 20.2031C34.896 20.2031 34.8828 20.1504 34.8828 20.0859C34.8828 20.0215 34.8696 19.9688 34.8535 19.9688C34.8374 19.9688 34.8242 19.9424 34.8242 19.9102C34.8242 19.8779 34.811 19.8516 34.7949 19.8516C34.7788 19.8516 34.7656 19.8252 34.7656 19.793C34.7656 19.7607 34.7524 19.7344 34.7363 19.7344C34.7202 19.7344 34.707 19.708 34.707 19.6758C34.707 19.6436 34.6938 19.6172 34.6777 19.6172C34.6616 19.6172 34.6484 19.5908 34.6484 19.5586C34.6484 19.5264 34.6353 19.5 34.6191 19.5C34.603 19.5 34.5898 19.4765 34.5898 19.4479C34.5898 19.4192 34.5635 19.3767 34.5312 19.3535C34.499 19.3303 34.4727 19.2942 34.4727 19.2734C34.4727 19.224 33.987 18.7383 33.9375 18.7383C33.9167 18.7383 33.8807 18.7119 33.8574 18.6797C33.8342 18.6475 33.7917 18.6211 33.7631 18.6211C33.7344 18.6211 33.7109 18.6079 33.7109 18.5918C33.7109 18.5757 33.6875 18.5625 33.6588 18.5625C33.6301 18.5625 33.5877 18.5361 33.5645 18.5039C33.5396 18.4695 33.4886 18.4453 33.4408 18.4453C33.396 18.4453 33.3594 18.4321 33.3594 18.416C33.3594 18.3999 33.333 18.3867 33.3008 18.3867C33.2686 18.3867 33.2422 18.3735 33.2422 18.3574C33.2422 18.3413 33.1895 18.3281 33.125 18.3281C33.0605 18.3281 33.0078 18.3149 33.0078 18.2988C33.0078 18.2827 32.9419 18.2695 32.8613 18.2695C32.7808 18.2695 32.7148 18.2563 32.7148 18.2402C32.7148 18.221 31.9577 18.2109 30.502 18.2109H28.2891L28.1875 18.1094C28.1316 18.0535 28.0859 17.9929 28.0859 17.9747C28.0859 17.9564 28.0464 17.9045 27.998 17.8594C27.9497 17.8142 27.9102 17.7591 27.9102 17.7369C27.9102 17.7147 27.8838 17.6775 27.8516 17.6543C27.8193 17.6311 27.793 17.5939 27.793 17.5717C27.793 17.5495 27.7534 17.4944 27.7051 17.4492C27.6567 17.4041 27.6172 17.3513 27.6172 17.332C27.6172 17.3127 27.5776 17.26 27.5293 17.2148C27.481 17.1697 27.4414 17.117 27.4414 17.0977C27.4414 17.0783 27.4019 17.0256 27.3535 16.9805C27.3052 16.9353 27.2656 16.8802 27.2656 16.858C27.2656 16.8358 27.2393 16.7986 27.207 16.7754C27.1748 16.7522 27.1484 16.715 27.1484 16.6928C27.1484 16.6706 27.1089 16.6155 27.0605 16.5703C27.0122 16.5252 26.9727 16.4724 26.9727 16.4531C26.9727 16.4338 26.9331 16.3811 26.8848 16.3359C26.8364 16.2908 26.7969 16.2357 26.7969 16.2135C26.7969 16.1913 26.7705 16.1541 26.7383 16.1309C26.7061 16.1076 26.6797 16.0704 26.6797 16.0482C26.6797 16.0261 26.6401 15.9709 26.5918 15.9258C26.5435 15.8806 26.5039 15.8279 26.5039 15.8086C26.5039 15.7893 26.4644 15.7366 26.416 15.6914C26.3677 15.6463 26.3281 15.5935 26.3281 15.5742C26.3281 15.5549 26.2886 15.5022 26.2402 15.457C26.1919 15.4119 26.1523 15.3567 26.1523 15.3346C26.1523 15.3124 26.126 15.2752 26.0938 15.252C26.0615 15.2287 26.0352 15.1915 26.0352 15.1693C26.0352 15.1472 25.9956 15.092 25.9473 15.0469C25.8989 15.0017 25.8594 14.949 25.8594 14.9297C25.8594 14.9104 25.8198 14.8576 25.7715 14.8125C25.7231 14.7674 25.6836 14.7146 25.6836 14.6953C25.6836 14.676 25.644 14.6233 25.5957 14.5781C25.5474 14.533 25.5078 14.4778 25.5078 14.4557C25.5078 14.4335 25.4814 14.3963 25.4492 14.373C25.417 14.3498 25.3906 14.3126 25.3906 14.2904C25.3906 14.2683 25.3511 14.2131 25.3027 14.168C25.2544 14.1228 25.2148 14.0701 25.2148 14.0508C25.2148 14.0315 25.1753 13.9787 25.127 13.9336C25.0786 13.8884 25.0391 13.8357 25.0391 13.8164C25.0391 13.7971 24.9995 13.7444 24.9512 13.6992C24.9028 13.6541 24.8633 13.5989 24.8633 13.5768C24.8633 13.5546 24.8369 13.5174 24.8047 13.4941C24.7725 13.4709 24.7461 13.4337 24.7461 13.4115C24.7461 13.3893 24.7065 13.3342 24.6582 13.2891C24.6099 13.2439 24.5703 13.1912 24.5703 13.1719C24.5703 13.1526 24.5308 13.0998 24.4824 13.0547C24.4341 13.0095 24.3945 12.9568 24.3945 12.9375C24.3945 12.9182 24.355 12.8655 24.3066 12.8203C24.2583 12.7752 24.2188 12.72 24.2188 12.6979C24.2188 12.6756 24.1924 12.6385 24.1602 12.6152C24.1279 12.592 24.1016 12.5548 24.1016 12.5326C24.1016 12.5104 24.062 12.4553 24.0137 12.4102C23.9653 12.365 23.9258 12.3123 23.9258 12.293C23.9258 12.2737 23.8862 12.2209 23.8379 12.1758C23.7896 12.1306 23.75 12.0726 23.75 12.0468C23.75 12.0041 23.2011 12 17.4219 12C11.1133 12 11.0938 12.0002 11.0938 12.0586ZM13.6719 15.9844V18.2109H11.9727H10.2734V17.8301C10.2734 17.5957 10.2847 17.4492 10.3027 17.4492C10.3188 17.4492 10.332 17.4229 10.332 17.3906C10.332 17.3584 10.3452 17.332 10.3613 17.332C10.3774 17.332 10.3906 17.3057 10.3906 17.2734C10.3906 17.2412 10.4038 17.2148 10.4199 17.2148C10.436 17.2148 10.4492 17.1885 10.4492 17.1562C10.4492 17.124 10.4624 17.0977 10.4785 17.0977C10.4946 17.0977 10.5078 17.0713 10.5078 17.0391C10.5078 17.0068 10.521 16.9805 10.5371 16.9805C10.5532 16.9805 10.5664 16.9541 10.5664 16.9219C10.5664 16.8896 10.5796 16.8633 10.5957 16.8633C10.6118 16.8633 10.625 16.8369 10.625 16.8047C10.625 16.7725 10.6382 16.7461 10.6543 16.7461C10.6704 16.7461 10.6836 16.7197 10.6836 16.6875C10.6836 16.6553 10.6968 16.6289 10.7129 16.6289C10.729 16.6289 10.7422 16.6025 10.7422 16.5703C10.7422 16.5381 10.7554 16.5117 10.7715 16.5117C10.7876 16.5117 10.8008 16.4854 10.8008 16.4531C10.8008 16.4209 10.814 16.3945 10.8301 16.3945C10.8462 16.3945 10.8594 16.3682 10.8594 16.3359C10.8594 16.3037 10.8726 16.2773 10.8887 16.2773C10.9048 16.2773 10.918 16.251 10.918 16.2188C10.918 16.1865 10.9312 16.1602 10.9473 16.1602C10.9634 16.1602 10.9766 16.1338 10.9766 16.1016C10.9766 16.0693 10.9897 16.043 11.0059 16.043C11.022 16.043 11.0352 16.0166 11.0352 15.9844C11.0352 15.9521 11.0483 15.9258 11.0645 15.9258C11.0806 15.9258 11.0938 15.9023 11.0938 15.8737C11.0938 15.845 11.1201 15.8025 11.1523 15.7793C11.1846 15.7561 11.2109 15.7136 11.2109 15.6849C11.2109 15.6563 11.2241 15.6328 11.2402 15.6328C11.2563 15.6328 11.2695 15.6064 11.2695 15.5742C11.2695 15.542 11.2827 15.5156 11.2988 15.5156C11.3149 15.5156 11.3281 15.4893 11.3281 15.457C11.3281 15.4248 11.3413 15.3984 11.3574 15.3984C11.3735 15.3984 11.3867 15.3721 11.3867 15.3398C11.3867 15.3076 11.3999 15.2812 11.416 15.2812C11.4321 15.2812 11.4453 15.2549 11.4453 15.2227C11.4453 15.1904 11.4585 15.1641 11.4746 15.1641C11.4907 15.1641 11.5039 15.1377 11.5039 15.1055C11.5039 15.0732 11.5171 15.0469 11.5332 15.0469C11.5493 15.0469 11.5625 15.0205 11.5625 14.9883C11.5625 14.9561 11.5757 14.9297 11.5918 14.9297C11.6079 14.9297 11.6211 14.9033 11.6211 14.8711C11.6211 14.8389 11.6343 14.8125 11.6504 14.8125C11.6665 14.8125 11.6797 14.7861 11.6797 14.7539C11.6797 14.7217 11.6929 14.6953 11.709 14.6953C11.7251 14.6953 11.7383 14.6689 11.7383 14.6367C11.7383 14.6045 11.7515 14.5781 11.7676 14.5781C11.7837 14.5781 11.7969 14.5518 11.7969 14.5195C11.7969 14.4873 11.8101 14.4609 11.8262 14.4609C11.8423 14.4609 11.8555 14.4346 11.8555 14.4023C11.8555 14.3701 11.8687 14.3438 11.8848 14.3438C11.9009 14.3438 11.9141 14.3174 11.9141 14.2852C11.9141 14.2529 11.9272 14.2266 11.9434 14.2266C11.9595 14.2266 11.9727 14.2002 11.9727 14.168C11.9727 14.1357 11.9858 14.1094 12.002 14.1094C12.0181 14.1094 12.0312 14.083 12.0312 14.0508C12.0312 14.0186 12.0444 13.9922 12.0605 13.9922C12.0767 13.9922 12.0898 13.9658 12.0898 13.9336C12.0898 13.9014 12.103 13.875 12.1191 13.875C12.1353 13.875 12.1484 13.8486 12.1484 13.8164C12.1484 13.7593 12.168 13.7578 12.9102 13.7578H13.6719V15.9844ZM19.5312 15.9844V18.2109H17.4805H15.4297V15.9844V13.7578H17.4805H19.5312V15.9844ZM22.8867 13.8594C22.9426 13.9152 22.9883 13.9759 22.9883 13.9941C22.9883 14.0123 23.0278 14.0642 23.0762 14.1094C23.1245 14.1545 23.1641 14.2073 23.1641 14.2266C23.1641 14.2459 23.2036 14.2986 23.252 14.3438C23.3003 14.3889 23.3398 14.444 23.3398 14.4662C23.3398 14.4884 23.3662 14.5256 23.3984 14.5488C23.4307 14.5721 23.457 14.6092 23.457 14.6314C23.457 14.6536 23.4966 14.7088 23.5449 14.7539C23.5933 14.7991 23.6328 14.8518 23.6328 14.8711C23.6328 14.8904 23.6724 14.9431 23.7207 14.9883C23.769 15.0334 23.8086 15.0862 23.8086 15.1055C23.8086 15.1248 23.8481 15.1775 23.8965 15.2227C23.9448 15.2678 23.9844 15.3229 23.9844 15.3451C23.9844 15.3673 24.0107 15.4045 24.043 15.4277C24.0752 15.451 24.1016 15.4881 24.1016 15.5104C24.1016 15.5325 24.1411 15.5877 24.1895 15.6328C24.2378 15.678 24.2773 15.7307 24.2773 15.75C24.2773 15.7693 24.3169 15.822 24.3652 15.8672C24.4136 15.9123 24.4531 15.9675 24.4531 15.9896C24.4531 16.0119 24.4795 16.049 24.5117 16.0723C24.5439 16.0955 24.5703 16.1327 24.5703 16.1549C24.5703 16.1771 24.6099 16.2322 24.6582 16.2773C24.7065 16.3225 24.7461 16.3752 24.7461 16.3945C24.7461 16.4138 24.7856 16.4666 24.834 16.5117C24.8823 16.5569 24.9219 16.6096 24.9219 16.6289C24.9219 16.6482 24.9614 16.7009 25.0098 16.7461C25.0581 16.7912 25.0977 16.844 25.0977 16.8633C25.0977 16.8826 25.1372 16.9353 25.1855 16.9805C25.2339 17.0256 25.2734 17.0808 25.2734 17.1029C25.2734 17.1251 25.2998 17.1623 25.332 17.1855C25.3643 17.2088 25.3906 17.246 25.3906 17.2682C25.3906 17.2903 25.4302 17.3455 25.4785 17.3906C25.5269 17.4358 25.5664 17.4885 25.5664 17.5078C25.5664 17.5271 25.606 17.5799 25.6543 17.625C25.7026 17.6701 25.7422 17.7253 25.7422 17.7475C25.7422 17.7697 25.7686 17.8068 25.8008 17.8301C25.833 17.8533 25.8594 17.8905 25.8594 17.9127C25.8594 17.9349 25.8989 17.99 25.9473 18.0352C25.9956 18.0803 26.0352 18.1383 26.0352 18.1641C26.0352 18.2066 25.8171 18.2109 23.6621 18.2109H21.2891V15.9844V13.7578H22.0371H22.7852L22.8867 13.8594ZM7.75391 16.3652C7.75391 16.3813 7.80664 16.3945 7.87109 16.3945C7.93555 16.3945 7.98828 16.4077 7.98828 16.4238C7.98828 16.4399 8.00835 16.4531 8.03287 16.4531C8.09088 16.4531 8.39844 16.7607 8.39844 16.8187C8.39844 16.8432 8.41162 16.8633 8.42773 16.8633C8.44385 16.8633 8.45703 16.9028 8.45703 16.9512C8.45703 16.9995 8.47021 17.0391 8.48633 17.0391C8.50561 17.0391 8.51562 17.8105 8.51562 19.2949C8.51562 20.7793 8.50561 21.5508 8.48633 21.5508C8.47021 21.5508 8.45703 21.5903 8.45703 21.6387C8.45703 21.687 8.44385 21.7266 8.42773 21.7266C8.41162 21.7266 8.39844 21.7467 8.39844 21.7713C8.39844 21.8294 8.14974 22.0781 8.09158 22.0781C8.067 22.0781 8.04688 22.0913 8.04688 22.1074C8.04688 22.1235 8.02051 22.1367 7.98828 22.1367C7.95605 22.1367 7.92969 22.1499 7.92969 22.166C7.92969 22.1821 7.87695 22.1953 7.8125 22.1953C7.74805 22.1953 7.69531 22.2085 7.69531 22.2246C7.69531 22.2407 7.65576 22.2539 7.60742 22.2539C7.55908 22.2539 7.51953 22.2407 7.51953 22.2246C7.51953 22.2085 7.4668 22.1953 7.40234 22.1953C7.33789 22.1953 7.28516 22.1821 7.28516 22.166C7.28516 22.1499 7.26509 22.1367 7.24057 22.1367C7.18256 22.1367 6.875 21.8292 6.875 21.7712C6.875 21.7466 6.86182 21.7266 6.8457 21.7266C6.82959 21.7266 6.81641 21.687 6.81641 21.6387C6.81641 21.5903 6.80322 21.5508 6.78711 21.5508C6.76783 21.5508 6.75781 20.7793 6.75781 19.2949C6.75781 17.8105 6.76783 17.0391 6.78711 17.0391C6.80322 17.0391 6.81641 16.9995 6.81641 16.9512C6.81641 16.9028 6.82959 16.8633 6.8457 16.8633C6.86182 16.8633 6.875 16.8432 6.875 16.8187C6.875 16.7607 7.18256 16.4531 7.24057 16.4531C7.26509 16.4531 7.28516 16.4399 7.28516 16.4238C7.28516 16.4077 7.33789 16.3945 7.40234 16.3945C7.4668 16.3945 7.51953 16.3813 7.51953 16.3652C7.51953 16.3491 7.57227 16.3359 7.63672 16.3359C7.70117 16.3359 7.75391 16.3491 7.75391 16.3652ZM32.5977 19.998C32.5977 20.0142 32.624 20.0273 32.6562 20.0273C32.6885 20.0273 32.7148 20.0405 32.7148 20.0566C32.7148 20.0728 32.7412 20.0859 32.7734 20.0859C32.8057 20.0859 32.832 20.0991 32.832 20.1152C32.832 20.1313 32.8527 20.1445 32.8781 20.1445C32.9345 20.1445 33.0078 20.2142 33.0078 20.2678C33.0078 20.2896 33.0342 20.3264 33.0664 20.3496C33.0986 20.3728 33.125 20.4153 33.125 20.444C33.125 20.4726 33.1382 20.4961 33.1543 20.4961C33.1704 20.4961 33.1836 20.5225 33.1836 20.5547C33.1836 20.5869 33.1968 20.6133 33.2129 20.6133C33.2306 20.6133 33.2422 20.7402 33.2422 20.9355V21.2578H32.4805H31.7188V22.1367V23.0156H32.4805H33.2422V23.7188V24.4219H32.2754C31.4142 24.4219 31.3086 24.4168 31.3086 24.3756C31.3086 24.3502 31.2559 24.2787 31.1914 24.2168C31.127 24.1549 31.0742 24.0897 31.0742 24.072C31.0742 24.03 30.763 23.7188 30.721 23.7188C30.7033 23.7188 30.6381 23.666 30.5762 23.6016C30.5142 23.5371 30.4457 23.4844 30.4238 23.4844C30.4019 23.4844 30.365 23.458 30.3418 23.4258C30.3186 23.3936 30.2761 23.3672 30.2474 23.3672C30.2188 23.3672 30.1953 23.354 30.1953 23.3379C30.1953 23.3218 30.1689 23.3086 30.1367 23.3086C30.1045 23.3086 30.0781 23.2954 30.0781 23.2793C30.0781 23.2632 30.0518 23.25 30.0195 23.25C29.9873 23.25 29.9609 23.2368 29.9609 23.2207C29.9609 23.2046 29.9346 23.1914 29.9023 23.1914C29.8701 23.1914 29.8438 23.1782 29.8438 23.1621C29.8438 23.146 29.8042 23.1328 29.7559 23.1328C29.7075 23.1328 29.668 23.1196 29.668 23.1035C29.668 23.0874 29.6416 23.0742 29.6094 23.0742C29.5771 23.0742 29.5508 23.061 29.5508 23.0449C29.5508 23.0288 29.498 23.0156 29.4336 23.0156C29.3691 23.0156 29.3164 23.0024 29.3164 22.9863C29.3164 22.9702 29.2505 22.957 29.1699 22.957C29.0894 22.957 29.0234 22.9438 29.0234 22.9277C29.0234 22.9093 28.8281 22.8984 28.4961 22.8984C28.1641 22.8984 27.9688 22.9093 27.9688 22.9277C27.9688 22.9438 27.9028 22.957 27.8223 22.957C27.7417 22.957 27.6758 22.9702 27.6758 22.9863C27.6758 23.0024 27.6362 23.0156 27.5879 23.0156C27.5396 23.0156 27.5 23.0288 27.5 23.0449C27.5 23.061 27.4604 23.0742 27.4121 23.0742C27.3638 23.0742 27.3242 23.0874 27.3242 23.1035C27.3242 23.1196 27.2847 23.1328 27.2363 23.1328C27.188 23.1328 27.1484 23.146 27.1484 23.1621C27.1484 23.1782 27.1221 23.1914 27.0898 23.1914C27.0576 23.1914 27.0312 23.2046 27.0312 23.2207C27.0312 23.2368 27.0049 23.25 26.9727 23.25C26.9404 23.25 26.9141 23.2632 26.9141 23.2793C26.9141 23.2954 26.8906 23.3086 26.8619 23.3086C26.8333 23.3086 26.7908 23.335 26.7676 23.3672C26.7443 23.3994 26.7048 23.4258 26.6797 23.4258C26.6546 23.4258 26.615 23.4521 26.5918 23.4844C26.5686 23.5166 26.5317 23.543 26.5098 23.543C26.4879 23.543 26.4194 23.5957 26.3574 23.6602C26.2955 23.7246 26.2302 23.7773 26.2123 23.7773C26.1699 23.7773 25.9766 23.9707 25.9766 24.013C25.9766 24.031 25.9238 24.0963 25.8594 24.1582C25.7949 24.2201 25.7422 24.286 25.7422 24.3045C25.7422 24.4251 25.8509 24.4219 21.8164 24.4219C17.7792 24.4219 17.8906 24.4252 17.8906 24.3039C17.8906 24.285 17.8511 24.2326 17.8027 24.1875C17.7544 24.1424 17.7148 24.0906 17.7148 24.0726C17.7148 24.0301 17.404 23.7188 17.3616 23.7188C17.3439 23.7188 17.2787 23.666 17.2168 23.6016C17.1549 23.5371 17.0863 23.4844 17.0644 23.4844C17.0425 23.4844 17.0057 23.458 16.9824 23.4258C16.9592 23.3936 16.9167 23.3672 16.8881 23.3672C16.8594 23.3672 16.8359 23.354 16.8359 23.3379C16.8359 23.3218 16.8096 23.3086 16.7773 23.3086C16.7451 23.3086 16.7188 23.2954 16.7188 23.2793C16.7188 23.2632 16.6924 23.25 16.6602 23.25C16.6279 23.25 16.6016 23.2368 16.6016 23.2207C16.6016 23.2046 16.5752 23.1914 16.543 23.1914C16.5107 23.1914 16.4844 23.1782 16.4844 23.1621C16.4844 23.146 16.4448 23.1328 16.3965 23.1328C16.3481 23.1328 16.3086 23.1196 16.3086 23.1035C16.3086 23.0874 16.269 23.0742 16.2207 23.0742C16.1724 23.0742 16.1328 23.061 16.1328 23.0449C16.1328 23.0288 16.0933 23.0156 16.0449 23.0156C15.9966 23.0156 15.957 23.0024 15.957 22.9863C15.957 22.9702 15.8911 22.957 15.8105 22.957C15.73 22.957 15.6641 22.9438 15.6641 22.9277C15.6641 22.9093 15.4687 22.8984 15.1367 22.8984C14.8047 22.8984 14.6094 22.9093 14.6094 22.9277C14.6094 22.9438 14.5435 22.957 14.4629 22.957C14.3823 22.957 14.3164 22.9702 14.3164 22.9863C14.3164 23.0024 14.2769 23.0156 14.2285 23.0156C14.1802 23.0156 14.1406 23.0288 14.1406 23.0449C14.1406 23.061 14.1011 23.0742 14.0527 23.0742C14.0044 23.0742 13.9648 23.0874 13.9648 23.1035C13.9648 23.1196 13.9253 23.1328 13.877 23.1328C13.8286 23.1328 13.7891 23.146 13.7891 23.1621C13.7891 23.1782 13.7627 23.1914 13.7305 23.1914C13.6982 23.1914 13.6719 23.2046 13.6719 23.2207C13.6719 23.2368 13.6455 23.25 13.6133 23.25C13.5811 23.25 13.5547 23.2632 13.5547 23.2793C13.5547 23.2954 13.5283 23.3086 13.4961 23.3086C13.4639 23.3086 13.4375 23.3218 13.4375 23.3379C13.4375 23.354 13.414 23.3672 13.3854 23.3672C13.3567 23.3672 13.3142 23.3936 13.291 23.4258C13.2678 23.458 13.2309 23.4844 13.209 23.4844C13.1871 23.4844 13.1186 23.5371 13.0566 23.6016C12.9947 23.666 12.9296 23.7188 12.9118 23.7188C12.8695 23.7188 12.5586 24.0301 12.5586 24.0726C12.5586 24.0906 12.519 24.1424 12.4707 24.1875C12.4224 24.2326 12.3828 24.285 12.3828 24.3039C12.3828 24.4109 12.3139 24.4219 11.6378 24.4219H10.9766V24.334C10.9766 24.2856 10.9634 24.2461 10.9473 24.2461C10.9312 24.2461 10.918 24.1934 10.918 24.1289C10.918 24.0645 10.9048 24.0117 10.8887 24.0117C10.8726 24.0117 10.8594 23.9458 10.8594 23.8652C10.8594 23.7847 10.8462 23.7188 10.8301 23.7188C10.814 23.7188 10.8008 23.666 10.8008 23.6016C10.8008 23.5371 10.7876 23.4844 10.7715 23.4844C10.7554 23.4844 10.7422 23.4316 10.7422 23.3672C10.7422 23.3027 10.729 23.25 10.7129 23.25C10.6968 23.25 10.6836 23.1973 10.6836 23.1328V23.0156H11.3574H12.0312V22.1367V21.2578H11.1523H10.2734V20.6133V19.9688H21.4355C28.8574 19.9688 32.5977 19.9786 32.5977 19.998ZM15.4883 24.6855C15.4883 24.7017 15.5278 24.7148 15.5762 24.7148C15.6245 24.7148 15.6641 24.728 15.6641 24.7441C15.6641 24.7603 15.7036 24.7734 15.752 24.7734C15.8003 24.7734 15.8398 24.7866 15.8398 24.8027C15.8398 24.8188 15.8633 24.832 15.892 24.832C15.9206 24.832 15.9631 24.8584 15.9863 24.8906C16.0096 24.9229 16.0457 24.9492 16.0666 24.9492C16.1161 24.9492 16.4844 25.3175 16.4844 25.367C16.4844 25.3879 16.5107 25.424 16.543 25.4473C16.5752 25.4705 16.6016 25.5129 16.6016 25.5416C16.6016 25.5703 16.6147 25.5938 16.6309 25.5938C16.647 25.5938 16.6602 25.6333 16.6602 25.6816C16.6602 25.73 16.6733 25.7695 16.6895 25.7695C16.7056 25.7695 16.7188 25.8091 16.7188 25.8574C16.7188 25.9058 16.7319 25.9453 16.748 25.9453C16.7659 25.9453 16.7773 26.082 16.7773 26.2969C16.7773 26.5117 16.7659 26.6484 16.748 26.6484C16.7319 26.6484 16.7188 26.688 16.7188 26.7363C16.7188 26.7847 16.7056 26.8242 16.6895 26.8242C16.6733 26.8242 16.6602 26.8638 16.6602 26.9121C16.6602 26.9604 16.647 27 16.6309 27C16.6147 27 16.6016 27.0235 16.6016 27.0521C16.6016 27.0808 16.5752 27.1233 16.543 27.1465C16.5107 27.1697 16.4844 27.2058 16.4844 27.2267C16.4844 27.28 16.1142 27.6445 16.0601 27.6445C16.0356 27.6445 16.0156 27.6577 16.0156 27.6738C16.0156 27.6899 15.9893 27.7031 15.957 27.7031C15.9248 27.7031 15.8984 27.7163 15.8984 27.7324C15.8984 27.7485 15.8721 27.7617 15.8398 27.7617C15.8076 27.7617 15.7812 27.7749 15.7812 27.791C15.7812 27.8071 15.7549 27.8203 15.7227 27.8203C15.6904 27.8203 15.6641 27.8335 15.6641 27.8496C15.6641 27.8657 15.6113 27.8789 15.5469 27.8789C15.4824 27.8789 15.4297 27.8921 15.4297 27.9082C15.4297 27.9258 15.3125 27.9375 15.1367 27.9375C14.9609 27.9375 14.8438 27.9258 14.8438 27.9082C14.8438 27.8921 14.791 27.8789 14.7266 27.8789C14.6621 27.8789 14.6094 27.8657 14.6094 27.8496C14.6094 27.8335 14.583 27.8203 14.5508 27.8203C14.5186 27.8203 14.4922 27.8071 14.4922 27.791C14.4922 27.7749 14.4658 27.7617 14.4336 27.7617C14.4014 27.7617 14.375 27.7485 14.375 27.7324C14.375 27.7163 14.3486 27.7031 14.3164 27.7031C14.2842 27.7031 14.2578 27.6899 14.2578 27.6738C14.2578 27.6577 14.2378 27.6445 14.2133 27.6445C14.1592 27.6445 13.7891 27.28 13.7891 27.2267C13.7891 27.2058 13.7627 27.1697 13.7305 27.1465C13.6982 27.1233 13.6719 27.0808 13.6719 27.0521C13.6719 27.0235 13.6587 27 13.6426 27C13.6265 27 13.6133 26.9604 13.6133 26.9121C13.6133 26.8638 13.6001 26.8242 13.584 26.8242C13.5679 26.8242 13.5547 26.7847 13.5547 26.7363C13.5547 26.688 13.5415 26.6484 13.5254 26.6484C13.5075 26.6484 13.4961 26.5117 13.4961 26.2969C13.4961 26.082 13.5075 25.9453 13.5254 25.9453C13.5415 25.9453 13.5547 25.9058 13.5547 25.8574C13.5547 25.8091 13.5679 25.7695 13.584 25.7695C13.6001 25.7695 13.6133 25.73 13.6133 25.6816C13.6133 25.6333 13.6265 25.5938 13.6426 25.5938C13.6587 25.5938 13.6719 25.5703 13.6719 25.5416C13.6719 25.5129 13.6982 25.4705 13.7305 25.4473C13.7627 25.424 13.7891 25.388 13.7891 25.3671C13.7891 25.3138 14.218 24.8906 14.272 24.8906C14.2964 24.8906 14.3164 24.8774 14.3164 24.8613C14.3164 24.8452 14.3428 24.832 14.375 24.832C14.4072 24.832 14.4336 24.8188 14.4336 24.8027C14.4336 24.7866 14.46 24.7734 14.4922 24.7734C14.5244 24.7734 14.5508 24.7603 14.5508 24.7441C14.5508 24.728 14.6035 24.7148 14.668 24.7148C14.7324 24.7148 14.7852 24.7017 14.7852 24.6855C14.7852 24.6676 14.9219 24.6562 15.1367 24.6562C15.3516 24.6562 15.4883 24.6676 15.4883 24.6855ZM28.8477 24.6855C28.8477 24.7017 28.9004 24.7148 28.9648 24.7148C29.0293 24.7148 29.082 24.728 29.082 24.7441C29.082 24.7603 29.1084 24.7734 29.1406 24.7734C29.1729 24.7734 29.1992 24.7866 29.1992 24.8027C29.1992 24.8188 29.2256 24.832 29.2578 24.832C29.29 24.832 29.3164 24.8452 29.3164 24.8613C29.3164 24.8774 29.3364 24.8906 29.3608 24.8906C29.4186 24.8906 29.9023 25.3744 29.9023 25.4322C29.9023 25.4566 29.9155 25.4766 29.9316 25.4766C29.9478 25.4766 29.9609 25.5029 29.9609 25.5352C29.9609 25.5674 29.9741 25.5938 29.9902 25.5938C30.0063 25.5938 30.0195 25.6201 30.0195 25.6523C30.0195 25.6846 30.0327 25.7109 30.0488 25.7109C30.0649 25.7109 30.0781 25.7637 30.0781 25.8281C30.0781 25.8926 30.0913 25.9453 30.1074 25.9453C30.1253 25.9453 30.1367 26.082 30.1367 26.2969C30.1367 26.5117 30.1253 26.6484 30.1074 26.6484C30.0913 26.6484 30.0781 26.688 30.0781 26.7363C30.0781 26.7847 30.0649 26.8242 30.0488 26.8242C30.0327 26.8242 30.0195 26.8638 30.0195 26.9121C30.0195 26.9604 30.0063 27 29.9902 27C29.9741 27 29.9609 27.0235 29.9609 27.0521C29.9609 27.0808 29.9346 27.1233 29.9023 27.1465C29.8701 27.1697 29.8438 27.2058 29.8438 27.2267C29.8438 27.2763 29.4755 27.6445 29.4259 27.6445C29.4051 27.6445 29.3689 27.6709 29.3457 27.7031C29.3209 27.7375 29.2699 27.7617 29.222 27.7617C29.1773 27.7617 29.1406 27.7749 29.1406 27.791C29.1406 27.8071 29.1143 27.8203 29.082 27.8203C29.0498 27.8203 29.0234 27.8335 29.0234 27.8496C29.0234 27.8657 28.9707 27.8789 28.9062 27.8789C28.8418 27.8789 28.7891 27.8921 28.7891 27.9082C28.7891 27.9258 28.6719 27.9375 28.4961 27.9375C28.3203 27.9375 28.2031 27.9258 28.2031 27.9082C28.2031 27.8921 28.1504 27.8789 28.0859 27.8789C28.0215 27.8789 27.9688 27.8657 27.9688 27.8496C27.9688 27.8335 27.9424 27.8203 27.9102 27.8203C27.8779 27.8203 27.8516 27.8071 27.8516 27.791C27.8516 27.7749 27.8252 27.7617 27.793 27.7617C27.7607 27.7617 27.7344 27.7485 27.7344 27.7324C27.7344 27.7163 27.7109 27.7031 27.6823 27.7031C27.6536 27.7031 27.6111 27.6768 27.5879 27.6445C27.5647 27.6123 27.5285 27.5859 27.5076 27.5859C27.4542 27.5859 27.1484 27.2747 27.1484 27.2204C27.1484 27.1958 27.1353 27.1758 27.1191 27.1758C27.103 27.1758 27.0898 27.1494 27.0898 27.1172C27.0898 27.085 27.0767 27.0586 27.0605 27.0586C27.0444 27.0586 27.0312 27.0322 27.0312 27C27.0312 26.9678 27.0181 26.9414 27.002 26.9414C26.9858 26.9414 26.9727 26.915 26.9727 26.8828C26.9727 26.8506 26.9595 26.8242 26.9434 26.8242C26.9272 26.8242 26.9141 26.7715 26.9141 26.707C26.9141 26.6426 26.9009 26.5898 26.8848 26.5898C26.8672 26.5898 26.8555 26.4727 26.8555 26.2969C26.8555 26.1211 26.8672 26.0039 26.8848 26.0039C26.9009 26.0039 26.9141 25.9512 26.9141 25.8867C26.9141 25.8223 26.9272 25.7695 26.9434 25.7695C26.9595 25.7695 26.9727 25.73 26.9727 25.6816C26.9727 25.6333 26.9858 25.5938 27.002 25.5938C27.0181 25.5938 27.0312 25.5703 27.0312 25.5416C27.0312 25.5129 27.0576 25.4705 27.0898 25.4473C27.1221 25.424 27.1484 25.3879 27.1484 25.367C27.1484 25.3461 27.2339 25.2435 27.3383 25.1391C27.4428 25.0347 27.5453 24.9492 27.5662 24.9492C27.5871 24.9492 27.6233 24.9229 27.6465 24.8906C27.6697 24.8584 27.7122 24.832 27.7409 24.832C27.7695 24.832 27.793 24.8188 27.793 24.8027C27.793 24.7866 27.8325 24.7734 27.8809 24.7734C27.9292 24.7734 27.9688 24.7603 27.9688 24.7441C27.9688 24.728 28.0083 24.7148 28.0566 24.7148C28.105 24.7148 28.1445 24.7017 28.1445 24.6855C28.1445 24.6676 28.2813 24.6562 28.4961 24.6562C28.7109 24.6562 28.8477 24.6676 28.8477 24.6855Z" fill="#DD2A1B"/>
</svg>
