<svg width="40" height="40" viewBox="0 0 40 40" fill="none" xmlns="http://www.w3.org/2000/svg">
<path fill-rule="evenodd" clip-rule="evenodd" d="M18.6607 12.0335C18.6607 12.0519 18.6155 12.067 18.5603 12.067C18.505 12.067 18.4598 12.082 18.4598 12.1004C18.4598 12.1189 18.4369 12.1339 18.4089 12.1339C18.3808 12.1339 18.2754 12.2165 18.1745 12.3173C18.0736 12.4182 17.9911 12.5237 17.9911 12.5517C17.9911 12.5797 17.976 12.6027 17.9576 12.6027C17.9392 12.6027 17.9241 12.6479 17.9241 12.7031C17.9241 12.7584 17.909 12.8036 17.8906 12.8036C17.8711 12.8036 17.8571 12.9152 17.8571 13.0714C17.8571 13.2277 17.8711 13.3393 17.8906 13.3393C17.909 13.3393 17.9241 13.3812 17.9241 13.4323C17.9241 13.487 17.9518 13.5453 17.9911 13.5737C18.0279 13.6002 18.058 13.6417 18.058 13.6659C18.058 13.723 18.277 13.942 18.3341 13.942C18.3583 13.942 18.3998 13.9721 18.4263 14.0089C18.4547 14.0482 18.513 14.0759 18.5677 14.0759C18.6188 14.0759 18.6607 14.091 18.6607 14.1094C18.6607 14.1292 18.7835 14.1429 18.9621 14.1429C19.1406 14.1429 19.2634 14.1565 19.2634 14.1763C19.2634 14.1948 19.3387 14.2098 19.4308 14.2098C19.5229 14.2098 19.5982 14.2249 19.5982 14.2433C19.5982 14.2617 19.6585 14.2768 19.7321 14.2768C19.8058 14.2768 19.8661 14.2919 19.8661 14.3103C19.8661 14.3287 19.9113 14.3438 19.9665 14.3438C20.0218 14.3438 20.067 14.3588 20.067 14.3772C20.067 14.3956 20.1122 14.4107 20.1674 14.4107C20.2227 14.4107 20.2679 14.4258 20.2679 14.4442C20.2679 14.4626 20.3131 14.4777 20.3683 14.4777C20.4235 14.4777 20.4687 14.4927 20.4687 14.5112C20.4687 14.5296 20.514 14.5446 20.5692 14.5446C20.6244 14.5446 20.6696 14.5597 20.6696 14.5781C20.6696 14.5965 20.6998 14.6116 20.7366 14.6116C20.7734 14.6116 20.8036 14.6267 20.8036 14.6451C20.8036 14.6635 20.8337 14.6786 20.8705 14.6786C20.9074 14.6786 20.9375 14.6936 20.9375 14.7121C20.9375 14.7305 20.9676 14.7455 21.0045 14.7455C21.0413 14.7455 21.0714 14.7606 21.0714 14.779C21.0714 14.7974 21.1166 14.8125 21.1719 14.8125C21.2271 14.8125 21.2723 14.8276 21.2723 14.846C21.2723 14.8644 21.3025 14.8795 21.3393 14.8795C21.3761 14.8795 21.4062 14.8945 21.4062 14.9129C21.4062 14.9314 21.4331 14.9464 21.4658 14.9464C21.4986 14.9464 21.5471 14.9766 21.5737 15.0134C21.6002 15.0502 21.6487 15.0804 21.6815 15.0804C21.7143 15.0804 21.7411 15.0954 21.7411 15.1138C21.7411 15.1323 21.7712 15.1473 21.808 15.1473C21.8449 15.1473 21.875 15.1624 21.875 15.1808C21.875 15.1992 21.9018 15.2143 21.9346 15.2143C21.9673 15.2143 22.0159 15.2444 22.0424 15.2812C22.069 15.3181 22.1175 15.3482 22.1503 15.3482C22.183 15.3482 22.2098 15.3633 22.2098 15.3817C22.2098 15.4001 22.2366 15.4152 22.2694 15.4152C22.3022 15.4152 22.3507 15.4453 22.3772 15.4821C22.4038 15.519 22.449 15.5491 22.4777 15.5491C22.5064 15.5491 22.5516 15.5792 22.5781 15.6161C22.6047 15.6529 22.6499 15.683 22.6786 15.683C22.7073 15.683 22.7525 15.7132 22.779 15.75C22.8056 15.7868 22.8508 15.817 22.8795 15.817C22.9082 15.817 22.9534 15.8471 22.9799 15.8839C23.0065 15.9208 23.049 15.9509 23.0743 15.9509C23.0997 15.9509 23.1627 15.9961 23.2143 16.0513C23.2659 16.1066 23.3289 16.1518 23.3542 16.1518C23.3796 16.1518 23.4221 16.1819 23.4487 16.2188C23.4752 16.2556 23.5177 16.2857 23.5431 16.2857C23.5684 16.2857 23.6314 16.3309 23.683 16.3862C23.7346 16.4414 23.7938 16.4866 23.8146 16.4866C23.8514 16.4866 24.1518 16.7691 24.1518 16.8038C24.1518 16.8135 24.0915 16.8214 24.0179 16.8214C23.9442 16.8214 23.8839 16.8365 23.8839 16.8549C23.8839 16.874 23.7835 16.8884 23.6496 16.8884C23.5156 16.8884 23.4152 16.9028 23.4152 16.9219C23.4152 16.9414 23.3036 16.9554 23.1473 16.9554C22.9911 16.9554 22.8795 16.9693 22.8795 16.9888C22.8795 17.0084 22.7679 17.0223 22.6116 17.0223C22.4553 17.0223 22.3438 17.0363 22.3438 17.0558C22.3438 17.0757 22.221 17.0893 22.0424 17.0893C21.8638 17.0893 21.7411 17.1029 21.7411 17.1228C21.7411 17.1431 21.596 17.1562 21.3728 17.1562C21.1495 17.1562 21.0045 17.1694 21.0045 17.1897C21.0045 17.2102 20.8482 17.2232 20.6027 17.2232C20.3572 17.2232 20.2009 17.2362 20.2009 17.2567C20.2009 17.2779 19.9665 17.2902 19.5647 17.2902C19.1629 17.2902 18.9286 17.3025 18.9286 17.3237C18.9286 17.3454 18.4869 17.3571 17.6706 17.3571C16.348 17.3571 16.317 17.3538 16.317 17.2089C16.317 17.1799 16.3019 17.1562 16.2835 17.1562C16.2651 17.1562 16.25 17.1261 16.25 17.0893C16.25 17.0525 16.2349 17.0223 16.2165 17.0223C16.1981 17.0223 16.183 16.9922 16.183 16.9554C16.183 16.9185 16.168 16.8884 16.1496 16.8884C16.1311 16.8884 16.1161 16.8583 16.1161 16.8214C16.1161 16.7846 16.101 16.7545 16.0826 16.7545C16.0642 16.7545 16.0491 16.7243 16.0491 16.6875C16.0491 16.6507 16.034 16.6205 16.0156 16.6205C15.9972 16.6205 15.9821 16.5904 15.9821 16.5536C15.9821 16.5167 15.9671 16.4866 15.9487 16.4866C15.9302 16.4866 15.9152 16.4565 15.9152 16.4196C15.9152 16.3828 15.9001 16.3527 15.8817 16.3527C15.8633 16.3527 15.8482 16.3225 15.8482 16.2857C15.8482 16.2489 15.8331 16.2188 15.8147 16.2188C15.7963 16.2188 15.7812 16.1886 15.7812 16.1518C15.7812 16.115 15.7662 16.0848 15.7478 16.0848C15.7294 16.0848 15.7143 16.0547 15.7143 16.0179C15.7143 15.981 15.6992 15.9509 15.6808 15.9509C15.6624 15.9509 15.6473 15.9208 15.6473 15.8839C15.6473 15.8471 15.6323 15.817 15.6138 15.817C15.5954 15.817 15.5804 15.794 15.5804 15.766C15.5804 15.738 15.4978 15.6325 15.3969 15.5316C15.2961 15.4307 15.1906 15.3482 15.1626 15.3482C15.1345 15.3482 15.1116 15.3331 15.1116 15.3147C15.1116 15.2963 15.0664 15.2812 15.0112 15.2812C14.9559 15.2812 14.9107 15.2662 14.9107 15.2478C14.9107 15.2282 14.7991 15.2143 14.6429 15.2143C14.4866 15.2143 14.375 15.2282 14.375 15.2478C14.375 15.2662 14.3331 15.2812 14.282 15.2812C14.2273 15.2812 14.169 15.3089 14.1406 15.3482C14.1141 15.385 14.0726 15.4152 14.0484 15.4152C13.9874 15.4152 13.7723 15.636 13.7723 15.6987C13.7723 15.7269 13.7573 15.75 13.7388 15.75C13.7204 15.75 13.7054 15.7801 13.7054 15.817C13.7054 15.8538 13.6903 15.8839 13.6719 15.8839C13.6535 15.8839 13.6384 15.9291 13.6384 15.9844C13.6384 16.0396 13.6233 16.0848 13.6049 16.0848C13.5858 16.0848 13.5714 16.1853 13.5714 16.3192C13.5714 16.4531 13.5858 16.5536 13.6049 16.5536C13.6233 16.5536 13.6384 16.5988 13.6384 16.654C13.6384 16.7093 13.6535 16.7545 13.6719 16.7545C13.6903 16.7545 13.7054 16.7846 13.7054 16.8214C13.7054 16.8583 13.7204 16.8884 13.7388 16.8884C13.7573 16.8884 13.7723 16.9185 13.7723 16.9554C13.7723 16.9922 13.7874 17.0223 13.8058 17.0223C13.8242 17.0223 13.8393 17.0525 13.8393 17.0893C13.8393 17.1414 13.817 17.1562 13.7388 17.1562C13.6836 17.1562 13.6384 17.1412 13.6384 17.1228C13.6384 17.1036 13.5379 17.0893 13.404 17.0893C13.2701 17.0893 13.1696 17.0749 13.1696 17.0558C13.1696 17.0367 13.0692 17.0223 12.9353 17.0223C12.8013 17.0223 12.7009 17.008 12.7009 16.9888C12.7009 16.9697 12.6004 16.9554 12.4665 16.9554C12.3326 16.9554 12.2321 16.941 12.2321 16.9219C12.2321 16.9035 12.1568 16.8884 12.0647 16.8884C11.9727 16.8884 11.8973 16.8733 11.8973 16.8549C11.8973 16.8365 11.822 16.8214 11.7299 16.8214C11.6378 16.8214 11.5625 16.8064 11.5625 16.7879C11.5625 16.7695 11.4872 16.7545 11.3951 16.7545C11.303 16.7545 11.2277 16.7394 11.2277 16.721C11.2277 16.7026 11.1523 16.6875 11.0603 16.6875C10.9682 16.6875 10.8929 16.6724 10.8929 16.654C10.8929 16.6356 10.8326 16.6205 10.7589 16.6205C10.6853 16.6205 10.625 16.6055 10.625 16.5871C10.625 16.5686 10.5647 16.5536 10.4911 16.5536C10.4174 16.5536 10.3571 16.5385 10.3571 16.5201C10.3571 16.5017 10.2818 16.4866 10.1897 16.4866C10.0977 16.4866 10.0223 16.4715 10.0223 16.4531C10.0223 16.4347 9.97712 16.4196 9.92188 16.4196C9.86663 16.4196 9.82143 16.4046 9.82143 16.3862C9.82143 16.3677 9.76116 16.3527 9.6875 16.3527C9.61384 16.3527 9.55357 16.3376 9.55357 16.3192C9.55357 16.2973 8.90626 16.2857 7.67857 16.2857C6.45088 16.2857 5.80357 16.2973 5.80357 16.3192C5.80357 16.3376 5.75837 16.3527 5.70312 16.3527C5.64788 16.3527 5.60268 16.3677 5.60268 16.3862C5.60268 16.4046 5.57974 16.4196 5.55172 16.4196C5.48542 16.4196 5.13393 16.7711 5.13393 16.8374C5.13393 16.8655 5.11886 16.8884 5.10045 16.8884C5.08203 16.8884 5.06696 16.9336 5.06696 16.9888C5.06696 17.0441 5.0519 17.0893 5.03348 17.0893C5.01145 17.0893 5 17.9487 5 19.6004C5 21.2522 5.01145 22.1116 5.03348 22.1116C5.0519 22.1116 5.06696 22.1869 5.06696 22.279C5.06696 22.3711 5.08203 22.4464 5.10045 22.4464C5.11886 22.4464 5.13393 22.4916 5.13393 22.5469C5.13393 22.6021 5.149 22.6473 5.16741 22.6473C5.18583 22.6473 5.20089 22.6925 5.20089 22.7478C5.20089 22.803 5.21596 22.8482 5.23438 22.8482C5.25279 22.8482 5.26786 22.8783 5.26786 22.9152C5.26786 22.952 5.28292 22.9821 5.30134 22.9821C5.31975 22.9821 5.33482 23.0123 5.33482 23.0491C5.33482 23.0859 5.34989 23.1161 5.3683 23.1161C5.38672 23.1161 5.40179 23.1429 5.40179 23.1756C5.40179 23.2084 5.43192 23.2569 5.46875 23.2835C5.50558 23.31 5.53571 23.3552 5.53571 23.3839C5.53571 23.4126 5.56585 23.4578 5.60268 23.4844C5.63951 23.5109 5.66964 23.5521 5.66964 23.5759C5.66964 23.6324 6.22471 24.1875 6.28119 24.1875C6.305 24.1875 6.34622 24.2176 6.37277 24.2545C6.39932 24.2913 6.44452 24.3214 6.47321 24.3214C6.50191 24.3214 6.54711 24.3516 6.57366 24.3884C6.60021 24.4252 6.64873 24.4554 6.68151 24.4554C6.71425 24.4554 6.74107 24.4704 6.74107 24.4888C6.74107 24.5073 6.77121 24.5223 6.80804 24.5223C6.84487 24.5223 6.875 24.5374 6.875 24.5558C6.875 24.5742 6.90513 24.5893 6.94196 24.5893C6.97879 24.5893 7.00893 24.6044 7.00893 24.6228C7.00893 24.6412 7.05413 24.6562 7.10938 24.6562C7.16462 24.6562 7.20982 24.6713 7.20982 24.6897C7.20982 24.7081 7.27009 24.7232 7.34375 24.7232C7.41741 24.7232 7.47768 24.7383 7.47768 24.7567C7.47768 24.7751 7.55301 24.7902 7.64509 24.7902C7.73716 24.7902 7.8125 24.8052 7.8125 24.8237C7.8125 24.8454 8.28761 24.8571 9.1709 24.8571C10.6433 24.8571 10.625 24.8548 10.625 25.0389C10.625 25.0863 10.6401 25.125 10.6585 25.125C10.6769 25.125 10.692 25.1518 10.692 25.1846C10.692 25.2173 10.7221 25.2659 10.7589 25.2924C10.7958 25.319 10.8259 25.3675 10.8259 25.4003C10.8259 25.433 10.841 25.4598 10.8594 25.4598C10.8778 25.4598 10.8929 25.4839 10.8929 25.5134C10.8929 25.5428 10.9381 25.6091 10.9933 25.6607C11.0485 25.7123 11.0938 25.7713 11.0938 25.7919C11.0938 25.8442 11.5854 26.3304 11.6383 26.3304C11.6621 26.3304 11.7034 26.3605 11.7299 26.3973C11.7565 26.4342 11.8017 26.4643 11.8304 26.4643C11.8591 26.4643 11.9043 26.4944 11.9308 26.5312C11.9574 26.5681 12.0059 26.5982 12.0386 26.5982C12.0714 26.5982 12.0982 26.6133 12.0982 26.6317C12.0982 26.6501 12.1283 26.6652 12.1652 26.6652C12.202 26.6652 12.2321 26.6802 12.2321 26.6987C12.2321 26.7171 12.2623 26.7321 12.2991 26.7321C12.3359 26.7321 12.3661 26.7472 12.3661 26.7656C12.3661 26.784 12.4113 26.7991 12.4665 26.7991C12.5218 26.7991 12.567 26.8142 12.567 26.8326C12.567 26.851 12.6122 26.8661 12.6674 26.8661C12.7227 26.8661 12.7679 26.8811 12.7679 26.8996C12.7679 26.918 12.8432 26.933 12.9353 26.933C13.0273 26.933 13.1027 26.9481 13.1027 26.9665C13.1027 26.9871 13.2701 27 13.5379 27C13.8058 27 13.9732 26.9871 13.9732 26.9665C13.9732 26.9479 14.0625 26.933 14.1741 26.933C14.2857 26.933 14.375 26.9182 14.375 26.8996C14.375 26.8811 14.4202 26.8661 14.4754 26.8661C14.5307 26.8661 14.5759 26.851 14.5759 26.8326C14.5759 26.8142 14.6211 26.7991 14.6763 26.7991C14.7316 26.7991 14.7768 26.784 14.7768 26.7656C14.7768 26.7472 14.8069 26.7321 14.8438 26.7321C14.8806 26.7321 14.9107 26.7171 14.9107 26.6987C14.9107 26.6802 14.9408 26.6652 14.9777 26.6652C15.0145 26.6652 15.0446 26.6501 15.0446 26.6317C15.0446 26.6133 15.0715 26.5982 15.1042 26.5982C15.137 26.5982 15.1855 26.5681 15.2121 26.5312C15.2386 26.4944 15.2838 26.4643 15.3125 26.4643C15.3412 26.4643 15.3864 26.4342 15.4129 26.3973C15.4395 26.3605 15.4807 26.3304 15.5045 26.3304C15.561 26.3304 16.1161 25.7753 16.1161 25.7188C16.1161 25.695 16.1462 25.6538 16.183 25.6272C16.2199 25.6007 16.25 25.5555 16.25 25.5268C16.25 25.4981 16.2801 25.4529 16.317 25.4263C16.3538 25.3998 16.3839 25.3513 16.3839 25.3185C16.3839 25.2857 16.399 25.2589 16.4174 25.2589C16.4358 25.2589 16.4509 25.2288 16.4509 25.192C16.4509 25.1551 16.466 25.125 16.4844 25.125C16.5028 25.125 16.5179 25.0863 16.5179 25.0389C16.5179 24.8455 16.2255 24.8571 21.0714 24.8571C25.9174 24.8571 25.625 24.8455 25.625 25.0389C25.625 25.0863 25.6401 25.125 25.6585 25.125C25.6769 25.125 25.692 25.1551 25.692 25.192C25.692 25.2288 25.707 25.2589 25.7254 25.2589C25.7439 25.2589 25.7589 25.2857 25.7589 25.3185C25.7589 25.3513 25.7891 25.3998 25.8259 25.4263C25.8627 25.4529 25.8929 25.4981 25.8929 25.5268C25.8929 25.5555 25.923 25.6007 25.9598 25.6272C25.9967 25.6538 26.0268 25.695 26.0268 25.7188C26.0268 25.7753 26.5819 26.3304 26.6383 26.3304C26.6621 26.3304 26.7034 26.3605 26.7299 26.3973C26.7565 26.4342 26.8017 26.4643 26.8304 26.4643C26.8591 26.4643 26.9043 26.4944 26.9308 26.5312C26.9574 26.5681 27.0059 26.5982 27.0386 26.5982C27.0714 26.5982 27.0982 26.6133 27.0982 26.6317C27.0982 26.6501 27.1283 26.6652 27.1652 26.6652C27.202 26.6652 27.2321 26.6802 27.2321 26.6987C27.2321 26.7171 27.2623 26.7321 27.2991 26.7321C27.3359 26.7321 27.3661 26.7472 27.3661 26.7656C27.3661 26.784 27.4113 26.7991 27.4665 26.7991C27.5218 26.7991 27.567 26.8142 27.567 26.8326C27.567 26.851 27.6122 26.8661 27.6674 26.8661C27.7227 26.8661 27.7679 26.8811 27.7679 26.8996C27.7679 26.9182 27.8572 26.933 27.9688 26.933C28.0803 26.933 28.1696 26.9479 28.1696 26.9665C28.1696 26.987 28.3259 27 28.5714 27C28.817 27 28.9732 26.987 28.9732 26.9665C28.9732 26.9479 29.0625 26.933 29.1741 26.933C29.2857 26.933 29.375 26.9182 29.375 26.8996C29.375 26.8811 29.4202 26.8661 29.4754 26.8661C29.5307 26.8661 29.5759 26.851 29.5759 26.8326C29.5759 26.8142 29.6211 26.7991 29.6763 26.7991C29.7316 26.7991 29.7768 26.784 29.7768 26.7656C29.7768 26.7472 29.8069 26.7321 29.8438 26.7321C29.8806 26.7321 29.9107 26.7171 29.9107 26.6987C29.9107 26.6802 29.9408 26.6652 29.9777 26.6652C30.0145 26.6652 30.0446 26.6501 30.0446 26.6317C30.0446 26.6133 30.0715 26.5982 30.1042 26.5982C30.137 26.5982 30.1855 26.5681 30.2121 26.5312C30.2386 26.4944 30.2838 26.4643 30.3125 26.4643C30.3412 26.4643 30.3864 26.4342 30.4129 26.3973C30.4395 26.3605 30.4807 26.3304 30.5045 26.3304C30.5283 26.3304 30.6757 26.2025 30.8319 26.0462C30.9882 25.89 31.1161 25.7426 31.1161 25.7188C31.1161 25.695 31.1462 25.6538 31.183 25.6272C31.2199 25.6007 31.25 25.5555 31.25 25.5268C31.25 25.4981 31.2801 25.4529 31.317 25.4263C31.3538 25.3998 31.3839 25.3513 31.3839 25.3185C31.3839 25.2857 31.399 25.2589 31.4174 25.2589C31.4358 25.2589 31.4509 25.2288 31.4509 25.192C31.4509 25.1551 31.466 25.125 31.4844 25.125C31.5028 25.125 31.5179 25.0863 31.5179 25.0389C31.5179 24.8555 31.5053 24.8571 32.905 24.8571C33.7436 24.8571 34.1964 24.8454 34.1964 24.8237C34.1964 24.8052 34.2383 24.7902 34.2895 24.7902C34.3441 24.7902 34.4024 24.7625 34.4308 24.7232C34.4574 24.6864 34.4988 24.6562 34.523 24.6562C34.5472 24.6562 34.6192 24.604 34.683 24.5402C34.7469 24.4764 34.7991 24.4043 34.7991 24.3802C34.7991 24.356 34.8292 24.3145 34.8661 24.2879C34.9054 24.2596 34.933 24.2013 34.933 24.1466C34.933 24.0955 34.9481 24.0536 34.9665 24.0536C34.9873 24.0536 35 23.8638 35 23.5513C35 23.2388 34.9873 23.0491 34.9665 23.0491C34.947 23.0491 34.933 22.9375 34.933 22.7812C34.933 22.625 34.9191 22.5134 34.8996 22.5134C34.8811 22.5134 34.8661 22.4381 34.8661 22.346C34.8661 22.2539 34.851 22.1786 34.8326 22.1786C34.8142 22.1786 34.7991 22.1032 34.7991 22.0112C34.7991 21.9191 34.784 21.8438 34.7656 21.8438C34.7472 21.8438 34.7321 21.7985 34.7321 21.7433C34.7321 21.6881 34.7171 21.6429 34.6987 21.6429C34.6802 21.6429 34.6652 21.5826 34.6652 21.5089C34.6652 21.4353 34.6501 21.375 34.6317 21.375C34.6133 21.375 34.5982 21.3298 34.5982 21.2746C34.5982 21.2193 34.5831 21.1741 34.5647 21.1741C34.5463 21.1741 34.5312 21.1289 34.5312 21.0737C34.5312 21.0184 34.5162 20.9732 34.4978 20.9732C34.4794 20.9732 34.4643 20.9431 34.4643 20.9062C34.4643 20.8694 34.4492 20.8393 34.4308 20.8393C34.4124 20.8393 34.3973 20.7941 34.3973 20.7388C34.3973 20.6836 34.3823 20.6384 34.3638 20.6384C34.3454 20.6384 34.3304 20.6083 34.3304 20.5714C34.3304 20.5346 34.3153 20.5045 34.2969 20.5045C34.2785 20.5045 34.2634 20.4743 34.2634 20.4375C34.2634 20.4007 34.2483 20.3705 34.2299 20.3705C34.2115 20.3705 34.1964 20.3404 34.1964 20.3036C34.1964 20.2667 34.1814 20.2366 34.1629 20.2366C34.1445 20.2366 34.1295 20.2065 34.1295 20.1696C34.1295 20.1328 34.1144 20.1027 34.096 20.1027C34.0776 20.1027 34.0625 20.0725 34.0625 20.0357C34.0625 19.9989 34.0474 19.9687 34.029 19.9687C34.0106 19.9687 33.9955 19.9386 33.9955 19.9018C33.9955 19.865 33.9805 19.8348 33.9621 19.8348C33.9436 19.8348 33.9286 19.808 33.9286 19.7753C33.9286 19.7425 33.8984 19.694 33.8616 19.6674C33.8248 19.6409 33.7946 19.5923 33.7946 19.5596C33.7946 19.5268 33.7796 19.5 33.7612 19.5C33.7427 19.5 33.7277 19.4732 33.7277 19.4404C33.7277 19.4077 33.6975 19.3591 33.6607 19.3326C33.6239 19.306 33.5938 19.2635 33.5938 19.2382C33.5938 19.2128 33.5485 19.1498 33.4933 19.0982C33.4381 19.0466 33.3929 18.9864 33.3929 18.9643C33.3929 18.9422 33.3477 18.882 33.2924 18.8304C33.2372 18.7788 33.192 18.7199 33.192 18.6995C33.192 18.6511 32.0989 17.558 32.0505 17.558C32.0301 17.558 31.9712 17.5128 31.9196 17.4576C31.868 17.4023 31.805 17.3571 31.7797 17.3571C31.7543 17.3571 31.7118 17.327 31.6853 17.2902C31.6587 17.2533 31.6135 17.2232 31.5848 17.2232C31.5561 17.2232 31.5109 17.1931 31.4844 17.1562C31.4578 17.1194 31.4093 17.0893 31.3765 17.0893C31.3438 17.0893 31.317 17.0742 31.317 17.0558C31.317 17.0374 31.2901 17.0223 31.2574 17.0223C31.2246 17.0223 31.1761 16.9922 31.1496 16.9554C31.123 16.9185 31.0745 16.8884 31.0417 16.8884C31.009 16.8884 30.9821 16.8733 30.9821 16.8549C30.9821 16.8365 30.952 16.8214 30.9152 16.8214C30.8783 16.8214 30.8482 16.8064 30.8482 16.7879C30.8482 16.7695 30.803 16.7545 30.7478 16.7545C30.6925 16.7545 30.6473 16.7394 30.6473 16.721C30.6473 16.7026 30.6172 16.6875 30.5804 16.6875C30.5435 16.6875 30.5134 16.6724 30.5134 16.654C30.5134 16.6356 30.4833 16.6205 30.4464 16.6205C30.4096 16.6205 30.3795 16.6055 30.3795 16.5871C30.3795 16.5686 30.3343 16.5536 30.279 16.5536C30.2238 16.5536 30.1786 16.5385 30.1786 16.5201C30.1786 16.5017 30.1334 16.4866 30.0781 16.4866C30.0229 16.4866 29.9777 16.4715 29.9777 16.4531C29.9777 16.4347 29.9174 16.4196 29.8438 16.4196C29.7701 16.4196 29.7098 16.4046 29.7098 16.3862C29.7098 16.3677 29.6496 16.3527 29.5759 16.3527C29.5022 16.3527 29.442 16.3376 29.442 16.3192C29.442 16.3006 29.3527 16.2857 29.2411 16.2857C29.1295 16.2857 29.0402 16.2708 29.0402 16.2522C29.0402 16.231 28.7835 16.2188 28.3371 16.2188C27.8906 16.2188 27.6339 16.231 27.6339 16.2522C27.6339 16.2708 27.5446 16.2857 27.433 16.2857C27.3214 16.2857 27.2321 16.3006 27.2321 16.3192C27.2321 16.3376 27.1637 16.3527 27.08 16.3527C26.9343 16.3527 26.9168 16.3415 26.6629 16.0848C26.5172 15.9375 26.3814 15.817 26.3612 15.817C26.3409 15.817 26.2357 15.7266 26.1272 15.6161C26.0188 15.5056 25.9132 15.4152 25.8925 15.4152C25.8719 15.4152 25.7817 15.3398 25.692 15.2478C25.6023 15.1557 25.5117 15.0804 25.4906 15.0804C25.4696 15.0804 25.3944 15.0201 25.3237 14.9464C25.2529 14.8728 25.1772 14.8125 25.1556 14.8125C25.1339 14.8125 25.0739 14.7673 25.0223 14.7121C24.9707 14.6568 24.9105 14.6116 24.8884 14.6116C24.8663 14.6116 24.8061 14.5664 24.7545 14.5112C24.7029 14.4559 24.6426 14.4107 24.6205 14.4107C24.5985 14.4107 24.5382 14.3655 24.4866 14.3103C24.435 14.255 24.372 14.2098 24.3467 14.2098C24.3213 14.2098 24.2788 14.1797 24.2522 14.1429C24.2257 14.106 24.1805 14.0759 24.1518 14.0759C24.1231 14.0759 24.0779 14.0458 24.0513 14.0089C24.0248 13.9721 23.9796 13.942 23.9509 13.942C23.9222 13.942 23.877 13.9118 23.8504 13.875C23.8239 13.8382 23.7787 13.808 23.75 13.808C23.7213 13.808 23.6761 13.7779 23.6496 13.7411C23.623 13.7042 23.5745 13.6741 23.5417 13.6741C23.509 13.6741 23.4821 13.659 23.4821 13.6406C23.4821 13.6222 23.4553 13.6071 23.4226 13.6071C23.3898 13.6071 23.3413 13.577 23.3147 13.5402C23.2882 13.5033 23.2397 13.4732 23.2069 13.4732C23.1741 13.4732 23.1473 13.4581 23.1473 13.4397C23.1473 13.4213 23.1205 13.4062 23.0878 13.4062C23.055 13.4062 23.0065 13.3761 22.9799 13.3393C22.9534 13.3025 22.9048 13.2723 22.8721 13.2723C22.8393 13.2723 22.8125 13.2573 22.8125 13.2388C22.8125 13.2204 22.7824 13.2054 22.7455 13.2054C22.7087 13.2054 22.6786 13.1903 22.6786 13.1719C22.6786 13.1535 22.6484 13.1384 22.6116 13.1384C22.5748 13.1384 22.5446 13.1233 22.5446 13.1049C22.5446 13.0865 22.5145 13.0714 22.4777 13.0714C22.4408 13.0714 22.4107 13.0564 22.4107 13.0379C22.4107 13.0195 22.3839 13.0045 22.3511 13.0045C22.3184 13.0045 22.2699 12.9743 22.2433 12.9375C22.2168 12.9007 22.1682 12.8705 22.1355 12.8705C22.1027 12.8705 22.0759 12.8555 22.0759 12.8371C22.0759 12.8186 22.0307 12.8036 21.9754 12.8036C21.9202 12.8036 21.875 12.7885 21.875 12.7701C21.875 12.7517 21.8449 12.7366 21.808 12.7366C21.7712 12.7366 21.7411 12.7215 21.7411 12.7031C21.7411 12.6847 21.7109 12.6696 21.6741 12.6696C21.6373 12.6696 21.6071 12.6546 21.6071 12.6362C21.6071 12.6177 21.577 12.6027 21.5402 12.6027C21.5033 12.6027 21.4732 12.5876 21.4732 12.5692C21.4732 12.5508 21.428 12.5357 21.3728 12.5357C21.3175 12.5357 21.2723 12.5206 21.2723 12.5022C21.2723 12.4838 21.2422 12.4688 21.2054 12.4688C21.1685 12.4688 21.1384 12.4537 21.1384 12.4353C21.1384 12.4169 21.0932 12.4018 21.0379 12.4018C20.9827 12.4018 20.9375 12.3867 20.9375 12.3683C20.9375 12.3499 20.8923 12.3348 20.8371 12.3348C20.7818 12.3348 20.7366 12.3198 20.7366 12.3013C20.7366 12.2829 20.6914 12.2679 20.6362 12.2679C20.5809 12.2679 20.5357 12.2528 20.5357 12.2344C20.5357 12.216 20.4754 12.2009 20.4018 12.2009C20.3281 12.2009 20.2679 12.1858 20.2679 12.1674C20.2679 12.149 20.1925 12.1339 20.1004 12.1339C20.0084 12.1339 19.933 12.1189 19.933 12.1004C19.933 12.0818 19.8437 12.067 19.7321 12.067C19.6205 12.067 19.5312 12.0521 19.5312 12.0335C19.5312 12.0129 19.3638 12 19.096 12C18.8281 12 18.6607 12.0129 18.6607 12.0335ZM28.9732 18.3951C28.9732 18.4135 29.0335 18.4286 29.1071 18.4286C29.1808 18.4286 29.2411 18.4436 29.2411 18.4621C29.2411 18.4805 29.3013 18.4955 29.375 18.4955C29.4487 18.4955 29.5089 18.5106 29.5089 18.529C29.5089 18.5474 29.5391 18.5625 29.5759 18.5625C29.6127 18.5625 29.6429 18.5776 29.6429 18.596C29.6429 18.6144 29.6881 18.6295 29.7433 18.6295C29.7985 18.6295 29.8438 18.6445 29.8438 18.6629C29.8438 18.6814 29.8739 18.6964 29.9107 18.6964C29.9475 18.6964 29.9777 18.7115 29.9777 18.7299C29.9777 18.7483 30.0045 18.7634 30.0372 18.7634C30.07 18.7634 30.1185 18.7935 30.1451 18.8304C30.1716 18.8672 30.2168 18.8973 30.2455 18.8973C30.2742 18.8973 30.3194 18.9275 30.346 18.9643C30.3725 19.0011 30.4177 19.0312 30.4464 19.0312C30.4751 19.0312 30.5203 19.0614 30.5469 19.0982C30.5734 19.135 30.6146 19.1652 30.6383 19.1652C30.6621 19.1652 30.8546 19.3383 31.0662 19.5499C31.2778 19.7615 31.4509 19.954 31.4509 19.9778C31.4509 20.0015 31.481 20.0426 31.5179 20.0692C31.5547 20.0957 31.5848 20.1409 31.5848 20.1696C31.5848 20.1983 31.615 20.2435 31.6518 20.2701C31.6886 20.2966 31.7188 20.3452 31.7188 20.3779C31.7188 20.4107 31.7338 20.4375 31.7522 20.4375C31.7706 20.4375 31.7857 20.4676 31.7857 20.5045C31.7857 20.5413 31.8008 20.5714 31.8192 20.5714C31.8376 20.5714 31.8527 20.6016 31.8527 20.6384C31.8527 20.6752 31.8677 20.7054 31.8862 20.7054C31.9046 20.7054 31.9196 20.7506 31.9196 20.8058C31.9196 20.861 31.9347 20.9062 31.9531 20.9062C31.9715 20.9062 31.9866 20.9515 31.9866 21.0067C31.9866 21.0619 32.0017 21.1071 32.0201 21.1071C32.0385 21.1071 32.0536 21.1523 32.0536 21.2076C32.0536 21.2628 32.0686 21.308 32.0871 21.308C32.1055 21.308 32.1205 21.3532 32.1205 21.4085C32.1205 21.4637 32.1356 21.5089 32.154 21.5089C32.1724 21.5089 32.1875 21.5692 32.1875 21.6429C32.1875 21.7165 32.2026 21.7768 32.221 21.7768C32.2394 21.7768 32.2545 21.8371 32.2545 21.9107C32.2545 21.9844 32.2695 22.0446 32.2879 22.0446C32.3064 22.0446 32.3214 22.12 32.3214 22.2121C32.3214 22.3041 32.3365 22.3795 32.3549 22.3795C32.3733 22.3795 32.3884 22.4548 32.3884 22.5469V22.7143H32.001C31.5791 22.7143 31.5179 22.6912 31.5179 22.5325C31.5179 22.4852 31.5028 22.4464 31.4844 22.4464C31.466 22.4464 31.4509 22.4163 31.4509 22.3795C31.4509 22.3426 31.4358 22.3125 31.4174 22.3125C31.399 22.3125 31.3839 22.2857 31.3839 22.2529C31.3839 22.2202 31.3538 22.1716 31.317 22.1451C31.2801 22.1185 31.25 22.0733 31.25 22.0446C31.25 22.0159 31.2199 21.9707 31.183 21.9442C31.1462 21.9176 31.1161 21.8764 31.1161 21.8526C31.1161 21.8288 30.9882 21.6815 30.8319 21.5252C30.6757 21.3689 30.5283 21.2411 30.5045 21.2411C30.4807 21.2411 30.4395 21.2109 30.4129 21.1741C30.3864 21.1373 30.3412 21.1071 30.3125 21.1071C30.2838 21.1071 30.2386 21.077 30.2121 21.0402C30.1855 21.0033 30.137 20.9732 30.1042 20.9732C30.0715 20.9732 30.0446 20.9581 30.0446 20.9397C30.0446 20.9213 30.0145 20.9062 29.9777 20.9062C29.9408 20.9062 29.9107 20.8912 29.9107 20.8728C29.9107 20.8544 29.8806 20.8393 29.8438 20.8393C29.8069 20.8393 29.7768 20.8242 29.7768 20.8058C29.7768 20.7874 29.7316 20.7723 29.6763 20.7723C29.6211 20.7723 29.5759 20.7573 29.5759 20.7388C29.5759 20.7204 29.5307 20.7054 29.4754 20.7054C29.4202 20.7054 29.375 20.6903 29.375 20.6719C29.375 20.6533 29.2857 20.6384 29.1741 20.6384C29.0625 20.6384 28.9732 20.6235 28.9732 20.6049C28.9732 20.5845 28.817 20.5714 28.5714 20.5714C28.3259 20.5714 28.1696 20.5845 28.1696 20.6049C28.1696 20.6235 28.0803 20.6384 27.9688 20.6384C27.8572 20.6384 27.7679 20.6533 27.7679 20.6719C27.7679 20.6903 27.7227 20.7054 27.6674 20.7054C27.6122 20.7054 27.567 20.7204 27.567 20.7388C27.567 20.7573 27.5218 20.7723 27.4665 20.7723C27.4113 20.7723 27.3661 20.7874 27.3661 20.8058C27.3661 20.8242 27.3359 20.8393 27.2991 20.8393C27.2623 20.8393 27.2321 20.8544 27.2321 20.8728C27.2321 20.8912 27.202 20.9062 27.1652 20.9062C27.1283 20.9062 27.0982 20.9213 27.0982 20.9397C27.0982 20.9581 27.0714 20.9732 27.0386 20.9732C27.0059 20.9732 26.9574 21.0033 26.9308 21.0402C26.9043 21.077 26.8591 21.1071 26.8304 21.1071C26.8017 21.1071 26.7565 21.1373 26.7299 21.1741C26.7034 21.2109 26.6621 21.2411 26.6383 21.2411C26.5819 21.2411 26.0268 21.7961 26.0268 21.8526C26.0268 21.8764 25.9967 21.9176 25.9598 21.9442C25.923 21.9707 25.8929 22.0159 25.8929 22.0446C25.8929 22.0733 25.8627 22.1185 25.8259 22.1451C25.7891 22.1716 25.7589 22.2202 25.7589 22.2529C25.7589 22.2857 25.7439 22.3125 25.7254 22.3125C25.707 22.3125 25.692 22.3426 25.692 22.3795C25.692 22.4163 25.6769 22.4464 25.6585 22.4464C25.6401 22.4464 25.625 22.4852 25.625 22.5325C25.625 22.726 25.9174 22.7143 21.0714 22.7143C16.2255 22.7143 16.5179 22.726 16.5179 22.5325C16.5179 22.4852 16.5028 22.4464 16.4844 22.4464C16.466 22.4464 16.4509 22.4163 16.4509 22.3795C16.4509 22.3426 16.4358 22.3125 16.4174 22.3125C16.399 22.3125 16.3839 22.2857 16.3839 22.2529C16.3839 22.2202 16.3538 22.1716 16.317 22.1451C16.2801 22.1185 16.25 22.0733 16.25 22.0446C16.25 22.0159 16.2199 21.9707 16.183 21.9442C16.1462 21.9176 16.1161 21.8764 16.1161 21.8526C16.1161 21.7961 15.561 21.2411 15.5045 21.2411C15.4807 21.2411 15.4395 21.2109 15.4129 21.1741C15.3864 21.1373 15.3412 21.1071 15.3125 21.1071C15.2838 21.1071 15.2386 21.077 15.2121 21.0402C15.1855 21.0033 15.137 20.9732 15.1042 20.9732C15.0715 20.9732 15.0446 20.9581 15.0446 20.9397C15.0446 20.9213 15.0145 20.9062 14.9777 20.9062C14.9408 20.9062 14.9107 20.8912 14.9107 20.8728C14.9107 20.8544 14.8806 20.8393 14.8438 20.8393C14.8069 20.8393 14.7768 20.8242 14.7768 20.8058C14.7768 20.7874 14.7316 20.7723 14.6763 20.7723C14.6211 20.7723 14.5759 20.7573 14.5759 20.7388C14.5759 20.7204 14.5307 20.7054 14.4754 20.7054C14.4202 20.7054 14.375 20.6903 14.375 20.6719C14.375 20.6533 14.2857 20.6384 14.1741 20.6384C14.0625 20.6384 13.9732 20.6235 13.9732 20.6049C13.9732 20.5843 13.8058 20.5714 13.5379 20.5714C13.2701 20.5714 13.1027 20.5843 13.1027 20.6049C13.1027 20.6233 13.0273 20.6384 12.9353 20.6384C12.8432 20.6384 12.7679 20.6535 12.7679 20.6719C12.7679 20.6903 12.7227 20.7054 12.6674 20.7054C12.6122 20.7054 12.567 20.7204 12.567 20.7388C12.567 20.7573 12.5218 20.7723 12.4665 20.7723C12.4113 20.7723 12.3661 20.7874 12.3661 20.8058C12.3661 20.8242 12.3359 20.8393 12.2991 20.8393C12.2623 20.8393 12.2321 20.8544 12.2321 20.8728C12.2321 20.8912 12.202 20.9062 12.1652 20.9062C12.1283 20.9062 12.0982 20.9213 12.0982 20.9397C12.0982 20.9581 12.0714 20.9732 12.0386 20.9732C12.0059 20.9732 11.9574 21.0033 11.9308 21.0402C11.9043 21.077 11.8591 21.1071 11.8304 21.1071C11.8017 21.1071 11.7565 21.1373 11.7299 21.1741C11.7034 21.2109 11.6621 21.2411 11.6383 21.2411C11.5854 21.2411 11.0938 21.7272 11.0938 21.7796C11.0938 21.8001 11.0485 21.8591 10.9933 21.9107C10.9381 21.9623 10.8929 22.0286 10.8929 22.0581C10.8929 22.0875 10.8778 22.1116 10.8594 22.1116C10.841 22.1116 10.8259 22.1384 10.8259 22.1712C10.8259 22.2039 10.7958 22.2525 10.7589 22.279C10.7221 22.3056 10.692 22.3541 10.692 22.3869C10.692 22.4196 10.6769 22.4464 10.6585 22.4464C10.6401 22.4464 10.625 22.4852 10.625 22.5325C10.625 22.7159 10.6376 22.7143 9.23787 22.7143C8.39924 22.7143 7.94643 22.7025 7.94643 22.6808C7.94643 22.6624 7.90123 22.6473 7.84598 22.6473C7.79074 22.6473 7.74554 22.6323 7.74554 22.6138C7.74554 22.5954 7.7226 22.5804 7.69458 22.5804C7.62828 22.5804 7.27679 22.2289 7.27679 22.1626C7.27679 22.1345 7.26172 22.1116 7.2433 22.1116C7.22489 22.1116 7.20982 22.0664 7.20982 22.0112C7.20982 21.9559 7.19475 21.9107 7.17634 21.9107C7.15444 21.9107 7.14286 21.308 7.14286 20.1696V18.4286H8.21429C8.90626 18.4286 9.28571 18.4404 9.28571 18.4621C9.28571 18.4805 9.34598 18.4955 9.41964 18.4955C9.4933 18.4955 9.55357 18.5106 9.55357 18.529C9.55357 18.5474 9.61384 18.5625 9.6875 18.5625C9.76116 18.5625 9.82143 18.5776 9.82143 18.596C9.82143 18.6144 9.8817 18.6295 9.95536 18.6295C10.029 18.6295 10.0893 18.6445 10.0893 18.6629C10.0893 18.6814 10.1646 18.6964 10.2567 18.6964C10.3488 18.6964 10.4241 18.7115 10.4241 18.7299C10.4241 18.7483 10.4844 18.7634 10.558 18.7634C10.6317 18.7634 10.692 18.7785 10.692 18.7969C10.692 18.8153 10.7673 18.8304 10.8594 18.8304C10.9515 18.8304 11.0268 18.8454 11.0268 18.8638C11.0268 18.8823 11.1021 18.8973 11.1942 18.8973C11.2863 18.8973 11.3616 18.9124 11.3616 18.9308C11.3616 18.9494 11.4509 18.9643 11.5625 18.9643C11.6741 18.9643 11.7634 18.9792 11.7634 18.9978C11.7634 19.0162 11.8387 19.0312 11.9308 19.0312C12.0229 19.0312 12.0982 19.0463 12.0982 19.0647C12.0982 19.0839 12.1987 19.0982 12.3326 19.0982C12.4665 19.0982 12.567 19.1126 12.567 19.1317C12.567 19.1508 12.6674 19.1652 12.8013 19.1652C12.9353 19.1652 13.0357 19.1795 13.0357 19.1987C13.0357 19.2182 13.1473 19.2321 13.3036 19.2321C13.4598 19.2321 13.5714 19.2461 13.5714 19.2656C13.5714 19.2855 13.6942 19.2991 13.8728 19.2991C14.0513 19.2991 14.1741 19.3127 14.1741 19.3326C14.1741 19.353 14.3304 19.3661 14.5759 19.3661C14.8214 19.3661 14.9777 19.3791 14.9777 19.3996C14.9777 19.4206 15.2009 19.433 15.5804 19.433C15.9598 19.433 16.183 19.4454 16.183 19.4665C16.183 19.4883 16.6629 19.5 17.5558 19.5C18.4487 19.5 18.9286 19.4883 18.9286 19.4665C18.9286 19.4453 19.1741 19.433 19.5982 19.433C20.0223 19.433 20.2679 19.4207 20.2679 19.3996C20.2679 19.379 20.4353 19.3661 20.7031 19.3661C20.971 19.3661 21.1384 19.3532 21.1384 19.3326C21.1384 19.3123 21.2835 19.2991 21.5067 19.2991C21.7299 19.2991 21.875 19.2859 21.875 19.2656C21.875 19.2455 22.0089 19.2321 22.2098 19.2321C22.4107 19.2321 22.5446 19.2188 22.5446 19.1987C22.5446 19.1791 22.6562 19.1652 22.8125 19.1652C22.9688 19.1652 23.0804 19.1512 23.0804 19.1317C23.0804 19.1122 23.192 19.0982 23.3482 19.0982C23.5045 19.0982 23.6161 19.0843 23.6161 19.0647C23.6161 19.0456 23.7165 19.0312 23.8504 19.0312C23.9844 19.0312 24.0848 19.0169 24.0848 18.9978C24.0848 18.9782 24.1964 18.9643 24.3527 18.9643C24.5089 18.9643 24.6205 18.9503 24.6205 18.9308C24.6205 18.9122 24.7098 18.8973 24.8214 18.8973C24.933 18.8973 25.0223 18.8825 25.0223 18.8638C25.0223 18.8452 25.1116 18.8304 25.2232 18.8304C25.3348 18.8304 25.4241 18.8155 25.4241 18.7969C25.4241 18.7783 25.5134 18.7634 25.625 18.7634C25.7366 18.7634 25.8259 18.7485 25.8259 18.7299C25.8259 18.7113 25.9152 18.6964 26.0268 18.6964C26.1384 18.6964 26.2277 18.6816 26.2277 18.6629C26.2277 18.6443 26.317 18.6295 26.4286 18.6295C26.5402 18.6295 26.6295 18.6146 26.6295 18.596C26.6295 18.5774 26.7188 18.5625 26.8304 18.5625C26.942 18.5625 27.0312 18.5476 27.0312 18.529C27.0312 18.5106 27.1066 18.4955 27.1987 18.4955C27.2907 18.4955 27.3661 18.4805 27.3661 18.4621C27.3661 18.4434 27.4554 18.4286 27.567 18.4286C27.6786 18.4286 27.7679 18.4137 27.7679 18.3951C27.7679 18.374 27.9911 18.3616 28.3705 18.3616C28.75 18.3616 28.9732 18.374 28.9732 18.3951ZM13.8393 22.7478C13.8393 22.7662 13.8845 22.7812 13.9397 22.7812C13.995 22.7812 14.0402 22.7963 14.0402 22.8147C14.0402 22.8331 14.0631 22.8482 14.0911 22.8482C14.1574 22.8482 14.5089 23.1997 14.5089 23.266C14.5089 23.294 14.524 23.317 14.5424 23.317C14.5608 23.317 14.5759 23.3622 14.5759 23.4174C14.5759 23.4727 14.591 23.5179 14.6094 23.5179C14.6289 23.5179 14.6429 23.6295 14.6429 23.7857C14.6429 23.942 14.6289 24.0536 14.6094 24.0536C14.591 24.0536 14.5759 24.0988 14.5759 24.154C14.5759 24.2093 14.5608 24.2545 14.5424 24.2545C14.524 24.2545 14.5089 24.2774 14.5089 24.3054C14.5089 24.3717 14.1574 24.7232 14.0911 24.7232C14.0631 24.7232 14.0402 24.7383 14.0402 24.7567C14.0402 24.7751 13.995 24.7902 13.9397 24.7902C13.8845 24.7902 13.8393 24.8052 13.8393 24.8237C13.8393 24.8432 13.7277 24.8571 13.5714 24.8571C13.4152 24.8571 13.3036 24.8432 13.3036 24.8237C13.3036 24.8052 13.2584 24.7902 13.2031 24.7902C13.1479 24.7902 13.1027 24.7751 13.1027 24.7567C13.1027 24.7383 13.0797 24.7232 13.0517 24.7232C12.9854 24.7232 12.6339 24.3717 12.6339 24.3054C12.6339 24.2774 12.6189 24.2545 12.6004 24.2545C12.582 24.2545 12.567 24.2093 12.567 24.154C12.567 24.0988 12.5519 24.0536 12.5335 24.0536C12.514 24.0536 12.5 23.942 12.5 23.7857C12.5 23.6295 12.514 23.5179 12.5335 23.5179C12.5519 23.5179 12.567 23.4727 12.567 23.4174C12.567 23.3622 12.582 23.317 12.6004 23.317C12.6189 23.317 12.6339 23.294 12.6339 23.266C12.6339 23.1997 12.9854 22.8482 13.0517 22.8482C13.0797 22.8482 13.1027 22.8331 13.1027 22.8147C13.1027 22.7963 13.1479 22.7812 13.2031 22.7812C13.2584 22.7812 13.3036 22.7662 13.3036 22.7478C13.3036 22.7282 13.4152 22.7143 13.5714 22.7143C13.7277 22.7143 13.8393 22.7282 13.8393 22.7478ZM28.8393 22.7478C28.8393 22.7662 28.8845 22.7812 28.9397 22.7812C28.995 22.7812 29.0402 22.7963 29.0402 22.8147C29.0402 22.8331 29.0631 22.8482 29.0911 22.8482C29.1574 22.8482 29.5089 23.1997 29.5089 23.266C29.5089 23.294 29.524 23.317 29.5424 23.317C29.5608 23.317 29.5759 23.3622 29.5759 23.4174C29.5759 23.4727 29.591 23.5179 29.6094 23.5179C29.6289 23.5179 29.6429 23.6295 29.6429 23.7857C29.6429 23.942 29.6289 24.0536 29.6094 24.0536C29.591 24.0536 29.5759 24.0988 29.5759 24.154C29.5759 24.2093 29.5608 24.2545 29.5424 24.2545C29.524 24.2545 29.5089 24.2774 29.5089 24.3054C29.5089 24.3334 29.4264 24.4389 29.3255 24.5398C29.2246 24.6407 29.1192 24.7232 29.0911 24.7232C29.0631 24.7232 29.0402 24.7383 29.0402 24.7567C29.0402 24.7751 28.995 24.7902 28.9397 24.7902C28.8845 24.7902 28.8393 24.8052 28.8393 24.8237C28.8393 24.8432 28.7277 24.8571 28.5714 24.8571C28.4152 24.8571 28.3036 24.8432 28.3036 24.8237C28.3036 24.8052 28.2584 24.7902 28.2031 24.7902C28.1479 24.7902 28.1027 24.7751 28.1027 24.7567C28.1027 24.7383 28.0797 24.7232 28.0517 24.7232C27.9854 24.7232 27.6339 24.3717 27.6339 24.3054C27.6339 24.2774 27.6189 24.2545 27.6004 24.2545C27.582 24.2545 27.567 24.2093 27.567 24.154C27.567 24.0988 27.5519 24.0536 27.5335 24.0536C27.514 24.0536 27.5 23.942 27.5 23.7857C27.5 23.6295 27.514 23.5179 27.5335 23.5179C27.5519 23.5179 27.567 23.4727 27.567 23.4174C27.567 23.3622 27.582 23.317 27.6004 23.317C27.6189 23.317 27.6339 23.294 27.6339 23.266C27.6339 23.1997 27.9854 22.8482 28.0517 22.8482C28.0797 22.8482 28.1027 22.8331 28.1027 22.8147C28.1027 22.7963 28.1479 22.7812 28.2031 22.7812C28.2584 22.7812 28.3036 22.7662 28.3036 22.7478C28.3036 22.7282 28.4152 22.7143 28.5714 22.7143C28.7277 22.7143 28.8393 22.7282 28.8393 22.7478Z" fill="#DD2A1B"/>
</svg>
