<svg width="40" height="40" viewBox="0 0 40 40" fill="none" xmlns="http://www.w3.org/2000/svg">
<path fill-rule="evenodd" clip-rule="evenodd" d="M15.6473 13.0335C15.6473 13.0538 15.5022 13.067 15.279 13.067C15.0558 13.067 14.9107 13.0802 14.9107 13.1004C14.9107 13.12 14.7991 13.1339 14.6429 13.1339C14.4866 13.1339 14.375 13.1479 14.375 13.1674C14.375 13.186 14.2857 13.2009 14.1741 13.2009C14.0625 13.2009 13.9732 13.2158 13.9732 13.2344C13.9732 13.2528 13.8979 13.2679 13.8058 13.2679C13.7137 13.2679 13.6384 13.2829 13.6384 13.3013C13.6384 13.3198 13.5631 13.3348 13.471 13.3348C13.3789 13.3348 13.3036 13.3499 13.3036 13.3683C13.3036 13.3867 13.2433 13.4018 13.1696 13.4018C13.096 13.4018 13.0357 13.4169 13.0357 13.4353C13.0357 13.4537 12.9754 13.4688 12.9018 13.4688C12.8281 13.4688 12.7679 13.4838 12.7679 13.5022C12.7679 13.5206 12.7227 13.5357 12.6674 13.5357C12.6122 13.5357 12.567 13.5508 12.567 13.5692C12.567 13.5876 12.5067 13.6027 12.433 13.6027C12.3594 13.6027 12.2991 13.6177 12.2991 13.6362C12.2991 13.6546 12.2539 13.6696 12.1987 13.6696C12.1434 13.6696 12.0982 13.6847 12.0982 13.7031C12.0982 13.7215 12.0681 13.7366 12.0312 13.7366C11.9944 13.7366 11.9643 13.7517 11.9643 13.7701C11.9643 13.7885 11.9191 13.8036 11.8638 13.8036C11.8086 13.8036 11.7634 13.8186 11.7634 13.8371C11.7634 13.8555 11.7182 13.8705 11.6629 13.8705C11.6077 13.8705 11.5625 13.8856 11.5625 13.904C11.5625 13.9224 11.5324 13.9375 11.4955 13.9375C11.4587 13.9375 11.4286 13.9526 11.4286 13.971C11.4286 13.9894 11.3834 14.0045 11.3281 14.0045C11.2729 14.0045 11.2277 14.0195 11.2277 14.0379C11.2277 14.0564 11.1975 14.0714 11.1607 14.0714C11.1239 14.0714 11.0938 14.0865 11.0938 14.1049C11.0938 14.1233 11.0636 14.1384 11.0268 14.1384C10.99 14.1384 10.9598 14.1535 10.9598 14.1719C10.9598 14.1903 10.9297 14.2054 10.8929 14.2054C10.856 14.2054 10.8259 14.2204 10.8259 14.2388C10.8259 14.2573 10.7958 14.2723 10.7589 14.2723C10.7221 14.2723 10.692 14.2874 10.692 14.3058C10.692 14.3242 10.6618 14.3393 10.625 14.3393C10.5882 14.3393 10.558 14.3544 10.558 14.3728C10.558 14.3912 10.5279 14.4062 10.4911 14.4062C10.4542 14.4062 10.4241 14.4213 10.4241 14.4397C10.4241 14.4581 10.394 14.4732 10.3571 14.4732C10.3203 14.4732 10.2902 14.4883 10.2902 14.5067C10.2902 14.5251 10.26 14.5402 10.2232 14.5402C10.1864 14.5402 10.1562 14.5552 10.1562 14.5737C10.1562 14.5921 10.1294 14.6071 10.0967 14.6071C10.0639 14.6071 10.0154 14.6373 9.98884 14.6741C9.96229 14.7109 9.91377 14.7411 9.88099 14.7411C9.84825 14.7411 9.82143 14.7561 9.82143 14.7746C9.82143 14.793 9.79461 14.808 9.76186 14.808C9.72908 14.808 9.68057 14.8382 9.65402 14.875C9.62747 14.9118 9.58227 14.942 9.55357 14.942C9.52488 14.942 9.47968 14.9721 9.45312 15.0089C9.42657 15.0458 9.38137 15.0759 9.35268 15.0759C9.32398 15.0759 9.27878 15.106 9.25223 15.1429C9.22568 15.1797 9.18048 15.2098 9.15179 15.2098C9.12309 15.2098 9.07789 15.24 9.05134 15.2768C9.02479 15.3136 8.9823 15.3438 8.95692 15.3438C8.93157 15.3438 8.86856 15.389 8.81696 15.4442C8.76537 15.4994 8.7051 15.5446 8.68304 15.5446C8.66097 15.5446 8.6007 15.5898 8.54911 15.6451C8.49751 15.7003 8.43754 15.7455 8.41585 15.7455C8.39419 15.7455 8.31855 15.8058 8.24777 15.8795C8.17699 15.9531 8.10135 16.0134 8.07969 16.0134C8.05799 16.0134 7.99802 16.0586 7.94643 16.1138L7.85261 16.2143H6.82809C6.16739 16.2143 5.80357 16.2262 5.80357 16.2478C5.80357 16.2662 5.75837 16.2812 5.70312 16.2812C5.64788 16.2812 5.60268 16.2963 5.60268 16.3147C5.60268 16.3331 5.57974 16.3482 5.55172 16.3482C5.48542 16.3482 5.13393 16.6997 5.13393 16.766C5.13393 16.794 5.11886 16.817 5.10045 16.817C5.08203 16.817 5.06696 16.8622 5.06696 16.9174C5.06696 16.9727 5.0519 17.0179 5.03348 17.0179C5.01142 17.0179 5 18.0558 5 20.0647C5 22.0737 5.01142 23.1116 5.03348 23.1116C5.0519 23.1116 5.06696 23.1869 5.06696 23.279C5.06696 23.3711 5.08203 23.4464 5.10045 23.4464C5.11886 23.4464 5.13393 23.4916 5.13393 23.5469C5.13393 23.6021 5.149 23.6473 5.16741 23.6473C5.18583 23.6473 5.20089 23.6925 5.20089 23.7478C5.20089 23.803 5.21596 23.8482 5.23438 23.8482C5.25279 23.8482 5.26786 23.8783 5.26786 23.9152C5.26786 23.952 5.28292 23.9821 5.30134 23.9821C5.31975 23.9821 5.33482 24.0123 5.33482 24.0491C5.33482 24.0859 5.34989 24.1161 5.3683 24.1161C5.38672 24.1161 5.40179 24.1462 5.40179 24.183C5.40179 24.2199 5.41685 24.25 5.43527 24.25C5.45368 24.25 5.46875 24.2741 5.46875 24.3035C5.46875 24.333 5.51395 24.3993 5.5692 24.4509C5.62444 24.5025 5.66964 24.5615 5.66964 24.582C5.66964 24.6343 6.22839 25.1875 6.28119 25.1875C6.305 25.1875 6.34622 25.2176 6.37277 25.2545C6.39932 25.2913 6.44452 25.3214 6.47321 25.3214C6.50191 25.3214 6.54711 25.3516 6.57366 25.3884C6.60021 25.4252 6.64873 25.4554 6.68151 25.4554C6.71425 25.4554 6.74107 25.4704 6.74107 25.4888C6.74107 25.5073 6.77121 25.5223 6.80804 25.5223C6.84487 25.5223 6.875 25.5374 6.875 25.5558C6.875 25.5742 6.90513 25.5893 6.94196 25.5893C6.97879 25.5893 7.00893 25.6044 7.00893 25.6228C7.00893 25.6412 7.05413 25.6562 7.10938 25.6562C7.16462 25.6562 7.20982 25.6713 7.20982 25.6897C7.20982 25.7081 7.27009 25.7232 7.34375 25.7232C7.41741 25.7232 7.47768 25.7383 7.47768 25.7567C7.47768 25.7751 7.55301 25.7902 7.64509 25.7902C7.73716 25.7902 7.8125 25.8052 7.8125 25.8237C7.8125 25.8454 8.28761 25.8571 9.1709 25.8571C10.6433 25.8571 10.625 25.8548 10.625 26.0389C10.625 26.0863 10.6401 26.125 10.6585 26.125C10.6769 26.125 10.692 26.1551 10.692 26.192C10.692 26.2288 10.707 26.2589 10.7254 26.2589C10.7439 26.2589 10.7589 26.2857 10.7589 26.3185C10.7589 26.3513 10.7891 26.3998 10.8259 26.4263C10.8627 26.4529 10.8929 26.4981 10.8929 26.5268C10.8929 26.5555 10.923 26.6007 10.9598 26.6272C10.9967 26.6538 11.0268 26.695 11.0268 26.7188C11.0268 26.7753 11.5819 27.3304 11.6383 27.3304C11.6621 27.3304 11.7034 27.3605 11.7299 27.3973C11.7565 27.4342 11.8017 27.4643 11.8304 27.4643C11.8591 27.4643 11.9043 27.4944 11.9308 27.5312C11.9574 27.5681 12.0059 27.5982 12.0386 27.5982C12.0714 27.5982 12.0982 27.6133 12.0982 27.6317C12.0982 27.6501 12.1283 27.6652 12.1652 27.6652C12.202 27.6652 12.2321 27.6802 12.2321 27.6987C12.2321 27.7171 12.2623 27.7321 12.2991 27.7321C12.3359 27.7321 12.3661 27.7472 12.3661 27.7656C12.3661 27.784 12.4113 27.7991 12.4665 27.7991C12.5218 27.7991 12.567 27.8142 12.567 27.8326C12.567 27.851 12.6122 27.8661 12.6674 27.8661C12.7227 27.8661 12.7679 27.8811 12.7679 27.8996C12.7679 27.918 12.8432 27.933 12.9353 27.933C13.0273 27.933 13.1027 27.9481 13.1027 27.9665C13.1027 27.9871 13.2701 28 13.5379 28C13.8058 28 13.9732 27.9871 13.9732 27.9665C13.9732 27.9479 14.0625 27.933 14.1741 27.933C14.2857 27.933 14.375 27.9182 14.375 27.8996C14.375 27.8811 14.4202 27.8661 14.4754 27.8661C14.5307 27.8661 14.5759 27.851 14.5759 27.8326C14.5759 27.8142 14.6211 27.7991 14.6763 27.7991C14.7316 27.7991 14.7768 27.784 14.7768 27.7656C14.7768 27.7472 14.8069 27.7321 14.8438 27.7321C14.8806 27.7321 14.9107 27.7171 14.9107 27.6987C14.9107 27.6802 14.9408 27.6652 14.9777 27.6652C15.0145 27.6652 15.0446 27.6501 15.0446 27.6317C15.0446 27.6133 15.0715 27.5982 15.1042 27.5982C15.137 27.5982 15.1855 27.5681 15.2121 27.5312C15.2386 27.4944 15.2838 27.4643 15.3125 27.4643C15.3412 27.4643 15.3864 27.4342 15.4129 27.3973C15.4395 27.3605 15.4807 27.3304 15.5046 27.3304C15.5575 27.3304 16.0491 26.8442 16.0491 26.7919C16.0491 26.7713 16.0943 26.7123 16.1496 26.6607C16.2048 26.6091 16.25 26.5461 16.25 26.5208C16.25 26.4954 16.2801 26.4529 16.317 26.4263C16.3538 26.3998 16.3839 26.3513 16.3839 26.3185C16.3839 26.2857 16.399 26.2589 16.4174 26.2589C16.4358 26.2589 16.4509 26.2288 16.4509 26.192C16.4509 26.1551 16.466 26.125 16.4844 26.125C16.5028 26.125 16.5179 26.0863 16.5179 26.0389C16.5179 25.8455 16.2255 25.8571 21.0714 25.8571C25.9174 25.8571 25.625 25.8455 25.625 26.0389C25.625 26.0863 25.6401 26.125 25.6585 26.125C25.6769 26.125 25.692 26.1551 25.692 26.192C25.692 26.2288 25.707 26.2589 25.7254 26.2589C25.7439 26.2589 25.7589 26.2857 25.7589 26.3185C25.7589 26.3513 25.7891 26.3998 25.8259 26.4263C25.8627 26.4529 25.8929 26.4981 25.8929 26.5268C25.8929 26.5555 25.923 26.6007 25.9598 26.6272C25.9967 26.6538 26.0268 26.695 26.0268 26.7188C26.0268 26.7753 26.5819 27.3304 26.6383 27.3304C26.6621 27.3304 26.7034 27.3605 26.7299 27.3973C26.7565 27.4342 26.8017 27.4643 26.8304 27.4643C26.8591 27.4643 26.9043 27.4944 26.9308 27.5312C26.9574 27.5681 27.0059 27.5982 27.0386 27.5982C27.0714 27.5982 27.0982 27.6133 27.0982 27.6317C27.0982 27.6501 27.1283 27.6652 27.1652 27.6652C27.202 27.6652 27.2321 27.6802 27.2321 27.6987C27.2321 27.7171 27.2623 27.7321 27.2991 27.7321C27.3359 27.7321 27.3661 27.7472 27.3661 27.7656C27.3661 27.784 27.4113 27.7991 27.4665 27.7991C27.5218 27.7991 27.567 27.8142 27.567 27.8326C27.567 27.851 27.6122 27.8661 27.6674 27.8661C27.7227 27.8661 27.7679 27.8811 27.7679 27.8996C27.7679 27.9182 27.8572 27.933 27.9688 27.933C28.0803 27.933 28.1696 27.9479 28.1696 27.9665C28.1696 27.987 28.3259 28 28.5714 28C28.817 28 28.9732 27.987 28.9732 27.9665C28.9732 27.9479 29.0625 27.933 29.1741 27.933C29.2857 27.933 29.375 27.9182 29.375 27.8996C29.375 27.8811 29.4202 27.8661 29.4754 27.8661C29.5307 27.8661 29.5759 27.851 29.5759 27.8326C29.5759 27.8142 29.6211 27.7991 29.6763 27.7991C29.7316 27.7991 29.7768 27.784 29.7768 27.7656C29.7768 27.7472 29.8069 27.7321 29.8438 27.7321C29.8806 27.7321 29.9107 27.7171 29.9107 27.6987C29.9107 27.6802 29.9408 27.6652 29.9777 27.6652C30.0145 27.6652 30.0446 27.6501 30.0446 27.6317C30.0446 27.6133 30.0715 27.5982 30.1042 27.5982C30.137 27.5982 30.1855 27.5681 30.2121 27.5312C30.2386 27.4944 30.2838 27.4643 30.3125 27.4643C30.3412 27.4643 30.3864 27.4342 30.4129 27.3973C30.4395 27.3605 30.4807 27.3304 30.5046 27.3304C30.5575 27.3304 31.0491 26.8442 31.0491 26.7919C31.0491 26.7713 31.0943 26.7123 31.1496 26.6607C31.2048 26.6091 31.25 26.5428 31.25 26.5134C31.25 26.4839 31.2651 26.4598 31.2835 26.4598C31.3019 26.4598 31.317 26.433 31.317 26.4003C31.317 26.3675 31.3471 26.319 31.3839 26.2924C31.4208 26.2659 31.4509 26.2173 31.4509 26.1846C31.4509 26.1518 31.466 26.125 31.4844 26.125C31.5028 26.125 31.5179 26.0863 31.5179 26.0389C31.5179 25.8555 31.5053 25.8571 32.905 25.8571C33.7436 25.8571 34.1964 25.8454 34.1964 25.8237C34.1964 25.8052 34.2383 25.7902 34.2895 25.7902C34.3441 25.7902 34.4024 25.7625 34.4308 25.7232C34.4574 25.6864 34.4988 25.6562 34.523 25.6562C34.5801 25.6562 34.7991 25.4373 34.7991 25.3802C34.7991 25.356 34.8292 25.3145 34.8661 25.2879C34.9054 25.2596 34.933 25.2013 34.933 25.1466C34.933 25.0955 34.9481 25.0536 34.9665 25.0536C34.9873 25.0536 35 24.8638 35 24.5513C35 24.2388 34.9873 24.0491 34.9665 24.0491C34.947 24.0491 34.933 23.9375 34.933 23.7812C34.933 23.625 34.9191 23.5134 34.8996 23.5134C34.8811 23.5134 34.8661 23.4381 34.8661 23.346C34.8661 23.2539 34.851 23.1786 34.8326 23.1786C34.8142 23.1786 34.7991 23.1032 34.7991 23.0112C34.7991 22.9191 34.784 22.8438 34.7656 22.8438C34.7472 22.8438 34.7321 22.7985 34.7321 22.7433C34.7321 22.6881 34.7171 22.6429 34.6987 22.6429C34.6802 22.6429 34.6652 22.5826 34.6652 22.5089C34.6652 22.4353 34.6501 22.375 34.6317 22.375C34.6133 22.375 34.5982 22.3298 34.5982 22.2746C34.5982 22.2193 34.5831 22.1741 34.5647 22.1741C34.5463 22.1741 34.5312 22.1289 34.5312 22.0737C34.5312 22.0184 34.5162 21.9732 34.4978 21.9732C34.4794 21.9732 34.4643 21.9431 34.4643 21.9062C34.4643 21.8694 34.4492 21.8393 34.4308 21.8393C34.4124 21.8393 34.3973 21.7941 34.3973 21.7388C34.3973 21.6836 34.3823 21.6384 34.3638 21.6384C34.3454 21.6384 34.3304 21.6083 34.3304 21.5714C34.3304 21.5346 34.3153 21.5045 34.2969 21.5045C34.2785 21.5045 34.2634 21.4743 34.2634 21.4375C34.2634 21.4007 34.2483 21.3705 34.2299 21.3705C34.2115 21.3705 34.1964 21.3404 34.1964 21.3036C34.1964 21.2667 34.1814 21.2366 34.1629 21.2366C34.1445 21.2366 34.1295 21.2065 34.1295 21.1696C34.1295 21.1328 34.1144 21.1027 34.096 21.1027C34.0776 21.1027 34.0625 21.0725 34.0625 21.0357C34.0625 20.9989 34.0474 20.9687 34.029 20.9687C34.0106 20.9687 33.9955 20.9386 33.9955 20.9018C33.9955 20.865 33.9805 20.8348 33.9621 20.8348C33.9436 20.8348 33.9286 20.808 33.9286 20.7753C33.9286 20.7425 33.8984 20.694 33.8616 20.6674C33.8248 20.6409 33.7946 20.5923 33.7946 20.5596C33.7946 20.5268 33.7796 20.5 33.7612 20.5C33.7427 20.5 33.7277 20.4732 33.7277 20.4404C33.7277 20.4077 33.6975 20.3591 33.6607 20.3326C33.6239 20.306 33.5938 20.2635 33.5938 20.2382C33.5938 20.2128 33.5485 20.1498 33.4933 20.0982C33.4381 20.0466 33.3929 19.9864 33.3929 19.9643C33.3929 19.9422 33.3477 19.882 33.2924 19.8304C33.2372 19.7788 33.192 19.7199 33.192 19.6995C33.192 19.6511 32.0989 18.558 32.0505 18.558C32.0301 18.558 31.9712 18.5128 31.9196 18.4576C31.868 18.4023 31.805 18.3571 31.7797 18.3571C31.7543 18.3571 31.7118 18.327 31.6853 18.2902C31.6587 18.2533 31.6135 18.2232 31.5848 18.2232C31.5561 18.2232 31.5109 18.1931 31.4844 18.1562C31.4578 18.1194 31.4093 18.0893 31.3765 18.0893C31.3438 18.0893 31.317 18.0742 31.317 18.0558C31.317 18.0374 31.2868 18.0223 31.25 18.0223C31.2132 18.0223 31.183 18.0073 31.183 17.9888C31.183 17.9704 31.1562 17.9554 31.1235 17.9554C31.0907 17.9554 31.0422 17.9252 31.0156 17.8884C30.9891 17.8516 30.9406 17.8214 30.9078 17.8214C30.875 17.8214 30.8482 17.8064 30.8482 17.7879C30.8482 17.7695 30.803 17.7545 30.7478 17.7545C30.6925 17.7545 30.6473 17.7394 30.6473 17.721C30.6473 17.7026 30.6172 17.6875 30.5804 17.6875C30.5435 17.6875 30.5134 17.6724 30.5134 17.654C30.5134 17.6356 30.4833 17.6205 30.4464 17.6205C30.4096 17.6205 30.3795 17.6055 30.3795 17.5871C30.3795 17.5686 30.3343 17.5536 30.279 17.5536C30.2238 17.5536 30.1786 17.5385 30.1786 17.5201C30.1786 17.5017 30.1334 17.4866 30.0781 17.4866C30.0229 17.4866 29.9777 17.4715 29.9777 17.4531C29.9777 17.4347 29.9174 17.4196 29.8438 17.4196C29.7701 17.4196 29.7098 17.4046 29.7098 17.3862C29.7098 17.3677 29.6496 17.3527 29.5759 17.3527C29.5022 17.3527 29.442 17.3376 29.442 17.3192C29.442 17.3006 29.3527 17.2857 29.2411 17.2857C29.1295 17.2857 29.0402 17.2708 29.0402 17.2522C29.0402 17.231 28.7835 17.2188 28.3371 17.2188C27.8906 17.2188 27.6339 17.231 27.6339 17.2522C27.6339 17.2714 27.5335 17.2857 27.3996 17.2857C27.2656 17.2857 27.1652 17.3001 27.1652 17.3192C27.1652 17.3376 27.0898 17.3527 26.9978 17.3527C26.9057 17.3527 26.8304 17.3376 26.8304 17.3192C26.8304 17.3008 26.8002 17.2857 26.7634 17.2857C26.7266 17.2857 26.6964 17.2706 26.6964 17.2522C26.6964 17.2338 26.6696 17.2188 26.6369 17.2188C26.6041 17.2188 26.5556 17.1886 26.529 17.1518C26.5025 17.115 26.4573 17.0848 26.4286 17.0848C26.3999 17.0848 26.3547 17.0547 26.3281 17.0179C26.3016 16.981 26.2564 16.9509 26.2277 16.9509C26.199 16.9509 26.1538 16.9208 26.1272 16.8839C26.1007 16.8471 26.0522 16.817 26.0194 16.817C25.9866 16.817 25.9598 16.8019 25.9598 16.7835C25.9598 16.7651 25.933 16.75 25.9003 16.75C25.8675 16.75 25.819 16.7199 25.7924 16.683C25.7659 16.6462 25.7173 16.6161 25.6846 16.6161C25.6518 16.6161 25.625 16.601 25.625 16.5826C25.625 16.5642 25.5982 16.5491 25.5654 16.5491C25.5327 16.5491 25.4841 16.519 25.4576 16.4821C25.431 16.4453 25.3825 16.4152 25.3497 16.4152C25.317 16.4152 25.2902 16.4001 25.2902 16.3817C25.2902 16.3633 25.2634 16.3482 25.2306 16.3482C25.1978 16.3482 25.1493 16.3181 25.1228 16.2812C25.0962 16.2444 25.0477 16.2143 25.0149 16.2143C24.9822 16.2143 24.9554 16.1992 24.9554 16.1808C24.9554 16.1624 24.9285 16.1473 24.8958 16.1473C24.863 16.1473 24.8145 16.1172 24.7879 16.0804C24.7614 16.0435 24.7129 16.0134 24.6801 16.0134C24.6474 16.0134 24.6205 15.9983 24.6205 15.9799C24.6205 15.9615 24.5904 15.9464 24.5536 15.9464C24.5167 15.9464 24.4866 15.9314 24.4866 15.9129C24.4866 15.8945 24.4598 15.8795 24.427 15.8795C24.3943 15.8795 24.3457 15.8493 24.3192 15.8125C24.2926 15.7757 24.2441 15.7455 24.2113 15.7455C24.1786 15.7455 24.1518 15.7305 24.1518 15.7121C24.1518 15.6936 24.1217 15.6786 24.0848 15.6786C24.048 15.6786 24.0179 15.6635 24.0179 15.6451C24.0179 15.6267 23.9877 15.6116 23.9509 15.6116C23.9141 15.6116 23.8839 15.5965 23.8839 15.5781C23.8839 15.5597 23.8571 15.5446 23.8244 15.5446C23.7916 15.5446 23.7431 15.5145 23.7165 15.4777C23.69 15.4408 23.6415 15.4107 23.6087 15.4107C23.5759 15.4107 23.5491 15.3956 23.5491 15.3772C23.5491 15.3588 23.519 15.3438 23.4821 15.3438C23.4453 15.3438 23.4152 15.3287 23.4152 15.3103C23.4152 15.2919 23.385 15.2768 23.3482 15.2768C23.3114 15.2768 23.2812 15.2617 23.2812 15.2433C23.2812 15.2249 23.2511 15.2098 23.2143 15.2098C23.1775 15.2098 23.1473 15.1948 23.1473 15.1763C23.1473 15.1579 23.1172 15.1429 23.0804 15.1429C23.0435 15.1429 23.0134 15.1278 23.0134 15.1094C23.0134 15.091 22.9833 15.0759 22.9464 15.0759C22.9096 15.0759 22.8795 15.0608 22.8795 15.0424C22.8795 15.024 22.8493 15.0089 22.8125 15.0089C22.7757 15.0089 22.7455 14.9939 22.7455 14.9754C22.7455 14.957 22.7154 14.942 22.6786 14.942C22.6417 14.942 22.6116 14.9269 22.6116 14.9085C22.6116 14.8901 22.5815 14.875 22.5446 14.875C22.5078 14.875 22.4777 14.8599 22.4777 14.8415C22.4777 14.8231 22.4475 14.808 22.4107 14.808C22.3739 14.808 22.3438 14.793 22.3438 14.7746C22.3438 14.7561 22.3136 14.7411 22.2768 14.7411C22.24 14.7411 22.2098 14.726 22.2098 14.7076C22.2098 14.6892 22.1797 14.6741 22.1429 14.6741C22.106 14.6741 22.0759 14.659 22.0759 14.6406C22.0759 14.6222 22.0458 14.6071 22.0089 14.6071C21.9721 14.6071 21.942 14.5921 21.942 14.5737C21.942 14.5552 21.9118 14.5402 21.875 14.5402C21.8382 14.5402 21.808 14.5251 21.808 14.5067C21.808 14.4883 21.7779 14.4732 21.7411 14.4732C21.7042 14.4732 21.6741 14.4581 21.6741 14.4397C21.6741 14.4213 21.644 14.4062 21.6071 14.4062C21.5703 14.4062 21.5402 14.3912 21.5402 14.3728C21.5402 14.3544 21.495 14.3393 21.4397 14.3393C21.3845 14.3393 21.3393 14.3242 21.3393 14.3058C21.3393 14.2874 21.3092 14.2723 21.2723 14.2723C21.2355 14.2723 21.2054 14.2573 21.2054 14.2388C21.2054 14.2204 21.1752 14.2054 21.1384 14.2054C21.1016 14.2054 21.0714 14.1903 21.0714 14.1719C21.0714 14.1535 21.0413 14.1384 21.0045 14.1384C20.9676 14.1384 20.9375 14.1233 20.9375 14.1049C20.9375 14.0865 20.8923 14.0714 20.8371 14.0714C20.7818 14.0714 20.7366 14.0564 20.7366 14.0379C20.7366 14.0195 20.7065 14.0045 20.6696 14.0045C20.6328 14.0045 20.6027 13.9894 20.6027 13.971C20.6027 13.9526 20.5575 13.9375 20.5022 13.9375C20.447 13.9375 20.4018 13.9224 20.4018 13.904C20.4018 13.8856 20.3717 13.8705 20.3348 13.8705C20.298 13.8705 20.2679 13.8555 20.2679 13.8371C20.2679 13.8186 20.2227 13.8036 20.1674 13.8036C20.1122 13.8036 20.067 13.7885 20.067 13.7701C20.067 13.7517 20.0368 13.7366 20 13.7366C19.9632 13.7366 19.933 13.7215 19.933 13.7031C19.933 13.6847 19.8878 13.6696 19.8326 13.6696C19.7773 13.6696 19.7321 13.6546 19.7321 13.6362C19.7321 13.6177 19.702 13.6027 19.6652 13.6027C19.6283 13.6027 19.5982 13.5876 19.5982 13.5692C19.5982 13.5508 19.553 13.5357 19.4978 13.5357C19.4425 13.5357 19.3973 13.5206 19.3973 13.5022C19.3973 13.4838 19.3371 13.4688 19.2634 13.4688C19.1897 13.4688 19.1295 13.4537 19.1295 13.4353C19.1295 13.4169 19.0843 13.4018 19.029 13.4018C18.9738 13.4018 18.9286 13.3867 18.9286 13.3683C18.9286 13.3499 18.8834 13.3348 18.8281 13.3348C18.7729 13.3348 18.7277 13.3198 18.7277 13.3013C18.7277 13.2829 18.6674 13.2679 18.5938 13.2679C18.5201 13.2679 18.4598 13.2528 18.4598 13.2344C18.4598 13.216 18.3996 13.2009 18.3259 13.2009C18.2522 13.2009 18.192 13.1858 18.192 13.1674C18.192 13.149 18.1166 13.1339 18.0246 13.1339C17.9325 13.1339 17.8571 13.1189 17.8571 13.1004C17.8571 13.0813 17.7567 13.067 17.6228 13.067C17.4888 13.067 17.3884 13.0526 17.3884 13.0335C17.3884 13.012 17.0759 13 16.5179 13C15.9598 13 15.6473 13.012 15.6473 13.0335ZM17.1875 15.1763C17.1875 15.1948 17.2628 15.2098 17.3549 15.2098C17.447 15.2098 17.5223 15.2249 17.5223 15.2433C17.5223 15.2617 17.5826 15.2768 17.6562 15.2768C17.7299 15.2768 17.7902 15.2919 17.7902 15.3103C17.7902 15.3287 17.8504 15.3438 17.9241 15.3438C17.9978 15.3438 18.058 15.3588 18.058 15.3772C18.058 15.3956 18.1183 15.4107 18.192 15.4107C18.2656 15.4107 18.3259 15.4258 18.3259 15.4442C18.3259 15.4626 18.3711 15.4777 18.4263 15.4777C18.4816 15.4777 18.5268 15.4927 18.5268 15.5112C18.5268 15.5296 18.572 15.5446 18.6272 15.5446C18.6825 15.5446 18.7277 15.5597 18.7277 15.5781C18.7277 15.5965 18.7729 15.6116 18.8281 15.6116C18.8834 15.6116 18.9286 15.6267 18.9286 15.6451C18.9286 15.6635 18.9738 15.6786 19.029 15.6786C19.0843 15.6786 19.1295 15.6936 19.1295 15.7121C19.1295 15.7305 19.1596 15.7455 19.1964 15.7455C19.2333 15.7455 19.2634 15.7606 19.2634 15.779C19.2634 15.7974 19.3086 15.8125 19.3638 15.8125C19.4191 15.8125 19.4643 15.8276 19.4643 15.846C19.4643 15.8644 19.5095 15.8795 19.5647 15.8795C19.62 15.8795 19.6652 15.8945 19.6652 15.9129C19.6652 15.9314 19.6953 15.9464 19.7321 15.9464C19.769 15.9464 19.7991 15.9615 19.7991 15.9799C19.7991 15.9983 19.8443 16.0134 19.8996 16.0134C19.9548 16.0134 20 16.0285 20 16.0469C20 16.0653 20.0301 16.0804 20.067 16.0804C20.1038 16.0804 20.1339 16.0954 20.1339 16.1138C20.1339 16.1323 20.1641 16.1473 20.2009 16.1473C20.2377 16.1473 20.2679 16.1624 20.2679 16.1808C20.2679 16.1992 20.3131 16.2143 20.3683 16.2143C20.4235 16.2143 20.4687 16.2294 20.4687 16.2478C20.4687 16.2662 20.4989 16.2812 20.5357 16.2812C20.5725 16.2812 20.6027 16.2963 20.6027 16.3147C20.6027 16.3331 20.6328 16.3482 20.6696 16.3482C20.7065 16.3482 20.7366 16.3633 20.7366 16.3817C20.7366 16.4001 20.7667 16.4152 20.8036 16.4152C20.8404 16.4152 20.8705 16.4302 20.8705 16.4487C20.8705 16.4671 20.9007 16.4821 20.9375 16.4821C20.9743 16.4821 21.0045 16.4972 21.0045 16.5156C21.0045 16.534 21.0346 16.5491 21.0714 16.5491C21.1083 16.5491 21.1384 16.5642 21.1384 16.5826C21.1384 16.601 21.1836 16.6161 21.2388 16.6161C21.2941 16.6161 21.3393 16.6311 21.3393 16.6496C21.3393 16.668 21.3694 16.683 21.4062 16.683C21.4431 16.683 21.4732 16.6981 21.4732 16.7165C21.4732 16.7349 21.5033 16.75 21.5402 16.75C21.577 16.75 21.6071 16.7651 21.6071 16.7835C21.6071 16.8019 21.6373 16.817 21.6741 16.817C21.7109 16.817 21.7411 16.832 21.7411 16.8504C21.7411 16.8689 21.7712 16.8839 21.808 16.8839C21.8449 16.8839 21.875 16.899 21.875 16.9174C21.875 16.9358 21.9018 16.9509 21.9346 16.9509C21.9673 16.9509 22.0159 16.981 22.0424 17.0179C22.069 17.0547 22.1175 17.0848 22.1503 17.0848C22.183 17.0848 22.2098 17.0999 22.2098 17.1183C22.2098 17.1367 22.24 17.1518 22.2768 17.1518C22.3136 17.1518 22.3438 17.1669 22.3438 17.1853C22.3438 17.2037 22.3739 17.2188 22.4107 17.2188C22.4475 17.2188 22.4777 17.2338 22.4777 17.2522C22.4777 17.2706 22.5078 17.2857 22.5446 17.2857C22.5815 17.2857 22.6116 17.3008 22.6116 17.3192C22.6116 17.3376 22.6417 17.3527 22.6786 17.3527C22.7154 17.3527 22.7455 17.3677 22.7455 17.3862C22.7455 17.4046 22.7724 17.4196 22.8051 17.4196C22.8379 17.4196 22.8864 17.4498 22.9129 17.4866C22.9395 17.5234 22.988 17.5536 23.0208 17.5536C23.0535 17.5536 23.0804 17.5686 23.0804 17.5871C23.0804 17.6055 23.1105 17.6205 23.1473 17.6205C23.1842 17.6205 23.2143 17.6356 23.2143 17.654C23.2143 17.6724 23.2444 17.6875 23.2812 17.6875C23.3181 17.6875 23.3482 17.7026 23.3482 17.721C23.3482 17.7394 23.3181 17.7545 23.2812 17.7545C23.2444 17.7545 23.2143 17.7695 23.2143 17.7879C23.2143 17.8091 22.9688 17.8214 22.5446 17.8214C22.1205 17.8214 21.875 17.8337 21.875 17.8549C21.875 17.8767 21.4174 17.8884 20.5692 17.8884C19.721 17.8884 19.2634 17.8767 19.2634 17.8549C19.2634 17.8336 18.9955 17.8214 18.5268 17.8214C18.058 17.8214 17.7902 17.8092 17.7902 17.7879C17.7902 17.7674 17.6228 17.7545 17.3549 17.7545C17.0871 17.7545 16.9196 17.7416 16.9196 17.721C16.9196 17.7005 16.7634 17.6875 16.5179 17.6875C16.2723 17.6875 16.1161 17.6745 16.1161 17.654C16.1161 17.6342 15.9933 17.6205 15.8147 17.6205C15.6362 17.6205 15.5134 17.6069 15.5134 17.5871C15.5134 17.5675 15.4018 17.5536 15.2455 17.5536C15.0893 17.5536 14.9777 17.5396 14.9777 17.5201C14.9777 17.5006 14.8661 17.4866 14.7098 17.4866C14.5536 17.4866 14.442 17.4726 14.442 17.4531C14.442 17.434 14.3415 17.4196 14.2076 17.4196C14.0737 17.4196 13.9732 17.4053 13.9732 17.3862C13.9732 17.367 13.8728 17.3527 13.7388 17.3527C13.6049 17.3527 13.5045 17.3383 13.5045 17.3192C13.5045 17.3006 13.4152 17.2857 13.3036 17.2857C13.192 17.2857 13.1027 17.2708 13.1027 17.2522C13.1027 17.2336 13.0134 17.2188 12.9018 17.2188C12.7902 17.2188 12.7009 17.2039 12.7009 17.1853C12.7009 17.1667 12.6116 17.1518 12.5 17.1518C12.3884 17.1518 12.2991 17.1369 12.2991 17.1183C12.2991 17.0999 12.2238 17.0848 12.1317 17.0848C12.0396 17.0848 11.9643 17.0698 11.9643 17.0513C11.9643 17.0329 11.889 17.0179 11.7969 17.0179C11.7048 17.0179 11.6295 17.0028 11.6295 16.9844C11.6295 16.966 11.5541 16.9509 11.4621 16.9509C11.37 16.9509 11.2946 16.9358 11.2946 16.9174C11.2946 16.899 11.2193 16.8839 11.1272 16.8839C11.0352 16.8839 10.9598 16.8689 10.9598 16.8504C10.9598 16.832 10.8996 16.817 10.8259 16.817C10.7143 16.817 10.692 16.8058 10.692 16.75C10.692 16.7081 10.7143 16.683 10.7515 16.683C10.7843 16.683 10.8328 16.6529 10.8594 16.6161C10.8859 16.5792 10.9311 16.5491 10.9598 16.5491C10.9885 16.5491 11.0337 16.519 11.0603 16.4821C11.0868 16.4453 11.1353 16.4152 11.1681 16.4152C11.2009 16.4152 11.2277 16.4001 11.2277 16.3817C11.2277 16.3633 11.2578 16.3482 11.2946 16.3482C11.3315 16.3482 11.3616 16.3331 11.3616 16.3147C11.3616 16.2963 11.3917 16.2812 11.4286 16.2812C11.4654 16.2812 11.4955 16.2662 11.4955 16.2478C11.4955 16.2294 11.5257 16.2143 11.5625 16.2143C11.5993 16.2143 11.6295 16.1992 11.6295 16.1808C11.6295 16.1624 11.6596 16.1473 11.6964 16.1473C11.7333 16.1473 11.7634 16.1323 11.7634 16.1138C11.7634 16.0954 11.7935 16.0804 11.8304 16.0804C11.8672 16.0804 11.8973 16.0653 11.8973 16.0469C11.8973 16.0285 11.9275 16.0134 11.9643 16.0134C12.0011 16.0134 12.0312 15.9983 12.0312 15.9799C12.0312 15.9615 12.0614 15.9464 12.0982 15.9464C12.135 15.9464 12.1652 15.9314 12.1652 15.9129C12.1652 15.8945 12.2104 15.8795 12.2656 15.8795C12.3209 15.8795 12.3661 15.8644 12.3661 15.846C12.3661 15.8276 12.4113 15.8125 12.4665 15.8125C12.5218 15.8125 12.567 15.7974 12.567 15.779C12.567 15.7606 12.6122 15.7455 12.6674 15.7455C12.7227 15.7455 12.7679 15.7305 12.7679 15.7121C12.7679 15.6936 12.798 15.6786 12.8348 15.6786C12.8717 15.6786 12.9018 15.6635 12.9018 15.6451C12.9018 15.6267 12.9621 15.6116 13.0357 15.6116C13.1094 15.6116 13.1696 15.5965 13.1696 15.5781C13.1696 15.5597 13.2148 15.5446 13.2701 15.5446C13.3253 15.5446 13.3705 15.5296 13.3705 15.5112C13.3705 15.4927 13.4459 15.4777 13.5379 15.4777C13.63 15.4777 13.7054 15.4626 13.7054 15.4442C13.7054 15.4258 13.7656 15.4107 13.8393 15.4107C13.9129 15.4107 13.9732 15.3956 13.9732 15.3772C13.9732 15.3586 14.0625 15.3438 14.1741 15.3438C14.2857 15.3438 14.375 15.3289 14.375 15.3103C14.375 15.2911 14.4754 15.2768 14.6094 15.2768C14.7433 15.2768 14.8438 15.2624 14.8438 15.2433C14.8438 15.2228 15 15.2098 15.2455 15.2098C15.4911 15.2098 15.6473 15.1968 15.6473 15.1763C15.6473 15.155 15.9263 15.1429 16.4174 15.1429C16.9085 15.1429 17.1875 15.155 17.1875 15.1763ZM8.34821 18.3906C8.34821 18.409 8.39341 18.4241 8.44866 18.4241C8.50391 18.4241 8.54911 18.4392 8.54911 18.4576C8.54911 18.476 8.60938 18.4911 8.68304 18.4911C8.7567 18.4911 8.81696 18.5061 8.81696 18.5246C8.81696 18.543 8.87723 18.558 8.95089 18.558C9.02455 18.558 9.08482 18.5731 9.08482 18.5915C9.08482 18.6099 9.14509 18.625 9.21875 18.625C9.29241 18.625 9.35268 18.6401 9.35268 18.6585C9.35268 18.6769 9.41295 18.692 9.48661 18.692C9.56027 18.692 9.62054 18.707 9.62054 18.7254C9.62054 18.7439 9.69587 18.7589 9.78795 18.7589C9.88002 18.7589 9.95536 18.774 9.95536 18.7924C9.95536 18.8108 10.0156 18.8259 10.0893 18.8259C10.1629 18.8259 10.2232 18.841 10.2232 18.8594C10.2232 18.8778 10.2835 18.8929 10.3571 18.8929C10.4308 18.8929 10.4911 18.9079 10.4911 18.9263C10.4911 18.9448 10.5664 18.9598 10.6585 18.9598C10.7506 18.9598 10.8259 18.9749 10.8259 18.9933C10.8259 19.0117 10.9012 19.0268 10.9933 19.0268C11.0854 19.0268 11.1607 19.0419 11.1607 19.0603C11.1607 19.0787 11.236 19.0938 11.3281 19.0938C11.4202 19.0938 11.4955 19.1088 11.4955 19.1272C11.4955 19.1456 11.5709 19.1607 11.6629 19.1607C11.755 19.1607 11.8304 19.1758 11.8304 19.1942C11.8304 19.2128 11.9197 19.2277 12.0312 19.2277C12.1428 19.2277 12.2321 19.2425 12.2321 19.2612C12.2321 19.2798 12.3214 19.2946 12.433 19.2946C12.5446 19.2946 12.6339 19.3095 12.6339 19.3281C12.6339 19.3465 12.7093 19.3616 12.8013 19.3616C12.8934 19.3616 12.9687 19.3767 12.9687 19.3951C12.9687 19.4142 13.0692 19.4286 13.2031 19.4286C13.3371 19.4286 13.4375 19.4429 13.4375 19.4621C13.4375 19.4812 13.5379 19.4955 13.6719 19.4955C13.8058 19.4955 13.9062 19.5099 13.9062 19.529C13.9062 19.5476 13.9955 19.5625 14.1071 19.5625C14.2187 19.5625 14.308 19.5774 14.308 19.596C14.308 19.6155 14.4196 19.6295 14.5759 19.6295C14.7322 19.6295 14.8438 19.6434 14.8438 19.6629C14.8438 19.6825 14.9553 19.6964 15.1116 19.6964C15.2679 19.6964 15.3795 19.7104 15.3795 19.7299C15.3795 19.7502 15.5245 19.7634 15.7478 19.7634C15.971 19.7634 16.1161 19.7766 16.1161 19.7969C16.1161 19.817 16.25 19.8304 16.4509 19.8304C16.6518 19.8304 16.7857 19.8438 16.7857 19.8638C16.7857 19.8846 16.9643 19.8973 17.2545 19.8973C17.5447 19.8973 17.7232 19.9101 17.7232 19.9308C17.7232 19.952 17.9687 19.9643 18.3929 19.9643C18.817 19.9643 19.0625 19.9766 19.0625 19.9978C19.0625 20.0196 19.5982 20.0312 20.6027 20.0312C21.6071 20.0312 22.1429 20.0196 22.1429 19.9978C22.1429 19.9766 22.3884 19.9643 22.8125 19.9643C23.2366 19.9643 23.4821 19.952 23.4821 19.9308C23.4821 19.9102 23.6496 19.8973 23.9174 19.8973C24.1853 19.8973 24.3527 19.8844 24.3527 19.8638C24.3527 19.8438 24.4866 19.8304 24.6875 19.8304C24.8884 19.8304 25.0223 19.817 25.0223 19.7969C25.0223 19.777 25.1451 19.7634 25.3237 19.7634C25.5022 19.7634 25.625 19.7498 25.625 19.7299C25.625 19.7108 25.7254 19.6964 25.8594 19.6964C25.9933 19.6964 26.0938 19.6821 26.0938 19.6629C26.0938 19.6438 26.1942 19.6295 26.3281 19.6295C26.4621 19.6295 26.5625 19.6151 26.5625 19.596C26.5625 19.5769 26.6629 19.5625 26.7969 19.5625C26.9308 19.5625 27.0312 19.5481 27.0312 19.529C27.0312 19.5106 27.1066 19.4955 27.1987 19.4955C27.2907 19.4955 27.3661 19.4805 27.3661 19.4621C27.3661 19.4434 27.4554 19.4286 27.567 19.4286C27.6786 19.4286 27.7679 19.4137 27.7679 19.3951C27.7679 19.374 27.9911 19.3616 28.3705 19.3616C28.75 19.3616 28.9732 19.374 28.9732 19.3951C28.9732 19.4135 29.0335 19.4286 29.1071 19.4286C29.1808 19.4286 29.2411 19.4436 29.2411 19.4621C29.2411 19.4805 29.2863 19.4955 29.3415 19.4955C29.3968 19.4955 29.442 19.5106 29.442 19.529C29.442 19.5474 29.4872 19.5625 29.5424 19.5625C29.5977 19.5625 29.6429 19.5776 29.6429 19.596C29.6429 19.6144 29.6881 19.6295 29.7433 19.6295C29.7985 19.6295 29.8438 19.6445 29.8438 19.6629C29.8438 19.6814 29.8706 19.6964 29.9033 19.6964C29.9361 19.6964 29.9846 19.7266 30.0112 19.7634C30.0377 19.8002 30.0862 19.8304 30.119 19.8304C30.1518 19.8304 30.1786 19.8454 30.1786 19.8638C30.1786 19.8823 30.2054 19.8973 30.2381 19.8973C30.2709 19.8973 30.3194 19.9275 30.346 19.9643C30.3725 20.0011 30.415 20.0312 30.4404 20.0312C30.4657 20.0312 30.5288 20.0765 30.5804 20.1317C30.632 20.1869 30.6909 20.2321 30.7114 20.2321C30.7636 20.2321 31.4509 20.9251 31.4509 20.9777C31.4509 21.0015 31.481 21.0426 31.5179 21.0692C31.5547 21.0957 31.5848 21.1409 31.5848 21.1696C31.5848 21.1983 31.615 21.2435 31.6518 21.2701C31.6886 21.2966 31.7188 21.3452 31.7188 21.3779C31.7188 21.4107 31.7338 21.4375 31.7522 21.4375C31.7706 21.4375 31.7857 21.4827 31.7857 21.5379C31.7857 21.5932 31.8008 21.6384 31.8192 21.6384C31.8376 21.6384 31.8527 21.6685 31.8527 21.7054C31.8527 21.7422 31.8677 21.7723 31.8862 21.7723C31.9046 21.7723 31.9196 21.8025 31.9196 21.8393C31.9196 21.8761 31.9347 21.9062 31.9531 21.9062C31.9715 21.9062 31.9866 21.9515 31.9866 22.0067C31.9866 22.0619 32.0017 22.1071 32.0201 22.1071C32.0385 22.1071 32.0536 22.1523 32.0536 22.2076C32.0536 22.2628 32.0686 22.308 32.0871 22.308C32.1055 22.308 32.1205 22.3532 32.1205 22.4085C32.1205 22.4637 32.1356 22.5089 32.154 22.5089C32.1724 22.5089 32.1875 22.5692 32.1875 22.6429C32.1875 22.7165 32.2026 22.7768 32.221 22.7768C32.2394 22.7768 32.2545 22.8371 32.2545 22.9107C32.2545 22.9844 32.2695 23.0446 32.2879 23.0446C32.3064 23.0446 32.3214 23.12 32.3214 23.2121C32.3214 23.3041 32.3365 23.3795 32.3549 23.3795C32.3733 23.3795 32.3884 23.4548 32.3884 23.5469V23.7143H32.001C31.5791 23.7143 31.5179 23.6912 31.5179 23.5325C31.5179 23.4852 31.5028 23.4464 31.4844 23.4464C31.466 23.4464 31.4509 23.4196 31.4509 23.3869C31.4509 23.3541 31.4208 23.3056 31.3839 23.279C31.3471 23.2525 31.317 23.2039 31.317 23.1712C31.317 23.1384 31.3019 23.1116 31.2835 23.1116C31.2651 23.1116 31.25 23.0875 31.25 23.0581C31.25 23.0286 31.2048 22.9623 31.1496 22.9107C31.0943 22.8591 31.0491 22.8001 31.0491 22.7796C31.0491 22.7272 30.5575 22.2411 30.5046 22.2411C30.4807 22.2411 30.4395 22.2109 30.4129 22.1741C30.3864 22.1373 30.3412 22.1071 30.3125 22.1071C30.2838 22.1071 30.2386 22.077 30.2121 22.0402C30.1855 22.0033 30.137 21.9732 30.1042 21.9732C30.0715 21.9732 30.0446 21.9581 30.0446 21.9397C30.0446 21.9213 30.0145 21.9062 29.9777 21.9062C29.9408 21.9062 29.9107 21.8912 29.9107 21.8728C29.9107 21.8544 29.8806 21.8393 29.8438 21.8393C29.8069 21.8393 29.7768 21.8242 29.7768 21.8058C29.7768 21.7874 29.7316 21.7723 29.6763 21.7723C29.6211 21.7723 29.5759 21.7573 29.5759 21.7388C29.5759 21.7204 29.5307 21.7054 29.4754 21.7054C29.4202 21.7054 29.375 21.6903 29.375 21.6719C29.375 21.6533 29.2857 21.6384 29.1741 21.6384C29.0625 21.6384 28.9732 21.6235 28.9732 21.6049C28.9732 21.5845 28.817 21.5714 28.5714 21.5714C28.3259 21.5714 28.1696 21.5845 28.1696 21.6049C28.1696 21.6235 28.0803 21.6384 27.9688 21.6384C27.8572 21.6384 27.7679 21.6533 27.7679 21.6719C27.7679 21.6903 27.7227 21.7054 27.6674 21.7054C27.6122 21.7054 27.567 21.7204 27.567 21.7388C27.567 21.7573 27.5218 21.7723 27.4665 21.7723C27.4113 21.7723 27.3661 21.7874 27.3661 21.8058C27.3661 21.8242 27.3359 21.8393 27.2991 21.8393C27.2623 21.8393 27.2321 21.8544 27.2321 21.8728C27.2321 21.8912 27.202 21.9062 27.1652 21.9062C27.1283 21.9062 27.0982 21.9213 27.0982 21.9397C27.0982 21.9581 27.0714 21.9732 27.0386 21.9732C27.0059 21.9732 26.9574 22.0033 26.9308 22.0402C26.9043 22.077 26.8591 22.1071 26.8304 22.1071C26.8017 22.1071 26.7565 22.1373 26.7299 22.1741C26.7034 22.2109 26.6621 22.2411 26.6383 22.2411C26.5819 22.2411 26.0268 22.7961 26.0268 22.8526C26.0268 22.8764 25.9967 22.9176 25.9598 22.9442C25.923 22.9707 25.8929 23.0159 25.8929 23.0446C25.8929 23.0733 25.8627 23.1185 25.8259 23.1451C25.7891 23.1716 25.7589 23.2202 25.7589 23.2529C25.7589 23.2857 25.7439 23.3125 25.7254 23.3125C25.707 23.3125 25.692 23.3426 25.692 23.3795C25.692 23.4163 25.6769 23.4464 25.6585 23.4464C25.6401 23.4464 25.625 23.4852 25.625 23.5325C25.625 23.726 25.9174 23.7143 21.0714 23.7143C16.2255 23.7143 16.5179 23.726 16.5179 23.5325C16.5179 23.4852 16.5028 23.4464 16.4844 23.4464C16.466 23.4464 16.4509 23.4196 16.4509 23.3869C16.4509 23.3541 16.4208 23.3056 16.3839 23.279C16.3471 23.2525 16.317 23.2039 16.317 23.1712C16.317 23.1384 16.3019 23.1116 16.2835 23.1116C16.2651 23.1116 16.25 23.0875 16.25 23.0581C16.25 23.0286 16.2048 22.9623 16.1496 22.9107C16.0943 22.8591 16.0491 22.8001 16.0491 22.7796C16.0491 22.7272 15.5575 22.2411 15.5046 22.2411C15.4807 22.2411 15.4395 22.2109 15.4129 22.1741C15.3864 22.1373 15.3412 22.1071 15.3125 22.1071C15.2838 22.1071 15.2386 22.077 15.2121 22.0402C15.1855 22.0033 15.137 21.9732 15.1042 21.9732C15.0715 21.9732 15.0446 21.9581 15.0446 21.9397C15.0446 21.9213 15.0145 21.9062 14.9777 21.9062C14.9408 21.9062 14.9107 21.8912 14.9107 21.8728C14.9107 21.8544 14.8806 21.8393 14.8438 21.8393C14.8069 21.8393 14.7768 21.8242 14.7768 21.8058C14.7768 21.7874 14.7316 21.7723 14.6763 21.7723C14.6211 21.7723 14.5759 21.7573 14.5759 21.7388C14.5759 21.7204 14.5156 21.7054 14.442 21.7054C14.3683 21.7054 14.308 21.6903 14.308 21.6719C14.308 21.6535 14.2327 21.6384 14.1406 21.6384C14.0485 21.6384 13.9732 21.6233 13.9732 21.6049C13.9732 21.5843 13.8058 21.5714 13.5379 21.5714C13.2701 21.5714 13.1027 21.5843 13.1027 21.6049C13.1027 21.6233 13.0273 21.6384 12.9353 21.6384C12.8432 21.6384 12.7679 21.6535 12.7679 21.6719C12.7679 21.6903 12.7227 21.7054 12.6674 21.7054C12.6122 21.7054 12.567 21.7204 12.567 21.7388C12.567 21.7573 12.5218 21.7723 12.4665 21.7723C12.4113 21.7723 12.3661 21.7874 12.3661 21.8058C12.3661 21.8242 12.3359 21.8393 12.2991 21.8393C12.2623 21.8393 12.2321 21.8544 12.2321 21.8728C12.2321 21.8912 12.202 21.9062 12.1652 21.9062C12.1283 21.9062 12.0982 21.9213 12.0982 21.9397C12.0982 21.9581 12.0681 21.9732 12.0312 21.9732C11.9944 21.9732 11.9643 21.9883 11.9643 22.0067C11.9643 22.0251 11.9402 22.0402 11.9107 22.0402C11.8813 22.0402 11.815 22.0854 11.7634 22.1406C11.7118 22.1959 11.6528 22.2411 11.6323 22.2411C11.58 22.2411 11.0268 22.7998 11.0268 22.8526C11.0268 22.8764 10.9967 22.9176 10.9598 22.9442C10.923 22.9707 10.8929 23.0159 10.8929 23.0446C10.8929 23.0733 10.8627 23.1185 10.8259 23.1451C10.7891 23.1716 10.7589 23.2202 10.7589 23.2529C10.7589 23.2857 10.7439 23.3125 10.7254 23.3125C10.707 23.3125 10.692 23.3426 10.692 23.3795C10.692 23.4163 10.6769 23.4464 10.6585 23.4464C10.6401 23.4464 10.625 23.4852 10.625 23.5325C10.625 23.7159 10.6376 23.7143 9.23787 23.7143C8.39924 23.7143 7.94643 23.7025 7.94643 23.6808C7.94643 23.6624 7.90123 23.6473 7.84598 23.6473C7.79074 23.6473 7.74554 23.6323 7.74554 23.6138C7.74554 23.5954 7.7226 23.5804 7.69458 23.5804C7.62828 23.5804 7.27679 23.2289 7.27679 23.1626C7.27679 23.1345 7.26172 23.1116 7.2433 23.1116C7.22489 23.1116 7.20982 23.0664 7.20982 23.0112C7.20982 22.9559 7.19475 22.9107 7.17634 22.9107C7.15434 22.9107 7.14286 22.1295 7.14286 20.6339V18.3571H7.74554C8.12499 18.3571 8.34821 18.3695 8.34821 18.3906ZM13.8393 23.7478C13.8393 23.7662 13.8845 23.7812 13.9397 23.7812C13.995 23.7812 14.0402 23.7963 14.0402 23.8147C14.0402 23.8331 14.0631 23.8482 14.0911 23.8482C14.1574 23.8482 14.5089 24.1997 14.5089 24.266C14.5089 24.294 14.524 24.317 14.5424 24.317C14.5608 24.317 14.5759 24.3622 14.5759 24.4174C14.5759 24.4727 14.591 24.5179 14.6094 24.5179C14.6289 24.5179 14.6429 24.6295 14.6429 24.7857C14.6429 24.942 14.6289 25.0536 14.6094 25.0536C14.591 25.0536 14.5759 25.0988 14.5759 25.154C14.5759 25.2093 14.5608 25.2545 14.5424 25.2545C14.524 25.2545 14.5089 25.2774 14.5089 25.3054C14.5089 25.3717 14.1574 25.7232 14.0911 25.7232C14.0631 25.7232 14.0402 25.7383 14.0402 25.7567C14.0402 25.7751 13.995 25.7902 13.9397 25.7902C13.8845 25.7902 13.8393 25.8052 13.8393 25.8237C13.8393 25.8432 13.7277 25.8571 13.5714 25.8571C13.4152 25.8571 13.3036 25.8432 13.3036 25.8237C13.3036 25.8052 13.2584 25.7902 13.2031 25.7902C13.1479 25.7902 13.1027 25.7751 13.1027 25.7567C13.1027 25.7383 13.0797 25.7232 13.0517 25.7232C12.9854 25.7232 12.6339 25.3717 12.6339 25.3054C12.6339 25.2774 12.6189 25.2545 12.6004 25.2545C12.582 25.2545 12.567 25.2093 12.567 25.154C12.567 25.0988 12.5519 25.0536 12.5335 25.0536C12.514 25.0536 12.5 24.942 12.5 24.7857C12.5 24.6295 12.514 24.5179 12.5335 24.5179C12.5519 24.5179 12.567 24.4727 12.567 24.4174C12.567 24.3622 12.582 24.317 12.6004 24.317C12.6189 24.317 12.6339 24.294 12.6339 24.266C12.6339 24.1997 12.9854 23.8482 13.0517 23.8482C13.0797 23.8482 13.1027 23.8331 13.1027 23.8147C13.1027 23.7963 13.1479 23.7812 13.2031 23.7812C13.2584 23.7812 13.3036 23.7662 13.3036 23.7478C13.3036 23.7282 13.4152 23.7143 13.5714 23.7143C13.7277 23.7143 13.8393 23.7282 13.8393 23.7478ZM28.8393 23.7478C28.8393 23.7662 28.8845 23.7812 28.9397 23.7812C28.995 23.7812 29.0402 23.7963 29.0402 23.8147C29.0402 23.8331 29.0631 23.8482 29.0911 23.8482C29.1574 23.8482 29.5089 24.1997 29.5089 24.266C29.5089 24.294 29.524 24.317 29.5424 24.317C29.5608 24.317 29.5759 24.3622 29.5759 24.4174C29.5759 24.4727 29.591 24.5179 29.6094 24.5179C29.6289 24.5179 29.6429 24.6295 29.6429 24.7857C29.6429 24.942 29.6289 25.0536 29.6094 25.0536C29.591 25.0536 29.5759 25.0988 29.5759 25.154C29.5759 25.2093 29.5608 25.2545 29.5424 25.2545C29.524 25.2545 29.5089 25.2774 29.5089 25.3054C29.5089 25.3334 29.4264 25.4389 29.3255 25.5398C29.2246 25.6407 29.1192 25.7232 29.0911 25.7232C29.0631 25.7232 29.0402 25.7383 29.0402 25.7567C29.0402 25.7751 28.995 25.7902 28.9397 25.7902C28.8845 25.7902 28.8393 25.8052 28.8393 25.8237C28.8393 25.8432 28.7277 25.8571 28.5714 25.8571C28.4152 25.8571 28.3036 25.8432 28.3036 25.8237C28.3036 25.8052 28.2584 25.7902 28.2031 25.7902C28.1479 25.7902 28.1027 25.7751 28.1027 25.7567C28.1027 25.7383 28.0797 25.7232 28.0517 25.7232C27.9854 25.7232 27.6339 25.3717 27.6339 25.3054C27.6339 25.2774 27.6189 25.2545 27.6004 25.2545C27.582 25.2545 27.567 25.2093 27.567 25.154C27.567 25.0988 27.5519 25.0536 27.5335 25.0536C27.514 25.0536 27.5 24.942 27.5 24.7857C27.5 24.6295 27.514 24.5179 27.5335 24.5179C27.5519 24.5179 27.567 24.4727 27.567 24.4174C27.567 24.3622 27.582 24.317 27.6004 24.317C27.6189 24.317 27.6339 24.294 27.6339 24.266C27.6339 24.1997 27.9854 23.8482 28.0517 23.8482C28.0797 23.8482 28.1027 23.8331 28.1027 23.8147C28.1027 23.7963 28.1479 23.7812 28.2031 23.7812C28.2584 23.7812 28.3036 23.7662 28.3036 23.7478C28.3036 23.7282 28.4152 23.7143 28.5714 23.7143C28.7277 23.7143 28.8393 23.7282 28.8393 23.7478Z" fill="#DD2A1B"/>
</svg>
