<svg width="40" height="40" viewBox="0 0 40 40" fill="none" xmlns="http://www.w3.org/2000/svg">
<path fill-rule="evenodd" clip-rule="evenodd" d="M11.2695 5.08789C11.2695 5.13623 11.2827 5.17578 11.2988 5.17578C11.3149 5.17578 11.3281 5.22852 11.3281 5.29297C11.3281 5.35742 11.3413 5.41016 11.3574 5.41016C11.3735 5.41016 11.3867 5.47607 11.3867 5.55664C11.3867 5.63721 11.3999 5.70312 11.416 5.70312C11.4321 5.70312 11.4453 5.75586 11.4453 5.82031C11.4453 5.88477 11.4585 5.9375 11.4746 5.9375C11.4907 5.9375 11.5039 6.00342 11.5039 6.08398C11.5039 6.16455 11.5171 6.23047 11.5332 6.23047C11.5493 6.23047 11.5625 6.2832 11.5625 6.34766C11.5625 6.41211 11.5757 6.46484 11.5918 6.46484C11.6079 6.46484 11.6211 6.53076 11.6211 6.61133C11.6211 6.69189 11.6343 6.75781 11.6504 6.75781C11.6665 6.75781 11.6797 6.81055 11.6797 6.875C11.6797 6.93945 11.6929 6.99219 11.709 6.99219C11.7251 6.99219 11.7383 7.05811 11.7383 7.13867C11.7383 7.21924 11.7515 7.28516 11.7676 7.28516C11.7837 7.28516 11.7969 7.33789 11.7969 7.40234C11.7969 7.4668 11.8101 7.51953 11.8262 7.51953C11.8423 7.51953 11.8555 7.58545 11.8555 7.66602C11.8555 7.74658 11.8687 7.8125 11.8848 7.8125C11.9009 7.8125 11.9141 7.86523 11.9141 7.92969C11.9141 7.99414 11.9272 8.04688 11.9434 8.04688C11.9595 8.04688 11.9727 8.11279 11.9727 8.19336C11.9727 8.27393 11.9858 8.33984 12.002 8.33984C12.0181 8.33984 12.0312 8.39258 12.0312 8.45703C12.0312 8.52148 12.0444 8.57422 12.0605 8.57422C12.0767 8.57422 12.0898 8.64014 12.0898 8.7207C12.0898 8.80127 12.103 8.86719 12.1191 8.86719C12.1353 8.86719 12.1484 8.91992 12.1484 8.98438C12.1484 9.04883 12.1616 9.10156 12.1777 9.10156C12.1938 9.10156 12.207 9.16748 12.207 9.24805C12.207 9.32861 12.2202 9.39453 12.2363 9.39453C12.2524 9.39453 12.2656 9.44727 12.2656 9.51172C12.2656 9.57617 12.2788 9.62891 12.2949 9.62891C12.311 9.62891 12.3242 9.69482 12.3242 9.77539C12.3242 9.85596 12.3374 9.92188 12.3535 9.92188C12.3696 9.92188 12.3828 9.97461 12.3828 10.0391C12.3828 10.1035 12.396 10.1562 12.4121 10.1562C12.4282 10.1562 12.4414 10.2222 12.4414 10.3027C12.4414 10.3833 12.4546 10.4492 12.4707 10.4492C12.4868 10.4492 12.5 10.502 12.5 10.5664C12.5 10.6309 12.5132 10.6836 12.5293 10.6836C12.5454 10.6836 12.5586 10.7495 12.5586 10.8301C12.5586 10.9106 12.5718 10.9766 12.5879 10.9766C12.604 10.9766 12.6172 11.0293 12.6172 11.0938C12.6172 11.1582 12.6304 11.2109 12.6465 11.2109C12.6626 11.2109 12.6758 11.2769 12.6758 11.3574C12.6758 11.438 12.689 11.5039 12.7051 11.5039C12.7212 11.5039 12.7344 11.5566 12.7344 11.6211C12.7344 11.6855 12.7476 11.7383 12.7637 11.7383C12.7798 11.7383 12.793 11.8042 12.793 11.8848C12.793 11.9653 12.8062 12.0312 12.8223 12.0312C12.8384 12.0312 12.8516 12.084 12.8516 12.1484C12.8516 12.2129 12.8647 12.2656 12.8809 12.2656C12.897 12.2656 12.9102 12.3315 12.9102 12.4121C12.9102 12.4927 12.9233 12.5586 12.9395 12.5586C12.9556 12.5586 12.9688 12.6113 12.9688 12.6758C12.9688 12.7402 12.9819 12.793 12.998 12.793C13.0142 12.793 13.0273 12.8589 13.0273 12.9395C13.0273 13.02 13.0405 13.0859 13.0566 13.0859C13.0728 13.0859 13.0859 13.1387 13.0859 13.2031C13.0859 13.2676 13.0991 13.3203 13.1152 13.3203C13.1313 13.3203 13.1445 13.3862 13.1445 13.4668C13.1445 13.5474 13.1577 13.6133 13.1738 13.6133C13.1899 13.6133 13.2031 13.666 13.2031 13.7305C13.2031 13.7949 13.2163 13.8477 13.2324 13.8477C13.2485 13.8477 13.2617 13.9136 13.2617 13.9941C13.2617 14.0747 13.2749 14.1406 13.291 14.1406C13.3071 14.1406 13.3203 14.1934 13.3203 14.2578C13.3203 14.3223 13.3335 14.375 13.3496 14.375C13.3657 14.375 13.3789 14.4409 13.3789 14.5215C13.3789 14.6021 13.3921 14.668 13.4082 14.668C13.4243 14.668 13.4375 14.7207 13.4375 14.7852C13.4375 14.8496 13.4507 14.9023 13.4668 14.9023C13.4829 14.9023 13.4961 14.9683 13.4961 15.0488C13.4961 15.1294 13.5093 15.1953 13.5254 15.1953C13.5415 15.1953 13.5547 15.248 13.5547 15.3125C13.5547 15.377 13.5679 15.4297 13.584 15.4297C13.6001 15.4297 13.6133 15.4956 13.6133 15.5762C13.6133 15.6567 13.6265 15.7227 13.6426 15.7227C13.6587 15.7227 13.6719 15.7754 13.6719 15.8398C13.6719 15.9043 13.6851 15.957 13.7012 15.957C13.7173 15.957 13.7305 16.0098 13.7305 16.0742V16.1914H15.0195C16.2891 16.1914 16.3086 16.1905 16.3086 16.1328C16.3086 16.1006 16.2954 16.0742 16.2793 16.0742C16.2632 16.0742 16.25 16.0083 16.25 15.9277C16.25 15.8472 16.2368 15.7812 16.2207 15.7812C16.2046 15.7812 16.1914 15.7285 16.1914 15.6641C16.1914 15.5996 16.1782 15.5469 16.1621 15.5469C16.146 15.5469 16.1328 15.481 16.1328 15.4004C16.1328 15.3198 16.1196 15.2539 16.1035 15.2539C16.0874 15.2539 16.0742 15.2012 16.0742 15.1367C16.0742 15.0723 16.061 15.0195 16.0449 15.0195C16.0288 15.0195 16.0156 14.9536 16.0156 14.873C16.0156 14.7925 16.0024 14.7266 15.9863 14.7266C15.9702 14.7266 15.957 14.6738 15.957 14.6094C15.957 14.5449 15.9438 14.4922 15.9277 14.4922C15.9116 14.4922 15.8984 14.4263 15.8984 14.3457C15.8984 14.2651 15.8853 14.1992 15.8691 14.1992C15.853 14.1992 15.8398 14.1333 15.8398 14.0527C15.8398 13.9722 15.8267 13.9062 15.8105 13.9062C15.7944 13.9062 15.7812 13.8535 15.7812 13.7891C15.7812 13.7246 15.7681 13.6719 15.752 13.6719C15.7358 13.6719 15.7227 13.606 15.7227 13.5254C15.7227 13.4448 15.7095 13.3789 15.6934 13.3789C15.6772 13.3789 15.6641 13.3262 15.6641 13.2617C15.6641 13.1973 15.6509 13.1445 15.6348 13.1445C15.6187 13.1445 15.6055 13.0918 15.6055 13.0273C15.6055 12.9629 15.5923 12.9102 15.5762 12.9102C15.5601 12.9102 15.5469 12.8838 15.5469 12.8516C15.5469 12.8193 15.5536 12.793 15.5617 12.793C15.5699 12.793 16.2356 13.4521 17.041 14.2578C17.8464 15.0635 18.52 15.7227 18.5378 15.7227C18.5557 15.7227 18.6072 15.6831 18.6523 15.6348C18.6975 15.5864 18.7502 15.5469 18.7695 15.5469C18.7888 15.5469 18.8416 15.5073 18.8867 15.459C18.9319 15.4106 18.9846 15.3711 19.0039 15.3711C19.0232 15.3711 19.0759 15.3315 19.1211 15.2832C19.1662 15.2349 19.219 15.1953 19.2383 15.1953C19.2576 15.1953 19.3103 15.1558 19.3555 15.1074C19.4006 15.0591 19.4534 15.0195 19.4727 15.0195C19.492 15.0195 19.5447 14.98 19.5898 14.9316C19.635 14.8833 19.6877 14.8438 19.707 14.8438C19.7263 14.8438 19.7791 14.8042 19.8242 14.7559C19.9321 14.6403 20 14.6403 20 14.7559C20 14.8042 19.9868 14.8438 19.9707 14.8438C19.9546 14.8438 19.9414 14.9097 19.9414 14.9902C19.9414 15.0708 19.9282 15.1367 19.9121 15.1367C19.896 15.1367 19.8828 15.2026 19.8828 15.2832C19.8828 15.3638 19.8696 15.4297 19.8535 15.4297C19.8374 15.4297 19.8242 15.4956 19.8242 15.5762C19.8242 15.6567 19.811 15.7227 19.7949 15.7227C19.7788 15.7227 19.7656 15.7886 19.7656 15.8691C19.7656 15.9497 19.7524 16.0156 19.7363 16.0156C19.7202 16.0156 19.707 16.0815 19.707 16.1621C19.707 16.2427 19.6938 16.3086 19.6777 16.3086C19.6616 16.3086 19.6484 16.3745 19.6484 16.4551C19.6484 16.5356 19.6353 16.6016 19.6191 16.6016C19.603 16.6016 19.5898 16.6675 19.5898 16.748C19.5898 16.8286 19.5767 16.8945 19.5605 16.8945C19.5444 16.8945 19.5312 16.9604 19.5312 17.041C19.5312 17.1216 19.5181 17.1875 19.502 17.1875C19.4858 17.1875 19.4727 17.2534 19.4727 17.334C19.4727 17.4146 19.4595 17.4805 19.4434 17.4805C19.4272 17.4805 19.4141 17.5464 19.4141 17.627C19.4141 17.7075 19.4009 17.7734 19.3848 17.7734C19.3687 17.7734 19.3555 17.8394 19.3555 17.9199C19.3555 18.0005 19.3423 18.0664 19.3262 18.0664C19.3101 18.0664 19.2969 18.1323 19.2969 18.2129C19.2969 18.2935 19.2837 18.3594 19.2676 18.3594C19.2515 18.3594 19.2383 18.4253 19.2383 18.5059C19.2383 18.5864 19.2251 18.6523 19.209 18.6523C19.1929 18.6523 19.1797 18.7183 19.1797 18.7988C19.1797 18.9258 19.1875 18.9453 19.2383 18.9453C19.2705 18.9453 19.2969 18.9321 19.2969 18.916C19.2969 18.8999 19.3364 18.8867 19.3848 18.8867C19.4331 18.8867 19.4727 18.8735 19.4727 18.8574C19.4727 18.8413 19.499 18.8281 19.5312 18.8281C19.5635 18.8281 19.5898 18.8149 19.5898 18.7988C19.5898 18.7827 19.6294 18.7695 19.6777 18.7695C19.7261 18.7695 19.7656 18.7563 19.7656 18.7402C19.7656 18.7241 19.792 18.7109 19.8242 18.7109C19.8564 18.7109 19.8828 18.6978 19.8828 18.6816C19.8828 18.6655 19.9224 18.6523 19.9707 18.6523C20.019 18.6523 20.0586 18.6392 20.0586 18.623C20.0586 18.6069 20.085 18.5938 20.1172 18.5938C20.1494 18.5938 20.1758 18.5806 20.1758 18.5645C20.1758 18.5483 20.2153 18.5352 20.2637 18.5352C20.312 18.5352 20.3516 18.522 20.3516 18.5059C20.3516 18.4897 20.3779 18.4766 20.4102 18.4766C20.4424 18.4766 20.4688 18.4634 20.4688 18.4473C20.4688 18.4312 20.5083 18.418 20.5566 18.418C20.605 18.418 20.6445 18.4048 20.6445 18.3887C20.6445 18.3726 20.6709 18.3594 20.7031 18.3594C20.7354 18.3594 20.7617 18.3462 20.7617 18.3301C20.7617 18.314 20.8013 18.3008 20.8496 18.3008C20.8979 18.3008 20.9375 18.2876 20.9375 18.2715C20.9375 18.2554 20.9639 18.2422 20.9961 18.2422C21.0283 18.2422 21.0547 18.229 21.0547 18.2129C21.0547 18.1968 21.0942 18.1836 21.1426 18.1836C21.1909 18.1836 21.2305 18.1704 21.2305 18.1543C21.2305 18.1382 21.2568 18.125 21.2891 18.125C21.3213 18.125 21.3477 18.1118 21.3477 18.0957C21.3477 18.0796 21.3872 18.0664 21.4355 18.0664C21.4839 18.0664 21.5234 18.0532 21.5234 18.0371C21.5234 18.021 21.5498 18.0078 21.582 18.0078C21.6143 18.0078 21.6406 17.9946 21.6406 17.9785C21.6406 17.9624 21.6802 17.9492 21.7285 17.9492C21.7769 17.9492 21.8164 17.936 21.8164 17.9199C21.8164 17.9038 21.8428 17.8906 21.875 17.8906C21.9072 17.8906 21.9336 17.8774 21.9336 17.8613C21.9336 17.8452 21.9731 17.832 22.0215 17.832C22.0698 17.832 22.1094 17.8188 22.1094 17.8027C22.1094 17.7866 22.1357 17.7734 22.168 17.7734C22.2002 17.7734 22.2266 17.7603 22.2266 17.7441C22.2266 17.728 22.2661 17.7148 22.3145 17.7148C22.3628 17.7148 22.4023 17.7017 22.4023 17.6855C22.4023 17.6694 22.4287 17.6562 22.4609 17.6562C22.4932 17.6562 22.5195 17.6431 22.5195 17.627C22.5195 17.6108 22.5591 17.5977 22.6074 17.5977C22.6558 17.5977 22.6953 17.5845 22.6953 17.5684C22.6953 17.5522 22.7217 17.5391 22.7539 17.5391C22.7861 17.5391 22.8125 17.5259 22.8125 17.5098C22.8125 17.4937 22.8521 17.4805 22.9004 17.4805C22.9487 17.4805 22.9883 17.4673 22.9883 17.4512C22.9883 17.4351 23.0146 17.4219 23.0469 17.4219C23.0791 17.4219 23.1055 17.4087 23.1055 17.3926C23.1055 17.3765 23.145 17.3633 23.1934 17.3633C23.2417 17.3633 23.2812 17.3501 23.2812 17.334C23.2812 17.3179 23.3076 17.3047 23.3398 17.3047C23.3721 17.3047 23.3984 17.2915 23.3984 17.2754C23.3984 17.2593 23.438 17.2461 23.4863 17.2461C23.5347 17.2461 23.5742 17.2329 23.5742 17.2168C23.5742 17.2007 23.6006 17.1875 23.6328 17.1875C23.665 17.1875 23.6914 17.1743 23.6914 17.1582C23.6914 17.1421 23.731 17.1289 23.7793 17.1289C23.8276 17.1289 23.8672 17.1157 23.8672 17.0996C23.8672 17.0835 23.8936 17.0703 23.9258 17.0703C23.958 17.0703 23.9844 17.0571 23.9844 17.041C23.9844 17.0249 24.0239 17.0117 24.0723 17.0117C24.1206 17.0117 24.1602 16.9985 24.1602 16.9824C24.1602 16.9663 24.1865 16.9531 24.2188 16.9531C24.251 16.9531 24.2773 16.9399 24.2773 16.9238C24.2773 16.9077 24.3169 16.8945 24.3652 16.8945C24.4136 16.8945 24.4531 16.8813 24.4531 16.8652C24.4531 16.8491 24.4795 16.8359 24.5117 16.8359C24.5439 16.8359 24.5703 16.8228 24.5703 16.8066C24.5703 16.7905 24.5967 16.7773 24.6289 16.7773C24.6611 16.7773 24.6875 16.7905 24.6875 16.8066C24.6875 16.8228 24.6743 16.8359 24.6582 16.8359C24.6421 16.8359 24.6289 16.8755 24.6289 16.9238C24.6289 16.9722 24.6157 17.0117 24.5996 17.0117C24.5835 17.0117 24.5703 17.0513 24.5703 17.0996C24.5703 17.1479 24.5571 17.1875 24.541 17.1875C24.5249 17.1875 24.5117 17.2271 24.5117 17.2754C24.5117 17.3237 24.4985 17.3633 24.4824 17.3633C24.4663 17.3633 24.4531 17.4028 24.4531 17.4512C24.4531 17.4995 24.4399 17.5391 24.4238 17.5391C24.4077 17.5391 24.3945 17.5786 24.3945 17.627C24.3945 17.6753 24.3813 17.7148 24.3652 17.7148C24.3491 17.7148 24.3359 17.7544 24.3359 17.8027C24.3359 17.8511 24.3228 17.8906 24.3066 17.8906C24.2905 17.8906 24.2773 17.9302 24.2773 17.9785C24.2773 18.0269 24.2642 18.0664 24.248 18.0664C24.2319 18.0664 24.2188 18.106 24.2188 18.1543C24.2188 18.2026 24.2056 18.2422 24.1895 18.2422C24.1733 18.2422 24.1602 18.2817 24.1602 18.3301C24.1602 18.3784 24.147 18.418 24.1309 18.418C24.1147 18.418 24.1016 18.4575 24.1016 18.5059C24.1016 18.5542 24.0884 18.5938 24.0723 18.5938C24.0562 18.5938 24.043 18.6333 24.043 18.6816C24.043 18.73 24.0298 18.7695 24.0137 18.7695C23.9976 18.7695 23.9844 18.8091 23.9844 18.8574C23.9844 18.9058 23.9712 18.9453 23.9551 18.9453C23.939 18.9453 23.9258 18.9849 23.9258 19.0332C23.9258 19.0815 23.9126 19.1211 23.8965 19.1211C23.8804 19.1211 23.8672 19.1606 23.8672 19.209C23.8672 19.2573 23.854 19.2969 23.8379 19.2969C23.8218 19.2969 23.8086 19.3364 23.8086 19.3848C23.8086 19.4331 23.7954 19.4727 23.7793 19.4727C23.7632 19.4727 23.75 19.5122 23.75 19.5605C23.75 19.6089 23.7368 19.6484 23.7207 19.6484C23.7046 19.6484 23.6914 19.688 23.6914 19.7363C23.6914 19.7847 23.6782 19.8242 23.6621 19.8242C23.646 19.8242 23.6328 19.8506 23.6328 19.8828C23.6328 19.9405 23.6524 19.9414 24.9512 19.9414H26.2695V19.8535C26.2695 19.8052 26.2827 19.7656 26.2988 19.7656C26.3149 19.7656 26.3281 19.7261 26.3281 19.6777C26.3281 19.6294 26.3413 19.5898 26.3574 19.5898C26.3735 19.5898 26.3867 19.5503 26.3867 19.502C26.3867 19.4536 26.3999 19.4141 26.416 19.4141C26.4321 19.4141 26.4453 19.3877 26.4453 19.3555C26.4453 19.3232 26.4585 19.2969 26.4746 19.2969C26.4907 19.2969 26.5039 19.2573 26.5039 19.209C26.5039 19.1606 26.5171 19.1211 26.5332 19.1211C26.5493 19.1211 26.5625 19.0815 26.5625 19.0332C26.5625 18.9849 26.5757 18.9453 26.5918 18.9453C26.6079 18.9453 26.6211 18.9058 26.6211 18.8574C26.6211 18.8091 26.6343 18.7695 26.6504 18.7695C26.6665 18.7695 26.6797 18.73 26.6797 18.6816C26.6797 18.6333 26.6929 18.5938 26.709 18.5938C26.7251 18.5938 26.7383 18.5542 26.7383 18.5059C26.7383 18.4575 26.7515 18.418 26.7676 18.418C26.7837 18.418 26.7969 18.3784 26.7969 18.3301C26.7969 18.2817 26.8101 18.2422 26.8262 18.2422C26.8423 18.2422 26.8555 18.2026 26.8555 18.1543C26.8555 18.106 26.8687 18.0664 26.8848 18.0664C26.9009 18.0664 26.9141 18.0269 26.9141 17.9785C26.9141 17.9302 26.9272 17.8906 26.9434 17.8906C26.9595 17.8906 26.9727 17.8511 26.9727 17.8027C26.9727 17.7544 26.9858 17.7148 27.002 17.7148C27.0181 17.7148 27.0312 17.6621 27.0312 17.5977C27.0312 17.5332 27.0444 17.4805 27.0605 17.4805C27.0767 17.4805 27.0898 17.4409 27.0898 17.3926C27.0898 17.3442 27.103 17.3047 27.1191 17.3047C27.1353 17.3047 27.1484 17.2651 27.1484 17.2168C27.1484 17.1685 27.1616 17.1289 27.1777 17.1289C27.1938 17.1289 27.207 17.0894 27.207 17.041C27.207 16.9927 27.2202 16.9531 27.2363 16.9531C27.2524 16.9531 27.2656 16.9136 27.2656 16.8652C27.2656 16.8169 27.2788 16.7773 27.2949 16.7773C27.311 16.7773 27.3242 16.7378 27.3242 16.6895C27.3242 16.6411 27.3374 16.6016 27.3535 16.6016C27.3696 16.6016 27.3828 16.562 27.3828 16.5137C27.3828 16.4653 27.396 16.4258 27.4121 16.4258C27.4282 16.4258 27.4414 16.3862 27.4414 16.3379C27.4414 16.2896 27.4546 16.25 27.4707 16.25C27.4868 16.25 27.5 16.2236 27.5 16.1914C27.5 16.1592 27.5132 16.1328 27.5293 16.1328C27.5454 16.1328 27.5586 16.0933 27.5586 16.0449C27.5586 15.9966 27.5718 15.957 27.5879 15.957C27.604 15.957 27.6172 15.9175 27.6172 15.8691C27.6172 15.8208 27.6304 15.7812 27.6465 15.7812C27.6626 15.7812 27.6758 15.7417 27.6758 15.6934C27.6758 15.645 27.689 15.6055 27.7051 15.6055C27.7212 15.6055 27.7344 15.5659 27.7344 15.5176C27.7344 15.4692 27.7476 15.4297 27.7637 15.4297C27.7798 15.4297 27.793 15.3901 27.793 15.3418C27.793 15.2935 27.8062 15.2539 27.8223 15.2539C27.8384 15.2539 27.8516 15.2144 27.8516 15.166C27.8516 15.1177 27.8647 15.0781 27.8809 15.0781C27.897 15.0781 27.9102 15.0386 27.9102 14.9902C27.9102 14.9419 27.9233 14.9023 27.9395 14.9023C27.9556 14.9023 27.9688 14.8628 27.9688 14.8145C27.9688 14.7661 27.9819 14.7266 27.998 14.7266C28.0142 14.7266 28.0273 14.687 28.0273 14.6387C28.0273 14.5903 28.0405 14.5508 28.0566 14.5508C28.0728 14.5508 28.0859 14.5112 28.0859 14.4629C28.0859 14.4146 28.0991 14.375 28.1152 14.375C28.1313 14.375 28.1445 14.3354 28.1445 14.2871C28.1445 14.2388 28.1577 14.1992 28.1738 14.1992C28.1899 14.1992 28.2031 14.1597 28.2031 14.1113C28.2031 14.063 28.2163 14.0234 28.2324 14.0234C28.2485 14.0234 28.2617 13.9839 28.2617 13.9355C28.2617 13.8872 28.2749 13.8477 28.291 13.8477C28.3071 13.8477 28.3203 13.8081 28.3203 13.7598C28.3203 13.7114 28.3335 13.6719 28.3496 13.6719C28.3657 13.6719 28.3789 13.6323 28.3789 13.584C28.3789 13.5356 28.3921 13.4961 28.4082 13.4961C28.4243 13.4961 28.4375 13.4565 28.4375 13.4082C28.4375 13.3599 28.4507 13.3203 28.4668 13.3203C28.4829 13.3203 28.4961 13.2808 28.4961 13.2324C28.4961 13.1841 28.5093 13.1445 28.5254 13.1445C28.5415 13.1445 28.5547 13.105 28.5547 13.0566C28.5547 13.0083 28.5679 12.9688 28.584 12.9688C28.6001 12.9688 28.6133 12.9292 28.6133 12.8809C28.6133 12.8325 28.6265 12.793 28.6426 12.793C28.6587 12.793 28.6719 12.7534 28.6719 12.7051C28.6719 12.6567 28.6851 12.6172 28.7012 12.6172C28.7173 12.6172 28.7305 12.5776 28.7305 12.5293C28.7305 12.481 28.7173 12.4414 28.7012 12.4414C28.6851 12.4414 28.6719 12.4546 28.6719 12.4707C28.6719 12.4868 28.6455 12.5 28.6133 12.5C28.5811 12.5 28.5547 12.5132 28.5547 12.5293C28.5547 12.5454 28.5151 12.5586 28.4668 12.5586C28.4185 12.5586 28.3789 12.5718 28.3789 12.5879C28.3789 12.604 28.3525 12.6172 28.3203 12.6172C28.2881 12.6172 28.2617 12.6304 28.2617 12.6465C28.2617 12.6626 28.2222 12.6758 28.1738 12.6758C28.1255 12.6758 28.0859 12.689 28.0859 12.7051C28.0859 12.7212 28.0596 12.7344 28.0273 12.7344C27.9951 12.7344 27.9688 12.7476 27.9688 12.7637C27.9688 12.7798 27.9292 12.793 27.8809 12.793C27.8325 12.793 27.793 12.8062 27.793 12.8223C27.793 12.8384 27.7666 12.8516 27.7344 12.8516C27.7021 12.8516 27.6758 12.8647 27.6758 12.8809C27.6758 12.897 27.6362 12.9102 27.5879 12.9102C27.5396 12.9102 27.5 12.9233 27.5 12.9395C27.5 12.9556 27.4736 12.9688 27.4414 12.9688C27.4092 12.9688 27.3828 12.9819 27.3828 12.998C27.3828 13.0142 27.3433 13.0273 27.2949 13.0273C27.2466 13.0273 27.207 13.0405 27.207 13.0566C27.207 13.0728 27.1807 13.0859 27.1484 13.0859C27.1162 13.0859 27.0898 13.0991 27.0898 13.1152C27.0898 13.1313 27.0503 13.1445 27.002 13.1445C26.9536 13.1445 26.9141 13.1577 26.9141 13.1738C26.9141 13.1899 26.8877 13.2031 26.8555 13.2031C26.8232 13.2031 26.7969 13.2163 26.7969 13.2324C26.7969 13.2485 26.7573 13.2617 26.709 13.2617C26.6606 13.2617 26.6211 13.2749 26.6211 13.291C26.6211 13.3071 26.5947 13.3203 26.5625 13.3203C26.5303 13.3203 26.5039 13.3335 26.5039 13.3496C26.5039 13.3657 26.4644 13.3789 26.416 13.3789C26.3677 13.3789 26.3281 13.3921 26.3281 13.4082C26.3281 13.4243 26.3018 13.4375 26.2695 13.4375C26.2373 13.4375 26.2109 13.4507 26.2109 13.4668C26.2109 13.4829 26.1714 13.4961 26.123 13.4961C26.0747 13.4961 26.0352 13.5093 26.0352 13.5254C26.0352 13.5415 26.0088 13.5547 25.9766 13.5547C25.9443 13.5547 25.918 13.5679 25.918 13.584C25.918 13.6001 25.8784 13.6133 25.8301 13.6133C25.7817 13.6133 25.7422 13.6265 25.7422 13.6426C25.7422 13.6587 25.7158 13.6719 25.6836 13.6719C25.6514 13.6719 25.625 13.6851 25.625 13.7012C25.625 13.7173 25.5854 13.7305 25.5371 13.7305C25.4888 13.7305 25.4492 13.7437 25.4492 13.7598C25.4492 13.7759 25.4229 13.7891 25.3906 13.7891C25.3584 13.7891 25.332 13.8022 25.332 13.8184C25.332 13.8345 25.2925 13.8477 25.2441 13.8477C25.1958 13.8477 25.1562 13.8608 25.1562 13.877C25.1562 13.8931 25.1299 13.9062 25.0977 13.9062C25.0654 13.9062 25.0391 13.9194 25.0391 13.9355C25.0391 13.9517 24.9995 13.9648 24.9512 13.9648C24.9028 13.9648 24.8633 13.978 24.8633 13.9941C24.8633 14.0103 24.8369 14.0234 24.8047 14.0234C24.7725 14.0234 24.7461 14.0366 24.7461 14.0527C24.7461 14.0688 24.7065 14.082 24.6582 14.082C24.6099 14.082 24.5703 14.0952 24.5703 14.1113C24.5703 14.1274 24.5439 14.1406 24.5117 14.1406C24.4795 14.1406 24.4531 14.1538 24.4531 14.1699C24.4531 14.186 24.4136 14.1992 24.3652 14.1992C24.3169 14.1992 24.2773 14.2124 24.2773 14.2285C24.2773 14.2446 24.251 14.2578 24.2188 14.2578C24.1865 14.2578 24.1602 14.271 24.1602 14.2871C24.1602 14.3032 24.1206 14.3164 24.0723 14.3164C24.0239 14.3164 23.9844 14.3296 23.9844 14.3457C23.9844 14.3618 23.958 14.375 23.9258 14.375C23.8936 14.375 23.8672 14.3882 23.8672 14.4043C23.8672 14.4204 23.8276 14.4336 23.7793 14.4336C23.731 14.4336 23.6914 14.4468 23.6914 14.4629C23.6914 14.479 23.665 14.4922 23.6328 14.4922C23.6006 14.4922 23.5742 14.5054 23.5742 14.5215C23.5742 14.5376 23.5347 14.5508 23.4863 14.5508C23.438 14.5508 23.3984 14.564 23.3984 14.5801C23.3984 14.5962 23.3721 14.6094 23.3398 14.6094C23.3076 14.6094 23.2812 14.6226 23.2812 14.6387C23.2812 14.6548 23.2417 14.668 23.1934 14.668C23.145 14.668 23.1055 14.6812 23.1055 14.6973C23.1055 14.7134 23.0791 14.7266 23.0469 14.7266C23.0146 14.7266 22.9883 14.7397 22.9883 14.7559C22.9883 14.772 22.9487 14.7852 22.9004 14.7852C22.8521 14.7852 22.8125 14.7983 22.8125 14.8145C22.8125 14.8306 22.7861 14.8438 22.7539 14.8438C22.7217 14.8438 22.6953 14.8569 22.6953 14.873C22.6953 14.8892 22.6558 14.9023 22.6074 14.9023C22.5244 14.9023 22.5195 14.8958 22.5195 14.7852C22.5195 14.7207 22.5327 14.668 22.5488 14.668C22.5649 14.668 22.5781 14.6021 22.5781 14.5215C22.5781 14.4409 22.5913 14.375 22.6074 14.375C22.6235 14.375 22.6367 14.3091 22.6367 14.2285C22.6367 14.1479 22.6499 14.082 22.666 14.082C22.6821 14.082 22.6953 14.0161 22.6953 13.9355C22.6953 13.855 22.7085 13.7891 22.7246 13.7891C22.7407 13.7891 22.7539 13.7231 22.7539 13.6426C22.7539 13.562 22.7671 13.4961 22.7832 13.4961C22.7993 13.4961 22.8125 13.4302 22.8125 13.3496C22.8125 13.269 22.8257 13.2031 22.8418 13.2031C22.8579 13.2031 22.8711 13.1372 22.8711 13.0566C22.8711 12.9761 22.8843 12.9102 22.9004 12.9102C22.9165 12.9102 22.9297 12.8442 22.9297 12.7637C22.9297 12.6831 22.9429 12.6172 22.959 12.6172C22.9751 12.6172 22.9883 12.5513 22.9883 12.4707C22.9883 12.3901 23.0015 12.3242 23.0176 12.3242C23.0337 12.3242 23.0469 12.2715 23.0469 12.207C23.0469 12.1426 23.0601 12.0898 23.0762 12.0898C23.0923 12.0898 23.1055 12.0239 23.1055 11.9434C23.1055 11.8628 23.1187 11.7969 23.1348 11.7969C23.1509 11.7969 23.1641 11.731 23.1641 11.6504C23.1641 11.5698 23.1772 11.5039 23.1934 11.5039C23.2095 11.5039 23.2227 11.438 23.2227 11.3574C23.2227 11.2769 23.2358 11.2109 23.252 11.2109C23.2681 11.2109 23.2812 11.145 23.2812 11.0645C23.2812 10.9839 23.2944 10.918 23.3105 10.918C23.3268 10.918 23.3398 10.8398 23.3398 10.7422C23.3398 10.6445 23.3529 10.5664 23.3691 10.5664C23.3853 10.5664 23.3984 10.5005 23.3984 10.4199C23.3984 10.3394 23.4116 10.2734 23.4277 10.2734C23.4438 10.2734 23.457 10.2075 23.457 10.127C23.457 10.0464 23.4702 9.98047 23.4863 9.98047C23.5024 9.98047 23.5156 9.91455 23.5156 9.83398C23.5156 9.75342 23.5288 9.6875 23.5449 9.6875C23.561 9.6875 23.5742 9.62158 23.5742 9.54102C23.5742 9.46045 23.5874 9.39453 23.6035 9.39453C23.6196 9.39453 23.6328 9.32861 23.6328 9.24805C23.6328 9.16748 23.646 9.10156 23.6621 9.10156C23.6782 9.10156 23.6914 9.03564 23.6914 8.95508C23.6914 8.87451 23.7046 8.80859 23.7207 8.80859C23.7368 8.80859 23.75 8.78223 23.75 8.75C23.75 8.67081 23.7293 8.67597 23.6328 8.7793C23.5877 8.82764 23.5349 8.86719 23.5156 8.86719C23.4963 8.86719 23.4436 8.90674 23.3984 8.95508C23.3533 9.00342 23.3006 9.04297 23.2812 9.04297C23.2619 9.04297 23.2092 9.08252 23.1641 9.13086C23.1189 9.1792 23.0662 9.21875 23.0469 9.21875C23.0276 9.21875 22.9748 9.2583 22.9297 9.30664C22.8845 9.35498 22.8318 9.39453 22.8125 9.39453C22.7932 9.39453 22.7405 9.43408 22.6953 9.48242C22.6502 9.53076 22.5974 9.57031 22.5781 9.57031C22.5588 9.57031 22.5061 9.60986 22.4609 9.6582C22.4158 9.70654 22.3631 9.74609 22.3438 9.74609C22.3244 9.74609 22.2717 9.78564 22.2266 9.83398C22.1814 9.88232 22.1287 9.92188 22.1094 9.92188C22.0901 9.92188 22.0373 9.96143 21.9922 10.0098C21.947 10.0581 21.8943 10.0977 21.875 10.0977C21.8557 10.0977 21.803 10.1372 21.7578 10.1855C21.7127 10.2339 21.6599 10.2734 21.6406 10.2734C21.6213 10.2734 21.5686 10.313 21.5234 10.3613C21.4783 10.4097 21.4256 10.4492 21.4062 10.4492C21.3869 10.4492 21.3342 10.4888 21.2891 10.5371C21.2439 10.5854 21.1912 10.625 21.1719 10.625C21.1526 10.625 21.0998 10.6646 21.0547 10.7129C21.0095 10.7612 20.9568 10.8008 20.9375 10.8008C20.9182 10.8008 20.8655 10.8403 20.8203 10.8887C20.7752 10.937 20.7224 10.9766 20.7031 10.9766C20.6838 10.9766 20.6311 11.0161 20.5859 11.0645C20.5408 11.1128 20.4881 11.1523 20.4688 11.1523C20.4494 11.1523 20.3967 11.1919 20.3516 11.2402C20.3064 11.2886 20.2537 11.3281 20.2344 11.3281C20.2151 11.3281 20.1623 11.3677 20.1172 11.416C20.072 11.4644 20.0193 11.5039 20 11.5039C19.9807 11.5039 19.928 11.5435 19.8828 11.5918C19.8377 11.6401 19.7849 11.6797 19.7656 11.6797C19.7463 11.6797 19.6936 11.7192 19.6484 11.7676C19.6033 11.8159 19.5506 11.8555 19.5312 11.8555C19.5119 11.8555 19.4592 11.895 19.4141 11.9434C19.3689 11.9917 19.3162 12.0312 19.2969 12.0312C19.2776 12.0312 19.2248 12.0708 19.1797 12.1191C19.1345 12.1675 19.0818 12.207 19.0625 12.207C19.0432 12.207 18.9905 12.2466 18.9453 12.2949C18.9002 12.3433 18.8432 12.3828 18.8188 12.3828C18.7944 12.3828 18.7692 12.3985 18.7628 12.4177C18.7564 12.4368 17.0744 10.7757 15.0251 8.72627C12.9758 6.67681 11.2924 5 11.2843 5C11.2762 5 11.2695 5.03955 11.2695 5.08789ZM5 16.1914V17.4219H7.22656C9.43358 17.4219 9.45312 17.4224 9.45312 17.4805C9.45312 17.5127 9.46631 17.5391 9.48242 17.5391C9.49854 17.5391 9.51172 17.5786 9.51172 17.627C9.51172 17.6753 9.5249 17.7148 9.54102 17.7148C9.55713 17.7148 9.57031 17.7544 9.57031 17.8027C9.57031 17.8511 9.5835 17.8906 9.59961 17.8906C9.61572 17.8906 9.62891 17.9302 9.62891 17.9785C9.62891 18.0269 9.64209 18.0664 9.6582 18.0664C9.67432 18.0664 9.6875 18.106 9.6875 18.1543C9.6875 18.2026 9.70068 18.2422 9.7168 18.2422C9.73291 18.2422 9.74609 18.2817 9.74609 18.3301C9.74609 18.3784 9.75928 18.418 9.77539 18.418C9.7915 18.418 9.80469 18.4575 9.80469 18.5059C9.80469 18.5542 9.81787 18.5938 9.83398 18.5938C9.8501 18.5938 9.86328 18.6333 9.86328 18.6816C9.86328 18.73 9.87646 18.7695 9.89258 18.7695C9.90869 18.7695 9.92188 18.8091 9.92188 18.8574C9.92188 18.9058 9.93506 18.9453 9.95117 18.9453C9.96729 18.9453 9.98047 18.9849 9.98047 19.0332C9.98047 19.0815 9.99365 19.1211 10.0098 19.1211C10.0259 19.1211 10.0391 19.1606 10.0391 19.209C10.0391 19.2573 10.0522 19.2969 10.0684 19.2969C10.0845 19.2969 10.0977 19.3364 10.0977 19.3848C10.0977 19.4331 10.1108 19.4727 10.127 19.4727C10.1431 19.4727 10.1562 19.5122 10.1562 19.5605C10.1562 19.6089 10.1694 19.6484 10.1855 19.6484C10.2017 19.6484 10.2148 19.688 10.2148 19.7363C10.2148 19.7847 10.228 19.8242 10.2441 19.8242C10.2603 19.8242 10.2734 19.8638 10.2734 19.9121C10.2734 19.9604 10.2866 20 10.3027 20C10.3188 20 10.332 20.0396 10.332 20.0879C10.332 20.1362 10.3452 20.1758 10.3613 20.1758C10.3774 20.1758 10.3906 20.2153 10.3906 20.2637C10.3906 20.312 10.4038 20.3516 10.4199 20.3516C10.436 20.3516 10.4492 20.3911 10.4492 20.4395C10.4492 20.4878 10.4624 20.5273 10.4785 20.5273C10.4946 20.5273 10.5078 20.5669 10.5078 20.6152C10.5078 20.6636 10.521 20.7031 10.5371 20.7031C10.5532 20.7031 10.5664 20.7427 10.5664 20.791C10.5664 20.8394 10.5796 20.8789 10.5957 20.8789C10.6118 20.8789 10.625 20.9185 10.625 20.9668C10.625 21.0151 10.6382 21.0547 10.6543 21.0547C10.6704 21.0547 10.6836 21.0942 10.6836 21.1426C10.6836 21.1909 10.6968 21.2305 10.7129 21.2305C10.729 21.2305 10.7422 21.27 10.7422 21.3184C10.7422 21.3667 10.7554 21.4062 10.7715 21.4062C10.7876 21.4062 10.8008 21.4458 10.8008 21.4941C10.8008 21.5425 10.814 21.582 10.8301 21.582C10.8462 21.582 10.8594 21.6216 10.8594 21.6699C10.8594 21.7183 10.8726 21.7578 10.8887 21.7578C10.9048 21.7578 10.918 21.7974 10.918 21.8457C10.918 21.894 10.9312 21.9336 10.9473 21.9336C10.9634 21.9336 10.9766 21.9731 10.9766 22.0215C10.9766 22.0698 10.9897 22.1094 11.0059 22.1094C11.022 22.1094 11.0352 22.1489 11.0352 22.1973C11.0352 22.2456 11.0483 22.2852 11.0645 22.2852C11.0806 22.2852 11.0938 22.3247 11.0938 22.373V22.4609H8.04688H5V23.6914V24.9219H9.36523H13.7305V27.4414V29.9609H12.998C12.2852 29.9609 12.2656 29.9594 12.2656 29.9023C12.2656 29.8701 12.2524 29.8438 12.2363 29.8438C12.2202 29.8438 12.207 29.8174 12.207 29.7852C12.207 29.7529 12.1938 29.7266 12.1777 29.7266C12.1616 29.7266 12.1484 29.7002 12.1484 29.668C12.1484 29.6357 12.1353 29.6094 12.1191 29.6094C12.103 29.6094 12.0898 29.583 12.0898 29.5508C12.0898 29.5186 12.0767 29.4922 12.0605 29.4922C12.0444 29.4922 12.0312 29.4658 12.0312 29.4336C12.0312 29.4014 12.0181 29.375 12.002 29.375C11.9858 29.375 11.9727 29.3515 11.9727 29.3229C11.9727 29.2942 11.9463 29.2517 11.9141 29.2285C11.8818 29.2053 11.8555 29.1628 11.8555 29.1341C11.8555 29.1055 11.8423 29.082 11.8262 29.082C11.8101 29.082 11.7969 29.0614 11.7969 29.0362C11.7969 29.011 11.731 28.9261 11.6504 28.8477C11.5698 28.7692 11.5039 28.6905 11.5039 28.6728C11.5039 28.6309 11.3105 28.4375 11.2686 28.4375C11.2509 28.4375 11.1722 28.3716 11.0938 28.291C11.0153 28.2104 10.9333 28.1445 10.9117 28.1445C10.89 28.1445 10.8533 28.1182 10.8301 28.0859C10.8068 28.0537 10.7644 28.0273 10.7357 28.0273C10.7071 28.0273 10.6836 28.0142 10.6836 27.998C10.6836 27.9819 10.6601 27.9688 10.6315 27.9688C10.6028 27.9688 10.5603 27.9424 10.5371 27.9102C10.5139 27.8779 10.4714 27.8516 10.4427 27.8516C10.4141 27.8516 10.3906 27.8384 10.3906 27.8223C10.3906 27.8062 10.3511 27.793 10.3027 27.793C10.2544 27.793 10.2148 27.7798 10.2148 27.7637C10.2148 27.7476 10.1885 27.7344 10.1562 27.7344C10.124 27.7344 10.0977 27.7212 10.0977 27.7051C10.0977 27.689 10.0713 27.6758 10.0391 27.6758C10.0068 27.6758 9.98047 27.6626 9.98047 27.6465C9.98047 27.6304 9.92773 27.6172 9.86328 27.6172C9.79883 27.6172 9.74609 27.604 9.74609 27.5879C9.74609 27.5718 9.69336 27.5586 9.62891 27.5586C9.56445 27.5586 9.51172 27.5454 9.51172 27.5293C9.51172 27.5126 9.42383 27.5 9.30664 27.5C9.18945 27.5 9.10156 27.4874 9.10156 27.4707C9.10156 27.4526 8.94532 27.4414 8.69141 27.4414C8.43749 27.4414 8.28125 27.4526 8.28125 27.4707C8.28125 27.487 8.20312 27.5 8.10547 27.5C8.00782 27.5 7.92969 27.513 7.92969 27.5293C7.92969 27.5454 7.87695 27.5586 7.8125 27.5586C7.74805 27.5586 7.69531 27.5718 7.69531 27.5879C7.69531 27.604 7.65576 27.6172 7.60742 27.6172C7.55908 27.6172 7.51953 27.6304 7.51953 27.6465C7.51953 27.6626 7.47998 27.6758 7.43164 27.6758C7.3833 27.6758 7.34375 27.689 7.34375 27.7051C7.34375 27.7212 7.31738 27.7344 7.28516 27.7344C7.25293 27.7344 7.22656 27.7476 7.22656 27.7637C7.22656 27.7798 7.2002 27.793 7.16797 27.793C7.13574 27.793 7.10938 27.8062 7.10938 27.8223C7.10938 27.8384 7.08301 27.8516 7.05078 27.8516C7.01855 27.8516 6.99219 27.8647 6.99219 27.8809C6.99219 27.897 6.96872 27.9102 6.94007 27.9102C6.91139 27.9102 6.86894 27.9365 6.8457 27.9688C6.82247 28.001 6.78002 28.0273 6.75134 28.0273C6.72269 28.0273 6.69922 28.0405 6.69922 28.0566C6.69922 28.0728 6.67815 28.0859 6.65237 28.0859C6.62662 28.0859 6.56858 28.1255 6.52344 28.1738C6.47829 28.2222 6.42667 28.2617 6.40877 28.2617C6.36626 28.2617 5.82031 28.8077 5.82031 28.8502C5.82031 28.8681 5.78076 28.9197 5.73242 28.9648C5.68408 29.01 5.64453 29.068 5.64453 29.0938C5.64453 29.1196 5.63135 29.1406 5.61523 29.1406C5.59912 29.1406 5.58594 29.1641 5.58594 29.1927C5.58594 29.2214 5.55957 29.2639 5.52734 29.2871C5.49512 29.3103 5.46875 29.3528 5.46875 29.3815C5.46875 29.4101 5.45557 29.4336 5.43945 29.4336C5.42334 29.4336 5.41016 29.46 5.41016 29.4922C5.41016 29.5244 5.39697 29.5508 5.38086 29.5508C5.36475 29.5508 5.35156 29.5771 5.35156 29.6094C5.35156 29.6416 5.33838 29.668 5.32227 29.668C5.30615 29.668 5.29297 29.7075 5.29297 29.7559C5.29297 29.8042 5.27979 29.8438 5.26367 29.8438C5.24756 29.8438 5.23438 29.8701 5.23438 29.9023C5.23438 29.9346 5.22119 29.9609 5.20508 29.9609C5.18896 29.9609 5.17578 30.0005 5.17578 30.0488C5.17578 30.0972 5.1626 30.1367 5.14648 30.1367C5.13037 30.1367 5.11719 30.1895 5.11719 30.2539C5.11719 30.3184 5.104 30.3711 5.08789 30.3711C5.0716 30.3711 5.05859 30.4492 5.05859 30.5469C5.05859 30.6445 5.04559 30.7227 5.0293 30.7227C5.01099 30.7227 5 30.8984 5 31.1914C5 31.4844 5.01099 31.6602 5.0293 31.6602C5.04559 31.6602 5.05859 31.7383 5.05859 31.8359C5.05859 31.9336 5.0716 32.0117 5.08789 32.0117C5.104 32.0117 5.11719 32.0645 5.11719 32.1289C5.11719 32.1934 5.13037 32.2461 5.14648 32.2461C5.1626 32.2461 5.17578 32.2856 5.17578 32.334C5.17578 32.3823 5.18896 32.4219 5.20508 32.4219C5.22119 32.4219 5.23438 32.4482 5.23438 32.4805C5.23438 32.5127 5.24756 32.5391 5.26367 32.5391C5.27979 32.5391 5.29297 32.5786 5.29297 32.627C5.29297 32.6753 5.30615 32.7148 5.32227 32.7148C5.33838 32.7148 5.35156 32.7412 5.35156 32.7734C5.35156 32.8057 5.36475 32.832 5.38086 32.832C5.39697 32.832 5.41016 32.8584 5.41016 32.8906C5.41016 32.9229 5.42334 32.9492 5.43945 32.9492C5.45557 32.9492 5.46875 32.9727 5.46875 33.0013C5.46875 33.03 5.49512 33.0725 5.52734 33.0957C5.55957 33.1189 5.58594 33.1614 5.58594 33.1901C5.58594 33.2187 5.59912 33.2422 5.61523 33.2422C5.63135 33.2422 5.64453 33.2633 5.64453 33.289C5.64453 33.3148 5.68408 33.3728 5.73242 33.418C5.78076 33.4631 5.82031 33.5147 5.82031 33.5326C5.82031 33.5751 6.36626 34.1211 6.40877 34.1211C6.42667 34.1211 6.47829 34.1606 6.52344 34.209C6.56858 34.2573 6.62662 34.2969 6.65237 34.2969C6.67815 34.2969 6.69922 34.3101 6.69922 34.3262C6.69922 34.3423 6.72269 34.3555 6.75134 34.3555C6.78002 34.3555 6.82247 34.3818 6.8457 34.4141C6.86894 34.4463 6.91139 34.4727 6.94007 34.4727C6.96872 34.4727 6.99219 34.4858 6.99219 34.502C6.99219 34.5181 7.01855 34.5312 7.05078 34.5312C7.08301 34.5312 7.10938 34.5444 7.10938 34.5605C7.10938 34.5767 7.13574 34.5898 7.16797 34.5898C7.2002 34.5898 7.22656 34.603 7.22656 34.6191C7.22656 34.6353 7.26611 34.6484 7.31445 34.6484C7.36279 34.6484 7.40234 34.6616 7.40234 34.6777C7.40234 34.6938 7.42871 34.707 7.46094 34.707C7.49316 34.707 7.51953 34.7202 7.51953 34.7363C7.51953 34.7524 7.55908 34.7656 7.60742 34.7656C7.65576 34.7656 7.69531 34.7788 7.69531 34.7949C7.69531 34.811 7.74805 34.8242 7.8125 34.8242C7.87695 34.8242 7.92969 34.8374 7.92969 34.8535C7.92969 34.8698 8.00782 34.8828 8.10547 34.8828C8.20312 34.8828 8.28125 34.8958 8.28125 34.9121C8.28125 34.9302 8.43749 34.9414 8.69141 34.9414C8.94532 34.9414 9.10156 34.9302 9.10156 34.9121C9.10156 34.8954 9.18945 34.8828 9.30664 34.8828C9.42383 34.8828 9.51172 34.8702 9.51172 34.8535C9.51172 34.8374 9.56445 34.8242 9.62891 34.8242C9.69336 34.8242 9.74609 34.811 9.74609 34.7949C9.74609 34.7788 9.79883 34.7656 9.86328 34.7656C9.92773 34.7656 9.98047 34.7524 9.98047 34.7363C9.98047 34.7202 10.0068 34.707 10.0391 34.707C10.0713 34.707 10.0977 34.6938 10.0977 34.6777C10.0977 34.6616 10.124 34.6484 10.1562 34.6484C10.1885 34.6484 10.2148 34.6353 10.2148 34.6191C10.2148 34.603 10.2544 34.5898 10.3027 34.5898C10.3511 34.5898 10.3906 34.5767 10.3906 34.5605C10.3906 34.5444 10.4141 34.5312 10.4427 34.5312C10.4714 34.5312 10.5139 34.5049 10.5371 34.4727C10.5603 34.4404 10.6028 34.4141 10.6315 34.4141C10.6601 34.4141 10.6836 34.4009 10.6836 34.3848C10.6836 34.3687 10.7071 34.3555 10.7357 34.3555C10.7644 34.3555 10.8068 34.3291 10.8301 34.2969C10.8533 34.2646 10.89 34.2383 10.9117 34.2383C10.9333 34.2383 11.0153 34.1724 11.0938 34.0918C11.1722 34.0112 11.2509 33.9453 11.2686 33.9453C11.3105 33.9453 11.5039 33.7519 11.5039 33.71C11.5039 33.6923 11.5698 33.6136 11.6504 33.5352C11.731 33.4567 11.7969 33.3719 11.7969 33.3466C11.7969 33.3214 11.8101 33.3008 11.8262 33.3008C11.8423 33.3008 11.8555 33.2773 11.8555 33.2487C11.8555 33.22 11.8818 33.1775 11.9141 33.1543C11.9463 33.1311 11.9727 33.0886 11.9727 33.0599C11.9727 33.0313 11.9858 33.0078 12.002 33.0078C12.0181 33.0078 12.0312 32.9814 12.0312 32.9492C12.0312 32.917 12.0444 32.8906 12.0605 32.8906C12.0767 32.8906 12.0898 32.8643 12.0898 32.832C12.0898 32.7998 12.103 32.7734 12.1191 32.7734C12.1353 32.7734 12.1484 32.7471 12.1484 32.7148C12.1484 32.6826 12.1616 32.6562 12.1777 32.6562C12.1938 32.6562 12.207 32.6299 12.207 32.5977C12.207 32.5654 12.2202 32.5391 12.2363 32.5391C12.2524 32.5391 12.2656 32.5127 12.2656 32.4805C12.2656 32.4225 12.2852 32.4219 14.2578 32.4219H16.25V28.5254C16.25 25.9473 16.2401 24.6289 16.2207 24.6289C16.2046 24.6289 16.1914 24.563 16.1914 24.4824C16.1914 24.4019 16.1782 24.3359 16.1621 24.3359C16.146 24.3359 16.1328 24.2832 16.1328 24.2188C16.1328 24.1543 16.1196 24.1016 16.1035 24.1016C16.0874 24.1016 16.0742 24.0649 16.0742 24.0201C16.0742 23.9723 16.05 23.9213 16.0156 23.8965C15.9834 23.8733 15.957 23.8308 15.957 23.8021C15.957 23.7735 15.9438 23.75 15.9277 23.75C15.9116 23.75 15.8984 23.7236 15.8984 23.6914C15.8984 23.6592 15.8853 23.6328 15.8691 23.6328C15.853 23.6328 15.8398 23.612 15.8398 23.5866C15.8398 23.5611 15.7871 23.4897 15.7227 23.4277C15.6582 23.3658 15.6055 23.3003 15.6055 23.2822C15.6055 23.2395 15.4715 23.1055 15.4287 23.1055C15.4106 23.1055 15.3451 23.0527 15.2832 22.9883C15.2213 22.9238 15.1498 22.8711 15.1244 22.8711C15.0989 22.8711 15.0781 22.8579 15.0781 22.8418C15.0781 22.8257 15.0547 22.8125 15.026 22.8125C14.9973 22.8125 14.9549 22.7861 14.9316 22.7539C14.9084 22.7217 14.866 22.6953 14.8373 22.6953C14.8086 22.6953 14.7852 22.6821 14.7852 22.666C14.7852 22.6499 14.7456 22.6367 14.6973 22.6367C14.6489 22.6367 14.6094 22.6235 14.6094 22.6074C14.6094 22.5913 14.5698 22.5781 14.5215 22.5781C14.4731 22.5781 14.4336 22.5649 14.4336 22.5488C14.4336 22.5327 14.3809 22.5195 14.3164 22.5195C14.252 22.5195 14.1992 22.5063 14.1992 22.4902C14.1992 22.4732 14.1016 22.4609 13.9648 22.4609H13.7305V22.373C13.7305 22.3247 13.7173 22.2852 13.7012 22.2852C13.6851 22.2852 13.6719 22.2456 13.6719 22.1973C13.6719 22.1489 13.6587 22.1094 13.6426 22.1094C13.6265 22.1094 13.6133 22.0698 13.6133 22.0215C13.6133 21.9731 13.6001 21.9336 13.584 21.9336C13.5679 21.9336 13.5547 21.894 13.5547 21.8457C13.5547 21.7974 13.5415 21.7578 13.5254 21.7578C13.5093 21.7578 13.4961 21.7183 13.4961 21.6699C13.4961 21.6216 13.4829 21.582 13.4668 21.582C13.4507 21.582 13.4375 21.5425 13.4375 21.4941C13.4375 21.4458 13.4243 21.4062 13.4082 21.4062C13.3921 21.4062 13.3789 21.3667 13.3789 21.3184C13.3789 21.27 13.3657 21.2305 13.3496 21.2305C13.3335 21.2305 13.3203 21.1909 13.3203 21.1426C13.3203 21.0942 13.3071 21.0547 13.291 21.0547C13.2749 21.0547 13.2617 21.0151 13.2617 20.9668C13.2617 20.9185 13.2485 20.8789 13.2324 20.8789C13.2163 20.8789 13.2031 20.8394 13.2031 20.791C13.2031 20.7427 13.1899 20.7031 13.1738 20.7031C13.1577 20.7031 13.1445 20.6636 13.1445 20.6152C13.1445 20.5669 13.1313 20.5273 13.1152 20.5273C13.0991 20.5273 13.0859 20.4878 13.0859 20.4395C13.0859 20.3911 13.0728 20.3516 13.0566 20.3516C13.0405 20.3516 13.0273 20.312 13.0273 20.2637C13.0273 20.2153 13.0142 20.1758 12.998 20.1758C12.9819 20.1758 12.9688 20.1362 12.9688 20.0879C12.9688 20.0396 12.9556 20 12.9395 20C12.9233 20 12.9102 19.9604 12.9102 19.9121C12.9102 19.8638 12.897 19.8242 12.8809 19.8242C12.8647 19.8242 12.8516 19.7847 12.8516 19.7363C12.8516 19.688 12.8384 19.6484 12.8223 19.6484C12.8062 19.6484 12.793 19.6089 12.793 19.5605C12.793 19.5122 12.7798 19.4727 12.7637 19.4727C12.7476 19.4727 12.7344 19.4331 12.7344 19.3848C12.7344 19.3364 12.7212 19.2969 12.7051 19.2969C12.689 19.2969 12.6758 19.2573 12.6758 19.209C12.6758 19.1606 12.6626 19.1211 12.6465 19.1211C12.6304 19.1211 12.6172 19.0815 12.6172 19.0332C12.6172 18.9849 12.604 18.9453 12.5879 18.9453C12.5718 18.9453 12.5586 18.9058 12.5586 18.8574C12.5586 18.8091 12.5454 18.7695 12.5293 18.7695C12.5132 18.7695 12.5 18.73 12.5 18.6816C12.5 18.6333 12.4868 18.5938 12.4707 18.5938C12.4546 18.5938 12.4414 18.5542 12.4414 18.5059C12.4414 18.4575 12.4282 18.418 12.4121 18.418C12.396 18.418 12.3828 18.3784 12.3828 18.3301C12.3828 18.2817 12.3696 18.2422 12.3535 18.2422C12.3374 18.2422 12.3242 18.2026 12.3242 18.1543C12.3242 18.106 12.311 18.0664 12.2949 18.0664C12.2788 18.0664 12.2656 18.0269 12.2656 17.9785C12.2656 17.9302 12.2524 17.8906 12.2363 17.8906C12.2202 17.8906 12.207 17.8511 12.207 17.8027C12.207 17.7544 12.1938 17.7148 12.1777 17.7148C12.1616 17.7148 12.1484 17.6753 12.1484 17.627C12.1484 17.5786 12.1353 17.5391 12.1191 17.5391C12.103 17.5391 12.0898 17.4995 12.0898 17.4512C12.0898 17.4028 12.0767 17.3633 12.0605 17.3633C12.0444 17.3633 12.0312 17.3237 12.0312 17.2754C12.0312 17.2271 12.0181 17.1875 12.002 17.1875C11.9858 17.1875 11.9727 17.1479 11.9727 17.0996C11.9727 17.0513 11.9595 17.0117 11.9434 17.0117C11.9272 17.0117 11.9141 16.9722 11.9141 16.9238C11.9141 16.8755 11.9009 16.8359 11.8848 16.8359C11.8687 16.8359 11.8555 16.7964 11.8555 16.748C11.8555 16.6997 11.8423 16.6602 11.8262 16.6602C11.8101 16.6602 11.7969 16.6206 11.7969 16.5723C11.7969 16.5239 11.7837 16.4844 11.7676 16.4844C11.7515 16.4844 11.7383 16.4448 11.7383 16.3965C11.7383 16.3481 11.7251 16.3086 11.709 16.3086C11.6929 16.3086 11.6797 16.269 11.6797 16.2207C11.6797 16.1724 11.6665 16.1328 11.6504 16.1328C11.6343 16.1328 11.6211 16.1064 11.6211 16.0742C11.6211 16.042 11.6079 16.0156 11.5918 16.0156C11.5757 16.0156 11.5625 15.9893 11.5625 15.957C11.5625 15.9248 11.5493 15.8984 11.5332 15.8984C11.5171 15.8984 11.5039 15.875 11.5039 15.8463C11.5039 15.8176 11.4775 15.7752 11.4453 15.752C11.4131 15.7287 11.3867 15.6925 11.3867 15.6715C11.3867 15.6247 11.1375 15.3711 11.0916 15.3711C11.0735 15.3711 11.0217 15.3315 10.9766 15.2832C10.9314 15.2349 10.8734 15.1953 10.8476 15.1953C10.8218 15.1953 10.8008 15.1821 10.8008 15.166C10.8008 15.1499 10.7744 15.1367 10.7422 15.1367C10.71 15.1367 10.6836 15.1235 10.6836 15.1074C10.6836 15.0913 10.6572 15.0781 10.625 15.0781C10.5928 15.0781 10.5664 15.0649 10.5664 15.0488C10.5664 15.0327 10.5137 15.0195 10.4492 15.0195C10.3848 15.0195 10.332 15.0063 10.332 14.9902C10.332 14.9709 9.42383 14.9609 7.66602 14.9609H5V16.1914ZM32.4292 15.0349C32.393 15.0736 32.3633 15.1227 32.3633 15.1439C32.3633 15.165 32.3369 15.2014 32.3047 15.2246C32.2725 15.2478 32.2461 15.2874 32.2461 15.3125C32.2461 15.3376 32.2197 15.3772 32.1875 15.4004C32.1553 15.4236 32.1289 15.4632 32.1289 15.4883C32.1289 15.5134 32.1025 15.5529 32.0703 15.5762C32.0381 15.5994 32.0117 15.639 32.0117 15.6641C32.0117 15.6892 31.9854 15.7287 31.9531 15.752C31.9209 15.7752 31.8945 15.8147 31.8945 15.8398C31.8945 15.865 31.8682 15.9045 31.8359 15.9277C31.8037 15.951 31.7773 15.9905 31.7773 16.0156C31.7773 16.0407 31.751 16.0803 31.7188 16.1035C31.6865 16.1267 31.6602 16.1663 31.6602 16.1914C31.6602 16.2165 31.6338 16.2561 31.6016 16.2793C31.5693 16.3025 31.543 16.3421 31.543 16.3672C31.543 16.3923 31.5166 16.4318 31.4844 16.4551C31.4521 16.4783 31.4258 16.5179 31.4258 16.543C31.4258 16.5681 31.3994 16.6076 31.3672 16.6309C31.335 16.6541 31.3086 16.6936 31.3086 16.7188C31.3086 16.7439 31.2822 16.7834 31.25 16.8066C31.2178 16.8299 31.1914 16.8694 31.1914 16.8945C31.1914 16.9196 31.165 16.9592 31.1328 16.9824C31.1006 17.0057 31.0742 17.0452 31.0742 17.0703C31.0742 17.0954 31.0479 17.135 31.0156 17.1582C30.9834 17.1814 30.957 17.221 30.957 17.2461C30.957 17.2712 30.9307 17.3108 30.8984 17.334C30.8662 17.3572 30.8398 17.3968 30.8398 17.4219C30.8398 17.447 30.8135 17.4865 30.7812 17.5098C30.749 17.533 30.7227 17.5725 30.7227 17.5977C30.7227 17.6228 30.6963 17.6623 30.6641 17.6855C30.6318 17.7088 30.6055 17.7483 30.6055 17.7734C30.6055 17.7985 30.5791 17.8381 30.5469 17.8613C30.5146 17.8846 30.4883 17.9241 30.4883 17.9492C30.4883 17.9743 30.4619 18.0139 30.4297 18.0371C30.3975 18.0603 30.3711 18.0999 30.3711 18.125C30.3711 18.1501 30.3447 18.1897 30.3125 18.2129C30.2803 18.2361 30.2539 18.2757 30.2539 18.3008C30.2539 18.3259 30.2275 18.3654 30.1953 18.3887C30.1631 18.4119 30.1367 18.4515 30.1367 18.4766C30.1367 18.5017 30.1104 18.5412 30.0781 18.5645C30.0459 18.5877 30.0195 18.6272 30.0195 18.6523C30.0195 18.6775 29.9932 18.717 29.9609 18.7402C29.9287 18.7635 29.9023 18.803 29.9023 18.8281C29.9023 18.8532 29.876 18.8928 29.8438 18.916C29.8115 18.9392 29.7852 18.9788 29.7852 19.0039C29.7852 19.029 29.7588 19.0686 29.7266 19.0918C29.6943 19.115 29.668 19.1546 29.668 19.1797C29.668 19.2048 29.6416 19.2443 29.6094 19.2676C29.5771 19.2908 29.5508 19.3304 29.5508 19.3555C29.5508 19.3806 29.5244 19.4201 29.4922 19.4434C29.46 19.4666 29.4336 19.5061 29.4336 19.5312C29.4336 19.5564 29.4072 19.5959 29.375 19.6191C29.3428 19.6424 29.3164 19.6819 29.3164 19.707C29.3164 19.7321 29.29 19.7717 29.2578 19.7949C29.2256 19.8182 29.1992 19.8577 29.1992 19.8828C29.1992 19.9079 29.1729 19.9475 29.1406 19.9707C29.1084 19.9939 29.082 20.0335 29.082 20.0586C29.082 20.0837 29.0557 20.1233 29.0234 20.1465C28.9912 20.1697 28.9648 20.2093 28.9648 20.2344C28.9648 20.2595 28.9385 20.299 28.9062 20.3223C28.874 20.3455 28.8477 20.385 28.8477 20.4102C28.8477 20.4353 28.8213 20.4748 28.7891 20.498C28.7568 20.5213 28.7305 20.5608 28.7305 20.5859C28.7305 20.611 28.7041 20.6506 28.6719 20.6738C28.6396 20.6971 28.6133 20.7366 28.6133 20.7617C28.6133 20.7868 28.5869 20.8264 28.5547 20.8496C28.5225 20.8728 28.4961 20.9124 28.4961 20.9375C28.4961 20.9626 28.4697 21.0022 28.4375 21.0254C28.4053 21.0486 28.3789 21.0882 28.3789 21.1133C28.3789 21.1384 28.3525 21.1779 28.3203 21.2012C28.2881 21.2244 28.2617 21.264 28.2617 21.2891C28.2617 21.3142 28.2354 21.3537 28.2031 21.377C28.1709 21.4002 28.1445 21.4397 28.1445 21.4648C28.1445 21.49 28.1182 21.5295 28.0859 21.5527C28.0537 21.576 28.0273 21.6155 28.0273 21.6406C28.0273 21.6657 28.001 21.7053 27.9688 21.7285C27.9365 21.7517 27.9102 21.7913 27.9102 21.8164C27.9102 21.8415 27.8838 21.8811 27.8516 21.9043C27.8193 21.9275 27.793 21.9671 27.793 21.9922C27.793 22.0173 27.7666 22.0568 27.7344 22.0801C27.7021 22.1033 27.6758 22.1429 27.6758 22.168C27.6758 22.1931 27.6494 22.2326 27.6172 22.2559C27.585 22.2791 27.5586 22.3159 27.5586 22.3377C27.5586 22.3913 27.4853 22.4609 27.4288 22.4609C27.4035 22.4609 27.3828 22.4741 27.3828 22.4902C27.3828 22.5063 27.3564 22.5195 27.3242 22.5195C27.292 22.5195 27.2656 22.5327 27.2656 22.5488C27.2656 22.5649 27.2261 22.5781 27.1777 22.5781C27.1294 22.5781 27.0898 22.5913 27.0898 22.6074C27.0898 22.6235 27.0635 22.6367 27.0312 22.6367C26.999 22.6367 26.9727 22.6499 26.9727 22.666C26.9727 22.6821 26.9463 22.6953 26.9141 22.6953C26.8818 22.6953 26.8555 22.7085 26.8555 22.7246C26.8555 22.7407 26.8159 22.7539 26.7676 22.7539C26.7192 22.7539 26.6797 22.7671 26.6797 22.7832C26.6797 22.7993 26.6533 22.8125 26.6211 22.8125C26.5889 22.8125 26.5625 22.8257 26.5625 22.8418C26.5625 22.8579 26.5361 22.8711 26.5039 22.8711C26.4717 22.8711 26.4453 22.8843 26.4453 22.9004C26.4453 22.9165 26.4058 22.9297 26.3574 22.9297C26.3091 22.9297 26.2695 22.9429 26.2695 22.959C26.2695 22.9751 26.2432 22.9883 26.2109 22.9883C26.1787 22.9883 26.1523 23.0015 26.1523 23.0176C26.1523 23.0337 26.126 23.0469 26.0938 23.0469C26.0615 23.0469 26.0352 23.0601 26.0352 23.0762C26.0352 23.0923 25.9956 23.1055 25.9473 23.1055C25.8989 23.1055 25.8594 23.1187 25.8594 23.1348C25.8594 23.1509 25.833 23.1641 25.8008 23.1641C25.7686 23.1641 25.7422 23.1772 25.7422 23.1934C25.7422 23.2095 25.7158 23.2227 25.6836 23.2227C25.6514 23.2227 25.625 23.2358 25.625 23.252C25.625 23.2681 25.5854 23.2812 25.5371 23.2812C25.4888 23.2812 25.4492 23.2944 25.4492 23.3105C25.4492 23.3267 25.4229 23.3398 25.3906 23.3398C25.3584 23.3398 25.332 23.353 25.332 23.3691C25.332 23.3853 25.3057 23.3984 25.2734 23.3984C25.2412 23.3984 25.2148 23.4116 25.2148 23.4277C25.2148 23.4438 25.1753 23.457 25.127 23.457C25.0786 23.457 25.0391 23.4702 25.0391 23.4863C25.0391 23.5024 25.0127 23.5156 24.9805 23.5156C24.9482 23.5156 24.9219 23.5288 24.9219 23.5449C24.9219 23.561 24.8955 23.5742 24.8633 23.5742C24.8311 23.5742 24.8047 23.5874 24.8047 23.6035C24.8047 23.6196 24.7651 23.6328 24.7168 23.6328C24.6685 23.6328 24.6289 23.646 24.6289 23.6621C24.6289 23.6782 24.6025 23.6914 24.5703 23.6914C24.5381 23.6914 24.5117 23.7046 24.5117 23.7207C24.5117 23.7368 24.4854 23.75 24.4531 23.75C24.4209 23.75 24.3945 23.7632 24.3945 23.7793C24.3945 23.7954 24.355 23.8086 24.3066 23.8086C24.2583 23.8086 24.2188 23.8218 24.2188 23.8379C24.2188 23.854 24.1924 23.8672 24.1602 23.8672C24.1279 23.8672 24.1016 23.8804 24.1016 23.8965C24.1016 23.9126 24.0752 23.9258 24.043 23.9258C24.0107 23.9258 23.9844 23.939 23.9844 23.9551C23.9844 23.9712 23.9448 23.9844 23.8965 23.9844C23.8481 23.9844 23.8086 23.9976 23.8086 24.0137C23.8086 24.0298 23.7822 24.043 23.75 24.043C23.7178 24.043 23.6914 24.0562 23.6914 24.0723C23.6914 24.0884 23.665 24.1016 23.6328 24.1016C23.6006 24.1016 23.5742 24.1147 23.5742 24.1309C23.5742 24.147 23.5347 24.1602 23.4863 24.1602C23.438 24.1602 23.3984 24.1733 23.3984 24.1895C23.3984 24.2056 23.3721 24.2188 23.3398 24.2188C23.3076 24.2188 23.2812 24.2319 23.2812 24.248C23.2812 24.2642 23.2549 24.2773 23.2227 24.2773C23.1904 24.2773 23.1641 24.2905 23.1641 24.3066C23.1641 24.3228 23.1245 24.3359 23.0762 24.3359C23.0278 24.3359 22.9883 24.3491 22.9883 24.3652C22.9883 24.3813 22.9619 24.3945 22.9297 24.3945C22.8975 24.3945 22.8711 24.4077 22.8711 24.4238C22.8711 24.4399 22.8447 24.4531 22.8125 24.4531C22.7803 24.4531 22.7539 24.4663 22.7539 24.4824C22.7539 24.4985 22.7144 24.5117 22.666 24.5117C22.6177 24.5117 22.5781 24.5249 22.5781 24.541C22.5781 24.5571 22.5518 24.5703 22.5195 24.5703C22.4873 24.5703 22.4609 24.5835 22.4609 24.5996C22.4609 24.6157 22.4346 24.6289 22.4023 24.6289C22.3701 24.6289 22.3438 24.6421 22.3438 24.6582C22.3438 24.6743 22.3042 24.6875 22.2559 24.6875C22.2075 24.6875 22.168 24.7007 22.168 24.7168C22.168 24.7329 22.1416 24.7461 22.1094 24.7461C22.0771 24.7461 22.0508 24.7593 22.0508 24.7754C22.0508 24.7915 22.0244 24.8047 21.9922 24.8047C21.96 24.8047 21.9336 24.8179 21.9336 24.834C21.9336 24.8501 21.894 24.8633 21.8457 24.8633C21.7974 24.8633 21.7578 24.8765 21.7578 24.8926C21.7578 24.9087 21.7314 24.9219 21.6992 24.9219C21.667 24.9219 21.6406 24.9351 21.6406 24.9512C21.6406 24.9673 21.6143 24.9805 21.582 24.9805C21.5498 24.9805 21.5234 24.9937 21.5234 25.0098C21.5234 25.0259 21.4839 25.0391 21.4355 25.0391C21.3872 25.0391 21.3477 25.0522 21.3477 25.0684C21.3477 25.0845 21.3213 25.0977 21.2891 25.0977C21.2568 25.0977 21.2305 25.1108 21.2305 25.127C21.2305 25.1431 21.2041 25.1562 21.1719 25.1562C21.1396 25.1562 21.1133 25.1694 21.1133 25.1855C21.1133 25.2017 21.0737 25.2148 21.0254 25.2148C20.9771 25.2148 20.9375 25.228 20.9375 25.2441C20.9375 25.2603 20.9111 25.2734 20.8789 25.2734C20.8467 25.2734 20.8203 25.2866 20.8203 25.3027C20.8203 25.3188 20.7939 25.332 20.7617 25.332C20.7295 25.332 20.7031 25.3452 20.7031 25.3613C20.7031 25.3774 20.6636 25.3906 20.6152 25.3906C20.5669 25.3906 20.5273 25.4038 20.5273 25.4199C20.5273 25.436 20.501 25.4492 20.4688 25.4492C20.4365 25.4492 20.4102 25.4624 20.4102 25.4785C20.4102 25.4946 20.3838 25.5078 20.3516 25.5078C20.3193 25.5078 20.293 25.521 20.293 25.5371C20.293 25.5532 20.2534 25.5664 20.2051 25.5664C20.1567 25.5664 20.1172 25.5796 20.1172 25.5957C20.1172 25.6118 20.0908 25.625 20.0586 25.625C20.0264 25.625 20 25.6382 20 25.6543C20 25.6704 19.9736 25.6836 19.9414 25.6836C19.9092 25.6836 19.8828 25.6968 19.8828 25.7129C19.8828 25.729 19.8564 25.7422 19.8242 25.7422C19.792 25.7422 19.7656 25.7554 19.7656 25.7715C19.7656 25.7876 19.7446 25.8008 19.7188 25.8008C19.693 25.8008 19.635 25.8403 19.5898 25.8887C19.5447 25.937 19.4928 25.9766 19.4746 25.9766C19.4314 25.9766 19.2383 26.1697 19.2383 26.2128C19.2383 26.2311 19.1987 26.283 19.1504 26.3281C19.1021 26.3733 19.0625 26.4313 19.0625 26.4571C19.0625 26.4828 19.0493 26.5039 19.0332 26.5039C19.0171 26.5039 19.0039 26.5303 19.0039 26.5625C19.0039 26.5947 18.9907 26.6211 18.9746 26.6211C18.9585 26.6211 18.9453 26.6475 18.9453 26.6797C18.9453 26.7119 18.9321 26.7383 18.916 26.7383C18.8999 26.7383 18.8867 26.7646 18.8867 26.7969C18.8867 26.8291 18.8735 26.8555 18.8574 26.8555C18.8413 26.8555 18.8281 26.9082 18.8281 26.9727C18.8281 27.0371 18.8149 27.0898 18.7988 27.0898C18.7795 27.0898 18.7695 27.998 18.7695 29.7559V32.4219H21.377C23.9648 32.4219 23.9844 32.4223 23.9844 32.4805C23.9844 32.5127 23.9976 32.5391 24.0137 32.5391C24.0298 32.5391 24.043 32.5654 24.043 32.5977C24.043 32.6299 24.0562 32.6562 24.0723 32.6562C24.0884 32.6562 24.1016 32.6826 24.1016 32.7148C24.1016 32.7471 24.1147 32.7734 24.1309 32.7734C24.147 32.7734 24.1602 32.7998 24.1602 32.832C24.1602 32.8643 24.1733 32.8906 24.1895 32.8906C24.2056 32.8906 24.2188 32.917 24.2188 32.9492C24.2188 32.9814 24.2319 33.0078 24.248 33.0078C24.2642 33.0078 24.2773 33.0313 24.2773 33.0599C24.2773 33.0886 24.3037 33.1311 24.3359 33.1543C24.3682 33.1775 24.3945 33.22 24.3945 33.2487C24.3945 33.2773 24.4077 33.3008 24.4238 33.3008C24.4399 33.3008 24.4531 33.3214 24.4531 33.3466C24.4531 33.3719 24.519 33.4567 24.5996 33.5352C24.6802 33.6136 24.7461 33.6923 24.7461 33.71C24.7461 33.7519 24.9395 33.9453 24.9814 33.9453C24.9991 33.9453 25.0778 34.0112 25.1562 34.0918C25.2347 34.1724 25.3167 34.2383 25.3383 34.2383C25.36 34.2383 25.3967 34.2646 25.4199 34.2969C25.4432 34.3291 25.4856 34.3555 25.5143 34.3555C25.5429 34.3555 25.5664 34.3687 25.5664 34.3848C25.5664 34.4009 25.5899 34.4141 25.6185 34.4141C25.6472 34.4141 25.6897 34.4404 25.7129 34.4727C25.7361 34.5049 25.7786 34.5312 25.8073 34.5312C25.8359 34.5312 25.8594 34.5444 25.8594 34.5605C25.8594 34.5767 25.8989 34.5898 25.9473 34.5898C25.9956 34.5898 26.0352 34.603 26.0352 34.6191C26.0352 34.6353 26.0615 34.6484 26.0938 34.6484C26.126 34.6484 26.1523 34.6616 26.1523 34.6777C26.1523 34.6938 26.1787 34.707 26.2109 34.707C26.2432 34.707 26.2695 34.7202 26.2695 34.7363C26.2695 34.7524 26.3223 34.7656 26.3867 34.7656C26.4512 34.7656 26.5039 34.7788 26.5039 34.7949C26.5039 34.811 26.5566 34.8242 26.6211 34.8242C26.6855 34.8242 26.7383 34.8374 26.7383 34.8535C26.7383 34.8702 26.8262 34.8828 26.9434 34.8828C27.0605 34.8828 27.1484 34.8954 27.1484 34.9121C27.1484 34.93 27.2852 34.9414 27.5 34.9414C27.7148 34.9414 27.8516 34.93 27.8516 34.9121C27.8516 34.8954 27.9395 34.8828 28.0566 34.8828C28.1738 34.8828 28.2617 34.8702 28.2617 34.8535C28.2617 34.8374 28.3145 34.8242 28.3789 34.8242C28.4434 34.8242 28.4961 34.811 28.4961 34.7949C28.4961 34.7788 28.5488 34.7656 28.6133 34.7656C28.6777 34.7656 28.7305 34.7524 28.7305 34.7363C28.7305 34.7202 28.7568 34.707 28.7891 34.707C28.8213 34.707 28.8477 34.6938 28.8477 34.6777C28.8477 34.6616 28.874 34.6484 28.9062 34.6484C28.9385 34.6484 28.9648 34.6353 28.9648 34.6191C28.9648 34.603 29.0044 34.5898 29.0527 34.5898C29.1011 34.5898 29.1406 34.5767 29.1406 34.5605C29.1406 34.5444 29.1641 34.5312 29.1927 34.5312C29.2214 34.5312 29.2639 34.5049 29.2871 34.4727C29.3103 34.4404 29.3528 34.4141 29.3815 34.4141C29.4101 34.4141 29.4336 34.4009 29.4336 34.3848C29.4336 34.3687 29.4571 34.3555 29.4857 34.3555C29.5144 34.3555 29.5568 34.3291 29.5801 34.2969C29.6033 34.2646 29.64 34.2383 29.6617 34.2383C29.6833 34.2383 29.7653 34.1724 29.8438 34.0918C29.9222 34.0112 30.0009 33.9453 30.0186 33.9453C30.0605 33.9453 30.2539 33.7519 30.2539 33.71C30.2539 33.6923 30.3198 33.6136 30.4004 33.5352C30.481 33.4567 30.5469 33.3719 30.5469 33.3466C30.5469 33.3214 30.5601 33.3008 30.5762 33.3008C30.5923 33.3008 30.6055 33.2773 30.6055 33.2487C30.6055 33.22 30.6318 33.1775 30.6641 33.1543C30.6963 33.1311 30.7227 33.0886 30.7227 33.0599C30.7227 33.0313 30.7358 33.0078 30.752 33.0078C30.7681 33.0078 30.7812 32.9814 30.7812 32.9492C30.7812 32.917 30.7944 32.8906 30.8105 32.8906C30.8267 32.8906 30.8398 32.8643 30.8398 32.832C30.8398 32.7998 30.853 32.7734 30.8691 32.7734C30.8853 32.7734 30.8984 32.7471 30.8984 32.7148C30.8984 32.6826 30.9116 32.6562 30.9277 32.6562C30.9438 32.6562 30.957 32.6299 30.957 32.5977C30.957 32.5654 30.9702 32.5391 30.9863 32.5391C31.0024 32.5391 31.0156 32.5127 31.0156 32.4805C31.0156 32.4225 31.0352 32.4219 33.0078 32.4219H35V31.1914V29.9609H33.0078C31.0352 29.9609 31.0156 29.9604 31.0156 29.9023C31.0156 29.8701 31.0024 29.8438 30.9863 29.8438C30.9702 29.8438 30.957 29.8174 30.957 29.7852C30.957 29.7529 30.9438 29.7266 30.9277 29.7266C30.9116 29.7266 30.8984 29.7002 30.8984 29.668C30.8984 29.6357 30.8853 29.6094 30.8691 29.6094C30.853 29.6094 30.8398 29.583 30.8398 29.5508C30.8398 29.5186 30.8267 29.4922 30.8105 29.4922C30.7944 29.4922 30.7812 29.4658 30.7812 29.4336C30.7812 29.4014 30.7681 29.375 30.752 29.375C30.7358 29.375 30.7227 29.3515 30.7227 29.3229C30.7227 29.2942 30.6963 29.2517 30.6641 29.2285C30.6318 29.2053 30.6055 29.1657 30.6055 29.1406C30.6055 29.1155 30.5791 29.076 30.5469 29.0527C30.5146 29.0295 30.4883 28.9928 30.4883 28.9711C30.4883 28.9495 30.4224 28.8675 30.3418 28.7891C30.2612 28.7106 30.1953 28.6317 30.1953 28.6138C30.1953 28.5716 30.0612 28.4375 30.019 28.4375C30.0011 28.4375 29.9222 28.3716 29.8438 28.291C29.7653 28.2104 29.6833 28.1445 29.6617 28.1445C29.64 28.1445 29.6033 28.1182 29.5801 28.0859C29.5568 28.0537 29.5144 28.0273 29.4857 28.0273C29.4571 28.0273 29.4336 28.0142 29.4336 27.998C29.4336 27.9819 29.4101 27.9688 29.3815 27.9688C29.3528 27.9688 29.3103 27.9424 29.2871 27.9102C29.2639 27.8779 29.2214 27.8516 29.1927 27.8516C29.1641 27.8516 29.1406 27.8384 29.1406 27.8223C29.1406 27.8062 29.1011 27.793 29.0527 27.793C29.0044 27.793 28.9648 27.7798 28.9648 27.7637C28.9648 27.7476 28.9385 27.7344 28.9062 27.7344C28.874 27.7344 28.8477 27.7212 28.8477 27.7051C28.8477 27.689 28.8213 27.6758 28.7891 27.6758C28.7568 27.6758 28.7305 27.6626 28.7305 27.6465C28.7305 27.6304 28.6777 27.6172 28.6133 27.6172C28.5488 27.6172 28.4961 27.604 28.4961 27.5879C28.4961 27.5718 28.4434 27.5586 28.3789 27.5586C28.3145 27.5586 28.2617 27.5454 28.2617 27.5293C28.2617 27.513 28.1836 27.5 28.0859 27.5C27.9883 27.5 27.9102 27.487 27.9102 27.4707C27.9102 27.4527 27.7637 27.4414 27.5293 27.4414C27.2949 27.4414 27.1484 27.4527 27.1484 27.4707C27.1484 27.4874 27.0605 27.5 26.9434 27.5C26.8262 27.5 26.7383 27.5126 26.7383 27.5293C26.7383 27.5454 26.6855 27.5586 26.6211 27.5586C26.5566 27.5586 26.5039 27.5718 26.5039 27.5879C26.5039 27.604 26.4512 27.6172 26.3867 27.6172C26.3223 27.6172 26.2695 27.6304 26.2695 27.6465C26.2695 27.6626 26.2432 27.6758 26.2109 27.6758C26.1787 27.6758 26.1523 27.689 26.1523 27.7051C26.1523 27.7212 26.126 27.7344 26.0938 27.7344C26.0615 27.7344 26.0352 27.7476 26.0352 27.7637C26.0352 27.7798 25.9956 27.793 25.9473 27.793C25.8989 27.793 25.8594 27.8062 25.8594 27.8223C25.8594 27.8384 25.8359 27.8516 25.8073 27.8516C25.7786 27.8516 25.7361 27.8779 25.7129 27.9102C25.6897 27.9424 25.6472 27.9688 25.6185 27.9688C25.5899 27.9688 25.5664 27.9819 25.5664 27.998C25.5664 28.0142 25.5429 28.0273 25.5143 28.0273C25.4856 28.0273 25.4432 28.0537 25.4199 28.0859C25.3967 28.1182 25.36 28.1445 25.3383 28.1445C25.3167 28.1445 25.2347 28.2104 25.1562 28.291C25.0778 28.3716 24.9989 28.4375 24.981 28.4375C24.9388 28.4375 24.8047 28.5716 24.8047 28.6138C24.8047 28.6317 24.7388 28.7106 24.6582 28.7891C24.5776 28.8675 24.5117 28.9495 24.5117 28.9711C24.5117 28.9928 24.4854 29.0295 24.4531 29.0527C24.4209 29.076 24.3945 29.1155 24.3945 29.1406C24.3945 29.1657 24.3682 29.2053 24.3359 29.2285C24.3037 29.2517 24.2773 29.2942 24.2773 29.3229C24.2773 29.3515 24.2642 29.375 24.248 29.375C24.2319 29.375 24.2188 29.4014 24.2188 29.4336C24.2188 29.4658 24.2056 29.4922 24.1895 29.4922C24.1733 29.4922 24.1602 29.5186 24.1602 29.5508C24.1602 29.583 24.147 29.6094 24.1309 29.6094C24.1147 29.6094 24.1016 29.6357 24.1016 29.668C24.1016 29.7002 24.0884 29.7266 24.0723 29.7266C24.0562 29.7266 24.043 29.7529 24.043 29.7852C24.043 29.8174 24.0298 29.8438 24.0137 29.8438C23.9976 29.8438 23.9844 29.8701 23.9844 29.9023C23.9844 29.9601 23.9648 29.9609 22.6493 29.9609C21.5313 29.9609 21.3074 29.9541 21.2723 29.9191C21.2377 29.8844 21.2305 29.7048 21.2305 28.877C21.2305 27.8266 21.2345 27.793 21.3602 27.793C21.3855 27.793 21.4062 27.7798 21.4062 27.7637C21.4062 27.7476 21.4458 27.7344 21.4941 27.7344C21.5425 27.7344 21.582 27.7212 21.582 27.7051C21.582 27.689 21.6084 27.6758 21.6406 27.6758C21.6729 27.6758 21.6992 27.6626 21.6992 27.6465C21.6992 27.6304 21.7256 27.6172 21.7578 27.6172C21.79 27.6172 21.8164 27.604 21.8164 27.5879C21.8164 27.5718 21.856 27.5586 21.9043 27.5586C21.9526 27.5586 21.9922 27.5454 21.9922 27.5293C21.9922 27.5132 22.0186 27.5 22.0508 27.5C22.083 27.5 22.1094 27.4868 22.1094 27.4707C22.1094 27.4546 22.1357 27.4414 22.168 27.4414C22.2002 27.4414 22.2266 27.4282 22.2266 27.4121C22.2266 27.396 22.2661 27.3828 22.3145 27.3828C22.3628 27.3828 22.4023 27.3696 22.4023 27.3535C22.4023 27.3374 22.4287 27.3242 22.4609 27.3242C22.4932 27.3242 22.5195 27.311 22.5195 27.2949C22.5195 27.2788 22.5459 27.2656 22.5781 27.2656C22.6104 27.2656 22.6367 27.2524 22.6367 27.2363C22.6367 27.2202 22.6763 27.207 22.7246 27.207C22.7729 27.207 22.8125 27.1938 22.8125 27.1777C22.8125 27.1616 22.8389 27.1484 22.8711 27.1484C22.9033 27.1484 22.9297 27.1353 22.9297 27.1191C22.9297 27.103 22.9561 27.0898 22.9883 27.0898C23.0205 27.0898 23.0469 27.0767 23.0469 27.0605C23.0469 27.0444 23.0864 27.0312 23.1348 27.0312C23.1831 27.0312 23.2227 27.0181 23.2227 27.002C23.2227 26.9858 23.249 26.9727 23.2812 26.9727C23.3135 26.9727 23.3398 26.9595 23.3398 26.9434C23.3398 26.9272 23.3662 26.9141 23.3984 26.9141C23.4307 26.9141 23.457 26.9009 23.457 26.8848C23.457 26.8687 23.4966 26.8555 23.5449 26.8555C23.5933 26.8555 23.6328 26.8423 23.6328 26.8262C23.6328 26.8101 23.6592 26.7969 23.6914 26.7969C23.7236 26.7969 23.75 26.7837 23.75 26.7676C23.75 26.7515 23.7764 26.7383 23.8086 26.7383C23.8408 26.7383 23.8672 26.7251 23.8672 26.709C23.8672 26.6929 23.9067 26.6797 23.9551 26.6797C24.0034 26.6797 24.043 26.6665 24.043 26.6504C24.043 26.6343 24.0693 26.6211 24.1016 26.6211C24.1338 26.6211 24.1602 26.6079 24.1602 26.5918C24.1602 26.5757 24.1865 26.5625 24.2188 26.5625C24.251 26.5625 24.2773 26.5493 24.2773 26.5332C24.2773 26.5171 24.3169 26.5039 24.3652 26.5039C24.4136 26.5039 24.4531 26.4907 24.4531 26.4746C24.4531 26.4585 24.4795 26.4453 24.5117 26.4453C24.5439 26.4453 24.5703 26.4321 24.5703 26.416C24.5703 26.3999 24.5967 26.3867 24.6289 26.3867C24.6611 26.3867 24.6875 26.3735 24.6875 26.3574C24.6875 26.3413 24.7271 26.3281 24.7754 26.3281C24.8237 26.3281 24.8633 26.3149 24.8633 26.2988C24.8633 26.2827 24.8896 26.2695 24.9219 26.2695C24.9541 26.2695 24.9805 26.2563 24.9805 26.2402C24.9805 26.2241 25.0068 26.2109 25.0391 26.2109C25.0713 26.2109 25.0977 26.1978 25.0977 26.1816C25.0977 26.1655 25.1372 26.1523 25.1855 26.1523C25.2339 26.1523 25.2734 26.1392 25.2734 26.123C25.2734 26.1069 25.2998 26.0938 25.332 26.0938C25.3643 26.0938 25.3906 26.0806 25.3906 26.0645C25.3906 26.0483 25.417 26.0352 25.4492 26.0352C25.4814 26.0352 25.5078 26.022 25.5078 26.0059C25.5078 25.9897 25.5474 25.9766 25.5957 25.9766C25.644 25.9766 25.6836 25.9634 25.6836 25.9473C25.6836 25.9312 25.71 25.918 25.7422 25.918C25.7744 25.918 25.8008 25.9048 25.8008 25.8887C25.8008 25.8726 25.8271 25.8594 25.8594 25.8594C25.8916 25.8594 25.918 25.8462 25.918 25.8301C25.918 25.814 25.9575 25.8008 26.0059 25.8008C26.0542 25.8008 26.0938 25.7876 26.0938 25.7715C26.0938 25.7554 26.1201 25.7422 26.1523 25.7422C26.1846 25.7422 26.2109 25.729 26.2109 25.7129C26.2109 25.6968 26.2373 25.6836 26.2695 25.6836C26.3018 25.6836 26.3281 25.6704 26.3281 25.6543C26.3281 25.6382 26.3677 25.625 26.416 25.625C26.4644 25.625 26.5039 25.6118 26.5039 25.5957C26.5039 25.5796 26.5303 25.5664 26.5625 25.5664C26.5947 25.5664 26.6211 25.5532 26.6211 25.5371C26.6211 25.521 26.6475 25.5078 26.6797 25.5078C26.7119 25.5078 26.7383 25.4946 26.7383 25.4785C26.7383 25.4624 26.7778 25.4492 26.8262 25.4492C26.8745 25.4492 26.9141 25.436 26.9141 25.4199C26.9141 25.4038 26.9404 25.3906 26.9727 25.3906C27.0049 25.3906 27.0312 25.3774 27.0312 25.3613C27.0312 25.3452 27.0576 25.332 27.0898 25.332C27.1221 25.332 27.1484 25.3188 27.1484 25.3027C27.1484 25.2866 27.188 25.2734 27.2363 25.2734C27.2847 25.2734 27.3242 25.2603 27.3242 25.2441C27.3242 25.228 27.3506 25.2148 27.3828 25.2148C27.415 25.2148 27.4414 25.2017 27.4414 25.1855C27.4414 25.1694 27.4678 25.1562 27.5 25.1562C27.5322 25.1562 27.5586 25.1431 27.5586 25.127C27.5586 25.1108 27.5981 25.0977 27.6465 25.0977C27.6948 25.0977 27.7344 25.0845 27.7344 25.0684C27.7344 25.0522 27.7607 25.0391 27.793 25.0391C27.8252 25.0391 27.8516 25.0259 27.8516 25.0098C27.8516 24.9937 27.8779 24.9805 27.9102 24.9805C27.9424 24.9805 27.9688 24.9673 27.9688 24.9512C27.9688 24.9318 29.1602 24.9219 31.4844 24.9219H35V23.6914V22.4609H32.7734C30.5664 22.4609 30.5469 22.4604 30.5469 22.4023C30.5469 22.3701 30.5601 22.3438 30.5762 22.3438C30.5923 22.3438 30.6055 22.3203 30.6055 22.2916C30.6055 22.2629 30.6318 22.2205 30.6641 22.1973C30.6963 22.174 30.7227 22.1345 30.7227 22.1094C30.7227 22.0843 30.749 22.0447 30.7812 22.0215C30.8135 21.9983 30.8398 21.9587 30.8398 21.9336C30.8398 21.9085 30.8662 21.8689 30.8984 21.8457C30.9307 21.8225 30.957 21.7829 30.957 21.7578C30.957 21.7327 30.9834 21.6932 31.0156 21.6699C31.0479 21.6467 31.0742 21.6071 31.0742 21.582C31.0742 21.5569 31.1006 21.5174 31.1328 21.4941C31.165 21.4709 31.1914 21.4314 31.1914 21.4062C31.1914 21.3811 31.2178 21.3416 31.25 21.3184C31.2822 21.2951 31.3086 21.2556 31.3086 21.2305C31.3086 21.2054 31.335 21.1658 31.3672 21.1426C31.3994 21.1193 31.4258 21.0798 31.4258 21.0547C31.4258 21.0296 31.4521 20.99 31.4844 20.9668C31.5166 20.9436 31.543 20.904 31.543 20.8789C31.543 20.8538 31.5693 20.8142 31.6016 20.791C31.6338 20.7678 31.6602 20.7282 31.6602 20.7031C31.6602 20.678 31.6865 20.6385 31.7188 20.6152C31.751 20.592 31.7773 20.5525 31.7773 20.5273C31.7773 20.5022 31.8037 20.4627 31.8359 20.4395C31.8682 20.4162 31.8945 20.3767 31.8945 20.3516C31.8945 20.3265 31.9209 20.2869 31.9531 20.2637C31.9854 20.2404 32.0117 20.2009 32.0117 20.1758C32.0117 20.1507 32.0381 20.1111 32.0703 20.0879C32.1025 20.0647 32.1289 20.0251 32.1289 20C32.1289 19.9749 32.1553 19.9353 32.1875 19.9121C32.2197 19.8889 32.2461 19.8493 32.2461 19.8242C32.2461 19.7991 32.2725 19.7596 32.3047 19.7363C32.3369 19.7131 32.3633 19.6735 32.3633 19.6484C32.3633 19.6233 32.3896 19.5838 32.4219 19.5605C32.4541 19.5373 32.4805 19.4978 32.4805 19.4727C32.4805 19.4475 32.5068 19.408 32.5391 19.3848C32.5713 19.3615 32.5977 19.322 32.5977 19.2969C32.5977 19.2718 32.624 19.2322 32.6562 19.209C32.6885 19.1858 32.7148 19.1462 32.7148 19.1211C32.7148 19.096 32.7412 19.0564 32.7734 19.0332C32.8057 19.01 32.832 18.9704 32.832 18.9453C32.832 18.9202 32.8584 18.8807 32.8906 18.8574C32.9229 18.8342 32.9492 18.7946 32.9492 18.7695C32.9492 18.7444 32.9756 18.7049 33.0078 18.6816C33.04 18.6584 33.0664 18.6189 33.0664 18.5938C33.0664 18.5686 33.0928 18.5291 33.125 18.5059C33.1572 18.4826 33.1836 18.4431 33.1836 18.418C33.1836 18.3929 33.21 18.3533 33.2422 18.3301C33.2744 18.3068 33.3008 18.2673 33.3008 18.2422C33.3008 18.2171 33.3271 18.1775 33.3594 18.1543C33.3916 18.1311 33.418 18.0915 33.418 18.0664C33.418 18.0413 33.4443 18.0017 33.4766 17.9785C33.5088 17.9553 33.5352 17.9157 33.5352 17.8906C33.5352 17.8655 33.5615 17.826 33.5938 17.8027C33.626 17.7795 33.6523 17.74 33.6523 17.7148C33.6523 17.6897 33.6787 17.6502 33.7109 17.627C33.7432 17.6037 33.7695 17.5669 33.7695 17.5452C33.7695 17.4344 33.8366 17.4219 34.4266 17.4219H35V16.1914V14.9609L33.7476 14.9627L32.4951 14.9645L32.4292 15.0349ZM9.10156 29.9902C9.10156 30.0063 9.13821 30.0195 9.18298 30.0195C9.23079 30.0195 9.28183 30.0437 9.30664 30.0781C9.32987 30.1104 9.36942 30.1367 9.39453 30.1367C9.41964 30.1367 9.45919 30.1631 9.48242 30.1953C9.50565 30.2275 9.54245 30.2539 9.56422 30.2539C9.61522 30.2539 9.6875 30.3262 9.6875 30.3772C9.6875 30.399 9.71387 30.4358 9.74609 30.459C9.77832 30.4822 9.80469 30.5218 9.80469 30.5469C9.80469 30.572 9.83105 30.6115 9.86328 30.6348C9.89768 30.6596 9.92188 30.7106 9.92188 30.7584C9.92188 30.8032 9.93506 30.8398 9.95117 30.8398C9.96907 30.8398 9.98047 30.9766 9.98047 31.1914C9.98047 31.4062 9.96907 31.543 9.95117 31.543C9.93506 31.543 9.92188 31.5796 9.92188 31.6244C9.92188 31.6722 9.89768 31.7232 9.86328 31.748C9.83105 31.7713 9.80469 31.8108 9.80469 31.8359C9.80469 31.861 9.77832 31.9006 9.74609 31.9238C9.71387 31.9471 9.6875 31.9839 9.6875 32.0056C9.6875 32.0566 9.61522 32.1289 9.56422 32.1289C9.54245 32.1289 9.50565 32.1553 9.48242 32.1875C9.45919 32.2197 9.41964 32.2461 9.39453 32.2461C9.36942 32.2461 9.32987 32.2725 9.30664 32.3047C9.28183 32.3391 9.23079 32.3633 9.18298 32.3633C9.13821 32.3633 9.10156 32.3765 9.10156 32.3926C9.10156 32.4105 8.96483 32.4219 8.75 32.4219C8.53517 32.4219 8.39844 32.4105 8.39844 32.3926C8.39844 32.3765 8.36179 32.3633 8.31702 32.3633C8.26921 32.3633 8.21817 32.3391 8.19336 32.3047C8.17013 32.2725 8.13058 32.2461 8.10547 32.2461C8.08036 32.2461 8.04081 32.2197 8.01758 32.1875C7.99435 32.1553 7.95755 32.1289 7.93578 32.1289C7.88478 32.1289 7.8125 32.0566 7.8125 32.0056C7.8125 31.9839 7.78613 31.9471 7.75391 31.9238C7.72168 31.9006 7.69531 31.861 7.69531 31.8359C7.69531 31.8108 7.66895 31.7713 7.63672 31.748C7.60232 31.7232 7.57812 31.6722 7.57812 31.6244C7.57812 31.5796 7.56494 31.543 7.54883 31.543C7.53093 31.543 7.51953 31.4062 7.51953 31.1914C7.51953 30.9766 7.53093 30.8398 7.54883 30.8398C7.56494 30.8398 7.57812 30.8032 7.57812 30.7584C7.57812 30.7106 7.60232 30.6596 7.63672 30.6348C7.66895 30.6115 7.69531 30.572 7.69531 30.5469C7.69531 30.5218 7.72168 30.4822 7.75391 30.459C7.78613 30.4358 7.8125 30.399 7.8125 30.3772C7.8125 30.3262 7.88478 30.2539 7.93578 30.2539C7.95755 30.2539 7.99435 30.2275 8.01758 30.1953C8.04081 30.1631 8.08036 30.1367 8.10547 30.1367C8.13058 30.1367 8.17013 30.1104 8.19336 30.0781C8.21817 30.0437 8.26921 30.0195 8.31702 30.0195C8.36179 30.0195 8.39844 30.0063 8.39844 29.9902C8.39844 29.9723 8.53517 29.9609 8.75 29.9609C8.96483 29.9609 9.10156 29.9723 9.10156 29.9902ZM27.8516 29.9902C27.8516 30.0063 27.8882 30.0195 27.933 30.0195C27.9808 30.0195 28.0318 30.0437 28.0566 30.0781C28.0799 30.1104 28.1194 30.1367 28.1445 30.1367C28.1696 30.1367 28.2092 30.1631 28.2324 30.1953C28.2557 30.2275 28.2925 30.2539 28.3142 30.2539C28.3652 30.2539 28.4375 30.3262 28.4375 30.3772C28.4375 30.399 28.4639 30.4358 28.4961 30.459C28.5283 30.4822 28.5547 30.5218 28.5547 30.5469C28.5547 30.572 28.5811 30.6115 28.6133 30.6348C28.6477 30.6596 28.6719 30.7106 28.6719 30.7584C28.6719 30.8032 28.6851 30.8398 28.7012 30.8398C28.7191 30.8398 28.7305 30.9766 28.7305 31.1914C28.7305 31.4062 28.7191 31.543 28.7012 31.543C28.6851 31.543 28.6719 31.5796 28.6719 31.6244C28.6719 31.6722 28.6477 31.7232 28.6133 31.748C28.5811 31.7713 28.5547 31.8108 28.5547 31.8359C28.5547 31.861 28.5283 31.9006 28.4961 31.9238C28.4639 31.9471 28.4375 31.9839 28.4375 32.0056C28.4375 32.0566 28.3652 32.1289 28.3142 32.1289C28.2925 32.1289 28.2557 32.1553 28.2324 32.1875C28.2092 32.2197 28.1696 32.2461 28.1445 32.2461C28.1194 32.2461 28.0799 32.2725 28.0566 32.3047C28.0318 32.3391 27.9808 32.3633 27.933 32.3633C27.8882 32.3633 27.8516 32.3765 27.8516 32.3926C27.8516 32.4105 27.7148 32.4219 27.5 32.4219C27.2852 32.4219 27.1484 32.4105 27.1484 32.3926C27.1484 32.3765 27.1118 32.3633 27.067 32.3633C27.0192 32.3633 26.9682 32.3391 26.9434 32.3047C26.9201 32.2725 26.8806 32.2461 26.8555 32.2461C26.8304 32.2461 26.7908 32.2197 26.7676 32.1875C26.7443 32.1553 26.7075 32.1289 26.6858 32.1289C26.6348 32.1289 26.5625 32.0566 26.5625 32.0056C26.5625 31.9839 26.5361 31.9471 26.5039 31.9238C26.4717 31.9006 26.4453 31.861 26.4453 31.8359C26.4453 31.8108 26.4189 31.7713 26.3867 31.748C26.3523 31.7232 26.3281 31.6722 26.3281 31.6244C26.3281 31.5796 26.3149 31.543 26.2988 31.543C26.2809 31.543 26.2695 31.4062 26.2695 31.1914C26.2695 30.9766 26.2809 30.8398 26.2988 30.8398C26.3149 30.8398 26.3281 30.8032 26.3281 30.7584C26.3281 30.7106 26.3523 30.6596 26.3867 30.6348C26.4189 30.6115 26.4453 30.572 26.4453 30.5469C26.4453 30.5218 26.4717 30.4822 26.5039 30.459C26.5361 30.4358 26.5625 30.399 26.5625 30.3772C26.5625 30.3554 26.5813 30.3188 26.6044 30.2958C26.6274 30.2727 26.664 30.2539 26.6858 30.2539C26.7075 30.2539 26.7443 30.2275 26.7676 30.1953C26.7908 30.1631 26.8304 30.1367 26.8555 30.1367C26.8806 30.1367 26.9201 30.1104 26.9434 30.0781C26.9682 30.0437 27.0192 30.0195 27.067 30.0195C27.1118 30.0195 27.1484 30.0063 27.1484 29.9902C27.1484 29.9723 27.2852 29.9609 27.5 29.9609C27.7148 29.9609 27.8516 29.9723 27.8516 29.9902Z" fill="#DD2A1B"/>
</svg>
