<svg width="15" height="16" viewBox="0 0 15 16" fill="none" xmlns="http://www.w3.org/2000/svg">
<path d="M7.6515 15.303C12.0669 15.303 15 12.2036 15 7.82901C15 7.3281 14.948 6.94144 14.8755 6.5558H7.65252V9.18588H11.9955C11.818 10.303 10.6805 12.4842 7.65252 12.4842C5.04387 12.4842 2.91369 10.3234 2.91369 7.6515C2.91369 4.9796 5.04285 2.81779 7.65252 2.81779C9.14507 2.81779 10.1367 3.4544 10.7009 3.99714L12.778 2.00367C11.4405 0.751888 9.71842 0 7.6515 0C3.42379 0 0 3.42379 0 7.6515C0 11.8792 3.42379 15.303 7.6515 15.303Z" fill="white"/>
</svg>
