<svg width="16" height="16" viewBox="0 0 16 16" fill="none" xmlns="http://www.w3.org/2000/svg">
<path fill-rule="evenodd" clip-rule="evenodd" d="M11.964 0H4.03622C1.81049 0 0 1.81074 0 4.03621V11.964C0 14.1898 1.81049 16 4.03622 16H11.964C14.1898 16 16 14.1898 16 11.964V4.03621C16 1.81074 14.1898 0 11.964 0ZM14.259 11.964C14.259 13.2296 13.2293 14.2592 11.964 14.2592H4.03622C2.77093 14.2592 1.74129 13.2296 1.74129 11.964V4.03621C1.74129 2.77093 2.77093 1.74154 4.03622 1.74154H11.964C13.2293 1.74154 14.259 2.77093 14.259 4.03621V11.964ZM12.2532 4.7316C11.7155 4.7316 11.2779 4.29429 11.2779 3.75653C11.2779 3.21901 11.7155 2.78171 12.2532 2.78171C12.791 2.78171 13.2283 3.21901 13.2283 3.75653C13.2283 4.29429 12.791 4.7316 12.2532 4.7316ZM3.8793 7.99979C3.8793 5.72768 5.72799 3.87924 7.99985 3.87924C10.2722 3.87924 12.1209 5.72793 12.1209 7.99979C12.1209 10.2719 10.2722 12.1206 7.99985 12.1206C5.72799 12.1206 3.8793 10.2719 3.8793 7.99979ZM5.62033 7.99979C5.62033 9.31196 6.68842 10.3798 7.99985 10.3798C9.31201 10.3798 10.3794 9.31196 10.3794 7.99979C10.3794 6.68812 9.31201 5.62077 7.99985 5.62077C6.68842 5.62077 5.62033 6.68812 5.62033 7.99979Z" fill="white"/>
</svg>
