<svg width="12" height="17" viewBox="0 0 12 17" fill="none" xmlns="http://www.w3.org/2000/svg">
<path fill-rule="evenodd" clip-rule="evenodd" d="M1.7114 4.15378C1.7114 1.86298 3.6348 0 5.99993 0C8.36506 0 10.2885 1.86298 10.2885 4.15378C10.2885 6.44459 8.36506 8.30757 5.99993 8.30757C3.6348 8.30757 1.7114 6.44459 1.7114 4.15378ZM3.85566 4.15378C3.85566 5.29919 4.81737 6.23068 5.99993 6.23068C7.18249 6.23068 8.1442 5.29919 8.1442 4.15378C8.1442 3.00838 7.18249 2.07689 5.99993 2.07689C4.81737 2.07689 3.85566 3.00838 3.85566 4.15378ZM10.1705 8.19229C10.5897 7.78627 11.2673 7.78627 11.6865 8.19229C12.1047 8.59833 12.1047 9.25566 11.6855 9.6617C10.3517 10.9535 8.66096 11.6898 6.91768 11.8819L9.97434 14.8425C10.3935 15.2485 10.3935 15.9048 9.97434 16.3109C9.76527 16.5134 9.4908 16.6151 9.21634 16.6151C8.94187 16.6151 8.6674 16.5134 8.45834 16.3109L5.99993 13.9297L3.54153 16.3109C3.12232 16.7169 2.44473 16.7169 2.02553 16.3109C1.60633 15.9048 1.60633 15.2485 2.02553 14.8425L5.08218 11.8819C3.33889 11.6898 1.64813 10.9535 0.314403 9.6617C-0.104801 9.25463 -0.104801 8.59833 0.314403 8.19229C0.733606 7.78627 1.4112 7.78627 1.8304 8.19229C4.13013 10.4187 7.87187 10.4187 10.1705 8.19229Z" fill="white"/>
</svg>
