<svg width="18" height="12" viewBox="0 0 18 12" fill="none" xmlns="http://www.w3.org/2000/svg">
<path d="M15.4916 7.04327C16.0886 7.67719 16.7188 8.27362 17.2544 8.97146C17.4909 9.28157 17.7149 9.60158 17.8862 9.96147C18.129 10.4731 17.9091 11.0361 17.4873 11.0666L14.865 11.0653C14.1886 11.1263 13.6491 10.8303 13.1954 10.3274C12.8324 9.92526 12.4962 9.49727 12.1471 9.08156C12.0039 8.91165 11.8541 8.75177 11.6752 8.6254C11.3172 8.37272 11.0065 8.45009 10.8019 8.85608C10.5935 9.26903 10.5463 9.72628 10.5258 10.1865C10.4977 10.858 10.3111 11.0345 9.69083 11.0653C8.36525 11.1332 7.10722 10.9151 5.93854 10.188C4.9082 9.54692 4.10921 8.64193 3.41377 7.61738C2.05975 5.62237 1.02284 3.43018 0.0909061 1.17658C-0.118865 0.66884 0.0345452 0.396288 0.549718 0.386641C1.40519 0.368569 2.26053 0.369856 3.11701 0.385355C3.46469 0.390886 3.69487 0.607744 3.82912 0.96493C4.29195 2.20248 4.85828 3.37989 5.56915 4.47126C5.75846 4.76182 5.95149 5.05238 6.22638 5.25689C6.53048 5.48333 6.76201 5.40828 6.90507 5.0399C6.99585 4.80632 7.0356 4.55474 7.05606 4.30456C7.12384 3.44388 7.13277 2.58468 7.01389 1.72702C6.94091 1.19176 6.66366 0.845247 6.1725 0.743956C5.92186 0.692314 5.95918 0.590894 6.08054 0.435325C6.29131 0.167017 6.48955 0 6.88473 0H9.84832C10.3149 0.100133 10.4185 0.328053 10.4824 0.838558L10.4849 4.41833C10.4798 4.61596 10.5757 5.20242 10.903 5.33323C11.165 5.42635 11.3377 5.19843 11.4949 5.01778C12.2045 4.19884 12.7109 3.23101 13.1633 2.22884C13.3641 1.78818 13.5367 1.33054 13.704 0.873286C13.828 0.533979 14.0225 0.367026 14.374 0.374422L17.2263 0.377187C17.3108 0.377187 17.3964 0.378538 17.4783 0.39378C17.959 0.482851 18.0907 0.707684 17.9422 1.21806C17.7083 2.0188 17.2532 2.6861 16.8083 3.35648C16.3326 4.07221 15.8239 4.76343 15.3522 5.48339C14.9188 6.14085 14.9532 6.47225 15.4916 7.04327Z" fill="white"/>
</svg>
