<svg width="9" height="18" viewBox="0 0 9 18" fill="none" xmlns="http://www.w3.org/2000/svg">
<path d="M5.10234 1.52066H6.73669V9.6896H5.46526C4.73858 9.6896 4.03682 9.37723 3.58417 8.80875C3.11407 8.21819 2.70522 7.23586 2.70522 5.60519C2.70522 2.03336 4.75852 1.57205 5.04216 1.52541C5.06234 1.52197 5.08204 1.52066 5.10234 1.52066ZM8.69944 0C8.69944 0 6.6929 0 5.31786 0C3.16546 0 0.601238 2.26325 0.601238 5.94105C0.601238 9.61886 3.81927 11.1042 3.81927 11.1042L0 18H2.40472L5.44604 11.281H6.78986V18H8.69944V0Z" fill="white"/>
</svg>
