<svg width="22" height="16" viewBox="0 0 22 16" fill="none" xmlns="http://www.w3.org/2000/svg">
<path d="M21.5467 2.41904C21.2932 1.47312 20.5501 0.727463 19.6078 0.472756C17.8862 0 10.9998 0 10.9998 0C10.9998 0 4.11359 0 2.39202 0.454833C1.46779 0.709269 0.706569 1.47325 0.453053 2.41904C0 4.14673 0 7.72973 0 7.72973C0 7.72973 0 11.3308 0.453053 13.0404C0.706837 13.9862 1.44966 14.7319 2.39216 14.9866C4.13172 15.4595 11 15.4595 11 15.4595C11 15.4595 17.8862 15.4595 19.6078 15.0046C20.5502 14.7501 21.2932 14.0044 21.547 13.0586C21.9999 11.3308 21.9999 7.74792 21.9999 7.74792C21.9999 7.74792 22.018 4.14673 21.5467 2.41904ZM8.80727 11.0398V4.41963L14.5337 7.72973L8.80727 11.0398Z" fill="white"/>
</svg>
