<svg width="50" height="50" viewBox="0 0 50 50" fill="none" xmlns="http://www.w3.org/2000/svg">
<path fill-rule="evenodd" clip-rule="evenodd" d="M43.1796 25.3713C43.1796 28.326 42.6341 30.8822 41.4769 33.2959C43.7586 34.2922 44.9156 37.1638 43.5572 39.5853L40.8479 44.4027C40.6449 44.7638 40.2664 44.9908 39.8523 44.9998C39.8438 44.9999 39.8352 45 39.8267 45C39.4223 45 39.0456 44.7911 38.8316 44.4466L36.1451 40.122C34.7128 41.2984 33.1287 42.2446 31.4173 42.9416C24.6106 45.7115 16.2808 44.3081 10.8263 38.7725C7.24675 35.1929 5.27539 30.4336 5.27539 25.3713C5.27539 21.5032 6.16407 18.3253 8.06131 15.44L6.13774 12.3437C4.25347 9.26194 6.35558 5.02382 10.2582 5C12.5734 5 14.5124 6.63817 14.9791 8.81612C17.8823 7.13093 20.6971 6.41916 24.2275 6.41916C29.2898 6.41916 34.0491 8.39053 37.6287 11.9701C41.2082 15.5497 43.1796 20.309 43.1796 25.3713ZM12.7436 9.82859C12.7436 8.45809 11.6287 7.34314 10.2582 7.34314C8.88781 7.34314 7.77287 8.45809 7.77279 9.82859C7.71441 10.6223 8.75244 12.1938 9.55731 13.4123C9.90779 13.9429 10.2141 14.4066 10.3663 14.71C10.4848 14.4445 10.7584 13.9849 11.0796 13.4452L11.0796 13.4452L11.0797 13.4451L11.0797 13.4451L11.0797 13.4451C11.8223 12.1975 12.8196 10.5221 12.7436 9.82859ZM7.61853 25.3713C7.61853 34.5294 15.0693 41.9802 24.2275 41.9802C28.4287 41.9802 32.2253 40.5376 35.2482 37.803C35.2346 37.6612 35.2276 37.5185 35.2276 37.3755C35.2276 35.146 36.8731 33.2937 39.0134 32.9691C40.2549 30.6734 40.8364 28.2422 40.8364 25.3713C40.8364 16.2131 33.3856 8.7623 24.2274 8.7623C20.5085 8.7623 17.7997 9.61591 14.6686 11.7921C14.5696 12.0043 14.528 12.0822 14.4868 12.1596L14.4867 12.1597L14.4867 12.1597L14.4867 12.1597C14.4758 12.1801 14.465 12.2005 14.4531 12.2233L11.4375 17.5853C11.2345 17.9464 10.856 18.1734 10.4419 18.1824C10.4333 18.1825 10.4248 18.1826 10.4162 18.1826C10.027 18.1826 9.66409 17.9888 9.4465 17.6672C8.19034 19.9167 7.61853 22.3606 7.61853 25.3713ZM40.3361 40.5329L40.3371 40.5312C40.8337 39.6497 41.4849 38.4938 41.5183 38.4267C42.333 37.0111 41.2391 35.2429 39.6847 35.2616C38.5192 35.2616 37.5708 36.2099 37.5708 37.3755C37.5462 38.0988 38.395 39.3772 39.0691 40.3925C39.372 40.8486 39.6396 41.2516 39.7768 41.5273C39.7959 41.4917 40.0381 41.0619 40.3361 40.5329ZM24.3158 12.6357C31.2983 12.6835 36.9643 18.3778 36.9643 25.3713C36.9643 32.394 31.2512 38.1074 24.2286 38.1081C24.2283 38.1081 24.2279 38.1081 24.2275 38.1082C24.2271 38.1082 24.2268 38.1083 24.2264 38.1083C24.226 38.1083 24.2256 38.1083 24.2252 38.1082L24.224 38.1082L24.2237 38.1081C24.2229 38.1081 24.222 38.108 24.2212 38.108C17.2011 38.1046 11.4907 32.3923 11.4907 25.3713C11.4907 18.3482 17.2045 12.6346 24.2275 12.6346C24.2693 12.6352 24.2865 12.6353 24.2966 12.6354H24.2966C24.3045 12.6354 24.3082 12.6355 24.3158 12.6357ZM29.5646 24.1997H34.5548C34.0821 20.0055 31.1037 16.5596 27.1562 15.3984C28.2551 17.1814 29.3864 20.0052 29.5646 24.1997ZM23.1753 33.8316C23.5616 34.5051 23.9445 35.0031 24.2509 35.3488C24.5802 34.9754 24.9968 34.4273 25.4112 33.6764C26.1651 32.3102 27.049 30.0041 27.2173 26.5428H21.289C21.4572 30.1092 22.3849 32.4536 23.1753 33.8316ZM23.0971 17.0662C22.3432 18.4323 21.4592 20.7384 21.291 24.1996H27.2194C27.0512 20.6333 26.1234 18.2888 25.3331 16.9109C24.9468 16.2374 24.5638 15.7395 24.2575 15.3937C23.9281 15.7671 23.5115 16.3152 23.0971 17.0662ZM18.945 24.1997C19.1287 19.9916 20.2717 17.1593 21.3743 15.3759C17.3893 16.5151 14.3761 19.9788 13.9003 24.1997H18.945ZM18.9438 26.5428H13.9003C14.3756 30.7601 17.3841 34.2213 21.364 35.3636C20.2614 33.5817 19.1226 30.7524 18.9438 26.5428ZM29.5634 26.5428C29.3803 30.736 28.2448 33.5628 27.1458 35.3473C31.0985 34.189 34.0817 30.7406 34.5548 26.5428H29.5634ZM10.4389 10.9518C11.0593 10.8512 11.4807 10.2667 11.3802 9.64631C11.2796 9.0259 10.6951 8.60449 10.0747 8.70507C9.45432 8.80564 9.03291 9.39011 9.13348 10.0105C9.23405 10.6309 9.81852 11.0523 10.4389 10.9518ZM40.4821 36.633C40.9265 37.0774 40.9265 37.7979 40.4821 38.2424C40.0377 38.6868 39.3172 38.6868 38.8728 38.2424C38.4284 37.7979 38.4284 37.0774 38.8728 36.633C39.3172 36.1886 40.0377 36.1886 40.4821 36.633Z" fill="#DD2A1B"/>
</svg>
