<svg width="40" height="32" viewBox="0 0 40 32" fill="none" xmlns="http://www.w3.org/2000/svg">
<path fill-rule="evenodd" clip-rule="evenodd" d="M30.6394 18.0526C29.7308 18.0526 28.7968 17.9162 27.8628 17.6473C25.5859 16.9921 23.7023 15.5119 22.5587 13.4812C21.4027 11.4274 21.1159 9.04738 21.7504 6.77798C22.8125 2.98184 26.3039 0.330159 30.2412 0.330159C30.254 0.330159 30.2664 0.330536 30.2792 0.330924C33.4703 0.455432 35.951 1.70175 37.6508 4.0356C40.6883 8.20645 40.3267 14.8329 39.0936 19.2404C36.9928 26.7531 32.0145 32 26.9877 32C26.6754 32 26.3604 31.9785 26.0513 31.9364C25.7669 31.8974 25.5131 31.7371 25.3551 31.4968C25.1972 31.2565 25.1515 30.9602 25.2286 30.6833L26.144 27.4095C26.2498 27.032 26.5676 26.7515 26.9554 26.6938C31.1434 26.0713 33.2457 20.5432 34.1208 17.3394C33.213 17.732 32.0424 18.0526 30.6394 18.0526ZM6.44241 17.6473C4.16547 16.9921 2.28194 15.5119 1.1383 13.4808C-0.017274 11.4274 -0.304474 9.04699 0.329202 6.77758C1.3913 2.98145 4.88308 0.329766 8.81999 0.329766C8.83314 0.329766 8.84554 0.330143 8.85828 0.330527L8.85937 0.330561C12.05 0.454672 14.5302 1.70136 16.2296 4.03481C19.2675 8.20645 18.9059 14.8329 17.6732 19.2404C15.572 26.7531 10.5937 32 5.56688 32C5.25422 32 4.93917 31.9785 4.63049 31.9364C4.34567 31.8974 4.09188 31.7371 3.93436 31.4968C3.77644 31.2565 3.73069 30.9602 3.80786 30.6833L4.72317 27.4095C4.82938 27.032 5.14682 26.7515 5.53466 26.6939C9.72297 26.0713 11.8253 20.5432 12.7004 17.3394C11.7927 17.732 10.6216 18.0526 9.21858 18.0526C8.31043 18.0526 7.37642 17.9162 6.44241 17.6473Z" fill="#DD2A1B"/>
</svg>
