<svg width="40" height="40" viewBox="0 0 40 40" fill="none" xmlns="http://www.w3.org/2000/svg">
<path fill-rule="evenodd" clip-rule="evenodd" d="M19.1953 6.02734C19.1953 6.04329 19.1042 6.05469 18.9766 6.05469C18.8489 6.05469 18.7578 6.06609 18.7578 6.08203C18.7578 6.09707 18.6963 6.10938 18.6211 6.10938C18.5459 6.10938 18.4844 6.12168 18.4844 6.13672C18.4844 6.15176 18.4352 6.16406 18.375 6.16406C18.3148 6.16406 18.2656 6.17637 18.2656 6.19141C18.2656 6.20645 18.2287 6.21875 18.1836 6.21875C18.1385 6.21875 18.1016 6.23105 18.1016 6.24609C18.1016 6.26113 18.0646 6.27344 18.0195 6.27344C17.9744 6.27344 17.9375 6.28574 17.9375 6.30078C17.9375 6.31582 17.9006 6.32812 17.8555 6.32812C17.8104 6.32812 17.7734 6.34043 17.7734 6.35547C17.7734 6.37051 17.7365 6.38281 17.6914 6.38281C17.6463 6.38281 17.6094 6.39512 17.6094 6.41016C17.6094 6.4252 17.5848 6.4375 17.5547 6.4375C17.5246 6.4375 17.5 6.4498 17.5 6.46484C17.5 6.47988 17.4631 6.49219 17.418 6.49219C17.3729 6.49219 17.3359 6.50449 17.3359 6.51953C17.3359 6.53457 17.3113 6.54688 17.2812 6.54688C17.2512 6.54688 17.2266 6.55918 17.2266 6.57422C17.2266 6.58926 17.202 6.60156 17.1719 6.60156C17.1418 6.60156 17.1172 6.61387 17.1172 6.62891C17.1172 6.64395 17.0953 6.65625 17.0685 6.65625C17.0418 6.65625 17.0022 6.68086 16.9805 6.71094C16.9588 6.74102 16.9192 6.76562 16.8924 6.76562C16.8657 6.76562 16.8438 6.77793 16.8438 6.79297C16.8438 6.80801 16.8218 6.82031 16.7951 6.82031C16.7683 6.82031 16.7287 6.84492 16.707 6.875C16.6853 6.90508 16.6484 6.92969 16.625 6.92969C16.6016 6.92969 16.5647 6.9543 16.543 6.98438C16.5213 7.01445 16.4844 7.03906 16.4609 7.03906C16.4375 7.03906 16.4006 7.06367 16.3789 7.09375C16.3572 7.12383 16.323 7.14844 16.3027 7.14844C16.2825 7.14844 16.2061 7.20996 16.1328 7.28516C16.0596 7.36035 15.9864 7.42188 15.9702 7.42188C15.9317 7.42188 15.4219 7.93173 15.4219 7.97017C15.4219 7.98639 15.3604 8.05956 15.2852 8.13281C15.21 8.20607 15.1484 8.28252 15.1484 8.30273C15.1484 8.32296 15.1238 8.35722 15.0938 8.37891C15.0637 8.40059 15.0391 8.4375 15.0391 8.46094C15.0391 8.48437 15.0145 8.52129 14.9844 8.54297C14.9543 8.56465 14.9297 8.60157 14.9297 8.625C14.9297 8.64843 14.9051 8.68535 14.875 8.70703C14.8449 8.72871 14.8203 8.76834 14.8203 8.79511C14.8203 8.82185 14.808 8.84375 14.793 8.84375C14.7779 8.84375 14.7656 8.86565 14.7656 8.89239C14.7656 8.91916 14.741 8.95879 14.7109 8.98047C14.6809 9.00215 14.6562 9.04177 14.6562 9.06854C14.6562 9.09529 14.6439 9.11719 14.6289 9.11719C14.6139 9.11719 14.6016 9.1418 14.6016 9.17188C14.6016 9.20195 14.5893 9.22656 14.5742 9.22656C14.5592 9.22656 14.5469 9.25117 14.5469 9.28125C14.5469 9.31133 14.5346 9.33594 14.5195 9.33594C14.5045 9.33594 14.4922 9.37285 14.4922 9.41797C14.4922 9.46309 14.4799 9.5 14.4648 9.5C14.4498 9.5 14.4375 9.52461 14.4375 9.55469C14.4375 9.58477 14.4252 9.60938 14.4102 9.60938C14.3951 9.60938 14.3828 9.64629 14.3828 9.69141C14.3828 9.73652 14.3705 9.77344 14.3555 9.77344C14.3404 9.77344 14.3281 9.79805 14.3281 9.82812C14.3281 9.8582 14.3158 9.88281 14.3008 9.88281C14.2857 9.88281 14.2734 9.93203 14.2734 9.99219C14.2734 10.0523 14.2611 10.1016 14.2461 10.1016C14.2311 10.1016 14.2188 10.1385 14.2188 10.1836C14.2188 10.2287 14.2064 10.2656 14.1914 10.2656C14.1764 10.2656 14.1641 10.3148 14.1641 10.375C14.1641 10.4352 14.1518 10.4844 14.1367 10.4844C14.1217 10.4844 14.1094 10.5459 14.1094 10.6211C14.1094 10.6963 14.0971 10.7578 14.082 10.7578C14.0664 10.7578 14.0547 10.8398 14.0547 10.9492C14.0547 11.0586 14.043 11.1406 14.0273 11.1406C14.0093 11.1406 14 12.1159 14 14.0117C14 15.9075 14.0093 16.8828 14.0273 16.8828C14.0424 16.8828 14.0547 16.9074 14.0547 16.9375C14.0547 16.9676 14.067 16.9922 14.082 16.9922C14.0971 16.9922 14.1094 17.0168 14.1094 17.0469C14.1094 17.077 14.1217 17.1016 14.1367 17.1016C14.1518 17.1016 14.1641 17.1206 14.1641 17.1438C14.1641 17.1671 14.1943 17.2163 14.2312 17.2532C14.2681 17.2901 14.3173 17.3203 14.3406 17.3203C14.3638 17.3203 14.3828 17.3326 14.3828 17.3477C14.3828 17.3627 14.4074 17.375 14.4375 17.375C14.4676 17.375 14.4922 17.3873 14.4922 17.4023C14.4922 17.4174 14.5168 17.4297 14.5469 17.4297C14.577 17.4297 14.6016 17.442 14.6016 17.457C14.6016 17.4743 14.793 17.4844 15.1211 17.4844H15.6406V25.4414C15.6406 30.7279 15.6498 33.3984 15.668 33.3984C15.683 33.3984 15.6953 33.423 15.6953 33.4531C15.6953 33.4832 15.7076 33.5078 15.7227 33.5078C15.7377 33.5078 15.75 33.5324 15.75 33.5625C15.75 33.5926 15.7623 33.6172 15.7773 33.6172C15.7924 33.6172 15.8047 33.6362 15.8047 33.6594C15.8047 33.7141 15.9265 33.8359 15.9812 33.8359C16.0044 33.8359 16.0234 33.8482 16.0234 33.8633C16.0234 33.8783 16.048 33.8906 16.0781 33.8906C16.1082 33.8906 16.1328 33.9029 16.1328 33.918C16.1328 33.933 16.1574 33.9453 16.1875 33.9453C16.2176 33.9453 16.2422 33.9576 16.2422 33.9727C16.2422 33.9906 16.8802 34 18.1016 34C19.3229 34 19.9609 33.9906 19.9609 33.9727C19.9609 33.9576 19.9855 33.9453 20.0156 33.9453C20.0457 33.9453 20.0703 33.933 20.0703 33.918C20.0703 33.9029 20.0949 33.8906 20.125 33.8906C20.1551 33.8906 20.1797 33.8783 20.1797 33.8633C20.1797 33.8482 20.1987 33.8359 20.2219 33.8359C20.2766 33.8359 20.3984 33.7141 20.3984 33.6594C20.3984 33.6362 20.4107 33.6172 20.4258 33.6172C20.4408 33.6172 20.4531 33.5926 20.4531 33.5625C20.4531 33.5324 20.4654 33.5078 20.4805 33.5078C20.4955 33.5078 20.5078 33.4832 20.5078 33.4531C20.5078 33.423 20.5201 33.3984 20.5352 33.3984C20.5516 33.3984 20.5625 33.2891 20.5625 33.125C20.5625 32.9609 20.5734 32.8516 20.5898 32.8516C20.6049 32.8516 20.6172 32.79 20.6172 32.7148C20.6172 32.6396 20.6295 32.5781 20.6445 32.5781C20.6596 32.5781 20.6719 32.5289 20.6719 32.4688C20.6719 32.4086 20.6842 32.3594 20.6992 32.3594C20.7143 32.3594 20.7266 32.3348 20.7266 32.3047C20.7266 32.2746 20.7389 32.25 20.7539 32.25C20.7689 32.25 20.7812 32.2131 20.7812 32.168C20.7812 32.1229 20.7936 32.0859 20.8086 32.0859C20.8236 32.0859 20.8359 32.064 20.8359 32.0373C20.8359 32.0105 20.8605 31.9709 20.8906 31.9492C20.9207 31.9275 20.9453 31.8906 20.9453 31.8672C20.9453 31.8438 20.9699 31.8068 21 31.7852C21.0301 31.7635 21.0547 31.7298 21.0547 31.7104C21.0547 31.6642 21.508 31.2109 21.5541 31.2109C21.5736 31.2109 21.6072 31.1863 21.6289 31.1562C21.6506 31.1262 21.6875 31.1016 21.7109 31.1016C21.7344 31.1016 21.7713 31.077 21.793 31.0469C21.8161 31.0148 21.8638 30.9922 21.9084 30.9922C21.9502 30.9922 21.9844 30.9799 21.9844 30.9648C21.9844 30.9498 22.009 30.9375 22.0391 30.9375C22.0691 30.9375 22.0938 30.9252 22.0938 30.9102C22.0938 30.8951 22.1184 30.8828 22.1484 30.8828C22.1785 30.8828 22.2031 30.8705 22.2031 30.8555C22.2031 30.8404 22.2523 30.8281 22.3125 30.8281C22.3727 30.8281 22.4219 30.8158 22.4219 30.8008C22.4219 30.7857 22.4834 30.7734 22.5586 30.7734C22.6338 30.7734 22.6953 30.7611 22.6953 30.7461C22.6953 30.7297 22.8047 30.7188 22.9688 30.7188C23.1328 30.7188 23.2422 30.7078 23.2422 30.6914C23.2422 30.6764 23.2668 30.6641 23.2969 30.6641C23.327 30.6641 23.3516 30.6518 23.3516 30.6367C23.3516 30.6217 23.3762 30.6094 23.4062 30.6094C23.4363 30.6094 23.4609 30.5971 23.4609 30.582C23.4609 30.567 23.4799 30.5547 23.5032 30.5547C23.5579 30.5547 23.6797 30.4329 23.6797 30.3782C23.6797 30.3549 23.692 30.3359 23.707 30.3359C23.7221 30.3359 23.7344 30.3113 23.7344 30.2812C23.7344 30.2512 23.7467 30.2266 23.7617 30.2266C23.7768 30.2266 23.7891 30.202 23.7891 30.1719C23.7891 30.1418 23.8014 30.1172 23.8164 30.1172C23.8346 30.1172 23.8438 27.9935 23.8438 23.8008V17.4844H24.3633C24.6914 17.4844 24.8828 17.4743 24.8828 17.457C24.8828 17.442 24.9074 17.4297 24.9375 17.4297C24.9676 17.4297 24.9922 17.4174 24.9922 17.4023C24.9922 17.3873 25.0168 17.375 25.0469 17.375C25.077 17.375 25.1016 17.3627 25.1016 17.3477C25.1016 17.3326 25.1206 17.3203 25.1438 17.3203C25.1985 17.3203 25.3203 17.1985 25.3203 17.1438C25.3203 17.1206 25.3326 17.1016 25.3477 17.1016C25.3627 17.1016 25.375 17.077 25.375 17.0469C25.375 17.0168 25.3873 16.9922 25.4023 16.9922C25.4174 16.9922 25.4297 16.9676 25.4297 16.9375C25.4297 16.9074 25.442 16.8828 25.457 16.8828C25.4751 16.8828 25.4844 15.9167 25.4844 14.0391C25.4844 12.1614 25.4751 11.1953 25.457 11.1953C25.4411 11.1953 25.4297 11.1042 25.4297 10.9766C25.4297 10.8489 25.4183 10.7578 25.4023 10.7578C25.3873 10.7578 25.375 10.6963 25.375 10.6211C25.375 10.5459 25.3627 10.4844 25.3477 10.4844C25.3326 10.4844 25.3203 10.4352 25.3203 10.375C25.3203 10.3148 25.308 10.2656 25.293 10.2656C25.2779 10.2656 25.2656 10.2287 25.2656 10.1836C25.2656 10.1385 25.2533 10.1016 25.2383 10.1016C25.2232 10.1016 25.2109 10.0523 25.2109 9.99219C25.2109 9.93203 25.1986 9.88281 25.1836 9.88281C25.1686 9.88281 25.1562 9.8582 25.1562 9.82812C25.1562 9.79805 25.1439 9.77344 25.1289 9.77344C25.1139 9.77344 25.1016 9.73652 25.1016 9.69141C25.1016 9.64629 25.0893 9.60938 25.0742 9.60938C25.0592 9.60938 25.0469 9.58477 25.0469 9.55469C25.0469 9.52461 25.0346 9.5 25.0195 9.5C25.0045 9.5 24.9922 9.46309 24.9922 9.41797C24.9922 9.37285 24.9799 9.33594 24.9648 9.33594C24.9498 9.33594 24.9375 9.31133 24.9375 9.28125C24.9375 9.25117 24.9252 9.22656 24.9102 9.22656C24.8951 9.22656 24.8828 9.20195 24.8828 9.17188C24.8828 9.1418 24.8705 9.11719 24.8555 9.11719C24.8404 9.11719 24.8281 9.09529 24.8281 9.06854C24.8281 9.04177 24.8035 9.00215 24.7734 8.98047C24.7434 8.95879 24.7188 8.91916 24.7188 8.89239C24.7188 8.86565 24.7064 8.84375 24.6914 8.84375C24.6764 8.84375 24.6641 8.82185 24.6641 8.79511C24.6641 8.76834 24.6395 8.72871 24.6094 8.70703C24.5793 8.68535 24.5547 8.64843 24.5547 8.625C24.5547 8.60157 24.5301 8.56465 24.5 8.54297C24.4699 8.52129 24.4453 8.48437 24.4453 8.46094C24.4453 8.4375 24.4207 8.40059 24.3906 8.37891C24.3605 8.35722 24.3359 8.32296 24.3359 8.30273C24.3359 8.28252 24.2744 8.20607 24.1992 8.13281C24.124 8.05956 24.0625 7.98639 24.0625 7.9702C24.0625 7.93156 23.4978 7.36719 23.4591 7.36719C23.4427 7.36719 23.382 7.31797 23.3242 7.25781C23.2664 7.19766 23.2046 7.14844 23.187 7.14844C23.1692 7.14844 23.1203 7.11152 23.0781 7.06641C23.036 7.02129 22.9818 6.98438 22.9578 6.98438C22.9337 6.98438 22.9141 6.97207 22.9141 6.95703C22.9141 6.94199 22.8922 6.92969 22.8654 6.92969C22.8386 6.92969 22.799 6.90508 22.7773 6.875C22.7557 6.84492 22.7187 6.82031 22.6953 6.82031C22.6719 6.82031 22.635 6.7957 22.6133 6.76562C22.5916 6.73555 22.552 6.71094 22.5252 6.71094C22.4985 6.71094 22.4766 6.69863 22.4766 6.68359C22.4766 6.66855 22.452 6.65625 22.4219 6.65625C22.3918 6.65625 22.3672 6.64395 22.3672 6.62891C22.3672 6.61387 22.3426 6.60156 22.3125 6.60156C22.2824 6.60156 22.2578 6.58926 22.2578 6.57422C22.2578 6.55918 22.2332 6.54688 22.2031 6.54688C22.173 6.54688 22.1484 6.53457 22.1484 6.51953C22.1484 6.50449 22.1115 6.49219 22.0664 6.49219C22.0213 6.49219 21.9844 6.47988 21.9844 6.46484C21.9844 6.4498 21.9598 6.4375 21.9297 6.4375C21.8996 6.4375 21.875 6.4252 21.875 6.41016C21.875 6.39512 21.8381 6.38281 21.793 6.38281C21.7479 6.38281 21.7109 6.37051 21.7109 6.35547C21.7109 6.34043 21.6863 6.32812 21.6562 6.32812C21.6262 6.32812 21.6016 6.31582 21.6016 6.30078C21.6016 6.28574 21.5523 6.27344 21.4922 6.27344C21.432 6.27344 21.3828 6.26113 21.3828 6.24609C21.3828 6.23105 21.3459 6.21875 21.3008 6.21875C21.2557 6.21875 21.2188 6.20645 21.2188 6.19141C21.2188 6.17637 21.1695 6.16406 21.1094 6.16406C21.0492 6.16406 21 6.15176 21 6.13672C21 6.12168 20.9385 6.10938 20.8633 6.10938C20.7881 6.10938 20.7266 6.09707 20.7266 6.08203C20.7266 6.06609 20.6354 6.05469 20.5078 6.05469C20.3802 6.05469 20.2891 6.04329 20.2891 6.02734C20.2891 6.01004 20.0886 6 19.7422 6C19.3958 6 19.1953 6.01004 19.1953 6.02734ZM20.2344 7.66797C20.2344 7.68317 20.3073 7.69531 20.3984 7.69531C20.4896 7.69531 20.5625 7.70745 20.5625 7.72266C20.5625 7.7377 20.6117 7.75 20.6719 7.75C20.732 7.75 20.7812 7.7623 20.7812 7.77734C20.7812 7.79238 20.8305 7.80469 20.8906 7.80469C20.9508 7.80469 21 7.81699 21 7.83203C21 7.84707 21.0369 7.85938 21.082 7.85938C21.1271 7.85938 21.1641 7.87168 21.1641 7.88672C21.1641 7.90176 21.1887 7.91406 21.2188 7.91406C21.2488 7.91406 21.2734 7.92637 21.2734 7.94141C21.2734 7.95645 21.3104 7.96875 21.3555 7.96875C21.4006 7.96875 21.4375 7.98105 21.4375 7.99609C21.4375 8.01113 21.4621 8.02344 21.4922 8.02344C21.5223 8.02344 21.5469 8.03574 21.5469 8.05078C21.5469 8.06582 21.5688 8.07812 21.5955 8.07812C21.6223 8.07812 21.6619 8.10273 21.6836 8.13281C21.7053 8.16289 21.7449 8.1875 21.7717 8.1875C21.7984 8.1875 21.8203 8.1998 21.8203 8.21484C21.8203 8.22988 21.8422 8.24219 21.869 8.24219C21.8957 8.24219 21.9353 8.2668 21.957 8.29688C21.9787 8.32695 22.0156 8.35156 22.0391 8.35156C22.0625 8.35156 22.0994 8.37617 22.1211 8.40625C22.1428 8.43633 22.1769 8.46094 22.197 8.46094C22.2171 8.46094 22.306 8.53477 22.3945 8.625C22.4831 8.71523 22.5747 8.78906 22.5981 8.78906C22.6215 8.78906 22.6406 8.80812 22.6406 8.83139C22.6406 8.85469 22.7268 8.95868 22.832 9.0625C22.9373 9.16632 23.0234 9.26761 23.0234 9.28757C23.0234 9.30753 23.048 9.3416 23.0781 9.36328C23.1082 9.38496 23.1328 9.42188 23.1328 9.44531C23.1328 9.46875 23.1574 9.50566 23.1875 9.52734C23.2176 9.54903 23.2422 9.58865 23.2422 9.61542C23.2422 9.64216 23.2545 9.66406 23.2695 9.66406C23.2846 9.66406 23.2969 9.68597 23.2969 9.71271C23.2969 9.73948 23.3215 9.7791 23.3516 9.80078C23.3816 9.82246 23.4062 9.86209 23.4062 9.88886C23.4062 9.9156 23.4186 9.9375 23.4336 9.9375C23.4486 9.9375 23.4609 9.97441 23.4609 10.0195C23.4609 10.0646 23.4732 10.1016 23.4883 10.1016C23.5033 10.1016 23.5156 10.1262 23.5156 10.1562C23.5156 10.1863 23.5279 10.2109 23.543 10.2109C23.558 10.2109 23.5703 10.2355 23.5703 10.2656C23.5703 10.2957 23.5826 10.3203 23.5977 10.3203C23.6127 10.3203 23.625 10.3572 23.625 10.4023C23.625 10.4475 23.6373 10.4844 23.6523 10.4844C23.6674 10.4844 23.6797 10.5336 23.6797 10.5938C23.6797 10.6539 23.692 10.7031 23.707 10.7031C23.7221 10.7031 23.7344 10.7523 23.7344 10.8125C23.7344 10.8727 23.7467 10.9219 23.7617 10.9219C23.7773 10.9219 23.7891 11.0039 23.7891 11.1133C23.7891 11.2227 23.8008 11.3047 23.8164 11.3047C23.8344 11.3047 23.8438 12.0794 23.8438 13.5742V15.8438H19.7422H15.6406V13.5469C15.6406 12.0339 15.6499 11.25 15.668 11.25C15.6832 11.25 15.6953 11.1771 15.6953 11.0859C15.6953 10.9948 15.7075 10.9219 15.7227 10.9219C15.7377 10.9219 15.75 10.8727 15.75 10.8125C15.75 10.7523 15.7623 10.7031 15.7773 10.7031C15.7924 10.7031 15.8047 10.6539 15.8047 10.5938C15.8047 10.5336 15.817 10.4844 15.832 10.4844C15.8471 10.4844 15.8594 10.4475 15.8594 10.4023C15.8594 10.3572 15.8717 10.3203 15.8867 10.3203C15.9018 10.3203 15.9141 10.2957 15.9141 10.2656C15.9141 10.2355 15.9264 10.2109 15.9414 10.2109C15.9564 10.2109 15.9688 10.174 15.9688 10.1289C15.9688 10.0838 15.9811 10.0469 15.9961 10.0469C16.0111 10.0469 16.0234 10.0223 16.0234 9.99219C16.0234 9.96211 16.0357 9.9375 16.0508 9.9375C16.0658 9.9375 16.0781 9.91289 16.0781 9.88281C16.0781 9.85273 16.0904 9.82812 16.1055 9.82812C16.1205 9.82812 16.1328 9.80622 16.1328 9.77948C16.1328 9.75271 16.1574 9.71309 16.1875 9.69141C16.2176 9.66972 16.2422 9.63281 16.2422 9.60938C16.2422 9.58594 16.2668 9.54903 16.2969 9.52734C16.327 9.50566 16.3516 9.46875 16.3516 9.44531C16.3516 9.42188 16.3762 9.38496 16.4062 9.36328C16.4363 9.3416 16.4609 9.30745 16.4609 9.28737C16.4609 9.2673 16.5348 9.17841 16.625 9.08984C16.7152 9.00128 16.7891 8.90968 16.7891 8.88627C16.7891 8.86289 16.8081 8.84375 16.8314 8.84375C16.8547 8.84375 16.9587 8.75762 17.0625 8.65234C17.1663 8.54707 17.2676 8.46094 17.2876 8.46094C17.3075 8.46094 17.3416 8.43633 17.3633 8.40625C17.385 8.37617 17.4219 8.35156 17.4453 8.35156C17.4687 8.35156 17.5057 8.32695 17.5273 8.29688C17.549 8.2668 17.5859 8.24219 17.6094 8.24219C17.6328 8.24219 17.6697 8.21758 17.6914 8.1875C17.7131 8.15742 17.7527 8.13281 17.7795 8.13281C17.8062 8.13281 17.8281 8.12051 17.8281 8.10547C17.8281 8.09043 17.8527 8.07812 17.8828 8.07812C17.9129 8.07812 17.9375 8.06582 17.9375 8.05078C17.9375 8.03574 17.9744 8.02344 18.0195 8.02344C18.0646 8.02344 18.1016 8.01113 18.1016 7.99609C18.1016 7.98105 18.1262 7.96875 18.1562 7.96875C18.1863 7.96875 18.2109 7.95645 18.2109 7.94141C18.2109 7.92637 18.2355 7.91406 18.2656 7.91406C18.2957 7.91406 18.3203 7.90176 18.3203 7.88672C18.3203 7.87168 18.3572 7.85938 18.4023 7.85938C18.4475 7.85938 18.4844 7.84707 18.4844 7.83203C18.4844 7.81699 18.5336 7.80469 18.5938 7.80469C18.6539 7.80469 18.7031 7.79238 18.7031 7.77734C18.7031 7.7623 18.7523 7.75 18.8125 7.75C18.8727 7.75 18.9219 7.7377 18.9219 7.72266C18.9219 7.70745 18.9948 7.69531 19.0859 7.69531C19.1771 7.69531 19.25 7.68317 19.25 7.66797C19.25 7.65074 19.4323 7.64062 19.7422 7.64062C20.0521 7.64062 20.2344 7.65074 20.2344 7.66797ZM19.4141 9.30859C19.4141 9.32363 19.3525 9.33594 19.2773 9.33594C19.2021 9.33594 19.1406 9.34824 19.1406 9.36328C19.1406 9.37832 19.0914 9.39062 19.0312 9.39062C18.9711 9.39062 18.9219 9.40293 18.9219 9.41797C18.9219 9.43301 18.8973 9.44531 18.8672 9.44531C18.8371 9.44531 18.8125 9.45762 18.8125 9.47266C18.8125 9.4877 18.7879 9.5 18.7578 9.5C18.7277 9.5 18.7031 9.5123 18.7031 9.52734C18.7031 9.54238 18.6689 9.55469 18.6271 9.55469C18.5825 9.55469 18.5349 9.57727 18.5117 9.60938C18.49 9.63945 18.4531 9.66406 18.4297 9.66406C18.4063 9.66406 18.3693 9.68867 18.3477 9.71875C18.326 9.74883 18.2923 9.77344 18.2729 9.77344C18.2267 9.77344 17.7734 10.2267 17.7734 10.2729C17.7734 10.2923 17.7488 10.326 17.7188 10.3477C17.6887 10.3693 17.6641 10.4063 17.6641 10.4297C17.6641 10.4531 17.6395 10.49 17.6094 10.5117C17.5793 10.5334 17.5547 10.573 17.5547 10.5998C17.5547 10.6265 17.5424 10.6484 17.5273 10.6484C17.5123 10.6484 17.5 10.6854 17.5 10.7305C17.5 10.7756 17.4877 10.8125 17.4727 10.8125C17.4576 10.8125 17.4453 10.8371 17.4453 10.8672C17.4453 10.8973 17.433 10.9219 17.418 10.9219C17.4029 10.9219 17.3906 10.9711 17.3906 11.0312C17.3906 11.0914 17.3783 11.1406 17.3633 11.1406C17.3482 11.1406 17.3359 11.2021 17.3359 11.2773C17.3359 11.3525 17.3236 11.4141 17.3086 11.4141C17.2908 11.4141 17.2812 11.7969 17.2812 12.5078C17.2812 13.2188 17.2908 13.6016 17.3086 13.6016C17.3236 13.6016 17.3359 13.6262 17.3359 13.6562C17.3359 13.6863 17.3482 13.7109 17.3633 13.7109C17.3783 13.7109 17.3906 13.7355 17.3906 13.7656C17.3906 13.7957 17.4029 13.8203 17.418 13.8203C17.433 13.8203 17.4453 13.8393 17.4453 13.8626C17.4453 13.9173 17.5671 14.0391 17.6218 14.0391C17.6451 14.0391 17.6641 14.0514 17.6641 14.0664C17.6641 14.0814 17.6887 14.0938 17.7188 14.0938C17.7488 14.0938 17.7734 14.1061 17.7734 14.1211C17.7734 14.1361 17.798 14.1484 17.8281 14.1484C17.8582 14.1484 17.8828 14.1607 17.8828 14.1758C17.8828 14.1937 18.5208 14.2031 19.7422 14.2031C20.9636 14.2031 21.6016 14.1937 21.6016 14.1758C21.6016 14.1607 21.6262 14.1484 21.6562 14.1484C21.6863 14.1484 21.7109 14.1361 21.7109 14.1211C21.7109 14.1061 21.7355 14.0938 21.7656 14.0938C21.7957 14.0938 21.8203 14.0814 21.8203 14.0664C21.8203 14.0514 21.8393 14.0391 21.8626 14.0391C21.9173 14.0391 22.0391 13.9173 22.0391 13.8626C22.0391 13.8393 22.0514 13.8203 22.0664 13.8203C22.0814 13.8203 22.0938 13.7957 22.0938 13.7656C22.0938 13.7355 22.1061 13.7109 22.1211 13.7109C22.1361 13.7109 22.1484 13.6863 22.1484 13.6562C22.1484 13.6262 22.1607 13.6016 22.1758 13.6016C22.1936 13.6016 22.2031 13.2188 22.2031 12.5078C22.2031 11.7969 22.1936 11.4141 22.1758 11.4141C22.1607 11.4141 22.1484 11.3525 22.1484 11.2773C22.1484 11.2021 22.1361 11.1406 22.1211 11.1406C22.1061 11.1406 22.0938 11.0914 22.0938 11.0312C22.0938 10.9711 22.0814 10.9219 22.0664 10.9219C22.0514 10.9219 22.0391 10.8973 22.0391 10.8672C22.0391 10.8371 22.0268 10.8125 22.0117 10.8125C21.9967 10.8125 21.9844 10.7879 21.9844 10.7578C21.9844 10.7277 21.9721 10.7031 21.957 10.7031C21.942 10.7031 21.9297 10.6689 21.9297 10.6271C21.9297 10.5825 21.9071 10.5349 21.875 10.5117C21.8449 10.49 21.8203 10.4531 21.8203 10.4297C21.8203 10.4063 21.7957 10.3693 21.7656 10.3477C21.7355 10.326 21.7109 10.2923 21.7109 10.2729C21.7109 10.2267 21.2576 9.77344 21.2115 9.77344C21.1921 9.77344 21.1584 9.74883 21.1367 9.71875C21.115 9.68867 21.0781 9.66406 21.0547 9.66406C21.0313 9.66406 20.9943 9.63945 20.9727 9.60938C20.951 9.5793 20.9114 9.55469 20.8846 9.55469C20.8578 9.55469 20.8359 9.54238 20.8359 9.52734C20.8359 9.5123 20.799 9.5 20.7539 9.5C20.7088 9.5 20.6719 9.4877 20.6719 9.47266C20.6719 9.45762 20.6473 9.44531 20.6172 9.44531C20.5871 9.44531 20.5625 9.43301 20.5625 9.41797C20.5625 9.40293 20.5133 9.39062 20.4531 9.39062C20.393 9.39062 20.3438 9.37832 20.3438 9.36328C20.3438 9.34824 20.2822 9.33594 20.207 9.33594C20.1318 9.33594 20.0703 9.32363 20.0703 9.30859C20.0703 9.29189 19.9427 9.28125 19.7422 9.28125C19.5417 9.28125 19.4141 9.29189 19.4141 9.30859ZM19.9609 10.9492C19.9609 10.9643 19.9855 10.9766 20.0156 10.9766C20.0457 10.9766 20.0703 10.9889 20.0703 11.0039C20.0703 11.0189 20.0949 11.0312 20.125 11.0312C20.1551 11.0312 20.1797 11.0436 20.1797 11.0586C20.1797 11.0736 20.1987 11.0859 20.2219 11.0859C20.2766 11.0859 20.3984 11.2077 20.3984 11.2624C20.3984 11.2857 20.4107 11.3047 20.4258 11.3047C20.4408 11.3047 20.4531 11.3293 20.4531 11.3594C20.4531 11.3895 20.4654 11.4141 20.4805 11.4141C20.4955 11.4141 20.5078 11.4387 20.5078 11.4688C20.5078 11.4988 20.5201 11.5234 20.5352 11.5234C20.5524 11.5234 20.5625 11.7148 20.5625 12.043V12.5625H19.7422H18.9219V12.043C18.9219 11.7148 18.9319 11.5234 18.9492 11.5234C18.9643 11.5234 18.9766 11.4988 18.9766 11.4688C18.9766 11.4387 18.9889 11.4141 19.0039 11.4141C19.0189 11.4141 19.0312 11.3922 19.0312 11.3654C19.0312 11.3386 19.0559 11.299 19.0859 11.2773C19.116 11.2557 19.1406 11.216 19.1406 11.1893C19.1406 11.1609 19.1609 11.1406 19.1893 11.1406C19.216 11.1406 19.2557 11.116 19.2773 11.0859C19.299 11.0559 19.3386 11.0312 19.3654 11.0312C19.3922 11.0312 19.4141 11.0189 19.4141 11.0039C19.4141 10.9889 19.4387 10.9766 19.4688 10.9766C19.4988 10.9766 19.5234 10.9643 19.5234 10.9492C19.5234 10.9333 19.6146 10.9219 19.7422 10.9219C19.8698 10.9219 19.9609 10.9333 19.9609 10.9492ZM18.9219 22.1055C18.9219 25.168 18.9311 26.7266 18.9492 26.7266C18.9643 26.7266 18.9766 26.7512 18.9766 26.7812C18.9766 26.8113 18.9889 26.8359 19.0039 26.8359C19.0189 26.8359 19.0312 26.8605 19.0312 26.8906C19.0312 26.9207 19.0436 26.9453 19.0586 26.9453C19.0736 26.9453 19.0859 26.9643 19.0859 26.9876C19.0859 27.0423 19.2077 27.1641 19.2624 27.1641C19.2857 27.1641 19.3047 27.1764 19.3047 27.1914C19.3047 27.2064 19.3293 27.2188 19.3594 27.2188C19.3895 27.2188 19.4141 27.2311 19.4141 27.2461C19.4141 27.2611 19.4387 27.2734 19.4688 27.2734C19.4988 27.2734 19.5234 27.2857 19.5234 27.3008C19.5234 27.3167 19.6146 27.3281 19.7422 27.3281C19.8698 27.3281 19.9609 27.3167 19.9609 27.3008C19.9609 27.2857 19.9855 27.2734 20.0156 27.2734C20.0457 27.2734 20.0703 27.2611 20.0703 27.2461C20.0703 27.2311 20.0949 27.2188 20.125 27.2188C20.1551 27.2188 20.1797 27.2064 20.1797 27.1914C20.1797 27.1764 20.1987 27.1641 20.2219 27.1641C20.2766 27.1641 20.3984 27.0423 20.3984 26.9876C20.3984 26.9643 20.4107 26.9453 20.4258 26.9453C20.4408 26.9453 20.4531 26.9207 20.4531 26.8906C20.4531 26.8605 20.4654 26.8359 20.4805 26.8359C20.4955 26.8359 20.5078 26.8113 20.5078 26.7812C20.5078 26.7512 20.5201 26.7266 20.5352 26.7266C20.553 26.7266 20.5625 26.2617 20.5625 25.3867V24.0469H21.3828H22.2031V26.6172V29.1875H22.0938C22.0336 29.1875 21.9844 29.1998 21.9844 29.2148C21.9844 29.2299 21.9352 29.2422 21.875 29.2422C21.8148 29.2422 21.7656 29.2545 21.7656 29.2695C21.7656 29.2846 21.7287 29.2969 21.6836 29.2969C21.6385 29.2969 21.6016 29.3092 21.6016 29.3242C21.6016 29.3393 21.577 29.3516 21.5469 29.3516C21.5168 29.3516 21.4922 29.3639 21.4922 29.3789C21.4922 29.3939 21.4553 29.4062 21.4102 29.4062C21.365 29.4062 21.3281 29.4186 21.3281 29.4336C21.3281 29.4486 21.3035 29.4609 21.2734 29.4609C21.2434 29.4609 21.2188 29.4732 21.2188 29.4883C21.2188 29.5033 21.1968 29.5156 21.1701 29.5156C21.1433 29.5156 21.1037 29.5402 21.082 29.5703C21.0603 29.6004 21.0207 29.625 20.994 29.625C20.9672 29.625 20.9453 29.6373 20.9453 29.6523C20.9453 29.6674 20.9234 29.6797 20.8967 29.6797C20.8699 29.6797 20.8303 29.7043 20.8086 29.7344C20.7869 29.7645 20.75 29.7891 20.7266 29.7891C20.7031 29.7891 20.6662 29.8137 20.6445 29.8438C20.6228 29.8738 20.5893 29.8984 20.5699 29.8984C20.5239 29.8984 19.7422 30.6802 19.7422 30.7262C19.7422 30.7455 19.7176 30.7791 19.6875 30.8008C19.6574 30.8225 19.6328 30.8594 19.6328 30.8828C19.6328 30.9062 19.6082 30.9432 19.5781 30.9648C19.548 30.9865 19.5234 31.0261 19.5234 31.0529C19.5234 31.0797 19.5111 31.1016 19.4961 31.1016C19.4811 31.1016 19.4688 31.1235 19.4688 31.1502C19.4688 31.177 19.4441 31.2166 19.4141 31.2383C19.384 31.26 19.3594 31.2996 19.3594 31.3264C19.3594 31.3531 19.3471 31.375 19.332 31.375C19.317 31.375 19.3047 31.3996 19.3047 31.4297C19.3047 31.4598 19.2924 31.4844 19.2773 31.4844C19.2623 31.4844 19.25 31.5213 19.25 31.5664C19.25 31.6115 19.2377 31.6484 19.2227 31.6484C19.2076 31.6484 19.1953 31.673 19.1953 31.7031C19.1953 31.7332 19.183 31.7578 19.168 31.7578C19.1529 31.7578 19.1406 31.7947 19.1406 31.8398C19.1406 31.885 19.1283 31.9219 19.1133 31.9219C19.0982 31.9219 19.0859 31.9711 19.0859 32.0312C19.0859 32.0914 19.0736 32.1406 19.0586 32.1406C19.0436 32.1406 19.0312 32.1898 19.0312 32.25V32.3594H18.1562H17.2812V24.9219V17.4844H18.1016H18.9219V22.1055ZM22.2031 18.3047V19.125H21.3828H20.5625V18.3047V17.4844H21.3828H22.2031V18.3047ZM22.2031 21.5859V22.4062H21.3828H20.5625V21.5859V20.7656H21.3828H22.2031V21.5859Z" fill="#DD2A1B"/>
</svg>
