<svg width="40" height="40" viewBox="0 0 40 40" fill="none" xmlns="http://www.w3.org/2000/svg">
<path fill-rule="evenodd" clip-rule="evenodd" d="M10.9219 7.02734C10.9219 7.04238 10.8604 7.05469 10.7852 7.05469C10.71 7.05469 10.6484 7.06699 10.6484 7.08203C10.6484 7.09707 10.6115 7.10938 10.5664 7.10938C10.5213 7.10938 10.4844 7.12168 10.4844 7.13672C10.4844 7.15176 10.4475 7.16406 10.4023 7.16406C10.3572 7.16406 10.3203 7.17637 10.3203 7.19141C10.3203 7.20645 10.2957 7.21875 10.2656 7.21875C10.2355 7.21875 10.2109 7.23105 10.2109 7.24609C10.2109 7.26113 10.1863 7.27344 10.1562 7.27344C10.1262 7.27344 10.1016 7.28574 10.1016 7.30078C10.1016 7.31582 10.0797 7.32812 10.0529 7.32812C10.0261 7.32812 9.98653 7.35273 9.96484 7.38281C9.94316 7.41289 9.90873 7.4375 9.88831 7.4375C9.86788 7.4375 9.8039 7.48672 9.74609 7.54688C9.68829 7.60703 9.62685 7.65625 9.60957 7.65625C9.56896 7.65625 9.5 7.72521 9.5 7.76582C9.5 7.7831 9.45078 7.84454 9.39062 7.90234C9.33047 7.96015 9.28125 8.02413 9.28125 8.04456C9.28125 8.06498 9.25664 8.09941 9.22656 8.12109C9.19648 8.14278 9.17188 8.1824 9.17188 8.20917C9.17188 8.23591 9.15957 8.25781 9.14453 8.25781C9.12949 8.25781 9.11719 8.28242 9.11719 8.3125C9.11719 8.34258 9.10488 8.36719 9.08984 8.36719C9.0748 8.36719 9.0625 8.3918 9.0625 8.42188C9.0625 8.45195 9.0502 8.47656 9.03516 8.47656C9.02012 8.47656 9.00781 8.50117 9.00781 8.53125C9.00781 8.56133 8.99551 8.58594 8.98047 8.58594C8.96543 8.58594 8.95312 8.62285 8.95312 8.66797C8.95312 8.71309 8.94082 8.75 8.92578 8.75C8.91074 8.75 8.89844 8.78691 8.89844 8.83203C8.89844 8.87715 8.88613 8.91406 8.87109 8.91406C8.85605 8.91406 8.84375 8.95098 8.84375 8.99609C8.84375 9.04121 8.83145 9.07812 8.81641 9.07812C8.80137 9.07812 8.78906 9.11504 8.78906 9.16016C8.78906 9.20527 8.77676 9.24219 8.76172 9.24219C8.74668 9.24219 8.73438 9.2791 8.73438 9.32422C8.73438 9.36934 8.72207 9.40625 8.70703 9.40625C8.69199 9.40625 8.67969 9.44316 8.67969 9.48828C8.67969 9.5334 8.66738 9.57031 8.65234 9.57031C8.6373 9.57031 8.625 9.60723 8.625 9.65234C8.625 9.69746 8.6127 9.73438 8.59766 9.73438C8.58262 9.73438 8.57031 9.77129 8.57031 9.81641C8.57031 9.86152 8.55801 9.89844 8.54297 9.89844C8.52793 9.89844 8.51562 9.93535 8.51562 9.98047C8.51562 10.0256 8.50332 10.0625 8.48828 10.0625C8.47324 10.0625 8.46094 10.0994 8.46094 10.1445C8.46094 10.1896 8.44863 10.2266 8.43359 10.2266C8.41855 10.2266 8.40625 10.2635 8.40625 10.3086C8.40625 10.3537 8.39395 10.3906 8.37891 10.3906C8.36387 10.3906 8.35156 10.4275 8.35156 10.4727C8.35156 10.5178 8.33926 10.5547 8.32422 10.5547C8.30918 10.5547 8.29688 10.5916 8.29688 10.6367C8.29688 10.6818 8.28457 10.7188 8.26953 10.7188C8.25449 10.7188 8.24219 10.7557 8.24219 10.8008C8.24219 10.8459 8.22988 10.8828 8.21484 10.8828C8.1998 10.8828 8.1875 10.9197 8.1875 10.9648C8.1875 11.01 8.1752 11.0469 8.16016 11.0469C8.14512 11.0469 8.13281 11.0838 8.13281 11.1289C8.13281 11.174 8.12051 11.2109 8.10547 11.2109C8.09043 11.2109 8.07812 11.2479 8.07812 11.293C8.07812 11.3381 8.06582 11.375 8.05078 11.375C8.03574 11.375 8.02344 11.4119 8.02344 11.457C8.02344 11.5021 8.01113 11.5391 7.99609 11.5391C7.98105 11.5391 7.96875 11.576 7.96875 11.6211C7.96875 11.6662 7.95645 11.7031 7.94141 11.7031C7.92637 11.7031 7.91406 11.74 7.91406 11.7852C7.91406 11.8303 7.90176 11.8672 7.88672 11.8672C7.87168 11.8672 7.85938 11.9041 7.85938 11.9492C7.85938 11.9943 7.84707 12.0312 7.83203 12.0312C7.81699 12.0312 7.80469 12.0682 7.80469 12.1133C7.80469 12.1584 7.79238 12.1953 7.77734 12.1953C7.7623 12.1953 7.75 12.2139 7.75 12.2367C7.75 12.2594 7.39316 12.6346 6.95703 13.0703C6.5209 13.5061 6.16406 13.8812 6.16406 13.9039C6.16406 13.9267 6.15176 13.9453 6.13672 13.9453C6.12168 13.9453 6.10938 13.9699 6.10938 14C6.10938 14.0301 6.09707 14.0547 6.08203 14.0547C6.06699 14.0547 6.05469 14.0793 6.05469 14.1094C6.05469 14.1395 6.04238 14.1641 6.02734 14.1641C6.00938 14.1641 6 14.8294 6 16.1055C6 17.3815 6.00938 18.0469 6.02734 18.0469C6.04238 18.0469 6.05469 18.0961 6.05469 18.1562C6.05469 18.2164 6.06699 18.2656 6.08203 18.2656C6.09707 18.2656 6.10938 18.3148 6.10938 18.375C6.10938 18.4352 6.12168 18.4844 6.13672 18.4844C6.15176 18.4844 6.16406 18.509 6.16406 18.5391C6.16406 18.5691 6.17637 18.5938 6.19141 18.5938C6.20645 18.5938 6.21875 18.6307 6.21875 18.6758C6.21875 18.7209 6.23105 18.7578 6.24609 18.7578C6.26113 18.7578 6.27344 18.7797 6.27344 18.8065C6.27344 18.8332 6.29805 18.8728 6.32812 18.8945C6.3582 18.9162 6.38281 18.9531 6.38281 18.9766C6.38281 19 6.40742 19.0369 6.4375 19.0586C6.46758 19.0803 6.49219 19.1139 6.49219 19.1334C6.49219 19.1795 6.94549 19.6328 6.99162 19.6328C7.01106 19.6328 7.04472 19.6574 7.06641 19.6875C7.08809 19.7176 7.12771 19.7422 7.15448 19.7422C7.18122 19.7422 7.20312 19.7545 7.20312 19.7695C7.20312 19.7846 7.22503 19.7969 7.25177 19.7969C7.27854 19.7969 7.31816 19.8215 7.33984 19.8516C7.363 19.8837 7.41064 19.9062 7.45526 19.9062C7.49704 19.9062 7.53125 19.9186 7.53125 19.9336C7.53125 19.9486 7.55586 19.9609 7.58594 19.9609C7.63991 19.9609 7.64062 19.9792 7.64062 21.3828C7.64062 22.3125 7.65009 22.8047 7.66797 22.8047C7.68301 22.8047 7.69531 22.8293 7.69531 22.8594C7.69531 22.8895 7.70762 22.9141 7.72266 22.9141C7.7377 22.9141 7.75 22.9387 7.75 22.9688C7.75 22.9988 7.7623 23.0234 7.77734 23.0234C7.79238 23.0234 7.80469 23.0424 7.80469 23.0657C7.80469 23.1204 7.92648 23.2422 7.98119 23.2422C8.00443 23.2422 8.02344 23.2545 8.02344 23.2695C8.02344 23.2846 8.04805 23.2969 8.07812 23.2969C8.1082 23.2969 8.13281 23.3092 8.13281 23.3242C8.13281 23.3393 8.15742 23.3516 8.1875 23.3516C8.21758 23.3516 8.24219 23.3639 8.24219 23.3789C8.24219 23.3969 8.8802 23.4062 10.1016 23.4062C11.3229 23.4062 11.9609 23.3969 11.9609 23.3789C11.9609 23.3639 11.9855 23.3516 12.0156 23.3516C12.0457 23.3516 12.0703 23.3393 12.0703 23.3242C12.0703 23.3092 12.0949 23.2969 12.125 23.2969C12.1551 23.2969 12.1797 23.2846 12.1797 23.2695C12.1797 23.2545 12.1987 23.2422 12.2219 23.2422C12.2766 23.2422 12.3984 23.1204 12.3984 23.0657C12.3984 23.0424 12.4107 23.0234 12.4258 23.0234C12.4408 23.0234 12.4531 22.9988 12.4531 22.9688C12.4531 22.9387 12.4654 22.9141 12.4805 22.9141C12.4955 22.9141 12.5078 22.8895 12.5078 22.8594C12.5078 22.8293 12.5201 22.8047 12.5352 22.8047C12.553 22.8047 12.5625 22.3398 12.5625 21.4648V20.125H14.9553H17.3481L17.799 20.576C18.2107 20.9876 18.25 21.0353 18.25 21.1229C18.25 21.1756 18.2377 21.2188 18.2227 21.2188C18.2076 21.2188 18.1953 21.2434 18.1953 21.2734C18.1953 21.3035 18.183 21.3281 18.168 21.3281C18.1529 21.3281 18.1406 21.3527 18.1406 21.3828C18.1406 21.4129 18.1283 21.4375 18.1133 21.4375C18.0982 21.4375 18.0859 21.4744 18.0859 21.5195C18.0859 21.5646 18.0736 21.6016 18.0586 21.6016C18.0436 21.6016 18.0312 21.6209 18.0312 21.6445C18.0312 21.7589 17.9866 21.7656 17.2266 21.7656C16.7604 21.7656 16.5 21.7754 16.5 21.793C16.5 21.808 16.4754 21.8203 16.4453 21.8203C16.4152 21.8203 16.3906 21.8326 16.3906 21.8477C16.3906 21.8627 16.366 21.875 16.3359 21.875C16.3059 21.875 16.2812 21.8873 16.2812 21.9023C16.2812 21.9174 16.2622 21.9297 16.239 21.9297C16.1843 21.9297 16.0625 22.0515 16.0625 22.1062C16.0625 22.1294 16.0502 22.1484 16.0352 22.1484C16.0201 22.1484 16.0078 22.173 16.0078 22.2031C16.0078 22.2332 15.9955 22.2578 15.9805 22.2578C15.9654 22.2578 15.9531 22.2824 15.9531 22.3125C15.9531 22.3426 15.9408 22.3672 15.9258 22.3672C15.9078 22.3672 15.8984 23.0052 15.8984 24.2266C15.8984 25.4479 15.9078 26.0859 15.9258 26.0859C15.9408 26.0859 15.9531 26.1105 15.9531 26.1406C15.9531 26.1707 15.9654 26.1953 15.9805 26.1953C15.9955 26.1953 16.0078 26.2199 16.0078 26.25C16.0078 26.2801 16.0201 26.3047 16.0352 26.3047C16.0502 26.3047 16.0625 26.3237 16.0625 26.3469C16.0625 26.4016 16.1843 26.5234 16.239 26.5234C16.2622 26.5234 16.2812 26.5357 16.2812 26.5508C16.2812 26.5658 16.3059 26.5781 16.3359 26.5781C16.366 26.5781 16.3906 26.5904 16.3906 26.6055C16.3906 26.6205 16.4152 26.6328 16.4453 26.6328C16.4754 26.6328 16.5 26.6451 16.5 26.6602C16.5 26.6777 16.7604 26.6875 17.2266 26.6875C17.9866 26.6875 18.0312 26.6942 18.0312 26.8086C18.0312 26.8322 18.0436 26.8516 18.0586 26.8516C18.0736 26.8516 18.0859 26.8885 18.0859 26.9336C18.0859 26.9787 18.0982 27.0156 18.1133 27.0156C18.1283 27.0156 18.1406 27.0402 18.1406 27.0703C18.1406 27.1004 18.1529 27.125 18.168 27.125C18.183 27.125 18.1953 27.1619 18.1953 27.207C18.1953 27.2521 18.2076 27.2891 18.2227 27.2891C18.2377 27.2891 18.25 27.3201 18.25 27.358C18.25 27.4109 18.1357 27.5409 17.7578 27.918C17.4871 28.1881 17.2656 28.4278 17.2656 28.4506C17.2656 28.4735 17.2533 28.4922 17.2383 28.4922C17.2232 28.4922 17.2109 28.5168 17.2109 28.5469C17.2109 28.577 17.1986 28.6016 17.1836 28.6016C17.1674 28.6016 17.1562 28.7018 17.1562 28.8477C17.1562 28.9935 17.1674 29.0938 17.1836 29.0938C17.1986 29.0938 17.2109 29.1307 17.2109 29.1758C17.2109 29.2209 17.2232 29.2578 17.2383 29.2578C17.2533 29.2578 17.2656 29.2763 17.2656 29.2989C17.2656 29.3526 19.7958 31.8828 19.8495 31.8828C19.8721 31.8828 19.8906 31.8951 19.8906 31.9102C19.8906 31.9252 19.9275 31.9375 19.9727 31.9375C20.0178 31.9375 20.0547 31.9498 20.0547 31.9648C20.0547 31.9811 20.155 31.9922 20.3008 31.9922C20.4466 31.9922 20.5469 31.9811 20.5469 31.9648C20.5469 31.9498 20.5715 31.9375 20.6016 31.9375C20.6316 31.9375 20.6562 31.9252 20.6562 31.9102C20.6562 31.8951 20.675 31.8828 20.6978 31.8828C20.7207 31.8828 20.9604 31.6613 21.2305 31.3906C21.6813 30.9388 21.7295 30.8984 21.8178 30.8984C21.8707 30.8984 21.9141 30.9107 21.9141 30.9258C21.9141 30.9408 21.9387 30.9531 21.9688 30.9531C21.9988 30.9531 22.0234 30.9654 22.0234 30.9805C22.0234 30.9955 22.048 31.0078 22.0781 31.0078C22.1082 31.0078 22.1328 31.0201 22.1328 31.0352C22.1328 31.0502 22.1697 31.0625 22.2148 31.0625C22.26 31.0625 22.2969 31.0748 22.2969 31.0898C22.2969 31.1049 22.3162 31.1172 22.3398 31.1172C22.4542 31.1172 22.4609 31.1618 22.4609 31.9219C22.4609 32.388 22.4707 32.6484 22.4883 32.6484C22.5033 32.6484 22.5156 32.673 22.5156 32.7031C22.5156 32.7332 22.5279 32.7578 22.543 32.7578C22.558 32.7578 22.5703 32.7824 22.5703 32.8125C22.5703 32.8426 22.5826 32.8672 22.5977 32.8672C22.6127 32.8672 22.625 32.8862 22.625 32.9094C22.625 32.9641 22.7468 33.0859 22.8015 33.0859C22.8247 33.0859 22.8438 33.0982 22.8438 33.1133C22.8438 33.1283 22.8684 33.1406 22.8984 33.1406C22.9285 33.1406 22.9531 33.1529 22.9531 33.168C22.9531 33.183 22.9777 33.1953 23.0078 33.1953C23.0379 33.1953 23.0625 33.2076 23.0625 33.2227C23.0625 33.2406 23.7005 33.25 24.9219 33.25C26.1432 33.25 26.7812 33.2406 26.7812 33.2227C26.7812 33.2076 26.8059 33.1953 26.8359 33.1953C26.866 33.1953 26.8906 33.183 26.8906 33.168C26.8906 33.1529 26.9152 33.1406 26.9453 33.1406C26.9754 33.1406 27 33.1283 27 33.1133C27 33.0982 27.019 33.0859 27.0422 33.0859C27.097 33.0859 27.2188 32.9641 27.2188 32.9094C27.2188 32.8862 27.2311 32.8672 27.2461 32.8672C27.2611 32.8672 27.2734 32.8426 27.2734 32.8125C27.2734 32.7824 27.2857 32.7578 27.3008 32.7578C27.3158 32.7578 27.3281 32.7332 27.3281 32.7031C27.3281 32.673 27.3404 32.6484 27.3555 32.6484C27.373 32.6484 27.3828 32.388 27.3828 31.9219C27.3828 31.1618 27.3895 31.1172 27.5039 31.1172C27.5275 31.1172 27.5469 31.1049 27.5469 31.0898C27.5469 31.0748 27.5838 31.0625 27.6289 31.0625C27.674 31.0625 27.7109 31.0502 27.7109 31.0352C27.7109 31.0201 27.7355 31.0078 27.7656 31.0078C27.7957 31.0078 27.8203 30.9955 27.8203 30.9805C27.8203 30.9654 27.8572 30.9531 27.9023 30.9531C27.9475 30.9531 27.9844 30.9408 27.9844 30.9258C27.9844 30.9107 28.0154 30.8984 28.0533 30.8984C28.1062 30.8984 28.2362 31.0127 28.6133 31.3906C28.8834 31.6613 29.1231 31.8828 29.1459 31.8828C29.1688 31.8828 29.1875 31.8951 29.1875 31.9102C29.1875 31.9252 29.2121 31.9375 29.2422 31.9375C29.2723 31.9375 29.2969 31.9498 29.2969 31.9648C29.2969 31.9811 29.3971 31.9922 29.543 31.9922C29.6888 31.9922 29.7891 31.9811 29.7891 31.9648C29.7891 31.9498 29.826 31.9375 29.8711 31.9375C29.9162 31.9375 29.9531 31.9252 29.9531 31.9102C29.9531 31.8951 29.9716 31.8828 29.9942 31.8828C30.0168 31.8828 30.6074 31.3107 31.3067 30.6114C32.006 29.9121 32.5781 29.3215 32.5781 29.2989C32.5781 29.2763 32.5904 29.2578 32.6055 29.2578C32.6205 29.2578 32.6328 29.2209 32.6328 29.1758C32.6328 29.1307 32.6451 29.0938 32.6602 29.0938C32.6764 29.0938 32.6875 28.9935 32.6875 28.8477C32.6875 28.7018 32.6764 28.6016 32.6602 28.6016C32.6451 28.6016 32.6328 28.577 32.6328 28.5469C32.6328 28.5168 32.6205 28.4922 32.6055 28.4922C32.5904 28.4922 32.5781 28.4735 32.5781 28.4506C32.5781 28.4278 32.3566 28.1881 32.0859 27.918C31.6341 27.4672 31.5938 27.419 31.5938 27.3306C31.5938 27.2777 31.6061 27.2344 31.6211 27.2344C31.6361 27.2344 31.6484 27.2098 31.6484 27.1797C31.6484 27.1496 31.6607 27.125 31.6758 27.125C31.6908 27.125 31.7031 27.1004 31.7031 27.0703C31.7031 27.0402 31.7154 27.0156 31.7305 27.0156C31.7455 27.0156 31.7578 26.9787 31.7578 26.9336C31.7578 26.8885 31.7701 26.8516 31.7852 26.8516C31.8002 26.8516 31.8125 26.8322 31.8125 26.8086C31.8125 26.6937 31.8554 26.6875 32.6445 26.6875C33.1289 26.6875 33.3984 26.6777 33.3984 26.6602C33.3984 26.6451 33.423 26.6328 33.4531 26.6328C33.4832 26.6328 33.5078 26.6205 33.5078 26.6055C33.5078 26.5904 33.5324 26.5781 33.5625 26.5781C33.5926 26.5781 33.6172 26.5658 33.6172 26.5508C33.6172 26.5357 33.6362 26.5234 33.6594 26.5234C33.6827 26.5234 33.7319 26.4932 33.7688 26.4563C33.8057 26.4194 33.8359 26.3702 33.8359 26.3469C33.8359 26.3237 33.8482 26.3047 33.8633 26.3047C33.8783 26.3047 33.8906 26.2801 33.8906 26.25C33.8906 26.2199 33.9029 26.1953 33.918 26.1953C33.933 26.1953 33.9453 26.1707 33.9453 26.1406C33.9453 26.1105 33.9576 26.0859 33.9727 26.0859C33.9906 26.0859 34 25.4479 34 24.2266C34 23.0052 33.9906 22.3672 33.9727 22.3672C33.9576 22.3672 33.9453 22.3426 33.9453 22.3125C33.9453 22.2824 33.933 22.2578 33.918 22.2578C33.9029 22.2578 33.8906 22.2332 33.8906 22.2031C33.8906 22.173 33.8783 22.1484 33.8633 22.1484C33.8482 22.1484 33.8359 22.1294 33.8359 22.1062C33.8359 22.0515 33.7141 21.9297 33.6594 21.9297C33.6362 21.9297 33.6172 21.9174 33.6172 21.9023C33.6172 21.8873 33.5926 21.875 33.5625 21.875C33.5324 21.875 33.5078 21.8627 33.5078 21.8477C33.5078 21.8326 33.4832 21.8203 33.4531 21.8203C33.423 21.8203 33.3984 21.808 33.3984 21.793C33.3984 21.7754 33.1289 21.7656 32.6445 21.7656C31.8554 21.7656 31.8125 21.7594 31.8125 21.6445C31.8125 21.6209 31.8002 21.6016 31.7852 21.6016C31.7701 21.6016 31.7578 21.5646 31.7578 21.5195C31.7578 21.4744 31.7455 21.4375 31.7305 21.4375C31.7154 21.4375 31.7031 21.4129 31.7031 21.3828C31.7031 21.3527 31.6908 21.3281 31.6758 21.3281C31.6607 21.3281 31.6484 21.3035 31.6484 21.2734C31.6484 21.2434 31.6361 21.2188 31.6211 21.2188C31.6061 21.2188 31.5938 21.1754 31.5938 21.1225C31.5938 21.0342 31.6341 20.9859 32.0859 20.5352C32.3566 20.2651 32.5781 20.0254 32.5781 20.0025C32.5781 19.9796 32.5904 19.9609 32.6055 19.9609C32.6205 19.9609 32.6328 19.9363 32.6328 19.9062C32.6328 19.8762 32.6451 19.8516 32.6602 19.8516C32.6764 19.8516 32.6875 19.7513 32.6875 19.6055C32.6875 19.4596 32.6764 19.3594 32.6602 19.3594C32.6451 19.3594 32.6328 19.3225 32.6328 19.2773C32.6328 19.2322 32.6205 19.1953 32.6055 19.1953C32.5904 19.1953 32.5781 19.1768 32.5781 19.1542C32.5781 19.1005 30.0479 16.5703 29.9942 16.5703C29.9716 16.5703 29.9531 16.558 29.9531 16.543C29.9531 16.5279 29.9162 16.5156 29.8711 16.5156C29.826 16.5156 29.7891 16.5033 29.7891 16.4883C29.7891 16.4721 29.6888 16.4609 29.543 16.4609C29.3971 16.4609 29.2969 16.4721 29.2969 16.4883C29.2969 16.5033 29.2723 16.5156 29.2422 16.5156C29.2121 16.5156 29.1875 16.5279 29.1875 16.543C29.1875 16.558 29.1688 16.5703 29.1459 16.5703C29.1231 16.5703 28.8834 16.7918 28.6133 17.0625C28.2362 17.4404 28.1062 17.5547 28.0533 17.5547C28.0154 17.5547 27.9844 17.5424 27.9844 17.5273C27.9844 17.5123 27.9475 17.5 27.9023 17.5C27.8572 17.5 27.8203 17.4877 27.8203 17.4727C27.8203 17.4576 27.7957 17.4453 27.7656 17.4453C27.7355 17.4453 27.7109 17.433 27.7109 17.418C27.7109 17.4029 27.674 17.3906 27.6289 17.3906C27.5838 17.3906 27.5469 17.3783 27.5469 17.3633C27.5469 17.3482 27.5275 17.3359 27.5039 17.3359C27.3821 17.3359 27.3828 17.3452 27.3828 15.7109C27.3828 14.6979 27.3734 14.1641 27.3555 14.1641C27.3404 14.1641 27.3281 14.1395 27.3281 14.1094C27.3281 14.0793 27.3158 14.0547 27.3008 14.0547C27.2857 14.0547 27.2734 14.0301 27.2734 14C27.2734 13.9699 27.2611 13.9453 27.2461 13.9453C27.2311 13.9453 27.2188 13.9267 27.2188 13.9039C27.2188 13.8812 26.8619 13.5061 26.4258 13.0703C25.9896 12.6346 25.6328 12.2594 25.6328 12.2367C25.6328 12.2139 25.6205 12.1953 25.6055 12.1953C25.5904 12.1953 25.5781 12.1584 25.5781 12.1133C25.5781 12.0682 25.5658 12.0312 25.5508 12.0312C25.5357 12.0312 25.5234 11.9943 25.5234 11.9492C25.5234 11.9041 25.5111 11.8672 25.4961 11.8672C25.4811 11.8672 25.4688 11.8303 25.4688 11.7852C25.4688 11.74 25.4564 11.7031 25.4414 11.7031C25.4264 11.7031 25.4141 11.6662 25.4141 11.6211C25.4141 11.576 25.4018 11.5391 25.3867 11.5391C25.3717 11.5391 25.3594 11.5021 25.3594 11.457C25.3594 11.4119 25.3471 11.375 25.332 11.375C25.317 11.375 25.3047 11.3381 25.3047 11.293C25.3047 11.2479 25.2924 11.2109 25.2773 11.2109C25.2623 11.2109 25.25 11.174 25.25 11.1289C25.25 11.0838 25.2377 11.0469 25.2227 11.0469C25.2076 11.0469 25.1953 11.01 25.1953 10.9648C25.1953 10.9197 25.183 10.8828 25.168 10.8828C25.1529 10.8828 25.1406 10.8459 25.1406 10.8008C25.1406 10.7557 25.1283 10.7188 25.1133 10.7188C25.0982 10.7188 25.0859 10.6818 25.0859 10.6367C25.0859 10.5916 25.0736 10.5547 25.0586 10.5547C25.0436 10.5547 25.0312 10.5178 25.0312 10.4727C25.0312 10.4275 25.0189 10.3906 25.0039 10.3906C24.9889 10.3906 24.9766 10.3537 24.9766 10.3086C24.9766 10.2635 24.9643 10.2266 24.9492 10.2266C24.9342 10.2266 24.9219 10.1896 24.9219 10.1445C24.9219 10.0994 24.9096 10.0625 24.8945 10.0625C24.8795 10.0625 24.8672 10.0256 24.8672 9.98047C24.8672 9.93535 24.8549 9.89844 24.8398 9.89844C24.8248 9.89844 24.8125 9.86152 24.8125 9.81641C24.8125 9.77129 24.8002 9.73438 24.7852 9.73438C24.7701 9.73438 24.7578 9.69746 24.7578 9.65234C24.7578 9.60723 24.7455 9.57031 24.7305 9.57031C24.7154 9.57031 24.7031 9.5334 24.7031 9.48828C24.7031 9.44316 24.6908 9.40625 24.6758 9.40625C24.6607 9.40625 24.6484 9.36934 24.6484 9.32422C24.6484 9.2791 24.6361 9.24219 24.6211 9.24219C24.6061 9.24219 24.5938 9.20527 24.5938 9.16016C24.5938 9.11504 24.5814 9.07812 24.5664 9.07812C24.5514 9.07812 24.5391 9.04121 24.5391 8.99609C24.5391 8.95098 24.5268 8.91406 24.5117 8.91406C24.4967 8.91406 24.4844 8.87715 24.4844 8.83203C24.4844 8.78691 24.4721 8.75 24.457 8.75C24.442 8.75 24.4297 8.71309 24.4297 8.66797C24.4297 8.62285 24.4174 8.58594 24.4023 8.58594C24.3873 8.58594 24.375 8.56133 24.375 8.53125C24.375 8.50117 24.3627 8.47656 24.3477 8.47656C24.3326 8.47656 24.3203 8.45195 24.3203 8.42188C24.3203 8.3918 24.308 8.36719 24.293 8.36719C24.2779 8.36719 24.2656 8.34258 24.2656 8.3125C24.2656 8.28242 24.2533 8.25781 24.2383 8.25781C24.2232 8.25781 24.2109 8.23591 24.2109 8.20917C24.2109 8.1824 24.1863 8.14278 24.1562 8.12109C24.1262 8.09941 24.1016 8.06498 24.1016 8.04456C24.1016 8.02413 24.0523 7.96015 23.9922 7.90234C23.932 7.84454 23.8828 7.77785 23.8828 7.75409C23.8828 7.73035 23.8636 7.71094 23.84 7.71094C23.8165 7.71094 23.7373 7.64941 23.6641 7.57422C23.5908 7.49902 23.5144 7.4375 23.4941 7.4375C23.4739 7.4375 23.4397 7.41289 23.418 7.38281C23.3963 7.35273 23.3567 7.32812 23.3299 7.32812C23.3032 7.32812 23.2812 7.31582 23.2812 7.30078C23.2812 7.28574 23.2566 7.27344 23.2266 7.27344C23.1965 7.27344 23.1719 7.26113 23.1719 7.24609C23.1719 7.23105 23.1473 7.21875 23.1172 7.21875C23.0871 7.21875 23.0625 7.20645 23.0625 7.19141C23.0625 7.17637 23.0256 7.16406 22.9805 7.16406C22.9354 7.16406 22.8984 7.15176 22.8984 7.13672C22.8984 7.12168 22.8615 7.10938 22.8164 7.10938C22.7713 7.10938 22.7344 7.09707 22.7344 7.08203C22.7344 7.06699 22.6729 7.05469 22.5977 7.05469C22.5225 7.05469 22.4609 7.04238 22.4609 7.02734C22.4609 7.00919 20.5195 7 16.6914 7C12.8633 7 10.9219 7.00919 10.9219 7.02734ZM22.2969 8.66797C22.2969 8.68301 22.3338 8.69531 22.3789 8.69531C22.424 8.69531 22.4609 8.70762 22.4609 8.72266C22.4609 8.7377 22.4797 8.75 22.5027 8.75C22.5569 8.75 22.7891 8.98212 22.7891 9.0364C22.7891 9.05934 22.8014 9.07812 22.8164 9.07812C22.8314 9.07812 22.8438 9.10273 22.8438 9.13281C22.8438 9.16289 22.8561 9.1875 22.8711 9.1875C22.8861 9.1875 22.8984 9.22441 22.8984 9.26953C22.8984 9.31465 22.9107 9.35156 22.9258 9.35156C22.9408 9.35156 22.9531 9.38848 22.9531 9.43359C22.9531 9.47871 22.9654 9.51562 22.9805 9.51562C22.9955 9.51562 23.0078 9.55254 23.0078 9.59766C23.0078 9.64277 23.0201 9.67969 23.0352 9.67969C23.0502 9.67969 23.0625 9.7166 23.0625 9.76172C23.0625 9.80684 23.0748 9.84375 23.0898 9.84375C23.1049 9.84375 23.1172 9.88066 23.1172 9.92578C23.1172 9.9709 23.1295 10.0078 23.1445 10.0078C23.1596 10.0078 23.1719 10.0447 23.1719 10.0898C23.1719 10.135 23.1842 10.1719 23.1992 10.1719C23.2143 10.1719 23.2266 10.2088 23.2266 10.2539C23.2266 10.299 23.2389 10.3359 23.2539 10.3359C23.2689 10.3359 23.2812 10.3729 23.2812 10.418C23.2812 10.4631 23.2936 10.5 23.3086 10.5C23.3236 10.5 23.3359 10.5369 23.3359 10.582C23.3359 10.6271 23.3482 10.6641 23.3633 10.6641C23.3783 10.6641 23.3906 10.701 23.3906 10.7461C23.3906 10.7912 23.4029 10.8281 23.418 10.8281C23.433 10.8281 23.4453 10.865 23.4453 10.9102C23.4453 10.9553 23.4576 10.9922 23.4727 10.9922C23.4877 10.9922 23.5 11.0291 23.5 11.0742C23.5 11.1193 23.5123 11.1562 23.5273 11.1562C23.5424 11.1562 23.5547 11.1932 23.5547 11.2383C23.5547 11.2834 23.567 11.3203 23.582 11.3203C23.5971 11.3203 23.6094 11.3572 23.6094 11.4023C23.6094 11.4475 23.6217 11.4844 23.6367 11.4844C23.6518 11.4844 23.6641 11.5213 23.6641 11.5664C23.6641 11.6115 23.6764 11.6484 23.6914 11.6484C23.7064 11.6484 23.7188 11.6854 23.7188 11.7305C23.7188 11.7756 23.7311 11.8125 23.7461 11.8125C23.7611 11.8125 23.7734 11.8371 23.7734 11.8672C23.7734 11.9191 23.7552 11.9219 23.418 11.9219C23.1992 11.9219 23.0625 11.9324 23.0625 11.9492C23.0625 11.9643 23.0256 11.9766 22.9805 11.9766C22.9354 11.9766 22.8984 11.9889 22.8984 12.0039C22.8984 12.0189 22.8738 12.0312 22.8438 12.0312C22.8137 12.0312 22.7891 12.0436 22.7891 12.0586C22.7891 12.0736 22.7645 12.0859 22.7344 12.0859C22.7043 12.0859 22.6797 12.0982 22.6797 12.1133C22.6797 12.1283 22.6551 12.1406 22.625 12.1406C22.5949 12.1406 22.5703 12.1529 22.5703 12.168C22.5703 12.183 22.5457 12.1953 22.5156 12.1953C22.4855 12.1953 22.4609 12.2076 22.4609 12.2227C22.4609 12.2377 22.4363 12.25 22.4062 12.25C22.3762 12.25 22.3516 12.2623 22.3516 12.2773C22.3516 12.2924 22.327 12.3047 22.2969 12.3047C22.2668 12.3047 22.2422 12.317 22.2422 12.332C22.2422 12.3471 22.2176 12.3594 22.1875 12.3594C22.1574 12.3594 22.1328 12.3717 22.1328 12.3867C22.1328 12.4018 22.1082 12.4141 22.0781 12.4141C22.048 12.4141 22.0234 12.4264 22.0234 12.4414C22.0234 12.4564 21.9988 12.4688 21.9688 12.4688C21.9387 12.4688 21.9141 12.4811 21.9141 12.4961C21.9141 12.5111 21.8895 12.5234 21.8594 12.5234C21.8293 12.5234 21.8047 12.5357 21.8047 12.5508C21.8047 12.5658 21.7801 12.5781 21.75 12.5781C21.7199 12.5781 21.6953 12.5904 21.6953 12.6055C21.6953 12.6205 21.6707 12.6328 21.6406 12.6328C21.6105 12.6328 21.5859 12.6451 21.5859 12.6602C21.5859 12.6752 21.5613 12.6875 21.5312 12.6875C21.5012 12.6875 21.4766 12.6998 21.4766 12.7148C21.4766 12.7299 21.452 12.7422 21.4219 12.7422C21.3918 12.7422 21.3672 12.7545 21.3672 12.7695C21.3672 12.7846 21.3426 12.7969 21.3125 12.7969C21.2824 12.7969 21.2578 12.8092 21.2578 12.8242C21.2578 12.8393 21.2332 12.8516 21.2031 12.8516C21.173 12.8516 21.1484 12.8639 21.1484 12.8789C21.1484 12.8939 21.1238 12.9062 21.0938 12.9062C21.0637 12.9062 21.0391 12.9186 21.0391 12.9336C21.0391 12.9486 21.0145 12.9609 20.9844 12.9609C20.9543 12.9609 20.9297 12.9732 20.9297 12.9883C20.9297 13.0033 20.9051 13.0156 20.875 13.0156C20.8449 13.0156 20.8203 13.0279 20.8203 13.043C20.8203 13.058 20.7957 13.0703 20.7656 13.0703C20.7355 13.0703 20.7109 13.0826 20.7109 13.0977C20.7109 13.1127 20.6863 13.125 20.6562 13.125C20.6262 13.125 20.6016 13.1373 20.6016 13.1523C20.6016 13.1674 20.577 13.1797 20.5469 13.1797C20.5168 13.1797 20.4922 13.192 20.4922 13.207C20.4922 13.2221 20.4676 13.2344 20.4375 13.2344C20.4074 13.2344 20.3828 13.2467 20.3828 13.2617C20.3828 13.2768 20.3582 13.2891 20.3281 13.2891C20.298 13.2891 20.2734 13.3014 20.2734 13.3164C20.2734 13.3314 20.2488 13.3438 20.2188 13.3438C20.1887 13.3438 20.1641 13.3561 20.1641 13.3711C20.1641 13.3861 20.1395 13.3984 20.1094 13.3984C20.0793 13.3984 20.0547 13.4107 20.0547 13.4258C20.0547 13.4408 20.0301 13.4531 20 13.4531C19.9699 13.4531 19.9453 13.4654 19.9453 13.4805C19.9453 13.4955 19.9207 13.5078 19.8906 13.5078C19.8605 13.5078 19.8359 13.5201 19.8359 13.5352C19.8359 13.5532 18.7695 13.5625 16.6914 13.5625C14.6133 13.5625 13.5469 13.5532 13.5469 13.5352C13.5469 13.5201 13.5223 13.5078 13.4922 13.5078C13.4621 13.5078 13.4375 13.4955 13.4375 13.4805C13.4375 13.4654 13.4129 13.4531 13.3828 13.4531C13.3527 13.4531 13.3281 13.4408 13.3281 13.4258C13.3281 13.4107 13.3035 13.3984 13.2734 13.3984C13.2434 13.3984 13.2188 13.3861 13.2188 13.3711C13.2188 13.3561 13.1941 13.3438 13.1641 13.3438C13.134 13.3438 13.1094 13.3314 13.1094 13.3164C13.1094 13.3014 13.0848 13.2891 13.0547 13.2891C13.0246 13.2891 13 13.2768 13 13.2617C13 13.2467 12.9754 13.2344 12.9453 13.2344C12.9152 13.2344 12.8906 13.2221 12.8906 13.207C12.8906 13.192 12.866 13.1797 12.8359 13.1797C12.8059 13.1797 12.7812 13.1674 12.7812 13.1523C12.7812 13.1373 12.7566 13.125 12.7266 13.125C12.6965 13.125 12.6719 13.1127 12.6719 13.0977C12.6719 13.0826 12.6473 13.0703 12.6172 13.0703C12.5871 13.0703 12.5625 13.058 12.5625 13.043C12.5625 13.0279 12.5379 13.0156 12.5078 13.0156C12.4777 13.0156 12.4531 13.0033 12.4531 12.9883C12.4531 12.9732 12.4285 12.9609 12.3984 12.9609C12.3684 12.9609 12.3438 12.9486 12.3438 12.9336C12.3438 12.9186 12.3191 12.9062 12.2891 12.9062C12.259 12.9062 12.2344 12.8939 12.2344 12.8789C12.2344 12.8639 12.2098 12.8516 12.1797 12.8516C12.1496 12.8516 12.125 12.8393 12.125 12.8242C12.125 12.8092 12.1004 12.7969 12.0703 12.7969C12.0402 12.7969 12.0156 12.7846 12.0156 12.7695C12.0156 12.7545 11.991 12.7422 11.9609 12.7422C11.9309 12.7422 11.9062 12.7299 11.9062 12.7148C11.9062 12.6998 11.8816 12.6875 11.8516 12.6875C11.8215 12.6875 11.7969 12.6752 11.7969 12.6602C11.7969 12.6451 11.7723 12.6328 11.7422 12.6328C11.7121 12.6328 11.6875 12.6205 11.6875 12.6055C11.6875 12.5904 11.6629 12.5781 11.6328 12.5781C11.6027 12.5781 11.5781 12.5658 11.5781 12.5508C11.5781 12.5357 11.5535 12.5234 11.5234 12.5234C11.4934 12.5234 11.4688 12.5111 11.4688 12.4961C11.4688 12.4811 11.4441 12.4688 11.4141 12.4688C11.384 12.4688 11.3594 12.4564 11.3594 12.4414C11.3594 12.4264 11.3348 12.4141 11.3047 12.4141C11.2746 12.4141 11.25 12.4018 11.25 12.3867C11.25 12.3717 11.2254 12.3594 11.1953 12.3594C11.1652 12.3594 11.1406 12.3471 11.1406 12.332C11.1406 12.317 11.116 12.3047 11.0859 12.3047C11.0559 12.3047 11.0312 12.2924 11.0312 12.2773C11.0312 12.2623 11.0066 12.25 10.9766 12.25C10.9465 12.25 10.9219 12.2377 10.9219 12.2227C10.9219 12.2076 10.8973 12.1953 10.8672 12.1953C10.8371 12.1953 10.8125 12.183 10.8125 12.168C10.8125 12.1529 10.7879 12.1406 10.7578 12.1406C10.7277 12.1406 10.7031 12.1283 10.7031 12.1133C10.7031 12.0982 10.6785 12.0859 10.6484 12.0859C10.6184 12.0859 10.5938 12.0736 10.5938 12.0586C10.5938 12.0436 10.5691 12.0312 10.5391 12.0312C10.509 12.0312 10.4844 12.0189 10.4844 12.0039C10.4844 11.9889 10.4475 11.9766 10.4023 11.9766C10.3572 11.9766 10.3203 11.9643 10.3203 11.9492C10.3203 11.9324 10.1836 11.9219 9.96484 11.9219C9.62761 11.9219 9.60938 11.9191 9.60938 11.8672C9.60938 11.8371 9.62168 11.8125 9.63672 11.8125C9.65176 11.8125 9.66406 11.7756 9.66406 11.7305C9.66406 11.6854 9.67637 11.6484 9.69141 11.6484C9.70645 11.6484 9.71875 11.6115 9.71875 11.5664C9.71875 11.5213 9.73105 11.4844 9.74609 11.4844C9.76113 11.4844 9.77344 11.4475 9.77344 11.4023C9.77344 11.3572 9.78574 11.3203 9.80078 11.3203C9.81582 11.3203 9.82812 11.2834 9.82812 11.2383C9.82812 11.1932 9.84043 11.1562 9.85547 11.1562C9.87051 11.1562 9.88281 11.1193 9.88281 11.0742C9.88281 11.0291 9.89512 10.9922 9.91016 10.9922C9.9252 10.9922 9.9375 10.9553 9.9375 10.9102C9.9375 10.865 9.9498 10.8281 9.96484 10.8281C9.97988 10.8281 9.99219 10.7912 9.99219 10.7461C9.99219 10.701 10.0045 10.6641 10.0195 10.6641C10.0346 10.6641 10.0469 10.6271 10.0469 10.582C10.0469 10.5369 10.0592 10.5 10.0742 10.5C10.0893 10.5 10.1016 10.4631 10.1016 10.418C10.1016 10.3729 10.1139 10.3359 10.1289 10.3359C10.1439 10.3359 10.1562 10.299 10.1562 10.2539C10.1562 10.2088 10.1686 10.1719 10.1836 10.1719C10.1986 10.1719 10.2109 10.135 10.2109 10.0898C10.2109 10.0447 10.2232 10.0078 10.2383 10.0078C10.2533 10.0078 10.2656 9.9709 10.2656 9.92578C10.2656 9.88066 10.2779 9.84375 10.293 9.84375C10.308 9.84375 10.3203 9.80684 10.3203 9.76172C10.3203 9.7166 10.3326 9.67969 10.3477 9.67969C10.3627 9.67969 10.375 9.64277 10.375 9.59766C10.375 9.55254 10.3873 9.51562 10.4023 9.51562C10.4174 9.51562 10.4297 9.47871 10.4297 9.43359C10.4297 9.38848 10.442 9.35156 10.457 9.35156C10.4721 9.35156 10.4844 9.31465 10.4844 9.26953C10.4844 9.22441 10.4967 9.1875 10.5117 9.1875C10.5268 9.1875 10.5391 9.16289 10.5391 9.13281C10.5391 9.10273 10.5514 9.07812 10.5664 9.07812C10.5814 9.07812 10.5938 9.05934 10.5938 9.0364C10.5938 8.98212 10.8259 8.75 10.8801 8.75C10.9031 8.75 10.9219 8.7377 10.9219 8.72266C10.9219 8.70762 10.9588 8.69531 11.0039 8.69531C11.049 8.69531 11.0859 8.68301 11.0859 8.66797C11.0859 8.64984 12.9727 8.64062 16.6914 8.64062C20.4102 8.64062 22.2969 8.64984 22.2969 8.66797ZM9.9375 13.5898C9.9375 13.6049 9.96211 13.6172 9.99219 13.6172C10.0223 13.6172 10.0469 13.6295 10.0469 13.6445C10.0469 13.6596 10.0715 13.6719 10.1016 13.6719C10.1316 13.6719 10.1562 13.6842 10.1562 13.6992C10.1562 13.7143 10.1809 13.7266 10.2109 13.7266C10.241 13.7266 10.2656 13.7389 10.2656 13.7539C10.2656 13.7689 10.2902 13.7812 10.3203 13.7812C10.3504 13.7812 10.375 13.7936 10.375 13.8086C10.375 13.8236 10.3996 13.8359 10.4297 13.8359C10.4598 13.8359 10.4844 13.8482 10.4844 13.8633C10.4844 13.8783 10.509 13.8906 10.5391 13.8906C10.5691 13.8906 10.5938 13.9029 10.5938 13.918C10.5938 13.933 10.6184 13.9453 10.6484 13.9453C10.6785 13.9453 10.7031 13.9576 10.7031 13.9727C10.7031 13.9877 10.7277 14 10.7578 14C10.7879 14 10.8125 14.0123 10.8125 14.0273C10.8125 14.0424 10.8371 14.0547 10.8672 14.0547C10.8973 14.0547 10.9219 14.067 10.9219 14.082C10.9219 14.0971 10.9465 14.1094 10.9766 14.1094C11.0066 14.1094 11.0312 14.1217 11.0312 14.1367C11.0312 14.1518 11.0559 14.1641 11.0859 14.1641C11.116 14.1641 11.1406 14.1764 11.1406 14.1914C11.1406 14.2064 11.1652 14.2188 11.1953 14.2188C11.2254 14.2188 11.25 14.2311 11.25 14.2461C11.25 14.2611 11.2746 14.2734 11.3047 14.2734C11.3348 14.2734 11.3594 14.2857 11.3594 14.3008C11.3594 14.3158 11.384 14.3281 11.4141 14.3281C11.4441 14.3281 11.4688 14.3404 11.4688 14.3555C11.4688 14.3705 11.4934 14.3828 11.5234 14.3828C11.5535 14.3828 11.5781 14.3951 11.5781 14.4102C11.5781 14.4252 11.6027 14.4375 11.6328 14.4375C11.6629 14.4375 11.6875 14.4498 11.6875 14.4648C11.6875 14.4799 11.7121 14.4922 11.7422 14.4922C11.7723 14.4922 11.7969 14.5045 11.7969 14.5195C11.7969 14.5346 11.8215 14.5469 11.8516 14.5469C11.8816 14.5469 11.9062 14.5592 11.9062 14.5742C11.9062 14.5893 11.9309 14.6016 11.9609 14.6016C11.991 14.6016 12.0156 14.6139 12.0156 14.6289C12.0156 14.6439 12.0402 14.6562 12.0703 14.6562C12.1004 14.6562 12.125 14.6686 12.125 14.6836C12.125 14.6986 12.1496 14.7109 12.1797 14.7109C12.2098 14.7109 12.2344 14.7232 12.2344 14.7383C12.2344 14.7533 12.259 14.7656 12.2891 14.7656C12.3191 14.7656 12.3438 14.7779 12.3438 14.793C12.3438 14.808 12.3684 14.8203 12.3984 14.8203C12.4285 14.8203 12.4531 14.8326 12.4531 14.8477C12.4531 14.8627 12.4777 14.875 12.5078 14.875C12.5379 14.875 12.5625 14.8873 12.5625 14.9023C12.5625 14.9174 12.5871 14.9297 12.6172 14.9297C12.6473 14.9297 12.6719 14.942 12.6719 14.957C12.6719 14.9721 12.6965 14.9844 12.7266 14.9844C12.7566 14.9844 12.7812 14.9967 12.7812 15.0117C12.7812 15.0268 12.8059 15.0391 12.8359 15.0391C12.866 15.0391 12.8906 15.0514 12.8906 15.0664C12.8906 15.0814 12.9152 15.0938 12.9453 15.0938C12.9754 15.0938 13 15.1061 13 15.1211C13 15.1361 13.0369 15.1484 13.082 15.1484C13.1271 15.1484 13.1641 15.1607 13.1641 15.1758C13.1641 15.1939 14.3581 15.2031 16.6914 15.2031C19.0247 15.2031 20.2188 15.1939 20.2188 15.1758C20.2188 15.1607 20.2557 15.1484 20.3008 15.1484C20.3459 15.1484 20.3828 15.1361 20.3828 15.1211C20.3828 15.1061 20.4074 15.0938 20.4375 15.0938C20.4676 15.0938 20.4922 15.0814 20.4922 15.0664C20.4922 15.0514 20.5168 15.0391 20.5469 15.0391C20.577 15.0391 20.6016 15.0268 20.6016 15.0117C20.6016 14.9967 20.6262 14.9844 20.6562 14.9844C20.6863 14.9844 20.7109 14.9721 20.7109 14.957C20.7109 14.942 20.7355 14.9297 20.7656 14.9297C20.7957 14.9297 20.8203 14.9174 20.8203 14.9023C20.8203 14.8873 20.8449 14.875 20.875 14.875C20.9051 14.875 20.9297 14.8627 20.9297 14.8477C20.9297 14.8326 20.9543 14.8203 20.9844 14.8203C21.0145 14.8203 21.0391 14.808 21.0391 14.793C21.0391 14.7779 21.0637 14.7656 21.0938 14.7656C21.1238 14.7656 21.1484 14.7533 21.1484 14.7383C21.1484 14.7232 21.173 14.7109 21.2031 14.7109C21.2332 14.7109 21.2578 14.6986 21.2578 14.6836C21.2578 14.6686 21.2824 14.6562 21.3125 14.6562C21.3426 14.6562 21.3672 14.6439 21.3672 14.6289C21.3672 14.6139 21.3918 14.6016 21.4219 14.6016C21.452 14.6016 21.4766 14.5893 21.4766 14.5742C21.4766 14.5592 21.5012 14.5469 21.5312 14.5469C21.5613 14.5469 21.5859 14.5346 21.5859 14.5195C21.5859 14.5045 21.6105 14.4922 21.6406 14.4922C21.6707 14.4922 21.6953 14.4799 21.6953 14.4648C21.6953 14.4498 21.7199 14.4375 21.75 14.4375C21.7801 14.4375 21.8047 14.4252 21.8047 14.4102C21.8047 14.3951 21.8293 14.3828 21.8594 14.3828C21.8895 14.3828 21.9141 14.3705 21.9141 14.3555C21.9141 14.3404 21.9387 14.3281 21.9688 14.3281C21.9988 14.3281 22.0234 14.3158 22.0234 14.3008C22.0234 14.2857 22.048 14.2734 22.0781 14.2734C22.1082 14.2734 22.1328 14.2611 22.1328 14.2461C22.1328 14.2311 22.1574 14.2188 22.1875 14.2188C22.2176 14.2188 22.2422 14.2064 22.2422 14.1914C22.2422 14.1764 22.2668 14.1641 22.2969 14.1641C22.327 14.1641 22.3516 14.1518 22.3516 14.1367C22.3516 14.1217 22.3762 14.1094 22.4062 14.1094C22.4363 14.1094 22.4609 14.0971 22.4609 14.082C22.4609 14.067 22.4855 14.0547 22.5156 14.0547C22.5457 14.0547 22.5703 14.0424 22.5703 14.0273C22.5703 14.0123 22.5949 14 22.625 14C22.6551 14 22.6797 13.9877 22.6797 13.9727C22.6797 13.9576 22.7043 13.9453 22.7344 13.9453C22.7645 13.9453 22.7891 13.933 22.7891 13.918C22.7891 13.9029 22.8137 13.8906 22.8438 13.8906C22.8738 13.8906 22.8984 13.8783 22.8984 13.8633C22.8984 13.8482 22.923 13.8359 22.9531 13.8359C22.9832 13.8359 23.0078 13.8236 23.0078 13.8086C23.0078 13.7936 23.0324 13.7812 23.0625 13.7812C23.0926 13.7812 23.1172 13.7689 23.1172 13.7539C23.1172 13.7389 23.1418 13.7266 23.1719 13.7266C23.202 13.7266 23.2266 13.7143 23.2266 13.6992C23.2266 13.6842 23.2512 13.6719 23.2812 13.6719C23.3113 13.6719 23.3359 13.6596 23.3359 13.6445C23.3359 13.6295 23.3605 13.6172 23.3906 13.6172C23.4207 13.6172 23.4453 13.6049 23.4453 13.5898C23.4453 13.5725 23.6504 13.5625 24.006 13.5625H24.5667L25.1545 14.1502L25.7422 14.738V14.9705V15.2031H24.4023C23.5273 15.2031 23.0625 15.2126 23.0625 15.2305C23.0625 15.2455 23.0379 15.2578 23.0078 15.2578C22.9777 15.2578 22.9531 15.2701 22.9531 15.2852C22.9531 15.3002 22.9285 15.3125 22.8984 15.3125C22.8684 15.3125 22.8438 15.3248 22.8438 15.3398C22.8438 15.3549 22.8247 15.3672 22.8015 15.3672C22.7468 15.3672 22.625 15.489 22.625 15.5437C22.625 15.5669 22.6127 15.5859 22.5977 15.5859C22.5826 15.5859 22.5703 15.6105 22.5703 15.6406C22.5703 15.6707 22.558 15.6953 22.543 15.6953C22.5279 15.6953 22.5156 15.7199 22.5156 15.75C22.5156 15.7801 22.5033 15.8047 22.4883 15.8047C22.4707 15.8047 22.4609 16.0651 22.4609 16.5312C22.4609 17.2913 22.4542 17.3359 22.3398 17.3359C22.3162 17.3359 22.2969 17.3482 22.2969 17.3633C22.2969 17.3783 22.26 17.3906 22.2148 17.3906C22.1697 17.3906 22.1328 17.4029 22.1328 17.418C22.1328 17.433 22.1082 17.4453 22.0781 17.4453C22.048 17.4453 22.0234 17.4576 22.0234 17.4727C22.0234 17.4877 21.9988 17.5 21.9688 17.5C21.9387 17.5 21.9141 17.5123 21.9141 17.5273C21.9141 17.5424 21.8707 17.5547 21.8178 17.5547C21.7295 17.5547 21.6813 17.5143 21.2305 17.0625C20.9604 16.7918 20.7207 16.5703 20.6978 16.5703C20.675 16.5703 20.6562 16.558 20.6562 16.543C20.6562 16.5279 20.6316 16.5156 20.6016 16.5156C20.5715 16.5156 20.5469 16.5033 20.5469 16.4883C20.5469 16.4721 20.4466 16.4609 20.3008 16.4609C20.155 16.4609 20.0547 16.4721 20.0547 16.4883C20.0547 16.5033 20.0178 16.5156 19.9727 16.5156C19.9275 16.5156 19.8906 16.5279 19.8906 16.543C19.8906 16.558 19.872 16.5703 19.8493 16.5703C19.8266 16.5703 19.3776 17.001 18.8516 17.5273L17.8951 18.4844H13.0686C9.86922 18.4844 8.24219 18.4752 8.24219 18.457C8.24219 18.442 8.21758 18.4297 8.1875 18.4297C8.15742 18.4297 8.13281 18.4174 8.13281 18.4023C8.13281 18.3873 8.1082 18.375 8.07812 18.375C8.04805 18.375 8.02344 18.3627 8.02344 18.3477C8.02344 18.3326 8.00443 18.3203 7.98119 18.3203C7.92648 18.3203 7.80469 18.1985 7.80469 18.1438C7.80469 18.1206 7.79238 18.1016 7.77734 18.1016C7.7623 18.1016 7.75 18.077 7.75 18.0469C7.75 18.0168 7.7377 17.9922 7.72266 17.9922C7.70762 17.9922 7.69531 17.9676 7.69531 17.9375C7.69531 17.9074 7.68301 17.8828 7.66797 17.8828C7.65069 17.8828 7.64062 17.6914 7.64062 17.3633V16.8438H8.98047C9.85547 16.8438 10.3203 16.8343 10.3203 16.8164C10.3203 16.8014 10.3449 16.7891 10.375 16.7891C10.4051 16.7891 10.4297 16.7768 10.4297 16.7617C10.4297 16.7467 10.4543 16.7344 10.4844 16.7344C10.5145 16.7344 10.5391 16.7221 10.5391 16.707C10.5391 16.692 10.5581 16.6797 10.5813 16.6797C10.636 16.6797 10.7578 16.5579 10.7578 16.5032C10.7578 16.4799 10.7701 16.4609 10.7852 16.4609C10.8002 16.4609 10.8125 16.4363 10.8125 16.4062C10.8125 16.3762 10.8248 16.3516 10.8398 16.3516C10.8549 16.3516 10.8672 16.327 10.8672 16.2969C10.8672 16.2668 10.8795 16.2422 10.8945 16.2422C10.9105 16.2422 10.9219 16.1511 10.9219 16.0234C10.9219 15.8958 10.9105 15.8047 10.8945 15.8047C10.8795 15.8047 10.8672 15.7801 10.8672 15.75C10.8672 15.7199 10.8549 15.6953 10.8398 15.6953C10.8248 15.6953 10.8125 15.6707 10.8125 15.6406C10.8125 15.6105 10.8002 15.5859 10.7852 15.5859C10.7701 15.5859 10.7578 15.5669 10.7578 15.5437C10.7578 15.489 10.636 15.3672 10.5813 15.3672C10.5581 15.3672 10.5391 15.3549 10.5391 15.3398C10.5391 15.3248 10.5145 15.3125 10.4844 15.3125C10.4543 15.3125 10.4297 15.3002 10.4297 15.2852C10.4297 15.2701 10.4051 15.2578 10.375 15.2578C10.3449 15.2578 10.3203 15.2455 10.3203 15.2305C10.3203 15.2126 9.85547 15.2031 8.98047 15.2031H7.64062V14.9705V14.738L8.22168 14.1525L8.80273 13.567L9.37012 13.5647C9.73163 13.5633 9.9375 13.5724 9.9375 13.5898ZM25.7422 17.4727C25.7422 17.8737 25.7521 18.1016 25.7695 18.1016C25.7846 18.1016 25.7969 18.1358 25.7969 18.1776C25.7969 18.2222 25.8195 18.2698 25.8516 18.293C25.8816 18.3147 25.9062 18.3485 25.9062 18.3683C25.9062 18.4181 26.0866 18.5938 26.1378 18.5938C26.1608 18.5938 26.1797 18.6061 26.1797 18.6211C26.1797 18.6361 26.2043 18.6484 26.2344 18.6484C26.2645 18.6484 26.2891 18.6607 26.2891 18.6758C26.2891 18.6908 26.3383 18.7031 26.3984 18.7031C26.4586 18.7031 26.5078 18.7154 26.5078 18.7305C26.5078 18.7455 26.5447 18.7578 26.5898 18.7578C26.635 18.7578 26.6719 18.7701 26.6719 18.7852C26.6719 18.8002 26.7088 18.8125 26.7539 18.8125C26.799 18.8125 26.8359 18.8248 26.8359 18.8398C26.8359 18.8549 26.8729 18.8672 26.918 18.8672C26.9631 18.8672 27 18.8795 27 18.8945C27 18.9096 27.0246 18.9219 27.0547 18.9219C27.0848 18.9219 27.1094 18.9342 27.1094 18.9492C27.1094 18.9643 27.134 18.9766 27.1641 18.9766C27.1941 18.9766 27.2188 18.9889 27.2188 19.0039C27.2188 19.0189 27.2557 19.0312 27.3008 19.0312C27.3459 19.0312 27.3828 19.0436 27.3828 19.0586C27.3828 19.0736 27.4074 19.0859 27.4375 19.0859C27.4676 19.0859 27.4922 19.0982 27.4922 19.1133C27.4922 19.1283 27.5141 19.1406 27.5408 19.1406C27.5676 19.1406 27.6072 19.1652 27.6289 19.1953C27.6506 19.2254 27.6902 19.25 27.717 19.25C27.7437 19.25 27.7656 19.2623 27.7656 19.2773C27.7656 19.2924 27.7902 19.3047 27.8203 19.3047C27.8504 19.3047 27.875 19.317 27.875 19.332C27.875 19.3471 27.9119 19.3594 27.957 19.3594C28.0021 19.3594 28.0391 19.3717 28.0391 19.3867C28.0391 19.4023 28.1211 19.4141 28.2305 19.4141C28.3398 19.4141 28.4219 19.4023 28.4219 19.3867C28.4219 19.3717 28.4588 19.3594 28.5039 19.3594C28.549 19.3594 28.5859 19.3471 28.5859 19.332C28.5859 19.317 28.6047 19.3047 28.6276 19.3047C28.6505 19.3047 28.8657 19.1076 29.1059 18.8668L29.5425 18.4289L30.131 19.0174L30.7195 19.6059L30.2816 20.0426C30.0408 20.2827 29.8438 20.498 29.8438 20.5209C29.8438 20.5438 29.8314 20.5625 29.8164 20.5625C29.8014 20.5625 29.7891 20.5994 29.7891 20.6445C29.7891 20.6896 29.7768 20.7266 29.7617 20.7266C29.7461 20.7266 29.7344 20.8086 29.7344 20.918C29.7344 21.0273 29.7461 21.1094 29.7617 21.1094C29.7768 21.1094 29.7891 21.1463 29.7891 21.1914C29.7891 21.2365 29.8014 21.2734 29.8164 21.2734C29.8314 21.2734 29.8438 21.298 29.8438 21.3281C29.8438 21.3582 29.8561 21.3828 29.8711 21.3828C29.8861 21.3828 29.8984 21.4047 29.8984 21.4315C29.8984 21.4582 29.923 21.4978 29.9531 21.5195C29.9832 21.5412 30.0078 21.5808 30.0078 21.6076C30.0078 21.6343 30.0201 21.6562 30.0352 21.6562C30.0502 21.6562 30.0625 21.6809 30.0625 21.7109C30.0625 21.741 30.0748 21.7656 30.0898 21.7656C30.1049 21.7656 30.1172 21.8025 30.1172 21.8477C30.1172 21.8928 30.1295 21.9297 30.1445 21.9297C30.1596 21.9297 30.1719 21.9543 30.1719 21.9844C30.1719 22.0145 30.1842 22.0391 30.1992 22.0391C30.2143 22.0391 30.2266 22.0637 30.2266 22.0938C30.2266 22.1238 30.2389 22.1484 30.2539 22.1484C30.2689 22.1484 30.2812 22.1854 30.2812 22.2305C30.2812 22.2756 30.2936 22.3125 30.3086 22.3125C30.3236 22.3125 30.3359 22.3494 30.3359 22.3945C30.3359 22.4396 30.3482 22.4766 30.3633 22.4766C30.3783 22.4766 30.3906 22.5135 30.3906 22.5586C30.3906 22.6037 30.4029 22.6406 30.418 22.6406C30.433 22.6406 30.4453 22.6898 30.4453 22.75C30.4453 22.8102 30.4576 22.8594 30.4727 22.8594C30.4877 22.8594 30.5 22.884 30.5 22.9141C30.5 22.9441 30.5123 22.9688 30.5273 22.9688C30.5424 22.9688 30.5547 22.9876 30.5547 23.0107C30.5547 23.0619 30.7303 23.2422 30.7802 23.2422C30.7999 23.2422 30.8338 23.2668 30.8555 23.2969C30.8786 23.329 30.9263 23.3516 30.9709 23.3516C31.0127 23.3516 31.0469 23.3639 31.0469 23.3789C31.0469 23.3964 31.2839 23.4062 31.7031 23.4062H32.3594V24.2266V25.0469H31.7031C31.2839 25.0469 31.0469 25.0567 31.0469 25.0742C31.0469 25.0893 31.0127 25.1016 30.9709 25.1016C30.9263 25.1016 30.8786 25.1241 30.8555 25.1562C30.8338 25.1863 30.7999 25.2109 30.7802 25.2109C30.7303 25.2109 30.5547 25.3913 30.5547 25.4425C30.5547 25.4655 30.5424 25.4844 30.5273 25.4844C30.5123 25.4844 30.5 25.509 30.5 25.5391C30.5 25.5691 30.4877 25.5938 30.4727 25.5938C30.4576 25.5938 30.4453 25.643 30.4453 25.7031C30.4453 25.7633 30.433 25.8125 30.418 25.8125C30.4029 25.8125 30.3906 25.8494 30.3906 25.8945C30.3906 25.9396 30.3783 25.9766 30.3633 25.9766C30.3482 25.9766 30.3359 26.0135 30.3359 26.0586C30.3359 26.1037 30.3236 26.1406 30.3086 26.1406C30.2936 26.1406 30.2812 26.1775 30.2812 26.2227C30.2812 26.2678 30.2689 26.3047 30.2539 26.3047C30.2389 26.3047 30.2266 26.3293 30.2266 26.3594C30.2266 26.3895 30.2143 26.4141 30.1992 26.4141C30.1842 26.4141 30.1719 26.4387 30.1719 26.4688C30.1719 26.4988 30.1596 26.5234 30.1445 26.5234C30.1295 26.5234 30.1172 26.548 30.1172 26.5781C30.1172 26.6082 30.1049 26.6328 30.0898 26.6328C30.0748 26.6328 30.0625 26.667 30.0625 26.7088C30.0625 26.7534 30.0399 26.8011 30.0078 26.8242C29.9777 26.8459 29.9531 26.8855 29.9531 26.9123C29.9531 26.939 29.9408 26.9609 29.9258 26.9609C29.9107 26.9609 29.8984 26.9855 29.8984 27.0156C29.8984 27.0457 29.8861 27.0703 29.8711 27.0703C29.8561 27.0703 29.8438 27.0949 29.8438 27.125C29.8438 27.1551 29.8314 27.1797 29.8164 27.1797C29.8014 27.1797 29.7891 27.2166 29.7891 27.2617C29.7891 27.3068 29.7768 27.3438 29.7617 27.3438C29.7461 27.3438 29.7344 27.4258 29.7344 27.5352C29.7344 27.6445 29.7461 27.7266 29.7617 27.7266C29.7768 27.7266 29.7891 27.7635 29.7891 27.8086C29.7891 27.8537 29.8014 27.8906 29.8164 27.8906C29.8314 27.8906 29.8438 27.9094 29.8438 27.9322C29.8438 27.9552 30.0408 28.1704 30.2816 28.4105L30.7195 28.8472L30.131 29.4357L29.5425 30.0242L29.1059 29.5863C28.8657 29.3455 28.6505 29.1484 28.6276 29.1484C28.6047 29.1484 28.5859 29.1361 28.5859 29.1211C28.5859 29.1061 28.549 29.0938 28.5039 29.0938C28.4588 29.0938 28.4219 29.0814 28.4219 29.0664C28.4219 29.0508 28.3398 29.0391 28.2305 29.0391C28.1211 29.0391 28.0391 29.0508 28.0391 29.0664C28.0391 29.0814 28.0021 29.0938 27.957 29.0938C27.9119 29.0938 27.875 29.1061 27.875 29.1211C27.875 29.1361 27.8504 29.1484 27.8203 29.1484C27.7902 29.1484 27.7656 29.1607 27.7656 29.1758C27.7656 29.1908 27.741 29.2031 27.7109 29.2031C27.6809 29.2031 27.6562 29.2154 27.6562 29.2305C27.6562 29.2455 27.6343 29.2578 27.6076 29.2578C27.5808 29.2578 27.5412 29.2824 27.5195 29.3125C27.4978 29.3426 27.4582 29.3672 27.4315 29.3672C27.4047 29.3672 27.3828 29.3795 27.3828 29.3945C27.3828 29.4096 27.3459 29.4219 27.3008 29.4219C27.2557 29.4219 27.2188 29.4342 27.2188 29.4492C27.2188 29.4643 27.1941 29.4766 27.1641 29.4766C27.134 29.4766 27.1094 29.4889 27.1094 29.5039C27.1094 29.5189 27.0848 29.5312 27.0547 29.5312C27.0246 29.5312 27 29.5436 27 29.5586C27 29.5736 26.9631 29.5859 26.918 29.5859C26.8729 29.5859 26.8359 29.5982 26.8359 29.6133C26.8359 29.6283 26.799 29.6406 26.7539 29.6406C26.7088 29.6406 26.6719 29.6529 26.6719 29.668C26.6719 29.683 26.635 29.6953 26.5898 29.6953C26.5447 29.6953 26.5078 29.7076 26.5078 29.7227C26.5078 29.7377 26.4586 29.75 26.3984 29.75C26.3383 29.75 26.2891 29.7623 26.2891 29.7773C26.2891 29.7924 26.2645 29.8047 26.2344 29.8047C26.2043 29.8047 26.1797 29.817 26.1797 29.832C26.1797 29.8471 26.1608 29.8594 26.1378 29.8594C26.0866 29.8594 25.9062 30.035 25.9062 30.0849C25.9062 30.1046 25.8816 30.1385 25.8516 30.1602C25.8195 30.1833 25.7969 30.2309 25.7969 30.2756C25.7969 30.3174 25.7846 30.3516 25.7695 30.3516C25.7521 30.3516 25.7422 30.5794 25.7422 30.9805V31.6094H24.9219H24.1016V30.9805C24.1016 30.5794 24.0917 30.3516 24.0742 30.3516C24.0592 30.3516 24.0469 30.3174 24.0469 30.2756C24.0469 30.2309 24.0243 30.1833 23.9922 30.1602C23.9621 30.1385 23.9375 30.1046 23.9375 30.0849C23.9375 30.035 23.7572 29.8594 23.706 29.8594C23.6829 29.8594 23.6641 29.8471 23.6641 29.832C23.6641 29.817 23.6395 29.8047 23.6094 29.8047C23.5793 29.8047 23.5547 29.7924 23.5547 29.7773C23.5547 29.7623 23.5178 29.75 23.4727 29.75C23.4275 29.75 23.3906 29.7377 23.3906 29.7227C23.3906 29.7076 23.3414 29.6953 23.2812 29.6953C23.2211 29.6953 23.1719 29.683 23.1719 29.668C23.1719 29.6529 23.135 29.6406 23.0898 29.6406C23.0447 29.6406 23.0078 29.6283 23.0078 29.6133C23.0078 29.5982 22.9832 29.5859 22.9531 29.5859C22.923 29.5859 22.8984 29.5736 22.8984 29.5586C22.8984 29.5436 22.8615 29.5312 22.8164 29.5312C22.7713 29.5312 22.7344 29.5189 22.7344 29.5039C22.7344 29.4889 22.7098 29.4766 22.6797 29.4766C22.6496 29.4766 22.625 29.4643 22.625 29.4492C22.625 29.4342 22.5881 29.4219 22.543 29.4219C22.4979 29.4219 22.4609 29.4096 22.4609 29.3945C22.4609 29.3795 22.4363 29.3672 22.4062 29.3672C22.3762 29.3672 22.3516 29.3549 22.3516 29.3398C22.3516 29.3248 22.3297 29.3125 22.3029 29.3125C22.2761 29.3125 22.2365 29.2879 22.2148 29.2578C22.1932 29.2277 22.1535 29.2031 22.1268 29.2031C22.1 29.2031 22.0781 29.1908 22.0781 29.1758C22.0781 29.1607 22.0535 29.1484 22.0234 29.1484C21.9934 29.1484 21.9688 29.1361 21.9688 29.1211C21.9688 29.1061 21.9318 29.0938 21.8867 29.0938C21.8416 29.0938 21.8047 29.0814 21.8047 29.0664C21.8047 29.0508 21.7227 29.0391 21.6133 29.0391C21.5039 29.0391 21.4219 29.0508 21.4219 29.0664C21.4219 29.0814 21.385 29.0938 21.3398 29.0938C21.2947 29.0938 21.2578 29.1061 21.2578 29.1211C21.2578 29.1361 21.2391 29.1484 21.2162 29.1484C21.1933 29.1484 20.9781 29.3455 20.7379 29.5863L20.3012 30.0242L19.7127 29.4357L19.1242 28.8472L19.5621 28.4105C19.803 28.1704 20 27.9552 20 27.9322C20 27.9094 20.0123 27.8906 20.0273 27.8906C20.0424 27.8906 20.0547 27.8537 20.0547 27.8086C20.0547 27.7635 20.067 27.7266 20.082 27.7266C20.0976 27.7266 20.1094 27.6445 20.1094 27.5352C20.1094 27.4258 20.0976 27.3438 20.082 27.3438C20.067 27.3438 20.0547 27.3068 20.0547 27.2617C20.0547 27.2166 20.0424 27.1797 20.0273 27.1797C20.0123 27.1797 20 27.1551 20 27.125C20 27.0949 19.9877 27.0703 19.9727 27.0703C19.9576 27.0703 19.9453 27.0484 19.9453 27.0217C19.9453 26.9949 19.9207 26.9553 19.8906 26.9336C19.8605 26.9119 19.8359 26.8723 19.8359 26.8455C19.8359 26.8188 19.8236 26.7969 19.8086 26.7969C19.7936 26.7969 19.7812 26.7723 19.7812 26.7422C19.7812 26.7121 19.7689 26.6875 19.7539 26.6875C19.7389 26.6875 19.7266 26.6506 19.7266 26.6055C19.7266 26.5604 19.7143 26.5234 19.6992 26.5234C19.6842 26.5234 19.6719 26.4988 19.6719 26.4688C19.6719 26.4387 19.6596 26.4141 19.6445 26.4141C19.6295 26.4141 19.6172 26.3895 19.6172 26.3594C19.6172 26.3293 19.6049 26.3047 19.5898 26.3047C19.5748 26.3047 19.5625 26.2678 19.5625 26.2227C19.5625 26.1775 19.5502 26.1406 19.5352 26.1406C19.5201 26.1406 19.5078 26.1037 19.5078 26.0586C19.5078 26.0135 19.4955 25.9766 19.4805 25.9766C19.4654 25.9766 19.4531 25.9396 19.4531 25.8945C19.4531 25.8494 19.4408 25.8125 19.4258 25.8125C19.4107 25.8125 19.3984 25.7633 19.3984 25.7031C19.3984 25.643 19.3861 25.5938 19.3711 25.5938C19.3561 25.5938 19.3438 25.5691 19.3438 25.5391C19.3438 25.509 19.3314 25.4844 19.3164 25.4844C19.3014 25.4844 19.2891 25.4656 19.2891 25.4426C19.2891 25.3884 19.0569 25.1562 19.0027 25.1562C18.9797 25.1562 18.9609 25.1439 18.9609 25.1289C18.9609 25.1139 18.924 25.1016 18.8789 25.1016C18.8338 25.1016 18.7969 25.0893 18.7969 25.0742C18.7969 25.0568 18.569 25.0469 18.168 25.0469H17.5391V24.2266V23.4062H18.168C18.569 23.4062 18.7969 23.3964 18.7969 23.3789C18.7969 23.3639 18.8311 23.3516 18.8729 23.3516C18.9175 23.3516 18.9651 23.329 18.9883 23.2969C19.01 23.2668 19.0438 23.2422 19.0636 23.2422C19.1134 23.2422 19.2891 23.0619 19.2891 23.0107C19.2891 22.9876 19.3014 22.9688 19.3164 22.9688C19.3314 22.9688 19.3438 22.9441 19.3438 22.9141C19.3438 22.884 19.3561 22.8594 19.3711 22.8594C19.3861 22.8594 19.3984 22.8102 19.3984 22.75C19.3984 22.6898 19.4107 22.6406 19.4258 22.6406C19.4408 22.6406 19.4531 22.6037 19.4531 22.5586C19.4531 22.5135 19.4654 22.4766 19.4805 22.4766C19.4955 22.4766 19.5078 22.4396 19.5078 22.3945C19.5078 22.3494 19.5201 22.3125 19.5352 22.3125C19.5502 22.3125 19.5625 22.2756 19.5625 22.2305C19.5625 22.1854 19.5748 22.1484 19.5898 22.1484C19.6049 22.1484 19.6172 22.1238 19.6172 22.0938C19.6172 22.0637 19.6295 22.0391 19.6445 22.0391C19.6596 22.0391 19.6719 22.0145 19.6719 21.9844C19.6719 21.9543 19.6842 21.9297 19.6992 21.9297C19.7143 21.9297 19.7266 21.8928 19.7266 21.8477C19.7266 21.8025 19.7389 21.7656 19.7539 21.7656C19.7689 21.7656 19.7812 21.741 19.7812 21.7109C19.7812 21.6809 19.7936 21.6562 19.8086 21.6562C19.8236 21.6562 19.8359 21.6343 19.8359 21.6076C19.8359 21.5808 19.8605 21.5412 19.8906 21.5195C19.9207 21.4978 19.9453 21.4582 19.9453 21.4315C19.9453 21.4047 19.9576 21.3828 19.9727 21.3828C19.9877 21.3828 20 21.3582 20 21.3281C20 21.298 20.0123 21.2734 20.0273 21.2734C20.0424 21.2734 20.0547 21.2365 20.0547 21.1914C20.0547 21.1463 20.067 21.1094 20.082 21.1094C20.0976 21.1094 20.1094 21.0273 20.1094 20.918C20.1094 20.8086 20.0976 20.7266 20.082 20.7266C20.067 20.7266 20.0547 20.6896 20.0547 20.6445C20.0547 20.5994 20.0424 20.5625 20.0273 20.5625C20.0123 20.5625 20 20.5438 20 20.5209C20 20.498 19.803 20.2827 19.5621 20.0426L19.1242 19.6059L19.7127 19.0174L20.3012 18.4289L20.7379 18.8668C20.9781 19.1076 21.1933 19.3047 21.2162 19.3047C21.2391 19.3047 21.2578 19.317 21.2578 19.332C21.2578 19.3471 21.2947 19.3594 21.3398 19.3594C21.385 19.3594 21.4219 19.3717 21.4219 19.3867C21.4219 19.4023 21.5039 19.4141 21.6133 19.4141C21.7227 19.4141 21.8047 19.4023 21.8047 19.3867C21.8047 19.3717 21.8416 19.3594 21.8867 19.3594C21.9318 19.3594 21.9688 19.3471 21.9688 19.332C21.9688 19.317 21.9934 19.3047 22.0234 19.3047C22.0535 19.3047 22.0781 19.2924 22.0781 19.2773C22.0781 19.2623 22.1 19.25 22.1268 19.25C22.1535 19.25 22.1932 19.2254 22.2148 19.1953C22.2365 19.1652 22.2761 19.1406 22.3029 19.1406C22.3297 19.1406 22.3516 19.1283 22.3516 19.1133C22.3516 19.0982 22.3762 19.0859 22.4062 19.0859C22.4363 19.0859 22.4609 19.0736 22.4609 19.0586C22.4609 19.0436 22.4979 19.0312 22.543 19.0312C22.5881 19.0312 22.625 19.0189 22.625 19.0039C22.625 18.9889 22.6496 18.9766 22.6797 18.9766C22.7098 18.9766 22.7344 18.9643 22.7344 18.9492C22.7344 18.9342 22.7713 18.9219 22.8164 18.9219C22.8615 18.9219 22.8984 18.9096 22.8984 18.8945C22.8984 18.8795 22.923 18.8672 22.9531 18.8672C22.9832 18.8672 23.0078 18.8549 23.0078 18.8398C23.0078 18.8248 23.0447 18.8125 23.0898 18.8125C23.135 18.8125 23.1719 18.8002 23.1719 18.7852C23.1719 18.7701 23.2211 18.7578 23.2812 18.7578C23.3414 18.7578 23.3906 18.7455 23.3906 18.7305C23.3906 18.7154 23.4275 18.7031 23.4727 18.7031C23.5178 18.7031 23.5547 18.6908 23.5547 18.6758C23.5547 18.6607 23.5793 18.6484 23.6094 18.6484C23.6395 18.6484 23.6641 18.6361 23.6641 18.6211C23.6641 18.6061 23.6829 18.5938 23.706 18.5938C23.7572 18.5938 23.9375 18.4181 23.9375 18.3683C23.9375 18.3485 23.9621 18.3147 23.9922 18.293C24.0243 18.2698 24.0469 18.2222 24.0469 18.1776C24.0469 18.1358 24.0592 18.1016 24.0742 18.1016C24.0917 18.1016 24.1016 17.8737 24.1016 17.4727V16.8438H24.9219H25.7422V17.4727ZM10.9219 20.9453V21.7656H10.1016H9.28125V20.9453V20.125H10.1016H10.9219V20.9453ZM24.4297 20.1523C24.4297 20.1675 24.3568 20.1797 24.2656 20.1797C24.1745 20.1797 24.1016 20.1918 24.1016 20.207C24.1016 20.2221 24.0523 20.2344 23.9922 20.2344C23.932 20.2344 23.8828 20.2467 23.8828 20.2617C23.8828 20.2768 23.8336 20.2891 23.7734 20.2891C23.7133 20.2891 23.6641 20.3014 23.6641 20.3164C23.6641 20.3314 23.6271 20.3438 23.582 20.3438C23.5369 20.3438 23.5 20.3561 23.5 20.3711C23.5 20.3861 23.4754 20.3984 23.4453 20.3984C23.4152 20.3984 23.3906 20.4107 23.3906 20.4258C23.3906 20.4408 23.366 20.4531 23.3359 20.4531C23.3059 20.4531 23.2812 20.4654 23.2812 20.4805C23.2812 20.4955 23.2443 20.5078 23.1992 20.5078C23.1541 20.5078 23.1172 20.5201 23.1172 20.5352C23.1172 20.5502 23.0926 20.5625 23.0625 20.5625C23.0324 20.5625 23.0078 20.5748 23.0078 20.5898C23.0078 20.6049 22.9859 20.6172 22.9592 20.6172C22.9324 20.6172 22.8928 20.6418 22.8711 20.6719C22.8494 20.702 22.8125 20.7266 22.7891 20.7266C22.7656 20.7266 22.7287 20.7512 22.707 20.7812C22.6853 20.8113 22.6484 20.8359 22.625 20.8359C22.6016 20.8359 22.5647 20.8605 22.543 20.8906C22.5213 20.9207 22.4872 20.9453 22.4673 20.9453C22.4473 20.9453 22.346 21.0314 22.2422 21.1367C22.1384 21.242 22.0344 21.3281 22.0111 21.3281C21.9878 21.3281 21.9688 21.3473 21.9688 21.3706C21.9688 21.3941 21.8949 21.4857 21.8047 21.5742C21.7145 21.6628 21.6406 21.7517 21.6406 21.7717C21.6406 21.7918 21.616 21.826 21.5859 21.8477C21.5559 21.8693 21.5312 21.9063 21.5312 21.9297C21.5312 21.9531 21.5066 21.99 21.4766 22.0117C21.4465 22.0334 21.4219 22.0703 21.4219 22.0938C21.4219 22.1172 21.3973 22.1541 21.3672 22.1758C21.3371 22.1975 21.3125 22.2371 21.3125 22.2639C21.3125 22.2906 21.3002 22.3125 21.2852 22.3125C21.2701 22.3125 21.2578 22.3371 21.2578 22.3672C21.2578 22.3973 21.2455 22.4219 21.2305 22.4219C21.2154 22.4219 21.2031 22.4465 21.2031 22.4766C21.2031 22.5066 21.1908 22.5312 21.1758 22.5312C21.1607 22.5312 21.1484 22.5682 21.1484 22.6133C21.1484 22.6584 21.1361 22.6953 21.1211 22.6953C21.1061 22.6953 21.0938 22.7199 21.0938 22.75C21.0938 22.7801 21.0814 22.8047 21.0664 22.8047C21.0514 22.8047 21.0391 22.8416 21.0391 22.8867C21.0391 22.9318 21.0268 22.9688 21.0117 22.9688C20.9967 22.9688 20.9844 23.018 20.9844 23.0781C20.9844 23.1383 20.9721 23.1875 20.957 23.1875C20.942 23.1875 20.9297 23.2367 20.9297 23.2969C20.9297 23.357 20.9174 23.4062 20.9023 23.4062C20.8871 23.4062 20.875 23.4792 20.875 23.5703C20.875 23.6614 20.8629 23.7344 20.8477 23.7344C20.8304 23.7344 20.8203 23.9167 20.8203 24.2266C20.8203 24.5364 20.8304 24.7188 20.8477 24.7188C20.8629 24.7188 20.875 24.7917 20.875 24.8828C20.875 24.9739 20.8871 25.0469 20.9023 25.0469C20.9174 25.0469 20.9297 25.0961 20.9297 25.1562C20.9297 25.2164 20.942 25.2656 20.957 25.2656C20.9721 25.2656 20.9844 25.3148 20.9844 25.375C20.9844 25.4352 20.9967 25.4844 21.0117 25.4844C21.0268 25.4844 21.0391 25.5213 21.0391 25.5664C21.0391 25.6115 21.0514 25.6484 21.0664 25.6484C21.0814 25.6484 21.0938 25.673 21.0938 25.7031C21.0938 25.7332 21.1061 25.7578 21.1211 25.7578C21.1361 25.7578 21.1484 25.7824 21.1484 25.8125C21.1484 25.8426 21.1607 25.8672 21.1758 25.8672C21.1908 25.8672 21.2031 25.9041 21.2031 25.9492C21.2031 25.9943 21.2154 26.0312 21.2305 26.0312C21.2455 26.0312 21.2578 26.0532 21.2578 26.0799C21.2578 26.1067 21.2824 26.1463 21.3125 26.168C21.3426 26.1897 21.3672 26.2293 21.3672 26.256C21.3672 26.2828 21.3795 26.3047 21.3945 26.3047C21.4096 26.3047 21.4219 26.3266 21.4219 26.3533C21.4219 26.3801 21.4465 26.4197 21.4766 26.4414C21.5066 26.4631 21.5312 26.5 21.5312 26.5234C21.5312 26.5469 21.5559 26.5838 21.5859 26.6055C21.616 26.6272 21.6406 26.6607 21.6406 26.6801C21.6406 26.7261 22.4224 27.5078 22.4683 27.5078C22.4877 27.5078 22.5213 27.5324 22.543 27.5625C22.5647 27.5926 22.6016 27.6172 22.625 27.6172C22.6484 27.6172 22.6853 27.6418 22.707 27.6719C22.7287 27.702 22.7683 27.7266 22.7951 27.7266C22.8218 27.7266 22.8438 27.7389 22.8438 27.7539C22.8438 27.7689 22.8657 27.7812 22.8924 27.7812C22.9192 27.7812 22.9588 27.8059 22.9805 27.8359C23.0022 27.866 23.0418 27.8906 23.0685 27.8906C23.0953 27.8906 23.1172 27.9029 23.1172 27.918C23.1172 27.933 23.1541 27.9453 23.1992 27.9453C23.2443 27.9453 23.2812 27.9576 23.2812 27.9727C23.2812 27.9877 23.3059 28 23.3359 28C23.366 28 23.3906 28.0123 23.3906 28.0273C23.3906 28.0424 23.4152 28.0547 23.4453 28.0547C23.4754 28.0547 23.5 28.067 23.5 28.082C23.5 28.0971 23.5369 28.1094 23.582 28.1094C23.6271 28.1094 23.6641 28.1217 23.6641 28.1367C23.6641 28.1518 23.7133 28.1641 23.7734 28.1641C23.8336 28.1641 23.8828 28.1764 23.8828 28.1914C23.8828 28.2064 23.932 28.2188 23.9922 28.2188C24.0523 28.2188 24.1016 28.2311 24.1016 28.2461C24.1016 28.2613 24.1745 28.2734 24.2656 28.2734C24.3568 28.2734 24.4297 28.2856 24.4297 28.3008C24.4297 28.318 24.612 28.3281 24.9219 28.3281C25.2318 28.3281 25.4141 28.318 25.4141 28.3008C25.4141 28.2856 25.487 28.2734 25.5781 28.2734C25.6693 28.2734 25.7422 28.2613 25.7422 28.2461C25.7422 28.2311 25.7914 28.2188 25.8516 28.2188C25.9117 28.2188 25.9609 28.2064 25.9609 28.1914C25.9609 28.1764 26.0102 28.1641 26.0703 28.1641C26.1305 28.1641 26.1797 28.1518 26.1797 28.1367C26.1797 28.1217 26.2166 28.1094 26.2617 28.1094C26.3068 28.1094 26.3438 28.0971 26.3438 28.082C26.3438 28.067 26.3684 28.0547 26.3984 28.0547C26.4285 28.0547 26.4531 28.0424 26.4531 28.0273C26.4531 28.0123 26.49 28 26.5352 28C26.5803 28 26.6172 27.9877 26.6172 27.9727C26.6172 27.9576 26.6418 27.9453 26.6719 27.9453C26.702 27.9453 26.7266 27.933 26.7266 27.918C26.7266 27.9029 26.7485 27.8906 26.7752 27.8906C26.802 27.8906 26.8416 27.866 26.8633 27.8359C26.885 27.8059 26.9246 27.7812 26.9514 27.7812C26.9781 27.7812 27 27.7689 27 27.7539C27 27.7389 27.0219 27.7266 27.0486 27.7266C27.0754 27.7266 27.115 27.702 27.1367 27.6719C27.1584 27.6418 27.1953 27.6172 27.2188 27.6172C27.2422 27.6172 27.2791 27.5926 27.3008 27.5625C27.3225 27.5324 27.3566 27.5078 27.3767 27.5078C27.3968 27.5078 27.4857 27.434 27.5742 27.3438C27.6628 27.2535 27.7491 27.1797 27.7661 27.1797C27.8058 27.1797 27.875 27.1105 27.875 27.0707C27.875 27.0538 27.9488 26.9675 28.0391 26.8789C28.1293 26.7903 28.2031 26.7014 28.2031 26.6814C28.2031 26.6613 28.2277 26.6272 28.2578 26.6055C28.2879 26.5838 28.3125 26.5469 28.3125 26.5234C28.3125 26.5 28.3371 26.4631 28.3672 26.4414C28.3973 26.4197 28.4219 26.3801 28.4219 26.3533C28.4219 26.3266 28.4342 26.3047 28.4492 26.3047C28.4643 26.3047 28.4766 26.2828 28.4766 26.256C28.4766 26.2293 28.5012 26.1897 28.5312 26.168C28.5613 26.1463 28.5859 26.1067 28.5859 26.0799C28.5859 26.0532 28.5982 26.0312 28.6133 26.0312C28.6283 26.0312 28.6406 26.0066 28.6406 25.9766C28.6406 25.9465 28.6529 25.9219 28.668 25.9219C28.683 25.9219 28.6953 25.885 28.6953 25.8398C28.6953 25.7947 28.7076 25.7578 28.7227 25.7578C28.7377 25.7578 28.75 25.7332 28.75 25.7031C28.75 25.673 28.7623 25.6484 28.7773 25.6484C28.7924 25.6484 28.8047 25.6115 28.8047 25.5664C28.8047 25.5213 28.817 25.4844 28.832 25.4844C28.8471 25.4844 28.8594 25.4352 28.8594 25.375C28.8594 25.3148 28.8717 25.2656 28.8867 25.2656C28.9018 25.2656 28.9141 25.2164 28.9141 25.1562C28.9141 25.0961 28.9264 25.0469 28.9414 25.0469C28.957 25.0469 28.9688 24.9648 28.9688 24.8555C28.9688 24.7461 28.9805 24.6641 28.9961 24.6641C29.0132 24.6641 29.0234 24.4909 29.0234 24.1992C29.0234 23.9075 29.0132 23.7344 28.9961 23.7344C28.9809 23.7344 28.9688 23.6614 28.9688 23.5703C28.9688 23.4792 28.9566 23.4062 28.9414 23.4062C28.9264 23.4062 28.9141 23.357 28.9141 23.2969C28.9141 23.2367 28.9018 23.1875 28.8867 23.1875C28.8717 23.1875 28.8594 23.1383 28.8594 23.0781C28.8594 23.018 28.8471 22.9688 28.832 22.9688C28.817 22.9688 28.8047 22.9318 28.8047 22.8867C28.8047 22.8416 28.7924 22.8047 28.7773 22.8047C28.7623 22.8047 28.75 22.7801 28.75 22.75C28.75 22.7199 28.7377 22.6953 28.7227 22.6953C28.7076 22.6953 28.6953 22.6707 28.6953 22.6406C28.6953 22.6105 28.683 22.5859 28.668 22.5859C28.6529 22.5859 28.6406 22.549 28.6406 22.5039C28.6406 22.4588 28.6283 22.4219 28.6133 22.4219C28.5982 22.4219 28.5859 22.4 28.5859 22.3732C28.5859 22.3465 28.5613 22.3068 28.5312 22.2852C28.5012 22.2635 28.4766 22.2239 28.4766 22.1971C28.4766 22.1703 28.4643 22.1484 28.4492 22.1484C28.4342 22.1484 28.4219 22.1265 28.4219 22.0998C28.4219 22.073 28.3973 22.0334 28.3672 22.0117C28.3371 21.99 28.3125 21.9531 28.3125 21.9297C28.3125 21.9063 28.2879 21.8693 28.2578 21.8477C28.2277 21.826 28.2031 21.7919 28.2031 21.7719C28.2031 21.752 28.117 21.6507 28.0117 21.5469C27.9064 21.4431 27.8203 21.3391 27.8203 21.3158C27.8203 21.2925 27.8012 21.2734 27.7778 21.2734C27.7544 21.2734 27.6628 21.1996 27.5742 21.1094C27.4857 21.0191 27.3968 20.9453 27.3767 20.9453C27.3566 20.9453 27.3225 20.9207 27.3008 20.8906C27.2791 20.8605 27.2422 20.8359 27.2188 20.8359C27.1953 20.8359 27.1584 20.8113 27.1367 20.7812C27.115 20.7512 27.0754 20.7266 27.0486 20.7266C27.0219 20.7266 27 20.7143 27 20.6992C27 20.6842 26.9781 20.6719 26.9514 20.6719C26.9246 20.6719 26.885 20.6473 26.8633 20.6172C26.8416 20.5871 26.802 20.5625 26.7752 20.5625C26.7485 20.5625 26.7266 20.5502 26.7266 20.5352C26.7266 20.5201 26.702 20.5078 26.6719 20.5078C26.6418 20.5078 26.6172 20.4955 26.6172 20.4805C26.6172 20.4654 26.5803 20.4531 26.5352 20.4531C26.49 20.4531 26.4531 20.4408 26.4531 20.4258C26.4531 20.4107 26.4285 20.3984 26.3984 20.3984C26.3684 20.3984 26.3438 20.3861 26.3438 20.3711C26.3438 20.3561 26.3068 20.3438 26.2617 20.3438C26.2166 20.3438 26.1797 20.3314 26.1797 20.3164C26.1797 20.3014 26.1305 20.2891 26.0703 20.2891C26.0102 20.2891 25.9609 20.2768 25.9609 20.2617C25.9609 20.2467 25.9117 20.2344 25.8516 20.2344C25.7914 20.2344 25.7422 20.2221 25.7422 20.207C25.7422 20.1918 25.6693 20.1797 25.5781 20.1797C25.487 20.1797 25.4141 20.1675 25.4141 20.1523C25.4141 20.1351 25.2318 20.125 24.9219 20.125C24.612 20.125 24.4297 20.1351 24.4297 20.1523ZM25.25 21.793C25.25 21.808 25.3115 21.8203 25.3867 21.8203C25.4619 21.8203 25.5234 21.8326 25.5234 21.8477C25.5234 21.8627 25.5727 21.875 25.6328 21.875C25.693 21.875 25.7422 21.8873 25.7422 21.9023C25.7422 21.9174 25.7668 21.9297 25.7969 21.9297C25.827 21.9297 25.8516 21.942 25.8516 21.957C25.8516 21.9721 25.8885 21.9844 25.9336 21.9844C25.9787 21.9844 26.0156 21.9967 26.0156 22.0117C26.0156 22.0268 26.0375 22.0391 26.0643 22.0391C26.091 22.0391 26.1307 22.0637 26.1523 22.0938C26.174 22.1238 26.2109 22.1484 26.2344 22.1484C26.2578 22.1484 26.2947 22.173 26.3164 22.2031C26.3381 22.2332 26.3717 22.2578 26.3912 22.2578C26.4373 22.2578 26.8906 22.7111 26.8906 22.7572C26.8906 22.7767 26.9152 22.8103 26.9453 22.832C26.9754 22.8537 27 22.8933 27 22.9201C27 22.9468 27.0123 22.9688 27.0273 22.9688C27.0424 22.9688 27.0547 22.9934 27.0547 23.0234C27.0547 23.0535 27.067 23.0781 27.082 23.0781C27.0971 23.0781 27.1094 23.1027 27.1094 23.1328C27.1094 23.1629 27.1217 23.1875 27.1367 23.1875C27.1518 23.1875 27.1641 23.2121 27.1641 23.2422C27.1641 23.2723 27.1764 23.2969 27.1914 23.2969C27.2064 23.2969 27.2188 23.3215 27.2188 23.3516C27.2188 23.3816 27.2311 23.4062 27.2461 23.4062C27.2611 23.4062 27.2734 23.4555 27.2734 23.5156C27.2734 23.5758 27.2857 23.625 27.3008 23.625C27.3158 23.625 27.3281 23.6865 27.3281 23.7617C27.3281 23.8369 27.3404 23.8984 27.3555 23.8984C27.3722 23.8984 27.3828 24.0261 27.3828 24.2266C27.3828 24.4271 27.3722 24.5547 27.3555 24.5547C27.3404 24.5547 27.3281 24.6162 27.3281 24.6914C27.3281 24.7666 27.3158 24.8281 27.3008 24.8281C27.2857 24.8281 27.2734 24.8773 27.2734 24.9375C27.2734 24.9977 27.2611 25.0469 27.2461 25.0469C27.2311 25.0469 27.2188 25.0715 27.2188 25.1016C27.2188 25.1316 27.2064 25.1562 27.1914 25.1562C27.1764 25.1562 27.1641 25.1809 27.1641 25.2109C27.1641 25.241 27.1518 25.2656 27.1367 25.2656C27.1217 25.2656 27.1094 25.2902 27.1094 25.3203C27.1094 25.3504 27.0971 25.375 27.082 25.375C27.067 25.375 27.0547 25.3996 27.0547 25.4297C27.0547 25.4598 27.0424 25.4844 27.0273 25.4844C27.0123 25.4844 27 25.5063 27 25.533C27 25.5598 26.9754 25.5994 26.9453 25.6211C26.9152 25.6428 26.8906 25.6764 26.8906 25.6959C26.8906 25.742 26.4373 26.1953 26.3912 26.1953C26.3717 26.1953 26.3381 26.2199 26.3164 26.25C26.2947 26.2801 26.2551 26.3047 26.2283 26.3047C26.2016 26.3047 26.1797 26.317 26.1797 26.332C26.1797 26.3471 26.1551 26.3594 26.125 26.3594C26.0949 26.3594 26.0703 26.3717 26.0703 26.3867C26.0703 26.4018 26.0457 26.4141 26.0156 26.4141C25.9855 26.4141 25.9609 26.4264 25.9609 26.4414C25.9609 26.4564 25.9363 26.4688 25.9062 26.4688C25.8762 26.4688 25.8516 26.4811 25.8516 26.4961C25.8516 26.5111 25.827 26.5234 25.7969 26.5234C25.7668 26.5234 25.7422 26.5357 25.7422 26.5508C25.7422 26.5658 25.693 26.5781 25.6328 26.5781C25.5727 26.5781 25.5234 26.5904 25.5234 26.6055C25.5234 26.6205 25.4619 26.6328 25.3867 26.6328C25.3115 26.6328 25.25 26.6451 25.25 26.6602C25.25 26.6769 25.1224 26.6875 24.9219 26.6875C24.7214 26.6875 24.5938 26.6769 24.5938 26.6602C24.5938 26.6451 24.5322 26.6328 24.457 26.6328C24.3818 26.6328 24.3203 26.6205 24.3203 26.6055C24.3203 26.5904 24.2711 26.5781 24.2109 26.5781C24.1508 26.5781 24.1016 26.5658 24.1016 26.5508C24.1016 26.5357 24.077 26.5234 24.0469 26.5234C24.0168 26.5234 23.9922 26.5111 23.9922 26.4961C23.9922 26.4811 23.9676 26.4688 23.9375 26.4688C23.9074 26.4688 23.8828 26.4564 23.8828 26.4414C23.8828 26.4264 23.8582 26.4141 23.8281 26.4141C23.798 26.4141 23.7734 26.4018 23.7734 26.3867C23.7734 26.3717 23.7488 26.3594 23.7188 26.3594C23.6887 26.3594 23.6641 26.3471 23.6641 26.332C23.6641 26.317 23.6422 26.3047 23.6154 26.3047C23.5886 26.3047 23.549 26.2801 23.5273 26.25C23.5057 26.2199 23.472 26.1953 23.4526 26.1953C23.4064 26.1953 22.9531 25.742 22.9531 25.6959C22.9531 25.6764 22.9285 25.6428 22.8984 25.6211C22.8684 25.5994 22.8438 25.5625 22.8438 25.5391C22.8438 25.5156 22.8191 25.4787 22.7891 25.457C22.757 25.4339 22.7344 25.3862 22.7344 25.3416C22.7344 25.2998 22.7221 25.2656 22.707 25.2656C22.692 25.2656 22.6797 25.241 22.6797 25.2109C22.6797 25.1809 22.6674 25.1562 22.6523 25.1562C22.6373 25.1562 22.625 25.1316 22.625 25.1016C22.625 25.0715 22.6127 25.0469 22.5977 25.0469C22.5826 25.0469 22.5703 24.9977 22.5703 24.9375C22.5703 24.8773 22.558 24.8281 22.543 24.8281C22.5279 24.8281 22.5156 24.7666 22.5156 24.6914C22.5156 24.6162 22.5033 24.5547 22.4883 24.5547C22.4716 24.5547 22.4609 24.4271 22.4609 24.2266C22.4609 24.0261 22.4716 23.8984 22.4883 23.8984C22.5033 23.8984 22.5156 23.8369 22.5156 23.7617C22.5156 23.6865 22.5279 23.625 22.543 23.625C22.558 23.625 22.5703 23.5758 22.5703 23.5156C22.5703 23.4555 22.5826 23.4062 22.5977 23.4062C22.6127 23.4062 22.625 23.3816 22.625 23.3516C22.625 23.3215 22.6373 23.2969 22.6523 23.2969C22.6674 23.2969 22.6797 23.26 22.6797 23.2148C22.6797 23.1697 22.692 23.1328 22.707 23.1328C22.7221 23.1328 22.7344 23.1109 22.7344 23.0842C22.7344 23.0574 22.759 23.0178 22.7891 22.9961C22.8191 22.9744 22.8438 22.9375 22.8438 22.9141C22.8438 22.8906 22.8684 22.8537 22.8984 22.832C22.9285 22.8103 22.9531 22.7767 22.9531 22.7572C22.9531 22.7378 23.0576 22.6175 23.1852 22.4899C23.3128 22.3622 23.4331 22.2578 23.4526 22.2578C23.472 22.2578 23.5057 22.2332 23.5273 22.2031C23.549 22.173 23.5859 22.1484 23.6094 22.1484C23.6328 22.1484 23.6697 22.1238 23.6914 22.0938C23.7146 22.0616 23.7622 22.0391 23.8068 22.0391C23.8486 22.0391 23.8828 22.0268 23.8828 22.0117C23.8828 21.9967 23.9074 21.9844 23.9375 21.9844C23.9676 21.9844 23.9922 21.9721 23.9922 21.957C23.9922 21.942 24.0168 21.9297 24.0469 21.9297C24.077 21.9297 24.1016 21.9174 24.1016 21.9023C24.1016 21.8873 24.1508 21.875 24.2109 21.875C24.2711 21.875 24.3203 21.8627 24.3203 21.8477C24.3203 21.8326 24.3818 21.8203 24.457 21.8203C24.5322 21.8203 24.5938 21.808 24.5938 21.793C24.5938 21.7763 24.7214 21.7656 24.9219 21.7656C25.1224 21.7656 25.25 21.7763 25.25 21.793Z" fill="#DD2A1B"/>
</svg>
