<svg width="40" height="40" viewBox="0 0 40 40" fill="none" xmlns="http://www.w3.org/2000/svg">
<path fill-rule="evenodd" clip-rule="evenodd" d="M19.2891 11.0273C19.2891 11.0436 19.1888 11.0547 19.043 11.0547C18.8971 11.0547 18.7969 11.0658 18.7969 11.082C18.7969 11.0976 18.7148 11.1094 18.6055 11.1094C18.4961 11.1094 18.4141 11.1211 18.4141 11.1367C18.4141 11.1518 18.3525 11.1641 18.2773 11.1641C18.2021 11.1641 18.1406 11.1764 18.1406 11.1914C18.1406 11.2064 18.0914 11.2188 18.0312 11.2188C17.9711 11.2188 17.9219 11.2311 17.9219 11.2461C17.9219 11.2611 17.8727 11.2734 17.8125 11.2734C17.7523 11.2734 17.7031 11.2857 17.7031 11.3008C17.7031 11.3158 17.6539 11.3281 17.5938 11.3281C17.5336 11.3281 17.4844 11.3404 17.4844 11.3555C17.4844 11.3705 17.4475 11.3828 17.4023 11.3828C17.3572 11.3828 17.3203 11.3951 17.3203 11.4102C17.3203 11.4252 17.2834 11.4375 17.2383 11.4375C17.1932 11.4375 17.1562 11.4498 17.1562 11.4648C17.1562 11.4799 17.1193 11.4922 17.0742 11.4922C17.0291 11.4922 16.9922 11.5045 16.9922 11.5195C16.9922 11.5346 16.9553 11.5469 16.9102 11.5469C16.865 11.5469 16.8281 11.5592 16.8281 11.5742C16.8281 11.5893 16.7912 11.6016 16.7461 11.6016C16.701 11.6016 16.6641 11.6139 16.6641 11.6289C16.6641 11.6439 16.6395 11.6562 16.6094 11.6562C16.5793 11.6562 16.5547 11.6686 16.5547 11.6836C16.5547 11.6986 16.5301 11.7109 16.5 11.7109C16.4699 11.7109 16.4453 11.7232 16.4453 11.7383C16.4453 11.7533 16.4084 11.7656 16.3633 11.7656C16.3182 11.7656 16.2812 11.7779 16.2812 11.793C16.2812 11.808 16.2566 11.8203 16.2266 11.8203C16.1965 11.8203 16.1719 11.8326 16.1719 11.8477C16.1719 11.8627 16.1473 11.875 16.1172 11.875C16.0871 11.875 16.0625 11.8873 16.0625 11.9023C16.0625 11.9174 16.0379 11.9297 16.0078 11.9297C15.9777 11.9297 15.9531 11.942 15.9531 11.957C15.9531 11.9721 15.9285 11.9844 15.8984 11.9844C15.8684 11.9844 15.8438 11.9967 15.8438 12.0117C15.8438 12.0268 15.8191 12.0391 15.7891 12.0391C15.759 12.0391 15.7344 12.0514 15.7344 12.0664C15.7344 12.0814 15.7125 12.0938 15.6857 12.0938C15.659 12.0938 15.6193 12.1184 15.5977 12.1484C15.576 12.1785 15.5364 12.2031 15.5096 12.2031C15.4828 12.2031 15.4609 12.2154 15.4609 12.2305C15.4609 12.2455 15.439 12.2578 15.4123 12.2578C15.3855 12.2578 15.3459 12.2824 15.3242 12.3125C15.3025 12.3426 15.2629 12.3672 15.2361 12.3672C15.2094 12.3672 15.1875 12.3795 15.1875 12.3945C15.1875 12.4096 15.1656 12.4219 15.1389 12.4219C15.1121 12.4219 15.0725 12.4465 15.0508 12.4766C15.0291 12.5066 14.9944 12.5312 14.9737 12.5312C14.953 12.5312 14.9015 12.5682 14.8594 12.6133C14.8172 12.6584 14.7658 12.6953 14.7451 12.6953C14.7244 12.6953 14.6897 12.7199 14.668 12.75C14.6463 12.7801 14.6119 12.8047 14.5914 12.8047C14.571 12.8047 14.507 12.8539 14.4492 12.9141C14.3914 12.9742 14.3302 13.0234 14.3131 13.0234C14.2961 13.0234 14.2097 13.0973 14.1211 13.1875C14.0325 13.2777 13.9469 13.3516 13.9309 13.3516C13.8929 13.3516 13.3828 13.8614 13.3828 13.8994C13.3828 13.9154 13.2967 14.0134 13.1914 14.1172C13.0861 14.221 13 14.3198 13 14.3368C13 14.3537 12.9508 14.4149 12.8906 14.4727C12.8305 14.5305 12.7812 14.5944 12.7812 14.6149C12.7812 14.6353 12.7566 14.6697 12.7266 14.6914C12.6965 14.7131 12.6719 14.7478 12.6719 14.7685C12.6719 14.7892 12.635 14.8407 12.5898 14.8828C12.5447 14.9249 12.5078 14.9764 12.5078 14.9971C12.5078 15.0178 12.4832 15.0525 12.4531 15.0742C12.423 15.0959 12.3984 15.1355 12.3984 15.1623C12.3984 15.189 12.3861 15.2109 12.3711 15.2109C12.3561 15.2109 12.3438 15.2328 12.3438 15.2596C12.3438 15.2864 12.3191 15.326 12.2891 15.3477C12.259 15.3693 12.2344 15.409 12.2344 15.4357C12.2344 15.4625 12.2221 15.4844 12.207 15.4844C12.192 15.4844 12.1797 15.5063 12.1797 15.533C12.1797 15.5598 12.1551 15.5994 12.125 15.6211C12.0949 15.6428 12.0703 15.6824 12.0703 15.7092C12.0703 15.7359 12.058 15.7578 12.043 15.7578C12.0279 15.7578 12.0156 15.7824 12.0156 15.8125C12.0156 15.8426 12.0033 15.8672 11.9883 15.8672C11.9732 15.8672 11.9609 15.8918 11.9609 15.9219C11.9609 15.952 11.9486 15.9766 11.9336 15.9766C11.9186 15.9766 11.9062 16.0012 11.9062 16.0312C11.9062 16.0613 11.8939 16.0859 11.8789 16.0859C11.8639 16.0859 11.8516 16.1105 11.8516 16.1406C11.8516 16.1707 11.8393 16.1953 11.8242 16.1953C11.8092 16.1953 11.7969 16.2199 11.7969 16.25C11.7969 16.2801 11.7846 16.3047 11.7695 16.3047C11.7545 16.3047 11.7422 16.3416 11.7422 16.3867C11.7422 16.4318 11.7299 16.4688 11.7148 16.4688C11.6998 16.4688 11.6875 16.4934 11.6875 16.5234C11.6875 16.5535 11.6752 16.5781 11.6602 16.5781C11.6451 16.5781 11.6328 16.615 11.6328 16.6602C11.6328 16.7053 11.6205 16.7422 11.6055 16.7422C11.5904 16.7422 11.5781 16.7668 11.5781 16.7969C11.5781 16.827 11.5658 16.8516 11.5508 16.8516C11.5357 16.8516 11.5234 16.8885 11.5234 16.9336C11.5234 16.9787 11.5111 17.0156 11.4961 17.0156C11.4811 17.0156 11.4688 17.0525 11.4688 17.0977C11.4688 17.1428 11.4564 17.1797 11.4414 17.1797C11.4264 17.1797 11.4141 17.2166 11.4141 17.2617C11.4141 17.3068 11.4018 17.3438 11.3867 17.3438C11.3717 17.3438 11.3594 17.3754 11.3594 17.4141C11.3594 17.5514 11.3195 17.5625 10.8281 17.5625C10.5443 17.5625 10.375 17.5727 10.375 17.5898C10.375 17.605 10.3021 17.6172 10.2109 17.6172C10.1198 17.6172 10.0469 17.6293 10.0469 17.6445C10.0469 17.6596 9.98535 17.6719 9.91016 17.6719C9.83496 17.6719 9.77344 17.6842 9.77344 17.6992C9.77344 17.7143 9.72422 17.7266 9.66406 17.7266C9.60391 17.7266 9.55469 17.7389 9.55469 17.7539C9.55469 17.7689 9.51777 17.7812 9.47266 17.7812C9.42754 17.7812 9.39062 17.7936 9.39062 17.8086C9.39062 17.8236 9.35371 17.8359 9.30859 17.8359C9.26348 17.8359 9.22656 17.8482 9.22656 17.8633C9.22656 17.8783 9.20195 17.8906 9.17188 17.8906C9.1418 17.8906 9.11719 17.9029 9.11719 17.918C9.11719 17.933 9.08027 17.9453 9.03516 17.9453C8.99004 17.9453 8.95312 17.9576 8.95312 17.9727C8.95312 17.9877 8.92852 18 8.89844 18C8.86836 18 8.84375 18.0123 8.84375 18.0273C8.84375 18.0424 8.81914 18.0547 8.78906 18.0547C8.75898 18.0547 8.73438 18.067 8.73438 18.082C8.73438 18.0971 8.70977 18.1094 8.67969 18.1094C8.64961 18.1094 8.625 18.1217 8.625 18.1367C8.625 18.1518 8.60039 18.1641 8.57031 18.1641C8.54023 18.1641 8.51562 18.1764 8.51562 18.1914C8.51562 18.2064 8.49372 18.2188 8.46698 18.2188C8.44021 18.2188 8.40059 18.2434 8.37891 18.2734C8.35722 18.3035 8.32031 18.3281 8.29688 18.3281C8.27344 18.3281 8.23653 18.3527 8.21484 18.3828C8.19316 18.4129 8.15625 18.4375 8.13281 18.4375C8.10938 18.4375 8.07246 18.4621 8.05078 18.4922C8.0291 18.5223 7.99484 18.5469 7.9746 18.5469C7.95439 18.5469 7.87794 18.6084 7.80469 18.6836C7.73143 18.7588 7.65818 18.8203 7.64188 18.8203C7.60327 18.8203 7.25781 19.1658 7.25781 19.2044C7.25781 19.2207 7.19629 19.2939 7.12109 19.3672C7.0459 19.4404 6.98438 19.5169 6.98438 19.5371C6.98438 19.5573 6.95977 19.5916 6.92969 19.6133C6.89961 19.635 6.875 19.6719 6.875 19.6953C6.875 19.7187 6.85039 19.7557 6.82031 19.7773C6.79023 19.799 6.76562 19.8359 6.76562 19.8594C6.76562 19.8828 6.74102 19.9197 6.71094 19.9414C6.68086 19.9631 6.65625 20.0027 6.65625 20.0295C6.65625 20.0562 6.64395 20.0781 6.62891 20.0781C6.61387 20.0781 6.60156 20.1027 6.60156 20.1328C6.60156 20.1629 6.58926 20.1875 6.57422 20.1875C6.55918 20.1875 6.54688 20.2121 6.54688 20.2422C6.54688 20.2723 6.53457 20.2969 6.51953 20.2969C6.50449 20.2969 6.49219 20.3215 6.49219 20.3516C6.49219 20.3816 6.47988 20.4062 6.46484 20.4062C6.4498 20.4062 6.4375 20.4309 6.4375 20.4609C6.4375 20.491 6.4252 20.5156 6.41016 20.5156C6.39512 20.5156 6.38281 20.5402 6.38281 20.5703C6.38281 20.6004 6.37051 20.625 6.35547 20.625C6.34043 20.625 6.32812 20.6619 6.32812 20.707C6.32812 20.7521 6.31582 20.7891 6.30078 20.7891C6.28574 20.7891 6.27344 20.826 6.27344 20.8711C6.27344 20.9162 6.26113 20.9531 6.24609 20.9531C6.23105 20.9531 6.21875 20.99 6.21875 21.0352C6.21875 21.0803 6.20645 21.1172 6.19141 21.1172C6.17637 21.1172 6.16406 21.1664 6.16406 21.2266C6.16406 21.2867 6.15176 21.3359 6.13672 21.3359C6.12168 21.3359 6.10938 21.3975 6.10938 21.4727C6.10938 21.5479 6.09707 21.6094 6.08203 21.6094C6.06642 21.6094 6.05469 21.6914 6.05469 21.8008C6.05469 21.9102 6.04296 21.9922 6.02734 21.9922C6.01012 21.9922 6 22.1745 6 22.4844C6 22.7943 6.01012 22.9766 6.02734 22.9766C6.04296 22.9766 6.05469 23.0586 6.05469 23.168C6.05469 23.2773 6.06642 23.3594 6.08203 23.3594C6.09707 23.3594 6.10938 23.4209 6.10938 23.4961C6.10938 23.5713 6.12168 23.6328 6.13672 23.6328C6.15176 23.6328 6.16406 23.682 6.16406 23.7422C6.16406 23.8023 6.17637 23.8516 6.19141 23.8516C6.20645 23.8516 6.21875 23.8885 6.21875 23.9336C6.21875 23.9787 6.23105 24.0156 6.24609 24.0156C6.26113 24.0156 6.27344 24.0525 6.27344 24.0977C6.27344 24.1428 6.28574 24.1797 6.30078 24.1797C6.31582 24.1797 6.32812 24.2166 6.32812 24.2617C6.32812 24.3068 6.34043 24.3438 6.35547 24.3438C6.37051 24.3438 6.38281 24.3684 6.38281 24.3984C6.38281 24.4285 6.39512 24.4531 6.41016 24.4531C6.4252 24.4531 6.4375 24.4777 6.4375 24.5078C6.4375 24.5379 6.4498 24.5625 6.46484 24.5625C6.47988 24.5625 6.49219 24.5871 6.49219 24.6172C6.49219 24.6473 6.50449 24.6719 6.51953 24.6719C6.53457 24.6719 6.54688 24.6965 6.54688 24.7266C6.54688 24.7566 6.55918 24.7812 6.57422 24.7812C6.58926 24.7812 6.60156 24.8059 6.60156 24.8359C6.60156 24.866 6.61387 24.8906 6.62891 24.8906C6.64395 24.8906 6.65625 24.9125 6.65625 24.9393C6.65625 24.966 6.68086 25.0057 6.71094 25.0273C6.74102 25.049 6.76562 25.0859 6.76562 25.1094C6.76562 25.1328 6.79023 25.1697 6.82031 25.1914C6.85039 25.2131 6.875 25.25 6.875 25.2734C6.875 25.2969 6.89961 25.3338 6.92969 25.3555C6.95977 25.3772 6.98438 25.4114 6.98438 25.4316C6.98438 25.4519 7.0459 25.5283 7.12109 25.6016C7.19629 25.6748 7.25781 25.7481 7.25781 25.7644C7.25781 25.803 7.60327 26.1484 7.64188 26.1484C7.65818 26.1484 7.73143 26.21 7.80469 26.2852C7.87794 26.3604 7.95439 26.4219 7.9746 26.4219C7.99484 26.4219 8.0291 26.4465 8.05078 26.4766C8.07246 26.5066 8.10938 26.5312 8.13281 26.5312C8.15625 26.5312 8.19316 26.5559 8.21484 26.5859C8.23653 26.616 8.27344 26.6406 8.29688 26.6406C8.32031 26.6406 8.35722 26.6652 8.37891 26.6953C8.40059 26.7254 8.44021 26.75 8.46698 26.75C8.49372 26.75 8.51562 26.7623 8.51562 26.7773C8.51562 26.7924 8.54023 26.8047 8.57031 26.8047C8.60039 26.8047 8.625 26.817 8.625 26.832C8.625 26.8471 8.64961 26.8594 8.67969 26.8594C8.70977 26.8594 8.73438 26.8717 8.73438 26.8867C8.73438 26.9018 8.75898 26.9141 8.78906 26.9141C8.81914 26.9141 8.84375 26.9264 8.84375 26.9414C8.84375 26.9564 8.86836 26.9688 8.89844 26.9688C8.92852 26.9688 8.95312 26.9811 8.95312 26.9961C8.95312 27.0111 8.97773 27.0234 9.00781 27.0234C9.03789 27.0234 9.0625 27.0357 9.0625 27.0508C9.0625 27.0658 9.09941 27.0781 9.14453 27.0781C9.18965 27.0781 9.22656 27.0904 9.22656 27.1055C9.22656 27.1205 9.26348 27.1328 9.30859 27.1328C9.35371 27.1328 9.39062 27.1451 9.39062 27.1602C9.39062 27.1752 9.42754 27.1875 9.47266 27.1875C9.51777 27.1875 9.55469 27.1998 9.55469 27.2148C9.55469 27.2299 9.60391 27.2422 9.66406 27.2422C9.72422 27.2422 9.77344 27.2545 9.77344 27.2695C9.77344 27.2846 9.83496 27.2969 9.91016 27.2969C9.98535 27.2969 10.0469 27.3092 10.0469 27.3242C10.0469 27.3398 10.1289 27.3516 10.2383 27.3516C10.3477 27.3516 10.4297 27.3633 10.4297 27.3789C10.4297 27.3969 11.1862 27.4062 12.6445 27.4062C14.1029 27.4062 14.8594 27.4156 14.8594 27.4336C14.8594 27.4486 14.879 27.4609 14.9031 27.4609C14.9271 27.4609 14.9813 27.4979 15.0234 27.543C15.0656 27.5881 15.1197 27.625 15.1438 27.625C15.1678 27.625 15.1875 27.6373 15.1875 27.6523C15.1875 27.6674 15.2094 27.6797 15.2361 27.6797C15.2629 27.6797 15.3025 27.7043 15.3242 27.7344C15.3459 27.7645 15.3855 27.7891 15.4123 27.7891C15.439 27.7891 15.4609 27.8014 15.4609 27.8164C15.4609 27.8314 15.4828 27.8438 15.5096 27.8438C15.5364 27.8438 15.576 27.8684 15.5977 27.8984C15.6193 27.9285 15.659 27.9531 15.6857 27.9531C15.7125 27.9531 15.7344 27.9654 15.7344 27.9805C15.7344 27.9955 15.759 28.0078 15.7891 28.0078C15.8191 28.0078 15.8438 28.0201 15.8438 28.0352C15.8438 28.0502 15.8684 28.0625 15.8984 28.0625C15.9285 28.0625 15.9531 28.0748 15.9531 28.0898C15.9531 28.1049 15.9777 28.1172 16.0078 28.1172C16.0379 28.1172 16.0625 28.1295 16.0625 28.1445C16.0625 28.1596 16.0871 28.1719 16.1172 28.1719C16.1473 28.1719 16.1719 28.1842 16.1719 28.1992C16.1719 28.2143 16.1965 28.2266 16.2266 28.2266C16.2566 28.2266 16.2812 28.2389 16.2812 28.2539C16.2812 28.2689 16.3182 28.2812 16.3633 28.2812C16.4084 28.2812 16.4453 28.2936 16.4453 28.3086C16.4453 28.3236 16.4699 28.3359 16.5 28.3359C16.5301 28.3359 16.5547 28.3482 16.5547 28.3633C16.5547 28.3783 16.5916 28.3906 16.6367 28.3906C16.6818 28.3906 16.7188 28.4029 16.7188 28.418C16.7188 28.433 16.7434 28.4453 16.7734 28.4453C16.8035 28.4453 16.8281 28.4576 16.8281 28.4727C16.8281 28.4877 16.865 28.5 16.9102 28.5C16.9553 28.5 16.9922 28.5123 16.9922 28.5273C16.9922 28.5424 17.0291 28.5547 17.0742 28.5547C17.1193 28.5547 17.1562 28.567 17.1562 28.582C17.1562 28.5971 17.1932 28.6094 17.2383 28.6094C17.2834 28.6094 17.3203 28.6217 17.3203 28.6367C17.3203 28.6518 17.3572 28.6641 17.4023 28.6641C17.4475 28.6641 17.4844 28.6764 17.4844 28.6914C17.4844 28.7064 17.5336 28.7188 17.5938 28.7188C17.6539 28.7188 17.7031 28.7311 17.7031 28.7461C17.7031 28.7611 17.7523 28.7734 17.8125 28.7734C17.8727 28.7734 17.9219 28.7857 17.9219 28.8008C17.9219 28.8158 17.9711 28.8281 18.0312 28.8281C18.0914 28.8281 18.1406 28.8404 18.1406 28.8555C18.1406 28.8705 18.2021 28.8828 18.2773 28.8828C18.3525 28.8828 18.4141 28.8951 18.4141 28.9102C18.4141 28.9258 18.4961 28.9375 18.6055 28.9375C18.7148 28.9375 18.7969 28.9492 18.7969 28.9648C18.7969 28.9811 18.8971 28.9922 19.043 28.9922C19.1888 28.9922 19.2891 29.0033 19.2891 29.0195C19.2891 29.0371 19.5443 29.0469 20 29.0469C20.4557 29.0469 20.7109 29.0371 20.7109 29.0195C20.7109 29.0033 20.8112 28.9922 20.957 28.9922C21.1029 28.9922 21.2031 28.9811 21.2031 28.9648C21.2031 28.9492 21.2852 28.9375 21.3945 28.9375C21.5039 28.9375 21.5859 28.9258 21.5859 28.9102C21.5859 28.8951 21.6475 28.8828 21.7227 28.8828C21.7979 28.8828 21.8594 28.8705 21.8594 28.8555C21.8594 28.8404 21.9086 28.8281 21.9688 28.8281C22.0289 28.8281 22.0781 28.8158 22.0781 28.8008C22.0781 28.7857 22.1273 28.7734 22.1875 28.7734C22.2477 28.7734 22.2969 28.7611 22.2969 28.7461C22.2969 28.7311 22.3461 28.7188 22.4062 28.7188C22.4664 28.7188 22.5156 28.7064 22.5156 28.6914C22.5156 28.6764 22.5525 28.6641 22.5977 28.6641C22.6428 28.6641 22.6797 28.6518 22.6797 28.6367C22.6797 28.6217 22.7166 28.6094 22.7617 28.6094C22.8068 28.6094 22.8438 28.5971 22.8438 28.582C22.8438 28.567 22.8807 28.5547 22.9258 28.5547C22.9709 28.5547 23.0078 28.5424 23.0078 28.5273C23.0078 28.5123 23.0447 28.5 23.0898 28.5C23.135 28.5 23.1719 28.4877 23.1719 28.4727C23.1719 28.4576 23.2088 28.4453 23.2539 28.4453C23.299 28.4453 23.3359 28.433 23.3359 28.418C23.3359 28.4029 23.3605 28.3906 23.3906 28.3906C23.4207 28.3906 23.4453 28.3783 23.4453 28.3633C23.4453 28.3482 23.4699 28.3359 23.5 28.3359C23.5301 28.3359 23.5547 28.3236 23.5547 28.3086C23.5547 28.2936 23.5916 28.2812 23.6367 28.2812C23.6818 28.2812 23.7188 28.2689 23.7188 28.2539C23.7188 28.2389 23.7434 28.2266 23.7734 28.2266C23.8035 28.2266 23.8281 28.2143 23.8281 28.1992C23.8281 28.1842 23.8527 28.1719 23.8828 28.1719C23.9129 28.1719 23.9375 28.1596 23.9375 28.1445C23.9375 28.1295 23.9621 28.1172 23.9922 28.1172C24.0223 28.1172 24.0469 28.1049 24.0469 28.0898C24.0469 28.0748 24.0715 28.0625 24.1016 28.0625C24.1316 28.0625 24.1562 28.0502 24.1562 28.0352C24.1562 28.0201 24.1809 28.0078 24.2109 28.0078C24.241 28.0078 24.2656 27.9955 24.2656 27.9805C24.2656 27.9654 24.2875 27.9531 24.3143 27.9531C24.341 27.9531 24.3807 27.9285 24.4023 27.8984C24.424 27.8684 24.4636 27.8438 24.4904 27.8438C24.5172 27.8438 24.5391 27.8314 24.5391 27.8164C24.5391 27.8014 24.561 27.7891 24.5877 27.7891C24.6145 27.7891 24.6541 27.7645 24.6758 27.7344C24.6975 27.7043 24.7371 27.6797 24.7639 27.6797C24.7906 27.6797 24.8125 27.6674 24.8125 27.6523C24.8125 27.6373 24.8344 27.625 24.8611 27.625C24.8879 27.625 24.9275 27.6004 24.9492 27.5703C24.9709 27.5402 25.0078 27.5156 25.0312 27.5156C25.0547 27.5156 25.0916 27.491 25.1133 27.4609C25.1521 27.407 25.1841 27.4062 27.3615 27.4062C28.8158 27.4062 29.5703 27.3969 29.5703 27.3789C29.5703 27.3633 29.6523 27.3516 29.7617 27.3516C29.8711 27.3516 29.9531 27.3398 29.9531 27.3242C29.9531 27.3092 30.0146 27.2969 30.0898 27.2969C30.165 27.2969 30.2266 27.2846 30.2266 27.2695C30.2266 27.2545 30.2758 27.2422 30.3359 27.2422C30.3961 27.2422 30.4453 27.2299 30.4453 27.2148C30.4453 27.1998 30.4822 27.1875 30.5273 27.1875C30.5725 27.1875 30.6094 27.1752 30.6094 27.1602C30.6094 27.1451 30.6463 27.1328 30.6914 27.1328C30.7365 27.1328 30.7734 27.1205 30.7734 27.1055C30.7734 27.0904 30.8104 27.0781 30.8555 27.0781C30.9006 27.0781 30.9375 27.0658 30.9375 27.0508C30.9375 27.0357 30.9621 27.0234 30.9922 27.0234C31.0223 27.0234 31.0469 27.0111 31.0469 26.9961C31.0469 26.9811 31.0715 26.9688 31.1016 26.9688C31.1316 26.9688 31.1562 26.9564 31.1562 26.9414C31.1562 26.9264 31.1809 26.9141 31.2109 26.9141C31.241 26.9141 31.2656 26.9018 31.2656 26.8867C31.2656 26.8717 31.2902 26.8594 31.3203 26.8594C31.3504 26.8594 31.375 26.8471 31.375 26.832C31.375 26.817 31.3996 26.8047 31.4297 26.8047C31.4598 26.8047 31.4844 26.7924 31.4844 26.7773C31.4844 26.7623 31.5063 26.75 31.533 26.75C31.5598 26.75 31.5994 26.7254 31.6211 26.6953C31.6428 26.6652 31.6797 26.6406 31.7031 26.6406C31.7266 26.6406 31.7635 26.616 31.7852 26.5859C31.8068 26.5559 31.8438 26.5312 31.8672 26.5312C31.8906 26.5312 31.9275 26.5066 31.9492 26.4766C31.9709 26.4465 32.0052 26.4219 32.0254 26.4219C32.0456 26.4219 32.1221 26.3604 32.1953 26.2852C32.2686 26.21 32.3418 26.1484 32.3581 26.1484C32.3967 26.1484 32.7422 25.803 32.7422 25.7644C32.7422 25.7481 32.8037 25.6748 32.8789 25.6016C32.9541 25.5283 33.0156 25.4519 33.0156 25.4316C33.0156 25.4114 33.0402 25.3772 33.0703 25.3555C33.1004 25.3338 33.125 25.2969 33.125 25.2734C33.125 25.25 33.1496 25.2131 33.1797 25.1914C33.2098 25.1697 33.2344 25.1328 33.2344 25.1094C33.2344 25.0859 33.259 25.049 33.2891 25.0273C33.3191 25.0057 33.3438 24.966 33.3438 24.9393C33.3438 24.9125 33.3561 24.8906 33.3711 24.8906C33.3861 24.8906 33.3984 24.866 33.3984 24.8359C33.3984 24.8059 33.4107 24.7812 33.4258 24.7812C33.4408 24.7812 33.4531 24.7566 33.4531 24.7266C33.4531 24.6965 33.4654 24.6719 33.4805 24.6719C33.4955 24.6719 33.5078 24.6473 33.5078 24.6172C33.5078 24.5871 33.5201 24.5625 33.5352 24.5625C33.5502 24.5625 33.5625 24.5379 33.5625 24.5078C33.5625 24.4777 33.5748 24.4531 33.5898 24.4531C33.6049 24.4531 33.6172 24.4285 33.6172 24.3984C33.6172 24.3684 33.6295 24.3438 33.6445 24.3438C33.6596 24.3438 33.6719 24.3068 33.6719 24.2617C33.6719 24.2166 33.6842 24.1797 33.6992 24.1797C33.7143 24.1797 33.7266 24.1428 33.7266 24.0977C33.7266 24.0525 33.7389 24.0156 33.7539 24.0156C33.7689 24.0156 33.7812 23.9787 33.7812 23.9336C33.7812 23.8885 33.7936 23.8516 33.8086 23.8516C33.8236 23.8516 33.8359 23.8023 33.8359 23.7422C33.8359 23.682 33.8482 23.6328 33.8633 23.6328C33.8783 23.6328 33.8906 23.5713 33.8906 23.4961C33.8906 23.4209 33.9029 23.3594 33.918 23.3594C33.9336 23.3594 33.9453 23.2773 33.9453 23.168C33.9453 23.0586 33.957 22.9766 33.9727 22.9766C33.9899 22.9766 34 22.7943 34 22.4844C34 22.1745 33.9899 21.9922 33.9727 21.9922C33.957 21.9922 33.9453 21.9102 33.9453 21.8008C33.9453 21.6914 33.9336 21.6094 33.918 21.6094C33.9029 21.6094 33.8906 21.5479 33.8906 21.4727C33.8906 21.3975 33.8783 21.3359 33.8633 21.3359C33.8482 21.3359 33.8359 21.2867 33.8359 21.2266C33.8359 21.1664 33.8236 21.1172 33.8086 21.1172C33.7936 21.1172 33.7812 21.0803 33.7812 21.0352C33.7812 20.99 33.7689 20.9531 33.7539 20.9531C33.7389 20.9531 33.7266 20.9162 33.7266 20.8711C33.7266 20.826 33.7143 20.7891 33.6992 20.7891C33.6842 20.7891 33.6719 20.7521 33.6719 20.707C33.6719 20.6619 33.6596 20.625 33.6445 20.625C33.6295 20.625 33.6172 20.6004 33.6172 20.5703C33.6172 20.5402 33.6049 20.5156 33.5898 20.5156C33.5748 20.5156 33.5625 20.491 33.5625 20.4609C33.5625 20.4309 33.5502 20.4062 33.5352 20.4062C33.5201 20.4062 33.5078 20.3816 33.5078 20.3516C33.5078 20.3215 33.4955 20.2969 33.4805 20.2969C33.4654 20.2969 33.4531 20.2723 33.4531 20.2422C33.4531 20.2121 33.4408 20.1875 33.4258 20.1875C33.4107 20.1875 33.3984 20.1629 33.3984 20.1328C33.3984 20.1027 33.3861 20.0781 33.3711 20.0781C33.3561 20.0781 33.3438 20.0562 33.3438 20.0295C33.3438 20.0027 33.3191 19.9631 33.2891 19.9414C33.259 19.9197 33.2344 19.8828 33.2344 19.8594C33.2344 19.8359 33.2098 19.799 33.1797 19.7773C33.1496 19.7557 33.125 19.7187 33.125 19.6953C33.125 19.6719 33.1004 19.635 33.0703 19.6133C33.0402 19.5916 33.0156 19.5573 33.0156 19.5371C33.0156 19.5169 32.9541 19.4404 32.8789 19.3672C32.8037 19.2939 32.7422 19.2207 32.7422 19.2045C32.7422 19.1657 32.3418 18.7656 32.303 18.7656C32.2865 18.7656 32.2258 18.7164 32.168 18.6562C32.1102 18.5961 32.0462 18.5469 32.0258 18.5469C32.0053 18.5469 31.9709 18.5223 31.9492 18.4922C31.9275 18.4621 31.8906 18.4375 31.8672 18.4375C31.8438 18.4375 31.8068 18.4129 31.7852 18.3828C31.7635 18.3527 31.7266 18.3281 31.7031 18.3281C31.6797 18.3281 31.6428 18.3035 31.6211 18.2734C31.5994 18.2434 31.5598 18.2188 31.533 18.2188C31.5063 18.2188 31.4844 18.2064 31.4844 18.1914C31.4844 18.1764 31.4598 18.1641 31.4297 18.1641C31.3996 18.1641 31.375 18.1518 31.375 18.1367C31.375 18.1217 31.3504 18.1094 31.3203 18.1094C31.2902 18.1094 31.2656 18.0971 31.2656 18.082C31.2656 18.067 31.241 18.0547 31.2109 18.0547C31.1809 18.0547 31.1562 18.0424 31.1562 18.0273C31.1562 18.0123 31.1316 18 31.1016 18C31.0715 18 31.0469 17.9877 31.0469 17.9727C31.0469 17.9576 31.0223 17.9453 30.9922 17.9453C30.9621 17.9453 30.9375 17.933 30.9375 17.918C30.9375 17.9029 30.9006 17.8906 30.8555 17.8906C30.8104 17.8906 30.7734 17.8783 30.7734 17.8633C30.7734 17.8482 30.7365 17.8359 30.6914 17.8359C30.6463 17.8359 30.6094 17.8236 30.6094 17.8086C30.6094 17.7936 30.5725 17.7812 30.5273 17.7812C30.4822 17.7812 30.4453 17.7689 30.4453 17.7539C30.4453 17.7389 30.3961 17.7266 30.3359 17.7266C30.2758 17.7266 30.2266 17.7143 30.2266 17.6992C30.2266 17.6842 30.165 17.6719 30.0898 17.6719C30.0146 17.6719 29.9531 17.6596 29.9531 17.6445C29.9531 17.6289 29.8711 17.6172 29.7617 17.6172C29.6523 17.6172 29.5703 17.6055 29.5703 17.5898C29.5703 17.5728 29.4102 17.5625 29.1445 17.5625C28.6826 17.5625 28.6406 17.5501 28.6406 17.4141C28.6406 17.3754 28.6283 17.3438 28.6133 17.3438C28.5982 17.3438 28.5859 17.3068 28.5859 17.2617C28.5859 17.2166 28.5736 17.1797 28.5586 17.1797C28.5436 17.1797 28.5312 17.1428 28.5312 17.0977C28.5312 17.0525 28.5189 17.0156 28.5039 17.0156C28.4889 17.0156 28.4766 16.9787 28.4766 16.9336C28.4766 16.8885 28.4643 16.8516 28.4492 16.8516C28.4342 16.8516 28.4219 16.827 28.4219 16.7969C28.4219 16.7668 28.4096 16.7422 28.3945 16.7422C28.3795 16.7422 28.3672 16.7053 28.3672 16.6602C28.3672 16.615 28.3549 16.5781 28.3398 16.5781C28.3248 16.5781 28.3125 16.5535 28.3125 16.5234C28.3125 16.4934 28.3002 16.4688 28.2852 16.4688C28.2701 16.4688 28.2578 16.4318 28.2578 16.3867C28.2578 16.3416 28.2455 16.3047 28.2305 16.3047C28.2154 16.3047 28.2031 16.2801 28.2031 16.25C28.2031 16.2199 28.1908 16.1953 28.1758 16.1953C28.1607 16.1953 28.1484 16.1707 28.1484 16.1406C28.1484 16.1105 28.1361 16.0859 28.1211 16.0859C28.1061 16.0859 28.0938 16.0613 28.0938 16.0312C28.0938 16.0012 28.0814 15.9766 28.0664 15.9766C28.0514 15.9766 28.0391 15.952 28.0391 15.9219C28.0391 15.8918 28.0268 15.8672 28.0117 15.8672C27.9967 15.8672 27.9844 15.8426 27.9844 15.8125C27.9844 15.7824 27.9721 15.7578 27.957 15.7578C27.942 15.7578 27.9297 15.7359 27.9297 15.7092C27.9297 15.6824 27.9051 15.6428 27.875 15.6211C27.8449 15.5994 27.8203 15.5598 27.8203 15.533C27.8203 15.5063 27.808 15.4844 27.793 15.4844C27.7779 15.4844 27.7656 15.4625 27.7656 15.4357C27.7656 15.409 27.741 15.3693 27.7109 15.3477C27.6809 15.326 27.6562 15.2864 27.6562 15.2596C27.6562 15.2328 27.6439 15.2109 27.6289 15.2109C27.6139 15.2109 27.6016 15.189 27.6016 15.1623C27.6016 15.1355 27.577 15.0959 27.5469 15.0742C27.5168 15.0525 27.4922 15.0178 27.4922 14.9971C27.4922 14.9764 27.4553 14.9249 27.4102 14.8828C27.365 14.8407 27.3281 14.7892 27.3281 14.7685C27.3281 14.7478 27.3035 14.7131 27.2734 14.6914C27.2434 14.6697 27.2188 14.6353 27.2188 14.6149C27.2188 14.5944 27.1695 14.5305 27.1094 14.4727C27.0492 14.4149 27 14.3537 27 14.3368C27 14.3198 26.9139 14.221 26.8086 14.1172C26.7033 14.0134 26.6172 13.9153 26.6172 13.8994C26.6172 13.8615 26.162 13.4062 26.1241 13.4062C26.1081 13.4062 26.0101 13.3201 25.9062 13.2148C25.8024 13.1096 25.7036 13.0234 25.6867 13.0234C25.6697 13.0234 25.6086 12.9742 25.5508 12.9141C25.493 12.8539 25.429 12.8047 25.4086 12.8047C25.3881 12.8047 25.3537 12.7801 25.332 12.75C25.3103 12.7199 25.2756 12.6953 25.2549 12.6953C25.2342 12.6953 25.1828 12.6584 25.1406 12.6133C25.0985 12.5682 25.047 12.5312 25.0263 12.5312C25.0056 12.5312 24.9709 12.5066 24.9492 12.4766C24.9275 12.4465 24.8879 12.4219 24.8611 12.4219C24.8344 12.4219 24.8125 12.4096 24.8125 12.3945C24.8125 12.3795 24.7906 12.3672 24.7639 12.3672C24.7371 12.3672 24.6975 12.3426 24.6758 12.3125C24.6541 12.2824 24.6145 12.2578 24.5877 12.2578C24.561 12.2578 24.5391 12.2455 24.5391 12.2305C24.5391 12.2154 24.5172 12.2031 24.4904 12.2031C24.4636 12.2031 24.424 12.1785 24.4023 12.1484C24.3807 12.1184 24.341 12.0938 24.3143 12.0938C24.2875 12.0938 24.2656 12.0814 24.2656 12.0664C24.2656 12.0514 24.241 12.0391 24.2109 12.0391C24.1809 12.0391 24.1562 12.0268 24.1562 12.0117C24.1562 11.9967 24.1316 11.9844 24.1016 11.9844C24.0715 11.9844 24.0469 11.9721 24.0469 11.957C24.0469 11.942 24.0223 11.9297 23.9922 11.9297C23.9621 11.9297 23.9375 11.9174 23.9375 11.9023C23.9375 11.8873 23.9129 11.875 23.8828 11.875C23.8527 11.875 23.8281 11.8627 23.8281 11.8477C23.8281 11.8326 23.8035 11.8203 23.7734 11.8203C23.7434 11.8203 23.7188 11.808 23.7188 11.793C23.7188 11.7779 23.6818 11.7656 23.6367 11.7656C23.5916 11.7656 23.5547 11.7533 23.5547 11.7383C23.5547 11.7232 23.5301 11.7109 23.5 11.7109C23.4699 11.7109 23.4453 11.6986 23.4453 11.6836C23.4453 11.6686 23.4207 11.6562 23.3906 11.6562C23.3605 11.6562 23.3359 11.6439 23.3359 11.6289C23.3359 11.6139 23.299 11.6016 23.2539 11.6016C23.2088 11.6016 23.1719 11.5893 23.1719 11.5742C23.1719 11.5592 23.135 11.5469 23.0898 11.5469C23.0447 11.5469 23.0078 11.5346 23.0078 11.5195C23.0078 11.5045 22.9709 11.4922 22.9258 11.4922C22.8807 11.4922 22.8438 11.4799 22.8438 11.4648C22.8438 11.4498 22.8068 11.4375 22.7617 11.4375C22.7166 11.4375 22.6797 11.4252 22.6797 11.4102C22.6797 11.3951 22.6428 11.3828 22.5977 11.3828C22.5525 11.3828 22.5156 11.3705 22.5156 11.3555C22.5156 11.3404 22.4664 11.3281 22.4062 11.3281C22.3461 11.3281 22.2969 11.3158 22.2969 11.3008C22.2969 11.2857 22.2477 11.2734 22.1875 11.2734C22.1273 11.2734 22.0781 11.2611 22.0781 11.2461C22.0781 11.2311 22.0289 11.2188 21.9688 11.2188C21.9086 11.2188 21.8594 11.2064 21.8594 11.1914C21.8594 11.1764 21.7979 11.1641 21.7227 11.1641C21.6475 11.1641 21.5859 11.1518 21.5859 11.1367C21.5859 11.1211 21.5039 11.1094 21.3945 11.1094C21.2852 11.1094 21.2031 11.0976 21.2031 11.082C21.2031 11.0658 21.1029 11.0547 20.957 11.0547C20.8112 11.0547 20.7109 11.0436 20.7109 11.0273C20.7109 11.0098 20.4557 11 20 11C19.5443 11 19.2891 11.0098 19.2891 11.0273ZM20.6016 12.668C20.6016 12.6842 20.7018 12.6953 20.8477 12.6953C20.9935 12.6953 21.0938 12.7064 21.0938 12.7227C21.0938 12.7379 21.1667 12.75 21.2578 12.75C21.3489 12.75 21.4219 12.7621 21.4219 12.7773C21.4219 12.7924 21.4834 12.8047 21.5586 12.8047C21.6338 12.8047 21.6953 12.817 21.6953 12.832C21.6953 12.8471 21.7322 12.8594 21.7773 12.8594C21.8225 12.8594 21.8594 12.8717 21.8594 12.8867C21.8594 12.9018 21.9086 12.9141 21.9688 12.9141C22.0289 12.9141 22.0781 12.9264 22.0781 12.9414C22.0781 12.9564 22.115 12.9688 22.1602 12.9688C22.2053 12.9688 22.2422 12.9811 22.2422 12.9961C22.2422 13.0111 22.2791 13.0234 22.3242 13.0234C22.3693 13.0234 22.4062 13.0357 22.4062 13.0508C22.4062 13.0658 22.4432 13.0781 22.4883 13.0781C22.5334 13.0781 22.5703 13.0904 22.5703 13.1055C22.5703 13.1205 22.6072 13.1328 22.6523 13.1328C22.6975 13.1328 22.7344 13.1451 22.7344 13.1602C22.7344 13.1752 22.759 13.1875 22.7891 13.1875C22.8191 13.1875 22.8438 13.1998 22.8438 13.2148C22.8438 13.2299 22.8684 13.2422 22.8984 13.2422C22.9285 13.2422 22.9531 13.2545 22.9531 13.2695C22.9531 13.2846 22.99 13.2969 23.0352 13.2969C23.0803 13.2969 23.1172 13.3092 23.1172 13.3242C23.1172 13.3393 23.1418 13.3516 23.1719 13.3516C23.202 13.3516 23.2266 13.3639 23.2266 13.3789C23.2266 13.3939 23.2512 13.4062 23.2812 13.4062C23.3113 13.4062 23.3359 13.4186 23.3359 13.4336C23.3359 13.4486 23.3605 13.4609 23.3906 13.4609C23.4207 13.4609 23.4453 13.4732 23.4453 13.4883C23.4453 13.5033 23.4672 13.5156 23.494 13.5156C23.5207 13.5156 23.5603 13.5402 23.582 13.5703C23.6037 13.6004 23.6433 13.625 23.6701 13.625C23.6968 13.625 23.7188 13.6373 23.7188 13.6523C23.7188 13.6674 23.7407 13.6797 23.7674 13.6797C23.7942 13.6797 23.8338 13.7043 23.8555 13.7344C23.8772 13.7645 23.9168 13.7891 23.9435 13.7891C23.9703 13.7891 23.9922 13.8014 23.9922 13.8164C23.9922 13.8314 24.0118 13.8438 24.0359 13.8438C24.0599 13.8438 24.1141 13.8807 24.1562 13.9258C24.1984 13.9709 24.2498 14.0078 24.2705 14.0078C24.2913 14.0078 24.326 14.0324 24.3477 14.0625C24.3693 14.0926 24.4038 14.1172 24.4242 14.1172C24.4446 14.1172 24.5086 14.1664 24.5664 14.2266C24.6242 14.2867 24.6849 14.3359 24.7012 14.3359C24.74 14.3359 25.6875 15.2835 25.6875 15.3223C25.6875 15.3386 25.7367 15.3992 25.7969 15.457C25.857 15.5148 25.9062 15.5788 25.9062 15.5992C25.9062 15.6197 25.9309 15.6541 25.9609 15.6758C25.991 15.6975 26.0156 15.7344 26.0156 15.7578C26.0156 15.7812 26.0402 15.8182 26.0703 15.8398C26.1004 15.8615 26.125 15.8984 26.125 15.9219C26.125 15.9453 26.1496 15.9822 26.1797 16.0039C26.2098 16.0256 26.2344 16.0625 26.2344 16.0859C26.2344 16.1094 26.259 16.1463 26.2891 16.168C26.3191 16.1897 26.3438 16.2293 26.3438 16.256C26.3438 16.2828 26.3561 16.3047 26.3711 16.3047C26.3861 16.3047 26.3984 16.3266 26.3984 16.3533C26.3984 16.3801 26.423 16.4197 26.4531 16.4414C26.4832 16.4631 26.5078 16.5027 26.5078 16.5295C26.5078 16.5562 26.5201 16.5781 26.5352 16.5781C26.5502 16.5781 26.5625 16.6027 26.5625 16.6328C26.5625 16.6629 26.5748 16.6875 26.5898 16.6875C26.6049 16.6875 26.6172 16.7121 26.6172 16.7422C26.6172 16.7723 26.6295 16.7969 26.6445 16.7969C26.6596 16.7969 26.6719 16.8215 26.6719 16.8516C26.6719 16.8816 26.6842 16.9062 26.6992 16.9062C26.7143 16.9062 26.7266 16.9432 26.7266 16.9883C26.7266 17.0334 26.7389 17.0703 26.7539 17.0703C26.7689 17.0703 26.7812 17.0949 26.7812 17.125C26.7812 17.1551 26.7936 17.1797 26.8086 17.1797C26.8236 17.1797 26.8359 17.2043 26.8359 17.2344C26.8359 17.2645 26.8482 17.2891 26.8633 17.2891C26.8783 17.2891 26.8906 17.326 26.8906 17.3711C26.8906 17.4162 26.9029 17.4531 26.918 17.4531C26.933 17.4531 26.9453 17.49 26.9453 17.5352C26.9453 17.5803 26.9576 17.6172 26.9727 17.6172C26.9877 17.6172 27 17.6541 27 17.6992C27 17.7443 27.0123 17.7812 27.0273 17.7812C27.0424 17.7812 27.0547 17.8182 27.0547 17.8633C27.0547 17.9084 27.067 17.9453 27.082 17.9453C27.0971 17.9453 27.1094 17.9945 27.1094 18.0547C27.1094 18.1148 27.1217 18.1641 27.1367 18.1641C27.1518 18.1641 27.1641 18.2133 27.1641 18.2734C27.1641 18.3336 27.1764 18.3828 27.1914 18.3828C27.2064 18.3828 27.2188 18.432 27.2188 18.4922C27.2188 18.5523 27.2311 18.6016 27.2461 18.6016C27.2613 18.6016 27.2734 18.6745 27.2734 18.7656C27.2734 18.8568 27.2856 18.9297 27.3008 18.9297C27.317 18.9297 27.3281 19.03 27.3281 19.1758C27.3281 19.3216 27.3393 19.4219 27.3555 19.4219C27.3729 19.4219 27.3828 19.6406 27.3828 20.0234C27.3828 20.4062 27.3729 20.625 27.3555 20.625C27.3393 20.625 27.3281 20.7253 27.3281 20.8711C27.3281 21.0169 27.317 21.1172 27.3008 21.1172C27.2856 21.1172 27.2734 21.1901 27.2734 21.2812C27.2734 21.3724 27.2613 21.4453 27.2461 21.4453C27.2311 21.4453 27.2188 21.4945 27.2188 21.5547C27.2188 21.6148 27.2064 21.6641 27.1914 21.6641C27.1764 21.6641 27.1641 21.7256 27.1641 21.8008C27.1641 21.876 27.1518 21.9375 27.1367 21.9375C27.1217 21.9375 27.1094 21.9744 27.1094 22.0195C27.1094 22.0646 27.0971 22.1016 27.082 22.1016C27.067 22.1016 27.0547 22.1385 27.0547 22.1836C27.0547 22.2287 27.0424 22.2656 27.0273 22.2656C27.0123 22.2656 27 22.3025 27 22.3477C27 22.3928 26.9877 22.4297 26.9727 22.4297C26.9576 22.4297 26.9453 22.4666 26.9453 22.5117C26.9453 22.5568 26.933 22.5938 26.918 22.5938C26.9029 22.5938 26.8906 22.6307 26.8906 22.6758C26.8906 22.7209 26.8783 22.7578 26.8633 22.7578C26.8482 22.7578 26.8359 22.7824 26.8359 22.8125C26.8359 22.8426 26.8236 22.8672 26.8086 22.8672C26.7936 22.8672 26.7812 22.8918 26.7812 22.9219C26.7812 22.952 26.7689 22.9766 26.7539 22.9766C26.7389 22.9766 26.7266 23.0135 26.7266 23.0586C26.7266 23.1037 26.7143 23.1406 26.6992 23.1406C26.6842 23.1406 26.6719 23.1652 26.6719 23.1953C26.6719 23.2254 26.6596 23.25 26.6445 23.25C26.6295 23.25 26.6172 23.2746 26.6172 23.3047C26.6172 23.3348 26.6049 23.3594 26.5898 23.3594C26.5748 23.3594 26.5625 23.384 26.5625 23.4141C26.5625 23.4441 26.5502 23.4688 26.5352 23.4688C26.5201 23.4688 26.5078 23.4907 26.5078 23.5174C26.5078 23.5442 26.4832 23.5838 26.4531 23.6055C26.423 23.6272 26.3984 23.6668 26.3984 23.6935C26.3984 23.7203 26.3861 23.7422 26.3711 23.7422C26.3561 23.7422 26.3438 23.7641 26.3438 23.7908C26.3438 23.8176 26.3191 23.8572 26.2891 23.8789C26.259 23.9006 26.2344 23.9375 26.2344 23.9609C26.2344 23.9844 26.2098 24.0213 26.1797 24.043C26.1496 24.0647 26.125 24.1016 26.125 24.125C26.125 24.1484 26.1004 24.1853 26.0703 24.207C26.0402 24.2287 26.0156 24.2634 26.0156 24.2841C26.0156 24.3048 25.9787 24.3563 25.9336 24.3984C25.8885 24.4406 25.8516 24.4898 25.8516 24.5078C25.8516 24.5258 25.8146 24.5751 25.7695 24.6172C25.7244 24.6593 25.6875 24.7074 25.6875 24.724C25.6875 24.7632 24.7403 25.7109 24.7012 25.7109C24.6849 25.7109 24.6242 25.7602 24.5664 25.8203C24.5086 25.8805 24.4446 25.9297 24.4242 25.9297C24.4038 25.9297 24.3693 25.9543 24.3477 25.9844C24.326 26.0145 24.2913 26.0391 24.2705 26.0391C24.2498 26.0391 24.1984 26.076 24.1562 26.1211C24.1141 26.1662 24.0599 26.2031 24.0359 26.2031C24.0118 26.2031 23.9922 26.2154 23.9922 26.2305C23.9922 26.2455 23.9703 26.2578 23.9435 26.2578C23.9168 26.2578 23.8772 26.2824 23.8555 26.3125C23.8338 26.3426 23.7942 26.3672 23.7674 26.3672C23.7407 26.3672 23.7188 26.3795 23.7188 26.3945C23.7188 26.4096 23.6968 26.4219 23.6701 26.4219C23.6433 26.4219 23.6037 26.4465 23.582 26.4766C23.5603 26.5066 23.5207 26.5312 23.494 26.5312C23.4672 26.5312 23.4453 26.5436 23.4453 26.5586C23.4453 26.5736 23.4207 26.5859 23.3906 26.5859C23.3605 26.5859 23.3359 26.5982 23.3359 26.6133C23.3359 26.6283 23.3113 26.6406 23.2812 26.6406C23.2512 26.6406 23.2266 26.6529 23.2266 26.668C23.2266 26.683 23.202 26.6953 23.1719 26.6953C23.1418 26.6953 23.1172 26.7076 23.1172 26.7227C23.1172 26.7377 23.0803 26.75 23.0352 26.75C22.99 26.75 22.9531 26.7623 22.9531 26.7773C22.9531 26.7924 22.9285 26.8047 22.8984 26.8047C22.8684 26.8047 22.8438 26.817 22.8438 26.832C22.8438 26.8471 22.8191 26.8594 22.7891 26.8594C22.759 26.8594 22.7344 26.8717 22.7344 26.8867C22.7344 26.9018 22.6975 26.9141 22.6523 26.9141C22.6072 26.9141 22.5703 26.9264 22.5703 26.9414C22.5703 26.9564 22.5334 26.9688 22.4883 26.9688C22.4432 26.9688 22.4062 26.9811 22.4062 26.9961C22.4062 27.0111 22.3693 27.0234 22.3242 27.0234C22.2791 27.0234 22.2422 27.0357 22.2422 27.0508C22.2422 27.0658 22.2053 27.0781 22.1602 27.0781C22.115 27.0781 22.0781 27.0904 22.0781 27.1055C22.0781 27.1205 22.0412 27.1328 21.9961 27.1328C21.951 27.1328 21.9141 27.1451 21.9141 27.1602C21.9141 27.1752 21.8525 27.1875 21.7773 27.1875C21.7021 27.1875 21.6406 27.1998 21.6406 27.2148C21.6406 27.2299 21.5914 27.2422 21.5312 27.2422C21.4711 27.2422 21.4219 27.2545 21.4219 27.2695C21.4219 27.2847 21.3489 27.2969 21.2578 27.2969C21.1667 27.2969 21.0938 27.309 21.0938 27.3242C21.0938 27.3404 20.9935 27.3516 20.8477 27.3516C20.7018 27.3516 20.6016 27.3627 20.6016 27.3789C20.6016 27.3963 20.3828 27.4062 20 27.4062C19.6172 27.4062 19.3984 27.3963 19.3984 27.3789C19.3984 27.3627 19.2982 27.3516 19.1523 27.3516C19.0065 27.3516 18.9062 27.3404 18.9062 27.3242C18.9062 27.309 18.8333 27.2969 18.7422 27.2969C18.6511 27.2969 18.5781 27.2847 18.5781 27.2695C18.5781 27.2545 18.5289 27.2422 18.4688 27.2422C18.4086 27.2422 18.3594 27.2299 18.3594 27.2148C18.3594 27.1998 18.3102 27.1875 18.25 27.1875C18.1898 27.1875 18.1406 27.1752 18.1406 27.1602C18.1406 27.1451 18.0914 27.1328 18.0312 27.1328C17.9711 27.1328 17.9219 27.1205 17.9219 27.1055C17.9219 27.0904 17.885 27.0781 17.8398 27.0781C17.7947 27.0781 17.7578 27.0658 17.7578 27.0508C17.7578 27.0357 17.7209 27.0234 17.6758 27.0234C17.6307 27.0234 17.5938 27.0111 17.5938 26.9961C17.5938 26.9811 17.5568 26.9688 17.5117 26.9688C17.4666 26.9688 17.4297 26.9564 17.4297 26.9414C17.4297 26.9264 17.3928 26.9141 17.3477 26.9141C17.3025 26.9141 17.2656 26.9018 17.2656 26.8867C17.2656 26.8717 17.241 26.8594 17.2109 26.8594C17.1809 26.8594 17.1562 26.8471 17.1562 26.832C17.1562 26.817 17.1316 26.8047 17.1016 26.8047C17.0715 26.8047 17.0469 26.7924 17.0469 26.7773C17.0469 26.7623 17.0223 26.75 16.9922 26.75C16.9621 26.75 16.9375 26.7377 16.9375 26.7227C16.9375 26.7076 16.9006 26.6953 16.8555 26.6953C16.8104 26.6953 16.7734 26.683 16.7734 26.668C16.7734 26.6529 16.7488 26.6406 16.7188 26.6406C16.6887 26.6406 16.6641 26.6283 16.6641 26.6133C16.6641 26.5982 16.6395 26.5859 16.6094 26.5859C16.5793 26.5859 16.5547 26.5736 16.5547 26.5586C16.5547 26.5436 16.5328 26.5312 16.506 26.5312C16.4793 26.5312 16.4397 26.5066 16.418 26.4766C16.3963 26.4465 16.3567 26.4219 16.3299 26.4219C16.3032 26.4219 16.2812 26.4096 16.2812 26.3945C16.2812 26.3795 16.2593 26.3672 16.2326 26.3672C16.2058 26.3672 16.1662 26.3426 16.1445 26.3125C16.1228 26.2824 16.0859 26.2578 16.0625 26.2578C16.0391 26.2578 16.0022 26.2332 15.9805 26.2031C15.9588 26.173 15.9219 26.1484 15.8984 26.1484C15.875 26.1484 15.8381 26.1238 15.8164 26.0938C15.7947 26.0637 15.76 26.0391 15.7393 26.0391C15.7186 26.0391 15.6671 26.0021 15.625 25.957C15.5829 25.9119 15.5336 25.875 15.5156 25.875C15.4976 25.875 15.4484 25.8381 15.4062 25.793C15.3641 25.7479 15.316 25.7109 15.2994 25.7109C15.2602 25.7109 14.3125 24.7637 14.3125 24.7246C14.3125 24.7083 14.2633 24.6476 14.2031 24.5898C14.143 24.532 14.0938 24.4681 14.0938 24.4476C14.0938 24.4272 14.0691 24.3928 14.0391 24.3711C14.009 24.3494 13.9844 24.3147 13.9844 24.294C13.9844 24.2733 13.9475 24.2218 13.9023 24.1797C13.8572 24.1376 13.8203 24.0834 13.8203 24.0593C13.8203 24.0353 13.808 24.0156 13.793 24.0156C13.7779 24.0156 13.7656 23.9937 13.7656 23.967C13.7656 23.9402 13.741 23.9006 13.7109 23.8789C13.6809 23.8572 13.6562 23.8176 13.6562 23.7908C13.6562 23.7641 13.6439 23.7422 13.6289 23.7422C13.6139 23.7422 13.6016 23.7203 13.6016 23.6935C13.6016 23.6668 13.577 23.6272 13.5469 23.6055C13.5168 23.5838 13.4922 23.5442 13.4922 23.5174C13.4922 23.4907 13.4799 23.4688 13.4648 23.4688C13.4498 23.4688 13.4375 23.4441 13.4375 23.4141C13.4375 23.384 13.4252 23.3594 13.4102 23.3594C13.3951 23.3594 13.3828 23.3348 13.3828 23.3047C13.3828 23.2746 13.3705 23.25 13.3555 23.25C13.3404 23.25 13.3281 23.2254 13.3281 23.1953C13.3281 23.1652 13.3158 23.1406 13.3008 23.1406C13.2857 23.1406 13.2734 23.1037 13.2734 23.0586C13.2734 23.0135 13.2611 22.9766 13.2461 22.9766C13.2311 22.9766 13.2188 22.952 13.2188 22.9219C13.2188 22.8918 13.2064 22.8672 13.1914 22.8672C13.1764 22.8672 13.1641 22.8426 13.1641 22.8125C13.1641 22.7824 13.1518 22.7578 13.1367 22.7578C13.1217 22.7578 13.1094 22.7209 13.1094 22.6758C13.1094 22.6307 13.0971 22.5938 13.082 22.5938C13.067 22.5938 13.0547 22.5568 13.0547 22.5117C13.0547 22.4666 13.0424 22.4297 13.0273 22.4297C13.0123 22.4297 13 22.3928 13 22.3477C13 22.3025 12.9877 22.2656 12.9727 22.2656C12.9576 22.2656 12.9453 22.2287 12.9453 22.1836C12.9453 22.1385 12.933 22.1016 12.918 22.1016C12.9029 22.1016 12.8906 22.0523 12.8906 21.9922C12.8906 21.932 12.8783 21.8828 12.8633 21.8828C12.8482 21.8828 12.8359 21.8336 12.8359 21.7734C12.8359 21.7133 12.8236 21.6641 12.8086 21.6641C12.7936 21.6641 12.7812 21.6148 12.7812 21.5547C12.7812 21.4945 12.7689 21.4453 12.7539 21.4453C12.7387 21.4453 12.7266 21.3724 12.7266 21.2812C12.7266 21.1901 12.7144 21.1172 12.6992 21.1172C12.683 21.1172 12.6719 21.0169 12.6719 20.8711C12.6719 20.7253 12.6607 20.625 12.6445 20.625C12.6271 20.625 12.6172 20.4062 12.6172 20.0234C12.6172 19.6406 12.6271 19.4219 12.6445 19.4219C12.6607 19.4219 12.6719 19.3216 12.6719 19.1758C12.6719 19.03 12.683 18.9297 12.6992 18.9297C12.7144 18.9297 12.7266 18.8568 12.7266 18.7656C12.7266 18.6745 12.7387 18.6016 12.7539 18.6016C12.7689 18.6016 12.7812 18.5523 12.7812 18.4922C12.7812 18.432 12.7936 18.3828 12.8086 18.3828C12.8236 18.3828 12.8359 18.3213 12.8359 18.2461C12.8359 18.1709 12.8482 18.1094 12.8633 18.1094C12.8783 18.1094 12.8906 18.0725 12.8906 18.0273C12.8906 17.9822 12.9029 17.9453 12.918 17.9453C12.933 17.9453 12.9453 17.9084 12.9453 17.8633C12.9453 17.8182 12.9576 17.7812 12.9727 17.7812C12.9877 17.7812 13 17.7443 13 17.6992C13 17.6541 13.0123 17.6172 13.0273 17.6172C13.0424 17.6172 13.0547 17.5803 13.0547 17.5352C13.0547 17.49 13.067 17.4531 13.082 17.4531C13.0971 17.4531 13.1094 17.4162 13.1094 17.3711C13.1094 17.326 13.1217 17.2891 13.1367 17.2891C13.1518 17.2891 13.1641 17.2645 13.1641 17.2344C13.1641 17.2043 13.1764 17.1797 13.1914 17.1797C13.2064 17.1797 13.2188 17.1551 13.2188 17.125C13.2188 17.0949 13.2311 17.0703 13.2461 17.0703C13.2611 17.0703 13.2734 17.0334 13.2734 16.9883C13.2734 16.9432 13.2857 16.9062 13.3008 16.9062C13.3158 16.9062 13.3281 16.8816 13.3281 16.8516C13.3281 16.8215 13.3404 16.7969 13.3555 16.7969C13.3705 16.7969 13.3828 16.7723 13.3828 16.7422C13.3828 16.7121 13.3951 16.6875 13.4102 16.6875C13.4252 16.6875 13.4375 16.6629 13.4375 16.6328C13.4375 16.6027 13.4498 16.5781 13.4648 16.5781C13.4799 16.5781 13.4922 16.5562 13.4922 16.5295C13.4922 16.5027 13.5168 16.4631 13.5469 16.4414C13.577 16.4197 13.6016 16.3801 13.6016 16.3533C13.6016 16.3266 13.6139 16.3047 13.6289 16.3047C13.6439 16.3047 13.6562 16.2828 13.6562 16.256C13.6562 16.2293 13.6809 16.1897 13.7109 16.168C13.741 16.1463 13.7656 16.1094 13.7656 16.0859C13.7656 16.0625 13.7902 16.0256 13.8203 16.0039C13.8504 15.9822 13.875 15.9453 13.875 15.9219C13.875 15.8984 13.8996 15.8615 13.9297 15.8398C13.9598 15.8182 13.9844 15.7812 13.9844 15.7578C13.9844 15.7344 14.009 15.6975 14.0391 15.6758C14.0691 15.6541 14.0938 15.6197 14.0938 15.5992C14.0938 15.5788 14.143 15.5148 14.2031 15.457C14.2633 15.3992 14.3125 15.3386 14.3125 15.3223C14.3125 15.2835 15.26 14.3359 15.2988 14.3359C15.3151 14.3359 15.3758 14.2867 15.4336 14.2266C15.4914 14.1664 15.5554 14.1172 15.5758 14.1172C15.5962 14.1172 15.6307 14.0926 15.6523 14.0625C15.674 14.0324 15.7109 14.0078 15.7344 14.0078C15.7578 14.0078 15.7947 13.9832 15.8164 13.9531C15.8381 13.923 15.875 13.8984 15.8984 13.8984C15.9219 13.8984 15.9588 13.8738 15.9805 13.8438C16.0022 13.8137 16.0391 13.7891 16.0625 13.7891C16.0859 13.7891 16.1228 13.7645 16.1445 13.7344C16.1662 13.7043 16.2058 13.6797 16.2326 13.6797C16.2593 13.6797 16.2812 13.6674 16.2812 13.6523C16.2812 13.6373 16.3032 13.625 16.3299 13.625C16.3567 13.625 16.3963 13.6004 16.418 13.5703C16.4397 13.5402 16.4793 13.5156 16.506 13.5156C16.5328 13.5156 16.5547 13.5033 16.5547 13.4883C16.5547 13.4732 16.5793 13.4609 16.6094 13.4609C16.6395 13.4609 16.6641 13.4486 16.6641 13.4336C16.6641 13.4186 16.6887 13.4062 16.7188 13.4062C16.7488 13.4062 16.7734 13.3939 16.7734 13.3789C16.7734 13.3639 16.798 13.3516 16.8281 13.3516C16.8582 13.3516 16.8828 13.3393 16.8828 13.3242C16.8828 13.3092 16.9197 13.2969 16.9648 13.2969C17.01 13.2969 17.0469 13.2846 17.0469 13.2695C17.0469 13.2545 17.0715 13.2422 17.1016 13.2422C17.1316 13.2422 17.1562 13.2299 17.1562 13.2148C17.1562 13.1998 17.1809 13.1875 17.2109 13.1875C17.241 13.1875 17.2656 13.1752 17.2656 13.1602C17.2656 13.1451 17.3025 13.1328 17.3477 13.1328C17.3928 13.1328 17.4297 13.1205 17.4297 13.1055C17.4297 13.0904 17.4666 13.0781 17.5117 13.0781C17.5568 13.0781 17.5938 13.0658 17.5938 13.0508C17.5938 13.0357 17.6307 13.0234 17.6758 13.0234C17.7209 13.0234 17.7578 13.0111 17.7578 12.9961C17.7578 12.9811 17.7947 12.9688 17.8398 12.9688C17.885 12.9688 17.9219 12.9564 17.9219 12.9414C17.9219 12.9264 17.9588 12.9141 18.0039 12.9141C18.049 12.9141 18.0859 12.9018 18.0859 12.8867C18.0859 12.8717 18.1475 12.8594 18.2227 12.8594C18.2979 12.8594 18.3594 12.8471 18.3594 12.832C18.3594 12.817 18.4086 12.8047 18.4688 12.8047C18.5289 12.8047 18.5781 12.7924 18.5781 12.7773C18.5781 12.7621 18.6511 12.75 18.7422 12.75C18.8333 12.75 18.9062 12.7379 18.9062 12.7227C18.9062 12.7064 19.0065 12.6953 19.1523 12.6953C19.2982 12.6953 19.3984 12.6842 19.3984 12.668C19.3984 12.6506 19.6172 12.6406 20 12.6406C20.3828 12.6406 20.6016 12.6506 20.6016 12.668ZM19.4531 14.3086C19.4531 14.3245 19.362 14.3359 19.2344 14.3359C19.1068 14.3359 19.0156 14.3473 19.0156 14.3633C19.0156 14.3783 18.9541 14.3906 18.8789 14.3906C18.8037 14.3906 18.7422 14.4029 18.7422 14.418C18.7422 14.433 18.693 14.4453 18.6328 14.4453C18.5727 14.4453 18.5234 14.4576 18.5234 14.4727C18.5234 14.4877 18.4865 14.5 18.4414 14.5C18.3963 14.5 18.3594 14.5123 18.3594 14.5273C18.3594 14.5424 18.3225 14.5547 18.2773 14.5547C18.2322 14.5547 18.1953 14.567 18.1953 14.582C18.1953 14.5971 18.1584 14.6094 18.1133 14.6094C18.0682 14.6094 18.0312 14.6217 18.0312 14.6367C18.0312 14.6518 17.9943 14.6641 17.9492 14.6641C17.9041 14.6641 17.8672 14.6764 17.8672 14.6914C17.8672 14.7064 17.8426 14.7188 17.8125 14.7188C17.7824 14.7188 17.7578 14.7311 17.7578 14.7461C17.7578 14.7611 17.7209 14.7734 17.6758 14.7734C17.6307 14.7734 17.5938 14.7857 17.5938 14.8008C17.5938 14.8158 17.5691 14.8281 17.5391 14.8281C17.509 14.8281 17.4844 14.8404 17.4844 14.8555C17.4844 14.8705 17.4598 14.8828 17.4297 14.8828C17.3996 14.8828 17.375 14.8951 17.375 14.9102C17.375 14.9252 17.3531 14.9375 17.3264 14.9375C17.2996 14.9375 17.26 14.9621 17.2383 14.9922C17.2166 15.0223 17.177 15.0469 17.1502 15.0469C17.1235 15.0469 17.1016 15.0592 17.1016 15.0742C17.1016 15.0893 17.0797 15.1016 17.0529 15.1016C17.0261 15.1016 16.9865 15.1262 16.9648 15.1562C16.9432 15.1863 16.9062 15.2109 16.8828 15.2109C16.8594 15.2109 16.8225 15.2355 16.8008 15.2656C16.7791 15.2957 16.7422 15.3203 16.7188 15.3203C16.6953 15.3203 16.6584 15.3449 16.6367 15.375C16.615 15.4051 16.5808 15.4297 16.5605 15.4297C16.5403 15.4297 16.4639 15.4912 16.3906 15.5664C16.3174 15.6416 16.2442 15.7031 16.228 15.7031C16.1895 15.7031 15.6797 16.213 15.6797 16.2514C15.6797 16.2676 15.6182 16.3408 15.543 16.4141C15.4678 16.4873 15.4062 16.5638 15.4062 16.584C15.4062 16.6042 15.3816 16.6385 15.3516 16.6602C15.3215 16.6818 15.2969 16.7188 15.2969 16.7422C15.2969 16.7656 15.2723 16.8025 15.2422 16.8242C15.2121 16.8459 15.1875 16.8828 15.1875 16.9062C15.1875 16.9297 15.1629 16.9666 15.1328 16.9883C15.1027 17.01 15.0781 17.0496 15.0781 17.0764C15.0781 17.1031 15.0658 17.125 15.0508 17.125C15.0357 17.125 15.0234 17.1469 15.0234 17.1736C15.0234 17.2004 14.9988 17.24 14.9688 17.2617C14.9387 17.2834 14.9141 17.323 14.9141 17.3498C14.9141 17.3765 14.9018 17.3984 14.8867 17.3984C14.8717 17.3984 14.8594 17.423 14.8594 17.4531C14.8594 17.4832 14.8471 17.5078 14.832 17.5078C14.817 17.5078 14.8047 17.5324 14.8047 17.5625C14.8047 17.5926 14.7924 17.6172 14.7773 17.6172C14.7623 17.6172 14.75 17.6541 14.75 17.6992C14.75 17.7443 14.7377 17.7812 14.7227 17.7812C14.7076 17.7812 14.6953 17.8059 14.6953 17.8359C14.6953 17.866 14.683 17.8906 14.668 17.8906C14.6529 17.8906 14.6406 17.9275 14.6406 17.9727C14.6406 18.0178 14.6283 18.0547 14.6133 18.0547C14.5982 18.0547 14.5859 18.0793 14.5859 18.1094C14.5859 18.1395 14.5736 18.1641 14.5586 18.1641C14.5436 18.1641 14.5312 18.2133 14.5312 18.2734C14.5312 18.3336 14.5189 18.3828 14.5039 18.3828C14.4889 18.3828 14.4766 18.4197 14.4766 18.4648C14.4766 18.51 14.4643 18.5469 14.4492 18.5469C14.4342 18.5469 14.4219 18.5961 14.4219 18.6562C14.4219 18.7164 14.4096 18.7656 14.3945 18.7656C14.3795 18.7656 14.3672 18.8271 14.3672 18.9023C14.3672 18.9775 14.3549 19.0391 14.3398 19.0391C14.3239 19.0391 14.3125 19.1302 14.3125 19.2578C14.3125 19.3854 14.3011 19.4766 14.2852 19.4766C14.2678 19.4766 14.2578 19.6771 14.2578 20.0234C14.2578 20.3698 14.2678 20.5703 14.2852 20.5703C14.3011 20.5703 14.3125 20.6614 14.3125 20.7891C14.3125 20.9167 14.3239 21.0078 14.3398 21.0078C14.3549 21.0078 14.3672 21.0693 14.3672 21.1445C14.3672 21.2197 14.3795 21.2812 14.3945 21.2812C14.4096 21.2812 14.4219 21.3305 14.4219 21.3906C14.4219 21.4508 14.4342 21.5 14.4492 21.5C14.4643 21.5 14.4766 21.5369 14.4766 21.582C14.4766 21.6271 14.4889 21.6641 14.5039 21.6641C14.5189 21.6641 14.5312 21.7133 14.5312 21.7734C14.5312 21.8336 14.5436 21.8828 14.5586 21.8828C14.5736 21.8828 14.5859 21.9074 14.5859 21.9375C14.5859 21.9676 14.5982 21.9922 14.6133 21.9922C14.6283 21.9922 14.6406 22.0141 14.6406 22.0408C14.6406 22.0676 14.6652 22.1072 14.6953 22.1289C14.7254 22.1506 14.75 22.1902 14.75 22.217C14.75 22.2454 14.7702 22.2656 14.7986 22.2656C14.8254 22.2656 14.865 22.2902 14.8867 22.3203C14.9084 22.3504 14.948 22.375 14.9748 22.375C15.0015 22.375 15.0234 22.3873 15.0234 22.4023C15.0234 22.4174 15.048 22.4297 15.0781 22.4297C15.1082 22.4297 15.1328 22.442 15.1328 22.457C15.1328 22.473 15.2239 22.4844 15.3516 22.4844C15.4792 22.4844 15.5703 22.473 15.5703 22.457C15.5703 22.442 15.6045 22.4297 15.6463 22.4297C15.6909 22.4297 15.7386 22.4071 15.7617 22.375C15.7834 22.3449 15.8174 22.3203 15.8374 22.3203C15.8843 22.3203 16.0078 22.1968 16.0078 22.1499C16.0078 22.1299 16.0324 22.0959 16.0625 22.0742C16.0946 22.0511 16.1172 22.0034 16.1172 21.9588C16.1172 21.917 16.1295 21.8828 16.1445 21.8828C16.1605 21.8828 16.1719 21.7917 16.1719 21.6641C16.1719 21.5364 16.1605 21.4453 16.1445 21.4453C16.1295 21.4453 16.1172 21.4084 16.1172 21.3633C16.1172 21.3182 16.1049 21.2812 16.0898 21.2812C16.0748 21.2812 16.0625 21.232 16.0625 21.1719C16.0625 21.1117 16.0502 21.0625 16.0352 21.0625C16.0201 21.0625 16.0078 21.0133 16.0078 20.9531C16.0078 20.893 15.9955 20.8438 15.9805 20.8438C15.9649 20.8438 15.9531 20.7617 15.9531 20.6523C15.9531 20.543 15.9414 20.4609 15.9258 20.4609C15.9087 20.4609 15.8984 20.2969 15.8984 20.0234C15.8984 19.75 15.9087 19.5859 15.9258 19.5859C15.9414 19.5859 15.9531 19.5039 15.9531 19.3945C15.9531 19.2852 15.9649 19.2031 15.9805 19.2031C15.9955 19.2031 16.0078 19.1539 16.0078 19.0938C16.0078 19.0336 16.0201 18.9844 16.0352 18.9844C16.0502 18.9844 16.0625 18.9352 16.0625 18.875C16.0625 18.8148 16.0748 18.7656 16.0898 18.7656C16.1049 18.7656 16.1172 18.7287 16.1172 18.6836C16.1172 18.6385 16.1295 18.6016 16.1445 18.6016C16.1596 18.6016 16.1719 18.577 16.1719 18.5469C16.1719 18.5168 16.1842 18.4922 16.1992 18.4922C16.2143 18.4922 16.2266 18.4676 16.2266 18.4375C16.2266 18.4074 16.2389 18.3828 16.2539 18.3828C16.2689 18.3828 16.2812 18.3459 16.2812 18.3008C16.2812 18.2557 16.2936 18.2188 16.3086 18.2188C16.3236 18.2188 16.3359 18.1941 16.3359 18.1641C16.3359 18.134 16.3482 18.1094 16.3633 18.1094C16.3783 18.1094 16.3906 18.0875 16.3906 18.0607C16.3906 18.034 16.4152 17.9943 16.4453 17.9727C16.4754 17.951 16.5 17.9141 16.5 17.8906C16.5 17.8672 16.5246 17.8303 16.5547 17.8086C16.5848 17.7869 16.6094 17.75 16.6094 17.7266C16.6094 17.7031 16.634 17.6662 16.6641 17.6445C16.6941 17.6228 16.7188 17.5887 16.7188 17.5686C16.7188 17.5486 16.7926 17.4597 16.8828 17.3711C16.973 17.2825 17.0469 17.1909 17.0469 17.1675C17.0469 17.1441 17.0659 17.125 17.0892 17.125C17.1125 17.125 17.2165 17.0389 17.3203 16.9336C17.4241 16.8283 17.5254 16.7422 17.5454 16.7422C17.5653 16.7422 17.5994 16.7176 17.6211 16.6875C17.6428 16.6574 17.6797 16.6328 17.7031 16.6328C17.7266 16.6328 17.7635 16.6082 17.7852 16.5781C17.8068 16.548 17.8438 16.5234 17.8672 16.5234C17.8906 16.5234 17.9275 16.4988 17.9492 16.4688C17.9709 16.4387 18.0105 16.4141 18.0373 16.4141C18.064 16.4141 18.0859 16.4018 18.0859 16.3867C18.0859 16.3717 18.1105 16.3594 18.1406 16.3594C18.1707 16.3594 18.1953 16.3471 18.1953 16.332C18.1953 16.317 18.2322 16.3047 18.2773 16.3047C18.3225 16.3047 18.3594 16.2924 18.3594 16.2773C18.3594 16.2623 18.384 16.25 18.4141 16.25C18.4441 16.25 18.4688 16.2377 18.4688 16.2227C18.4688 16.2076 18.4934 16.1953 18.5234 16.1953C18.5535 16.1953 18.5781 16.183 18.5781 16.168C18.5781 16.1529 18.615 16.1406 18.6602 16.1406C18.7053 16.1406 18.7422 16.1283 18.7422 16.1133C18.7422 16.0982 18.7914 16.0859 18.8516 16.0859C18.9117 16.0859 18.9609 16.0736 18.9609 16.0586C18.9609 16.0436 19.0102 16.0312 19.0703 16.0312C19.1305 16.0312 19.1797 16.0189 19.1797 16.0039C19.1797 15.9883 19.2617 15.9766 19.3711 15.9766C19.4805 15.9766 19.5625 15.9648 19.5625 15.9492C19.5625 15.9321 19.7357 15.9219 20.0273 15.9219C20.319 15.9219 20.4922 15.9321 20.4922 15.9492C20.4922 15.9644 20.5651 15.9766 20.6562 15.9766C20.7474 15.9766 20.8203 15.9887 20.8203 16.0039C20.8203 16.0189 20.8695 16.0312 20.9297 16.0312C20.9898 16.0312 21.0391 16.0436 21.0391 16.0586C21.0391 16.0736 21.0883 16.0859 21.1484 16.0859C21.2086 16.0859 21.2578 16.0982 21.2578 16.1133C21.2578 16.1283 21.2947 16.1406 21.3398 16.1406C21.385 16.1406 21.4219 16.1529 21.4219 16.168C21.4219 16.183 21.4465 16.1953 21.4766 16.1953C21.5066 16.1953 21.5312 16.2076 21.5312 16.2227C21.5312 16.2377 21.5682 16.25 21.6133 16.25C21.6584 16.25 21.6953 16.2623 21.6953 16.2773C21.6953 16.2924 21.7199 16.3047 21.75 16.3047C21.7801 16.3047 21.8047 16.317 21.8047 16.332C21.8047 16.3471 21.8266 16.3594 21.8533 16.3594C21.8801 16.3594 21.9197 16.384 21.9414 16.4141C21.9631 16.4441 22.0027 16.4688 22.0295 16.4688C22.0562 16.4688 22.0781 16.4811 22.0781 16.4961C22.0781 16.5111 22.1 16.5234 22.1268 16.5234C22.1535 16.5234 22.1932 16.548 22.2148 16.5781C22.2365 16.6082 22.2734 16.6328 22.2969 16.6328C22.3203 16.6328 22.3572 16.6574 22.3789 16.6875C22.4006 16.7176 22.4347 16.7422 22.4548 16.7422C22.4749 16.7422 22.5638 16.816 22.6523 16.9062C22.7409 16.9965 22.8325 17.0703 22.8559 17.0703C22.8793 17.0703 22.8984 17.0894 22.8984 17.1126C22.8984 17.1359 22.9846 17.2399 23.0898 17.3438C23.1951 17.4476 23.2812 17.5489 23.2812 17.5688C23.2812 17.5888 23.3059 17.6228 23.3359 17.6445C23.366 17.6662 23.3906 17.7031 23.3906 17.7266C23.3906 17.75 23.4152 17.7869 23.4453 17.8086C23.4754 17.8303 23.5 17.8699 23.5 17.8967C23.5 17.9234 23.5123 17.9453 23.5273 17.9453C23.5424 17.9453 23.5547 17.9672 23.5547 17.994C23.5547 18.0207 23.5793 18.0603 23.6094 18.082C23.6395 18.1037 23.6641 18.1433 23.6641 18.1701C23.6641 18.1968 23.6764 18.2188 23.6914 18.2188C23.7064 18.2188 23.7188 18.2557 23.7188 18.3008C23.7188 18.3459 23.7311 18.3828 23.7461 18.3828C23.7611 18.3828 23.7734 18.4074 23.7734 18.4375C23.7734 18.4676 23.7857 18.4922 23.8008 18.4922C23.8158 18.4922 23.8281 18.5168 23.8281 18.5469C23.8281 18.577 23.8404 18.6016 23.8555 18.6016C23.8705 18.6016 23.8828 18.6385 23.8828 18.6836C23.8828 18.7287 23.8951 18.7656 23.9102 18.7656C23.9252 18.7656 23.9375 18.8148 23.9375 18.875C23.9375 18.9352 23.9498 18.9844 23.9648 18.9844C23.9799 18.9844 23.9922 19.0336 23.9922 19.0938C23.9922 19.1539 24.0045 19.2031 24.0195 19.2031C24.0351 19.2031 24.0469 19.2852 24.0469 19.3945C24.0469 19.5039 24.0586 19.5859 24.0742 19.5859C24.0913 19.5859 24.1016 19.75 24.1016 20.0234C24.1016 20.2969 24.0913 20.4609 24.0742 20.4609C24.0586 20.4609 24.0469 20.543 24.0469 20.6523C24.0469 20.7617 24.0351 20.8438 24.0195 20.8438C24.0045 20.8438 23.9922 20.893 23.9922 20.9531C23.9922 21.0133 23.9799 21.0625 23.9648 21.0625C23.9498 21.0625 23.9375 21.0994 23.9375 21.1445C23.9375 21.1896 23.9252 21.2266 23.9102 21.2266C23.8951 21.2266 23.8828 21.2758 23.8828 21.3359C23.8828 21.3961 23.8705 21.4453 23.8555 21.4453C23.8395 21.4453 23.8281 21.5364 23.8281 21.6641C23.8281 21.7917 23.8395 21.8828 23.8555 21.8828C23.8705 21.8828 23.8828 21.917 23.8828 21.9588C23.8828 22.0034 23.9054 22.0511 23.9375 22.0742C23.9676 22.0959 23.9922 22.1299 23.9922 22.1499C23.9922 22.1968 24.1157 22.3203 24.1626 22.3203C24.1826 22.3203 24.2166 22.3449 24.2383 22.375C24.2614 22.4071 24.3091 22.4297 24.3537 22.4297C24.3955 22.4297 24.4297 22.442 24.4297 22.457C24.4297 22.473 24.5208 22.4844 24.6484 22.4844C24.7761 22.4844 24.8672 22.473 24.8672 22.457C24.8672 22.442 24.8918 22.4297 24.9219 22.4297C24.952 22.4297 24.9766 22.4174 24.9766 22.4023C24.9766 22.3873 24.9985 22.375 25.0252 22.375C25.052 22.375 25.0916 22.3504 25.1133 22.3203C25.135 22.2902 25.1746 22.2656 25.2014 22.2656C25.2298 22.2656 25.25 22.2454 25.25 22.217C25.25 22.1902 25.2746 22.1506 25.3047 22.1289C25.3348 22.1072 25.3594 22.0676 25.3594 22.0408C25.3594 22.0141 25.3717 21.9922 25.3867 21.9922C25.4018 21.9922 25.4141 21.9676 25.4141 21.9375C25.4141 21.9074 25.4264 21.8828 25.4414 21.8828C25.4564 21.8828 25.4688 21.8336 25.4688 21.7734C25.4688 21.7133 25.4811 21.6641 25.4961 21.6641C25.5111 21.6641 25.5234 21.6271 25.5234 21.582C25.5234 21.5369 25.5357 21.5 25.5508 21.5C25.5658 21.5 25.5781 21.4508 25.5781 21.3906C25.5781 21.3305 25.5904 21.2812 25.6055 21.2812C25.6205 21.2812 25.6328 21.2197 25.6328 21.1445C25.6328 21.0693 25.6451 21.0078 25.6602 21.0078C25.6761 21.0078 25.6875 20.9167 25.6875 20.7891C25.6875 20.6614 25.6989 20.5703 25.7148 20.5703C25.7322 20.5703 25.7422 20.3698 25.7422 20.0234C25.7422 19.6771 25.7322 19.4766 25.7148 19.4766C25.6989 19.4766 25.6875 19.3854 25.6875 19.2578C25.6875 19.1302 25.6761 19.0391 25.6602 19.0391C25.6451 19.0391 25.6328 18.9775 25.6328 18.9023C25.6328 18.8271 25.6205 18.7656 25.6055 18.7656C25.5904 18.7656 25.5781 18.7164 25.5781 18.6562C25.5781 18.5961 25.5658 18.5469 25.5508 18.5469C25.5357 18.5469 25.5234 18.51 25.5234 18.4648C25.5234 18.4197 25.5111 18.3828 25.4961 18.3828C25.4811 18.3828 25.4688 18.3459 25.4688 18.3008C25.4688 18.2557 25.4564 18.2188 25.4414 18.2188C25.4264 18.2188 25.4141 18.1818 25.4141 18.1367C25.4141 18.0916 25.4018 18.0547 25.3867 18.0547C25.3717 18.0547 25.3594 18.0178 25.3594 17.9727C25.3594 17.9275 25.3471 17.8906 25.332 17.8906C25.317 17.8906 25.3047 17.866 25.3047 17.8359C25.3047 17.8059 25.2924 17.7812 25.2773 17.7812C25.2623 17.7812 25.25 17.7443 25.25 17.6992C25.25 17.6541 25.2377 17.6172 25.2227 17.6172C25.2076 17.6172 25.1953 17.5926 25.1953 17.5625C25.1953 17.5324 25.183 17.5078 25.168 17.5078C25.1529 17.5078 25.1406 17.4832 25.1406 17.4531C25.1406 17.423 25.1283 17.3984 25.1133 17.3984C25.0982 17.3984 25.0859 17.3765 25.0859 17.3498C25.0859 17.323 25.0613 17.2834 25.0312 17.2617C25.0012 17.24 24.9766 17.2004 24.9766 17.1736C24.9766 17.1469 24.9643 17.125 24.9492 17.125C24.9342 17.125 24.9219 17.1031 24.9219 17.0764C24.9219 17.0496 24.8973 17.01 24.8672 16.9883C24.8371 16.9666 24.8125 16.9297 24.8125 16.9062C24.8125 16.8828 24.7879 16.8459 24.7578 16.8242C24.7277 16.8025 24.7031 16.7656 24.7031 16.7422C24.7031 16.7188 24.6785 16.6818 24.6484 16.6602C24.6184 16.6385 24.5938 16.6042 24.5938 16.584C24.5938 16.5638 24.5322 16.4873 24.457 16.4141C24.3818 16.3408 24.3203 16.2676 24.3203 16.2514C24.3203 16.2128 23.7556 15.6484 23.7169 15.6484C23.7005 15.6484 23.6398 15.5992 23.582 15.5391C23.5242 15.4789 23.4625 15.4297 23.4448 15.4297C23.427 15.4297 23.3781 15.3928 23.3359 15.3477C23.2938 15.3025 23.2396 15.2656 23.2156 15.2656C23.1915 15.2656 23.1719 15.2533 23.1719 15.2383C23.1719 15.2232 23.15 15.2109 23.1232 15.2109C23.0965 15.2109 23.0568 15.1863 23.0352 15.1562C23.0135 15.1262 22.9766 15.1016 22.9531 15.1016C22.9297 15.1016 22.8928 15.077 22.8711 15.0469C22.8494 15.0168 22.8098 14.9922 22.783 14.9922C22.7563 14.9922 22.7344 14.9799 22.7344 14.9648C22.7344 14.9498 22.7098 14.9375 22.6797 14.9375C22.6496 14.9375 22.625 14.9252 22.625 14.9102C22.625 14.8951 22.6004 14.8828 22.5703 14.8828C22.5402 14.8828 22.5156 14.8705 22.5156 14.8555C22.5156 14.8404 22.491 14.8281 22.4609 14.8281C22.4309 14.8281 22.4062 14.8158 22.4062 14.8008C22.4062 14.7857 22.3693 14.7734 22.3242 14.7734C22.2791 14.7734 22.2422 14.7611 22.2422 14.7461C22.2422 14.7311 22.2176 14.7188 22.1875 14.7188C22.1574 14.7188 22.1328 14.7064 22.1328 14.6914C22.1328 14.6764 22.0959 14.6641 22.0508 14.6641C22.0057 14.6641 21.9688 14.6518 21.9688 14.6367C21.9688 14.6217 21.9441 14.6094 21.9141 14.6094C21.884 14.6094 21.8594 14.5971 21.8594 14.582C21.8594 14.567 21.8102 14.5547 21.75 14.5547C21.6898 14.5547 21.6406 14.5424 21.6406 14.5273C21.6406 14.5123 21.6037 14.5 21.5586 14.5C21.5135 14.5 21.4766 14.4877 21.4766 14.4727C21.4766 14.4576 21.4273 14.4453 21.3672 14.4453C21.307 14.4453 21.2578 14.433 21.2578 14.418C21.2578 14.4029 21.1963 14.3906 21.1211 14.3906C21.0459 14.3906 20.9844 14.3783 20.9844 14.3633C20.9844 14.3473 20.8932 14.3359 20.7656 14.3359C20.638 14.3359 20.5469 14.3245 20.5469 14.3086C20.5469 14.2913 20.3464 14.2812 20 14.2812C19.6536 14.2812 19.4531 14.2913 19.4531 14.3086ZM19.7812 17.5898C19.7812 17.6049 19.7566 17.6172 19.7266 17.6172C19.6965 17.6172 19.6719 17.6295 19.6719 17.6445C19.6719 17.6596 19.6473 17.6719 19.6172 17.6719C19.5871 17.6719 19.5625 17.6842 19.5625 17.6992C19.5625 17.7143 19.5435 17.7266 19.5203 17.7266C19.497 17.7266 19.4478 17.7568 19.4109 17.7937C19.374 17.8306 19.3438 17.8798 19.3438 17.9031C19.3438 17.9263 19.3314 17.9453 19.3164 17.9453C19.3014 17.9453 19.2891 17.9699 19.2891 18C19.2891 18.0301 19.2768 18.0547 19.2617 18.0547C19.2467 18.0547 19.2344 18.0793 19.2344 18.1094C19.2344 18.1395 19.2221 18.1641 19.207 18.1641C19.1891 18.1641 19.1797 18.8021 19.1797 20.0234C19.1797 21.2448 19.1891 21.8828 19.207 21.8828C19.2221 21.8828 19.2344 21.9074 19.2344 21.9375C19.2344 21.9676 19.2467 21.9922 19.2617 21.9922C19.2768 21.9922 19.2891 22.0168 19.2891 22.0469C19.2891 22.077 19.3014 22.1016 19.3164 22.1016C19.3314 22.1016 19.3438 22.1206 19.3438 22.1438C19.3438 22.1985 19.4655 22.3203 19.5203 22.3203C19.5435 22.3203 19.5625 22.3326 19.5625 22.3477C19.5625 22.3627 19.5871 22.375 19.6172 22.375C19.6473 22.375 19.6719 22.3873 19.6719 22.4023C19.6719 22.4174 19.6965 22.4297 19.7266 22.4297C19.7566 22.4297 19.7812 22.442 19.7812 22.457C19.7812 22.473 19.8724 22.4844 20 22.4844C20.1276 22.4844 20.2188 22.473 20.2188 22.457C20.2188 22.442 20.2434 22.4297 20.2734 22.4297C20.3035 22.4297 20.3281 22.4174 20.3281 22.4023C20.3281 22.3873 20.3527 22.375 20.3828 22.375C20.4129 22.375 20.4375 22.3627 20.4375 22.3477C20.4375 22.3326 20.4565 22.3203 20.4797 22.3203C20.5345 22.3203 20.6562 22.1985 20.6562 22.1438C20.6562 22.1206 20.6686 22.1016 20.6836 22.1016C20.6986 22.1016 20.7109 22.077 20.7109 22.0469C20.7109 22.0168 20.7232 21.9922 20.7383 21.9922C20.7533 21.9922 20.7656 21.9676 20.7656 21.9375C20.7656 21.9074 20.7779 21.8828 20.793 21.8828C20.8109 21.8828 20.8203 21.2448 20.8203 20.0234C20.8203 18.8021 20.8109 18.1641 20.793 18.1641C20.7779 18.1641 20.7656 18.1395 20.7656 18.1094C20.7656 18.0793 20.7533 18.0547 20.7383 18.0547C20.7232 18.0547 20.7109 18.0301 20.7109 18C20.7109 17.9699 20.6986 17.9453 20.6836 17.9453C20.6686 17.9453 20.6562 17.9263 20.6562 17.9031C20.6562 17.8484 20.5345 17.7266 20.4797 17.7266C20.4565 17.7266 20.4375 17.7143 20.4375 17.6992C20.4375 17.6842 20.4129 17.6719 20.3828 17.6719C20.3527 17.6719 20.3281 17.6596 20.3281 17.6445C20.3281 17.6295 20.3035 17.6172 20.2734 17.6172C20.2434 17.6172 20.2188 17.6049 20.2188 17.5898C20.2188 17.5739 20.1276 17.5625 20 17.5625C19.8724 17.5625 19.7812 17.5739 19.7812 17.5898ZM11.0312 19.2578C11.0312 19.2879 11.0189 19.3125 11.0039 19.3125C10.9864 19.3125 10.9766 19.5677 10.9766 20.0234C10.9766 20.4792 10.9864 20.7344 11.0039 20.7344C11.0201 20.7344 11.0312 20.8346 11.0312 20.9805C11.0312 21.1263 11.0424 21.2266 11.0586 21.2266C11.0742 21.2266 11.0859 21.3086 11.0859 21.418C11.0859 21.5273 11.0977 21.6094 11.1133 21.6094C11.1283 21.6094 11.1406 21.6709 11.1406 21.7461C11.1406 21.8213 11.1529 21.8828 11.168 21.8828C11.183 21.8828 11.1953 21.932 11.1953 21.9922C11.1953 22.0523 11.2076 22.1016 11.2227 22.1016C11.2377 22.1016 11.25 22.1508 11.25 22.2109C11.25 22.2711 11.2623 22.3203 11.2773 22.3203C11.2924 22.3203 11.3047 22.3695 11.3047 22.4297C11.3047 22.4898 11.317 22.5391 11.332 22.5391C11.3471 22.5391 11.3594 22.576 11.3594 22.6211C11.3594 22.6662 11.3717 22.7031 11.3867 22.7031C11.4018 22.7031 11.4141 22.74 11.4141 22.7852C11.4141 22.8303 11.4264 22.8672 11.4414 22.8672C11.4564 22.8672 11.4688 22.9041 11.4688 22.9492C11.4688 22.9943 11.4811 23.0312 11.4961 23.0312C11.5111 23.0312 11.5234 23.0682 11.5234 23.1133C11.5234 23.1584 11.5357 23.1953 11.5508 23.1953C11.5658 23.1953 11.5781 23.2322 11.5781 23.2773C11.5781 23.3225 11.5904 23.3594 11.6055 23.3594C11.6205 23.3594 11.6328 23.384 11.6328 23.4141C11.6328 23.4441 11.6451 23.4688 11.6602 23.4688C11.6752 23.4688 11.6875 23.4934 11.6875 23.5234C11.6875 23.5535 11.6998 23.5781 11.7148 23.5781C11.7299 23.5781 11.7422 23.615 11.7422 23.6602C11.7422 23.7053 11.7545 23.7422 11.7695 23.7422C11.7846 23.7422 11.7969 23.7668 11.7969 23.7969C11.7969 23.827 11.8092 23.8516 11.8242 23.8516C11.8393 23.8516 11.8516 23.8762 11.8516 23.9062C11.8516 23.9363 11.8639 23.9609 11.8789 23.9609C11.8939 23.9609 11.9062 23.9855 11.9062 24.0156C11.9062 24.0457 11.9186 24.0703 11.9336 24.0703C11.9486 24.0703 11.9609 24.0949 11.9609 24.125C11.9609 24.1551 11.9732 24.1797 11.9883 24.1797C12.0033 24.1797 12.0156 24.2043 12.0156 24.2344C12.0156 24.2645 12.0279 24.2891 12.043 24.2891C12.058 24.2891 12.0703 24.311 12.0703 24.3377C12.0703 24.3645 12.0949 24.4041 12.125 24.4258C12.1551 24.4475 12.1797 24.4871 12.1797 24.5139C12.1797 24.5406 12.192 24.5625 12.207 24.5625C12.2221 24.5625 12.2344 24.5844 12.2344 24.6111C12.2344 24.6379 12.259 24.6775 12.2891 24.6992C12.3191 24.7209 12.3438 24.7605 12.3438 24.7873C12.3438 24.814 12.3561 24.8359 12.3711 24.8359C12.3861 24.8359 12.3984 24.8578 12.3984 24.8846C12.3984 24.9114 12.423 24.951 12.4531 24.9727C12.4832 24.9943 12.5078 25.029 12.5078 25.0498C12.5078 25.0705 12.5447 25.1219 12.5898 25.1641C12.635 25.2062 12.6719 25.2577 12.6719 25.2784C12.6719 25.2991 12.6965 25.3338 12.7266 25.3555C12.7566 25.3772 12.7812 25.4116 12.7812 25.432C12.7812 25.4524 12.8305 25.5164 12.8906 25.5742C13.0991 25.7745 13.1525 25.7656 11.7422 25.7656C10.9219 25.7656 10.4844 25.7561 10.4844 25.7383C10.4844 25.7232 10.4229 25.7109 10.3477 25.7109C10.2725 25.7109 10.2109 25.6986 10.2109 25.6836C10.2109 25.6686 10.1617 25.6562 10.1016 25.6562C10.0414 25.6562 9.99219 25.6439 9.99219 25.6289C9.99219 25.6139 9.95527 25.6016 9.91016 25.6016C9.86504 25.6016 9.82812 25.5893 9.82812 25.5742C9.82812 25.5592 9.79121 25.5469 9.74609 25.5469C9.70098 25.5469 9.66406 25.5346 9.66406 25.5195C9.66406 25.5045 9.63945 25.4922 9.60938 25.4922C9.5793 25.4922 9.55469 25.4799 9.55469 25.4648C9.55469 25.4498 9.53008 25.4375 9.5 25.4375C9.46992 25.4375 9.44531 25.4252 9.44531 25.4102C9.44531 25.3951 9.4207 25.3828 9.39062 25.3828C9.36055 25.3828 9.33594 25.3705 9.33594 25.3555C9.33594 25.3404 9.31404 25.3281 9.28729 25.3281C9.26052 25.3281 9.2209 25.3035 9.19922 25.2734C9.17754 25.2434 9.14284 25.2188 9.12211 25.2188C9.10141 25.2188 9.04995 25.1818 9.00781 25.1367C8.96568 25.0916 8.91752 25.0547 8.90082 25.0547C8.85816 25.0547 8.29688 24.4888 8.29688 24.4458C8.29688 24.4264 8.27227 24.3928 8.24219 24.3711C8.21211 24.3494 8.1875 24.3125 8.1875 24.2891C8.1875 24.2656 8.16289 24.2287 8.13281 24.207C8.10273 24.1853 8.07812 24.1457 8.07812 24.119C8.07812 24.0922 8.06582 24.0703 8.05078 24.0703C8.03574 24.0703 8.02344 24.0457 8.02344 24.0156C8.02344 23.9855 8.01113 23.9609 7.99609 23.9609C7.98105 23.9609 7.96875 23.9363 7.96875 23.9062C7.96875 23.8762 7.95645 23.8516 7.94141 23.8516C7.92637 23.8516 7.91406 23.827 7.91406 23.7969C7.91406 23.7668 7.90176 23.7422 7.88672 23.7422C7.87168 23.7422 7.85938 23.7053 7.85938 23.6602C7.85938 23.615 7.84707 23.5781 7.83203 23.5781C7.81699 23.5781 7.80469 23.5412 7.80469 23.4961C7.80469 23.451 7.79238 23.4141 7.77734 23.4141C7.7623 23.4141 7.75 23.3648 7.75 23.3047C7.75 23.2445 7.7377 23.1953 7.72266 23.1953C7.70745 23.1953 7.69531 23.1224 7.69531 23.0312C7.69531 22.9401 7.68317 22.8672 7.66797 22.8672C7.65096 22.8672 7.64062 22.7122 7.64062 22.457C7.64062 22.2018 7.65096 22.0469 7.66797 22.0469C7.68301 22.0469 7.69531 21.9854 7.69531 21.9102C7.69531 21.835 7.70762 21.7734 7.72266 21.7734C7.7377 21.7734 7.75 21.7242 7.75 21.6641C7.75 21.6039 7.7623 21.5547 7.77734 21.5547C7.79238 21.5547 7.80469 21.5178 7.80469 21.4727C7.80469 21.4275 7.81699 21.3906 7.83203 21.3906C7.84707 21.3906 7.85938 21.3537 7.85938 21.3086C7.85938 21.2635 7.87168 21.2266 7.88672 21.2266C7.90176 21.2266 7.91406 21.202 7.91406 21.1719C7.91406 21.1418 7.92637 21.1172 7.94141 21.1172C7.95645 21.1172 7.96875 21.0926 7.96875 21.0625C7.96875 21.0324 7.98105 21.0078 7.99609 21.0078C8.01113 21.0078 8.02344 20.9832 8.02344 20.9531C8.02344 20.923 8.03574 20.8984 8.05078 20.8984C8.06582 20.8984 8.07812 20.8765 8.07812 20.8498C8.07812 20.823 8.10273 20.7834 8.13281 20.7617C8.16289 20.74 8.1875 20.7031 8.1875 20.6797C8.1875 20.6563 8.21211 20.6193 8.24219 20.5977C8.27227 20.576 8.29688 20.5424 8.29688 20.523C8.29688 20.4799 8.85816 19.9141 8.90082 19.9141C8.91752 19.9141 8.96568 19.8771 9.00781 19.832C9.04995 19.7869 9.10141 19.75 9.12211 19.75C9.14284 19.75 9.17754 19.7254 9.19922 19.6953C9.2209 19.6652 9.26052 19.6406 9.28729 19.6406C9.31404 19.6406 9.33594 19.6283 9.33594 19.6133C9.33594 19.5982 9.36055 19.5859 9.39062 19.5859C9.4207 19.5859 9.44531 19.5736 9.44531 19.5586C9.44531 19.5436 9.46992 19.5312 9.5 19.5312C9.53008 19.5312 9.55469 19.5189 9.55469 19.5039C9.55469 19.4889 9.5793 19.4766 9.60938 19.4766C9.63945 19.4766 9.66406 19.4643 9.66406 19.4492C9.66406 19.4342 9.70098 19.4219 9.74609 19.4219C9.79121 19.4219 9.82812 19.4096 9.82812 19.3945C9.82812 19.3795 9.86504 19.3672 9.91016 19.3672C9.95527 19.3672 9.99219 19.3549 9.99219 19.3398C9.99219 19.3248 10.0414 19.3125 10.1016 19.3125C10.1617 19.3125 10.2109 19.3002 10.2109 19.2852C10.2109 19.2701 10.2725 19.2578 10.3477 19.2578C10.4229 19.2578 10.4844 19.2455 10.4844 19.2305C10.4844 19.2141 10.5938 19.2031 10.7578 19.2031C11.013 19.2031 11.0312 19.2068 11.0312 19.2578ZM29.5156 19.2305C29.5156 19.2455 29.5771 19.2578 29.6523 19.2578C29.7275 19.2578 29.7891 19.2701 29.7891 19.2852C29.7891 19.3002 29.8383 19.3125 29.8984 19.3125C29.9586 19.3125 30.0078 19.3248 30.0078 19.3398C30.0078 19.3549 30.0447 19.3672 30.0898 19.3672C30.135 19.3672 30.1719 19.3795 30.1719 19.3945C30.1719 19.4096 30.2088 19.4219 30.2539 19.4219C30.299 19.4219 30.3359 19.4342 30.3359 19.4492C30.3359 19.4643 30.3605 19.4766 30.3906 19.4766C30.4207 19.4766 30.4453 19.4889 30.4453 19.5039C30.4453 19.5189 30.4699 19.5312 30.5 19.5312C30.5301 19.5312 30.5547 19.5436 30.5547 19.5586C30.5547 19.5736 30.5793 19.5859 30.6094 19.5859C30.6395 19.5859 30.6641 19.5982 30.6641 19.6133C30.6641 19.6283 30.686 19.6406 30.7127 19.6406C30.7395 19.6406 30.7791 19.6652 30.8008 19.6953C30.8225 19.7254 30.8594 19.75 30.8828 19.75C30.9062 19.75 30.9432 19.7746 30.9648 19.8047C30.9865 19.8348 31.0201 19.8594 31.0395 19.8594C31.0856 19.8594 31.7031 20.4769 31.7031 20.523C31.7031 20.5424 31.7277 20.576 31.7578 20.5977C31.7879 20.6193 31.8125 20.6563 31.8125 20.6797C31.8125 20.7031 31.8371 20.74 31.8672 20.7617C31.8973 20.7834 31.9219 20.823 31.9219 20.8498C31.9219 20.8765 31.9342 20.8984 31.9492 20.8984C31.9643 20.8984 31.9766 20.923 31.9766 20.9531C31.9766 20.9832 31.9889 21.0078 32.0039 21.0078C32.0189 21.0078 32.0312 21.0324 32.0312 21.0625C32.0312 21.0926 32.0436 21.1172 32.0586 21.1172C32.0736 21.1172 32.0859 21.1418 32.0859 21.1719C32.0859 21.202 32.0982 21.2266 32.1133 21.2266C32.1283 21.2266 32.1406 21.2635 32.1406 21.3086C32.1406 21.3537 32.1529 21.3906 32.168 21.3906C32.183 21.3906 32.1953 21.4275 32.1953 21.4727C32.1953 21.5178 32.2076 21.5547 32.2227 21.5547C32.2377 21.5547 32.25 21.6039 32.25 21.6641C32.25 21.7242 32.2623 21.7734 32.2773 21.7734C32.2925 21.7734 32.3047 21.8464 32.3047 21.9375C32.3047 22.0286 32.3168 22.1016 32.332 22.1016C32.349 22.1016 32.3594 22.2474 32.3594 22.4844C32.3594 22.7214 32.349 22.8672 32.332 22.8672C32.3168 22.8672 32.3047 22.9401 32.3047 23.0312C32.3047 23.1224 32.2925 23.1953 32.2773 23.1953C32.2623 23.1953 32.25 23.2445 32.25 23.3047C32.25 23.3648 32.2377 23.4141 32.2227 23.4141C32.2076 23.4141 32.1953 23.451 32.1953 23.4961C32.1953 23.5412 32.183 23.5781 32.168 23.5781C32.1529 23.5781 32.1406 23.615 32.1406 23.6602C32.1406 23.7053 32.1283 23.7422 32.1133 23.7422C32.0982 23.7422 32.0859 23.7668 32.0859 23.7969C32.0859 23.827 32.0736 23.8516 32.0586 23.8516C32.0436 23.8516 32.0312 23.8762 32.0312 23.9062C32.0312 23.9363 32.0189 23.9609 32.0039 23.9609C31.9889 23.9609 31.9766 23.9855 31.9766 24.0156C31.9766 24.0457 31.9643 24.0703 31.9492 24.0703C31.9342 24.0703 31.9219 24.0922 31.9219 24.119C31.9219 24.1457 31.8973 24.1853 31.8672 24.207C31.8371 24.2287 31.8125 24.2634 31.8125 24.2841C31.8125 24.3048 31.7756 24.3563 31.7305 24.3984C31.6854 24.4406 31.6484 24.4887 31.6484 24.5054C31.6484 24.5481 31.0826 25.1094 31.0395 25.1094C31.0201 25.1094 30.9865 25.134 30.9648 25.1641C30.9432 25.1941 30.9062 25.2188 30.8828 25.2188C30.8594 25.2188 30.8225 25.2434 30.8008 25.2734C30.7791 25.3035 30.7395 25.3281 30.7127 25.3281C30.686 25.3281 30.6641 25.3404 30.6641 25.3555C30.6641 25.3705 30.6395 25.3828 30.6094 25.3828C30.5793 25.3828 30.5547 25.3951 30.5547 25.4102C30.5547 25.4252 30.5301 25.4375 30.5 25.4375C30.4699 25.4375 30.4453 25.4498 30.4453 25.4648C30.4453 25.4799 30.4207 25.4922 30.3906 25.4922C30.3605 25.4922 30.3359 25.5045 30.3359 25.5195C30.3359 25.5346 30.299 25.5469 30.2539 25.5469C30.2088 25.5469 30.1719 25.5592 30.1719 25.5742C30.1719 25.5893 30.135 25.6016 30.0898 25.6016C30.0447 25.6016 30.0078 25.6139 30.0078 25.6289C30.0078 25.6439 29.9586 25.6562 29.8984 25.6562C29.8383 25.6562 29.7891 25.6686 29.7891 25.6836C29.7891 25.6988 29.7161 25.7109 29.625 25.7109C29.5339 25.7109 29.4609 25.7231 29.4609 25.7383C29.4609 25.7561 29.0325 25.7656 28.2305 25.7656C26.8505 25.7656 26.9012 25.7743 27.1094 25.5742C27.1695 25.5164 27.2188 25.4524 27.2188 25.432C27.2188 25.4116 27.2434 25.3772 27.2734 25.3555C27.3035 25.3338 27.3281 25.2991 27.3281 25.2784C27.3281 25.2577 27.365 25.2062 27.4102 25.1641C27.4553 25.1219 27.4922 25.0705 27.4922 25.0498C27.4922 25.029 27.5168 24.9943 27.5469 24.9727C27.577 24.951 27.6016 24.9114 27.6016 24.8846C27.6016 24.8578 27.6139 24.8359 27.6289 24.8359C27.6439 24.8359 27.6562 24.814 27.6562 24.7873C27.6562 24.7605 27.6809 24.7209 27.7109 24.6992C27.741 24.6775 27.7656 24.6379 27.7656 24.6111C27.7656 24.5844 27.7779 24.5625 27.793 24.5625C27.808 24.5625 27.8203 24.5406 27.8203 24.5139C27.8203 24.4871 27.8449 24.4475 27.875 24.4258C27.9051 24.4041 27.9297 24.3645 27.9297 24.3377C27.9297 24.311 27.942 24.2891 27.957 24.2891C27.9721 24.2891 27.9844 24.2645 27.9844 24.2344C27.9844 24.2043 27.9967 24.1797 28.0117 24.1797C28.0268 24.1797 28.0391 24.1551 28.0391 24.125C28.0391 24.0949 28.0514 24.0703 28.0664 24.0703C28.0814 24.0703 28.0938 24.0457 28.0938 24.0156C28.0938 23.9855 28.1061 23.9609 28.1211 23.9609C28.1361 23.9609 28.1484 23.9363 28.1484 23.9062C28.1484 23.8762 28.1607 23.8516 28.1758 23.8516C28.1908 23.8516 28.2031 23.827 28.2031 23.7969C28.2031 23.7668 28.2154 23.7422 28.2305 23.7422C28.2455 23.7422 28.2578 23.7053 28.2578 23.6602C28.2578 23.615 28.2701 23.5781 28.2852 23.5781C28.3002 23.5781 28.3125 23.5535 28.3125 23.5234C28.3125 23.4934 28.3248 23.4688 28.3398 23.4688C28.3549 23.4688 28.3672 23.4318 28.3672 23.3867C28.3672 23.3416 28.3795 23.3047 28.3945 23.3047C28.4096 23.3047 28.4219 23.2801 28.4219 23.25C28.4219 23.2199 28.4342 23.1953 28.4492 23.1953C28.4643 23.1953 28.4766 23.1584 28.4766 23.1133C28.4766 23.0682 28.4889 23.0312 28.5039 23.0312C28.5189 23.0312 28.5312 22.9943 28.5312 22.9492C28.5312 22.9041 28.5436 22.8672 28.5586 22.8672C28.5736 22.8672 28.5859 22.8303 28.5859 22.7852C28.5859 22.74 28.5982 22.7031 28.6133 22.7031C28.6283 22.7031 28.6406 22.6662 28.6406 22.6211C28.6406 22.576 28.6529 22.5391 28.668 22.5391C28.683 22.5391 28.6953 22.4898 28.6953 22.4297C28.6953 22.3695 28.7076 22.3203 28.7227 22.3203C28.7377 22.3203 28.75 22.2711 28.75 22.2109C28.75 22.1508 28.7623 22.1016 28.7773 22.1016C28.7924 22.1016 28.8047 22.0523 28.8047 21.9922C28.8047 21.932 28.817 21.8828 28.832 21.8828C28.8471 21.8828 28.8594 21.8213 28.8594 21.7461C28.8594 21.6709 28.8717 21.6094 28.8867 21.6094C28.9023 21.6094 28.9141 21.5273 28.9141 21.418C28.9141 21.3086 28.9258 21.2266 28.9414 21.2266C28.9576 21.2266 28.9688 21.1263 28.9688 20.9805C28.9688 20.8346 28.9799 20.7344 28.9961 20.7344C29.0136 20.7344 29.0234 20.4883 29.0234 20.0508C29.0234 19.6133 29.0136 19.3672 28.9961 19.3672C28.9811 19.3672 28.9688 19.3303 28.9688 19.2852V19.2031H29.2422C29.4062 19.2031 29.5156 19.2141 29.5156 19.2305ZM18.1406 24.1523C18.1406 24.1674 18.116 24.1797 18.0859 24.1797C18.0559 24.1797 18.0312 24.192 18.0312 24.207C18.0312 24.2221 18.0066 24.2344 17.9766 24.2344C17.9465 24.2344 17.9219 24.2467 17.9219 24.2617C17.9219 24.2768 17.9029 24.2891 17.8796 24.2891C17.8249 24.2891 17.7031 24.4109 17.7031 24.4656C17.7031 24.4888 17.6908 24.5078 17.6758 24.5078C17.6607 24.5078 17.6484 24.5324 17.6484 24.5625C17.6484 24.5926 17.6361 24.6172 17.6211 24.6172C17.6061 24.6172 17.5938 24.6418 17.5938 24.6719C17.5938 24.702 17.5814 24.7266 17.5664 24.7266C17.5505 24.7266 17.5391 24.8177 17.5391 24.9453C17.5391 25.0729 17.5505 25.1641 17.5664 25.1641C17.5814 25.1641 17.5938 25.1887 17.5938 25.2188C17.5938 25.2488 17.6061 25.2734 17.6211 25.2734C17.6361 25.2734 17.6484 25.298 17.6484 25.3281C17.6484 25.3582 17.6607 25.3828 17.6758 25.3828C17.6908 25.3828 17.7031 25.4018 17.7031 25.4251C17.7031 25.4798 17.8249 25.6016 17.8796 25.6016C17.9029 25.6016 17.9219 25.6139 17.9219 25.6289C17.9219 25.6439 17.9465 25.6562 17.9766 25.6562C18.0066 25.6562 18.0312 25.6686 18.0312 25.6836C18.0312 25.6986 18.0559 25.7109 18.0859 25.7109C18.116 25.7109 18.1406 25.7232 18.1406 25.7383C18.1406 25.7562 18.7786 25.7656 20 25.7656C21.2214 25.7656 21.8594 25.7562 21.8594 25.7383C21.8594 25.7232 21.884 25.7109 21.9141 25.7109C21.9441 25.7109 21.9688 25.6986 21.9688 25.6836C21.9688 25.6686 21.9934 25.6562 22.0234 25.6562C22.0535 25.6562 22.0781 25.6439 22.0781 25.6289C22.0781 25.6139 22.0971 25.6016 22.1204 25.6016C22.1751 25.6016 22.2969 25.4798 22.2969 25.4251C22.2969 25.4018 22.3092 25.3828 22.3242 25.3828C22.3393 25.3828 22.3516 25.3582 22.3516 25.3281C22.3516 25.298 22.3639 25.2734 22.3789 25.2734C22.3939 25.2734 22.4062 25.2488 22.4062 25.2188C22.4062 25.1887 22.4186 25.1641 22.4336 25.1641C22.4495 25.1641 22.4609 25.0729 22.4609 24.9453C22.4609 24.8177 22.4495 24.7266 22.4336 24.7266C22.4186 24.7266 22.4062 24.702 22.4062 24.6719C22.4062 24.6418 22.3939 24.6172 22.3789 24.6172C22.3639 24.6172 22.3516 24.5926 22.3516 24.5625C22.3516 24.5324 22.3393 24.5078 22.3242 24.5078C22.3092 24.5078 22.2969 24.4888 22.2969 24.4656C22.2969 24.4109 22.1751 24.2891 22.1204 24.2891C22.0971 24.2891 22.0781 24.2768 22.0781 24.2617C22.0781 24.2467 22.0535 24.2344 22.0234 24.2344C21.9934 24.2344 21.9688 24.2221 21.9688 24.207C21.9688 24.192 21.9441 24.1797 21.9141 24.1797C21.884 24.1797 21.8594 24.1674 21.8594 24.1523C21.8594 24.1344 21.2214 24.125 20 24.125C18.7786 24.125 18.1406 24.1344 18.1406 24.1523Z" fill="#DD2A1B"/>
</svg>
