<svg width="40" height="40" viewBox="0 0 40 40" fill="none" xmlns="http://www.w3.org/2000/svg">
<path fill-rule="evenodd" clip-rule="evenodd" d="M27.2891 6.02734C27.2891 6.04238 27.2275 6.05469 27.1523 6.05469C27.0771 6.05469 27.0156 6.06699 27.0156 6.08203C27.0156 6.09707 26.9787 6.10938 26.9336 6.10938C26.8885 6.10938 26.8516 6.12168 26.8516 6.13672C26.8516 6.15176 26.8146 6.16406 26.7695 6.16406C26.7244 6.16406 26.6875 6.17637 26.6875 6.19141C26.6875 6.20645 26.6629 6.21875 26.6328 6.21875C26.6027 6.21875 26.5781 6.23105 26.5781 6.24609C26.5781 6.26113 26.5535 6.27344 26.5234 6.27344C26.4934 6.27344 26.4688 6.28574 26.4688 6.30078C26.4688 6.31582 26.4441 6.32812 26.4141 6.32812C26.384 6.32812 26.3594 6.34043 26.3594 6.35547C26.3594 6.37051 26.3397 6.38281 26.3157 6.38281C26.2916 6.38281 26.2374 6.41973 26.1953 6.46484C26.1532 6.50996 26.1051 6.54688 26.0886 6.54688C26.072 6.54688 24.3236 8.28184 22.2031 10.4023L18.3478 14.2578H18.2247C18.157 14.2578 18.1016 14.2455 18.1016 14.2305C18.1016 14.2128 17.8008 14.2031 17.2539 14.2031C16.707 14.2031 16.4062 14.2128 16.4062 14.2305C16.4062 14.2461 16.3242 14.2578 16.2148 14.2578C16.1055 14.2578 16.0234 14.2695 16.0234 14.2852C16.0234 14.3004 15.9505 14.3125 15.8594 14.3125C15.7682 14.3125 15.6953 14.3246 15.6953 14.3398C15.6953 14.3549 15.6461 14.3672 15.5859 14.3672C15.5258 14.3672 15.4766 14.3795 15.4766 14.3945C15.4766 14.4096 15.415 14.4219 15.3398 14.4219C15.2646 14.4219 15.2031 14.4342 15.2031 14.4492C15.2031 14.4643 15.1662 14.4766 15.1211 14.4766C15.076 14.4766 15.0391 14.4889 15.0391 14.5039C15.0391 14.5189 14.9898 14.5312 14.9297 14.5312C14.8695 14.5312 14.8203 14.5436 14.8203 14.5586C14.8203 14.5736 14.7834 14.5859 14.7383 14.5859C14.6932 14.5859 14.6562 14.5982 14.6562 14.6133C14.6562 14.6283 14.6193 14.6406 14.5742 14.6406C14.5291 14.6406 14.4922 14.6529 14.4922 14.668C14.4922 14.683 14.4676 14.6953 14.4375 14.6953C14.4074 14.6953 14.3828 14.7076 14.3828 14.7227C14.3828 14.7377 14.3459 14.75 14.3008 14.75C14.2557 14.75 14.2188 14.7623 14.2188 14.7773C14.2188 14.7924 14.1818 14.8047 14.1367 14.8047C14.0916 14.8047 14.0547 14.817 14.0547 14.832C14.0547 14.8471 14.0301 14.8594 14 14.8594C13.9699 14.8594 13.9453 14.8717 13.9453 14.8867C13.9453 14.9018 13.9207 14.9141 13.8906 14.9141C13.8605 14.9141 13.8359 14.9264 13.8359 14.9414C13.8359 14.9564 13.799 14.9688 13.7539 14.9688C13.7088 14.9688 13.6719 14.9811 13.6719 14.9961C13.6719 15.0111 13.6473 15.0234 13.6172 15.0234C13.5871 15.0234 13.5625 15.0357 13.5625 15.0508C13.5625 15.0658 13.5379 15.0781 13.5078 15.0781C13.4777 15.0781 13.4531 15.0904 13.4531 15.1055C13.4531 15.1205 13.4285 15.1328 13.3984 15.1328C13.3684 15.1328 13.3438 15.1451 13.3438 15.1602C13.3438 15.1752 13.3191 15.1875 13.2891 15.1875C13.259 15.1875 13.2344 15.1998 13.2344 15.2148C13.2344 15.2299 13.2098 15.2422 13.1797 15.2422C13.1496 15.2422 13.125 15.2545 13.125 15.2695C13.125 15.2846 13.1031 15.2969 13.0764 15.2969C13.0496 15.2969 13.01 15.3215 12.9883 15.3516C12.9666 15.3816 12.927 15.4062 12.9002 15.4062C12.8735 15.4062 12.8516 15.4186 12.8516 15.4336C12.8516 15.4486 12.8297 15.4609 12.8029 15.4609C12.7761 15.4609 12.7365 15.4855 12.7148 15.5156C12.6932 15.5457 12.6535 15.5703 12.6268 15.5703C12.6 15.5703 12.5781 15.5826 12.5781 15.5977C12.5781 15.6127 12.5562 15.625 12.5295 15.625C12.5027 15.625 12.4631 15.6496 12.4414 15.6797C12.4197 15.7098 12.3828 15.7344 12.3594 15.7344C12.3359 15.7344 12.299 15.759 12.2773 15.7891C12.2557 15.8191 12.2187 15.8438 12.1953 15.8438C12.1719 15.8438 12.135 15.8684 12.1133 15.8984C12.0916 15.9285 12.0569 15.9531 12.0362 15.9531C12.0155 15.9531 11.964 15.99 11.9219 16.0352C11.8797 16.0803 11.8308 16.1172 11.813 16.1172C11.7954 16.1172 11.7336 16.1664 11.6758 16.2266C11.618 16.2867 11.5568 16.3359 11.5397 16.3359C11.5226 16.3359 11.4362 16.4098 11.3477 16.5C11.2591 16.5902 11.1735 16.6641 11.1575 16.6641C11.1193 16.6641 10.3906 17.393 10.3906 17.4312C10.3906 17.4474 10.3291 17.5205 10.2539 17.5938C10.1787 17.667 10.1172 17.741 10.1172 17.7582C10.1172 17.7754 10.068 17.8367 10.0078 17.8945C9.94766 17.9523 9.89844 18.0163 9.89844 18.0367C9.89844 18.0572 9.87383 18.0916 9.84375 18.1133C9.81367 18.135 9.78906 18.1697 9.78906 18.1904C9.78906 18.2111 9.75215 18.2626 9.70703 18.3047C9.66191 18.3468 9.625 18.3983 9.625 18.419C9.625 18.4397 9.60039 18.4744 9.57031 18.4961C9.54023 18.5178 9.51562 18.5574 9.51562 18.5842C9.51562 18.6109 9.50332 18.6328 9.48828 18.6328C9.47324 18.6328 9.46094 18.6547 9.46094 18.6815C9.46094 18.7082 9.43633 18.7478 9.40625 18.7695C9.37617 18.7912 9.35156 18.8308 9.35156 18.8576C9.35156 18.8843 9.33926 18.9062 9.32422 18.9062C9.30918 18.9062 9.29688 18.9309 9.29688 18.9609C9.29688 18.991 9.28457 19.0156 9.26953 19.0156C9.25449 19.0156 9.24219 19.0402 9.24219 19.0703C9.24219 19.1004 9.22988 19.125 9.21484 19.125C9.1998 19.125 9.1875 19.1496 9.1875 19.1797C9.1875 19.2098 9.1752 19.2344 9.16016 19.2344C9.14512 19.2344 9.13281 19.259 9.13281 19.2891C9.13281 19.3191 9.12051 19.3438 9.10547 19.3438C9.09043 19.3438 9.07812 19.3684 9.07812 19.3984C9.07812 19.4285 9.06582 19.4531 9.05078 19.4531C9.03574 19.4531 9.02344 19.4777 9.02344 19.5078C9.02344 19.5379 9.01113 19.5625 8.99609 19.5625C8.98105 19.5625 8.96875 19.5871 8.96875 19.6172C8.96875 19.6473 8.95645 19.6719 8.94141 19.6719C8.92637 19.6719 8.91406 19.7088 8.91406 19.7539C8.91406 19.799 8.90176 19.8359 8.88672 19.8359C8.87168 19.8359 8.85938 19.8605 8.85938 19.8906C8.85938 19.9207 8.84707 19.9453 8.83203 19.9453C8.81699 19.9453 8.80469 19.9822 8.80469 20.0273C8.80469 20.0725 8.79238 20.1094 8.77734 20.1094C8.7623 20.1094 8.75 20.1463 8.75 20.1914C8.75 20.2365 8.7377 20.2734 8.72266 20.2734C8.70762 20.2734 8.69531 20.3104 8.69531 20.3555C8.69531 20.4006 8.68301 20.4375 8.66797 20.4375C8.65203 20.4375 8.64062 20.5286 8.64062 20.6562C8.64062 20.7839 8.65203 20.875 8.66797 20.875C8.68301 20.875 8.69531 20.8996 8.69531 20.9297C8.69531 20.9598 8.70762 20.9844 8.72266 20.9844C8.7377 20.9844 8.75 21.009 8.75 21.0391C8.75 21.0691 8.7623 21.0938 8.77734 21.0938C8.79238 21.0938 8.80469 21.1128 8.80469 21.136C8.80469 21.1877 8.92525 21.3125 8.97515 21.3125C8.99505 21.3125 9.0291 21.3371 9.05078 21.3672C9.07394 21.3993 9.12157 21.4219 9.1662 21.4219C9.20798 21.4219 9.24219 21.4342 9.24219 21.4492C9.24219 21.4652 9.33332 21.4766 9.46094 21.4766C9.58855 21.4766 9.67969 21.4652 9.67969 21.4492C9.67969 21.4342 9.71389 21.4219 9.75568 21.4219C9.8003 21.4219 9.84793 21.3993 9.87109 21.3672C9.89278 21.3371 9.92969 21.3125 9.95312 21.3125C9.97656 21.3125 10.0135 21.2879 10.0352 21.2578C10.0568 21.2277 10.0965 21.2031 10.1232 21.2031C10.15 21.2031 10.1719 21.1908 10.1719 21.1758C10.1719 21.1607 10.1965 21.1484 10.2266 21.1484C10.2566 21.1484 10.2812 21.1361 10.2812 21.1211C10.2812 21.1061 10.3305 21.0938 10.3906 21.0938C10.4508 21.0938 10.5 21.0814 10.5 21.0664C10.5 21.0502 10.6003 21.0391 10.7461 21.0391C10.8919 21.0391 10.9922 21.0502 10.9922 21.0664C10.9922 21.0814 11.0291 21.0938 11.0742 21.0938C11.1193 21.0938 11.1562 21.1061 11.1562 21.1211C11.1562 21.1361 11.1905 21.1484 11.2322 21.1484C11.2769 21.1484 11.3245 21.171 11.3477 21.2031C11.3693 21.2332 11.4031 21.2578 11.4228 21.2578C11.4692 21.2578 11.7031 21.4917 11.7031 21.5382C11.7031 21.5578 11.7277 21.5916 11.7578 21.6133C11.7879 21.635 11.8125 21.6746 11.8125 21.7014C11.8125 21.7281 11.8248 21.75 11.8398 21.75C11.8549 21.75 11.8672 21.7746 11.8672 21.8047C11.8672 21.8348 11.8795 21.8594 11.8945 21.8594C11.9096 21.8594 11.9219 21.9209 11.9219 21.9961C11.9219 22.0713 11.9342 22.1328 11.9492 22.1328C11.9643 22.1328 11.9766 22.1943 11.9766 22.2695C11.9766 22.3447 11.9643 22.4062 11.9492 22.4062C11.9342 22.4062 11.9219 22.4372 11.9219 22.475C11.9219 22.5248 11.8579 22.6077 11.6898 22.7758C11.5622 22.9034 11.4419 23.0078 11.4224 23.0078C11.403 23.0078 11.3693 23.0324 11.3477 23.0625C11.326 23.0926 11.2891 23.1172 11.2656 23.1172C11.2422 23.1172 11.2053 23.1418 11.1836 23.1719C11.1619 23.202 11.1223 23.2266 11.0955 23.2266C11.0688 23.2266 11.0469 23.2389 11.0469 23.2539C11.0469 23.2689 11.0223 23.2812 10.9922 23.2812C10.9621 23.2812 10.9375 23.2936 10.9375 23.3086C10.9375 23.3236 10.9156 23.3359 10.8889 23.3359C10.8621 23.3359 10.8225 23.3605 10.8008 23.3906C10.7791 23.4207 10.7395 23.4453 10.7127 23.4453C10.686 23.4453 10.6641 23.4576 10.6641 23.4727C10.6641 23.4877 10.6395 23.5 10.6094 23.5C10.5793 23.5 10.5547 23.5123 10.5547 23.5273C10.5547 23.5424 10.5328 23.5547 10.506 23.5547C10.4793 23.5547 10.4397 23.5793 10.418 23.6094C10.3963 23.6395 10.3567 23.6641 10.3299 23.6641C10.3032 23.6641 10.2812 23.6764 10.2812 23.6914C10.2812 23.7064 10.2593 23.7188 10.2326 23.7188C10.2058 23.7188 10.1662 23.7434 10.1445 23.7734C10.1228 23.8035 10.0859 23.8281 10.0625 23.8281C10.0391 23.8281 10.0022 23.8527 9.98047 23.8828C9.95879 23.9129 9.92187 23.9375 9.89844 23.9375C9.875 23.9375 9.83809 23.9621 9.81641 23.9922C9.79472 24.0223 9.75781 24.0469 9.73438 24.0469C9.71094 24.0469 9.67403 24.0715 9.65234 24.1016C9.63066 24.1316 9.59623 24.1562 9.57581 24.1562C9.55538 24.1562 9.4914 24.2055 9.43359 24.2656C9.37579 24.3258 9.31514 24.375 9.29879 24.375C9.25996 24.375 8.47656 25.1584 8.47656 25.1972C8.47656 25.2136 8.42734 25.2742 8.36719 25.332C8.30703 25.3898 8.25781 25.4538 8.25781 25.4742C8.25781 25.4947 8.2332 25.5291 8.20312 25.5508C8.17305 25.5725 8.14844 25.6094 8.14844 25.6328C8.14844 25.6562 8.12383 25.6932 8.09375 25.7148C8.06367 25.7365 8.03906 25.7761 8.03906 25.8029C8.03906 25.8297 8.02676 25.8516 8.01172 25.8516C7.99668 25.8516 7.98438 25.8735 7.98438 25.9002C7.98438 25.927 7.95977 25.9666 7.92969 25.9883C7.89961 26.01 7.875 26.0496 7.875 26.0764C7.875 26.1031 7.8627 26.125 7.84766 26.125C7.83262 26.125 7.82031 26.1496 7.82031 26.1797C7.82031 26.2098 7.80801 26.2344 7.79297 26.2344C7.77793 26.2344 7.76562 26.259 7.76562 26.2891C7.76562 26.3191 7.75332 26.3438 7.73828 26.3438C7.72324 26.3438 7.71094 26.3807 7.71094 26.4258C7.71094 26.4709 7.69863 26.5078 7.68359 26.5078C7.66855 26.5078 7.65625 26.5324 7.65625 26.5625C7.65625 26.5926 7.64395 26.6172 7.62891 26.6172C7.61387 26.6172 7.60156 26.6541 7.60156 26.6992C7.60156 26.7443 7.58926 26.7812 7.57422 26.7812C7.55918 26.7812 7.54688 26.8182 7.54688 26.8633C7.54688 26.9084 7.53457 26.9453 7.51953 26.9453C7.50449 26.9453 7.49219 26.9822 7.49219 27.0273C7.49219 27.0725 7.47988 27.1094 7.46484 27.1094C7.4498 27.1094 7.4375 27.1586 7.4375 27.2188C7.4375 27.2789 7.4252 27.3281 7.41016 27.3281C7.39512 27.3281 7.38281 27.3896 7.38281 27.4648C7.38281 27.54 7.37051 27.6016 7.35547 27.6016C7.33986 27.6016 7.32812 27.6836 7.32812 27.793C7.32812 27.9023 7.31639 27.9844 7.30078 27.9844C7.28339 27.9844 7.27344 28.2031 7.27344 28.5859C7.27344 28.9688 7.28339 29.1875 7.30078 29.1875C7.31672 29.1875 7.32812 29.2786 7.32812 29.4062C7.32812 29.5339 7.33953 29.625 7.35547 29.625C7.37067 29.625 7.38281 29.6979 7.38281 29.7891C7.38281 29.8802 7.39495 29.9531 7.41016 29.9531C7.4252 29.9531 7.4375 29.9873 7.4375 30.0291C7.4375 30.0737 7.46009 30.1214 7.49219 30.1445C7.52227 30.1662 7.54688 30.2003 7.54688 30.2202C7.54688 30.2671 7.67039 30.3906 7.71734 30.3906C7.73724 30.3906 7.77129 30.4152 7.79297 30.4453C7.81613 30.4774 7.86376 30.5 7.90839 30.5C7.95017 30.5 7.98438 30.5123 7.98438 30.5273C7.98438 30.5433 8.07551 30.5547 8.20312 30.5547C8.33074 30.5547 8.42188 30.5433 8.42188 30.5273C8.42188 30.5123 8.44648 30.5 8.47656 30.5C8.50664 30.5 8.53125 30.4877 8.53125 30.4727C8.53125 30.4576 8.55586 30.4453 8.58594 30.4453C8.61602 30.4453 8.64062 30.433 8.64062 30.418C8.64062 30.4029 8.65963 30.3906 8.68287 30.3906C8.73759 30.3906 8.85938 30.2688 8.85938 30.2141C8.85938 30.1909 8.87168 30.1719 8.88672 30.1719C8.90176 30.1719 8.91406 30.1473 8.91406 30.1172C8.91406 30.0871 8.92637 30.0625 8.94141 30.0625C8.95645 30.0625 8.96875 30.0379 8.96875 30.0078C8.96875 29.9777 8.98105 29.9531 8.99609 29.9531C9.01113 29.9531 9.02344 29.9285 9.02344 29.8984C9.02344 29.8684 9.03574 29.8438 9.05078 29.8438C9.06582 29.8438 9.07812 29.8191 9.07812 29.7891C9.07812 29.759 9.09043 29.7344 9.10547 29.7344C9.12051 29.7344 9.13281 29.7098 9.13281 29.6797C9.13281 29.6496 9.14512 29.625 9.16016 29.625C9.1752 29.625 9.1875 29.6031 9.1875 29.5764C9.1875 29.5496 9.21211 29.51 9.24219 29.4883C9.27227 29.4666 9.29688 29.4297 9.29688 29.4062C9.29688 29.3828 9.32148 29.3459 9.35156 29.3242C9.38164 29.3025 9.40625 29.2678 9.40625 29.2471C9.40625 29.2264 9.44316 29.1749 9.48828 29.1328C9.5334 29.0907 9.57031 29.0424 9.57031 29.0255C9.57031 28.9827 9.86204 28.6953 9.90549 28.6953C9.92504 28.6953 9.95879 28.6707 9.98047 28.6406C10.0022 28.6105 10.0418 28.5859 10.0685 28.5859C10.0953 28.5859 10.1172 28.5736 10.1172 28.5586C10.1172 28.5436 10.1418 28.5312 10.1719 28.5312C10.202 28.5312 10.2266 28.5189 10.2266 28.5039C10.2266 28.4889 10.2512 28.4766 10.2812 28.4766C10.3113 28.4766 10.3359 28.4643 10.3359 28.4492C10.3359 28.4342 10.3729 28.4219 10.418 28.4219C10.4631 28.4219 10.5 28.4096 10.5 28.3945C10.5 28.3789 10.582 28.3672 10.6914 28.3672C10.8008 28.3672 10.8828 28.3789 10.8828 28.3945C10.8828 28.4096 10.9074 28.4219 10.9375 28.4219C10.9676 28.4219 10.9922 28.4342 10.9922 28.4492C10.9922 28.4643 11.0111 28.4766 11.0341 28.4766C11.0885 28.4766 11.2656 28.6536 11.2656 28.7081C11.2656 28.7311 11.2779 28.75 11.293 28.75C11.308 28.75 11.3203 28.7746 11.3203 28.8047C11.3203 28.8348 11.3326 28.8594 11.3477 28.8594C11.3627 28.8594 11.375 28.8963 11.375 28.9414C11.375 28.9865 11.3873 29.0234 11.4023 29.0234C11.4183 29.0234 11.4297 29.1146 11.4297 29.2422C11.4297 29.3698 11.4183 29.4609 11.4023 29.4609C11.3873 29.4609 11.375 29.5102 11.375 29.5703C11.375 29.6305 11.3627 29.6797 11.3477 29.6797C11.3326 29.6797 11.3203 29.7043 11.3203 29.7344C11.3203 29.7645 11.308 29.7891 11.293 29.7891C11.2779 29.7891 11.2656 29.8137 11.2656 29.8438C11.2656 29.8738 11.2533 29.8984 11.2383 29.8984C11.2232 29.8984 11.2109 29.9203 11.2109 29.9471C11.2109 29.9739 11.1863 30.0135 11.1562 30.0352C11.1262 30.0568 11.1016 30.0905 11.1016 30.11C11.1016 30.1562 10.7031 30.5547 10.6569 30.5547C10.6374 30.5547 10.6037 30.5793 10.582 30.6094C10.5603 30.6395 10.5234 30.6641 10.5 30.6641C10.4766 30.6641 10.4397 30.6887 10.418 30.7188C10.3963 30.7488 10.3567 30.7734 10.3299 30.7734C10.3032 30.7734 10.2812 30.7857 10.2812 30.8008C10.2812 30.8158 10.2566 30.8281 10.2266 30.8281C10.1965 30.8281 10.1719 30.8404 10.1719 30.8555C10.1719 30.8705 10.1473 30.8828 10.1172 30.8828C10.0871 30.8828 10.0625 30.8951 10.0625 30.9102C10.0625 30.9252 10.0379 30.9375 10.0078 30.9375C9.97773 30.9375 9.95312 30.9498 9.95312 30.9648C9.95312 30.9799 9.91621 30.9922 9.87109 30.9922C9.82598 30.9922 9.78906 31.0045 9.78906 31.0195C9.78906 31.0346 9.76445 31.0469 9.73438 31.0469C9.7043 31.0469 9.67969 31.0592 9.67969 31.0742C9.67969 31.0893 9.64277 31.1016 9.59766 31.1016C9.55254 31.1016 9.51562 31.1139 9.51562 31.1289C9.51562 31.1439 9.47871 31.1562 9.43359 31.1562C9.38848 31.1562 9.35156 31.1686 9.35156 31.1836C9.35156 31.1986 9.30234 31.2109 9.24219 31.2109C9.18203 31.2109 9.13281 31.2232 9.13281 31.2383C9.13281 31.2533 9.08359 31.2656 9.02344 31.2656C8.96328 31.2656 8.91406 31.2779 8.91406 31.293C8.91406 31.308 8.85254 31.3203 8.77734 31.3203C8.70215 31.3203 8.64062 31.3326 8.64062 31.3477C8.64062 31.3629 8.5677 31.375 8.47656 31.375C8.38543 31.375 8.3125 31.3871 8.3125 31.4023C8.3125 31.4183 8.22136 31.4297 8.09375 31.4297C7.96614 31.4297 7.875 31.4411 7.875 31.457C7.875 31.4722 7.80207 31.4844 7.71094 31.4844C7.6198 31.4844 7.54688 31.4965 7.54688 31.5117C7.54688 31.5268 7.52227 31.5391 7.49219 31.5391C7.46211 31.5391 7.4375 31.5514 7.4375 31.5664C7.4375 31.5814 7.41871 31.5938 7.39577 31.5938C7.3415 31.5938 7.10938 31.8259 7.10938 31.8801C7.10938 31.9031 7.09707 31.9219 7.08203 31.9219C7.06699 31.9219 7.05469 31.9588 7.05469 32.0039C7.05469 32.049 7.04238 32.0859 7.02734 32.0859C7.0114 32.0859 7 32.1771 7 32.3047C7 32.4323 7.0114 32.5234 7.02734 32.5234C7.04238 32.5234 7.05469 32.548 7.05469 32.5781C7.05469 32.6082 7.06699 32.6328 7.08203 32.6328C7.09707 32.6328 7.10938 32.6515 7.10938 32.6743C7.10938 32.7249 7.44956 33.0703 7.49932 33.0703C7.51882 33.0703 7.55254 33.0949 7.57422 33.125C7.5959 33.1551 7.63282 33.1797 7.65625 33.1797C7.67968 33.1797 7.7166 33.2043 7.73828 33.2344C7.75996 33.2645 7.79959 33.2891 7.82636 33.2891C7.8531 33.2891 7.875 33.3014 7.875 33.3164C7.875 33.3314 7.89961 33.3438 7.92969 33.3438C7.95977 33.3438 7.98438 33.3561 7.98438 33.3711C7.98438 33.3861 8.00628 33.3984 8.03302 33.3984C8.05979 33.3984 8.09941 33.423 8.12109 33.4531C8.14425 33.4852 8.19189 33.5078 8.23651 33.5078C8.27829 33.5078 8.3125 33.5201 8.3125 33.5352C8.3125 33.5502 8.33711 33.5625 8.36719 33.5625C8.39727 33.5625 8.42188 33.5748 8.42188 33.5898C8.42188 33.6049 8.44648 33.6172 8.47656 33.6172C8.50664 33.6172 8.53125 33.6295 8.53125 33.6445C8.53125 33.6596 8.56816 33.6719 8.61328 33.6719C8.6584 33.6719 8.69531 33.6842 8.69531 33.6992C8.69531 33.7143 8.73223 33.7266 8.77734 33.7266C8.82246 33.7266 8.85938 33.7389 8.85938 33.7539C8.85938 33.7689 8.89629 33.7812 8.94141 33.7812C8.98652 33.7812 9.02344 33.7936 9.02344 33.8086C9.02344 33.8236 9.07266 33.8359 9.13281 33.8359C9.19297 33.8359 9.24219 33.8482 9.24219 33.8633C9.24219 33.8783 9.30371 33.8906 9.37891 33.8906C9.4541 33.8906 9.51562 33.9029 9.51562 33.918C9.51562 33.9336 9.59766 33.9453 9.70703 33.9453C9.81641 33.9453 9.89844 33.957 9.89844 33.9727C9.89844 33.9899 10.0807 34 10.3906 34C10.7005 34 10.8828 33.9899 10.8828 33.9727C10.8828 33.957 10.9648 33.9453 11.0742 33.9453C11.1836 33.9453 11.2656 33.9336 11.2656 33.918C11.2656 33.9029 11.3148 33.8906 11.375 33.8906C11.4352 33.8906 11.4844 33.8783 11.4844 33.8633C11.4844 33.8482 11.5336 33.8359 11.5938 33.8359C11.6539 33.8359 11.7031 33.8236 11.7031 33.8086C11.7031 33.7936 11.74 33.7812 11.7852 33.7812C11.8303 33.7812 11.8672 33.7689 11.8672 33.7539C11.8672 33.7389 11.9041 33.7266 11.9492 33.7266C11.9943 33.7266 12.0312 33.7143 12.0312 33.6992C12.0312 33.6842 12.0682 33.6719 12.1133 33.6719C12.1584 33.6719 12.1953 33.6596 12.1953 33.6445C12.1953 33.6295 12.2199 33.6172 12.25 33.6172C12.2801 33.6172 12.3047 33.6049 12.3047 33.5898C12.3047 33.5748 12.3293 33.5625 12.3594 33.5625C12.3895 33.5625 12.4141 33.5502 12.4141 33.5352C12.4141 33.5201 12.4387 33.5078 12.4688 33.5078C12.4988 33.5078 12.5234 33.4955 12.5234 33.4805C12.5234 33.4654 12.548 33.4531 12.5781 33.4531C12.6082 33.4531 12.6328 33.4408 12.6328 33.4258C12.6328 33.4107 12.6574 33.3984 12.6875 33.3984C12.7176 33.3984 12.7422 33.3861 12.7422 33.3711C12.7422 33.3561 12.7641 33.3438 12.7908 33.3438C12.8176 33.3438 12.8572 33.3191 12.8789 33.2891C12.9006 33.259 12.9375 33.2344 12.9609 33.2344C12.9844 33.2344 13.0213 33.2098 13.043 33.1797C13.0647 33.1496 13.0994 33.125 13.1201 33.125C13.1408 33.125 13.1922 33.0881 13.2344 33.043C13.2765 32.9979 13.3252 32.9609 13.3426 32.9609C13.3599 32.9609 13.4466 32.8871 13.5352 32.7969C13.6237 32.7066 13.7096 32.6328 13.726 32.6328C13.765 32.6328 13.9453 32.452 13.9453 32.4128C13.9453 32.3961 13.9945 32.3351 14.0547 32.2773C14.1148 32.2195 14.1641 32.1578 14.1641 32.1401C14.1641 32.1224 14.201 32.0734 14.2461 32.0312C14.2912 31.9891 14.3281 31.9349 14.3281 31.9109C14.3281 31.8868 14.3404 31.8672 14.3555 31.8672C14.3705 31.8672 14.3828 31.8453 14.3828 31.8185C14.3828 31.7918 14.4074 31.7522 14.4375 31.7305C14.4676 31.7088 14.4922 31.6692 14.4922 31.6424C14.4922 31.6157 14.5045 31.5938 14.5195 31.5938C14.5346 31.5938 14.5469 31.5691 14.5469 31.5391C14.5469 31.509 14.5592 31.4844 14.5742 31.4844C14.5893 31.4844 14.6016 31.4625 14.6016 31.4357C14.6016 31.409 14.6262 31.3693 14.6562 31.3477C14.6863 31.326 14.7109 31.2864 14.7109 31.2596C14.7109 31.2328 14.7232 31.2109 14.7383 31.2109C14.7533 31.2109 14.7656 31.1863 14.7656 31.1562C14.7656 31.1262 14.7779 31.1016 14.793 31.1016C14.808 31.1016 14.8203 31.0646 14.8203 31.0195C14.8203 30.9744 14.8326 30.9375 14.8477 30.9375C14.8627 30.9375 14.875 30.9129 14.875 30.8828C14.875 30.8527 14.8873 30.8281 14.9023 30.8281C14.9174 30.8281 14.9297 30.8035 14.9297 30.7734C14.9297 30.7434 14.942 30.7188 14.957 30.7188C14.9721 30.7188 14.9844 30.6941 14.9844 30.6641C14.9844 30.634 14.9967 30.6094 15.0117 30.6094C15.0268 30.6094 15.0391 30.5848 15.0391 30.5547C15.0391 30.5246 15.0514 30.5 15.0664 30.5C15.0814 30.5 15.0938 30.4631 15.0938 30.418C15.0938 30.3729 15.1061 30.3359 15.1211 30.3359C15.1361 30.3359 15.1484 30.3113 15.1484 30.2812C15.1484 30.2512 15.1607 30.2266 15.1758 30.2266C15.1908 30.2266 15.2031 30.1896 15.2031 30.1445C15.2031 30.0994 15.2154 30.0625 15.2305 30.0625C15.2455 30.0625 15.2578 30.0379 15.2578 30.0078C15.2578 29.9777 15.2701 29.9531 15.2852 29.9531C15.3002 29.9531 15.3125 29.9162 15.3125 29.8711C15.3125 29.826 15.3248 29.7891 15.3398 29.7891C15.3549 29.7891 15.3672 29.7521 15.3672 29.707C15.3672 29.6619 15.3795 29.625 15.3945 29.625C15.4096 29.625 15.4219 29.6004 15.4219 29.5703C15.4219 29.5402 15.4342 29.5156 15.4492 29.5156C15.4643 29.5156 15.4766 29.4787 15.4766 29.4336C15.4766 29.3885 15.4889 29.3516 15.5039 29.3516C15.5189 29.3516 15.5312 29.3146 15.5312 29.2695C15.5312 29.2244 15.5436 29.1875 15.5586 29.1875C15.5736 29.1875 15.5859 29.1629 15.5859 29.1328C15.5859 29.1027 15.5982 29.0781 15.6133 29.0781C15.6283 29.0781 15.6406 29.0412 15.6406 28.9961C15.6406 28.951 15.6529 28.9141 15.668 28.9141C15.683 28.9141 15.6953 28.8895 15.6953 28.8594C15.6953 28.8293 15.7076 28.8047 15.7227 28.8047C15.7377 28.8047 15.75 28.7801 15.75 28.75C15.75 28.7199 15.7623 28.6953 15.7773 28.6953C15.7924 28.6953 15.8047 28.6707 15.8047 28.6406C15.8047 28.6105 15.817 28.5859 15.832 28.5859C15.8471 28.5859 15.8594 28.5613 15.8594 28.5312C15.8594 28.5012 15.8717 28.4766 15.8867 28.4766C15.9018 28.4766 15.9141 28.4547 15.9141 28.4279C15.9141 28.4011 15.9387 28.3615 15.9688 28.3398C15.9988 28.3182 16.0234 28.2837 16.0234 28.2633C16.0234 28.2429 16.0727 28.1789 16.1328 28.1211C16.193 28.0633 16.2422 28.0018 16.2422 27.9846C16.2422 27.944 16.3111 27.875 16.3518 27.875C16.369 27.875 16.4305 27.8258 16.4883 27.7656C16.5461 27.7055 16.6128 27.6562 16.6365 27.6562C16.6603 27.6562 16.6797 27.6439 16.6797 27.6289C16.6797 27.6139 16.7043 27.6016 16.7344 27.6016C16.7645 27.6016 16.7891 27.5893 16.7891 27.5742C16.7891 27.5592 16.826 27.5469 16.8711 27.5469C16.9162 27.5469 16.9531 27.5346 16.9531 27.5195C16.9531 27.5033 17.0534 27.4922 17.1992 27.4922C17.345 27.4922 17.4453 27.5033 17.4453 27.5195C17.4453 27.5346 17.4822 27.5469 17.5273 27.5469C17.5725 27.5469 17.6094 27.5592 17.6094 27.5742C17.6094 27.5893 17.634 27.6016 17.6641 27.6016C17.6941 27.6016 17.7188 27.6139 17.7188 27.6289C17.7188 27.6439 17.7434 27.6562 17.7734 27.6562C17.8035 27.6562 17.8281 27.6686 17.8281 27.6836C17.8281 27.6986 17.8469 27.7109 17.8697 27.7109C17.9239 27.7109 18.2109 27.998 18.2109 28.0521C18.2109 28.075 18.2232 28.0938 18.2383 28.0938C18.2533 28.0938 18.2656 28.1184 18.2656 28.1484C18.2656 28.1785 18.2779 28.2031 18.293 28.2031C18.308 28.2031 18.3203 28.2277 18.3203 28.2578C18.3203 28.2879 18.3326 28.3125 18.3477 28.3125C18.3627 28.3125 18.375 28.374 18.375 28.4492C18.375 28.5244 18.3873 28.5859 18.4023 28.5859C18.4174 28.5859 18.4297 28.6475 18.4297 28.7227C18.4297 28.7979 18.4174 28.8594 18.4023 28.8594C18.3873 28.8594 18.375 28.9209 18.375 28.9961C18.375 29.0713 18.3627 29.1328 18.3477 29.1328C18.3326 29.1328 18.3203 29.1574 18.3203 29.1875C18.3203 29.2176 18.308 29.2422 18.293 29.2422C18.2779 29.2422 18.2656 29.2668 18.2656 29.2969C18.2656 29.327 18.2533 29.3516 18.2383 29.3516C18.2232 29.3516 18.2109 29.3712 18.2109 29.3953C18.2109 29.4193 18.174 29.4735 18.1289 29.5156C18.0785 29.5627 18.0469 29.6196 18.0469 29.6633C18.0469 29.7024 18.0346 29.7344 18.0195 29.7344C18.0031 29.7344 17.9922 29.8438 17.9922 30.0078C17.9922 30.1719 18.0031 30.2812 18.0195 30.2812C18.0346 30.2812 18.0469 30.3032 18.0469 30.3299C18.0469 30.3567 18.0715 30.3963 18.1016 30.418C18.1316 30.4397 18.1562 30.4737 18.1562 30.4936C18.1562 30.5435 18.2811 30.6641 18.3328 30.6641C18.356 30.6641 18.375 30.6764 18.375 30.6914C18.375 30.7064 18.3996 30.7188 18.4297 30.7188C18.4598 30.7188 18.4844 30.7311 18.4844 30.7461C18.4844 30.7611 18.5336 30.7734 18.5938 30.7734C18.6539 30.7734 18.7031 30.7857 18.7031 30.8008C18.7031 30.8158 18.7523 30.8281 18.8125 30.8281C18.8727 30.8281 18.9219 30.8158 18.9219 30.8008C18.9219 30.7857 18.9711 30.7734 19.0312 30.7734C19.0914 30.7734 19.1406 30.7611 19.1406 30.7461C19.1406 30.7311 19.1775 30.7188 19.2227 30.7188C19.2678 30.7188 19.3047 30.7064 19.3047 30.6914C19.3047 30.6764 19.3416 30.6641 19.3867 30.6641C19.4318 30.6641 19.4688 30.6518 19.4688 30.6367C19.4688 30.6217 19.4934 30.6094 19.5234 30.6094C19.5535 30.6094 19.5781 30.5971 19.5781 30.582C19.5781 30.567 19.615 30.5547 19.6602 30.5547C19.7053 30.5547 19.7422 30.5424 19.7422 30.5273C19.7422 30.5123 19.7668 30.5 19.7969 30.5C19.827 30.5 19.8516 30.4877 19.8516 30.4727C19.8516 30.4576 19.8885 30.4453 19.9336 30.4453C19.9787 30.4453 20.0156 30.433 20.0156 30.418C20.0156 30.4029 20.0402 30.3906 20.0703 30.3906C20.1004 30.3906 20.125 30.3783 20.125 30.3633C20.125 30.3482 20.1496 30.3359 20.1797 30.3359C20.2098 30.3359 20.2344 30.3236 20.2344 30.3086C20.2344 30.2936 20.259 30.2812 20.2891 30.2812C20.3191 30.2812 20.3438 30.2689 20.3438 30.2539C20.3438 30.2389 20.3684 30.2266 20.3984 30.2266C20.4285 30.2266 20.4531 30.2143 20.4531 30.1992C20.4531 30.1842 20.4777 30.1719 20.5078 30.1719C20.5379 30.1719 20.5625 30.1596 20.5625 30.1445C20.5625 30.1295 20.5844 30.1172 20.6111 30.1172C20.6379 30.1172 20.6775 30.0926 20.6992 30.0625C20.7209 30.0324 20.7605 30.0078 20.7873 30.0078C20.814 30.0078 20.8359 29.9955 20.8359 29.9805C20.8359 29.9654 20.8578 29.9531 20.8846 29.9531C20.9114 29.9531 20.951 29.9285 20.9727 29.8984C20.9943 29.8684 21.0313 29.8438 21.0547 29.8438C21.0781 29.8438 21.115 29.8191 21.1367 29.7891C21.1584 29.759 21.1953 29.7344 21.2188 29.7344C21.2422 29.7344 21.2791 29.7098 21.3008 29.6797C21.3225 29.6496 21.3572 29.625 21.3779 29.625C21.3986 29.625 21.4501 29.5881 21.4922 29.543C21.5343 29.4979 21.5835 29.4609 21.6016 29.4609C21.6196 29.4609 21.6688 29.424 21.7109 29.3789C21.7531 29.3338 21.8019 29.2969 21.8194 29.2969C21.8369 29.2969 21.9111 29.2354 21.9844 29.1602C22.0576 29.085 22.1307 29.0234 22.1469 29.0234C22.1851 29.0234 22.9141 28.2947 22.9141 28.2566C22.9141 28.2405 22.9879 28.155 23.0781 28.0664C23.1684 27.9778 23.2422 27.8912 23.2422 27.8738C23.2422 27.8565 23.2791 27.8078 23.3242 27.7656C23.3693 27.7235 23.4062 27.6743 23.4062 27.6562C23.4062 27.6382 23.4432 27.589 23.4883 27.5469C23.5334 27.5047 23.5703 27.4555 23.5703 27.4375C23.5703 27.4195 23.6072 27.3703 23.6523 27.3281C23.6975 27.286 23.7344 27.2318 23.7344 27.2078C23.7344 27.1837 23.7467 27.1641 23.7617 27.1641C23.7768 27.1641 23.7891 27.1422 23.7891 27.1154C23.7891 27.0886 23.8137 27.049 23.8438 27.0273C23.8738 27.0057 23.8984 26.9687 23.8984 26.9453C23.8984 26.9219 23.923 26.885 23.9531 26.8633C23.9832 26.8416 24.0078 26.802 24.0078 26.7752C24.0078 26.7485 24.0201 26.7266 24.0352 26.7266C24.0502 26.7266 24.0625 26.7047 24.0625 26.6779C24.0625 26.6511 24.0871 26.6115 24.1172 26.5898C24.1473 26.5682 24.1719 26.5285 24.1719 26.5018C24.1719 26.475 24.1842 26.4531 24.1992 26.4531C24.2143 26.4531 24.2266 26.4285 24.2266 26.3984C24.2266 26.3684 24.2389 26.3438 24.2539 26.3438C24.2689 26.3438 24.2812 26.3191 24.2812 26.2891C24.2812 26.259 24.2936 26.2344 24.3086 26.2344C24.3236 26.2344 24.3359 26.2098 24.3359 26.1797C24.3359 26.1496 24.3482 26.125 24.3633 26.125C24.3783 26.125 24.3906 26.1004 24.3906 26.0703C24.3906 26.0402 24.4029 26.0156 24.418 26.0156C24.433 26.0156 24.4453 25.991 24.4453 25.9609C24.4453 25.9309 24.4576 25.9062 24.4727 25.9062C24.4877 25.9062 24.5 25.8693 24.5 25.8242C24.5 25.7791 24.5123 25.7422 24.5273 25.7422C24.5424 25.7422 24.5547 25.7176 24.5547 25.6875C24.5547 25.6574 24.567 25.6328 24.582 25.6328C24.5971 25.6328 24.6094 25.6082 24.6094 25.5781C24.6094 25.548 24.6217 25.5234 24.6367 25.5234C24.6518 25.5234 24.6641 25.4865 24.6641 25.4414C24.6641 25.3963 24.6764 25.3594 24.6914 25.3594C24.7064 25.3594 24.7188 25.3348 24.7188 25.3047C24.7188 25.2746 24.7311 25.25 24.7461 25.25C24.7611 25.25 24.7734 25.2131 24.7734 25.168C24.7734 25.1229 24.7857 25.0859 24.8008 25.0859C24.8158 25.0859 24.8281 25.049 24.8281 25.0039C24.8281 24.9588 24.8404 24.9219 24.8555 24.9219C24.8705 24.9219 24.8828 24.885 24.8828 24.8398C24.8828 24.7947 24.8951 24.7578 24.9102 24.7578C24.9252 24.7578 24.9375 24.7086 24.9375 24.6484C24.9375 24.5883 24.9498 24.5391 24.9648 24.5391C24.9799 24.5391 24.9922 24.5021 24.9922 24.457C24.9922 24.4119 25.0045 24.375 25.0195 24.375C25.0346 24.375 25.0469 24.3258 25.0469 24.2656C25.0469 24.2055 25.0592 24.1562 25.0742 24.1562C25.0893 24.1562 25.1016 24.0947 25.1016 24.0195C25.1016 23.9443 25.1139 23.8828 25.1289 23.8828C25.1441 23.8828 25.1562 23.8099 25.1562 23.7188C25.1562 23.6276 25.1684 23.5547 25.1836 23.5547C25.1992 23.5547 25.2109 23.4727 25.2109 23.3633C25.2109 23.2539 25.2227 23.1719 25.2383 23.1719C25.2805 23.1719 25.2753 21.375 25.2331 21.3609C25.2152 21.3549 26.9625 19.5882 29.1159 17.4349C31.2694 15.2815 33.0312 13.5061 33.0312 13.4896C33.0312 13.473 33.0682 13.4249 33.1133 13.3828C33.1584 13.3407 33.1953 13.2865 33.1953 13.2625C33.1953 13.2384 33.2076 13.2188 33.2227 13.2188C33.2377 13.2188 33.25 13.1941 33.25 13.1641C33.25 13.134 33.2623 13.1094 33.2773 13.1094C33.2924 13.1094 33.3047 13.0848 33.3047 13.0547C33.3047 13.0246 33.317 13 33.332 13C33.3471 13 33.3594 12.9754 33.3594 12.9453C33.3594 12.9152 33.3717 12.8906 33.3867 12.8906C33.4018 12.8906 33.4141 12.8537 33.4141 12.8086C33.4141 12.7635 33.4264 12.7266 33.4414 12.7266C33.4564 12.7266 33.4688 12.6896 33.4688 12.6445C33.4688 12.5994 33.4811 12.5625 33.4961 12.5625C33.5111 12.5625 33.5234 12.501 33.5234 12.4258C33.5234 12.3506 33.5357 12.2891 33.5508 12.2891C33.5676 12.2891 33.5781 12.1523 33.5781 11.9336C33.5781 11.7148 33.5676 11.5781 33.5508 11.5781C33.5357 11.5781 33.5234 11.5166 33.5234 11.4414C33.5234 11.3662 33.5111 11.3047 33.4961 11.3047C33.4811 11.3047 33.4688 11.2678 33.4688 11.2227C33.4688 11.1775 33.4564 11.1406 33.4414 11.1406C33.4264 11.1406 33.4141 11.1037 33.4141 11.0586C33.4141 11.0135 33.4018 10.9766 33.3867 10.9766C33.3717 10.9766 33.3594 10.952 33.3594 10.9219C33.3594 10.8918 33.3471 10.8672 33.332 10.8672C33.317 10.8672 33.3047 10.8426 33.3047 10.8125C33.3047 10.7824 33.2924 10.7578 33.2773 10.7578C33.2623 10.7578 33.25 10.7359 33.25 10.7092C33.25 10.6824 33.2254 10.6428 33.1953 10.6211C33.1652 10.5994 33.1406 10.5651 33.1406 10.5449C33.1406 10.5247 33.0791 10.4483 33.0039 10.375C32.9287 10.3017 32.8672 10.2287 32.8672 10.2127C32.8672 10.1743 29.3488 6.65625 29.3104 6.65625C29.2942 6.65625 29.2336 6.60703 29.1758 6.54688C29.118 6.48672 29.054 6.4375 29.0336 6.4375C29.0131 6.4375 28.9787 6.41289 28.957 6.38281C28.9353 6.35273 28.8957 6.32812 28.869 6.32812C28.8422 6.32812 28.8203 6.31582 28.8203 6.30078C28.8203 6.28574 28.7957 6.27344 28.7656 6.27344C28.7355 6.27344 28.7109 6.26113 28.7109 6.24609C28.7109 6.23105 28.6863 6.21875 28.6562 6.21875C28.6262 6.21875 28.6016 6.20645 28.6016 6.19141C28.6016 6.17637 28.5646 6.16406 28.5195 6.16406C28.4744 6.16406 28.4375 6.15176 28.4375 6.13672C28.4375 6.12168 28.4006 6.10938 28.3555 6.10938C28.3104 6.10938 28.2734 6.09707 28.2734 6.08203C28.2734 6.06699 28.2119 6.05469 28.1367 6.05469C28.0615 6.05469 28 6.04238 28 6.02734C28 6.01053 27.8633 6 27.6445 6C27.4258 6 27.2891 6.01053 27.2891 6.02734ZM27.8359 7.66797C27.8359 7.68301 27.8729 7.69531 27.918 7.69531C27.9631 7.69531 28 7.70762 28 7.72266C28 7.7377 28.0185 7.75 28.0411 7.75C28.0947 7.75 31.8281 11.4834 31.8281 11.5371C31.8281 11.5596 31.8404 11.5781 31.8555 11.5781C31.8705 11.5781 31.8828 11.615 31.8828 11.6602C31.8828 11.7053 31.8951 11.7422 31.9102 11.7422C31.9258 11.7422 31.9375 11.8242 31.9375 11.9336C31.9375 12.043 31.9258 12.125 31.9102 12.125C31.8951 12.125 31.8828 12.1619 31.8828 12.207C31.8828 12.2521 31.8705 12.2891 31.8555 12.2891C31.8404 12.2891 31.8281 12.3076 31.8281 12.3302C31.8281 12.3839 30.2824 13.9297 30.2286 13.9297C30.2057 13.9297 30.1875 13.9055 30.1875 13.875C30.1875 13.8449 30.1752 13.8203 30.1602 13.8203C30.1451 13.8203 30.1328 13.7834 30.1328 13.7383C30.1328 13.6932 30.1205 13.6562 30.1055 13.6562C30.0904 13.6562 30.0781 13.6316 30.0781 13.6016C30.0781 13.5715 30.0658 13.5469 30.0508 13.5469C30.0357 13.5469 30.0234 13.5223 30.0234 13.4922C30.0234 13.4621 30.0111 13.4375 29.9961 13.4375C29.9811 13.4375 29.9688 13.4006 29.9688 13.3555C29.9688 13.3104 29.9564 13.2734 29.9414 13.2734C29.9264 13.2734 29.9141 13.2488 29.9141 13.2188C29.9141 13.1887 29.9018 13.1641 29.8867 13.1641C29.8717 13.1641 29.8594 13.1395 29.8594 13.1094C29.8594 13.0793 29.8471 13.0547 29.832 13.0547C29.817 13.0547 29.8047 13.0178 29.8047 12.9727C29.8047 12.9275 29.7924 12.8906 29.7773 12.8906C29.7623 12.8906 29.75 12.866 29.75 12.8359C29.75 12.8059 29.7377 12.7812 29.7227 12.7812C29.7076 12.7812 29.6953 12.7566 29.6953 12.7266C29.6953 12.6965 29.683 12.6719 29.668 12.6719C29.6529 12.6719 29.6406 12.635 29.6406 12.5898C29.6406 12.5447 29.6283 12.5078 29.6133 12.5078C29.5982 12.5078 29.5859 12.4832 29.5859 12.4531C29.5859 12.423 29.5736 12.3984 29.5586 12.3984C29.5436 12.3984 29.5312 12.3738 29.5312 12.3438C29.5312 12.3137 29.5189 12.2891 29.5039 12.2891C29.4889 12.2891 29.4766 12.2521 29.4766 12.207C29.4766 12.1619 29.4643 12.125 29.4492 12.125C29.4342 12.125 29.4219 12.1004 29.4219 12.0703C29.4219 12.0402 29.4096 12.0156 29.3945 12.0156C29.3795 12.0156 29.3672 11.991 29.3672 11.9609C29.3672 11.9309 29.3549 11.9062 29.3398 11.9062C29.3248 11.9062 29.3125 11.8693 29.3125 11.8242C29.3125 11.7791 29.3002 11.7422 29.2852 11.7422C29.2701 11.7422 29.2578 11.7176 29.2578 11.6875C29.2578 11.6574 29.2455 11.6328 29.2305 11.6328C29.2154 11.6328 29.2031 11.6082 29.2031 11.5781C29.2031 11.548 29.1908 11.5234 29.1758 11.5234C29.1607 11.5234 29.1484 11.4865 29.1484 11.4414C29.1484 11.3963 29.1361 11.3594 29.1211 11.3594C29.1061 11.3594 29.0938 11.3348 29.0938 11.3047C29.0938 11.2746 29.0814 11.25 29.0664 11.25C29.0514 11.25 29.0391 11.2254 29.0391 11.1953C29.0391 11.1652 29.0268 11.1406 29.0117 11.1406C28.9967 11.1406 28.9844 11.116 28.9844 11.0859C28.9844 11.0559 28.9721 11.0312 28.957 11.0312C28.942 11.0312 28.9297 11.0093 28.9297 10.9826C28.9297 10.9558 28.9051 10.9162 28.875 10.8945C28.8449 10.8728 28.8203 10.8385 28.8203 10.8182C28.8203 10.7681 28.7519 10.7031 28.6992 10.7031C28.6756 10.7031 28.6562 10.6908 28.6562 10.6758C28.6562 10.6607 28.6316 10.6484 28.6016 10.6484C28.5715 10.6484 28.5469 10.6361 28.5469 10.6211C28.5469 10.6061 28.5223 10.5938 28.4922 10.5938C28.4621 10.5938 28.4375 10.5814 28.4375 10.5664C28.4375 10.5514 28.4129 10.5391 28.3828 10.5391C28.3527 10.5391 28.3281 10.5268 28.3281 10.5117C28.3281 10.4967 28.3035 10.4844 28.2734 10.4844C28.2434 10.4844 28.2188 10.4721 28.2188 10.457C28.2188 10.442 28.1818 10.4297 28.1367 10.4297C28.0916 10.4297 28.0547 10.4174 28.0547 10.4023C28.0547 10.3873 28.0301 10.375 28 10.375C27.9699 10.375 27.9453 10.3627 27.9453 10.3477C27.9453 10.3326 27.9207 10.3203 27.8906 10.3203C27.8605 10.3203 27.8359 10.308 27.8359 10.293C27.8359 10.2779 27.799 10.2656 27.7539 10.2656C27.7088 10.2656 27.6719 10.2533 27.6719 10.2383C27.6719 10.2232 27.6473 10.2109 27.6172 10.2109C27.5871 10.2109 27.5625 10.1986 27.5625 10.1836C27.5625 10.1686 27.5379 10.1562 27.5078 10.1562C27.4777 10.1562 27.4531 10.1439 27.4531 10.1289C27.4531 10.1139 27.4162 10.1016 27.3711 10.1016C27.326 10.1016 27.2891 10.0893 27.2891 10.0742C27.2891 10.0592 27.2645 10.0469 27.2344 10.0469C27.2043 10.0469 27.1797 10.0346 27.1797 10.0195C27.1797 10.0045 27.1551 9.99219 27.125 9.99219C27.0949 9.99219 27.0703 9.97988 27.0703 9.96484C27.0703 9.9498 27.0334 9.9375 26.9883 9.9375C26.9432 9.9375 26.9062 9.9252 26.9062 9.91016C26.9062 9.89512 26.8816 9.88281 26.8516 9.88281C26.8215 9.88281 26.7969 9.87051 26.7969 9.85547C26.7969 9.84043 26.7723 9.82812 26.7422 9.82812C26.7121 9.82812 26.6875 9.81582 26.6875 9.80078C26.6875 9.78574 26.6506 9.77344 26.6055 9.77344C26.5604 9.77344 26.5234 9.76113 26.5234 9.74609C26.5234 9.73105 26.4988 9.71875 26.4688 9.71875C26.4387 9.71875 26.4141 9.70645 26.4141 9.69141C26.4141 9.67637 26.3895 9.66406 26.3594 9.66406C26.3293 9.66406 26.3047 9.65176 26.3047 9.63672C26.3047 9.62168 26.2678 9.60938 26.2227 9.60938C26.1775 9.60938 26.1406 9.59707 26.1406 9.58203C26.1406 9.56699 26.116 9.55469 26.0859 9.55469C26.0559 9.55469 26.0312 9.54238 26.0312 9.52734C26.0312 9.5123 26.0066 9.5 25.9766 9.5C25.9465 9.5 25.9219 9.4877 25.9219 9.47266C25.9219 9.45762 25.885 9.44531 25.8398 9.44531C25.7947 9.44531 25.7578 9.43301 25.7578 9.41797C25.7578 9.40293 25.7332 9.39062 25.7031 9.39062C25.6727 9.39062 25.6484 9.37239 25.6484 9.3495C25.6484 9.29574 27.1942 7.75 27.2479 7.75C27.2705 7.75 27.2891 7.7377 27.2891 7.72266C27.2891 7.70762 27.326 7.69531 27.3711 7.69531C27.4162 7.69531 27.4531 7.68301 27.4531 7.66797C27.4531 7.65236 27.5352 7.64062 27.6445 7.64062C27.7539 7.64062 27.8359 7.65236 27.8359 7.66797ZM24.3906 10.6211C24.3906 10.6361 24.4275 10.6484 24.4727 10.6484C24.5178 10.6484 24.5547 10.6607 24.5547 10.6758C24.5547 10.6908 24.5793 10.7031 24.6094 10.7031C24.6395 10.7031 24.6641 10.7154 24.6641 10.7305C24.6641 10.7455 24.6887 10.7578 24.7188 10.7578C24.7488 10.7578 24.7734 10.7701 24.7734 10.7852C24.7734 10.8002 24.8104 10.8125 24.8555 10.8125C24.9006 10.8125 24.9375 10.8248 24.9375 10.8398C24.9375 10.8549 24.9621 10.8672 24.9922 10.8672C25.0223 10.8672 25.0469 10.8795 25.0469 10.8945C25.0469 10.9096 25.0715 10.9219 25.1016 10.9219C25.1316 10.9219 25.1562 10.9342 25.1562 10.9492C25.1562 10.9643 25.1932 10.9766 25.2383 10.9766C25.2834 10.9766 25.3203 10.9889 25.3203 11.0039C25.3203 11.0189 25.3449 11.0312 25.375 11.0312C25.4051 11.0312 25.4297 11.0436 25.4297 11.0586C25.4297 11.0736 25.4543 11.0859 25.4844 11.0859C25.5145 11.0859 25.5391 11.0982 25.5391 11.1133C25.5391 11.1283 25.576 11.1406 25.6211 11.1406C25.6662 11.1406 25.7031 11.1529 25.7031 11.168C25.7031 11.183 25.7277 11.1953 25.7578 11.1953C25.7879 11.1953 25.8125 11.2076 25.8125 11.2227C25.8125 11.2377 25.8371 11.25 25.8672 11.25C25.8973 11.25 25.9219 11.2623 25.9219 11.2773C25.9219 11.2924 25.9588 11.3047 26.0039 11.3047C26.049 11.3047 26.0859 11.317 26.0859 11.332C26.0859 11.3471 26.1105 11.3594 26.1406 11.3594C26.1707 11.3594 26.1953 11.3717 26.1953 11.3867C26.1953 11.4018 26.2199 11.4141 26.25 11.4141C26.2801 11.4141 26.3047 11.4264 26.3047 11.4414C26.3047 11.4564 26.3416 11.4688 26.3867 11.4688C26.4318 11.4688 26.4688 11.4811 26.4688 11.4961C26.4688 11.5111 26.4934 11.5234 26.5234 11.5234C26.5535 11.5234 26.5781 11.5357 26.5781 11.5508C26.5781 11.5658 26.6027 11.5781 26.6328 11.5781C26.6629 11.5781 26.6875 11.5904 26.6875 11.6055C26.6875 11.6205 26.7244 11.6328 26.7695 11.6328C26.8146 11.6328 26.8516 11.6451 26.8516 11.6602C26.8516 11.6752 26.8762 11.6875 26.9062 11.6875C26.9363 11.6875 26.9609 11.6998 26.9609 11.7148C26.9609 11.7299 26.9855 11.7422 27.0156 11.7422C27.0457 11.7422 27.0703 11.7545 27.0703 11.7695C27.0703 11.7846 27.1072 11.7969 27.1523 11.7969C27.1975 11.7969 27.2344 11.8092 27.2344 11.8242C27.2344 11.8393 27.259 11.8516 27.2891 11.8516C27.3191 11.8516 27.3438 11.8639 27.3438 11.8789C27.3438 11.8939 27.3684 11.9062 27.3984 11.9062C27.4285 11.9062 27.4531 11.9186 27.4531 11.9336C27.4531 11.9486 27.4725 11.9609 27.4961 11.9609C27.5513 11.9609 27.6172 12.0268 27.6172 12.082C27.6172 12.1057 27.6295 12.125 27.6445 12.125C27.6596 12.125 27.6719 12.1496 27.6719 12.1797C27.6719 12.2098 27.6842 12.2344 27.6992 12.2344C27.7143 12.2344 27.7266 12.259 27.7266 12.2891C27.7266 12.3191 27.7389 12.3438 27.7539 12.3438C27.7689 12.3438 27.7812 12.3807 27.7812 12.4258C27.7812 12.4709 27.7936 12.5078 27.8086 12.5078C27.8236 12.5078 27.8359 12.5324 27.8359 12.5625C27.8359 12.5926 27.8482 12.6172 27.8633 12.6172C27.8783 12.6172 27.8906 12.6418 27.8906 12.6719C27.8906 12.702 27.9029 12.7266 27.918 12.7266C27.933 12.7266 27.9453 12.7635 27.9453 12.8086C27.9453 12.8537 27.9576 12.8906 27.9727 12.8906C27.9877 12.8906 28 12.9152 28 12.9453C28 12.9754 28.0123 13 28.0273 13C28.0424 13 28.0547 13.0246 28.0547 13.0547C28.0547 13.0848 28.067 13.1094 28.082 13.1094C28.0971 13.1094 28.1094 13.1463 28.1094 13.1914C28.1094 13.2365 28.1217 13.2734 28.1367 13.2734C28.1518 13.2734 28.1641 13.298 28.1641 13.3281C28.1641 13.3582 28.1764 13.3828 28.1914 13.3828C28.2064 13.3828 28.2188 13.4074 28.2188 13.4375C28.2188 13.4676 28.2311 13.4922 28.2461 13.4922C28.2611 13.4922 28.2734 13.5291 28.2734 13.5742C28.2734 13.6193 28.2857 13.6562 28.3008 13.6562C28.3158 13.6562 28.3281 13.6809 28.3281 13.7109C28.3281 13.741 28.3404 13.7656 28.3555 13.7656C28.3705 13.7656 28.3828 13.7902 28.3828 13.8203C28.3828 13.8504 28.3951 13.875 28.4102 13.875C28.4252 13.875 28.4375 13.9119 28.4375 13.957C28.4375 14.0021 28.4498 14.0391 28.4648 14.0391C28.4799 14.0391 28.4922 14.0637 28.4922 14.0938C28.4922 14.1238 28.5045 14.1484 28.5195 14.1484C28.5346 14.1484 28.5469 14.173 28.5469 14.2031C28.5469 14.2332 28.5592 14.2578 28.5742 14.2578C28.5893 14.2578 28.6016 14.2947 28.6016 14.3398C28.6016 14.385 28.6139 14.4219 28.6289 14.4219C28.6439 14.4219 28.6562 14.4465 28.6562 14.4766C28.6562 14.5066 28.6686 14.5312 28.6836 14.5312C28.6986 14.5312 28.7109 14.5559 28.7109 14.5859C28.7109 14.616 28.7232 14.6406 28.7383 14.6406C28.7533 14.6406 28.7656 14.6775 28.7656 14.7227C28.7656 14.7678 28.7779 14.8047 28.793 14.8047C28.808 14.8047 28.8203 14.8293 28.8203 14.8594C28.8203 14.8895 28.8326 14.9141 28.8477 14.9141C28.8627 14.9141 28.875 14.9387 28.875 14.9688C28.875 14.9988 28.8873 15.0234 28.9023 15.0234C28.9174 15.0234 28.9297 15.0593 28.9297 15.1032C28.9297 15.1471 28.9444 15.1878 28.9623 15.1938C28.9904 15.2032 27.9418 16.2812 27.9045 16.2812C27.8969 16.2812 27.8906 16.2566 27.8906 16.2266C27.8906 16.1965 27.8783 16.1719 27.8633 16.1719C27.8482 16.1719 27.8359 16.1473 27.8359 16.1172C27.8359 16.0871 27.8236 16.0625 27.8086 16.0625C27.7936 16.0625 27.7812 16.0379 27.7812 16.0078C27.7812 15.9777 27.7689 15.9531 27.7539 15.9531C27.7389 15.9531 27.7266 15.9162 27.7266 15.8711C27.7266 15.826 27.7143 15.7891 27.6992 15.7891C27.6842 15.7891 27.6719 15.7645 27.6719 15.7344C27.6719 15.7043 27.6596 15.6797 27.6445 15.6797C27.6295 15.6797 27.6172 15.6551 27.6172 15.625C27.6172 15.5949 27.6049 15.5703 27.5898 15.5703C27.5748 15.5703 27.5625 15.5334 27.5625 15.4883C27.5625 15.4432 27.5502 15.4062 27.5352 15.4062C27.5201 15.4062 27.5078 15.3816 27.5078 15.3516C27.5078 15.3215 27.4955 15.2969 27.4805 15.2969C27.4654 15.2969 27.4531 15.2723 27.4531 15.2422C27.4531 15.2121 27.4408 15.1875 27.4258 15.1875C27.4107 15.1875 27.3984 15.1506 27.3984 15.1055C27.3984 15.0604 27.3861 15.0234 27.3711 15.0234C27.3561 15.0234 27.3438 14.9988 27.3438 14.9688C27.3438 14.9387 27.3314 14.9141 27.3164 14.9141C27.3014 14.9141 27.2891 14.8895 27.2891 14.8594C27.2891 14.8293 27.2768 14.8047 27.2617 14.8047C27.2467 14.8047 27.2344 14.7678 27.2344 14.7227C27.2344 14.6775 27.2221 14.6406 27.207 14.6406C27.192 14.6406 27.1797 14.616 27.1797 14.5859C27.1797 14.5559 27.1674 14.5312 27.1523 14.5312C27.1373 14.5312 27.125 14.5066 27.125 14.4766C27.125 14.4465 27.1127 14.4219 27.0977 14.4219C27.0826 14.4219 27.0703 14.385 27.0703 14.3398C27.0703 14.2947 27.058 14.2578 27.043 14.2578C27.0279 14.2578 27.0156 14.2332 27.0156 14.2031C27.0156 14.173 27.0033 14.1484 26.9883 14.1484C26.9732 14.1484 26.9609 14.1238 26.9609 14.0938C26.9609 14.0637 26.9486 14.0391 26.9336 14.0391C26.9186 14.0391 26.9062 14.0021 26.9062 13.957C26.9062 13.9119 26.8939 13.875 26.8789 13.875C26.8639 13.875 26.8516 13.8504 26.8516 13.8203C26.8516 13.7902 26.8393 13.7656 26.8242 13.7656C26.8092 13.7656 26.7969 13.741 26.7969 13.7109C26.7969 13.6809 26.7846 13.6562 26.7695 13.6562C26.7545 13.6562 26.7422 13.6193 26.7422 13.5742C26.7422 13.5291 26.7299 13.4922 26.7148 13.4922C26.6998 13.4922 26.6875 13.4676 26.6875 13.4375C26.6875 13.4074 26.6752 13.3828 26.6602 13.3828C26.6451 13.3828 26.6328 13.3582 26.6328 13.3281C26.6328 13.298 26.6205 13.2734 26.6055 13.2734C26.5904 13.2734 26.5781 13.2546 26.5781 13.2315C26.5781 13.1771 26.401 13 26.3466 13C26.3236 13 26.3047 12.9877 26.3047 12.9727C26.3047 12.9576 26.2801 12.9453 26.25 12.9453C26.2199 12.9453 26.1953 12.933 26.1953 12.918C26.1953 12.9029 26.1707 12.8906 26.1406 12.8906C26.1105 12.8906 26.0859 12.8783 26.0859 12.8633C26.0859 12.8482 26.0613 12.8359 26.0312 12.8359C26.0012 12.8359 25.9766 12.8236 25.9766 12.8086C25.9766 12.7936 25.9396 12.7812 25.8945 12.7812C25.8494 12.7812 25.8125 12.7689 25.8125 12.7539C25.8125 12.7389 25.7879 12.7266 25.7578 12.7266C25.7277 12.7266 25.7031 12.7143 25.7031 12.6992C25.7031 12.6842 25.6662 12.6719 25.6211 12.6719C25.576 12.6719 25.5391 12.6596 25.5391 12.6445C25.5391 12.6295 25.5145 12.6172 25.4844 12.6172C25.4543 12.6172 25.4297 12.6049 25.4297 12.5898C25.4297 12.5748 25.4051 12.5625 25.375 12.5625C25.3449 12.5625 25.3203 12.5502 25.3203 12.5352C25.3203 12.5201 25.2834 12.5078 25.2383 12.5078C25.1932 12.5078 25.1562 12.4955 25.1562 12.4805C25.1562 12.4654 25.1316 12.4531 25.1016 12.4531C25.0715 12.4531 25.0469 12.4408 25.0469 12.4258C25.0469 12.4107 25.0223 12.3984 24.9922 12.3984C24.9621 12.3984 24.9375 12.3861 24.9375 12.3711C24.9375 12.3561 24.9129 12.3438 24.8828 12.3438C24.8527 12.3438 24.8281 12.3314 24.8281 12.3164C24.8281 12.3014 24.7912 12.2891 24.7461 12.2891C24.701 12.2891 24.6641 12.2768 24.6641 12.2617C24.6641 12.2467 24.6395 12.2344 24.6094 12.2344C24.5793 12.2344 24.5547 12.2221 24.5547 12.207C24.5547 12.192 24.5178 12.1797 24.4727 12.1797C24.4275 12.1797 24.3906 12.1674 24.3906 12.1523C24.3906 12.1373 24.366 12.125 24.3359 12.125C24.3059 12.125 24.2812 12.1127 24.2812 12.0977C24.2812 12.0826 24.2566 12.0703 24.2266 12.0703C24.1965 12.0703 24.1719 12.058 24.1719 12.043C24.1719 12.0279 24.135 12.0156 24.0898 12.0156C24.0447 12.0156 24.0078 12.0033 24.0078 11.9883C24.0078 11.9732 23.9832 11.9609 23.9531 11.9609C23.923 11.9609 23.8984 11.9486 23.8984 11.9336C23.8984 11.9186 23.8738 11.9062 23.8438 11.9062C23.8137 11.9062 23.7891 11.8939 23.7891 11.8789C23.7891 11.8639 23.7645 11.8516 23.7344 11.8516C23.7043 11.8516 23.6797 11.8393 23.6797 11.8242C23.6797 11.8092 23.6428 11.7969 23.5977 11.7969C23.5525 11.7969 23.5156 11.7846 23.5156 11.7695C23.5156 11.7545 23.491 11.7422 23.4609 11.7422C23.4309 11.7422 23.4062 11.7299 23.4062 11.7148C23.4062 11.6998 23.3816 11.6875 23.3516 11.6875C23.3215 11.6875 23.2969 11.6813 23.2969 11.6737C23.2969 11.6526 24.3466 10.5985 24.3701 10.596C24.3814 10.5948 24.3906 10.6061 24.3906 10.6211ZM22.1484 12.9727C22.1484 12.9877 22.1854 13 22.2305 13C22.2756 13 22.3125 13.0123 22.3125 13.0273C22.3125 13.0424 22.3371 13.0547 22.3672 13.0547C22.3973 13.0547 22.4219 13.067 22.4219 13.082C22.4219 13.0971 22.4465 13.1094 22.4766 13.1094C22.5066 13.1094 22.5312 13.1217 22.5312 13.1367C22.5312 13.1518 22.5682 13.1641 22.6133 13.1641C22.6584 13.1641 22.6953 13.1764 22.6953 13.1914C22.6953 13.2064 22.7199 13.2188 22.75 13.2188C22.7801 13.2188 22.8047 13.2311 22.8047 13.2461C22.8047 13.2611 22.8293 13.2734 22.8594 13.2734C22.8895 13.2734 22.9141 13.2857 22.9141 13.3008C22.9141 13.3158 22.951 13.3281 22.9961 13.3281C23.0412 13.3281 23.0781 13.3404 23.0781 13.3555C23.0781 13.3705 23.1027 13.3828 23.1328 13.3828C23.1629 13.3828 23.1875 13.3951 23.1875 13.4102C23.1875 13.4252 23.2121 13.4375 23.2422 13.4375C23.2723 13.4375 23.2969 13.4498 23.2969 13.4648C23.2969 13.4799 23.3338 13.4922 23.3789 13.4922C23.424 13.4922 23.4609 13.5045 23.4609 13.5195C23.4609 13.5346 23.4855 13.5469 23.5156 13.5469C23.5457 13.5469 23.5703 13.5592 23.5703 13.5742C23.5703 13.5893 23.5949 13.6016 23.625 13.6016C23.6551 13.6016 23.6797 13.6139 23.6797 13.6289C23.6797 13.6439 23.7166 13.6562 23.7617 13.6562C23.8068 13.6562 23.8438 13.6686 23.8438 13.6836C23.8438 13.6986 23.8684 13.7109 23.8984 13.7109C23.9285 13.7109 23.9531 13.7232 23.9531 13.7383C23.9531 13.7533 23.9777 13.7656 24.0078 13.7656C24.0379 13.7656 24.0625 13.7779 24.0625 13.793C24.0625 13.808 24.0994 13.8203 24.1445 13.8203C24.1896 13.8203 24.2266 13.8326 24.2266 13.8477C24.2266 13.8627 24.2512 13.875 24.2812 13.875C24.3113 13.875 24.3359 13.8873 24.3359 13.9023C24.3359 13.9174 24.3605 13.9297 24.3906 13.9297C24.4207 13.9297 24.4453 13.942 24.4453 13.957C24.4453 13.9721 24.4822 13.9844 24.5273 13.9844C24.5725 13.9844 24.6094 13.9967 24.6094 14.0117C24.6094 14.0268 24.634 14.0391 24.6641 14.0391C24.6941 14.0391 24.7188 14.0514 24.7188 14.0664C24.7188 14.0814 24.7434 14.0938 24.7734 14.0938C24.8035 14.0938 24.8281 14.1061 24.8281 14.1211C24.8281 14.1361 24.865 14.1484 24.9102 14.1484C24.9553 14.1484 24.9922 14.1607 24.9922 14.1758C24.9922 14.1908 25.0168 14.2031 25.0469 14.2031C25.077 14.2031 25.1016 14.2154 25.1016 14.2305C25.1016 14.2455 25.1206 14.2578 25.1438 14.2578C25.1985 14.2578 25.3203 14.3796 25.3203 14.4343C25.3203 14.4576 25.3326 14.4766 25.3477 14.4766C25.3627 14.4766 25.375 14.5012 25.375 14.5312C25.375 14.5613 25.3873 14.5859 25.4023 14.5859C25.4174 14.5859 25.4297 14.6229 25.4297 14.668C25.4297 14.7131 25.442 14.75 25.457 14.75C25.4721 14.75 25.4844 14.7746 25.4844 14.8047C25.4844 14.8348 25.4967 14.8594 25.5117 14.8594C25.5268 14.8594 25.5391 14.884 25.5391 14.9141C25.5391 14.9441 25.5514 14.9688 25.5664 14.9688C25.5814 14.9688 25.5938 15.0057 25.5938 15.0508C25.5938 15.0959 25.6061 15.1328 25.6211 15.1328C25.6361 15.1328 25.6484 15.1574 25.6484 15.1875C25.6484 15.2176 25.6607 15.2422 25.6758 15.2422C25.6908 15.2422 25.7031 15.2668 25.7031 15.2969C25.7031 15.327 25.7154 15.3516 25.7305 15.3516C25.7455 15.3516 25.7578 15.3885 25.7578 15.4336C25.7578 15.4787 25.7701 15.5156 25.7852 15.5156C25.8002 15.5156 25.8125 15.5402 25.8125 15.5703C25.8125 15.6004 25.8248 15.625 25.8398 15.625C25.8549 15.625 25.8672 15.6496 25.8672 15.6797C25.8672 15.7098 25.8795 15.7344 25.8945 15.7344C25.9096 15.7344 25.9219 15.7713 25.9219 15.8164C25.9219 15.8615 25.9342 15.8984 25.9492 15.8984C25.9643 15.8984 25.9766 15.923 25.9766 15.9531C25.9766 15.9832 25.9889 16.0078 26.0039 16.0078C26.0189 16.0078 26.0312 16.0324 26.0312 16.0625C26.0312 16.0926 26.0436 16.1172 26.0586 16.1172C26.0736 16.1172 26.0859 16.1541 26.0859 16.1992C26.0859 16.2443 26.0982 16.2812 26.1133 16.2812C26.1283 16.2812 26.1406 16.3059 26.1406 16.3359C26.1406 16.366 26.1529 16.3906 26.168 16.3906C26.183 16.3906 26.1953 16.4152 26.1953 16.4453C26.1953 16.4754 26.2076 16.5 26.2227 16.5C26.2377 16.5 26.25 16.5369 26.25 16.582C26.25 16.6271 26.2623 16.6641 26.2773 16.6641C26.2924 16.6641 26.3047 16.6887 26.3047 16.7188C26.3047 16.7488 26.317 16.7734 26.332 16.7734C26.3471 16.7734 26.3594 16.798 26.3594 16.8281C26.3594 16.8582 26.3717 16.8828 26.3867 16.8828C26.4018 16.8828 26.4141 16.9197 26.4141 16.9648C26.4141 17.01 26.4264 17.0469 26.4414 17.0469C26.4564 17.0469 26.4688 17.0715 26.4688 17.1016C26.4688 17.1316 26.4811 17.1562 26.4961 17.1562C26.5111 17.1562 26.5234 17.1809 26.5234 17.2109C26.5234 17.241 26.5357 17.2656 26.5508 17.2656C26.5658 17.2656 26.5781 17.3025 26.5781 17.3477C26.5781 17.3928 26.5904 17.4297 26.6055 17.4297C26.6205 17.4297 26.6328 17.4605 26.6328 17.4982C26.6328 17.5507 26.5142 17.6854 26.1271 18.0725C25.849 18.3506 25.6029 18.5781 25.5803 18.5781C25.5527 18.5781 25.5391 18.5509 25.5391 18.4961C25.5391 18.451 25.5268 18.4141 25.5117 18.4141C25.4967 18.4141 25.4844 18.3895 25.4844 18.3594C25.4844 18.3293 25.4721 18.3047 25.457 18.3047C25.442 18.3047 25.4297 18.2801 25.4297 18.25C25.4297 18.2199 25.4174 18.1953 25.4023 18.1953C25.3873 18.1953 25.375 18.1584 25.375 18.1133C25.375 18.0682 25.3627 18.0312 25.3477 18.0312C25.3326 18.0312 25.3203 18.0066 25.3203 17.9766C25.3203 17.9465 25.308 17.9219 25.293 17.9219C25.2779 17.9219 25.2656 17.8973 25.2656 17.8672C25.2656 17.8371 25.2533 17.8125 25.2383 17.8125C25.2232 17.8125 25.2109 17.7756 25.2109 17.7305C25.2109 17.6854 25.1986 17.6484 25.1836 17.6484C25.1686 17.6484 25.1562 17.6238 25.1562 17.5938C25.1562 17.5637 25.1439 17.5391 25.1289 17.5391C25.1139 17.5391 25.1016 17.5145 25.1016 17.4844C25.1016 17.4543 25.0893 17.4297 25.0742 17.4297C25.0592 17.4297 25.0469 17.3928 25.0469 17.3477C25.0469 17.3025 25.0346 17.2656 25.0195 17.2656C25.0045 17.2656 24.9922 17.241 24.9922 17.2109C24.9922 17.1809 24.9799 17.1562 24.9648 17.1562C24.9498 17.1562 24.9375 17.1316 24.9375 17.1016C24.9375 17.0715 24.9252 17.0469 24.9102 17.0469C24.8951 17.0469 24.8828 17.01 24.8828 16.9648C24.8828 16.9197 24.8705 16.8828 24.8555 16.8828C24.8404 16.8828 24.8281 16.8582 24.8281 16.8281C24.8281 16.798 24.8158 16.7734 24.8008 16.7734C24.7857 16.7734 24.7734 16.7488 24.7734 16.7188C24.7734 16.6887 24.7611 16.6641 24.7461 16.6641C24.7311 16.6641 24.7188 16.6271 24.7188 16.582C24.7188 16.5369 24.7064 16.5 24.6914 16.5C24.6764 16.5 24.6641 16.4754 24.6641 16.4453C24.6641 16.4152 24.6518 16.3906 24.6367 16.3906C24.6217 16.3906 24.6094 16.366 24.6094 16.3359C24.6094 16.3059 24.5971 16.2812 24.582 16.2812C24.567 16.2812 24.5547 16.2443 24.5547 16.1992C24.5547 16.1541 24.5424 16.1172 24.5273 16.1172C24.5123 16.1172 24.5 16.0926 24.5 16.0625C24.5 16.0324 24.4877 16.0078 24.4727 16.0078C24.4576 16.0078 24.4453 15.9832 24.4453 15.9531C24.4453 15.923 24.433 15.8984 24.418 15.8984C24.4029 15.8984 24.3906 15.8615 24.3906 15.8164C24.3906 15.7713 24.3783 15.7344 24.3633 15.7344C24.3482 15.7344 24.3359 15.7098 24.3359 15.6797C24.3359 15.6496 24.3236 15.625 24.3086 15.625C24.2936 15.625 24.2812 15.6062 24.2812 15.5833C24.2812 15.529 24.0491 15.2969 23.9949 15.2969C23.9719 15.2969 23.9531 15.2846 23.9531 15.2695C23.9531 15.2545 23.9285 15.2422 23.8984 15.2422C23.8684 15.2422 23.8438 15.2299 23.8438 15.2148C23.8438 15.1998 23.8068 15.1875 23.7617 15.1875C23.7166 15.1875 23.6797 15.1752 23.6797 15.1602C23.6797 15.1451 23.6551 15.1328 23.625 15.1328C23.5949 15.1328 23.5703 15.1205 23.5703 15.1055C23.5703 15.0904 23.5457 15.0781 23.5156 15.0781C23.4855 15.0781 23.4609 15.0658 23.4609 15.0508C23.4609 15.0357 23.424 15.0234 23.3789 15.0234C23.3338 15.0234 23.2969 15.0111 23.2969 14.9961C23.2969 14.9811 23.2723 14.9688 23.2422 14.9688C23.2121 14.9688 23.1875 14.9564 23.1875 14.9414C23.1875 14.9264 23.1629 14.9141 23.1328 14.9141C23.1027 14.9141 23.0781 14.9018 23.0781 14.8867C23.0781 14.8717 23.0412 14.8594 22.9961 14.8594C22.951 14.8594 22.9141 14.8471 22.9141 14.832C22.9141 14.817 22.8895 14.8047 22.8594 14.8047C22.8293 14.8047 22.8047 14.7924 22.8047 14.7773C22.8047 14.7623 22.7801 14.75 22.75 14.75C22.7199 14.75 22.6953 14.7377 22.6953 14.7227C22.6953 14.7076 22.6584 14.6953 22.6133 14.6953C22.5682 14.6953 22.5312 14.683 22.5312 14.668C22.5312 14.6529 22.5066 14.6406 22.4766 14.6406C22.4465 14.6406 22.4219 14.6283 22.4219 14.6133C22.4219 14.5982 22.3973 14.5859 22.3672 14.5859C22.3371 14.5859 22.3125 14.5736 22.3125 14.5586C22.3125 14.5436 22.2756 14.5312 22.2305 14.5312C22.1854 14.5312 22.1484 14.5189 22.1484 14.5039C22.1484 14.4889 22.1238 14.4766 22.0938 14.4766C22.0637 14.4766 22.0391 14.4643 22.0391 14.4492C22.0391 14.4342 22.0145 14.4219 21.9844 14.4219C21.9543 14.4219 21.9297 14.4096 21.9297 14.3945C21.9297 14.3795 21.8928 14.3672 21.8477 14.3672C21.8025 14.3672 21.7656 14.3549 21.7656 14.3398C21.7656 14.3248 21.741 14.3125 21.7109 14.3125C21.6809 14.3125 21.6562 14.3002 21.6562 14.2852C21.6562 14.2701 21.6316 14.2578 21.6016 14.2578C21.5715 14.2578 21.5469 14.2455 21.5469 14.2305C21.5469 14.2154 21.51 14.2031 21.4648 14.2031C21.4197 14.2031 21.3828 14.1908 21.3828 14.1758C21.3828 14.1607 21.3582 14.1484 21.3281 14.1484C21.298 14.1484 21.2734 14.1361 21.2734 14.1211C21.2734 14.1061 21.2488 14.0938 21.2188 14.0938C21.1887 14.0938 21.1641 14.0814 21.1641 14.0664C21.1641 14.0514 21.1271 14.0391 21.082 14.0391C21.0272 14.0391 21 14.0254 21 13.9979C21 13.9752 21.2245 13.7301 21.499 13.4532C21.8971 13.0516 22.0133 12.9493 22.0732 12.9475C22.1146 12.9463 22.1484 12.9576 22.1484 12.9727ZM19.7969 15.2695C19.7969 15.2846 19.8215 15.2969 19.8516 15.2969C19.8816 15.2969 19.9062 15.3092 19.9062 15.3242C19.9062 15.3393 19.9432 15.3516 19.9883 15.3516C20.0334 15.3516 20.0703 15.3639 20.0703 15.3789C20.0703 15.3939 20.0949 15.4062 20.125 15.4062C20.1551 15.4062 20.1797 15.4186 20.1797 15.4336C20.1797 15.4486 20.2043 15.4609 20.2344 15.4609C20.2645 15.4609 20.2891 15.4732 20.2891 15.4883C20.2891 15.5033 20.3137 15.5156 20.3438 15.5156C20.3738 15.5156 20.3984 15.5279 20.3984 15.543C20.3984 15.558 20.4354 15.5703 20.4805 15.5703C20.5256 15.5703 20.5625 15.5826 20.5625 15.5977C20.5625 15.6127 20.5871 15.625 20.6172 15.625C20.6473 15.625 20.6719 15.6373 20.6719 15.6523C20.6719 15.6674 20.7088 15.6797 20.7539 15.6797C20.799 15.6797 20.8359 15.692 20.8359 15.707C20.8359 15.7221 20.8605 15.7344 20.8906 15.7344C20.9207 15.7344 20.9453 15.7467 20.9453 15.7617C20.9453 15.7768 20.9699 15.7891 21 15.7891C21.0301 15.7891 21.0547 15.8014 21.0547 15.8164C21.0547 15.8314 21.0793 15.8438 21.1094 15.8438C21.1395 15.8438 21.1641 15.8561 21.1641 15.8711C21.1641 15.8861 21.201 15.8984 21.2461 15.8984C21.2912 15.8984 21.3281 15.9107 21.3281 15.9258C21.3281 15.9408 21.3527 15.9531 21.3828 15.9531C21.4129 15.9531 21.4375 15.9654 21.4375 15.9805C21.4375 15.9955 21.4744 16.0078 21.5195 16.0078C21.5646 16.0078 21.6016 16.0201 21.6016 16.0352C21.6016 16.0502 21.6262 16.0625 21.6562 16.0625C21.6863 16.0625 21.7109 16.0748 21.7109 16.0898C21.7109 16.1049 21.7355 16.1172 21.7656 16.1172C21.7957 16.1172 21.8203 16.1295 21.8203 16.1445C21.8203 16.1596 21.8572 16.1719 21.9023 16.1719C21.9475 16.1719 21.9844 16.1842 21.9844 16.1992C21.9844 16.2143 22.009 16.2266 22.0391 16.2266C22.0691 16.2266 22.0938 16.2389 22.0938 16.2539C22.0938 16.2689 22.1184 16.2812 22.1484 16.2812C22.1785 16.2812 22.2031 16.2936 22.2031 16.3086C22.2031 16.3236 22.2277 16.3359 22.2578 16.3359C22.2879 16.3359 22.3125 16.3482 22.3125 16.3633C22.3125 16.3783 22.3494 16.3906 22.3945 16.3906C22.4396 16.3906 22.4766 16.4029 22.4766 16.418C22.4766 16.433 22.5012 16.4453 22.5312 16.4453C22.5613 16.4453 22.5859 16.4576 22.5859 16.4727C22.5859 16.4877 22.6105 16.5 22.6406 16.5C22.6707 16.5 22.6953 16.5123 22.6953 16.5273C22.6953 16.5424 22.7322 16.5547 22.7773 16.5547C22.8225 16.5547 22.8594 16.567 22.8594 16.582C22.8594 16.5971 22.884 16.6094 22.9141 16.6094C22.9505 16.6094 22.9688 16.6276 22.9688 16.6641C22.9688 16.6941 22.9811 16.7188 22.9961 16.7188C23.0111 16.7188 23.0234 16.7557 23.0234 16.8008C23.0234 16.8459 23.0357 16.8828 23.0508 16.8828C23.0658 16.8828 23.0781 16.9074 23.0781 16.9375C23.0781 16.9676 23.0904 16.9922 23.1055 16.9922C23.1205 16.9922 23.1328 17.0168 23.1328 17.0469C23.1328 17.077 23.1451 17.1016 23.1602 17.1016C23.1752 17.1016 23.1875 17.1385 23.1875 17.1836C23.1875 17.2287 23.1998 17.2656 23.2148 17.2656C23.2299 17.2656 23.2422 17.2902 23.2422 17.3203C23.2422 17.3504 23.2545 17.375 23.2695 17.375C23.2846 17.375 23.2969 17.3996 23.2969 17.4297C23.2969 17.4598 23.3092 17.4844 23.3242 17.4844C23.3393 17.4844 23.3516 17.5213 23.3516 17.5664C23.3516 17.6115 23.3639 17.6484 23.3789 17.6484C23.3939 17.6484 23.4062 17.673 23.4062 17.7031C23.4062 17.7332 23.4186 17.7578 23.4336 17.7578C23.4486 17.7578 23.4609 17.7824 23.4609 17.8125C23.4609 17.8426 23.4732 17.8672 23.4883 17.8672C23.5033 17.8672 23.5156 17.9041 23.5156 17.9492C23.5156 17.9943 23.5279 18.0312 23.543 18.0312C23.558 18.0312 23.5703 18.0559 23.5703 18.0859C23.5703 18.116 23.5826 18.1406 23.5977 18.1406C23.6127 18.1406 23.625 18.1652 23.625 18.1953C23.625 18.2254 23.6373 18.25 23.6523 18.25C23.6674 18.25 23.6797 18.2869 23.6797 18.332C23.6797 18.3771 23.692 18.4141 23.707 18.4141C23.7221 18.4141 23.7344 18.4387 23.7344 18.4688C23.7344 18.4988 23.7467 18.5234 23.7617 18.5234C23.7768 18.5234 23.7891 18.548 23.7891 18.5781C23.7891 18.6082 23.8014 18.6328 23.8164 18.6328C23.8314 18.6328 23.8438 18.6697 23.8438 18.7148C23.8438 18.76 23.8561 18.7969 23.8711 18.7969C23.8861 18.7969 23.8984 18.8215 23.8984 18.8516C23.8984 18.8816 23.9107 18.9062 23.9258 18.9062C23.9408 18.9062 23.9531 18.9309 23.9531 18.9609C23.9531 18.991 23.9654 19.0156 23.9805 19.0156C23.9955 19.0156 24.0078 19.0525 24.0078 19.0977C24.0078 19.1428 24.0201 19.1797 24.0352 19.1797C24.0502 19.1797 24.0625 19.2043 24.0625 19.2344C24.0625 19.2645 24.0748 19.2891 24.0898 19.2891C24.1049 19.2891 24.1172 19.3137 24.1172 19.3438C24.1172 19.3738 24.1295 19.3984 24.1445 19.3984C24.1596 19.3984 24.1719 19.4354 24.1719 19.4805C24.1719 19.5256 24.1842 19.5625 24.1992 19.5625C24.2143 19.5625 24.2266 19.5871 24.2266 19.6172C24.2266 19.6473 24.2389 19.6719 24.2539 19.6719C24.2689 19.6719 24.2812 19.6965 24.2812 19.7266C24.2812 19.7566 24.2936 19.7812 24.3086 19.7812C24.394 19.7812 24.2819 19.9177 23.8029 20.3966C23.5097 20.6898 23.2637 20.9297 23.256 20.9297C23.2484 20.9297 23.2422 20.9051 23.2422 20.875C23.2422 20.8449 23.2299 20.8203 23.2148 20.8203C23.1998 20.8203 23.1875 20.7834 23.1875 20.7383C23.1875 20.6932 23.1752 20.6562 23.1602 20.6562C23.1451 20.6562 23.1328 20.6316 23.1328 20.6016C23.1328 20.5715 23.1205 20.5469 23.1055 20.5469C23.0904 20.5469 23.0781 20.5223 23.0781 20.4922C23.0781 20.4621 23.0658 20.4375 23.0508 20.4375C23.0357 20.4375 23.0234 20.4006 23.0234 20.3555C23.0234 20.3104 23.0111 20.2734 22.9961 20.2734C22.9811 20.2734 22.9688 20.2488 22.9688 20.2188C22.9688 20.1887 22.9564 20.1641 22.9414 20.1641C22.9264 20.1641 22.9141 20.1395 22.9141 20.1094C22.9141 20.0793 22.9018 20.0547 22.8867 20.0547C22.8717 20.0547 22.8594 20.0178 22.8594 19.9727C22.8594 19.9275 22.8471 19.8906 22.832 19.8906C22.817 19.8906 22.8047 19.866 22.8047 19.8359C22.8047 19.8059 22.7924 19.7812 22.7773 19.7812C22.7623 19.7812 22.75 19.7566 22.75 19.7266C22.75 19.6965 22.7377 19.6719 22.7227 19.6719C22.7076 19.6719 22.6953 19.635 22.6953 19.5898C22.6953 19.5447 22.683 19.5078 22.668 19.5078C22.6529 19.5078 22.6406 19.4832 22.6406 19.4531C22.6406 19.423 22.6283 19.3984 22.6133 19.3984C22.5982 19.3984 22.5859 19.3738 22.5859 19.3438C22.5859 19.3137 22.5736 19.2891 22.5586 19.2891C22.5436 19.2891 22.5312 19.2521 22.5312 19.207C22.5312 19.1619 22.5189 19.125 22.5039 19.125C22.4889 19.125 22.4766 19.1004 22.4766 19.0703C22.4766 19.0402 22.4643 19.0156 22.4492 19.0156C22.4342 19.0156 22.4219 18.991 22.4219 18.9609C22.4219 18.9309 22.4096 18.9062 22.3945 18.9062C22.3795 18.9062 22.3672 18.8693 22.3672 18.8242C22.3672 18.7791 22.3549 18.7422 22.3398 18.7422C22.3248 18.7422 22.3125 18.7176 22.3125 18.6875C22.3125 18.6574 22.3002 18.6328 22.2852 18.6328C22.2701 18.6328 22.2578 18.6082 22.2578 18.5781C22.2578 18.548 22.2455 18.5234 22.2305 18.5234C22.2154 18.5234 22.2031 18.4865 22.2031 18.4414C22.2031 18.3963 22.1908 18.3594 22.1758 18.3594C22.1607 18.3594 22.1484 18.3348 22.1484 18.3047C22.1484 18.2746 22.1361 18.25 22.1211 18.25C22.1061 18.25 22.0938 18.2254 22.0938 18.1953C22.0938 18.1652 22.0814 18.1406 22.0664 18.1406C22.0514 18.1406 22.0391 18.1064 22.0391 18.0646C22.0391 18.02 22.0165 17.9724 21.9844 17.9492C21.9543 17.9275 21.9297 17.8937 21.9297 17.8739C21.9297 17.8241 21.7494 17.6484 21.6982 17.6484C21.6751 17.6484 21.6562 17.6361 21.6562 17.6211C21.6562 17.6061 21.6316 17.5938 21.6016 17.5938C21.5715 17.5938 21.5469 17.5814 21.5469 17.5664C21.5469 17.5514 21.5223 17.5391 21.4922 17.5391C21.4621 17.5391 21.4375 17.5268 21.4375 17.5117C21.4375 17.4967 21.4129 17.4844 21.3828 17.4844C21.3527 17.4844 21.3281 17.4721 21.3281 17.457C21.3281 17.442 21.3035 17.4297 21.2734 17.4297C21.2434 17.4297 21.2188 17.4174 21.2188 17.4023C21.2188 17.3873 21.1818 17.375 21.1367 17.375C21.0916 17.375 21.0547 17.3627 21.0547 17.3477C21.0547 17.3326 21.0301 17.3203 21 17.3203C20.9699 17.3203 20.9453 17.308 20.9453 17.293C20.9453 17.2779 20.9207 17.2656 20.8906 17.2656C20.8605 17.2656 20.8359 17.2533 20.8359 17.2383C20.8359 17.2232 20.799 17.2109 20.7539 17.2109C20.7088 17.2109 20.6719 17.1986 20.6719 17.1836C20.6719 17.1686 20.6473 17.1562 20.6172 17.1562C20.5871 17.1562 20.5625 17.1439 20.5625 17.1289C20.5625 17.1139 20.5379 17.1016 20.5078 17.1016C20.4777 17.1016 20.4531 17.0893 20.4531 17.0742C20.4531 17.0592 20.4162 17.0469 20.3711 17.0469C20.326 17.0469 20.2891 17.0346 20.2891 17.0195C20.2891 17.0045 20.2645 16.9922 20.2344 16.9922C20.2043 16.9922 20.1797 16.9799 20.1797 16.9648C20.1797 16.9498 20.1551 16.9375 20.125 16.9375C20.0949 16.9375 20.0703 16.9252 20.0703 16.9102C20.0703 16.8951 20.0334 16.8828 19.9883 16.8828C19.9432 16.8828 19.9062 16.8705 19.9062 16.8555C19.9062 16.8404 19.8816 16.8281 19.8516 16.8281C19.8215 16.8281 19.7969 16.8158 19.7969 16.8008C19.7969 16.7857 19.7723 16.7734 19.7422 16.7734C19.7121 16.7734 19.6875 16.7611 19.6875 16.7461C19.6875 16.7311 19.6506 16.7188 19.6055 16.7188C19.5604 16.7188 19.5234 16.7064 19.5234 16.6914C19.5234 16.6764 19.4988 16.6641 19.4688 16.6641C19.4387 16.6641 19.4141 16.6518 19.4141 16.6367C19.4141 16.6217 19.3895 16.6094 19.3594 16.6094C19.3293 16.6094 19.3047 16.5971 19.3047 16.582C19.3047 16.567 19.2678 16.5547 19.2227 16.5547C19.1775 16.5547 19.1406 16.5424 19.1406 16.5273C19.1406 16.5123 19.116 16.5 19.0859 16.5C19.0559 16.5 19.0312 16.4877 19.0312 16.4727C19.0312 16.4576 19.0066 16.4453 18.9766 16.4453C18.9465 16.4453 18.9219 16.433 18.9219 16.418C18.9219 16.4029 18.885 16.3906 18.8398 16.3906C18.7947 16.3906 18.7578 16.3783 18.7578 16.3633C18.7578 16.3482 18.7332 16.3359 18.7031 16.3359C18.673 16.3359 18.6484 16.3297 18.6484 16.3221C18.6484 16.3145 18.8853 16.0694 19.1748 15.7774C19.643 15.3052 19.7969 15.1797 19.7969 15.2695ZM16.7344 15.8578C16.7344 15.8655 16.4145 16.1914 16.0234 16.582C15.6324 16.9726 15.3125 17.3059 15.3125 17.3226C15.3125 17.3394 15.2756 17.3876 15.2305 17.4297C15.1854 17.4718 15.1484 17.5233 15.1484 17.544C15.1484 17.5647 15.1238 17.5994 15.0938 17.6211C15.0637 17.6428 15.0391 17.6824 15.0391 17.7092C15.0391 17.7359 15.0268 17.7578 15.0117 17.7578C14.9967 17.7578 14.9844 17.7824 14.9844 17.8125C14.9844 17.8426 14.9721 17.8672 14.957 17.8672C14.942 17.8672 14.9297 17.9041 14.9297 17.9492C14.9297 17.9943 14.9174 18.0312 14.9023 18.0312C14.8873 18.0312 14.875 18.0559 14.875 18.0859C14.875 18.116 14.8627 18.1406 14.8477 18.1406C14.8326 18.1406 14.8203 18.1898 14.8203 18.25C14.8203 18.3102 14.808 18.3594 14.793 18.3594C14.777 18.3594 14.7656 18.4505 14.7656 18.5781C14.7656 18.7057 14.7542 18.7969 14.7383 18.7969C14.7232 18.7969 14.7109 18.8461 14.7109 18.9062C14.7109 18.9664 14.7232 19.0156 14.7383 19.0156C14.7542 19.0156 14.7656 19.1068 14.7656 19.2344C14.7656 19.362 14.777 19.4531 14.793 19.4531C14.808 19.4531 14.8203 19.49 14.8203 19.5352C14.8203 19.5803 14.8326 19.6172 14.8477 19.6172C14.8627 19.6172 14.875 19.6541 14.875 19.6992C14.875 19.7443 14.8873 19.7812 14.9023 19.7812C14.9174 19.7812 14.9297 19.8182 14.9297 19.8633C14.9297 19.9084 14.942 19.9453 14.957 19.9453C14.9721 19.9453 14.9844 19.9672 14.9844 19.994C14.9844 20.0207 15.009 20.0603 15.0391 20.082C15.0691 20.1037 15.0938 20.1433 15.0938 20.1701C15.0938 20.1968 15.1061 20.2188 15.1211 20.2188C15.1361 20.2188 15.1484 20.2382 15.1484 20.2619C15.1484 20.2857 15.1977 20.3524 15.2578 20.4102C15.318 20.468 15.3672 20.5285 15.3672 20.5448C15.3672 20.5834 18.9947 24.2109 19.0334 24.2109C19.0496 24.2109 19.1102 24.2602 19.168 24.3203C19.2258 24.3805 19.2925 24.4297 19.3162 24.4297C19.34 24.4297 19.3594 24.442 19.3594 24.457C19.3594 24.4721 19.3813 24.4844 19.408 24.4844C19.4348 24.4844 19.4744 24.509 19.4961 24.5391C19.5178 24.5691 19.5574 24.5938 19.5842 24.5938C19.6109 24.5938 19.6328 24.6061 19.6328 24.6211C19.6328 24.6361 19.6697 24.6484 19.7148 24.6484C19.76 24.6484 19.7969 24.6607 19.7969 24.6758C19.7969 24.6908 19.8338 24.7031 19.8789 24.7031C19.924 24.7031 19.9609 24.7154 19.9609 24.7305C19.9609 24.7455 19.9979 24.7578 20.043 24.7578C20.0881 24.7578 20.125 24.7701 20.125 24.7852C20.125 24.8011 20.2161 24.8125 20.3438 24.8125C20.4714 24.8125 20.5625 24.8239 20.5625 24.8398C20.5625 24.8549 20.6117 24.8672 20.6719 24.8672C20.732 24.8672 20.7812 24.8549 20.7812 24.8398C20.7812 24.8239 20.8724 24.8125 21 24.8125C21.1276 24.8125 21.2188 24.8011 21.2188 24.7852C21.2188 24.7701 21.268 24.7578 21.3281 24.7578C21.3883 24.7578 21.4375 24.7455 21.4375 24.7305C21.4375 24.7154 21.4621 24.7031 21.4922 24.7031C21.5223 24.7031 21.5469 24.6908 21.5469 24.6758C21.5469 24.6607 21.5838 24.6484 21.6289 24.6484C21.674 24.6484 21.7109 24.6361 21.7109 24.6211C21.7109 24.6061 21.7355 24.5938 21.7656 24.5938C21.7957 24.5938 21.8203 24.5814 21.8203 24.5664C21.8203 24.5514 21.8422 24.5391 21.869 24.5391C21.8957 24.5391 21.9353 24.5145 21.957 24.4844C21.9787 24.4543 22.0134 24.4297 22.0341 24.4297C22.0548 24.4297 22.1063 24.3928 22.1484 24.3477C22.1906 24.3025 22.2388 24.2656 22.2555 24.2656C22.2723 24.2656 22.5809 23.9703 22.9414 23.6094C23.3019 23.2484 23.6032 22.9531 23.6109 22.9531C23.6187 22.9531 23.625 22.9777 23.625 23.0078C23.625 23.0379 23.6127 23.0625 23.5977 23.0625C23.582 23.0625 23.5703 23.1445 23.5703 23.2539C23.5703 23.3633 23.5586 23.4453 23.543 23.4453C23.5279 23.4453 23.5156 23.5068 23.5156 23.582C23.5156 23.6572 23.5033 23.7188 23.4883 23.7188C23.4732 23.7188 23.4609 23.768 23.4609 23.8281C23.4609 23.8883 23.4486 23.9375 23.4336 23.9375C23.4186 23.9375 23.4062 23.9867 23.4062 24.0469C23.4062 24.107 23.3939 24.1562 23.3789 24.1562C23.3639 24.1562 23.3516 24.1932 23.3516 24.2383C23.3516 24.2834 23.3393 24.3203 23.3242 24.3203C23.3092 24.3203 23.2969 24.3572 23.2969 24.4023C23.2969 24.4475 23.2846 24.4844 23.2695 24.4844C23.2545 24.4844 23.2422 24.5213 23.2422 24.5664C23.2422 24.6115 23.2299 24.6484 23.2148 24.6484C23.1998 24.6484 23.1875 24.6854 23.1875 24.7305C23.1875 24.7756 23.1752 24.8125 23.1602 24.8125C23.1451 24.8125 23.1328 24.8371 23.1328 24.8672C23.1328 24.8973 23.1205 24.9219 23.1055 24.9219C23.0904 24.9219 23.0781 24.9588 23.0781 25.0039C23.0781 25.049 23.0658 25.0859 23.0508 25.0859C23.0357 25.0859 23.0234 25.1105 23.0234 25.1406C23.0234 25.1707 23.0111 25.1953 22.9961 25.1953C22.9811 25.1953 22.9688 25.2199 22.9688 25.25C22.9688 25.2801 22.9564 25.3047 22.9414 25.3047C22.9264 25.3047 22.9141 25.3293 22.9141 25.3594C22.9141 25.3895 22.9018 25.4141 22.8867 25.4141C22.8717 25.4141 22.8594 25.4387 22.8594 25.4688C22.8594 25.4988 22.8471 25.5234 22.832 25.5234C22.817 25.5234 22.8047 25.548 22.8047 25.5781C22.8047 25.6082 22.7924 25.6328 22.7773 25.6328C22.7623 25.6328 22.75 25.6574 22.75 25.6875C22.75 25.7176 22.7377 25.7422 22.7227 25.7422C22.7076 25.7422 22.6953 25.7641 22.6953 25.7908C22.6953 25.8176 22.6707 25.8572 22.6406 25.8789C22.6105 25.9006 22.5859 25.9402 22.5859 25.967C22.5859 25.9937 22.5736 26.0156 22.5586 26.0156C22.5436 26.0156 22.5312 26.0375 22.5312 26.0643C22.5312 26.091 22.5066 26.1307 22.4766 26.1523C22.4465 26.174 22.4219 26.2109 22.4219 26.2344C22.4219 26.2578 22.3973 26.2947 22.3672 26.3164C22.3371 26.3381 22.3125 26.3728 22.3125 26.3935C22.3125 26.4142 22.2756 26.4657 22.2305 26.5078C22.1854 26.5499 22.1484 26.5992 22.1484 26.6172C22.1484 26.6352 22.1115 26.6844 22.0664 26.7266C22.0213 26.7687 21.9844 26.8175 21.9844 26.835C21.9844 26.8525 21.9229 26.9267 21.8477 27C21.7725 27.0733 21.7109 27.1464 21.7109 27.1626C21.7109 27.1788 21.5819 27.3211 21.4242 27.4788C21.2664 27.6366 21.1241 27.7656 21.1079 27.7656C21.0917 27.7656 21.0186 27.8271 20.9453 27.9023C20.8721 27.9775 20.7978 28.0391 20.7803 28.0391C20.7628 28.0391 20.714 28.076 20.6719 28.1211C20.6297 28.1662 20.5783 28.2031 20.5576 28.2031C20.5369 28.2031 20.5022 28.2277 20.4805 28.2578C20.4588 28.2879 20.4219 28.3125 20.3984 28.3125C20.375 28.3125 20.3381 28.3371 20.3164 28.3672C20.2947 28.3973 20.2596 28.4219 20.2384 28.4219C20.2171 28.4219 20.1773 28.4478 20.1497 28.4795C20.0721 28.5691 20.0156 28.4939 20.0156 28.3008C20.0156 28.217 20.0033 28.1484 19.9883 28.1484C19.9732 28.1484 19.9609 28.0992 19.9609 28.0391C19.9609 27.9789 19.9486 27.9297 19.9336 27.9297C19.9186 27.9297 19.9062 27.8928 19.9062 27.8477C19.9062 27.8025 19.8939 27.7656 19.8789 27.7656C19.8639 27.7656 19.8516 27.7287 19.8516 27.6836C19.8516 27.6385 19.8393 27.6016 19.8242 27.6016C19.8092 27.6016 19.7969 27.577 19.7969 27.5469C19.7969 27.5168 19.7846 27.4922 19.7695 27.4922C19.7545 27.4922 19.7422 27.4676 19.7422 27.4375C19.7422 27.4074 19.7299 27.3828 19.7148 27.3828C19.6998 27.3828 19.6875 27.3582 19.6875 27.3281C19.6875 27.298 19.6752 27.2734 19.6602 27.2734C19.6451 27.2734 19.6328 27.2538 19.6328 27.2297C19.6328 27.2057 19.5959 27.1515 19.5508 27.1094C19.5057 27.0672 19.4688 27.0191 19.4688 27.0024C19.4688 26.9597 18.9029 26.3984 18.8599 26.3984C18.8404 26.3984 18.8068 26.3738 18.7852 26.3438C18.7635 26.3137 18.7239 26.2891 18.6971 26.2891C18.6703 26.2891 18.6484 26.2768 18.6484 26.2617C18.6484 26.2467 18.6238 26.2344 18.5938 26.2344C18.5637 26.2344 18.5391 26.2221 18.5391 26.207C18.5391 26.192 18.5145 26.1797 18.4844 26.1797C18.4543 26.1797 18.4297 26.1674 18.4297 26.1523C18.4297 26.1373 18.4051 26.125 18.375 26.125C18.3449 26.125 18.3203 26.1127 18.3203 26.0977C18.3203 26.0826 18.2957 26.0703 18.2656 26.0703C18.2355 26.0703 18.2109 26.058 18.2109 26.043C18.2109 26.0279 18.174 26.0156 18.1289 26.0156C18.0838 26.0156 18.0469 26.0033 18.0469 25.9883C18.0469 25.9732 17.9977 25.9609 17.9375 25.9609C17.8773 25.9609 17.8281 25.9486 17.8281 25.9336C17.8281 25.9186 17.7666 25.9062 17.6914 25.9062C17.6162 25.9062 17.5547 25.8939 17.5547 25.8789C17.5547 25.8622 17.4271 25.8516 17.2266 25.8516C17.0261 25.8516 16.8984 25.8622 16.8984 25.8789C16.8984 25.8941 16.8255 25.9062 16.7344 25.9062C16.6432 25.9062 16.5703 25.9184 16.5703 25.9336C16.5703 25.9486 16.5334 25.9609 16.4883 25.9609C16.4432 25.9609 16.4062 25.9732 16.4062 25.9883C16.4062 26.0033 16.3693 26.0156 16.3242 26.0156C16.2791 26.0156 16.2422 26.0279 16.2422 26.043C16.2422 26.058 16.2053 26.0703 16.1602 26.0703C16.115 26.0703 16.0781 26.0826 16.0781 26.0977C16.0781 26.1127 16.0535 26.125 16.0234 26.125C15.9934 26.125 15.9688 26.1373 15.9688 26.1523C15.9688 26.1674 15.9441 26.1797 15.9141 26.1797C15.884 26.1797 15.8594 26.192 15.8594 26.207C15.8594 26.2221 15.8375 26.2344 15.8107 26.2344C15.784 26.2344 15.7443 26.259 15.7227 26.2891C15.701 26.3191 15.6663 26.3438 15.6455 26.3438C15.6248 26.3438 15.5734 26.3807 15.5312 26.4258C15.4891 26.4709 15.4409 26.5078 15.4242 26.5078C15.3846 26.5078 14.875 27.0174 14.875 27.057C14.875 27.0737 14.8381 27.1219 14.793 27.1641C14.7479 27.2062 14.7109 27.2577 14.7109 27.2784C14.7109 27.2991 14.6863 27.3338 14.6562 27.3555C14.6262 27.3772 14.6016 27.4141 14.6016 27.4375C14.6016 27.4609 14.577 27.4978 14.5469 27.5195C14.5168 27.5412 14.4922 27.5808 14.4922 27.6076C14.4922 27.6343 14.4799 27.6562 14.4648 27.6562C14.4498 27.6562 14.4375 27.6809 14.4375 27.7109C14.4375 27.741 14.4252 27.7656 14.4102 27.7656C14.3951 27.7656 14.3828 27.7902 14.3828 27.8203C14.3828 27.8504 14.3705 27.875 14.3555 27.875C14.3404 27.875 14.3281 27.8996 14.3281 27.9297C14.3281 27.9598 14.3158 27.9844 14.3008 27.9844C14.2857 27.9844 14.2734 28.009 14.2734 28.0391C14.2734 28.0691 14.2611 28.0938 14.2461 28.0938C14.2311 28.0938 14.2188 28.1184 14.2188 28.1484C14.2188 28.1785 14.2064 28.2031 14.1914 28.2031C14.1764 28.2031 14.1641 28.2277 14.1641 28.2578C14.1641 28.2879 14.1518 28.3125 14.1367 28.3125C14.1217 28.3125 14.1094 28.3494 14.1094 28.3945C14.1094 28.4396 14.0971 28.4766 14.082 28.4766C14.067 28.4766 14.0547 28.5012 14.0547 28.5312C14.0547 28.5613 14.0424 28.5859 14.0273 28.5859C14.0123 28.5859 14 28.6229 14 28.668C14 28.7131 13.9877 28.75 13.9727 28.75C13.9576 28.75 13.9453 28.7869 13.9453 28.832C13.9453 28.8771 13.933 28.9141 13.918 28.9141C13.9029 28.9141 13.8906 28.9387 13.8906 28.9688C13.8906 28.9988 13.8783 29.0234 13.8633 29.0234C13.8482 29.0234 13.8359 29.0604 13.8359 29.1055C13.8359 29.1506 13.8236 29.1875 13.8086 29.1875C13.7936 29.1875 13.7812 29.2244 13.7812 29.2695C13.7812 29.3146 13.7689 29.3516 13.7539 29.3516C13.7389 29.3516 13.7266 29.3762 13.7266 29.4062C13.7266 29.4363 13.7143 29.4609 13.6992 29.4609C13.6842 29.4609 13.6719 29.4979 13.6719 29.543C13.6719 29.5881 13.6596 29.625 13.6445 29.625C13.6295 29.625 13.6172 29.6496 13.6172 29.6797C13.6172 29.7098 13.6049 29.7344 13.5898 29.7344C13.5748 29.7344 13.5625 29.7713 13.5625 29.8164C13.5625 29.8615 13.5502 29.8984 13.5352 29.8984C13.5201 29.8984 13.5078 29.923 13.5078 29.9531C13.5078 29.9832 13.4955 30.0078 13.4805 30.0078C13.4654 30.0078 13.4531 30.0324 13.4531 30.0625C13.4531 30.0926 13.4408 30.1172 13.4258 30.1172C13.4107 30.1172 13.3984 30.1418 13.3984 30.1719C13.3984 30.202 13.3861 30.2266 13.3711 30.2266C13.3561 30.2266 13.3438 30.2512 13.3438 30.2812C13.3438 30.3113 13.3314 30.3359 13.3164 30.3359C13.3014 30.3359 13.2891 30.3729 13.2891 30.418C13.2891 30.4631 13.2768 30.5 13.2617 30.5C13.2467 30.5 13.2344 30.5219 13.2344 30.5486C13.2344 30.5754 13.2098 30.615 13.1797 30.6367C13.1496 30.6584 13.125 30.698 13.125 30.7248C13.125 30.7515 13.1127 30.7734 13.0977 30.7734C13.0826 30.7734 13.0703 30.7953 13.0703 30.8221C13.0703 30.8489 13.0457 30.8885 13.0156 30.9102C12.9855 30.9318 12.9609 30.9688 12.9609 30.9922C12.9609 31.0156 12.9363 31.0525 12.9062 31.0742C12.8762 31.0959 12.8516 31.1296 12.8516 31.149C12.8516 31.1921 12.3998 31.6484 12.3571 31.6484C12.3403 31.6484 12.2921 31.6854 12.25 31.7305C12.2079 31.7756 12.1564 31.8125 12.1357 31.8125C12.115 31.8125 12.0803 31.8371 12.0586 31.8672C12.0369 31.8973 11.9973 31.9219 11.9705 31.9219C11.9438 31.9219 11.9219 31.9342 11.9219 31.9492C11.9219 31.9643 11.8973 31.9766 11.8672 31.9766C11.8371 31.9766 11.8125 31.9889 11.8125 32.0039C11.8125 32.0189 11.7879 32.0312 11.7578 32.0312C11.7277 32.0312 11.7031 32.0436 11.7031 32.0586C11.7031 32.0736 11.6785 32.0859 11.6484 32.0859C11.6184 32.0859 11.5938 32.0982 11.5938 32.1133C11.5938 32.1283 11.5568 32.1406 11.5117 32.1406C11.4666 32.1406 11.4297 32.1529 11.4297 32.168C11.4297 32.183 11.3928 32.1953 11.3477 32.1953C11.3025 32.1953 11.2656 32.2076 11.2656 32.2227C11.2656 32.2377 11.2287 32.25 11.1836 32.25C11.1385 32.25 11.1016 32.2623 11.1016 32.2773C11.1016 32.2924 11.077 32.3047 11.0469 32.3047C11.0168 32.3047 10.9922 32.2924 10.9922 32.2773C10.9922 32.2623 11.0168 32.25 11.0469 32.25C11.077 32.25 11.1016 32.2377 11.1016 32.2227C11.1016 32.2076 11.1235 32.1953 11.1502 32.1953C11.177 32.1953 11.2166 32.1707 11.2383 32.1406C11.26 32.1105 11.2969 32.0859 11.3203 32.0859C11.3437 32.0859 11.3807 32.0613 11.4023 32.0312C11.424 32.0012 11.4609 31.9766 11.4844 31.9766C11.5078 31.9766 11.5447 31.952 11.5664 31.9219C11.5881 31.8918 11.6217 31.8672 11.6411 31.8672C11.687 31.8672 12.4141 31.1402 12.4141 31.0942C12.4141 31.0748 12.4387 31.0412 12.4688 31.0195C12.4988 30.9978 12.5234 30.9609 12.5234 30.9375C12.5234 30.9141 12.548 30.8772 12.5781 30.8555C12.6082 30.8338 12.6328 30.7942 12.6328 30.7674C12.6328 30.7407 12.6451 30.7188 12.6602 30.7188C12.6752 30.7188 12.6875 30.6941 12.6875 30.6641C12.6875 30.634 12.6998 30.6094 12.7148 30.6094C12.7299 30.6094 12.7422 30.5848 12.7422 30.5547C12.7422 30.5246 12.7545 30.5 12.7695 30.5C12.7846 30.5 12.7969 30.4754 12.7969 30.4453C12.7969 30.4152 12.8092 30.3906 12.8242 30.3906C12.8393 30.3906 12.8516 30.3537 12.8516 30.3086C12.8516 30.2635 12.8639 30.2266 12.8789 30.2266C12.8939 30.2266 12.9062 30.1896 12.9062 30.1445C12.9062 30.0994 12.9186 30.0625 12.9336 30.0625C12.9486 30.0625 12.9609 30.0256 12.9609 29.9805C12.9609 29.9354 12.9732 29.8984 12.9883 29.8984C13.0039 29.8984 13.0156 29.8164 13.0156 29.707C13.0156 29.5977 13.0274 29.5156 13.043 29.5156C13.0594 29.5156 13.0703 29.4062 13.0703 29.2422C13.0703 29.0781 13.0594 28.9688 13.043 28.9688C13.0278 28.9688 13.0156 28.8958 13.0156 28.8047C13.0156 28.7136 13.0035 28.6406 12.9883 28.6406C12.9732 28.6406 12.9609 28.5914 12.9609 28.5312C12.9609 28.4711 12.9486 28.4219 12.9336 28.4219C12.9186 28.4219 12.9062 28.385 12.9062 28.3398C12.9062 28.2947 12.8939 28.2578 12.8789 28.2578C12.8639 28.2578 12.8516 28.2332 12.8516 28.2031C12.8516 28.173 12.8393 28.1484 12.8242 28.1484C12.8092 28.1484 12.7969 28.1142 12.7969 28.0724C12.7969 28.0278 12.7743 27.9802 12.7422 27.957C12.7121 27.9353 12.6875 27.8984 12.6875 27.875C12.6875 27.8516 12.6629 27.8147 12.6328 27.793C12.6027 27.7713 12.5781 27.7369 12.5781 27.7164C12.5781 27.696 12.5289 27.632 12.4688 27.5742C12.4086 27.5164 12.3594 27.455 12.3594 27.4377C12.3594 27.3971 12.2904 27.3281 12.2498 27.3281C12.2325 27.3281 12.1711 27.2789 12.1133 27.2188C12.0555 27.1586 11.9888 27.1094 11.965 27.1094C11.9413 27.1094 11.9219 27.0971 11.9219 27.082C11.9219 27.067 11.9 27.0547 11.8732 27.0547C11.8465 27.0547 11.8068 27.0301 11.7852 27C11.762 26.9679 11.7144 26.9453 11.6697 26.9453C11.628 26.9453 11.5938 26.933 11.5938 26.918C11.5938 26.9029 11.5691 26.8906 11.5391 26.8906C11.509 26.8906 11.4844 26.8783 11.4844 26.8633C11.4844 26.8482 11.4475 26.8359 11.4023 26.8359C11.3572 26.8359 11.3203 26.8236 11.3203 26.8086C11.3203 26.7936 11.2588 26.7812 11.1836 26.7812C11.1084 26.7812 11.0469 26.7689 11.0469 26.7539C11.0469 26.7371 10.9102 26.7266 10.6914 26.7266C10.4727 26.7266 10.3359 26.7371 10.3359 26.7539C10.3359 26.7689 10.2744 26.7812 10.1992 26.7812C10.124 26.7812 10.0625 26.7936 10.0625 26.8086C10.0625 26.8236 10.0256 26.8359 9.98047 26.8359C9.93535 26.8359 9.89844 26.8482 9.89844 26.8633C9.89844 26.8783 9.86152 26.8906 9.81641 26.8906C9.77129 26.8906 9.73438 26.9029 9.73438 26.918C9.73438 26.933 9.69746 26.9453 9.65234 26.9453C9.60723 26.9453 9.57031 26.9576 9.57031 26.9727C9.57031 26.9877 9.5457 27 9.51562 27C9.48555 27 9.46094 27.0123 9.46094 27.0273C9.46094 27.0424 9.43904 27.0547 9.41229 27.0547C9.38552 27.0547 9.3459 27.0793 9.32422 27.1094C9.30254 27.1395 9.26291 27.1641 9.23614 27.1641C9.20574 27.1641 9.1875 27.1436 9.1875 27.1094C9.1875 27.0793 9.1998 27.0547 9.21484 27.0547C9.22988 27.0547 9.24219 27.0301 9.24219 27C9.24219 26.9699 9.25449 26.9453 9.26953 26.9453C9.28457 26.9453 9.29688 26.9234 9.29688 26.8967C9.29688 26.8699 9.32148 26.8303 9.35156 26.8086C9.38164 26.7869 9.40625 26.7473 9.40625 26.7205C9.40625 26.6938 9.41855 26.6719 9.43359 26.6719C9.44863 26.6719 9.46094 26.65 9.46094 26.6232C9.46094 26.5965 9.48555 26.5568 9.51562 26.5352C9.5457 26.5135 9.57031 26.479 9.57031 26.4586C9.57031 26.4382 9.61953 26.3742 9.67969 26.3164C9.73984 26.2586 9.78906 26.1978 9.78906 26.1814C9.78906 26.1424 10.1892 25.7422 10.2283 25.7422C10.2447 25.7422 10.3055 25.693 10.3633 25.6328C10.4211 25.5727 10.4829 25.5234 10.5005 25.5234C10.5183 25.5234 10.5672 25.4865 10.6094 25.4414C10.6515 25.3963 10.703 25.3594 10.7237 25.3594C10.7444 25.3594 10.7791 25.3348 10.8008 25.3047C10.8225 25.2746 10.8594 25.25 10.8828 25.25C10.9062 25.25 10.9432 25.2254 10.9648 25.1953C10.9865 25.1652 11.0261 25.1406 11.0529 25.1406C11.0797 25.1406 11.1016 25.1283 11.1016 25.1133C11.1016 25.0982 11.1235 25.0859 11.1502 25.0859C11.177 25.0859 11.2166 25.0613 11.2383 25.0312C11.26 25.0012 11.2996 24.9766 11.3264 24.9766C11.3531 24.9766 11.375 24.9643 11.375 24.9492C11.375 24.9342 11.3996 24.9219 11.4297 24.9219C11.4598 24.9219 11.4844 24.9096 11.4844 24.8945C11.4844 24.8795 11.5063 24.8672 11.533 24.8672C11.5598 24.8672 11.5994 24.8426 11.6211 24.8125C11.6428 24.7824 11.6824 24.7578 11.7092 24.7578C11.7359 24.7578 11.7578 24.7455 11.7578 24.7305C11.7578 24.7154 11.7797 24.7031 11.8065 24.7031C11.8332 24.7031 11.8728 24.6785 11.8945 24.6484C11.9162 24.6184 11.9558 24.5938 11.9826 24.5938C12.0093 24.5938 12.0312 24.5814 12.0312 24.5664C12.0312 24.5514 12.0532 24.5391 12.0799 24.5391C12.1067 24.5391 12.1463 24.5145 12.168 24.4844C12.1897 24.4543 12.2244 24.4297 12.2451 24.4297C12.2658 24.4297 12.3172 24.3928 12.3594 24.3477C12.4015 24.3025 12.4507 24.2656 12.4688 24.2656C12.4868 24.2656 12.536 24.2287 12.5781 24.1836C12.6203 24.1385 12.6684 24.1016 12.6852 24.1016C12.7249 24.1016 13.1797 23.6468 13.1797 23.607C13.1797 23.5903 13.2166 23.5421 13.2617 23.5C13.3068 23.4579 13.3438 23.4037 13.3438 23.3797C13.3438 23.3556 13.3561 23.3359 13.3711 23.3359C13.3861 23.3359 13.3984 23.3113 13.3984 23.2812C13.3984 23.2512 13.4107 23.2266 13.4258 23.2266C13.4408 23.2266 13.4531 23.1896 13.4531 23.1445C13.4531 23.0994 13.4654 23.0625 13.4805 23.0625C13.4955 23.0625 13.5078 23.0256 13.5078 22.9805C13.5078 22.9354 13.5201 22.8984 13.5352 22.8984C13.5511 22.8984 13.5625 22.8073 13.5625 22.6797C13.5625 22.5521 13.5739 22.4609 13.5898 22.4609C13.6058 22.4609 13.6172 22.3698 13.6172 22.2422C13.6172 22.1146 13.6058 22.0234 13.5898 22.0234C13.5746 22.0234 13.5625 21.9505 13.5625 21.8594C13.5625 21.7682 13.5504 21.6953 13.5352 21.6953C13.5201 21.6953 13.5078 21.6461 13.5078 21.5859C13.5078 21.5258 13.4955 21.4766 13.4805 21.4766C13.4654 21.4766 13.4531 21.4396 13.4531 21.3945C13.4531 21.3494 13.4408 21.3125 13.4258 21.3125C13.4107 21.3125 13.3984 21.2756 13.3984 21.2305C13.3984 21.1854 13.3861 21.1484 13.3711 21.1484C13.3561 21.1484 13.3438 21.1238 13.3438 21.0938C13.3438 21.0637 13.3314 21.0391 13.3164 21.0391C13.3014 21.0391 13.2891 21.0145 13.2891 20.9844C13.2891 20.9543 13.2768 20.9297 13.2617 20.9297C13.2467 20.9297 13.2344 20.9051 13.2344 20.875C13.2344 20.8449 13.2221 20.8203 13.207 20.8203C13.192 20.8203 13.1797 20.8007 13.1797 20.7766C13.1797 20.7526 13.1428 20.6984 13.0977 20.6562C13.0525 20.6141 13.0156 20.566 13.0156 20.5493C13.0156 20.5066 12.4497 19.9453 12.4067 19.9453C12.3873 19.9453 12.3537 19.9207 12.332 19.8906C12.3103 19.8605 12.2707 19.8359 12.244 19.8359C12.2172 19.8359 12.1953 19.8236 12.1953 19.8086C12.1953 19.7936 12.1734 19.7812 12.1467 19.7812C12.1199 19.7812 12.0803 19.7566 12.0586 19.7266C12.0354 19.6945 11.9878 19.6719 11.9432 19.6719C11.9014 19.6719 11.8672 19.6596 11.8672 19.6445C11.8672 19.6295 11.8426 19.6172 11.8125 19.6172C11.7824 19.6172 11.7578 19.6049 11.7578 19.5898C11.7578 19.5748 11.7209 19.5625 11.6758 19.5625C11.6307 19.5625 11.5938 19.5502 11.5938 19.5352C11.5938 19.5201 11.5568 19.5078 11.5117 19.5078C11.4666 19.5078 11.4297 19.4955 11.4297 19.4805C11.4297 19.4654 11.3682 19.4531 11.293 19.4531C11.2178 19.4531 11.1562 19.4408 11.1562 19.4258C11.1562 19.4107 11.1193 19.3984 11.0742 19.3984C10.9761 19.3984 10.9611 19.3235 11.0469 19.2617C11.077 19.24 11.1016 19.2053 11.1016 19.1846C11.1016 19.1639 11.1385 19.1124 11.1836 19.0703C11.2287 19.0282 11.2656 18.9794 11.2656 18.9619C11.2656 18.9444 11.3271 18.8701 11.4023 18.7969C11.4775 18.7236 11.5391 18.6505 11.5391 18.6344C11.5391 18.5961 12.3773 17.7578 12.4156 17.7578C12.4318 17.7578 12.5049 17.6963 12.5781 17.6211C12.6514 17.5459 12.7256 17.4844 12.7431 17.4844C12.7606 17.4844 12.8094 17.4475 12.8516 17.4023C12.8937 17.3572 12.9452 17.3203 12.9659 17.3203C12.9866 17.3203 13.0213 17.2957 13.043 17.2656C13.0647 17.2355 13.1016 17.2109 13.125 17.2109C13.1484 17.2109 13.1853 17.1863 13.207 17.1562C13.2287 17.1262 13.2656 17.1016 13.2891 17.1016C13.3125 17.1016 13.3494 17.077 13.3711 17.0469C13.3928 17.0168 13.4324 16.9922 13.4592 16.9922C13.4859 16.9922 13.5078 16.9799 13.5078 16.9648C13.5078 16.9498 13.5297 16.9375 13.5565 16.9375C13.5832 16.9375 13.6228 16.9129 13.6445 16.8828C13.6662 16.8527 13.7058 16.8281 13.7326 16.8281C13.7593 16.8281 13.7812 16.8158 13.7812 16.8008C13.7812 16.7857 13.8059 16.7734 13.8359 16.7734C13.866 16.7734 13.8906 16.7611 13.8906 16.7461C13.8906 16.7311 13.9152 16.7188 13.9453 16.7188C13.9754 16.7188 14 16.7064 14 16.6914C14 16.6764 14.0219 16.6641 14.0486 16.6641C14.0754 16.6641 14.115 16.6395 14.1367 16.6094C14.1599 16.5773 14.2075 16.5547 14.2521 16.5547C14.2939 16.5547 14.3281 16.5424 14.3281 16.5273C14.3281 16.5123 14.3527 16.5 14.3828 16.5C14.4129 16.5 14.4375 16.4877 14.4375 16.4727C14.4375 16.4576 14.4621 16.4453 14.4922 16.4453C14.5223 16.4453 14.5469 16.433 14.5469 16.418C14.5469 16.4029 14.5715 16.3906 14.6016 16.3906C14.6316 16.3906 14.6562 16.3783 14.6562 16.3633C14.6562 16.3482 14.6932 16.3359 14.7383 16.3359C14.7834 16.3359 14.8203 16.3236 14.8203 16.3086C14.8203 16.2936 14.8572 16.2812 14.9023 16.2812C14.9475 16.2812 14.9844 16.2689 14.9844 16.2539C14.9844 16.2389 15.009 16.2266 15.0391 16.2266C15.0691 16.2266 15.0938 16.2143 15.0938 16.1992C15.0938 16.1842 15.143 16.1719 15.2031 16.1719C15.2633 16.1719 15.3125 16.1596 15.3125 16.1445C15.3125 16.1295 15.3371 16.1172 15.3672 16.1172C15.3973 16.1172 15.4219 16.1049 15.4219 16.0898C15.4219 16.0748 15.4834 16.0625 15.5586 16.0625C15.6338 16.0625 15.6953 16.0502 15.6953 16.0352C15.6953 16.0201 15.7322 16.0078 15.7773 16.0078C15.8225 16.0078 15.8594 15.9955 15.8594 15.9805C15.8594 15.9653 15.9323 15.9531 16.0234 15.9531C16.1146 15.9531 16.1875 15.941 16.1875 15.9258C16.1875 15.9102 16.2695 15.8984 16.3789 15.8984C16.4883 15.8984 16.5703 15.8867 16.5703 15.8711C16.5703 15.8561 16.6072 15.8438 16.6523 15.8438C16.6975 15.8438 16.7344 15.8501 16.7344 15.8578ZM17.5547 17.6211C17.5547 17.6361 17.5793 17.6484 17.6094 17.6484C17.6395 17.6484 17.6641 17.6607 17.6641 17.6758C17.6641 17.6908 17.6887 17.7031 17.7188 17.7031C17.7488 17.7031 17.7734 17.7154 17.7734 17.7305C17.7734 17.7455 17.8104 17.7578 17.8555 17.7578C17.9006 17.7578 17.9375 17.7701 17.9375 17.7852C17.9375 17.8002 17.9621 17.8125 17.9922 17.8125C18.0223 17.8125 18.0469 17.8248 18.0469 17.8398C18.0469 17.8549 18.0715 17.8672 18.1016 17.8672C18.1316 17.8672 18.1562 17.8795 18.1562 17.8945C18.1562 17.9096 18.1932 17.9219 18.2383 17.9219C18.2834 17.9219 18.3203 17.9342 18.3203 17.9492C18.3203 17.9643 18.3449 17.9766 18.375 17.9766C18.4051 17.9766 18.4297 17.9889 18.4297 18.0039C18.4297 18.0189 18.4543 18.0312 18.4844 18.0312C18.5145 18.0312 18.5391 18.0436 18.5391 18.0586C18.5391 18.0736 18.576 18.0859 18.6211 18.0859C18.6662 18.0859 18.7031 18.0982 18.7031 18.1133C18.7031 18.1283 18.7277 18.1406 18.7578 18.1406C18.7879 18.1406 18.8125 18.1529 18.8125 18.168C18.8125 18.183 18.8371 18.1953 18.8672 18.1953C18.8973 18.1953 18.9219 18.2076 18.9219 18.2227C18.9219 18.2377 18.9588 18.25 19.0039 18.25C19.049 18.25 19.0859 18.2623 19.0859 18.2773C19.0859 18.2924 19.1105 18.3047 19.1406 18.3047C19.1707 18.3047 19.1953 18.317 19.1953 18.332C19.1953 18.3471 19.2199 18.3594 19.25 18.3594C19.2801 18.3594 19.3047 18.3717 19.3047 18.3867C19.3047 18.4018 19.3416 18.4141 19.3867 18.4141C19.4318 18.4141 19.4688 18.4264 19.4688 18.4414C19.4688 18.4564 19.4934 18.4688 19.5234 18.4688C19.5535 18.4688 19.5781 18.4811 19.5781 18.4961C19.5781 18.5111 19.6027 18.5234 19.6328 18.5234C19.6629 18.5234 19.6875 18.5357 19.6875 18.5508C19.6875 18.5658 19.7244 18.5781 19.7695 18.5781C19.8146 18.5781 19.8516 18.5904 19.8516 18.6055C19.8516 18.6205 19.8762 18.6328 19.9062 18.6328C19.9363 18.6328 19.9609 18.6451 19.9609 18.6602C19.9609 18.6752 19.9855 18.6875 20.0156 18.6875C20.0457 18.6875 20.0703 18.6998 20.0703 18.7148C20.0703 18.7299 20.1072 18.7422 20.1523 18.7422C20.1975 18.7422 20.2344 18.7545 20.2344 18.7695C20.2344 18.7846 20.259 18.7969 20.2891 18.7969C20.3191 18.7969 20.3438 18.8092 20.3438 18.8242C20.3438 18.8393 20.3684 18.8516 20.3984 18.8516C20.4285 18.8516 20.4531 18.8639 20.4531 18.8789C20.4531 18.8939 20.4848 18.9062 20.5234 18.9062C20.6131 18.9062 20.6719 18.965 20.6719 19.0547C20.6719 19.0934 20.6842 19.125 20.6992 19.125C20.7143 19.125 20.7266 19.1496 20.7266 19.1797C20.7266 19.2098 20.7389 19.2344 20.7539 19.2344C20.7689 19.2344 20.7812 19.259 20.7812 19.2891C20.7812 19.3191 20.7936 19.3438 20.8086 19.3438C20.8236 19.3438 20.8359 19.3807 20.8359 19.4258C20.8359 19.4709 20.8482 19.5078 20.8633 19.5078C20.8783 19.5078 20.8906 19.5324 20.8906 19.5625C20.8906 19.5926 20.9029 19.6172 20.918 19.6172C20.933 19.6172 20.9453 19.6418 20.9453 19.6719C20.9453 19.702 20.9576 19.7266 20.9727 19.7266C20.9877 19.7266 21 19.7635 21 19.8086C21 19.8537 21.0123 19.8906 21.0273 19.8906C21.0424 19.8906 21.0547 19.9152 21.0547 19.9453C21.0547 19.9754 21.067 20 21.082 20C21.0971 20 21.1094 20.0246 21.1094 20.0547C21.1094 20.0848 21.1217 20.1094 21.1367 20.1094C21.1518 20.1094 21.1641 20.1463 21.1641 20.1914C21.1641 20.2365 21.1764 20.2734 21.1914 20.2734C21.2064 20.2734 21.2188 20.298 21.2188 20.3281C21.2188 20.3582 21.2311 20.3828 21.2461 20.3828C21.2611 20.3828 21.2734 20.4074 21.2734 20.4375C21.2734 20.4676 21.2857 20.4922 21.3008 20.4922C21.3158 20.4922 21.3281 20.5291 21.3281 20.5742C21.3281 20.6193 21.3404 20.6562 21.3555 20.6562C21.3705 20.6562 21.3828 20.6809 21.3828 20.7109C21.3828 20.741 21.3951 20.7656 21.4102 20.7656C21.4252 20.7656 21.4375 20.7902 21.4375 20.8203C21.4375 20.8504 21.4498 20.875 21.4648 20.875C21.4799 20.875 21.4922 20.9119 21.4922 20.957C21.4922 21.0021 21.5045 21.0391 21.5195 21.0391C21.5346 21.0391 21.5469 21.0637 21.5469 21.0938C21.5469 21.1238 21.5592 21.1484 21.5742 21.1484C21.5893 21.1484 21.6016 21.173 21.6016 21.2031C21.6016 21.2332 21.6139 21.2578 21.6289 21.2578C21.6439 21.2578 21.6562 21.2947 21.6562 21.3398C21.6562 21.385 21.6686 21.4219 21.6836 21.4219C21.6986 21.4219 21.7109 21.4465 21.7109 21.4766C21.7109 21.5066 21.7232 21.5312 21.7383 21.5312C21.7533 21.5312 21.7656 21.5559 21.7656 21.5859C21.7656 21.616 21.7779 21.6406 21.793 21.6406C21.808 21.6406 21.8203 21.6775 21.8203 21.7227C21.8203 21.7678 21.8326 21.8047 21.8477 21.8047C21.8627 21.8047 21.875 21.8293 21.875 21.8594C21.875 21.8895 21.8873 21.9141 21.9023 21.9141C21.9174 21.9141 21.9297 21.9387 21.9297 21.9688C21.9297 21.9988 21.942 22.0234 21.957 22.0234C21.9721 22.0234 21.9844 22.0666 21.9844 22.1193C21.9844 22.2069 21.945 22.2546 21.5334 22.6662C21.2854 22.9142 21.0639 23.1172 21.0412 23.1172C21.0185 23.1172 21 23.1295 21 23.1445C21 23.1596 20.9385 23.1719 20.8633 23.1719C20.7881 23.1719 20.7266 23.1842 20.7266 23.1992C20.7266 23.2143 20.702 23.2266 20.6719 23.2266C20.6418 23.2266 20.6172 23.2143 20.6172 23.1992C20.6172 23.1842 20.568 23.1719 20.5078 23.1719C20.4477 23.1719 20.3984 23.1596 20.3984 23.1445C20.3984 23.1295 20.3738 23.1172 20.3438 23.1172C20.3137 23.1172 20.2891 23.1049 20.2891 23.0898C20.2891 23.0748 20.2706 23.0625 20.248 23.0625C20.1943 23.0625 16.5156 19.3838 16.5156 19.3301C16.5156 19.3075 16.5033 19.2891 16.4883 19.2891C16.4732 19.2891 16.4609 19.2645 16.4609 19.2344C16.4609 19.2043 16.4486 19.1797 16.4336 19.1797C16.4186 19.1797 16.4062 19.1305 16.4062 19.0703C16.4062 19.0102 16.3939 18.9609 16.3789 18.9609C16.3639 18.9609 16.3516 18.9363 16.3516 18.9062C16.3516 18.8762 16.3639 18.8516 16.3789 18.8516C16.3939 18.8516 16.4062 18.79 16.4062 18.7148C16.4062 18.6396 16.4186 18.5781 16.4336 18.5781C16.4486 18.5781 16.4609 18.5596 16.4609 18.5369C16.4609 18.5143 16.6609 18.2937 16.9053 18.0469C17.3182 17.6298 17.3569 17.598 17.4521 17.596C17.5086 17.5947 17.5547 17.6061 17.5547 17.6211Z" fill="#DD2A1B"/>
</svg>
