<svg width="40" height="40" viewBox="0 0 40 40" fill="none" xmlns="http://www.w3.org/2000/svg">
<path fill-rule="evenodd" clip-rule="evenodd" d="M19.1172 6.02734C19.1172 6.04329 19.0261 6.05469 18.8984 6.05469C18.7708 6.05469 18.6797 6.06609 18.6797 6.08203C18.6797 6.09707 18.6182 6.10938 18.543 6.10938C18.4678 6.10938 18.4062 6.12168 18.4062 6.13672C18.4062 6.15176 18.357 6.16406 18.2969 6.16406C18.2367 6.16406 18.1875 6.17637 18.1875 6.19141C18.1875 6.20645 18.1506 6.21875 18.1055 6.21875C18.0604 6.21875 18.0234 6.23105 18.0234 6.24609C18.0234 6.26113 17.9742 6.27344 17.9141 6.27344C17.8539 6.27344 17.8047 6.28574 17.8047 6.30078C17.8047 6.31582 17.7801 6.32812 17.75 6.32812C17.7199 6.32812 17.6953 6.34043 17.6953 6.35547C17.6953 6.37051 17.6584 6.38281 17.6133 6.38281C17.5682 6.38281 17.5312 6.39512 17.5312 6.41016C17.5312 6.4252 17.5066 6.4375 17.4766 6.4375C17.4465 6.4375 17.4219 6.4498 17.4219 6.46484C17.4219 6.47988 17.385 6.49219 17.3398 6.49219C17.2947 6.49219 17.2578 6.50449 17.2578 6.51953C17.2578 6.53457 17.2332 6.54688 17.2031 6.54688C17.173 6.54688 17.1484 6.55918 17.1484 6.57422C17.1484 6.58926 17.1238 6.60156 17.0938 6.60156C17.0637 6.60156 17.0391 6.61387 17.0391 6.62891C17.0391 6.64395 17.0145 6.65625 16.9844 6.65625C16.9543 6.65625 16.9297 6.66855 16.9297 6.68359C16.9297 6.69863 16.9078 6.71094 16.881 6.71094C16.8543 6.71094 16.8147 6.73555 16.793 6.76562C16.7713 6.7957 16.7344 6.82031 16.7109 6.82031C16.6875 6.82031 16.6506 6.84492 16.6289 6.875C16.6072 6.90508 16.5676 6.92969 16.5408 6.92969C16.5141 6.92969 16.4922 6.94199 16.4922 6.95703C16.4922 6.97207 16.4725 6.98438 16.4485 6.98438C16.4244 6.98438 16.3703 7.02129 16.3281 7.06641C16.286 7.11152 16.237 7.14844 16.2193 7.14844C16.2016 7.14844 16.1398 7.19766 16.082 7.25781C16.0242 7.31797 15.9635 7.36719 15.9471 7.36719C15.9085 7.36719 15.3438 7.93156 15.3438 7.9702C15.3438 7.98639 15.2822 8.05956 15.207 8.13281C15.1318 8.20607 15.0703 8.28252 15.0703 8.30273C15.0703 8.32296 15.0457 8.35722 15.0156 8.37891C14.9855 8.40059 14.9609 8.4375 14.9609 8.46094C14.9609 8.48437 14.9363 8.52129 14.9062 8.54297C14.8762 8.56465 14.8516 8.60157 14.8516 8.625C14.8516 8.64843 14.827 8.68535 14.7969 8.70703C14.7668 8.72871 14.7422 8.76834 14.7422 8.79511C14.7422 8.82185 14.7299 8.84375 14.7148 8.84375C14.6998 8.84375 14.6875 8.86565 14.6875 8.89239C14.6875 8.91916 14.6629 8.95879 14.6328 8.98047C14.6027 9.00215 14.5781 9.04177 14.5781 9.06854C14.5781 9.09529 14.5658 9.11719 14.5508 9.11719C14.5357 9.11719 14.5234 9.1418 14.5234 9.17188C14.5234 9.20195 14.5111 9.22656 14.4961 9.22656C14.4811 9.22656 14.4688 9.25117 14.4688 9.28125C14.4688 9.31133 14.4564 9.33594 14.4414 9.33594C14.4264 9.33594 14.4141 9.37285 14.4141 9.41797C14.4141 9.46309 14.4018 9.5 14.3867 9.5C14.3717 9.5 14.3594 9.52461 14.3594 9.55469C14.3594 9.58477 14.3471 9.60938 14.332 9.60938C14.317 9.60938 14.3047 9.64629 14.3047 9.69141C14.3047 9.73652 14.2924 9.77344 14.2773 9.77344C14.2623 9.77344 14.25 9.79805 14.25 9.82812C14.25 9.8582 14.2377 9.88281 14.2227 9.88281C14.2076 9.88281 14.1953 9.93203 14.1953 9.99219C14.1953 10.0523 14.183 10.1016 14.168 10.1016C14.1529 10.1016 14.1406 10.1385 14.1406 10.1836C14.1406 10.2287 14.1283 10.2656 14.1133 10.2656C14.0982 10.2656 14.0859 10.3148 14.0859 10.375C14.0859 10.4352 14.0736 10.4844 14.0586 10.4844C14.0436 10.4844 14.0312 10.5459 14.0312 10.6211C14.0312 10.6963 14.0189 10.7578 14.0039 10.7578C13.988 10.7578 13.9766 10.8489 13.9766 10.9766C13.9766 11.1042 13.9652 11.1953 13.9492 11.1953C13.9311 11.1953 13.9219 12.2253 13.9219 14.2305C13.9219 16.2357 13.9311 17.2656 13.9492 17.2656C13.9652 17.2656 13.9766 17.3568 13.9766 17.4844C13.9766 17.612 13.988 17.7031 14.0039 17.7031C14.0189 17.7031 14.0312 17.7646 14.0312 17.8398C14.0312 17.915 14.0436 17.9766 14.0586 17.9766C14.0736 17.9766 14.0859 18.0258 14.0859 18.0859C14.0859 18.1461 14.0982 18.1953 14.1133 18.1953C14.1283 18.1953 14.1406 18.2322 14.1406 18.2773C14.1406 18.3225 14.1529 18.3594 14.168 18.3594C14.183 18.3594 14.1953 18.3963 14.1953 18.4414C14.1953 18.4865 14.2076 18.5234 14.2227 18.5234C14.2377 18.5234 14.25 18.5604 14.25 18.6055C14.25 18.6506 14.2623 18.6875 14.2773 18.6875C14.2924 18.6875 14.3047 18.7244 14.3047 18.7695C14.3047 18.8146 14.317 18.8516 14.332 18.8516C14.3471 18.8516 14.3594 18.8762 14.3594 18.9062C14.3594 18.9363 14.3717 18.9609 14.3867 18.9609C14.4018 18.9609 14.4141 18.9979 14.4141 19.043C14.4141 19.0881 14.4264 19.125 14.4414 19.125C14.4564 19.125 14.4688 19.1496 14.4688 19.1797C14.4688 19.2098 14.4811 19.2344 14.4961 19.2344C14.5111 19.2344 14.5234 19.259 14.5234 19.2891C14.5234 19.3191 14.5357 19.3438 14.5508 19.3438C14.5658 19.3438 14.5781 19.3657 14.5781 19.3924C14.5781 19.4192 14.6027 19.4588 14.6328 19.4805C14.6629 19.5022 14.6875 19.5418 14.6875 19.5685C14.6875 19.5953 14.6998 19.6172 14.7148 19.6172C14.7299 19.6172 14.7422 19.6391 14.7422 19.6658C14.7422 19.6926 14.7668 19.7322 14.7969 19.7539C14.827 19.7756 14.8516 19.8125 14.8516 19.8359C14.8516 19.8594 14.8762 19.8963 14.9062 19.918C14.9363 19.9397 14.9609 19.9766 14.9609 20C14.9609 20.0234 14.9855 20.0603 15.0156 20.082C15.0457 20.1037 15.0703 20.138 15.0703 20.1582C15.0703 20.1784 15.1318 20.2549 15.207 20.3281C15.2822 20.4014 15.3438 20.4746 15.3438 20.4907C15.3438 20.5294 15.9085 21.0938 15.9471 21.0938C15.9635 21.0938 16.0242 21.143 16.082 21.2031C16.1398 21.2633 16.2038 21.3125 16.2242 21.3125C16.2447 21.3125 16.2791 21.3371 16.3008 21.3672C16.3225 21.3973 16.3594 21.4219 16.3828 21.4219C16.4062 21.4219 16.4432 21.4465 16.4648 21.4766C16.4865 21.5066 16.5234 21.5312 16.5469 21.5312C16.5703 21.5312 16.6072 21.5559 16.6289 21.5859C16.6506 21.616 16.6902 21.6406 16.717 21.6406C16.7437 21.6406 16.7656 21.6529 16.7656 21.668C16.7656 21.683 16.7875 21.6953 16.8143 21.6953C16.841 21.6953 16.8807 21.7199 16.9023 21.75C16.924 21.7801 16.9636 21.8047 16.9904 21.8047C17.0172 21.8047 17.0391 21.817 17.0391 21.832C17.0391 21.8471 17.0637 21.8594 17.0938 21.8594C17.1238 21.8594 17.1484 21.8717 17.1484 21.8867C17.1484 21.9018 17.173 21.9141 17.2031 21.9141C17.2332 21.9141 17.2578 21.9264 17.2578 21.9414C17.2578 21.9564 17.2947 21.9688 17.3398 21.9688C17.385 21.9688 17.4219 21.9811 17.4219 21.9961C17.4219 22.0111 17.4465 22.0234 17.4766 22.0234C17.5066 22.0234 17.5312 22.0357 17.5312 22.0508C17.5312 22.0658 17.5682 22.0781 17.6133 22.0781C17.6584 22.0781 17.6953 22.0904 17.6953 22.1055C17.6953 22.1205 17.7199 22.1328 17.75 22.1328C17.7801 22.1328 17.8047 22.1451 17.8047 22.1602C17.8047 22.1752 17.8539 22.1875 17.9141 22.1875C17.9742 22.1875 18.0234 22.1998 18.0234 22.2148C18.0234 22.2299 18.0604 22.2422 18.1055 22.2422C18.1506 22.2422 18.1875 22.2545 18.1875 22.2695C18.1875 22.2846 18.2367 22.2969 18.2969 22.2969C18.357 22.2969 18.4062 22.3092 18.4062 22.3242C18.4062 22.3393 18.4678 22.3516 18.543 22.3516C18.6182 22.3516 18.6797 22.3639 18.6797 22.3789C18.6797 22.3948 18.7708 22.4062 18.8984 22.4062C19.0261 22.4062 19.1172 22.4177 19.1172 22.4336C19.1172 22.4517 18.0143 22.4609 15.8633 22.4609C13.7122 22.4609 12.6094 22.4702 12.6094 22.4883C12.6094 22.5035 12.5364 22.5156 12.4453 22.5156C12.3542 22.5156 12.2812 22.5278 12.2812 22.543C12.2812 22.558 12.232 22.5703 12.1719 22.5703C12.1117 22.5703 12.0625 22.5826 12.0625 22.5977C12.0625 22.6127 12.0133 22.625 11.9531 22.625C11.893 22.625 11.8438 22.6373 11.8438 22.6523C11.8438 22.6674 11.8068 22.6797 11.7617 22.6797C11.7166 22.6797 11.6797 22.692 11.6797 22.707C11.6797 22.7221 11.6551 22.7344 11.625 22.7344C11.5949 22.7344 11.5703 22.7467 11.5703 22.7617C11.5703 22.7768 11.5334 22.7891 11.4883 22.7891C11.4432 22.7891 11.4062 22.8014 11.4062 22.8164C11.4062 22.8314 11.3816 22.8438 11.3516 22.8438C11.3215 22.8438 11.2969 22.8561 11.2969 22.8711C11.2969 22.8861 11.275 22.8984 11.2482 22.8984C11.2215 22.8984 11.1818 22.923 11.1602 22.9531C11.1385 22.9832 11.0989 23.0078 11.0721 23.0078C11.0453 23.0078 11.0234 23.0201 11.0234 23.0352C11.0234 23.0502 11.0015 23.0625 10.9748 23.0625C10.948 23.0625 10.9084 23.0871 10.8867 23.1172C10.865 23.1473 10.8281 23.1719 10.8047 23.1719C10.7813 23.1719 10.7443 23.1965 10.7227 23.2266C10.701 23.2566 10.6668 23.2812 10.6467 23.2812C10.6267 23.2812 10.5378 23.3551 10.4492 23.4453C10.3607 23.5355 10.2691 23.6094 10.2456 23.6094C10.2223 23.6094 10.2031 23.6284 10.2031 23.6517C10.2031 23.675 10.117 23.779 10.0117 23.8828C9.90645 23.9866 9.82031 24.0879 9.82031 24.1079C9.82031 24.1278 9.7957 24.1619 9.76562 24.1836C9.73555 24.2053 9.71094 24.2422 9.71094 24.2656C9.71094 24.2891 9.68633 24.326 9.65625 24.3477C9.62617 24.3693 9.60156 24.4063 9.60156 24.4297C9.60156 24.4531 9.57695 24.49 9.54688 24.5117C9.5168 24.5334 9.49219 24.573 9.49219 24.5998C9.49219 24.6265 9.47988 24.6484 9.46484 24.6484C9.4498 24.6484 9.4375 24.673 9.4375 24.7031C9.4375 24.7332 9.4252 24.7578 9.41016 24.7578C9.39512 24.7578 9.38281 24.7824 9.38281 24.8125C9.38281 24.8426 9.37051 24.8672 9.35547 24.8672C9.34043 24.8672 9.32812 24.9041 9.32812 24.9492C9.32812 24.9943 9.31582 25.0312 9.30078 25.0312C9.28574 25.0312 9.27344 25.0559 9.27344 25.0859C9.27344 25.116 9.26113 25.1406 9.24609 25.1406C9.23105 25.1406 9.21875 25.1775 9.21875 25.2227C9.21875 25.2678 9.20645 25.3047 9.19141 25.3047C9.17637 25.3047 9.16406 25.3539 9.16406 25.4141C9.16406 25.4742 9.15176 25.5234 9.13672 25.5234C9.12168 25.5234 9.10938 25.5727 9.10938 25.6328C9.10938 25.693 9.09707 25.7422 9.08203 25.7422C9.06683 25.7422 9.05469 25.8151 9.05469 25.9062C9.05469 25.9974 9.04255 26.0703 9.02734 26.0703C9.00924 26.0703 9 27.3099 9 29.7344C9 32.1589 9.00924 33.3984 9.02734 33.3984C9.04238 33.3984 9.05469 33.423 9.05469 33.4531C9.05469 33.4832 9.06699 33.5078 9.08203 33.5078C9.09707 33.5078 9.10938 33.5324 9.10938 33.5625C9.10938 33.5926 9.12168 33.6172 9.13672 33.6172C9.15176 33.6172 9.16406 33.6362 9.16406 33.6594C9.16406 33.7141 9.28585 33.8359 9.34057 33.8359C9.36381 33.8359 9.38281 33.8482 9.38281 33.8633C9.38281 33.8783 9.40742 33.8906 9.4375 33.8906C9.46758 33.8906 9.49219 33.9029 9.49219 33.918C9.49219 33.933 9.5168 33.9453 9.54688 33.9453C9.57695 33.9453 9.60156 33.9576 9.60156 33.9727C9.60156 33.9908 12.9739 34 19.6641 34C26.3542 34 29.7266 33.9908 29.7266 33.9727C29.7266 33.9576 29.7512 33.9453 29.7812 33.9453C29.8113 33.9453 29.8359 33.933 29.8359 33.918C29.8359 33.9029 29.8605 33.8906 29.8906 33.8906C29.9207 33.8906 29.9453 33.8783 29.9453 33.8633C29.9453 33.8482 29.9643 33.8359 29.9876 33.8359C30.0423 33.8359 30.1641 33.7141 30.1641 33.6594C30.1641 33.6362 30.1764 33.6172 30.1914 33.6172C30.2064 33.6172 30.2188 33.5926 30.2188 33.5625C30.2188 33.5324 30.2311 33.5078 30.2461 33.5078C30.2611 33.5078 30.2734 33.4832 30.2734 33.4531C30.2734 33.423 30.2857 33.3984 30.3008 33.3984C30.3189 33.3984 30.3281 32.1589 30.3281 29.7344C30.3281 27.3099 30.3189 26.0703 30.3008 26.0703C30.2856 26.0703 30.2734 25.9974 30.2734 25.9062C30.2734 25.8151 30.2613 25.7422 30.2461 25.7422C30.2311 25.7422 30.2188 25.693 30.2188 25.6328C30.2188 25.5727 30.2064 25.5234 30.1914 25.5234C30.1764 25.5234 30.1641 25.4742 30.1641 25.4141C30.1641 25.3539 30.1518 25.3047 30.1367 25.3047C30.1217 25.3047 30.1094 25.2678 30.1094 25.2227C30.1094 25.1775 30.0971 25.1406 30.082 25.1406C30.067 25.1406 30.0547 25.116 30.0547 25.0859C30.0547 25.0559 30.0424 25.0312 30.0273 25.0312C30.0123 25.0312 30 24.9943 30 24.9492C30 24.9041 29.9877 24.8672 29.9727 24.8672C29.9576 24.8672 29.9453 24.8426 29.9453 24.8125C29.9453 24.7824 29.933 24.7578 29.918 24.7578C29.9029 24.7578 29.8906 24.7332 29.8906 24.7031C29.8906 24.673 29.8783 24.6484 29.8633 24.6484C29.8482 24.6484 29.8359 24.6265 29.8359 24.5998C29.8359 24.573 29.8113 24.5334 29.7812 24.5117C29.7512 24.49 29.7266 24.4531 29.7266 24.4297C29.7266 24.4063 29.702 24.3693 29.6719 24.3477C29.6418 24.326 29.6172 24.2891 29.6172 24.2656C29.6172 24.2422 29.5926 24.2053 29.5625 24.1836C29.5324 24.1619 29.5078 24.1278 29.5078 24.1077C29.5078 24.0876 29.434 23.9987 29.3438 23.9102C29.2535 23.8216 29.1797 23.73 29.1797 23.7066C29.1797 23.6832 29.1606 23.6641 29.1374 23.6641C29.1141 23.6641 29.0101 23.5779 28.9062 23.4727C28.8024 23.3674 28.7011 23.2812 28.6812 23.2812C28.6612 23.2812 28.6272 23.2566 28.6055 23.2266C28.5838 23.1965 28.5469 23.1719 28.5234 23.1719C28.5 23.1719 28.4631 23.1473 28.4414 23.1172C28.4197 23.0871 28.3828 23.0625 28.3594 23.0625C28.3359 23.0625 28.299 23.0379 28.2773 23.0078C28.2557 22.9777 28.216 22.9531 28.1893 22.9531C28.1625 22.9531 28.1406 22.9408 28.1406 22.9258C28.1406 22.9107 28.116 22.8984 28.0859 22.8984C28.0559 22.8984 28.0312 22.8861 28.0312 22.8711C28.0312 22.8561 27.9943 22.8438 27.9492 22.8438C27.9041 22.8438 27.8672 22.8314 27.8672 22.8164C27.8672 22.8014 27.8426 22.7891 27.8125 22.7891C27.7824 22.7891 27.7578 22.7768 27.7578 22.7617C27.7578 22.7467 27.7332 22.7344 27.7031 22.7344C27.673 22.7344 27.6484 22.7221 27.6484 22.707C27.6484 22.692 27.6115 22.6797 27.5664 22.6797C27.5213 22.6797 27.4844 22.6674 27.4844 22.6523C27.4844 22.6373 27.4352 22.625 27.375 22.625C27.3148 22.625 27.2656 22.6127 27.2656 22.5977C27.2656 22.5826 27.2164 22.5703 27.1562 22.5703C27.0961 22.5703 27.0469 22.558 27.0469 22.543C27.0469 22.5278 26.9739 22.5156 26.8828 22.5156C26.7917 22.5156 26.7188 22.5035 26.7188 22.4883C26.7188 22.4702 25.6159 22.4609 23.4648 22.4609C21.3138 22.4609 20.2109 22.4517 20.2109 22.4336C20.2109 22.4177 20.3021 22.4062 20.4297 22.4062C20.5573 22.4062 20.6484 22.3948 20.6484 22.3789C20.6484 22.3639 20.71 22.3516 20.7852 22.3516C20.8604 22.3516 20.9219 22.3393 20.9219 22.3242C20.9219 22.3092 20.9711 22.2969 21.0312 22.2969C21.0914 22.2969 21.1406 22.2846 21.1406 22.2695C21.1406 22.2545 21.1775 22.2422 21.2227 22.2422C21.2678 22.2422 21.3047 22.2299 21.3047 22.2148C21.3047 22.1998 21.3416 22.1875 21.3867 22.1875C21.4318 22.1875 21.4688 22.1752 21.4688 22.1602C21.4688 22.1451 21.5057 22.1328 21.5508 22.1328C21.5959 22.1328 21.6328 22.1205 21.6328 22.1055C21.6328 22.0904 21.6697 22.0781 21.7148 22.0781C21.76 22.0781 21.7969 22.0658 21.7969 22.0508C21.7969 22.0357 21.8215 22.0234 21.8516 22.0234C21.8816 22.0234 21.9062 22.0111 21.9062 21.9961C21.9062 21.9811 21.9432 21.9688 21.9883 21.9688C22.0334 21.9688 22.0703 21.9564 22.0703 21.9414C22.0703 21.9264 22.0949 21.9141 22.125 21.9141C22.1551 21.9141 22.1797 21.9018 22.1797 21.8867C22.1797 21.8717 22.2043 21.8594 22.2344 21.8594C22.2645 21.8594 22.2891 21.8471 22.2891 21.832C22.2891 21.817 22.311 21.8047 22.3377 21.8047C22.3645 21.8047 22.4041 21.7801 22.4258 21.75C22.4475 21.7199 22.4871 21.6953 22.5139 21.6953C22.5406 21.6953 22.5625 21.683 22.5625 21.668C22.5625 21.6529 22.5844 21.6406 22.6111 21.6406C22.6379 21.6406 22.6775 21.616 22.6992 21.5859C22.7209 21.5559 22.7578 21.5312 22.7812 21.5312C22.8047 21.5312 22.8416 21.5066 22.8633 21.4766C22.885 21.4465 22.9219 21.4219 22.9453 21.4219C22.9687 21.4219 23.0057 21.3973 23.0273 21.3672C23.049 21.3371 23.0833 21.3125 23.1035 21.3125C23.1237 21.3125 23.2002 21.251 23.2734 21.1758C23.3467 21.1006 23.4199 21.0391 23.4361 21.0391C23.4745 21.0391 23.9844 20.5292 23.9844 20.4908C23.9844 20.4746 24.0459 20.4014 24.1211 20.3281C24.1963 20.2549 24.2578 20.1784 24.2578 20.1582C24.2578 20.138 24.2824 20.1037 24.3125 20.082C24.3426 20.0603 24.3672 20.0234 24.3672 20C24.3672 19.9766 24.3918 19.9397 24.4219 19.918C24.452 19.8963 24.4766 19.8594 24.4766 19.8359C24.4766 19.8125 24.5012 19.7756 24.5312 19.7539C24.5613 19.7322 24.5859 19.6926 24.5859 19.6658C24.5859 19.6391 24.5982 19.6172 24.6133 19.6172C24.6283 19.6172 24.6406 19.5953 24.6406 19.5685C24.6406 19.5418 24.6652 19.5022 24.6953 19.4805C24.7254 19.4588 24.75 19.4192 24.75 19.3924C24.75 19.3657 24.7623 19.3438 24.7773 19.3438C24.7924 19.3438 24.8047 19.3191 24.8047 19.2891C24.8047 19.259 24.817 19.2344 24.832 19.2344C24.8471 19.2344 24.8594 19.2098 24.8594 19.1797C24.8594 19.1496 24.8717 19.125 24.8867 19.125C24.9018 19.125 24.9141 19.0881 24.9141 19.043C24.9141 18.9979 24.9264 18.9609 24.9414 18.9609C24.9564 18.9609 24.9688 18.9363 24.9688 18.9062C24.9688 18.8762 24.9811 18.8516 24.9961 18.8516C25.0111 18.8516 25.0234 18.8146 25.0234 18.7695C25.0234 18.7244 25.0357 18.6875 25.0508 18.6875C25.0658 18.6875 25.0781 18.6506 25.0781 18.6055C25.0781 18.5604 25.0904 18.5234 25.1055 18.5234C25.1205 18.5234 25.1328 18.4865 25.1328 18.4414C25.1328 18.3963 25.1451 18.3594 25.1602 18.3594C25.1752 18.3594 25.1875 18.3225 25.1875 18.2773C25.1875 18.2322 25.1998 18.1953 25.2148 18.1953C25.2299 18.1953 25.2422 18.1461 25.2422 18.0859C25.2422 18.0258 25.2545 17.9766 25.2695 17.9766C25.2846 17.9766 25.2969 17.915 25.2969 17.8398C25.2969 17.7646 25.3092 17.7031 25.3242 17.7031C25.3402 17.7031 25.3516 17.612 25.3516 17.4844C25.3516 17.3568 25.363 17.2656 25.3789 17.2656C25.397 17.2656 25.4062 16.2266 25.4062 14.2031C25.4062 12.1797 25.397 11.1406 25.3789 11.1406C25.3633 11.1406 25.3516 11.0586 25.3516 10.9492C25.3516 10.8398 25.3398 10.7578 25.3242 10.7578C25.3092 10.7578 25.2969 10.6963 25.2969 10.6211C25.2969 10.5459 25.2846 10.4844 25.2695 10.4844C25.2545 10.4844 25.2422 10.4352 25.2422 10.375C25.2422 10.3148 25.2299 10.2656 25.2148 10.2656C25.1998 10.2656 25.1875 10.2287 25.1875 10.1836C25.1875 10.1385 25.1752 10.1016 25.1602 10.1016C25.1451 10.1016 25.1328 10.0646 25.1328 10.0195C25.1328 9.97441 25.1205 9.9375 25.1055 9.9375C25.0904 9.9375 25.0781 9.90059 25.0781 9.85547C25.0781 9.81035 25.0658 9.77344 25.0508 9.77344C25.0357 9.77344 25.0234 9.73652 25.0234 9.69141C25.0234 9.64629 25.0111 9.60938 24.9961 9.60938C24.9811 9.60938 24.9688 9.58477 24.9688 9.55469C24.9688 9.52461 24.9564 9.5 24.9414 9.5C24.9264 9.5 24.9141 9.46309 24.9141 9.41797C24.9141 9.37285 24.9018 9.33594 24.8867 9.33594C24.8717 9.33594 24.8594 9.31133 24.8594 9.28125C24.8594 9.25117 24.8471 9.22656 24.832 9.22656C24.817 9.22656 24.8047 9.20195 24.8047 9.17188C24.8047 9.1418 24.7924 9.11719 24.7773 9.11719C24.7623 9.11719 24.75 9.09529 24.75 9.06854C24.75 9.04177 24.7254 9.00215 24.6953 8.98047C24.6652 8.95879 24.6406 8.91916 24.6406 8.89239C24.6406 8.86565 24.6283 8.84375 24.6133 8.84375C24.5982 8.84375 24.5859 8.82185 24.5859 8.79511C24.5859 8.76834 24.5613 8.72871 24.5312 8.70703C24.5012 8.68535 24.4766 8.64843 24.4766 8.625C24.4766 8.60157 24.452 8.56465 24.4219 8.54297C24.3918 8.52129 24.3672 8.48437 24.3672 8.46094C24.3672 8.4375 24.3426 8.40059 24.3125 8.37891C24.2824 8.35722 24.2578 8.32296 24.2578 8.30273C24.2578 8.28252 24.1963 8.20607 24.1211 8.13281C24.0459 8.05956 23.9844 7.98639 23.9844 7.97017C23.9844 7.93173 23.4745 7.42188 23.4361 7.42188C23.4199 7.42188 23.3467 7.36035 23.2734 7.28516C23.2002 7.20996 23.1237 7.14844 23.1035 7.14844C23.0833 7.14844 23.049 7.12383 23.0273 7.09375C23.0057 7.06367 22.9687 7.03906 22.9453 7.03906C22.9219 7.03906 22.885 7.01445 22.8633 6.98438C22.8416 6.9543 22.8047 6.92969 22.7812 6.92969C22.7578 6.92969 22.7209 6.90508 22.6992 6.875C22.6775 6.84492 22.6379 6.82031 22.6111 6.82031C22.5844 6.82031 22.5625 6.80801 22.5625 6.79297C22.5625 6.77793 22.5406 6.76562 22.5139 6.76562C22.4871 6.76562 22.4475 6.74102 22.4258 6.71094C22.4041 6.68086 22.3645 6.65625 22.3377 6.65625C22.311 6.65625 22.2891 6.64395 22.2891 6.62891C22.2891 6.61387 22.2645 6.60156 22.2344 6.60156C22.2043 6.60156 22.1797 6.58926 22.1797 6.57422C22.1797 6.55918 22.1551 6.54688 22.125 6.54688C22.0949 6.54688 22.0703 6.53457 22.0703 6.51953C22.0703 6.50449 22.0334 6.49219 21.9883 6.49219C21.9432 6.49219 21.9062 6.47988 21.9062 6.46484C21.9062 6.4498 21.8816 6.4375 21.8516 6.4375C21.8215 6.4375 21.7969 6.4252 21.7969 6.41016C21.7969 6.39512 21.76 6.38281 21.7148 6.38281C21.6697 6.38281 21.6328 6.37051 21.6328 6.35547C21.6328 6.34043 21.5959 6.32812 21.5508 6.32812C21.5057 6.32812 21.4688 6.31582 21.4688 6.30078C21.4688 6.28574 21.4318 6.27344 21.3867 6.27344C21.3416 6.27344 21.3047 6.26113 21.3047 6.24609C21.3047 6.23105 21.2678 6.21875 21.2227 6.21875C21.1775 6.21875 21.1406 6.20645 21.1406 6.19141C21.1406 6.17637 21.0914 6.16406 21.0312 6.16406C20.9711 6.16406 20.9219 6.15176 20.9219 6.13672C20.9219 6.12168 20.8604 6.10938 20.7852 6.10938C20.71 6.10938 20.6484 6.09707 20.6484 6.08203C20.6484 6.06609 20.5573 6.05469 20.4297 6.05469C20.3021 6.05469 20.2109 6.04329 20.2109 6.02734C20.2109 6.01004 20.0104 6 19.6641 6C19.3177 6 19.1172 6.01004 19.1172 6.02734ZM20.1016 7.66797C20.1016 7.68358 20.1836 7.69531 20.293 7.69531C20.4023 7.69531 20.4844 7.70704 20.4844 7.72266C20.4844 7.7377 20.5336 7.75 20.5938 7.75C20.6539 7.75 20.7031 7.7623 20.7031 7.77734C20.7031 7.79238 20.74 7.80469 20.7852 7.80469C20.8303 7.80469 20.8672 7.81699 20.8672 7.83203C20.8672 7.84707 20.9164 7.85938 20.9766 7.85938C21.0367 7.85938 21.0859 7.87168 21.0859 7.88672C21.0859 7.90176 21.1105 7.91406 21.1406 7.91406C21.1707 7.91406 21.1953 7.92637 21.1953 7.94141C21.1953 7.95645 21.2199 7.96875 21.25 7.96875C21.2801 7.96875 21.3047 7.98105 21.3047 7.99609C21.3047 8.01113 21.3416 8.02344 21.3867 8.02344C21.4318 8.02344 21.4688 8.03574 21.4688 8.05078C21.4688 8.06582 21.4907 8.07812 21.5174 8.07812C21.5442 8.07812 21.5838 8.10273 21.6055 8.13281C21.6272 8.16289 21.6668 8.1875 21.6935 8.1875C21.7203 8.1875 21.7422 8.1998 21.7422 8.21484C21.7422 8.22988 21.7641 8.24219 21.7908 8.24219C21.8176 8.24219 21.8572 8.2668 21.8789 8.29688C21.9006 8.32695 21.9353 8.35156 21.956 8.35156C21.9767 8.35156 22.0282 8.38848 22.0703 8.43359C22.1124 8.47871 22.1613 8.51562 22.1788 8.51562C22.1963 8.51562 22.2705 8.57715 22.3438 8.65234C22.417 8.72754 22.4962 8.78906 22.5197 8.78906C22.5433 8.78906 22.5625 8.80812 22.5625 8.83139C22.5625 8.85469 22.6486 8.95868 22.7539 9.0625C22.8592 9.16632 22.9453 9.26761 22.9453 9.28757C22.9453 9.30753 22.9699 9.3416 23 9.36328C23.0301 9.38496 23.0547 9.42188 23.0547 9.44531C23.0547 9.46875 23.0793 9.50566 23.1094 9.52734C23.1395 9.54903 23.1641 9.58865 23.1641 9.61542C23.1641 9.64216 23.1764 9.66406 23.1914 9.66406C23.2064 9.66406 23.2188 9.68597 23.2188 9.71271C23.2188 9.73948 23.2434 9.7791 23.2734 9.80078C23.3035 9.82246 23.3281 9.86209 23.3281 9.88886C23.3281 9.9156 23.3404 9.9375 23.3555 9.9375C23.3705 9.9375 23.3828 9.97441 23.3828 10.0195C23.3828 10.0646 23.3951 10.1016 23.4102 10.1016C23.4252 10.1016 23.4375 10.1262 23.4375 10.1562C23.4375 10.1863 23.4498 10.2109 23.4648 10.2109C23.4799 10.2109 23.4922 10.2479 23.4922 10.293C23.4922 10.3381 23.5045 10.375 23.5195 10.375C23.5346 10.375 23.5469 10.3996 23.5469 10.4297C23.5469 10.4598 23.5592 10.4844 23.5742 10.4844C23.5893 10.4844 23.6016 10.5336 23.6016 10.5938C23.6016 10.6539 23.6139 10.7031 23.6289 10.7031C23.6439 10.7031 23.6562 10.7523 23.6562 10.8125V10.9219H19.6641H15.6719V10.8125C15.6719 10.7523 15.6842 10.7031 15.6992 10.7031C15.7143 10.7031 15.7266 10.6539 15.7266 10.5938C15.7266 10.5336 15.7389 10.4844 15.7539 10.4844C15.7689 10.4844 15.7812 10.4598 15.7812 10.4297C15.7812 10.3996 15.7936 10.375 15.8086 10.375C15.8236 10.375 15.8359 10.3381 15.8359 10.293C15.8359 10.2479 15.8482 10.2109 15.8633 10.2109C15.8783 10.2109 15.8906 10.1863 15.8906 10.1562C15.8906 10.1262 15.9029 10.1016 15.918 10.1016C15.933 10.1016 15.9453 10.0646 15.9453 10.0195C15.9453 9.97441 15.9576 9.9375 15.9727 9.9375C15.9877 9.9375 16 9.9156 16 9.88886C16 9.86209 16.0246 9.82246 16.0547 9.80078C16.0848 9.7791 16.1094 9.73948 16.1094 9.71271C16.1094 9.68597 16.1217 9.66406 16.1367 9.66406C16.1518 9.66406 16.1641 9.64216 16.1641 9.61542C16.1641 9.58865 16.1887 9.54903 16.2188 9.52734C16.2488 9.50566 16.2734 9.46875 16.2734 9.44531C16.2734 9.42188 16.298 9.38496 16.3281 9.36328C16.3582 9.3416 16.3828 9.30802 16.3828 9.28866C16.3828 9.24267 17.1645 8.46094 17.2105 8.46094C17.2299 8.46094 17.2635 8.43633 17.2852 8.40625C17.3068 8.37617 17.3438 8.35156 17.3672 8.35156C17.3906 8.35156 17.4275 8.32695 17.4492 8.29688C17.4709 8.2668 17.5105 8.24219 17.5373 8.24219C17.564 8.24219 17.5859 8.22988 17.5859 8.21484C17.5859 8.1998 17.6105 8.1875 17.6406 8.1875C17.6707 8.1875 17.6953 8.1752 17.6953 8.16016C17.6953 8.14512 17.7172 8.13281 17.744 8.13281C17.7707 8.13281 17.8103 8.1082 17.832 8.07812C17.8552 8.04602 17.9028 8.02344 17.9474 8.02344C17.9892 8.02344 18.0234 8.01113 18.0234 7.99609C18.0234 7.98105 18.048 7.96875 18.0781 7.96875C18.1082 7.96875 18.1328 7.95645 18.1328 7.94141C18.1328 7.92637 18.1574 7.91406 18.1875 7.91406C18.2176 7.91406 18.2422 7.90176 18.2422 7.88672C18.2422 7.87168 18.2914 7.85938 18.3516 7.85938C18.4117 7.85938 18.4609 7.84707 18.4609 7.83203C18.4609 7.81699 18.4979 7.80469 18.543 7.80469C18.5881 7.80469 18.625 7.79238 18.625 7.77734C18.625 7.7623 18.6742 7.75 18.7344 7.75C18.7945 7.75 18.8438 7.7377 18.8438 7.72266C18.8438 7.70704 18.9258 7.69531 19.0352 7.69531C19.1445 7.69531 19.2266 7.68358 19.2266 7.66797C19.2266 7.65088 19.3906 7.64062 19.6641 7.64062C19.9375 7.64062 20.1016 7.65088 20.1016 7.66797ZM23.6016 12.6172C23.6016 12.6473 23.5893 12.6719 23.5742 12.6719C23.5592 12.6719 23.5469 12.7088 23.5469 12.7539C23.5469 12.799 23.5346 12.8359 23.5195 12.8359C23.5045 12.8359 23.4922 12.8578 23.4922 12.8846C23.4922 12.9114 23.4676 12.951 23.4375 12.9727C23.4074 12.9943 23.3828 13.0313 23.3828 13.0547C23.3828 13.0781 23.3582 13.115 23.3281 13.1367C23.298 13.1584 23.2734 13.1921 23.2734 13.2115C23.2734 13.2576 22.8201 13.7109 22.774 13.7109C22.7546 13.7109 22.7209 13.7355 22.6992 13.7656C22.6775 13.7957 22.6379 13.8203 22.6111 13.8203C22.5844 13.8203 22.5625 13.8326 22.5625 13.8477C22.5625 13.8627 22.5406 13.875 22.5139 13.875C22.4871 13.875 22.4475 13.8996 22.4258 13.9297C22.4026 13.9618 22.355 13.9844 22.3104 13.9844C22.2686 13.9844 22.2344 13.9967 22.2344 14.0117C22.2344 14.0268 22.2098 14.0391 22.1797 14.0391C22.1496 14.0391 22.125 14.0514 22.125 14.0664C22.125 14.0814 22.0758 14.0938 22.0156 14.0938C21.9555 14.0938 21.9062 14.1061 21.9062 14.1211C21.9062 14.1361 21.857 14.1484 21.7969 14.1484C21.7367 14.1484 21.6875 14.1607 21.6875 14.1758C21.6875 14.1938 20.9948 14.2031 19.6641 14.2031C18.3333 14.2031 17.6406 14.1938 17.6406 14.1758C17.6406 14.1607 17.5914 14.1484 17.5312 14.1484C17.4711 14.1484 17.4219 14.1361 17.4219 14.1211C17.4219 14.1061 17.3727 14.0938 17.3125 14.0938C17.2523 14.0938 17.2031 14.0814 17.2031 14.0664C17.2031 14.0514 17.1785 14.0391 17.1484 14.0391C17.1184 14.0391 17.0938 14.0268 17.0938 14.0117C17.0938 13.9967 17.0595 13.9844 17.0178 13.9844C16.9731 13.9844 16.9255 13.9618 16.9023 13.9297C16.8807 13.8996 16.841 13.875 16.8143 13.875C16.7875 13.875 16.7656 13.8627 16.7656 13.8477C16.7656 13.8326 16.7437 13.8203 16.717 13.8203C16.6902 13.8203 16.6506 13.7957 16.6289 13.7656C16.6072 13.7355 16.5736 13.7109 16.5541 13.7109C16.508 13.7109 16.0547 13.2576 16.0547 13.2115C16.0547 13.1921 16.0301 13.1584 16 13.1367C15.9699 13.115 15.9453 13.0781 15.9453 13.0547C15.9453 13.0313 15.9207 12.9943 15.8906 12.9727C15.8605 12.951 15.8359 12.9114 15.8359 12.8846C15.8359 12.8578 15.8236 12.8359 15.8086 12.8359C15.7936 12.8359 15.7812 12.799 15.7812 12.7539C15.7812 12.7088 15.7689 12.6719 15.7539 12.6719C15.7389 12.6719 15.7266 12.6473 15.7266 12.6172C15.7266 12.5627 15.7448 12.5625 19.6641 12.5625C23.5833 12.5625 23.6016 12.5627 23.6016 12.6172ZM15.6445 15.0781C15.6662 15.1082 15.7031 15.1328 15.7266 15.1328C15.75 15.1328 15.7869 15.1574 15.8086 15.1875C15.8303 15.2176 15.8699 15.2422 15.8967 15.2422C15.9234 15.2422 15.9453 15.2545 15.9453 15.2695C15.9453 15.2846 15.9672 15.2969 15.994 15.2969C16.0207 15.2969 16.0603 15.3215 16.082 15.3516C16.1037 15.3816 16.1433 15.4062 16.1701 15.4062C16.1968 15.4062 16.2188 15.4186 16.2188 15.4336C16.2188 15.4486 16.2557 15.4609 16.3008 15.4609C16.3459 15.4609 16.3828 15.4732 16.3828 15.4883C16.3828 15.5033 16.4074 15.5156 16.4375 15.5156C16.4676 15.5156 16.4922 15.5279 16.4922 15.543C16.4922 15.558 16.5168 15.5703 16.5469 15.5703C16.577 15.5703 16.6016 15.5826 16.6016 15.5977C16.6016 15.6127 16.6385 15.625 16.6836 15.625C16.7287 15.625 16.7656 15.6373 16.7656 15.6523C16.7656 15.6674 16.8148 15.6797 16.875 15.6797C16.9352 15.6797 16.9844 15.692 16.9844 15.707C16.9844 15.7221 17.0336 15.7344 17.0938 15.7344C17.1539 15.7344 17.2031 15.7467 17.2031 15.7617C17.2031 15.7773 17.2852 15.7891 17.3945 15.7891C17.5039 15.7891 17.5859 15.8008 17.5859 15.8164C17.5859 15.8344 18.2969 15.8438 19.6641 15.8438C21.0312 15.8438 21.7422 15.8344 21.7422 15.8164C21.7422 15.8008 21.8242 15.7891 21.9336 15.7891C22.043 15.7891 22.125 15.7773 22.125 15.7617C22.125 15.7467 22.1742 15.7344 22.2344 15.7344C22.2945 15.7344 22.3438 15.7221 22.3438 15.707C22.3438 15.692 22.3807 15.6797 22.4258 15.6797C22.4709 15.6797 22.5078 15.6674 22.5078 15.6523C22.5078 15.6373 22.5447 15.625 22.5898 15.625C22.635 15.625 22.6719 15.6127 22.6719 15.5977C22.6719 15.5826 22.7088 15.5703 22.7539 15.5703C22.799 15.5703 22.8359 15.558 22.8359 15.543C22.8359 15.5279 22.8605 15.5156 22.8906 15.5156C22.9207 15.5156 22.9453 15.5033 22.9453 15.4883C22.9453 15.4732 22.9822 15.4609 23.0273 15.4609C23.0725 15.4609 23.1094 15.4486 23.1094 15.4336C23.1094 15.4186 23.1313 15.4062 23.158 15.4062C23.1848 15.4062 23.2244 15.3816 23.2461 15.3516C23.2678 15.3215 23.3074 15.2969 23.3342 15.2969C23.3609 15.2969 23.3828 15.2846 23.3828 15.2695C23.3828 15.2545 23.4047 15.2422 23.4315 15.2422C23.4582 15.2422 23.4978 15.2176 23.5195 15.1875C23.5412 15.1574 23.5781 15.1328 23.6016 15.1328C23.625 15.1328 23.6619 15.1082 23.6836 15.0781C23.7053 15.048 23.7326 15.0234 23.7443 15.0234C23.756 15.0234 23.7656 15.5156 23.7656 16.1172C23.7656 16.8281 23.7561 17.2109 23.7383 17.2109C23.7231 17.2109 23.7109 17.2839 23.7109 17.375C23.7109 17.4661 23.6988 17.5391 23.6836 17.5391C23.6686 17.5391 23.6562 17.5883 23.6562 17.6484C23.6562 17.7086 23.6439 17.7578 23.6289 17.7578C23.6139 17.7578 23.6016 17.807 23.6016 17.8672C23.6016 17.9273 23.5893 17.9766 23.5742 17.9766C23.5592 17.9766 23.5469 18.0135 23.5469 18.0586C23.5469 18.1037 23.5346 18.1406 23.5195 18.1406C23.5045 18.1406 23.4922 18.1652 23.4922 18.1953C23.4922 18.2254 23.4799 18.25 23.4648 18.25C23.4498 18.25 23.4375 18.2746 23.4375 18.3047C23.4375 18.3348 23.4252 18.3594 23.4102 18.3594C23.3951 18.3594 23.3828 18.3963 23.3828 18.4414C23.3828 18.4865 23.3705 18.5234 23.3555 18.5234C23.3404 18.5234 23.3281 18.5453 23.3281 18.5721C23.3281 18.5989 23.3035 18.6385 23.2734 18.6602C23.2434 18.6818 23.2188 18.7215 23.2188 18.7482C23.2188 18.775 23.2064 18.7969 23.1914 18.7969C23.1764 18.7969 23.1641 18.8188 23.1641 18.8455C23.1641 18.8723 23.1395 18.9119 23.1094 18.9336C23.0793 18.9553 23.0547 18.9922 23.0547 19.0156C23.0547 19.0391 23.0301 19.076 23 19.0977C22.9699 19.1193 22.9453 19.1529 22.9453 19.1723C22.9453 19.2183 22.1636 20 22.1176 20C22.0982 20 22.0647 20.0246 22.043 20.0547C22.0213 20.0848 21.9844 20.1094 21.9609 20.1094C21.9375 20.1094 21.9006 20.134 21.8789 20.1641C21.8572 20.1941 21.8176 20.2188 21.7908 20.2188C21.7641 20.2188 21.7422 20.2311 21.7422 20.2461C21.7422 20.2611 21.7203 20.2734 21.6935 20.2734C21.6668 20.2734 21.6272 20.298 21.6055 20.3281C21.5838 20.3582 21.5442 20.3828 21.5174 20.3828C21.4907 20.3828 21.4688 20.3951 21.4688 20.4102C21.4688 20.4252 21.4318 20.4375 21.3867 20.4375C21.3416 20.4375 21.3047 20.4498 21.3047 20.4648C21.3047 20.4799 21.2801 20.4922 21.25 20.4922C21.2199 20.4922 21.1953 20.5045 21.1953 20.5195C21.1953 20.5346 21.1707 20.5469 21.1406 20.5469C21.1105 20.5469 21.0859 20.5592 21.0859 20.5742C21.0859 20.5893 21.049 20.6016 21.0039 20.6016C20.9588 20.6016 20.9219 20.6139 20.9219 20.6289C20.9219 20.6439 20.8727 20.6562 20.8125 20.6562C20.7523 20.6562 20.7031 20.6686 20.7031 20.6836C20.7031 20.6986 20.6539 20.7109 20.5938 20.7109C20.5336 20.7109 20.4844 20.7232 20.4844 20.7383C20.4844 20.7539 20.4023 20.7656 20.293 20.7656C20.1836 20.7656 20.1016 20.7774 20.1016 20.793C20.1016 20.8101 19.9284 20.8203 19.6367 20.8203C19.345 20.8203 19.1719 20.8101 19.1719 20.793C19.1719 20.7778 19.0989 20.7656 19.0078 20.7656C18.9167 20.7656 18.8438 20.7535 18.8438 20.7383C18.8438 20.7232 18.7945 20.7109 18.7344 20.7109C18.6742 20.7109 18.625 20.6986 18.625 20.6836C18.625 20.6686 18.5758 20.6562 18.5156 20.6562C18.4555 20.6562 18.4062 20.6439 18.4062 20.6289C18.4062 20.6139 18.3693 20.6016 18.3242 20.6016C18.2791 20.6016 18.2422 20.5893 18.2422 20.5742C18.2422 20.5592 18.2176 20.5469 18.1875 20.5469C18.1574 20.5469 18.1328 20.5346 18.1328 20.5195C18.1328 20.5045 18.1082 20.4922 18.0781 20.4922C18.048 20.4922 18.0234 20.4799 18.0234 20.4648C18.0234 20.4498 17.9865 20.4375 17.9414 20.4375C17.8963 20.4375 17.8594 20.4252 17.8594 20.4102C17.8594 20.3951 17.8375 20.3828 17.8107 20.3828C17.784 20.3828 17.7443 20.3582 17.7227 20.3281C17.701 20.298 17.6614 20.2734 17.6346 20.2734C17.6078 20.2734 17.5859 20.2611 17.5859 20.2461C17.5859 20.2311 17.564 20.2188 17.5373 20.2188C17.5105 20.2188 17.4709 20.1941 17.4492 20.1641C17.4275 20.134 17.3906 20.1094 17.3672 20.1094C17.3438 20.1094 17.3068 20.0848 17.2852 20.0547C17.2635 20.0246 17.2293 20 17.2092 20C17.1892 20 17.1003 19.9262 17.0117 19.8359C16.9232 19.7457 16.8316 19.6719 16.8081 19.6719C16.7848 19.6719 16.7656 19.6528 16.7656 19.6295C16.7656 19.6062 16.6795 19.5023 16.5742 19.3984C16.4689 19.2946 16.3828 19.1933 16.3828 19.1734C16.3828 19.1534 16.3582 19.1193 16.3281 19.0977C16.298 19.076 16.2734 19.0391 16.2734 19.0156C16.2734 18.9922 16.2488 18.9553 16.2188 18.9336C16.1887 18.9119 16.1641 18.8723 16.1641 18.8455C16.1641 18.8188 16.1518 18.7969 16.1367 18.7969C16.1217 18.7969 16.1094 18.775 16.1094 18.7482C16.1094 18.7215 16.0848 18.6818 16.0547 18.6602C16.0246 18.6385 16 18.5989 16 18.5721C16 18.5453 15.9877 18.5234 15.9727 18.5234C15.9576 18.5234 15.9453 18.4865 15.9453 18.4414C15.9453 18.3963 15.933 18.3594 15.918 18.3594C15.9029 18.3594 15.8906 18.3348 15.8906 18.3047C15.8906 18.2746 15.8783 18.25 15.8633 18.25C15.8482 18.25 15.8359 18.2254 15.8359 18.1953C15.8359 18.1652 15.8236 18.1406 15.8086 18.1406C15.7936 18.1406 15.7812 18.1037 15.7812 18.0586C15.7812 18.0135 15.7689 17.9766 15.7539 17.9766C15.7389 17.9766 15.7266 17.9273 15.7266 17.8672C15.7266 17.807 15.7143 17.7578 15.6992 17.7578C15.6842 17.7578 15.6719 17.7086 15.6719 17.6484C15.6719 17.5883 15.6596 17.5391 15.6445 17.5391C15.6289 17.5391 15.6172 17.457 15.6172 17.3477C15.6172 17.2383 15.6055 17.1562 15.5898 17.1562C15.5721 17.1562 15.5625 16.7825 15.5625 16.0898C15.5625 15.5033 15.5721 15.0234 15.5838 15.0234C15.5955 15.0234 15.6228 15.048 15.6445 15.0781ZM18.8438 25.7422V27.3828H16.2734C14.5781 27.3828 13.7031 27.3921 13.7031 27.4102C13.7031 27.4252 13.6785 27.4375 13.6484 27.4375C13.6184 27.4375 13.5938 27.4498 13.5938 27.4648C13.5938 27.4799 13.5691 27.4922 13.5391 27.4922C13.509 27.4922 13.4844 27.5045 13.4844 27.5195C13.4844 27.5346 13.4654 27.5469 13.4421 27.5469C13.3874 27.5469 13.2656 27.6687 13.2656 27.7234C13.2656 27.7466 13.2533 27.7656 13.2383 27.7656C13.2232 27.7656 13.2109 27.7902 13.2109 27.8203C13.2109 27.8504 13.1986 27.875 13.1836 27.875C13.1686 27.875 13.1562 27.8996 13.1562 27.9297C13.1562 27.9598 13.1439 27.9844 13.1289 27.9844C13.1109 27.9844 13.1016 28.7318 13.1016 30.1719V32.3594H11.8711H10.6406V29.2969C10.6406 27.2734 10.6499 26.2344 10.668 26.2344C10.683 26.2344 10.6953 26.1729 10.6953 26.0977C10.6953 26.0225 10.7076 25.9609 10.7227 25.9609C10.7377 25.9609 10.75 25.9117 10.75 25.8516C10.75 25.7914 10.7623 25.7422 10.7773 25.7422C10.7924 25.7422 10.8047 25.7176 10.8047 25.6875C10.8047 25.6574 10.817 25.6328 10.832 25.6328C10.8471 25.6328 10.8594 25.6082 10.8594 25.5781C10.8594 25.548 10.8717 25.5234 10.8867 25.5234C10.9018 25.5234 10.9141 25.4892 10.9141 25.4474C10.9141 25.4028 10.9366 25.3552 10.9688 25.332C10.9988 25.3103 11.0234 25.2734 11.0234 25.25C11.0234 25.2266 11.048 25.1897 11.0781 25.168C11.1082 25.1463 11.1328 25.1126 11.1328 25.0932C11.1328 25.0471 11.5861 24.5938 11.6322 24.5938C11.6517 24.5938 11.6853 24.5691 11.707 24.5391C11.7287 24.509 11.7656 24.4844 11.7891 24.4844C11.8125 24.4844 11.8494 24.4598 11.8711 24.4297C11.8928 24.3996 11.9324 24.375 11.9592 24.375C11.9859 24.375 12.0078 24.3627 12.0078 24.3477C12.0078 24.3326 12.0447 24.3203 12.0898 24.3203C12.135 24.3203 12.1719 24.308 12.1719 24.293C12.1719 24.2779 12.1965 24.2656 12.2266 24.2656C12.2566 24.2656 12.2812 24.2533 12.2812 24.2383C12.2812 24.2232 12.3305 24.2109 12.3906 24.2109C12.4508 24.2109 12.5 24.1986 12.5 24.1836C12.5 24.1686 12.5615 24.1562 12.6367 24.1562C12.7119 24.1562 12.7734 24.1439 12.7734 24.1289C12.7734 24.1108 13.8034 24.1016 15.8086 24.1016H18.8438V25.7422ZM26.5547 24.1289C26.5547 24.1439 26.6162 24.1562 26.6914 24.1562C26.7666 24.1562 26.8281 24.1686 26.8281 24.1836C26.8281 24.1986 26.8773 24.2109 26.9375 24.2109C26.9977 24.2109 27.0469 24.2232 27.0469 24.2383C27.0469 24.2533 27.0715 24.2656 27.1016 24.2656C27.1316 24.2656 27.1562 24.2779 27.1562 24.293C27.1562 24.308 27.1809 24.3203 27.2109 24.3203C27.241 24.3203 27.2656 24.3326 27.2656 24.3477C27.2656 24.3627 27.2998 24.375 27.3416 24.375C27.3862 24.375 27.4339 24.3976 27.457 24.4297C27.4787 24.4598 27.5156 24.4844 27.5391 24.4844C27.5625 24.4844 27.5994 24.509 27.6211 24.5391C27.6428 24.5691 27.6764 24.5938 27.6959 24.5938C27.742 24.5938 28.1953 25.0471 28.1953 25.0932C28.1953 25.1126 28.2199 25.1463 28.25 25.168C28.2801 25.1897 28.3047 25.2266 28.3047 25.25C28.3047 25.2734 28.3293 25.3103 28.3594 25.332C28.3895 25.3537 28.4141 25.3933 28.4141 25.4201C28.4141 25.4468 28.4264 25.4688 28.4414 25.4688C28.4564 25.4688 28.4688 25.5057 28.4688 25.5508C28.4688 25.5959 28.4811 25.6328 28.4961 25.6328C28.5111 25.6328 28.5234 25.6574 28.5234 25.6875C28.5234 25.7176 28.5357 25.7422 28.5508 25.7422C28.5658 25.7422 28.5781 25.7914 28.5781 25.8516C28.5781 25.9117 28.5904 25.9609 28.6055 25.9609C28.6205 25.9609 28.6328 26.0225 28.6328 26.0977C28.6328 26.1729 28.6451 26.2344 28.6602 26.2344C28.6782 26.2344 28.6875 27.2734 28.6875 29.2969V32.3594H27.457H26.2266V30.1719C26.2266 28.7318 26.2172 27.9844 26.1992 27.9844C26.1842 27.9844 26.1719 27.9598 26.1719 27.9297C26.1719 27.8996 26.1596 27.875 26.1445 27.875C26.1295 27.875 26.1172 27.8504 26.1172 27.8203C26.1172 27.7902 26.1049 27.7656 26.0898 27.7656C26.0748 27.7656 26.0625 27.7466 26.0625 27.7234C26.0625 27.6687 25.9407 27.5469 25.886 27.5469C25.8628 27.5469 25.8438 27.5346 25.8438 27.5195C25.8438 27.5045 25.8191 27.4922 25.7891 27.4922C25.759 27.4922 25.7344 27.4799 25.7344 27.4648C25.7344 27.4498 25.7098 27.4375 25.6797 27.4375C25.6496 27.4375 25.625 27.4252 25.625 27.4102C25.625 27.3921 24.75 27.3828 23.0547 27.3828H20.4844V25.7422V24.1016H23.5195C25.5247 24.1016 26.5547 24.1108 26.5547 24.1289ZM18.8438 30.6914V32.3594H16.793H14.7422V30.6914V29.0234H16.793H18.8438V30.6914ZM24.5859 30.6914V32.3594H22.5352H20.4844V30.6914V29.0234H22.5352H24.5859V30.6914Z" fill="#DD2A1B"/>
</svg>
