<svg width="40" height="40" viewBox="0 0 40 40" fill="none" xmlns="http://www.w3.org/2000/svg">
<path fill-rule="evenodd" clip-rule="evenodd" d="M15.1641 6.02734C15.1641 6.04238 15.1299 6.05469 15.0881 6.05469C15.0434 6.05469 14.9958 6.07727 14.9727 6.10938C14.951 6.13945 14.9169 6.16406 14.897 6.16406C14.8532 6.16406 14.7266 6.28621 14.7266 6.3284C14.7266 6.34494 14.6527 6.43096 14.5625 6.51953C14.4723 6.6081 14.3984 6.69699 14.3984 6.71706C14.3984 6.73713 14.3738 6.77129 14.3438 6.79297C14.3137 6.81465 14.2891 6.84935 14.2891 6.87008C14.2891 6.89078 14.2521 6.94224 14.207 6.98438C14.1619 7.02651 14.125 7.08068 14.125 7.10471C14.125 7.12878 14.1127 7.14844 14.0977 7.14844C14.0826 7.14844 14.0703 7.17034 14.0703 7.19708C14.0703 7.22385 14.0457 7.26347 14.0156 7.28516C13.9855 7.30684 13.9609 7.34646 13.9609 7.37323C13.9609 7.39997 13.9486 7.42188 13.9336 7.42188C13.9186 7.42188 13.9062 7.44648 13.9062 7.47656C13.9062 7.50664 13.8939 7.53125 13.8789 7.53125C13.8639 7.53125 13.8516 7.55586 13.8516 7.58594C13.8516 7.61602 13.8393 7.64062 13.8242 7.64062C13.8092 7.64062 13.7969 7.66523 13.7969 7.69531C13.7969 7.72539 13.7846 7.75 13.7695 7.75C13.7545 7.75 13.7422 7.77461 13.7422 7.80469C13.7422 7.83477 13.7299 7.85938 13.7148 7.85938C13.6998 7.85938 13.6875 7.88398 13.6875 7.91406C13.6875 7.94414 13.6752 7.96875 13.6602 7.96875C13.6451 7.96875 13.6328 7.99336 13.6328 8.02344C13.6328 8.05352 13.6205 8.07812 13.6055 8.07812C13.5904 8.07812 13.5781 8.11504 13.5781 8.16016C13.5781 8.20527 13.5658 8.24219 13.5508 8.24219C13.5357 8.24219 13.5234 8.2668 13.5234 8.29688C13.5234 8.32695 13.5111 8.35156 13.4961 8.35156C13.4811 8.35156 13.4688 8.38848 13.4688 8.43359C13.4688 8.47871 13.4564 8.51562 13.4414 8.51562C13.4264 8.51562 13.4141 8.55254 13.4141 8.59766C13.4141 8.64277 13.4018 8.67969 13.3867 8.67969C13.3717 8.67969 13.3594 8.7166 13.3594 8.76172C13.3594 8.80684 13.3471 8.84375 13.332 8.84375C13.317 8.84375 13.3047 8.88066 13.3047 8.92578C13.3047 8.9709 13.2924 9.00781 13.2773 9.00781C13.2623 9.00781 13.25 9.05175 13.25 9.10546C13.25 9.29312 13.4097 9.28125 10.8867 9.28125C9.38152 9.28125 8.60156 9.29057 8.60156 9.30859C8.60156 9.32363 8.56736 9.33594 8.52557 9.33594C8.48095 9.33594 8.43332 9.35852 8.41016 9.39062C8.38847 9.4207 8.35443 9.44531 8.33452 9.44531C8.28757 9.44531 8.16406 9.56882 8.16406 9.61577C8.16406 9.63568 8.13945 9.66972 8.10938 9.69141C8.07727 9.71457 8.05469 9.7622 8.05469 9.80682C8.05469 9.84861 8.04238 9.88281 8.02734 9.88281C8.0114 9.88281 8 9.97395 8 10.1016C8 10.2292 8.0114 10.3203 8.02734 10.3203C8.04296 10.3203 8.05469 10.4023 8.05469 10.5117C8.05469 10.6211 8.06642 10.7031 8.08203 10.7031C8.09764 10.7031 8.10938 10.7852 8.10938 10.8945C8.10938 11.0039 8.12111 11.0859 8.13672 11.0859C8.15233 11.0859 8.16406 11.168 8.16406 11.2773C8.16406 11.3867 8.17579 11.4688 8.19141 11.4688C8.20661 11.4688 8.21875 11.5417 8.21875 11.6328C8.21875 11.7239 8.23089 11.7969 8.24609 11.7969C8.2613 11.7969 8.27344 11.8698 8.27344 11.9609C8.27344 12.0521 8.28558 12.125 8.30078 12.125C8.31598 12.125 8.32812 12.1979 8.32812 12.2891C8.32812 12.3802 8.34027 12.4531 8.35547 12.4531C8.37051 12.4531 8.38281 12.5146 8.38281 12.5898C8.38281 12.665 8.39512 12.7266 8.41016 12.7266C8.4252 12.7266 8.4375 12.7881 8.4375 12.8633C8.4375 12.9385 8.4498 13 8.46484 13C8.47988 13 8.49219 13.0615 8.49219 13.1367C8.49219 13.2119 8.50449 13.2734 8.51953 13.2734C8.53457 13.2734 8.54688 13.3227 8.54688 13.3828C8.54688 13.443 8.55918 13.4922 8.57422 13.4922C8.58926 13.4922 8.60156 13.5414 8.60156 13.6016C8.60156 13.6617 8.61387 13.7109 8.62891 13.7109C8.64395 13.7109 8.65625 13.7602 8.65625 13.8203C8.65625 13.8805 8.66855 13.9297 8.68359 13.9297C8.69863 13.9297 8.71094 13.9789 8.71094 14.0391C8.71094 14.0992 8.72324 14.1484 8.73828 14.1484C8.75332 14.1484 8.76562 14.1977 8.76562 14.2578C8.76562 14.318 8.77793 14.3672 8.79297 14.3672C8.80801 14.3672 8.82031 14.4041 8.82031 14.4492C8.82031 14.4943 8.83262 14.5312 8.84766 14.5312C8.8627 14.5312 8.875 14.5682 8.875 14.6133C8.875 14.6584 8.8873 14.6953 8.90234 14.6953C8.91738 14.6953 8.92969 14.7322 8.92969 14.7773C8.92969 14.8225 8.94199 14.8594 8.95703 14.8594C8.97207 14.8594 8.98438 14.8963 8.98438 14.9414C8.98438 14.9865 8.99668 15.0234 9.01172 15.0234C9.02676 15.0234 9.03906 15.0604 9.03906 15.1055C9.03906 15.1506 9.05137 15.1875 9.06641 15.1875C9.08145 15.1875 9.09375 15.2244 9.09375 15.2695C9.09375 15.3146 9.10605 15.3516 9.12109 15.3516C9.13613 15.3516 9.14844 15.3762 9.14844 15.4062C9.14844 15.4363 9.16074 15.4609 9.17578 15.4609C9.19082 15.4609 9.20312 15.4979 9.20312 15.543C9.20312 15.5881 9.21543 15.625 9.23047 15.625C9.24551 15.625 9.25781 15.6496 9.25781 15.6797C9.25781 15.7098 9.27012 15.7344 9.28516 15.7344C9.3002 15.7344 9.3125 15.7713 9.3125 15.8164C9.3125 15.8615 9.3248 15.8984 9.33984 15.8984C9.35488 15.8984 9.36719 15.923 9.36719 15.9531C9.36719 15.9832 9.37949 16.0078 9.39453 16.0078C9.40957 16.0078 9.42188 16.0324 9.42188 16.0625C9.42188 16.0926 9.43418 16.1172 9.44922 16.1172C9.46426 16.1172 9.47656 16.1418 9.47656 16.1719C9.47656 16.202 9.48887 16.2266 9.50391 16.2266C9.51895 16.2266 9.53125 16.2512 9.53125 16.2812C9.53125 16.3113 9.54355 16.3359 9.55859 16.3359C9.57363 16.3359 9.58594 16.3605 9.58594 16.3906C9.58594 16.4207 9.59824 16.4453 9.61328 16.4453C9.62832 16.4453 9.64062 16.4699 9.64062 16.5C9.64062 16.5301 9.65293 16.5547 9.66797 16.5547C9.68301 16.5547 9.69531 16.5793 9.69531 16.6094C9.69531 16.6395 9.70762 16.6641 9.72266 16.6641C9.7377 16.6641 9.75 16.6887 9.75 16.7188C9.75 16.7488 9.7623 16.7734 9.77734 16.7734C9.79238 16.7734 9.80469 16.7953 9.80469 16.8221C9.80469 16.8489 9.8293 16.8885 9.85938 16.9102C9.88945 16.9318 9.91406 16.9715 9.91406 16.9982C9.91406 17.025 9.92637 17.0469 9.94141 17.0469C9.95645 17.0469 9.96875 17.0688 9.96875 17.0955C9.96875 17.1223 9.99336 17.1619 10.0234 17.1836C10.0535 17.2053 10.0781 17.2422 10.0781 17.2656C10.0781 17.2891 10.1027 17.326 10.1328 17.3477C10.1629 17.3693 10.1875 17.4063 10.1875 17.4297C10.1875 17.4531 10.2121 17.49 10.2422 17.5117C10.2723 17.5334 10.2969 17.5681 10.2969 17.5888C10.2969 17.6095 10.3338 17.661 10.3789 17.7031C10.424 17.7453 10.4609 17.7942 10.4609 17.812C10.4609 17.8296 10.5102 17.8914 10.5703 17.9492C10.6305 18.007 10.6797 18.0677 10.6797 18.084C10.6797 18.1226 11.5724 19.0156 11.6109 19.0156C11.6271 19.0156 11.7002 19.0771 11.7734 19.1523C11.8467 19.2275 11.9231 19.2891 11.9434 19.2891C11.9636 19.2891 11.9978 19.3137 12.0195 19.3438C12.0412 19.3738 12.0781 19.3984 12.1016 19.3984C12.125 19.3984 12.1619 19.423 12.1836 19.4531C12.2053 19.4832 12.2422 19.5078 12.2656 19.5078C12.2891 19.5078 12.326 19.5324 12.3477 19.5625C12.3693 19.5926 12.409 19.6172 12.4357 19.6172C12.4625 19.6172 12.4844 19.6295 12.4844 19.6445C12.4844 19.6596 12.5063 19.6719 12.533 19.6719C12.5598 19.6719 12.5994 19.6965 12.6211 19.7266C12.6428 19.7566 12.6824 19.7812 12.7092 19.7812C12.7359 19.7812 12.7578 19.7936 12.7578 19.8086C12.7578 19.8236 12.7824 19.8359 12.8125 19.8359C12.8426 19.8359 12.8672 19.8482 12.8672 19.8633C12.8672 19.8783 12.8918 19.8906 12.9219 19.8906C12.952 19.8906 12.9766 19.9029 12.9766 19.918C12.9766 19.933 13.0012 19.9453 13.0312 19.9453C13.0613 19.9453 13.0859 19.9576 13.0859 19.9727C13.0859 19.9877 13.1105 20 13.1406 20C13.1707 20 13.1953 20.0123 13.1953 20.0273C13.1953 20.0424 13.2199 20.0547 13.25 20.0547C13.2801 20.0547 13.3047 20.067 13.3047 20.082C13.3047 20.0971 13.3416 20.1094 13.3867 20.1094C13.4318 20.1094 13.4688 20.1217 13.4688 20.1367C13.4688 20.1518 13.4934 20.1641 13.5234 20.1641C13.5535 20.1641 13.5781 20.1764 13.5781 20.1914C13.5781 20.2064 13.615 20.2188 13.6602 20.2188C13.7053 20.2188 13.7422 20.2311 13.7422 20.2461C13.7422 20.2611 13.7791 20.2734 13.8242 20.2734C13.8693 20.2734 13.9062 20.2857 13.9062 20.3008C13.9062 20.3158 13.9432 20.3281 13.9883 20.3281C14.0334 20.3281 14.0703 20.3404 14.0703 20.3555C14.0703 20.3705 14.1072 20.3828 14.1523 20.3828C14.1975 20.3828 14.2344 20.3951 14.2344 20.4102C14.2344 20.4252 14.2836 20.4375 14.3438 20.4375C14.4039 20.4375 14.4531 20.4498 14.4531 20.4648C14.4531 20.4799 14.5023 20.4922 14.5625 20.4922C14.6227 20.4922 14.6719 20.5045 14.6719 20.5195C14.6719 20.5346 14.7211 20.5469 14.7812 20.5469C14.8414 20.5469 14.8906 20.5592 14.8906 20.5742C14.8906 20.5894 14.9636 20.6016 15.0547 20.6016C15.1458 20.6016 15.2188 20.6137 15.2188 20.6289C15.2188 20.6445 15.3008 20.6562 15.4102 20.6562C15.5195 20.6562 15.6016 20.668 15.6016 20.6836C15.6016 20.7002 15.72 20.7109 15.9023 20.7109C16.0846 20.7109 16.2031 20.7217 16.2031 20.7383C16.2031 20.7533 16.2594 20.7656 16.3281 20.7656C16.4536 20.7656 16.5312 20.8096 16.5312 20.8807C16.5312 20.901 16.5559 20.9353 16.5859 20.957C16.616 20.9787 16.6406 21.0156 16.6406 21.0391C16.6406 21.0625 16.6652 21.0994 16.6953 21.1211C16.7254 21.1428 16.75 21.1824 16.75 21.2092C16.75 21.2359 16.7623 21.2578 16.7773 21.2578C16.7924 21.2578 16.8047 21.2797 16.8047 21.3065C16.8047 21.3332 16.8293 21.3728 16.8594 21.3945C16.8895 21.4162 16.9141 21.4531 16.9141 21.4766C16.9141 21.5 16.9387 21.5369 16.9688 21.5586C16.9988 21.5803 17.0234 21.6199 17.0234 21.6467C17.0234 21.6734 17.0357 21.6953 17.0508 21.6953C17.0658 21.6953 17.0781 21.7199 17.0781 21.75C17.0781 21.7801 17.0904 21.8047 17.1055 21.8047C17.1205 21.8047 17.1328 21.8266 17.1328 21.8533C17.1328 21.8801 17.1574 21.9197 17.1875 21.9414C17.2176 21.9631 17.2422 22.0027 17.2422 22.0295C17.2422 22.0562 17.2545 22.0781 17.2695 22.0781C17.2846 22.0781 17.2969 22.1027 17.2969 22.1328C17.2969 22.1629 17.3092 22.1875 17.3242 22.1875C17.3393 22.1875 17.3516 22.2121 17.3516 22.2422C17.3516 22.2723 17.3639 22.2969 17.3789 22.2969C17.3939 22.2969 17.4062 22.3215 17.4062 22.3516C17.4062 22.3816 17.4186 22.4062 17.4336 22.4062C17.4486 22.4062 17.4609 22.4309 17.4609 22.4609C17.4609 22.491 17.4732 22.5156 17.4883 22.5156C17.5033 22.5156 17.5156 22.5525 17.5156 22.5977C17.5156 22.6428 17.5279 22.6797 17.543 22.6797C17.558 22.6797 17.5703 22.7043 17.5703 22.7344C17.5703 22.7645 17.5826 22.7891 17.5977 22.7891C17.6127 22.7891 17.625 22.826 17.625 22.8711C17.625 22.9162 17.6373 22.9531 17.6523 22.9531C17.6674 22.9531 17.6797 23.0023 17.6797 23.0625C17.6797 23.1227 17.692 23.1719 17.707 23.1719C17.7221 23.1719 17.7344 23.2211 17.7344 23.2812C17.7344 23.3414 17.7467 23.3906 17.7617 23.3906C17.7768 23.3906 17.7891 23.4521 17.7891 23.5273C17.7891 23.6025 17.8014 23.6641 17.8164 23.6641C17.8332 23.6641 17.8438 23.8008 17.8438 24.0195C17.8438 24.2383 17.8332 24.375 17.8164 24.375C17.8014 24.375 17.7891 24.4242 17.7891 24.4844C17.7891 24.5445 17.7768 24.5938 17.7617 24.5938C17.7467 24.5938 17.7344 24.6307 17.7344 24.6758C17.7344 24.7209 17.7221 24.7578 17.707 24.7578C17.692 24.7578 17.6797 24.7947 17.6797 24.8398C17.6797 24.885 17.6674 24.9219 17.6523 24.9219C17.6373 24.9219 17.625 24.9465 17.625 24.9766C17.625 25.0066 17.6127 25.0312 17.5977 25.0312C17.5826 25.0312 17.5703 25.0559 17.5703 25.0859C17.5703 25.116 17.558 25.1406 17.543 25.1406C17.5279 25.1406 17.5156 25.1625 17.5156 25.1893C17.5156 25.216 17.491 25.2557 17.4609 25.2773C17.4309 25.299 17.4062 25.3359 17.4062 25.3594C17.4062 25.3828 17.3816 25.4197 17.3516 25.4414C17.3215 25.4631 17.2969 25.5 17.2969 25.5234C17.2969 25.5469 17.2723 25.5838 17.2422 25.6055C17.2121 25.6272 17.1875 25.6616 17.1875 25.682C17.1875 25.7024 17.1383 25.7664 17.0781 25.8242C17.018 25.882 16.9688 25.9427 16.9688 25.9591C16.9688 25.9978 16.4044 26.5625 16.3657 26.5625C16.3496 26.5625 16.2764 26.624 16.2031 26.6992C16.1299 26.7744 16.0534 26.8359 16.0332 26.8359C16.013 26.8359 15.9787 26.8605 15.957 26.8906C15.9353 26.9207 15.9006 26.9453 15.8799 26.9453C15.8592 26.9453 15.8078 26.9822 15.7656 27.0273C15.7235 27.0725 15.6693 27.1094 15.6453 27.1094C15.6212 27.1094 15.6016 27.1217 15.6016 27.1367C15.6016 27.1518 15.5797 27.1641 15.5529 27.1641C15.5261 27.1641 15.4865 27.1887 15.4648 27.2188C15.4432 27.2488 15.4035 27.2734 15.3768 27.2734C15.35 27.2734 15.3281 27.2857 15.3281 27.3008C15.3281 27.3158 15.3035 27.3281 15.2734 27.3281C15.2434 27.3281 15.2188 27.3404 15.2188 27.3555C15.2188 27.3705 15.1941 27.3828 15.1641 27.3828C15.134 27.3828 15.1094 27.3951 15.1094 27.4102C15.1094 27.4252 15.0875 27.4375 15.0607 27.4375C15.034 27.4375 14.9943 27.4621 14.9727 27.4922C14.951 27.5223 14.9169 27.5469 14.897 27.5469C14.8471 27.5469 14.7266 27.6717 14.7266 27.7234C14.7266 27.7466 14.7143 27.7656 14.6992 27.7656C14.6842 27.7656 14.6719 27.7902 14.6719 27.8203C14.6719 27.8504 14.6596 27.875 14.6445 27.875C14.6295 27.875 14.6172 27.8996 14.6172 27.9297C14.6172 27.9598 14.6049 27.9844 14.5898 27.9844C14.5718 27.9844 14.5625 28.905 14.5625 30.6914C14.5625 32.4779 14.5718 33.3984 14.5898 33.3984C14.6049 33.3984 14.6172 33.423 14.6172 33.4531C14.6172 33.4832 14.6295 33.5078 14.6445 33.5078C14.6596 33.5078 14.6719 33.5324 14.6719 33.5625C14.6719 33.5926 14.6842 33.6172 14.6992 33.6172C14.7143 33.6172 14.7266 33.6362 14.7266 33.6594C14.7266 33.7141 14.8484 33.8359 14.9031 33.8359C14.9263 33.8359 14.9453 33.8482 14.9453 33.8633C14.9453 33.8783 14.9699 33.8906 15 33.8906C15.0301 33.8906 15.0547 33.9029 15.0547 33.918C15.0547 33.933 15.0793 33.9453 15.1094 33.9453C15.1395 33.9453 15.1641 33.9576 15.1641 33.9727C15.1641 33.9908 16.8958 34 20.3047 34C23.7136 34 25.4453 33.9908 25.4453 33.9727C25.4453 33.9576 25.4699 33.9453 25.5 33.9453C25.5301 33.9453 25.5547 33.933 25.5547 33.918C25.5547 33.9029 25.5793 33.8906 25.6094 33.8906C25.6395 33.8906 25.6641 33.8783 25.6641 33.8633C25.6641 33.8482 25.6831 33.8359 25.7063 33.8359C25.761 33.8359 25.8828 33.7141 25.8828 33.6594C25.8828 33.6362 25.8951 33.6172 25.9102 33.6172C25.9252 33.6172 25.9375 33.5926 25.9375 33.5625C25.9375 33.5324 25.9498 33.5078 25.9648 33.5078C25.9799 33.5078 25.9922 33.4832 25.9922 33.4531C25.9922 33.423 26.0045 33.3984 26.0195 33.3984C26.0376 33.3984 26.0469 32.4779 26.0469 30.6914C26.0469 28.905 26.0376 27.9844 26.0195 27.9844C26.0045 27.9844 25.9922 27.9598 25.9922 27.9297C25.9922 27.8996 25.9799 27.875 25.9648 27.875C25.9498 27.875 25.9375 27.8504 25.9375 27.8203C25.9375 27.7902 25.9252 27.7656 25.9102 27.7656C25.8951 27.7656 25.8828 27.7466 25.8828 27.7234C25.8828 27.6717 25.7623 27.5469 25.7124 27.5469C25.6924 27.5469 25.6584 27.5223 25.6367 27.4922C25.615 27.4621 25.5754 27.4375 25.5486 27.4375C25.5219 27.4375 25.5 27.4252 25.5 27.4102C25.5 27.3951 25.4754 27.3828 25.4453 27.3828C25.4152 27.3828 25.3906 27.3705 25.3906 27.3555C25.3906 27.3404 25.366 27.3281 25.3359 27.3281C25.3059 27.3281 25.2812 27.3158 25.2812 27.3008C25.2812 27.2857 25.2593 27.2734 25.2326 27.2734C25.2058 27.2734 25.1662 27.2488 25.1445 27.2188C25.1228 27.1887 25.0859 27.1641 25.0625 27.1641C25.0391 27.1641 25.0022 27.1395 24.9805 27.1094C24.9588 27.0793 24.9219 27.0547 24.8984 27.0547C24.875 27.0547 24.8381 27.0301 24.8164 27C24.7947 26.9699 24.7578 26.9453 24.7344 26.9453C24.7109 26.9453 24.674 26.9207 24.6523 26.8906C24.6307 26.8605 24.5964 26.8359 24.5762 26.8359C24.556 26.8359 24.4795 26.7744 24.4062 26.6992C24.333 26.624 24.2598 26.5625 24.2436 26.5625C24.205 26.5625 23.6406 25.9978 23.6406 25.9591C23.6406 25.9427 23.5914 25.882 23.5312 25.8242C23.4711 25.7664 23.4219 25.7024 23.4219 25.682C23.4219 25.6616 23.3973 25.6272 23.3672 25.6055C23.3371 25.5838 23.3125 25.5469 23.3125 25.5234C23.3125 25.5 23.2879 25.4631 23.2578 25.4414C23.2277 25.4197 23.2031 25.3828 23.2031 25.3594C23.2031 25.3359 23.1785 25.299 23.1484 25.2773C23.1184 25.2557 23.0938 25.216 23.0938 25.1893C23.0938 25.1625 23.0814 25.1406 23.0664 25.1406C23.0514 25.1406 23.0391 25.116 23.0391 25.0859C23.0391 25.0559 23.0268 25.0312 23.0117 25.0312C22.9967 25.0312 22.9844 25.0066 22.9844 24.9766C22.9844 24.9465 22.9721 24.9219 22.957 24.9219C22.942 24.9219 22.9297 24.885 22.9297 24.8398C22.9297 24.7947 22.9174 24.7578 22.9023 24.7578C22.8873 24.7578 22.875 24.7209 22.875 24.6758C22.875 24.6307 22.8627 24.5938 22.8477 24.5938C22.8326 24.5938 22.8203 24.5445 22.8203 24.4844C22.8203 24.4242 22.808 24.375 22.793 24.375C22.7762 24.375 22.7656 24.2383 22.7656 24.0195C22.7656 23.8008 22.7762 23.6641 22.793 23.6641C22.808 23.6641 22.8203 23.6025 22.8203 23.5273C22.8203 23.4521 22.8326 23.3906 22.8477 23.3906C22.8627 23.3906 22.875 23.3291 22.875 23.2539C22.875 23.1787 22.8873 23.1172 22.9023 23.1172C22.9174 23.1172 22.9297 23.0803 22.9297 23.0352C22.9297 22.99 22.942 22.9531 22.957 22.9531C22.9721 22.9531 22.9844 22.9162 22.9844 22.8711C22.9844 22.826 22.9967 22.7891 23.0117 22.7891C23.0268 22.7891 23.0391 22.7645 23.0391 22.7344C23.0391 22.7043 23.0514 22.6797 23.0664 22.6797C23.0814 22.6797 23.0938 22.6428 23.0938 22.5977C23.0938 22.5525 23.1061 22.5156 23.1211 22.5156C23.1361 22.5156 23.1484 22.491 23.1484 22.4609C23.1484 22.4309 23.1607 22.4062 23.1758 22.4062C23.1908 22.4062 23.2031 22.3816 23.2031 22.3516C23.2031 22.3215 23.2154 22.2969 23.2305 22.2969C23.2455 22.2969 23.2578 22.2723 23.2578 22.2422C23.2578 22.2121 23.2701 22.1875 23.2852 22.1875C23.3002 22.1875 23.3125 22.1629 23.3125 22.1328C23.3125 22.1027 23.3248 22.0781 23.3398 22.0781C23.3549 22.0781 23.3672 22.0562 23.3672 22.0295C23.3672 22.0027 23.3918 21.9631 23.4219 21.9414C23.452 21.9197 23.4766 21.8801 23.4766 21.8533C23.4766 21.8266 23.4889 21.8047 23.5039 21.8047C23.5189 21.8047 23.5312 21.7801 23.5312 21.75C23.5312 21.7199 23.5436 21.6953 23.5586 21.6953C23.5736 21.6953 23.5859 21.6734 23.5859 21.6467C23.5859 21.6199 23.6105 21.5803 23.6406 21.5586C23.6707 21.5369 23.6953 21.5 23.6953 21.4766C23.6953 21.4531 23.7199 21.4162 23.75 21.3945C23.7801 21.3728 23.8047 21.3332 23.8047 21.3065C23.8047 21.2797 23.817 21.2578 23.832 21.2578C23.8471 21.2578 23.8594 21.2359 23.8594 21.2092C23.8594 21.1824 23.884 21.1428 23.9141 21.1211C23.9441 21.0994 23.9688 21.0625 23.9688 21.0391C23.9688 21.0156 23.9934 20.9787 24.0234 20.957C24.0535 20.9353 24.0781 20.901 24.0781 20.8807C24.0781 20.8096 24.1558 20.7656 24.2813 20.7656C24.35 20.7656 24.4062 20.7533 24.4062 20.7383C24.4062 20.7217 24.5247 20.7109 24.707 20.7109C24.8893 20.7109 25.0078 20.7002 25.0078 20.6836C25.0078 20.668 25.0898 20.6562 25.1992 20.6562C25.3086 20.6562 25.3906 20.6445 25.3906 20.6289C25.3906 20.6139 25.4521 20.6016 25.5273 20.6016C25.6025 20.6016 25.6641 20.5893 25.6641 20.5742C25.6641 20.5592 25.7256 20.5469 25.8008 20.5469C25.876 20.5469 25.9375 20.5346 25.9375 20.5195C25.9375 20.5045 25.9867 20.4922 26.0469 20.4922C26.107 20.4922 26.1562 20.4799 26.1562 20.4648C26.1562 20.4498 26.2055 20.4375 26.2656 20.4375C26.3258 20.4375 26.375 20.4252 26.375 20.4102C26.375 20.3951 26.4119 20.3828 26.457 20.3828C26.5021 20.3828 26.5391 20.3705 26.5391 20.3555C26.5391 20.3404 26.576 20.3281 26.6211 20.3281C26.6662 20.3281 26.7031 20.3158 26.7031 20.3008C26.7031 20.2857 26.74 20.2734 26.7852 20.2734C26.8303 20.2734 26.8672 20.2611 26.8672 20.2461C26.8672 20.2311 26.8918 20.2188 26.9219 20.2188C26.952 20.2188 26.9766 20.2064 26.9766 20.1914C26.9766 20.1764 27.0135 20.1641 27.0586 20.1641C27.1037 20.1641 27.1406 20.1518 27.1406 20.1367C27.1406 20.1217 27.1652 20.1094 27.1953 20.1094C27.2254 20.1094 27.25 20.0971 27.25 20.082C27.25 20.067 27.2746 20.0547 27.3047 20.0547C27.3348 20.0547 27.3594 20.0424 27.3594 20.0273C27.3594 20.0123 27.3963 20 27.4414 20C27.4865 20 27.5234 19.9877 27.5234 19.9727C27.5234 19.9576 27.548 19.9453 27.5781 19.9453C27.6082 19.9453 27.6328 19.933 27.6328 19.918C27.6328 19.9029 27.6547 19.8906 27.6815 19.8906C27.7082 19.8906 27.7478 19.866 27.7695 19.8359C27.7912 19.8059 27.8308 19.7812 27.8576 19.7812C27.8843 19.7812 27.9062 19.7689 27.9062 19.7539C27.9062 19.7389 27.9309 19.7266 27.9609 19.7266C27.991 19.7266 28.0156 19.7143 28.0156 19.6992C28.0156 19.6842 28.0375 19.6719 28.0643 19.6719C28.091 19.6719 28.1307 19.6473 28.1523 19.6172C28.174 19.5871 28.2109 19.5625 28.2344 19.5625C28.2578 19.5625 28.2947 19.5379 28.3164 19.5078C28.3381 19.4777 28.375 19.4531 28.3984 19.4531C28.4219 19.4531 28.4588 19.4285 28.4805 19.3984C28.5022 19.3684 28.5369 19.3438 28.5576 19.3438C28.5783 19.3438 28.6297 19.3068 28.6719 19.2617C28.714 19.2166 28.7628 19.1797 28.7803 19.1797C28.7978 19.1797 28.8721 19.1182 28.9453 19.043C29.0186 18.9678 29.0917 18.9062 29.1079 18.9062C29.1462 18.9062 29.7109 18.3417 29.7109 18.3035C29.7109 18.2874 29.7848 18.2018 29.875 18.1133C29.9652 18.0247 30.0391 17.938 30.0391 17.9207C30.0391 17.9033 30.076 17.8546 30.1211 17.8125C30.1662 17.7704 30.2031 17.7189 30.2031 17.6982C30.2031 17.6775 30.2277 17.6428 30.2578 17.6211C30.2879 17.5994 30.3125 17.5647 30.3125 17.544C30.3125 17.5233 30.3494 17.4718 30.3945 17.4297C30.4396 17.3876 30.4766 17.3334 30.4766 17.3093C30.4766 17.2853 30.4889 17.2656 30.5039 17.2656C30.5189 17.2656 30.5312 17.2437 30.5312 17.217C30.5312 17.1902 30.5559 17.1506 30.5859 17.1289C30.616 17.1072 30.6406 17.0703 30.6406 17.0469C30.6406 17.0234 30.6652 16.9865 30.6953 16.9648C30.7254 16.9432 30.75 16.9035 30.75 16.8768C30.75 16.85 30.7623 16.8281 30.7773 16.8281C30.7924 16.8281 30.8047 16.8035 30.8047 16.7734C30.8047 16.7434 30.817 16.7188 30.832 16.7188C30.8471 16.7188 30.8594 16.6941 30.8594 16.6641C30.8594 16.634 30.8717 16.6094 30.8867 16.6094C30.9018 16.6094 30.9141 16.5848 30.9141 16.5547C30.9141 16.5246 30.9264 16.5 30.9414 16.5C30.9564 16.5 30.9688 16.4754 30.9688 16.4453C30.9688 16.4152 30.9811 16.3906 30.9961 16.3906C31.0111 16.3906 31.0234 16.366 31.0234 16.3359C31.0234 16.3059 31.0357 16.2812 31.0508 16.2812C31.0658 16.2812 31.0781 16.2566 31.0781 16.2266C31.0781 16.1965 31.0904 16.1719 31.1055 16.1719C31.1205 16.1719 31.1328 16.1473 31.1328 16.1172C31.1328 16.0871 31.1451 16.0625 31.1602 16.0625C31.1752 16.0625 31.1875 16.0379 31.1875 16.0078C31.1875 15.9777 31.1998 15.9531 31.2148 15.9531C31.2299 15.9531 31.2422 15.9285 31.2422 15.8984C31.2422 15.8684 31.2545 15.8438 31.2695 15.8438C31.2846 15.8438 31.2969 15.8068 31.2969 15.7617C31.2969 15.7166 31.3092 15.6797 31.3242 15.6797C31.3393 15.6797 31.3516 15.6551 31.3516 15.625C31.3516 15.5949 31.3639 15.5703 31.3789 15.5703C31.3939 15.5703 31.4062 15.5334 31.4062 15.4883C31.4062 15.4432 31.4186 15.4062 31.4336 15.4062C31.4486 15.4062 31.4609 15.3816 31.4609 15.3516C31.4609 15.3215 31.4732 15.2969 31.4883 15.2969C31.5033 15.2969 31.5156 15.26 31.5156 15.2148C31.5156 15.1697 31.5279 15.1328 31.543 15.1328C31.558 15.1328 31.5703 15.0959 31.5703 15.0508C31.5703 15.0057 31.5826 14.9688 31.5977 14.9688C31.6127 14.9688 31.625 14.9318 31.625 14.8867C31.625 14.8416 31.6373 14.8047 31.6523 14.8047C31.6674 14.8047 31.6797 14.7678 31.6797 14.7227C31.6797 14.6775 31.692 14.6406 31.707 14.6406C31.7221 14.6406 31.7344 14.6037 31.7344 14.5586C31.7344 14.5135 31.7467 14.4766 31.7617 14.4766C31.7768 14.4766 31.7891 14.4396 31.7891 14.3945C31.7891 14.3494 31.8014 14.3125 31.8164 14.3125C31.8314 14.3125 31.8438 14.2633 31.8438 14.2031C31.8438 14.143 31.8561 14.0938 31.8711 14.0938C31.8861 14.0938 31.8984 14.0568 31.8984 14.0117C31.8984 13.9666 31.9107 13.9297 31.9258 13.9297C31.9408 13.9297 31.9531 13.8805 31.9531 13.8203C31.9531 13.7602 31.9654 13.7109 31.9805 13.7109C31.9955 13.7109 32.0078 13.6617 32.0078 13.6016C32.0078 13.5414 32.0201 13.4922 32.0352 13.4922C32.0502 13.4922 32.0625 13.443 32.0625 13.3828C32.0625 13.3227 32.0748 13.2734 32.0898 13.2734C32.1049 13.2734 32.1172 13.2119 32.1172 13.1367C32.1172 13.0615 32.1295 13 32.1445 13C32.1596 13 32.1719 12.9385 32.1719 12.8633C32.1719 12.7881 32.1842 12.7266 32.1992 12.7266C32.2144 12.7266 32.2266 12.6536 32.2266 12.5625C32.2266 12.4714 32.2387 12.3984 32.2539 12.3984C32.2689 12.3984 32.2812 12.3369 32.2812 12.2617C32.2812 12.1865 32.2936 12.125 32.3086 12.125C32.3238 12.125 32.3359 12.0521 32.3359 11.9609C32.3359 11.8698 32.3481 11.7969 32.3633 11.7969C32.3785 11.7969 32.3906 11.7239 32.3906 11.6328C32.3906 11.5417 32.4028 11.4688 32.418 11.4688C32.4336 11.4688 32.4453 11.3867 32.4453 11.2773C32.4453 11.168 32.457 11.0859 32.4727 11.0859C32.4883 11.0859 32.5 11.0039 32.5 10.8945C32.5 10.7852 32.5117 10.7031 32.5273 10.7031C32.543 10.7031 32.5547 10.6211 32.5547 10.5117C32.5547 10.4023 32.5664 10.3203 32.582 10.3203C32.598 10.3203 32.6094 10.2292 32.6094 10.1016C32.6094 9.97395 32.598 9.88281 32.582 9.88281C32.567 9.88281 32.5547 9.8582 32.5547 9.82812C32.5547 9.79805 32.5424 9.77344 32.5273 9.77344C32.5123 9.77344 32.5 9.74883 32.5 9.71875C32.5 9.68867 32.4877 9.66406 32.4727 9.66406C32.4576 9.66406 32.4453 9.64506 32.4453 9.62182C32.4453 9.57014 32.3248 9.44531 32.2749 9.44531C32.2549 9.44531 32.2209 9.4207 32.1992 9.39062C32.1761 9.35852 32.1284 9.33594 32.0838 9.33594C32.042 9.33594 32.0078 9.32363 32.0078 9.30859C32.0078 9.29057 31.2279 9.28125 29.7227 9.28125C27.1997 9.28125 27.3594 9.29312 27.3594 9.10546C27.3594 9.05175 27.3471 9.00781 27.332 9.00781C27.317 9.00781 27.3047 8.9709 27.3047 8.92578C27.3047 8.88066 27.2924 8.84375 27.2773 8.84375C27.2623 8.84375 27.25 8.80684 27.25 8.76172C27.25 8.7166 27.2377 8.67969 27.2227 8.67969C27.2076 8.67969 27.1953 8.64277 27.1953 8.59766C27.1953 8.55254 27.183 8.51562 27.168 8.51562C27.1529 8.51562 27.1406 8.47871 27.1406 8.43359C27.1406 8.38848 27.1283 8.35156 27.1133 8.35156C27.0982 8.35156 27.0859 8.32695 27.0859 8.29688C27.0859 8.2668 27.0736 8.24219 27.0586 8.24219C27.0436 8.24219 27.0312 8.20527 27.0312 8.16016C27.0312 8.11504 27.0189 8.07812 27.0039 8.07812C26.9889 8.07812 26.9766 8.05352 26.9766 8.02344C26.9766 7.99336 26.9643 7.96875 26.9492 7.96875C26.9342 7.96875 26.9219 7.94414 26.9219 7.91406C26.9219 7.88398 26.9096 7.85938 26.8945 7.85938C26.8795 7.85938 26.8672 7.83477 26.8672 7.80469C26.8672 7.77461 26.8549 7.75 26.8398 7.75C26.8248 7.75 26.8125 7.72539 26.8125 7.69531C26.8125 7.66523 26.8002 7.64062 26.7852 7.64062C26.7701 7.64062 26.7578 7.61602 26.7578 7.58594C26.7578 7.55586 26.7455 7.53125 26.7305 7.53125C26.7154 7.53125 26.7031 7.50664 26.7031 7.47656C26.7031 7.44648 26.6908 7.42188 26.6758 7.42188C26.6607 7.42188 26.6484 7.39997 26.6484 7.37323C26.6484 7.34646 26.6238 7.30684 26.5938 7.28516C26.5637 7.26347 26.5391 7.22656 26.5391 7.20312C26.5391 7.17969 26.5145 7.14278 26.4844 7.12109C26.4543 7.09941 26.4297 7.0625 26.4297 7.03906C26.4297 7.01563 26.4051 6.97871 26.375 6.95703C26.3449 6.93535 26.3203 6.89843 26.3203 6.875C26.3203 6.85157 26.2957 6.81465 26.2656 6.79297C26.2355 6.77129 26.2109 6.73713 26.2109 6.71706C26.2109 6.69699 26.1371 6.6081 26.0469 6.51953C25.9566 6.43096 25.8828 6.34494 25.8828 6.3284C25.8828 6.28621 25.7561 6.16406 25.7124 6.16406C25.6924 6.16406 25.6584 6.13945 25.6367 6.10938C25.6136 6.07727 25.5659 6.05469 25.5213 6.05469C25.4795 6.05469 25.4453 6.04238 25.4453 6.02734C25.4453 6.00921 23.7136 6 20.3047 6C16.8958 6 15.1641 6.00921 15.1641 6.02734ZM24.913 7.73543C24.9652 7.78754 25.0078 7.84636 25.0078 7.8661C25.0078 7.88584 25.0324 7.91972 25.0625 7.94141C25.0926 7.96309 25.1172 8 25.1172 8.02344C25.1172 8.04687 25.1418 8.08379 25.1719 8.10547C25.202 8.12715 25.2266 8.16677 25.2266 8.19354C25.2266 8.22029 25.2389 8.24219 25.2539 8.24219C25.2689 8.24219 25.2812 8.2668 25.2812 8.29688C25.2812 8.32695 25.2936 8.35156 25.3086 8.35156C25.3236 8.35156 25.3359 8.37617 25.3359 8.40625C25.3359 8.43633 25.3482 8.46094 25.3633 8.46094C25.3783 8.46094 25.3906 8.48555 25.3906 8.51562C25.3906 8.5457 25.4029 8.57031 25.418 8.57031C25.433 8.57031 25.4453 8.59492 25.4453 8.625C25.4453 8.65508 25.4576 8.67969 25.4727 8.67969C25.4877 8.67969 25.5 8.7043 25.5 8.73438C25.5 8.76445 25.5123 8.78906 25.5273 8.78906C25.5424 8.78906 25.5547 8.82598 25.5547 8.87109C25.5547 8.91621 25.567 8.95312 25.582 8.95312C25.5971 8.95312 25.6094 8.99004 25.6094 9.03516C25.6094 9.08027 25.6217 9.11719 25.6367 9.11719C25.6518 9.11719 25.6641 9.1541 25.6641 9.19922C25.6641 9.24434 25.6764 9.28125 25.6914 9.28125C25.7064 9.28125 25.7188 9.31816 25.7188 9.36328C25.7188 9.4084 25.7311 9.44531 25.7461 9.44531C25.7611 9.44531 25.7734 9.49453 25.7734 9.55469C25.7734 9.61484 25.7857 9.66406 25.8008 9.66406C25.8158 9.66406 25.8281 9.71328 25.8281 9.77344C25.8281 9.83359 25.8404 9.88281 25.8555 9.88281C25.8705 9.88281 25.8828 9.94434 25.8828 10.0195C25.8828 10.0947 25.8951 10.1562 25.9102 10.1562C25.9254 10.1562 25.9375 10.2292 25.9375 10.3203C25.9375 10.4114 25.9496 10.4844 25.9648 10.4844C25.9813 10.4844 25.9922 10.5938 25.9922 10.7578C25.9922 10.9219 26.0031 11.0312 26.0195 11.0312C26.0371 11.0312 26.0469 11.2864 26.0469 11.7422C26.0469 12.1979 26.0371 12.4531 26.0195 12.4531C26.003 12.4531 25.9922 12.5716 25.9922 12.7539C25.9922 12.9362 25.9814 13.0547 25.9648 13.0547C25.9492 13.0547 25.9375 13.1367 25.9375 13.2461C25.9375 13.3555 25.9258 13.4375 25.9102 13.4375C25.8951 13.4375 25.8828 13.499 25.8828 13.5742C25.8828 13.6494 25.8705 13.7109 25.8555 13.7109C25.8404 13.7109 25.8281 13.7725 25.8281 13.8477C25.8281 13.9229 25.8158 13.9844 25.8008 13.9844C25.7857 13.9844 25.7734 14.0336 25.7734 14.0938C25.7734 14.1539 25.7611 14.2031 25.7461 14.2031C25.7311 14.2031 25.7188 14.2523 25.7188 14.3125C25.7188 14.3727 25.7064 14.4219 25.6914 14.4219C25.6764 14.4219 25.6641 14.4711 25.6641 14.5312C25.6641 14.5914 25.6518 14.6406 25.6367 14.6406C25.6217 14.6406 25.6094 14.6775 25.6094 14.7227C25.6094 14.7678 25.5971 14.8047 25.582 14.8047C25.567 14.8047 25.5547 14.8416 25.5547 14.8867C25.5547 14.9318 25.5424 14.9688 25.5273 14.9688C25.5123 14.9688 25.5 15.0057 25.5 15.0508C25.5 15.0959 25.4877 15.1328 25.4727 15.1328C25.4576 15.1328 25.4453 15.1697 25.4453 15.2148C25.4453 15.26 25.433 15.2969 25.418 15.2969C25.4029 15.2969 25.3906 15.3338 25.3906 15.3789C25.3906 15.424 25.3783 15.4609 25.3633 15.4609C25.3482 15.4609 25.3359 15.4855 25.3359 15.5156C25.3359 15.5457 25.3236 15.5703 25.3086 15.5703C25.2936 15.5703 25.2812 15.6072 25.2812 15.6523C25.2812 15.6975 25.2689 15.7344 25.2539 15.7344C25.2389 15.7344 25.2266 15.759 25.2266 15.7891C25.2266 15.8191 25.2143 15.8438 25.1992 15.8438C25.1842 15.8438 25.1719 15.8807 25.1719 15.9258C25.1719 15.9709 25.1596 16.0078 25.1445 16.0078C25.1295 16.0078 25.1172 16.0324 25.1172 16.0625C25.1172 16.0926 25.1049 16.1172 25.0898 16.1172C25.0748 16.1172 25.0625 16.1418 25.0625 16.1719C25.0625 16.202 25.0502 16.2266 25.0352 16.2266C25.0201 16.2266 25.0078 16.2512 25.0078 16.2812C25.0078 16.3113 24.9955 16.3359 24.9805 16.3359C24.9654 16.3359 24.9531 16.3729 24.9531 16.418C24.9531 16.4631 24.9408 16.5 24.9258 16.5C24.9107 16.5 24.8984 16.5246 24.8984 16.5547C24.8984 16.5848 24.8861 16.6094 24.8711 16.6094C24.8561 16.6094 24.8438 16.6313 24.8438 16.658C24.8438 16.6848 24.8191 16.7244 24.7891 16.7461C24.759 16.7678 24.7344 16.8074 24.7344 16.8342C24.7344 16.8609 24.7221 16.8828 24.707 16.8828C24.692 16.8828 24.6797 16.9074 24.6797 16.9375C24.6797 16.9676 24.6674 16.9922 24.6523 16.9922C24.6373 16.9922 24.625 17.0168 24.625 17.0469C24.625 17.077 24.6127 17.1016 24.5977 17.1016C24.5826 17.1016 24.5703 17.1262 24.5703 17.1562C24.5703 17.1863 24.558 17.2109 24.543 17.2109C24.5279 17.2109 24.5156 17.2328 24.5156 17.2596C24.5156 17.2864 24.491 17.326 24.4609 17.3477C24.4309 17.3693 24.4062 17.409 24.4062 17.4357C24.4062 17.4625 24.3939 17.4844 24.3789 17.4844C24.3639 17.4844 24.3516 17.5063 24.3516 17.533C24.3516 17.5598 24.327 17.5994 24.2969 17.6211C24.2668 17.6428 24.2422 17.6797 24.2422 17.7031C24.2422 17.7266 24.2176 17.7635 24.1875 17.7852C24.1574 17.8068 24.1328 17.8465 24.1328 17.8732C24.1328 17.9 24.1205 17.9219 24.1055 17.9219C24.0904 17.9219 24.0781 17.9438 24.0781 17.9705C24.0781 17.9973 24.0535 18.0369 24.0234 18.0586C23.9934 18.0803 23.9688 18.1172 23.9688 18.1406C23.9688 18.1641 23.9441 18.201 23.9141 18.2227C23.884 18.2443 23.8594 18.279 23.8594 18.2998C23.8594 18.3205 23.8225 18.3719 23.7773 18.4141C23.7322 18.4562 23.6953 18.5077 23.6953 18.5284C23.6953 18.5491 23.6707 18.5838 23.6406 18.6055C23.6105 18.6272 23.5859 18.6619 23.5859 18.6826C23.5859 18.7033 23.549 18.7547 23.5039 18.7969C23.4588 18.839 23.4219 18.8905 23.4219 18.9112C23.4219 18.9319 23.3973 18.9666 23.3672 18.9883C23.3371 19.01 23.3125 19.0447 23.3125 19.0654C23.3125 19.0861 23.2756 19.1376 23.2305 19.1797C23.1854 19.2218 23.1484 19.2733 23.1484 19.294C23.1484 19.3147 23.1238 19.3494 23.0938 19.3711C23.0637 19.3928 23.0391 19.4324 23.0391 19.4592C23.0391 19.4859 23.0268 19.5078 23.0117 19.5078C22.9967 19.5078 22.9844 19.5297 22.9844 19.5565C22.9844 19.5832 22.9598 19.6228 22.9297 19.6445C22.8996 19.6662 22.875 19.7031 22.875 19.7266C22.875 19.75 22.8504 19.7869 22.8203 19.8086C22.7902 19.8303 22.7656 19.8672 22.7656 19.8906C22.7656 19.9141 22.741 19.951 22.7109 19.9727C22.6809 19.9943 22.6562 20.0313 22.6562 20.0547C22.6562 20.0781 22.6316 20.115 22.6016 20.1367C22.5715 20.1584 22.5469 20.1953 22.5469 20.2188C22.5469 20.2422 22.5223 20.2791 22.4922 20.3008C22.4621 20.3225 22.4375 20.3621 22.4375 20.3889C22.4375 20.4156 22.4252 20.4375 22.4102 20.4375C22.3951 20.4375 22.3828 20.4594 22.3828 20.4861C22.3828 20.5129 22.3582 20.5525 22.3281 20.5742C22.298 20.5959 22.2734 20.6328 22.2734 20.6562C22.2734 20.6797 22.2488 20.7166 22.2188 20.7383C22.1887 20.76 22.1641 20.7996 22.1641 20.8264C22.1641 20.8531 22.1518 20.875 22.1367 20.875C22.1217 20.875 22.1094 20.8996 22.1094 20.9297C22.1094 20.9598 22.0971 20.9844 22.082 20.9844C22.067 20.9844 22.0547 21.0063 22.0547 21.033C22.0547 21.0598 22.0301 21.0994 22 21.1211C21.9699 21.1428 21.9453 21.1824 21.9453 21.2092C21.9453 21.2359 21.933 21.2578 21.918 21.2578C21.9029 21.2578 21.8906 21.2824 21.8906 21.3125C21.8906 21.3426 21.8783 21.3672 21.8633 21.3672C21.8482 21.3672 21.8359 21.3918 21.8359 21.4219C21.8359 21.452 21.8236 21.4766 21.8086 21.4766C21.7936 21.4766 21.7812 21.5012 21.7812 21.5312C21.7812 21.5613 21.7689 21.5859 21.7539 21.5859C21.7389 21.5859 21.7266 21.6105 21.7266 21.6406C21.7266 21.6707 21.7143 21.6953 21.6992 21.6953C21.6842 21.6953 21.6719 21.7199 21.6719 21.75C21.6719 21.7801 21.6596 21.8047 21.6445 21.8047C21.6295 21.8047 21.6172 21.8416 21.6172 21.8867C21.6172 21.9318 21.6049 21.9688 21.5898 21.9688C21.5748 21.9688 21.5625 21.9934 21.5625 22.0234C21.5625 22.0535 21.5502 22.0781 21.5352 22.0781C21.5201 22.0781 21.5078 22.115 21.5078 22.1602C21.5078 22.2053 21.4955 22.2422 21.4805 22.2422C21.4654 22.2422 21.4531 22.2668 21.4531 22.2969C21.4531 22.327 21.4408 22.3516 21.4258 22.3516C21.4107 22.3516 21.3984 22.3885 21.3984 22.4336C21.3984 22.4787 21.3861 22.5156 21.3711 22.5156C21.3561 22.5156 21.3438 22.5648 21.3438 22.625C21.3438 22.6852 21.3314 22.7344 21.3164 22.7344C21.3014 22.7344 21.2891 22.7836 21.2891 22.8438C21.2891 22.9039 21.2768 22.9531 21.2617 22.9531C21.2467 22.9531 21.2344 23.0023 21.2344 23.0625C21.2344 23.1227 21.2221 23.1719 21.207 23.1719C21.1911 23.1719 21.1797 23.263 21.1797 23.3906C21.1797 23.5182 21.1683 23.6094 21.1523 23.6094C21.1353 23.6094 21.125 23.7734 21.125 24.0469C21.125 24.3203 21.1353 24.4844 21.1523 24.4844C21.1675 24.4844 21.1797 24.5573 21.1797 24.6484C21.1797 24.7396 21.1918 24.8125 21.207 24.8125C21.2221 24.8125 21.2344 24.8617 21.2344 24.9219C21.2344 24.982 21.2467 25.0312 21.2617 25.0312C21.2768 25.0312 21.2891 25.0682 21.2891 25.1133C21.2891 25.1584 21.3014 25.1953 21.3164 25.1953C21.3314 25.1953 21.3438 25.2322 21.3438 25.2773C21.3438 25.3225 21.3561 25.3594 21.3711 25.3594C21.3861 25.3594 21.3984 25.384 21.3984 25.4141C21.3984 25.4441 21.4107 25.4688 21.4258 25.4688C21.4408 25.4688 21.4531 25.5057 21.4531 25.5508C21.4531 25.5959 21.4654 25.6328 21.4805 25.6328C21.4955 25.6328 21.5078 25.6574 21.5078 25.6875C21.5078 25.7176 21.5201 25.7422 21.5352 25.7422C21.5502 25.7422 21.5625 25.7668 21.5625 25.7969C21.5625 25.827 21.5748 25.8516 21.5898 25.8516C21.6049 25.8516 21.6172 25.8762 21.6172 25.9062C21.6172 25.9363 21.6295 25.9609 21.6445 25.9609C21.6596 25.9609 21.6719 25.9828 21.6719 26.0096C21.6719 26.0364 21.6965 26.076 21.7266 26.0977C21.7566 26.1193 21.7812 26.159 21.7812 26.1857C21.7812 26.2125 21.7936 26.2344 21.8086 26.2344C21.8236 26.2344 21.8359 26.2563 21.8359 26.283C21.8359 26.3098 21.8605 26.3494 21.8906 26.3711C21.9207 26.3928 21.9453 26.4275 21.9453 26.4482C21.9453 26.4689 21.9822 26.5204 22.0273 26.5625C22.0725 26.6046 22.1094 26.6539 22.1094 26.6719C22.1094 26.6899 22.1463 26.7391 22.1914 26.7812C22.2365 26.8234 22.2734 26.8719 22.2734 26.8891C22.2734 26.9063 22.3719 27.0177 22.4922 27.1367C22.6125 27.2557 22.7109 27.3598 22.7109 27.368C22.7109 27.3761 21.6404 27.3828 20.332 27.3828C18.2027 27.3828 17.9531 27.3784 17.9531 27.3405C17.9531 27.3172 18.0393 27.2132 18.1445 27.1094C18.2498 27.0056 18.3359 26.9068 18.3359 26.8898C18.3359 26.8729 18.3852 26.8117 18.4453 26.7539C18.5055 26.6961 18.5547 26.6321 18.5547 26.6117C18.5547 26.5913 18.5793 26.5568 18.6094 26.5352C18.6395 26.5135 18.6641 26.4766 18.6641 26.4531C18.6641 26.4297 18.6887 26.3928 18.7188 26.3711C18.7488 26.3494 18.7734 26.3125 18.7734 26.2891C18.7734 26.2656 18.798 26.2287 18.8281 26.207C18.8582 26.1853 18.8828 26.1457 18.8828 26.119C18.8828 26.0922 18.8951 26.0703 18.9102 26.0703C18.9252 26.0703 18.9375 26.0457 18.9375 26.0156C18.9375 25.9855 18.9498 25.9609 18.9648 25.9609C18.9799 25.9609 18.9922 25.9363 18.9922 25.9062C18.9922 25.8762 19.0045 25.8516 19.0195 25.8516C19.0346 25.8516 19.0469 25.827 19.0469 25.7969C19.0469 25.7668 19.0592 25.7422 19.0742 25.7422C19.0893 25.7422 19.1016 25.7176 19.1016 25.6875C19.1016 25.6574 19.1139 25.6328 19.1289 25.6328C19.1439 25.6328 19.1562 25.6082 19.1562 25.5781C19.1562 25.548 19.1686 25.5234 19.1836 25.5234C19.1986 25.5234 19.2109 25.4865 19.2109 25.4414C19.2109 25.3963 19.2232 25.3594 19.2383 25.3594C19.2533 25.3594 19.2656 25.3225 19.2656 25.2773C19.2656 25.2322 19.2779 25.1953 19.293 25.1953C19.308 25.1953 19.3203 25.1584 19.3203 25.1133C19.3203 25.0682 19.3326 25.0312 19.3477 25.0312C19.3627 25.0312 19.375 24.982 19.375 24.9219C19.375 24.8617 19.3873 24.8125 19.4023 24.8125C19.4175 24.8125 19.4297 24.7396 19.4297 24.6484C19.4297 24.5573 19.4418 24.4844 19.457 24.4844C19.4741 24.4844 19.4844 24.3203 19.4844 24.0469C19.4844 23.7734 19.4741 23.6094 19.457 23.6094C19.4414 23.6094 19.4297 23.5273 19.4297 23.418C19.4297 23.3086 19.418 23.2266 19.4023 23.2266C19.3873 23.2266 19.375 23.165 19.375 23.0898C19.375 23.0146 19.3627 22.9531 19.3477 22.9531C19.3326 22.9531 19.3203 22.9039 19.3203 22.8438C19.3203 22.7836 19.308 22.7344 19.293 22.7344C19.2779 22.7344 19.2656 22.6852 19.2656 22.625C19.2656 22.5648 19.2533 22.5156 19.2383 22.5156C19.2232 22.5156 19.2109 22.4787 19.2109 22.4336C19.2109 22.3885 19.1986 22.3516 19.1836 22.3516C19.1686 22.3516 19.1562 22.327 19.1562 22.2969C19.1562 22.2668 19.1439 22.2422 19.1289 22.2422C19.1139 22.2422 19.1016 22.2053 19.1016 22.1602C19.1016 22.115 19.0893 22.0781 19.0742 22.0781C19.0592 22.0781 19.0469 22.0535 19.0469 22.0234C19.0469 21.9934 19.0346 21.9688 19.0195 21.9688C19.0045 21.9688 18.9922 21.9318 18.9922 21.8867C18.9922 21.8416 18.9799 21.8047 18.9648 21.8047C18.9498 21.8047 18.9375 21.7801 18.9375 21.75C18.9375 21.7199 18.9252 21.6953 18.9102 21.6953C18.8951 21.6953 18.8828 21.6707 18.8828 21.6406C18.8828 21.6105 18.8705 21.5859 18.8555 21.5859C18.8404 21.5859 18.8281 21.5613 18.8281 21.5312C18.8281 21.5012 18.8158 21.4766 18.8008 21.4766C18.7857 21.4766 18.7734 21.452 18.7734 21.4219C18.7734 21.3918 18.7611 21.3672 18.7461 21.3672C18.7311 21.3672 18.7188 21.3426 18.7188 21.3125C18.7188 21.2824 18.7064 21.2578 18.6914 21.2578C18.6764 21.2578 18.6641 21.2359 18.6641 21.2092C18.6641 21.1824 18.6395 21.1428 18.6094 21.1211C18.5793 21.0994 18.5547 21.0598 18.5547 21.033C18.5547 21.0063 18.5424 20.9844 18.5273 20.9844C18.5123 20.9844 18.5 20.9598 18.5 20.9297C18.5 20.8996 18.4877 20.875 18.4727 20.875C18.4576 20.875 18.4453 20.8531 18.4453 20.8264C18.4453 20.7996 18.4207 20.76 18.3906 20.7383C18.3605 20.7166 18.3359 20.6797 18.3359 20.6562C18.3359 20.6328 18.3113 20.5959 18.2812 20.5742C18.2512 20.5525 18.2266 20.5129 18.2266 20.4861C18.2266 20.4594 18.2143 20.4375 18.1992 20.4375C18.1842 20.4375 18.1719 20.4156 18.1719 20.3889C18.1719 20.3621 18.1473 20.3225 18.1172 20.3008C18.0871 20.2791 18.0625 20.2422 18.0625 20.2188C18.0625 20.1953 18.0379 20.1584 18.0078 20.1367C17.9777 20.115 17.9531 20.0781 17.9531 20.0547C17.9531 20.0313 17.9285 19.9943 17.8984 19.9727C17.8684 19.951 17.8438 19.9141 17.8438 19.8906C17.8438 19.8672 17.8191 19.8303 17.7891 19.8086C17.759 19.7869 17.7344 19.75 17.7344 19.7266C17.7344 19.7031 17.7098 19.6662 17.6797 19.6445C17.6496 19.6228 17.625 19.5859 17.625 19.5625C17.625 19.5391 17.6004 19.5022 17.5703 19.4805C17.5402 19.4588 17.5156 19.4241 17.5156 19.4034C17.5156 19.3827 17.4787 19.3312 17.4336 19.2891C17.3885 19.2469 17.3516 19.1977 17.3516 19.1797C17.3516 19.1617 17.3146 19.1124 17.2695 19.0703C17.2244 19.0282 17.1875 18.9767 17.1875 18.956C17.1875 18.9353 17.1629 18.9006 17.1328 18.8789C17.1027 18.8572 17.0781 18.8225 17.0781 18.8018C17.0781 18.7811 17.0412 18.7296 16.9961 18.6875C16.951 18.6454 16.9141 18.5939 16.9141 18.5732C16.9141 18.5525 16.8895 18.5178 16.8594 18.4961C16.8293 18.4744 16.8047 18.4375 16.8047 18.4141C16.8047 18.3906 16.7801 18.3537 16.75 18.332C16.7199 18.3103 16.6953 18.2734 16.6953 18.25C16.6953 18.2266 16.6707 18.1897 16.6406 18.168C16.6105 18.1463 16.5859 18.1094 16.5859 18.0859C16.5859 18.0625 16.5613 18.0256 16.5312 18.0039C16.5012 17.9822 16.4766 17.9426 16.4766 17.9158C16.4766 17.8891 16.4643 17.8672 16.4492 17.8672C16.4342 17.8672 16.4219 17.8453 16.4219 17.8185C16.4219 17.7918 16.3973 17.7522 16.3672 17.7305C16.3371 17.7088 16.3125 17.6692 16.3125 17.6424C16.3125 17.6157 16.3002 17.5938 16.2852 17.5938C16.2701 17.5938 16.2578 17.5718 16.2578 17.5451C16.2578 17.5183 16.2332 17.4787 16.2031 17.457C16.173 17.4353 16.1484 17.3957 16.1484 17.369C16.1484 17.3422 16.1361 17.3203 16.1211 17.3203C16.1061 17.3203 16.0938 17.2957 16.0938 17.2656C16.0938 17.2355 16.0814 17.2109 16.0664 17.2109C16.0514 17.2109 16.0391 17.189 16.0391 17.1623C16.0391 17.1355 16.0145 17.0959 15.9844 17.0742C15.9543 17.0525 15.9297 17.0129 15.9297 16.9861C15.9297 16.9594 15.9174 16.9375 15.9023 16.9375C15.8873 16.9375 15.875 16.9129 15.875 16.8828C15.875 16.8527 15.8627 16.8281 15.8477 16.8281C15.8326 16.8281 15.8203 16.8035 15.8203 16.7734C15.8203 16.7434 15.808 16.7188 15.793 16.7188C15.7779 16.7188 15.7656 16.6941 15.7656 16.6641C15.7656 16.634 15.7533 16.6094 15.7383 16.6094C15.7232 16.6094 15.7109 16.5848 15.7109 16.5547C15.7109 16.5246 15.6986 16.5 15.6836 16.5C15.6686 16.5 15.6562 16.4754 15.6562 16.4453C15.6562 16.4152 15.6439 16.3906 15.6289 16.3906C15.6139 16.3906 15.6016 16.3537 15.6016 16.3086C15.6016 16.2635 15.5893 16.2266 15.5742 16.2266C15.5592 16.2266 15.5469 16.202 15.5469 16.1719C15.5469 16.1418 15.5346 16.1172 15.5195 16.1172C15.5045 16.1172 15.4922 16.0926 15.4922 16.0625C15.4922 16.0324 15.4799 16.0078 15.4648 16.0078C15.4498 16.0078 15.4375 15.9832 15.4375 15.9531C15.4375 15.923 15.4252 15.8984 15.4102 15.8984C15.3951 15.8984 15.3828 15.8615 15.3828 15.8164C15.3828 15.7713 15.3705 15.7344 15.3555 15.7344C15.3404 15.7344 15.3281 15.6975 15.3281 15.6523C15.3281 15.6072 15.3158 15.5703 15.3008 15.5703C15.2857 15.5703 15.2734 15.5457 15.2734 15.5156C15.2734 15.4855 15.2611 15.4609 15.2461 15.4609C15.2311 15.4609 15.2188 15.424 15.2188 15.3789C15.2188 15.3338 15.2064 15.2969 15.1914 15.2969C15.1764 15.2969 15.1641 15.26 15.1641 15.2148C15.1641 15.1697 15.1518 15.1328 15.1367 15.1328C15.1217 15.1328 15.1094 15.0959 15.1094 15.0508C15.1094 15.0057 15.0971 14.9688 15.082 14.9688C15.067 14.9688 15.0547 14.9318 15.0547 14.8867C15.0547 14.8416 15.0424 14.8047 15.0273 14.8047C15.0123 14.8047 15 14.7678 15 14.7227C15 14.6775 14.9877 14.6406 14.9727 14.6406C14.9576 14.6406 14.9453 14.5914 14.9453 14.5312C14.9453 14.4711 14.933 14.4219 14.918 14.4219C14.9029 14.4219 14.8906 14.3727 14.8906 14.3125C14.8906 14.2523 14.8783 14.2031 14.8633 14.2031C14.8482 14.2031 14.8359 14.1539 14.8359 14.0938C14.8359 14.0336 14.8236 13.9844 14.8086 13.9844C14.7936 13.9844 14.7812 13.9229 14.7812 13.8477C14.7812 13.7725 14.7689 13.7109 14.7539 13.7109C14.7387 13.7109 14.7266 13.638 14.7266 13.5469C14.7266 13.4557 14.7144 13.3828 14.6992 13.3828C14.6836 13.3828 14.6719 13.3008 14.6719 13.1914C14.6719 13.082 14.6601 13 14.6445 13C14.6281 13 14.6172 12.8906 14.6172 12.7266C14.6172 12.5625 14.6062 12.4531 14.5898 12.4531C14.5723 12.4531 14.5625 12.207 14.5625 11.7695C14.5625 11.332 14.5723 11.0859 14.5898 11.0859C14.6064 11.0859 14.6172 10.9675 14.6172 10.7852C14.6172 10.6029 14.628 10.4844 14.6445 10.4844C14.6597 10.4844 14.6719 10.4114 14.6719 10.3203C14.6719 10.2292 14.684 10.1562 14.6992 10.1562C14.7143 10.1562 14.7266 10.0947 14.7266 10.0195C14.7266 9.94434 14.7389 9.88281 14.7539 9.88281C14.7689 9.88281 14.7812 9.82129 14.7812 9.74609C14.7812 9.6709 14.7936 9.60938 14.8086 9.60938C14.8236 9.60938 14.8359 9.57246 14.8359 9.52734C14.8359 9.48223 14.8482 9.44531 14.8633 9.44531C14.8783 9.44531 14.8906 9.4084 14.8906 9.36328C14.8906 9.31816 14.9029 9.28125 14.918 9.28125C14.933 9.28125 14.9453 9.24434 14.9453 9.19922C14.9453 9.1541 14.9576 9.11719 14.9727 9.11719C14.9877 9.11719 15 9.08027 15 9.03516C15 8.99004 15.0123 8.95312 15.0273 8.95312C15.0424 8.95312 15.0547 8.91621 15.0547 8.87109C15.0547 8.82598 15.067 8.78906 15.082 8.78906C15.0971 8.78906 15.1094 8.76445 15.1094 8.73438C15.1094 8.7043 15.1217 8.67969 15.1367 8.67969C15.1518 8.67969 15.1641 8.65508 15.1641 8.625C15.1641 8.59492 15.1764 8.57031 15.1914 8.57031C15.2064 8.57031 15.2188 8.5457 15.2188 8.51562C15.2188 8.48555 15.2311 8.46094 15.2461 8.46094C15.2611 8.46094 15.2734 8.43633 15.2734 8.40625C15.2734 8.37617 15.2857 8.35156 15.3008 8.35156C15.3158 8.35156 15.3281 8.32695 15.3281 8.29688C15.3281 8.2668 15.3404 8.24219 15.3555 8.24219C15.3705 8.24219 15.3828 8.22029 15.3828 8.19354C15.3828 8.16677 15.4074 8.12715 15.4375 8.10547C15.4676 8.08379 15.4922 8.04687 15.4922 8.02344C15.4922 8 15.5168 7.96309 15.5469 7.94141C15.577 7.91972 15.6016 7.8859 15.6016 7.86624C15.6016 7.84658 15.6415 7.78861 15.6904 7.73742L15.7793 7.64437L20.2988 7.64251L24.8182 7.64062L24.913 7.73543ZM19.8125 9.30859C19.8125 9.3238 19.7396 9.33594 19.6484 9.33594C19.5573 9.33594 19.4844 9.34808 19.4844 9.36328C19.4844 9.37832 19.4352 9.39062 19.375 9.39062C19.3148 9.39062 19.2656 9.40293 19.2656 9.41797C19.2656 9.43301 19.2164 9.44531 19.1562 9.44531C19.0961 9.44531 19.0469 9.45762 19.0469 9.47266C19.0469 9.4877 19.01 9.5 18.9648 9.5C18.9197 9.5 18.8828 9.5123 18.8828 9.52734C18.8828 9.54238 18.8582 9.55469 18.8281 9.55469C18.798 9.55469 18.7734 9.56699 18.7734 9.58203C18.7734 9.59707 18.7488 9.60938 18.7188 9.60938C18.6887 9.60938 18.6641 9.62168 18.6641 9.63672C18.6641 9.65176 18.6271 9.66406 18.582 9.66406C18.5369 9.66406 18.5 9.67637 18.5 9.69141C18.5 9.70645 18.4754 9.71875 18.4453 9.71875C18.4152 9.71875 18.3906 9.73105 18.3906 9.74609C18.3906 9.76113 18.3687 9.77344 18.342 9.77344C18.3152 9.77344 18.2756 9.79805 18.2539 9.82812C18.2322 9.8582 18.1953 9.88281 18.1719 9.88281C18.1484 9.88281 18.1115 9.90742 18.0898 9.9375C18.0682 9.96758 18.0312 9.99219 18.0078 9.99219C17.9844 9.99219 17.9475 10.0168 17.9258 10.0469C17.9041 10.077 17.87 10.1016 17.8501 10.1016C17.8301 10.1016 17.7288 10.1877 17.625 10.293C17.5212 10.3982 17.4172 10.4844 17.3939 10.4844C17.3706 10.4844 17.3516 10.5035 17.3516 10.5269C17.3516 10.5503 17.2777 10.6419 17.1875 10.7305C17.0973 10.819 17.0234 10.9079 17.0234 10.928C17.0234 10.9481 16.9988 10.9822 16.9688 11.0039C16.9387 11.0256 16.9141 11.0625 16.9141 11.0859C16.9141 11.1094 16.8895 11.1463 16.8594 11.168C16.8293 11.1897 16.8047 11.2266 16.8047 11.25C16.8047 11.2734 16.7801 11.3103 16.75 11.332C16.7199 11.3537 16.6953 11.3933 16.6953 11.4201C16.6953 11.4468 16.683 11.4688 16.668 11.4688C16.6529 11.4688 16.6406 11.4934 16.6406 11.5234C16.6406 11.5535 16.6283 11.5781 16.6133 11.5781C16.5982 11.5781 16.5859 11.6027 16.5859 11.6328C16.5859 11.6629 16.5736 11.6875 16.5586 11.6875C16.5436 11.6875 16.5312 11.7244 16.5312 11.7695C16.5312 11.8146 16.5189 11.8516 16.5039 11.8516C16.4889 11.8516 16.4766 11.8762 16.4766 11.9062C16.4766 11.9363 16.4643 11.9609 16.4492 11.9609C16.4342 11.9609 16.4219 11.9979 16.4219 12.043C16.4219 12.0881 16.4096 12.125 16.3945 12.125C16.3795 12.125 16.3672 12.1742 16.3672 12.2344C16.3672 12.2945 16.3549 12.3438 16.3398 12.3438C16.3248 12.3438 16.3125 12.393 16.3125 12.4531C16.3125 12.5133 16.3002 12.5625 16.2852 12.5625C16.27 12.5625 16.2578 12.6354 16.2578 12.7266C16.2578 12.8177 16.2457 12.8906 16.2305 12.8906C16.2132 12.8906 16.2031 13.0729 16.2031 13.3828C16.2031 13.6927 16.2132 13.875 16.2305 13.875C16.2457 13.875 16.2578 13.9479 16.2578 14.0391C16.2578 14.1302 16.27 14.2031 16.2852 14.2031C16.3002 14.2031 16.3125 14.2523 16.3125 14.3125C16.3125 14.3727 16.3248 14.4219 16.3398 14.4219C16.3549 14.4219 16.3672 14.4711 16.3672 14.5312C16.3672 14.5914 16.3795 14.6406 16.3945 14.6406C16.4096 14.6406 16.4219 14.6775 16.4219 14.7227C16.4219 14.7678 16.4342 14.8047 16.4492 14.8047C16.4643 14.8047 16.4766 14.8293 16.4766 14.8594C16.4766 14.8895 16.4889 14.9141 16.5039 14.9141C16.5189 14.9141 16.5312 14.9387 16.5312 14.9688C16.5312 14.9988 16.5436 15.0234 16.5586 15.0234C16.5736 15.0234 16.5859 15.0604 16.5859 15.1055C16.5859 15.1506 16.5982 15.1875 16.6133 15.1875C16.6283 15.1875 16.6406 15.2094 16.6406 15.2361C16.6406 15.2629 16.6652 15.3025 16.6953 15.3242C16.7254 15.3459 16.75 15.3855 16.75 15.4123C16.75 15.439 16.7623 15.4609 16.7773 15.4609C16.7924 15.4609 16.8047 15.4828 16.8047 15.5096C16.8047 15.5364 16.8293 15.576 16.8594 15.5977C16.8895 15.6193 16.9141 15.6563 16.9141 15.6797C16.9141 15.7031 16.9387 15.74 16.9688 15.7617C16.9988 15.7834 17.0234 15.817 17.0234 15.8363C17.0234 15.8823 17.8052 16.6641 17.8512 16.6641C17.8705 16.6641 17.9041 16.6887 17.9258 16.7188C17.9475 16.7488 17.9844 16.7734 18.0078 16.7734C18.0312 16.7734 18.0682 16.798 18.0898 16.8281C18.1115 16.8582 18.1484 16.8828 18.1719 16.8828C18.1953 16.8828 18.2322 16.9074 18.2539 16.9375C18.2756 16.9676 18.3152 16.9922 18.342 16.9922C18.3687 16.9922 18.3906 17.0045 18.3906 17.0195C18.3906 17.0346 18.4152 17.0469 18.4453 17.0469C18.4754 17.0469 18.5 17.0592 18.5 17.0742C18.5 17.0893 18.5369 17.1016 18.582 17.1016C18.6271 17.1016 18.6641 17.1139 18.6641 17.1289C18.6641 17.1439 18.6887 17.1562 18.7188 17.1562C18.7488 17.1562 18.7734 17.1686 18.7734 17.1836C18.7734 17.1986 18.798 17.2109 18.8281 17.2109C18.8582 17.2109 18.8828 17.2232 18.8828 17.2383C18.8828 17.2533 18.9197 17.2656 18.9648 17.2656C19.01 17.2656 19.0469 17.2779 19.0469 17.293C19.0469 17.308 19.0961 17.3203 19.1562 17.3203C19.2164 17.3203 19.2656 17.3326 19.2656 17.3477C19.2656 17.3627 19.3148 17.375 19.375 17.375C19.4352 17.375 19.4844 17.3873 19.4844 17.4023C19.4844 17.4175 19.5573 17.4297 19.6484 17.4297C19.7396 17.4297 19.8125 17.4418 19.8125 17.457C19.8125 17.4743 19.9948 17.4844 20.3047 17.4844C20.6146 17.4844 20.7969 17.4743 20.7969 17.457C20.7969 17.4418 20.8698 17.4297 20.9609 17.4297C21.0521 17.4297 21.125 17.4175 21.125 17.4023C21.125 17.3873 21.1742 17.375 21.2344 17.375C21.2945 17.375 21.3438 17.3627 21.3438 17.3477C21.3438 17.3326 21.393 17.3203 21.4531 17.3203C21.5133 17.3203 21.5625 17.308 21.5625 17.293C21.5625 17.2779 21.5994 17.2656 21.6445 17.2656C21.6896 17.2656 21.7266 17.2533 21.7266 17.2383C21.7266 17.2232 21.7512 17.2109 21.7812 17.2109C21.8113 17.2109 21.8359 17.1986 21.8359 17.1836C21.8359 17.1686 21.8729 17.1562 21.918 17.1562C21.9631 17.1562 22 17.1439 22 17.1289C22 17.1139 22.0246 17.1016 22.0547 17.1016C22.0848 17.1016 22.1094 17.0893 22.1094 17.0742C22.1094 17.0592 22.1313 17.0469 22.158 17.0469C22.1848 17.0469 22.2244 17.0223 22.2461 16.9922C22.2678 16.9621 22.3074 16.9375 22.3342 16.9375C22.3609 16.9375 22.3828 16.9252 22.3828 16.9102C22.3828 16.8951 22.4047 16.8828 22.4315 16.8828C22.4582 16.8828 22.4978 16.8582 22.5195 16.8281C22.5412 16.798 22.5781 16.7734 22.6016 16.7734C22.625 16.7734 22.6619 16.7488 22.6836 16.7188C22.7053 16.6887 22.7394 16.6641 22.7595 16.6641C22.7796 16.6641 22.8685 16.5902 22.957 16.5C23.0456 16.4098 23.1372 16.3359 23.1606 16.3359C23.184 16.3359 23.2031 16.3169 23.2031 16.2936C23.2031 16.2703 23.2893 16.1663 23.3945 16.0625C23.4998 15.9587 23.5859 15.8574 23.5859 15.8374C23.5859 15.8175 23.6105 15.7834 23.6406 15.7617C23.6707 15.74 23.6953 15.7031 23.6953 15.6797C23.6953 15.6563 23.7199 15.6193 23.75 15.5977C23.7801 15.576 23.8047 15.5364 23.8047 15.5096C23.8047 15.4828 23.817 15.4609 23.832 15.4609C23.8471 15.4609 23.8594 15.439 23.8594 15.4123C23.8594 15.3855 23.884 15.3459 23.9141 15.3242C23.9441 15.3025 23.9688 15.2629 23.9688 15.2361C23.9688 15.2094 23.9811 15.1875 23.9961 15.1875C24.0111 15.1875 24.0234 15.1506 24.0234 15.1055C24.0234 15.0604 24.0357 15.0234 24.0508 15.0234C24.0658 15.0234 24.0781 14.9988 24.0781 14.9688C24.0781 14.9387 24.0904 14.9141 24.1055 14.9141C24.1205 14.9141 24.1328 14.8895 24.1328 14.8594C24.1328 14.8293 24.1451 14.8047 24.1602 14.8047C24.1752 14.8047 24.1875 14.7678 24.1875 14.7227C24.1875 14.6775 24.1998 14.6406 24.2148 14.6406C24.2299 14.6406 24.2422 14.5914 24.2422 14.5312C24.2422 14.4711 24.2545 14.4219 24.2695 14.4219C24.2846 14.4219 24.2969 14.3727 24.2969 14.3125C24.2969 14.2523 24.3092 14.2031 24.3242 14.2031C24.3398 14.2031 24.3516 14.1211 24.3516 14.0117C24.3516 13.9023 24.3633 13.8203 24.3789 13.8203C24.3961 13.8203 24.4062 13.6471 24.4062 13.3555C24.4062 13.0638 24.3961 12.8906 24.3789 12.8906C24.3637 12.8906 24.3516 12.8177 24.3516 12.7266C24.3516 12.6354 24.3394 12.5625 24.3242 12.5625C24.3092 12.5625 24.2969 12.5133 24.2969 12.4531C24.2969 12.393 24.2846 12.3438 24.2695 12.3438C24.2545 12.3438 24.2422 12.2945 24.2422 12.2344C24.2422 12.1742 24.2299 12.125 24.2148 12.125C24.1998 12.125 24.1875 12.0881 24.1875 12.043C24.1875 11.9979 24.1752 11.9609 24.1602 11.9609C24.1451 11.9609 24.1328 11.9363 24.1328 11.9062C24.1328 11.8762 24.1205 11.8516 24.1055 11.8516C24.0904 11.8516 24.0781 11.8146 24.0781 11.7695C24.0781 11.7244 24.0658 11.6875 24.0508 11.6875C24.0357 11.6875 24.0234 11.6629 24.0234 11.6328C24.0234 11.6027 24.0111 11.5781 23.9961 11.5781C23.9811 11.5781 23.9688 11.5535 23.9688 11.5234C23.9688 11.4934 23.9564 11.4688 23.9414 11.4688C23.9264 11.4688 23.9141 11.4468 23.9141 11.4201C23.9141 11.3933 23.8895 11.3537 23.8594 11.332C23.8293 11.3103 23.8047 11.2734 23.8047 11.25C23.8047 11.2266 23.7801 11.1897 23.75 11.168C23.7199 11.1463 23.6953 11.1094 23.6953 11.0859C23.6953 11.0625 23.6707 11.0256 23.6406 11.0039C23.6105 10.9822 23.5859 10.9482 23.5859 10.9282C23.5859 10.9082 23.4998 10.8069 23.3945 10.7031C23.2893 10.5993 23.2031 10.4953 23.2031 10.472C23.2031 10.4487 23.184 10.4297 23.1606 10.4297C23.1372 10.4297 23.0456 10.3559 22.957 10.2656C22.8685 10.1754 22.7796 10.1016 22.7595 10.1016C22.7394 10.1016 22.7053 10.077 22.6836 10.0469C22.6619 10.0168 22.625 9.99219 22.6016 9.99219C22.5781 9.99219 22.5412 9.96758 22.5195 9.9375C22.4978 9.90742 22.4582 9.88281 22.4315 9.88281C22.4047 9.88281 22.3828 9.87051 22.3828 9.85547C22.3828 9.84043 22.3609 9.82812 22.3342 9.82812C22.3074 9.82812 22.2678 9.80352 22.2461 9.77344C22.2244 9.74336 22.1848 9.71875 22.158 9.71875C22.1313 9.71875 22.1094 9.70645 22.1094 9.69141C22.1094 9.67637 22.0848 9.66406 22.0547 9.66406C22.0246 9.66406 22 9.65176 22 9.63672C22 9.62168 21.9631 9.60938 21.918 9.60938C21.8729 9.60938 21.8359 9.59707 21.8359 9.58203C21.8359 9.56699 21.8113 9.55469 21.7812 9.55469C21.7512 9.55469 21.7266 9.54238 21.7266 9.52734C21.7266 9.5123 21.6896 9.5 21.6445 9.5C21.5994 9.5 21.5625 9.4877 21.5625 9.47266C21.5625 9.45762 21.5133 9.44531 21.4531 9.44531C21.393 9.44531 21.3438 9.43301 21.3438 9.41797C21.3438 9.40293 21.2945 9.39062 21.2344 9.39062C21.1742 9.39062 21.125 9.37832 21.125 9.36328C21.125 9.34808 21.0521 9.33594 20.9609 9.33594C20.8698 9.33594 20.7969 9.3238 20.7969 9.30859C20.7969 9.29137 20.6146 9.28125 20.3047 9.28125C19.9948 9.28125 19.8125 9.29137 19.8125 9.30859ZM12.9766 10.9492C12.9766 10.9643 12.9643 10.9766 12.9492 10.9766C12.9316 10.9766 12.9219 11.2591 12.9219 11.7695C12.9219 12.28 12.9316 12.5625 12.9492 12.5625C12.9658 12.5625 12.9766 12.681 12.9766 12.8633C12.9766 13.0456 12.9873 13.1641 13.0039 13.1641C13.0198 13.1641 13.0312 13.2552 13.0312 13.3828C13.0312 13.5104 13.0427 13.6016 13.0586 13.6016C13.0738 13.6016 13.0859 13.6745 13.0859 13.7656C13.0859 13.8568 13.0981 13.9297 13.1133 13.9297C13.1283 13.9297 13.1406 13.9912 13.1406 14.0664C13.1406 14.1416 13.1529 14.2031 13.168 14.2031C13.183 14.2031 13.1953 14.2646 13.1953 14.3398C13.1953 14.415 13.2076 14.4766 13.2227 14.4766C13.2377 14.4766 13.25 14.5258 13.25 14.5859C13.25 14.6461 13.2623 14.6953 13.2773 14.6953C13.2924 14.6953 13.3047 14.7445 13.3047 14.8047C13.3047 14.8648 13.317 14.9141 13.332 14.9141C13.3471 14.9141 13.3594 14.9633 13.3594 15.0234C13.3594 15.0836 13.3717 15.1328 13.3867 15.1328C13.4018 15.1328 13.4141 15.1697 13.4141 15.2148C13.4141 15.26 13.4264 15.2969 13.4414 15.2969C13.4564 15.2969 13.4688 15.3338 13.4688 15.3789C13.4688 15.424 13.4811 15.4609 13.4961 15.4609C13.5111 15.4609 13.5234 15.4979 13.5234 15.543C13.5234 15.5881 13.5357 15.625 13.5508 15.625C13.5658 15.625 13.5781 15.6619 13.5781 15.707C13.5781 15.7521 13.5904 15.7891 13.6055 15.7891C13.6205 15.7891 13.6328 15.826 13.6328 15.8711C13.6328 15.9162 13.6451 15.9531 13.6602 15.9531C13.6752 15.9531 13.6875 15.9777 13.6875 16.0078C13.6875 16.0379 13.6998 16.0625 13.7148 16.0625C13.7299 16.0625 13.7422 16.0994 13.7422 16.1445C13.7422 16.1896 13.7545 16.2266 13.7695 16.2266C13.7846 16.2266 13.7969 16.2635 13.7969 16.3086C13.7969 16.3537 13.8092 16.3906 13.8242 16.3906C13.8393 16.3906 13.8516 16.4152 13.8516 16.4453C13.8516 16.4754 13.8639 16.5 13.8789 16.5C13.8939 16.5 13.9062 16.5246 13.9062 16.5547C13.9062 16.5848 13.9186 16.6094 13.9336 16.6094C13.9486 16.6094 13.9609 16.6463 13.9609 16.6914C13.9609 16.7365 13.9732 16.7734 13.9883 16.7734C14.0033 16.7734 14.0156 16.798 14.0156 16.8281C14.0156 16.8582 14.0279 16.8828 14.043 16.8828C14.058 16.8828 14.0703 16.9074 14.0703 16.9375C14.0703 16.9676 14.0826 16.9922 14.0977 16.9922C14.1127 16.9922 14.125 17.0168 14.125 17.0469C14.125 17.077 14.1373 17.1016 14.1523 17.1016C14.1674 17.1016 14.1797 17.1262 14.1797 17.1562C14.1797 17.1863 14.192 17.2109 14.207 17.2109C14.2221 17.2109 14.2344 17.2355 14.2344 17.2656C14.2344 17.2957 14.2467 17.3203 14.2617 17.3203C14.2768 17.3203 14.2891 17.3449 14.2891 17.375C14.2891 17.4051 14.3014 17.4297 14.3164 17.4297C14.3314 17.4297 14.3438 17.4543 14.3438 17.4844C14.3438 17.5145 14.3561 17.5391 14.3711 17.5391C14.3861 17.5391 14.3984 17.561 14.3984 17.5877C14.3984 17.6145 14.423 17.6541 14.4531 17.6758C14.4832 17.6975 14.5078 17.7371 14.5078 17.7639C14.5078 17.7906 14.5201 17.8125 14.5352 17.8125C14.5502 17.8125 14.5625 17.8371 14.5625 17.8672C14.5625 17.8973 14.5748 17.9219 14.5898 17.9219C14.6049 17.9219 14.6172 17.9465 14.6172 17.9766C14.6172 18.0066 14.6295 18.0312 14.6445 18.0312C14.6596 18.0312 14.6719 18.0532 14.6719 18.0799C14.6719 18.1067 14.6965 18.1463 14.7266 18.168C14.7566 18.1897 14.7812 18.2293 14.7812 18.256C14.7812 18.2828 14.7936 18.3047 14.8086 18.3047C14.8236 18.3047 14.8359 18.3266 14.8359 18.3533C14.8359 18.3801 14.8605 18.4197 14.8906 18.4414C14.9207 18.4631 14.9453 18.5 14.9453 18.5234C14.9453 18.5469 14.9699 18.5838 15 18.6055C15.0301 18.6272 15.0547 18.6668 15.0547 18.6935C15.0547 18.7203 15.067 18.7422 15.082 18.7422C15.0971 18.7422 15.1094 18.7641 15.1094 18.7908C15.1094 18.8176 15.134 18.8572 15.1641 18.8789C15.1941 18.9006 15.2188 18.9279 15.2188 18.9396C15.2188 18.9513 15.1941 18.9609 15.1641 18.9609C15.134 18.9609 15.1094 18.9486 15.1094 18.9336C15.1094 18.9186 15.0479 18.9062 14.9727 18.9062C14.8975 18.9062 14.8359 18.8939 14.8359 18.8789C14.8359 18.8639 14.799 18.8516 14.7539 18.8516C14.7088 18.8516 14.6719 18.8393 14.6719 18.8242C14.6719 18.8092 14.635 18.7969 14.5898 18.7969C14.5447 18.7969 14.5078 18.7846 14.5078 18.7695C14.5078 18.7545 14.4709 18.7422 14.4258 18.7422C14.3807 18.7422 14.3438 18.7299 14.3438 18.7148C14.3438 18.6998 14.3068 18.6875 14.2617 18.6875C14.2166 18.6875 14.1797 18.6752 14.1797 18.6602C14.1797 18.6451 14.1551 18.6328 14.125 18.6328C14.0949 18.6328 14.0703 18.6205 14.0703 18.6055C14.0703 18.5904 14.0334 18.5781 13.9883 18.5781C13.9432 18.5781 13.9062 18.5658 13.9062 18.5508C13.9062 18.5357 13.8816 18.5234 13.8516 18.5234C13.8215 18.5234 13.7969 18.5111 13.7969 18.4961C13.7969 18.4811 13.7723 18.4688 13.7422 18.4688C13.7121 18.4688 13.6875 18.4564 13.6875 18.4414C13.6875 18.4264 13.6629 18.4141 13.6328 18.4141C13.6027 18.4141 13.5781 18.4018 13.5781 18.3867C13.5781 18.3717 13.5562 18.3594 13.5295 18.3594C13.5027 18.3594 13.4631 18.3348 13.4414 18.3047C13.4197 18.2746 13.3801 18.25 13.3533 18.25C13.3266 18.25 13.3047 18.2377 13.3047 18.2227C13.3047 18.2076 13.2828 18.1953 13.256 18.1953C13.2293 18.1953 13.1897 18.1707 13.168 18.1406C13.1463 18.1105 13.1116 18.0859 13.0909 18.0859C13.0702 18.0859 13.0187 18.049 12.9766 18.0039C12.9344 17.9588 12.8855 17.9219 12.8677 17.9219C12.85 17.9219 12.7883 17.8727 12.7305 17.8125C12.6727 17.7523 12.612 17.7031 12.5956 17.7031C12.5567 17.7031 11.9922 17.1386 11.9922 17.0997C11.9922 17.0834 11.943 17.0226 11.8828 16.9648C11.8227 16.907 11.7734 16.8453 11.7734 16.8276C11.7734 16.8099 11.7365 16.7609 11.6914 16.7188C11.6463 16.6766 11.6094 16.6252 11.6094 16.6045C11.6094 16.5837 11.5848 16.549 11.5547 16.5273C11.5246 16.5057 11.5 16.4687 11.5 16.4453C11.5 16.4219 11.4754 16.385 11.4453 16.3633C11.4152 16.3416 11.3906 16.302 11.3906 16.2752C11.3906 16.2485 11.3783 16.2266 11.3633 16.2266C11.3482 16.2266 11.3359 16.2047 11.3359 16.1779C11.3359 16.1511 11.3113 16.1115 11.2812 16.0898C11.2512 16.0682 11.2266 16.0285 11.2266 16.0018C11.2266 15.975 11.2143 15.9531 11.1992 15.9531C11.1842 15.9531 11.1719 15.9285 11.1719 15.8984C11.1719 15.8684 11.1596 15.8438 11.1445 15.8438C11.1295 15.8438 11.1172 15.8191 11.1172 15.7891C11.1172 15.759 11.1049 15.7344 11.0898 15.7344C11.0748 15.7344 11.0625 15.7098 11.0625 15.6797C11.0625 15.6496 11.0502 15.625 11.0352 15.625C11.0201 15.625 11.0078 15.6004 11.0078 15.5703C11.0078 15.5402 10.9955 15.5156 10.9805 15.5156C10.9654 15.5156 10.9531 15.491 10.9531 15.4609C10.9531 15.4309 10.9408 15.4062 10.9258 15.4062C10.9107 15.4062 10.8984 15.3816 10.8984 15.3516C10.8984 15.3215 10.8861 15.2969 10.8711 15.2969C10.8561 15.2969 10.8438 15.26 10.8438 15.2148C10.8438 15.1697 10.8314 15.1328 10.8164 15.1328C10.8014 15.1328 10.7891 15.1082 10.7891 15.0781C10.7891 15.048 10.7768 15.0234 10.7617 15.0234C10.7467 15.0234 10.7344 14.9865 10.7344 14.9414C10.7344 14.8963 10.7221 14.8594 10.707 14.8594C10.692 14.8594 10.6797 14.8348 10.6797 14.8047C10.6797 14.7746 10.6674 14.75 10.6523 14.75C10.6373 14.75 10.625 14.7131 10.625 14.668C10.625 14.6229 10.6127 14.5859 10.5977 14.5859C10.5826 14.5859 10.5703 14.549 10.5703 14.5039C10.5703 14.4588 10.558 14.4219 10.543 14.4219C10.5279 14.4219 10.5156 14.385 10.5156 14.3398C10.5156 14.2947 10.5033 14.2578 10.4883 14.2578C10.4732 14.2578 10.4609 14.2209 10.4609 14.1758C10.4609 14.1307 10.4486 14.0938 10.4336 14.0938C10.4186 14.0938 10.4062 14.0568 10.4062 14.0117C10.4062 13.9666 10.3939 13.9297 10.3789 13.9297C10.3639 13.9297 10.3516 13.8805 10.3516 13.8203C10.3516 13.7602 10.3393 13.7109 10.3242 13.7109C10.3092 13.7109 10.2969 13.674 10.2969 13.6289C10.2969 13.5838 10.2846 13.5469 10.2695 13.5469C10.2545 13.5469 10.2422 13.4977 10.2422 13.4375C10.2422 13.3773 10.2299 13.3281 10.2148 13.3281C10.1998 13.3281 10.1875 13.2666 10.1875 13.1914C10.1875 13.1162 10.1752 13.0547 10.1602 13.0547C10.1451 13.0547 10.1328 13.0055 10.1328 12.9453C10.1328 12.8852 10.1205 12.8359 10.1055 12.8359C10.0904 12.8359 10.0781 12.7744 10.0781 12.6992C10.0781 12.624 10.0658 12.5625 10.0508 12.5625C10.0357 12.5625 10.0234 12.501 10.0234 12.4258C10.0234 12.3506 10.0111 12.2891 9.99609 12.2891C9.98105 12.2891 9.96875 12.2275 9.96875 12.1523C9.96875 12.0771 9.95645 12.0156 9.94141 12.0156C9.9262 12.0156 9.91406 11.9427 9.91406 11.8516C9.91406 11.7604 9.90192 11.6875 9.88672 11.6875C9.87111 11.6875 9.85938 11.6055 9.85938 11.4961C9.85938 11.3867 9.84764 11.3047 9.83203 11.3047C9.81642 11.3047 9.80469 11.2227 9.80469 11.1133V10.9219H11.3906C12.4297 10.9219 12.9766 10.9313 12.9766 10.9492ZM20.6328 10.9492C20.6328 10.9643 20.6943 10.9766 20.7695 10.9766C20.8447 10.9766 20.9062 10.9889 20.9062 11.0039C20.9062 11.0189 20.9555 11.0312 21.0156 11.0312C21.0758 11.0312 21.125 11.0436 21.125 11.0586C21.125 11.0736 21.1496 11.0859 21.1797 11.0859C21.2098 11.0859 21.2344 11.0982 21.2344 11.1133C21.2344 11.1283 21.2713 11.1406 21.3164 11.1406C21.3615 11.1406 21.3984 11.1529 21.3984 11.168C21.3984 11.183 21.4203 11.1953 21.4471 11.1953C21.4739 11.1953 21.5135 11.2199 21.5352 11.25C21.5568 11.2801 21.5938 11.3047 21.6172 11.3047C21.6406 11.3047 21.6775 11.3293 21.6992 11.3594C21.7209 11.3895 21.7546 11.4141 21.774 11.4141C21.8201 11.4141 22.2734 11.8674 22.2734 11.9135C22.2734 11.9329 22.298 11.9666 22.3281 11.9883C22.3582 12.01 22.3828 12.0469 22.3828 12.0703C22.3828 12.0937 22.4074 12.1307 22.4375 12.1523C22.4696 12.1755 22.4922 12.2231 22.4922 12.2678C22.4922 12.3095 22.5045 12.3438 22.5195 12.3438C22.5346 12.3438 22.5469 12.3684 22.5469 12.3984C22.5469 12.4285 22.5592 12.4531 22.5742 12.4531C22.5893 12.4531 22.6016 12.4777 22.6016 12.5078C22.6016 12.5379 22.6139 12.5625 22.6289 12.5625C22.6439 12.5625 22.6562 12.6117 22.6562 12.6719C22.6562 12.732 22.6686 12.7812 22.6836 12.7812C22.6986 12.7812 22.7109 12.8428 22.7109 12.918C22.7109 12.9932 22.7232 13.0547 22.7383 13.0547C22.755 13.0547 22.7656 13.1823 22.7656 13.3828C22.7656 13.5833 22.755 13.7109 22.7383 13.7109C22.7232 13.7109 22.7109 13.7725 22.7109 13.8477C22.7109 13.9229 22.6986 13.9844 22.6836 13.9844C22.6686 13.9844 22.6562 14.0336 22.6562 14.0938C22.6562 14.1539 22.6439 14.2031 22.6289 14.2031C22.6139 14.2031 22.6016 14.2277 22.6016 14.2578C22.6016 14.2879 22.5893 14.3125 22.5742 14.3125C22.5592 14.3125 22.5469 14.3371 22.5469 14.3672C22.5469 14.3973 22.5346 14.4219 22.5195 14.4219C22.5045 14.4219 22.4922 14.4465 22.4922 14.4766C22.4922 14.5066 22.4799 14.5312 22.4648 14.5312C22.4498 14.5312 22.4375 14.5559 22.4375 14.5859C22.4375 14.616 22.4252 14.6406 22.4102 14.6406C22.3951 14.6406 22.3828 14.6625 22.3828 14.6893C22.3828 14.716 22.3582 14.7557 22.3281 14.7773C22.298 14.799 22.2734 14.8327 22.2734 14.8521C22.2734 14.8983 21.8201 15.3516 21.774 15.3516C21.7546 15.3516 21.7209 15.3762 21.6992 15.4062C21.6775 15.4363 21.6379 15.4609 21.6111 15.4609C21.5844 15.4609 21.5625 15.4732 21.5625 15.4883C21.5625 15.5033 21.5379 15.5156 21.5078 15.5156C21.4777 15.5156 21.4531 15.5279 21.4531 15.543C21.4531 15.558 21.4285 15.5703 21.3984 15.5703C21.3684 15.5703 21.3438 15.5826 21.3438 15.5977C21.3438 15.6127 21.3191 15.625 21.2891 15.625C21.259 15.625 21.2344 15.6373 21.2344 15.6523C21.2344 15.6674 21.2098 15.6797 21.1797 15.6797C21.1496 15.6797 21.125 15.692 21.125 15.707C21.125 15.7221 21.0758 15.7344 21.0156 15.7344C20.9555 15.7344 20.9062 15.7467 20.9062 15.7617C20.9062 15.7768 20.8447 15.7891 20.7695 15.7891C20.6943 15.7891 20.6328 15.8014 20.6328 15.8164C20.6328 15.8331 20.5052 15.8438 20.3047 15.8438C20.1042 15.8438 19.9766 15.8331 19.9766 15.8164C19.9766 15.8014 19.915 15.7891 19.8398 15.7891C19.7646 15.7891 19.7031 15.7768 19.7031 15.7617C19.7031 15.7467 19.6539 15.7344 19.5938 15.7344C19.5336 15.7344 19.4844 15.7221 19.4844 15.707C19.4844 15.692 19.4598 15.6797 19.4297 15.6797C19.3996 15.6797 19.375 15.6674 19.375 15.6523C19.375 15.6373 19.3504 15.625 19.3203 15.625C19.2902 15.625 19.2656 15.6127 19.2656 15.5977C19.2656 15.5826 19.2314 15.5703 19.1896 15.5703C19.145 15.5703 19.0974 15.5477 19.0742 15.5156C19.0525 15.4855 19.0156 15.4609 18.9922 15.4609C18.9688 15.4609 18.9318 15.4363 18.9102 15.4062C18.8885 15.3762 18.8548 15.3516 18.8354 15.3516C18.7892 15.3516 18.3359 14.8983 18.3359 14.8521C18.3359 14.8327 18.3113 14.799 18.2812 14.7773C18.2512 14.7557 18.2266 14.7187 18.2266 14.6953C18.2266 14.6719 18.202 14.635 18.1719 14.6133C18.1398 14.5901 18.1172 14.5425 18.1172 14.4979C18.1172 14.4561 18.1049 14.4219 18.0898 14.4219C18.0748 14.4219 18.0625 14.3973 18.0625 14.3672C18.0625 14.3371 18.0502 14.3125 18.0352 14.3125C18.0201 14.3125 18.0078 14.2879 18.0078 14.2578C18.0078 14.2277 17.9955 14.2031 17.9805 14.2031C17.9654 14.2031 17.9531 14.1539 17.9531 14.0938C17.9531 14.0336 17.9408 13.9844 17.9258 13.9844C17.9107 13.9844 17.8984 13.9229 17.8984 13.8477C17.8984 13.7725 17.8861 13.7109 17.8711 13.7109C17.8544 13.7109 17.8438 13.5833 17.8438 13.3828C17.8438 13.1823 17.8544 13.0547 17.8711 13.0547C17.8861 13.0547 17.8984 12.9932 17.8984 12.918C17.8984 12.8428 17.9107 12.7812 17.9258 12.7812C17.9408 12.7812 17.9531 12.732 17.9531 12.6719C17.9531 12.6117 17.9654 12.5625 17.9805 12.5625C17.9955 12.5625 18.0078 12.5379 18.0078 12.5078C18.0078 12.4777 18.0201 12.4531 18.0352 12.4531C18.0502 12.4531 18.0625 12.4285 18.0625 12.3984C18.0625 12.3684 18.0748 12.3438 18.0898 12.3438C18.1049 12.3438 18.1172 12.3191 18.1172 12.2891C18.1172 12.259 18.1295 12.2344 18.1445 12.2344C18.1596 12.2344 18.1719 12.2098 18.1719 12.1797C18.1719 12.1496 18.1842 12.125 18.1992 12.125C18.2143 12.125 18.2266 12.1031 18.2266 12.0764C18.2266 12.0496 18.2512 12.01 18.2812 11.9883C18.3113 11.9666 18.3359 11.9329 18.3359 11.9135C18.3359 11.8674 18.7892 11.4141 18.8354 11.4141C18.8548 11.4141 18.8885 11.3895 18.9102 11.3594C18.9318 11.3293 18.9715 11.3047 18.9982 11.3047C19.025 11.3047 19.0469 11.2924 19.0469 11.2773C19.0469 11.2623 19.0715 11.25 19.1016 11.25C19.1316 11.25 19.1562 11.2377 19.1562 11.2227C19.1562 11.2076 19.1809 11.1953 19.2109 11.1953C19.241 11.1953 19.2656 11.183 19.2656 11.168C19.2656 11.1529 19.2902 11.1406 19.3203 11.1406C19.3504 11.1406 19.375 11.1283 19.375 11.1133C19.375 11.0982 19.3996 11.0859 19.4297 11.0859C19.4598 11.0859 19.4844 11.0736 19.4844 11.0586C19.4844 11.0436 19.5336 11.0312 19.5938 11.0312C19.6539 11.0312 19.7031 11.0189 19.7031 11.0039C19.7031 10.9889 19.7646 10.9766 19.8398 10.9766C19.915 10.9766 19.9766 10.9643 19.9766 10.9492C19.9766 10.9325 20.1042 10.9219 20.3047 10.9219C20.5052 10.9219 20.6328 10.9325 20.6328 10.9492ZM30.8594 10.9492C30.8594 10.9643 30.8471 10.9766 30.832 10.9766C30.8168 10.9766 30.8047 11.0495 30.8047 11.1406C30.8047 11.2318 30.7925 11.3047 30.7773 11.3047C30.7617 11.3047 30.75 11.3867 30.75 11.4961C30.75 11.6055 30.7383 11.6875 30.7227 11.6875C30.7076 11.6875 30.6953 11.749 30.6953 11.8242C30.6953 11.8994 30.683 11.9609 30.668 11.9609C30.6528 11.9609 30.6406 12.0339 30.6406 12.125C30.6406 12.2161 30.6285 12.2891 30.6133 12.2891C30.5982 12.2891 30.5859 12.3506 30.5859 12.4258C30.5859 12.501 30.5736 12.5625 30.5586 12.5625C30.5436 12.5625 30.5312 12.624 30.5312 12.6992C30.5312 12.7744 30.5189 12.8359 30.5039 12.8359C30.4889 12.8359 30.4766 12.8852 30.4766 12.9453C30.4766 13.0055 30.4643 13.0547 30.4492 13.0547C30.4342 13.0547 30.4219 13.1039 30.4219 13.1641C30.4219 13.2242 30.4096 13.2734 30.3945 13.2734C30.3795 13.2734 30.3672 13.3227 30.3672 13.3828C30.3672 13.443 30.3549 13.4922 30.3398 13.4922C30.3248 13.4922 30.3125 13.5414 30.3125 13.6016C30.3125 13.6617 30.3002 13.7109 30.2852 13.7109C30.2701 13.7109 30.2578 13.7479 30.2578 13.793C30.2578 13.8381 30.2455 13.875 30.2305 13.875C30.2154 13.875 30.2031 13.9242 30.2031 13.9844C30.2031 14.0445 30.1908 14.0938 30.1758 14.0938C30.1607 14.0938 30.1484 14.1307 30.1484 14.1758C30.1484 14.2209 30.1361 14.2578 30.1211 14.2578C30.1061 14.2578 30.0938 14.2947 30.0938 14.3398C30.0938 14.385 30.0814 14.4219 30.0664 14.4219C30.0514 14.4219 30.0391 14.4465 30.0391 14.4766C30.0391 14.5066 30.0268 14.5312 30.0117 14.5312C29.9967 14.5312 29.9844 14.5682 29.9844 14.6133C29.9844 14.6584 29.9721 14.6953 29.957 14.6953C29.942 14.6953 29.9297 14.7322 29.9297 14.7773C29.9297 14.8225 29.9174 14.8594 29.9023 14.8594C29.8873 14.8594 29.875 14.884 29.875 14.9141C29.875 14.9441 29.8627 14.9688 29.8477 14.9688C29.8326 14.9688 29.8203 15.0057 29.8203 15.0508C29.8203 15.0959 29.808 15.1328 29.793 15.1328C29.7779 15.1328 29.7656 15.1574 29.7656 15.1875C29.7656 15.2176 29.7533 15.2422 29.7383 15.2422C29.7232 15.2422 29.7109 15.2668 29.7109 15.2969C29.7109 15.327 29.6986 15.3516 29.6836 15.3516C29.6686 15.3516 29.6562 15.3762 29.6562 15.4062C29.6562 15.4363 29.6439 15.4609 29.6289 15.4609C29.6139 15.4609 29.6016 15.4855 29.6016 15.5156C29.6016 15.5457 29.5893 15.5703 29.5742 15.5703C29.5592 15.5703 29.5469 15.5949 29.5469 15.625C29.5469 15.6551 29.5346 15.6797 29.5195 15.6797C29.5045 15.6797 29.4922 15.7043 29.4922 15.7344C29.4922 15.7645 29.4799 15.7891 29.4648 15.7891C29.4498 15.7891 29.4375 15.8137 29.4375 15.8438C29.4375 15.8738 29.4252 15.8984 29.4102 15.8984C29.3951 15.8984 29.3828 15.923 29.3828 15.9531C29.3828 15.9832 29.3705 16.0078 29.3555 16.0078C29.3404 16.0078 29.3281 16.0297 29.3281 16.0565C29.3281 16.0832 29.3035 16.1228 29.2734 16.1445C29.2434 16.1662 29.2188 16.2058 29.2188 16.2326C29.2188 16.2593 29.2064 16.2812 29.1914 16.2812C29.1764 16.2812 29.1641 16.3009 29.1641 16.325C29.1641 16.349 29.1271 16.4032 29.082 16.4453C29.0369 16.4874 29 16.5389 29 16.5596C29 16.5803 28.9754 16.615 28.9453 16.6367C28.9152 16.6584 28.8906 16.6931 28.8906 16.7138C28.8906 16.7345 28.8537 16.786 28.8086 16.8281C28.7635 16.8703 28.7266 16.9184 28.7266 16.935C28.7266 16.9745 27.8339 17.8672 27.7944 17.8672C27.7777 17.8672 27.7296 17.9041 27.6875 17.9492C27.6454 17.9943 27.5939 18.0312 27.5732 18.0312C27.5525 18.0312 27.5178 18.0559 27.4961 18.0859C27.4744 18.116 27.4375 18.1406 27.4141 18.1406C27.3906 18.1406 27.3537 18.1652 27.332 18.1953C27.3103 18.2254 27.2707 18.25 27.244 18.25C27.2172 18.25 27.1953 18.2623 27.1953 18.2773C27.1953 18.2924 27.1707 18.3047 27.1406 18.3047C27.1105 18.3047 27.0859 18.317 27.0859 18.332C27.0859 18.3471 27.0613 18.3594 27.0312 18.3594C27.0012 18.3594 26.9766 18.3717 26.9766 18.3867C26.9766 18.4018 26.952 18.4141 26.9219 18.4141C26.8918 18.4141 26.8672 18.4264 26.8672 18.4414C26.8672 18.4564 26.8426 18.4688 26.8125 18.4688C26.7824 18.4688 26.7578 18.4811 26.7578 18.4961C26.7578 18.5111 26.7332 18.5234 26.7031 18.5234C26.673 18.5234 26.6484 18.5357 26.6484 18.5508C26.6484 18.5658 26.6238 18.5781 26.5938 18.5781C26.5637 18.5781 26.5391 18.5904 26.5391 18.6055C26.5391 18.6205 26.5021 18.6328 26.457 18.6328C26.4119 18.6328 26.375 18.6451 26.375 18.6602C26.375 18.6752 26.3504 18.6875 26.3203 18.6875C26.2902 18.6875 26.2656 18.6998 26.2656 18.7148C26.2656 18.7299 26.2287 18.7422 26.1836 18.7422C26.1385 18.7422 26.1016 18.7545 26.1016 18.7695C26.1016 18.7846 26.0646 18.7969 26.0195 18.7969C25.9744 18.7969 25.9375 18.8092 25.9375 18.8242C25.9375 18.8393 25.8883 18.8516 25.8281 18.8516C25.768 18.8516 25.7188 18.8639 25.7188 18.8789C25.7188 18.8939 25.6695 18.9062 25.6094 18.9062C25.5492 18.9062 25.5 18.9186 25.5 18.9336C25.5 18.9486 25.4754 18.9609 25.4453 18.9609C25.4152 18.9609 25.3906 18.9486 25.3906 18.9336C25.3906 18.9186 25.4029 18.9062 25.418 18.9062C25.433 18.9062 25.4453 18.8843 25.4453 18.8576C25.4453 18.8308 25.4699 18.7912 25.5 18.7695C25.5301 18.7478 25.5547 18.7109 25.5547 18.6875C25.5547 18.6641 25.5793 18.6272 25.6094 18.6055C25.6395 18.5838 25.6641 18.5442 25.6641 18.5174C25.6641 18.4907 25.6764 18.4688 25.6914 18.4688C25.7064 18.4688 25.7188 18.4468 25.7188 18.4201C25.7188 18.3933 25.7434 18.3537 25.7734 18.332C25.8035 18.3103 25.8281 18.2707 25.8281 18.244C25.8281 18.2172 25.8404 18.1953 25.8555 18.1953C25.8705 18.1953 25.8828 18.1734 25.8828 18.1467C25.8828 18.1199 25.9074 18.0803 25.9375 18.0586C25.9676 18.0369 25.9922 17.9973 25.9922 17.9705C25.9922 17.9438 26.0045 17.9219 26.0195 17.9219C26.0346 17.9219 26.0469 17.8973 26.0469 17.8672C26.0469 17.8371 26.0592 17.8125 26.0742 17.8125C26.0893 17.8125 26.1016 17.7879 26.1016 17.7578C26.1016 17.7277 26.1139 17.7031 26.1289 17.7031C26.1439 17.7031 26.1562 17.6812 26.1562 17.6545C26.1562 17.6277 26.1809 17.5881 26.2109 17.5664C26.241 17.5447 26.2656 17.5051 26.2656 17.4783C26.2656 17.4516 26.2779 17.4297 26.293 17.4297C26.308 17.4297 26.3203 17.4051 26.3203 17.375C26.3203 17.3449 26.3326 17.3203 26.3477 17.3203C26.3627 17.3203 26.375 17.2957 26.375 17.2656C26.375 17.2355 26.3873 17.2109 26.4023 17.2109C26.4174 17.2109 26.4297 17.1863 26.4297 17.1562C26.4297 17.1262 26.442 17.1016 26.457 17.1016C26.4721 17.1016 26.4844 17.077 26.4844 17.0469C26.4844 17.0168 26.4967 16.9922 26.5117 16.9922C26.5268 16.9922 26.5391 16.9553 26.5391 16.9102C26.5391 16.865 26.5514 16.8281 26.5664 16.8281C26.5814 16.8281 26.5938 16.8035 26.5938 16.7734C26.5938 16.7434 26.6061 16.7188 26.6211 16.7188C26.6361 16.7188 26.6484 16.6941 26.6484 16.6641C26.6484 16.634 26.6607 16.6094 26.6758 16.6094C26.6908 16.6094 26.7031 16.5848 26.7031 16.5547C26.7031 16.5246 26.7154 16.5 26.7305 16.5C26.7455 16.5 26.7578 16.4631 26.7578 16.418C26.7578 16.3729 26.7701 16.3359 26.7852 16.3359C26.8002 16.3359 26.8125 16.3113 26.8125 16.2812C26.8125 16.2512 26.8248 16.2266 26.8398 16.2266C26.8549 16.2266 26.8672 16.1896 26.8672 16.1445C26.8672 16.0994 26.8795 16.0625 26.8945 16.0625C26.9096 16.0625 26.9219 16.0379 26.9219 16.0078C26.9219 15.9777 26.9342 15.9531 26.9492 15.9531C26.9643 15.9531 26.9766 15.9162 26.9766 15.8711C26.9766 15.826 26.9889 15.7891 27.0039 15.7891C27.0189 15.7891 27.0312 15.7521 27.0312 15.707C27.0312 15.6619 27.0436 15.625 27.0586 15.625C27.0736 15.625 27.0859 15.5881 27.0859 15.543C27.0859 15.4979 27.0982 15.4609 27.1133 15.4609C27.1283 15.4609 27.1406 15.424 27.1406 15.3789C27.1406 15.3338 27.1529 15.2969 27.168 15.2969C27.183 15.2969 27.1953 15.2477 27.1953 15.1875C27.1953 15.1273 27.2076 15.0781 27.2227 15.0781C27.2377 15.0781 27.25 15.0412 27.25 14.9961C27.25 14.951 27.2623 14.9141 27.2773 14.9141C27.2924 14.9141 27.3047 14.8648 27.3047 14.8047C27.3047 14.7445 27.317 14.6953 27.332 14.6953C27.3471 14.6953 27.3594 14.6461 27.3594 14.5859C27.3594 14.5258 27.3717 14.4766 27.3867 14.4766C27.4018 14.4766 27.4141 14.415 27.4141 14.3398C27.4141 14.2646 27.4264 14.2031 27.4414 14.2031C27.4564 14.2031 27.4688 14.1416 27.4688 14.0664C27.4688 13.9912 27.4811 13.9297 27.4961 13.9297C27.5113 13.9297 27.5234 13.8568 27.5234 13.7656C27.5234 13.6745 27.5356 13.6016 27.5508 13.6016C27.5667 13.6016 27.5781 13.5104 27.5781 13.3828C27.5781 13.2552 27.5895 13.1641 27.6055 13.1641C27.622 13.1641 27.6328 13.0456 27.6328 12.8633C27.6328 12.681 27.6436 12.5625 27.6602 12.5625C27.6778 12.5625 27.6875 12.28 27.6875 11.7695C27.6875 11.2591 27.6778 10.9766 27.6602 10.9766C27.6451 10.9766 27.6328 10.9643 27.6328 10.9492C27.6328 10.9313 28.1888 10.9219 29.2461 10.9219C30.3034 10.9219 30.8594 10.9313 30.8594 10.9492ZM24.4062 30.6914V32.3594H20.3047H16.2031V30.6914V29.0234H20.3047H24.4062V30.6914Z" fill="#DD2A1B"/>
</svg>
