<svg width="55" height="55" viewBox="0 0 55 55" fill="none" xmlns="http://www.w3.org/2000/svg">
<circle cx="27.5" cy="27.5" r="27.5" fill="#FF6F00"/>
<path d="M15.2971 20.179C15.3627 19.7241 15.4895 19.326 15.6776 18.9848C15.8657 18.6392 16.0997 18.3527 16.3797 18.1253C16.664 17.8934 16.9877 17.7206 17.3508 17.6069C17.7182 17.4888 18.1119 17.4297 18.5318 17.4297C18.9693 17.4297 19.3629 17.4932 19.7129 17.62C20.0672 17.7425 20.369 17.9153 20.6184 18.1384C20.8677 18.3571 21.058 18.6152 21.1892 18.9126C21.3248 19.2101 21.3926 19.5316 21.3926 19.8772C21.3926 20.179 21.3576 20.4458 21.2876 20.6776C21.222 20.9051 21.1258 21.1041 20.9989 21.2747C20.8721 21.4453 20.7146 21.5897 20.5265 21.7078C20.3384 21.8259 20.1263 21.9243 19.89 22.003C20.4587 22.1824 20.883 22.4558 21.163 22.8232C21.4429 23.1907 21.5829 23.6521 21.5829 24.2077C21.5829 24.6801 21.4954 25.0978 21.3204 25.4609C21.1455 25.824 20.9093 26.1302 20.6118 26.3795C20.3144 26.6245 19.9688 26.8104 19.5751 26.9372C19.1858 27.0641 18.7724 27.1275 18.335 27.1275C17.8582 27.1275 17.4426 27.0728 17.0883 26.9635C16.734 26.8541 16.4256 26.6923 16.1632 26.4779C15.9007 26.2636 15.6776 26.0011 15.4939 25.6906C15.3102 25.38 15.1527 25.0213 15.0215 24.6145L15.7367 24.3192C15.9248 24.2405 16.0997 24.2208 16.2616 24.2602C16.4278 24.2952 16.5481 24.3826 16.6225 24.5226C16.7012 24.6757 16.7865 24.8266 16.8784 24.9754C16.9746 25.1241 17.0883 25.2575 17.2196 25.3756C17.3508 25.4893 17.5039 25.5834 17.6789 25.6578C17.8582 25.7277 18.0703 25.7627 18.3153 25.7627C18.5909 25.7627 18.8315 25.719 19.0371 25.6315C19.2427 25.5396 19.4133 25.4215 19.5489 25.2772C19.6888 25.1328 19.7916 24.9732 19.8572 24.7982C19.9272 24.6189 19.9622 24.4395 19.9622 24.2602C19.9622 24.0327 19.9382 23.8271 19.89 23.6434C19.8419 23.4553 19.7413 23.2956 19.5882 23.1644C19.4351 23.0332 19.2142 22.9304 18.9255 22.856C18.6412 22.7817 18.2584 22.7445 17.7773 22.7445V21.5897C18.1753 21.5853 18.5056 21.5481 18.768 21.4781C19.0305 21.4081 19.2383 21.3119 19.3914 21.1894C19.5489 21.0626 19.6582 20.9117 19.7194 20.7367C19.7807 20.5617 19.8113 20.3693 19.8113 20.1593C19.8113 19.7131 19.6866 19.3741 19.4373 19.1423C19.188 18.9104 18.8555 18.7945 18.44 18.7945C18.2475 18.7945 18.0704 18.823 17.9085 18.8798C17.7467 18.9323 17.6001 19.0089 17.4689 19.1095C17.342 19.2057 17.2349 19.3194 17.1474 19.4507C17.0599 19.5819 16.9943 19.7262 16.9505 19.8837C16.8762 20.0849 16.7778 20.2183 16.6553 20.284C16.5372 20.3496 16.3688 20.3649 16.15 20.3299L15.2971 20.179Z" fill="white"/>
<path d="M25.6257 20.9795L25.2977 21.3863C25.4814 21.2944 25.6782 21.2244 25.8882 21.1763C26.1025 21.1238 26.3322 21.0976 26.5771 21.0976C26.9358 21.0976 27.2836 21.1566 27.6204 21.2747C27.9616 21.3928 28.2612 21.5722 28.5193 21.8128C28.7774 22.049 28.9852 22.3442 29.1426 22.6986C29.3001 23.0529 29.3789 23.4662 29.3789 23.9387C29.3789 24.3805 29.2979 24.796 29.1361 25.1853C28.9742 25.5703 28.7468 25.9071 28.4537 26.1958C28.1606 26.4845 27.8063 26.7119 27.3908 26.8782C26.9796 27.0444 26.5246 27.1275 26.026 27.1275C25.5186 27.1275 25.0636 27.0466 24.6612 26.8847C24.2588 26.7229 23.9154 26.4976 23.6311 26.2089C23.3467 25.9158 23.128 25.5659 22.9749 25.1591C22.8262 24.7479 22.7518 24.293 22.7518 23.7943C22.7518 23.3481 22.8415 22.891 23.0209 22.423C23.2046 21.9506 23.4867 21.4606 23.8673 20.9532L26.131 17.9153C26.2097 17.8103 26.3234 17.7206 26.4722 17.6463C26.6253 17.5719 26.8002 17.5347 26.9971 17.5347H28.4406L25.6257 20.9795ZM25.9932 25.8021C26.2513 25.8021 26.4875 25.7584 26.7018 25.6709C26.9205 25.5834 27.1064 25.4609 27.2595 25.3034C27.417 25.146 27.5395 24.9622 27.627 24.7523C27.7145 24.5379 27.7582 24.3061 27.7582 24.0568C27.7582 23.7856 27.7166 23.5428 27.6335 23.3285C27.5504 23.1097 27.4323 22.926 27.2792 22.7773C27.1261 22.6242 26.9424 22.5083 26.7281 22.4295C26.5137 22.3508 26.2775 22.3114 26.0194 22.3114C25.7613 22.3114 25.5273 22.3552 25.3174 22.4427C25.1074 22.5301 24.928 22.6526 24.7793 22.8101C24.6306 22.9632 24.5147 23.1469 24.4316 23.3613C24.3485 23.5712 24.3069 23.7987 24.3069 24.0436C24.3069 24.3061 24.3419 24.5467 24.4119 24.7654C24.4862 24.9797 24.5934 25.1635 24.7334 25.3166C24.8777 25.4697 25.0549 25.5899 25.2649 25.6774C25.4748 25.7605 25.7176 25.8021 25.9932 25.8021Z" fill="white"/>
<path d="M37.0961 22.2786C37.0961 23.1054 37.0064 23.8249 36.8271 24.4373C36.6521 25.0454 36.4071 25.5484 36.0922 25.9465C35.7816 26.3445 35.412 26.642 34.9833 26.8388C34.559 27.0313 34.0997 27.1275 33.6054 27.1275C33.1111 27.1275 32.6518 27.0313 32.2275 26.8388C31.8076 26.642 31.4424 26.3445 31.1318 25.9465C30.8212 25.5484 30.5784 25.0454 30.4035 24.4373C30.2285 23.8249 30.141 23.1054 30.141 22.2786C30.141 21.4475 30.2285 20.7279 30.4035 20.1199C30.5784 19.5119 30.8212 19.0089 31.1318 18.6108C31.4424 18.2127 31.8076 17.9175 32.2275 17.725C32.6518 17.5282 33.1111 17.4297 33.6054 17.4297C34.0997 17.4297 34.559 17.5282 34.9833 17.725C35.412 17.9175 35.7816 18.2127 36.0922 18.6108C36.4071 19.0089 36.6521 19.5119 36.8271 20.1199C37.0064 20.7279 37.0961 21.4475 37.0961 22.2786ZM35.4229 22.2786C35.4229 21.5919 35.3726 21.0232 35.272 20.5727C35.1714 20.1221 35.0358 19.7634 34.8652 19.4966C34.699 19.2298 34.5065 19.0439 34.2878 18.9389C34.0691 18.8295 33.8416 18.7748 33.6054 18.7748C33.3736 18.7748 33.1483 18.8295 32.9296 18.9389C32.7153 19.0439 32.525 19.2298 32.3588 19.4966C32.1925 19.7634 32.0591 20.1221 31.9585 20.5727C31.8623 21.0232 31.8142 21.5919 31.8142 22.2786C31.8142 22.9654 31.8623 23.534 31.9585 23.9846C32.0591 24.4351 32.1925 24.7938 32.3588 25.0607C32.525 25.3275 32.7153 25.5156 32.9296 25.6249C33.1483 25.7299 33.3736 25.7824 33.6054 25.7824C33.8416 25.7824 34.0691 25.7299 34.2878 25.6249C34.5065 25.5156 34.699 25.3275 34.8652 25.0607C35.0358 24.7938 35.1714 24.4351 35.272 23.9846C35.3726 23.534 35.4229 22.9654 35.4229 22.2786Z" fill="white"/>
<path d="M37.8779 19.6541C37.8779 19.3435 37.9348 19.0526 38.0485 18.7814C38.1666 18.5058 38.3263 18.2674 38.5275 18.0662C38.7331 17.865 38.9737 17.7075 39.2493 17.5938C39.5292 17.4757 39.8289 17.4166 40.1482 17.4166C40.4675 17.4166 40.7649 17.4757 41.0405 17.5938C41.3205 17.7075 41.5611 17.865 41.7623 18.0662C41.9679 18.2674 42.1297 18.5058 42.2478 18.7814C42.3659 19.0526 42.425 19.3435 42.425 19.6541C42.425 19.9559 42.3659 20.2424 42.2478 20.5136C42.1297 20.7848 41.9679 21.0232 41.7623 21.2288C41.5611 21.43 41.3205 21.5897 41.0405 21.7078C40.7649 21.8259 40.4675 21.8849 40.1482 21.8849C39.8289 21.8849 39.5292 21.8259 39.2493 21.7078C38.9737 21.5897 38.7331 21.43 38.5275 21.2288C38.3263 21.0232 38.1666 20.7848 38.0485 20.5136C37.9348 20.2424 37.8779 19.9559 37.8779 19.6541ZM39.0065 19.6672C39.0065 19.829 39.0349 19.9799 39.0918 20.1199C39.1487 20.2599 39.2274 20.3824 39.328 20.4874C39.433 20.588 39.5533 20.6689 39.6889 20.7301C39.8289 20.787 39.982 20.8154 40.1482 20.8154C40.31 20.8154 40.4587 20.787 40.5943 20.7301C40.7343 20.6689 40.8546 20.588 40.9552 20.4874C41.0602 20.3824 41.1411 20.2599 41.198 20.1199C41.2549 19.9799 41.2833 19.829 41.2833 19.6672C41.2833 19.501 41.2549 19.3479 41.198 19.2079C41.1411 19.0635 41.0602 18.9389 40.9552 18.8339C40.8546 18.7289 40.7343 18.6458 40.5943 18.5846C40.4587 18.5233 40.31 18.4927 40.1482 18.4927C39.982 18.4927 39.8289 18.5233 39.6889 18.5846C39.5533 18.6458 39.433 18.7289 39.328 18.8339C39.2274 18.9389 39.1487 19.0635 39.0918 19.2079C39.0349 19.3479 39.0065 19.501 39.0065 19.6672Z" fill="white"/>
<path fill-rule="evenodd" clip-rule="evenodd" d="M41.7791 35.6346C41.6975 35.5553 41.5432 35.4314 41.2575 35.2714C40.612 34.91 39.5964 34.5443 38.2354 34.222C35.5328 33.5819 31.7366 33.1741 27.4998 33.1741C23.263 33.1741 19.4669 33.5819 16.7643 34.222C15.4033 34.5443 14.3877 34.91 13.7422 35.2714C13.4565 35.4314 13.3022 35.5553 13.2205 35.6346C13.3022 35.714 13.4565 35.8378 13.7422 35.9978C14.3877 36.3593 15.4033 36.7249 16.7643 37.0473C19.4669 37.6874 23.263 38.0952 27.4998 38.0952C27.62 38.0952 27.7398 38.0948 27.8592 38.0942L25.4246 35.6596L26.2945 34.7896L30.0102 38.5053L26.2945 42.221L25.4246 41.351L27.4502 39.3254C18.8666 39.3191 11.9165 37.6691 11.9165 35.6346C11.9165 33.5963 18.8934 31.9438 27.4998 31.9438C36.1063 31.9438 43.0832 33.5963 43.0832 35.6346C43.0832 37.2657 38.6158 38.6497 32.4209 39.1376V37.9035C34.652 37.7238 36.6354 37.4262 38.2354 37.0473C39.5964 36.7249 40.612 36.3593 41.2575 35.9978C41.5432 35.8378 41.6975 35.714 41.7791 35.6346Z" fill="white"/>
</svg>
