<svg width="28" height="20" viewBox="0 0 28 20" fill="none" xmlns="http://www.w3.org/2000/svg">
<path fill-rule="evenodd" clip-rule="evenodd" d="M18.155 0.0387597C18.155 0.0600775 18.2035 0.0775194 18.2628 0.0775194C18.326 0.0775194 18.3935 0.109535 18.4264 0.155039C18.4571 0.197674 18.5047 0.232558 18.5322 0.232558C18.5597 0.232558 19.262 0.912791 20.093 1.74419C20.924 2.57558 21.6217 3.25581 21.6433 3.25581C21.665 3.25581 22.5023 4.07558 23.5039 5.07752C24.5055 6.07946 25.3426 6.89922 25.3642 6.89922C25.4276 6.89922 27.845 9.33516 27.845 9.39907C27.845 9.43112 27.8624 9.45736 27.8837 9.45736C27.905 9.45736 27.9225 9.49225 27.9225 9.53488C27.9225 9.57752 27.9399 9.6124 27.9612 9.6124C27.9845 9.6124 28 9.76744 28 10C28 10.2326 27.9845 10.3876 27.9612 10.3876C27.9399 10.3876 27.9225 10.4225 27.9225 10.4651C27.9225 10.5078 27.905 10.5426 27.8837 10.5426C27.8624 10.5426 27.845 10.5689 27.845 10.6009C27.845 10.6648 25.4276 13.1008 25.3642 13.1008C25.3426 13.1008 24.4881 13.938 23.4651 14.9612C22.4422 15.9845 21.5875 16.8217 21.5658 16.8217C21.5441 16.8217 20.8639 17.4845 20.0543 18.2946C19.2446 19.1047 18.5597 19.7674 18.5322 19.7674C18.5047 19.7674 18.4571 19.8023 18.4264 19.845C18.3935 19.8905 18.326 19.9225 18.2628 19.9225C18.2035 19.9225 18.155 19.9399 18.155 19.9612C18.155 19.9842 18.0129 20 17.8062 20C17.5995 20 17.4574 19.9842 17.4574 19.9612C17.4574 19.9399 17.4089 19.9225 17.3497 19.9225C17.2864 19.9225 17.2189 19.8905 17.186 19.845C17.1553 19.8023 17.1073 19.7674 17.0793 19.7674C17.0086 19.7674 16.7597 19.5118 16.7597 19.4393C16.7597 19.4066 16.7422 19.3798 16.7209 19.3798C16.6996 19.3798 16.6822 19.345 16.6822 19.3023C16.6822 19.2597 16.6647 19.2248 16.6434 19.2248C16.6221 19.2248 16.6047 19.1376 16.6047 19.031C16.6047 18.9244 16.5872 18.8372 16.5659 18.8372C16.5446 18.8372 16.5271 18.8023 16.5271 18.7597C16.5271 18.7171 16.5446 18.6822 16.5659 18.6822C16.5872 18.6822 16.6047 18.6124 16.6047 18.5271C16.6047 18.4419 16.6221 18.3721 16.6434 18.3721C16.6647 18.3721 16.6822 18.3268 16.6822 18.2714C16.6822 18.2094 16.7269 18.1288 16.7984 18.062C16.8624 18.0023 16.9147 17.933 16.9147 17.908C16.9147 17.8511 17.0117 17.7519 17.0673 17.7519C17.0903 17.7519 17.9286 16.9322 18.9302 15.9302C19.9318 14.9283 20.769 14.1085 20.7905 14.1085C20.829 14.1085 23.6589 11.298 23.6589 11.2598C23.6589 11.2491 18.7054 11.2403 12.6512 11.2403C5.33849 11.2403 1.64341 11.2273 1.64341 11.2016C1.64341 11.1802 1.59109 11.1628 1.52713 11.1628C1.46318 11.1628 1.41085 11.1453 1.41085 11.124C1.41085 11.1027 1.3843 11.0853 1.35186 11.0853C1.27512 11.0853 0.868217 10.6784 0.868217 10.6016C0.868217 10.5692 0.850775 10.5426 0.829458 10.5426C0.80814 10.5426 0.790697 10.4903 0.790697 10.4264C0.790697 10.3624 0.773256 10.3101 0.751938 10.3101C0.729342 10.3101 0.713179 10.1809 0.713179 10C0.713179 9.81911 0.729342 9.68992 0.751938 9.68992C0.773256 9.68992 0.790697 9.6376 0.790697 9.57364C0.790697 9.50969 0.80814 9.45736 0.829458 9.45736C0.850775 9.45736 0.868217 9.43081 0.868217 9.39837C0.868217 9.32163 1.27512 8.91473 1.35186 8.91473C1.3843 8.91473 1.41085 8.89729 1.41085 8.87597C1.41085 8.85465 1.46318 8.83721 1.52713 8.83721C1.59109 8.83721 1.64341 8.81977 1.64341 8.79845C1.64341 8.77271 5.33849 8.75969 12.6512 8.75969C18.7054 8.75969 23.6589 8.75089 23.6589 8.74019C23.6589 8.70198 20.9066 5.96899 20.8681 5.96899C20.8465 5.96899 20.0093 5.14922 19.0078 4.14729C18.0062 3.14535 17.1683 2.32558 17.1458 2.32558C17.091 2.32558 16.9147 2.14663 16.9147 2.09097C16.9147 2.06655 16.8624 1.99771 16.7984 1.93798C16.7269 1.8712 16.6822 1.79058 16.6822 1.72864C16.6822 1.67322 16.6647 1.62791 16.6434 1.62791C16.6221 1.62791 16.6047 1.55814 16.6047 1.47287C16.6047 1.3876 16.5872 1.31783 16.5659 1.31783C16.5446 1.31783 16.5271 1.28295 16.5271 1.24031C16.5271 1.19767 16.5446 1.16279 16.5659 1.16279C16.5872 1.16279 16.6047 1.07558 16.6047 0.968992C16.6047 0.862403 16.6221 0.775194 16.6434 0.775194C16.6647 0.775194 16.6822 0.74031 16.6822 0.697674C16.6822 0.655039 16.6996 0.620155 16.7209 0.620155C16.7422 0.620155 16.7597 0.593411 16.7597 0.560737C16.7597 0.488179 17.0086 0.232558 17.0793 0.232558C17.1073 0.232558 17.1553 0.197674 17.186 0.155039C17.2189 0.109535 17.2864 0.0775194 17.3497 0.0775194C17.4089 0.0775194 17.4574 0.0600775 17.4574 0.0387597C17.4574 0.0157752 17.5995 0 17.8062 0C18.0129 0 18.155 0.0157752 18.155 0.0387597Z" fill="#FF6F00"/>
</svg>
