<svg width="24" height="24" viewBox="0 0 24 24" fill="none" xmlns="http://www.w3.org/2000/svg">
<path fill-rule="evenodd" clip-rule="evenodd" d="M1 1V23H23V1H1ZM21.7109 11.3555H12.6445V2.28906H21.7109V11.3555ZM11.3555 2.28906V11.3555H2.28906V2.28906H11.3555ZM2.28906 12.6445H11.3555V21.7109H2.28906V12.6445ZM12.6445 21.7109V12.6445H21.7109V21.7109H12.6445ZM13.9336 16.5332H20.4219V17.8223H13.9336V16.5332ZM20.4219 6.17773H13.9336V7.4668H20.4219V6.17773ZM16.5332 13.9551H17.8223V15.2441H16.5332V13.9551ZM17.8223 19.1113H16.5332V20.4004H17.8223V19.1113ZM6.17773 10.0664H7.4668V7.46688H10.0664V6.17782H7.4668V3.57821H6.17773V6.17782H3.57817V7.46688H6.17773V10.0664ZM8.66047 14.4281L9.57196 15.3396L7.73376 17.1777L9.57196 19.0159L8.66047 19.9274L6.82227 18.0892L4.98411 19.9274L4.07261 19.0159L5.91081 17.1777L4.07261 15.3396L4.98411 14.4281L6.82227 16.2663L8.66047 14.4281Z" fill="#4087BE"/>
</svg>
