<svg width="50" height="50" viewBox="0 0 50 50" fill="none" xmlns="http://www.w3.org/2000/svg">
<path d="M27.4063 28.1647C26.7272 27.7817 25.4264 26.9505 24.0119 25.534C22.5971 24.1172 21.7577 22.805 21.369 22.1185L23.6507 19.8042L17.8892 14L15.0508 16.8237C13.9729 17.903 13.6937 19.5453 14.3557 20.9103C15.3659 22.9932 17.23 26.1369 20.3731 29.2846C23.5163 32.4321 26.6556 34.2988 28.7356 35.3104C29.2284 35.5503 29.7574 35.6667 30.2831 35.6667C31.2111 35.6667 32.1283 35.3035 32.8165 34.6144L35.6419 31.7752L29.7637 25.879L27.4063 28.1647ZM31.6212 33.4189C31.0522 33.988 30.1893 34.1366 29.4737 33.7887C27.5102 32.8337 24.5449 31.0696 21.5677 28.0883C18.5906 25.107 16.829 22.1374 15.8753 20.1712C15.5275 19.4544 15.6763 18.5898 16.2433 18.022L17.8816 16.3922L21.2727 19.8083L19.3289 21.78L19.5634 22.3074C19.6016 22.3932 20.5235 24.4334 22.8173 26.7304C25.1125 29.0288 27.1327 29.9328 27.2175 29.9702L27.7372 30.199L29.7437 28.2535L33.2559 31.7764L31.6212 33.4189ZM29.621 21.9692L25.6448 17.9876L29.621 14.0058L30.8157 15.2021L28.921 17.0993H33.1223C34.5224 17.0993 35.6615 18.2377 35.6615 19.6372L35.6667 24.077L33.9773 24.0792L33.9721 19.6382C33.9721 19.1707 33.5909 18.7913 33.1223 18.7913H28.8365L30.8157 20.7731L29.621 21.9692Z" fill="white"/>
</svg>
