<svg width="16" height="16" viewBox="0 0 16 16" fill="none" xmlns="http://www.w3.org/2000/svg">
<path d="M15.1249 14.415L12.6716 11.7921C13.7595 10.4989 14.3555 8.87173 14.3555 7.17777C14.3555 3.22001 11.1355 0 7.17777 0C3.22001 0 0 3.22001 0 7.17777C0 11.1355 3.22001 14.3555 7.17777 14.3555C8.66357 14.3555 10.0795 13.9074 11.29 13.0567L13.7755 15.7129C13.9537 15.898 14.1934 16 14.4502 16C14.6933 16 14.924 15.9073 15.099 15.7388C15.471 15.3808 15.4829 14.7873 15.1249 14.415ZM7.17777 1.6C10.1032 1.6 12.8 4.27459 12.8 7.2C12.8 10.1254 10.1032 12.8 7.17777 12.8C4.25236 12.8 1.6 10.1032 1.6 7.17777C1.6 4.25236 4.25236 1.6 7.17777 1.6Z" fill="#5F5F5F" fill-opacity="0.6"/>
</svg>
