<svg width="24" height="24" viewBox="0 0 24 24" fill="none" xmlns="http://www.w3.org/2000/svg">
<path fill-rule="evenodd" clip-rule="evenodd" d="M11.8723 2.02128C11.8723 2.03298 11.834 2.04255 11.7872 2.04255C11.7404 2.04255 11.7021 2.05213 11.7021 2.06383C11.7021 2.07553 11.683 2.08511 11.6596 2.08511C11.6362 2.08511 11.617 2.09468 11.617 2.10638C11.617 2.11809 11.5979 2.12766 11.5745 2.12766C11.5511 2.12766 11.5319 2.13723 11.5319 2.14894C11.5319 2.16064 11.5173 2.17021 11.4995 2.17021C11.4574 2.17021 11.234 2.39357 11.234 2.4357C11.234 2.45351 11.2245 2.46809 11.2128 2.46809C11.2011 2.46809 11.1915 2.48723 11.1915 2.51064C11.1915 2.53404 11.1819 2.55319 11.1702 2.55319C11.1585 2.55319 11.1489 2.58191 11.1489 2.61702C11.1489 2.65213 11.1394 2.68085 11.1277 2.68085C11.1135 2.68085 11.1064 4.6383 11.1064 8.51064C11.1064 11.717 11.1016 14.3404 11.0957 14.3404C11.0898 14.3404 10.185 13.4404 9.08511 12.3404C7.98519 11.2404 7.07087 10.3404 7.05328 10.3404C7.03568 10.3404 7.02128 10.3309 7.02128 10.3191C7.02128 10.3074 7.00213 10.2979 6.97872 10.2979C6.95532 10.2979 6.93617 10.2883 6.93617 10.2766C6.93617 10.2649 6.90745 10.2553 6.87234 10.2553C6.83723 10.2553 6.80851 10.2457 6.80851 10.234C6.80851 10.221 6.70921 10.2128 6.55319 10.2128C6.39717 10.2128 6.29787 10.221 6.29787 10.234C6.29787 10.2457 6.26915 10.2553 6.23404 10.2553C6.19894 10.2553 6.17021 10.2649 6.17021 10.2766C6.17021 10.2883 6.1557 10.2979 6.13796 10.2979C6.09591 10.2979 5.78723 10.6066 5.78723 10.6486C5.78723 10.6663 5.77766 10.6809 5.76596 10.6809C5.75426 10.6809 5.74468 10.7 5.74468 10.7234C5.74468 10.7468 5.73511 10.766 5.7234 10.766C5.7117 10.766 5.70213 10.7947 5.70213 10.8298C5.70213 10.8649 5.69255 10.8936 5.68085 10.8936C5.66809 10.8936 5.65957 10.9787 5.65957 11.1064C5.65957 11.234 5.66809 11.3191 5.68085 11.3191C5.69255 11.3191 5.70213 11.3479 5.70213 11.383C5.70213 11.4181 5.7117 11.4468 5.7234 11.4468C5.73511 11.4468 5.74468 11.466 5.74468 11.4894C5.74468 11.5128 5.75426 11.5319 5.76596 11.5319C5.77766 11.5319 5.78723 11.5463 5.78723 11.5639C5.78723 11.6056 11.5008 17.3191 11.5425 17.3191C11.5601 17.3191 11.5745 17.3287 11.5745 17.3404C11.5745 17.3521 11.5936 17.3617 11.617 17.3617C11.6404 17.3617 11.6596 17.3713 11.6596 17.383C11.6596 17.3947 11.6979 17.4043 11.7447 17.4043C11.7915 17.4043 11.8298 17.4138 11.8298 17.4255C11.8298 17.4379 11.9007 17.4468 12 17.4468C12.0993 17.4468 12.1702 17.4379 12.1702 17.4255C12.1702 17.4138 12.2085 17.4043 12.2553 17.4043C12.3021 17.4043 12.3404 17.3947 12.3404 17.383C12.3404 17.3713 12.3596 17.3617 12.383 17.3617C12.4064 17.3617 12.4255 17.3521 12.4255 17.3404C12.4255 17.3287 12.4399 17.3191 12.4575 17.3191C12.4992 17.3191 18.2128 11.6056 18.2128 11.5639C18.2128 11.5463 18.2223 11.5319 18.234 11.5319C18.2457 11.5319 18.2553 11.5128 18.2553 11.4894C18.2553 11.466 18.2649 11.4468 18.2766 11.4468C18.2883 11.4468 18.2979 11.4181 18.2979 11.383C18.2979 11.3479 18.3074 11.3191 18.3191 11.3191C18.3319 11.3191 18.3404 11.234 18.3404 11.1064C18.3404 10.9787 18.3319 10.8936 18.3191 10.8936C18.3074 10.8936 18.2979 10.8649 18.2979 10.8298C18.2979 10.7947 18.2883 10.766 18.2766 10.766C18.2649 10.766 18.2553 10.7468 18.2553 10.7234C18.2553 10.7 18.2457 10.6809 18.234 10.6809C18.2223 10.6809 18.2128 10.6663 18.2128 10.6485C18.2128 10.6092 17.9481 10.3404 17.9093 10.3404C17.8942 10.3404 17.8679 10.3213 17.8511 10.2979C17.833 10.2729 17.796 10.2553 17.7613 10.2553C17.7287 10.2553 17.7021 10.2457 17.7021 10.234C17.7021 10.221 17.6028 10.2128 17.4468 10.2128C17.2908 10.2128 17.1915 10.221 17.1915 10.234C17.1915 10.2457 17.1628 10.2553 17.1277 10.2553C17.0926 10.2553 17.0638 10.2649 17.0638 10.2766C17.0638 10.2883 17.0447 10.2979 17.0213 10.2979C16.9979 10.2979 16.9787 10.3074 16.9787 10.3191C16.9787 10.3309 16.9643 10.3404 16.9467 10.3404C16.9291 10.3404 16.0148 11.2404 14.9149 12.3404C13.815 13.4404 12.9102 14.3404 12.9043 14.3404C12.8984 14.3404 12.8936 11.717 12.8936 8.51064C12.8936 4.6383 12.8865 2.68085 12.8723 2.68085C12.8606 2.68085 12.8511 2.65213 12.8511 2.61702C12.8511 2.58191 12.8415 2.55319 12.8298 2.55319C12.8181 2.55319 12.8085 2.53404 12.8085 2.51064C12.8085 2.48723 12.7989 2.46809 12.7872 2.46809C12.7755 2.46809 12.766 2.45351 12.766 2.4357C12.766 2.39357 12.5426 2.17021 12.5005 2.17021C12.4827 2.17021 12.4681 2.16064 12.4681 2.14894C12.4681 2.13723 12.4489 2.12766 12.4255 2.12766C12.4021 2.12766 12.383 2.11809 12.383 2.10638C12.383 2.09468 12.3638 2.08511 12.3404 2.08511C12.317 2.08511 12.2979 2.07553 12.2979 2.06383C12.2979 2.05213 12.2596 2.04255 12.2128 2.04255C12.166 2.04255 12.1277 2.03298 12.1277 2.02128C12.1277 2.00945 12.0709 2 12 2C11.9291 2 11.8723 2.00945 11.8723 2.02128ZM2.80851 15.6383C2.80851 15.65 2.77021 15.6596 2.7234 15.6596C2.6766 15.6596 2.6383 15.6691 2.6383 15.6809C2.6383 15.6926 2.61168 15.7021 2.57917 15.7021C2.54445 15.7021 2.50738 15.7197 2.48936 15.7447C2.47249 15.7681 2.44626 15.7872 2.43109 15.7872C2.39236 15.7872 2.12766 16.056 2.12766 16.0953C2.12766 16.1131 2.11809 16.1277 2.10638 16.1277C2.09468 16.1277 2.08511 16.1564 2.08511 16.1915C2.08511 16.2266 2.07553 16.2553 2.06383 16.2553C2.05213 16.2553 2.04255 16.2936 2.04255 16.3404C2.04255 16.3872 2.03298 16.4255 2.02128 16.4255C2.00721 16.4255 2 17.234 2 18.8085C2 20.383 2.00721 21.1915 2.02128 21.1915C2.03298 21.1915 2.04255 21.2298 2.04255 21.2766C2.04255 21.3234 2.05213 21.3617 2.06383 21.3617C2.07553 21.3617 2.08511 21.3904 2.08511 21.4255C2.08511 21.4606 2.09468 21.4894 2.10638 21.4894C2.11809 21.4894 2.12766 21.5039 2.12766 21.5217C2.12766 21.561 2.39236 21.8298 2.43109 21.8298C2.44626 21.8298 2.47249 21.8489 2.48936 21.8723C2.50738 21.8973 2.54445 21.9149 2.57917 21.9149C2.61168 21.9149 2.6383 21.9245 2.6383 21.9362C2.6383 21.9479 2.6766 21.9574 2.7234 21.9574C2.77021 21.9574 2.80851 21.967 2.80851 21.9787C2.80851 21.9929 5.88653 22 12 22C18.1135 22 21.1915 21.9929 21.1915 21.9787C21.1915 21.967 21.2298 21.9574 21.2766 21.9574C21.3234 21.9574 21.3617 21.9479 21.3617 21.9362C21.3617 21.9245 21.3904 21.9149 21.4255 21.9149C21.4606 21.9149 21.4894 21.9053 21.4894 21.8936C21.4894 21.8819 21.5039 21.8723 21.5217 21.8723C21.561 21.8723 21.8298 21.6076 21.8298 21.5689C21.8298 21.5537 21.8489 21.5275 21.8723 21.5106C21.8973 21.4926 21.9149 21.4556 21.9149 21.4208C21.9149 21.3883 21.9245 21.3617 21.9362 21.3617C21.9479 21.3617 21.9574 21.3234 21.9574 21.2766C21.9574 21.2298 21.967 21.1915 21.9787 21.1915C21.9928 21.1915 22 20.383 22 18.8085C22 17.234 21.9928 16.4255 21.9787 16.4255C21.967 16.4255 21.9574 16.3872 21.9574 16.3404C21.9574 16.2936 21.9479 16.2553 21.9362 16.2553C21.9245 16.2553 21.9149 16.2287 21.9149 16.1962C21.9149 16.1615 21.8973 16.1244 21.8723 16.1064C21.8489 16.0895 21.8298 16.0633 21.8298 16.0481C21.8298 16.0094 21.561 15.7447 21.5217 15.7447C21.5039 15.7447 21.4894 15.7351 21.4894 15.7234C21.4894 15.7117 21.4606 15.7021 21.4255 15.7021C21.3904 15.7021 21.3617 15.6926 21.3617 15.6809C21.3617 15.6691 21.3234 15.6596 21.2766 15.6596C21.2298 15.6596 21.1915 15.65 21.1915 15.6383C21.1915 15.6266 21.1436 15.617 21.0851 15.617C21.0266 15.617 20.9787 15.6266 20.9787 15.6383C20.9787 15.65 20.9309 15.6596 20.8723 15.6596C20.8138 15.6596 20.766 15.6691 20.766 15.6809C20.766 15.6926 20.7468 15.7021 20.7234 15.7021C20.7 15.7021 20.6809 15.7117 20.6809 15.7234C20.6809 15.7351 20.6638 15.7447 20.643 15.7447C20.6222 15.7447 20.5913 15.7638 20.5745 15.7872C20.5576 15.8106 20.5311 15.8298 20.5156 15.8298C20.4791 15.8298 20.383 15.9259 20.383 15.9624C20.383 15.9779 20.3638 16.0044 20.3404 16.0213C20.317 16.0381 20.2979 16.069 20.2979 16.0898C20.2979 16.1106 20.2883 16.1277 20.2766 16.1277C20.2649 16.1277 20.2553 16.1468 20.2553 16.1702C20.2553 16.1936 20.2457 16.2128 20.234 16.2128C20.2223 16.2128 20.2128 16.2415 20.2128 16.2766C20.2128 16.3117 20.2032 16.3404 20.1915 16.3404C20.1775 16.3404 20.1702 16.9929 20.1702 18.2553V20.1702H12H3.82979V18.2553C3.82979 16.9929 3.82253 16.3404 3.80851 16.3404C3.79681 16.3404 3.78723 16.3117 3.78723 16.2766C3.78723 16.2415 3.77766 16.2128 3.76596 16.2128C3.75426 16.2128 3.74468 16.1936 3.74468 16.1702C3.74468 16.1468 3.73511 16.1277 3.7234 16.1277C3.7117 16.1277 3.70213 16.1106 3.70213 16.0898C3.70213 16.069 3.68298 16.0381 3.65957 16.0213C3.63617 16.0044 3.61702 15.9779 3.61702 15.9624C3.61702 15.9259 3.52091 15.8298 3.48438 15.8298C3.46889 15.8298 3.4424 15.8106 3.42553 15.7872C3.40866 15.7638 3.37783 15.7447 3.357 15.7447C3.33619 15.7447 3.31915 15.7351 3.31915 15.7234C3.31915 15.7117 3.3 15.7021 3.2766 15.7021C3.25319 15.7021 3.23404 15.6926 3.23404 15.6809C3.23404 15.6691 3.18617 15.6596 3.12766 15.6596C3.06915 15.6596 3.02128 15.65 3.02128 15.6383C3.02128 15.6266 2.9734 15.617 2.91489 15.617C2.85638 15.617 2.80851 15.6266 2.80851 15.6383Z" fill="#4087BE"/>
</svg>
