<svg width="24" height="24" viewBox="0 0 24 24" fill="none" xmlns="http://www.w3.org/2000/svg">
<path d="M19.2121 6.61523C19.1332 6.5034 19.026 6.42323 18.9081 6.37858C16.0494 5.29604 5.79643 5.54246 4.8482 6.54051C4.79973 6.59151 4.74979 6.66451 4.7175 6.74305C4.19012 8.02256 4 10.5351 4 11.9996C4 13.4714 4.19738 16.023 4.71988 17.2614C4.75179 17.337 4.79973 17.4075 4.84836 17.4587C5.79919 18.459 16.0522 18.7022 18.9081 17.6207C19.028 17.5752 19.133 17.4949 19.2102 17.3866C19.6167 16.8153 20 14.2045 20 11.9996C20 9.94485 19.6378 7.22005 19.2121 6.61523ZM18.1237 15.5256C18.5575 15.9327 18.2662 16.6619 17.6739 16.6619C17.5127 16.6619 17.3512 16.603 17.2244 16.484L13.4081 12.9033L12.4526 13.8112C12.199 14.0521 11.801 14.0521 11.5474 13.8112L10.5919 12.9033L6.77555 16.4841C6.64873 16.603 6.48724 16.662 6.32606 16.662C5.7336 16.662 5.44266 15.9325 5.87629 15.5257L9.63434 11.9996L5.87632 8.47362C5.61166 8.22529 5.59843 7.80944 5.84675 7.54478C6.09504 7.28016 6.51093 7.26689 6.77555 7.51521C11.7418 12.1748 10.7307 11.2224 12 12.4284C13.2707 11.2211 12.2619 12.1714 17.2245 7.51521C17.4891 7.26689 17.905 7.28016 18.1533 7.54478C18.4016 7.80944 18.3883 8.22529 18.1237 8.47362L14.3656 11.9996L18.1237 15.5256Z" fill="#DD2A1B"/>
</svg>
