<svg width="30" height="30" viewBox="0 0 30 30" fill="none" xmlns="http://www.w3.org/2000/svg">
<path d="M20.4041 7.21802H15.3171L13.911 10.0302H12.9395V14.2482H14.3455V15.6542H15.7514V14.2482H19.9696V15.6542H21.3757V14.2482H22.7816V10.0302H21.81L20.4041 7.21802ZM16.1859 8.62408H19.5351L20.2381 10.0302H15.483L16.1859 8.62408ZM21.3757 12.8423H14.3455V11.4362H21.3757V12.8423Z" fill="#4087BE"/>
<path d="M17.8609 3C12.8214 3 8.72151 7.09991 8.72151 12.1392C8.72151 14.4064 9.55171 16.4832 10.9235 18.0822L10.0532 18.9525L9.05915 17.9583L3 24.0172L5.98261 27L12.0416 20.9409L11.0475 19.9468L11.9178 19.0763C13.5169 20.4483 15.5937 21.2783 17.8609 21.2783C22.9001 21.2783 27 17.1786 27 12.1392C27 7.09991 22.9001 3 17.8609 3ZM5.98261 25.0115L4.98835 24.0174L9.05915 19.9468L10.0532 20.9409L5.98261 25.0115ZM17.8609 19.8724C13.5967 19.8724 10.1276 16.4033 10.1276 12.1392C10.1276 7.87518 13.5967 4.40607 17.8609 4.40607C22.1249 4.40607 25.594 7.87518 25.594 12.1392C25.594 16.4033 22.1249 19.8724 17.8609 19.8724Z" fill="#4087BE"/>
</svg>
