<svg width="24" height="24" viewBox="0 0 24 24" fill="none" xmlns="http://www.w3.org/2000/svg">
<path d="M15.5044 9.51664L14.252 9.4707L13.9805 16.8858L15.2329 16.9316L15.5044 9.51664Z" fill="#4087BE"/>
<path d="M13.0814 9.49316H11.8281V16.9083H13.0814V9.49316Z" fill="#4087BE"/>
<path d="M10.9302 16.8858L10.6587 9.4707L9.40625 9.51667L9.67781 16.9318L10.9302 16.8858Z" fill="#4087BE"/>
<path d="M5 6.40234V7.65559H6.30591L7.34191 19.4286C7.37031 19.7521 7.64125 20.0002 7.96603 20.0002H16.9267C17.2515 20.0002 17.5226 19.7519 17.5508 19.4283L18.5868 7.65559H19.9138V6.40234H5ZM16.3527 18.747H8.53984L7.56397 7.65559H17.3288L16.3527 18.747Z" fill="#4087BE"/>
<path d="M14.5056 4H10.4116C9.83569 4 9.36719 4.4685 9.36719 5.04437V7.02872H10.6204V5.25325H14.2967V7.02872H15.5499V5.04437C15.5499 4.4685 15.0814 4 14.5056 4Z" fill="#4087BE"/>
</svg>
