<svg width="24" height="24" viewBox="0 0 24 24" fill="none" xmlns="http://www.w3.org/2000/svg">
<path fill-rule="evenodd" clip-rule="evenodd" d="M17.7621 3.69611C17.8188 3.69614 17.8641 3.68858 17.8641 3.67912C17.8641 3.66924 17.9207 3.66216 18 3.66217C18.0792 3.66213 18.1358 3.66923 18.1359 3.67915C18.1358 3.68883 18.1868 3.69613 18.2548 3.69613C18.3227 3.69612 18.3737 3.70343 18.3737 3.71311C18.3737 3.72247 18.3966 3.73008 18.4246 3.73009C18.4526 3.7301 18.4756 3.73775 18.4756 3.74707C18.4756 3.75643 18.4985 3.76408 18.5265 3.76405C18.5546 3.76407 18.5775 3.77172 18.5775 3.78104C18.5775 3.7904 18.6004 3.79805 18.6284 3.79802C18.6341 3.79803 18.6396 3.79836 18.6447 3.79896C18.6648 3.80121 18.6794 3.80757 18.6794 3.81505C18.6794 3.82436 18.6947 3.83199 18.7134 3.83203C18.7245 3.83203 18.7343 3.83468 18.7405 3.8388C18.7448 3.84164 18.7473 3.84518 18.7474 3.84901C18.7474 3.85306 18.7499 3.85679 18.7541 3.85969C18.7597 3.86351 18.7682 3.86601 18.7776 3.866C18.7942 3.86599 18.8188 3.88126 18.8323 3.89996C18.8457 3.91862 18.8687 3.93394 18.8832 3.93393C18.8978 3.93392 18.9207 3.9492 18.9342 3.9679C18.9411 3.97749 18.9499 3.98614 18.9585 3.99232C18.9666 3.99822 18.9746 4.00189 18.9804 4.00187C19.0069 4.00187 21.0235 6.01541 21.0234 6.0418C21.0235 6.0521 21.0464 6.08193 21.0744 6.10812C21.1025 6.13431 21.1254 6.16796 21.1254 6.18289C21.1254 6.19782 21.133 6.21005 21.1423 6.21002C21.1484 6.21004 21.1537 6.21645 21.1567 6.22604C21.1584 6.23126 21.1593 6.23743 21.1593 6.24399C21.1593 6.26267 21.167 6.27799 21.1763 6.27796C21.1857 6.27798 21.1933 6.29325 21.1933 6.31193C21.1933 6.33061 21.201 6.34593 21.2103 6.3459C21.2196 6.34592 21.2273 6.36119 21.2273 6.37987C21.2272 6.39095 21.2299 6.40084 21.2341 6.40704C21.2369 6.4113 21.2405 6.41386 21.2442 6.41384C21.2536 6.41386 21.2613 6.4368 21.2613 6.46484C21.2612 6.49284 21.2689 6.51577 21.2783 6.5158C21.2876 6.51577 21.2952 6.53871 21.2952 6.56675C21.2952 6.59474 21.3029 6.61768 21.3122 6.6177C21.3215 6.61768 21.3292 6.64828 21.3292 6.68564C21.3292 6.723 21.3368 6.75356 21.3462 6.75358C21.3568 6.75356 21.3631 6.86113 21.3631 7.04232C21.3632 7.22351 21.3568 7.33109 21.3462 7.33111C21.3368 7.33109 21.3292 7.36932 21.3292 7.41604C21.3292 7.449 21.3253 7.47771 21.3198 7.49177C21.3175 7.49763 21.3149 7.50095 21.3122 7.50097C21.3029 7.50094 21.2952 7.52388 21.2952 7.55192C21.2952 7.57992 21.2876 7.60285 21.2782 7.60288C21.2718 7.60284 21.2662 7.61003 21.2633 7.62059C21.262 7.6254 21.2612 7.63095 21.2613 7.63685C21.2613 7.64716 21.2589 7.65644 21.2553 7.6627C21.2523 7.66775 21.2484 7.67079 21.2443 7.67082C21.2349 7.6708 21.2273 7.69205 21.2273 7.71802C21.2273 7.74572 21.2132 7.77532 21.1933 7.78971C21.1746 7.80316 21.1593 7.82781 21.1593 7.84443C21.1593 7.86103 21.1517 7.87466 21.1423 7.87464C21.133 7.87462 21.1254 7.88825 21.1254 7.90486C21.1254 7.92148 21.1101 7.94612 21.0914 7.95957C21.0841 7.9648 21.0773 7.97117 21.0718 7.97767C21.0631 7.98787 21.0574 7.9985 21.0574 8.00581C21.0574 8.03424 11.2973 17.7944 11.2689 17.7944C11.2569 17.7944 11.2361 17.8096 11.2226 17.8283C11.2082 17.8483 11.1786 17.8623 11.1509 17.8623C11.1249 17.8623 11.1037 17.8699 11.1037 17.8793C11.1037 17.8887 11.0808 17.8963 11.0528 17.8963C11.0247 17.8963 11.0018 17.9039 11.0018 17.9133C11.0018 17.9226 10.9712 17.9303 10.9339 17.9303C10.8965 17.9303 10.8659 17.9379 10.8659 17.9473C10.8659 17.9566 10.8353 17.9642 10.798 17.9642C10.772 17.9642 10.7493 17.9679 10.7379 17.9733C10.7329 17.9757 10.73 17.9784 10.73 17.9812C10.73 17.9905 10.6995 17.9982 10.6621 17.9982C10.6247 17.9982 10.5941 18.0058 10.5942 18.0152C10.5941 18.0208 10.5831 18.0258 10.5663 18.0289C10.555 18.031 10.5412 18.0322 10.5262 18.0322C10.4888 18.0322 10.4583 18.0398 10.4582 18.0491C10.4583 18.0585 10.4277 18.0662 10.3903 18.0661C10.3529 18.0661 10.3224 18.0738 10.3224 18.0831C10.3224 18.0925 10.2918 18.1001 10.2544 18.1001C10.2171 18.1001 10.1865 18.1078 10.1865 18.1171C10.1865 18.1265 10.1559 18.1341 10.1185 18.1341C10.0812 18.1341 10.0506 18.1417 10.0506 18.1511C10.0506 18.1604 10.02 18.1681 9.98265 18.1681C9.96021 18.1681 9.94019 18.1708 9.9278 18.1751C9.91956 18.1779 9.9147 18.1813 9.91471 18.1851C9.91467 18.1889 9.90933 18.1926 9.90035 18.1955C9.88785 18.1994 9.86846 18.202 9.84677 18.202C9.80941 18.202 9.77881 18.2097 9.77883 18.219C9.7788 18.2283 9.74824 18.236 9.71089 18.236C9.67353 18.236 9.64293 18.2436 9.64295 18.253C9.64292 18.2623 9.61236 18.27 9.57501 18.27C9.5376 18.27 9.50705 18.2776 9.50707 18.287C9.50704 18.2963 9.47648 18.304 9.43912 18.304C9.40172 18.3039 9.37116 18.3116 9.37114 18.3209C9.37116 18.3303 9.3406 18.3379 9.3032 18.3379C9.26584 18.3379 9.23528 18.3456 9.23526 18.3549C9.23527 18.3596 9.22764 18.3638 9.21535 18.3669C9.20305 18.37 9.18604 18.3719 9.16732 18.3719C9.12996 18.3719 9.0994 18.3796 9.09937 18.3889C9.0994 18.3982 9.06879 18.4058 9.03143 18.4059C8.99408 18.4059 8.96352 18.4135 8.96349 18.4228C8.96351 18.4322 8.93291 18.4398 8.89555 18.4398C8.8582 18.4398 8.82759 18.4475 8.82761 18.4568C8.82763 18.4662 8.79703 18.4738 8.75967 18.4738C8.73168 18.4738 8.70744 18.4781 8.69706 18.4842C8.69362 18.4862 8.69173 18.4885 8.69173 18.4908C8.6917 18.5001 8.66115 18.5078 8.62379 18.5078C8.58643 18.5078 8.55583 18.5154 8.55585 18.5248C8.55583 18.5286 8.55055 18.5322 8.54168 18.5351C8.52926 18.5392 8.50976 18.5418 8.48791 18.5418C8.4653 18.5418 8.44516 18.5445 8.43276 18.5488C8.42469 18.5516 8.41994 18.555 8.41997 18.5588C8.41994 18.5681 8.38938 18.5757 8.35203 18.5757C8.31462 18.5757 8.28407 18.5834 8.28408 18.5927C8.28406 18.602 8.25351 18.6097 8.2161 18.6097C8.17874 18.6097 8.14818 18.6173 8.14816 18.6267C8.14818 18.636 8.11762 18.6437 8.08022 18.6436C8.04286 18.6437 8.0123 18.6513 8.01228 18.6606C8.0123 18.67 7.9817 18.6776 7.94434 18.6776C7.92332 18.6776 7.90446 18.6801 7.89196 18.6838C7.88226 18.6868 7.87642 18.6906 7.8764 18.6946C7.87641 18.704 7.84581 18.7116 7.80845 18.7116C7.7711 18.7116 7.74054 18.7193 7.74051 18.7286C7.74054 18.738 7.70993 18.7456 7.67258 18.7456C7.63522 18.7456 7.60461 18.7532 7.60464 18.7626C7.60465 18.7719 7.57405 18.7795 7.53669 18.7796C7.49933 18.7796 7.46873 18.7872 7.46875 18.7965C7.46873 18.8059 7.43817 18.8135 7.40081 18.8135C7.36345 18.8135 7.33285 18.8212 7.33287 18.8305C7.33284 18.8398 7.30229 18.8475 7.26493 18.8475C7.22753 18.8475 7.19697 18.8551 7.19699 18.8645C7.19699 18.8704 7.18473 18.8756 7.16628 18.8787C7.15558 18.8805 7.14275 18.8815 7.12905 18.8815C7.09164 18.8815 7.06109 18.8891 7.06111 18.8985C7.06108 18.9078 7.03053 18.9155 6.99312 18.9154C6.97107 18.9154 6.95141 18.9181 6.93896 18.9222C6.93031 18.925 6.92517 18.9286 6.92518 18.9324C6.9252 18.9418 6.89464 18.9494 6.85724 18.9494C6.81988 18.9494 6.78933 18.9571 6.7893 18.9664C6.78932 18.9768 6.71002 18.9834 6.58548 18.9834C6.46094 18.9834 6.38163 18.9768 6.38166 18.9664C6.38164 18.957 6.36806 18.9494 6.35145 18.9494C6.33483 18.9494 6.31018 18.9341 6.29674 18.9155C6.28325 18.8968 6.26212 18.8815 6.24974 18.8815C6.22057 18.8815 6.14386 18.8048 6.14385 18.7756C6.14384 18.7632 6.12857 18.7421 6.10986 18.7286C6.08992 18.7142 6.07593 18.6846 6.0759 18.6569C6.07593 18.631 6.06828 18.6097 6.05892 18.6097C6.04886 18.6097 6.04192 18.5474 6.04194 18.4568C6.04191 18.3662 6.04883 18.3039 6.05894 18.304C6.06825 18.3039 6.07591 18.2734 6.07593 18.236C6.07589 18.2161 6.07809 18.1981 6.08154 18.1856C6.08451 18.1747 6.08852 18.1681 6.09291 18.1681C6.10223 18.1681 6.10989 18.1375 6.1099 18.1001C6.10986 18.0627 6.11752 18.0322 6.12684 18.0322C6.1362 18.0322 6.14387 18.0016 6.14383 17.9642C6.14384 17.9269 6.1515 17.8963 6.16082 17.8963C6.17018 17.8963 6.17784 17.8657 6.17781 17.8283C6.17782 17.791 6.18548 17.7604 6.1948 17.7604C6.19892 17.7604 6.20271 17.7545 6.20563 17.7446C6.20938 17.7321 6.2118 17.7134 6.21179 17.6924C6.2118 17.6551 6.21946 17.6245 6.22878 17.6245C6.23814 17.6245 6.24575 17.5939 6.24576 17.5566C6.24577 17.5192 6.25339 17.4886 6.26275 17.4886C6.27212 17.4886 6.27973 17.458 6.27974 17.4207C6.27973 17.3995 6.28222 17.3805 6.28606 17.368C6.28895 17.3585 6.29269 17.3528 6.29673 17.3527C6.30604 17.3527 6.3137 17.3222 6.31371 17.2848C6.3137 17.2635 6.31622 17.2445 6.32007 17.232C6.32297 17.2225 6.32668 17.2169 6.3307 17.2169C6.3373 17.2168 6.34303 17.2015 6.34586 17.1794C6.34704 17.1702 6.34771 17.1599 6.34769 17.1489C6.34766 17.1115 6.35532 17.081 6.36468 17.081C6.374 17.081 6.38166 17.0504 6.38167 17.013C6.38163 16.9756 6.3893 16.9451 6.39866 16.9451C6.40798 16.9451 6.41564 16.9145 6.4156 16.8771C6.41561 16.8398 6.42327 16.8092 6.43259 16.8092C6.44195 16.8092 6.44962 16.7786 6.44958 16.7412C6.44959 16.7039 6.45725 16.6733 6.46657 16.6733C6.47088 16.6733 6.47484 16.6668 6.47783 16.6561C6.48131 16.6436 6.48353 16.6255 6.48355 16.6054C6.48357 16.568 6.49123 16.5374 6.50054 16.5374C6.50991 16.5374 6.51752 16.5068 6.51753 16.4695C6.51754 16.4321 6.52516 16.4015 6.53452 16.4015C6.54388 16.4016 6.5515 16.3709 6.55151 16.3336C6.55152 16.2962 6.55913 16.2656 6.5685 16.2657C6.57541 16.2657 6.58135 16.249 6.58402 16.2254C6.58497 16.2169 6.5855 16.2075 6.58549 16.1977C6.5855 16.1604 6.59311 16.1297 6.60248 16.1298C6.61179 16.1297 6.61945 16.0992 6.61947 16.0618C6.61948 16.0245 6.62709 15.9939 6.63645 15.9939C6.64577 15.9939 6.65343 15.9633 6.65344 15.9259C6.65343 15.901 6.6568 15.879 6.6619 15.8673C6.66441 15.8614 6.66733 15.858 6.67043 15.858C6.67975 15.858 6.68741 15.8274 6.68742 15.7901C6.6874 15.7696 6.6897 15.7513 6.69328 15.7388C6.69625 15.7284 6.70013 15.7221 6.70436 15.7221C6.71372 15.7221 6.72138 15.6915 6.72135 15.6541C6.72136 15.6168 6.72902 15.5862 6.73834 15.5862C6.7477 15.5862 6.75536 15.5557 6.75533 15.5183C6.75534 15.4809 6.763 15.4503 6.77232 15.4503C6.78168 15.4503 6.78929 15.4197 6.7893 15.3824C6.78933 15.359 6.79234 15.3382 6.79687 15.326C6.79957 15.3187 6.80281 15.3144 6.80629 15.3144C6.81566 15.3145 6.82327 15.2839 6.82328 15.2465C6.82329 15.2091 6.83091 15.1785 6.84027 15.1786C6.84963 15.1786 6.85725 15.148 6.85726 15.1106C6.85727 15.0733 6.86488 15.0427 6.87425 15.0427C6.8795 15.0427 6.88418 15.033 6.88731 15.018C6.88977 15.0062 6.89125 14.9911 6.89123 14.9747C6.89125 14.9374 6.89886 14.9068 6.90822 14.9068C6.91754 14.9068 6.9252 14.8762 6.92521 14.8388C6.92518 14.8179 6.92759 14.799 6.93135 14.7865C6.93428 14.7768 6.93809 14.7709 6.9422 14.7709C6.95152 14.7709 6.95918 14.7403 6.95919 14.703C6.95919 14.6845 6.96102 14.6676 6.96403 14.6553C6.96711 14.6428 6.97142 14.635 6.97618 14.635C6.98078 14.635 6.98497 14.6276 6.98803 14.6157C6.9912 14.6033 6.99315 14.5861 6.99312 14.567C6.99312 14.5374 6.99794 14.512 7.00461 14.5028C7.00635 14.5004 7.0082 14.4991 7.01011 14.4991C7.01947 14.4991 7.02713 14.4686 7.0271 14.4312C7.02711 14.3938 7.03477 14.3632 7.04408 14.3632C7.05345 14.3632 7.06111 14.3327 7.06107 14.2953C7.06109 14.2579 7.06874 14.2274 7.07806 14.2273C7.08742 14.2274 7.09504 14.1968 7.09505 14.1594C7.09506 14.122 7.10272 14.0915 7.11204 14.0915C7.11702 14.0915 7.12149 14.0828 7.12462 14.069C7.12733 14.0569 7.12902 14.041 7.12903 14.0235C7.12904 13.9862 7.13665 13.9556 7.14602 13.9556C7.15293 13.9556 7.15889 13.9432 7.16155 13.9254C7.16248 13.919 7.16302 13.912 7.163 13.9046C7.16298 13.887 7.16598 13.8714 7.17053 13.8623C7.17325 13.8568 7.17651 13.8537 7.17999 13.8537C7.18931 13.8536 7.19698 13.8422 7.19696 13.8282C7.19696 13.7973 16.9886 4.00185 17.0195 4.00185C17.0315 4.00188 17.0523 3.98656 17.0658 3.9679C17.0792 3.9492 17.1038 3.93394 17.1205 3.93393C17.1371 3.93393 17.1507 3.92626 17.1507 3.91694C17.1507 3.90758 17.1643 3.89996 17.1809 3.89996C17.1975 3.89995 17.2222 3.88469 17.2356 3.86599C17.2491 3.84728 17.2737 3.83202 17.2903 3.83201C17.3069 3.83201 17.3206 3.82439 17.3205 3.81502C17.3205 3.80566 17.3434 3.79802 17.3715 3.79804C17.3995 3.79805 17.4225 3.79041 17.4224 3.78105C17.4225 3.77418 17.4349 3.76819 17.4528 3.76556C17.4591 3.7646 17.4661 3.76408 17.4734 3.76406C17.5014 3.76408 17.5244 3.75644 17.5244 3.74707C17.5244 3.73776 17.5549 3.7301 17.5923 3.73009C17.6297 3.73008 17.6603 3.72246 17.6602 3.7131C17.6603 3.70368 17.7055 3.69612 17.7621 3.69611ZM18.1189 4.78322C18.0721 4.78321 18.0339 4.77555 18.0339 4.76624C18.0339 4.75688 18.0187 4.74925 18 4.74925C17.9813 4.74926 17.966 4.75688 17.966 4.76624C17.966 4.77556 17.9278 4.78324 17.8811 4.78323C17.8344 4.78322 17.7961 4.79086 17.7962 4.80022C17.7961 4.80954 17.7825 4.81721 17.7659 4.81721C17.7493 4.81717 17.7247 4.83247 17.7112 4.85118C17.7037 4.86162 17.6939 4.87098 17.6846 4.87725C17.6772 4.88217 17.6702 4.88514 17.665 4.88515C17.6393 4.88513 16.4373 6.08283 16.4373 6.10843C16.4373 6.13122 16.6181 6.31193 16.6409 6.31193C16.6506 6.31193 16.8876 6.54125 17.1676 6.82151C17.4477 7.10181 17.6847 7.33112 17.6942 7.33108C17.7038 7.33108 17.9407 7.56039 18.2208 7.84069C18.5008 8.12094 18.7381 8.35025 18.7479 8.35023C18.7579 8.35025 18.8189 8.40395 18.8837 8.46961L19.0014 8.58895L19.5878 8.00256C19.9103 7.68004 20.1741 7.40633 20.1741 7.39433C20.1742 7.38239 20.1895 7.36156 20.2081 7.34807C20.2201 7.33946 20.2307 7.32627 20.2367 7.31354C20.2401 7.30638 20.2421 7.29935 20.2421 7.29335C20.2421 7.2864 20.2434 7.27999 20.2457 7.27484C20.2488 7.26776 20.2536 7.26313 20.2591 7.26314C20.2684 7.26316 20.2761 7.22493 20.2761 7.17821C20.276 7.15365 20.2782 7.13145 20.2815 7.1159C20.2846 7.10188 20.2886 7.0933 20.293 7.09329C20.3024 7.09331 20.31 7.07799 20.31 7.05932C20.31 7.04064 20.3024 7.02537 20.2931 7.02535C20.2861 7.02531 20.2802 7.00468 20.2775 6.97517C20.2766 6.96457 20.2761 6.9528 20.2761 6.94042C20.2761 6.90616 20.2719 6.87644 20.2661 6.86306C20.2639 6.85818 20.2616 6.85548 20.2591 6.8555C20.2497 6.85548 20.2421 6.8433 20.2421 6.82831C20.2421 6.81339 20.2192 6.77974 20.1912 6.7536C20.1631 6.7274 20.1402 6.69758 20.1402 6.68727C20.1402 6.66083 18.3614 4.88511 18.335 4.88512C18.323 4.88515 18.3022 4.86985 18.2887 4.85115C18.2753 4.83249 18.2506 4.81717 18.234 4.81718C18.2235 4.81719 18.2142 4.81413 18.2088 4.8095C18.2056 4.80681 18.2038 4.80364 18.2038 4.8002C18.2038 4.79088 18.1656 4.78323 18.1189 4.78322ZM16.4032 7.60288C16.3936 7.60289 16.2255 7.44237 16.0296 7.24614C15.8337 7.04996 15.6638 6.89008 15.6519 6.89085C15.6401 6.89167 13.9469 8.57708 11.8893 10.6362C10.1555 12.3713 9.22293 13.3053 8.7225 13.8134L11.2043 16.2952L11.2021 16.2974C11.2039 16.2989 11.2051 16.2996 11.2055 16.2996C11.215 16.2996 12.1323 15.39 13.2439 14.2783C14.3556 13.1666 15.2728 12.257 15.2822 12.257C15.2916 12.257 15.9451 11.6111 16.7346 10.8217C17.6932 9.86308 18.1698 9.375 18.1698 9.352C18.1698 9.3169 18.0322 9.16554 18.0003 9.16556C17.9906 9.16556 17.6312 8.81396 17.2016 8.38421C16.772 7.95447 16.4127 7.60288 16.4032 7.60288ZM8.97825 15.6066L8.08021 14.7085C8.07948 14.7433 8.07215 14.7709 8.06325 14.7709C8.05389 14.7709 8.04628 14.8015 8.04626 14.8388C8.04625 14.8762 8.03864 14.9068 8.02927 14.9068C8.01991 14.9068 8.0123 14.9374 8.01229 14.9747C8.01228 15.0121 8.00466 15.0427 7.9953 15.0427C7.98598 15.0427 7.97832 15.0732 7.97831 15.1106C7.9783 15.148 7.97068 15.1786 7.96132 15.1785C7.95201 15.1786 7.94435 15.2091 7.94433 15.2465C7.94437 15.2839 7.93671 15.3144 7.92734 15.3144C7.91803 15.3144 7.91037 15.345 7.91036 15.3824C7.91039 15.4198 7.90273 15.4503 7.89341 15.4503C7.88405 15.4503 7.87639 15.4809 7.87642 15.5183C7.87642 15.5556 7.86875 15.5862 7.85944 15.5862C7.85007 15.5862 7.84241 15.6168 7.84245 15.6542C7.84244 15.6915 7.83478 15.7221 7.82546 15.7221C7.8161 15.7221 7.80848 15.7527 7.80847 15.7901C7.80849 15.8112 7.80602 15.83 7.80224 15.8425C7.79928 15.8522 7.79554 15.858 7.79148 15.858C7.78212 15.858 7.77451 15.8886 7.77449 15.9259C7.77448 15.9633 7.76687 15.9939 7.75751 15.9939C7.75431 15.9939 7.75128 15.9975 7.7487 16.0037C7.74379 16.0157 7.74054 16.0373 7.74052 16.0618C7.74051 16.0992 7.73289 16.1298 7.72353 16.1298C7.71421 16.1298 7.70655 16.1603 7.70654 16.1977C7.70653 16.2351 7.69891 16.2657 7.68955 16.2656C7.68024 16.2657 7.67258 16.2962 7.67256 16.3336C7.6726 16.371 7.66494 16.4015 7.65557 16.4015C7.64626 16.4015 7.6386 16.4321 7.63859 16.4695C7.63862 16.5069 7.63096 16.5374 7.6216 16.5374C7.61228 16.5374 7.60462 16.568 7.60466 16.6054C7.60464 16.6427 7.59698 16.6733 7.58767 16.6733C7.5783 16.6733 7.57064 16.7039 7.57068 16.7413C7.57067 16.7786 7.56301 16.8092 7.55369 16.8092C7.54433 16.8092 7.53667 16.8397 7.5367 16.8771C7.53669 16.9145 7.52903 16.9451 7.51971 16.9451C7.51035 16.9451 7.50274 16.9757 7.50272 17.013C7.50271 17.0504 7.49505 17.0809 7.48574 17.081C7.48021 17.081 7.4753 17.0917 7.47217 17.1081C7.47001 17.1195 7.46873 17.1336 7.46875 17.1489C7.46873 17.1863 7.46112 17.2169 7.45176 17.2169C7.4424 17.2168 7.43478 17.2474 7.43477 17.2848C7.43476 17.3222 7.42714 17.3528 7.41778 17.3527C7.40847 17.3528 7.4008 17.3833 7.40079 17.4207C7.40078 17.458 7.39317 17.4886 7.3838 17.4886C7.38079 17.4886 7.37794 17.4919 7.37543 17.4975C7.37029 17.5092 7.36681 17.5313 7.36681 17.5566C7.36685 17.594 7.35919 17.6245 7.34983 17.6245C7.34051 17.6245 7.33284 17.6398 7.33284 17.6585C7.33287 17.6811 7.34418 17.6924 7.36681 17.6924C7.38553 17.6925 7.4008 17.6848 7.40078 17.6754C7.40081 17.6661 7.43136 17.6585 7.46877 17.6585C7.50612 17.6585 7.53668 17.6508 7.53671 17.6415C7.53669 17.6322 7.56724 17.6245 7.60465 17.6245C7.642 17.6245 7.67256 17.6169 7.67259 17.6075C7.67257 17.5982 7.70317 17.5906 7.74053 17.5906C7.77789 17.5905 7.80844 17.5829 7.80847 17.5736C7.80845 17.5642 7.83905 17.5566 7.87641 17.5566C7.89432 17.5566 7.91063 17.5548 7.92279 17.552C7.93603 17.5488 7.94436 17.5445 7.94435 17.5396C7.94433 17.5302 7.97494 17.5226 8.01229 17.5226C8.04965 17.5226 8.08025 17.515 8.08023 17.5056C8.08026 17.4963 8.11082 17.4886 8.14817 17.4886C8.17659 17.4886 8.20109 17.4842 8.21117 17.478C8.21436 17.476 8.21612 17.4739 8.21611 17.4716C8.21614 17.4623 8.2467 17.4547 8.28406 17.4546C8.32141 17.4546 8.35202 17.447 8.35199 17.4377C8.35202 17.4283 8.38258 17.4207 8.41994 17.4207C8.4372 17.4207 8.453 17.419 8.46503 17.4164C8.47904 17.4133 8.48789 17.4087 8.48788 17.4037C8.4879 17.3944 8.51846 17.3867 8.55582 17.3867C8.59322 17.3867 8.62378 17.3791 8.6238 17.3697C8.62378 17.3604 8.65434 17.3527 8.69175 17.3528C8.7137 17.3528 8.73327 17.3501 8.7457 17.346C8.75445 17.3432 8.75968 17.3396 8.75968 17.3358C8.75966 17.3264 8.79022 17.3187 8.82763 17.3188C8.8464 17.3188 8.86346 17.3168 8.87582 17.3138C8.88801 17.3107 8.89555 17.3064 8.89557 17.3018C8.89555 17.2924 8.92615 17.2848 8.96351 17.2848C9.00087 17.2848 9.03142 17.2771 9.03145 17.2678C9.03143 17.2585 9.06203 17.2508 9.09939 17.2508C9.13675 17.2508 9.16735 17.2432 9.16733 17.2338C9.16731 17.2245 9.19791 17.2169 9.23527 17.2169C9.25686 17.2168 9.2762 17.2143 9.28868 17.2104C9.29778 17.2075 9.30321 17.2038 9.30321 17.1999C9.30324 17.1905 9.3338 17.1829 9.37115 17.1829C9.40851 17.1829 9.43911 17.1752 9.43909 17.1659C9.43912 17.1566 9.46968 17.1489 9.50703 17.1489C9.54444 17.1489 9.57499 17.1413 9.57497 17.1319C9.575 17.1226 9.60556 17.1149 9.64292 17.1149C9.6698 17.115 9.69311 17.111 9.70414 17.1053C9.70844 17.1031 9.71085 17.1006 9.71085 17.0979C9.71088 17.0886 9.74144 17.081 9.77884 17.081C9.79919 17.081 9.81751 17.0787 9.82999 17.0752C9.84042 17.0722 9.84676 17.0682 9.84678 17.064C9.84676 17.0546 9.87732 17.047 9.91472 17.047C9.95208 17.047 9.98264 17.0393 9.98266 17.03C9.98264 17.0207 10.0132 17.013 10.0506 17.013C10.088 17.013 10.1185 17.0054 10.1185 16.996C10.1185 16.9901 10.1294 16.9849 10.1458 16.9819C10.1553 16.9801 10.1669 16.9791 10.1792 16.979C10.2126 16.9791 10.2511 16.9678 10.2648 16.9541C10.2868 16.9322 10.2037 16.8431 9.57568 16.2154C9.32654 15.9663 9.1061 15.7414 8.97825 15.6066Z" fill="#4087BE"/>
<path d="M13 18H21V19.249H13V18Z" fill="#4087BE"/>
</svg>
