<svg width="40" height="40" viewBox="0 0 40 40" fill="none" xmlns="http://www.w3.org/2000/svg">
<path d="M23.9318 28.2241H26.6188C27.8496 28.2241 28.8509 27.2228 28.8509 25.992L28.8582 19.3323C28.8588 18.3232 28.3753 17.4263 27.5796 16.8822C27.5627 16.8148 25.7676 13.382 25.7676 13.382C25.239 12.3769 24.2537 11.7769 23.132 11.7769H16.0582C14.9374 11.7769 13.9525 12.3763 13.4235 13.3804C13.1373 13.9238 11.5654 16.9133 11.5654 16.9133C10.7568 17.4576 10.2752 18.352 10.2747 19.3706L10.2734 25.992C10.2734 27.2228 11.2748 28.2241 12.5056 28.2241H15.1925C16.4233 28.2241 17.4246 27.2228 17.4246 25.992V24.6488H21.6997V25.992C21.6997 27.2228 22.7011 28.2241 23.9318 28.2241ZM27.0696 25.992C27.0696 26.2364 26.8632 26.4428 26.6188 26.4428H23.9318C23.6875 26.4428 23.481 26.2364 23.481 25.992V24.6488H25.8748C26.2995 24.6488 26.7035 24.559 27.0696 24.3984V25.992ZM14.9996 14.2105C15.2212 13.7898 15.5971 13.5581 16.0582 13.5581H23.1319C23.5933 13.5581 23.9695 13.7901 24.191 14.2112C24.191 14.2112 25.1326 16.0021 25.1754 16.0834C22.8853 15.6338 20.1434 15.5261 19.5676 15.5261C17.5407 15.5261 15.5969 15.7166 14.0288 16.0552C14.0288 16.0552 14.7135 14.7535 14.9996 14.2105ZM15.6434 25.992C15.6434 26.2364 15.4369 26.4428 15.1925 26.4428H12.5056C12.2612 26.4428 12.0548 26.2364 12.0548 25.992V24.3964C12.4286 24.5613 12.8355 24.6488 13.2557 24.6488H15.6434V25.992H15.6434ZM13.2557 22.8675C12.9361 22.8675 12.6347 22.7423 12.407 22.5148C12.1797 22.2877 12.0546 21.9873 12.0548 21.669L12.056 19.3716C12.0563 18.8631 12.3388 18.4471 12.8117 18.2589C14.3088 17.6631 16.8344 17.3075 19.5676 17.3075C20.6261 17.3075 24.3309 17.5274 26.271 18.201C26.7684 18.3736 27.0773 18.8068 27.077 19.3314L27.0697 21.7885C27.01 22.3934 26.4969 22.8677 25.8748 22.8677H13.2557V22.8675Z" fill="#FF6F00"/>
<path d="M14.75 19.3047C14.2594 19.3047 13.8594 19.7048 13.8594 20.1953C13.8594 20.6859 14.2594 21.0859 14.75 21.0859C15.2406 21.0859 15.6406 20.6858 15.6406 20.1953C15.6406 19.7048 15.2406 19.3047 14.75 19.3047Z" fill="#FF6F00"/>
<path d="M24.3691 19.3047C23.8786 19.3047 23.4785 19.7048 23.4785 20.1953C23.4785 20.6859 23.8786 21.0859 24.3691 21.0859C24.8597 21.0859 25.2598 20.6858 25.2598 20.1953C25.2598 19.7048 24.8596 19.3047 24.3691 19.3047Z" fill="#FF6F00"/>
<path d="M20.8063 19.3047H18.3125C17.8206 19.3047 17.4219 19.7035 17.4219 20.1953C17.4219 20.6872 17.8206 21.086 18.3125 21.086H20.8063C21.2981 21.086 21.6969 20.6872 21.6969 20.1953C21.6969 19.7035 21.2981 19.3047 20.8063 19.3047Z" fill="#FF6F00"/>
<path d="M6.81629 16.7713C6.93094 16.7713 7.04756 16.749 7.15996 16.7019L9.96442 15.5275C10.4181 15.3375 10.6319 14.8157 10.4419 14.362C10.2519 13.9081 9.73006 13.6946 9.27637 13.8845L8.47823 14.2187C10.4984 9.61138 15.0755 6.58134 20.1687 6.58134C25.9888 6.58134 31.0711 10.5167 32.5281 16.1514C32.6319 16.5529 32.9935 16.8193 33.3898 16.8193C33.4636 16.8193 33.5386 16.8101 33.6134 16.7908C34.0896 16.6676 34.3758 16.1817 34.2527 15.7055C32.5924 9.28451 26.8009 4.80005 20.1687 4.80005C14.3357 4.80005 9.09699 8.28794 6.8129 13.5826L6.51222 12.8701C6.32097 12.417 5.79858 12.2047 5.34536 12.3959C4.8922 12.5871 4.67987 13.1095 4.87106 13.5627L5.99529 16.2267C6.13886 16.5668 6.46888 16.7713 6.81629 16.7713Z" fill="#FF6F00"/>
<path d="M35.0937 26.4373L33.9695 23.7733C33.826 23.4332 33.496 23.2287 33.1486 23.2287C33.0339 23.2287 32.9173 23.251 32.8049 23.2981L30.0004 24.4725C29.5467 24.6625 29.3329 25.1843 29.5229 25.638C29.713 26.0918 30.2348 26.3054 30.6885 26.1155L31.4866 25.7813C29.4665 30.3886 24.8893 33.4186 19.7961 33.4186C13.9761 33.4186 8.89374 29.4833 7.43676 23.8486C7.33291 23.4471 6.97137 23.1807 6.57509 23.1807C6.50128 23.1807 6.42629 23.1899 6.35148 23.2092C5.87528 23.3324 5.58902 23.8182 5.71217 24.2944C7.37245 30.7154 13.164 35.1999 19.7961 35.1999C25.6292 35.1999 30.8679 31.712 33.152 26.4173L33.4526 27.1298C33.6439 27.5829 34.1663 27.7952 34.6195 27.604C35.0726 27.4129 35.2849 26.8905 35.0937 26.4373Z" fill="#FF6F00"/>
</svg>
