<svg width="40" height="40" viewBox="0 0 40 40" fill="none" xmlns="http://www.w3.org/2000/svg">
<path d="M8.90085 17.8933C8.35843 17.8933 7.91602 18.3357 7.91602 18.8781C7.91602 19.4206 8.35843 19.863 8.90085 19.863C9.44327 19.863 9.88568 19.4206 9.88568 18.8781C9.88568 18.3357 9.44327 17.8933 8.90085 17.8933Z" fill="#FF6F00"/>
<path d="M27.7672 13.3812C27.6054 13.3812 27.4446 13.3857 27.2849 13.3942C26.6952 12.2663 25.5973 10.1727 25.5973 10.1727C24.8818 8.81225 23.5492 8 22.0325 8H11.6393C10.1237 8 8.79155 8.81135 8.07572 10.1704C7.65521 10.9687 5.31392 15.3295 5.08208 15.7678C4.39668 16.4947 4.00333 17.4745 4.00179 18.5578L4 25.2774C4 26.6212 5.09323 27.7145 6.43707 27.7145H9.39374C10.7376 27.7145 11.8308 26.6212 11.8308 25.2774V23.7751H18.8369C19.4951 28.1124 23.249 31.4469 27.7672 31.4469C32.7479 31.4469 36.8 27.3948 36.8 22.4141C36.8 17.4333 32.7479 13.3812 27.7672 13.3812ZM9.77613 11.066C10.1592 10.3389 10.8382 9.92188 11.6393 9.92188H22.0325C22.8342 9.92188 23.5134 10.3394 23.8963 11.0672C23.8963 11.0672 24.8087 12.8045 25.2919 13.7261C25.0012 13.809 24.7166 13.9063 24.4386 14.0169C21.2878 13.4098 17.6326 13.2622 16.847 13.2622C13.5492 13.2622 10.4131 13.6337 8.07643 14.2798C8.24036 13.9779 9.35582 11.8639 9.77613 11.066ZM9.90893 25.2774C9.90893 25.5566 9.67299 25.7926 9.39374 25.7926H6.43707C6.15782 25.7926 5.92188 25.5566 5.92188 25.2774V23.2121C6.52131 23.5788 7.20697 23.7751 7.91934 23.7751H9.909V25.2774H9.90893ZM7.91934 21.8533C7.40691 21.8533 6.91869 21.6469 6.54456 21.2723C6.14225 20.8694 5.92117 20.3283 5.92194 19.7487L5.92367 18.5606C5.92495 17.6608 6.3992 16.9281 7.19236 16.6005C9.34012 15.7135 12.9493 15.184 16.847 15.184C17.6998 15.184 19.7592 15.2888 21.8902 15.5603C21.1139 16.2269 20.4516 17.0225 19.9373 17.9139H12.8402C12.3095 17.9139 11.8792 18.3442 11.8792 18.8749C11.8792 19.4056 12.3095 19.8358 12.8402 19.8358H19.1099C18.9173 20.4812 18.7952 21.1566 18.7523 21.8533H7.91934ZM27.7672 29.525C23.8462 29.525 20.6562 26.3351 20.6562 22.4141C20.6562 18.4931 23.8462 15.3031 27.7672 15.3031C31.6882 15.3031 34.8781 18.4931 34.8781 22.4141C34.8781 26.3351 31.6882 29.525 27.7672 29.525Z" fill="#FF6F00"/>
<path d="M30.9786 26.586C30.7327 26.586 30.4868 26.4922 30.2992 26.3045L27.0881 23.0935C26.9079 22.9133 26.8066 22.6689 26.8066 22.414V17.8774C26.8066 17.3467 27.2369 16.9165 27.7676 16.9165C28.2983 16.9165 28.7285 17.3467 28.7285 17.8774V22.0161L31.6581 24.9457C32.0334 25.3209 32.0334 25.9293 31.6581 26.3046C31.4705 26.4922 31.2246 26.586 30.9786 26.586Z" fill="#FF6F00"/>
</svg>
