<svg width="40" height="40" viewBox="0 0 40 40" fill="none" xmlns="http://www.w3.org/2000/svg">
<path d="M31.8609 10.2687H27.7349C26.6903 7.54164 24.0458 5.6001 20.9558 5.6001H18.0873C14.9974 5.6001 12.3528 7.54164 11.3082 10.2687H8.13088C6.73514 10.2687 5.59961 11.4042 5.59961 12.7999V21.5187C5.59961 22.9145 6.73514 24.05 8.13088 24.05H9.14339V33.5563C9.14339 34.0223 9.52117 34.4001 9.98714 34.4001H11.6182C11.9129 34.4001 12.1862 34.2464 12.3393 33.9946L14.0832 31.1256C14.1635 30.9936 14.2059 30.842 14.2059 30.6874V24.05H15.2184C16.6142 24.05 17.7497 22.9145 17.7497 21.5187V12.7999C17.7497 11.4042 16.6142 10.2687 15.2184 10.2687H13.1575C14.0908 8.49778 15.9503 7.28761 18.0873 7.28761H20.9558C23.0929 7.28761 24.9523 8.49778 25.8857 10.2687H22.8761C21.4761 10.2687 20.3372 11.4076 20.3372 12.8076V27.4736C20.3372 28.8737 21.4761 30.0126 22.8761 30.0126H31.8609C33.2609 30.0126 34.3998 28.8737 34.3998 27.4736V12.8076C34.3998 11.4076 33.2609 10.2687 31.8609 10.2687ZM12.5184 30.4511L11.1437 32.7126H10.8309V24.05H12.5184V30.4511ZM15.2184 11.9562C15.6837 11.9562 16.0622 12.3347 16.0622 12.7999V21.5187C16.0622 21.984 15.6837 22.3625 15.2184 22.3625H8.13088C7.66563 22.3625 7.28712 21.984 7.28712 21.5187V12.7999C7.28712 12.3347 7.66563 11.9562 8.13088 11.9562C8.13088 11.9562 10.8865 11.9562 10.8867 11.9562C10.8503 11.9571 10.8502 12.3696 10.8472 12.4193C10.8338 12.6398 10.8309 12.8604 10.8309 13.0812C10.8309 13.5472 11.2087 13.925 11.6747 13.925C12.1406 13.925 12.5184 13.5472 12.5184 13.0812C12.5184 12.7035 12.5306 12.3299 12.5916 11.9562H15.2184ZM32.7123 27.4736C32.7123 27.9431 32.3304 28.3251 31.8609 28.3251H22.8762C22.4067 28.3251 22.0247 27.9431 22.0247 27.4736V12.8076C22.0247 12.3381 22.4067 11.9562 22.8762 11.9562C22.8762 11.9562 26.4516 11.9562 26.4516 11.9562C26.5304 11.9564 26.5248 12.9594 26.5248 13.0811C26.5248 13.5471 26.9026 13.9249 27.3685 13.9249C27.8345 13.9249 28.2123 13.5471 28.2123 13.0811C28.2123 12.7045 28.203 12.3305 28.1565 11.9562H31.8609C32.3304 11.9562 32.7124 12.3381 32.7124 12.8076V27.4736H32.7123Z" fill="#FF6F00"/>
<path d="M29.3379 15.6121H25.4004C24.4699 15.6121 23.7129 16.3691 23.7129 17.2996V24.9496C23.7129 25.8801 24.4699 26.6371 25.4004 26.6371H29.3379C30.2684 26.6371 31.0254 25.8801 31.0254 24.9496V17.2996C31.0254 16.3691 30.2684 15.6121 29.3379 15.6121ZM29.3379 17.2996V20.2808H25.4003L25.4002 17.2996H29.3379ZM25.4004 24.9496L25.4003 21.9684H29.3379V24.9496H25.4004Z" fill="#FF6F00"/>
<path d="M8.97461 16.4558C8.97461 16.9218 9.35239 17.2996 9.81837 17.2996H13.5309C13.9969 17.2996 14.3747 16.9218 14.3747 16.4558C14.3747 15.9898 13.9969 15.6121 13.5309 15.6121H9.81837C9.35239 15.6121 8.97461 15.9898 8.97461 16.4558Z" fill="#FF6F00"/>
<path d="M13.5309 18.9871H9.81837C9.35239 18.9871 8.97461 19.3648 8.97461 19.8308C8.97461 20.2968 9.35239 20.6746 9.81837 20.6746H13.5309C13.9969 20.6746 14.3747 20.2968 14.3747 19.8308C14.3747 19.3648 13.9969 18.9871 13.5309 18.9871Z" fill="#FF6F00"/>
</svg>
