<svg width="20" height="21" viewBox="0 0 20 21" fill="none" xmlns="http://www.w3.org/2000/svg">
<path d="M19.8268 9.2581C19.7593 8.83224 19.3616 8.54213 18.9385 8.61007C18.5154 8.67801 18.2272 9.07834 18.2947 9.5042C18.2954 9.50886 18.2962 9.51348 18.297 9.5181C19.087 14.199 15.9575 18.6382 11.307 19.4334C6.65646 20.2285 2.2461 17.0785 1.4561 12.3976C0.666099 7.71672 3.79569 3.27753 8.44615 2.48237C11.3061 1.99338 14.2171 2.99891 16.1761 5.15248L12.7395 6.30497C12.333 6.44112 12.1131 6.88318 12.2483 7.29238C12.2484 7.29247 12.2484 7.29261 12.2485 7.2927C12.3837 7.7019 12.8229 7.9232 13.2295 7.78709C13.2296 7.78705 13.2297 7.787 13.2298 7.787L17.8843 6.22536C18.2012 6.11912 18.415 5.82059 18.415 5.48436V0.799398C18.415 0.368143 18.0676 0.0185547 17.6392 0.0185547C17.2107 0.0185547 16.8634 0.368143 16.8634 0.799398V3.65174C12.8683 -0.172916 6.54928 -0.0135629 2.74946 4.00764C-1.05036 8.02884 -0.892082 14.3892 3.10305 18.2139C7.09819 22.0386 13.4172 21.8792 17.2171 17.858C19.3838 15.5649 20.3508 12.3784 19.8268 9.2581Z" fill="#5F5F5F"/>
</svg>
