<svg width="20" height="21" viewBox="0 0 20 21" fill="none" xmlns="http://www.w3.org/2000/svg">
<path fill-rule="evenodd" clip-rule="evenodd" d="M10.1601 4.41772C8.79335 4.41852 7.4827 4.96118 6.51545 5.92675C5.54819 6.89232 5.00324 8.20201 5.00007 9.56872C4.99637 10.293 5.14991 11.0095 5.45007 11.6687C6.66568 14.0624 8.17389 16.2958 9.94007 18.3177C9.96745 18.3483 10.001 18.3728 10.0385 18.3895C10.0759 18.4062 10.1165 18.4149 10.1576 18.4149C10.1986 18.4149 10.2392 18.4062 10.2767 18.3895C10.3142 18.3728 10.3477 18.3483 10.3751 18.3177C12.1405 16.2973 13.6484 14.0656 14.8641 11.6737C15.164 11.0144 15.3175 10.298 15.3141 9.57372C15.3122 8.20718 14.7687 6.89711 13.8026 5.93063C12.8365 4.96415 11.5266 4.42011 10.1601 4.41772ZM10.1601 12.2447C9.63049 12.2443 9.11292 12.0869 8.67279 11.7924C8.23266 11.4979 7.88973 11.0795 7.68734 10.5902C7.48496 10.1008 7.43221 9.5624 7.53577 9.04305C7.63932 8.5237 7.89454 8.04671 8.26914 7.67239C8.64374 7.29806 9.12092 7.04321 9.64035 6.94004C10.1598 6.83687 10.6981 6.89002 11.1874 7.09277C11.6766 7.29552 12.0947 7.63876 12.3889 8.07912C12.6831 8.51947 12.8401 9.03715 12.8401 9.56672C12.839 10.277 12.5562 10.9578 12.0538 11.4599C11.5514 11.9619 10.8703 12.2442 10.1601 12.2447Z" fill="#FF6F00"/>
</svg>
