<svg width="20" height="21" viewBox="0 0 20 21" fill="none" xmlns="http://www.w3.org/2000/svg">
<path fill-rule="evenodd" clip-rule="evenodd" d="M10.1601 4.84229C8.79335 4.84308 7.4827 5.38574 6.51545 6.35131C5.54819 7.31688 5.00324 8.62657 5.00007 9.99329C4.99637 10.7176 5.14991 11.4341 5.45007 12.0933C6.66568 14.487 8.17389 16.7204 9.94007 18.7423C9.96745 18.7729 10.001 18.7973 10.0385 18.8141C10.0759 18.8308 10.1165 18.8395 10.1576 18.8395C10.1986 18.8395 10.2392 18.8308 10.2767 18.8141C10.3142 18.7973 10.3477 18.7729 10.3751 18.7423C12.1405 16.7219 13.6484 14.4902 14.8641 12.0983C15.164 11.439 15.3175 10.7226 15.3141 9.99829C15.3122 8.63174 14.7687 7.32167 13.8026 6.35519C12.8365 5.38871 11.5266 4.84467 10.1601 4.84229ZM10.1601 12.6693C9.63049 12.6689 9.11292 12.5115 8.67279 12.217C8.23266 11.9225 7.88973 11.5041 7.68734 11.0147C7.48496 10.5254 7.43221 9.98696 7.53577 9.46761C7.63932 8.94826 7.89454 8.47127 8.26914 8.09695C8.64374 7.72262 9.12092 7.46777 9.64035 7.3646C10.1598 7.26143 10.6981 7.31458 11.1874 7.51733C11.6766 7.72008 12.0947 8.06332 12.3889 8.50368C12.6831 8.94403 12.8401 9.46171 12.8401 9.99129C12.839 10.7016 12.5562 11.3824 12.0538 11.8845C11.5514 12.3865 10.8703 12.6688 10.1601 12.6693Z" fill="#5F5F5F"/>
</svg>
