<svg width="24" height="24" viewBox="0 0 24 24" fill="none" xmlns="http://www.w3.org/2000/svg">
<path fill-rule="evenodd" clip-rule="evenodd" d="M3.1801 3.9754L5.67547 6.4185C3.9833 7.70589 2.71188 9.44913 2.01731 11.4342C1.99423 11.5001 1.99423 11.774 2.01731 11.8395C2.2778 12.5863 2.62198 13.3025 3.04355 13.975C4.90823 16.9694 8.15597 18.8918 11.7292 18.9845H11.741H11.9992H12.2574H12.2691C13.9792 18.9383 15.6505 18.475 17.1316 17.6367L19.8229 20.2722L20.8191 19.2968L4.17621 3L3.1801 3.9754ZM12.2312 17.5674H12.2195H11.9996H11.7801H11.768C10.2574 17.5247 8.78298 17.1052 7.4842 16.3487C6.17318 15.5825 5.07308 14.5143 4.2795 13.2371L4.27715 13.234C3.96019 12.7277 3.69345 12.1929 3.48057 11.6368C3.69353 11.0809 3.96027 10.5462 4.27715 10.04L4.2795 10.037C4.91084 9.02374 5.73578 8.13921 6.70914 7.43183L8.8696 9.54775C8.37345 10.2618 8.1473 11.123 8.23014 11.9829C8.31298 12.8428 8.69962 13.6474 9.3234 14.258C9.94717 14.8686 10.769 15.247 11.6471 15.3279C12.5253 15.4087 13.4047 15.187 14.1338 14.701L16.0658 16.5928C14.879 17.1967 13.5681 17.5299 12.2312 17.5674ZM13.079 13.6681C12.6378 13.8936 12.1347 13.9754 11.6427 13.9015C11.1508 13.8276 10.6958 13.602 10.3438 13.2574C9.99192 12.9128 9.76148 12.4672 9.68604 11.9855C9.61061 11.5038 9.69411 11.0111 9.9244 10.5791L13.079 13.6681ZM21.9829 11.4342C21.7222 10.6875 21.3781 9.97135 20.9566 9.29876C19.092 6.30475 15.8442 4.3823 12.271 4.28958H12.2592C12.2165 4.28958 12.1736 4.28873 12.1307 4.28787L12.1307 4.28786C12.0876 4.287 12.0443 4.28614 12.001 4.28614C11.9145 4.28614 11.8289 4.28614 11.7428 4.28958H11.731C10.3633 4.32584 9.01674 4.62988 7.77085 5.18376L8.87808 6.26835C9.80254 5.92356 10.7797 5.73381 11.7686 5.70709H11.7819C11.8276 5.70709 11.8694 5.70621 11.908 5.70539L11.9081 5.70539C11.9412 5.70468 11.9721 5.70403 12.001 5.70403C12.0636 5.70403 12.136 5.70403 12.2201 5.70709H12.2326C13.743 5.74978 15.2173 6.1691 16.516 6.92539C17.8269 7.69173 18.927 8.75985 19.7207 10.037V10.0401C20.0377 10.5462 20.3045 11.0809 20.5173 11.6369C20.3055 12.1926 20.04 12.7272 19.7242 13.2333C19.7234 13.2344 19.7228 13.2355 19.7223 13.2368C19.2601 13.9779 18.6937 14.6518 18.0399 15.2385L19.0657 16.2426C19.8 15.5755 20.4367 14.8123 20.9578 13.9746C21.379 13.3021 21.7231 12.5861 21.9837 11.8395C22.0056 11.7733 22.0056 11.5001 21.9829 11.4342ZM15.5856 12.836L14.3402 11.6162C14.3346 11.015 14.0883 10.4401 13.6541 10.015C13.22 9.58991 12.6329 9.34867 12.019 9.34317L10.7732 8.12373C11.4439 7.89934 12.1654 7.86358 12.8558 8.0205C13.5462 8.17742 14.1778 8.52073 14.679 9.01147C15.1801 9.50221 15.5307 10.1207 15.691 10.7967C15.8512 11.4728 15.8147 12.1793 15.5856 12.836Z" fill="#5F5F5F"/>
</svg>
