<svg width="24" height="25" viewBox="0 0 24 25" fill="none" xmlns="http://www.w3.org/2000/svg">
<path d="M20.0155 19.3575L17.2555 16.4068C18.4794 14.9519 19.15 13.1213 19.15 11.2156C19.15 6.76314 15.5275 3.14062 11.075 3.14062C6.62251 3.14062 3 6.76314 3 11.2156C3 15.6681 6.62251 19.2906 11.075 19.2906C12.7465 19.2906 14.3394 18.7865 15.7013 17.8294L18.4975 20.8176C18.6979 21.0258 18.9676 21.1406 19.2565 21.1406C19.53 21.1406 19.7894 21.0364 19.9864 20.8468C20.4049 20.4441 20.4182 19.7763 20.0155 19.3575ZM11.075 4.94062C14.3661 4.94062 17.4 7.94954 17.4 11.2406C17.4 14.5317 14.3661 17.5406 11.075 17.5406C7.78391 17.5406 4.8 14.5067 4.8 11.2156C4.8 7.92453 7.78391 4.94062 11.075 4.94062Z" fill="#DD2A1B"/>
</svg>
