<svg width="16" height="16" viewBox="0 0 16 16" fill="none" xmlns="http://www.w3.org/2000/svg">
<path fill-rule="evenodd" clip-rule="evenodd" d="M6.29483 0.0540771C2.75204 0.490593 0 3.51894 0 7.17783C0 11.1356 3.22001 14.3556 7.17777 14.3556C8.66357 14.3556 10.0795 13.9075 11.29 13.0567L13.7755 15.7129C13.9537 15.898 14.1934 16.0001 14.4502 16.0001C14.6933 16.0001 14.924 15.9074 15.099 15.7388C15.471 15.3809 15.4829 14.7873 15.1249 14.415L12.6716 11.7922C13.7595 10.499 14.3555 8.87178 14.3555 7.17783C14.3555 6.96893 14.3466 6.7621 14.329 6.55768C14.2864 6.60009 14.2438 6.64187 14.2014 6.68299C13.7011 7.16793 13.1859 7.59421 12.7467 7.91529C12.3549 10.5472 9.86262 12.8001 7.17777 12.8001C4.25236 12.8001 1.6 10.1032 1.6 7.17783C1.6 4.8086 3.3397 2.61846 5.55519 1.87132C5.66096 1.21601 5.91587 0.587316 6.29483 0.0540771Z" fill="#4087BE"/>
<path fill-rule="evenodd" clip-rule="evenodd" d="M11 2.50121C10.4996 2.50121 10.0321 2.25165 9.75365 1.83584C9.58059 1.57742 9.37672 1.5 9.22995 1.5C9.10015 1.5 8.93863 1.55675 8.78333 1.73471C8.62542 1.91566 8.5 2.20131 8.5 2.55545C8.5 2.60325 8.54031 2.83594 8.82266 3.26919C9.08426 3.67059 9.46275 4.10557 9.8887 4.52004C10.2797 4.90052 10.679 5.23304 11.0031 5.47363C11.3262 5.23542 11.724 4.90622 12.1134 4.52878C12.5384 4.11687 12.9157 3.68386 13.1764 3.28279C13.4564 2.852 13.5 2.61411 13.5 2.55545V2.55542C13.5 2.2013 13.3746 1.91567 13.2167 1.73471C13.0614 1.55675 12.8998 1.5 12.7701 1.5C12.6233 1.5 12.4194 1.57739 12.2463 1.83588C11.9679 2.25167 11.5004 2.50122 11 2.50121ZM15 2.55545C15 1.1441 14.0016 0 12.7701 0C12.57 0 12.376 0.0302089 12.1916 0.0868618C11.711 0.234425 11.2945 0.561394 11 1.00121C10.7055 0.561392 10.289 0.234424 9.80845 0.086861C9.62397 0.030209 9.43004 0 9.22995 0C7.99839 0 7 1.1441 7 2.55545C7 4.4684 10.5803 7.2 11 7.2C11.4197 7.2 15 4.49713 15 2.55545Z" fill="#4087BE"/>
</svg>
