<svg width="55" height="55" viewBox="0 0 55 55" fill="none" xmlns="http://www.w3.org/2000/svg">
<path d="M37.2191 36.8206L33.9394 33.2142C35.3937 31.436 36.1905 29.1986 36.1905 26.8694C36.1905 21.4275 31.886 17 26.5953 17C21.3045 17 17 21.4275 17 26.8694C17 32.3114 21.3045 36.7389 26.5953 36.7389C28.5815 36.7389 30.4743 36.1227 32.0925 34.9529L35.4152 38.6052C35.6534 38.8597 35.9738 39 36.3171 39C36.6421 39 36.9504 38.8726 37.1845 38.6408C37.6817 38.1487 37.6976 37.3325 37.2191 36.8206ZM26.5953 19.2C30.506 19.2 34.1111 22.8776 34.1111 26.9C34.1111 30.9224 30.506 34.6 26.5953 34.6C22.6846 34.6 19.1389 30.8919 19.1389 26.8694C19.1389 22.847 22.6846 19.2 26.5953 19.2Z" fill="#5F5F5F"/>
</svg>
