<svg width="30" height="30" viewBox="0 0 30 30" fill="none" xmlns="http://www.w3.org/2000/svg">
<path d="M22.1806 13.2964C24.3437 12.9471 26 11.0837 26 8.84375C26 7.06223 24.5161 5.62109 22.7344 5.62109H22.0898V7.55469C22.0898 7.91002 21.8008 8.19922 21.4453 8.19922C21.09 8.19922 20.8008 7.91002 20.8008 7.55469C20.8008 5.0432 18.7769 3 16.2891 3L14.6202 3.00134L15.8577 4.1234C15.8602 4.12575 16.1137 4.35687 16.3737 4.72362C16.873 5.42773 16.8881 6.43314 16.4104 7.16898C15.6914 8.27643 15.6103 9.65579 16.1957 10.7773H9.49883L6.9207 14.6445H4V15.9336H5.33203V22.3789H6.62109V25H10.4883V22.3789H19.5117V25H23.3789V22.3789H24.668V15.9336H26V14.6445H23.0793L22.1806 13.2964ZM17.4917 7.87074C18.1149 6.91083 18.2163 5.70351 17.8032 4.67242C18.819 5.22263 19.5117 6.30826 19.5117 7.55469C19.5117 8.62085 20.3792 9.48828 21.4453 9.48828C22.5115 9.48828 23.3789 8.62085 23.3789 7.55469V7.0201C24.1453 7.28815 24.7109 8.01526 24.7109 8.84375C24.7109 10.6207 23.246 12.0664 21.4453 12.0664H20.4606C19.1562 12.0664 17.9635 11.351 17.3478 10.1996C16.9668 9.48677 17.0219 8.59433 17.4917 7.87074ZM10.1887 12.0664H17.1803C18.0575 12.8828 19.222 13.3555 20.4606 13.3555H20.6707L21.5301 14.6445H21.2932L18.7151 15.9336H11.285L8.70692 14.6445H8.46992L10.1887 12.0664ZM6.62109 21.0898V19.8008H8.55469C9.39493 19.8008 10.1113 20.3396 10.3775 21.0898H6.62109ZM9.19922 23.7109H7.91016V22.3789H9.19922V23.7109ZM22.0898 23.7109H20.8008V22.3789H22.0898V23.7109ZM19.6227 21.0898C19.8887 20.3396 20.6051 19.8008 21.4453 19.8008H23.3789V21.0898H19.6227ZM23.3789 18.5117H21.4453C19.889 18.5117 18.5869 19.6207 18.2874 21.0898H11.7126C11.4131 19.6207 10.111 18.5117 8.55469 18.5117H6.62109V15.9336H8.40262L10.9807 17.2227H19.0194L21.5975 15.9336H23.3789V18.5117Z" fill="#4087BE"/>
<path d="M13.0664 18.5117H16.9336V19.8008H13.0664V18.5117Z" fill="#4087BE"/>
</svg>
