<svg width="22" height="22" viewBox="0 0 22 22" fill="none" xmlns="http://www.w3.org/2000/svg">
<path d="M19.3933 4.23851L11.7371 1.05972C11.5453 0.980112 11.3297 0.980073 11.1379 1.05972L3.48168 4.23851C3.19008 4.3596 3 4.64429 3 4.96003V8.82429C3 14.1451 6.21598 18.9313 11.1423 20.9421C11.3315 21.0193 11.5435 21.0193 11.7327 20.9421C16.6589 18.9314 19.875 14.1452 19.875 8.82429V4.96003C19.875 4.64429 19.685 4.3596 19.3933 4.23851ZM18.3125 8.82429C18.3125 13.3475 15.6562 17.5115 11.4375 19.3702C7.33148 17.5611 4.5625 13.4701 4.5625 8.82429V5.4816L11.4375 2.62714L18.3125 5.4816V8.82429ZM10.574 11.4577L13.932 8.09972C14.237 7.79464 14.7317 7.79461 15.0368 8.09972C15.3419 8.40484 15.3419 8.89949 15.0368 9.20457L11.1264 13.1149C10.8212 13.4201 10.3266 13.42 10.0216 13.1149L7.8382 10.9316C7.53309 10.6264 7.53309 10.1318 7.8382 9.82672C8.14332 9.52164 8.63797 9.5216 8.94305 9.82672L10.574 11.4577Z" fill="#219653"/>
</svg>
