<svg width="7" height="12" viewBox="0 0 7 12" fill="none" xmlns="http://www.w3.org/2000/svg">
<path fill-rule="evenodd" clip-rule="evenodd" d="M3.16555 0.637335L0.138515 3.63796C-0.0461717 3.82104 -0.0461717 4.11795 0.138515 4.30103C0.32324 4.48414 0.622689 4.48414 0.807413 4.30103L3.02702 2.10078L3.02702 11.0312C3.02702 11.2901 3.2388 11.5 3.5 11.5C3.76115 11.5 3.97297 11.2901 3.97297 11.0312L3.97297 2.10078L6.19258 4.30095C6.3773 4.48407 6.67675 4.48407 6.86148 4.30095C6.95376 4.20943 7 4.08941 7 3.96942C7 3.84943 6.95376 3.72945 6.86148 3.63789L3.83444 0.637335C3.64972 0.454221 3.35027 0.454221 3.16555 0.637335Z" fill="#4087BE"/>
</svg>
