<svg width="24" height="24" viewBox="0 0 24 24" fill="none" xmlns="http://www.w3.org/2000/svg">
<path opacity="0.5" fill-rule="evenodd" clip-rule="evenodd" d="M14.3546 9.21922L12 5.12737L9.64542 9.21922L5.02615 10.1941L8.19018 13.6979L7.68992 18.3923L12 16.4659L16.3101 18.3923L15.8098 13.6979L18.9739 10.1941L14.3546 9.21922ZM21.7308 10.2468C22.2686 9.65124 21.9585 8.69675 21.1733 8.53103L15.6947 7.37475L12.9021 2.52166C12.5018 1.82611 11.4982 1.82611 11.098 2.52166L8.30533 7.37475L2.82668 8.53103C2.04149 8.69675 1.73136 9.65124 2.2692 10.2468L6.02187 14.4024L5.42855 19.9702C5.34351 20.7681 6.15544 21.358 6.88808 21.0306L12 18.7458L17.1119 21.0306C17.8446 21.358 18.6565 20.7681 18.5715 19.9702L17.9782 14.4025L21.7308 10.2468Z" fill="#5F5F5F"/>
</svg>
