<svg width="19" height="20" viewBox="0 0 19 20" fill="none" xmlns="http://www.w3.org/2000/svg">
<path fill-rule="evenodd" clip-rule="evenodd" d="M12.3005 0H5.82013V1.48053H6.97414V3.03007C5.70684 3.34401 4.52816 3.94418 3.51669 4.7978L2.9098 4.1909L3.72581 3.37489L2.67902 2.32792L0 5.00693L1.04698 6.05372L1.86299 5.23771L2.46988 5.8446C1.16165 7.39461 0.448534 9.33694 0.448534 11.3883C0.448534 13.6882 1.34457 15.8514 2.97088 17.4777C4.59734 19.104 6.76035 20 9.06038 20C11.3603 20 13.5234 19.104 15.1497 17.4777C16.7761 15.8513 17.6721 13.6882 17.6721 11.3883C17.6721 9.33694 16.959 7.39462 15.6507 5.84461L16.2578 5.2377L17.0738 6.05373L18.1206 5.00692L15.4416 2.32793L14.3948 3.37472L15.2108 4.19089L14.6039 4.7978C13.5925 3.94418 12.4138 3.34401 11.1465 3.03007V1.48053H12.3005V0ZM8.45483 2.79782V1.48053H9.66594V2.79782C9.46546 2.78381 9.26353 2.77645 9.06038 2.77645C8.85724 2.77645 8.65531 2.78381 8.45483 2.79782ZM1.92907 11.3883C1.92907 7.45622 5.12831 4.25698 9.06038 4.25698C12.9923 4.25698 16.1916 7.45622 16.1916 11.3883C16.1916 15.3202 12.9923 18.5195 9.06038 18.5195C5.1283 18.5195 1.92907 15.3202 1.92907 11.3883ZM9.06053 5.08171C5.58299 5.08171 2.75401 7.91069 2.75401 11.3882C2.75401 14.8656 5.58299 17.6946 9.06053 17.6946C12.5379 17.6946 15.3669 14.8656 15.3669 11.3882C15.3669 7.9107 12.5379 5.08171 9.06053 5.08171ZM4.23454 11.3882C4.23454 8.97926 6.00948 6.97655 8.32026 6.6193V9.64543C7.64315 9.93398 7.1667 10.6059 7.1667 11.3882C7.1667 12.4326 8.01603 13.2821 9.06053 13.2821C9.84274 13.2821 10.5146 12.8055 10.8033 12.1285H13.8293C13.4721 14.4391 11.4695 16.2141 9.06053 16.2141C6.39968 16.2141 4.23454 14.0491 4.23454 11.3882ZM9.80079 9.64543V6.61931C11.8699 6.93931 13.5095 8.57873 13.8293 10.648H10.8033C10.6115 10.198 10.2508 9.83718 9.80079 9.64543ZM8.64723 11.3882C8.64723 11.1604 8.83279 10.9748 9.06053 10.9748C9.28815 10.9748 9.47383 11.1604 9.47383 11.3882C9.47383 11.6159 9.28817 11.8015 9.06053 11.8015C8.83276 11.8015 8.64723 11.6159 8.64723 11.3882Z" fill="#FF6F00"/>
</svg>
