<svg width="24" height="24" viewBox="0 0 24 24" fill="none" xmlns="http://www.w3.org/2000/svg">
<path fill-rule="evenodd" clip-rule="evenodd" d="M9.80569 3H14.1979C14.8157 3 15.3183 3.50262 15.3183 4.12044V5.57731H20V6.92184H18.5764L17.4649 19.552C17.4346 19.8991 17.1438 20.1656 16.7953 20.1656H7.18205C6.83362 20.1656 6.54294 19.8993 6.51247 19.5522L5.40102 6.92184H4V5.57731H8.68526V4.12044C8.68526 3.50262 9.18788 3 9.80569 3ZM10.0298 5.57731H13.9738V4.34453H10.0298V5.57731ZM16.1795 18.821H7.79765L6.75071 6.92184H17.2267L16.1795 18.821ZM10.0708 8.86914L10.3621 16.8243L9.0185 16.8736L8.72716 8.91846L10.0708 8.86914ZM15.2703 8.91843L13.9266 8.86914L13.6353 16.8243L14.979 16.8734L15.2703 8.91843ZM12.67 8.89429H11.3254V16.8495H12.67V8.89429Z" fill="white"/>
</svg>
