<svg width="49" height="50" viewBox="0 0 49 50" fill="none" xmlns="http://www.w3.org/2000/svg">
<path d="M28.1665 20C28.1665 22.2359 26.4115 24 24.3054 24C22.1994 24 20.4443 22.2359 20.4443 20C20.4443 17.7641 22.1994 16 24.3054 16C26.4115 16 28.1665 17.7641 28.1665 20Z" stroke="white" stroke-width="2"/>
<path d="M16.8818 31.1503C17.6837 28.6759 19.9885 27 22.5896 27H26.0209C28.622 27 30.9268 28.6759 31.7287 31.1503L32.2282 32.6917C32.4376 33.3377 31.956 34 31.2769 34H17.3336C16.6545 34 16.1729 33.3377 16.3823 32.6917L16.8818 31.1503Z" stroke="white" stroke-width="2"/>
</svg>
