<svg width="24" height="24" viewBox="0 0 24 24" fill="none" xmlns="http://www.w3.org/2000/svg">
<g opacity="0.5">
<path fill-rule="evenodd" clip-rule="evenodd" d="M20.9569 9.96013C21.3783 10.6256 21.7225 11.3342 21.9832 12.0731C22.0059 12.1383 22.0059 12.4093 21.9816 12.4741C21.721 13.2128 21.3769 13.9212 20.9557 14.5867C19.0921 17.5495 15.8438 19.452 12.2696 19.5438H12.2579C12.2152 19.5457 12.1073 19.5457 11.9997 19.5457C11.9337 19.5457 11.8678 19.545 11.8168 19.5444C11.7845 19.5441 11.7581 19.5438 11.7414 19.5438H11.7297C8.15626 19.452 4.90837 17.5499 3.0436 14.5871C2.62201 13.9216 2.27781 13.213 2.01731 12.4741C1.99423 12.4093 1.99423 12.1383 2.01731 12.0731C2.27806 11.3341 2.62238 10.6254 3.04399 9.95975C4.90837 6.99732 8.15626 5.09515 11.7301 5.00341H11.7418C11.8279 5 11.9136 5 12 5C12.0865 5 12.173 5 12.2583 5.00379H12.27C15.8442 5.09553 19.0921 6.9977 20.9569 9.96013ZM19.7213 13.8581L19.7232 13.8547L19.7244 13.8532C20.0402 13.3524 20.3057 12.8234 20.5175 12.2736C20.3047 11.7235 20.0379 11.1944 19.7209 10.6936V10.6906C18.9272 9.42691 17.827 8.37005 16.516 7.61179C15.2173 6.86335 13.7429 6.44832 12.2325 6.40597H12.2199C12.1358 6.40294 12.0634 6.40294 12.0008 6.40294C11.9719 6.40294 11.9411 6.40358 11.9079 6.40428C11.8692 6.40509 11.8274 6.40597 11.7817 6.40597H11.7684C10.2578 6.44826 8.7833 6.86329 7.48446 7.61179C6.17337 8.36995 5.07322 9.42683 4.27961 10.6906L4.27726 10.6936C3.96036 11.1945 3.69361 11.7235 3.48064 12.2736C3.69353 12.8238 3.96028 13.353 4.27726 13.8539L4.27961 13.857C5.07322 15.1207 6.17337 16.1776 7.48446 16.9358C8.7833 17.6843 10.2578 18.0993 11.7684 18.1416H11.7805H12H12.2199H12.2317C13.7424 18.0994 15.2171 17.6843 16.516 16.9358C17.8271 16.1779 18.9273 15.1214 19.7213 13.8581ZM9.89552 9.21966C10.5185 8.81638 11.2509 8.60113 12.0002 8.60113C13.0049 8.60113 13.9684 8.9878 14.6788 9.67609C15.3893 10.3644 15.7884 11.2979 15.7884 12.2713C15.7884 12.9972 15.5662 13.7068 15.15 14.3103C14.7337 14.9139 14.1421 15.3843 13.4498 15.6621C12.7576 15.9398 11.9959 16.0125 11.2611 15.8709C10.5263 15.7293 9.85126 15.3797 9.32146 14.8665C8.79167 14.3532 8.43088 13.6992 8.28471 12.9873C8.13854 12.2754 8.21356 11.5374 8.50028 10.8668C8.787 10.1961 9.27255 9.62294 9.89552 9.21966ZM10.6998 14.1567C11.0847 14.4059 11.5372 14.5389 12.0002 14.5389V14.5404C12.621 14.5397 13.2161 14.3003 13.6549 13.8749C14.0937 13.4495 14.3404 12.8727 14.3407 12.2713C14.3407 11.8228 14.2034 11.3844 13.9462 11.0115C13.6891 10.6386 13.3235 10.3479 12.8958 10.1763C12.4682 10.0047 11.9976 9.95976 11.5435 10.0473C11.0895 10.1348 10.6725 10.3507 10.3451 10.6678C10.0178 10.985 9.79488 11.389 9.70457 11.8289C9.61426 12.2688 9.66061 12.7247 9.83776 13.1391C10.0149 13.5534 10.3149 13.9075 10.6998 14.1567Z" fill="#5F5F5F"/>
</g>
</svg>
