<svg width="24" height="24" viewBox="0 0 24 24" fill="none" xmlns="http://www.w3.org/2000/svg">
<path d="M23.7123 19.4366L13.965 2.13338C13.1339 0.622207 10.8671 0.622207 10.0359 2.13338L0.288732 19.4366C-0.542402 20.9478 0.515429 22.8368 2.2533 22.8368H21.6722C23.4856 22.7612 24.5434 20.9478 23.7123 19.4366Z" fill="#DD2A1B"/>
<path d="M12.0011 3.26562L21.7483 20.5688H2.25391L12.0011 3.26562Z" fill="white"/>
<path d="M10.4139 11.2001L11.0184 15.2048C11.094 15.6582 11.4718 16.036 12.0007 16.036C12.454 16.036 12.9074 15.6582 12.983 15.2048L13.5875 11.2001C13.7386 10.2179 12.983 9.38672 12.0007 9.38672C11.0184 9.38667 10.3383 10.2179 10.4139 11.2001Z" fill="#3F4448"/>
<path d="M12.0005 18.6807C12.5013 18.6807 12.9072 18.2747 12.9072 17.7739C12.9072 17.2731 12.5013 16.8672 12.0005 16.8672C11.4997 16.8672 11.0938 17.2731 11.0938 17.7739C11.0938 18.2747 11.4997 18.6807 12.0005 18.6807Z" fill="#3F4448"/>
</svg>
