<svg width="50" height="50" viewBox="0 0 50 50" fill="none" xmlns="http://www.w3.org/2000/svg">
<path fill-rule="evenodd" clip-rule="evenodd" d="M24.9992 4.69922C13.8056 4.69922 4.69922 13.8047 4.69922 24.9992C4.69922 36.1937 13.8056 45.2992 24.9992 45.2992C36.1928 45.2992 45.2992 36.1937 45.2992 24.9992C45.2992 13.8047 36.1928 4.69922 24.9992 4.69922ZM7.03835 24.9992C7.03835 15.0961 15.0953 7.03835 24.9992 7.03835C34.9032 7.03835 42.9601 15.0961 42.9601 24.9992C42.9601 34.9023 34.9032 42.9601 24.9992 42.9601C15.0953 42.9601 7.03835 34.9023 7.03835 24.9992ZM24.9992 9.91602C16.6822 9.91602 9.91661 16.6816 9.91661 24.9986C9.91661 33.3156 16.6822 40.0812 24.9992 40.0812C33.3162 40.0812 40.0818 33.3156 40.0818 24.9986C40.0818 16.6816 33.3162 9.91602 24.9992 9.91602ZM12.2557 24.9986C12.2557 17.9721 17.9727 12.2551 24.9992 12.2551C32.0257 12.2551 37.7427 17.9721 37.7427 24.9986C37.7427 32.0251 32.0257 37.7421 24.9992 37.7421C17.9727 37.7421 12.2557 32.0251 12.2557 24.9986ZM19.7818 18.6113C19.1366 18.6113 18.6123 19.1339 18.6123 19.7809V30.2157C18.6123 30.8627 19.1366 31.3852 19.7818 31.3852H26.7383C29.3013 31.3852 31.3862 29.3003 31.3862 26.7374V23.2591C31.3862 20.6962 29.3013 18.6113 26.7383 18.6113H19.7818ZM20.9514 29.0461V20.9505H26.7383C28.0107 20.9505 29.047 21.9867 29.047 23.2591V26.7374C29.047 28.0098 28.0107 29.0461 26.7383 29.0461H20.9514Z" fill="#DD2A1B"/>
</svg>
