<svg width="50" height="50" viewBox="0 0 50 50" fill="none" xmlns="http://www.w3.org/2000/svg">
<path fill-rule="evenodd" clip-rule="evenodd" d="M10.0625 5.03906C10.0625 5.06055 9.97461 5.07812 9.86719 5.07812C9.75977 5.07812 9.67188 5.0957 9.67188 5.11719C9.67188 5.13867 9.60156 5.15625 9.51562 5.15625C9.42969 5.15625 9.35938 5.17383 9.35938 5.19531C9.35938 5.2168 9.30664 5.23438 9.24219 5.23438C9.17773 5.23438 9.125 5.25195 9.125 5.27344C9.125 5.29492 9.07227 5.3125 9.00781 5.3125C8.94336 5.3125 8.89062 5.33008 8.89062 5.35156C8.89062 5.37305 8.85547 5.39062 8.8125 5.39062C8.76953 5.39062 8.73438 5.4082 8.73438 5.42969C8.73438 5.45117 8.69922 5.46875 8.65625 5.46875C8.61328 5.46875 8.57812 5.48633 8.57812 5.50781C8.57812 5.5293 8.54297 5.54688 8.5 5.54688C8.45703 5.54688 8.42188 5.56445 8.42188 5.58594C8.42188 5.60742 8.39059 5.625 8.35238 5.625C8.31414 5.625 8.25754 5.66016 8.22656 5.70312C8.19559 5.74609 8.14285 5.78125 8.10938 5.78125C8.0759 5.78125 8.02316 5.81641 7.99219 5.85938C7.96121 5.90234 7.9132 5.9375 7.88551 5.9375C7.81973 5.9375 6.9375 6.81973 6.9375 6.88551C6.9375 6.9132 6.90234 6.96121 6.85938 6.99219C6.81641 7.02316 6.78125 7.0759 6.78125 7.10938C6.78125 7.14285 6.74609 7.19559 6.70312 7.22656C6.66016 7.25754 6.625 7.31414 6.625 7.35238C6.625 7.39059 6.60742 7.42188 6.58594 7.42188C6.56445 7.42188 6.54688 7.45703 6.54688 7.5C6.54688 7.54297 6.5293 7.57812 6.50781 7.57812C6.48633 7.57812 6.46875 7.61328 6.46875 7.65625C6.46875 7.69922 6.45117 7.73438 6.42969 7.73438C6.4082 7.73438 6.39062 7.76953 6.39062 7.8125C6.39062 7.85547 6.37305 7.89062 6.35156 7.89062C6.33008 7.89062 6.3125 7.94336 6.3125 8.00781C6.3125 8.07227 6.29492 8.125 6.27344 8.125C6.25195 8.125 6.23438 8.17773 6.23438 8.24219C6.23438 8.30664 6.2168 8.35938 6.19531 8.35938C6.17383 8.35938 6.15625 8.42969 6.15625 8.51562C6.15625 8.60156 6.13867 8.67188 6.11719 8.67188C6.0957 8.67188 6.07812 8.75977 6.07812 8.86719C6.07812 8.97461 6.06055 9.0625 6.03906 9.0625C6.01332 9.0625 6 10.2214 6 12.4609C6 14.7005 6.01332 15.8594 6.03906 15.8594C6.06055 15.8594 6.07812 15.8945 6.07812 15.9375C6.07812 15.9805 6.0957 16.0156 6.11719 16.0156C6.13867 16.0156 6.15625 16.0508 6.15625 16.0938C6.15625 16.1367 6.17383 16.1719 6.19531 16.1719C6.2168 16.1719 6.23438 16.199 6.23438 16.2322C6.23438 16.3104 6.40836 16.4844 6.48652 16.4844C6.51973 16.4844 6.54688 16.502 6.54688 16.5234C6.54688 16.5449 6.58203 16.5625 6.625 16.5625C6.66797 16.5625 6.70312 16.5801 6.70312 16.6016C6.70312 16.623 6.73828 16.6406 6.78125 16.6406C6.82422 16.6406 6.85938 16.6582 6.85938 16.6797C6.85938 16.7054 7.91406 16.7188 9.94531 16.7188H13.0312V30.4297C13.0312 39.5443 13.0443 44.1406 13.0703 44.1406C13.0918 44.1406 13.1094 44.1758 13.1094 44.2188C13.1094 44.2617 13.127 44.2969 13.1484 44.2969C13.1699 44.2969 13.1875 44.332 13.1875 44.375C13.1875 44.418 13.2051 44.4531 13.2266 44.4531C13.248 44.4531 13.2656 44.4803 13.2656 44.5135C13.2656 44.5916 13.4396 44.7656 13.5178 44.7656C13.551 44.7656 13.5781 44.7832 13.5781 44.8047C13.5781 44.8262 13.6133 44.8438 13.6562 44.8438C13.6992 44.8438 13.7344 44.8613 13.7344 44.8828C13.7344 44.9043 13.7695 44.9219 13.8125 44.9219C13.8555 44.9219 13.8906 44.9395 13.8906 44.9609C13.8906 44.9869 17.5364 45 24.75 45C31.9636 45 35.6094 44.9869 35.6094 44.9609C35.6094 44.9395 35.6445 44.9219 35.6875 44.9219C35.7305 44.9219 35.7656 44.9043 35.7656 44.8828C35.7656 44.8613 35.8008 44.8438 35.8438 44.8438C35.8867 44.8438 35.9219 44.8262 35.9219 44.8047C35.9219 44.7832 35.949 44.7656 35.9822 44.7656C36.0604 44.7656 36.2344 44.5916 36.2344 44.5135C36.2344 44.4803 36.252 44.4531 36.2734 44.4531C36.2949 44.4531 36.3125 44.418 36.3125 44.375C36.3125 44.332 36.3301 44.2969 36.3516 44.2969C36.373 44.2969 36.3906 44.2617 36.3906 44.2188C36.3906 44.1758 36.4082 44.1406 36.4297 44.1406C36.4553 44.1406 36.4688 43.391 36.4688 41.9699C36.4688 39.6941 36.4692 39.6875 36.6331 39.6875C36.6621 39.6875 36.7112 39.6523 36.7422 39.6094C36.7732 39.5664 36.8259 39.5312 36.8594 39.5312C36.8929 39.5312 36.9456 39.4961 36.9766 39.4531C37.0075 39.4102 37.0603 39.375 37.0938 39.375C37.1272 39.375 37.18 39.3398 37.2109 39.2969C37.2419 39.2539 37.2946 39.2188 37.3281 39.2188C37.3616 39.2188 37.4143 39.1836 37.4453 39.1406C37.4763 39.0977 37.529 39.0625 37.5625 39.0625C37.596 39.0625 37.6487 39.0273 37.6797 38.9844C37.7107 38.9414 37.7602 38.9062 37.7898 38.9062C37.8194 38.9062 37.8929 38.8535 37.9531 38.7891C38.0133 38.7246 38.083 38.6719 38.108 38.6719C38.133 38.6719 38.2391 38.584 38.3438 38.4766C38.4484 38.3691 38.5528 38.2812 38.5758 38.2812C38.6308 38.2812 40.1406 36.7709 40.1406 36.7159C40.1406 36.6926 40.2109 36.606 40.2969 36.5234C40.3828 36.4409 40.4531 36.353 40.4531 36.3281C40.4531 36.3033 40.5234 36.2154 40.6094 36.1328C40.6953 36.0502 40.7656 35.9588 40.7656 35.9296C40.7656 35.9005 40.8008 35.8513 40.8438 35.8203C40.8867 35.7893 40.9219 35.7366 40.9219 35.7031C40.9219 35.6696 40.957 35.6169 41 35.5859C41.043 35.555 41.0781 35.5022 41.0781 35.4688C41.0781 35.4353 41.1133 35.3825 41.1562 35.3516C41.1992 35.3206 41.2344 35.2679 41.2344 35.2344C41.2344 35.2009 41.2695 35.1482 41.3125 35.1172C41.3555 35.0862 41.3906 35.0335 41.3906 35C41.3906 34.9665 41.4258 34.9138 41.4688 34.8828C41.5117 34.8518 41.5469 34.7952 41.5469 34.757C41.5469 34.7188 41.5645 34.6875 41.5859 34.6875C41.6074 34.6875 41.625 34.6523 41.625 34.6094C41.625 34.5664 41.6426 34.5312 41.6641 34.5312C41.6855 34.5312 41.7031 34.5 41.7031 34.4618C41.7031 34.4235 41.7383 34.3669 41.7812 34.3359C41.8242 34.305 41.8594 34.2484 41.8594 34.2101C41.8594 34.1719 41.877 34.1406 41.8984 34.1406C41.9199 34.1406 41.9375 34.1055 41.9375 34.0625C41.9375 34.0195 41.9551 33.9844 41.9766 33.9844C41.998 33.9844 42.0156 33.9492 42.0156 33.9062C42.0156 33.8633 42.0332 33.8281 42.0547 33.8281C42.0762 33.8281 42.0938 33.793 42.0938 33.75C42.0938 33.707 42.1113 33.6719 42.1328 33.6719C42.1543 33.6719 42.1719 33.6367 42.1719 33.5938C42.1719 33.5508 42.1895 33.5156 42.2109 33.5156C42.2324 33.5156 42.25 33.4629 42.25 33.3984C42.25 33.334 42.2676 33.2812 42.2891 33.2812C42.3105 33.2812 42.3281 33.2461 42.3281 33.2031C42.3281 33.1602 42.3457 33.125 42.3672 33.125C42.3887 33.125 42.4062 33.0898 42.4062 33.0469C42.4062 33.0039 42.4238 32.9688 42.4453 32.9688C42.4668 32.9688 42.4844 32.916 42.4844 32.8516C42.4844 32.7871 42.502 32.7344 42.5234 32.7344C42.5449 32.7344 42.5625 32.6992 42.5625 32.6562C42.5625 32.6133 42.5801 32.5781 42.6016 32.5781C42.623 32.5781 42.6406 32.5254 42.6406 32.4609C42.6406 32.3965 42.6582 32.3438 42.6797 32.3438C42.7012 32.3438 42.7188 32.291 42.7188 32.2266C42.7188 32.1621 42.7363 32.1094 42.7578 32.1094C42.7793 32.1094 42.7969 32.0566 42.7969 31.9922C42.7969 31.9277 42.8145 31.875 42.8359 31.875C42.8574 31.875 42.875 31.8223 42.875 31.7578C42.875 31.6934 42.8926 31.6406 42.9141 31.6406C42.9355 31.6406 42.9531 31.5703 42.9531 31.4844C42.9531 31.3984 42.9707 31.3281 42.9922 31.3281C43.0137 31.3281 43.0312 31.2578 43.0312 31.1719C43.0312 31.0859 43.0488 31.0156 43.0703 31.0156C43.0918 31.0156 43.1094 30.9453 43.1094 30.8594C43.1094 30.7734 43.127 30.7031 43.1484 30.7031C43.1699 30.7031 43.1875 30.6328 43.1875 30.5469C43.1875 30.4609 43.2051 30.3906 43.2266 30.3906C43.2483 30.3906 43.2656 30.2864 43.2656 30.1562C43.2656 30.0261 43.283 29.9219 43.3047 29.9219C43.327 29.9219 43.3438 29.8047 43.3438 29.6484C43.3438 29.4922 43.3605 29.375 43.3828 29.375C43.406 29.375 43.4219 29.2318 43.4219 29.0234C43.4219 28.8151 43.4378 28.6719 43.4609 28.6719C43.4865 28.6719 43.5 27.9688 43.5 26.6406C43.5 25.3125 43.4865 24.6094 43.4609 24.6094C43.4395 24.6094 43.4219 24.5742 43.4219 24.5312C43.4219 24.4883 43.4043 24.4531 43.3828 24.4531C43.3613 24.4531 43.3438 24.418 43.3438 24.375C43.3438 24.332 43.3262 24.2969 43.3047 24.2969C43.2832 24.2969 43.2656 24.2697 43.2656 24.2365C43.2656 24.1584 43.0916 23.9844 43.0135 23.9844C42.9803 23.9844 42.9531 23.9668 42.9531 23.9453C42.9531 23.9238 42.918 23.9062 42.875 23.9062C42.832 23.9062 42.7969 23.8887 42.7969 23.8672C42.7969 23.8457 42.7617 23.8281 42.7188 23.8281C42.6758 23.8281 42.6406 23.8105 42.6406 23.7891C42.6406 23.7648 42.4193 23.75 42.0547 23.75C41.6901 23.75 41.4688 23.7352 41.4688 23.7109C41.4688 23.6882 41.3386 23.6719 41.1562 23.6719C40.9739 23.6719 40.8438 23.6556 40.8438 23.6328C40.8438 23.6111 40.7396 23.5938 40.6094 23.5938C40.4792 23.5938 40.375 23.5764 40.375 23.5547C40.375 23.5332 40.2871 23.5156 40.1797 23.5156C40.0723 23.5156 39.9844 23.498 39.9844 23.4766C39.9844 23.4551 39.9141 23.4375 39.8281 23.4375C39.7422 23.4375 39.6719 23.4199 39.6719 23.3984C39.6719 23.377 39.6191 23.3594 39.5547 23.3594C39.4902 23.3594 39.4375 23.3418 39.4375 23.3203C39.4375 23.2988 39.3848 23.2812 39.3203 23.2812C39.2559 23.2812 39.2031 23.2637 39.2031 23.2422C39.2031 23.2207 39.1328 23.2031 39.0469 23.2031C38.9609 23.2031 38.8906 23.1855 38.8906 23.1641C38.8906 23.1426 38.8555 23.125 38.8125 23.125C38.7695 23.125 38.7344 23.1074 38.7344 23.0859C38.7344 23.0645 38.6816 23.0469 38.6172 23.0469C38.5527 23.0469 38.5 23.0293 38.5 23.0078C38.5 22.9863 38.4648 22.9688 38.4219 22.9688C38.3789 22.9688 38.3438 22.9512 38.3438 22.9297C38.3438 22.9082 38.291 22.8906 38.2266 22.8906C38.1621 22.8906 38.1094 22.873 38.1094 22.8516C38.1094 22.8301 38.0742 22.8125 38.0312 22.8125C37.9883 22.8125 37.9531 22.7949 37.9531 22.7734C37.9531 22.752 37.918 22.7344 37.875 22.7344C37.832 22.7344 37.7969 22.7168 37.7969 22.6953C37.7969 22.6738 37.7617 22.6562 37.7188 22.6562C37.6758 22.6562 37.6406 22.6387 37.6406 22.6172C37.6406 22.5957 37.6055 22.5781 37.5625 22.5781C37.5195 22.5781 37.4844 22.5605 37.4844 22.5391C37.4844 22.5176 37.4492 22.5 37.4062 22.5C37.3633 22.5 37.3281 22.4824 37.3281 22.4609C37.3281 22.4395 37.293 22.4219 37.25 22.4219C37.207 22.4219 37.1719 22.4043 37.1719 22.3828C37.1719 22.3613 37.1406 22.3438 37.1024 22.3438C37.0641 22.3438 37.0075 22.3086 36.9766 22.2656C36.9456 22.2227 36.889 22.1875 36.8507 22.1875C36.8125 22.1875 36.7812 22.1699 36.7812 22.1484C36.7812 22.127 36.7541 22.1094 36.7209 22.1094C36.6877 22.1094 36.6174 22.0662 36.5646 22.0135L36.4688 21.9176V15.49C36.4688 11.2311 36.4556 9.0625 36.4297 9.0625C36.4082 9.0625 36.3906 8.97461 36.3906 8.86719C36.3906 8.75977 36.373 8.67188 36.3516 8.67188C36.3301 8.67188 36.3125 8.60156 36.3125 8.51562C36.3125 8.42969 36.2949 8.35938 36.2734 8.35938C36.252 8.35938 36.2344 8.30664 36.2344 8.24219C36.2344 8.17773 36.2168 8.125 36.1953 8.125C36.1738 8.125 36.1562 8.07227 36.1562 8.00781C36.1562 7.94336 36.1387 7.89062 36.1172 7.89062C36.0957 7.89062 36.0781 7.85547 36.0781 7.8125C36.0781 7.76953 36.0605 7.73438 36.0391 7.73438C36.0176 7.73438 36 7.69922 36 7.65625C36 7.61328 35.9824 7.57812 35.9609 7.57812C35.9395 7.57812 35.9219 7.54297 35.9219 7.5C35.9219 7.45703 35.9043 7.42188 35.8828 7.42188C35.8613 7.42188 35.8438 7.39059 35.8438 7.35238C35.8438 7.31414 35.8086 7.25754 35.7656 7.22656C35.7227 7.19559 35.6875 7.14285 35.6875 7.10938C35.6875 7.0759 35.6523 7.02316 35.6094 6.99219C35.5664 6.96121 35.5312 6.9132 35.5312 6.88551C35.5312 6.81973 34.649 5.9375 34.5832 5.9375C34.5555 5.9375 34.5075 5.90234 34.4766 5.85938C34.4456 5.81641 34.3929 5.78125 34.3594 5.78125C34.3259 5.78125 34.2732 5.74609 34.2422 5.70312C34.2112 5.66016 34.1546 5.625 34.1164 5.625C34.0782 5.625 34.0469 5.60742 34.0469 5.58594C34.0469 5.56445 34.0117 5.54688 33.9688 5.54688C33.9258 5.54688 33.8906 5.5293 33.8906 5.50781C33.8906 5.48633 33.8555 5.46875 33.8125 5.46875C33.7695 5.46875 33.7344 5.45117 33.7344 5.42969C33.7344 5.4082 33.6992 5.39062 33.6562 5.39062C33.6133 5.39062 33.5781 5.37305 33.5781 5.35156C33.5781 5.33008 33.5254 5.3125 33.4609 5.3125C33.3965 5.3125 33.3438 5.29492 33.3438 5.27344C33.3438 5.25195 33.291 5.23438 33.2266 5.23438C33.1621 5.23438 33.1094 5.2168 33.1094 5.19531C33.1094 5.17383 33.0391 5.15625 32.9531 5.15625C32.8672 5.15625 32.7969 5.13867 32.7969 5.11719C32.7969 5.0957 32.709 5.07812 32.6016 5.07812C32.4941 5.07812 32.4062 5.06055 32.4062 5.03906C32.4062 5.01313 28.6562 5 21.2344 5C13.8125 5 10.0625 5.01313 10.0625 5.03906ZM11.0781 7.38281C11.0781 7.4043 11.1484 7.42188 11.2344 7.42188C11.3203 7.42188 11.3906 7.43945 11.3906 7.46094C11.3906 7.48242 11.4434 7.5 11.5078 7.5C11.5723 7.5 11.625 7.51758 11.625 7.53906C11.625 7.56055 11.6602 7.57812 11.7031 7.57812C11.7461 7.57812 11.7812 7.5957 11.7812 7.61719C11.7812 7.63867 11.8125 7.65625 11.8507 7.65625C11.889 7.65625 11.9456 7.69141 11.9766 7.73438C12.0075 7.77734 12.0557 7.8125 12.0837 7.8125C12.1499 7.8125 12.5625 8.22512 12.5625 8.29133C12.5625 8.31926 12.5977 8.36746 12.6406 8.39844C12.6836 8.42941 12.7188 8.48602 12.7188 8.52426C12.7188 8.56246 12.7363 8.59375 12.7578 8.59375C12.7793 8.59375 12.7969 8.62891 12.7969 8.67188C12.7969 8.71484 12.8145 8.75 12.8359 8.75C12.8574 8.75 12.875 8.80273 12.875 8.86719C12.875 8.93164 12.8926 8.98438 12.9141 8.98438C12.9355 8.98438 12.9531 9.05469 12.9531 9.14062C12.9531 9.22656 12.9707 9.29688 12.9922 9.29688C13.0178 9.29688 13.0312 10.1693 13.0312 11.8359V14.375H10.6875H8.34375V11.8359C8.34375 10.1693 8.35719 9.29688 8.38281 9.29688C8.4043 9.29688 8.42188 9.22656 8.42188 9.14062C8.42188 9.05469 8.43945 8.98438 8.46094 8.98438C8.48242 8.98438 8.5 8.93164 8.5 8.86719C8.5 8.80273 8.51758 8.75 8.53906 8.75C8.56055 8.75 8.57812 8.71484 8.57812 8.67188C8.57812 8.62891 8.5957 8.59375 8.61719 8.59375C8.63867 8.59375 8.65625 8.56246 8.65625 8.52426C8.65625 8.48602 8.69141 8.42941 8.73438 8.39844C8.77734 8.36746 8.8125 8.31926 8.8125 8.29133C8.8125 8.22512 9.22512 7.8125 9.29133 7.8125C9.31926 7.8125 9.36746 7.77734 9.39844 7.73438C9.42941 7.69141 9.48602 7.65625 9.52426 7.65625C9.56246 7.65625 9.59375 7.63867 9.59375 7.61719C9.59375 7.5957 9.62891 7.57812 9.67188 7.57812C9.71484 7.57812 9.75 7.56055 9.75 7.53906C9.75 7.51758 9.80273 7.5 9.86719 7.5C9.93164 7.5 9.98438 7.48242 9.98438 7.46094C9.98438 7.43945 10.0547 7.42188 10.1406 7.42188C10.2266 7.42188 10.2969 7.4043 10.2969 7.38281C10.2969 7.35938 10.4531 7.34375 10.6875 7.34375C10.9219 7.34375 11.0781 7.35938 11.0781 7.38281ZM32.1719 7.38281C32.1719 7.4043 32.2422 7.42188 32.3281 7.42188C32.4141 7.42188 32.4844 7.43945 32.4844 7.46094C32.4844 7.48242 32.5371 7.5 32.6016 7.5C32.666 7.5 32.7188 7.51758 32.7188 7.53906C32.7188 7.56055 32.7539 7.57812 32.7969 7.57812C32.8398 7.57812 32.875 7.5957 32.875 7.61719C32.875 7.63867 32.9063 7.65625 32.9445 7.65625C32.9827 7.65625 33.0393 7.69141 33.0703 7.73438C33.1013 7.77734 33.1495 7.8125 33.1774 7.8125C33.2436 7.8125 33.6562 8.22512 33.6562 8.29133C33.6562 8.31926 33.6914 8.36746 33.7344 8.39844C33.7773 8.42941 33.8125 8.48602 33.8125 8.52426C33.8125 8.56246 33.8301 8.59375 33.8516 8.59375C33.873 8.59375 33.8906 8.62891 33.8906 8.67188C33.8906 8.71484 33.9082 8.75 33.9297 8.75C33.9512 8.75 33.9688 8.80273 33.9688 8.86719C33.9688 8.93164 33.9863 8.98438 34.0078 8.98438C34.0293 8.98438 34.0469 9.05469 34.0469 9.14062C34.0469 9.22656 34.0645 9.29688 34.0859 9.29688C34.1118 9.29688 34.125 11.4264 34.125 15.6072V21.9176L34.0291 22.0135C33.9764 22.0662 33.9061 22.1094 33.8729 22.1094C33.8396 22.1094 33.8125 22.127 33.8125 22.1484C33.8125 22.1699 33.7812 22.1875 33.743 22.1875C33.7048 22.1875 33.6482 22.2227 33.6172 22.2656C33.5862 22.3086 33.5296 22.3438 33.4914 22.3438C33.4532 22.3438 33.4219 22.3613 33.4219 22.3828C33.4219 22.4043 33.3867 22.4219 33.3438 22.4219C33.3008 22.4219 33.2656 22.4395 33.2656 22.4609C33.2656 22.4824 33.2305 22.5 33.1875 22.5C33.1445 22.5 33.1094 22.5176 33.1094 22.5391C33.1094 22.5605 33.0742 22.5781 33.0312 22.5781C32.9883 22.5781 32.9531 22.5957 32.9531 22.6172C32.9531 22.6387 32.918 22.6562 32.875 22.6562C32.832 22.6562 32.7969 22.6738 32.7969 22.6953C32.7969 22.7168 32.7617 22.7344 32.7188 22.7344C32.6758 22.7344 32.6406 22.752 32.6406 22.7734C32.6406 22.7949 32.6055 22.8125 32.5625 22.8125C32.5195 22.8125 32.4844 22.8301 32.4844 22.8516C32.4844 22.873 32.4492 22.8906 32.4062 22.8906C32.3633 22.8906 32.3281 22.9082 32.3281 22.9297C32.3281 22.9512 32.2754 22.9688 32.2109 22.9688C32.1465 22.9688 32.0938 22.9863 32.0938 23.0078C32.0938 23.0293 32.041 23.0469 31.9766 23.0469C31.9121 23.0469 31.8594 23.0645 31.8594 23.0859C31.8594 23.1074 31.8242 23.125 31.7812 23.125C31.7383 23.125 31.7031 23.1426 31.7031 23.1641C31.7031 23.1855 31.6504 23.2031 31.5859 23.2031C31.5215 23.2031 31.4688 23.2207 31.4688 23.2422C31.4688 23.2637 31.3984 23.2812 31.3125 23.2812C31.2266 23.2812 31.1562 23.2988 31.1562 23.3203C31.1562 23.3418 31.1035 23.3594 31.0391 23.3594C30.9746 23.3594 30.9219 23.377 30.9219 23.3984C30.9219 23.4199 30.8516 23.4375 30.7656 23.4375C30.6797 23.4375 30.6094 23.4551 30.6094 23.4766C30.6094 23.498 30.5215 23.5156 30.4141 23.5156C30.3066 23.5156 30.2188 23.5332 30.2188 23.5547C30.2188 23.5764 30.1146 23.5938 29.9844 23.5938C29.8542 23.5938 29.75 23.6111 29.75 23.6328C29.75 23.6556 29.6198 23.6719 29.4375 23.6719C29.2552 23.6719 29.125 23.6882 29.125 23.7109C29.125 23.7352 28.9036 23.75 28.5391 23.75C28.1745 23.75 27.9531 23.7648 27.9531 23.7891C27.9531 23.8105 27.918 23.8281 27.875 23.8281C27.832 23.8281 27.7969 23.8457 27.7969 23.8672C27.7969 23.8887 27.7617 23.9062 27.7188 23.9062C27.6758 23.9062 27.6406 23.9238 27.6406 23.9453C27.6406 23.9668 27.6135 23.9844 27.5803 23.9844C27.5021 23.9844 27.3281 24.1584 27.3281 24.2365C27.3281 24.2697 27.3105 24.2969 27.2891 24.2969C27.2676 24.2969 27.25 24.332 27.25 24.375C27.25 24.418 27.2324 24.4531 27.2109 24.4531C27.1895 24.4531 27.1719 24.4883 27.1719 24.5312C27.1719 24.5742 27.1543 24.6094 27.1328 24.6094C27.1073 24.6094 27.0938 25.3125 27.0938 26.6406C27.0938 27.9688 27.1073 28.6719 27.1328 28.6719C27.1562 28.6719 27.1719 28.8281 27.1719 29.0625C27.1719 29.2969 27.1875 29.4531 27.2109 29.4531C27.2327 29.4531 27.25 29.5573 27.25 29.6875C27.25 29.8177 27.2673 29.9219 27.2891 29.9219C27.3108 29.9219 27.3281 30.0261 27.3281 30.1562C27.3281 30.2864 27.3455 30.3906 27.3672 30.3906C27.3887 30.3906 27.4062 30.4609 27.4062 30.5469C27.4062 30.6328 27.4238 30.7031 27.4453 30.7031C27.4668 30.7031 27.4844 30.7734 27.4844 30.8594C27.4844 30.9453 27.502 31.0156 27.5234 31.0156C27.5449 31.0156 27.5625 31.0859 27.5625 31.1719C27.5625 31.2578 27.5801 31.3281 27.6016 31.3281C27.623 31.3281 27.6406 31.3984 27.6406 31.4844C27.6406 31.5703 27.6582 31.6406 27.6797 31.6406C27.7012 31.6406 27.7188 31.6934 27.7188 31.7578C27.7188 31.8223 27.7363 31.875 27.7578 31.875C27.7793 31.875 27.7969 31.9277 27.7969 31.9922C27.7969 32.0566 27.8145 32.1094 27.8359 32.1094C27.8574 32.1094 27.875 32.1621 27.875 32.2266C27.875 32.291 27.8926 32.3438 27.9141 32.3438C27.9355 32.3438 27.9531 32.3965 27.9531 32.4609C27.9531 32.5254 27.9707 32.5781 27.9922 32.5781C28.0137 32.5781 28.0312 32.6133 28.0312 32.6562C28.0312 32.6992 28.0488 32.7344 28.0703 32.7344C28.0918 32.7344 28.1094 32.7871 28.1094 32.8516C28.1094 32.916 28.127 32.9688 28.1484 32.9688C28.1699 32.9688 28.1875 33.0039 28.1875 33.0469C28.1875 33.0898 28.2051 33.125 28.2266 33.125C28.248 33.125 28.2656 33.1602 28.2656 33.2031C28.2656 33.2461 28.2832 33.2812 28.3047 33.2812C28.3262 33.2812 28.3438 33.3164 28.3438 33.3594C28.3438 33.4023 28.3613 33.4375 28.3828 33.4375C28.4043 33.4375 28.4219 33.4902 28.4219 33.5547C28.4219 33.6191 28.4395 33.6719 28.4609 33.6719C28.4824 33.6719 28.5 33.707 28.5 33.75C28.5 33.793 28.5176 33.8281 28.5391 33.8281C28.5605 33.8281 28.5781 33.8633 28.5781 33.9062C28.5781 33.9492 28.5957 33.9844 28.6172 33.9844C28.6387 33.9844 28.6562 34.0195 28.6562 34.0625C28.6562 34.1055 28.6738 34.1406 28.6953 34.1406C28.7168 34.1406 28.7344 34.1719 28.7344 34.2101C28.7344 34.2484 28.7695 34.305 28.8125 34.3359C28.8555 34.3669 28.8906 34.4235 28.8906 34.4618C28.8906 34.5 28.9082 34.5312 28.9297 34.5312C28.9512 34.5312 28.9688 34.5664 28.9688 34.6094C28.9688 34.6523 28.9863 34.6875 29.0078 34.6875C29.0293 34.6875 29.0469 34.7188 29.0469 34.757C29.0469 34.7952 29.082 34.8518 29.125 34.8828C29.168 34.9138 29.2031 34.9665 29.2031 35C29.2031 35.0335 29.2383 35.0862 29.2812 35.1172C29.3242 35.1482 29.3594 35.2009 29.3594 35.2344C29.3594 35.2679 29.3945 35.3206 29.4375 35.3516C29.4805 35.3825 29.5156 35.4353 29.5156 35.4688C29.5156 35.5022 29.5508 35.555 29.5938 35.5859C29.6367 35.6169 29.6719 35.6696 29.6719 35.7031C29.6719 35.7366 29.707 35.7893 29.75 35.8203C29.793 35.8513 29.8281 35.9009 29.8281 35.9305C29.8281 35.96 29.8809 36.0336 29.9453 36.0938C30.0098 36.1539 30.0625 36.2237 30.0625 36.2487C30.0625 36.2737 30.1504 36.3797 30.2578 36.4844C30.3652 36.589 30.4531 36.6934 30.4531 36.7164C30.4531 36.7714 31.9634 38.2812 32.0184 38.2812C32.0418 38.2812 32.1284 38.3516 32.2109 38.4375C32.2935 38.5234 32.3814 38.5938 32.4062 38.5938C32.4311 38.5938 32.519 38.6641 32.6016 38.75C32.6841 38.8359 32.7755 38.9062 32.8047 38.9062C32.8339 38.9062 32.8831 38.9414 32.9141 38.9844C32.945 39.0273 32.9978 39.0625 33.0312 39.0625C33.0647 39.0625 33.1175 39.0977 33.1484 39.1406C33.1794 39.1836 33.2321 39.2188 33.2656 39.2188C33.2991 39.2188 33.3518 39.2539 33.3828 39.2969C33.4138 39.3398 33.4665 39.375 33.5 39.375C33.5335 39.375 33.5862 39.4102 33.6172 39.4531C33.6482 39.4961 33.7048 39.5312 33.743 39.5312C33.7812 39.5312 33.8125 39.5488 33.8125 39.5703C33.8125 39.5918 33.8396 39.6094 33.8729 39.6094C33.9061 39.6094 33.9764 39.6525 34.0291 39.7053L34.125 39.8011V41.2287V42.6562H24.75H15.375V25.8594C15.375 14.6875 15.3619 9.0625 15.3359 9.0625C15.3145 9.0625 15.2969 8.97461 15.2969 8.86719C15.2969 8.75977 15.2793 8.67188 15.2578 8.67188C15.2363 8.67188 15.2188 8.60156 15.2188 8.51562C15.2188 8.42969 15.2012 8.35938 15.1797 8.35938C15.1582 8.35938 15.1406 8.30664 15.1406 8.24219C15.1406 8.17773 15.123 8.125 15.1016 8.125C15.0801 8.125 15.0625 8.07227 15.0625 8.00781C15.0625 7.94336 15.0449 7.89062 15.0234 7.89062C15.002 7.89062 14.9844 7.85547 14.9844 7.8125C14.9844 7.76953 14.9668 7.73438 14.9453 7.73438C14.9238 7.73438 14.9062 7.69922 14.9062 7.65625C14.9062 7.61328 14.8887 7.57812 14.8672 7.57812C14.8457 7.57812 14.8281 7.54297 14.8281 7.5C14.8281 7.45703 14.8105 7.42188 14.7891 7.42188C14.7676 7.42188 14.75 7.4043 14.75 7.38281C14.75 7.35687 17.6797 7.34375 23.4609 7.34375C29.2422 7.34375 32.1719 7.35687 32.1719 7.38281ZM18.5781 12.0703C18.5781 12.0918 18.543 12.1094 18.5 12.1094C18.457 12.1094 18.4219 12.127 18.4219 12.1484C18.4219 12.1699 18.3867 12.1875 18.3438 12.1875C18.3008 12.1875 18.2656 12.2051 18.2656 12.2266C18.2656 12.248 18.2385 12.2656 18.2053 12.2656C18.1271 12.2656 17.9531 12.4396 17.9531 12.5178C17.9531 12.551 17.9355 12.5781 17.9141 12.5781C17.8926 12.5781 17.875 12.6133 17.875 12.6562C17.875 12.6992 17.8574 12.7344 17.8359 12.7344C17.8145 12.7344 17.7969 12.7695 17.7969 12.8125C17.7969 12.8555 17.7793 12.8906 17.7578 12.8906C17.735 12.8906 17.7188 13.0208 17.7188 13.2031C17.7188 13.3854 17.735 13.5156 17.7578 13.5156C17.7793 13.5156 17.7969 13.5508 17.7969 13.5938C17.7969 13.6367 17.8145 13.6719 17.8359 13.6719C17.8574 13.6719 17.875 13.707 17.875 13.75C17.875 13.793 17.8926 13.8281 17.9141 13.8281C17.9355 13.8281 17.9531 13.8553 17.9531 13.8885C17.9531 13.9666 18.1271 14.1406 18.2053 14.1406C18.2385 14.1406 18.2656 14.1582 18.2656 14.1797C18.2656 14.2012 18.3008 14.2188 18.3438 14.2188C18.3867 14.2188 18.4219 14.2363 18.4219 14.2578C18.4219 14.2793 18.457 14.2969 18.5 14.2969C18.543 14.2969 18.5781 14.3145 18.5781 14.3359C18.5781 14.3618 20.6614 14.375 24.75 14.375C28.8386 14.375 30.9219 14.3618 30.9219 14.3359C30.9219 14.3145 30.957 14.2969 31 14.2969C31.043 14.2969 31.0781 14.2793 31.0781 14.2578C31.0781 14.2363 31.1133 14.2188 31.1562 14.2188C31.1992 14.2188 31.2344 14.2012 31.2344 14.1797C31.2344 14.1582 31.2615 14.1406 31.2947 14.1406C31.3729 14.1406 31.5469 13.9666 31.5469 13.8885C31.5469 13.8553 31.5645 13.8281 31.5859 13.8281C31.6074 13.8281 31.625 13.793 31.625 13.75C31.625 13.707 31.6426 13.6719 31.6641 13.6719C31.6855 13.6719 31.7031 13.6367 31.7031 13.5938C31.7031 13.5508 31.7207 13.5156 31.7422 13.5156C31.765 13.5156 31.7812 13.3854 31.7812 13.2031C31.7812 13.0208 31.765 12.8906 31.7422 12.8906C31.7207 12.8906 31.7031 12.8555 31.7031 12.8125C31.7031 12.7695 31.6855 12.7344 31.6641 12.7344C31.6426 12.7344 31.625 12.6992 31.625 12.6562C31.625 12.6133 31.6074 12.5781 31.5859 12.5781C31.5645 12.5781 31.5469 12.551 31.5469 12.5178C31.5469 12.4396 31.3729 12.2656 31.2947 12.2656C31.2615 12.2656 31.2344 12.248 31.2344 12.2266C31.2344 12.2051 31.1992 12.1875 31.1562 12.1875C31.1133 12.1875 31.0781 12.1699 31.0781 12.1484C31.0781 12.127 31.043 12.1094 31 12.1094C30.957 12.1094 30.9219 12.0918 30.9219 12.0703C30.9219 12.0445 28.8386 12.0312 24.75 12.0312C20.6614 12.0312 18.5781 12.0445 18.5781 12.0703ZM18.5781 16.7578C18.5781 16.7793 18.543 16.7969 18.5 16.7969C18.457 16.7969 18.4219 16.8145 18.4219 16.8359C18.4219 16.8574 18.3867 16.875 18.3438 16.875C18.3008 16.875 18.2656 16.8926 18.2656 16.9141C18.2656 16.9355 18.2385 16.9531 18.2053 16.9531C18.1721 16.9531 18.1018 16.9963 18.049 17.049C17.9963 17.1018 17.9531 17.1721 17.9531 17.2053C17.9531 17.2385 17.9355 17.2656 17.9141 17.2656C17.8926 17.2656 17.875 17.3008 17.875 17.3438C17.875 17.3867 17.8574 17.4219 17.8359 17.4219C17.8145 17.4219 17.7969 17.457 17.7969 17.5C17.7969 17.543 17.7793 17.5781 17.7578 17.5781C17.735 17.5781 17.7188 17.7083 17.7188 17.8906C17.7188 18.0729 17.735 18.2031 17.7578 18.2031C17.7793 18.2031 17.7969 18.2383 17.7969 18.2812C17.7969 18.3242 17.8145 18.3594 17.8359 18.3594C17.8574 18.3594 17.875 18.3945 17.875 18.4375C17.875 18.4805 17.8926 18.5156 17.9141 18.5156C17.9355 18.5156 17.9531 18.5428 17.9531 18.576C17.9531 18.6541 18.1271 18.8281 18.2053 18.8281C18.2385 18.8281 18.2656 18.8457 18.2656 18.8672C18.2656 18.8887 18.3008 18.9062 18.3438 18.9062C18.3867 18.9062 18.4219 18.9238 18.4219 18.9453C18.4219 18.9668 18.457 18.9844 18.5 18.9844C18.543 18.9844 18.5781 19.002 18.5781 19.0234C18.5781 19.0493 20.6614 19.0625 24.75 19.0625C28.8386 19.0625 30.9219 19.0493 30.9219 19.0234C30.9219 19.002 30.957 18.9844 31 18.9844C31.043 18.9844 31.0781 18.9668 31.0781 18.9453C31.0781 18.9238 31.1133 18.9062 31.1562 18.9062C31.1992 18.9062 31.2344 18.8887 31.2344 18.8672C31.2344 18.8457 31.2615 18.8281 31.2947 18.8281C31.3729 18.8281 31.5469 18.6541 31.5469 18.576C31.5469 18.5428 31.5645 18.5156 31.5859 18.5156C31.6074 18.5156 31.625 18.4805 31.625 18.4375C31.625 18.3945 31.6426 18.3594 31.6641 18.3594C31.6855 18.3594 31.7031 18.3242 31.7031 18.2812C31.7031 18.2383 31.7207 18.2031 31.7422 18.2031C31.765 18.2031 31.7812 18.0729 31.7812 17.8906C31.7812 17.7083 31.765 17.5781 31.7422 17.5781C31.7207 17.5781 31.7031 17.543 31.7031 17.5C31.7031 17.457 31.6855 17.4219 31.6641 17.4219C31.6426 17.4219 31.625 17.3867 31.625 17.3438C31.625 17.3008 31.6074 17.2656 31.5859 17.2656C31.5645 17.2656 31.5469 17.2385 31.5469 17.2053C31.5469 17.1271 31.3729 16.9531 31.2947 16.9531C31.2615 16.9531 31.2344 16.9355 31.2344 16.9141C31.2344 16.8926 31.1992 16.875 31.1562 16.875C31.1133 16.875 31.0781 16.8574 31.0781 16.8359C31.0781 16.8145 31.043 16.7969 31 16.7969C30.957 16.7969 30.9219 16.7793 30.9219 16.7578C30.9219 16.732 28.8386 16.7188 24.75 16.7188C20.6614 16.7188 18.5781 16.732 18.5781 16.7578ZM18.5781 21.4453C18.5781 21.4668 18.543 21.4844 18.5 21.4844C18.457 21.4844 18.4219 21.502 18.4219 21.5234C18.4219 21.5449 18.3867 21.5625 18.3438 21.5625C18.3008 21.5625 18.2656 21.5801 18.2656 21.6016C18.2656 21.623 18.2385 21.6406 18.2053 21.6406C18.1721 21.6406 18.1018 21.6838 18.049 21.7365C17.9963 21.7893 17.9531 21.8596 17.9531 21.8928C17.9531 21.926 17.9355 21.9531 17.9141 21.9531C17.8926 21.9531 17.875 21.9883 17.875 22.0312C17.875 22.0742 17.8574 22.1094 17.8359 22.1094C17.8145 22.1094 17.7969 22.1445 17.7969 22.1875C17.7969 22.2305 17.7793 22.2656 17.7578 22.2656C17.735 22.2656 17.7188 22.3958 17.7188 22.5781C17.7188 22.7604 17.735 22.8906 17.7578 22.8906C17.7793 22.8906 17.7969 22.9258 17.7969 22.9688C17.7969 23.0117 17.8145 23.0469 17.8359 23.0469C17.8574 23.0469 17.875 23.082 17.875 23.125C17.875 23.168 17.8926 23.2031 17.9141 23.2031C17.9355 23.2031 17.9531 23.2303 17.9531 23.2635C17.9531 23.3416 18.1271 23.5156 18.2053 23.5156C18.2385 23.5156 18.2656 23.5332 18.2656 23.5547C18.2656 23.5762 18.3008 23.5938 18.3438 23.5938C18.3867 23.5938 18.4219 23.6113 18.4219 23.6328C18.4219 23.6543 18.457 23.6719 18.5 23.6719C18.543 23.6719 18.5781 23.6895 18.5781 23.7109C18.5781 23.7366 19.4896 23.75 21.2344 23.75C22.9792 23.75 23.8906 23.7366 23.8906 23.7109C23.8906 23.6895 23.9258 23.6719 23.9688 23.6719C24.0117 23.6719 24.0469 23.6543 24.0469 23.6328C24.0469 23.6113 24.082 23.5938 24.125 23.5938C24.168 23.5938 24.2031 23.5762 24.2031 23.5547C24.2031 23.5332 24.2303 23.5156 24.2635 23.5156C24.3416 23.5156 24.5156 23.3416 24.5156 23.2635C24.5156 23.2303 24.5332 23.2031 24.5547 23.2031C24.5762 23.2031 24.5938 23.168 24.5938 23.125C24.5938 23.082 24.6113 23.0469 24.6328 23.0469C24.6543 23.0469 24.6719 23.0117 24.6719 22.9688C24.6719 22.9258 24.6895 22.8906 24.7109 22.8906C24.7337 22.8906 24.75 22.7604 24.75 22.5781C24.75 22.3958 24.7337 22.2656 24.7109 22.2656C24.6895 22.2656 24.6719 22.2305 24.6719 22.1875C24.6719 22.1445 24.6543 22.1094 24.6328 22.1094C24.6113 22.1094 24.5938 22.0742 24.5938 22.0312C24.5938 21.9883 24.5762 21.9531 24.5547 21.9531C24.5332 21.9531 24.5156 21.926 24.5156 21.8928C24.5156 21.8146 24.3416 21.6406 24.2635 21.6406C24.2303 21.6406 24.2031 21.623 24.2031 21.6016C24.2031 21.5801 24.168 21.5625 24.125 21.5625C24.082 21.5625 24.0469 21.5449 24.0469 21.5234C24.0469 21.502 24.0117 21.4844 23.9688 21.4844C23.9258 21.4844 23.8906 21.4668 23.8906 21.4453C23.8906 21.4196 22.9792 21.4062 21.2344 21.4062C19.4896 21.4062 18.5781 21.4196 18.5781 21.4453ZM35.4141 24.0625C35.445 24.1055 35.5016 24.1406 35.5399 24.1406C35.5781 24.1406 35.6094 24.1582 35.6094 24.1797C35.6094 24.2012 35.6407 24.2188 35.6789 24.2188C35.7171 24.2188 35.7737 24.2539 35.8047 24.2969C35.8357 24.3398 35.8923 24.375 35.9305 24.375C35.9687 24.375 36 24.3926 36 24.4141C36 24.4355 36.0352 24.4531 36.0781 24.4531C36.1211 24.4531 36.1562 24.4707 36.1562 24.4922C36.1562 24.5137 36.1914 24.5312 36.2344 24.5312C36.2773 24.5312 36.3125 24.5488 36.3125 24.5703C36.3125 24.5918 36.3438 24.6094 36.382 24.6094C36.4202 24.6094 36.4768 24.6445 36.5078 24.6875C36.5388 24.7305 36.5954 24.7656 36.6336 24.7656C36.6718 24.7656 36.7031 24.7832 36.7031 24.8047C36.7031 24.8262 36.7559 24.8438 36.8203 24.8438C36.8848 24.8438 36.9375 24.8613 36.9375 24.8828C36.9375 24.9043 36.9727 24.9219 37.0156 24.9219C37.0586 24.9219 37.0938 24.9395 37.0938 24.9609C37.0938 24.9824 37.1289 25 37.1719 25C37.2148 25 37.25 25.0176 37.25 25.0391C37.25 25.0605 37.2852 25.0781 37.3281 25.0781C37.3711 25.0781 37.4062 25.0957 37.4062 25.1172C37.4062 25.1387 37.459 25.1562 37.5234 25.1562C37.5879 25.1562 37.6406 25.1738 37.6406 25.1953C37.6406 25.2168 37.6758 25.2344 37.7188 25.2344C37.7617 25.2344 37.7969 25.252 37.7969 25.2734C37.7969 25.2949 37.8496 25.3125 37.9141 25.3125C37.9785 25.3125 38.0312 25.3301 38.0312 25.3516C38.0312 25.373 38.084 25.3906 38.1484 25.3906C38.2129 25.3906 38.2656 25.4082 38.2656 25.4297C38.2656 25.4512 38.3184 25.4688 38.3828 25.4688C38.4473 25.4688 38.5 25.4863 38.5 25.5078C38.5 25.5293 38.5527 25.5469 38.6172 25.5469C38.6816 25.5469 38.7344 25.5645 38.7344 25.5859C38.7344 25.6074 38.8047 25.625 38.8906 25.625C38.9766 25.625 39.0469 25.6426 39.0469 25.6641C39.0469 25.6855 39.1172 25.7031 39.2031 25.7031C39.2891 25.7031 39.3594 25.7207 39.3594 25.7422C39.3594 25.7637 39.4297 25.7812 39.5156 25.7812C39.6016 25.7812 39.6719 25.7988 39.6719 25.8203C39.6719 25.842 39.7761 25.8594 39.9062 25.8594C40.0364 25.8594 40.1406 25.8767 40.1406 25.8984C40.1406 25.9202 40.2448 25.9375 40.375 25.9375C40.5052 25.9375 40.6094 25.9548 40.6094 25.9766C40.6094 25.9989 40.7266 26.0156 40.8828 26.0156H41.1562V27.2656C41.1562 28.0729 41.1424 28.5156 41.1172 28.5156C41.094 28.5156 41.0781 28.6589 41.0781 28.8672C41.0781 29.0755 41.0622 29.2188 41.0391 29.2188C41.0173 29.2188 41 29.3229 41 29.4531C41 29.5833 40.9827 29.6875 40.9609 29.6875C40.9395 29.6875 40.9219 29.7754 40.9219 29.8828C40.9219 29.9902 40.9043 30.0781 40.8828 30.0781C40.8613 30.0781 40.8438 30.1484 40.8438 30.2344C40.8438 30.3203 40.8262 30.3906 40.8047 30.3906C40.7832 30.3906 40.7656 30.4609 40.7656 30.5469C40.7656 30.6328 40.748 30.7031 40.7266 30.7031C40.7051 30.7031 40.6875 30.7734 40.6875 30.8594C40.6875 30.9453 40.6699 31.0156 40.6484 31.0156C40.627 31.0156 40.6094 31.0684 40.6094 31.1328C40.6094 31.1973 40.5918 31.25 40.5703 31.25C40.5488 31.25 40.5312 31.3027 40.5312 31.3672C40.5312 31.4316 40.5137 31.4844 40.4922 31.4844C40.4707 31.4844 40.4531 31.5371 40.4531 31.6016C40.4531 31.666 40.4355 31.7188 40.4141 31.7188C40.3926 31.7188 40.375 31.7539 40.375 31.7969C40.375 31.8398 40.3574 31.875 40.3359 31.875C40.3145 31.875 40.2969 31.9277 40.2969 31.9922C40.2969 32.0566 40.2793 32.1094 40.2578 32.1094C40.2363 32.1094 40.2188 32.1445 40.2188 32.1875C40.2188 32.2305 40.2012 32.2656 40.1797 32.2656C40.1582 32.2656 40.1406 32.3008 40.1406 32.3438C40.1406 32.3867 40.123 32.4219 40.1016 32.4219C40.0801 32.4219 40.0625 32.457 40.0625 32.5C40.0625 32.543 40.0449 32.5781 40.0234 32.5781C40.002 32.5781 39.9844 32.6133 39.9844 32.6562C39.9844 32.6992 39.9668 32.7344 39.9453 32.7344C39.9238 32.7344 39.9062 32.7695 39.9062 32.8125C39.9062 32.8555 39.8887 32.8906 39.8672 32.8906C39.8457 32.8906 39.8281 32.9258 39.8281 32.9688C39.8281 33.0117 39.8105 33.0469 39.7891 33.0469C39.7676 33.0469 39.75 33.082 39.75 33.125C39.75 33.168 39.7324 33.2031 39.7109 33.2031C39.6895 33.2031 39.6719 33.2383 39.6719 33.2812C39.6719 33.3242 39.6543 33.3594 39.6328 33.3594C39.6113 33.3594 39.5938 33.3907 39.5938 33.4289C39.5938 33.4671 39.5586 33.5237 39.5156 33.5547C39.4727 33.5857 39.4375 33.6423 39.4375 33.6805C39.4375 33.7187 39.4199 33.75 39.3984 33.75C39.377 33.75 39.3594 33.7813 39.3594 33.8195C39.3594 33.8577 39.3242 33.9143 39.2812 33.9453C39.2383 33.9763 39.2031 34.029 39.2031 34.0625C39.2031 34.096 39.168 34.1487 39.125 34.1797C39.082 34.2107 39.0469 34.2602 39.0469 34.2898C39.0469 34.3194 38.9941 34.3929 38.9297 34.4531C38.8652 34.5133 38.8125 34.5836 38.8125 34.6094C38.8125 34.6351 38.7598 34.7054 38.6953 34.7656C38.6309 34.8258 38.5781 34.8954 38.5781 34.9202C38.5781 34.945 38.4727 35.0688 38.3438 35.1953C38.2148 35.3218 38.1094 35.4441 38.1094 35.467C38.1094 35.5217 37.3026 36.3281 37.2479 36.3281C37.2248 36.3281 37.1203 36.416 37.0156 36.5234C36.911 36.6309 36.8053 36.7188 36.7807 36.7188C36.7562 36.7188 36.6685 36.7891 36.5859 36.875C36.5034 36.9609 36.412 37.0312 36.3828 37.0312C36.3536 37.0312 36.3044 37.0664 36.2734 37.1094C36.2425 37.1523 36.1897 37.1875 36.1562 37.1875C36.1228 37.1875 36.07 37.2227 36.0391 37.2656C36.0081 37.3086 35.9554 37.3438 35.9219 37.3438C35.8884 37.3438 35.8357 37.3789 35.8047 37.4219C35.7737 37.4648 35.721 37.5 35.6875 37.5C35.654 37.5 35.6013 37.5352 35.5703 37.5781C35.5393 37.6211 35.4827 37.6562 35.4445 37.6562C35.4063 37.6562 35.375 37.6738 35.375 37.6953C35.375 37.7644 35.2379 37.737 35.1797 37.6562C35.1487 37.6133 35.0921 37.5781 35.0539 37.5781C35.0157 37.5781 34.9844 37.5605 34.9844 37.5391C34.9844 37.5176 34.9531 37.5 34.9149 37.5C34.8766 37.5 34.82 37.4648 34.7891 37.4219C34.7581 37.3789 34.7054 37.3438 34.6719 37.3438C34.6384 37.3438 34.5857 37.3086 34.5547 37.2656C34.5237 37.2227 34.4741 37.1875 34.4445 37.1875C34.415 37.1875 34.3414 37.1348 34.2812 37.0703C34.2211 37.0059 34.1507 36.9531 34.125 36.9531C34.0993 36.9531 34.0289 36.9004 33.9688 36.8359C33.9086 36.7715 33.839 36.7188 33.8142 36.7188C33.7894 36.7188 33.6656 36.6133 33.5391 36.4844C33.4125 36.3555 33.2903 36.25 33.2673 36.25C33.2127 36.25 32.4062 35.4432 32.4062 35.3886C32.4062 35.3654 32.3184 35.2609 32.2109 35.1562C32.1035 35.0516 32.0156 34.9455 32.0156 34.9205C32.0156 34.8955 31.9629 34.8258 31.8984 34.7656C31.834 34.7054 31.7812 34.6351 31.7812 34.6094C31.7812 34.5836 31.7285 34.5133 31.6641 34.4531C31.5996 34.3929 31.5469 34.3194 31.5469 34.2898C31.5469 34.2602 31.5117 34.2107 31.4688 34.1797C31.4258 34.1487 31.3906 34.096 31.3906 34.0625C31.3906 34.029 31.3555 33.9763 31.3125 33.9453C31.2695 33.9143 31.2344 33.8577 31.2344 33.8195C31.2344 33.7813 31.2168 33.75 31.1953 33.75C31.1738 33.75 31.1562 33.7187 31.1562 33.6805C31.1562 33.6423 31.1211 33.5857 31.0781 33.5547C31.0352 33.5237 31 33.4671 31 33.4289C31 33.3907 30.9824 33.3594 30.9609 33.3594C30.9395 33.3594 30.9219 33.3242 30.9219 33.2812C30.9219 33.2383 30.9043 33.2031 30.8828 33.2031C30.8613 33.2031 30.8438 33.168 30.8438 33.125C30.8438 33.082 30.8262 33.0469 30.8047 33.0469C30.7832 33.0469 30.7656 33.0117 30.7656 32.9688C30.7656 32.9258 30.748 32.8906 30.7266 32.8906C30.7051 32.8906 30.6875 32.8555 30.6875 32.8125C30.6875 32.7695 30.6699 32.7344 30.6484 32.7344C30.627 32.7344 30.6094 32.6992 30.6094 32.6562C30.6094 32.6133 30.5918 32.5781 30.5703 32.5781C30.5488 32.5781 30.5312 32.543 30.5312 32.5C30.5312 32.457 30.5137 32.4219 30.4922 32.4219C30.4707 32.4219 30.4531 32.3867 30.4531 32.3438C30.4531 32.3008 30.4355 32.2656 30.4141 32.2656C30.3926 32.2656 30.375 32.2305 30.375 32.1875C30.375 32.1445 30.3574 32.1094 30.3359 32.1094C30.3145 32.1094 30.2969 32.0566 30.2969 31.9922C30.2969 31.9277 30.2793 31.875 30.2578 31.875C30.2363 31.875 30.2188 31.8398 30.2188 31.7969C30.2188 31.7539 30.2012 31.7188 30.1797 31.7188C30.1582 31.7188 30.1406 31.666 30.1406 31.6016C30.1406 31.5371 30.123 31.4844 30.1016 31.4844C30.0801 31.4844 30.0625 31.4316 30.0625 31.3672C30.0625 31.3027 30.0449 31.25 30.0234 31.25C30.002 31.25 29.9844 31.1973 29.9844 31.1328C29.9844 31.0684 29.9668 31.0156 29.9453 31.0156C29.9238 31.0156 29.9062 30.9453 29.9062 30.8594C29.9062 30.7734 29.8887 30.7031 29.8672 30.7031C29.8457 30.7031 29.8281 30.6504 29.8281 30.5859C29.8281 30.5215 29.8105 30.4688 29.7891 30.4688C29.7676 30.4688 29.75 30.3809 29.75 30.2734C29.75 30.166 29.7324 30.0781 29.7109 30.0781C29.6895 30.0781 29.6719 29.9902 29.6719 29.8828C29.6719 29.7754 29.6543 29.6875 29.6328 29.6875C29.6111 29.6875 29.5938 29.5833 29.5938 29.4531C29.5938 29.3229 29.5764 29.2188 29.5547 29.2188C29.5315 29.2188 29.5156 29.0755 29.5156 28.8672C29.5156 28.6589 29.4997 28.5156 29.4766 28.5156C29.4513 28.5156 29.4375 28.0729 29.4375 27.2656V26.0156H29.7109C29.8672 26.0156 29.9844 25.9989 29.9844 25.9766C29.9844 25.9543 30.1016 25.9375 30.2578 25.9375C30.4141 25.9375 30.5312 25.9207 30.5312 25.8984C30.5312 25.877 30.6191 25.8594 30.7266 25.8594C30.834 25.8594 30.9219 25.8418 30.9219 25.8203C30.9219 25.7988 30.9922 25.7812 31.0781 25.7812C31.1641 25.7812 31.2344 25.7637 31.2344 25.7422C31.2344 25.7207 31.3047 25.7031 31.3906 25.7031C31.4766 25.7031 31.5469 25.6855 31.5469 25.6641C31.5469 25.6426 31.6172 25.625 31.7031 25.625C31.7891 25.625 31.8594 25.6074 31.8594 25.5859C31.8594 25.5645 31.9121 25.5469 31.9766 25.5469C32.041 25.5469 32.0938 25.5293 32.0938 25.5078C32.0938 25.4863 32.1465 25.4688 32.2109 25.4688C32.2754 25.4688 32.3281 25.4512 32.3281 25.4297C32.3281 25.4082 32.3809 25.3906 32.4453 25.3906C32.5098 25.3906 32.5625 25.373 32.5625 25.3516C32.5625 25.3301 32.6152 25.3125 32.6797 25.3125C32.7441 25.3125 32.7969 25.2949 32.7969 25.2734C32.7969 25.252 32.832 25.2344 32.875 25.2344C32.918 25.2344 32.9531 25.2168 32.9531 25.1953C32.9531 25.1738 33.0059 25.1562 33.0703 25.1562C33.1348 25.1562 33.1875 25.1387 33.1875 25.1172C33.1875 25.0957 33.2227 25.0781 33.2656 25.0781C33.3086 25.0781 33.3438 25.0605 33.3438 25.0391C33.3438 25.0176 33.3789 25 33.4219 25C33.4648 25 33.5 24.9824 33.5 24.9609C33.5 24.9395 33.5527 24.9219 33.6172 24.9219C33.6816 24.9219 33.7344 24.9043 33.7344 24.8828C33.7344 24.8613 33.7695 24.8438 33.8125 24.8438C33.8555 24.8438 33.8906 24.8262 33.8906 24.8047C33.8906 24.7832 33.9258 24.7656 33.9688 24.7656C34.0117 24.7656 34.0469 24.748 34.0469 24.7266C34.0469 24.7051 34.0782 24.6875 34.1164 24.6875C34.1546 24.6875 34.2112 24.6523 34.2422 24.6094C34.2732 24.5664 34.3298 24.5312 34.368 24.5312C34.4062 24.5312 34.4375 24.5137 34.4375 24.4922C34.4375 24.4707 34.4727 24.4531 34.5156 24.4531C34.5586 24.4531 34.5938 24.4355 34.5938 24.4141C34.5938 24.3926 34.625 24.375 34.6632 24.375C34.7015 24.375 34.7581 24.3398 34.7891 24.2969C34.82 24.2539 34.8766 24.2188 34.9149 24.2188C34.9531 24.2188 34.9844 24.2012 34.9844 24.1797C34.9844 24.1582 35.0157 24.1406 35.0539 24.1406C35.0921 24.1406 35.1487 24.1055 35.1797 24.0625C35.2107 24.0195 35.2634 23.9844 35.2969 23.9844C35.3304 23.9844 35.3831 24.0195 35.4141 24.0625Z" fill="#DD2A1B"/>
</svg>
