<svg width="50" height="50" viewBox="0 0 50 50" fill="none" xmlns="http://www.w3.org/2000/svg">
<path fill-rule="evenodd" clip-rule="evenodd" d="M39.195 15.2488L36.4975 19.921L37.4344 25.2341L34.9784 26.128V47H32.2627L24.6177 38.9303L16.9961 47H14.2555V26.142L11.7607 25.234L12.6975 19.9209L10 15.2487L14.1328 11.7808L15.0697 6.46781H20.4647L24.5975 3L28.7304 6.4679H34.1253L35.0622 11.7809L39.195 15.2488ZM16.8457 27.1061V43.3866L23.3217 36.5301V30.3707L19.5278 31.7515L16.8457 27.1061ZM25.912 36.5302L32.388 43.366V27.0709L32.3646 27.0794L29.6671 31.7515L25.912 30.3848V36.5302ZM34.5058 23.5434L33.7827 19.4424L35.8652 15.836L32.6751 13.1592L31.952 9.05818H27.7877L24.5977 6.38147L21.4076 9.05818H17.2434L16.5202 13.1592L13.3302 15.836L15.4123 19.4424L14.6892 23.5434L18.6023 24.9675L20.6844 28.5739L24.5975 27.1497L28.5106 28.5739L30.5927 24.9675L34.5058 23.5434ZM20.8318 16.1522L22.6324 18.2529L28.5694 13.8003L30.1236 15.8726L22.2452 21.7815L18.8651 17.838L20.8318 16.1522Z" fill="#DD2A1B"/>
</svg>
